<?xml version="1.0" encoding="UTF-8" standalone="no"?>
<svg
   xmlns:dc="http://purl.org/dc/elements/1.1/"
   xmlns:cc="http://creativecommons.org/ns#"
   xmlns:rdf="http://www.w3.org/1999/02/22-rdf-syntax-ns#"
   xmlns:svg="http://www.w3.org/2000/svg"
   xmlns="http://www.w3.org/2000/svg"
   xmlns:sodipodi="http://sodipodi.sourceforge.net/DTD/sodipodi-0.dtd"
   xmlns:inkscape="http://www.inkscape.org/namespaces/inkscape"
   width="181.273"
   height="42.423"
   viewBox="0 0 181.273 42.423"
   version="1.1"
   id="svg22"
   sodipodi:docname="logo_primary_brand_white_inline.svg"
   inkscape:version="0.92.3 (2405546, 2018-03-11)">
  <metadata
     id="metadata28">
    <rdf:RDF>
      <cc:Work
         rdf:about="">
        <dc:format>image/svg+xml</dc:format>
        <dc:type
           rdf:resource="http://purl.org/dc/dcmitype/StillImage" />
        <dc:title></dc:title>
      </cc:Work>
    </rdf:RDF>
  </metadata>
  <defs
     id="defs26" />
  <sodipodi:namedview
     pagecolor="#ffffff"
     bordercolor="#666666"
     borderopacity="1"
     objecttolerance="10"
     gridtolerance="10"
     guidetolerance="10"
     inkscape:pageopacity="0"
     inkscape:pageshadow="2"
     inkscape:window-width="1920"
     inkscape:window-height="1023"
     id="namedview24"
     showgrid="false"
     inkscape:zoom="1.528082"
     inkscape:cx="90.636497"
     inkscape:cy="21.2115"
     inkscape:window-x="0"
     inkscape:window-y="0"
     inkscape:window-maximized="1"
     inkscape:current-layer="svg22" />
  <g
     id="g884">
    <path
       style="fill:#ffffff;fill-opacity:1"
       inkscape:connector-curvature="0"
       d="m 106.302,27.439 h -2.8 c -1.452,0 -1.754,-0.137 -1.754,-0.384 0,-0.247 0.247,-0.548 1.206,-1.151 a 12.67,12.67 0 0 0 2.22,0.22 c 3.343,0 5.591,-1.563 5.591,-4.686 a 3.754,3.754 0 0 0 -1.635,-3.159 l -1.008,-0.693 c 0.005,0.024 0.007,0.046 0.013,0.07 a 5.685,5.685 0 0 0 -3.042,-0.686 c -4.138,0 -5.92,2 -5.92,4.577 a 3.883,3.883 0 0 0 3.179,4.166 c -2.137,1.288 -3.124,2.055 -3.124,3.617 0,1.206 0.877,2.548 4.138,2.548 h 2.658 c 2.878,0 3.481,0.521 3.481,1.836 0,1.726 -1.535,2.9 -4.44,2.9 -2.932,0 -3.508,-1.206 -3.508,-2.357 a 5.543,5.543 0 0 1 0.219,-1.507 l -1.644,-0.74 c -0.959,0.274 -2.11,0.822 -2.11,2.192 0,1.782 2,2.932 6.769,2.932 5.536,0 7.729,-2.193 7.729,-5.235 0.004,-3.72 -3.121,-4.46 -6.218,-4.46 z m -2.548,-6.5 c 0,-2.987 0.548,-3.48 1.316,-3.48 0.74,0 1.179,0.411 1.179,3.48 v 1.347 c 0,2.85 -0.466,3.289 -1.206,3.289 -0.822,0 -1.288,-0.575 -1.288,-3.152 z"
       data-name="Path 27"
       id="Path_27" />
    <path
       style="fill:#ffffff;fill-opacity:1"
       inkscape:connector-curvature="0"
       d="m 53.512,28.694 a 2.489,2.489 0 0 0 1.822,1.814 H 58.69 V 28.36 a 4.017,4.017 0 0 1 -0.032,-0.514 v -5.739 c 0,-4.1 -1.5,-5.344 -5.938,-5.344 -3.845,0 -5.909,1.1 -5.909,3.477 a 2.13,2.13 0 0 0 2.431,2.347 2.267,2.267 0 0 0 2.488,-2.205 3.309,3.309 0 0 0 -0.226,-1.273 h -0.706 a 2.5,2.5 0 0 1 -0.17,-0.82 1.182,1.182 0 0 1 1.329,-1.131 c 1.131,0 1.442,0.932 1.442,4.524 v 2.177 h -0.82 c -4.044,0 -6.5,0.65 -6.5,3.506 a 2.976,2.976 0 0 0 2.171,3.143 h 3.714 a 2.672,2.672 0 0 0 1.548,-1.814 z m -2.064,-1.81 c 0,-1.725 0.565,-2.573 1.753,-2.573 h 0.2 v 2.629 c 0,1.809 -0.679,2.715 -1.216,2.715 -0.537,0 -0.735,-0.283 -0.735,-2.319 z"
       data-name="Path 28"
       id="Path_28" />
    <path
       style="fill:#ffffff;fill-opacity:1"
       inkscape:connector-curvature="0"
       d="m 39.782,20.805 c -1.783,-0.487 -3.4,-0.784 -3.4,-2.026 0,-0.838 0.729,-1.567 2.512,-1.567 a 3.842,3.842 0 0 1 2.388,0.749 v -0.784 a 6.092,6.092 0 0 0 -2.523,-0.533 4.392,4.392 0 0 0 -4.755,4.567 c 0,3 2.4,3.837 4.566,4.431 2.053,0.567 3.378,0.837 3.378,2.053 0,1.027 -0.756,1.756 -2.756,1.756 -2.215,0 -3.864,-0.946 -4.863,-4.242 h -0.324 v 4.836 h 0.324 c 0.432,-0.756 0.811,-1 1.162,-1 a 1.313,1.313 0 0 1 0.514,0.216 6.692,6.692 0 0 0 3.242,0.784 c 3.053,0 5.053,-1.54 5.053,-4.62 -0.006,-3.188 -2.384,-4.052 -4.518,-4.62 z"
       data-name="Path 29"
       id="Path_29" />
    <path
       style="fill:#ffffff;fill-opacity:1"
       inkscape:connector-curvature="0"
       d="m 118.306,20.805 c -1.783,-0.487 -3.4,-0.784 -3.4,-2.026 0,-0.838 0.73,-1.567 2.513,-1.567 a 3.843,3.843 0 0 1 2.388,0.749 v -0.784 a 6.094,6.094 0 0 0 -2.523,-0.533 4.392,4.392 0 0 0 -4.755,4.567 c 0,3 2.4,3.837 4.566,4.431 2.053,0.567 3.378,0.837 3.378,2.053 0,1.027 -0.756,1.756 -2.756,1.756 -2.215,0 -3.864,-0.946 -4.863,-4.242 h -0.324 v 4.836 h 0.324 c 0.432,-0.756 0.811,-1 1.162,-1 a 1.32,1.32 0 0 1 0.514,0.216 6.692,6.692 0 0 0 3.242,0.784 c 3.053,0 5.052,-1.54 5.052,-4.62 -0.006,-3.188 -2.384,-4.052 -4.518,-4.62 z"
       data-name="Path 30"
       id="Path_30" />
    <path
       style="fill:#ffffff;fill-opacity:1"
       inkscape:connector-curvature="0"
       d="m 88.436,22.465 c 0,-2.31 1.112,-4.106 2.31,-4.106 0.713,0 1.055,0.285 1.055,2.709 v 9.212 h 5.3 v -8.528 c 0,-3.45 -1.768,-4.761 -4.42,-4.761 -2.823,0 -3.763,1.482 -4.248,2.908 v -2.627 h -6.872 v 0.513 h 1.568 v 12.492 h 5.3 z"
       data-name="Path 31"
       id="Path_31" />
    <path
       style="fill:#ffffff;fill-opacity:1"
       inkscape:connector-curvature="0"
       d="m 71.869,17.806 h -0.66 l -2.96,9.1 -3.3,-9.125 h 1.731 v -0.495 h -8.211 v 0.495 h 1.127 l 5.085,12.588 h 3.133 z"
       data-name="Path 32"
       id="Path_32" />
    <path
       style="fill:#ffffff;fill-opacity:1"
       inkscape:connector-curvature="0"
       d="m 141.167,24.885 v -2.224 c 0,-3.222 0.086,-5.446 1.825,-5.446 1.6,0 1.682,2.224 1.682,5.3 v 2.424 c 0,2.756 -0.048,4.391 -0.741,5.049 h 3.1 c 2.144,-1.115 3.114,-3.3 3.114,-6.417 0,-4.62 -2.281,-6.872 -7.071,-6.872 -4.591,0 -7.385,2.452 -7.385,7.129 0,2.95 1.074,5.066 3.19,6.161 h 3.123 c -0.8,-0.723 -0.837,-2.568 -0.837,-5.104 z"
       data-name="Path 33"
       id="Path_33" />
    <path
       style="fill:#ffffff;fill-opacity:1"
       inkscape:connector-curvature="0"
       d="m 79.912,17.322 h -6.986 v 0.513 h 1.682 v 12.493 h 5.3 z"
       data-name="Path 34"
       id="Path_34" />
    <path
       style="fill:#ffffff;fill-opacity:1"
       inkscape:connector-curvature="0"
       d="m 164.821,22.465 c 0,-2.31 1.112,-4.106 2.31,-4.106 0.713,0 1.055,0.285 1.055,2.709 v 9.212 h 5.3 v -8.528 c 0,-3.45 -1.768,-4.761 -4.419,-4.761 -2.823,0 -3.764,1.482 -4.249,2.908 v -2.627 h -6.872 v 0.513 h 1.567 v 12.492 h 5.3 z"
       data-name="Path 35"
       id="Path_35" />
    <path
       style="fill:#ffffff;fill-opacity:1"
       inkscape:connector-curvature="0"
       d="m 156.893,17.322 h -6.986 v 0.513 h 1.682 v 12.493 h 5.3 z"
       data-name="Path 36"
       id="Path_36" />
    <g
       style="fill:#ffffff;fill-opacity:1"
       transform="translate(122.818,17.275)"
       data-name="Group 14"
       id="Group_14">
      <path
         style="fill:#ffffff;fill-opacity:1"
         inkscape:connector-curvature="0"
         transform="translate(-224.106,-165.413)"
         d="m 229.167,171.312 v 1.364 c 0,3.356 0.6,4.85 2.648,4.85 a 3.887,3.887 0 0 0 3.7,-3.435 l 0.472,0.052 c -0.341,1.625 -1.206,4.274 -5.584,4.274 -4.038,0 -6.293,-2.255 -6.293,-6.345 0,-4.405 2.674,-6.659 7,-6.659 3.2,0 4.8,1.363 4.8,3.33 0,1.625 -0.865,2.464 -2.176,2.464 a 2.069,2.069 0 0 1 -2.333,-2.176 3.49,3.49 0 0 1 0.131,-0.944 h 0.865 a 2.836,2.836 0 0 0 0.183,-0.944 1.133,1.133 0 0 0 -1.259,-1.258 c -1.521,0 -2.154,1.52 -2.154,5.427 z"
         data-name="Path 37"
         id="Path_37" />
    </g>
    <g
       id="Group_430"
       data-name="Group 430"
       transform="translate(-67.49,1663.084)">
      <path
         id="Path_220"
         data-name="Path 220"
         d="m 85.367,-1613.446 -0.028,-0.028 -7.225,7.225 -7.048,-7.048 7.225,-7.225 -10.8,-10.8 7.048,-7.048 10.8,10.8 7.048,7.048 0.028,0.028 z"
         transform="translate(0,-14.411)"
         inkscape:connector-curvature="0"
         style="fill:#d3a115" />
      <rect
         id="Rectangle_326"
         data-name="Rectangle 326"
         width="9.967"
         height="9.967"
         transform="rotate(-45,-1960.2063,-921.70397)"
         x="0"
         y="0"
         style="fill:#d3a115" />
    </g>
  </g>
</svg>
