<?xml version="1.0" encoding="utf-8"?>
<!-- Generator: Adobe Illustrator 23.0.6, SVG Export Plug-In . SVG Version: 6.00 Build 0)  -->
<svg version="1.1" id="Layer_1" xmlns="http://www.w3.org/2000/svg" xmlns:xlink="http://www.w3.org/1999/xlink" x="0px" y="0px"
	 viewBox="0 0 400 245" style="enable-background:new 0 0 400 245;" xml:space="preserve">
<style type="text/css">
	.st0{fill:none;}
	.st1{fill:#CF00FF;}
	.st2{fill:#008FFF;}
</style>
<path pointer-events="none" class="st0" d="M0,0h400v245H0V0z"/>
<g transform="matrix(2.34522 0 0 2.34522 4.409 67.153)">
	<title>Acc_Logo_Full_Black_RGB</title>
	<path class="st1" d="M97.2,6.5l9.4,3.7l-9.4,3.5v5l16.1-6.5v-4L97.2,1.7V6.5z"/>
	<path d="M10.9,25.1c-4.5,0-7.8,2-8.1,6.2h5v-0.1c0.1-1.4,1.4-2.4,2.8-2.3c1.9,0,2.8,1.1,2.8,3v0.9h-2.3c-4.9,0-8.9,1.5-8.9,6.2v0.2
		c0,3.8,2.8,5.5,6.2,5.5c2.1,0.1,4-0.9,5.2-2.5v2.2h5.1V31.8C18.6,27,15.3,25.1,10.9,25.1z M9.8,41c-1.8,0-2.6-0.9-2.6-2.2v-0.2
		c0-1.7,1.3-2.4,3.9-2.4h2.1V38C13.3,40,11.6,41,9.8,41z M30.7,40.8c-2.5,0-3.8-1.7-3.8-5.5v-0.6c0-3.7,1.5-5.5,3.8-5.5
		c1.8,0,2.8,1.2,3.1,3h5c-0.4-4.9-4-7.1-8.2-7.1c-5,0-9,3.4-9,9.8v0.2c0,6.4,3.8,9.6,9,9.6c5.1,0,8-3.1,8.4-7.3h-4.8
		C33.8,39.5,32.5,40.8,30.7,40.8L30.7,40.8z M50.2,40.8c-2.5,0-3.8-1.7-3.8-5.5v-0.6c0-3.7,1.5-5.5,3.8-5.5c1.8,0,2.8,1.2,3.1,3h5
		c-0.4-4.9-4-7.1-8.2-7.1c-5,0-9,3.4-9,9.8v0.2c0,6.4,3.8,9.6,9,9.6c5.1,0,8-3.1,8.3-7.3h-4.7C53.4,39.5,52,40.8,50.2,40.8
		L50.2,40.8z M69.9,40.9c-2.3,0-3.7-1.3-3.9-4.7h12.2V34c0-6.2-3.9-8.9-8.6-8.9c-5.1,0-9,3.5-9,9.8v0.4c0,6.3,3.7,9.5,9.1,9.5
		c4.9,0,7.9-2.7,8.4-6.3h-4.9C73,40,71.5,41.1,69.9,40.9L69.9,40.9z M69.6,28.7c2.1,0,3.4,1.2,3.5,4h-7C66.5,29.7,68,28.8,69.6,28.7
		z"/>
	<path class="st2" d="M66.1,32.7L66.1,32.7L66.1,32.7z"/>
	<path d="M92.4,25.1c-2.4-0.1-4.6,1.1-5.7,3.2v-2.8h-5.2v18.8h5.2V32.8v-0.5c0.1-1.7,1.6-3.1,3.3-3c1.9,0,2.8,1,2.8,3.2v11.8h5.3
		V31.7C98.1,27.1,95.8,25.1,92.4,25.1L92.4,25.1z M107.9,38.3v-8.9h3.6v-3.9h-3.6v-5.7l-5.2,2.2v3.5h-2.3v3.9h2.2v9.5
		c0,3.8,1.9,5.7,6,5.7c1,0,2-0.1,3-0.4v-4.1c-0.6,0.2-1.2,0.3-1.8,0.3C108.6,40.4,107.9,39.7,107.9,38.3L107.9,38.3z M126,37.2v0.5
		c-0.1,1.7-1.6,3.1-3.3,3c-1.9,0-2.7-1-2.7-3.2v-12h-5.3v12.7c0,4.4,2.5,6.5,5.9,6.5c2.3,0.1,4.4-1.1,5.5-3.2v2.8h5.3V25.5h-5.3
		L126,37.2L126,37.2z M140.4,28.9v-3.5h-5.2v18.8h5.2v-9.7c0-3.1,2.1-4.2,5.7-4.2v-5.2C143.5,25.1,141.2,26.6,140.4,28.9L140.4,28.9
		z M165.3,33.9c0-6.2-3.9-8.8-8.6-8.8c-5.1,0-9,3.5-9,9.8v0.4c0,6.3,3.7,9.5,9.1,9.5c4.9,0,7.8-2.7,8.4-6.3h-4.9
		c-0.4,1.6-1.9,2.6-3.5,2.5c-2.3,0-3.7-1.3-3.9-4.7h12.2v-2.4H165.3z M153.1,32.7c0.4-3.1,1.9-4,3.6-4c2.1,0,3.4,1.2,3.5,4H153.1z"
		/>
	<path class="st2" d="M153.1,32.7"/>
</g>
</svg>
