<?xml version="1.0" encoding="utf-8"?>
<!-- Generator: Adobe Illustrator 21.0.0, SVG Export Plug-In . SVG Version: 6.00 Build 0)  -->
<svg version="1.1" id="Layer_1" xmlns="http://www.w3.org/2000/svg" xmlns:xlink="http://www.w3.org/1999/xlink" x="0px" y="0px"
	 viewBox="0 0 500 500" style="enable-background:new 0 0 500 500;" xml:space="preserve">
<style type="text/css">
	.st0{fill:#BD00FF;}
	.st1{fill:#008FFF;}
</style>
<title>Acc_Logo_Full_Black_RGB</title>
<polygon class="st0" points="280,212.6 301.1,220.8 280,228.7 280,239.9 316.1,225.3 316.1,216.4 280,201.8 "/>
<path d="M86.9,254.2c-10.1,0-17.5,4.5-18.1,13.9H80v-0.2c0.2-3.1,3.1-5.4,6.3-5.1c4.3,0,6.3,2.5,6.3,6.7v2h-5.1
	c-11,0-19.9,3.4-19.9,13.9v0.4c0,8.5,6.3,12.3,13.9,12.3l0,0c4.7,0.2,9-2,11.6-5.6v4.9h11.4v-28.2
	C104.2,258.4,96.8,254.2,86.9,254.2z M84.5,289.8c-4,0-5.8-2-5.8-4.9v-0.4c0-3.8,2.9-5.4,8.7-5.4h4.7v4l0,0
	C92.3,287.5,88.5,289.8,84.5,289.8z"/>
<path d="M131.2,289.3c-5.6,0-8.5-3.8-8.5-12.3v-1.3c0-8.3,3.4-12.3,8.5-12.3c4,0,6.3,2.7,6.9,6.7h11.2c-0.9-11-9-15.9-18.4-15.9
	c-11.2,0-20.1,7.6-20.1,21.9v0.4c0,14.3,8.5,21.5,20.1,21.5l0,0c11.4,0,17.9-6.9,18.8-16.3H139C138.2,286.4,135.3,289.3,131.2,289.3
	z"/>
<path d="M174.9,289.3c-5.6,0-8.5-3.8-8.5-12.3v-1.3c0-8.3,3.4-12.3,8.5-12.3c4,0,6.3,2.7,6.9,6.7H193c-0.9-11-9-15.9-18.4-15.9
	c-11.2,0-20.1,7.6-20.1,21.9v0.4c0,14.3,8.5,21.5,20.1,21.5l0,0c11.4,0,17.9-6.9,18.6-16.3h-10.5C182,286.4,178.9,289.3,174.9,289.3
	z"/>
<path d="M219,289.5c-5.1,0-8.3-2.9-8.7-10.5h27.3v-4.9c0-13.9-8.7-19.9-19.2-19.9c-11.4,0-20.1,7.8-20.1,21.9v0.9
	c0,14.1,8.3,21.3,20.4,21.3l0,0c11,0,17.7-6,18.8-14.1h-11C225.9,287.5,222.5,290,219,289.5z M218.3,262.2c4.7,0,7.6,2.7,7.8,9
	h-15.7l0,0l0,0l0,0C211.3,264.5,214.7,262.5,218.3,262.2z"/>
<polygon class="st1" points="210.5,271.2 210.5,271.2 210.2,271.2 "/>
<path d="M269.3,254.2c-5.4-0.2-10.3,2.5-12.8,7.2v-6.3h-11.6v42.1h11.6v-25.7c0-0.4,0-0.7,0-1.1c0.2-3.8,3.6-6.9,7.4-6.7
	c4.3,0,6.3,2.2,6.3,7.2v26.3h11.9V269C282.1,258.7,276.9,254.2,269.3,254.2z"/>
<path d="M304,283.7v-19.9h8.1v-8.7H304v-12.8l-11.6,4.9v7.8h-5.1v8.7h4.9V285c0,8.5,4.3,12.8,13.4,12.8c2.2,0,4.5-0.2,6.7-0.9v-9.2
	c-1.3,0.4-2.7,0.7-4,0.7C305.6,288.4,304,286.9,304,283.7z"/>
<path d="M344.5,281.3c0,0.4,0,0.7,0,1.1c-0.2,3.8-3.6,6.9-7.4,6.7c-4.3,0-6-2.2-6-7.2V255h-11.9v28.4c0,9.8,5.6,14.5,13.2,14.5
	c5.1,0.2,9.8-2.5,12.3-7.2v6.3h11.9v-42.1h-11.9L344.5,281.3L344.5,281.3z"/>
<path d="M376.7,262.7v-7.8h-11.6V297h11.6v-21.8c0-6.9,4.7-9.4,12.8-9.4v-11.6C383.7,254.2,378.5,257.5,376.7,262.7z"/>
<path d="M432.4,273.9c0-13.9-8.7-19.7-19.2-19.7c-11.4,0-20.1,7.8-20.1,21.9v0.9c0,14.1,8.3,21.3,20.4,21.3l0,0
	c11,0,17.5-6,18.8-14.1h-11c-0.9,3.6-4.3,5.8-7.8,5.6c-5.1,0-8.3-2.9-8.7-10.5h27.3v-5.4L432.4,273.9L432.4,273.9z M405.1,271.2
	L405.1,271.2L405.1,271.2c0.9-6.9,4.3-9,8.1-9c4.7,0,7.6,2.7,7.8,9H405.1L405.1,271.2z"/>
<path class="st1" d="M405.1,271.2L405.1,271.2L405.1,271.2L405.1,271.2z"/>
</svg>
