<svg xmlns="http://www.w3.org/2000/svg" role="img" viewBox="-4.48 -3.98 233.22 233.22"><style>svg {enable-background:new 0 0 225 225}</style><style>.st0{fill:#1d1d1b}</style><path d="M90.1 117.5l-1.8-5.7-2.6-8.5L65.2 167h26l15.9-49.5H96z" class="st0"/><path d="M0 .5V225h224.5V.5H0zM166.5 175h-31.8l-1.8-5.5-17-52h-.3l-16.7 51.9-1.8 5.6H54.3l3.4-10.4 24-74.7.3-.8 1.8-5.6h21.1L97.4 61 94 50.5h42.8l1.8 5.5 35.5 108.5 3.4 10.5h-11z" class="st0"/><path fill="#0c0c0c" d="M96 109.5h17l-1.6-5.2-2.2-7.3-1.8-5.5H90.5zm9-51l8.2 25 3.6 11.1 3.1 9.4 20.6 63h26L131 58.5z"/><path fill="#fff" d="M138.6 56l-1.8-5.5H94L97.4 61l7.4 22.5H83.7l-1.8 5.6-.3.8-24 74.7-3.3 10.4h42.8l1.8-5.6 16.7-51.9h.3l17 52 1.8 5.5h42.8l-3.4-10.5L138.6 56zm1.9 111l-20.6-63-3.1-9.4-3.6-11.1-8.2-25h26L166.5 167h-26zm-31.3-70l2.2 7.2 1.6 5.2H96l-5.5-18h16.9l1.8 5.6zm-18 70h-26l20.5-63.7 2.6 8.6 1.7 5.7h17.1L91.2 167z"/></svg>