<svg width="193" height="46" viewBox="0 0 193 46" fill="none" xmlns="http://www.w3.org/2000/svg">
<g clip-path="url(#clip0)">
<path d="M40.2489 33.0581L31.8996 28.4268V17.3696L38.6563 13.5481V24.6621C38.6563 25.1736 39.0759 25.5855 39.5861 25.5855C40.101 25.5855 40.5159 25.1688 40.5159 24.6621V11.9901C40.5159 11.6586 40.3395 11.3556 40.0486 11.1898L20.7419 0.118386C20.6084 0.0426189 20.4654 0.00947087 20.3223 0C20.2985 0 20.2794 0 20.2556 0C20.2365 0 20.2174 0 20.1936 0C20.0505 0.00473543 19.9075 0.0426189 19.774 0.118386L0.467289 11.1851C0.176426 11.3508 0 11.6586 0 11.9901V34.0194C0 34.3508 0.176426 34.6539 0.467289 34.8196L19.6786 45.8343C19.855 45.929 20.0553 46 20.2603 46C20.4606 46 20.5989 45.9479 20.8421 45.8343L40.1392 34.7581C40.3728 34.6208 40.5207 34.455 40.6065 34.3035C40.8544 33.8536 40.6971 33.309 40.2489 33.0581ZM30.8792 15.8116L21.1901 10.2569V2.51452L37.6788 11.9664L30.8792 15.8116ZM10.4854 28.5405V18.4208L19.3305 23.4262V33.6121L10.4854 28.5405ZM20.2603 21.8209L11.5153 16.8724L20.2603 11.8575L29.0053 16.8724L20.2603 21.8209ZM19.3257 10.2569L9.63665 15.8116L2.83711 11.9664L19.3257 2.51452V10.2569ZM8.62101 17.3696V28.4268L1.86439 32.1915V13.5433L8.62101 17.3696ZM2.73221 33.8252L9.44592 30.0842L19.3257 35.7478V43.495L2.57486 33.8915C2.62731 33.8726 2.67976 33.8536 2.73221 33.8252ZM21.1901 35.7478L31.07 30.0842L37.922 33.8868L21.1901 43.495V35.7478ZM30.0353 28.5405L21.1901 33.6121V23.4262L30.0353 18.4208V28.5405Z" fill="black"/>
<path d="M68.8773 27.5555H58.9831L56.7373 33.6216H54.8062L63.0552 11.9806H64.8052L73.0543 33.6216H71.1374L68.8773 27.5555ZM59.5506 25.9975H68.2908L63.9183 14.211L59.5506 25.9975ZM75.1332 25.4293C75.1332 22.9337 75.6911 20.9448 76.8069 19.4674C77.9322 17.9804 79.4628 17.237 81.3844 17.237C83.5683 17.237 85.2372 18.0941 86.3863 19.8083V10.792H88.1697V33.6216H86.4912L86.4149 31.4812C85.2658 33.1054 83.5826 33.9199 81.3558 33.9199C79.4914 33.9199 77.9846 33.1765 76.8355 31.6895C75.6959 30.1931 75.1285 28.1758 75.1285 25.6376V25.4293H75.1332ZM76.9452 25.7418C76.9452 27.7923 77.36 29.4118 78.1897 30.6004C79.0194 31.7795 80.1828 32.3714 81.6944 32.3714C83.8973 32.3714 85.466 31.4054 86.3959 29.4733V21.9251C85.466 19.832 83.9116 18.7902 81.7277 18.7902C80.221 18.7902 79.048 19.3821 78.2088 20.5612C77.3648 21.7262 76.9452 23.4546 76.9452 25.7418ZM91.8937 25.344C91.8937 23.8003 92.1941 22.4081 92.7901 21.1674C93.4004 19.9267 94.2539 18.9654 95.3506 18.2835C96.4569 17.5921 97.7109 17.2417 99.108 17.2417C101.263 17.2417 103.008 17.9946 104.348 19.5005C105.683 20.9969 106.356 22.9858 106.356 25.4624V25.8318C106.356 27.3897 106.051 28.7914 105.44 30.0369C104.844 31.2775 103.995 32.2341 102.894 32.9065C101.797 33.579 100.543 33.9152 99.1366 33.9152C96.9909 33.9152 95.2457 33.167 93.8963 31.6706C92.5612 30.1647 91.8889 28.1711 91.8889 25.6945V25.344H91.8937ZM93.6913 25.8318C93.6913 27.7544 94.192 29.336 95.1885 30.572C96.1946 31.7984 97.5154 32.414 99.1414 32.414C100.758 32.414 102.064 31.7984 103.061 30.572C104.067 29.3313 104.572 27.7023 104.572 25.6803V25.3393C104.572 24.1128 104.344 22.9858 103.886 21.9629C103.428 20.9401 102.784 20.154 101.955 19.6C101.125 19.0364 100.176 18.7523 99.1128 18.7523C97.5154 18.7523 96.2137 19.3774 95.2076 20.6275C94.2015 21.8682 93.6961 23.4925 93.6961 25.505V25.8318H93.6913ZM117.552 19.0554C117.17 18.9843 116.77 18.9512 116.341 18.9512C115.225 18.9512 114.276 19.2637 113.499 19.8888C112.731 20.5044 112.183 21.3994 111.854 22.5785V33.6216H110.07V17.54H111.82L111.849 20.0972C112.798 18.1935 114.319 17.2417 116.412 17.2417C116.913 17.2417 117.304 17.308 117.595 17.4359L117.552 19.0554ZM122.401 33.6216H120.603V17.54H122.401V33.6216ZM120.289 12.8851C120.289 12.5489 120.398 12.2648 120.618 12.0375C120.837 11.8007 121.137 11.6823 121.514 11.6823C121.896 11.6823 122.191 11.8007 122.411 12.0375C122.639 12.2648 122.754 12.5489 122.754 12.8851C122.754 13.2213 122.639 13.5054 122.411 13.7327C122.191 13.96 121.891 14.0737 121.514 14.0737C121.137 14.0737 120.837 13.96 120.618 13.7327C120.398 13.5054 120.289 13.2213 120.289 12.8851ZM137.502 33.6216C137.321 33.1149 137.206 32.3667 137.159 31.377C136.529 32.1915 135.728 32.8166 134.751 33.2664C133.783 33.7021 132.758 33.9199 131.666 33.9199C130.111 33.9199 128.848 33.489 127.88 32.6271C126.921 31.7653 126.444 30.6761 126.444 29.355C126.444 27.7875 127.098 26.5516 128.404 25.6376C129.72 24.7237 131.551 24.2691 133.897 24.2691H137.144V22.446C137.144 21.2952 136.787 20.3955 136.067 19.742C135.361 19.0791 134.322 18.7476 132.953 18.7476C131.709 18.7476 130.674 19.0648 129.854 19.6994C129.034 20.3339 128.628 21.0964 128.628 21.9866L126.831 21.9724C126.831 20.6938 127.431 19.5905 128.628 18.6576C129.825 17.7152 131.299 17.2464 133.044 17.2464C134.851 17.2464 136.272 17.6963 137.311 18.6008C138.36 19.491 138.899 20.7412 138.928 22.3465V29.9564C138.928 31.5143 139.095 32.6745 139.424 33.4511V33.6216H137.502ZM131.875 32.343C133.072 32.343 134.14 32.0542 135.08 31.4812C136.029 30.9082 136.715 30.1363 137.144 29.175V25.6376H133.94C132.152 25.6566 130.76 25.9833 129.749 26.6179C128.743 27.2429 128.237 28.1048 128.237 29.2034C128.237 30.1032 128.571 30.8514 129.239 31.448C129.916 32.0447 130.798 32.343 131.875 32.343ZM153.414 29.5349C153.414 28.6541 153.056 27.9438 152.336 27.4087C151.626 26.8736 150.553 26.4569 149.118 26.1585C147.682 25.8507 146.562 25.505 145.765 25.1167C144.979 24.719 144.387 24.2407 144.001 23.6772C143.62 23.1136 143.434 22.427 143.434 21.6267C143.434 20.3576 143.968 19.3111 145.036 18.4919C146.104 17.6584 147.472 17.2417 149.137 17.2417C150.944 17.2417 152.389 17.6868 153.476 18.5818C154.572 19.4626 155.121 20.6181 155.121 22.0434H153.323C153.323 21.1011 152.923 20.3197 152.126 19.6947C151.34 19.0696 150.338 18.757 149.132 18.757C147.954 18.757 147.005 19.0175 146.29 19.5431C145.579 20.0593 145.227 20.7317 145.227 21.5652C145.227 22.3654 145.522 22.9905 146.109 23.4404C146.71 23.8761 147.792 24.2786 149.356 24.6432C150.934 25.0078 152.112 25.4009 152.889 25.8176C153.676 26.2343 154.262 26.7363 154.639 27.3187C155.016 27.9012 155.207 28.6115 155.207 29.4449C155.207 30.804 154.653 31.8884 153.547 32.6982C152.451 33.5127 151.011 33.9152 149.237 33.9152C147.348 33.9152 145.818 33.4653 144.64 32.5608C143.472 31.6469 142.89 30.5009 142.89 29.1134H144.688C144.759 30.1552 145.198 30.965 146.004 31.5522C146.824 32.1252 147.902 32.414 149.237 32.414C150.486 32.414 151.492 32.1394 152.26 31.5948C153.027 31.055 153.414 30.3683 153.414 29.5349ZM158.263 25.344C158.263 23.8003 158.563 22.4081 159.159 21.1674C159.77 19.9267 160.623 18.9654 161.72 18.2835C162.826 17.5921 164.08 17.2417 165.477 17.2417C167.633 17.2417 169.378 17.9946 170.718 19.5005C172.053 20.9969 172.725 22.9858 172.725 25.4624V25.8318C172.725 27.3897 172.42 28.7914 171.81 30.0369C171.209 31.2775 170.365 32.2341 169.263 32.9065C168.167 33.579 166.913 33.9152 165.506 33.9152C163.36 33.9152 161.615 33.167 160.266 31.6706C158.931 30.1647 158.258 28.1711 158.258 25.6945V25.344H158.263ZM160.056 25.8318C160.056 27.7544 160.557 29.336 161.553 30.572C162.559 31.7984 163.88 32.414 165.506 32.414C167.122 32.414 168.429 31.7984 169.43 30.572C170.436 29.3313 170.942 27.7023 170.942 25.6803V25.3393C170.942 24.1128 170.713 22.9858 170.255 21.9629C169.797 20.9401 169.154 20.154 168.324 19.6C167.494 19.0364 166.545 18.7523 165.482 18.7523C163.885 18.7523 162.583 19.3774 161.577 20.6275C160.571 21.8682 160.065 23.4925 160.065 25.505V25.8318H160.056ZM177.718 33.6216V18.9938H175.038V17.5353H177.718V15.589C177.718 13.9458 178.137 12.6815 178.976 11.8007C179.825 10.9199 181.003 10.4795 182.51 10.4795C183.187 10.4795 183.821 10.5647 184.412 10.7305L184.279 12.2174C183.778 12.099 183.234 12.0375 182.648 12.0375C181.661 12.0375 180.893 12.3453 180.345 12.9609C179.796 13.567 179.52 14.4289 179.52 15.5464V17.54H183.382V18.9986H179.52V33.6216H177.718ZM189.362 13.4202V17.5353H192.714V18.9938H189.362V29.7101C189.362 30.6004 189.519 31.2681 189.843 31.7037C190.172 32.1394 190.716 32.3572 191.474 32.3572C191.774 32.3572 192.256 32.3099 192.928 32.2104L193.005 33.6689C192.537 33.8394 191.898 33.9199 191.088 33.9199C189.862 33.9199 188.966 33.5695 188.408 32.8639C187.85 32.1489 187.569 31.1071 187.569 29.7291V18.9938H184.589V17.5353H187.569V13.4202H189.362Z" fill="black"/>
</g>
<defs>
<clipPath id="clip0">
<rect width="193" height="46" fill="white"/>
</clipPath>
</defs>
</svg>
