<?xml version="1.0" encoding="utf-8"?>
<!-- Generator: Adobe Illustrator 23.0.2, SVG Export Plug-In . SVG Version: 6.00 Build 0)  -->
<svg version="1.1" id="Layer_1" xmlns="http://www.w3.org/2000/svg" xmlns:xlink="http://www.w3.org/1999/xlink" x="0px" y="0px"
	 viewBox="0 0 400 245" style="enable-background:new 0 0 400 245;" xml:space="preserve">
<style type="text/css">
	.st0{fill:#0094D9;}
	.st1{fill:#E5673E;}
	.st2{fill-rule:evenodd;clip-rule:evenodd;fill:#283B87;}
	.st3{fill:#87C440;}
	.st4{fill-rule:evenodd;clip-rule:evenodd;fill:#5C6FB4;}
	.st5{fill:#283B87;}
</style>
<g>
	<g>
		<path class="st0" d="M79.41,218.95h-9.05l-0.97,6.18h8.71l-0.74,4.76h-8.71l-1.23,7.6h9.05l-0.75,4.77H61.21l4.43-28.07h14.52
			L79.41,218.95z"/>
		<path class="st0" d="M79.37,242.26l4.58-28.81h3.95l11.65,19.62h0.07l2.98-18.88h5.47l-4.5,28.63h-3.95l-11.69-19.62h-0.07
			l-3.02,19.06H79.37z"/>
		<path class="st0" d="M120.44,218.95l-3.69,23.3h-5.47l3.69-23.3h-5.66l0.75-4.77h16.79l-0.75,4.77H120.44z"/>
		<path class="st0" d="M142.62,218.95h-9.05l-0.97,6.18h8.71l-0.74,4.76h-8.71l-1.23,7.6h9.05l-0.75,4.77h-14.52l4.43-28.07h14.52
			L142.62,218.95z"/>
		<path class="st0" d="M155.5,230.42l6.07,11.84h-6.63l-5.03-11.32h-0.08l-1.79,11.32h-5.47l4.43-28.07h7.41
			c2.93,0,5.12,0.69,6.57,2.07c1.45,1.38,1.94,3.51,1.47,6.39c-0.3,1.89-1.07,3.58-2.31,5.08
			C158.92,229.22,157.36,230.12,155.5,230.42z M151.78,218.65l-1.34,8.45h0.71c1.66,0,2.99-0.32,3.98-0.95
			c0.99-0.63,1.61-1.76,1.86-3.37c0.25-1.61-0.02-2.7-0.8-3.28c-0.78-0.57-2-0.86-3.67-0.86H151.78z"/>
		<path class="st0" d="M175.42,218.95l-3.69,23.3h-5.47l3.69-23.3h-5.66l0.75-4.77h16.79l-0.75,4.77H175.42z"/>
		<path class="st0" d="M192.84,236.34h-9.75l-3.24,5.92h-5.77l15.52-28.81h4.25l6.07,28.81h-5.85L192.84,236.34z M192.03,231.87
			l-1.86-10.2h-0.07l-4.73,10.2H192.03z"/>
		<path class="st0" d="M211.49,214.18l-4.43,28.07h-5.47l4.43-28.07H211.49z"/>
		<path class="st0" d="M211.05,242.26l4.57-28.81h3.95l11.65,19.62h0.08l2.98-18.88h5.47l-4.5,28.63h-3.95l-11.69-19.62h-0.07
			l-3.02,19.06H211.05z"/>
		<path class="st0" d="M262.5,242.26l0.52-17.42h-0.08l-9.19,17.8h-1.9l-3.31-17.8h-0.07l-5.25,17.42h-5.51l9.31-28.81h3.87
			l3.98,18.5l9.57-18.5h3.95l-0.37,28.81H262.5z"/>
		<path class="st0" d="M288.63,218.95h-9.05l-0.97,6.18h8.71l-0.74,4.76h-8.71l-1.23,7.6h9.05l-0.74,4.77h-14.52l4.43-28.07h14.52
			L288.63,218.95z"/>
		<path class="st0" d="M288.59,242.26l4.58-28.81h3.95l11.65,19.62h0.08l2.98-18.88h5.47l-4.5,28.63h-3.95l-11.69-19.62h-0.08
			l-3.01,19.06H288.59z"/>
		<path class="st0" d="M329.66,218.95l-3.68,23.3h-5.47l3.68-23.3h-5.66l0.74-4.77h16.79l-0.74,4.77H329.66z"/>
	</g>
	<g>
		<g>
			<path class="st1" d="M274.88,67.38c-0.52-6.49-1.99-12.91-4.19-19.18c-2.37-6.79-6.08-12.97-10.79-18.39
				c-8.82-10.16-20.52-18.28-33.43-22.19c-7.55-2.29-16.22-4.17-24.12-4.31h-1.14l0.03,28.88l12.87,19.68
				c0-7.2,0.01-11.26,0.01-18.46c0-2.16-0.05-5.63-0.05-8.19c15.56,2.57,30.48,17.56,35.09,32.5c1.28,4.1,2.1,8.81,2.1,13.12
				c0,11.44-4.63,21.88-12.3,29.88l-37.69-58.9l-62.9,100.83l-0.07,0.11h31.6l31.51-51.38c0,0,26.98,42.02,26.99,42.03
				c0.38,0.38,7.24-3.29,8.02-3.67c2.64-1.28,5.25-2.64,7.75-4.16c5.01-3.04,9.55-6.75,13.44-11.13
				c7.24-8.16,13.89-18.67,16.18-29.45C275.03,79.09,275.34,73.2,274.88,67.38z"/>
			<path class="st0" d="M158.29,100.49c-2.75-2.35-6.81-12.06-7.74-17.37c0,0,0,0,0,0c-0.66-2-1.01-4.01-1.36-6.11
				c-0.02-0.12-0.41-8.37-0.32-9.13c2.61-21.97,20.42-43.35,46.93-42.83l0.01-21.54c-0.33,0-0.73,0.03-0.73,0.03
				c-42.21,3.71-68.81,31.7-70.12,66.73c-0.71,19.05,7.45,37.7,21.01,50.05L158.29,100.49z"/>
		</g>
		<path class="st1" d="M119.5,150.81l-11.64,53.58h15.51l9.64-53.58H119.5z M81.83,150.81L56.9,187.65L1.68,199.58l49.68-4.61
			l-23.38,34.36l17.02-5.87l20.93-30.29l20.92-1.83l1.35,13.04h15.65l-11.35-53.58H81.83z M71.73,182.17l12.22-17.44h0.16l1.6,15.67
			L71.73,182.17z M151.93,190.83c0-0.66,0.1-1.28,0.31-1.86l2.16-13.7h8.59l2.5-10.64h-9.49l2.55-12.96l-13.59,5.92l-1.4,7.05h-6.99
			l-2.42,10.64H142l-3.06,13.27c-0.78,3.38-1.17,5.47-1.17,6.25c0,2.36,0.96,4.54,2.88,6.54c1.92,2,5.18,2.99,9.77,2.99
			c2.31,0,3-0.3,7.95-0.91l2.45-10.63c-2.58,0.46-3.29,0.69-4.09,0.69C154.17,193.46,151.93,192.58,151.93,190.83z M207.93,168.58
			c-2.95-1.91-6.66-3.85-15.07-3.85c-7.42,0-11.91,1-15.44,3c-3.54,2-5.99,5.33-6.98,9.02c0.13-0.46,10.38-0.02,11.54,0.03
			c2.43-4.14,10.89-5.59,14.94-3.41c1.09,0.59,1.63,2.34,1.63,3.32c0,0.61-0.16,1.49-0.48,2.63c-0.33,1.18-11.63,1.6-13.16,1.82
			c-7.62,1.13-17.04,3.36-17.04,12.76c0,3.02,1.18,5.68,3.55,7.97c2.36,2.29,6.25,3.43,11.64,3.43c5.3,0,9.11-2.76,13.42-6.32
			c0,1.41,1.16,3.87,1.54,5.41h13.06c-0.69-1.82-2.02-3.62-2.02-5.37c0-2.07-0.29-5.75,1.08-11.04c1.47-5.58,1.23-8.61,1.23-11.04
			C211.35,173.28,210.87,170.49,207.93,168.58z M192.16,194.9c-2.04,1.52-4.08,2.28-6.15,2.28c-1.48,0-2.69-0.36-3.63-1.08
			c-0.94-0.71-1.41-1.7-1.41-2.93c0-1.2,0.65-2.23,1.97-3.11c1.32-0.88,5.75-1.89,13.3-3.03
			C195.55,190.75,194.18,193.38,192.16,194.9z M301.17,182.21c0.2-4.69-1.05-8.86-3.77-12.49c-2.72-3.63-7.21-5.58-13.49-5.86
			c-4.6-0.2-8.61,0.65-12.02,2.57c-3.42,1.91-6.08,4.65-7.99,8.23c-1.91,3.58-2.95,7.32-3.12,11.24c-0.22,4.99,1.06,9.23,3.85,12.7
			c2.79,3.48,7.24,5.35,13.39,5.62c4.84,0.21,8.96-0.7,12.37-2.72c3.4-2.02,6.02-4.85,7.83-8.47
			C300.03,189.38,301.01,185.78,301.17,182.21z M285.47,190.21c-1.6,2.77-3.65,4.1-6.16,3.99c-1.61-0.07-2.94-0.85-3.99-2.31
			c-1.05-1.47-1.53-3.29-1.43-5.42c0.13-2.97,0.96-5.85,2.51-8.63c1.54-2.79,3.73-4.12,6.58-3.99c1.37,0.06,2.59,0.61,3.67,1.67
			c1.08,1.07,1.56,2.85,1.45,5.35C287.94,184.33,287.07,187.44,285.47,190.21z M266.7,141.95l-34.13,48.22h-0.17l-2.46-25.55h-15.51
			l8.22,39.76h14.54l46.68-68.3L266.7,141.95z M320.11,190.89l19.85-18.07l8.5-7.58l-30.64,1.28l-10.15,7.65h16.8l-17.33,19.81
			L296,206.28c58.72-26.83,102.32-22.15,102.32-22.15C334.12,171.24,320.11,190.89,320.11,190.89z"/>
	</g>
</g>
</svg>
