<?xml version="1.0" encoding="utf-8"?>
<!-- Generator: Adobe Illustrator 25.2.1, SVG Export Plug-In . SVG Version: 6.00 Build 0)  -->
<svg version="1.1" id="Layer_1" xmlns="http://www.w3.org/2000/svg" xmlns:xlink="http://www.w3.org/1999/xlink" x="0px" y="0px"
	 viewBox="0 0 1359.14 411.04" style="enable-background:new 0 0 1359.14 411.04;" xml:space="preserve">
<style type="text/css">
	.st0{fill:#1C3664;}
	.st1{fill:#0099CD;}
	.st2{fill:#0099CE;}
</style>
<g id="XMLID_1_">
	<path id="XMLID_18_" class="st0" d="M194.62,332.84H92.43l-14.42,38.44c-1.82,5.23-4.59,9.16-8.33,11.77
		c-3.74,2.62-7.9,3.92-12.49,3.92c-5.77,0-10.89-1.92-15.38-5.77c-4.48-3.84-6.73-8.7-6.73-14.58c0-2.67,0.53-5.39,1.6-8.17
		L107,182.43c4.48-11.85,9.64-19.81,15.46-23.87c5.82-4.06,12.84-6.09,21.06-6.09c8.22,0,15.24,2.03,21.06,6.09
		c5.82,4.06,10.97,12.01,15.46,23.87l70.32,176.03c1.07,2.78,1.6,5.5,1.6,8.17c0,5.87-2.24,10.73-6.73,14.58
		c-4.48,3.84-9.61,5.77-15.38,5.77c-4.59,0-8.76-1.31-12.49-3.92c-3.74-2.62-6.52-6.54-8.33-11.77L194.62,332.84z M143.52,196.37
		l-39.56,105.56h79.13L143.52,196.37z"/>
	<path id="XMLID_21_" class="st0" d="M306.5,374.08c-8.17-8.81-12.25-21.49-12.25-38.04v-82.81h-15.54c-4.59,0-8.14-1.25-10.65-3.76
		c-2.51-2.51-3.76-5.85-3.76-10.01c0-3.95,1.17-7.13,3.52-9.53c2.35-2.4,5.82-3.6,10.41-3.6h16.82l4.81-39.72
		c0.64-5.77,2.64-10.49,6.01-14.18c3.36-3.68,7.98-5.53,13.86-5.53c4.7,0,8.35,1.55,10.97,4.65c2.62,3.1,3.92,7.74,3.92,13.94v40.84
		h25.79c4.48,0,7.9,1.26,10.25,3.76c2.35,2.51,3.52,5.85,3.52,10.01c0,4.06-1.18,7.26-3.52,9.61c-2.35,2.35-5.82,3.52-10.41,3.52
		h-25.63v72.88c0,10.25,1.28,17.89,3.84,22.9c2.56,5.02,7.1,7.53,13.61,7.53h1.76l11.37-0.64h1.12c4.38,0,7.85,1.5,10.41,4.48
		c2.56,2.99,3.84,6.51,3.84,10.57c0,2.56-0.43,4.8-1.28,6.73c-0.86,1.92-2.22,3.47-4.08,4.65c-1.87,1.18-3.76,2.14-5.69,2.88
		c-1.92,0.75-4.51,1.25-7.77,1.52c-3.26,0.27-6.06,0.45-8.41,0.56c-2.35,0.1-5.45,0.16-9.29,0.16h-3.52
		C326.02,387.35,314.67,382.89,306.5,374.08z"/>
	<path id="XMLID_23_" class="st0" d="M432.4,374.08c-8.17-8.81-12.25-21.49-12.25-38.04v-82.81h-15.54c-4.59,0-8.14-1.25-10.65-3.76
		c-2.51-2.51-3.76-5.85-3.76-10.01c0-3.95,1.17-7.13,3.52-9.53c2.35-2.4,5.82-3.6,10.41-3.6h16.82l4.81-39.72
		c0.64-5.77,2.64-10.49,6.01-14.18c3.36-3.68,7.98-5.53,13.86-5.53c4.7,0,8.35,1.55,10.97,4.65c2.62,3.1,3.92,7.74,3.92,13.94v40.84
		h25.79c4.48,0,7.9,1.26,10.25,3.76c2.35,2.51,3.52,5.85,3.52,10.01c0,4.06-1.18,7.26-3.52,9.61c-2.35,2.35-5.82,3.52-10.41,3.52
		h-25.63v72.88c0,10.25,1.28,17.89,3.84,22.9c2.56,5.02,7.1,7.53,13.61,7.53h1.76l11.37-0.64h1.12c4.38,0,7.85,1.5,10.41,4.48
		c2.56,2.99,3.84,6.51,3.84,10.57c0,2.56-0.43,4.8-1.28,6.73c-0.86,1.92-2.22,3.47-4.08,4.65c-1.87,1.18-3.76,2.14-5.69,2.88
		c-1.92,0.75-4.51,1.25-7.77,1.52c-3.26,0.27-6.06,0.45-8.41,0.56c-2.35,0.1-5.45,0.16-9.29,0.16h-3.52
		C451.92,387.35,440.57,382.89,432.4,374.08z"/>
	<path id="XMLID_25_" class="st0" d="M534.59,263.88c6.14-12.12,15.3-21.92,27.47-29.39c12.17-7.47,26.32-11.21,42.45-11.21
		c12.39,0,23.36,2.06,32.92,6.17c9.56,4.11,17.24,9.8,23.07,17.06c5.82,7.26,10.22,15.43,13.21,24.51
		c2.99,9.08,4.54,18.9,4.65,29.47c0,4.16-0.96,7.53-2.88,10.09s-4.81,3.84-8.65,3.84H565.59c1.71,30.11,17.14,45.17,46.29,45.17
		c13.24,0,27.39-5.39,42.45-16.18c1.92-1.49,4-2.24,6.25-2.24c3.31,0,6.25,1.5,8.81,4.48c2.56,2.99,3.84,6.35,3.84,10.09
		c0,4.27-1.71,7.9-5.13,10.89c-16.87,14.2-36.57,21.3-59.1,21.3c-25.31,0-45.57-7.37-60.79-22.1
		c-15.22-14.74-22.83-35.29-22.83-61.67C525.38,289.43,528.45,276,534.59,263.88z M644.07,291.83c-0.86-12.28-4.4-22.37-10.65-30.27
		c-6.25-7.9-15.51-11.85-27.79-11.85c-11.96,0-21.33,4.11-28.11,12.33c-6.78,8.22-10.65,18.16-11.61,29.79H644.07z"/>
	<path id="XMLID_28_" class="st0" d="M704.3,359.1c0-3.52,1.2-6.62,3.6-9.29c2.4-2.67,5.47-4,9.21-4c2.67,0,5.45,0.8,8.33,2.4
		c4.7,2.67,8.46,4.7,11.29,6.09c2.83,1.39,7.39,2.96,13.7,4.72c6.3,1.76,12.6,2.64,18.9,2.64c6.19,0,11.72-0.61,16.58-1.84
		c4.86-1.23,9.02-3.47,12.49-6.73c3.47-3.26,5.2-7.45,5.2-12.57c0-9.07-7.42-15.43-22.26-19.06l-24.99-6.41
		c-7.58-2.03-13.72-3.84-18.42-5.45c-4.7-1.6-9.45-3.66-14.26-6.17c-4.8-2.51-8.49-5.29-11.05-8.33c-2.56-3.04-4.64-6.83-6.25-11.37
		c-1.6-4.54-2.4-9.85-2.4-15.94c0-14.63,5.87-25.87,17.62-33.72c11.75-7.85,27.18-11.77,46.29-11.77c18.47,0,35.98,4,52.54,12.01
		c5.77,2.78,8.65,7.05,8.65,12.81c0,3.42-1.1,6.33-3.28,8.73c-2.19,2.4-5.1,3.6-8.73,3.6c-1.82,0-3.9-0.43-6.25-1.28
		c-0.11,0-1.28-0.43-3.52-1.28c-2.24-0.85-3.82-1.41-4.73-1.68c-0.91-0.27-2.59-0.8-5.05-1.6c-2.46-0.8-4.57-1.39-6.33-1.76
		c-1.76-0.37-3.87-0.8-6.33-1.28c-2.46-0.48-4.89-0.83-7.29-1.04c-2.4-0.21-4.83-0.32-7.29-0.32c-8.22,0-15.22,1.36-20.98,4.08
		c-5.77,2.72-8.65,6.92-8.65,12.57c0,5.02,1.57,8.73,4.72,11.13c3.15,2.4,9.16,4.62,18.02,6.65l24.67,6.25
		c17.19,4.27,29.77,10.09,37.72,17.46c7.95,7.37,11.93,17.57,11.93,30.59c0,16.34-6.01,28.83-18.02,37.48
		c-12.01,8.65-27.63,12.97-46.85,12.97c-24.88,0-45.81-6.19-62.79-18.58C706.22,367.06,704.3,363.48,704.3,359.1z"/>
	<path id="XMLID_30_" class="st0" d="M894.67,374.08c-8.17-8.81-12.25-21.49-12.25-38.04v-82.81h-15.54
		c-4.59,0-8.14-1.25-10.65-3.76c-2.51-2.51-3.77-5.85-3.77-10.01c0-3.95,1.17-7.13,3.52-9.53c2.35-2.4,5.82-3.6,10.41-3.6h16.82
		l4.81-39.72c0.64-5.77,2.64-10.49,6.01-14.18c3.36-3.68,7.98-5.53,13.85-5.53c4.7,0,8.35,1.55,10.97,4.65
		c2.61,3.1,3.92,7.74,3.92,13.94v40.84h25.79c4.49,0,7.9,1.26,10.25,3.76c2.35,2.51,3.52,5.85,3.52,10.01
		c0,4.06-1.18,7.26-3.52,9.61c-2.35,2.35-5.82,3.52-10.41,3.52h-25.63v72.88c0,10.25,1.28,17.89,3.84,22.9
		c2.56,5.02,7.1,7.53,13.62,7.53H942l11.37-0.64h1.12c4.38,0,7.85,1.5,10.41,4.48c2.56,2.99,3.84,6.51,3.84,10.57
		c0,2.56-0.43,4.8-1.28,6.73c-0.86,1.92-2.22,3.47-4.08,4.65c-1.87,1.18-3.76,2.14-5.69,2.88c-1.92,0.75-4.51,1.25-7.77,1.52
		c-3.26,0.27-6.06,0.45-8.41,0.56c-2.35,0.1-5.45,0.16-9.29,0.16h-3.52C914.18,387.35,902.84,382.89,894.67,374.08z"/>
	<path id="XMLID_32_" class="st0" d="M1000.07,187.16c-4.33-4.11-6.49-9.48-6.49-16.1c0-6.62,2.16-11.96,6.49-16.02
		c4.32-4.06,10.01-6.09,17.06-6.09c6.94,0,12.55,2.03,16.82,6.09c4.27,4.06,6.41,9.4,6.41,16.02c0,6.62-2.16,11.99-6.49,16.1
		c-4.32,4.11-9.96,6.17-16.9,6.17C1010.02,193.32,1004.39,191.27,1000.07,187.16z M1002.55,380.17c-3.74-3.9-5.61-9.42-5.61-16.58
		V247.94c0-7.15,1.87-12.71,5.61-16.66c3.74-3.95,8.54-5.93,14.42-5.93c5.87,0,10.7,1.98,14.5,5.93c3.79,3.95,5.69,9.51,5.69,16.66
		v115.65c0,7.05-1.9,12.55-5.69,16.5c-3.79,3.95-8.63,5.93-14.5,5.93C1011.09,386.01,1006.28,384.07,1002.55,380.17z"/>
	<path id="XMLID_45_" class="st1" d="M1122.84,380.01c-4.81-4.64-9.45-13-13.94-25.07l-42.61-103.63c-1.07-2.56-1.6-5.23-1.6-8.01
		c0-5.23,1.92-9.61,5.77-13.14c3.84-3.52,8.22-5.29,13.14-5.29c3.74,0,7.15,1.12,10.25,3.36c3.1,2.24,5.5,5.66,7.21,10.25
		l41.97,106.84L1257.04,83c1.71-4.59,4.11-8.01,7.21-10.25c3.1-2.24,6.51-3.36,10.25-3.36c4.91,0,9.29,1.76,13.14,5.29
		c3.84,3.52,5.77,7.9,5.77,13.14c0,2.78-0.54,5.45-1.6,8.01l-114.82,259.12c-4.48,12.07-9.1,20.42-13.85,25.07
		c-4.75,4.65-11.45,6.97-20.1,6.97C1134.37,386.97,1127.65,384.65,1122.84,380.01z"/>
	<circle id="XMLID_11_" class="st2" cx="1017.38" cy="171.1" r="25.98"/>
	<circle id="XMLID_10_" class="st2" cx="1050.54" cy="96.48" r="24.68"/>
	<circle id="XMLID_9_" class="st2" cx="1118.94" cy="50.88" r="23.45"/>
	<circle id="XMLID_8_" class="st2" cx="1201.86" cy="49.85" r="22.28"/>
	<circle id="XMLID_6_" class="st2" cx="1308.61" cy="168" r="20.11"/>
	<circle id="XMLID_5_" class="st2" cx="1297.21" cy="250.91" r="19.1"/>
	<circle id="XMLID_4_" class="st2" cx="1244.35" cy="314.13" r="18.15"/>
</g>
</svg>
