<svg xmlns="http://www.w3.org/2000/svg" role="img" viewBox="-17.92 -17.92 931.84 534.34"><path fill="#095676" fill-opacity="1" fill-rule="nonzero" stroke="none" d="M577.77989 495.41957c6.80398 2.01875 15.61596 3.27343 22.6746 3.27343 16.8693 0 33.24126-5.5401 33.24126-25.18634 0-27.20153-35.76124-19.14528-35.76124-31.23232 0-6.79572 8.5653-7.05305 13.60263-7.05305 5.78665 0 11.58397 1.00933 16.86796 3.5292l1.26-15.87183c-5.04-1.5052-12.34131-2.76573-19.64263-2.76573-15.11462 0-32.99591 5.03332-32.99591 23.4214 0 27.45194 35.76524 18.63743 35.76524 32.7426 0 6.04264-6.04798 7.3093-12.3373 7.3093-8.31865 0-15.62263-2.26919-20.90795-5.04011zm98.98642 1.7625h51.38654v-14.8625h-31.2386v-60.94611h-20.14794v75.80861zm-33.99858 0h20.14795v-75.80861h-20.14795v75.80861zm-100.24509-30.47179h-19.14128l9.8173-29.72646h.25334l9.07064 29.72646zm-50.37854 30.47179h20.65328l6.05066-16.11556h28.45193l5.54798 16.11556h22.16661l-29.21992-75.80861H521.1107l-28.9666 75.80861zm-45.58655-61.45291h5.29065c7.81065 0 14.86397 1.25466 14.86397 8.56238 0 8.5641-8.31332 8.5641-14.86397 8.5641h-5.29065v-17.12648zm-20.14928 61.45291h20.14928v-29.9702h4.28399c7.30265 0 10.0773 3.27187 14.10263 16.37437l4.03332 13.59583h21.15995l-7.30665-20.65408c-3.78399-9.06558-4.28532-14.85783-10.8333-16.62556v-.25053c9.8213-2.26973 14.60796-9.06558 14.60796-19.14515 0-12.8401-11.08264-19.13329-24.18127-19.13329h-36.01591v75.80861zm-50.6252-61.45291h5.79064c6.80532 0 13.35064.752 13.35064 7.80518 0 6.29998-6.79999 7.80571-13.5973 7.80571h-5.54399v-15.6109zm0 29.46392h6.29597c6.80399 0 14.86397.7588 14.86397 9.07078 0 7.55465-7.81198 8.55838-15.11463 8.55838h-6.04532v-17.62916zm-20.14796 31.98899h31.98125c13.60397 0 29.4746-3.77864 29.4746-21.91448 0-9.05998-5.29066-14.60623-15.36263-16.61982v-.25054c8.56264-2.77079 13.35063-8.06144 13.35063-17.63475 0-13.09584-10.58664-19.38902-24.68794-19.38902h-34.7559v75.80861zm-90.1691-37.7811c0-13.09584 5.03731-24.17968 17.12928-24.17968 12.33464 0 17.12663 11.08384 17.12663 24.17967 0 12.33744-4.792 24.18528-17.12663 24.18528-12.09197 0-17.12929-11.84784-17.12929-24.18528zm-20.90929 0c0 24.18527 13.3533 39.29203 38.03857 39.29203 24.9306 0 38.02658-15.10676 38.02658-39.29204 0-24.43593-13.09597-39.28803-38.02658-39.28803-24.9346 0-38.03857 14.8521-38.03857 39.28803zm-56.41586-22.91981h7.81065c14.60796 0 23.42127 7.81038 23.42127 22.9198 0 15.1145-8.31064 22.91861-23.42127 22.91861h-7.81065v-45.83841zm-20.40128 60.70091h27.7066c25.94393 0 44.83055-9.82237 44.83055-38.03164 0-29.46512-18.38395-37.77697-44.83055-37.77697h-27.7066v75.80861zM563.9306 180.07513v-19.13329h18.89462l-66.24783 66.4865h-18.88796V203.7564h-14.35596v-56.91985l23.67327-23.68394v56.92252h56.92386zM422.13094 18.8822H403.243l-.25466 56.92252h56.91719L436.23224 99.482H379.3084V85.1207H355.6351V66.23808L422.13094-.00575V18.8822zm61.20252 80.5998V42.5608l23.67327-23.6786v56.92252h56.92386L540.25199 99.482h-56.91853zM398.455 269.9949h75.55848l23.67594-23.67194h-75.55848V203.7564h14.1013l23.67328-23.68127h-56.66253v-56.92252l-23.9346 23.68394v14.1053h-42.56257V85.1207l-23.67994 23.67594v75.81715h42.56923v42.81455h42.8199v42.56657zM844.51522 383.5865h51.6292v-14.85823h-31.48525v-60.95212h-20.14395v75.81035zm-37.27724-30.4678H788.0887l9.82397-29.72659h.25467l9.07064 29.7266zm-50.12654 30.4678h20.39995l6.04532-16.11196h28.4666l5.53731 16.11196h22.16661l-29.21726-75.81035h-24.6866l-28.71193 75.81035zm-276.80597 0h54.6612v-14.3557h-34.50525V352.1027H531.944v-14.35463h-31.48258V322.1321h33.24525v-14.35597h-53.4012v75.81035zm-10.06798-17.62916c-5.29332 2.26933-12.0933 4.0376-18.64395 4.0376-14.8533 0-25.43727-9.07092-25.43727-23.93488 0-14.1053 9.32397-24.4306 23.67994-24.4306 7.05198 0 13.34797 1.76265 19.64662 5.28531l1.50666-16.36796c-7.05198-2.264-14.60796-4.03065-22.16128-4.03065-24.93994 0-43.57322 13.1013-43.57322 39.5439 0 28.71193 23.41994 38.79203 43.57322 38.79203 10.32398 0 16.87596-1.51612 22.41595-3.02132l-1.00667-15.87343zm-151.62762-20.14795c0-13.10263 5.03999-24.17994 17.1293-24.17994 12.3373 0 17.37461 11.0773 17.37461 24.17994 0 12.3373-5.03732 24.18554-17.37462 24.18554-12.0893 0-17.12929-11.84824-17.12929-24.18554zm-20.65195 0c0 24.18554 13.09597 39.0427 37.78124 39.0427 24.93594 0 38.03057-14.85716 38.03057-39.0427 0-24.4306-12.84397-39.29323-38.03057-39.29323-24.93994 0-37.78124 14.86263-37.78124 39.29323zm-3.028 20.14795c-5.53998 2.26933-12.33463 4.0376-18.88794 4.0376-14.85463 0-25.43994-9.07092-25.43994-23.93488 0-14.1053 9.32531-24.4306 23.68127-24.4306 7.05065 0 13.3493 1.76265 19.89462 5.28531l1.512-16.36796c-7.30532-2.264-14.86263-4.03065-22.41328-4.03065-24.93994 0-43.5759 13.1013-43.5759 39.5439 0 28.71193 23.42128 38.79203 43.5759 38.79203 10.3253 0 16.87596-1.51612 22.66794-3.02132l-1.01466-15.87343zm-144.0663 17.62916h18.64262l-.76133-51.63174h.25467l26.4466 51.63174h25.1866v-75.81035H202.2515l.24534 51.6372h-.24534l-25.69593-51.6372h-25.69194v75.81035zM20.14475 322.1321h5.79265c6.80372 0 13.3485.75733 13.3485 7.55998 0 6.55065-6.79798 8.05598-13.60156 8.05598h-5.53959V322.1321zm0 29.46926h6.29998c6.79999 0 14.85357.75333 14.85357 8.81464 0 7.81065-7.80105 8.81478-15.10623 8.81478h-6.04732v-17.62942zM0 383.58649h31.98432c13.60157 0 29.47233-3.7744 29.47233-21.90515 0-9.07597-5.29479-14.61196-15.36503-16.62529v-.256c8.55771-2.76533 13.34316-8.05598 13.34316-17.62795 0-13.09597-10.5765-19.39596-24.68127-19.39596H0v75.81035zm113.84238-30.4678H94.69923l9.82344-29.72659h.25467l9.06504 29.7266zm-50.3732 30.4678h20.65194l6.04585-16.11196h28.45873l5.53799 16.11196h22.16661l-29.2098-75.81035H92.43418l-28.965 75.81035zm647.55438-61.45438h5.28532c7.55598 0 14.6093 1.26 14.6093 8.31198 0 8.56398-8.05999 8.81998-14.6093 8.81998h-5.28532V322.1321zm-20.40262 61.45438h20.40262v-29.96646h4.02532c7.55865 0 10.32264 3.272 14.35463 16.3749l4.28666 13.59156h21.15594l-7.30665-20.65048c-4.02532-9.06531-4.27865-14.8573-10.8293-16.6253v-.25066c9.82397-2.26933 14.6093-9.06531 14.6093-19.14529 0-13.09063-11.07864-19.13862-24.43328-19.13862h-36.26524v75.81035zm-47.60521 0H663.165v-60.69705h18.63995v-15.1133h-57.67719v15.1133h18.88796v60.69705zm-97.4731 0h18.38796l-.50133-51.63174h.24933l26.44393 51.63174h24.93994v-75.81035h-18.39462l.25333 51.6372-25.6866-51.6372h-25.69193v75.81035"/></svg>