<?xml version="1.0" encoding="utf-8"?>
<!-- Generator: Adobe Illustrator 23.0.2, SVG Export Plug-In . SVG Version: 6.00 Build 0)  -->
<svg version="1.1" id="Layer_1" xmlns="http://www.w3.org/2000/svg" xmlns:xlink="http://www.w3.org/1999/xlink" x="0px" y="0px"
	 viewBox="0 0 400 245" style="enable-background:new 0 0 400 245;" xml:space="preserve">
<style type="text/css">
	.st0{fill-rule:evenodd;clip-rule:evenodd;fill:#EC1C24;}
	.st1{fill-rule:evenodd;clip-rule:evenodd;fill:#231F20;}
	.st2{fill:#434343;}
	.st3{fill:#898989;}
	.st4{fill:url(#SVGID_1_);}
	.st5{fill:url(#SVGID_2_);}
	.st6{fill:#B36E01;}
	.st7{fill:url(#SVGID_3_);}
	.st8{fill:url(#SVGID_4_);}
	.st9{fill:url(#SVGID_5_);}
	.st10{fill:#FAF8D5;}
	.st11{fill:#313130;}
	.st12{fill:#86C440;stroke:#58B847;stroke-width:1.5531;stroke-miterlimit:10;}
	.st13{fill:#D1DD26;}
	.st14{fill:#352E29;}
	.st15{fill:#86C440;stroke:#58B847;stroke-width:0.6761;}
	.st16{fill:#231916;}
	.st17{fill:#E50013;}
	.st18{fill:#3E608B;}
	.st19{fill:#6E9C3A;}
	.st20{fill:#3693C3;}
	.st21{fill:#0B8B5D;}
	.st22{fill:#E1903D;}
	.st23{fill:#58749B;}
	.st24{fill:#0066A4;}
	.st25{fill:#402210;}
	.st26{clip-path:url(#SVGID_7_);fill:url(#SVGID_8_);}
	.st27{fill:#FFFFFF;}
	.st28{fill:#6A2811;}
	.st29{fill:#1EBAD6;}
	.st30{fill:#161629;}
	.st31{fill:#C0C0C8;}
	.st32{opacity:0.9;}
	.st33{fill-rule:evenodd;clip-rule:evenodd;fill:#295C82;}
	.st34{fill-rule:evenodd;clip-rule:evenodd;fill:#193A53;}
	.st35{fill-rule:evenodd;clip-rule:evenodd;fill:url(#SVGID_9_);}
	.st36{fill-rule:evenodd;clip-rule:evenodd;fill:url(#SVGID_10_);}
	.st37{fill-rule:evenodd;clip-rule:evenodd;fill:url(#SVGID_11_);}
	.st38{fill-rule:evenodd;clip-rule:evenodd;fill:url(#SVGID_12_);}
	.st39{fill-rule:evenodd;clip-rule:evenodd;fill:url(#SVGID_13_);}
	.st40{fill:#EC1C24;}
	.st41{fill:#231F20;}
	.st42{fill-rule:evenodd;clip-rule:evenodd;fill:#ED1C24;}
	.st43{fill-rule:evenodd;clip-rule:evenodd;fill:#C3C1C4;}
	.st44{fill:#ED1C24;}
	.st45{fill:#E11F26;}
	.st46{fill:#CECDCF;}
	.st47{fill:#19171B;}
	.st48{fill:#E49C23;}
	.st49{fill:#3E3A39;}
	.st50{enable-background:new    ;}
	.st51{fill:#EB6224;}
	.st52{fill:#4D4E4E;}
	.st53{fill:#217CB9;}
	.st54{fill:#58595B;}
	.st55{fill:#B38634;}
	.st56{fill:#A7A9AC;}
	.st57{fill:#A89A75;}
	.st58{fill:#2ED8CB;}
	.st59{fill:none;}
	.st60{fill:#65B1B8;}
	.st61{fill:#61D8D3;}
	.st62{fill:#79E0FA;}
	.st63{fill:#666766;}
	.st64{fill:url(#SVGID_14_);}
	.st65{fill:url(#SVGID_15_);}
	.st66{fill:url(#SVGID_16_);}
	.st67{fill:url(#SVGID_17_);}
	.st68{fill:url(#SVGID_18_);}
	.st69{fill:url(#SVGID_19_);}
	.st70{fill:url(#SVGID_20_);}
	.st71{fill:url(#SVGID_21_);}
	.st72{fill:url(#SVGID_22_);}
	.st73{fill:url(#SVGID_23_);}
	.st74{fill:url(#SVGID_24_);}
	.st75{fill:url(#SVGID_25_);}
	.st76{fill:url(#SVGID_26_);}
	.st77{fill:url(#SVGID_27_);}
	.st78{opacity:0.79;fill:#A3A5A8;enable-background:new    ;}
	.st79{fill:#86888B;}
	.st80{fill:#D2232A;}
	.st81{fill:#00478A;}
	.st82{fill:#009FE8;}
	.st83{fill:#005BAB;}
	.st84{fill-rule:evenodd;clip-rule:evenodd;fill:none;}
	.st85{fill-rule:evenodd;clip-rule:evenodd;}
	.st86{fill:#FF9900;}
	.st87{fill:#666666;}
</style>
<g>
	<g>
		<path class="st82" d="M7.72,110.76h78.81c3.71,0,7.06-2.2,8.54-5.61c8.67-19.97-9.11-72.02-71.43-59.07
			c-3.89,0.81-7.18,3.32-8.06,7.19L1.07,102.42C0.1,106.69,3.34,110.76,7.72,110.76"/>
		<path class="st83" d="M39.14,119.54h69.71c4.13,0,7.23,3.44,7.23,7.57c0,26.04-22.65,71.87-98.39,60.83
			c-4.29-0.62-7.26-4.57-6.31-8.8l21.52-54.63C33.58,121.6,36.16,119.54,39.14,119.54"/>
		<path class="st82" d="M159.71,84.74V84.6c1.39-0.69,2.57-1.45,3.52-2.3c0.95-0.8,1.68-1.65,2.19-2.54c1-1.88,1.47-3.84,1.43-5.9
			c0-4.03-1.21-7.26-3.62-9.71c-2.39-2.42-5.97-3.66-10.74-3.71h-15.68c-1.71,0-3.1,1.39-3.1,3.1v46.93h20.42
			c3.82,0,7-1.31,9.55-3.95c2.57-2.52,3.88-5.94,3.93-10.26c0-2.61-0.63-5.02-1.9-7.24C164.36,86.88,162.36,85.45,159.71,84.74
			 M141.05,67.17h10.61c2.68,0.05,4.66,0.72,5.92,2.03c1.29,1.4,1.93,3.12,1.93,5.14c0,2.02-0.64,3.7-1.93,5.04
			c-1.26,1.45-3.24,2.17-5.92,2.17h-10.61V67.17z M158.38,101.04c-1.27,1.49-3.26,2.26-6,2.31h-11.33V88.27h11.33
			c2.73,0.05,4.73,0.79,6,2.24c1.27,1.47,1.9,3.24,1.9,5.3C160.28,97.82,159.64,99.57,158.38,101.04"/>
		<path class="st82" d="M176.57,63.71v46.76h30.96v-7.13h-23.62V88.61h20.16v-6.72h-20.16V67.58h23.62v-7.13h-27.69
			C178.04,60.45,176.57,61.91,176.57,63.71"/>
		<path class="st82" d="M278.04,63.71v46.76H309v-7.13h-23.62V88.61h20.16v-6.72h-20.16V67.58H309v-7.13h-27.69
			C279.51,60.45,278.04,61.91,278.04,63.71"/>
		<rect x="215.66" y="60.45" class="st82" width="7.34" height="50.03"/>
		<polygon class="st82" points="269.92,60.45 261.21,60.45 241.11,82.15 241.11,72.15 241.11,60.45 233.78,60.45 233.78,110.48 
			241.11,110.48 241.11,87.1 262.53,110.48 271.55,110.48 248.34,84.61 		"/>
		<path class="st83" d="M398.63,127.13v-7.13h-27.69c-1.8,0-3.27,1.46-3.27,3.27v46.76h30.96v-7.13h-23.62v-14.73h20.16v-6.72
			h-20.16v-14.32H398.63z"/>
		<path class="st83" d="M133.72,122.34v47.68h7.34v-21.38h20.16v-6.72h-20.16v-14.8h23.62v-7.13h-28.61
			C134.77,119.99,133.72,121.04,133.72,122.34"/>
		<rect x="171.46" y="119.99" class="st83" width="7.34" height="50.03"/>
		<path class="st83" d="M308.03,154.06h-0.65l-22.6-32.81c-1.87-2.42-5.75-1.58-5.75,1.48v47.29h7.34v-34.38l23.26,32.76
			c1.88,2.4,5.73,1.57,5.73-1.47v-47.08h-7.34V154.06z"/>
		<path class="st83" d="M218.57,154.06h-0.65l-22.6-32.81c-1.87-2.42-5.75-1.58-5.75,1.48v47.29h7.34v-34.38l23.26,32.76
			c1.88,2.4,5.73,1.57,5.73-1.47v-47.08h-7.34V154.06z"/>
		<path class="st83" d="M252.95,119.99h-1.34c-1.44,0-2.72,0.91-3.2,2.27l-16.82,47.76h7.78l3.72-11.19h18.38l3.75,11.19h7.74
			l-16.82-47.76C255.67,120.9,254.39,119.99,252.95,119.99 M245.22,152.12l7.01-21.89h0.13l7.01,21.89H245.22z"/>
		<path class="st83" d="M335.38,130.77c0.78-1.03,1.8-1.89,3.06-2.58c1.24-0.66,2.73-1.02,4.46-1.07c2.35,0.05,4.35,0.75,5.99,2.1
			c1.57,1.42,2.66,3.14,3.26,5.16h7.79c-0.78-4.18-2.64-7.69-5.58-10.52c-2.95-2.81-6.76-4.24-11.43-4.28
			c-3.81,0.05-6.99,0.99-9.54,2.81c-2.59,1.81-4.48,3.87-5.65,6.18c-0.73,1.21-1.27,2.8-1.63,4.77c-0.33,1.97-0.5,5.86-0.5,11.67
			c0,5.72,0.17,9.59,0.5,11.6c0.18,1.08,0.4,1.97,0.66,2.68c0.29,0.69,0.61,1.41,0.96,2.16c1.17,2.31,3.06,4.35,5.65,6.11
			c2.55,1.83,5.72,2.79,9.53,2.88c4.21,0,7.86-1.23,10.94-3.7c2.99-2.49,5.02-6.05,6.08-10.69h-7.78c-2.04,4.56-5.13,6.84-9.26,6.84
			c-1.73,0-3.22-0.38-4.46-1.13c-1.27-0.64-2.29-1.48-3.06-2.51c-0.95-1.08-1.59-2.49-1.9-4.23c-0.36-1.74-0.53-5.08-0.53-10.01
			c0-4.93,0.18-8.29,0.53-10.07C333.8,133.24,334.43,131.85,335.38,130.77"/>
	</g>
	<g>
		<path class="st83" d="M381.18,176.59l-3.6,0c-1.34,0.16-2.14,0.99-2.29,2.44v11.73c0,2.89-0.35,5.93-1.04,9.04l-0.08,0.35
			l2.57,0.43l0.07-0.33c0.67-3.27,1.02-6.14,1.05-8.52h3.08v5.94c0,0.18,0,0.6-1.02,0.6h-1.82l0.62,2.15l2.37,0
			c1.98-0.1,2.47-1.26,2.53-2.23l0-19.41C383.51,177.89,383,176.79,381.18,176.59z M380.95,179.45v3.74h-3.08l0-3.7
			c0.05-0.47,0.27-0.69,0.7-0.74l1.74,0C380.58,178.77,380.88,178.89,380.95,179.45z M380.95,185.23v4.34h-3.08v-4.34H380.95z"/>
		<path class="st83" d="M398.74,198.52c-1.48-0.9-2.73-1.96-3.72-3.17c1.33-1.84,2.35-3.81,3.02-5.8c0.41-0.82,0.4-1.53-0.01-2.11
			c-0.34-0.6-0.97-0.91-1.87-0.91h-8.03l0-6.75c0.05-0.67,0.35-0.99,0.91-1.05h5.65c0.65,0,0.91,0.26,0.91,0.91v2.62
			c0,0.2,0,0.63-0.91,0.7h-3.39l0.62,2.15h3.61c2.27,0,2.75-1.38,2.75-2.54l0-3.49c-0.16-1.48-1.06-2.35-2.65-2.51l-7.78,0
			c-1.48,0.16-2.35,1.02-2.51,2.54v21.39h2.78v-0.77l1.21,1.21l0.24-0.21c1.34-1.15,2.6-2.27,3.75-3.34c1,0.98,2.19,2.07,3.55,3.24
			l0.25,0.21l1.98-2.12L398.74,198.52z M395.41,188.86c-0.49,1.48-1.19,2.92-2.07,4.28c-0.83-1.4-1.51-2.93-2.05-4.56h4.03
			c0.08,0,0.12,0.01,0.12,0.01C395.44,188.59,395.47,188.66,395.41,188.86z M388.12,188.69h0.65c0.68,2.54,1.67,4.77,2.96,6.64
			c-1.09,1.13-2.3,2.23-3.61,3.26V188.69z"/>
		<path class="st83" d="M146.87,190.98l-0.1-0.15h-0.98c0.33-1.27,0.47-2.77,0.41-4.47v-4.95h-2.68v4.85
			c0.07,3.31-0.67,5.76-2.21,7.3c-1.41,1.55-4.32,2.92-8.63,4.09l-0.64,0.17l2.54,2.12l0.18-0.06c5.44-1.73,8.88-4.03,10.23-6.86
			c2.34,3.14,5.84,5.37,10.41,6.65l0.21,0.06l2.12-2.41l-0.61-0.1C152.7,196.47,149.25,194.37,146.87,190.98z"/>
		<path class="st83" d="M137.2,180.1c0.06-0.81,0.41-1.2,1.12-1.25l13.22,0c0.32-0.02,0.56,0.03,0.71,0.18
			c0.19,0.17,0.28,0.49,0.28,0.95v13.85h2.68l0-14.28c-0.08-1.85-1.1-2.87-2.96-2.95l-14.6,0c-1.9,0.23-2.98,1.31-3.13,3.17v14.06
			h2.68L137.2,180.1z"/>
		<polygon class="st83" points="224.38,182.45 215.16,182.45 215.16,184.61 236.69,184.61 236.69,182.45 227.16,182.45 
			227.16,180.42 237.84,180.42 237.84,178.26 227.16,178.26 227.16,176.59 224.38,176.59 224.38,178.26 213.91,178.26 
			213.91,180.42 224.38,180.42 		"/>
		<path class="st83" d="M231.98,197.77l0-5.33c0.03-0.84-0.18-1.51-0.65-1.99c-0.56-0.58-1.48-0.88-2.73-0.88h-6.48
			c-1.09-0.04-1.91,0.2-2.43,0.73c-0.47,0.47-0.69,1.16-0.65,2.03l0,1.5c0.19,2.03-1.56,3.57-5.19,4.56l-0.46,0.13l1.45,2.18
			l0.24-0.07c4.55-1.3,6.81-3.46,6.74-6.4v-1.78c0-0.7,0.25-0.7,0.39-0.7h6.49c0.18,0,0.49,0,0.49,0.7l0,5.12
			c-0.04,0.9,0.18,1.6,0.65,2.07c0.5,0.5,1.29,0.74,2.31,0.7h5.08l0.61-2.15h-5.27C232.13,198.16,232.01,197.98,231.98,197.77z"/>
		<path class="st83" d="M234.88,185.91h-18.1c-1.03-0.04-1.79,0.2-2.3,0.7c-0.49,0.49-0.71,1.22-0.68,2.15v3.59h2.78v-3.9
			c0-0.15,0-0.39,0.6-0.39l17.2,0c0.55-0.05,0.7,0.07,0.74,0.11c0.04,0.04,0.06,0.12,0.04,0.28v3.9h2.78v-3.69
			C237.94,187.4,237.41,185.91,234.88,185.91z"/>
		<path class="st83" d="M313.45,185.76v-1.25c0.79,0.87,1.58,1.65,2.36,2.32l0.23,0.19l2.1-1.82l-0.32-0.26
			c-2.27-1.86-4.22-4.02-5.81-6.44c-0.51-0.66-0.91-1.09-1.2-1.31c-0.48-0.4-1.05-0.6-1.69-0.6h-5.97c-0.68,0-1.31,0.16-1.88,0.48
			c-0.52,0.38-0.98,0.87-1.36,1.47c-1.43,2.6-3.34,4.82-5.67,6.59l-0.34,0.26l2,1.72l0.22-0.17c0.88-0.7,1.75-1.49,2.58-2.37v1.19
			h5.97v3.29h-8.59v2.26h8.59v6.33h-1.94l-0.26-0.38c-0.96-1.37-1.83-2.94-2.58-4.65l-0.09-0.21h-3.05l0.21,0.48
			c0.77,1.75,1.59,3.35,2.43,4.75l0,0h-5.29v2.26h23.93v-2.26h-5.39l0.01-0.03c0.06-0.13,0.15-0.31,0.27-0.55l0.03-0.07
			c1.05-1.88,1.76-3.27,2.11-4.12l0.2-0.48h-3.16l-0.08,0.22c-0.48,1.3-1.28,2.86-2.38,4.65l-0.22,0.36h-1.86v-6.33h8.48v-2.26
			h-8.48v-3.29H313.45z M299.69,183.5c1.02-1.19,2-2.53,2.94-4c0.22-0.44,0.56-0.65,1.05-0.65h4.71c0.45,0,0.84,0.23,1.18,0.69
			c1,1.47,2,2.79,2.99,3.96H299.69z"/>
	</g>
</g>
</svg>
