<?xml version="1.0" encoding="utf-8"?>
<!-- Generator: Adobe Illustrator 23.0.2, SVG Export Plug-In . SVG Version: 6.00 Build 0)  -->
<svg version="1.1" id="Layer_1" xmlns="http://www.w3.org/2000/svg" xmlns:xlink="http://www.w3.org/1999/xlink" x="0px" y="0px"
	 viewBox="0 0 400 245" style="enable-background:new 0 0 400 245;" xml:space="preserve">
<style type="text/css">
	.st0{fill-rule:evenodd;clip-rule:evenodd;fill:#EC1C24;}
	.st1{fill-rule:evenodd;clip-rule:evenodd;fill:#231F20;}
	.st2{fill:#434343;}
	.st3{fill:#898989;}
	.st4{fill:url(#SVGID_1_);}
	.st5{fill:url(#SVGID_2_);}
	.st6{fill:#B36E01;}
	.st7{fill:url(#SVGID_3_);}
	.st8{fill:url(#SVGID_4_);}
	.st9{fill:url(#SVGID_5_);}
	.st10{fill:#FAF8D5;}
	.st11{fill:#313130;}
	.st12{fill:#86C440;stroke:#58B847;stroke-width:1.5531;stroke-miterlimit:10;}
	.st13{fill:#D1DD26;}
	.st14{fill:#352E29;}
	.st15{fill:#86C440;stroke:#58B847;stroke-width:0.6761;}
	.st16{fill:#231916;}
	.st17{fill:#E50013;}
	.st18{fill:#3E608B;}
	.st19{fill:#6E9C3A;}
	.st20{fill:#3693C3;}
	.st21{fill:#0B8B5D;}
	.st22{fill:#E1903D;}
	.st23{fill:#58749B;}
	.st24{fill:#0066A4;}
	.st25{fill:#402210;}
	.st26{clip-path:url(#SVGID_7_);fill:url(#SVGID_8_);}
	.st27{fill:#FFFFFF;}
	.st28{fill:#6A2811;}
	.st29{fill:#1EBAD6;}
	.st30{fill:#161629;}
	.st31{fill:#C0C0C8;}
	.st32{opacity:0.9;}
	.st33{fill-rule:evenodd;clip-rule:evenodd;fill:#295C82;}
	.st34{fill-rule:evenodd;clip-rule:evenodd;fill:#193A53;}
	.st35{fill-rule:evenodd;clip-rule:evenodd;fill:url(#SVGID_9_);}
	.st36{fill-rule:evenodd;clip-rule:evenodd;fill:url(#SVGID_10_);}
	.st37{fill-rule:evenodd;clip-rule:evenodd;fill:url(#SVGID_11_);}
	.st38{fill-rule:evenodd;clip-rule:evenodd;fill:url(#SVGID_12_);}
	.st39{fill-rule:evenodd;clip-rule:evenodd;fill:url(#SVGID_13_);}
	.st40{fill:#EC1C24;}
	.st41{fill:#231F20;}
	.st42{fill-rule:evenodd;clip-rule:evenodd;fill:#ED1C24;}
	.st43{fill-rule:evenodd;clip-rule:evenodd;fill:#C3C1C4;}
	.st44{fill:#ED1C24;}
	.st45{fill:#E11F26;}
	.st46{fill:#CECDCF;}
	.st47{fill:#19171B;}
	.st48{fill:#E49C23;}
	.st49{fill:#3E3A39;}
	.st50{enable-background:new    ;}
	.st51{fill:#EB6224;}
	.st52{fill:#4D4E4E;}
	.st53{fill:#217CB9;}
	.st54{fill:#58595B;}
	.st55{fill:#B38634;}
	.st56{fill:#A7A9AC;}
	.st57{fill:#A89A75;}
	.st58{fill:#2ED8CB;}
	.st59{fill:none;}
	.st60{fill:#65B1B8;}
	.st61{fill:#61D8D3;}
	.st62{fill:#79E0FA;}
	.st63{fill:#666766;}
	.st64{fill:url(#SVGID_14_);}
	.st65{fill:url(#SVGID_15_);}
	.st66{fill:url(#SVGID_16_);}
	.st67{fill:url(#SVGID_17_);}
	.st68{fill:url(#SVGID_18_);}
	.st69{fill:url(#SVGID_19_);}
	.st70{fill:url(#SVGID_20_);}
	.st71{fill:url(#SVGID_21_);}
	.st72{fill:url(#SVGID_22_);}
	.st73{fill:url(#SVGID_23_);}
	.st74{fill:url(#SVGID_24_);}
	.st75{fill:url(#SVGID_25_);}
	.st76{fill:url(#SVGID_26_);}
	.st77{fill:url(#SVGID_27_);}
	.st78{opacity:0.79;fill:#A3A5A8;enable-background:new    ;}
	.st79{fill:#86888B;}
	.st80{fill:#D2232A;}
	.st81{fill:#00478A;}
	.st82{fill:#009FE8;}
	.st83{fill:#005BAB;}
	.st84{fill-rule:evenodd;clip-rule:evenodd;fill:none;}
	.st85{fill-rule:evenodd;clip-rule:evenodd;}
	.st86{fill:#FF9900;}
	.st87{fill:#666666;}
</style>
<g>
	<g>
		<g>
			<path class="st18" d="M350.58,147.74l-9.97-5.75c-3.73-2.16-9.15-2.16-12.88,0l-9.96,5.75c-3.73,2.15-6.43,6.84-6.43,11.15v16.26
				c0,2.56,2.07,4.64,4.63,4.64c2.56,0,4.63-2.08,4.63-4.64v-16.26c0-0.95,0.98-2.64,1.8-3.11l9.97-5.76c0.82-0.47,2.77-0.47,3.59,0
				l9.97,5.76c0.82,0.48,1.8,2.16,1.8,3.11v11.51c0,0.96-0.98,2.66-1.8,3.14l-11.67,6.79c-2.21,1.29-2.95,4.13-1.67,6.35
				c0.86,1.48,2.42,2.3,4.01,2.3c0.79,0,1.59-0.2,2.33-0.63l11.66-6.8c3.71-2.16,6.41-6.86,6.41-11.16v-11.51
				C357.01,154.58,354.31,149.89,350.58,147.74z"/>
			<path class="st18" d="M202.11,147.74l-9.97-5.75c-1.79-1.03-4.07-1.6-6.44-1.6c-2.36,0-4.65,0.57-6.44,1.6l-7.13,4.11v-14.51
				c0-2.57-2.07-4.64-4.64-4.64c-2.56,0-4.64,2.08-4.64,4.64v27.3v5.8v5.71c0,4.31,2.71,8.99,6.44,11.15l9.96,5.76
				c1.79,1.04,4.08,1.6,6.44,1.6c2.36,0,4.65-0.57,6.44-1.6l9.97-5.76c3.73-2.15,6.44-6.83,6.44-11.15v-11.51
				C208.55,154.58,205.85,149.89,202.11,147.74z M199.27,170.4c0,0.95-0.98,2.63-1.8,3.11l-9.97,5.75c-0.3,0.18-0.98,0.36-1.79,0.36
				c-0.81,0-1.49-0.18-1.8-0.36l-9.97-5.75c-0.82-0.48-1.8-2.16-1.8-3.11v-5.71v-5.8c0-0.95,0.98-2.64,1.8-3.11l9.97-5.76
				c0.31-0.18,0.99-0.36,1.8-0.36c0.81,0,1.49,0.18,1.79,0.36l9.97,5.76c0.82,0.48,1.8,2.16,1.8,3.11V170.4z"/>
			<path class="st18" d="M288.3,180.22l-11.52-6.7c-0.83-0.47-1.8-2.17-1.8-3.13v-5.71v-10.55v-22.55c0-2.57-2.07-4.64-4.64-4.64
				c-2.57,0-4.64,2.08-4.64,4.64v33.1c0,0.01,0,0.03,0,0.05v5.67c0,4.3,2.7,8.99,6.42,11.16l11.52,6.68
				c0.73,0.43,1.53,0.62,2.33,0.62c1.6,0,3.16-0.83,4.02-2.31C291.26,184.35,290.52,181.51,288.3,180.22z"/>
			<path class="st18" d="M300.96,145.89c-2.56,0-4.64,2.08-4.64,4.64v33.86c0,2.56,2.08,4.63,4.64,4.63c2.57,0,4.65-2.08,4.65-4.63
				v-33.86C305.61,147.97,303.53,145.89,300.96,145.89z"/>
			<path class="st18" d="M300.96,131.56c-2.56,0-4.64,2.08-4.64,4.64v0.31c0,2.57,2.08,4.64,4.64,4.64c2.57,0,4.65-2.08,4.65-4.64
				v-0.31C305.61,133.64,303.53,131.56,300.96,131.56z"/>
			<path class="st18" d="M228.53,169.55c0.86,1.49,2.42,2.32,4.02,2.32c0.79,0,1.59-0.2,2.32-0.63l22.32-12.91
				c0.14-0.06,0.26-0.15,0.39-0.23l0-0.01l0.01,0c0.23-0.14,0.44-0.29,0.64-0.47c0.09-0.07,0.17-0.16,0.26-0.24
				c0.1-0.1,0.19-0.2,0.28-0.31c0.16-0.18,0.3-0.37,0.42-0.57c0.01-0.02,0.03-0.03,0.03-0.05c0.01-0.01,0.01-0.02,0.01-0.03
				c0.82-1.4,0.9-3.17,0.03-4.67c-0.55-0.96-1.41-1.63-2.37-1.99l-13.46-7.78c-3.73-2.16-9.14-2.16-12.87,0l-9.97,5.75
				c-3.73,2.15-6.43,6.84-6.43,11.15v11.51c0,4.31,2.7,8.99,6.43,11.15l9.97,5.76c1.86,1.07,4.15,1.62,6.44,1.62
				c2.29,0,4.57-0.55,6.43-1.62l9.97-5.76c3.73-2.15,6.44-6.5,6.44-10.33v-3.95c0-2.56-2.08-4.64-4.64-4.64
				c-2.57,0-4.64,2.08-4.64,4.64v3.91c-0.08,0.51-0.85,1.8-1.8,2.34l-9.97,5.75c-0.82,0.48-2.77,0.48-3.6,0l-9.97-5.75
				c-0.82-0.48-1.8-2.16-1.8-3.11v-11.51c0-0.95,0.97-2.64,1.8-3.11l9.97-5.76c0.83-0.47,2.78-0.47,3.6,0l7.11,4.11l-15.69,9.08
				C228.01,164.5,227.25,167.33,228.53,169.55z"/>
			<path class="st18" d="M396.76,151.76c-1.28-2.22-4.12-2.98-6.34-1.7l-18.3,10.59v-6.52v-22.55c0-2.57-2.08-4.64-4.64-4.64
				c-2.56,0-4.64,2.08-4.64,4.64v22.55v10.55v5.71c0,4.3,2.7,8.99,6.42,11.16l11.53,6.68c0.73,0.43,1.53,0.62,2.32,0.62
				c1.6,0,3.16-0.83,4.01-2.31c1.29-2.22,0.53-5.06-1.68-6.34l-11.53-6.7c-0.61-0.35-1.3-1.37-1.61-2.27
				c0.02-0.01,0.04-0.01,0.05-0.02l22.72-13.14C397.29,156.81,398.04,153.97,396.76,151.76z"/>
		</g>
	</g>
	<g>
		<path class="st19" d="M37.79,146.62l8.12-14.06c2.17-3.76,7.5-6.83,11.84-6.83h2.72c-0.19-0.92-0.5-1.79-0.92-2.53l-9.75-16.8
			c-1.56-2.69-5.37-4.88-8.48-4.87l-19.43,0.04c-3.11,0.02-6.91,2.22-8.46,4.91l-9.67,16.85c-1.54,2.68-1.54,7.09,0.02,9.77
			l9.75,16.8c1.57,2.68,5.38,4.87,8.48,4.87l14.21-0.03C36.01,151.85,36.51,148.82,37.79,146.62z"/>
		<path class="st20" d="M73.69,140.73l-8.7-15h-4.52c0.51,2.44,0.22,5.3-0.9,7.25l-9.68,16.84c-1.54,2.69-5.36,4.9-8.46,4.91
			l-5.21,0.01c0.16,2.04,0.66,4,1.56,5.56l4.27,7.41l-0.2,20.05l10.96-7.67c1.63,0.69,3.35,1.11,4.93,1.11h16.23
			c4.35,0,9.68-3.08,11.84-6.84l8.13-14.06c1.96-3.4,2.14-8.73,0.55-12.51l-8.47,0.02C81.51,147.82,75.97,144.63,73.69,140.73z"/>
		<path class="st21" d="M49.89,149.82l9.68-16.84c1.12-1.96,1.41-4.81,0.9-7.25h-2.72c-4.35,0-9.67,3.07-11.84,6.83l-8.12,14.06
			c-1.27,2.21-1.78,5.23-1.56,8.12l5.21-0.01C44.54,154.72,48.35,152.51,49.89,149.82z"/>
		<path class="st22" d="M155.65,90.96c-0.95-3.86-4.84-6.23-8.7-5.29c-0.93,0.23-1.78,0.63-2.5,1.16c-2.38-1.44-5.63-2.77-9.61-2.77
			c-4.5,0.01-8.94,1.75-13.26,5.1l-0.94-1.62c-2.26-3.91-7.81-7.09-12.32-7.08l-2.11,0.01c1.2-6.93,4.98-10.77,8.18-12.81
			c1.82,2.28,4.93,3.33,7.86,2.36c3.77-1.24,5.83-5.31,4.58-9.09c-1.24-3.78-5.32-5.83-9.09-4.59c-2.58,0.85-4.33,3.03-4.79,5.53
			c-4.7,2.54-11.15,7.92-12.6,18.61l-14.46,0.04c-4.51,0.01-10.04,3.23-12.29,7.13L62.4,107.11c-2.25,3.91-2.23,10.31,0.03,14.21
			l2.56,4.41h8.99c4.35,0,9.68,3.07,11.84,6.83l8.13,14.06c0.21,0.36,0.38,0.76,0.55,1.17l13.96-0.03
			c4.51-0.01,10.05-3.23,12.3-7.14l11.17-19.47c2.24-3.9,2.23-10.3-0.03-14.21l-7.4-12.75c3.47-2.85,6.91-4.32,10.27-4.34
			c2.77-0.02,5.09,0.96,6.76,1.97c-0.1,0.83-0.07,1.69,0.13,2.54c0.94,3.87,4.84,6.23,8.71,5.29
			C154.22,98.72,156.59,94.82,155.65,90.96z"/>
		<path class="st23" d="M85.82,132.56c-2.16-3.76-7.49-6.83-11.84-6.83h-8.99l8.7,15c2.27,3.91,7.82,7.09,12.33,7.08l8.47-0.02
			c-0.17-0.4-0.34-0.81-0.55-1.17L85.82,132.56z"/>
	</g>
</g>
</svg>
