<?xml version="1.0" encoding="utf-8"?>
<!-- Generator: Adobe Illustrator 23.0.2, SVG Export Plug-In . SVG Version: 6.00 Build 0)  -->
<svg version="1.1" id="Layer_1" xmlns="http://www.w3.org/2000/svg" xmlns:xlink="http://www.w3.org/1999/xlink" x="0px" y="0px"
	 viewBox="0 0 400 245" style="enable-background:new 0 0 400 245;" xml:space="preserve">
<style type="text/css">
	.st0{fill-rule:evenodd;clip-rule:evenodd;fill:#EC1C24;}
	.st1{fill-rule:evenodd;clip-rule:evenodd;fill:#231F20;}
	.st2{fill:#434343;}
	.st3{fill:#898989;}
	.st4{fill:url(#SVGID_1_);}
	.st5{fill:url(#SVGID_2_);}
	.st6{fill:#B36E01;}
	.st7{fill:url(#SVGID_3_);}
	.st8{fill:url(#SVGID_4_);}
	.st9{fill:url(#SVGID_5_);}
	.st10{fill:#FAF8D5;}
	.st11{fill:#313130;}
	.st12{fill:#86C440;stroke:#58B847;stroke-width:1.5531;stroke-miterlimit:10;}
	.st13{fill:#D1DD26;}
	.st14{fill:#352E29;}
	.st15{fill:#86C440;stroke:#58B847;stroke-width:0.6761;}
	.st16{fill:#231916;}
	.st17{fill:#E50013;}
	.st18{fill:#3E608B;}
	.st19{fill:#6E9C3A;}
	.st20{fill:#3693C3;}
	.st21{fill:#0B8B5D;}
	.st22{fill:#E1903D;}
	.st23{fill:#58749B;}
	.st24{fill:#0066A4;}
	.st25{fill:#402210;}
	.st26{clip-path:url(#SVGID_7_);fill:url(#SVGID_8_);}
	.st27{fill:#FFFFFF;}
	.st28{fill:#6A2811;}
	.st29{fill:#1EBAD6;}
	.st30{fill:#161629;}
	.st31{fill:#C0C0C8;}
	.st32{opacity:0.9;}
	.st33{fill-rule:evenodd;clip-rule:evenodd;fill:#295C82;}
	.st34{fill-rule:evenodd;clip-rule:evenodd;fill:#193A53;}
	.st35{fill-rule:evenodd;clip-rule:evenodd;fill:url(#SVGID_9_);}
	.st36{fill-rule:evenodd;clip-rule:evenodd;fill:url(#SVGID_10_);}
	.st37{fill-rule:evenodd;clip-rule:evenodd;fill:url(#SVGID_11_);}
	.st38{fill-rule:evenodd;clip-rule:evenodd;fill:url(#SVGID_12_);}
	.st39{fill-rule:evenodd;clip-rule:evenodd;fill:url(#SVGID_13_);}
	.st40{fill:#EC1C24;}
	.st41{fill:#231F20;}
	.st42{fill-rule:evenodd;clip-rule:evenodd;fill:#ED1C24;}
	.st43{fill-rule:evenodd;clip-rule:evenodd;fill:#C3C1C4;}
	.st44{fill:#ED1C24;}
	.st45{fill:#E11F26;}
	.st46{fill:#CECDCF;}
	.st47{fill:#19171B;}
	.st48{fill:#E49C23;}
	.st49{fill:#3E3A39;}
	.st50{enable-background:new    ;}
	.st51{fill:#EB6224;}
	.st52{fill:#4D4E4E;}
	.st53{fill:#217CB9;}
	.st54{fill:#58595B;}
	.st55{fill:#B38634;}
	.st56{fill:#A7A9AC;}
	.st57{fill:#A89A75;}
	.st58{fill:#2ED8CB;}
	.st59{fill:none;}
	.st60{fill:#65B1B8;}
	.st61{fill:#61D8D3;}
	.st62{fill:#79E0FA;}
	.st63{fill:#666766;}
	.st64{fill:url(#SVGID_14_);}
	.st65{fill:url(#SVGID_15_);}
	.st66{fill:url(#SVGID_16_);}
	.st67{fill:url(#SVGID_17_);}
	.st68{fill:url(#SVGID_18_);}
	.st69{fill:url(#SVGID_19_);}
	.st70{fill:url(#SVGID_20_);}
	.st71{fill:url(#SVGID_21_);}
	.st72{fill:url(#SVGID_22_);}
	.st73{fill:url(#SVGID_23_);}
	.st74{fill:url(#SVGID_24_);}
	.st75{fill:url(#SVGID_25_);}
	.st76{fill:url(#SVGID_26_);}
	.st77{fill:url(#SVGID_27_);}
	.st78{opacity:0.79;fill:#A3A5A8;enable-background:new    ;}
	.st79{fill:#86888B;}
	.st80{fill:#D2232A;}
	.st81{fill:#00478A;}
	.st82{fill:#009FE8;}
	.st83{fill:#005BAB;}
	.st84{fill-rule:evenodd;clip-rule:evenodd;fill:none;}
	.st85{fill-rule:evenodd;clip-rule:evenodd;}
	.st86{fill:#FF9900;}
	.st87{fill:#666666;}
</style>
<g>
	<path d="M26.89,124.63c-0.46-1.06-1.28-2-2.44-2.8c0.18-0.15,0.41-0.37,0.69-0.65c0.29-0.28,0.56-0.66,0.83-1.12
		c0.27-0.46,0.5-1.02,0.7-1.66c0.19-0.64,0.29-1.4,0.29-2.27c0-1.1-0.18-2.22-0.54-3.34c-0.36-1.12-0.95-2.12-1.77-3.01
		c-0.82-0.88-1.92-1.6-3.3-2.16c-1.38-0.55-3.07-0.83-5.07-0.83H8.91v6.97h-8.3V137c0,0.33,0.12,0.61,0.36,0.85
		c0.24,0.24,0.52,0.36,0.85,0.36h15.39c1.91,0,3.53-0.28,4.85-0.83c1.32-0.55,2.38-1.29,3.21-2.2c0.82-0.91,1.41-1.95,1.77-3.12
		c0.36-1.17,0.54-2.36,0.54-3.59C27.59,126.97,27.35,125.69,26.89,124.63z M8.91,113.75h6.96c0.9,0,1.58,0.23,2.04,0.7
		c0.46,0.46,0.7,1.09,0.7,1.86c0,0.78-0.23,1.4-0.7,1.86c-0.46,0.47-1.14,0.7-2.04,0.7H8.91V113.75z M18.47,130.47
		c-0.54,0.52-1.26,0.79-2.15,0.79H8.91v-5.47h7.41c0.9,0,1.62,0.26,2.15,0.78c0.54,0.52,0.81,1.18,0.81,1.95
		C19.28,129.29,19.01,129.94,18.47,130.47z"/>
	<path d="M68.52,131.03c0.33,0,0.61,0.12,0.85,0.36c0.24,0.24,0.36,0.52,0.36,0.85V137c0,0.33-0.12,0.61-0.36,0.85
		c-0.24,0.24-0.52,0.36-0.85,0.36H47.24c-0.33,0-0.61-0.12-0.85-0.36c-0.24-0.24-0.36-0.52-0.36-0.85v-29
		c0-0.33,0.12-0.61,0.36-0.85c0.24-0.24,0.52-0.36,0.85-0.36h20.92c0.33,0,0.61,0.12,0.85,0.36c0.24,0.24,0.36,0.52,0.36,0.85v4.76
		c0,0.33-0.12,0.61-0.36,0.85c-0.24,0.24-0.52,0.36-0.85,0.36H54.34v4.85h12.84c0.33,0,0.61,0.12,0.85,0.36
		c0.24,0.24,0.36,0.52,0.36,0.85v4.76c0,0.33-0.12,0.61-0.36,0.85c-0.24,0.24-0.52,0.36-0.85,0.36H54.34v5.03H68.52z"/>
	<path d="M111.43,106.79c0.33,0,0.61,0.12,0.85,0.36c0.24,0.24,0.36,0.52,0.36,0.85v4.76c0,0.33-0.12,0.61-0.36,0.85
		c-0.24,0.24-0.52,0.36-0.85,0.36h-7.9V137c0,0.33-0.12,0.61-0.36,0.85c-0.24,0.24-0.52,0.36-0.85,0.36h-5.88
		c-0.33,0-0.61-0.12-0.85-0.36c-0.24-0.24-0.36-0.52-0.36-0.85v-23.03h-7.9c-0.33,0-0.61-0.12-0.85-0.36
		c-0.24-0.24-0.36-0.52-0.36-0.85V108c0-0.33,0.12-0.61,0.36-0.85c0.24-0.24,0.52-0.36,0.85-0.36H111.43z"/>
	<path d="M155.41,136.55l-9.78-28.28c-0.12-0.33-0.34-0.66-0.65-0.99c-0.32-0.33-0.77-0.49-1.37-0.49h-7.27
		c-0.6,0-1.06,0.16-1.37,0.49c-0.31,0.33-0.53,0.66-0.65,0.99l-9.78,28.28c-0.12,0.3-0.18,0.52-0.18,0.67c0,0.27,0.1,0.5,0.29,0.7
		c0.19,0.2,0.43,0.29,0.69,0.29h5.66c0.6,0,1.02-0.13,1.28-0.38c0.25-0.25,0.41-0.5,0.47-0.74l1.26-3.73h11.94l1.26,3.73
		c0.06,0.24,0.22,0.48,0.47,0.74c0.25,0.25,0.68,0.38,1.28,0.38h5.65c0.27,0,0.5-0.1,0.7-0.29c0.19-0.19,0.29-0.43,0.29-0.7
		C155.59,137.07,155.53,136.85,155.41,136.55z M136.34,126.41l3.63-10.77l3.64,10.77H136.34z"/>
	<path d="M195.74,126.72c-0.25-0.81-0.59-1.54-1.01-2.2c-0.42-0.66-0.91-1.23-1.46-1.71c-0.55-0.48-1.13-0.87-1.73-1.17
		c0.45-0.21,0.9-0.5,1.37-0.88c0.46-0.37,0.89-0.84,1.28-1.41c0.39-0.57,0.7-1.23,0.94-1.97c0.24-0.75,0.36-1.6,0.36-2.56
		c0-1.08-0.17-2.09-0.52-3.05c-0.35-0.96-0.89-1.81-1.64-2.56c-0.75-0.75-1.69-1.34-2.83-1.77c-1.14-0.43-2.48-0.65-4.04-0.65
		h-11.71c-0.66,0-0.99,0.35-0.99,1.03v29.4c0,0.66,0.33,0.99,0.99,0.99h12.03c1.53,0,2.87-0.25,4.04-0.74
		c1.17-0.49,2.14-1.16,2.92-2c0.78-0.84,1.37-1.79,1.77-2.85c0.4-1.06,0.6-2.16,0.6-3.3C196.12,128.39,195.99,127.53,195.74,126.72z
		 M176.59,109.49h9.29c4.52,0,6.78,1.78,6.78,5.34c0,1.8-0.57,3.18-1.71,4.15c-1.14,0.97-2.83,1.46-5.07,1.46h-9.29V109.49z
		 M191.5,133.77c-1.2,1.17-2.92,1.75-5.16,1.75h-9.74v-12.39h9.74c2.25,0,3.97,0.58,5.16,1.73c1.2,1.15,1.8,2.64,1.8,4.47
		C193.29,131.12,192.69,132.6,191.5,133.77z"/>
	<path d="M219.37,135.52h15.48c0.69,0,1.03,0.34,1.03,1.03v0.67c0,0.66-0.34,0.99-1.03,0.99h-17.32c-0.66,0-0.99-0.33-0.99-0.99
		v-29.44c0-0.66,0.33-0.99,0.99-0.99h0.85c0.66,0,0.99,0.33,0.99,0.99V135.52z"/>
	<path d="M276.59,118.73c-0.06-2.09-0.38-3.91-0.96-5.45c-0.58-1.54-1.39-2.83-2.42-3.86c-1.03-1.03-2.27-1.8-3.7-2.31
		c-1.44-0.51-3.02-0.76-4.76-0.76c-1.77,0-3.36,0.26-4.78,0.76c-1.42,0.51-2.65,1.28-3.68,2.31c-1.03,1.03-1.84,2.32-2.42,3.86
		c-0.59,1.54-0.91,3.36-0.97,5.45c-0.06,1.35-0.09,2.6-0.09,3.77c0,1.17,0.03,2.42,0.09,3.77c0.12,4.25,1.19,7.38,3.21,9.38
		c2.02,2.01,4.9,3.01,8.64,3.01c3.71,0,6.58-1,8.62-3.01c2.03-2,3.11-5.13,3.23-9.38c0.06-1.34,0.09-2.6,0.09-3.77
		C276.68,121.33,276.65,120.08,276.59,118.73z M273.81,122.5v1.68c0,0.58-0.01,1.21-0.04,1.86c-0.06,1.77-0.32,3.27-0.79,4.51
		c-0.46,1.24-1.09,2.27-1.89,3.07c-0.79,0.81-1.73,1.4-2.8,1.77c-1.08,0.37-2.26,0.56-3.54,0.56c-1.29,0-2.47-0.19-3.55-0.56
		c-1.08-0.37-2.01-0.96-2.8-1.77c-0.79-0.81-1.42-1.83-1.89-3.07c-0.46-1.24-0.73-2.75-0.78-4.51c-0.03-0.66-0.05-1.28-0.07-1.86
		c-0.01-0.58-0.02-1.14-0.02-1.68c0-0.54,0.01-1.09,0.02-1.66c0.02-0.57,0.04-1.2,0.07-1.89c0.06-1.74,0.32-3.23,0.78-4.49
		c0.46-1.26,1.1-2.29,1.91-3.1c0.81-0.81,1.75-1.4,2.83-1.77c1.08-0.37,2.24-0.56,3.5-0.56c1.26,0,2.42,0.19,3.5,0.56
		c1.08,0.37,2.02,0.96,2.83,1.77c0.81,0.81,1.44,1.84,1.91,3.1c0.46,1.26,0.73,2.75,0.79,4.49c0.03,0.69,0.04,1.32,0.04,1.89V122.5z
		"/>
	<path d="M298.85,118.73c-0.09,2.48-0.09,5,0,7.54c0.12,3.41,0.97,5.88,2.56,7.41c1.58,1.53,3.75,2.29,6.51,2.29
		c1.2,0,2.29-0.11,3.3-0.34c1-0.22,1.89-0.61,2.65-1.14c0.76-0.54,1.41-1.25,1.95-2.13c0.54-0.88,0.96-2,1.26-3.34
		c0.06-0.36,0.18-0.61,0.36-0.74c0.18-0.13,0.39-0.2,0.63-0.2h0.9c0.27,0,0.5,0.08,0.7,0.25c0.19,0.16,0.28,0.38,0.25,0.65
		c-0.06,1.08-0.31,2.18-0.76,3.32c-0.45,1.14-1.15,2.17-2.11,3.12c-0.96,0.94-2.18,1.72-3.68,2.33c-1.5,0.61-3.31,0.92-5.43,0.92
		c-2.04,0-3.79-0.31-5.25-0.92c-1.46-0.61-2.69-1.46-3.66-2.53c-0.97-1.08-1.7-2.36-2.18-3.84c-0.48-1.48-0.75-3.1-0.81-4.87
		c-0.06-1.23-0.09-2.54-0.09-3.95c0-1.41,0.03-2.75,0.09-4.04c0.06-1.73,0.33-3.35,0.81-4.85c0.48-1.49,1.2-2.78,2.18-3.86
		c0.97-1.08,2.19-1.92,3.66-2.54c1.46-0.61,3.21-0.92,5.25-0.92c2.12,0,3.93,0.31,5.43,0.92c1.5,0.61,2.72,1.39,3.68,2.33
		c0.96,0.94,1.66,1.98,2.11,3.12c0.45,1.14,0.7,2.24,0.76,3.32c0.03,0.27-0.05,0.49-0.25,0.65c-0.2,0.16-0.43,0.25-0.7,0.25h-0.9
		c-0.24,0-0.45-0.07-0.63-0.2c-0.18-0.13-0.3-0.38-0.36-0.74c-0.3-1.35-0.72-2.46-1.26-3.35c-0.54-0.88-1.19-1.59-1.95-2.13
		c-0.76-0.54-1.65-0.92-2.65-1.14c-1-0.22-2.1-0.34-3.3-0.34c-2.75,0-4.92,0.76-6.51,2.29
		C299.82,112.85,298.97,115.32,298.85,118.73"/>
	<path d="M342.79,119.49l13.6-12.03c0.12-0.09,0.31-0.23,0.58-0.4c0.27-0.18,0.64-0.27,1.12-0.27h0.72c0.24,0,0.45,0.09,0.63,0.27
		c0.18,0.18,0.27,0.39,0.27,0.63c0,0.24-0.08,0.44-0.23,0.58l-15.21,13.55l16.16,14.86c0.18,0.18,0.27,0.39,0.27,0.63
		c0,0.24-0.09,0.45-0.27,0.63c-0.18,0.18-0.39,0.27-0.63,0.27h-0.76c-0.48,0-0.85-0.09-1.12-0.27c-0.27-0.18-0.47-0.31-0.59-0.4
		l-14.54-13.29v12.97c0,0.66-0.34,0.99-1.03,0.99h-0.81c-0.66,0-0.99-0.33-0.99-0.99v-29.4c0-0.69,0.33-1.03,0.99-1.03h0.81
		c0.69,0,1.03,0.34,1.03,1.03V119.49z"/>
	<path d="M387.9,106.34c1.77,0,3.31,0.25,4.62,0.74c1.32,0.49,2.41,1.12,3.28,1.89c0.87,0.76,1.53,1.61,1.97,2.54
		c0.45,0.93,0.69,1.82,0.72,2.69c0,0.24-0.07,0.45-0.22,0.63c-0.15,0.18-0.39,0.27-0.72,0.27h-0.9c-0.15,0-0.34-0.06-0.56-0.18
		c-0.23-0.12-0.37-0.36-0.43-0.72c-0.18-1.5-0.96-2.73-2.36-3.7c-1.39-0.97-3.19-1.46-5.41-1.46c-1.11,0-2.12,0.11-3.05,0.32
		c-0.93,0.21-1.72,0.54-2.38,0.99c-0.66,0.45-1.17,1.01-1.55,1.68c-0.37,0.67-0.56,1.47-0.56,2.4c0,0.9,0.17,1.66,0.52,2.29
		c0.34,0.63,0.89,1.2,1.64,1.71c0.75,0.51,1.69,0.99,2.83,1.44c1.14,0.45,2.51,0.93,4.13,1.44c1.68,0.54,3.13,1.07,4.38,1.59
		c1.24,0.52,2.27,1.11,3.1,1.77c0.82,0.66,1.44,1.42,1.84,2.29c0.4,0.87,0.6,1.92,0.6,3.14c0,2.72-1,4.83-3.01,6.33
		c-2,1.5-4.76,2.25-8.26,2.25c-1.82,0-3.44-0.23-4.85-0.7c-1.41-0.46-2.6-1.07-3.57-1.82c-0.97-0.75-1.72-1.61-2.24-2.58
		c-0.52-0.97-0.8-1.97-0.83-2.98c0-0.24,0.09-0.45,0.27-0.63c0.18-0.18,0.4-0.27,0.67-0.27h0.9c0.3,0,0.52,0.09,0.67,0.27
		c0.15,0.18,0.25,0.39,0.32,0.63c0.09,0.63,0.31,1.26,0.67,1.91c0.36,0.64,0.89,1.22,1.59,1.73c0.7,0.51,1.58,0.93,2.63,1.26
		c1.05,0.33,2.3,0.49,3.77,0.49c2.93,0,5.07-0.53,6.42-1.59c1.35-1.06,2.02-2.49,2.02-4.29c0-0.9-0.2-1.65-0.58-2.27
		c-0.39-0.61-0.99-1.17-1.8-1.66c-0.81-0.49-1.82-0.97-3.05-1.41c-1.23-0.45-2.68-0.94-4.35-1.48c-1.62-0.51-3-1.02-4.15-1.55
		c-1.15-0.52-2.11-1.12-2.87-1.8c-0.76-0.67-1.32-1.45-1.68-2.33c-0.36-0.88-0.54-1.94-0.54-3.16c0-1.14,0.23-2.2,0.7-3.19
		c0.46-0.99,1.13-1.84,2-2.56c0.87-0.72,1.94-1.29,3.23-1.71C384.74,106.55,386.22,106.34,387.9,106.34"/>
</g>
<g>
	<g>
		<defs>
			<path id="SVGID_6_" d="M190.53,263.45l-64,36.95c-5.72,3.3-9.24,9.4-9.24,16v73.89c0,6.6,3.52,12.71,9.24,16l64,36.94
				c5.71,3.3,12.75,3.3,18.47,0l63.99-36.94c5.72-3.3,9.24-9.4,9.24-16V316.4c0-6.61-3.52-12.7-9.24-16L209,263.45
				c-2.86-1.65-6.05-2.47-9.24-2.47C196.57,260.97,193.38,261.8,190.53,263.45"/>
		</defs>
		<clipPath id="SVGID_1_">
			<use xlink:href="#SVGID_6_"  style="overflow:visible;"/>
		</clipPath>
		
			<linearGradient id="SVGID_2_" gradientUnits="userSpaceOnUse" x1="-1377.5885" y1="162.585" x2="-1376.484" y2="162.585" gradientTransform="matrix(-79.3535 -133.5462 -133.5462 79.3535 -87359.1172 -196443.9375)">
			<stop  offset="0" style="stop-color:#AB6A00"/>
			<stop  offset="1" style="stop-color:#F9BF3E"/>
		</linearGradient>
		<polygon style="clip-path:url(#SVGID_1_);fill:url(#SVGID_2_);" points="160.33,518.97 35.79,309.39 239.19,188.53 363.72,398.12 
					"/>
	</g>
</g>
</svg>
