<?xml version="1.0" encoding="utf-8"?>
<!-- Generator: Adobe Illustrator 23.0.2, SVG Export Plug-In . SVG Version: 6.00 Build 0)  -->
<svg version="1.1" id="Layer_1" xmlns="http://www.w3.org/2000/svg" xmlns:xlink="http://www.w3.org/1999/xlink" x="0px" y="0px"
	 viewBox="0 0 400 245" style="enable-background:new 0 0 400 245;" xml:space="preserve">
<style type="text/css">
	.st0{fill-rule:evenodd;clip-rule:evenodd;fill:#EC1C24;}
	.st1{fill-rule:evenodd;clip-rule:evenodd;fill:#231F20;}
	.st2{fill:#434343;}
	.st3{fill:#898989;}
	.st4{fill:url(#SVGID_1_);}
	.st5{fill:url(#SVGID_2_);}
	.st6{fill:#B36E01;}
	.st7{fill:url(#SVGID_3_);}
	.st8{fill:url(#SVGID_4_);}
	.st9{fill:url(#SVGID_5_);}
	.st10{fill:#FAF8D5;}
	.st11{fill:#313130;}
	.st12{fill:#86C440;stroke:#58B847;stroke-width:1.5531;stroke-miterlimit:10;}
	.st13{fill:#D1DD26;}
	.st14{fill:#352E29;}
	.st15{fill:#86C440;stroke:#58B847;stroke-width:0.6761;}
	.st16{fill:#231916;}
	.st17{fill:#E50013;}
	.st18{fill:#3E608B;}
	.st19{fill:#6E9C3A;}
	.st20{fill:#3693C3;}
	.st21{fill:#0B8B5D;}
	.st22{fill:#E1903D;}
	.st23{fill:#58749B;}
	.st24{fill:#0066A4;}
	.st25{fill:#402210;}
	.st26{clip-path:url(#SVGID_7_);fill:url(#SVGID_8_);}
	.st27{fill:#FFFFFF;}
	.st28{fill:#6A2811;}
	.st29{fill:#1EBAD6;}
	.st30{fill:#161629;}
	.st31{fill:#C0C0C8;}
	.st32{opacity:0.9;}
	.st33{fill-rule:evenodd;clip-rule:evenodd;fill:#295C82;}
	.st34{fill-rule:evenodd;clip-rule:evenodd;fill:#193A53;}
	.st35{fill-rule:evenodd;clip-rule:evenodd;fill:url(#SVGID_9_);}
	.st36{fill-rule:evenodd;clip-rule:evenodd;fill:url(#SVGID_10_);}
	.st37{fill-rule:evenodd;clip-rule:evenodd;fill:url(#SVGID_11_);}
	.st38{fill-rule:evenodd;clip-rule:evenodd;fill:url(#SVGID_12_);}
	.st39{fill-rule:evenodd;clip-rule:evenodd;fill:url(#SVGID_13_);}
	.st40{fill:#EC1C24;}
	.st41{fill:#231F20;}
	.st42{fill-rule:evenodd;clip-rule:evenodd;fill:#ED1C24;}
	.st43{fill-rule:evenodd;clip-rule:evenodd;fill:#C3C1C4;}
	.st44{fill:#ED1C24;}
	.st45{fill:#E11F26;}
	.st46{fill:#CECDCF;}
	.st47{fill:#19171B;}
	.st48{fill:#E49C23;}
	.st49{fill:#3E3A39;}
	.st50{enable-background:new    ;}
	.st51{fill:#EB6224;}
	.st52{fill:#4D4E4E;}
	.st53{fill:#217CB9;}
	.st54{fill:#58595B;}
	.st55{fill:#B38634;}
	.st56{fill:#A7A9AC;}
	.st57{fill:#A89A75;}
	.st58{fill:#2ED8CB;}
	.st59{fill:none;}
	.st60{fill:#65B1B8;}
	.st61{fill:#61D8D3;}
	.st62{fill:#79E0FA;}
	.st63{fill:#666766;}
	.st64{fill:url(#SVGID_14_);}
	.st65{fill:url(#SVGID_15_);}
	.st66{fill:url(#SVGID_16_);}
	.st67{fill:url(#SVGID_17_);}
	.st68{fill:url(#SVGID_18_);}
	.st69{fill:url(#SVGID_19_);}
	.st70{fill:url(#SVGID_20_);}
	.st71{fill:url(#SVGID_21_);}
	.st72{fill:url(#SVGID_22_);}
	.st73{fill:url(#SVGID_23_);}
	.st74{fill:url(#SVGID_24_);}
	.st75{fill:url(#SVGID_25_);}
	.st76{fill:url(#SVGID_26_);}
	.st77{fill:url(#SVGID_27_);}
	.st78{opacity:0.79;fill:#A3A5A8;enable-background:new    ;}
	.st79{fill:#86888B;}
	.st80{fill:#D2232A;}
	.st81{fill:#00478A;}
	.st82{fill:#009FE8;}
	.st83{fill:#005BAB;}
	.st84{fill-rule:evenodd;clip-rule:evenodd;fill:none;}
	.st85{fill-rule:evenodd;clip-rule:evenodd;}
	.st86{fill:#FF9900;}
	.st87{fill:#666666;}
</style>
<g>
	<path class="st25" d="M95.78,189.97c0-0.76,0.62-1.38,1.38-1.38h12.75c6.52,0,11.06,0.9,14.62,3.52c3.11,2.13,5.03,5.58,5.03,9.94
		c0,4.98-2.97,9.49-8.66,11.66v0.22c5.84,1.53,10.53,6.18,10.53,13.29c0,4.67-1.88,8.33-4.77,10.95
		c-3.62,3.36-10.53,5.03-19.75,5.03h-9.75c-0.76,0-1.38-0.62-1.38-1.38V189.97z M105.15,211.06h5.2c6.07,0,9.77-3.27,9.77-7.88
		c0-4.81-3.3-7.43-9.22-7.43h-5.75V211.06z M105.15,235.75h5.36c5.96,0,11.05-2.55,11.05-8.92c0-6.16-5.15-8.85-11.34-8.87h-5.08
		V235.75z"/>
	<path class="st25" d="M144.2,226.37c0.21,7.53,5.23,10.39,10.99,10.39c4.01,0,7-0.69,9.6-1.67l1.14,5.43
		c0.14,0.69-0.25,1.35-0.9,1.6c-2.96,1.08-6.86,1.81-11.28,1.81c-11.83,0-18.61-7.63-18.61-19.57c0-11.36,6.4-20.8,17.63-20.8
		c11.29,0,15.4,9.48,15.4,18.56c0,1.94-0.14,3.36-0.31,4.25H144.2z M159.32,219.76c0.05-4.39-1.66-9.61-7.17-9.61
		c-5.34,0-7.6,5.46-7.96,9.61H159.32z"/>
	<path class="st25" d="M171.97,237.64l13.46-19.15c1.74-2.3,3.34-4.34,5-6.37v-0.18h-17.05v-6.19c0-0.76,0.62-1.38,1.38-1.38h25.47
		c0.77,0,1.39,0.62,1.38,1.39l-0.01,4.53l-13.14,18.69c-1.7,2.28-3.39,4.54-5.05,6.48v0.18H202v6.19c0,0.76-0.62,1.38-1.38,1.38
		h-27.26c-0.76,0-1.38-0.62-1.38-1.38V237.64z"/>
	<path class="st25" d="M227.85,243.2v-4.22c-2.23,3.05-5.94,5.02-10.48,5.02c-7.19,0-11.5-5.34-11.5-11.53
		c0-9.85,8.64-14.59,21.29-14.58v-0.76c0-3-1.18-6.82-7.26-6.81c-3.5,0-7,1.1-9.48,2.67l-1.53-5.14c-0.19-0.64,0.1-1.32,0.69-1.63
		c2.74-1.41,7.03-2.68,12.07-2.68c11.72,0,14.98,7.55,14.98,16v22.26c0,0.77-0.62,1.39-1.38,1.39H227.85z M227.41,224.05
		c-5.85-0.05-12.29,1.25-12.29,7.42c0,3.97,2.45,5.7,5.18,5.7c3.39,0,5.98-2.2,6.85-5.09c0.19-0.66,0.25-1.41,0.25-2.09V224.05z"/>
	<path class="st25" d="M245.81,204.36h8.05v5.45c1.76-3.04,4.82-6.26,10.56-6.26c6.69,0,12.64,4.56,12.64,15.86v22.4
		c0,0.76-0.62,1.38-1.38,1.38h-8.05v-22.73c0-5.07-1.68-9.18-6.55-9.18c-3.37,0-5.83,2.42-6.78,5.46c-0.29,0.82-0.44,2.03-0.44,3.24
		v23.2h-8.05c-0.76,0-1.38-0.62-1.38-1.38v-36.07C244.42,204.98,245.04,204.36,245.81,204.36"/>
	<path class="st25" d="M295.42,194.83v9.52h7.42c0.76,0,1.38,0.62,1.38,1.38v5.59h-8.8v18.04c0,4.75,1.44,6.81,4.71,6.81
		c1.48,0,2.6-0.16,3.46-0.37l0.16,6.15c0.02,0.65-0.41,1.23-1.04,1.38c-1.41,0.35-3.35,0.58-5.61,0.58c-3.35,0-6.18-1.06-7.97-2.96
		c-2.04-2.13-3.01-5.48-3.01-10.78v-18.85h-5.27v-5.59c0-0.76,0.62-1.38,1.38-1.38h3.89v-9.52c0-0.76,0.62-1.38,1.38-1.38h6.53
		C294.8,193.45,295.42,194.07,295.42,194.83"/>
	<g>
		<defs>
			<path id="SVGID_6_" d="M190.53,3.47l-64,36.95c-5.72,3.3-9.24,9.4-9.24,16v73.89c0,6.6,3.52,12.71,9.24,16l64,36.94
				c5.71,3.3,12.75,3.3,18.47,0l63.99-36.94c5.72-3.3,9.24-9.4,9.24-16V56.42c0-6.61-3.52-12.7-9.24-16L209,3.47
				C206.14,1.82,202.95,1,199.76,1C196.57,1,193.38,1.82,190.53,3.47"/>
		</defs>
		<clipPath id="SVGID_1_">
			<use xlink:href="#SVGID_6_"  style="overflow:visible;"/>
		</clipPath>
		
			<linearGradient id="SVGID_2_" gradientUnits="userSpaceOnUse" x1="-1377.5885" y1="-97.3892" x2="-1376.484" y2="-97.3892" gradientTransform="matrix(-79.3535 -133.5462 -133.5462 79.3535 -122077.6875 -176074.0625)">
			<stop  offset="0" style="stop-color:#AB6A00"/>
			<stop  offset="1" style="stop-color:#F9BF3E"/>
		</linearGradient>
		<polygon style="clip-path:url(#SVGID_1_);fill:url(#SVGID_2_);" points="160.33,259 35.79,49.42 239.19,-71.44 363.72,138.14 		
			"/>
	</g>
	<path class="st27" d="M199.76,163.97c-2.79,0-5.57-0.72-8.06-2.16l-47.2-27.24c-4.97-2.87-8.06-8.22-8.06-13.96V66.12
		c0-5.74,3.09-11.09,8.06-13.96l47.2-27.25c4.97-2.87,11.14-2.87,16.11,0l47.2,27.25c4.97,2.87,8.06,8.21,8.06,13.95v54.49
		c0,5.74-3.09,11.09-8.06,13.96l-47.2,27.24C205.33,163.25,202.54,163.97,199.76,163.97 M199.76,27.74c-1.93,0-3.85,0.5-5.57,1.49
		L147,56.47c-3.44,1.98-5.57,5.68-5.57,9.65v54.49c0,3.97,2.13,7.67,5.57,9.65l47.2,27.24c3.43,1.99,7.7,1.99,11.13,0l47.2-27.24
		c3.44-1.98,5.57-5.68,5.57-9.65V66.12c0-3.97-2.13-7.66-5.57-9.65h0l-47.2-27.25C203.61,28.23,201.68,27.74,199.76,27.74"/>
	<path class="st27" d="M155.47,35.46c1.83-3.19,5.26-5.16,8.93-5.16c1.8,0,3.58,0.48,5.14,1.38c2.38,1.38,4.09,3.6,4.8,6.26
		c0.71,2.65,0.35,5.44-1.03,7.82l-0.28,0.48c-3.79,5.93-2.83,10.5-1.36,13.31c1.77,3.38,4.79,5.85,6.43,7.02l0.04,0.02
		c0.02,0.02,0.03,0.04,0.06,0.05c5.31,3.79,6.86,10.92,3.59,16.58c-2.25,3.9-6.44,6.31-10.94,6.31c-2.2,0-4.38-0.58-6.3-1.69
		c-6.03-3.47-8.1-11.22-4.62-17.24c0.33-0.59,0.74-1.16,1.18-1.69c0.02-0.04,0.04-0.07,0.07-0.1c3.07-3.9,4.32-7.73,3.68-11.41
		c-0.75-4.42-3.91-6.82-5.23-7.65c-0.03-0.01-0.07-0.04-0.11-0.05c-0.09-0.06-0.5-0.29-0.62-0.37h-0.02
		C154.2,46.36,152.69,40.27,155.47,35.46"/>
	<path class="st27" d="M240.27,72.13c0.02,0.04,0.03,0.08,0.06,0.12c3.31,8.3,8.79,9.55,11.77,9.55c1.88,0,3.82-0.49,5.49-1.37
		c0.04-0.02,0.07-0.04,0.1-0.06c0.09-0.05,0.51-0.29,0.63-0.36l0.01-0.01c1.47-0.77,3.13-1.18,4.8-1.18c3.67,0,7.09,1.97,8.93,5.15
		c1.38,2.38,1.74,5.16,1.03,7.82c-0.71,2.65-2.42,4.88-4.8,6.25c-1.57,0.91-3.35,1.39-5.15,1.39c-3.67,0-7.09-1.98-8.93-5.16
		l-0.28-0.49c-3.24-6.24-7.68-7.7-10.84-7.83c-3.82-0.15-7.5,1.25-9.3,2.06l-0.04,0.02c-0.02,0.01-0.05,0.02-0.07,0.03
		c-1.65,0.75-3.4,1.13-5.21,1.13c-4.5,0-8.7-2.41-10.95-6.31c-1.69-2.91-2.13-6.32-1.26-9.58c0.87-3.25,2.96-5.98,5.88-7.66
		c1.92-1.11,4.1-1.69,6.3-1.69c4.5,0,8.7,2.42,10.94,6.31C239.73,70.85,240.03,71.49,240.27,72.13"/>
	<path class="st27" d="M159.24,114.6c-0.01-0.04-0.03-0.07-0.05-0.11c-3.31-8.31-8.8-9.55-11.77-9.55c-1.88,0-3.83,0.48-5.49,1.36
		c-0.04,0.02-0.07,0.04-0.1,0.06c-0.1,0.06-0.5,0.29-0.62,0.36c-0.01,0-0.01,0-0.02,0.01c-1.47,0.78-3.13,1.19-4.79,1.19
		c-3.68,0-7.09-1.98-8.93-5.16c-2.84-4.92-1.15-11.23,3.77-14.07c1.56-0.91,3.34-1.38,5.14-1.38c3.67,0,7.1,1.97,8.93,5.15
		l0.28,0.49c3.23,6.24,7.68,7.7,10.84,7.83c3.82,0.15,7.5-1.25,9.3-2.06l0.04-0.02c0.02-0.01,0.05-0.02,0.07-0.03
		c1.65-0.75,3.41-1.13,5.21-1.13c4.5,0,8.7,2.41,10.94,6.31c3.48,6.03,1.41,13.76-4.62,17.24c-1.92,1.11-4.1,1.69-6.3,1.69
		c-4.5,0-8.7-2.42-10.94-6.32C159.78,115.88,159.49,115.25,159.24,114.6"/>
	<path class="st27" d="M238.07,36.36c0,5.68-4.62,10.3-10.3,10.3h-0.56c-7.03-0.32-10.54,2.84-12.2,5.48
		c-2.04,3.21-2.67,7.07-2.86,9.08l0,0.04c-0.01,0.03-0.01,0.05-0.01,0.08c-0.62,6.5-6.03,11.4-12.56,11.4
		c-6.96,0-12.62-5.66-12.62-12.62c0-6.96,5.66-12.63,12.62-12.63c0.68,0,1.37,0.06,2.06,0.17c0.04,0.01,0.07,0.01,0.1,0.01
		c1.11,0.17,2.19,0.25,3.2,0.25c8.38,0,12.33-5.58,12.53-11.11c0-0.04,0-0.09,0-0.13v-0.71c0,0,0-0.01,0-0.01
		c0.21-5.56,4.73-9.91,10.29-9.91C233.45,26.06,238.07,30.68,238.07,36.36"/>
	<path class="st27" d="M161.45,150.38c0-5.68,4.62-10.3,10.3-10.3h0.56c7.05,0.32,10.54-2.83,12.2-5.48
		c2.03-3.2,2.67-7.06,2.86-9.08v-0.04c0.01-0.02,0.01-0.05,0.02-0.08c0.63-6.5,6.02-11.4,12.56-11.4c6.96,0,12.63,5.66,12.63,12.62
		c0,6.97-5.66,12.63-12.63,12.63c-0.68,0-1.37-0.06-2.06-0.17c-0.04-0.01-0.07-0.01-0.11-0.01c-1.11-0.17-2.19-0.25-3.2-0.25
		c-8.38,0-12.33,5.58-12.53,11.1v0.12v0.72v0.02c-0.21,5.55-4.73,9.9-10.29,9.9C166.07,160.68,161.45,156.06,161.45,150.38"/>
	<path class="st27" d="M190.52,25.39c0-5.1,4.14-9.23,9.24-9.23c5.11,0,9.24,4.13,9.24,9.23c0,5.11-4.13,9.24-9.24,9.24
		C194.66,34.64,190.52,30.5,190.52,25.39"/>
	<path class="st27" d="M209,161.34c0,5.1-4.14,9.23-9.24,9.23c-5.1,0-9.24-4.13-9.24-9.23c0-5.11,4.13-9.24,9.24-9.24
		C204.86,152.1,209,156.24,209,161.34"/>
	<path class="st27" d="M136.27,67.38c-4.41-2.55-5.93-8.2-3.38-12.61c2.56-4.42,8.2-5.93,12.61-3.38c4.42,2.55,5.94,8.2,3.39,12.62
		C146.34,68.42,140.69,69.93,136.27,67.38"/>
	<path class="st27" d="M263.25,119.35c4.41,2.55,5.93,8.2,3.37,12.62c-2.55,4.42-8.2,5.93-12.61,3.38
		c-4.42-2.55-5.94-8.2-3.39-12.62C253.17,118.31,258.82,116.8,263.25,119.35"/>
	<path class="st27" d="M145.51,135.36c-4.41,2.55-10.06,1.04-12.61-3.38c-2.55-4.42-1.04-10.07,3.38-12.61
		c4.42-2.55,10.07-1.05,12.62,3.38C151.45,127.15,149.93,132.8,145.51,135.36"/>
	<path class="st27" d="M254.01,51.38c4.41-2.55,10.06-1.03,12.62,3.39c2.55,4.42,1.04,10.07-3.38,12.62
		c-4.42,2.55-10.07,1.04-12.62-3.38C248.07,59.58,249.58,53.93,254.01,51.38"/>
	<path class="st27" d="M244.04,151.28c-1.83,3.18-5.26,5.16-8.93,5.16h-0.01c-1.8,0-3.57-0.48-5.14-1.38
		c-2.38-1.37-4.09-3.6-4.8-6.26c-0.71-2.65-0.35-5.44,1.03-7.82l0.28-0.48c3.79-5.93,2.83-10.5,1.36-13.31
		c-1.77-3.38-4.79-5.85-6.44-7.02l-0.03-0.02c-0.03-0.02-0.04-0.04-0.06-0.05c-5.32-3.79-6.86-10.92-3.59-16.58
		c2.25-3.89,6.44-6.31,10.95-6.31c2.2,0,4.37,0.58,6.29,1.69c2.92,1.68,5.01,4.41,5.88,7.66c0.87,3.26,0.42,6.66-1.27,9.58
		c-0.33,0.59-0.73,1.16-1.17,1.69c-0.02,0.04-0.05,0.07-0.07,0.09c-3.08,3.91-4.32,7.74-3.69,11.42c0.76,4.41,3.9,6.82,5.23,7.65
		c0.03,0.01,0.06,0.04,0.1,0.05c0.1,0.06,0.5,0.3,0.63,0.37h0.01C245.31,140.37,246.83,146.46,244.04,151.28"/>
</g>
</svg>
