<?xml version="1.0" encoding="UTF-8"?><svg xmlns="http://www.w3.org/2000/svg" version="1.2" baseProfile="tiny" viewBox="0 0 157 40" width="157px" height="40px"><g fill="#00add3"><rect width="1" height="1"/><rect height="1" y="1" width="1"/><rect x="1" y="1" width="1" height="1"/><rect y="2" width="1" height="1"/><rect height="34" x="1" y="2" width="1"/><rect height="1" x="2" y="2" width="1"/><rect x="3" y="2" width="1" height="1"/><rect width="1" height="1" x="4" y="2"/><rect x="5" y="2" width="1" height="1"/><rect x="6" y="2" width="1" height="1"/><rect x="7" y="2" width="2" height="1"/><rect x="9" y="2" width="1" height="1"/><rect height="1" x="10" y="2" width="1"/><rect x="11" y="2" width="1" height="1"/><rect x="12" y="2" width="1" height="1"/><rect x="13" y="2" width="2" height="1"/><rect x="15" y="2" width="1" height="1"/><rect width="2" height="1" x="46" y="2"/><rect x="48" y="2" width="1" height="1"/><rect x="67" y="2" width="1" height="1"/><rect x="68" y="2" width="1" height="1"/><rect x="69" y="2" width="1" height="1"/><rect x="70" y="2" width="5" height="1"/><rect x="75" y="2" width="1" height="1"/><rect width="1" height="1" x="76" y="2"/><rect x="77" y="2" width="1" height="1"/><rect y="2" width="1" height="1" x="95"/><rect x="96" y="2" width="1" height="1"/><rect width="1" height="1" x="100" y="2"/><rect x="101" y="2" width="1" height="1"/><rect x="102" y="2" width="1" height="1"/><rect x="103" y="2" width="1" height="1"/><rect x="104" y="2" width="1" height="1"/><rect height="1" x="105" y="2" width="1"/><rect y="2" width="1" height="1" x="106"/><rect x="135" y="2" width="1" height="1"/><rect x="136" y="2" width="1" height="1"/><rect width="1" height="1" x="137" y="2"/><rect x="138" y="2" width="2" height="1"/><rect x="140" y="2" width="1" height="1"/><rect height="1" x="141" y="2" width="1"/><rect width="1" height="1" x="142" y="2"/><rect y="3" width="1" height="1"/><rect width="1" height="33" x="2" y="3"/><rect x="3" y="3" width="1" height="33"/><rect x="4" y="3" width="1" height="1"/><rect x="5" y="3" width="1" height="1"/><rect width="3" height="1" x="6" y="3"/><rect x="9" y="3" width="1" height="1"/><rect y="3" width="1" height="1" x="10"/><rect x="11" y="3" width="1" height="1"/><rect width="1" height="1" x="12" y="3"/><rect y="3" width="2" height="1" x="13"/><rect x="15" y="3" width="1" height="1"/><rect x="16" y="3" width="1" height="1"/><rect x="17" y="3" width="1" height="1"/><rect x="18" y="3" width="1" height="1"/><rect height="1" x="41" y="3" width="1"/><rect y="3" width="1" height="1" x="42"/><rect x="43" y="3" width="1" height="1"/><rect x="44" y="3" width="1" height="1"/><rect x="45" y="3" width="1" height="1"/><rect x="46" y="3" width="2" height="1"/><rect height="1" x="48" y="3" width="1"/><rect x="49" y="3" width="1" height="1"/><rect height="1" x="50" y="3" width="1"/><rect y="3" width="1" height="1" x="51"/><rect x="52" y="3" width="1" height="1"/><rect width="1" height="1" x="53" y="3"/><rect width="1" height="1" x="67" y="3"/><rect x="68" y="3" width="1" height="1"/><rect x="69" y="3" width="1" height="1"/><rect width="4" height="1" x="70" y="3"/><rect x="74" y="3" width="1" height="1"/><rect x="75" y="3" width="1" height="1"/><rect y="3" width="1" height="1" x="76"/><rect height="1" x="77" y="3" width="1"/><rect x="94" y="3" width="1" height="1"/><rect x="95" y="3" width="1" height="1"/><rect width="1" height="1" x="96" y="3"/><rect x="100" y="3" width="1" height="1"/><rect x="101" y="3" width="1" height="1"/><rect x="102" y="3" width="1" height="1"/><rect x="103" y="3" width="1" height="1"/><rect x="104" y="3" width="1" height="1"/><rect y="3" width="1" height="1" x="105"/><rect x="106" y="3" width="1" height="1"/><rect x="107" y="3" width="1" height="3"/><rect height="1" x="135" y="3" width="1"/><rect height="1" x="136" y="3" width="4"/><rect width="1" height="1" x="140" y="3"/><rect x="141" y="3" width="1" height="1"/><rect x="142" y="3" width="1" height="1"/><rect width="1" height="31" y="4"/><rect x="4" y="4" width="14" height="3"/><rect height="7" x="18" y="4" width="1"/><rect width="1" height="1" x="19" y="4"/><rect x="20" y="4" width="1" height="1"/><rect height="1" x="39" y="4" width="1"/><rect x="40" y="4" width="1" height="1"/><rect x="41" y="4" width="1" height="1"/><rect height="4" x="42" y="4" width="10"/><rect x="52" y="4" width="1" height="5"/><rect x="53" y="4" width="1" height="1"/><rect x="54" y="4" width="1" height="1"/><rect x="55" y="4" width="1" height="1"/><rect x="67" y="4" width="1" height="1"/><rect y="4" width="6" height="32" x="68"/><rect height="1" x="74" y="4" width="1"/><rect width="1" height="1" x="75" y="4"/><rect width="1" height="1" x="76" y="4"/><rect y="4" width="1" height="1" x="92"/><rect x="93" y="4" width="1" height="1"/><rect x="94" y="4" width="1" height="3"/><rect x="95" y="4" width="1" height="1"/><rect x="96" y="4" width="1" height="1"/><rect width="1" height="1" x="100" y="4"/><rect x="101" y="4" width="1" height="1"/><rect y="4" width="3" height="14" x="102"/><rect x="105" y="4" width="1" height="16"/><rect y="4" width="1" height="1" x="106"/><rect height="1" x="118" y="4" width="1"/><rect width="1" height="1" x="135" y="4"/><rect x="136" y="4" width="5" height="18"/><rect x="141" y="4" width="1" height="21"/><rect width="1" height="1" x="142" y="4"/><rect height="21" x="19" y="5" width="1"/><rect height="31" x="20" y="5" width="1"/><rect y="5" width="1" height="1" x="21"/><rect y="5" width="1" height="1" x="38"/><rect x="39" y="5" width="1" height="1"/><rect width="14" height="3" x="40" y="5"/><rect width="1" height="6" x="54" y="5"/><rect x="55" y="5" width="1" height="1"/><rect height="1" x="56" y="5" width="1"/><rect y="5" width="1" height="1" x="57"/><rect x="67" y="5" width="1" height="30"/><rect width="1" height="1" x="74" y="5"/><rect y="5" width="1" height="1" x="75"/><rect x="91" y="5" width="1" height="1"/><rect width="1" height="1" x="92" y="5"/><rect height="15" x="93" y="5" width="1"/><rect y="5" width="1" height="1" x="95"/><rect width="1" height="1" x="96" y="5"/><rect height="3" x="100" y="5" width="1"/><rect x="101" y="5" width="1" height="3"/><rect x="106" y="5" width="1" height="1"/><rect x="116" y="5" width="1" height="1"/><rect y="5" width="1" height="1" x="117"/><rect y="5" width="1" height="1" x="118"/><rect x="135" y="5" width="1" height="2"/><rect x="142" y="5" width="1" height="2"/><rect x="21" y="6" width="1" height="11"/><rect x="22" y="6" width="1" height="1"/><rect x="36" y="6" width="1" height="1"/><rect x="37" y="6" width="1" height="1"/><rect x="38" y="6" width="18" height="2"/><rect x="56" y="6" width="1" height="7"/><rect height="1" x="57" y="6" width="1"/><rect x="58" y="6" width="1" height="1"/><rect y="6" width="1" height="1" x="74"/><rect x="89" y="6" width="1" height="1"/><rect height="1" x="90" y="6" width="1"/><rect y="6" width="4" height="1" x="91"/><rect x="95" y="6" width="1" height="1"/><rect x="96" y="6" width="1" height="1"/><rect width="1" height="1" x="106" y="6"/><rect x="107" y="6" width="1" height="1"/><rect x="114" y="6" width="1" height="1"/><rect height="1" x="115" y="6" width="1"/><rect x="116" y="6" width="1" height="3"/><rect y="6" width="1" height="1" x="117"/><rect x="4" y="7" width="18" height="1"/><rect width="1" height="10" x="22" y="7"/><rect width="1" height="1" x="23" y="7"/><rect x="35" y="7" width="1" height="1"/><rect x="36" y="7" width="1" height="1"/><rect y="7" width="21" height="1" x="37"/><rect width="1" height="6" x="58" y="7"/><rect x="59" y="7" width="1" height="1"/><rect x="74" y="7" width="1" height="1"/><rect x="87" y="7" width="1" height="1"/><rect x="88" y="7" width="1" height="1"/><rect height="1" x="89" y="7" width="1"/><rect width="4" height="13" x="90" y="7"/><rect y="7" width="1" height="1" x="94"/><rect x="95" y="7" width="1" height="1"/><rect y="7" width="1" height="1" x="96"/><rect width="1" height="1" x="106" y="7"/><rect x="107" y="7" width="1" height="1"/><rect x="111" y="7" width="1" height="1"/><rect x="112" y="7" width="1" height="1"/><rect x="113" y="7" width="1" height="1"/><rect width="2" height="2" x="114" y="7"/><rect x="117" y="7" width="1" height="1"/><rect x="135" y="7" width="1" height="1"/><rect x="142" y="7" width="1" height="1"/><rect x="4" y="8" width="1" height="28"/><rect x="5" y="8" width="1" height="28"/><rect x="6" y="8" width="1" height="1"/><rect x="7" y="8" width="6" height="1"/><rect x="13" y="8" width="1" height="1"/><rect x="14" y="8" width="1" height="1"/><rect x="15" y="8" width="7" height="1"/><rect x="23" y="8" width="1" height="1"/><rect x="34" y="8" width="1" height="1"/><rect width="24" height="1" x="35" y="8"/><rect x="59" y="8" width="1" height="4"/><rect x="60" y="8" width="1" height="1"/><rect x="74" y="8" width="1" height="1"/><rect width="1" height="1" x="85" y="8"/><rect x="86" y="8" width="1" height="1"/><rect y="8" width="1" height="1" x="87"/><rect x="88" y="8" width="5" height="3"/><rect x="94" y="8" width="1" height="1"/><rect x="100" y="8" width="1" height="1"/><rect x="101" y="8" width="1" height="1"/><rect x="106" y="8" width="1" height="1"/><rect x="109" y="8" width="1" height="1"/><rect x="110" y="8" width="1" height="1"/><rect x="111" y="8" width="1" height="1"/><rect x="112" y="8" width="4" height="1"/><rect x="117" y="8" width="1" height="1"/><rect width="1" height="1" x="135" y="8"/><rect x="142" y="8" width="1" height="1"/><rect x="6" y="9" width="1" height="1"/><rect x="7" y="9" width="5" height="1"/><rect x="12" y="9" width="1" height="1"/><rect x="13" y="9" width="1" height="1"/><rect height="1" x="14" y="9" width="1"/><rect x="15" y="9" width="1" height="1"/><rect x="16" y="9" width="1" height="1"/><rect width="6" height="1" x="17" y="9"/><rect y="9" width="1" height="6" x="23"/><rect width="1" height="1" x="24" y="9"/><rect height="1" x="33" y="9" width="1"/><rect x="34" y="9" width="10" height="1"/><rect x="44" y="9" width="1" height="1"/><rect height="1" x="45" y="9" width="1"/><rect x="46" y="9" width="1" height="1"/><rect width="1" height="1" x="47" y="9"/><rect x="48" y="9" width="1" height="1"/><rect height="1" x="49" y="9" width="1"/><rect x="50" y="9" width="10" height="1"/><rect x="60" y="9" width="1" height="2"/><rect x="61" y="9" width="1" height="1"/><rect x="74" y="9" width="1" height="26"/><rect x="82" y="9" width="1" height="1"/><rect width="1" height="1" x="83" y="9"/><rect x="84" y="9" width="1" height="1"/><rect width="8" height="2" x="85" y="9"/><rect x="94" y="9" width="1" height="1"/><rect y="9" width="1" height="1" x="101"/><rect x="106" y="9" width="1" height="1"/><rect width="1" height="1" x="107" y="9"/><rect width="1" height="1" x="108" y="9"/><rect x="109" y="9" width="7" height="1"/><rect x="116" y="9" width="1" height="1"/><rect x="117" y="9" width="1" height="1"/><rect x="135" y="9" width="1" height="1"/><rect x="142" y="9" width="1" height="1"/><rect x="6" y="10" width="1" height="1"/><rect x="16" y="10" width="1" height="1"/><rect height="1" x="17" y="10" width="1"/><rect x="24" y="10" width="1" height="1"/><rect x="32" y="10" width="1" height="1"/><rect x="33" y="10" width="1" height="1"/><rect x="34" y="10" width="7" height="1"/><rect x="41" y="10" width="1" height="1"/><rect height="1" x="42" y="10" width="1"/><rect height="1" x="43" y="10" width="1"/><rect x="44" y="10" width="1" height="1"/><rect width="1" height="1" x="45" y="10"/><rect x="49" y="10" width="1" height="1"/><rect x="50" y="10" width="1" height="1"/><rect height="1" x="51" y="10" width="1"/><rect x="52" y="10" width="1" height="1"/><rect x="53" y="10" width="7" height="1"/><rect x="61" y="10" width="1" height="1"/><rect y="10" width="1" height="1" x="62"/><rect x="82" y="10" width="1" height="1"/><rect height="1" x="83" y="10" width="10"/><rect height="1" x="94" y="10" width="1"/><rect y="10" width="1" height="1" x="98"/><rect height="1" x="99" y="10" width="1"/><rect width="1" height="1" x="100" y="10"/><rect x="101" y="10" width="1" height="1"/><rect x="106" y="10" width="8" height="1"/><rect x="114" y="10" width="1" height="1"/><rect y="10" width="1" height="1" x="115"/><rect height="1" x="116" y="10" width="1"/><rect height="1" x="121" y="10" width="1"/><rect x="122" y="10" width="12" height="1"/><rect x="134" y="10" width="1" height="1"/><rect x="135" y="10" width="1" height="1"/><rect height="1" x="142" y="10" width="1"/><rect y="10" width="12" height="1" x="143"/><rect y="10" width="1" height="1" x="155"/><rect height="1" x="156" y="10" width="1"/><rect height="4" x="6" y="11" width="1"/><rect x="17" y="11" width="1" height="1"/><rect x="18" y="11" width="5" height="1"/><rect x="24" y="11" width="1" height="1"/><rect y="11" width="1" height="1" x="32"/><rect x="33" y="11" width="7" height="1"/><rect x="40" y="11" width="1" height="1"/><rect width="1" height="1" x="41" y="11"/><rect x="42" y="11" width="1" height="1"/><rect y="11" width="1" height="1" x="52"/><rect width="1" height="1" x="53" y="11"/><rect x="54" y="11" width="7" height="1"/><rect height="1" x="61" y="11" width="1"/><rect y="11" width="1" height="1" x="62"/><rect x="82" y="11" width="1" height="1"/><rect width="1" height="1" x="83" y="11"/><rect height="1" x="84" y="11" width="9"/><rect x="94" y="11" width="1" height="1"/><rect x="95" y="11" width="1" height="1"/><rect x="96" y="11" width="1" height="1"/><rect width="1" height="1" x="97" y="11"/><rect width="1" height="1" x="98" y="11"/><rect x="99" y="11" width="1" height="1"/><rect x="100" y="11" width="11" height="1"/><rect x="111" y="11" width="1" height="1"/><rect width="1" height="1" x="112" y="11"/><rect y="11" width="1" height="1" x="113"/><rect x="114" y="11" width="1" height="1"/><rect y="11" width="1" height="1" x="121"/><rect x="122" y="11" width="34" height="2"/><rect x="156" y="11" width="1" height="2"/><rect y="12" width="1" height="1" x="17"/><rect height="1" x="18" y="12" width="1"/><rect x="24" y="12" width="1" height="1"/><rect height="1" x="31" y="12" width="1"/><rect y="12" width="7" height="1" x="32"/><rect x="39" y="12" width="1" height="1"/><rect x="40" y="12" width="1" height="1"/><rect y="12" width="1" height="1" x="54"/><rect x="55" y="12" width="4" height="1"/><rect width="1" height="1" x="59" y="12"/><rect width="1" height="1" x="60" y="12"/><rect x="61" y="12" width="1" height="1"/><rect x="62" y="12" width="1" height="1"/><rect x="82" y="12" width="1" height="1"/><rect height="1" x="83" y="12" width="1"/><rect x="84" y="12" width="2" height="1"/><rect x="86" y="12" width="1" height="1"/><rect y="12" width="1" height="1" x="87"/><rect width="1" height="1" x="88" y="12"/><rect x="89" y="12" width="4" height="9"/><rect x="94" y="12" width="1" height="1"/><rect x="95" y="12" width="1" height="1"/><rect x="96" y="12" width="13" height="1"/><rect height="1" x="109" y="12" width="1"/><rect x="110" y="12" width="1" height="1"/><rect height="1" x="111" y="12" width="1"/><rect y="12" width="1" height="1" x="112"/><rect width="1" height="1" x="121" y="12"/><rect x="18" y="13" width="1" height="1"/><rect x="24" y="13" width="1" height="1"/><rect x="31" y="13" width="1" height="1"/><rect x="32" y="13" width="6" height="1"/><rect x="38" y="13" width="1" height="1"/><rect x="39" y="13" width="1" height="1"/><rect width="1" height="1" x="55" y="13"/><rect x="56" y="13" width="2" height="1"/><rect x="58" y="13" width="1" height="1"/><rect x="59" y="13" width="1" height="1"/><rect height="1" x="60" y="13" width="1"/><rect x="82" y="13" width="1" height="1"/><rect x="83" y="13" width="1" height="1"/><rect width="1" height="1" x="84" y="13"/><rect height="1" x="85" y="13" width="1"/><rect x="86" y="13" width="1" height="1"/><rect x="88" y="13" width="1" height="1"/><rect height="1" x="94" y="13" width="1"/><rect height="2" x="95" y="13" width="1"/><rect x="96" y="13" width="1" height="1"/><rect x="97" y="13" width="9" height="1"/><rect height="1" x="106" y="13" width="1"/><rect x="107" y="13" width="1" height="1"/><rect x="108" y="13" width="1" height="1"/><rect y="13" width="1" height="1" x="109"/><rect x="121" y="13" width="1" height="1"/><rect width="34" height="1" x="122" y="13"/><rect x="156" y="13" width="1" height="1"/><rect width="1" height="1" x="17" y="14"/><rect y="14" width="1" height="1" x="18"/><rect x="24" y="14" width="1" height="1"/><rect x="30" y="14" width="1" height="1"/><rect x="31" y="14" width="1" height="1"/><rect x="32" y="14" width="5" height="3"/><rect y="14" width="1" height="1" x="37"/><rect x="38" y="14" width="1" height="1"/><rect x="56" y="14" width="1" height="1"/><rect y="14" width="1" height="1" x="57"/><rect x="58" y="14" width="1" height="1"/><rect x="82" y="14" width="1" height="1"/><rect x="83" y="14" width="1" height="1"/><rect height="1" x="84" y="14" width="1"/><rect x="88" y="14" width="1" height="1"/><rect x="94" y="14" width="1" height="1"/><rect width="1" height="1" x="96" y="14"/><rect y="14" width="8" height="1" x="97"/><rect x="106" y="14" width="1" height="1"/><rect height="1" x="121" y="14" width="1"/><rect x="122" y="14" width="1" height="1"/><rect height="1" x="123" y="14" width="10"/><rect x="133" y="14" width="1" height="1"/><rect y="14" width="1" height="1" x="134"/><rect y="14" width="1" height="1" x="135"/><rect x="142" y="14" width="1" height="1"/><rect x="143" y="14" width="1" height="1"/><rect width="1" height="1" x="144" y="14"/><rect x="145" y="14" width="9" height="1"/><rect x="154" y="14" width="1" height="1"/><rect x="155" y="14" width="1" height="1"/><rect x="156" y="14" width="1" height="1"/><rect height="1" x="6" y="15" width="1"/><rect y="15" width="1" height="1" x="17"/><rect x="18" y="15" width="5" height="2"/><rect x="23" y="15" width="1" height="1"/><rect width="1" height="1" x="24" y="15"/><rect width="1" height="1" x="30" y="15"/><rect x="31" y="15" width="5" height="10"/><rect y="15" width="1" height="1" x="37"/><rect x="38" y="15" width="1" height="1"/><rect width="1" height="4" x="88" y="15"/><rect x="94" y="15" width="1" height="1"/><rect x="95" y="15" width="1" height="1"/><rect x="96" y="15" width="1" height="1"/><rect y="15" width="1" height="1" x="97"/><rect x="98" y="15" width="1" height="1"/><rect x="99" y="15" width="1" height="1"/><rect width="1" height="1" x="100" y="15"/><rect x="101" y="15" width="1" height="1"/><rect y="15" width="1" height="1" x="106"/><rect x="135" y="15" width="1" height="1"/><rect height="1" x="142" y="15" width="1"/><rect y="16" width="1" height="1" x="6"/><rect x="15" y="16" width="1" height="1"/><rect height="1" x="16" y="16" width="1"/><rect x="17" y="16" width="5" height="1"/><rect x="23" y="16" width="1" height="1"/><rect x="30" y="16" width="1" height="1"/><rect y="16" width="1" height="1" x="37"/><rect x="94" y="16" width="1" height="1"/><rect y="16" width="1" height="1" x="95"/><rect x="96" y="16" width="1" height="1"/><rect height="1" x="97" y="16" width="1"/><rect x="101" y="16" width="1" height="1"/><rect x="106" y="16" width="1" height="4"/><rect x="107" y="16" width="1" height="1"/><rect x="108" y="16" width="1" height="1"/><rect height="1" x="109" y="16" width="1"/><rect x="110" y="16" width="4" height="1"/><rect x="114" y="16" width="1" height="1"/><rect y="16" width="1" height="1" x="115"/><rect x="116" y="16" width="1" height="1"/><rect y="16" width="1" height="1" x="117"/><rect x="135" y="16" width="1" height="1"/><rect x="142" y="16" width="1" height="1"/><rect x="143" y="16" width="1" height="1"/><rect x="6" y="17" width="1" height="1"/><rect y="17" width="1" height="1" x="7"/><rect x="8" y="17" width="1" height="1"/><rect y="17" width="2" height="1" x="9"/><rect x="11" y="17" width="1" height="1"/><rect x="12" y="17" width="1" height="1"/><rect x="13" y="17" width="1" height="1"/><rect y="17" width="1" height="1" x="14"/><rect height="1" x="15" y="17" width="1"/><rect x="16" y="17" width="6" height="1"/><rect width="1" height="1" x="22" y="17"/><rect x="23" y="17" width="1" height="1"/><rect x="30" y="17" width="1" height="1"/><rect x="36" y="17" width="1" height="1"/><rect x="37" y="17" width="1" height="1"/><rect y="17" width="1" height="1" x="94"/><rect x="100" y="17" width="1" height="1"/><rect width="1" height="1" x="101" y="17"/><rect width="1" height="3" x="107" y="17"/><rect y="17" width="1" height="1" x="108"/><rect x="109" y="17" width="1" height="1"/><rect y="17" width="4" height="1" x="110"/><rect x="114" y="17" width="1" height="1"/><rect x="115" y="17" width="1" height="1"/><rect y="17" width="1" height="1" x="116"/><rect height="1" x="117" y="17" width="1"/><rect y="17" width="1" height="1" x="134"/><rect height="1" x="135" y="17" width="1"/><rect x="142" y="17" width="1" height="9"/><rect y="17" width="1" height="1" x="143"/><rect x="6" y="18" width="14" height="4"/><rect x="21" y="18" width="1" height="1"/><rect height="1" x="22" y="18" width="1"/><rect x="29" y="18" width="1" height="1"/><rect width="1" height="1" x="30" y="18"/><rect width="1" height="1" x="36" y="18"/><rect width="1" height="1" x="37" y="18"/><rect y="18" width="1" height="1" x="44"/><rect width="1" height="1" x="45" y="18"/><rect x="46" y="18" width="1" height="1"/><rect height="1" x="47" y="18" width="15"/><rect x="62" y="18" width="1" height="1"/><rect x="63" y="18" width="1" height="1"/><rect y="18" width="1" height="1" x="64"/><rect x="65" y="18" width="1" height="1"/><rect width="1" height="1" x="94" y="18"/><rect y="18" width="1" height="1" x="101"/><rect x="102" y="18" width="14" height="1"/><rect height="2" x="116" y="18" width="1"/><rect width="1" height="1" x="117" y="18"/><rect x="134" y="18" width="1" height="1"/><rect x="135" y="18" width="7" height="4"/><rect x="143" y="18" width="1" height="1"/><rect y="19" width="1" height="1" x="21"/><rect x="22" y="19" width="1" height="1"/><rect x="29" y="19" width="1" height="1"/><rect width="1" height="1" x="30" y="19"/><rect x="36" y="19" width="1" height="1"/><rect x="44" y="19" width="1" height="1"/><rect x="45" y="19" width="1" height="1"/><rect height="1" x="46" y="19" width="18"/><rect x="64" y="19" width="1" height="1"/><rect y="19" width="1" height="1" x="65"/><rect x="88" y="19" width="1" height="1"/><rect x="94" y="19" width="1" height="1"/><rect height="1" x="101" y="19" width="1"/><rect x="102" y="19" width="1" height="1"/><rect x="103" y="19" width="12" height="1"/><rect y="19" width="1" height="1" x="115"/><rect x="117" y="19" width="1" height="1"/><rect x="134" y="19" width="1" height="1"/><rect x="143" y="19" width="1" height="1"/><rect x="21" y="20" width="1" height="15"/><rect x="22" y="20" width="1" height="1"/><rect y="20" width="1" height="1" x="23"/><rect y="20" width="1" height="1" x="29"/><rect y="20" width="1" height="1" x="30"/><rect x="36" y="20" width="1" height="1"/><rect x="46" y="20" width="1" height="1"/><rect width="17" height="1" x="47" y="20"/><rect x="64" y="20" width="1" height="1"/><rect width="2" height="1" x="65" y="20"/><rect x="88" y="20" width="1" height="1"/><rect y="20" width="1" height="1" x="93"/><rect x="94" y="20" width="1" height="1"/><rect x="103" y="20" width="1" height="1"/><rect y="20" width="12" height="1" x="104"/><rect width="1" height="1" x="116" y="20"/><rect x="117" y="20" width="1" height="1"/><rect x="133" y="20" width="1" height="1"/><rect x="134" y="20" width="1" height="1"/><rect x="143" y="20" width="1" height="8"/><rect x="144" y="20" width="1" height="1"/><rect x="22" y="21" width="1" height="14"/><rect x="23" y="21" width="1" height="13"/><rect x="24" y="21" width="1" height="1"/><rect x="29" y="21" width="1" height="1"/><rect x="30" y="21" width="1" height="1"/><rect y="21" width="1" height="1" x="36"/><rect height="1" x="46" y="21" width="1"/><rect x="47" y="21" width="16" height="1"/><rect x="63" y="21" width="1" height="4"/><rect width="1" height="1" x="64" y="21"/><rect y="21" width="1" height="1" x="65"/><rect x="88" y="21" width="1" height="1"/><rect height="1" x="89" y="21" width="3"/><rect y="21" width="1" height="1" x="92"/><rect height="1" x="93" y="21" width="1"/><rect width="1" height="1" x="94" y="21"/><rect x="97" y="21" width="1" height="1"/><rect y="21" width="1" height="1" x="98"/><rect y="21" width="2" height="1" x="99"/><rect y="21" width="1" height="1" x="101"/><rect x="102" y="21" width="1" height="1"/><rect x="103" y="21" width="1" height="1"/><rect width="1" height="1" x="104" y="21"/><rect height="1" x="105" y="21" width="1"/><rect x="106" y="21" width="1" height="1"/><rect width="7" height="1" x="107" y="21"/><rect x="114" y="21" width="1" height="1"/><rect height="1" x="115" y="21" width="1"/><rect y="21" width="1" height="1" x="116"/><rect x="117" y="21" width="1" height="1"/><rect x="133" y="21" width="1" height="1"/><rect width="9" height="1" x="134" y="21"/><rect width="1" height="1" x="144" y="21"/><rect width="18" height="1" x="6" y="22"/><rect y="22" width="1" height="11" x="24"/><rect x="25" y="22" width="1" height="1"/><rect y="22" width="1" height="1" x="29"/><rect x="30" y="22" width="1" height="1"/><rect x="36" y="22" width="1" height="1"/><rect height="1" x="37" y="22" width="1"/><rect x="47" y="22" width="1" height="1"/><rect height="1" x="48" y="22" width="15"/><rect x="64" y="22" width="1" height="1"/><rect width="1" height="1" x="65" y="22"/><rect x="88" y="22" width="1" height="1"/><rect x="89" y="22" width="1" height="1"/><rect x="90" y="22" width="2" height="1"/><rect x="92" y="22" width="1" height="1"/><rect width="1" height="1" x="93" y="22"/><rect height="1" x="97" y="22" width="1"/><rect width="5" height="14" x="98" y="22"/><rect x="103" y="22" width="1" height="13"/><rect height="1" x="104" y="22" width="1"/><rect x="132" y="22" width="1" height="1"/><rect x="133" y="22" width="1" height="1"/><rect x="134" y="22" width="10" height="1"/><rect x="144" y="22" width="1" height="7"/><rect width="1" height="1" x="145" y="22"/><rect x="6" y="23" width="1" height="1"/><rect x="7" y="23" width="1" height="1"/><rect x="8" y="23" width="1" height="1"/><rect x="9" y="23" width="4" height="1"/><rect x="13" y="23" width="1" height="1"/><rect x="14" y="23" width="1" height="1"/><rect x="15" y="23" width="1" height="1"/><rect y="23" width="8" height="1" x="16"/><rect x="25" y="23" width="1" height="1"/><rect x="26" y="23" width="1" height="1"/><rect width="1" height="1" x="30" y="23"/><rect x="36" y="23" width="1" height="9"/><rect height="1" x="37" y="23" width="1"/><rect y="23" width="1" height="1" x="47"/><rect width="1" height="1" x="48" y="23"/><rect x="49" y="23" width="6" height="1"/><rect x="55" y="23" width="1" height="1"/><rect x="56" y="23" width="1" height="1"/><rect x="57" y="23" width="1" height="2"/><rect x="58" y="23" width="5" height="5"/><rect x="64" y="23" width="1" height="1"/><rect y="23" width="1" height="1" x="97"/><rect height="1" x="104" y="23" width="1"/><rect width="1" height="1" x="132" y="23"/><rect x="133" y="23" width="4" height="2"/><rect x="137" y="23" width="1" height="1"/><rect x="138" y="23" width="1" height="1"/><rect x="139" y="23" width="1" height="1"/><rect height="1" x="140" y="23" width="4"/><rect x="145" y="23" width="1" height="1"/><rect x="6" y="24" width="1" height="1"/><rect x="7" y="24" width="1" height="1"/><rect width="1" height="1" x="8" y="24"/><rect x="9" y="24" width="3" height="1"/><rect x="12" y="24" width="1" height="1"/><rect x="13" y="24" width="1" height="1"/><rect x="14" y="24" width="1" height="1"/><rect height="1" x="15" y="24" width="1"/><rect width="1" height="1" x="16" y="24"/><rect y="24" width="1" height="1" x="17"/><rect x="18" y="24" width="7" height="1"/><rect y="24" width="1" height="8" x="25"/><rect y="24" width="1" height="1" x="26"/><rect x="30" y="24" width="1" height="1"/><rect x="37" y="24" width="1" height="1"/><rect x="47" y="24" width="1" height="1"/><rect x="48" y="24" width="1" height="1"/><rect x="49" y="24" width="6" height="1"/><rect y="24" width="1" height="1" x="55"/><rect height="1" x="64" y="24" width="1"/><rect x="82" y="24" width="1" height="1"/><rect height="1" x="83" y="24" width="1"/><rect width="1" height="1" x="84" y="24"/><rect x="85" y="24" width="10" height="1"/><rect x="95" y="24" width="1" height="1"/><rect width="1" height="1" x="96" y="24"/><rect height="1" x="97" y="24" width="1"/><rect height="1" x="104" y="24" width="1"/><rect x="105" y="24" width="1" height="1"/><rect x="106" y="24" width="10" height="1"/><rect y="24" width="1" height="1" x="116"/><rect x="117" y="24" width="1" height="1"/><rect x="118" y="24" width="1" height="1"/><rect x="131" y="24" width="1" height="1"/><rect height="1" x="132" y="24" width="5"/><rect y="24" width="1" height="1" x="137"/><rect x="138" y="24" width="1" height="1"/><rect y="24" width="1" height="1" x="140"/><rect x="145" y="24" width="1" height="6"/><rect x="146" y="24" width="1" height="1"/><rect x="6" y="25" width="1" height="1"/><rect x="17" y="25" width="1" height="1"/><rect x="18" y="25" width="1" height="1"/><rect x="26" y="25" width="1" height="1"/><rect y="25" width="1" height="1" x="30"/><rect x="31" y="25" width="5" height="1"/><rect x="37" y="25" width="1" height="1"/><rect y="25" width="1" height="1" x="38"/><rect x="57" y="25" width="1" height="1"/><rect x="63" y="25" width="1" height="1"/><rect width="1" height="1" x="64" y="25"/><rect height="1" x="82" y="25" width="1"/><rect y="25" width="1" height="1" x="83"/><rect x="84" y="25" width="1" height="1"/><rect x="85" y="25" width="10" height="1"/><rect x="95" y="25" width="1" height="1"/><rect x="96" y="25" width="1" height="1"/><rect x="97" y="25" width="1" height="1"/><rect width="1" height="1" x="104" y="25"/><rect x="105" y="25" width="1" height="1"/><rect x="106" y="25" width="10" height="1"/><rect width="1" height="1" x="116" y="25"/><rect x="117" y="25" width="1" height="1"/><rect x="118" y="25" width="1" height="1"/><rect x="130" y="25" width="1" height="1"/><rect x="131" y="25" width="1" height="1"/><rect y="25" width="4" height="2" x="132"/><rect x="136" y="25" width="1" height="1"/><rect x="137" y="25" width="1" height="1"/><rect height="1" x="140" y="25" width="1"/><rect x="141" y="25" width="5" height="1"/><rect x="146" y="25" width="1" height="6"/><rect y="25" width="1" height="1" x="147"/><rect x="6" y="26" width="1" height="4"/><rect height="1" x="18" y="26" width="1"/><rect x="19" y="26" width="6" height="1"/><rect x="26" y="26" width="1" height="1"/><rect x="27" y="26" width="1" height="1"/><rect x="30" y="26" width="1" height="1"/><rect x="31" y="26" width="1" height="1"/><rect x="32" y="26" width="5" height="1"/><rect x="37" y="26" width="1" height="7"/><rect x="38" y="26" width="1" height="1"/><rect y="26" width="1" height="1" x="56"/><rect width="5" height="3" x="57" y="26"/><rect x="63" y="26" width="1" height="1"/><rect x="64" y="26" width="1" height="1"/><rect x="82" y="26" width="1" height="1"/><rect width="34" height="2" x="83" y="26"/><rect x="117" y="26" width="1" height="2"/><rect x="118" y="26" width="1" height="1"/><rect x="130" y="26" width="1" height="1"/><rect y="26" width="4" height="2" x="131"/><rect x="136" y="26" width="1" height="1"/><rect height="1" x="137" y="26" width="1"/><rect height="1" x="141" y="26" width="1"/><rect height="1" x="142" y="26" width="4"/><rect y="26" width="1" height="1" x="147"/><rect x="148" y="26" width="1" height="1"/><rect x="18" y="27" width="1" height="1"/><rect x="19" y="27" width="1" height="1"/><rect height="2" x="26" y="27" width="1"/><rect x="27" y="27" width="1" height="1"/><rect x="31" y="27" width="1" height="1"/><rect x="32" y="27" width="6" height="1"/><rect x="38" y="27" width="1" height="7"/><rect x="39" y="27" width="1" height="1"/><rect width="1" height="1" x="55" y="27"/><rect x="56" y="27" width="6" height="2"/><rect x="63" y="27" width="1" height="1"/><rect width="1" height="1" x="82" y="27"/><rect width="1" height="1" x="118" y="27"/><rect x="129" y="27" width="1" height="1"/><rect width="5" height="1" x="130" y="27"/><rect y="27" width="1" height="1" x="135"/><rect width="1" height="1" x="136" y="27"/><rect y="27" width="1" height="1" x="141"/><rect x="142" y="27" width="1" height="1"/><rect x="147" y="27" width="1" height="4"/><rect height="1" x="148" y="27" width="1"/><rect x="149" y="27" width="1" height="1"/><rect y="28" width="1" height="1" x="18"/><rect y="28" width="1" height="1" x="19"/><rect x="27" y="28" width="1" height="1"/><rect x="31" y="28" width="1" height="1"/><rect height="1" x="32" y="28" width="1"/><rect x="33" y="28" width="6" height="1"/><rect x="39" y="28" width="1" height="6"/><rect height="1" x="40" y="28" width="1"/><rect x="54" y="28" width="1" height="1"/><rect x="55" y="28" width="7" height="1"/><rect x="62" y="28" width="1" height="1"/><rect x="63" y="28" width="1" height="1"/><rect height="1" x="82" y="28" width="1"/><rect x="83" y="28" width="34" height="1"/><rect x="117" y="28" width="1" height="1"/><rect x="118" y="28" width="1" height="1"/><rect x="128" y="28" width="1" height="1"/><rect x="129" y="28" width="5" height="1"/><rect x="134" y="28" width="1" height="1"/><rect x="135" y="28" width="1" height="1"/><rect x="142" y="28" width="1" height="1"/><rect width="5" height="1" x="143" y="28"/><rect x="148" y="28" width="1" height="4"/><rect height="1" x="149" y="28" width="1"/><rect y="28" width="1" height="1" x="150"/><rect x="18" y="29" width="1" height="1"/><rect height="3" x="19" y="29" width="7"/><rect x="26" y="29" width="1" height="1"/><rect height="1" x="27" y="29" width="1"/><rect x="32" y="29" width="1" height="1"/><rect y="29" width="7" height="1" x="33"/><rect x="40" y="29" width="1" height="6"/><rect x="41" y="29" width="1" height="1"/><rect x="42" y="29" width="1" height="1"/><rect width="1" height="1" x="52" y="29"/><rect height="1" x="53" y="29" width="1"/><rect x="54" y="29" width="7" height="1"/><rect y="29" width="1" height="1" x="61"/><rect x="62" y="29" width="1" height="1"/><rect y="29" width="1" height="1" x="82"/><rect width="1" height="1" x="83" y="29"/><rect x="84" y="29" width="11" height="1"/><rect x="95" y="29" width="1" height="1"/><rect x="96" y="29" width="1" height="1"/><rect x="97" y="29" width="1" height="1"/><rect y="29" width="1" height="1" x="104"/><rect x="105" y="29" width="1" height="1"/><rect x="106" y="29" width="10" height="1"/><rect x="116" y="29" width="1" height="1"/><rect x="117" y="29" width="1" height="1"/><rect y="29" width="1" height="1" x="118"/><rect y="29" width="1" height="1" x="127"/><rect height="1" x="128" y="29" width="5"/><rect x="133" y="29" width="1" height="1"/><rect width="1" height="1" x="134" y="29"/><rect x="143" y="29" width="1" height="1"/><rect x="144" y="29" width="5" height="1"/><rect x="149" y="29" width="1" height="4"/><rect width="1" height="1" x="150" y="29"/><rect x="151" y="29" width="1" height="1"/><rect x="6" y="30" width="1" height="1"/><rect height="1" x="18" y="30" width="1"/><rect width="1" height="1" x="26" y="30"/><rect y="30" width="1" height="1" x="27"/><rect x="33" y="30" width="1" height="1"/><rect x="34" y="30" width="8" height="1"/><rect x="42" y="30" width="1" height="6"/><rect x="43" y="30" width="1" height="1"/><rect x="44" y="30" width="1" height="1"/><rect x="45" y="30" width="1" height="1"/><rect x="46" y="30" width="1" height="1"/><rect x="48" y="30" width="1" height="1"/><rect x="49" y="30" width="1" height="1"/><rect x="50" y="30" width="1" height="1"/><rect y="30" width="1" height="1" x="51"/><rect x="52" y="30" width="8" height="1"/><rect x="60" y="30" width="1" height="1"/><rect x="61" y="30" width="1" height="1"/><rect x="97" y="30" width="1" height="1"/><rect x="104" y="30" width="1" height="1"/><rect height="1" x="125" y="30" width="1"/><rect x="126" y="30" width="1" height="1"/><rect height="1" x="127" y="30" width="5"/><rect y="30" width="1" height="1" x="132"/><rect x="133" y="30" width="1" height="1"/><rect x="144" y="30" width="1" height="1"/><rect x="145" y="30" width="5" height="1"/><rect y="30" width="1" height="3" x="150"/><rect x="151" y="30" width="1" height="1"/><rect width="1" height="1" x="152" y="30"/><rect x="6" y="31" width="1" height="1"/><rect x="16" y="31" width="1" height="1"/><rect x="17" y="31" width="1" height="1"/><rect x="18" y="31" width="7" height="2"/><rect x="26" y="31" width="1" height="1"/><rect x="33" y="31" width="1" height="1"/><rect height="1" x="34" y="31" width="1"/><rect x="35" y="31" width="10" height="1"/><rect x="45" y="31" width="1" height="5"/><rect x="46" y="31" width="1" height="1"/><rect y="31" width="1" height="1" x="47"/><rect width="1" height="1" x="48" y="31"/><rect height="1" x="49" y="31" width="1"/><rect x="50" y="31" width="9" height="1"/><rect x="59" y="31" width="1" height="1"/><rect width="1" height="1" x="60" y="31"/><rect x="61" y="31" width="1" height="1"/><rect x="97" y="31" width="1" height="4"/><rect x="104" y="31" width="1" height="1"/><rect x="124" y="31" width="1" height="1"/><rect x="125" y="31" width="1" height="1"/><rect x="126" y="31" width="5" height="1"/><rect x="131" y="31" width="1" height="1"/><rect x="132" y="31" width="1" height="1"/><rect x="145" y="31" width="1" height="1"/><rect width="6" height="1" x="146" y="31"/><rect x="152" y="31" width="1" height="3"/><rect x="153" y="31" width="1" height="1"/><rect x="6" y="32" width="1" height="1"/><rect x="7" y="32" width="1" height="1"/><rect x="8" y="32" width="1" height="1"/><rect x="9" y="32" width="3" height="1"/><rect y="32" width="1" height="1" x="12"/><rect width="1" height="1" x="13" y="32"/><rect height="1" x="14" y="32" width="1"/><rect x="15" y="32" width="1" height="1"/><rect height="1" x="16" y="32" width="1"/><rect x="17" y="32" width="8" height="1"/><rect x="25" y="32" width="1" height="1"/><rect x="26" y="32" width="1" height="1"/><rect y="32" width="1" height="1" x="34"/><rect y="32" width="1" height="1" x="35"/><rect x="36" y="32" width="22" height="1"/><rect x="58" y="32" width="1" height="1"/><rect x="59" y="32" width="1" height="1"/><rect x="60" y="32" width="1" height="1"/><rect height="1" x="104" y="32" width="1"/><rect x="122" y="32" width="1" height="1"/><rect width="1" height="1" x="123" y="32"/><rect x="124" y="32" width="6" height="1"/><rect x="130" y="32" width="1" height="1"/><rect x="131" y="32" width="1" height="1"/><rect height="1" x="146" y="32" width="1"/><rect x="147" y="32" width="1" height="1"/><rect y="32" width="5" height="1" x="148"/><rect x="153" y="32" width="1" height="3"/><rect x="154" y="32" width="1" height="1"/><rect x="155" y="32" width="1" height="1"/><rect height="1" x="6" y="33" width="18"/><rect x="24" y="33" width="1" height="1"/><rect y="33" width="1" height="1" x="25"/><rect x="35" y="33" width="1" height="1"/><rect x="36" y="33" width="1" height="1"/><rect x="37" y="33" width="20" height="1"/><rect x="57" y="33" width="1" height="1"/><rect height="1" x="58" y="33" width="1"/><rect x="59" y="33" width="1" height="1"/><rect x="104" y="33" width="1" height="1"/><rect x="121" y="33" width="1" height="1"/><rect x="122" y="33" width="1" height="1"/><rect y="33" width="5" height="1" x="123"/><rect height="1" x="128" y="33" width="1"/><rect y="33" width="1" height="1" x="129"/><rect x="130" y="33" width="1" height="1"/><rect height="1" x="147" y="33" width="1"/><rect width="1" height="1" x="148" y="33"/><rect x="149" y="33" width="6" height="1"/><rect x="155" y="33" width="1" height="3"/><rect x="156" y="33" width="1" height="1"/><rect y="34" width="17" height="1" x="6"/><rect width="1" height="1" x="23" y="34"/><rect x="24" y="34" width="1" height="1"/><rect x="36" y="34" width="1" height="1"/><rect width="1" height="1" x="37" y="34"/><rect height="1" x="38" y="34" width="18"/><rect x="56" y="34" width="1" height="1"/><rect height="1" x="57" y="34" width="1"/><rect height="1" x="58" y="34" width="1"/><rect x="104" y="34" width="1" height="1"/><rect y="34" width="1" height="1" x="121"/><rect x="122" y="34" width="5" height="1"/><rect x="127" y="34" width="1" height="1"/><rect x="128" y="34" width="1" height="1"/><rect height="1" x="129" y="34" width="1"/><rect height="1" x="149" y="34" width="1"/><rect height="1" x="150" y="34" width="1"/><rect y="34" width="5" height="1" x="151"/><rect height="2" x="156" y="34" width="1"/><rect y="35" width="1" height="1"/><rect x="6" y="35" width="16" height="1"/><rect width="1" height="1" x="22" y="35"/><rect x="23" y="35" width="1" height="1"/><rect width="1" height="1" x="24" y="35"/><rect x="38" y="35" width="1" height="1"/><rect x="39" y="35" width="1" height="1"/><rect x="40" y="35" width="14" height="1"/><rect width="1" height="1" x="54" y="35"/><rect x="55" y="35" width="1" height="1"/><rect y="35" width="1" height="1" x="56"/><rect width="1" height="1" x="67" y="35"/><rect x="74" y="35" width="1" height="1"/><rect x="97" y="35" width="1" height="1"/><rect x="103" y="35" width="1" height="1"/><rect x="104" y="35" width="1" height="1"/><rect y="35" width="1" height="1" x="121"/><rect height="1" x="122" y="35" width="3"/><rect x="125" y="35" width="1" height="1"/><rect x="126" y="35" width="1" height="1"/><rect x="127" y="35" width="1" height="1"/><rect x="150" y="35" width="1" height="1"/><rect x="151" y="35" width="1" height="1"/><rect x="152" y="35" width="1" height="1"/><rect height="1" x="153" y="35" width="2"/><rect y="36" width="20" height="1"/><rect x="20" y="36" width="1" height="1"/><rect y="36" width="1" height="1" x="21"/><rect width="1" height="1" x="22" y="36"/><rect x="39" y="36" width="1" height="1"/><rect x="40" y="36" width="1" height="1"/><rect y="36" width="1" height="1" x="41"/><rect width="10" height="1" x="42" y="36"/><rect height="1" x="52" y="36" width="1"/><rect x="53" y="36" width="1" height="1"/><rect x="54" y="36" width="1" height="1"/><rect x="55" y="36" width="1" height="1"/><rect x="67" y="36" width="1" height="1"/><rect x="68" y="36" width="5" height="1"/><rect x="73" y="36" width="1" height="1"/><rect height="1" x="74" y="36" width="1"/><rect x="97" y="36" width="1" height="1"/><rect y="36" width="4" height="1" x="98"/><rect height="1" x="102" y="36" width="1"/><rect x="103" y="36" width="1" height="1"/><rect x="104" y="36" width="1" height="1"/><rect x="121" y="36" width="1" height="1"/><rect height="1" x="122" y="36" width="1"/><rect x="123" y="36" width="1" height="1"/><rect height="1" x="124" y="36" width="1"/><rect x="125" y="36" width="1" height="1"/><rect x="152" y="36" width="1" height="1"/><rect width="1" height="1" x="153" y="36"/><rect x="154" y="36" width="1" height="1"/><rect x="155" y="36" width="1" height="1"/><rect y="36" width="1" height="1" x="156"/><rect y="37" width="1" height="1"/><rect x="1" y="37" width="1" height="1"/><rect y="37" width="13" height="1" x="2"/><rect height="1" x="15" y="37" width="1"/><rect x="16" y="37" width="1" height="1"/><rect x="17" y="37" width="1" height="1"/><rect height="1" x="18" y="37" width="1"/><rect x="19" y="37" width="1" height="1"/><rect x="20" y="37" width="1" height="1"/><rect y="37" width="1" height="1" x="21"/><rect x="42" y="37" width="1" height="1"/><rect x="43" y="37" width="1" height="1"/><rect x="44" y="37" width="1" height="1"/><rect x="45" y="37" width="1" height="1"/><rect x="46" y="37" width="1" height="1"/><rect x="47" y="37" width="1" height="1"/><rect x="48" y="37" width="1" height="1"/><rect x="49" y="37" width="1" height="1"/><rect y="37" width="1" height="1" x="50"/><rect x="51" y="37" width="1" height="1"/><rect x="52" y="37" width="1" height="1"/><rect x="67" y="37" width="1" height="1"/><rect height="1" x="68" y="37" width="1"/><rect x="69" y="37" width="1" height="1"/><rect x="70" y="37" width="2" height="1"/><rect height="1" x="72" y="37" width="1"/><rect x="73" y="37" width="1" height="1"/><rect width="1" height="1" x="74" y="37"/><rect x="97" y="37" width="1" height="1"/><rect height="1" x="98" y="37" width="1"/><rect x="99" y="37" width="1" height="1"/><rect x="100" y="37" width="1" height="1"/><rect width="1" height="1" x="101" y="37"/><rect y="37" width="1" height="1" x="102"/><rect height="1" x="103" y="37" width="1"/><rect x="120" y="37" width="1" height="1"/><rect height="1" x="121" y="37" width="1"/><rect height="1" x="122" y="37" width="1"/><rect x="123" y="37" width="1" height="1"/><rect y="37" width="1" height="1" x="154"/><rect x="155" y="37" width="1" height="1"/><rect x="156" y="37" width="1" height="1"/><rect y="38" width="1" height="1"/><rect height="1" x="1" y="38" width="1"/><rect width="14" height="1" x="2" y="38"/><rect x="16" y="38" width="1" height="1"/><rect width="1" height="1" x="17" y="38"/><rect x="18" y="38" width="1" height="1"/><rect x="19" y="38" width="1" height="1"/><rect x="20" y="38" width="1" height="1"/><rect width="1" height="1" x="43" y="38"/><rect x="44" y="38" width="1" height="1"/><rect x="45" y="38" width="1" height="1"/><rect x="46" y="38" width="1" height="1"/><rect width="1" height="1" x="47" y="38"/><rect height="1" x="48" y="38" width="1"/><rect y="38" width="1" height="1" x="49"/><rect x="50" y="38" width="1" height="1"/><rect x="51" y="38" width="1" height="1"/><rect y="38" width="1" height="1" x="67"/><rect x="68" y="38" width="1" height="1"/><rect x="69" y="38" width="1" height="1"/><rect x="70" y="38" width="2" height="1"/><rect x="72" y="38" width="1" height="1"/><rect x="73" y="38" width="1" height="1"/><rect x="74" y="38" width="1" height="1"/><rect x="97" y="38" width="1" height="1"/><rect x="98" y="38" width="1" height="1"/><rect height="1" x="99" y="38" width="1"/><rect x="100" y="38" width="1" height="1"/><rect width="1" height="1" x="101" y="38"/><rect x="102" y="38" width="1" height="1"/><rect x="120" y="38" width="1" height="1"/><rect x="121" y="38" width="1" height="1"/><rect height="1" x="122" y="38" width="1"/><rect x="155" y="38" width="1" height="1"/><rect x="156" y="38" width="1" height="1"/></g></svg>