<svg xmlns="http://www.w3.org/2000/svg" xmlns:xlink="http://www.w3.org/1999/xlink" viewBox="0 0 66.286 49.286" fill="#fff" fill-rule="evenodd" stroke="#000" stroke-linecap="round" stroke-linejoin="round"><use xlink:href="#A" x="1.143" y="1.143"/><symbol id="A" overflow="visible"><g stroke="none" fill-rule="nonzero"><path d="M17.211 22.389c-.03-.03-.057-.087-.057-.114l1.387-1.013c1.561-1.211 2.487-2.834 2.805-4.773.347-2.08.29-4.194.114-6.276-.206-2.487-.983-4.859-2.834-6.709C16.514 1.333 13.883.382 10.905.208H0c.375.405.261.896.261 1.36v42.889l.087 2.372 11.047-.144c5.408-.404 8.823-3.413 9.833-8.617.578-2.978.462-6.016.206-8.994-.229-2.891-1.504-5.257-4.194-6.681zm-2.199 13.714c-.457 2.606-2.08 3.904-4.887 3.991-.983.03-1.938-.03-2.921.03-.521.03-.608-.174-.608-.636V25.865c0-.549.114-.722.695-.722 1.189.03 1.189 0 1.189-1.157v-4.046c0-.492-.087-.695-.636-.695-1.211.03-1.211 0-1.211-1.211V7.131c0-.548.114-.754.695-.722 1.33.087 2.69-.057 4.023.174 1.879.32 3.095 1.417 3.589 3.239.549 2.112.491 4.251-.114 6.331-.462 1.591-1.531 2.606-3.209 2.864-.521.087-.695.29-.663.809v4.773c0 .405.057.608.521.695 2.025.348 3.239 1.591 3.557 3.616.404 2.457.404 4.86 0 7.2z" fill="#074354"/><path d="M60.924 14.811l.608-.457c1.209-.786 2.028-2.046 2.256-3.47.198-1.282.236-2.583.114-3.874C63.497 2.558 60.78.098 56.325.039c-2.025-.03-4.046.03-6.043-.03-.635 0-.782.174-.782.782l.03 15.936v13.68c0 .375-.087.754.521.722l7.314-.114c3.355-.29 5.582-2.226 6.304-5.525.347-1.591.32-3.209.29-4.83-.114-2.4-.608-4.626-3.04-5.87zm-6.999-2.629V4.811c0-.404.114-.578.549-.548l2.057.03c1.678.114 2.661.955 3.008 2.606.229 1.097.229 2.171-.03 3.269-.347 1.765-1.188 2.487-3.04 2.629-.695.057-1.387 0-2.057.03-.405.03-.549-.144-.492-.521zm5.611 11.742c-.261 1.737-1.33 2.629-3.268 2.747l-1.792.03c-.462.03-.578-.144-.578-.608v-4.395l-.03-4.251c-.03-.608.229-.782.754-.722.782.057 1.531-.03 2.313.114 1.474.229 2.343 1.013 2.574 2.487a14.42 14.42 0 0 1 .03 4.599zM45.221 6.914C44.992 2.807 42.3.206 38.249.057c-2.226-.087-4.425 0-6.629-.057-.578 0-.754.144-.754.722v29.673c0 .375-.057.722.549.722l7.259-.114c3.497-.29 5.842-2.457 6.4-5.929.375-2.313.229-4.686.229-6.999l-.057-11.163zm-4.395 15.817c0 .754-.057 1.504-.261 2.226-.29 1.04-.983 1.646-2.025 1.879-.926.174-1.879.114-2.834.114-.549 0-.375-.457-.375-.722V15.531l-.03-10.528c0-.635.174-.809.782-.754.549.057 1.097 0 1.646.03 1.764.057 2.743.896 2.978 2.629l.114 1.474z" fill="#04c594"/></g></symbol></svg>