<?xml version="1.0" encoding="UTF-8"?>
<svg width="404px" height="79px" viewBox="0 0 404 79" version="1.1" xmlns="http://www.w3.org/2000/svg" xmlns:xlink="http://www.w3.org/1999/xlink">
    <!-- Generator: Sketch 49.2 (51160) - http://www.bohemiancoding.com/sketch -->
    <title>Artboard</title>
    <desc>Created with Sketch.</desc>
    <defs>
        <polygon id="path-1" points="0 79 403.255 79 403.255 0.866 0 0.866"></polygon>
    </defs>
    <g id="Artboard" stroke="none" stroke-width="1" fill="none" fill-rule="evenodd">
        <g id="Page-1" transform="translate(0.000000, -1.000000)">
            <path d="M38.5587,20.2783 L19.2787,20.2783 L19.2787,39.5563 L-0.0003,39.5563 L-0.0003,58.8353 L-0.0003,78.1133 L19.2787,78.1133 L38.5587,78.1133 L57.8377,78.1123 L57.8377,58.8343 L57.8377,39.5563 L57.8377,20.2783 L38.5587,20.2783 Z M38.5587,39.5563 L38.5587,49.5563 L38.5587,58.8343 L28.5587,58.8343 L19.2787,58.8353 L19.2787,48.8343 L19.2787,39.5563 L38.5587,39.5563 Z" id="Fill-1" fill="#EABD26"></path>
            <polygon id="Fill-2" fill="#EABD26" points="0 20.2788 19.279 20.2788 19.279 1.0008 0 1.0008"></polygon>
            <g id="Group-12" transform="translate(0.000000, 0.133800)">
                <path d="M119.2786,68.9639 C126.9326,68.9639 129.7406,66.7529 129.7406,61.0539 C129.7406,55.1859 126.7626,53.0599 118.2576,53.0599 L106.7756,53.0599 L106.7756,68.9639 L119.2786,68.9639 Z M117.9186,44.0439 C125.3176,44.0439 127.9546,42.0869 127.9546,36.5599 C127.9546,31.1159 125.3176,29.1589 118.2576,29.1589 L106.7756,29.1589 L106.7756,44.0439 L117.9186,44.0439 Z M96.3996,20.1439 L119.1936,20.1439 C132.2916,20.1439 138.2456,24.8219 138.2456,35.1979 C138.2456,41.5769 135.9486,45.5749 130.5056,47.5299 L130.5056,47.6999 C137.3096,49.7419 140.1166,54.2499 140.1166,61.8189 C140.1166,72.9619 134.1626,77.9799 120.9796,77.9799 L96.3996,77.9799 L96.3996,20.1439 Z" id="Fill-3" fill="#898B8B"></path>
                <mask id="mask-2" fill="white">
                    <use xlink:href="#path-1"></use>
                </mask>
                <g id="Clip-6"></g>
                <polygon id="Fill-5" fill="#898B8B" mask="url(#mask-2)" points="149.47 77.98 159.846 77.98 159.846 20.144 149.47 20.144"></polygon>
                <polygon id="Fill-7" fill="#898B8B" mask="url(#mask-2)" points="182.468 29.415 166.223 29.415 166.223 20.144 209.089 20.144 209.089 29.415 192.844 29.415 192.844 77.979 182.468 77.979"></polygon>
                <polygon id="Fill-8" fill="#898B8B" mask="url(#mask-2)" points="215.4656 20.1436 253.5696 20.1436 253.5696 29.2456 225.8426 29.2456 225.8426 44.2136 249.3176 44.2136 249.3176 53.3146 225.8426 53.3146 225.8426 77.9796 215.4656 77.9796"></polygon>
                <path d="M259.7761,58.7578 L259.7761,20.1438 L270.1531,20.1438 L270.1531,58.5028 C270.1531,66.8368 273.1301,69.8998 281.2101,69.8998 C289.2901,69.8998 292.2661,66.8368 292.2661,58.5028 L292.2661,20.1438 L302.3011,20.1438 L302.3011,58.7578 C302.3011,72.8758 296.0081,78.9998 281.0401,78.9998 C266.1551,78.9998 259.7761,72.8758 259.7761,58.7578" id="Fill-9" fill="#898B8B" mask="url(#mask-2)"></path>
                <path d="M333.5144,46.5947 C340.8284,46.5947 343.3794,44.1277 343.3794,37.9197 C343.3794,31.6257 340.8284,29.2447 333.5144,29.2447 L321.9464,29.2447 L321.9464,46.5947 L333.5144,46.5947 Z M311.5714,20.1437 L334.5344,20.1437 C348.2274,20.1437 353.7564,25.3317 353.7564,37.9197 C353.7564,47.5307 350.4404,52.8037 342.7004,54.7607 L355.9674,77.9797 L344.0614,77.9797 L331.4734,55.6107 L321.9464,55.6107 L321.9464,77.9797 L311.5714,77.9797 L311.5714,20.1437 Z" id="Fill-10" fill="#898B8B" mask="url(#mask-2)"></path>
                <polygon id="Fill-11" fill="#898B8B" mask="url(#mask-2)" points="383.6921 53.3994 383.6921 77.9794 373.3151 77.9794 373.3151 53.5694 353.7531 20.1434 365.6611 20.1434 378.9281 43.1084 392.1121 20.1434 403.2541 20.1434"></polygon>
            </g>
        </g>
    </g>
</svg>