<?xml version="1.0" encoding="utf-8"?>
<!-- Generator: Adobe Illustrator 23.0.2, SVG Export Plug-In . SVG Version: 6.00 Build 0)  -->
<svg version="1.1" id="Layer_1" xmlns="http://www.w3.org/2000/svg" xmlns:xlink="http://www.w3.org/1999/xlink" x="0px" y="0px"
	 viewBox="0 0 400 245" style="enable-background:new 0 0 400 245;" xml:space="preserve">
<style type="text/css">
	.st0{fill-rule:evenodd;clip-rule:evenodd;fill:#EC1C24;}
	.st1{fill-rule:evenodd;clip-rule:evenodd;fill:#231F20;}
	.st2{fill:#434343;}
	.st3{fill:#898989;}
	.st4{fill:url(#SVGID_1_);}
	.st5{fill:url(#SVGID_2_);}
	.st6{fill:#B36E01;}
	.st7{fill:url(#SVGID_3_);}
	.st8{fill:url(#SVGID_4_);}
	.st9{fill:url(#SVGID_5_);}
	.st10{fill:#FAF8D5;}
	.st11{fill:#313130;}
	.st12{fill:#86C440;stroke:#58B847;stroke-width:1.5531;stroke-miterlimit:10;}
	.st13{fill:#D1DD26;}
	.st14{fill:#352E29;}
	.st15{fill:#86C440;stroke:#58B847;stroke-width:0.6761;}
	.st16{fill:#231916;}
	.st17{fill:#E50013;}
	.st18{fill:#3E608B;}
	.st19{fill:#6E9C3A;}
	.st20{fill:#3693C3;}
	.st21{fill:#0B8B5D;}
	.st22{fill:#E1903D;}
	.st23{fill:#58749B;}
	.st24{fill:#0066A4;}
	.st25{fill:#402210;}
	.st26{clip-path:url(#SVGID_7_);fill:url(#SVGID_8_);}
	.st27{fill:#FFFFFF;}
	.st28{fill:#6A2811;}
	.st29{fill:#1EBAD6;}
	.st30{fill:#161629;}
	.st31{fill:#C0C0C8;}
	.st32{opacity:0.9;}
	.st33{fill-rule:evenodd;clip-rule:evenodd;fill:#295C82;}
	.st34{fill-rule:evenodd;clip-rule:evenodd;fill:#193A53;}
	.st35{fill-rule:evenodd;clip-rule:evenodd;fill:url(#SVGID_9_);}
	.st36{fill-rule:evenodd;clip-rule:evenodd;fill:url(#SVGID_10_);}
	.st37{fill-rule:evenodd;clip-rule:evenodd;fill:url(#SVGID_11_);}
	.st38{fill-rule:evenodd;clip-rule:evenodd;fill:url(#SVGID_12_);}
	.st39{fill-rule:evenodd;clip-rule:evenodd;fill:url(#SVGID_13_);}
	.st40{fill:#EC1C24;}
	.st41{fill:#231F20;}
	.st42{fill-rule:evenodd;clip-rule:evenodd;fill:#ED1C24;}
	.st43{fill-rule:evenodd;clip-rule:evenodd;fill:#C3C1C4;}
	.st44{fill:#ED1C24;}
	.st45{fill:#E11F26;}
	.st46{fill:#CECDCF;}
	.st47{fill:#19171B;}
	.st48{fill:#E49C23;}
	.st49{fill:#3E3A39;}
	.st50{enable-background:new    ;}
	.st51{fill:#EB6224;}
	.st52{fill:#4D4E4E;}
	.st53{fill:#217CB9;}
	.st54{fill:#58595B;}
	.st55{fill:#B38634;}
	.st56{fill:#A7A9AC;}
	.st57{fill:#A89A75;}
	.st58{fill:#2ED8CB;}
	.st59{fill:none;}
	.st60{fill:#65B1B8;}
	.st61{fill:#61D8D3;}
	.st62{fill:#79E0FA;}
	.st63{fill:#666766;}
	.st64{fill:url(#SVGID_14_);}
	.st65{fill:url(#SVGID_15_);}
	.st66{fill:url(#SVGID_16_);}
	.st67{fill:url(#SVGID_17_);}
	.st68{fill:url(#SVGID_18_);}
	.st69{fill:url(#SVGID_19_);}
	.st70{fill:url(#SVGID_20_);}
	.st71{fill:url(#SVGID_21_);}
	.st72{fill:url(#SVGID_22_);}
	.st73{fill:url(#SVGID_23_);}
	.st74{fill:url(#SVGID_24_);}
	.st75{fill:url(#SVGID_25_);}
	.st76{fill:url(#SVGID_26_);}
	.st77{fill:url(#SVGID_27_);}
	.st78{opacity:0.79;fill:#A3A5A8;enable-background:new    ;}
	.st79{fill:#86888B;}
	.st80{fill:#D2232A;}
	.st81{fill:#00478A;}
	.st82{fill:#009FE8;}
	.st83{fill:#005BAB;}
	.st84{fill-rule:evenodd;clip-rule:evenodd;fill:none;}
	.st85{fill-rule:evenodd;clip-rule:evenodd;}
	.st86{fill:#FF9900;}
	.st87{fill:#666666;}
</style>
<g>
	<ellipse class="st84" cx="47.33" cy="122.64" rx="40.67" ry="40.63"/>
	<g>
		<path class="st85" d="M47.33,76.7c-25.28,0-45.84,20.55-45.84,45.8s20.56,45.8,45.84,45.8c25.28,0,45.84-20.55,45.84-45.8
			S72.61,76.7,47.33,76.7z M47.33,163.13c-22.42,0-40.67-18.23-40.67-40.63s18.24-40.63,40.67-40.63C69.75,81.87,88,100.09,88,122.5
			S69.75,163.13,47.33,163.13z"/>
		<path d="M60.81,121.66c2.33-2.33,3.77-5.54,3.77-9.09c0-6.31-4.56-11.55-10.56-12.63c-0.74-0.13-1.5-0.21-2.28-0.21H41.18v-0.04
			h-5.71v30.37H27.8v4.99h7.67v10.31h2.85v0.04h15.7v-0.01c7.03-0.08,12.84-5.79,12.84-12.84
			C66.86,127.95,64.44,123.93,60.81,121.66z M41.18,105.43h10.56c3.94,0,7.14,3.19,7.14,7.14c0,3.89-3.12,7.05-6.99,7.13l-10.7,0
			V105.43z M54.02,139.68L54.02,139.68L54.02,139.68L54.02,139.68H41.18v-4.64h7.95v-4.99l-7.95,0v-4.65h10.56h2.28l0,0l0,0
			c3.94,0,7.14,3.19,7.14,7.14S57.96,139.68,54.02,139.68z"/>
	</g>
	<g>
		<g>
			<g>
				<polygon points="398.51,99.73 391.75,99.72 388.35,104.97 380.36,117.31 376.96,122.56 380.36,127.81 388.35,140.14 
					391.75,145.39 398.51,145.39 383.76,122.56 				"/>
			</g>
			<rect x="366.73" y="99.73" width="5.71" height="45.67"/>
			<rect x="372.44" y="119.7" width="9.23" height="5.71"/>
		</g>
		<path d="M296.25,99.69h-5.65l-0.02,0.04l-17.28,45.67h6.2L296.25,99.69z M307.32,145.35h6.2l-17.28-45.67l-0.02-0.04h-5.65
			L307.32,145.35z M313.54,145.39L313.54,145.39 M300.06,125.51l-13.27,0l-2.09,5.71h17.36L300.06,125.51z"/>
		<path d="M141.46,121.66c2.33-2.33,3.77-5.54,3.77-9.09c0-6.31-4.56-11.55-10.56-12.63c-0.74-0.13-1.5-0.21-2.28-0.21h-10.56v-0.04
			h-5.71v45.67h2.85v0.04h15.7v-0.01c7.03-0.08,12.84-5.79,12.84-12.84C147.51,127.95,145.09,123.93,141.46,121.66z M121.82,105.43
			h10.56c3.94,0,7.14,3.19,7.14,7.14c0,3.89-3.12,7.05-6.99,7.13h-10.71V105.43z M134.67,125.41L134.67,125.41
			c3.94,0,7.14,3.19,7.14,7.14c0,3.94-3.19,7.14-7.14,7.14h0v0.01v-0.01h-12.84v-14.27h10.56H134.67L134.67,125.41z"/>
		<g>
			<rect id="XMLID_27_" x="192.03" y="99.72" width="5.71" height="45.67"/>
			
				<rect id="XMLID_26_" x="192.22" y="86.68" transform="matrix(6.123234e-17 -1 1 6.123234e-17 92.4995 297.6578)" width="5.71" height="31.81"/>
		</g>
		<rect id="XMLID_25_" x="161.01" y="99.72" width="5.71" height="45.67"/>
		<g>
			<path d="M327.89,105.47h10.56c3.94,0,7.14,3.19,7.14,7.14h5.71c0-6.31-4.56-11.55-10.56-12.63c-0.74-0.13-1.5-0.21-2.28-0.21
				h-10.56V105.47z M327.89,125.45h10.56c0.78,0,1.54-0.08,2.28-0.21c6-1.08,10.56-6.32,10.56-12.63h-5.71
				c0,3.94-3.19,7.14-7.14,7.14h-10.56V125.45z M329.94,99.76v-0.04l-5.71,0v45.67h2.85h2.85v-5.67v-14.27V99.72V99.76z"/>
			<g>
				<polygon points="341.99,123.65 336.34,125.42 337.89,127.81 345.88,140.15 349.28,145.4 356.04,145.4 				"/>
			</g>
		</g>
		<g>
			<polygon points="242.44,132.32 256.9,110.18 256.9,145.35 262.61,145.35 262.61,99.69 256.98,99.69 256.92,99.65 242.44,122 
				228.07,99.74 228.07,99.69 222.36,99.69 222.36,145.35 228.07,145.35 228.07,110.23 			"/>
		</g>
	</g>
</g>
</svg>
