<?xml version="1.0" encoding="utf-8"?>
<!-- Generator: Adobe Illustrator 23.0.2, SVG Export Plug-In . SVG Version: 6.00 Build 0)  -->
<svg version="1.1" id="Layer_1" xmlns="http://www.w3.org/2000/svg" xmlns:xlink="http://www.w3.org/1999/xlink" x="0px" y="0px"
	 viewBox="0 0 400 245" style="enable-background:new 0 0 400 245;" xml:space="preserve">
<style type="text/css">
	.st0{fill-rule:evenodd;clip-rule:evenodd;fill:#EC1C24;}
	.st1{fill-rule:evenodd;clip-rule:evenodd;fill:#231F20;}
	.st2{fill:#434343;}
	.st3{fill:#898989;}
	.st4{fill:url(#SVGID_1_);}
	.st5{fill:url(#SVGID_2_);}
	.st6{fill:#B36E01;}
	.st7{fill:url(#SVGID_3_);}
	.st8{fill:url(#SVGID_4_);}
	.st9{fill:url(#SVGID_5_);}
	.st10{fill:#FAF8D5;}
	.st11{fill:#313130;}
	.st12{fill:#86C440;stroke:#58B847;stroke-width:1.5531;stroke-miterlimit:10;}
	.st13{fill:#D1DD26;}
	.st14{fill:#352E29;}
	.st15{fill:#86C440;stroke:#58B847;stroke-width:0.6761;}
	.st16{fill:#231916;}
	.st17{fill:#E50013;}
	.st18{fill:#3E608B;}
	.st19{fill:#6E9C3A;}
	.st20{fill:#3693C3;}
	.st21{fill:#0B8B5D;}
	.st22{fill:#E1903D;}
	.st23{fill:#58749B;}
	.st24{fill:#0066A4;}
	.st25{fill:#402210;}
	.st26{clip-path:url(#SVGID_7_);fill:url(#SVGID_8_);}
	.st27{fill:#FFFFFF;}
	.st28{fill:#6A2811;}
	.st29{fill:#1EBAD6;}
	.st30{fill:#161629;}
	.st31{fill:#C0C0C8;}
	.st32{opacity:0.9;}
	.st33{fill-rule:evenodd;clip-rule:evenodd;fill:#295C82;}
	.st34{fill-rule:evenodd;clip-rule:evenodd;fill:#193A53;}
	.st35{fill-rule:evenodd;clip-rule:evenodd;fill:url(#SVGID_9_);}
	.st36{fill-rule:evenodd;clip-rule:evenodd;fill:url(#SVGID_10_);}
	.st37{fill-rule:evenodd;clip-rule:evenodd;fill:url(#SVGID_11_);}
	.st38{fill-rule:evenodd;clip-rule:evenodd;fill:url(#SVGID_12_);}
	.st39{fill-rule:evenodd;clip-rule:evenodd;fill:url(#SVGID_13_);}
	.st40{fill:#EC1C24;}
	.st41{fill:#231F20;}
	.st42{fill-rule:evenodd;clip-rule:evenodd;fill:#ED1C24;}
	.st43{fill-rule:evenodd;clip-rule:evenodd;fill:#C3C1C4;}
	.st44{fill:#ED1C24;}
	.st45{fill:#E11F26;}
	.st46{fill:#CECDCF;}
	.st47{fill:#19171B;}
	.st48{fill:#E49C23;}
	.st49{fill:#3E3A39;}
	.st50{enable-background:new    ;}
	.st51{fill:#EB6224;}
	.st52{fill:#4D4E4E;}
	.st53{fill:#217CB9;}
	.st54{fill:#58595B;}
	.st55{fill:#B38634;}
	.st56{fill:#A7A9AC;}
	.st57{fill:#A89A75;}
	.st58{fill:#2ED8CB;}
	.st59{fill:none;}
	.st60{fill:#65B1B8;}
	.st61{fill:#61D8D3;}
	.st62{fill:#79E0FA;}
	.st63{fill:#666766;}
	.st64{fill:url(#SVGID_14_);}
	.st65{fill:url(#SVGID_15_);}
	.st66{fill:url(#SVGID_16_);}
	.st67{fill:url(#SVGID_17_);}
	.st68{fill:url(#SVGID_18_);}
	.st69{fill:url(#SVGID_19_);}
	.st70{fill:url(#SVGID_20_);}
	.st71{fill:url(#SVGID_21_);}
	.st72{fill:url(#SVGID_22_);}
	.st73{fill:url(#SVGID_23_);}
	.st74{fill:url(#SVGID_24_);}
	.st75{fill:url(#SVGID_25_);}
	.st76{fill:url(#SVGID_26_);}
	.st77{fill:url(#SVGID_27_);}
	.st78{opacity:0.79;fill:#A3A5A8;enable-background:new    ;}
	.st79{fill:#86888B;}
	.st80{fill:#D2232A;}
	.st81{fill:#00478A;}
	.st82{fill:#009FE8;}
	.st83{fill:#005BAB;}
	.st84{fill-rule:evenodd;clip-rule:evenodd;fill:none;}
	.st85{fill-rule:evenodd;clip-rule:evenodd;}
	.st86{fill:#FF9900;}
	.st87{fill:#666666;}
</style>
<g>
	<g>
		<path class="st45" d="M85.01,145.16c-18.1-3.81-34.7-1.91-43.14,4.08l53.34-52.12l27.76,69.13
			C117.4,157.41,102.97,148.97,85.01,145.16z"/>
	</g>
	<g>
		<path class="st46" d="M39.15,145.16c18.1-3.81,34.7-1.91,43.14,4.08L29.08,97.12L1.32,166.25
			C6.76,157.41,21.19,148.97,39.15,145.16z"/>
	</g>
	<g>
		<path class="st47" d="M62.69,129.64c18.37,0,34.29,5.31,41.37,12.93L62.69,80.52l-41.37,62.05
			C28.4,134.95,44.32,129.64,62.69,129.64z"/>
	</g>
	<g>
		<path class="st47" d="M140.4,81.06c2.04-0.41,6.4-0.68,10.34-0.68c4.9,0,7.89,0.41,10.48,2.04c2.45,1.36,4.22,3.67,4.22,6.94
			c0,3.13-1.91,6.12-5.85,7.62v0.14c4.08,1.09,7.08,4.22,7.08,8.71c0,3.27-1.5,5.72-3.67,7.48c-2.59,2.04-6.94,3.27-13.88,3.27
			c-3.95,0-6.94-0.27-8.71-0.54C140.4,116.04,140.4,81.06,140.4,81.06z M148.29,94.67h2.59c4.22,0,6.53-1.77,6.53-4.35
			c0-2.72-2.04-4.08-5.72-4.08c-1.77,0-2.72,0.14-3.4,0.27C148.29,86.51,148.29,94.67,148.29,94.67z M148.29,110.32
			c0.82,0.14,1.77,0.14,3.13,0.14c3.67,0,6.8-1.36,6.8-5.04c0-3.54-3.27-5.04-7.21-5.04h-2.72V110.32z"/>
		<path class="st47" d="M171.83,78.75h8.03v37.29h-8.03C171.83,116.04,171.83,78.75,171.83,78.75z"/>
		<path class="st47" d="M200.95,116.04l-0.41-2.59h-0.14c-1.63,2.04-4.35,3.13-7.35,3.13c-5.17,0-8.3-3.81-8.3-7.89
			c0-6.67,5.99-9.93,15.11-9.8v-0.41c0-1.36-0.68-3.27-4.63-3.27c-2.59,0-5.44,0.95-7.08,1.91l-1.77-5.04
			c1.77-0.95,5.31-2.31,9.93-2.31c8.57,0,11.29,5.04,11.29,11.02v8.98c0,2.45,0.14,4.9,0.41,6.26H200.95z M200,103.92
			c-4.22,0-7.48,0.95-7.48,4.08c0,2.04,1.36,2.99,3.13,2.99c2.04,0,3.67-1.36,4.22-2.99c0.14-0.41,0.14-0.95,0.14-1.36L200,103.92
			L200,103.92z"/>
		<path class="st47" d="M233.34,115.49c-1.36,0.68-4.08,1.09-7.21,1.09c-8.3,0-13.61-5.04-13.61-13.2c0-7.48,5.17-13.61,14.7-13.61
			c2.04,0,4.35,0.41,6.12,0.95l-1.22,5.99c-0.95-0.41-2.31-0.82-4.49-0.82c-4.22,0-6.94,2.99-6.94,7.21c0,4.76,3.13,7.21,7.08,7.21
			c1.91,0,3.4-0.27,4.63-0.82L233.34,115.49z"/>
		<path class="st47" d="M245.72,101.2L245.72,101.2c0.68-1.09,1.36-2.04,1.91-3.13l5.17-7.76h9.66l-9.25,10.34l10.48,15.24h-9.8
			l-6.26-10.61l-2.04,2.59v8.03h-8.03V78.75h8.03v22.45H245.72z"/>
		<path class="st47" d="M266.55,81.06c2.59-0.41,6.4-0.68,10.61-0.68c5.31,0,8.98,0.82,11.43,2.72c2.04,1.63,3.27,4.22,3.27,7.35
			c0,4.49-3.27,7.62-6.26,8.71v0.14c2.45,0.95,3.81,3.4,4.76,6.67c1.09,3.95,2.18,8.57,2.86,9.93h-8.17
			c-0.54-0.95-1.36-3.95-2.45-8.3c-0.95-4.35-2.45-5.58-5.72-5.72h-2.45v13.88h-7.89L266.55,81.06L266.55,81.06z M274.44,96.3h3.13
			c3.95,0,6.4-2.04,6.4-5.04c0-3.27-2.18-4.9-5.85-4.9c-1.91,0-2.99,0.14-3.67,0.27V96.3z"/>
		<path class="st47" d="M306.15,83.24c0,2.18-1.63,3.95-4.35,3.95c-2.59,0-4.22-1.77-4.22-3.95c0-2.31,1.63-4.08,4.22-4.08
			C304.38,79.16,306.15,80.93,306.15,83.24z M297.84,116.04V90.32h8.03v25.72H297.84z"/>
		<path class="st47" d="M337.17,78.75v29.67c0,2.86,0.14,5.99,0.27,7.62h-7.08l-0.41-3.81h-0.14c-1.63,2.86-4.76,4.35-8.03,4.35
			c-6.12,0-11.02-5.17-11.02-13.2c0-8.71,5.31-13.61,11.57-13.61c3.13,0,5.58,1.09,6.8,2.86h0.14V78.75H337.17z M329.28,101.2
			c0-0.41,0-0.95-0.14-1.36c-0.41-2.18-2.18-3.95-4.63-3.95c-3.67,0-5.58,3.27-5.58,7.35c0,4.35,2.18,7.08,5.44,7.08
			c2.31,0,4.22-1.63,4.63-3.81c0.14-0.54,0.27-1.09,0.27-1.91L329.28,101.2L329.28,101.2z"/>
		<path class="st47" d="M368.2,90.32c-0.14,1.63-0.27,3.81-0.27,7.62v14.29c0,4.9-0.95,8.98-3.95,11.57
			c-2.86,2.45-6.67,3.13-10.48,3.13c-3.4,0-6.94-0.68-9.25-2.04l1.63-5.99c1.63,0.95,4.49,1.91,7.48,1.91c3.81,0,6.67-2.04,6.67-6.8
			v-1.5h-0.14c-1.5,2.18-3.95,3.4-6.94,3.4c-6.4,0-10.89-5.17-10.89-12.52c0-8.3,5.31-13.47,11.7-13.47c3.54,0,5.72,1.5,7.08,3.67
			h0.14l0.27-2.99h6.94V90.32z M360.03,100.79c0-0.54,0-1.09-0.14-1.5c-0.54-2.04-2.04-3.54-4.35-3.54c-2.86,0-5.31,2.59-5.31,7.35
			c0,3.81,1.91,6.8,5.31,6.8c2.04,0,3.67-1.36,4.22-3.27c0.27-0.54,0.27-1.36,0.27-2.04V100.79z"/>
		<path class="st47" d="M380.58,105.69c0.27,3.27,3.54,4.9,7.21,4.9c2.72,0,4.9-0.41,7.08-1.09l1.09,5.44
			c-2.59,1.09-5.85,1.63-9.25,1.63c-8.71,0-13.74-5.04-13.74-13.06c0-6.53,4.08-13.74,12.93-13.74c8.3,0,11.43,6.53,11.43,12.79
			c0,1.36-0.14,2.59-0.27,3.13C397.05,105.69,380.58,105.69,380.58,105.69z M389.97,100.25c0-1.91-0.82-5.17-4.49-5.17
			c-3.4,0-4.76,2.99-4.9,5.17H389.97z"/>
	</g>
	<g>
		<path class="st45" d="M145.97,135.9h-9.12v-3.27h22.18v3.27h-9.12v26.67h-3.95C145.97,162.58,145.97,135.9,145.97,135.9z"/>
		<path class="st45" d="M177.95,148.56h-11.7v10.89h13.06v3.27h-16.87v-30.07h16.19v3.27h-12.38v9.53h11.7V148.56z"/>
		<path class="st45" d="M205.31,161.62c-1.36,0.68-4.22,1.36-7.89,1.36c-8.44,0-14.83-5.31-14.83-15.24
			c0-9.39,6.4-15.79,15.65-15.79c3.81,0,6.12,0.82,7.08,1.36l-0.95,3.13c-1.5-0.68-3.54-1.22-6.12-1.22
			c-7.08,0-11.7,4.49-11.7,12.38c0,7.35,4.22,12.11,11.57,12.11c2.31,0,4.76-0.54,6.26-1.22L205.31,161.62z"/>
		<path class="st45" d="M214.02,132.64v12.52h14.56v-12.52h3.95v30.07h-3.95v-14.15h-14.56v14.02h-3.81v-29.94H214.02z"/>
		<path class="st45" d="M239.19,162.58v-29.94h4.22l9.66,15.24c2.18,3.54,3.95,6.67,5.44,9.8h0.14c-0.41-3.95-0.41-7.62-0.41-12.38
			v-12.52h3.67v30.07h-3.95l-9.53-15.24c-2.04-3.4-4.08-6.8-5.58-10.07h-0.14c0.27,3.81,0.27,7.35,0.27,12.38v12.79h-3.81V162.58z"
			/>
		<path class="st45" d="M294.17,147.34c0,10.34-6.26,15.79-13.88,15.79c-7.89,0-13.47-6.12-13.47-15.24
			c0-9.53,5.99-15.79,13.88-15.79C288.86,132.09,294.17,138.35,294.17,147.34z M270.9,147.74c0,6.4,3.54,12.11,9.53,12.11
			c6.12,0,9.66-5.72,9.66-12.52c0-5.99-3.13-12.25-9.53-12.25C274.17,135.22,270.9,141.21,270.9,147.74z"/>
		<path class="st45" d="M299.21,132.64h3.81v26.81h12.79v3.27h-16.74v-30.07H299.21z"/>
		<path class="st45" d="M344.25,147.34c0,10.34-6.26,15.79-13.88,15.79c-7.89,0-13.47-6.12-13.47-15.24
			c0-9.53,5.99-15.79,13.88-15.79C338.94,132.09,344.25,138.35,344.25,147.34z M320.98,147.74c0,6.4,3.54,12.11,9.53,12.11
			c6.12,0,9.66-5.72,9.66-12.52c0-5.99-3.13-12.25-9.53-12.25C324.11,135.22,320.98,141.21,320.98,147.74z"/>
		<path class="st45" d="M372.15,161.35c-1.77,0.68-5.17,1.63-9.25,1.63c-4.49,0-8.3-1.22-11.29-3.95
			c-2.59-2.45-4.22-6.53-4.22-11.16c0-8.98,6.26-15.51,16.33-15.51c3.54,0,6.26,0.82,7.48,1.36l-0.95,3.13
			c-1.63-0.68-3.67-1.22-6.67-1.22c-7.35,0-12.11,4.49-12.11,12.11c0,7.62,4.63,12.11,11.57,12.11c2.59,0,4.22-0.41,5.17-0.82v-8.98
			h-6.12v-3.13h9.93v14.42H372.15z"/>
		<path class="st45" d="M384.8,162.58v-12.79l-9.53-17.28h4.35l4.22,8.3c1.22,2.31,2.04,4.08,2.99,6.26h0.14
			c0.82-1.91,1.91-3.95,2.99-6.26l4.35-8.3h4.35l-10.07,17.28v12.79H384.8z"/>
	</g>
</g>
</svg>
