<?xml version="1.0" encoding="utf-8"?>
<!-- Generator: Adobe Illustrator 25.0.1, SVG Export Plug-In . SVG Version: 6.00 Build 0)  -->
<svg version="1.0" id="katman_1" xmlns="http://www.w3.org/2000/svg" xmlns:xlink="http://www.w3.org/1999/xlink" x="0px" y="0px"
	 viewBox="0 0 600 400" style="enable-background:new 0 0 600 400;" xml:space="preserve">
<style type="text/css">
	.st0{fill:#010202;}
</style>
<g>
	<g>
		<g>
			<path class="st0" d="M500.2,182.4c7.6,0,14.6,5.7,14.6,13.7c0,8.6-6.1,14.7-14.6,14.7c-8.5,0-14.6-6.1-14.6-14.7
				C485.5,188,492.5,182.4,500.2,182.4z M237.7,182.4c7.6,0,14.6,5.7,14.6,13.7c0,8.6-6.1,14.7-14.6,14.7c-8.5,0-14.6-6.1-14.6-14.7
				C223.1,188,230.1,182.4,237.7,182.4z M278.7,182.5c2.2,0,4.3,0.5,6.3,1.3l0,0v8.3c-1.4-1.9-3.7-2.9-6-2.9c-4.2,0-7.1,3.2-7.1,7.4
				c0,4.2,2.9,7.2,7.2,7.2c2.2,0,4.5-1.1,5.9-2.8l0,0v8.3c-2.3,0.7-3.9,1.2-6.1,1.2c-3.7,0-7.2-1.4-9.9-3.9
				c-2.9-2.6-4.3-6.1-4.3-10.1c0-3.6,1.4-7.1,3.9-9.7C271.3,184.2,275,182.5,278.7,182.5z M535.4,183.3l12.6,16.3h0.1v-16.3h6.9
				v26.6h-6.9l-12.6-16.3h-0.1v16.3h-6.9v-26.6H535.4z M451.5,183.3l5.4,14.2l5.7-14.2h6.9l4,26.6h-6.9l-1.9-15.3h-0.1l-6.4,15.3
				h-2.7l-6.1-15.3h-0.1l-2.2,15.3h-6.9l4.5-26.6H451.5z M427,183.3v5.9h-8.2v4.4h7.8v5.9h-7.8v4.6h8.2v5.9h-15.1v-26.6H427z
				 M389.3,183.3l10,26.6h-7.3l-1.7-4.6h-9.5l-1.8,4.6h-7.3l10.2-26.6H389.3z M346.7,183.3c7.4,0,13.5,5.8,13.5,13.3
				c0,7.5-6.1,13.3-13.5,13.3l0,0H337v-26.6H346.7z M306.7,183.3v11h0.1l8.3-11h8.5l-10.5,12.6l11.5,14h-8.9l-8.9-11.5h-0.1v11.5
				h-6.9v-26.6H306.7z M203.3,183.3V204h8.3v5.9h-15.1v-26.6H203.3z M172,183.3c4.7,0,7.9,1.8,7.9,6.9c0,2.4-0.8,4.3-2.9,5.4l0,0
				v0.1c3.8,0.5,5.4,3.1,5.4,6.8c0,5.6-4.7,7.4-9.6,7.4l0,0h-10.6v-26.6H172z M175.4,201.8c0-3.2-3.4-2.9-5.7-2.9l0,0H169v5.7l1.5,0
				C172.6,204.6,175.4,204.4,175.4,201.8z M500.2,189.1c-4.1,0-7.5,3.4-7.5,7c0,4.6,3.4,7.9,7.5,7.9c4.1,0,7.5-3.4,7.5-7.9
				C507.6,192.4,504.3,189.1,500.2,189.1z M237.7,189.1c-4.1,0-7.5,3.4-7.5,7c0,4.6,3.4,7.9,7.5,7.9c4.1,0,7.5-3.4,7.5-7.9
				C245.2,192.4,241.8,189.1,237.7,189.1z M345.5,189.1h-1.6V204h1.5c4.1,0,7.6-2.3,7.6-7.5C353,191.8,349.9,189.1,345.5,189.1
				L345.5,189.1z M385.5,191.5L385.5,191.5l-2.9,8.5h5.7L385.5,191.5z M169.5,188.6H169v5.2h0.8c1.8,0,3.7-0.3,3.7-2.6
				C173.5,188.7,171.4,188.6,169.5,188.6L169.5,188.6z"/>
			<g transform="translate(0.000000, 0.571429)">
				<path class="st0" d="M72.5,167.7l12.6-7.3l12.9,7.5l27.2-22.1v37.9v46.6l-40.1,23.3L45,230.2v-39.7l0,0v-45.2L72.5,167.7z
					 M52,194.4v31.8l33.1,19.2l33.1-19.2v-31.3l-33.1,19.6L52,194.4z M53.4,187l31.8,19.3l32.2-19l-32.2-18.7L53.4,187z
					 M105.3,171.1l12.9,7.6v-18.2C113.9,164.1,109.6,167.6,105.3,171.1z M52,178.3l12.9-7.6L52,160.1C52,166.2,52,172.2,52,178.3z"
					/>
			</g>
		</g>
	</g>
</g>
</svg>
