<?xml version="1.0" encoding="utf-8"?>
<!-- Generator: Adobe Illustrator 23.0.2, SVG Export Plug-In . SVG Version: 6.00 Build 0)  -->
<svg version="1.1" id="Layer_1" xmlns="http://www.w3.org/2000/svg" xmlns:xlink="http://www.w3.org/1999/xlink" x="0px" y="0px"
	 viewBox="0 0 400 245" style="enable-background:new 0 0 400 245;" xml:space="preserve">
<style type="text/css">
	.st0{fill-rule:evenodd;clip-rule:evenodd;fill:#EC1C24;}
	.st1{fill-rule:evenodd;clip-rule:evenodd;fill:#231F20;}
	.st2{fill:#434343;}
	.st3{fill:#898989;}
	.st4{fill:url(#SVGID_1_);}
	.st5{fill:url(#SVGID_2_);}
	.st6{fill:#B36E01;}
	.st7{fill:url(#SVGID_3_);}
	.st8{fill:url(#SVGID_4_);}
	.st9{fill:url(#SVGID_5_);}
	.st10{fill:#FAF8D5;}
	.st11{fill:#313130;}
	.st12{fill:#86C440;stroke:#58B847;stroke-width:1.5531;stroke-miterlimit:10;}
	.st13{fill:#D1DD26;}
	.st14{fill:#352E29;}
	.st15{fill:#86C440;stroke:#58B847;stroke-width:0.6761;}
	.st16{fill:#231916;}
	.st17{fill:#E50013;}
	.st18{fill:#3E608B;}
	.st19{fill:#6E9C3A;}
	.st20{fill:#3693C3;}
	.st21{fill:#0B8B5D;}
	.st22{fill:#E1903D;}
	.st23{fill:#58749B;}
	.st24{fill:#0066A4;}
	.st25{fill:#402210;}
	.st26{clip-path:url(#SVGID_7_);fill:url(#SVGID_8_);}
	.st27{fill:#FFFFFF;}
	.st28{fill:#6A2811;}
	.st29{fill:#1EBAD6;}
	.st30{fill:#161629;}
	.st31{fill:#C0C0C8;}
	.st32{opacity:0.9;}
	.st33{fill-rule:evenodd;clip-rule:evenodd;fill:#295C82;}
	.st34{fill-rule:evenodd;clip-rule:evenodd;fill:#193A53;}
	.st35{fill-rule:evenodd;clip-rule:evenodd;fill:url(#SVGID_9_);}
	.st36{fill-rule:evenodd;clip-rule:evenodd;fill:url(#SVGID_10_);}
	.st37{fill-rule:evenodd;clip-rule:evenodd;fill:url(#SVGID_11_);}
	.st38{fill-rule:evenodd;clip-rule:evenodd;fill:url(#SVGID_12_);}
	.st39{fill-rule:evenodd;clip-rule:evenodd;fill:url(#SVGID_13_);}
	.st40{fill:#EC1C24;}
	.st41{fill:#231F20;}
	.st42{fill-rule:evenodd;clip-rule:evenodd;fill:#ED1C24;}
	.st43{fill-rule:evenodd;clip-rule:evenodd;fill:#C3C1C4;}
	.st44{fill:#ED1C24;}
	.st45{fill:#E11F26;}
	.st46{fill:#CECDCF;}
	.st47{fill:#19171B;}
	.st48{fill:#E49C23;}
	.st49{fill:#3E3A39;}
	.st50{enable-background:new    ;}
	.st51{fill:#EB6224;}
	.st52{fill:#4D4E4E;}
	.st53{fill:#217CB9;}
	.st54{fill:#58595B;}
	.st55{fill:#B38634;}
	.st56{fill:#A7A9AC;}
	.st57{fill:#A89A75;}
	.st58{fill:#2ED8CB;}
	.st59{fill:none;}
	.st60{fill:#65B1B8;}
	.st61{fill:#61D8D3;}
	.st62{fill:#79E0FA;}
	.st63{fill:#666766;}
	.st64{fill:url(#SVGID_14_);}
	.st65{fill:url(#SVGID_15_);}
	.st66{fill:url(#SVGID_16_);}
	.st67{fill:url(#SVGID_17_);}
	.st68{fill:url(#SVGID_18_);}
	.st69{fill:url(#SVGID_19_);}
	.st70{fill:url(#SVGID_20_);}
	.st71{fill:url(#SVGID_21_);}
	.st72{fill:url(#SVGID_22_);}
	.st73{fill:url(#SVGID_23_);}
	.st74{fill:url(#SVGID_24_);}
	.st75{fill:url(#SVGID_25_);}
	.st76{fill:url(#SVGID_26_);}
	.st77{fill:url(#SVGID_27_);}
	.st78{opacity:0.79;fill:#A3A5A8;enable-background:new    ;}
	.st79{fill:#86888B;}
	.st80{fill:#D2232A;}
	.st81{fill:#00478A;}
	.st82{fill:#009FE8;}
	.st83{fill:#005BAB;}
	.st84{fill-rule:evenodd;clip-rule:evenodd;fill:none;}
	.st85{fill-rule:evenodd;clip-rule:evenodd;}
	.st86{fill:#FF9900;}
	.st87{fill:#666666;}
</style>
<g>
	<g id="blocko_복사_5__x2B__사각형_4_xA0_Clipping_Path_1_">
		<g>
			<path class="st58" d="M181.01,142.82h18.07V67h-18.07V142.82z M273.92,115.67v-1.7c0-9.23,5.18-13.15,12.79-13.15
				c5.5,0,8.35,0.85,11.94,2.23V90.01c-3.38-1.8-7.72-2.76-15.22-2.76c-16.11,0-26.77,8.26-28.08,24.51
				c-1-15.98-10.62-24.51-27.71-24.51c-15.85,0-27.8,9.23-27.8,27.89v1.27c0,17.5,9.62,27.46,27.8,27.46
				c14.77,0,26.29-8.12,27.66-24.62c0.94,16.13,10.36,24.62,27.39,24.62c7.93,0,13.32-1.8,16.28-3.71v-12.19
				c-2.64,0.95-6.76,2.33-12.05,2.33C277.83,130.31,273.92,125.96,273.92,115.67z M236.95,116.73c0,11.35-3.49,14.74-9.2,14.74
				c-5.6,0-9.51-2.55-9.51-15.16v-2.01c0-11.13,3.38-14.74,9.3-14.74c5.5,0,9.41,2.33,9.41,15.27V116.73z M351.21,88.21h-17.86
				l-15.64,23.01V67h-17.97v75.82h17.97v-25.24l15.43,25.24h19.03l-18.5-29.59L351.21,88.21z M370.56,87.25
				c-15.85,0-27.8,9.23-27.8,27.89v1.27c0,17.5,9.62,27.46,27.8,27.46c15.75,0,27.8-9.23,27.8-27.99v-1.27
				C398.36,96.8,388.63,87.25,370.56,87.25z M379.86,116.73c0,11.35-3.49,14.74-9.2,14.74c-5.6,0-9.51-2.55-9.51-15.16v-2.01
				c0-11.13,3.38-14.74,9.3-14.74c5.5,0,9.41,2.33,9.41,15.27V116.73z"/>
		</g>
	</g>
	<path class="st59" d="M168.37,133.34l-8.09-6.84c1-2.23,1.65-5.28,1.65-9.41c0,4.13-0.76,7.18-1.76,9.41L168.37,133.34z"/>
	<path class="st58" d="M180.04,113.58c0-19.83-9.86-25.89-20.11-25.89c-6.87,0-11.55,1.8-15.36,4.97h-0.75V67.31h-17.66v30.52
		l17.66,15.08v-9.62c1.81-0.85,4.83-1.8,7.89-1.8c6.55,0,10.22,2.76,10.22,14v1.59c0,4.13-0.65,7.18-1.65,9.41l8.09,6.84l4.55,3.8
		c4.78-4.75,7.13-11.97,7.13-22.17V113.58z"/>
	<path class="st60" d="M168.37,133.34l-8.2-6.84c-1.93,4.3-5.48,5.54-9.37,5.54c-3.07,0-5.17-0.53-6.98-1.27v-17.85l-17.66-15.08
		v42.79c0.4,0.15,0.7,0.25,1.11,0.39c6.14,2.09,13.83,3.35,22.43,3.35v-0.08c1.81,0,3.23-0.06,4.7-0.17
		c-1.48,0.11-2.96,0.17-4.56,0.17c1.6,0,3.15,0.02,4.63-0.09c6.12-0.46,11.18-1.85,15.15-4.4c1.19-0.77,2.3-1.65,3.29-2.63
		l0.01,0.01c0,0,0.01-0.01,0.01-0.01l-0.03-0.03c-0.01,0.01-0.02,0.02-0.03,0.03L168.37,133.34z"/>
	<path class="st58" d="M154.51,144.11c-1.48,0.11-3.01,0.17-4.61,0.17c0,0,0,0,0,0C151.5,144.28,153.03,144.22,154.51,144.11z"/>
	<path class="st58" d="M130.97,142.14c5.42,1.44,11.76,2.3,18.93,2.3c1.6,0,3.13-0.06,4.61-0.17c6.12-0.46,11.17-1.9,15.14-4.47
		c-3.97,2.54-9.02,3.93-15.14,4.4c-1.48,0.11-3.01,0.09-4.61,0.09c0,0-0.19,0-0.19,0v0.08c-8.6,0-16.3-1.27-22.43-3.35
		c-0.41-0.14-0.76-0.24-1.16-0.39c0.4,0.15,0.82,0.29,1.23,0.43C128.5,141.44,129.72,141.8,130.97,142.14z"/>
	<path class="st58" d="M149.9,144.44C149.9,144.44,149.9,144.44,149.9,144.44c-7.16,0-13.51-0.86-18.93-2.3
		C136.39,143.58,142.73,144.44,149.9,144.44z"/>
	<path class="st58" d="M130.97,142.14c-1.25-0.33-2.45-0.7-3.6-1.09C128.52,141.44,129.72,141.8,130.97,142.14z"/>
	<path class="st58" d="M169.65,139.79c1.2-0.77,2.3-1.64,3.3-2.62l-0.01-0.01C171.94,138.15,170.84,139.02,169.65,139.79z"/>
	<path class="st58" d="M154.51,144.27c7.97-0.6,14.13-2.85,18.44-7.1c-1,0.99-2.1,1.85-3.3,2.62
		C165.68,142.37,160.63,143.81,154.51,144.27z"/>
	<path class="st58" d="M172.89,137.16c0.01-0.01,0.02-0.02,0.03-0.03l-4.55-3.8L172.89,137.16z"/>
	<g>
		<path class="st60" d="M121.63,133.97V97.63c-1.62-0.16-3.09-0.78-4.28-1.72l-12.92,8.53v47.49l14.15-10.38
			c-0.15-0.57-0.24-1.16-0.24-1.78C118.33,137.3,119.66,135.15,121.63,133.97z"/>
	</g>
	<path class="st61" d="M114.31,89.77c0-0.03,0-0.05,0-0.08L67.85,68.19c-1.33,0.89-2.93,1.42-4.67,1.42c-1.72,0-3.31-0.51-4.63-1.39
		L45.1,74.04l59.33,30.4l12.92-8.53C115.5,94.46,114.31,92.25,114.31,89.77z"/>
	<path class="st59" d="M68.71,127.06l15.79-9.98l-15.81,9.95C68.7,127.04,68.7,127.05,68.71,127.06z"/>
	<path class="st60" d="M68.71,127.06c0.68,1.05,1.08,2.3,1.08,3.65c0,3.35-2.45,6.13-5.66,6.65v36.06c2.52,0.41,4.57,2.2,5.33,4.58
		l15.04-11.08v-49.84L68.71,127.06z"/>
	<path class="st62" d="M63.04,137.45c-3.72,0-6.74-3.02-6.74-6.74c0-1.54,0.52-2.96,1.4-4.1L5.91,95.63
		c-0.97,1.56-2.47,2.76-4.27,3.38v35.61c2.65,1.18,4.49,3.76,4.49,6.76c0,0.32-0.03,0.64-0.07,0.95l50.83,34.95
		c1.06-2.34,3.41-3.97,6.14-3.97c0.21,0,0.42,0.01,0.63,0.03c0.15,0.01,0.3,0.04,0.45,0.06v-36.06
		C63.77,137.42,63.41,137.45,63.04,137.45z"/>
	<path class="st61" d="M63.04,123.96c2.37,0,4.45,1.22,5.65,3.07l15.81-9.95L22.17,84.06L7.02,90.72c0.03,0.28,0.05,0.57,0.05,0.87
		c0,1.48-0.43,2.86-1.16,4.04l51.88,30.86C59.03,124.95,60.92,123.96,63.04,123.96z"/>
	<path class="st58" d="M57.79,126.48L5.92,95.62c0,0,0,0.01-0.01,0.01l51.79,30.98C57.73,126.57,57.76,126.52,57.79,126.48z"/>
</g>
</svg>
