<?xml version="1.0" encoding="utf-8"?>
<!-- Generator: Adobe Illustrator 23.0.2, SVG Export Plug-In . SVG Version: 6.00 Build 0)  -->
<svg version="1.1" id="Layer_1" xmlns="http://www.w3.org/2000/svg" xmlns:xlink="http://www.w3.org/1999/xlink" x="0px" y="0px"
	 viewBox="0 0 400 245" style="enable-background:new 0 0 400 245;" xml:space="preserve">
<style type="text/css">
	.st0{fill-rule:evenodd;clip-rule:evenodd;fill:#EC1C24;}
	.st1{fill-rule:evenodd;clip-rule:evenodd;fill:#231F20;}
	.st2{fill:#434343;}
	.st3{fill:#898989;}
	.st4{fill:url(#SVGID_1_);}
	.st5{fill:url(#SVGID_2_);}
	.st6{fill:#B36E01;}
	.st7{fill:url(#SVGID_3_);}
	.st8{fill:url(#SVGID_4_);}
	.st9{fill:url(#SVGID_5_);}
	.st10{fill:#FAF8D5;}
	.st11{fill:#313130;}
	.st12{fill:#86C440;stroke:#58B847;stroke-width:1.5531;stroke-miterlimit:10;}
	.st13{fill:#D1DD26;}
	.st14{fill:#352E29;}
	.st15{fill:#86C440;stroke:#58B847;stroke-width:0.6761;}
	.st16{fill:#231916;}
	.st17{fill:#E50013;}
	.st18{fill:#3E608B;}
	.st19{fill:#6E9C3A;}
	.st20{fill:#3693C3;}
	.st21{fill:#0B8B5D;}
	.st22{fill:#E1903D;}
	.st23{fill:#58749B;}
	.st24{fill:#0066A4;}
	.st25{fill:#402210;}
	.st26{clip-path:url(#SVGID_7_);fill:url(#SVGID_8_);}
	.st27{fill:#FFFFFF;}
	.st28{fill:#6A2811;}
	.st29{fill:#1EBAD6;}
	.st30{fill:#161629;}
	.st31{fill:#C0C0C8;}
	.st32{opacity:0.9;}
	.st33{fill-rule:evenodd;clip-rule:evenodd;fill:#295C82;}
	.st34{fill-rule:evenodd;clip-rule:evenodd;fill:#193A53;}
	.st35{fill-rule:evenodd;clip-rule:evenodd;fill:url(#SVGID_9_);}
	.st36{fill-rule:evenodd;clip-rule:evenodd;fill:url(#SVGID_10_);}
	.st37{fill-rule:evenodd;clip-rule:evenodd;fill:url(#SVGID_11_);}
	.st38{fill-rule:evenodd;clip-rule:evenodd;fill:url(#SVGID_12_);}
	.st39{fill-rule:evenodd;clip-rule:evenodd;fill:url(#SVGID_13_);}
	.st40{fill:#EC1C24;}
	.st41{fill:#231F20;}
	.st42{fill-rule:evenodd;clip-rule:evenodd;fill:#ED1C24;}
	.st43{fill-rule:evenodd;clip-rule:evenodd;fill:#C3C1C4;}
	.st44{fill:#ED1C24;}
	.st45{fill:#E11F26;}
	.st46{fill:#CECDCF;}
	.st47{fill:#19171B;}
	.st48{fill:#E49C23;}
	.st49{fill:#3E3A39;}
	.st50{enable-background:new    ;}
	.st51{fill:#EB6224;}
	.st52{fill:#4D4E4E;}
	.st53{fill:#217CB9;}
	.st54{fill:#58595B;}
	.st55{fill:#B38634;}
	.st56{fill:#A7A9AC;}
	.st57{fill:#A89A75;}
	.st58{fill:#2ED8CB;}
	.st59{fill:none;}
	.st60{fill:#65B1B8;}
	.st61{fill:#61D8D3;}
	.st62{fill:#79E0FA;}
	.st63{fill:#666766;}
	.st64{fill:url(#SVGID_14_);}
	.st65{fill:url(#SVGID_15_);}
	.st66{fill:url(#SVGID_16_);}
	.st67{fill:url(#SVGID_17_);}
	.st68{fill:url(#SVGID_18_);}
	.st69{fill:url(#SVGID_19_);}
	.st70{fill:url(#SVGID_20_);}
	.st71{fill:url(#SVGID_21_);}
	.st72{fill:url(#SVGID_22_);}
	.st73{fill:url(#SVGID_23_);}
	.st74{fill:url(#SVGID_24_);}
	.st75{fill:url(#SVGID_25_);}
	.st76{fill:url(#SVGID_26_);}
	.st77{fill:url(#SVGID_27_);}
	.st78{opacity:0.79;fill:#A3A5A8;enable-background:new    ;}
	.st79{fill:#86888B;}
	.st80{fill:#D2232A;}
	.st81{fill:#00478A;}
	.st82{fill:#009FE8;}
	.st83{fill:#005BAB;}
	.st84{fill-rule:evenodd;clip-rule:evenodd;fill:none;}
	.st85{fill-rule:evenodd;clip-rule:evenodd;}
	.st86{fill:#FF9900;}
	.st87{fill:#666666;}
</style>
<g>
	<g class="st50">
		<path class="st51" d="M3.37,161.81H20.9c4.32,0,7.72,1.19,9.87,3.35c1.73,1.73,2.59,3.83,2.59,6.42v0.11
			c0,4.26-2.27,6.64-4.96,8.15c4.37,1.67,7.07,4.21,7.07,9.28v0.11c0,6.91-5.61,10.36-14.14,10.36H3.37V161.81z M25.11,172.98
			c0-2.48-1.94-3.88-5.45-3.88h-8.2v7.98h7.66c3.67,0,5.99-1.19,5.99-3.99V172.98z M21.06,183.98h-9.6v8.31h9.87
			c3.67,0,5.88-1.29,5.88-4.1v-0.11C27.22,185.55,25.33,183.98,21.06,183.98z"/>
		<path class="st51" d="M42.31,161.81h8.31v30.21h18.83v7.55H42.31V161.81z"/>
		<path class="st51" d="M71.87,180.8v-0.11c0-10.74,8.47-19.53,20.12-19.53c11.66,0,20.02,8.69,20.02,19.42v0.11
			c0,10.74-8.47,19.53-20.12,19.53C80.23,200.23,71.87,191.54,71.87,180.8z M103.32,180.8v-0.11c0-6.47-4.75-11.87-11.44-11.87
			c-6.69,0-11.33,5.29-11.33,11.76v0.11c0,6.47,4.75,11.87,11.44,11.87C98.68,192.56,103.32,187.27,103.32,180.8z"/>
		<path class="st51" d="M117.71,180.8v-0.11c0-10.74,8.09-19.53,19.69-19.53c7.12,0,11.38,2.38,14.89,5.83l-5.29,6.1
			c-2.91-2.64-5.88-4.26-9.66-4.26c-6.37,0-10.95,5.29-10.95,11.76v0.11c0,6.47,4.48,11.87,10.95,11.87c4.32,0,6.96-1.73,9.93-4.42
			l5.29,5.34c-3.88,4.15-8.2,6.74-15.49,6.74C125.96,200.23,117.71,191.65,117.71,180.8z"/>
		<path class="st51" d="M159.19,161.81h8.31v16.51l15.22-16.51h10.2l-15.43,16.03l16.08,21.74h-9.98l-11.71-16.08l-4.37,4.53v11.55
			h-8.31V161.81z"/>
		<path class="st51" d="M193.92,180.8v-0.11c0-10.74,8.1-19.53,19.69-19.53c7.12,0,11.38,2.38,14.89,5.83l-5.29,6.1
			c-2.91-2.64-5.88-4.26-9.66-4.26c-6.37,0-10.95,5.29-10.95,11.76v0.11c0,6.47,4.48,11.87,10.95,11.87c4.32,0,6.96-1.73,9.93-4.42
			l5.29,5.34c-3.89,4.15-8.2,6.74-15.49,6.74C202.18,200.23,193.92,191.65,193.92,180.8z"/>
		<path class="st51" d="M235.4,161.81h8.31v14.94h15.32v-14.94h8.31v37.77h-8.31v-15.16h-15.32v15.16h-8.31V161.81z"/>
		<path class="st51" d="M289.34,161.54H297l16.19,38.04h-8.69l-3.45-8.47h-15.97l-3.45,8.47h-8.47L289.34,161.54z M298.08,183.77
			l-5.02-12.25l-5.02,12.25H298.08z"/>
		<path class="st51" d="M319.37,161.81h8.31v37.77h-8.31V161.81z"/>
		<path class="st51" d="M337.12,161.81h7.66l17.7,23.25v-23.25h8.2v37.77h-7.07l-18.29-24.01v24.01h-8.2V161.81z"/>
	</g>
	<g class="st50">
		<path class="st51" d="M2.82,211.07h19.26v5H8.4v5.18h12.04v5H8.4v5.36h13.86v5H2.82V211.07z"/>
		<path class="st51" d="M44.73,211.07h9.96c8.02,0,13.57,5.51,13.57,12.69v0.07c0,7.18-5.54,12.77-13.57,12.77h-9.96V211.07z
			 M50.34,216.14v15.4h4.34c4.6,0,7.7-3.1,7.7-7.63v-0.07c0-4.52-3.1-7.7-7.7-7.7H50.34z"/>
		<path class="st51" d="M90.31,225.66v-14.59h5.62v14.44c0,4.16,2.08,6.31,5.51,6.31s5.51-2.08,5.51-6.13v-14.63h5.62v14.41
			c0,7.73-4.34,11.53-11.2,11.53S90.31,233.17,90.31,225.66z"/>
		<path class="st51" d="M134.62,223.91v-0.07c0-7.26,5.47-13.2,13.31-13.2c4.81,0,7.7,1.6,10.07,3.94l-3.57,4.12
			c-1.97-1.79-3.98-2.88-6.53-2.88c-4.3,0-7.4,3.57-7.4,7.95v0.07c0,4.38,3.03,8.02,7.4,8.02c2.92,0,4.71-1.17,6.71-2.99l3.57,3.61
			c-2.63,2.81-5.54,4.56-10.47,4.56C140.2,237.04,134.62,231.24,134.62,223.91z"/>
		<path class="st51" d="M188.89,210.88h5.18l10.94,25.72h-5.87l-2.33-5.73h-10.8l-2.33,5.73h-5.73L188.89,210.88z M194.8,225.91
			l-3.39-8.28l-3.39,8.28H194.8z"/>
		<path class="st51" d="M229.08,216.25h-7.77v-5.18h21.16v5.18h-7.77v20.35h-5.62V216.25z"/>
		<path class="st51" d="M262.01,223.91v-0.07c0-7.26,5.73-13.2,13.61-13.2s13.53,5.87,13.53,13.13v0.07c0,7.26-5.73,13.2-13.6,13.2
			C267.66,237.04,262.01,231.17,262.01,223.91z M283.28,223.91v-0.07c0-4.38-3.21-8.02-7.73-8.02c-4.52,0-7.66,3.57-7.66,7.95v0.07
			c0,4.38,3.21,8.02,7.73,8.02C280.14,231.86,283.28,228.29,283.28,223.91z"/>
		<path class="st51" d="M311.61,211.07h11.67c3.25,0,5.76,0.91,7.44,2.59c1.42,1.42,2.19,3.43,2.19,5.84v0.08
			c0,4.12-2.23,6.71-5.47,7.91l6.24,9.12h-6.57l-5.47-8.17h-4.41v8.17h-5.62V211.07z M322.91,223.47c2.74,0,4.3-1.46,4.3-3.61v-0.08
			c0-2.4-1.68-3.65-4.42-3.65h-5.58v7.33H322.91z"/>
		<path class="st51" d="M353.69,232.88l3.32-3.97c2.3,1.9,4.71,3.1,7.63,3.1c2.3,0,3.69-0.91,3.69-2.41v-0.07
			c0-1.42-0.88-2.15-5.14-3.25c-5.14-1.31-8.46-2.74-8.46-7.81v-0.07c0-4.63,3.72-7.7,8.94-7.7c3.72,0,6.89,1.17,9.48,3.25
			l-2.92,4.23c-2.26-1.57-4.49-2.52-6.64-2.52c-2.15,0-3.28,0.99-3.28,2.22v0.08c0,1.68,1.09,2.22,5.51,3.36
			c5.18,1.35,8.1,3.21,8.1,7.66v0.08c0,5.07-3.87,7.91-9.37,7.91C360.66,236.97,356.76,235.62,353.69,232.88z"/>
	</g>
	<g id="g195" transform="matrix(0.79702213,0,0,0.79702213,8.5435558,-7.0208207)">
		<path id="path179" class="st52" d="M229.96,18.8l-0.05,0.02L120.73,87.49l24.69,15.53l-20.27,12.53v5.55l104.76,65.89V187
			l0.05,0.02l0.05-0.02l109.18-66.37l-26.09-16.96l21.68-13.4v-5.55L230,18.81L229.96,18.8z M229.91,27.79v0.01
			c0.2-0.01,0.4,0.04,0.58,0.14l93.33,58.69c0.64,0.39,0.64,1.33,0,1.72l-17.62,10.84l-76.2-49.53l-0.05-0.02l-0.05,0.02
			l-73.4,45.99l6.99,4.58l65.92-41.47c0.15-0.1,0.32-0.13,0.49-0.14v0.01c0.2-0.01,0.4,0.03,0.58,0.14l93.32,60.99
			c0.64,0.39,0.64,1.32,0,1.72l-93.32,56.41c-0.15,0.1-0.32,0.13-0.5,0.14v-0.01c-0.2,0.01-0.4-0.04-0.58-0.14l-93.33-58.69
			c-0.64-0.39-0.64-1.33,0-1.72l16.33-10.05l77.49,48.74l0.05,0.02l0.05-0.02l71.5-44.94l-6.99-4.58l-64.02,40.42
			c-0.15,0.1-0.32,0.13-0.5,0.14v-0.01c-0.2,0.01-0.4-0.04-0.58-0.14L136.1,88.34c-0.64-0.39-0.64-1.32,0-1.72l93.32-58.71
			C229.57,27.82,229.74,27.78,229.91,27.79L229.91,27.79z"/>
		<circle id="circle181" class="st52" cx="230.93" cy="57.75" r="12.73"/>
		<rect id="rect183" x="125.14" y="87.63" class="st52" width="7.5" height="33.22"/>
		<circle id="circle185" class="st52" cx="229.95" cy="149.77" r="12.73"/>
		<rect id="rect187" x="331.67" y="87.63" class="st52" width="7.5" height="33.22"/>
		<g id="g193" transform="matrix(1.0486715,0,0,1.0486715,-6.135503,-8.3980415)">
			<circle id="circle189" class="st52" cx="128.13" cy="90.74" r="12.14"/>
			<circle id="circle191" class="st52" cx="322.14" cy="90.74" r="12.14"/>
		</g>
	</g>
	<g class="st50">
		<path class="st51" d="M382.53,212.74h-2.63v-1.76h7.17v1.76h-2.63v6.9h-1.9V212.74z"/>
		<path class="st51" d="M388.52,210.98h2.05l2.28,3.66l2.28-3.66h2.05v8.66h-1.89v-5.65l-2.44,3.7h-0.05l-2.41-3.66v5.61h-1.87
			V210.98z"/>
	</g>
</g>
</svg>
