<?xml version="1.0" encoding="utf-8"?>
<!-- Generator: Adobe Illustrator 23.0.2, SVG Export Plug-In . SVG Version: 6.00 Build 0)  -->
<svg version="1.1" id="Layer_1" xmlns="http://www.w3.org/2000/svg" xmlns:xlink="http://www.w3.org/1999/xlink" x="0px" y="0px"
	 viewBox="0 0 400 245" style="enable-background:new 0 0 400 245;" xml:space="preserve">
<style type="text/css">
	.st0{fill-rule:evenodd;clip-rule:evenodd;fill:#EC1C24;}
	.st1{fill-rule:evenodd;clip-rule:evenodd;fill:#231F20;}
	.st2{fill:#434343;}
	.st3{fill:#898989;}
	.st4{fill:url(#SVGID_1_);}
	.st5{fill:url(#SVGID_2_);}
	.st6{fill:#B36E01;}
	.st7{fill:url(#SVGID_3_);}
	.st8{fill:url(#SVGID_4_);}
	.st9{fill:url(#SVGID_5_);}
	.st10{fill:#FAF8D5;}
	.st11{fill:#313130;}
	.st12{fill:#86C440;stroke:#58B847;stroke-width:1.5531;stroke-miterlimit:10;}
	.st13{fill:#D1DD26;}
	.st14{fill:#352E29;}
	.st15{fill:#86C440;stroke:#58B847;stroke-width:0.6761;}
	.st16{fill:#231916;}
	.st17{fill:#E50013;}
	.st18{fill:#3E608B;}
	.st19{fill:#6E9C3A;}
	.st20{fill:#3693C3;}
	.st21{fill:#0B8B5D;}
	.st22{fill:#E1903D;}
	.st23{fill:#58749B;}
	.st24{fill:#0066A4;}
	.st25{fill:#402210;}
	.st26{clip-path:url(#SVGID_7_);fill:url(#SVGID_8_);}
	.st27{fill:#FFFFFF;}
	.st28{fill:#6A2811;}
	.st29{fill:#1EBAD6;}
	.st30{fill:#161629;}
	.st31{fill:#C0C0C8;}
	.st32{opacity:0.9;}
	.st33{fill-rule:evenodd;clip-rule:evenodd;fill:#295C82;}
	.st34{fill-rule:evenodd;clip-rule:evenodd;fill:#193A53;}
	.st35{fill-rule:evenodd;clip-rule:evenodd;fill:url(#SVGID_9_);}
	.st36{fill-rule:evenodd;clip-rule:evenodd;fill:url(#SVGID_10_);}
	.st37{fill-rule:evenodd;clip-rule:evenodd;fill:url(#SVGID_11_);}
	.st38{fill-rule:evenodd;clip-rule:evenodd;fill:url(#SVGID_12_);}
	.st39{fill-rule:evenodd;clip-rule:evenodd;fill:url(#SVGID_13_);}
	.st40{fill:#EC1C24;}
	.st41{fill:#231F20;}
	.st42{fill-rule:evenodd;clip-rule:evenodd;fill:#ED1C24;}
	.st43{fill-rule:evenodd;clip-rule:evenodd;fill:#C3C1C4;}
	.st44{fill:#ED1C24;}
	.st45{fill:#E11F26;}
	.st46{fill:#CECDCF;}
	.st47{fill:#19171B;}
	.st48{fill:#E49C23;}
	.st49{fill:#3E3A39;}
	.st50{enable-background:new    ;}
	.st51{fill:#EB6224;}
	.st52{fill:#4D4E4E;}
	.st53{fill:#217CB9;}
	.st54{fill:#58595B;}
	.st55{fill:#B38634;}
	.st56{fill:#A7A9AC;}
	.st57{fill:#A89A75;}
	.st58{fill:#2ED8CB;}
	.st59{fill:none;}
	.st60{fill:#65B1B8;}
	.st61{fill:#61D8D3;}
	.st62{fill:#79E0FA;}
	.st63{fill:#666766;}
	.st64{fill:url(#SVGID_14_);}
	.st65{fill:url(#SVGID_15_);}
	.st66{fill:url(#SVGID_16_);}
	.st67{fill:url(#SVGID_17_);}
	.st68{fill:url(#SVGID_18_);}
	.st69{fill:url(#SVGID_19_);}
	.st70{fill:url(#SVGID_20_);}
	.st71{fill:url(#SVGID_21_);}
	.st72{fill:url(#SVGID_22_);}
	.st73{fill:url(#SVGID_23_);}
	.st74{fill:url(#SVGID_24_);}
	.st75{fill:url(#SVGID_25_);}
	.st76{fill:url(#SVGID_26_);}
	.st77{fill:url(#SVGID_27_);}
	.st78{opacity:0.79;fill:#A3A5A8;enable-background:new    ;}
	.st79{fill:#86888B;}
	.st80{fill:#D2232A;}
	.st81{fill:#00478A;}
	.st82{fill:#009FE8;}
	.st83{fill:#005BAB;}
	.st84{fill-rule:evenodd;clip-rule:evenodd;fill:none;}
	.st85{fill-rule:evenodd;clip-rule:evenodd;}
	.st86{fill:#FF9900;}
	.st87{fill:#666666;}
</style>
<g>
	<g>
		<defs>
			<path id="SVGID_6_" d="M190.53-255.21l-64,36.95c-5.72,3.3-9.24,9.4-9.24,16v73.89c0,6.6,3.52,12.71,9.24,16l64,36.94
				c5.71,3.3,12.75,3.3,18.47,0l63.99-36.94c5.72-3.3,9.24-9.4,9.24-16v-73.89c0-6.61-3.52-12.7-9.24-16L209-255.21
				c-2.86-1.65-6.05-2.47-9.24-2.47C196.57-257.68,193.38-256.86,190.53-255.21"/>
		</defs>
		<clipPath id="SVGID_1_">
			<use xlink:href="#SVGID_6_"  style="overflow:visible;"/>
		</clipPath>
		
			<linearGradient id="SVGID_2_" gradientUnits="userSpaceOnUse" x1="-1377.5885" y1="-356.0674" x2="-1376.484" y2="-356.0674" gradientTransform="matrix(-79.3535 -133.5462 -133.5462 79.3535 -156623.1719 -155805.7188)">
			<stop  offset="0" style="stop-color:#AB6A00"/>
			<stop  offset="1" style="stop-color:#F9BF3E"/>
		</linearGradient>
		<polygon style="clip-path:url(#SVGID_1_);fill:url(#SVGID_2_);" points="160.33,0.32 35.79,-209.26 239.19,-330.12 
			363.72,-120.54 		"/>
	</g>
</g>
<g>
	<g>
		<path class="st48" d="M218.91,107.79c-10.21,34.78-44.77,60.19-82.86,60.19h127.91C263.95,139.48,244.94,115.43,218.91,107.79z"/>
		<path class="st48" d="M136.05,1.75v157.14c35.7,0,65.81-23.81,75.38-56.42c2.06-7.03,3.19-14.46,3.19-22.15
			C214.62,36.93,179.44,1.75,136.05,1.75z"/>
	</g>
	<g>
		<path class="st48" d="M240.95,243.25v-44.89h14.09c3.15,0,6.13,0.6,8.85,1.77c2.72,1.17,5.12,2.88,7.12,5.06
			c1.89,2.08,3.36,4.47,4.36,7.12c1,2.64,1.51,5.48,1.51,8.43c0,2.95-0.51,5.78-1.51,8.43c-1,2.64-2.46,5.05-4.33,7.15
			c-2.01,2.24-4.42,3.97-7.15,5.15c-2.72,1.18-5.69,1.77-8.85,1.77H240.95z M255.04,234.96c4.09,0,7.31-1.38,9.85-4.21
			c1.18-1.29,2.08-2.78,2.69-4.46c0.63-1.73,0.95-3.59,0.95-5.55c0-1.91-0.32-3.76-0.95-5.48c-0.61-1.68-1.51-3.17-2.67-4.43
			c-2.57-2.78-5.8-4.13-9.87-4.13h-5.81v28.26H255.04z"/>
		<path class="st48" d="M339.68,243.25c-4,0-7.76-1.01-11.19-3.01c-3.42-2.01-6.15-4.76-8.12-8.19c-1.98-3.43-2.98-7.22-2.98-11.26
			c0-4.03,1-7.82,2.98-11.26c1.98-3.43,4.71-6.19,8.12-8.19c3.42-2,7.19-3.02,11.19-3.02c4,0,7.76,1.01,11.19,3.01
			c3.41,2,6.14,4.76,8.12,8.19c1.97,3.44,2.98,7.23,2.98,11.26c0,4.03-1,7.82-2.97,11.26c-1.98,3.44-4.71,6.19-8.12,8.19
			C347.45,242.23,343.68,243.25,339.68,243.25z M339.68,206.52c-2.54,0-4.91,0.64-7.05,1.91c-2.16,1.28-3.91,3.03-5.19,5.21
			c-1.27,2.16-1.91,4.56-1.91,7.15c0,2.58,0.64,4.98,1.91,7.14c1.28,2.18,3.03,3.93,5.19,5.21c2.14,1.26,4.51,1.91,7.05,1.91
			c2.54,0,4.91-0.64,7.05-1.91c2.16-1.28,3.89-3.03,5.15-5.2c1.26-2.17,1.89-4.57,1.89-7.15c0-2.58-0.64-4.99-1.89-7.16
			c-1.26-2.17-2.99-3.92-5.15-5.2C344.59,207.16,342.22,206.52,339.68,206.52z"/>
		<path class="st48" d="M310.52,243.25l-13.32-30.09l-13.98,30.09h-9.46l19.64-42.21c0.72-1.56,2.24-2.52,3.95-2.52
			c1.76,0,3.29,1,3.99,2.61l18.5,42.13H310.52z"/>
		<path class="st49" d="M38.03,243.25l0.07-44.83h13.58c4.3,0,7.81,1.25,10.43,3.73c1.21,1.12,2.18,2.44,2.84,3.93
			c0.67,1.49,1.02,3.06,1.02,4.66c0,1.99-0.47,3.84-1.4,5.51c-0.46,0.81-0.97,1.54-1.55,2.18c1.94,0.97,3.63,2.38,5.03,4.21
			c1.61,2.11,2.43,4.54,2.43,7.21c0,1.73-0.39,3.44-1.15,5.09c-0.76,1.64-1.85,3.1-3.26,4.36c-1.45,1.26-3.14,2.23-5.06,2.92
			c-1.91,0.68-3.93,1.02-6.03,1.02H38.03z M54.99,236.83c1.87,0,3.51-0.36,4.9-1.07c1.37-0.7,2.43-1.6,3.14-2.67
			c0.69-1.03,1.04-2.12,1.04-3.23c0-1.26-0.39-2.36-1.18-3.39c-0.85-1.09-1.87-1.91-3.03-2.42c-1.79-0.78-4.14-1.18-6.96-1.18h-8.38
			v13.96H54.99z M51.56,216.39c1.05,0,1.91-0.06,2.56-0.17c0.65-0.11,1.3-0.29,1.94-0.54c0.8-0.34,1.64-0.99,2.44-1.92
			c0.71-0.82,1.06-1.81,1.06-3.02c0-0.96-0.28-1.89-0.83-2.76c-0.56-0.88-1.43-1.61-2.59-2.19c-1.21-0.59-2.71-0.9-4.45-0.9h-7.17
			v11.49H51.56z"/>
		<path class="st49" d="M127.94,243.25c-3.99,0-7.75-1.01-11.17-3.01c-3.41-2-6.14-4.75-8.12-8.18c-1.98-3.43-2.98-7.22-2.98-11.25
			c0-4.03,1-7.82,2.97-11.26c1.98-3.44,4.71-6.19,8.12-8.18c3.42-2,7.18-3.01,11.17-3.01c4,0,7.75,1.01,11.17,3.01
			c3.41,2,6.14,4.75,8.11,8.18c1.98,3.44,2.98,7.22,2.98,11.26c0,4.03-1,7.82-2.98,11.25c-1.97,3.43-4.7,6.19-8.11,8.18
			C135.7,242.23,131.94,243.25,127.94,243.25z M127.94,204.71c-2.87,0-5.55,0.73-7.96,2.16c-2.43,1.44-4.4,3.41-5.84,5.87
			c-1.43,2.44-2.16,5.15-2.16,8.06c0,2.91,0.73,5.62,2.16,8.06c1.44,2.45,3.41,4.43,5.84,5.87c2.41,1.43,5.09,2.15,7.96,2.15
			c2.87,0,5.55-0.72,7.97-2.16c2.43-1.44,4.38-3.41,5.8-5.86c1.42-2.44,2.14-5.16,2.14-8.07c0-2.91-0.72-5.63-2.14-8.07
			c-1.42-2.45-3.37-4.42-5.8-5.86C133.49,205.44,130.81,204.71,127.94,204.71z"/>
		<path class="st49" d="M176.08,243.25c-4,0-7.77-1.03-11.18-3.05c-3.4-2.02-6.13-4.78-8.11-8.2c-1.98-3.44-2.98-7.22-2.98-11.26
			c0-4.03,1-7.81,2.98-11.23c1.98-3.41,4.71-6.16,8.11-8.18c3.42-2.02,7.18-3.05,11.18-3.05c3.1,0,6.12,0.65,8.98,1.93
			c2.84,1.28,5.37,3.11,7.52,5.43l1.16,1.26l-1.23,1.19l-3.54,3.13l-1.11-1.24c-1.54-1.74-3.33-3.06-5.37-3.99
			c-2.02-0.93-4.18-1.4-6.41-1.4c-2.87,0-5.55,0.73-7.97,2.16c-2.43,1.44-4.4,3.42-5.84,5.89c-1.43,2.46-2.16,5.18-2.16,8.1
			c0,2.92,0.73,5.64,2.16,8.1c1.44,2.47,3.41,4.46,5.84,5.89c2.41,1.43,5.1,2.15,7.96,2.15c2.38,0,4.67-0.53,6.81-1.57
			c2.15-1.05,4.02-2.53,5.55-4.4l1.04-1.27l1.33,0.95l3.7,2.88l-1.06,1.33c-2.16,2.7-4.75,4.79-7.76,6.24
			C182.7,242.51,179.46,243.25,176.08,243.25z"/>
		<path class="st49" d="M227.89,243.25l-13.56-16.1l-10.95,15.02c-0.46,0.63-1.17,1-1.95,1c-1.34,0-2.43-1.09-2.43-2.42v-42.06h6.25
			v30.16l21.94-30.16h7.83l-16.92,23.16l18.04,21.41H227.89z"/>
		<polygon class="st49" points="74.3,243.25 74.3,198.42 80.72,198.42 80.72,236.83 105.55,236.83 105.55,243.25 		"/>
	</g>
</g>
</svg>
