<?xml version="1.0" encoding="utf-8"?>
<!-- Generator: Adobe Illustrator 25.0.1, SVG Export Plug-In . SVG Version: 6.00 Build 0)  -->
<svg version="1.1" id="Layer_1" xmlns="http://www.w3.org/2000/svg" xmlns:xlink="http://www.w3.org/1999/xlink" x="0px" y="0px"
	 viewBox="0 0 500 500" enable-background="new 0 0 500 500" xml:space="preserve">
<g>
	<path fill="#4580A9" d="M442.77,136.85l-46.79-27.29c-1.61-0.94-3.59-0.94-5.21-0.02c-0.13,0.07-0.24,0.16-0.36,0.24
		c-0.33,0.11-0.66,0.25-0.97,0.43l-37.99,22.16V86.43c0-0.15-0.02-0.3-0.03-0.46c-0.01-0.08-0.01-0.15-0.01-0.23
		c-0.03-0.22-0.07-0.44-0.13-0.65c0-0.01,0-0.01,0-0.02c-0.06-0.22-0.13-0.43-0.22-0.64c-0.01-0.03-0.03-0.05-0.04-0.08
		c-0.08-0.18-0.16-0.35-0.26-0.52c-0.04-0.07-0.09-0.13-0.13-0.19c-0.08-0.12-0.16-0.25-0.24-0.37c-0.06-0.08-0.13-0.15-0.19-0.22
		c-0.08-0.1-0.16-0.2-0.25-0.29c-0.08-0.08-0.17-0.15-0.26-0.23c-0.08-0.07-0.16-0.15-0.25-0.22c-0.1-0.08-0.21-0.14-0.31-0.21
		c-0.08-0.06-0.16-0.12-0.25-0.17c0,0-0.01,0-0.01-0.01c-0.01,0-0.01-0.01-0.02-0.01l-96.17-55.23c-1.61-0.92-3.59-0.92-5.19,0.01
		l-95.52,55.23c0,0,0,0,0,0c0,0,0,0,0,0c-0.1,0.06-0.19,0.13-0.28,0.19c-0.1,0.06-0.2,0.12-0.29,0.19c-0.14,0.1-0.26,0.22-0.38,0.34
		c-0.04,0.04-0.09,0.07-0.13,0.11c-0.32,0.32-0.59,0.68-0.82,1.07c-0.02,0.04-0.04,0.08-0.06,0.11c-0.09,0.16-0.17,0.32-0.24,0.49
		c-0.03,0.08-0.05,0.16-0.08,0.24c-0.05,0.13-0.1,0.27-0.14,0.4c-0.02,0.09-0.04,0.19-0.06,0.28c-0.03,0.13-0.06,0.25-0.08,0.38
		c-0.01,0.1-0.01,0.21-0.02,0.31c-0.01,0.12-0.02,0.25-0.02,0.37v47.45l-40.59-23.68c-0.11-0.06-0.22-0.11-0.33-0.16
		c-0.09-0.05-0.18-0.1-0.27-0.14c-0.11-0.05-0.22-0.08-0.33-0.12c-0.1-0.03-0.2-0.08-0.3-0.1c-0.11-0.03-0.22-0.05-0.33-0.07
		c-0.11-0.02-0.21-0.05-0.32-0.07c-0.11-0.02-0.23-0.02-0.34-0.03c-0.11-0.01-0.22-0.02-0.32-0.02c-0.12,0-0.25,0.01-0.37,0.02
		c-0.1,0.01-0.2,0-0.3,0.02c-0.14,0.02-0.28,0.05-0.42,0.08c-0.08,0.02-0.16,0.02-0.24,0.04c-0.16,0.04-0.32,0.1-0.48,0.15
		c-0.05,0.02-0.11,0.03-0.16,0.05c-0.21,0.08-0.42,0.18-0.62,0.29l-46.79,25.99c-0.21,0.11-0.4,0.24-0.59,0.38
		c-0.05,0.04-0.1,0.09-0.15,0.13c-0.13,0.1-0.26,0.21-0.38,0.32c-0.06,0.06-0.11,0.13-0.17,0.19c-0.1,0.1-0.2,0.21-0.28,0.32
		c-0.06,0.08-0.11,0.16-0.16,0.24c-0.07,0.11-0.15,0.21-0.22,0.32c-0.05,0.09-0.09,0.18-0.14,0.27c-0.06,0.11-0.12,0.22-0.17,0.34
		c-0.04,0.09-0.07,0.19-0.1,0.29c-0.04,0.12-0.09,0.23-0.12,0.35c-0.03,0.1-0.04,0.2-0.06,0.31c-0.03,0.12-0.06,0.24-0.08,0.37
		c-0.01,0.1-0.02,0.21-0.02,0.31c-0.01,0.12-0.03,0.24-0.03,0.37c0,0.01,0,0.01,0,0.02c0,0.01,0,0.01,0,0.02v218.33
		c0,0.9,0.23,1.76,0.65,2.51c0,0.01,0,0.03,0,0.04c-0.02,1.87,0.98,3.61,2.6,4.54l191.04,110.47c0.8,0.47,1.7,0.7,2.6,0.7
		c0.89,0,1.78-0.23,2.58-0.68l45.49-25.99c0.55-0.31,1.02-0.72,1.41-1.2c1.16-0.98,1.86-2.42,1.86-3.97V397.2l40.27,23.49
		c0.81,0.47,1.71,0.71,2.62,0.71c0.89,0,1.79-0.23,2.59-0.69c1.61-0.93,2.61-2.65,2.61-4.51V309.39l37.69-21.68v44.67
		c0,1.85,0.98,3.56,2.58,4.49l46.79,27.29c0.81,0.47,1.71,0.71,2.62,0.71c0.89,0,1.79-0.23,2.59-0.69c1.61-0.93,2.61-2.65,2.61-4.51
		V141.34C445.35,139.49,444.37,137.78,442.77,136.85z M159.76,95.39l85.12,48.64v98.98l-38.01-22.5v-49.93
		c0-1.84-0.97-3.55-2.56-4.48c-0.26-0.15-0.53-0.27-0.8-0.37c-0.34-0.36-0.73-0.68-1.16-0.94l-42.58-24.84V95.39z M106.09,120.68
		l83.24,48.56l-29.57,16.89l-5.51,3.15l-4.88-2.81l-79.44-45.7L106.09,120.68z M149.69,198.65v45.19l-38.34-22.32V176.6
		L149.69,198.65z M106.09,230.49l5.26,3.06l38.34,22.32v40.85L69.91,250.6L106.09,230.49z M245.21,462.7L70.56,361.71l36.18-20.1
		l138.47,80.61V462.7z M245.21,410.19l-133.86-77.93v-45.69l133.86,77.4V410.19z M250.42,354.97l-84.99-49.15l35.85-19.92
		l84.21,49.03L250.42,354.97z M293.29,327.45l-86.42-50.31V232.6l40.56,24.01c0.01,0.01,0.03,0.01,0.04,0.02
		c0.01,0.01,0.02,0.01,0.03,0.02c0.1,0.06,0.2,0.1,0.3,0.15c0.1,0.05,0.19,0.1,0.29,0.14c0.12,0.05,0.25,0.09,0.38,0.13
		c0.09,0.03,0.18,0.07,0.27,0.09c0.15,0.04,0.29,0.06,0.44,0.09c0.08,0.01,0.15,0.03,0.22,0.04c0.22,0.03,0.45,0.04,0.68,0.04
		c0.22,0,0.45-0.02,0.67-0.04c0.07-0.01,0.14-0.03,0.22-0.04c0.15-0.03,0.3-0.05,0.45-0.09c0.09-0.02,0.17-0.06,0.25-0.08
		c0.13-0.04,0.26-0.08,0.39-0.14c0.09-0.04,0.17-0.09,0.26-0.13c0.11-0.05,0.22-0.1,0.33-0.16c0.01-0.01,0.02-0.01,0.03-0.02
		c0.01-0.01,0.02-0.01,0.03-0.01l40.58-23.85V327.45z M250.09,135.03l-85.1-48.63l0,0l0,0l85.1-49.21l85.68,49.21L250.09,135.03z
		 M340.08,205.26v45.62v6.02v6.02v34.52v5.99v5.99v5.74v92l-36.39-21.23v-25.61v-71.71v-5.99v-4.5v-6.02v-21.33v-24.13v-47.02
		l36.39,21.23V205.26z M343.97,189.28l-35.08-20.05l79.28-46.24l3.96-2.31l6.44,3.58l29.73,16.51l-40.12,23.08L343.97,189.28z
		 M388.17,175.85v46.98l-37.69,21.98v-46.2c0.32-0.46,0.58-0.97,0.74-1.51L388.17,175.85z M357.95,293.1l-7.47,4.3v-40.55
		l42.95-25.05l36.16,20.09l-31.03,17.85L357.95,293.1z M434.95,350.62l-36.39-21.23v-47.67l36.39-20.94V350.62z M434.95,242.97
		l-36.39-20.22v-52.89l36.39-20.94V242.97z"/>
</g>
</svg>
