<svg id="bloq_logo_blue" data-name="bloq / logo / blue" xmlns="http://www.w3.org/2000/svg" width="78.333" height="40" viewBox="0 0 78.333 40">
  <rect id="bloq_logo_white_background" data-name="bloq / logo / white background" width="78.333" height="40" fill="none"/>
  <g id="Group" transform="translate(0.051 0.008)">
    <g id="bloq_logo_official-Black-01" data-name="bloq logo official-Black-01">
      <path id="Fill_1" data-name="Fill 1" d="M4.938,2.449V28.48A2.469,2.469,0,0,1,0,28.48V2.449A2.468,2.468,0,0,1,4.212.721a2.4,2.4,0,0,1,.727,1.729" transform="translate(24.624 0)" fill="#fff"/>
      <path id="Fill_2" data-name="Fill 2" d="M11.122,30.937a11.292,11.292,0,0,1-2.241-.224A11.138,11.138,0,0,1,1.9,26.076,10.909,10.909,0,0,1,0,19.911,1.979,1.979,0,0,1,.007,19.7.413.413,0,0,1,0,19.6V2.449A2.432,2.432,0,0,1,.723.717a2.484,2.484,0,0,1,3.5,0,2.424,2.424,0,0,1,.719,1.729v8.29a11.142,11.142,0,0,1,6.184-1.861,11.286,11.286,0,0,1,2.24.224,11.124,11.124,0,0,1,6.976,4.639,10.952,10.952,0,0,1,0,12.336,11.117,11.117,0,0,1-6.976,4.637A11.288,11.288,0,0,1,11.122,30.937Zm0-17.2A6.236,6.236,0,0,0,6.971,15.3a6.14,6.14,0,0,0-2.033,3.872,6.018,6.018,0,0,0-.044.736v.118a6.1,6.1,0,0,0,.523,2.361A6.166,6.166,0,0,0,6,23.418,6.248,6.248,0,0,0,16.28,23.36a6.161,6.161,0,0,0,.574-1.048,6.147,6.147,0,0,0,0-4.806,6.167,6.167,0,0,0-.574-1.05,6.226,6.226,0,0,0-5.158-2.724Z" transform="translate(0 0)" fill="#fff"/>
      <path id="Fill_3" data-name="Fill 3" d="M.044,0V.427A2.034,2.034,0,0,1,0,.853V.736A6.039,6.039,0,0,1,.044,0" transform="translate(4.894 19.176)" fill="#0a0b09"/>
      <path id="Fill_4" data-name="Fill 4" d="M11.118,22.057a11.288,11.288,0,0,1-2.241-.224A11.131,11.131,0,0,1,1.9,17.194a10.946,10.946,0,0,1,0-12.332A11.122,11.122,0,0,1,8.877.224a11.314,11.314,0,0,1,4.481,0,11.131,11.131,0,0,1,6.978,4.638,10.947,10.947,0,0,1,0,12.332,11.121,11.121,0,0,1-6.978,4.639A11.283,11.283,0,0,1,11.118,22.057Zm0-17.2A6.235,6.235,0,0,0,5.955,7.575a6.159,6.159,0,0,0-.574,1.049,6.151,6.151,0,0,0,0,4.808,6.162,6.162,0,0,0,.574,1.049,6.248,6.248,0,0,0,10.324,0,6.163,6.163,0,0,0,.574-1.049,6.151,6.151,0,0,0,0-4.808,6.16,6.16,0,0,0-.574-1.049,6.232,6.232,0,0,0-5.161-2.722Z" transform="translate(32.08 8.846)" fill="#fff"/>
      <path id="Fill_5" data-name="Fill 5" d="M.045,0A5.629,5.629,0,0,1,0,.706V.441A2.124,2.124,0,0,1,.045,0" transform="translate(73.293 19.941)" fill="#0a0b09"/>
      <path id="Fill_6" data-name="Fill 6" d="M19.767,31.106a2.434,2.434,0,0,1-1.742-.721,2.4,2.4,0,0,1-.727-1.729V20.2a11.1,11.1,0,0,1-6.184,1.861,11.287,11.287,0,0,1-2.24-.224A11.126,11.126,0,0,1,1.9,17.2a10.956,10.956,0,0,1,0-12.336A11.114,11.114,0,0,1,8.874.224a11.316,11.316,0,0,1,4.481,0,11.136,11.136,0,0,1,6.981,4.639,10.924,10.924,0,0,1,1.9,6.171c0,.108,0,.221-.007.324a.985.985,0,0,1,.007.147V28.657a2.432,2.432,0,0,1-.723,1.732,2.471,2.471,0,0,1-1.746.717ZM11.115,4.855A6.218,6.218,0,0,0,5.383,8.628a6.125,6.125,0,0,0,.574,5.854,6.254,6.254,0,0,0,9.309,1.152A6.13,6.13,0,0,0,17.3,11.769a5.647,5.647,0,0,0,.045-.706v-.029a6.1,6.1,0,0,0-.489-2.405,6.162,6.162,0,0,0-.574-1.05,6.235,6.235,0,0,0-5.165-2.724Z" transform="translate(55.995 8.878)" fill="#fff"/>
    </g>
  </g>
</svg>
