<svg id="Layer_1" data-name="Layer 1" xmlns="http://www.w3.org/2000/svg" viewBox="0 0 424.24 62.98"><defs><style>.cls-1{fill:#050505;}.cls-2{fill:#0d7aff;}</style></defs><path class="cls-1" d="M209.05,266.39h28.83c10.61-.17,22.26,2.59,22.26,15.45,0,5.52-3.28,10-8.11,12.42,6.56,1.9,10.61,7.6,10.61,14.59,0,14.67-10.78,19.15-24,19.15h-29.6Zm16,24.25h12.43c2.76,0,6.56-1.47,6.56-5.87s-3.19-5.95-6.56-5.95H225.1Zm0,24.51H238c5.09,0,8.63-1.82,8.63-6.91,0-5.43-3.8-7.25-8.63-7.25H225.1Z" transform="translate(-209.05 -266.32)"/><path class="cls-1" d="M287.67,281.92c13.89,0,23.64,10.27,23.64,23.73s-9.75,23.65-23.64,23.65-23.56-10.18-23.56-23.65S273.78,281.92,287.67,281.92Zm0,36.16c6.82,0,9-6.73,9-12.43s-2.15-12.51-9-12.51-8.89,6.82-8.89,12.51S280.85,318.08,287.67,318.08Z" transform="translate(-209.05 -266.32)"/><path class="cls-1" d="M315.54,283.22h14.24v6.12H330c2.68-4.57,8.72-7.42,14.07-7.42,14.93,0,16.14,10.88,16.14,17.35V328H345.49V306.34c0-6.12.69-12.34-7.34-12.34-5.52,0-7.94,4.66-7.94,9.58V328H315.54Z" transform="translate(-209.05 -266.32)"/><path class="cls-1" d="M409.26,328h-14v-5.17h-.17a14.31,14.31,0,0,1-12.34,6.47c-14.07,0-20-12.08-20-24.68,0-11.65,6.21-22.7,18.9-22.7,5.52,0,9.75,2.07,12.77,6.13h.17V266.39h14.67Zm-31.84-22.86c0,6.12,2.24,12.94,9,12.94,7.16,0,8.72-6.82,8.72-12.51,0-6.47-2.33-12.43-8.72-12.43C379.66,293.14,377.42,299.44,377.42,305.14Z" transform="translate(-209.05 -266.32)"/><path class="cls-2" d="M415.39,266.39h14.67v21.75h.17c3-4.15,7.25-6.22,12.77-6.22,12.69,0,18.9,11.05,18.9,22.7,0,12.6-5.95,24.68-20,24.68a14.31,14.31,0,0,1-12.34-6.47h-.17V328h-14Zm14.15,38.75c0,7.85,2.24,12.94,8.89,12.94s8.8-6.82,8.8-12.94c0-5.7-2.24-12-8.71-12C434.55,293.14,429.54,295.9,429.54,305.14Z" transform="translate(-209.05 -266.32)"/><path class="cls-2" d="M466.39,266.39h14.67V328H466.39Z" transform="translate(-209.05 -266.32)"/><path class="cls-2" d="M508.5,281.92c13.89,0,23.65,10.27,23.65,23.73s-9.76,23.65-23.65,23.65-23.56-10.18-23.56-23.65S494.61,281.92,508.5,281.92Zm0,36.16c6.82,0,9-6.73,9-12.43s-2.16-12.51-9-12.51-8.89,6.82-8.89,12.51S501.68,318.08,508.5,318.08Z" transform="translate(-209.05 -266.32)"/><rect class="cls-2" x="412.57" y="20.33" width="5.43" height="3.85"/><rect class="cls-2" x="389.63" y="0.01" width="5.43" height="3.86"/><rect class="cls-2" x="420.16" y="29.31" width="4.08" height="2.39"/><rect class="cls-2" x="396.02" y="59.07" width="4.08" height="2.38"/><rect class="cls-2" x="386.06" y="57.17" width="1.41" height="0.97"/><rect class="cls-2" x="384.22" y="44.66" width="1.41" height="0.97"/><rect class="cls-2" x="372.61" y="28.43" width="1.41" height="0.98"/><rect class="cls-2" x="383.65" y="21.8" width="1.41" height="0.97"/><rect class="cls-2" x="403.97" y="17.74" width="1.41" height="0.97"/><rect class="cls-2" x="410.86" y="14.02" width="1.41" height="0.97"/><rect class="cls-2" x="417.3" y="38.41" width="1.41" height="0.97"/><rect class="cls-2" x="405.4" y="44.33" width="1.16" height="0.81"/><rect class="cls-2" x="399.33" y="25.47" width="4.08" height="2.38"/><rect class="cls-2" x="403.35" y="6.24" width="4.08" height="2.39"/><rect class="cls-2" x="382.88" y="9.5" width="4.08" height="2.39"/><rect class="cls-2" x="409.06" y="32.23" width="2.5" height="2.5"/><rect class="cls-2" x="389.66" y="49.72" width="2.5" height="2.5"/><rect class="cls-2" x="388.43" y="27.24" width="2.5" height="2.5"/><rect class="cls-2" x="376.13" y="17.39" width="2.5" height="2.5"/><rect class="cls-2" x="393.84" y="14.92" width="2.5" height="2.5"/><rect class="cls-2" x="393.87" y="37.37" width="5.45" height="3.84"/><rect class="cls-2" x="376.39" y="35.45" width="5.45" height="3.84"/><rect class="cls-2" x="402.66" y="49.88" width="5.45" height="3.84"/><path class="cls-2" d="M588.16,320.11v2h-5.44v-3.84h4.09L571,296.78l4.43-6.26h-2.09v-3.85h4.82l14.4-20.35H573.74l-13.25,19.21-13-19.21h-19L550.1,297l-23.58,32h19.82l14.15-20.43,14.25,20.43h19.88ZM582.37,269h4.08v2.37h-4.08Zm-10.23,5.58h2.49v2.51h-2.49ZM561.8,296.45h-2.51V294h2.51Zm6.88,7.73H567.3v-1h1.38Zm0-19.95h-1.43v-1h1.43Zm5.43,34h-1.44v-1h1.44Zm-.75-5.95v-2.4h4.1v2.4Zm5.35,14.22h-2.49V324h2.49Zm9.33-.35v-1h1.42v1Z" transform="translate(-209.05 -266.32)"/></svg>