<?xml version="1.0" encoding="utf-8"?>
<!-- Generator: Adobe Illustrator 25.2.2, SVG Export Plug-In . SVG Version: 6.00 Build 0)  -->
<svg version="1.1" id="Layer_1" xmlns="http://www.w3.org/2000/svg" xmlns:xlink="http://www.w3.org/1999/xlink" x="0px" y="0px"
	 viewBox="0 0 496.1 70.9" style="enable-background:new 0 0 496.1 70.9;" xml:space="preserve">
<style type="text/css">
	.st0{fill:#E98633;}
</style>
<g>
	<g>
		<path d="M4.4,5.7h21.8c12.6,0,22.9,3.2,22.9,15.1c0,5.2-3,11.2-7.6,13v0.4c5.8,1.7,10.4,6.1,10.4,14.1c0,12.5-10.8,17.9-23.8,17.9
			H4.4V5.7z M25.8,29.4c5.2,0,7.6-2.4,7.6-6.1c0-3.7-2.4-5.2-7.6-5.2h-5.4v11.3H25.8z M27,53.9c6.3,0,9.3-2.2,9.3-6.7
			s-3-6.1-9.3-6.1h-6.5v12.8H27z"/>
		<path d="M57.6,42.9c0-15.4,11.2-24.4,23.1-24.4s23.1,8.9,23.1,24.4S92.6,67.3,80.7,67.3S57.6,58.4,57.6,42.9z M87.4,42.9
			c0-7.1-1.9-11.5-6.7-11.5c-4.8,0-6.7,4.5-6.7,11.5s1.9,11.5,6.7,11.5C85.5,54.5,87.4,50,87.4,42.9z"/>
		<path d="M112.1,19.7h13l1.1,5.6h0.4c3.7-3.5,8.4-6.7,14.7-6.7c10.2,0,14.5,7.4,14.5,19v28.6h-16V39.6c0-6-1.5-7.4-4.7-7.4
			c-3,0-4.6,1.3-7.1,3.5v30.5h-16V19.7z"/>
		<path d="M164.2,42.9c0-15.3,9.5-24.4,19-24.4c5,0,8,1.9,10.8,4.6l-0.6-6.7V1.5h16v64.7h-13l-1.1-4.3h-0.4
			c-3.2,3.2-7.6,5.4-11.7,5.4C171.7,67.3,164.2,58,164.2,42.9z M193.4,50.9V33.8c-1.9-1.7-4.3-2.2-6.3-2.2c-3.3,0-6.5,3-6.5,11.2
			c0,8.4,2.6,11.5,6.9,11.5C189.9,54.3,191.7,53.5,193.4,50.9z"/>
		<path class="st0" d="M221.5,5.7h39.1v13.4h-23.1v9.5h19.7V42h-19.7v10.8h24v13.4h-40V5.7z"/>
		<path class="st0" d="M267.6,19.7h16l5,20.3c1.1,4.6,2.2,9.5,3.3,14.5h0.4c1.1-5,2.2-9.9,3.3-14.5l5-20.3H316l-14.7,46.5h-18.4
			L267.6,19.7z"/>
		<path class="st0" d="M320.6,53c0-9.7,7.4-15.1,25.3-16.9c-0.4-3.3-2.4-4.8-6.5-4.8c-3.3,0-6.9,1.3-11.7,3.9l-5.6-10.4
			c6.5-3.9,13.2-6.1,20.5-6.1c12.1,0,19.3,6.5,19.3,21.8v25.9h-13l-1.1-4.5h-0.4c-3.7,3.3-7.8,5.6-12.8,5.6
			C325.8,67.3,320.6,60.6,320.6,53z M345.9,51.9v-6.3c-7.6,1.1-10,3.5-10,6.1c0,2.1,1.5,3.3,4.3,3.3C342.8,55,344.3,53.7,345.9,51.9
			z"/>
		<path class="st0" d="M372.3,49.8V1.5h16v48.9c0,3.2,1.5,4.1,2.6,4.1c0.6,0,0.9,0,1.7-0.2l1.9,11.7c-1.7,0.7-4.3,1.3-7.8,1.3
			C375.9,67.3,372.3,60.2,372.3,49.8z"/>
		<path class="st0" d="M399.7,48.3V19.7h16v26.6c0,6,1.5,7.4,4.7,7.4c3,0,4.6-1.1,6.7-4.1V19.7h16v46.5h-13l-1.1-6.1h-0.4
			c-3.7,4.5-8,7.3-14.3,7.3C404,67.3,399.7,59.9,399.7,48.3z"/>
		<path class="st0" d="M451.4,42.9c0-15.1,11-24.4,22.3-24.4c13.8,0,20.3,10,20.3,22.5c0,2.8-0.4,5.6-0.7,6.7h-26.5
			c1.5,5.6,5.6,7.4,10.8,7.4c3.2,0,6.1-0.9,9.5-2.8l5.2,9.5c-5,3.5-11.7,5.4-16.9,5.4C461.8,67.3,451.4,58.4,451.4,42.9z
			 M480.4,37.4c0-3.5-1.5-6.7-6.3-6.7c-3.5,0-6.5,2-7.4,6.7H480.4z"/>
	</g>
</g>
</svg>
