<svg height="249.209276" viewBox="0 0 25.261781 15.564554" width="401.269173" xmlns="http://www.w3.org/2000/svg"><g transform="translate(-57.04902 -196.85924)"><path d="m62.120554 201.77026c-1.004006 0-1.967794.32138-2.690636.78317v-5.5619h-2.248606v15.05903h1.325034l.361597-.80293c.883355.64241 1.907469 1.04387 3.252611 1.04387 2.931583 0 4.015669-1.96779 4.015669-5.26062 0-3.27272-1.084086-5.26062-4.015669-5.26062m-.522111 1.90747c1.967794 0 2.269067 1.50601 2.269067 3.35315 0 1.86725-.301273 3.35315-2.269067 3.35315-1.063978 0-1.766711-.36159-2.168525-.58243v-5.54143c.401814-.22084 1.104547-.58244 2.168525-.58244m7.382933 1.22484c0-.90346.74295-1.24495 1.927578-1.24495 1.265061 0 2.208741.24095 3.071989.56233v-1.94769c-.783167-.34113-1.746956-.502-3.112206-.502-2.951691 0-4.075994 1.46579-4.075994 3.19264 0 1.72649.74295 2.67053 3.774722 2.93123 1.345142.12065 1.666522.502 1.666522 1.24495 0 .88336-.783167 1.24495-2.389364 1.24495-1.264708 0-2.329039-.32138-2.991555-.56232v1.92757c.682625.28117 1.927578.54222 3.312936.54222 3.212747 0 4.276725-1.506 4.276725-3.2325 0-1.8676-.783167-2.77107-3.794831-3.03212-1.305277-.1203-1.666522-.42157-1.666522-1.12431m9.02723 7.28839c.240948 0 .441678-.0399.441678-.0399v-1.82735c-.642408 0-.843139-.20073-.843139-.76306v-7.54944h-2.248958v7.56955c0 1.72685.823383 2.6102 2.650419 2.6102m-2.991908-13.1512c0 .80292.66287 1.46544 1.466145 1.46544.802922 0 1.465438-.66252 1.465438-1.46544 0-.80327-.662516-1.46614-1.465438-1.46614-.803275 0-1.466145.66287-1.466145 1.46614"/><path d="m79.24728 210.82571c0 .80327.662517 1.46579 1.465792 1.46579.802922 0 1.465438-.66252 1.465438-1.46579s-.662516-1.46579-1.465438-1.46579c-.803275 0-1.465792.66252-1.465792 1.46579" fill="#e42313"/></g></svg>