<svg id="Layer_1" data-name="Layer 1" xmlns="http://www.w3.org/2000/svg" xmlns:xlink="http://www.w3.org/1999/xlink" viewBox="0 0 868.14 291.16"><defs><style>.cls-1{fill:none;}.cls-2{clip-path:url(#clip-path);}.cls-3{fill:#0f1c30;}.cls-4{clip-path:url(#clip-path-2);}.cls-5{clip-path:url(#clip-path-3);}.cls-6{fill:#d81f34;}.cls-7{clip-path:url(#clip-path-4);}.cls-8{fill:#3d4597;}</style><clipPath id="clip-path"><polygon class="cls-1" points="207.24 82.21 248.34 41.1 78.78 41.1 78.78 82.21 207.24 82.21 207.24 82.21"/></clipPath><clipPath id="clip-path-2"><polygon class="cls-1" points="39.39 250.05 80.92 207.92 207.22 207.92 208.88 250.11 39.39 250.05 39.39 250.05"/></clipPath><clipPath id="clip-path-3"><polygon class="cls-1" points="41.1 0 0 41.58 0 291.12 248.34 291.16 248.34 41.1 207.23 82.21 207.23 250.04 41.1 250.04 41.1 0 41.1 0"/></clipPath><clipPath id="clip-path-4"><polygon class="cls-1" points="41.1 250.05 82.22 207.92 82.22 41.1 248.34 41.11 248.34 291.16 291.16 250.04 291.16 0 41.1 0 41.1 250.05 41.1 250.05"/></clipPath></defs><title>BTP-colour</title><g class="cls-2"><rect class="cls-3" x="70.22" y="32.54" width="186.69" height="58.23"/></g><g class="cls-4"><rect class="cls-3" x="30.83" y="199.36" width="186.61" height="59.32"/></g><g class="cls-5"><rect class="cls-6" x="-8.56" y="-8.56" width="265.47" height="308.28"/></g><g class="cls-7"><rect class="cls-8" x="32.54" y="-8.56" width="267.18" height="308.28"/></g><path class="cls-8" d="M333.67,250.67V41.83h109.9c39.77,0,60.12,25.36,60.12,53.23,0,26-16.28,43.83-36,47.9,22.55,3.45,40.08,25,40.08,51,0,31.62-20.66,56.67-60.74,56.67Zm124.43-147c0-12.39-9.07-21.15-23.57-21.15H376.76v42.3h57.77C449,124.8,458.1,116.64,458.1,103.65Zm3.9,82.66c0-12.36-8.83-22.37-25-22.37H376.76v44.74H437C452.58,208.68,462,200.44,462,186.31Z"/><path class="cls-8" d="M573.33,250.15V82.53H511.51V41.83H678.09v40.7h-62V250.15Z"/><path class="cls-8" d="M700.31,250.15V41.83H798c45.4,0,70.14,30.68,70.14,67.32,0,36.32-25,67-70.14,67H742.79v74ZM822.69,109.91c0-17.06-13.09-27.41-30.15-27.41H742.79V137h49.75C809.6,137,822.69,126.66,822.69,109.91Z"/></svg>