<svg width="126" height="23" viewBox="0 0 126 23" fill="none" xmlns="http://www.w3.org/2000/svg">
<path d="M89.6068 0C90.4647 0 91.0546 0.592506 91.0546 1.38251C91.0546 2.17252 90.4826 2.76503 89.6068 2.76503C88.7666 2.76503 88.2125 2.17252 88.2125 1.38251C88.2125 0.592506 88.7845 0 89.6068 0ZM68.711 5.74551H64.6534V7.30757H66.7448V16.4824H64.6534V18.0445H70.8024V16.4824H68.711V5.74551ZM67.138 0C66.2979 0 65.7438 0.592506 65.7438 1.38251C65.7438 2.17252 66.2979 2.76503 67.138 2.76503C67.996 2.76503 68.5859 2.17252 68.5859 1.38251C68.5859 0.592506 68.0139 0 67.138 0ZM54.4111 16.4106C56.717 16.4106 59.2373 15.2436 59.2373 9.91101C59.2373 4.30913 56.5919 3.6089 54.3754 3.6089H51.712V16.4106H54.4111ZM53.8927 1.95706C57.6643 1.95706 61.4002 3.24981 61.4002 9.91101C61.4002 16.662 57.4677 18.0445 54.143 18.0445H49.6922V1.95706H53.8927ZM38.9136 13.5917C38.9136 10.5394 36.7329 9.48009 34.2125 8.7619C31.1738 7.88212 30.1907 7.18189 30.1907 5.79938C30.1907 4.18345 31.6385 3.4114 33.3903 3.4114C34.7309 3.4114 36.0894 3.86027 37.2334 4.86573L38.4489 3.55503C37.1082 2.38798 35.5174 1.7057 33.3366 1.7057C30.2622 1.7057 28.1529 3.42935 28.1529 5.85324C28.1529 8.40281 30.137 9.56987 33.3188 10.5035C36.0536 11.2935 36.8044 12.0656 36.8044 13.6276C36.8044 15.6565 35.0348 16.6081 33.0864 16.6081C31.138 16.6081 29.7617 15.9258 28.6534 14.8845L27.4379 16.267C28.7785 17.5777 30.709 18.2959 33.0685 18.2959C36.7865 18.2959 38.9136 16.3747 38.9136 13.5917ZM20.431 3.71663H25.2572L25.4717 1.95706H13.424V3.71663H18.429V18.0445H20.4489V3.71663H20.431ZM5.45184 16.3747C7.00695 16.3747 8.95531 15.9258 8.95531 13.5558C8.95531 11.096 7.4002 10.5035 5.52334 10.5035H2.01986V16.3927H5.45184V16.3747ZM2.01986 8.79781H5.38034C7.2572 8.79781 8.32969 8.00781 8.32969 6.14051C8.32969 4.29118 7.1142 3.62685 5.18371 3.62685H2.01986V8.79781ZM7.4002 9.53396C9.18769 9.83919 11.1003 10.7549 11.1003 13.484C11.1003 16.9852 8.02582 18.0625 5.11221 18.0625H0V1.95706H4.71897C7.52532 1.95706 10.3853 2.87276 10.3853 6.01483C10.4032 8.09758 8.93744 9.17486 7.4002 9.53396ZM74.86 9.76737C74.86 11.4551 75.7716 12.6401 77.7736 12.6401C79.5253 12.6401 80.4548 11.5628 80.4548 9.74941C80.4548 7.90008 79.5432 6.94848 77.7378 6.94848C75.7358 6.93052 74.86 8.09758 74.86 9.76737ZM79.2215 15.9258C81.6882 15.9258 83.5472 17.3443 83.5472 19.2654C83.5472 21.6714 81.4379 23 77.72 23V21.42C80.4012 21.42 81.5809 20.7197 81.5809 19.3911C81.5809 18.224 80.4012 17.6315 78.8461 17.6315H76.6653C74.5204 17.6315 73.573 16.5363 73.573 15.2974C73.573 14.5254 74.0377 13.7354 74.9136 13.1429C73.5194 12.4247 72.8759 11.3474 72.8759 9.74941C72.8759 7.25371 74.8779 5.47619 77.7557 5.47619C78.9176 5.47619 79.9007 5.78142 80.6872 6.28415C81.0447 5.97892 81.6167 5.76347 82.4568 5.76347H83.3863V7.32553H82.4568C82.135 7.32553 81.9384 7.37939 81.8133 7.4153C82.2423 8.07963 82.4747 8.86963 82.4747 9.74941C82.4747 12.1733 80.7766 13.9329 77.8808 13.9329C77.0586 13.9329 76.576 13.861 76.0397 13.6815C75.6822 13.9688 75.4141 14.4356 75.4141 14.8665C75.4141 15.459 75.7895 15.9258 77.0407 15.9258H79.2215ZM91.1797 16.4824V5.74551H89.3386H87.1221V7.28962V7.30757H89.2135V16.4824H87.1221V18.0445H93.2711V16.4824H91.1797ZM104.014 16.0874C103.37 16.4465 102.566 16.6799 101.672 16.6799C99.9921 16.6799 99.3307 15.9617 99.3307 14.5972V7.28962H104.103L104.354 5.74551H99.3307V2.72912L97.3823 2.96253V5.74551H95.1658V7.28962H97.3823V14.6151C97.3823 16.7697 98.8659 18.2959 101.494 18.2959C102.655 18.2959 103.942 17.9727 104.8 17.4161L104.014 16.0874ZM115.15 11.9219H113.38C110.681 11.9219 109.716 12.9094 109.716 14.4895C109.716 16.0336 110.467 16.8236 112.058 16.8236C113.273 16.8236 114.435 16.1772 115.15 15.064V11.9219ZM117.134 15.3513C117.134 16.3388 117.438 16.6979 118.135 16.9133L117.652 18.3138C116.598 18.1702 115.74 17.6854 115.418 16.5543C114.542 17.7034 113.166 18.2779 111.575 18.2779C109.108 18.2779 107.625 16.7877 107.625 14.4895C107.625 11.9758 109.644 10.5394 113.345 10.5394H115.15V9.53396C115.15 7.73848 114.06 7.07416 112.236 7.07416C111.414 7.07416 110.306 7.25371 109.055 7.70258L108.518 6.21233C110.038 5.67369 111.325 5.44028 112.54 5.44028C115.579 5.44028 117.116 6.98439 117.116 9.40827V15.3513H117.134ZM123.837 16.4824V0.790008H118.117V2.35207H121.889V18.0445H123.784H123.837H126V16.4824H123.837ZM45.7776 10.6292C45.7776 9.80328 45.0804 9.13895 44.2403 9.13895C43.4002 9.13895 42.7031 9.80328 42.7031 10.6292C42.7031 11.4551 43.4002 12.1194 44.2403 12.1194C45.0804 12.1194 45.7776 11.4551 45.7776 10.6292Z" fill="#E5E5E5"/>
</svg>
