<?xml version="1.0" encoding="utf-8"?>
<!-- Generator: Adobe Illustrator 23.0.3, SVG Export Plug-In . SVG Version: 6.00 Build 0)  -->
<svg version="1.1" id="Layer_1" xmlns="http://www.w3.org/2000/svg" xmlns:xlink="http://www.w3.org/1999/xlink" x="0px" y="0px"
	 viewBox="0 0 400 245" style="enable-background:new 0 0 400 245;" xml:space="preserve">
<style type="text/css">
	.st0{fill:#E01B22;}
	.st1{fill:#4064AD;}
	.st2{fill:#E98300;}
	.st3{fill:#00549F;}
	.st4{fill-rule:evenodd;clip-rule:evenodd;}
	.st5{fill-rule:evenodd;clip-rule:evenodd;fill:#C9243A;}
	.st6{fill-rule:evenodd;clip-rule:evenodd;fill:#231F20;}
	.st7{fill-rule:evenodd;clip-rule:evenodd;fill:#7C848A;}
	.st8{fill:#EE3B29;}
	.st9{fill:#7C848A;}
	.st10{fill:#0F0F59;}
	.st11{fill:#F42A4D;}
	.st12{fill:#DA2128;}
	.st13{fill-rule:evenodd;clip-rule:evenodd;fill:#12ABDB;}
	.st14{fill-rule:evenodd;clip-rule:evenodd;fill:#0070AD;}
	.st15{fill:#929497;}
	.st16{fill:#231F20;}
	.st17{fill:#00ADEE;}
	.st18{fill:#2E3191;}
	.st19{fill:#EC1C24;}
	.st20{fill:#0082C9;}
	.st21{fill:#6D67AE;}
	.st22{fill:#2B62AD;}
	.st23{fill:#404041;}
	.st24{fill:#273B5B;}
	.st25{fill:#39B54A;}
	.st26{fill:#474749;}
	.st27{fill:#009245;}
	.st28{fill:#DDDDDD;}
	.st29{fill:#FFFFFF;}
	.st30{fill:url(#SVGID_1_);}
	.st31{fill:url(#SVGID_2_);}
	.st32{fill:url(#SVGID_3_);}
	.st33{fill:url(#SVGID_4_);}
	.st34{fill:url(#SVGID_5_);}
	.st35{fill:url(#SVGID_6_);}
	.st36{fill:url(#SVGID_7_);}
	.st37{fill:url(#SVGID_8_);}
	.st38{fill:url(#SVGID_9_);}
	.st39{fill:url(#SVGID_10_);}
	.st40{fill:url(#SVGID_11_);}
	.st41{fill:url(#SVGID_12_);}
	.st42{fill:url(#SVGID_13_);}
	.st43{fill:url(#SVGID_14_);}
	.st44{fill:url(#SVGID_15_);}
	.st45{fill:url(#SVGID_16_);}
	.st46{fill:url(#SVGID_17_);}
	.st47{fill:#59595C;}
	.st48{fill:#1D7DB9;}
	.st49{fill:#121110;}
	.st50{fill:#010101;}
	.st51{fill:#663795;}
	.st52{fill:#09324A;stroke:#1B75BB;stroke-width:0.6975;stroke-miterlimit:10;}
	.st53{fill:#002432;stroke:#1B75BB;stroke-width:1.0463;stroke-miterlimit:10;}
	.st54{fill-rule:evenodd;clip-rule:evenodd;fill:#E73836;}
	.st55{fill:#231916;}
	.st56{fill:#E73836;}
	.st57{fill:#8C9091;}
	.st58{fill-rule:evenodd;clip-rule:evenodd;fill:#365072;}
	.st59{fill:#365072;}
	.st60{fill:#0093D7;}
	.st61{clip-path:url(#SVGID_19_);fill:url(#SVGID_20_);}
	.st62{clip-path:url(#SVGID_22_);fill:url(#SVGID_23_);}
	.st63{clip-path:url(#SVGID_25_);fill:url(#SVGID_26_);}
	.st64{clip-path:url(#SVGID_28_);fill:url(#SVGID_29_);}
	.st65{clip-path:url(#SVGID_31_);fill:url(#SVGID_32_);}
	.st66{clip-path:url(#SVGID_34_);fill:url(#SVGID_35_);}
	.st67{clip-path:url(#SVGID_37_);fill:url(#SVGID_38_);}
	.st68{clip-path:url(#SVGID_40_);fill:url(#SVGID_41_);}
	.st69{clip-path:url(#SVGID_43_);fill:url(#SVGID_44_);}
	.st70{clip-path:url(#SVGID_68_);}
	.st71{clip-path:url(#SVGID_79_);}
	.st72{fill:#00A9E6;}
	.st73{fill:#4D4D4F;}
	.st74{fill:#898B8D;}
	.st75{fill:#04B3AC;}
	.st76{fill:#A4A2A0;}
	.st77{fill:#D0CFCE;}
	.st78{fill:#74777C;}
	.st79{fill:none;stroke:#ED3024;stroke-width:0.4269;}
	.st80{fill:#A2A4A8;}
	.st81{fill:#3F7BA3;}
	.st82{enable-background:new    ;}
	.st83{fill:#E8B520;}
	.st84{fill:#D27D41;}
	.st85{fill:#0B74BB;}
	.st86{fill:#702784;}
	.st87{fill:#AD2E91;}
	.st88{fill:#ED3694;}
	.st89{fill:#004E9A;}
	.st90{clip-path:url(#SVGID_82_);fill:url(#SVGID_83_);}
	.st91{clip-path:url(#SVGID_85_);fill:url(#SVGID_86_);}
	.st92{clip-path:url(#SVGID_88_);fill:url(#SVGID_89_);}
	.st93{fill:#0898CC;}
	.st94{fill:#12284C;}
	.st95{fill-rule:evenodd;clip-rule:evenodd;fill:#84BE42;}
	.st96{fill-rule:evenodd;clip-rule:evenodd;fill:#C1C0C0;}
	.st97{clip-path:url(#SVGID_91_);fill:#84BE42;}
	.st98{fill:#0066A5;}
	.st99{fill:#F05A22;}
	.st100{clip-path:url(#SVGID_93_);}
	.st101{clip-path:url(#SVGID_95_);fill:#1D1D1B;}
	.st102{clip-path:url(#SVGID_97_);}
	.st103{clip-path:url(#SVGID_99_);fill:#1D1D1B;}
	.st104{clip-path:url(#SVGID_101_);}
	.st105{clip-path:url(#SVGID_103_);fill:#1D1D1B;}
	.st106{clip-path:url(#SVGID_105_);}
	.st107{clip-path:url(#SVGID_107_);fill:#1D1D1B;}
	.st108{clip-path:url(#SVGID_109_);}
	.st109{clip-path:url(#SVGID_111_);fill:#1D1D1B;}
	.st110{clip-path:url(#SVGID_113_);}
	.st111{clip-path:url(#SVGID_115_);fill:#1D1D1B;}
	.st112{clip-path:url(#SVGID_117_);}
	.st113{clip-path:url(#SVGID_119_);fill:#1D9DD9;}
	.st114{clip-path:url(#SVGID_121_);}
	.st115{clip-path:url(#SVGID_123_);fill:#1D1D1B;}
	.st116{clip-path:url(#SVGID_125_);}
	.st117{clip-path:url(#SVGID_127_);fill:#1D9DD9;}
	.st118{clip-path:url(#SVGID_129_);}
	.st119{clip-path:url(#SVGID_131_);fill:#1D1D1B;}
	.st120{clip-path:url(#SVGID_133_);}
	.st121{clip-path:url(#SVGID_135_);fill:#1D9DD9;}
	.st122{clip-path:url(#SVGID_137_);}
	.st123{clip-path:url(#SVGID_139_);fill:#1D1D1B;}
	.st124{clip-path:url(#SVGID_141_);}
	.st125{clip-path:url(#SVGID_143_);fill:#1D9DD9;}
	.st126{clip-path:url(#SVGID_145_);}
	.st127{clip-path:url(#SVGID_147_);fill:#1D1D1B;}
	.st128{fill:#D44432;}
	.st129{fill:#272525;}
	.st130{fill:url(#SVGID_148_);}
	.st131{fill:url(#SVGID_149_);}
	.st132{fill:url(#SVGID_150_);}
	.st133{fill:#002B54;}
	.st134{fill:#B2B1B1;}
	.st135{fill:#E1134F;}
	.st136{fill:#454547;}
	.st137{fill:#00B4D0;}
	.st138{fill:#4564A7;}
	.st139{fill:#0088EE;}
	.st140{fill:#026FC2;}
	.st141{fill:#009FEE;}
	.st142{fill:#00BEEE;}
	.st143{fill:#00AFEE;}
	.st144{fill-rule:evenodd;clip-rule:evenodd;fill:#224099;}
	.st145{clip-path:url(#SVGID_152_);}
	.st146{clip-path:url(#SVGID_156_);}
	.st147{fill:#203260;}
	.st148{fill-rule:evenodd;clip-rule:evenodd;fill:#989A9D;}
	.st149{fill-rule:evenodd;clip-rule:evenodd;fill:#DF068C;}
	.st150{fill:#2E3437;}
	.st151{fill:#989FA4;}
	.st152{fill:#E1DE22;}
	.st153{fill-rule:evenodd;clip-rule:evenodd;fill:#86171D;}
	.st154{fill-rule:evenodd;clip-rule:evenodd;fill:#FFFFFF;}
	.st155{fill:none;stroke:#86171D;stroke-width:6.1349;stroke-miterlimit:10;}
	.st156{fill:#1F1F1F;}
	.st157{fill:#009590;}
	.st158{fill:#ED1651;}
</style>
<g id="btslogo" transform="translate(164.000000, 126.000000)">
	<path id="Shape_70_" class="st1" d="M-120.58-20.38c-1.33-1.02-3.49-1.54-6.46-1.54h-6.49v12.6h6.9c2.89-0.03,4.96-0.55,6.19-1.58
		c1.24-1.03,1.85-2.54,1.85-4.54C-118.58-17.72-119.25-19.38-120.58-20.38z M-124.24-0.69h-9.28v13.08h8.68
		c2.39,0,4.23-0.54,5.52-1.61c1.28-1.11,1.92-2.64,1.92-4.62C-117.41,1.62-119.69-0.67-124.24-0.69z M-124.24-0.69h-9.28v13.08h8.68
		c2.39,0,4.23-0.54,5.52-1.61c1.28-1.11,1.92-2.64,1.92-4.62C-117.41,1.62-119.69-0.67-124.24-0.69z M-120.43-10.89
		c1.24-1.03,1.85-2.54,1.85-4.54c0-2.3-0.67-3.95-2-4.95c-1.33-1.02-3.49-1.54-6.46-1.54h-6.49v12.6h6.9
		C-123.73-9.34-121.66-9.87-120.43-10.89z M-162.17-47.07v86.39H4.55v-86.39H-162.17z M-109.33,18.43
		c-3.4,2.68-8.44,4.04-15.14,4.08h-22.31v-54.59h19.74c7.08,0,12.45,1.29,16.13,3.86c3.7,2.58,5.55,6.31,5.55,11.21
		c0,2.83-0.65,5.24-1.96,7.24c-1.31,2-3.24,3.48-5.77,4.43c2.86,0.75,5.07,2.15,6.61,4.2c1.53,2.05,2.3,4.55,2.3,7.5
		C-104.2,11.71-105.9,15.73-109.33,18.43z M-54.77-21.92h-16.5v44.43h-13.25v-44.43h-16.19v-10.16h45.95V-21.92z M-34.39-13.56
		c1.51,1.13,4.17,2.3,7.96,3.53c3.8,1.2,6.92,2.49,9.37,3.9c5.93,3.4,8.9,8.09,8.9,14.07c0,4.77-1.81,8.52-5.43,11.25
		c-3.62,2.73-8.59,4.08-14.91,4.08c-4.46,0-8.5-0.79-12.12-2.36c-3.6-1.61-6.32-3.78-8.15-6.52c-1.81-2.78-2.72-5.96-2.72-9.56
		h13.29c0,2.93,0.75,5.08,2.27,6.49c1.53,1.37,4.01,2.06,7.43,2.06c2.19,0,3.92-0.46,5.18-1.39c1.28-0.95,1.92-2.27,1.92-3.98
		c0-1.92-0.7-3.42-2.08-4.49c-1.36-1.08-3.77-2.19-7.21-3.34c-3.45-1.14-6.27-2.26-8.46-3.33c-7.12-3.47-10.69-8.25-10.69-14.32
		c0-3.02,0.89-5.69,2.64-7.99c1.79-2.33,4.3-4.12,7.55-5.4c3.25-1.3,6.9-1.96,10.95-1.96c3.96,0,7.49,0.7,10.61,2.1
		c3.14,1.4,5.59,3.4,7.33,6c1.74,2.58,2.6,5.52,2.6,8.85h-13.21c0-2.23-0.7-3.96-2.08-5.18c-1.36-1.23-3.21-1.84-5.55-1.84
		c-2.36,0-4.24,0.53-5.62,1.58c-1.36,1.02-2.04,2.34-2.04,3.94C-36.65-15.98-35.89-14.7-34.39-13.56z M-124.24-0.69h-9.28v13.08
		h8.68c2.39,0,4.23-0.54,5.52-1.61c1.28-1.11,1.92-2.64,1.92-4.62C-117.41,1.62-119.69-0.67-124.24-0.69z M-120.43-10.89
		c1.24-1.03,1.85-2.54,1.85-4.54c0-2.3-0.67-3.95-2-4.95c-1.33-1.02-3.49-1.54-6.46-1.54h-6.49v12.6h6.9
		C-123.73-9.34-121.66-9.87-120.43-10.89z"/>
	<path id="Shape_71_" class="st1" d="M56.55-17.85c-2.17-4-5.19-7.09-9.06-9.26c-3.88-2.2-8.25-3.3-13.1-3.3H16.68v54.56h18.09
		c4.75-0.02,9.06-1.15,12.91-3.37c3.87-2.25,6.87-5.35,8.99-9.29c2.14-3.98,3.21-8.46,3.21-13.46v-2.51
		C59.85-9.42,58.74-13.87,56.55-17.85z M46.35-1.96c0,5.3-1.02,9.3-3.05,12c-2.04,2.67-4.96,4.01-8.76,4.01h-4.61v-34.29h4.46
		c3.9,0,6.87,1.33,8.91,4.01c2.04,2.68,3.05,6.65,3.05,11.92V-1.96z"/>
	<path id="Shape_72_" class="st1" d="M78.33-31.72c-1.33-1.14-3.07-1.71-5.2-1.71c-2.13,0-3.86,0.57-5.2,1.71
		c-1.33,1.14-2,2.61-2,4.4c0,1.79,0.67,3.25,2,4.4c1.33,1.14,3.07,1.71,5.2,1.71c2.13,0,3.86-0.57,5.2-1.71c1.33-1.14,2-2.61,2-4.4
		C80.33-29.11,79.67-30.58,78.33-31.72z M66.71-16.92V23.4h13.01v-40.32H66.71z"/>
	<path id="Shape_73_" class="st1" d="M112.76-16.77l-0.45,3.55c-2.39-2.86-5.7-4.3-9.94-4.3c-3.36,0-6.32,0.86-8.85,2.6
		c-2.54,1.71-4.49,4.15-5.84,7.31c-1.36,3.17-2.03,6.81-2.03,10.94v0.45c0,6.38,1.53,11.49,4.59,15.31
		c3.07,3.79,7.09,5.69,12.06,5.69c3.72,0,6.79-1.35,9.23-4.04v1.29c0,5.77-2.81,8.67-8.44,8.67c-3.86,0-6.98-1.4-9.34-4.19
		l-5.31,7.46c1.48,1.81,3.61,3.28,6.4,4.41c2.81,1.13,5.71,1.7,8.7,1.7c4.17,0,7.84-0.72,11-2.15c3.17-1.4,5.58-3.44,7.24-6.1
		c1.68-2.64,2.52-5.76,2.52-9.35v-39.24H112.76z M111.52,12.22c-1.26,1.83-3.25,2.75-5.99,2.75c-2.27,0-4.02-0.96-5.27-2.9
		c-1.26-1.96-1.89-4.61-1.89-7.95c0-3.84,0.64-6.77,1.92-8.78c1.28-2.04,3.05-3.05,5.3-3.05c2.71,0,4.68,0.93,5.92,2.79V12.22z"/>
	<path id="Shape_74_" class="st1" d="M144.26-31.72c-1.33-1.14-3.07-1.71-5.2-1.71c-2.13,0-3.86,0.57-5.2,1.71
		c-1.33,1.14-2,2.61-2,4.4c0,1.79,0.67,3.25,2,4.4c1.33,1.14,3.07,1.71,5.2,1.71c2.13,0,3.86-0.57,5.2-1.71c1.33-1.14,2-2.61,2-4.4
		C146.26-29.11,145.6-30.58,144.26-31.72z M132.64-16.92V23.4h13.01v-40.32H132.64z"/>
	<path id="Shape_75_" class="st1" d="M167.83-26.61v10.11h6.66v8.8h-6.66V10.9c0,1.53,0.27,2.59,0.82,3.19
		c0.55,0.6,1.63,0.9,3.26,0.9c1.25,0,2.3-0.08,3.14-0.23v9.06c-2.27,0.73-4.64,1.09-7.11,1.09c-4.34,0-7.55-1.03-9.62-3.08
		c-2.07-2.05-3.11-5.17-3.11-9.36V-7.71h-5.17v-8.8h5.17v-10.11H167.83z"/>
	<path id="Shape_76_" class="st1" d="M214.23,14.32V-3.48c-0.08-4.36-1.64-7.79-4.68-10.29c-3.05-2.5-7.19-3.75-12.44-3.75
		c-5.25,0-9.57,1.21-12.97,3.64c-3.37,2.43-5.05,5.59-5.05,9.47h12.81c0-2.92,1.52-4.38,4.57-4.38c3.27,0,4.9,1.84,4.9,5.53v2.12
		h-3.96c-6.29,0-11.08,1.11-14.38,3.34c-3.3,2.23-4.95,5.52-4.95,9.88c0,3.46,1.36,6.35,4.07,8.65c2.71,2.28,6.01,3.42,9.89,3.42
		c4.24,0,7.53-1.45,9.9-4.35c0.36,1.59,0.76,2.79,1.21,3.61h12.82v-0.63C214.87,20.83,214.28,18.01,214.23,14.32z M201.37,11.97
		c-0.45,0.84-1.21,1.6-2.28,2.27c-1.04,0.67-2.36,1.01-3.96,1.01c-1.22,0-2.22-0.35-3.01-1.05c-0.78-0.71-1.17-1.64-1.17-2.78
		c0-3.92,2.23-5.87,6.69-5.87h3.73V11.97z"/>
	<polygon id="Shape_77_" class="st1" points="234.17,24.16 221.29,24.16 221.29,-33.43 234.17,-33.43 	"/>
</g>
</svg>
