<svg xmlns="http://www.w3.org/2000/svg" xmlns:xlink="http://www.w3.org/1999/xlink" width="1200" zoomAndPan="magnify" viewBox="0 0 900 299.999988" height="400" preserveAspectRatio="xMidYMid meet" version="1.0"><defs><g/><clipPath id="f77efc73e2"><path d="M 34.757812 34.757812 L 265.242188 34.757812 L 265.242188 265.242188 L 34.757812 265.242188 Z M 34.757812 34.757812 " clip-rule="nonzero"/></clipPath><clipPath id="5616a344f4"><path d="M 150 34.757812 C 86.355469 34.757812 34.757812 86.355469 34.757812 150 C 34.757812 213.644531 86.355469 265.242188 150 265.242188 C 213.644531 265.242188 265.242188 213.644531 265.242188 150 C 265.242188 86.355469 213.644531 34.757812 150 34.757812 Z M 150 34.757812 " clip-rule="nonzero"/></clipPath><clipPath id="aabff2974f"><path d="M 90.382812 115 L 151 115 L 151 218.996094 L 90.382812 218.996094 Z M 90.382812 115 " clip-rule="nonzero"/></clipPath><clipPath id="65993f9915"><path d="M 90.382812 81.277344 L 209.628906 81.277344 L 209.628906 150 L 90.382812 150 Z M 90.382812 81.277344 " clip-rule="nonzero"/></clipPath><clipPath id="3196a8e7dc"><path d="M 150 115 L 209.628906 115 L 209.628906 218.996094 L 150 218.996094 Z M 150 115 " clip-rule="nonzero"/></clipPath></defs><g clip-path="url(#f77efc73e2)"><g clip-path="url(#5616a344f4)"><path fill="#2727db" d="M 34.757812 34.757812 L 265.242188 34.757812 L 265.242188 265.242188 L 34.757812 265.242188 Z M 34.757812 34.757812 " fill-opacity="1" fill-rule="nonzero"/></g></g><path fill="#ffffff" d="M 91.085938 52.011719 L 91.085938 109.421875 L 199.410156 46.882812 C 184.082031 39.535156 167.113281 35.671875 150.003906 35.671875 C 131.152344 35.671875 112.480469 40.359375 95.996094 49.226562 C 94.3125 50.128906 92.671875 51.054688 91.085938 52.011719 Z M 88.246094 117.167969 C 87.757812 117.167969 87.269531 117.042969 86.828125 116.792969 C 85.949219 116.285156 85.414062 115.347656 85.414062 114.335938 L 85.414062 50.4375 C 85.414062 49.453125 85.910156 48.550781 86.734375 48.027344 C 88.835938 46.714844 91.046875 45.429688 93.328125 44.222656 C 110.613281 34.921875 130.214844 30 150.003906 30 C 169.777344 30 189.378906 34.921875 206.703125 44.230469 C 207.605469 44.71875 208.175781 45.65625 208.195312 46.6875 C 208.214844 47.71875 207.667969 48.675781 206.777344 49.179688 L 89.660156 116.792969 C 89.230469 117.042969 88.734375 117.167969 88.246094 117.167969 " fill-opacity="1" fill-rule="nonzero"/><path fill="#ffffff" d="M 214.597656 119.246094 L 214.597656 244.316406 C 244.671875 223.71875 263.128906 190.1875 264.265625 153.625 C 264.300781 152.414062 264.320312 151.214844 264.320312 149.988281 C 264.320312 149.300781 264.3125 148.628906 264.300781 147.941406 Z M 211.765625 252.394531 C 211.289062 252.394531 210.820312 252.273438 210.386719 252.039062 C 209.488281 251.542969 208.925781 250.585938 208.925781 249.554688 L 208.925781 114.335938 C 208.925781 113.324219 209.46875 112.386719 210.339844 111.878906 C 211.222656 111.371094 212.300781 111.371094 213.183594 111.878906 L 268.511719 143.828125 C 269.363281 144.316406 269.898438 145.214844 269.925781 146.191406 C 269.972656 147.457031 269.992188 148.722656 269.992188 149.988281 C 269.992188 151.269531 269.972656 152.535156 269.925781 153.800781 C 268.691406 193.992188 247.503906 230.695312 213.257812 251.964844 C 212.808594 252.253906 212.28125 252.394531 211.765625 252.394531 " fill-opacity="1" fill-rule="nonzero"/><path fill="#ffffff" d="M 36.007812 158.78125 C 38.765625 195.042969 58.582031 227.796875 89.746094 247.148438 C 91.292969 248.121094 92.914062 249.078125 94.59375 250.015625 L 144.316406 221.300781 L 86.828125 188.113281 Z M 94.628906 256.097656 C 94.171875 256.097656 93.710938 255.988281 93.289062 255.761719 C 91 254.542969 88.796875 253.257812 86.734375 251.964844 C 52.5 230.695312 31.304688 194 30.054688 153.800781 C 30.027344 152.769531 30.554688 151.804688 31.433594 151.28125 C 32.324219 150.746094 33.421875 150.738281 34.3125 151.253906 L 151.402344 218.835938 C 152.285156 219.339844 152.816406 220.277344 152.816406 221.300781 C 152.816406 222.3125 152.285156 223.25 151.402344 223.746094 L 96.054688 255.714844 C 95.613281 255.96875 95.125 256.097656 94.628906 256.097656 " fill-opacity="1" fill-rule="nonzero"/><path fill="#ffffff" d="M 35.691406 152.050781 L 85.414062 180.746094 L 85.414062 55.667969 C 55.332031 76.253906 36.863281 109.796875 35.726562 146.386719 C 35.691406 147.597656 35.671875 148.777344 35.671875 149.988281 C 35.671875 150.679688 35.679688 151.363281 35.691406 152.050781 Z M 88.246094 188.5 C 87.757812 188.5 87.269531 188.367188 86.828125 188.113281 L 31.472656 156.164062 C 30.628906 155.675781 30.09375 154.777344 30.054688 153.800781 C 30.019531 152.535156 30 151.269531 30 149.988281 C 30 148.722656 30.019531 147.472656 30.054688 146.210938 C 31.304688 105.992188 52.5 69.28125 86.753906 48.019531 C 87.625 47.472656 88.722656 47.457031 89.625 47.953125 C 90.523438 48.457031 91.085938 49.40625 91.085938 50.4375 L 91.085938 185.65625 C 91.085938 186.671875 90.542969 187.609375 89.660156 188.113281 C 89.230469 188.367188 88.734375 188.5 88.246094 188.5 " fill-opacity="1" fill-rule="nonzero"/><path fill="#ffffff" d="M 100.582031 253.097656 C 115.929688 260.449219 132.90625 264.320312 150.003906 264.320312 C 168.839844 264.320312 187.523438 259.632812 204.011719 250.765625 C 205.699219 249.875 207.339844 248.9375 208.925781 247.980469 L 208.925781 190.550781 L 151.421875 223.746094 C 151.355469 223.792969 151.28125 223.832031 151.214844 223.859375 Z M 150.003906 269.992188 C 130.242188 269.992188 110.632812 265.070312 93.289062 255.761719 C 92.390625 255.273438 91.816406 254.335938 91.796875 253.304688 C 91.78125 252.273438 92.324219 251.316406 93.214844 250.800781 L 148.570312 218.835938 C 148.636719 218.796875 148.710938 218.761719 148.777344 218.730469 L 210.339844 183.183594 C 211.222656 182.675781 212.300781 182.675781 213.183594 183.183594 C 214.0625 183.6875 214.597656 184.625 214.597656 185.640625 L 214.597656 249.554688 C 214.597656 250.539062 214.101562 251.441406 213.277344 251.964844 C 211.167969 253.285156 208.953125 254.570312 206.683594 255.769531 C 189.378906 265.070312 169.777344 269.992188 150.003906 269.992188 " fill-opacity="1" fill-rule="nonzero"/><path fill="#ffffff" d="M 155.675781 78.671875 L 263.984375 141.210938 C 261.226562 104.941406 241.417969 72.1875 210.265625 52.847656 C 210.265625 52.835938 210.257812 52.835938 210.257812 52.835938 C 208.699219 51.851562 207.070312 50.894531 205.402344 49.976562 Z M 267.097656 149.113281 C 266.609375 149.113281 266.121094 148.992188 265.679688 148.738281 L 148.589844 81.128906 C 147.707031 80.625 147.164062 79.695312 147.164062 78.671875 C 147.164062 77.660156 147.707031 76.722656 148.589844 76.21875 L 203.9375 44.269531 C 204.78125 43.78125 205.824219 43.761719 206.683594 44.222656 C 208.964844 45.429688 211.167969 46.707031 213.265625 48.027344 C 247.503906 69.289062 268.691406 105.992188 269.925781 146.191406 C 269.964844 147.222656 269.441406 148.1875 268.550781 148.710938 C 268.109375 148.984375 267.601562 149.113281 267.097656 149.113281 " fill-opacity="1" fill-rule="nonzero"/><g clip-path="url(#aabff2974f)"><path fill="#fd6f3b" d="M 150.007812 218.542969 L 150.167969 218.628906 L 150.007812 218.726562 L 90.691406 184.472656 L 90.5 184.359375 L 90.5 115.644531 L 90.691406 115.53125 L 150.007812 149.785156 L 150.167969 149.6875 L 150.195312 149.710938 L 150.007812 149.816406 Z M 150.007812 218.542969 " fill-opacity="1" fill-rule="nonzero"/></g><g clip-path="url(#65993f9915)"><path fill="#231d7d" d="M 209.332031 115.53125 L 150.167969 149.6875 L 150.007812 149.785156 L 90.691406 115.53125 L 150.007812 81.277344 Z M 209.332031 115.53125 " fill-opacity="1" fill-rule="nonzero"/></g><g clip-path="url(#3196a8e7dc)"><path fill="#feca3c" d="M 209.527344 115.644531 L 209.527344 184.359375 L 209.332031 184.472656 L 150.167969 218.628906 L 150.007812 218.542969 L 150.007812 149.816406 L 150.195312 149.710938 L 209.363281 115.546875 Z M 209.527344 115.644531 " fill-opacity="1" fill-rule="nonzero"/></g><g fill="#000000" fill-opacity="1"><g transform="translate(283.914633, 189.82875)"><g><path d="M 82.75 -55.484375 L 64.484375 -55.484375 C 63.796875 -60.179688 61.796875 -63.867188 58.484375 -66.546875 C 55.179688 -69.234375 51.054688 -70.578125 46.109375 -70.578125 C 39.492188 -70.578125 34.191406 -68.148438 30.203125 -63.296875 C 26.210938 -58.453125 24.21875 -51.582031 24.21875 -42.6875 C 24.21875 -33.570312 26.222656 -26.644531 30.234375 -21.90625 C 34.253906 -17.164062 39.503906 -14.796875 45.984375 -14.796875 C 50.785156 -14.796875 54.851562 -16.050781 58.1875 -18.5625 C 61.53125 -21.082031 63.628906 -24.625 64.484375 -29.1875 L 82.75 -29.09375 C 82.113281 -23.875 80.25 -18.957031 77.15625 -14.34375 C 74.070312 -9.726562 69.882812 -5.988281 64.59375 -3.125 C 59.300781 -0.257812 53 1.171875 45.6875 1.171875 C 38.070312 1.171875 31.269531 -0.550781 25.28125 -4 C 19.289062 -7.445312 14.566406 -12.4375 11.109375 -18.96875 C 7.648438 -25.5 5.921875 -33.40625 5.921875 -42.6875 C 5.921875 -52 7.671875 -59.921875 11.171875 -66.453125 C 14.671875 -72.984375 19.421875 -77.960938 25.421875 -81.390625 C 31.429688 -84.828125 38.1875 -86.546875 45.6875 -86.546875 C 52.269531 -86.546875 58.207031 -85.328125 63.5 -82.890625 C 68.800781 -80.460938 73.140625 -76.929688 76.515625 -72.296875 C 79.890625 -67.671875 81.96875 -62.066406 82.75 -55.484375 Z M 82.75 -55.484375 "/></g></g></g><g fill="#000000" fill-opacity="1"><g transform="translate(372.206817, 189.82875)"><g><path d="M 24.84375 -37.015625 L 24.84375 0 L 7.09375 0 L 7.09375 -85.375 L 24.34375 -85.375 L 24.34375 -52.734375 L 25.09375 -52.734375 C 26.570312 -56.515625 28.914062 -59.476562 32.125 -61.625 C 35.332031 -63.78125 39.367188 -64.859375 44.234375 -64.859375 C 50.898438 -64.859375 56.257812 -62.71875 60.3125 -58.4375 C 64.375 -54.164062 66.390625 -48.273438 66.359375 -40.765625 L 66.359375 0 L 48.609375 0 L 48.609375 -37.609375 C 48.640625 -41.546875 47.644531 -44.613281 45.625 -46.8125 C 43.613281 -49.007812 40.800781 -50.109375 37.1875 -50.109375 C 33.570312 -50.109375 30.617188 -48.960938 28.328125 -46.671875 C 26.035156 -44.378906 24.875 -41.160156 24.84375 -37.015625 Z M 24.84375 -37.015625 "/></g></g></g><g fill="#000000" fill-opacity="1"><g transform="translate(445.491821, 189.82875)"><g><path d="M 25.34375 1.203125 C 19.226562 1.203125 14.15625 -0.390625 10.125 -3.578125 C 6.09375 -6.773438 4.078125 -11.546875 4.078125 -17.890625 C 4.078125 -22.660156 5.203125 -26.40625 7.453125 -29.125 C 9.710938 -31.851562 12.664062 -33.847656 16.3125 -35.109375 C 19.96875 -36.378906 23.910156 -37.210938 28.140625 -37.609375 C 33.691406 -38.160156 37.660156 -38.738281 40.046875 -39.34375 C 42.441406 -39.957031 43.640625 -41.296875 43.640625 -43.359375 L 43.640625 -43.609375 C 43.640625 -46.242188 42.8125 -48.285156 41.15625 -49.734375 C 39.507812 -51.179688 37.171875 -51.90625 34.140625 -51.90625 C 30.941406 -51.90625 28.394531 -51.207031 26.5 -49.8125 C 24.613281 -48.425781 23.367188 -46.660156 22.765625 -44.515625 L 6.34375 -45.859375 C 7.5625 -51.691406 10.59375 -56.316406 15.4375 -59.734375 C 20.289062 -63.148438 26.550781 -64.859375 34.21875 -64.859375 C 38.976562 -64.859375 43.425781 -64.109375 47.5625 -62.609375 C 51.707031 -61.109375 55.050781 -58.765625 57.59375 -55.578125 C 60.132812 -52.398438 61.40625 -48.269531 61.40625 -43.1875 L 61.40625 0 L 44.5625 0 L 44.5625 -8.875 L 44.0625 -8.875 C 42.507812 -5.90625 40.179688 -3.484375 37.078125 -1.609375 C 33.984375 0.265625 30.070312 1.203125 25.34375 1.203125 Z M 30.4375 -11.046875 C 34.320312 -11.046875 37.515625 -12.175781 40.015625 -14.4375 C 42.515625 -16.707031 43.765625 -19.523438 43.765625 -22.890625 L 43.765625 -29.6875 C 43.078125 -29.207031 42.003906 -28.785156 40.546875 -28.421875 C 39.085938 -28.066406 37.53125 -27.753906 35.875 -27.484375 C 34.21875 -27.222656 32.738281 -27 31.4375 -26.8125 C 28.320312 -26.363281 25.8125 -25.484375 23.90625 -24.171875 C 22 -22.867188 21.046875 -20.96875 21.046875 -18.46875 C 21.046875 -16.019531 21.925781 -14.171875 23.6875 -12.921875 C 25.457031 -11.671875 27.707031 -11.046875 30.4375 -11.046875 Z M 30.4375 -11.046875 "/></g></g></g><g fill="#000000" fill-opacity="1"><g transform="translate(513.607688, 189.82875)"><g><path d="M 7.09375 0 L 7.09375 -64.03125 L 24.84375 -64.03125 L 24.84375 0 Z M 16.015625 -72.28125 C 13.398438 -72.28125 11.144531 -73.160156 9.25 -74.921875 C 7.363281 -76.691406 6.421875 -78.816406 6.421875 -81.296875 C 6.421875 -83.765625 7.363281 -85.875 9.25 -87.625 C 11.144531 -89.375 13.398438 -90.25 16.015625 -90.25 C 18.648438 -90.25 20.910156 -89.375 22.796875 -87.625 C 24.691406 -85.875 25.640625 -83.765625 25.640625 -81.296875 C 25.640625 -78.816406 24.691406 -76.691406 22.796875 -74.921875 C 20.910156 -73.160156 18.648438 -72.28125 16.015625 -72.28125 Z M 16.015625 -72.28125 "/></g></g></g><g fill="#000000" fill-opacity="1"><g transform="translate(545.539591, 189.82875)"><g><path d="M 24.84375 -37.015625 L 24.84375 0 L 7.09375 0 L 7.09375 -64.03125 L 24.015625 -64.03125 L 24.015625 -52.734375 L 24.765625 -52.734375 C 26.210938 -56.453125 28.59375 -59.398438 31.90625 -61.578125 C 35.226562 -63.765625 39.265625 -64.859375 44.015625 -64.859375 C 50.691406 -64.859375 56.039062 -62.710938 60.0625 -58.421875 C 64.09375 -54.128906 66.109375 -48.242188 66.109375 -40.765625 L 66.109375 0 L 48.359375 0 L 48.359375 -37.609375 C 48.390625 -41.523438 47.390625 -44.585938 45.359375 -46.796875 C 43.328125 -49.003906 40.53125 -50.109375 36.96875 -50.109375 C 33.382812 -50.109375 30.472656 -48.960938 28.234375 -46.671875 C 26.003906 -44.378906 24.875 -41.160156 24.84375 -37.015625 Z M 24.84375 -37.015625 "/></g></g></g><g fill="#000000" fill-opacity="1"><g transform="translate(618.532784, 189.82875)"><g><path d="M 24.84375 -85.375 L 24.84375 0 L 7.09375 0 L 7.09375 -85.375 Z M 24.84375 -85.375 "/></g></g></g><g fill="#000000" fill-opacity="1"><g transform="translate(650.464687, 189.82875)"><g><path d="M 36.265625 1.25 C 29.703125 1.25 24.046875 -0.0859375 19.296875 -2.765625 C 14.546875 -5.453125 10.890625 -9.257812 8.328125 -14.1875 C 5.773438 -19.125 4.5 -24.96875 4.5 -31.71875 C 4.5 -38.3125 5.773438 -44.09375 8.328125 -49.0625 C 10.890625 -54.039062 14.5 -57.914062 19.15625 -60.6875 C 23.8125 -63.46875 29.28125 -64.859375 35.5625 -64.859375 C 41.195312 -64.859375 46.285156 -63.660156 50.828125 -61.265625 C 55.378906 -58.878906 58.988281 -55.273438 61.65625 -50.453125 C 64.320312 -45.640625 65.65625 -39.601562 65.65625 -32.34375 L 65.65625 -27.46875 L 22.046875 -27.46875 L 22.046875 -27.4375 C 22.046875 -22.65625 23.351562 -18.882812 25.96875 -16.125 C 28.582031 -13.375 32.113281 -12 36.5625 -12 C 39.53125 -12 42.097656 -12.625 44.265625 -13.875 C 46.429688 -15.125 47.960938 -16.972656 48.859375 -19.421875 L 65.28125 -18.34375 C 64.03125 -12.394531 60.863281 -7.640625 55.78125 -4.078125 C 50.695312 -0.523438 44.191406 1.25 36.265625 1.25 Z M 22.046875 -38.484375 L 48.9375 -38.484375 C 48.914062 -42.285156 47.691406 -45.421875 45.265625 -47.890625 C 42.847656 -50.367188 39.707031 -51.609375 35.84375 -51.609375 C 31.90625 -51.609375 28.671875 -50.328125 26.140625 -47.765625 C 23.609375 -45.210938 22.242188 -42.117188 22.046875 -38.484375 Z M 22.046875 -38.484375 "/></g></g></g><g fill="#000000" fill-opacity="1"><g transform="translate(720.623196, 189.82875)"><g><path d="M 24.84375 -37.015625 L 24.84375 0 L 7.09375 0 L 7.09375 -64.03125 L 24.015625 -64.03125 L 24.015625 -52.734375 L 24.765625 -52.734375 C 26.210938 -56.453125 28.59375 -59.398438 31.90625 -61.578125 C 35.226562 -63.765625 39.265625 -64.859375 44.015625 -64.859375 C 50.691406 -64.859375 56.039062 -62.710938 60.0625 -58.421875 C 64.09375 -54.128906 66.109375 -48.242188 66.109375 -40.765625 L 66.109375 0 L 48.359375 0 L 48.359375 -37.609375 C 48.390625 -41.523438 47.390625 -44.585938 45.359375 -46.796875 C 43.328125 -49.003906 40.53125 -50.109375 36.96875 -50.109375 C 33.382812 -50.109375 30.472656 -48.960938 28.234375 -46.671875 C 26.003906 -44.378906 24.875 -41.160156 24.84375 -37.015625 Z M 24.84375 -37.015625 "/></g></g></g><g fill="#000000" fill-opacity="1"><g transform="translate(793.616388, 189.82875)"><g><path d="M 60.359375 -45.765625 L 44.109375 -44.765625 C 43.660156 -46.828125 42.53125 -48.59375 40.71875 -50.0625 C 38.914062 -51.539062 36.472656 -52.28125 33.390625 -52.28125 C 30.640625 -52.28125 28.3125 -51.703125 26.40625 -50.546875 C 24.5 -49.390625 23.5625 -47.851562 23.59375 -45.9375 C 23.5625 -44.40625 24.164062 -43.113281 25.40625 -42.0625 C 26.644531 -41.007812 28.75 -40.160156 31.71875 -39.515625 L 43.3125 -37.1875 C 55.625 -34.65625 61.796875 -28.875 61.828125 -19.84375 C 61.828125 -15.644531 60.59375 -11.960938 58.125 -8.796875 C 55.664062 -5.628906 52.296875 -3.160156 48.015625 -1.390625 C 43.742188 0.367188 38.84375 1.25 33.3125 1.25 C 24.832031 1.25 18.078125 -0.519531 13.046875 -4.0625 C 8.015625 -7.601562 5.082031 -12.429688 4.25 -18.546875 L 21.71875 -19.46875 C 22.269531 -16.851562 23.550781 -14.878906 25.5625 -13.546875 C 27.582031 -12.210938 30.175781 -11.546875 33.34375 -11.546875 C 36.457031 -11.546875 38.96875 -12.15625 40.875 -13.375 C 42.78125 -14.601562 43.742188 -16.160156 43.765625 -18.046875 C 43.679688 -21.210938 40.945312 -23.335938 35.5625 -24.421875 L 24.46875 -26.640625 C 12.070312 -29.109375 5.90625 -35.207031 5.96875 -44.9375 C 5.9375 -51.101562 8.398438 -55.960938 13.359375 -59.515625 C 18.316406 -63.078125 24.894531 -64.859375 33.09375 -64.859375 C 41.1875 -64.859375 47.5625 -63.148438 52.21875 -59.734375 C 56.875 -56.316406 59.585938 -51.660156 60.359375 -45.765625 Z M 60.359375 -45.765625 "/></g></g></g></svg>