<?xml version="1.0" encoding="utf-8"?>
<!-- Generator: Adobe Illustrator 23.0.6, SVG Export Plug-In . SVG Version: 6.00 Build 0)  -->
<svg version="1.1" id="Layer_1" xmlns="http://www.w3.org/2000/svg" xmlns:xlink="http://www.w3.org/1999/xlink" x="0px" y="0px"
	 viewBox="0 0 400 245" style="enable-background:new 0 0 400 245;" xml:space="preserve">
<style type="text/css">
	.st0{fill-rule:evenodd;clip-rule:evenodd;fill:url(#Rectangle-27_1_);}
	.st1{fill-rule:evenodd;clip-rule:evenodd;fill:#0075F2;}
	.st2{fill-rule:evenodd;clip-rule:evenodd;fill:url(#SVGID_1_);}
	.st3{fill-rule:evenodd;clip-rule:evenodd;fill:#4A4A4A;}
</style>
<g id="chainyard-logo">
	<g id="Group-2" transform="translate(0.000000, 20.000000)">
		<g id="Group-2-Copy-4" transform="translate(72.000000, 11.000000)">
			<g id="Group">
				
					<linearGradient id="Rectangle-27_1_" gradientUnits="userSpaceOnUse" x1="-385.0203" y1="557.152" x2="-386.17" y2="557.152" gradientTransform="matrix(-15.4716 33.179 4.0428 1.8852 -8177.9092 11836.2998)">
					<stop  offset="0" style="stop-color:#0075F2"/>
					<stop  offset="1" style="stop-color:#003C7C"/>
				</linearGradient>
				<polygon id="Rectangle-27" class="st0" points="53.4,69.5 34.2,113.3 28.7,113.3 47.9,69.5 				"/>
				<polygon class="st1" points="47.9,69.5 64.3,113.3 69.8,113.3 53.4,69.5 				"/>
			</g>
		</g>
		<g id="Group-2-Copy" transform="translate(193.000000, 11.000000)">
			<g>
				
					<linearGradient id="SVGID_1_" gradientUnits="userSpaceOnUse" x1="-506.5341" y1="566.1953" x2="-507.6839" y2="566.1953" gradientTransform="matrix(-15.4716 33.179 4.0428 1.8852 -10049.9756 15850.959)">
					<stop  offset="0" style="stop-color:#0075F2"/>
					<stop  offset="1" style="stop-color:#003C7C"/>
				</linearGradient>
				<polygon class="st2" points="97.9,69.5 78.7,113.3 73.2,113.3 92.4,69.5 				"/>
				<polygon class="st1" points="92.4,69.5 108.8,113.3 114.3,113.3 97.9,69.5 				"/>
			</g>
		</g>
		<path id="CH" class="st3" d="M40.6,117.3c-0.7,1.1-1.6,2.2-2.7,3.1c-1,1-2.3,1.8-3.6,2.6c-1.4,0.7-2.9,1.3-4.6,1.8
			c-1.7,0.4-3.5,0.6-5.4,0.6c-3.3,0-6.3-0.6-9.1-1.7c-2.8-1.1-5.2-2.7-7.2-4.8s-3.6-4.4-4.7-7.2c-1.1-2.8-1.7-5.8-1.7-9.2
			s0.6-6.4,1.7-9.2c1.1-2.8,2.7-5.2,4.8-7.2c2-2,4.4-3.6,7.2-4.8s5.8-1.7,9-1.7c1.6,0,3.2,0.2,4.7,0.5c1.5,0.3,3,0.8,4.3,1.4
			s2.6,1.3,3.7,2.2c1.1,0.8,2,1.8,2.8,2.9l-3.7,2.7c-0.5-0.7-1.1-1.4-1.8-2.1c-0.8-0.7-1.7-1.3-2.7-1.8c-1-0.5-2.1-1-3.4-1.3
			c-1.2-0.3-2.5-0.5-3.9-0.5c-2.8,0-5.4,0.5-7.6,1.5c-2.2,1-4.1,2.4-5.7,4.2s-2.7,3.8-3.6,6.1c-0.8,2.3-1.2,4.7-1.2,7.3
			s0.4,5,1.3,7.3s2,4.3,3.6,6.1s3.5,3.1,5.7,4.2c2.2,1,4.7,1.5,7.5,1.5c2.5,0,4.9-0.5,7.1-1.5c2.3-1,4.1-2.7,5.7-4.9L40.6,117.3z
			 M56.6,80.7h4.4v18.9h23.8V80.7h4.4v43.6h-4.4v-20.6H61.1v20.6h-4.4V80.7z"/>
		<path id="INY" class="st3" d="M157.5,124.3H153V80.7h4.4V124.3z M208.3,117.8h0.1V80.7h4.4v43.6h-5.5L182,86.8h-0.1v37.5h-4.4
			V80.7h5.5L208.3,117.8z M247.8,124.3h-4.4v-18.8L227,80.7h5.5l13.1,21.1l13.2-21.1h5.2l-16.3,24.8V124.3z"/>
		<path id="RD" class="st3" d="M320.2,124.3h-4.4V80.7h12.8c2.1,0,4.1,0.2,5.9,0.6c1.8,0.4,3.4,1.1,4.7,2c1.3,0.9,2.4,2.1,3.1,3.6
			c0.7,1.5,1.1,3.3,1.1,5.4c0,1.6-0.3,3.1-0.9,4.4c-0.6,1.3-1.4,2.5-2.3,3.4c-1,1-2.2,1.7-3.5,2.3s-2.8,0.9-4.4,1.1l12.7,20.7h-5.4
			l-12.1-20.4h-7.4V124.3z M320.2,100.1h7.7c3.6,0,6.3-0.6,8.2-1.9c1.9-1.3,2.9-3.2,2.9-5.8c0-1.4-0.3-2.6-0.8-3.6
			c-0.5-1-1.3-1.8-2.2-2.4s-2.1-1.1-3.4-1.4c-1.4-0.3-2.9-0.4-4.5-0.4h-7.9V100.1z M361,80.7h14.5c2.7,0,5.4,0.5,8.2,1.4
			c2.7,0.9,5.2,2.3,7.4,4.1c2.2,1.8,4,4.1,5.3,6.8c1.4,2.7,2,5.9,2,9.5c0,3.7-0.7,6.8-2,9.5c-1.4,2.7-3.1,5-5.3,6.8
			c-2.2,1.8-4.7,3.2-7.4,4.1s-5.4,1.4-8.2,1.4H361V80.7z M365.5,120.4h8.8c3.3,0,6.1-0.5,8.6-1.5c2.4-1,4.5-2.4,6.1-4
			c1.6-1.7,2.8-3.6,3.6-5.7c0.8-2.1,1.2-4.3,1.2-6.6s-0.4-4.5-1.2-6.6c-0.8-2.1-2-4-3.6-5.7s-3.6-3-6.1-4c-2.4-1-5.3-1.5-8.6-1.5
			h-8.8V120.4z"/>
	</g>
</g>
</svg>
