
		<svg xmlns="http://www.w3.org/2000/svg" xmlns:xlink="http://www.w3.org/1999/xlink" version="1.1" width="3337.078651685393" height="2359.550561797753">
			
			<g transform="scale(16.853932584269664) translate(10, 10)">
				<defs id="SvgjsDefs2081"></defs><g id="SvgjsG2082" featureKey="root" fill="#282416" transform="matrix(1,0,0,1,NaN,NaN)"></g><g id="SvgjsG2083" featureKey="container1" fill="#2e8ad0" transform="matrix(1,0,0,1,0,0)"><rect xmlns="http://www.w3.org/2000/svg" width="178" rx="10" ry="10" height="120"></rect></g><g id="SvgjsG2084" featureKey="text1" fill="#282416" transform="matrix(3.6057693630280627,0,0,3.6057693630280627,17.76442276280835,-11.899039585738535)"><path d="M3.8 23.020000000000003 l1.28 0 l0 2.76 q0 1.14 -0.53 1.81 t-1.67 0.67 t-1.7 -0.69 t-0.56 -1.83 l0 -7.68 q0 -1.14 0.56 -1.85 t1.7 -0.71 t1.65 0.7 t0.51 1.84 l0 2.68 l-1.24 0 l0 -2.7 q0 -1.1 -0.92 -1.1 q-0.46 0 -0.69 0.3 t-0.23 0.82 l0 7.7 q0 1.12 0.92 1.12 t0.92 -1.1 l0 -2.74 z M9.64 28.080000000000002 l0 -10.22 q0 -0.54 -0.18 -0.77 t-0.62 -0.23 q-0.3 0 -0.6 0.18 t-0.46 0.58 l0 10.46 l-1.38 0 l0 -16.46 l1.38 0 l0 4.78 q0.28 -0.4 0.7 -0.65 t0.94 -0.25 q0.84 0 1.22 0.54 t0.38 1.74 l0 10.3 l-1.38 0 z M15.5 28.080000000000002 q-0.08 -0.26 -0.08 -0.74 q-0.5 0.92 -1.48 0.92 q-0.84 0 -1.31 -0.46 t-0.47 -1.5 l0 -1.82 q0 -0.9 0.25 -1.51 t0.68 -1.03 t1.01 -0.71 t1.24 -0.57 l0 -2.7 q0 -0.52 -0.19 -0.8 t-0.71 -0.28 q-0.54 0 -0.72 0.28 t-0.18 0.8 l0 2.6 l-1.22 0 l0 -2.62 q0 -1.22 0.51 -1.83 t1.65 -0.61 q2.18 0 2.18 2.44 l0 8.72 q0 0.44 0.02 0.82 t0.08 0.6 l-1.26 0 z M15.34 21.76 q-0.6 0.22 -0.97 0.48 t-0.56 0.59 t-0.25 0.76 t-0.06 0.99 l0 1.32 q0 1.02 0.94 1.02 q0.3 0 0.55 -0.18 t0.35 -0.6 l0 -4.38 z M18.16 14.120000000000001 l0 -2.5 l1.38 0 l0 2.5 l-1.38 0 z M18.16 28.080000000000002 l0 -12.38 l1.38 0 l0 12.38 l-1.38 0 z M24.3 28.080000000000002 l0 -10.22 q0 -0.54 -0.18 -0.77 t-0.62 -0.23 q-0.3 0 -0.6 0.18 t-0.46 0.58 l0 10.46 l-1.38 0 l0 -12.38 l1.16 0 q0.06 0.46 0.06 0.94 q0.28 -0.52 0.74 -0.83 t1.04 -0.31 q0.84 0 1.23 0.54 t0.39 1.74 l0 10.3 l-1.38 0 z M30.68 28.080000000000002 l-2.24 -6.36 l0 6.36 l-1.34 0 l0 -16.46 l1.34 0 l0 9.42 l2.24 -5.34 l1.46 0 l-2.42 5.48 l2.48 6.9 l-1.52 0 z M33.14 14.120000000000001 l0 -2.5 l1.38 0 l0 2.5 l-1.38 0 z M33.14 28.080000000000002 l0 -12.38 l1.38 0 l0 12.38 l-1.38 0 z M38.9 28.16 q-0.1 0.04 -0.29 0.07 t-0.35 0.03 q-1.1 0 -1.64 -0.68 t-0.54 -1.88 l0 -8.78 l-0.58 0 l0 -1.22 l0.58 0 l0 -3.92 l1.38 0 l0 3.92 l1.4 0 l0 1.22 l-1.4 0 l0 8.78 q0 0.76 0.27 1.07 t0.91 0.31 l0.13 0 t0.13 -0.02 l0 1.1 z"></path></g>
			</g>
		</svg>
	