<?xml version="1.0" encoding="utf-8"?>
<!-- Generator: Adobe Illustrator 23.0.3, SVG Export Plug-In . SVG Version: 6.00 Build 0)  -->
<svg version="1.1" id="Layer_1" xmlns="http://www.w3.org/2000/svg" xmlns:xlink="http://www.w3.org/1999/xlink" x="0px" y="0px"
	 viewBox="0 0 400 245" style="enable-background:new 0 0 400 245;" xml:space="preserve">
<style type="text/css">
	.st0{fill:#E01B22;}
	.st1{fill:#4064AD;}
	.st2{fill:#E98300;}
	.st3{fill:#00549F;}
	.st4{fill-rule:evenodd;clip-rule:evenodd;}
	.st5{fill-rule:evenodd;clip-rule:evenodd;fill:#C9243A;}
	.st6{fill-rule:evenodd;clip-rule:evenodd;fill:#231F20;}
	.st7{fill-rule:evenodd;clip-rule:evenodd;fill:#7C848A;}
	.st8{fill:#EE3B29;}
	.st9{fill:#7C848A;}
	.st10{fill:#0F0F59;}
	.st11{fill:#F42A4D;}
	.st12{fill:#DA2128;}
	.st13{fill-rule:evenodd;clip-rule:evenodd;fill:#12ABDB;}
	.st14{fill-rule:evenodd;clip-rule:evenodd;fill:#0070AD;}
	.st15{fill:#929497;}
	.st16{fill:#231F20;}
	.st17{fill:#00ADEE;}
	.st18{fill:#2E3191;}
	.st19{fill:#EC1C24;}
	.st20{fill:#0082C9;}
	.st21{fill:#6D67AE;}
	.st22{fill:#2B62AD;}
	.st23{fill:#404041;}
	.st24{fill:#273B5B;}
	.st25{fill:#39B54A;}
	.st26{fill:#474749;}
	.st27{fill:#009245;}
	.st28{fill:#DDDDDD;}
	.st29{fill:#FFFFFF;}
	.st30{fill:url(#SVGID_1_);}
	.st31{fill:url(#SVGID_2_);}
	.st32{fill:url(#SVGID_3_);}
	.st33{fill:url(#SVGID_4_);}
	.st34{fill:url(#SVGID_5_);}
	.st35{fill:url(#SVGID_6_);}
	.st36{fill:url(#SVGID_7_);}
	.st37{fill:url(#SVGID_8_);}
	.st38{fill:url(#SVGID_9_);}
	.st39{fill:url(#SVGID_10_);}
	.st40{fill:url(#SVGID_11_);}
	.st41{fill:url(#SVGID_12_);}
	.st42{fill:url(#SVGID_13_);}
	.st43{fill:url(#SVGID_14_);}
	.st44{fill:url(#SVGID_15_);}
	.st45{fill:url(#SVGID_16_);}
	.st46{fill:url(#SVGID_17_);}
	.st47{fill:#59595C;}
	.st48{fill:#1D7DB9;}
	.st49{fill:#121110;}
	.st50{fill:#010101;}
	.st51{fill:#663795;}
	.st52{fill:#09324A;stroke:#1B75BB;stroke-width:0.6975;stroke-miterlimit:10;}
	.st53{fill:#002432;stroke:#1B75BB;stroke-width:1.0463;stroke-miterlimit:10;}
	.st54{fill-rule:evenodd;clip-rule:evenodd;fill:#E73836;}
	.st55{fill:#231916;}
	.st56{fill:#E73836;}
	.st57{fill:#8C9091;}
	.st58{fill-rule:evenodd;clip-rule:evenodd;fill:#365072;}
	.st59{fill:#365072;}
	.st60{fill:#0093D7;}
	.st61{clip-path:url(#SVGID_19_);fill:url(#SVGID_20_);}
	.st62{clip-path:url(#SVGID_22_);fill:url(#SVGID_23_);}
	.st63{clip-path:url(#SVGID_25_);fill:url(#SVGID_26_);}
	.st64{clip-path:url(#SVGID_28_);fill:url(#SVGID_29_);}
	.st65{clip-path:url(#SVGID_31_);fill:url(#SVGID_32_);}
	.st66{clip-path:url(#SVGID_34_);fill:url(#SVGID_35_);}
	.st67{clip-path:url(#SVGID_37_);fill:url(#SVGID_38_);}
	.st68{clip-path:url(#SVGID_40_);fill:url(#SVGID_41_);}
	.st69{clip-path:url(#SVGID_43_);fill:url(#SVGID_44_);}
	.st70{clip-path:url(#SVGID_68_);}
	.st71{clip-path:url(#SVGID_79_);}
	.st72{fill:#00A9E6;}
	.st73{fill:#4D4D4F;}
	.st74{fill:#898B8D;}
	.st75{fill:#04B3AC;}
	.st76{fill:#A4A2A0;}
	.st77{fill:#D0CFCE;}
	.st78{fill:#74777C;}
	.st79{fill:none;stroke:#ED3024;stroke-width:0.4269;}
	.st80{fill:#A2A4A8;}
	.st81{fill:#3F7BA3;}
	.st82{enable-background:new    ;}
	.st83{fill:#E8B520;}
	.st84{fill:#D27D41;}
	.st85{fill:#0B74BB;}
	.st86{fill:#702784;}
	.st87{fill:#AD2E91;}
	.st88{fill:#ED3694;}
	.st89{fill:#004E9A;}
	.st90{clip-path:url(#SVGID_82_);fill:url(#SVGID_83_);}
	.st91{clip-path:url(#SVGID_85_);fill:url(#SVGID_86_);}
	.st92{clip-path:url(#SVGID_88_);fill:url(#SVGID_89_);}
	.st93{fill:#0898CC;}
	.st94{fill:#12284C;}
	.st95{fill-rule:evenodd;clip-rule:evenodd;fill:#84BE42;}
	.st96{fill-rule:evenodd;clip-rule:evenodd;fill:#C1C0C0;}
	.st97{clip-path:url(#SVGID_91_);fill:#84BE42;}
	.st98{fill:#0066A5;}
	.st99{fill:#F05A22;}
	.st100{clip-path:url(#SVGID_93_);}
	.st101{clip-path:url(#SVGID_95_);fill:#1D1D1B;}
	.st102{clip-path:url(#SVGID_97_);}
	.st103{clip-path:url(#SVGID_99_);fill:#1D1D1B;}
	.st104{clip-path:url(#SVGID_101_);}
	.st105{clip-path:url(#SVGID_103_);fill:#1D1D1B;}
	.st106{clip-path:url(#SVGID_105_);}
	.st107{clip-path:url(#SVGID_107_);fill:#1D1D1B;}
	.st108{clip-path:url(#SVGID_109_);}
	.st109{clip-path:url(#SVGID_111_);fill:#1D1D1B;}
	.st110{clip-path:url(#SVGID_113_);}
	.st111{clip-path:url(#SVGID_115_);fill:#1D1D1B;}
	.st112{clip-path:url(#SVGID_117_);}
	.st113{clip-path:url(#SVGID_119_);fill:#1D9DD9;}
	.st114{clip-path:url(#SVGID_121_);}
	.st115{clip-path:url(#SVGID_123_);fill:#1D1D1B;}
	.st116{clip-path:url(#SVGID_125_);}
	.st117{clip-path:url(#SVGID_127_);fill:#1D9DD9;}
	.st118{clip-path:url(#SVGID_129_);}
	.st119{clip-path:url(#SVGID_131_);fill:#1D1D1B;}
	.st120{clip-path:url(#SVGID_133_);}
	.st121{clip-path:url(#SVGID_135_);fill:#1D9DD9;}
	.st122{clip-path:url(#SVGID_137_);}
	.st123{clip-path:url(#SVGID_139_);fill:#1D1D1B;}
	.st124{clip-path:url(#SVGID_141_);}
	.st125{clip-path:url(#SVGID_143_);fill:#1D9DD9;}
	.st126{clip-path:url(#SVGID_145_);}
	.st127{clip-path:url(#SVGID_147_);fill:#1D1D1B;}
	.st128{fill:#D44432;}
	.st129{fill:#272525;}
	.st130{fill:url(#SVGID_148_);}
	.st131{fill:url(#SVGID_149_);}
	.st132{fill:url(#SVGID_150_);}
	.st133{fill:#002B54;}
	.st134{fill:#B2B1B1;}
	.st135{fill:#E1134F;}
	.st136{fill:#454547;}
	.st137{fill:#00B4D0;}
	.st138{fill:#4564A7;}
	.st139{fill:#0088EE;}
	.st140{fill:#026FC2;}
	.st141{fill:#009FEE;}
	.st142{fill:#00BEEE;}
	.st143{fill:#00AFEE;}
	.st144{fill-rule:evenodd;clip-rule:evenodd;fill:#224099;}
	.st145{clip-path:url(#SVGID_152_);}
	.st146{clip-path:url(#SVGID_156_);}
	.st147{fill:#203260;}
	.st148{fill-rule:evenodd;clip-rule:evenodd;fill:#989A9D;}
	.st149{fill-rule:evenodd;clip-rule:evenodd;fill:#DF068C;}
	.st150{fill:#2E3437;}
	.st151{fill:#989FA4;}
	.st152{fill:#E1DE22;}
	.st153{fill-rule:evenodd;clip-rule:evenodd;fill:#86171D;}
	.st154{fill-rule:evenodd;clip-rule:evenodd;fill:#FFFFFF;}
	.st155{fill:none;stroke:#86171D;stroke-width:6.1349;stroke-miterlimit:10;}
	.st156{fill:#1F1F1F;}
	.st157{fill:#009590;}
	.st158{fill:#ED1651;}
</style>
<g>
	<path class="st5" d="M2.14,122.5c0-26.88,21.79-48.66,48.66-48.66c22.22,0,40.96,14.89,46.79,35.24H76.82L64.69,78.84l-13.6,33.82
		L37.22,79.14L11.5,142.53l10.49,14.77h58.07l10.05-15.07l-1.29-3.21h7.77c-6.77,18.74-24.71,32.13-45.78,32.13
		C23.93,171.16,2.14,149.38,2.14,122.5z M77.69,111.25h20.47c0.19,0.81,0.36,1.63,0.52,2.46h-20L77.69,111.25z M79.54,115.88h19.48
		c0.11,0.81,0.2,1.64,0.27,2.46H80.53L79.54,115.88z M81.4,120.51h18.03c0.03,0.66,0.04,1.32,0.04,1.99l0,0.47H82.38L81.4,120.51z
		 M83.25,125.14H99.4c-0.04,0.83-0.11,1.65-0.19,2.46H84.24L83.25,125.14z M85.11,129.76h13.82c-0.12,0.83-0.27,1.65-0.43,2.46H86.1
		L85.11,129.76z M86.97,134.39H98c-0.21,0.83-0.44,1.65-0.69,2.46h-9.36L86.97,134.39z M32.86,108.53l-13.9,34h55.26l-13.87-34.14
		l-13.75,33.7L32.86,108.53z"/>
	<path class="st6" d="M227.08,127.52c-0.26,1.49,1.09,4.21-1.17,4.89c-0.35,0.3-0.67,0.79-1.24,0.72c-0.54-0.11-1-0.42-1.43-0.81
		c-0.46-0.13-1-0.09-1.41-0.35c0.17-1.4,0.06-3.02,0.08-4.36c0.48-0.3,1.26-0.19,1.78-0.08c0.37-0.19,1.11,0.02,1.52-0.38
		C225.95,127.01,226.45,127.38,227.08,127.52z M164.75,126.69c0.24,0.21,0.52,0.28,0.8,0.38l-0.17,6.41
		c-1.7,0.92-3.56-0.19-5.26-0.08l-4.17,0.26c-0.67-1.85-0.63-4.23-0.35-6.25l0.8-0.81L164.75,126.69z M293.58,126.52
		c-0.09,1.06,1.59,1.19,1.24,2.27c-0.33,0.77-1.22,0.6-1.94,0.62c-0.48-1.08-1.08,0.59-1.61-0.36c-0.67-0.08-1.26-0.51-1.5-1.17
		c-0.09-0.57,0.08-1.1,0.52-1.36c0.37-0.1,0.76-0.17,1.07-0.36C292.15,126.14,292.95,126.12,293.58,126.52z M305.76,123.97
		c-0.09,1.11,0.8,1.91,1.41,2.64c0.29,0.47,0.63,1.2,0.37,1.88c-0.54,0.61-0.67,1.7-1.61,1.81c-0.26,0.87-1.24,0.64-1.87,0.55
		c-0.3-1.55-0.18-3.38-0.08-4.98c0.7-0.66-0.44-3.04,1.34-2.36L305.76,123.97z M234.45,122.61c0.7,2.66-0.2,5.32,0.09,8.15
		c-0.35,0.39-0.45,1.04-0.26,1.55c-0.48,1.62,0.74,3.93-1.17,4.62c-0.5,0.06-1.02-0.02-1.24-0.45l0.09-5.43
		c0.22-0.28,0.3-0.62,0.26-1c-0.09-2.26-0.2-4.77,0.09-6.98c0.2-0.3,0.52-0.72,0.89-0.81C233.73,122.14,234.07,122.42,234.45,122.61
		z M315.62,120.08c-0.01,0.54-0.44,0.68-0.88,0.81c-1.34,1.19-3.09,1.34-4.35,2.72c-0.44,0.06-0.68,0.64-1.24,0.46
		c-0.72-0.87-1.41-1.85-1.87-2.89c-0.17-0.29-0.06-0.68-0.09-1c0.29-0.87,1.18-0.23,1.7-0.55c1.22,0.15,2.07-0.64,3.37-0.36
		c0.8-0.45,1.65,0.04,2.41,0.26C315.03,119.59,315.36,119.76,315.62,120.08z M293.76,118.82c-0.04,0.11,0.2,0.26,0,0.36
		c0.22,0.64-0.7,0.78-0.89,1.36c-0.02,0.21,0.04,0.43-0.18,0.55c-0.82-0.13-2.41,0.4-2.32-0.81c0.17-0.57-0.02-1.36,0.63-1.64
		C291.76,118.01,293.19,117.8,293.76,118.82z M226.64,115.29c-0.08,1.74,0.11,3.38,0.17,5.06c0.2,0.49,1.1,0.79,0.63,1.45
		c-0.35,0.64-1.19,0.32-1.69,0.28l-2.76-0.09c-0.46-0.77,0.72-1.32,0.8-2.09c-0.3-1.32-0.44-2.72-0.89-3.98
		c-0.11-0.42,0.18-0.66,0.28-1C224.27,114.91,225.9,114.06,226.64,115.29z M216.67,114.91c0.65,0.56,0.22,1.58,0.54,2.27
		c-0.17,0.81-0.3,1.57-0.98,2c-0.94,0.64-2,1-3.2,1.1c-0.35-0.17-0.56-0.57-0.7-0.91c-0.37-1.47,1.39-2.02,0.89-3.54
		c0.33-0.17,0.08-0.57,0.45-0.72c0.59,0.08,1.3-0.09,1.78-0.55C215.95,114.44,216.28,114.72,216.67,114.91z M235.16,114.91
		c0.28,1.28-0.76,2-1.15,3c-0.48,0.43-1.04,0.94-1.69,0.72c-0.7-1.06-2.37-0.74-2.22-2.36c0.02-0.64-0.09-1.45,0.44-1.81
		c0.74-0.06,1.48-0.66,2.22-0.17C233.47,114.72,234.47,114.46,235.16,114.91z M157.38,112.48c0.35,1,0.91,2.08,2.04,2.36
		c1,0.3,2.15,0.66,2.41,1.89c-0.06,0.28-0.2,0.53-0.45,0.74c-1.72,0.41-3.68,0.3-5.52,0.45c-0.76-0.23-1.85,0.15-2.32-0.64
		c0.04-2.26,1.56-4,2.95-5.61C157.12,111.38,157.18,112.16,157.38,112.48z M311.54,110.93c-0.06,0.85-0.17,1.79-0.89,2.17
		c-1.7,0.4-3.39,0.76-5.26,0.74c-0.78-0.32-0.69-1.32-0.8-2.1c0.19-0.4,0.45-0.75,0.8-1.07
		C307.56,111.29,309.93,108.53,311.54,110.93z M285.39,108.31c0.06,0.53,0.04,0.87-0.07,1.36c-0.63-0.11-1.19,0.21-1.71,0.09
		c-0.02-0.72,0.76-1.09,0.72-1.81C284.65,108.14,285.15,107.91,285.39,108.31z M297.76,104.04c0.06,2.13,0.24,4.29,0.17,6.34
		c0.91,3.38,0.07,7.47,0.73,10.96c0,2.15-0.41,4.59,0,6.8c0.13,0.75-0.26,1.3-0.28,2c-0.15,0.41-0.43,0.79-0.45,1.26
		c-1.17,1.15-0.35,4.38-2.92,3.72c-0.58-0.42-0.65-1.21-1.17-1.72c0.16-1.4,1.91-2.08,1.87-3.55c0.5-1.98-0.22-4.15,0.28-6.15
		c0.22-0.19,0.22-0.59,0.07-0.81c-0.79-0.77-0.68-2.17-0.44-3.17c0.06-0.45-0.13-1.02,0.19-1.36c0.15-0.6,0.43-1.15,0.44-1.81
		c0.3-1.25,0.19-2.77,0.09-4.07c-0.24-0.51-0.43-1.1-0.98-1.36c-1.29-0.28-2.61-0.55-3.91-0.81c-0.26-0.24-0.68-0.23-0.8-0.64
		c-0.06-0.51,0.04-0.96,0.26-1.36c0.85,0.02,1.48-0.77,2.41-0.36c0.54,0.04,1.3,0.59,1.69,0c-0.3-1.75,1.11-2.77,1.69-4.17
		C296.99,103.46,297.72,103.55,297.76,104.04z M226.9,102.06c0.3,0.38,0.18,1.02,0.09,1.45c-0.93,1.1,0.17,3.51-1.96,3.62
		c-0.82-0.32-2.06,0-2.39-1.1c-0.58-0.74-1.44-1.34-1.17-2.45l1.43-1.53c0.89-0.06,1.78-0.68,2.66-0.19
		C225.95,102.06,226.51,101.87,226.9,102.06z M311.8,100.87c0.17,0.28,0.06,0.68,0.09,1c-1,0.91-1.83,2.62-3.39,2.09
		c-0.41-0.26-0.95-0.24-1.41-0.38l-0.09,0.09l-2.32-0.17c0.04-0.64-0.18-1.7,0.54-2.1c0.93-0.17,2.26,0.08,3.02-0.81
		C309.49,101.1,310.73,99.97,311.8,100.87z M166.72,99.44c0.2,0.34,0.31,0.72,0.26,1.17c-0.2,0.26-0.33,0.57-0.35,0.9
		c-0.96,1.89-2.44,3.55-2.76,5.7c-1.11,1.34-2.04,3.43-4,3.46c-0.65-0.32-1.54-1.02-1.59-1.81c0.46-1.75,2.19-3,2.58-4.81
		c0.22-1.47-0.19-3.23,0.7-4.43c1.22-0.58,3.08,0.06,4.35-0.54C166.29,98.93,166.44,99.31,166.72,99.44z M152.21,99.15
		c0.45,0.92,1.02,2,0.54,3.08c-1.08,2.15-2.43,4.19-3.74,6.27c0.02,1.11-0.48,2.02-1.06,2.89c-0.52,0.49-1.04-0.15-1.61-0.09
		c-0.54-1.49-2.15-2.32-3.28-3.34c-0.09-0.73,0.42-1.15,0.98-1.45c1.39,0.21,2.35-0.15,3.11-1.36c1.09-1.94,1.02-4.4,2.13-6.34
		C150.27,98.93,151.23,99.31,152.21,99.15z M292.87,99.34c0.39,0.26,0.22,0.77,0.26,1.17c-0.85,0.49-0.76,1.92-1.87,2
		c-0.65-0.41-1.37-0.68-2.13-0.81c-0.59-0.61-0.41-1.42-0.09-2.1c0.57-0.6,0.81-2.08,2.05-1.62c0.52,0.53,0.96,0.75,1.5,1.26
		L292.87,99.34z M394.49,91.65c0.27,0.38,0.2,1.02,0.09,1.45c-0.02,2.68-0.7,5.08-0.44,7.87c-0.89,0.62-0.45,1.81-1.08,2.55
		c-0.7,0.62-1.89,0.3-2.76,0.26c-2.9-0.81-6.04,0-9.06,0c-3.61-0.15-6.83,0.64-10.5,0.36c-0.17,0.23-0.37,0.34-0.61,0.36
		c-0.35-0.66-0.06-1.62-0.27-2.34c-0.13-2.15-0.43-4.24-0.44-6.43c-0.17-0.45-0.35-0.91-0.52-1.36c0.07-0.32-0.19-0.51-0.09-0.81
		c0.5-0.55,1.3-0.15,1.87,0c2.24-0.45,4.19,0.89,6.22-0.09c3.06-0.27,5.78,1.06,8.96,0.45c1.93-0.87,3.94-1.44,5.7-2.72
		c0.67,0,1.13-0.79,1.85-0.36C393.88,90.96,394.29,91.13,394.49,91.65z M366.3,87.66c1.11,0.51,0.45,1.92,1.52,2.53
		c0.04,0.98-0.69,1.62-0.79,2.53c-0.59,0.87-0.04,1.92,0.09,2.81c-0.43,1.94,0.79,3.74,0,5.62c-0.15,0.85-0.44,1.63-0.44,2.53
		c-1.06,0.46-2.5,0.13-3.21,1.26c0.21,0.81-0.53,2.32,0.7,2.72c1.35-0.02,2.41,1.28,2.86,2.36c1.05-0.06,0.74,2.34,1.94,1.1
		c0.15-0.53,0.22-1.23,0.19-1.72c-0.02-0.38-0.04-1.06,0.35-1.28l0.53-0.17c4.71,0.4,9.21-0.49,13.88-0.19
		c3.01-0.28,6.06-0.51,9.15-0.62c1-0.55,2.3-0.34,3.11-1.36c0.61-0.17,1.16-0.32,1.42-0.91h0.26c-0.61,2.4-0.3,5.3-0.26,7.87
		c0,1.09-0.79,2.28,0,3.27c-0.04,0.26,0.08,0.6-0.09,0.81c-0.59-0.62-1.37-0.32-2.13-0.26c-1.26-0.19-2.2,0.72-3.47,0.26
		c-1.76-0.62-3.72-0.41-5.42,0.19c-0.39,0.38-0.37,0.91-0.35,1.45c0.37,1.77,0.07,3.73-0.09,5.51c0.68,1.64,0.16,3.81,0.44,5.62
		c-0.04,4.73,0.85,9.3,0.26,14.04c-0.35,0.58-0.94,0.64-1.5,0.72c-3.78-0.32-7.8,0.02-11.3-0.98c-0.44-0.14-0.95-0.11-1.34-0.38
		c-0.27-1.08-1.48-1.08-1.78-2.17c-0.2-0.78-0.41-1.68,0.19-2.36c0.2-0.32-0.11-0.93,0.53-0.81c1.08,0.13,1.95,1.1,3.11,0.74
		c1.07-0.98,2.09-1.91,2.67-3.17c-0.69-2.94,1.29-4.98,0.35-7.8c-0.32-1.77,0.17-3.45,0.26-5.17c-0.26-1.61,0.17-3.49-0.35-4.98
		c-2.81-0.68-5.46,0.96-8.26,0l-1.52-0.17c-0.57-1.13,1.15-1.96-0.09-2.72c-1.54-0.89-1.43,1.17-2.75,1.07
		c-0.17,0.85-1.67,1.4-1.25,2.45c0.3,0.94-0.27,1.93,0.63,2.62c0.59,1.26-0.41,2.53,0.17,3.81c-0.35,1.23-0.04,2.42-0.26,3.7
		l0.09,0.1c-0.26,1.07,0.17,2.39-0.35,3.36c-0.48,2.92,0.65,6.19-0.63,8.77c-0.26,0.97-0.76,2.1-1.87,2.27
		c-0.43,0.36-0.43,0.96-0.98,1.19c-1.95,0.66-3.68-0.32-5.24-1.19c-0.37,0.19-0.48-0.3-0.8-0.26c-0.35-0.74-1.26-0.45-1.87-0.72
		c-0.44-0.55-1.95-0.32-1.43-1.45c0.98-0.36,2-0.98,2.6-1.9c0.29-0.11,0.55-0.57,0.7-0.91c0.09-0.94,0.11-1.9,0.54-2.72
		c0.93-3.44-0.7-6.94,0.35-10.32c-0.09-0.62-0.42-1.3-1.07-1.55c-1.96,0.7-2.83,3.13-4.61,4.08c-1.06,0.06-1.98-0.19-2.95-0.36
		c-0.94-0.87-2.63-1.28-2.83-2.62c-0.31-0.45-1.11-0.39-0.79-1.19c-0.13-0.28-0.5-0.17-0.54-0.45c0.34-0.53,1.11-0.81,1.6-1.36
		c1.37-0.02,2.22-1.32,3.56-1.44c1.28-0.04,1.68-1.6,2.85-1.9c0.98-1.19,2.57-1.49,3.21-3c0.74-0.79,1.68-1.51,1.68-2.62
		c0.28-0.45,0.94-0.89,0.7-1.62c-0.89-0.4-0.91-1.6-1.87-1.72c-0.65,0.57-1.19,1.43-1.95,1.72c-0.28,1.08-1.48,0.46-1.87,1.26
		c-0.44,0.17-1.02,0.06-1.52,0.09c-0.17-0.58-0.83-0.36-1.24-0.55c-0.45-0.61-1.48-1.11-1.24-2.08l-0.53-0.55l-0.1-4.17
		c1.15-0.72,2.37-1.15,3.56-1.72c0.39-1.32,1.56-0.34,2.22-0.91c1.28-1.26,3.02-1.94,3.93-3.53c1.02-0.58,1.35-1.92,2.3-2.55
		c0.48-0.7,0.46-1.62,1.08-2.27c0-1.98,1.98-3.11,2.48-4.89c0.79-0.89,1.63-1.66,2.76-1.72c0.24-0.21,0.6-0.58,0.89-0.19
		C365.22,86.98,365.72,87.66,366.3,87.66z M289.39,85.85c0.29,0.81,1,1.47,1.61,2.17c0.22,1.47,2.22,1.64,2.31,3.27
		c0.65,0.47,0.65,1.21,0.61,1.98c-0.3,0.42-0.7,0.79-0.61,1.36c0.61,0.45,0.8,1.3,1.69,1.1c0.52,0.26,1.04,0.24,1.59,0.09
		c1.5-1.06,0.06-2.85,0.89-4.26c-0.15-0.96-0.17-2.11,0.35-2.91c1.87,0.75,3.54,2,5.07,3.55c1.5,0.13,2.67-0.28,4,0l0.09-0.09
		c1.63,0.28,3.59-0.24,5.06,0.45c1.33,0.26,1.98-1.15,3.29-0.91c0.86-0.98,2.04-1.1,3.21-1.26c0.57-0.11,1.09,0.11,1.33,0.62
		c0.07,2.6,0.28,5.49-0.19,7.98c-0.85,1.19-0.52,2.89-0.98,4.24c-0.35,1.53-0.74,3.13-0.7,4.72l-0.09,0.1
		c0.23,1.87-0.07,3.97,0.28,5.79c-0.11,1.57-1.24,2.72-0.98,4.43c-0.17,0.36-0.04,0.72,0.17,1c0.95,0.09,1.56-0.58,2.22-1.19
		c-0.08-0.81,0.89-0.96,0.98-1.72c0.11-0.4,0.48,0,0.72,0c0.65,0.76,2.06,1.02,1.69,2.36c-0.02,0.66-0.61,1.42,0,2
		c-0.06,0.72-0.67,1.44-0.18,2.17c0.05,0.56,0.41,0.9,0.79,1.17c-0.28,0.36-0.69,0.42-1.05,0.55c-0.78,0.83-1.67,1.38-2.67,1.62
		c-1.74-0.13-3.56-0.43-5.24-0.45c-0.48,0.38-0.76,0.83-0.63,1.45c1.85,2.32,5.02,1.77,7.29,3.27c1.41,0.04,2.89,0.73,4.26,0.09
		c0.24,1.68-0.72,3.07-0.89,4.7c-0.6,1.57-2.02,2.83-2.93,4.17c-1.33,0.58-1.93,1.89-3.04,2.91c-0.52-0.13-0.63-1.1-1.34-1
		c-0.72,0.13-0.72-0.93-1.4-0.91c-0.58-1.11-2-0.7-2.5-2c-0.39-0.98-1.43-1.81-2.04-2.62c0-0.93-0.63-1.57-1.16-2.26
		c-1.37,0.13-1.21,2-2.57,2.45c-1.97,1.45-2.84,4.51-5.5,4.79c-0.59,0.53-1.5,0.3-2.15,0.73c-1.46,0.98-3.49,0.64-4.97,1.62
		c-0.44,0.04-0.83-0.04-1.17-0.26c-0.28-1.43-1.26-2.55-1.05-4.17c-0.42-0.77-1.2-1.81-2.15-1.9c-1.48,0.11-1.67,2.25-3.19,2.26
		c-0.83,0.26-1.67,0.51-2.31,1.17c-1.13,0.17-1.89,1.28-2.95,1.64c-1.41-0.67-1.68-2.39-3.02-3.26c-0.32-1.34-2.2-1.45-2.22-2.98
		c-0.22-1.11-0.84-2.04-0.98-3.17c0.05-0.51-0.5-0.81-0.08-1.28c1.57,0.19,3.7,0.91,5.05-0.26c1.28-0.66,3.17-0.36,3.74-2.17
		c0.11-0.74,0.24-1.7-0.54-2.17c-0.39-0.11-1-0.23-1.33,0.08c-0.84,1.41-2.24,2.59-3.82,2.72c-0.18-0.66-0.37-1.32-0.54-1.98
		l-0.09-2.09c-0.58-0.87-0.35-2.11-0.54-3.17c-0.17-0.06-0.06-0.23-0.09-0.36c2.04-0.06,4.39,0.15,6.41-0.17
		c0.58-0.6,0.35-1.51,0.54-2.27c-0.42-0.88-1.67-0.26-2.41-0.19c-0.63,0.15-1.39,0.27-2.04,0.09c-0.82-0.68-1.02-1.7-1.87-2.26
		c-1.08,0.4-0.84,1.68-1.24,2.53c-0.35,0.36-0.72,0.7-0.8,1.19c-0.22,0.11-0.16,0.34-0.18,0.53c-0.06,1-1.74,1.3-1.24,2.55
		c-0.02,0.28-0.33,0.61-0.63,0.62c-0.89,0.11-1.44-0.81-2.13-0.98c-0.5-0.34-0.56-0.87-0.89-1.29c-1.2-0.11-2.35-0.34-3.2-1.36
		c-0.09-0.68,0.28-1.77-0.35-2.34c-0.09-1.11,1.24-0.96,1.87-1.45c2.07-0.62,4.33-1,5.78-3c3.13-5.94,6.82-11.66,7.91-18.47
		c0.85-4.06,2.59-7.74,2.67-12.13c0.18-0.47,0.76-0.27,1.07-0.19C287.89,84,289,84.81,289.39,85.85z M229.21,84.21
		c0.58,0.49,1.74,0.11,1.96,0.91c0,0.75-0.82,1.19-0.89,1.9c-0.85,1.62-2.83,2.76-3.11,4.63c-0.11,2.02,2.24,0.64,3.28,1.17
		c2.47,0.79,4.93-0.32,7.37-0.09c2.17-0.28,4.55-0.02,6.41-1.08c1.52-0.4,3.42-0.11,4.89,0.45c0.84,0.94,0.6,2.36,0.89,3.53
		c0,2.17-1.33,3.76-1.59,5.79c-0.09,0.51-0.15,1.02-0.63,1.36c-1.81,0.28-3.21-1.32-4.98-0.36c-0.37,0.19-0.84,0.19-1.24,0.27
		c-0.09,0-0.2-0.02-0.26,0.1c-0.11-0.23-0.2,0.11-0.37,0c-1.8-0.29-3.61-0.57-5.6-0.45c-0.76,0.83-0.98,1.87-1.24,2.9
		c0.15,0.61,0.32,1.42,1.06,1.53c0.87,0.1,1.48-0.42,2.22-0.62c2.04-0.09,4-0.06,5.43,1.36c0.35,0.89,0.06,2.04,0.28,2.98
		c0.27,1.49,0.55,3.08,0.44,4.62c-0.39,0.13,0.01,0.6-0.37,0.72c-0.57,4.51,0.32,9.06,0.28,13.68c-0.13,3.96,1.1,8.24-0.35,11.87
		c-0.35,0.79-0.02,1.95-0.63,2.53c-3.02,0.49-6.19-0.25-9.34-0.27c-1.88,0.36-3.72-0.49-5.33-1.36c-0.93,0.4-1.26-0.68-2.04-0.64
		c0.59-0.79,1.91-1.11,2.04-2.27c-0.09-0.58-0.07-1.24-0.7-1.62c-2.89-0.49-6.11-0.19-9.17-0.26c-0.44-0.38-1.06-0.51-1.33-1.09
		c-0.18-1.66,0.44-3.34-0.26-4.8c0.04-1.13,0.72-2.3,0.09-3.36c-0.28-1.26,0.13-2.47,0-3.81c-0.72-0.62-1.56-0.98-2.5-1.08
		c0.02,0.83-0.22,1.8-0.26,2.72c0.41,4.08,0.3,8.37,0.44,12.58c0.04,1.17-0.63,2.3-1.59,2.81c-1.02-0.4-1.37,0.83-2.22,0.81
		c-1.59-0.15-3-0.72-4.44-1.17c-0.37-1.25-0.06-2.77-0.28-4.08l-0.09-0.09l0.09-0.09c-0.43-1.34,0.08-2.72-0.09-4.17
		c-0.06-6.45,0.15-12.91-0.17-19.38c-0.15-1.77-0.52-3.43,0-5.17c0.3-0.58,0.06-1.51,0.89-1.81c2.37-0.19,4.67,0.29,6.93,0.64
		c0.67-0.21,1.61,0.13,1.96-0.64c0.24-1.3-1.22-1.89-1.24-3.07c-0.17-0.32-0.48-0.23-0.72-0.36c-0.81,0.15-1.54,0.77-2.39,0.55
		c-2.92,0.53-6.09,0.38-8.89,1.17c-1.22,0.11-1.24-1.38-2.05-1.98c-0.35-0.72-0.04-1.7-0.26-2.45c-1.95-2-1.72-5.45-1.07-7.96
		c-0.06-0.26,0.07-0.45,0.18-0.64c1.43,0.34,2.39,1.87,4.09,1.55c3.35,0.51,7.04,0.47,10.39,0.72c0.13-0.15,0.41-0.11,0.54,0
		c2.17-0.13,4.37-0.09,6.48-0.36c0.37-0.23,0.93-0.1,1.08-0.64c-0.46-0.93-1.5-1.36-2.04-2.27c-0.37-0.51-0.89-0.96-1.33-1.45
		c-0.05-0.87,0.17-1.89-0.44-2.53c-0.35-0.66-0.74-1.43-0.44-2.27c1.37-1.77,3.5-0.41,5.5-0.81c0.54-0.15,1.02-0.4,1.62-0.46
		C226.01,82.89,227.77,83.13,229.21,84.21z M142.62,84.3c0.39,0.09,0.93-0.23,1.15,0.26c0.41,3.9-0.39,7.98,0,11.87
		c0.67,1.19,2.26,0.75,3.39,0.74c0.57-0.32,1.02-0.77,1.33-1.36c0.13-1.28-0.57-2.21-0.72-3.36c-0.32-1.23-0.83-2.34-0.8-3.72
		c0.39-0.25-0.04-0.83,0.35-1.08c4.18,0.98,8.78,1,13.08,1.72c0.59,0.15,1.13,0.44,1.78,0.45c0.22,0.09,0.26-0.19,0.45,0
		c3.89,0.23,6.74-2.15,10.76-1.64c1.91,0.38,4.93-0.62,5.41,1.91c0.09,0.79-0.48,1.26-0.52,2c-0.26,0.57-0.39,1.17-0.45,1.81
		c-1.13,4.23-2.82,8.23-3.65,12.59c-0.59,1.49-1.33,2.9-1.78,4.43c-1.19,1.11-2.28,2.42-3.21,3.72c-0.65,0.38-1.76-0.08-2.04,0.81
		c-0.04,0.79-0.06,1.55,0.7,2c1.81,0.23,4.07,0.45,5.59-0.55c0.7-0.06,1.52,0.02,1.78,0.64c0.09,2.43-1.58,4.24-0.96,6.79
		c-0.15,4.87-0.28,10.17,0.8,14.75c-0.13,0.66,0.3,1.55-0.35,2c-0.37,0.79,0.45,2.32-0.72,2.53c-0.56,0.01-1.15,0.54-1.69,0.09
		c-2.76-1.41-6.28-0.4-9.24-0.19c-2.24-1.02-5.45-0.28-7.74-0.62c-0.11,0.04-0.41-0.04-0.61,0l-4.54,0.26
		c-0.28,0.29-0.72,0.17-0.98,0.46c-0.98,0.27-0.98-1.06-1.59-1.55l-0.37-0.36l-0.17-13.76c0.22-1.58-0.09-3.38,0.26-4.91
		c-0.26-1.83-1.76-2.96-3.21-3.98c-0.7-0.26-1.17,0.43-1.41,0.9c-0.17,0.36-0.15,0.81-0.28,1.19c-0.59,2.6,0.02,5.38-0.17,8.15
		c0.52,0.68,0.41,1.64,0.7,2.44c0.26,2.32-0.2,4.55-0.18,6.89c0.09,0.26,0.32,0.62,0.09,0.91c0.06,0.53-0.04,1.2-0.26,1.72
		c-0.22,0.49-0.24,1.08-0.72,1.45c-1.48,0.04-3.24-0.08-4.8,0.1l-0.09-0.1c-1.89,0.1-4.46,0.76-5.85-0.9
		c-0.57-0.72-1.56-1.19-1.7-2.17c0.65-1.7,2.11-2.89,3.56-3.91c0.43-0.06,0.95,0.15,1.26-0.17c0.3,0.15,0.39-0.25,0.61-0.29
		c0.13-1.96,0.13-4.09,0-6.05l0.09-0.09c-0.13-1.51-0.22-3.04-1.08-4.27c-0.09-0.34-0.46-0.06-0.61-0.26
		c-1.19,0.93-2.2,2.62-3.83,2.62c-0.63,0.36-1.28,0.7-1.85,1.19c-0.57,0.53-1.06,1.1-1.43,1.72h-0.19
		c-0.72-4.44-4.22-7.72-3.91-12.59c0.37-0.83,1.59-0.32,2.41-0.45c2.39-1.76,6.3,0.17,8.52-2c1.52-1.02,3.35-2.53,2.85-4.72
		c-0.17-1.15-0.59-2.26-1.59-2.98c-1.31-0.66-1.96,1.13-3.2,0.64c-0.39-0.04-1.07,0.08-1.52-0.1c-0.61-0.34-1.5-0.24-1.87-1
		c0.06-0.89-0.04-1.93-0.26-2.81c-0.63-2.23-2.04-4.13-1.87-6.7c0.83-0.38,1.44,0.32,2.32,0.1c2.41-0.19,4.96,0.04,7.2-0.55
		c0.76-0.38,1.02-1,1.33-1.72c-0.02-4.42-2.59-8.21-1.17-12.78c0.59-0.17,1.08-0.15,1.61,0.09
		C138.56,83.64,140.56,84.02,142.62,84.3z"/>
	<path class="st6" d="M136.67,156.68h-0.49c-0.22,0.59-0.61,0.76-1.02,0.76c-0.27,0-0.57-0.09-0.81-0.18
		c-1.12-0.41-1.89-0.58-3.11-0.59c-4.33,0-7.36,2.81-7.36,6.55c0,3.74,3.03,6.55,7.36,6.55c2.03,0,4.23-0.85,5.45-2.34l-0.54-0.65
		c-1.12,1.14-2.69,2.04-4.73,2.04c-2.68,0-3.46-2.34-3.46-5.72c0-3.38,0.77-5.7,3.46-5.7c2.36,0,4.02,1.87,4.76,3.57h0.49V156.68z
		 M382.68,169.43h7.24V169c-1.26-0.04-1.73-0.12-1.73-1.59v-3.46l0.3-0.24l3.11,3.94c0.35,0.45,0.55,0.8,0.55,0.94
		c0,0.38-0.61,0.4-1.02,0.42v0.43h6.59V169c-0.82-0.04-1.22-0.65-1.65-1.19l-5.01-6.3l3.46-2.92c0.61-0.51,1.77-1.17,2.87-1.17
		v-0.43h-5.51v0.43c0.55,0,1.61,0,1.61,0.6c0,0.27-0.57,0.93-1.42,1.64l-3.88,3.25V159c0-1.46,0.47-1.55,1.73-1.59v-0.43h-7.24v0.43
		c1.26,0.03,1.73,0.13,1.73,1.59v8.41c0,1.46-0.47,1.55-1.73,1.59V169.43z M367.03,169.43h5V169c-1.34,0.02-2.24-0.2-2.24-1.72
		v-7.68l10.33,10.16h0.49v-10.63c0-1.1,0.43-1.66,1.54-1.72v-0.43h-4.63v0.43c1.24,0,2.11,0.2,2.11,1.72v5.29l-7.5-7.44h-5.11v0.43
		c0.65,0.02,0.85,0.02,1.79,1.14v8.66c0,1.14-0.45,1.73-1.79,1.79V169.43z M354.77,165.14l2.07-4.21l2.21,4.21H354.77z
		 M350.68,169.43h4.8V169c-0.85,0-1.83-0.11-1.83-1.07c0-0.49,0.49-1.61,0.76-2.08h5.1l0.27,0.52c0.18,0.34,0.81,1.48,0.81,1.9
		c0,0.33-0.24,0.56-0.51,0.63c-0.24,0.07-0.65,0.09-1.12,0.09v0.43h7.73V169c-0.75,0-1.3-0.37-1.69-0.92
		c-0.39-0.56-0.73-1.26-1.24-2.2l-5.04-9.22h-0.69l-5.1,10.23c-0.63,1.25-0.77,1.95-2.24,2.11V169.43z M337.26,169.43h5.75
		c0.54,0,1.62,0,2.29-0.06c2.78-0.21,5.01-1.04,5.01-3.5c0-1.12-1.06-2.15-2.05-2.55c-0.69-0.27-1.4-0.49-2.13-0.56
		c0.37-0.09,0.77-0.18,1.34-0.42c1.18-0.49,1.99-1.32,1.99-2.51c0-1.17-0.51-1.66-1.08-2.09c-0.96-0.74-2.68-0.77-4.6-0.77h-6.52
		v0.43c1.26,0.03,1.73,0.13,1.73,1.59v8.41c0,1.46-0.47,1.55-1.73,1.59V169.43z M342.77,158.16c0-0.3,0.14-0.55,0.78-0.55
		c0.31,0,0.91,0.02,1.32,0.35c0.62,0.49,0.81,1.3,0.81,2.15c0,2.02-1.1,2.42-2.12,2.42h-0.79V158.16z M342.77,163.15h0.88
		c1.38,0,2.73,0.69,2.73,2.87c0,1.58-0.51,2.78-2.59,2.78c-0.91,0-1.02-0.09-1.02-1.26V163.15z M322.17,169.76h0.53
		c0.1-0.34,0.26-0.54,0.71-0.54c0.55,0,1.75,0.54,3.13,0.54c2.95-0.04,5.02-1.7,5.02-4.13c0-1.39-0.85-2.73-2.56-3.52l-2.58-1.19
		c-0.97-0.45-1.91-0.9-1.91-2.02c0-0.96,0.92-1.51,1.95-1.51c1.89,0,3.33,1.67,3.68,3.19h0.55l-0.12-3.91H330
		c-0.02,0.36-0.35,0.5-0.69,0.5c-0.25,0-0.51-0.05-0.69-0.13c-0.72-0.27-1.73-0.38-2.18-0.38c-2.5,0-4.27,1.61-4.27,3.8
		c0,1.61,0.81,2.64,2.56,3.5l2.24,1.1c1.02,0.51,1.91,1.01,1.91,2.13c0,1.19-1.1,1.84-2.44,1.84c-2.11,0-3.5-1.92-3.84-3.58h-0.55
		L322.17,169.76z M310.84,169.43h7.97V169c-1.53-0.04-2.1-0.31-2.1-1.57v-9.33c0-0.4,0.12-0.4,0.71-0.4c1.93,0,3.11,1.05,3.42,2.67
		h0.49l-0.16-3.39h-12.69l-0.16,3.39h0.49c0.31-1.63,1.49-2.67,3.42-2.67c0.59,0,0.71,0,0.71,0.4v9.33c0,1.26-0.57,1.53-2.09,1.57
		V169.43z M293.03,169.43h5V169c-1.34,0.02-2.24-0.2-2.24-1.72v-7.68l10.33,10.16h0.49v-10.63c0-1.1,0.43-1.66,1.55-1.72v-0.43
		h-4.64v0.43c1.24,0,2.11,0.2,2.11,1.72v5.29l-7.5-7.44h-5.1v0.43c0.65,0.02,0.85,0.02,1.79,1.14v8.66c0,1.14-0.45,1.73-1.79,1.79
		V169.43z M280.77,165.14l2.07-4.21l2.22,4.21H280.77z M276.69,169.43h4.8V169c-0.85,0-1.83-0.11-1.83-1.07
		c0-0.49,0.49-1.61,0.75-2.08h5.1l0.26,0.52c0.18,0.34,0.81,1.48,0.81,1.9c0,0.33-0.24,0.56-0.51,0.63
		c-0.24,0.07-0.65,0.09-1.12,0.09v0.43h7.73V169c-0.75,0-1.3-0.37-1.69-0.92c-0.38-0.56-0.73-1.26-1.24-2.2l-5.04-9.22h-0.69
		l-5.1,10.23c-0.63,1.25-0.77,1.95-2.24,2.11V169.43z M260.07,169.43h7.24V169c-1.26-0.04-1.73-0.12-1.73-1.59v-4.01h5.25v4.01
		c0,1.46-0.47,1.55-1.73,1.59v0.43h7.24V169c-1.26-0.04-1.73-0.12-1.73-1.59V159c0-1.46,0.47-1.55,1.73-1.59v-0.43h-7.24v0.43
		c1.26,0.03,1.73,0.13,1.73,1.59v3.58h-5.25V159c0-1.46,0.47-1.55,1.73-1.59v-0.43h-7.24v0.43c1.26,0.03,1.73,0.13,1.73,1.59v8.41
		c0,1.46-0.47,1.55-1.73,1.59V169.43z M259.23,156.68h-0.49c-0.22,0.59-0.61,0.76-1.02,0.76c-0.26,0-0.57-0.09-0.81-0.18
		c-1.12-0.41-1.89-0.58-3.11-0.59c-4.33,0-7.36,2.81-7.36,6.55c0,3.74,3.03,6.55,7.36,6.55c2.04,0,4.23-0.85,5.45-2.34l-0.54-0.65
		c-1.13,1.14-2.69,2.04-4.73,2.04c-2.68,0-3.46-2.34-3.46-5.72c0-3.38,0.77-5.7,3.46-5.7c2.36,0,4.02,1.87,4.76,3.57h0.49V156.68z
		 M236.32,158.59c0-0.67,0.08-0.98,1.12-0.98c1.73,0,2.6,1.14,2.6,2.64c0,1.96-1.44,2.71-3.29,2.71h-0.43V158.59z M230.81,169.43
		h7.24V169c-1.26-0.04-1.73-0.12-1.73-1.59v-3.83h0.61l3.9,5.85h4.72V169c-0.29,0-0.49-0.06-0.81-0.38
		c-0.32-0.32-0.75-0.9-1.52-1.97l-2.46-3.41c1.61-0.4,3.23-1.46,3.23-3.09c0-1.6-1.36-2.61-3.01-2.96c-0.96-0.2-3.3-0.22-5.55-0.22
		h-4.62v0.43c1.26,0.03,1.73,0.13,1.73,1.59v8.41c0,1.46-0.47,1.55-1.73,1.59V169.43z M216.6,169.43h12.36l0.79-3.77l-0.49-0.11
		c-0.08,0.27-0.45,1.1-1.03,1.72c-1.36,1.42-2.4,1.44-4.49,1.44c-1.55,0-1.63-0.24-1.63-1.55v-3.95c2.24,0,2.99,0.92,3.26,2.76h0.49
		v-6.15h-0.49c-0.26,1.84-1.02,2.76-3.26,2.76v-3.94c0-0.9,0.27-0.94,1.26-0.94h1.3c2.48,0,3.44,0.96,3.66,2.8h0.49v-3.52H216.6
		v0.43c1.26,0.03,1.73,0.13,1.73,1.59v8.41c0,1.46-0.47,1.55-1.73,1.59V169.43z M197.62,169.43h4.45V169
		c-1.75,0-1.91-0.64-1.91-2.03v-8.44l4.78,10.9h0.67l5.04-10.9l0.04,8.88c0,1.46-0.47,1.55-1.73,1.59v0.43H216V169
		c-1.26-0.04-1.73-0.12-1.73-1.59V159c0-1.46,0.47-1.55,1.73-1.59v-0.43h-5.61l-3.66,8l-3.46-8h-5.65v0.43
		c1.02,0.03,1.57,0.14,1.57,1.39v7.89c0,2.11-0.57,2.31-1.57,2.31V169.43z M180.69,165.14l2.07-4.21l2.22,4.21H180.69z
		 M176.6,169.43h4.8V169c-0.85,0-1.83-0.11-1.83-1.07c0-0.49,0.49-1.61,0.75-2.08h5.1l0.26,0.52c0.18,0.34,0.81,1.48,0.81,1.9
		c0,0.33-0.24,0.56-0.51,0.63c-0.24,0.07-0.65,0.09-1.12,0.09v0.43h7.73V169c-0.75,0-1.3-0.37-1.69-0.92
		c-0.39-0.56-0.73-1.26-1.24-2.2l-5.04-9.22h-0.69l-5.1,10.23c-0.63,1.25-0.77,1.95-2.24,2.11V169.43z M161.49,169.43h5V169
		c-1.34,0.02-2.24-0.2-2.24-1.72v-7.68l10.33,10.16h0.49v-10.63c0-1.1,0.43-1.66,1.55-1.72v-0.43h-4.64v0.43
		c1.24,0,2.12,0.2,2.12,1.72v5.29l-7.5-7.44h-5.1v0.43c0.65,0.02,0.85,0.02,1.79,1.14v8.66c0,1.14-0.45,1.73-1.79,1.79V169.43z
		 M154.05,169.43h7.24V169c-1.26-0.04-1.73-0.12-1.73-1.59V159c0-1.46,0.47-1.55,1.73-1.59v-0.43h-7.24v0.43
		c1.26,0.03,1.73,0.13,1.73,1.59v8.41c0,1.46-0.47,1.55-1.73,1.59V169.43z M137.56,169.43h7.24V169c-1.26-0.04-1.73-0.12-1.73-1.59
		v-4.01h5.24v4.01c0,1.46-0.47,1.55-1.73,1.59v0.43h7.24V169c-1.26-0.04-1.73-0.12-1.73-1.59V159c0-1.46,0.47-1.55,1.73-1.59v-0.43
		h-7.24v0.43c1.26,0.03,1.73,0.13,1.73,1.59v3.58h-5.24V159c0-1.46,0.47-1.55,1.73-1.59v-0.43h-7.24v0.43
		c1.26,0.03,1.73,0.13,1.73,1.59v8.41c0,1.46-0.47,1.55-1.73,1.59V169.43z"/>
</g>
</svg>
