<?xml version="1.0" encoding="utf-8"?>
<!-- Generator: Adobe Illustrator 19.2.1, SVG Export Plug-In . SVG Version: 6.00 Build 0)  -->
<svg version="1.1" id="layer" xmlns="http://www.w3.org/2000/svg" xmlns:xlink="http://www.w3.org/1999/xlink" x="0px" y="0px"
	 viewBox="0 0 652 652" style="enable-background:new 0 0 652 652;" xml:space="preserve">
<path d="M219.4,304.7h7.7v17.6h20.1v-17.6h7.7v41.2h-7.7v-16.7h-20.1v16.7h-7.7V304.7z M351.4,306.9c3.3,1.8,5.9,4.4,7.7,7.6
	c1.9,3.2,2.8,6.8,2.8,10.7c0,3.9-0.9,7.5-2.8,10.7s-4.5,5.8-7.7,7.7c-3.3,1.9-6.9,2.8-10.9,2.8s-7.6-0.9-10.9-2.8
	c-3.3-1.9-5.9-4.4-7.7-7.7s-2.8-6.8-2.8-10.7c0-3.9,0.9-7.5,2.8-10.7c1.9-3.2,4.5-5.7,7.7-7.6c3.3-1.8,6.9-2.8,10.9-2.8
	S348.1,305.1,351.4,306.9z M333.7,313.1c-2.1,1.2-3.8,2.9-5,5.1c-1.2,2.1-1.8,4.5-1.8,7.1c0,2.6,0.6,5,1.9,7.1
	c1.2,2.2,2.9,3.9,5,5.1c2.1,1.3,4.4,1.9,6.8,1.9c2.4,0,4.7-0.6,6.7-1.9c2.1-1.3,3.7-3,4.9-5.1c1.2-2.2,1.8-4.5,1.8-7.1
	c0-2.6-0.6-5-1.8-7.1c-1.2-2.1-2.8-3.8-4.9-5.1c-2.1-1.2-4.3-1.9-6.7-1.9C338.1,311.2,335.9,311.8,333.7,313.1z M404.7,304.7h7.5
	v41.2h-7.3l-20.7-28.4v28.4h-7.5v-41.2h7.3l20.8,28.4V304.7z M429.9,304.7h7.7v41.2h-7.7V304.7z M479.6,312.6
	c-1.9-0.9-3.9-1.4-5.9-1.4c-2.5,0-4.8,0.6-6.8,1.8c-2.1,1.2-3.7,2.9-4.9,5c-1.2,2.1-1.8,4.5-1.8,7s0.6,4.9,1.8,7
	c1.2,2.1,2.8,3.8,4.9,5.1c2.1,1.2,4.4,1.9,6.8,1.9c1.9,0,3.8-0.4,5.8-1.3c1.9-0.9,3.7-2.1,5.1-3.6l4.5,5.2c-2.1,2.2-4.6,3.9-7.4,5.2
	c-2.8,1.3-5.6,1.9-8.5,1.9c-3.9,0-7.4-0.9-10.6-2.8c-3.2-1.9-5.8-4.4-7.6-7.7c-1.8-3.2-2.8-6.8-2.8-10.7c0-3.9,0.9-7.5,2.8-10.7
	c1.9-3.2,4.4-5.7,7.7-7.6c3.2-1.8,6.8-2.8,10.8-2.8c2.9,0,5.7,0.6,8.4,1.8c2.8,1.2,5.1,2.8,7.1,4.9l-4.5,5.8
	C483.2,314.9,481.5,313.6,479.6,312.6z M503.4,304.7h7.7v34.1h17.4v7.1h-25.1V304.7z M542.4,304.7h30.2v6.9h-22.5v10.2h16.4v6.9
	h-16.4V339h22.5v6.9h-30.2V304.7z M615.8,307.3c3.2,1.7,5.7,4.2,7.5,7.3c1.8,3.1,2.7,6.7,2.7,10.6c0,4-0.9,7.5-2.7,10.6
	c-1.8,3.1-4.3,5.6-7.6,7.3c-3.2,1.8-6.9,2.6-11,2.6h-16.4v-41.2H605C609,304.7,612.6,305.5,615.8,307.3z M611.8,337.2
	c2-1.2,3.5-2.8,4.6-4.8c1.1-2.1,1.7-4.4,1.7-7c0-2.6-0.6-5-1.7-7.1c-1.2-2.1-2.7-3.7-4.7-4.9c-2-1.2-4.3-1.7-6.8-1.7H596v27.3h9.2
	C607.6,338.9,609.9,338.3,611.8,337.2z M195.6,312.6c-1.9-0.9-3.9-1.4-5.9-1.4c-2.5,0-4.8,0.6-6.8,1.8c-2.1,1.2-3.7,2.9-4.9,5
	c-1.2,2.1-1.8,4.5-1.8,7s0.6,4.9,1.8,7c1.2,2.1,2.8,3.8,4.9,5.1c2.1,1.2,4.4,1.9,6.8,1.9c1.9,0,3.8-0.4,5.8-1.3
	c1.9-0.9,3.7-2.1,5.1-3.6l4.5,5.2c-2.1,2.2-4.6,3.9-7.4,5.2c-2.8,1.3-5.6,1.9-8.5,1.9c-3.9,0-7.4-0.9-10.6-2.8
	c-3.2-1.9-5.7-4.4-7.6-7.7s-2.8-6.8-2.8-10.7c0-3.9,0.9-7.5,2.8-10.7c1.9-3.2,4.4-5.7,7.7-7.6c3.2-1.8,6.8-2.8,10.8-2.8
	c2.9,0,5.7,0.6,8.5,1.8c2.8,1.2,5.1,2.8,7.1,4.9l-4.5,5.8C199.2,314.9,197.5,313.6,195.6,312.6z M299.6,330.8c1,0.4,1.8,1.1,2.6,1.9
	c1.6,1.7,2.4,4.2,2.4,7.3v6.3h-7.4v-5.7c0-2.2-1.9-6.6-8-6.8c-0.1,0-9,0-9,0V346h-7.7v-41.3h16.5c5,0,9,1.2,11.7,3.7
	c2.8,2.5,4.2,6,4.2,10.5c0,4.7-1.4,8.4-4.2,11C300.3,330.2,300,330.5,299.6,330.8z M295.2,324.9c1.5-1.3,2.3-3.2,2.3-5.8
	c0-2.5-0.8-4.4-2.3-5.7c-1.5-1.3-3.8-1.9-6.7-1.9h-8.4v15.3h8.4C291.4,326.8,293.6,326.2,295.2,324.9z M64.2,358.5
	c6.5,4.6,14.4,7.4,22.9,7.4c9.6,0,18.4-3.5,25.3-9.4l5.1,5.2c-8.2,7.2-18.8,11.5-30.4,11.5c-7.9,0-15.3-2-21.9-5.5l-5.3,5.4
	c8,4.8,17.3,7.5,27.2,7.5c13.6,0,26-5.1,35.5-13.6l5.1,5.2c-10.8,9.8-25,15.8-40.6,15.8c-14.5,0-27.8-5.2-38.2-13.8L64.2,358.5z
	 M46,366.7l-2.5,2.6C32.7,358,26,342.5,26,325.5C26,291,53.4,263,87.1,263c16.7,0,31.8,6.8,42.8,17.9l-5.1,5.2
	c-9.7-9.7-23-15.8-37.7-15.8c-29.8,0-53.9,24.7-53.9,55.1c0,12.4,4,23.8,10.7,33l5.2-5.2c-5.5-7.8-8.7-17.4-8.7-27.8
	c0-26.4,20.9-47.8,46.7-47.8c12.7,0,24.2,5.2,32.6,13.6l-13.4,13.7l-1.9,1.9l-0.7-0.7c-4.4-4-10.3-6.5-16.7-6.5
	c-13.9,0-25.2,11.5-25.2,25.7c0,14.2,11.3,25.7,25.2,25.7c5.7,0,10.9-1.9,15.1-5.1l5.1,5.2c-5.5,4.5-12.6,7.2-20.2,7.2
	c-17.9,0-32.3-14.8-32.3-33.1c0-18.3,14.5-33.1,32.3-33.1c6.1,0,11.9,1.7,16.8,4.8l5.2-5.3c-6.3-4.3-13.9-6.8-22-6.8
	c-21.8,0-39.5,18.1-39.5,40.4c0,11,4.3,20.9,11.2,28.2L46,366.7z M126.6,325.5c0-8.7-2.7-16.8-7.3-23.4l5.1-5.3
	c5.9,8,9.3,17.9,9.3,28.6c0,11.9-4.2,22.7-11.2,31.1l-5.1-5.2C123.2,344.3,126.6,335.3,126.6,325.5z"/>
</svg>
