<?xml version="1.0" encoding="UTF-8" standalone="no"?>
<!-- Created with Inkscape (http://www.inkscape.org/) -->

<svg
   version="1.1"
   id="svg2"
   xml:space="preserve"
   width="1042.08"
   height="168.42667"
   viewBox="0 0 1042.08 168.42667"
   sodipodi:docname="Chronicle-dark.eps"
   xmlns:inkscape="http://www.inkscape.org/namespaces/inkscape"
   xmlns:sodipodi="http://sodipodi.sourceforge.net/DTD/sodipodi-0.dtd"
   xmlns="http://www.w3.org/2000/svg"
   xmlns:svg="http://www.w3.org/2000/svg"><defs
     id="defs6" /><sodipodi:namedview
     id="namedview4"
     pagecolor="#ffffff"
     bordercolor="#666666"
     borderopacity="1.0"
     inkscape:pageshadow="2"
     inkscape:pageopacity="0.0"
     inkscape:pagecheckerboard="0" /><g
     id="g8"
     inkscape:groupmode="layer"
     inkscape:label="ink_ext_XXXXXX"
     transform="matrix(1.3333333,0,0,-1.3333333,0,168.42667)"><g
       id="g10"
       transform="scale(0.1)"><path
         d="m 415.445,455.234 c 131.051,119.2 90.907,394.051 100.934,532.063 l 85.312,65.503 V 190.832 c -29.89,6.68 -201.132,93.934 -269.043,189.098 27.946,24.828 55.176,50.175 82.797,75.304 z M 809.324,156.102 c -44.609,0 -88.129,4.789 -130.133,13.867 v 903.101 c 77.786,-24.24 158.602,-51.58 235.801,-77.523 12.875,-4.473 19.313,-2.52 27.988,6.333 52.68,54.85 108.19,106.62 159.94,162.29 -618.756,53.8 -160.932,272.69 -777.596,-188.693 -8.988,-6.93 -24.379,-13.946 -24.336,-24.559 V 420.527 c -78.019,108.614 -124.191,243.075 -124.191,388.692 0,155.351 52.562,298.011 140.281,410.121 C 127.57,1106.52 0,895.207 0,653.113 0,292.414 283.195,0 632.531,0 831.414,0 1008.82,94.8008 1124.78,243 1031.92,187.73 924.203,156.102 809.324,156.102"
         style="fill:#161d2a;fill-opacity:1;fill-rule:nonzero;stroke:none"
         id="path12" /><path
         d="m 1209.09,34.332 c 96.11,1.7071 114.99,18.8789 114.99,60.0664 V 1119.02 c 0,51.49 -17.16,82.39 -121.86,84.09 v 20.6 l 386.17,20.59 V 650.469 c 72.08,101.258 187.07,168.203 296.92,168.203 152.74,0 219.67,-90.965 219.67,-255.734 V 94.3984 c 0,-41.1875 17.17,-58.3593 116.71,-60.0664 V 13.7305 H 1754.87 V 34.332 c 60.06,1.7071 85.81,18.8789 85.81,60.0664 V 561.23 c 0,89.239 -37.76,142.45 -114.99,142.45 -53.21,0 -94.4,-34.325 -137.3,-87.539 V 94.3984 c 0,-41.1875 25.74,-58.3593 85.81,-60.0664 V 13.7305 H 1209.09 V 34.332"
         style="fill:#161d2a;fill-opacity:1;fill-rule:nonzero;stroke:none"
         id="path14" /><path
         d="m 2261.14,34.332 c 97.82,1.7071 116.7,18.8789 116.7,60.0664 V 688.23 c 0,51.489 -18.88,82.383 -116.7,84.106 v 20.586 l 377.57,20.601 V 652.195 c 53.21,104.692 145.89,166.477 240.29,166.477 106.4,0 164.75,-65.215 164.75,-154.461 0,-89.262 -56.63,-151.035 -135.58,-151.035 -92.68,0 -145.88,65.211 -145.88,133.867 0,25.738 6.86,54.922 13.73,77.234 -41.19,-3.437 -99.54,-48.066 -133.87,-106.418 V 94.3984 c 0,-41.1875 25.74,-54.9179 157.89,-60.0664 V 13.7305 h -538.9 V 34.332"
         style="fill:#161d2a;fill-opacity:1;fill-rule:nonzero;stroke:none"
         id="path16" /><path
         d="m 3670.17,413.625 c 0,231.695 -37.75,375.867 -154.46,375.867 -114.99,0 -139.03,-144.172 -139.03,-375.867 0,-231.695 37.77,-379.293 154.48,-379.293 113.27,0 139.01,147.598 139.01,379.293 z m -573.24,-3.43 c 0,255.723 164.76,413.621 427.35,413.621 269.46,0 425.64,-151.035 425.64,-406.757 C 3949.92,159.621 3785.16,0 3524.28,0 3251.4,0 3096.93,152.75 3096.93,410.195"
         style="fill:#161d2a;fill-opacity:1;fill-rule:nonzero;stroke:none"
         id="path18" /><path
         d="m 4028.85,34.332 c 97.83,1.7071 116.71,18.8789 116.71,60.0664 V 688.23 c 0,51.489 -18.88,82.383 -116.71,84.106 v 20.586 l 377.59,20.601 V 650.469 c 72.08,101.258 187.07,168.203 296.91,168.203 152.75,0 217.97,-90.965 217.97,-255.734 V 94.3984 c 0,-41.1875 17.16,-58.3593 114.99,-60.0664 V 13.7305 H 4569.48 V 34.332 c 60.07,1.7071 87.53,18.8789 87.53,60.0664 V 561.23 c 0,89.239 -32.6,142.45 -109.84,142.45 -53.2,0 -94.39,-34.325 -137.3,-87.539 V 94.3984 c 0,-41.1875 25.74,-58.3593 84.1,-60.0664 V 13.7305 H 4028.85 V 34.332"
         style="fill:#161d2a;fill-opacity:1;fill-rule:nonzero;stroke:none"
         id="path20" /><path
         d="m 5177.01,1077.83 c 0,94.4 61.78,156.17 152.75,156.17 92.67,0 152.74,-58.35 152.74,-149.3 0,-94.399 -60.07,-154.477 -152.74,-154.477 -90.97,0 -152.75,53.215 -152.75,147.607 z M 5077.46,34.332 c 97.84,1.7071 123.58,18.8789 123.58,60.0664 V 688.23 c 0,51.489 -25.74,82.383 -123.58,84.106 v 20.586 l 387.88,20.601 V 94.3984 c 0,-41.1875 15.45,-58.3593 115,-60.0664 V 13.7305 H 5077.46 V 34.332"
         style="fill:#161d2a;fill-opacity:1;fill-rule:nonzero;stroke:none"
         id="path22" /><path
         d="m 5643.82,399.902 c 0,269.453 185.36,423.914 437.66,423.914 245.43,0 334.67,-106.414 334.67,-195.652 0,-82.383 -48.05,-139.023 -133.87,-139.023 -96.11,0 -142.45,61.785 -142.45,130.441 0,56.629 34.32,99.539 66.93,114.988 -15.44,29.18 -54.92,58.352 -116.7,58.352 -106.41,0 -166.48,-151.027 -166.48,-375.863 0,-175.059 66.93,-344.9692 233.42,-344.9692 87.52,0 187.07,51.4802 250.57,139.0122 l 18.88,-12.012 C 6345.78,73.8086 6234.22,0 6066.03,0 5803.44,0 5643.82,145.891 5643.82,399.902"
         style="fill:#161d2a;fill-opacity:1;fill-rule:nonzero;stroke:none"
         id="path24" /><path
         d="m 6472.76,34.332 c 96.11,1.7071 114.99,18.8789 114.99,60.0664 V 1119.02 c 0,51.49 -17.17,82.39 -121.86,84.09 v 20.6 l 386.16,20.59 V 94.3984 c 0,-41.1875 17.16,-58.3593 114.99,-60.0664 V 13.7305 H 6472.76 V 34.332"
         style="fill:#161d2a;fill-opacity:1;fill-rule:nonzero;stroke:none"
         id="path26" /><path
         d="m 7306.84,461.68 h 243.72 c 22.3,199.09 -17.17,327.812 -111.56,327.812 -89.25,0 -125.3,-125.281 -132.16,-327.812 z m -278.03,-61.778 c 0,269.453 187.07,423.914 420.48,423.914 245.43,0 377.59,-159.605 365.58,-396.464 h -508.03 v -24.02 -3.43 c 0,-216.261 87.54,-326.0934 252.29,-326.0934 101.26,0 169.92,49.7614 233.42,137.2934 l 18.88,-12.012 C 7730.76,73.8086 7619.2,0 7451.01,0 c -250.58,0 -422.2,139.02 -422.2,399.902"
         style="fill:#161d2a;fill-opacity:1;fill-rule:nonzero;stroke:none"
         id="path28" /></g></g></svg>
