<svg xmlns="http://www.w3.org/2000/svg" role="img" viewBox="-1.77 -1.77 92.30 27.93"><path d="M88.825 9.4v-.9c0-.2-.2-.4-.4-.4h-5.4c-.2 0-.4.2-.4.4v7.4c0 .2.2.4.4.4h5.4c.2 0 .4-.2.4-.4V15c0-.2-.2-.4-.4-.4h-3.9V13h3.4c.2 0 .4-.2.4-.4v-.9c0-.2-.2-.4-.4-.4h-3.4V9.7h3.9c.2.1.4-.1.4-.3m-26 6.3c-.9-2.2-2.6-6.3-3-7.3-.1-.1-.2-.2-.3-.2h-1.4c-.1 0-.3.1-.3.2-.4 1-2.1 5-3 7.2 0 0 0 .1-.1.2-.1.2.1.5.3.5h1.2c.1 0 .3-.1.3-.2l.4-1.1c.1-.1.2-.2.3-.2h2.8c.1 0 .3.1.3.2l.4 1.1c.1.1.2.2.3.2h1.2c.3 0 .4-.3.3-.5.3 0 .3-.1.3-.1m-5.1-2.6c.3-.8.7-1.7 1-2.6.3.9.7 1.7 1 2.6zm13.6-4.9h-1.2c-.2 0-.4.2-.4.4v3.9c0 1.6-.4 2.4-1.8 2.4-1.3 0-1.8-.8-1.8-2V8.6c0-.2-.2-.4-.4-.4h-1.1c-.2 0-.4.2-.4.4v4.1c0 .5.1.9.2 1.4.3 1.3 1 2.1 2.3 2.4.7.2 1.4.2 2 0 1.3-.2 2.1-.9 2.5-2.2.2-.6.2-1.2.2-1.7v-4c.2-.3.1-.4-.1-.4m-18.7 6.5h-3.2V8.5c0-.2-.2-.4-.4-.4h-1.1c-.2 0-.4.2-.4.4v7.4c0 .2.2.4.4.4h4.3c.1 0 .3-.1.3-.2l.4-.9c.1-.3 0-.5-.3-.5m26.9-2.6c-.4-.2-.9-.4-1.3-.5l-1.2-.3c-.2-.1-.5-.2-.7-.3-.4-.3-.4-.8.1-1.1.2-.1.3-.1.5-.1 1.1-.1 1.8.1 2.8.5.2.1.5-.1.5-.3V9c0-.1-.1-.3-.2-.3s-.2-.1-.2-.1c-1.2-.5-2.4-.5-3.6-.3-.6.1-1.1.4-1.5.8-.8 1-.6 2.5.4 3.3.5.4 1 .6 1.6.7l1.2.3c.2.1.5.2.7.3.4.3.3.8-.1 1-.1.1-.3.2-.5.2-1.2.2-2.4-.1-3.2-.4-.2-.1-.5.1-.5.3v.8c0 .1.1.2.2.3.1 0 .1.1.1.1.6.3 1.3.4 2 .5.8 0 1.6 0 2.4-.3.7-.2 1.3-.7 1.5-1.4.4-1.1.1-2.1-1-2.7m-35.7 1.6c-.1 0-.2.1-.3.2-.6.9-1.6 1-2.6.9-.7-.2-1.3-.6-1.5-1.4-.4-1.1-.3-3.3 1.4-3.7.7-.2 2-.2 2.7.8.1.1.2.2.3.2h1.2c.3 0 .4-.3.3-.5-.3-.8-1.3-2.2-3.8-2.2-2.9 0-4.2 1.9-4.2 4.3 0 2.2 1.2 4.3 4.2 4.3 2.5 0 3.5-1.4 3.8-2.3.1-.2-.1-.5-.3-.5-.3-.1-.9-.1-1.2-.1m0 0c-.1 0-.2.1-.3.2-.6.9-1.6 1-2.6.9-.7-.2-1.3-.6-1.5-1.4-.4-1.1-.3-3.3 1.4-3.7.7-.2 2-.2 2.7.8.1.1.2.2.3.2h1.2c.3 0 .4-.3.3-.5-.3-.8-1.3-2.2-3.8-2.2-2.9 0-4.2 1.9-4.2 4.3 0 2.2 1.2 4.3 4.2 4.3 2.5 0 3.5-1.4 3.8-2.3.1-.2-.1-.5-.3-.5-.3-.1-.9-.1-1.2-.1" class="st0"/><path fill="#1942b3" d="M28.525 13.7h-5c-1 0-2 .4-2.7 1.1l-7.3 7.3c-.4.4-.8.6-1.4.6-.5 0-1-.2-1.4-.6l-8.5-8.5c-.8-.8-.8-2 0-2.7l8.5-8.5c.4-.4.8-.6 1.4-.6.5 0 1 .2 1.4.6l7.3 7.3c.7.7 1.7 1.1 2.7 1.1h5c.6 0 1.1-.4 1.4-.9.2-.5.1-1.2-.3-1.6l-7.2-7.2c-.7-.7-1.7-1.1-2.7-1.1-1 0-2 .4-2.7 1.1l-1.1 1.1-1.1-1.1c-.7-.7-1.7-1.1-2.7-1.1-1 0-2 .4-2.7 1.1l-8.3 8.5c-1.5 1.5-1.5 3.9 0 5.3l8.5 8.5c.7.7 1.7 1.1 2.7 1.1 1 0 2-.4 2.7-1.1l1.1-1.1 1.1 1.1c.7.7 1.7 1.1 2.7 1.1 1 0 2-.4 2.7-1.1l7.2-7.2c.4-.4.5-1 .3-1.6-.4-.6-1-.9-1.6-.9m-10.1-11.3c.4-.4.8-.6 1.4-.6.5 0 1 .2 1.4.6l6.5 6.5h-4.1c-.5 0-1-.2-1.4-.6l-4.9-4.9zm2.7 19.7c-.4.4-.8.6-1.4.6-.5 0-1-.2-1.4-.6l-1.1-1.1 4.9-4.9c.4-.4.8-.6 1.4-.6h4.1zm-5.9-16.5l-1.3-1.3-5.3 5.3c-1.5 1.5-1.5 3.9 0 5.3l5.3 5.3 1.3-1.3-5.3-5.3c-.8-.8-.8-2 0-2.7z" class="st0"/></svg>
