<?xml version="1.0" encoding="utf-8"?>
<!-- Generator: Adobe Illustrator 23.0.3, SVG Export Plug-In . SVG Version: 6.00 Build 0)  -->
<svg version="1.1" id="Layer_1" xmlns="http://www.w3.org/2000/svg" xmlns:xlink="http://www.w3.org/1999/xlink" x="0px" y="0px"
	 viewBox="0 0 400 245" style="enable-background:new 0 0 400 245;" xml:space="preserve">
<style type="text/css">
	.st0{fill:#E01B22;}
	.st1{fill:#4064AD;}
	.st2{fill:#E98300;}
	.st3{fill:#00549F;}
	.st4{fill-rule:evenodd;clip-rule:evenodd;}
	.st5{fill-rule:evenodd;clip-rule:evenodd;fill:#C9243A;}
	.st6{fill-rule:evenodd;clip-rule:evenodd;fill:#231F20;}
	.st7{fill-rule:evenodd;clip-rule:evenodd;fill:#7C848A;}
	.st8{fill:#EE3B29;}
	.st9{fill:#7C848A;}
	.st10{fill:#0F0F59;}
	.st11{fill:#F42A4D;}
	.st12{fill:#DA2128;}
	.st13{fill-rule:evenodd;clip-rule:evenodd;fill:#12ABDB;}
	.st14{fill-rule:evenodd;clip-rule:evenodd;fill:#0070AD;}
	.st15{fill:#929497;}
	.st16{fill:#231F20;}
	.st17{fill:#00ADEE;}
	.st18{fill:#2E3191;}
	.st19{fill:#EC1C24;}
	.st20{fill:#0082C9;}
	.st21{fill:#6D67AE;}
	.st22{fill:#2B62AD;}
	.st23{fill:#404041;}
	.st24{fill:#273B5B;}
	.st25{fill:#39B54A;}
	.st26{fill:#474749;}
	.st27{fill:#009245;}
	.st28{fill:#DDDDDD;}
	.st29{fill:#FFFFFF;}
	.st30{fill:url(#SVGID_1_);}
	.st31{fill:url(#SVGID_2_);}
	.st32{fill:url(#SVGID_3_);}
	.st33{fill:url(#SVGID_4_);}
	.st34{fill:url(#SVGID_5_);}
	.st35{fill:url(#SVGID_6_);}
	.st36{fill:url(#SVGID_7_);}
	.st37{fill:url(#SVGID_8_);}
	.st38{fill:url(#SVGID_9_);}
	.st39{fill:url(#SVGID_10_);}
	.st40{fill:url(#SVGID_11_);}
	.st41{fill:url(#SVGID_12_);}
	.st42{fill:url(#SVGID_13_);}
	.st43{fill:url(#SVGID_14_);}
	.st44{fill:url(#SVGID_15_);}
	.st45{fill:url(#SVGID_16_);}
	.st46{fill:url(#SVGID_17_);}
	.st47{fill:#59595C;}
	.st48{fill:#1D7DB9;}
	.st49{fill:#121110;}
	.st50{fill:#010101;}
	.st51{fill:#663795;}
	.st52{fill:#09324A;stroke:#1B75BB;stroke-width:0.6975;stroke-miterlimit:10;}
	.st53{fill:#002432;stroke:#1B75BB;stroke-width:1.0463;stroke-miterlimit:10;}
	.st54{fill-rule:evenodd;clip-rule:evenodd;fill:#E73836;}
	.st55{fill:#231916;}
	.st56{fill:#E73836;}
	.st57{fill:#8C9091;}
	.st58{fill-rule:evenodd;clip-rule:evenodd;fill:#365072;}
	.st59{fill:#365072;}
	.st60{fill:#0093D7;}
	.st61{clip-path:url(#SVGID_19_);fill:url(#SVGID_20_);}
	.st62{clip-path:url(#SVGID_22_);fill:url(#SVGID_23_);}
	.st63{clip-path:url(#SVGID_25_);fill:url(#SVGID_26_);}
	.st64{clip-path:url(#SVGID_28_);fill:url(#SVGID_29_);}
	.st65{clip-path:url(#SVGID_31_);fill:url(#SVGID_32_);}
	.st66{clip-path:url(#SVGID_34_);fill:url(#SVGID_35_);}
	.st67{clip-path:url(#SVGID_37_);fill:url(#SVGID_38_);}
	.st68{clip-path:url(#SVGID_40_);fill:url(#SVGID_41_);}
	.st69{clip-path:url(#SVGID_43_);fill:url(#SVGID_44_);}
	.st70{clip-path:url(#SVGID_68_);}
	.st71{clip-path:url(#SVGID_79_);}
	.st72{fill:#00A9E6;}
	.st73{fill:#4D4D4F;}
	.st74{fill:#898B8D;}
	.st75{fill:#04B3AC;}
	.st76{fill:#A4A2A0;}
	.st77{fill:#D0CFCE;}
	.st78{fill:#74777C;}
	.st79{fill:none;stroke:#ED3024;stroke-width:0.4269;}
	.st80{fill:#A2A4A8;}
	.st81{fill:#3F7BA3;}
	.st82{enable-background:new    ;}
	.st83{fill:#E8B520;}
	.st84{fill:#D27D41;}
	.st85{fill:#0B74BB;}
	.st86{fill:#702784;}
	.st87{fill:#AD2E91;}
	.st88{fill:#ED3694;}
	.st89{fill:#004E9A;}
	.st90{clip-path:url(#SVGID_82_);fill:url(#SVGID_83_);}
	.st91{clip-path:url(#SVGID_85_);fill:url(#SVGID_86_);}
	.st92{clip-path:url(#SVGID_88_);fill:url(#SVGID_89_);}
	.st93{fill:#0898CC;}
	.st94{fill:#12284C;}
	.st95{fill-rule:evenodd;clip-rule:evenodd;fill:#84BE42;}
	.st96{fill-rule:evenodd;clip-rule:evenodd;fill:#C1C0C0;}
	.st97{clip-path:url(#SVGID_91_);fill:#84BE42;}
	.st98{fill:#0066A5;}
	.st99{fill:#F05A22;}
	.st100{clip-path:url(#SVGID_93_);}
	.st101{clip-path:url(#SVGID_95_);fill:#1D1D1B;}
	.st102{clip-path:url(#SVGID_97_);}
	.st103{clip-path:url(#SVGID_99_);fill:#1D1D1B;}
	.st104{clip-path:url(#SVGID_101_);}
	.st105{clip-path:url(#SVGID_103_);fill:#1D1D1B;}
	.st106{clip-path:url(#SVGID_105_);}
	.st107{clip-path:url(#SVGID_107_);fill:#1D1D1B;}
	.st108{clip-path:url(#SVGID_109_);}
	.st109{clip-path:url(#SVGID_111_);fill:#1D1D1B;}
	.st110{clip-path:url(#SVGID_113_);}
	.st111{clip-path:url(#SVGID_115_);fill:#1D1D1B;}
	.st112{clip-path:url(#SVGID_117_);}
	.st113{clip-path:url(#SVGID_119_);fill:#1D9DD9;}
	.st114{clip-path:url(#SVGID_121_);}
	.st115{clip-path:url(#SVGID_123_);fill:#1D1D1B;}
	.st116{clip-path:url(#SVGID_125_);}
	.st117{clip-path:url(#SVGID_127_);fill:#1D9DD9;}
	.st118{clip-path:url(#SVGID_129_);}
	.st119{clip-path:url(#SVGID_131_);fill:#1D1D1B;}
	.st120{clip-path:url(#SVGID_133_);}
	.st121{clip-path:url(#SVGID_135_);fill:#1D9DD9;}
	.st122{clip-path:url(#SVGID_137_);}
	.st123{clip-path:url(#SVGID_139_);fill:#1D1D1B;}
	.st124{clip-path:url(#SVGID_141_);}
	.st125{clip-path:url(#SVGID_143_);fill:#1D9DD9;}
	.st126{clip-path:url(#SVGID_145_);}
	.st127{clip-path:url(#SVGID_147_);fill:#1D1D1B;}
	.st128{fill:#D44432;}
	.st129{fill:#272525;}
	.st130{fill:url(#SVGID_148_);}
	.st131{fill:url(#SVGID_149_);}
	.st132{fill:url(#SVGID_150_);}
	.st133{fill:#002B54;}
	.st134{fill:#B2B1B1;}
	.st135{fill:#E1134F;}
	.st136{fill:#454547;}
	.st137{fill:#00B4D0;}
	.st138{fill:#4564A7;}
	.st139{fill:#0088EE;}
	.st140{fill:#026FC2;}
	.st141{fill:#009FEE;}
	.st142{fill:#00BEEE;}
	.st143{fill:#00AFEE;}
	.st144{fill-rule:evenodd;clip-rule:evenodd;fill:#224099;}
	.st145{clip-path:url(#SVGID_152_);}
	.st146{clip-path:url(#SVGID_156_);}
	.st147{fill:#203260;}
	.st148{fill-rule:evenodd;clip-rule:evenodd;fill:#989A9D;}
	.st149{fill-rule:evenodd;clip-rule:evenodd;fill:#DF068C;}
	.st150{fill:#2E3437;}
	.st151{fill:#989FA4;}
	.st152{fill:#E1DE22;}
	.st153{fill-rule:evenodd;clip-rule:evenodd;fill:#86171D;}
	.st154{fill-rule:evenodd;clip-rule:evenodd;fill:#FFFFFF;}
	.st155{fill:none;stroke:#86171D;stroke-width:6.1349;stroke-miterlimit:10;}
	.st156{fill:#1F1F1F;}
	.st157{fill:#009590;}
	.st158{fill:#ED1651;}
</style>
<g>
	<g>
		<path class="st2" d="M172.15,65.94c-1.7-1.53-3.36-2.38-6.07-2.38c-4.19,0-7.92,3.33-8.83,9.22c-0.9,5.8,1.34,9.54,6.09,9.54
			c2.61,0,4.49-0.95,6.57-2.52l1.96,2.16c-2.56,2.02-5.36,3.28-9.14,3.28c-5.87,0-10.68-3.96-9.41-12.19
			c1.35-8.73,7.84-12.41,13.46-12.41c3.63,0,6.2,1.17,8.05,2.79L172.15,65.94z"/>
		<path class="st2" d="M178.4,84.74l4.77-30.9l4.12-1.89l-5.06,32.79H178.4z"/>
		<path class="st2" d="M199.88,85.23c-6.54,0-10.88-4.27-9.65-12.28c1.24-8.01,7.11-12.32,13.65-12.32s10.9,4.14,9.67,12.14
			C212.31,80.78,206.41,85.23,199.88,85.23z M203.33,63.55c-4.65,0-8.24,3.1-9.2,9.31c-0.96,6.21,1.66,9.45,6.3,9.45
			s8.31-3.24,9.27-9.45C210.66,66.66,207.97,63.55,203.33,63.55z"/>
		<path class="st2" d="M234.28,84.74l0.44-2.88c-1.84,1.98-4.56,3.37-7.93,3.37c-5.67,0-8.95-2.92-7.9-9.72l2.22-14.39h3.83
			l-2.13,13.81c-0.78,5.08,0.91,7.38,5.2,7.38c3.73,0,6.98-2.2,7.78-7.38l2.13-13.81h3.83l-3.64,23.62H234.28z"/>
		<path class="st2" d="M261.71,84.74l0.44-2.88c-2.17,1.8-4.96,3.37-8.59,3.37c-5.36,0-9.05-3.6-7.76-11.92
			c1.29-8.37,6.46-12.68,12.07-12.68c3.37,0,5.48,1.26,7.07,3.15l1.53-9.94l4.12-1.89l-5.06,32.79H261.71z M264.43,67.1
			c-1.18-1.98-3.54-3.55-6.7-3.55c-4.44,0-7.16,3.37-8.14,9.72c-0.92,5.94,1.16,9.04,5.4,9.04c2.86,0,5.42-1.35,7.63-3.42
			L264.43,67.1z"/>
	</g>
	<g>
		<path class="st2" d="M195.85,192.56l0.44-2.88c-2.17,1.8-5.06,3.37-8.9,3.37c-4.19,0-8.3-1.84-7.41-7.56
			c0.82-5.31,6.12-7.56,11.43-7.56c2.71,0,5.02,0.59,6.48,1.35l0.43-2.79c0.54-3.51-1.08-5.22-5.02-5.22c-2.81,0-5.21,0.67-7.58,1.8
			l-1.01-2.74c2.52-1.12,5.81-1.89,9.28-1.89c5.77,0,9.07,2.16,8.22,7.64l-2.54,16.46H195.85z M197.48,181.99
			c-1.61-0.85-3.42-1.35-6.69-1.35c-3.93,0-6.54,1.66-7,4.63c-0.54,3.51,1.42,5.04,4.69,5.04c3.47,0,6.32-1.58,8.26-3.56
			L197.48,181.99z"/>
		<path class="st2" d="M208.16,192.56l4.77-30.9l4.12-1.89l-5.06,32.79H208.16z"/>
		<path class="st2" d="M220.88,192.56l4.77-30.9l4.12-1.89l-5.06,32.79H220.88z"/>
		<path class="st2" d="M233.6,192.56l3.65-23.62h3.83l-3.65,23.62H233.6z M239.89,164.72c-1.58,0-2.64-1.08-2.44-2.38
			c0.21-1.35,1.6-2.43,3.19-2.43c1.43,0,2.49,1.08,2.28,2.43C242.71,163.64,241.32,164.72,239.89,164.72z"/>
		<path class="st2" d="M261.44,192.56l0.44-2.88c-2.17,1.8-5.06,3.37-8.89,3.37c-4.19,0-8.3-1.84-7.42-7.56
			c0.82-5.31,6.12-7.56,11.43-7.56c2.71,0,5.02,0.59,6.48,1.35l0.43-2.79c0.54-3.51-1.08-5.22-5.02-5.22c-2.81,0-5.21,0.67-7.58,1.8
			l-1.01-2.74c2.52-1.12,5.81-1.89,9.28-1.89c5.77,0,9.07,2.16,8.22,7.64l-2.54,16.46H261.44z M263.07,181.99
			c-1.61-0.85-3.42-1.35-6.69-1.35c-3.93,0-6.54,1.66-7,4.63c-0.54,3.51,1.42,5.04,4.69,5.04c3.47,0,6.32-1.58,8.26-3.56
			L263.07,181.99z"/>
		<path class="st2" d="M290.3,192.56l2.13-13.81c0.79-5.08-0.9-7.38-5.2-7.38c-3.73,0-6.98,2.2-7.78,7.38l-2.13,13.81h-3.83
			l3.65-23.62h3.83l-0.45,2.88c1.84-1.98,4.56-3.37,7.93-3.37c5.67,0,8.95,2.92,7.9,9.72l-2.22,14.39H290.3z"/>
		<path class="st2" d="M321.55,173.76c-1.7-1.53-3.36-2.38-6.07-2.38c-4.19,0-7.92,3.33-8.83,9.22c-0.9,5.8,1.33,9.54,6.09,9.54
			c2.61,0,4.49-0.95,6.57-2.52l1.96,2.16c-2.56,2.02-5.36,3.28-9.14,3.28c-5.87,0-10.68-3.96-9.41-12.19
			c1.35-8.73,7.84-12.41,13.46-12.41c3.62,0,6.21,1.17,8.05,2.79L321.55,173.76z"/>
		<path class="st2" d="M348.59,181.9h-17.88c-0.42,5.04,1.79,8.23,6.19,8.23c3.12,0,5.08-0.81,7.75-2.25l1.41,2.43
			c-3.49,1.8-5.99,2.74-10.02,2.74c-4.9,0-10.4-3.15-8.96-12.41c1.16-7.51,6.58-12.19,12.97-12.19c7,0,10.03,4.86,8.98,11.6
			C348.91,180.86,348.78,181.36,348.59,181.9z M339.54,171.37c-3.98,0-7.13,2.52-8.4,7.78h14.46
			C346,174.57,344.24,171.37,339.54,171.37z"/>
	</g>
	<g>
		<path class="st2" d="M225.61,136.21c-3.68,0-6.71-1.22-8.98-3.01l2.63-2.47c1.89,1.66,4.25,2.61,6.9,2.61
			c3.68,0,5.62-1.35,5.98-3.64c0.3-1.94-1.12-3.01-5.59-4.81c-5.05-2.02-7.07-3.46-6.49-7.24c0.56-3.6,4.45-6.03,9.31-6.03
			c3.68,0,6.38,1.03,8.19,2.52l-2.53,2.48c-1.87-1.44-3.5-2.11-6.36-2.11c-2.81,0-4.63,1.21-4.9,2.92
			c-0.31,1.98,0.95,2.79,5.22,4.59c4.74,2.02,7.51,3.33,6.85,7.56C235.12,134.19,230.26,136.21,225.61,136.21z"/>
		<path class="st2" d="M263.45,125.06h-17.88c-0.42,5.04,1.79,8.23,6.19,8.23c3.12,0,5.08-0.81,7.75-2.25l1.41,2.43
			c-3.5,1.8-5.99,2.74-10.03,2.74c-4.9,0-10.39-3.15-8.96-12.42c1.16-7.51,6.58-12.19,12.97-12.19c7,0,10.03,4.86,8.99,11.61
			C263.76,124.02,263.63,124.52,263.45,125.06z M254.4,114.53c-3.98,0-7.13,2.52-8.4,7.78h14.46
			C260.85,117.73,259.09,114.53,254.4,114.53z"/>
		<path class="st2" d="M288.2,116.91c-1.7-1.53-3.36-2.38-6.07-2.38c-4.19,0-7.92,3.33-8.83,9.22c-0.9,5.8,1.33,9.53,6.09,9.53
			c2.61,0,4.49-0.95,6.57-2.52l1.96,2.16c-2.56,2.02-5.36,3.28-9.14,3.28c-5.87,0-10.68-3.96-9.41-12.19
			c1.35-8.72,7.84-12.41,13.46-12.41c3.63,0,6.21,1.17,8.05,2.79L288.2,116.91z"/>
		<path class="st2" d="M309.82,135.72l0.44-2.88c-1.84,1.98-4.56,3.37-7.93,3.37c-5.67,0-8.95-2.93-7.9-9.72l2.22-14.39h3.83
			l-2.13,13.81c-0.78,5.08,0.91,7.38,5.2,7.38c3.73,0,6.98-2.2,7.78-7.38l2.13-13.81h3.83l-3.64,23.61H309.82z"/>
		<path class="st2" d="M338.82,115.61c-0.99-0.54-2.11-0.9-3.9-0.9c-3.73,0-6.23,2.65-6.93,7.15l-2.14,13.85h-3.83l3.65-23.61h3.83
			l-0.45,2.92c1.52-1.89,4.31-3.42,7.17-3.42c1.99,0,3.23,0.23,4.1,0.58L338.82,115.61z"/>
		<path class="st2" d="M342.97,135.72l3.65-23.61h3.83l-3.65,23.61H342.97z M349.26,107.87c-1.59,0-2.64-1.08-2.44-2.38
			c0.21-1.35,1.6-2.43,3.19-2.43c1.43,0,2.49,1.08,2.28,2.43C352.08,106.79,350.69,107.87,349.26,107.87z"/>
		<path class="st2" d="M363.55,114.93l-2.37,15.38c-0.32,2.11,0.23,2.83,2.27,2.83c1.53,0,2.59-0.23,3.88-0.67l-0.71,2.92
			c-1.56,0.54-3.04,0.81-5.08,0.81c-3.32,0-4.89-1.44-4.28-5.35l2.46-15.92h-3.32l0.44-2.83h3.32l1.12-7.29l4.12-1.89l-1.41,9.18
			h6.64l-0.44,2.83H363.55z"/>
		<path class="st2" d="M379.54,144.04h-3.83l5-8.59l-5.95-23.34h4.03l3.89,17.14l0.55,2.43l1.29-2.38l9.24-17.18h4.03L379.54,144.04
			z"/>
	</g>
	<g>
		<path class="st3" d="M23.42,126.3c-0.2,0.92-0.37,1.87-0.51,2.85c-1.5,10.15,0.7,18.21,9.05,18.21c6.06,0,9.1-3.13,13.81-9.39
			l15.08,8.26c-5.96,8.73-14.95,17.17-31.45,17.17c-20.67,0-29.56-14.61-26.66-34.25c0.14-0.98,0.28-1.9,0.47-2.84L23.42,126.3z
			 M5.38,118.88c5.79-15.15,18.74-23.98,34.2-23.98c17.1,0,22.82,7.02,25.75,19.55l-18.46,6.55c-1.58-6.17-3.39-10.06-9.75-10.06
			c-5.07,0-8.78,3.05-11.22,7.95H5.38z"/>
		<path class="st3" d="M116.66,126.3c5.31,3.52,7.32,8.31,6.24,15.66c-2.23,15.18-15.18,21.44-31.88,21.44
			c-11.23,0-21.55-3.51-28.14-8.06l11.47-14.43c4.58,3.32,12.93,6.64,19.4,6.64c6.86,0,9.21-1.14,9.67-4.27
			c0.36-2.47-1.9-3.99-10.93-6.07c-10.96-2.5-17.84-5.25-20.6-10.88L116.66,126.3z M70.49,118.87c0.04-0.95,0.13-1.95,0.29-3.01
			c1.84-12.52,13.73-20.97,30.52-20.97c11.83,0,19.97,2.75,26.6,7.69L116.43,117c-5.58-3.98-11.4-6.26-18.46-6.26
			c-5.77,0-7.41,1.71-7.76,4.08c-0.26,1.78,0.87,2.87,4.75,4.08L70.49,118.87z"/>
		<polyline class="st3" points="141.19,118.89 152.07,95.94 168.82,95.94 172.94,118.88 		"/>
		<polyline class="st3" points="149.47,136.03 159.39,136.03 158.32,126.28 174.27,126.28 180.75,162.36 162.81,162.36 
			161.28,150.69 143.33,150.69 138.36,162.36 120.58,162.36 137.68,126.29 153.58,126.29 		"/>
	</g>
	<g>
		<path class="st2" d="M358.52,169.16c0-2.41,0.86-4.47,2.57-6.18c1.71-1.71,3.77-2.56,6.19-2.56s4.47,0.85,6.18,2.56
			c1.71,1.71,2.56,3.77,2.56,6.18c0,2.41-0.85,4.48-2.56,6.19c-1.71,1.71-3.77,2.57-6.18,2.57s-4.48-0.86-6.19-2.57
			C359.38,173.63,358.52,171.57,358.52,169.16z M374.6,169.16c0-2.03-0.71-3.75-2.14-5.18c-1.43-1.43-3.15-2.14-5.18-2.14
			c-2.02,0-3.75,0.71-5.18,2.14c-1.43,1.43-2.15,3.15-2.15,5.18c0,2.02,0.72,3.75,2.15,5.19c1.43,1.43,3.16,2.15,5.18,2.15
			c2.03,0,3.75-0.72,5.18-2.15C373.89,172.91,374.6,171.18,374.6,169.16z M370.01,174.44l-2.74-4.63h-1.56v4.63h-1.54v-10.78h2.76
			c2.6,0,3.89,0.99,3.89,2.98c0,1.38-0.7,2.36-2.09,2.93l2.95,4.87H370.01z M365.71,164.98v3.58c0.13,0.02,0.47,0.03,1.01,0.03
			c1,0,1.68-0.13,2.02-0.38c0.35-0.26,0.52-0.74,0.52-1.46c0-1.19-0.78-1.78-2.34-1.78h-0.61L365.71,164.98z"/>
	</g>
</g>
</svg>
