<svg xmlns="http://www.w3.org/2000/svg" role="img" viewBox="-1.15 -1.15 59.80 26.20"><title>COIL (member) logo</title><path fill="none" d="M-1-1h582v402H-1z"/><path d="M46.603 5.098c1.474 0 2.668-1.133 2.668-2.53 0-1.399-1.194-2.532-2.668-2.532-1.473 0-2.667 1.133-2.667 2.531 0 1.398 1.194 2.53 2.667 2.53zm-2.027 3.49v14.417c0 .78 1.05.983 2.1.983s2.1-.204 2.1-.984V8.588c0-1.044-1.05-1.188-2.1-1.188-1.038 0-2.1.144-2.1 1.188zM53.4 1.187v21.817c0 .78 1.05.984 2.1.984s2.1-.204 2.1-.984V1.187C57.6.144 56.55 0 55.5 0c-1.038 0-2.1.144-2.1 1.187zM23.234 15.424c0-4.533 3.646-8.575 8.908-8.575 5.239 0 8.968 3.97 8.968 8.551 0 4.93-4.14 8.6-8.92 8.6-5.298-.012-8.956-4.054-8.956-8.576zm8.896 5.074c2.8 0 4.9-2.291 4.9-5.11 0-2.818-2.1-5.05-4.9-5.05-2.8 0-4.864 2.268-4.864 5.086 0 2.819 2.064 5.074 4.864 5.074zm-11.309-.928c0 2.196-5.154 4.415-8.739 4.415-4.393 0-8.51-2.34-10.61-6.105C.483 16.129 0 14.138 0 12.147c0-2.315.664-4.63 1.967-6.609C3.006 3.955 4.973 1.844 8.437.716c.87-.287 2.438-.695 4.2-.695 4.95 0 8.064 3.442 8.064 6.453 0 2.062-1.69 5.001-5.83 5.001-1.895 0-2.535-.792-2.535-1.703 0-1.224 1.147-2.65 1.98-2.65.35 0 .567.347 1.243.251.664-.096 1.014-.54 1.014-1.091 0-1.044-1.244-2.435-3.887-2.435-.845 0-1.835.144-2.981.492-2.354.707-3.646 2.386-4.334 3.43a8.01 8.01 0 0 0-1.303 4.39c0 1.307.326 2.614.965 3.766 1.388 2.47 4.116 4.018 7.05 4.018 4.043 0 5.178-2.16 5.998-2.507 1.449-.636 2.74 1.103 2.74 2.135z"/></svg>