<svg xmlns="http://www.w3.org/2000/svg" xmlns:xlink="http://www.w3.org/1999/xlink" width="199" height="30" viewBox="0 0 199 30"><defs><path id="lv1ta" d="M471 88.93c0-9.67 5.23-14.93 13.78-14.93 6.38 0 10.9 3.22 12.6 8.67l-6 1.84c-.78-3.16-3.1-5-6.6-5-4.99 0-7.46 3.67-7.46 9.42 0 5.77 2.47 9.44 7.46 9.44 3.5 0 5.82-1.84 6.6-5l6 1.84c-1.7 5.42-6.22 8.65-12.6 8.65-8.55 0-13.78-5.24-13.78-14.93zm39.35 14.99c-6.1 0-10.7-3.88-10.7-11.17 0-7.37 4.6-11.26 10.7-11.26S521 85.36 521 92.75c0 7.3-4.57 11.17-10.66 11.17zm.02-5.01c2.66 0 4.63-1.73 4.63-6.16 0-4.52-1.97-6.29-4.63-6.29s-4.61 1.77-4.61 6.29c0 4.45 1.95 6.16 4.6 6.16zm14.58-24.48h6.17v29.02h-6.17zm11.7 0h6.17v29.02h-6.18zm21.45 24.64c1.87 0 3.8-.86 4.94-2.59l4.04 2.98c-2.68 3.57-5.9 4.4-9.08 4.4-6.43 0-11.25-3.6-11.25-11.03 0-6.98 4.22-11.34 10.46-11.34 5.77 0 9.93 3.9 9.93 10.46 0 .65-.02 1.02-.19 2.2H553a4.87 4.87 0 0 0 5.1 4.92zm-.99-13.02c-2.64 0-3.7 1.65-4 3.58h7.97c-.26-2.18-1.56-3.58-3.97-3.58zm12.52 6.7c0-7.37 4.61-11.26 10.7-11.26 4.85 0 8.7 2.4 9.89 7.09l-5.44 1.87c-.57-2.84-2.26-3.99-4.42-3.99-2.66 0-4.62 1.77-4.62 6.29 0 4.54 1.96 6.28 4.62 6.28 2.16 0 3.85-1.13 4.42-3.98l5.44 1.87c-1.2 4.68-5.04 7.08-9.88 7.08-6.1 0-10.71-3.88-10.71-11.25zm24.77 4.4V85.57h-2.92v-3.67h2.92v-7.48h6.16v7.48h4.5v3.67h-4.5v10.33c0 2.18.5 2.75 2.36 2.75h2.15v4.79h-4.86c-4 0-5.81-2.04-5.81-6.3zm23.76 6.77c-6.1 0-10.7-3.88-10.7-11.17 0-7.37 4.6-11.26 10.7-11.26s10.67 3.87 10.67 11.26c0 7.3-4.57 11.17-10.67 11.17zm.02-5.01c2.66 0 4.63-1.73 4.63-6.16 0-4.52-1.97-6.29-4.63-6.29-2.65 0-4.61 1.77-4.61 6.29 0 4.45 1.96 6.16 4.61 6.16zm14.56-17h6v3.32h.1a5.1 5.1 0 0 1 5.06-3.6c.66 0 1.4.11 2.1.3v5.03a9.75 9.75 0 0 0-2.06.04c-3.1.37-5.02 2.91-5.02 7v9.45h-6.18z"/><path id="lv1tb" d="M651.19 87.72c-.13 0-.19-.07-.19-.18 0-.13.11-.33.3-.33h.78c.24 0 .5-.24.56-.5l2.54-10.49v-.1c0-.23-.15-.39-.36-.39h-.78c-.13 0-.17-.1-.17-.2 0-.17.12-.33.3-.33h4.24c.15 0 .2.1.2.2 0 .13-.16.33-.31.33h-.78c-.24 0-.5.22-.56.5l-2.54 10.49v.1c0 .2.12.39.34.39h.8c.13 0 .19.09.19.16 0 .17-.14.35-.3.35zM665.75 90c-1.2 0-1.44-.8-1.44-1.73 0-.24 0-.44.02-.68-.51.18-1.1.3-1.65.3-2.55 0-4.23-2.01-4.23-4.75 0-.53.07-1.11.2-1.68.86-3.56 4.03-6.46 7.1-6.46 2.55 0 4.25 2 4.25 4.73 0 .56-.08 1.15-.2 1.73a9.23 9.23 0 0 1-4.15 5.57c.3 1.15.68 1.82 1.23 1.82.57 0 .76-.47 1.04-.47.11 0 .17.03.13.12-.05.26-.73 1.5-2.3 1.5zm-4.62-3.16a.96.96 0 0 1-.11-.53c0-1.71 1.64-2.48 2.5-2.48.73 0 1.6.53 1.77 1.46l.2.91c.86-.94 1.64-2.5 2.18-4.74.27-1.15.38-2.1.38-2.88 0-2.27-.98-3.12-2.4-3.12-1.93 0-3.87 1.6-4.91 6-.27 1.13-.4 2.1-.4 2.86 0 1.23.28 2.03.8 2.52zm1.67.62c.55 0 1.1-.14 1.59-.4.05-.33.1-.58.1-.86.12-1.47-.37-1.95-1.09-1.95-.6 0-1.64.33-1.93 1.48-.02.16-.05.3-.05.46 0 .78.6 1.27 1.38 1.27z"/></defs><g><g transform="translate(-471 -74)"><use xlink:href="#lv1ta"/></g><g transform="translate(-471 -74)"><use xlink:href="#lv1tb"/></g></g></svg>