<?xml version="1.0" encoding="UTF-8"?> <svg xmlns="http://www.w3.org/2000/svg" xmlns:xlink="http://www.w3.org/1999/xlink" width="85px" height="30px" viewBox="0 0 85 30"><!-- Generator: Sketch 52.5 (67469) - http://www.bohemiancoding.com/sketch --><title>colu logo</title><desc>Created with Sketch.</desc><g id="test" stroke="none" stroke-width="1" fill="none" fill-rule="evenodd"><g id="1920-homepage" transform="translate(-35.000000, -16.000000)"><g id="header"><g id="colu-logo" transform="translate(35.000000, 16.000000)"><path d="M82.2045889,24.248566 C80.6768642,24.248566 79.4254302,25.5 79.4254302,27.0277247 C79.4254302,28.5554493 80.6768642,29.8068834 82.2045889,29.8068834 C83.7323136,29.8068834 84.9837476,28.5554493 84.9837476,27.0277247 C84.9837476,25.4837476 83.7323136,24.248566 82.2045889,24.248566" id="Path" fill="#FCD665"></path><path d="M52.7552581,23.6309751 C52.0889101,24.0697897 51.2762906,24.2323136 50.7562141,24.167304 C49.4885277,24.0047801 48.789675,23.0133843 48.789675,21.875717 C48.789675,21.875717 48.789675,8.80879541 48.789675,8.6625239 C48.789675,2.66539197 47.5544933,-0.422562141 40.8097514,0.227533461 L40.8097514,5.78585086 C42.6137667,6.0458891 43.2476099,7.57361377 43.2638623,8.51625239 L43.2638623,22.542065 C43.2638623,28.3604207 48.3671128,29.7418738 50.2686424,29.7418738 C52.3489484,29.7418738 54.0554493,28.7179732 54.8843212,28.1166348 C54.4617591,27.6290631 54.0879541,27.1089866 53.7629063,26.5076482 C53.2753346,25.6625239 52.9665392,24.6223709 52.7552581,23.6309751" id="Path" fill="#00C99E"></path><path d="M10.5640535,23.9722753 C8.04493308,23.8260038 5.5583174,21.6481836 5.5583174,18.5439771 C5.5583174,15.2122371 8.20745698,13.2944551 10.6290631,13.1481836 C13.0344168,12.9856597 14.6271511,13.9445507 15.0172084,14.2045889 L17.5038241,10.0439771 C16.5936902,9.24760994 14.3021033,7.63862333 10.6290631,7.63862333 C4.76195029,7.63862333 0.0487571702,12.4818356 0.0487571702,18.625239 C0.0487571702,24.6061185 4.46940727,29.2868069 10.5803059,29.498088 C15.1634799,29.6606119 17.9263862,27.5640535 19.3728489,26.2963671 C18.2839388,24.9636711 17.5038241,23.4521989 17.0650096,21.8919694 C16.333652,22.5745698 13.9445507,24.1835564 10.5640535,23.9722753" id="Path" fill="#00C99E"></path><path d="M29.4330784,24.0372849 C26.4426386,23.9722753 23.7447419,21.6481836 23.7447419,18.6577438 C23.7447419,15.667304 26.1826004,13.2294455 29.1730402,13.2294455 C32.3910134,13.2294455 34.6175908,15.6347992 34.6175908,18.625239 C34.6175908,19.6003824 34.5525813,20.5592734 34.3087954,21.7294455 C36.0478011,21.0143403 38.9407266,18.9827916 39.6720841,17.4875717 C39.6720841,17.4713193 39.6883365,17.4713193 39.6883365,17.4550669 C39.0869981,11.3441683 34.5200765,7.5248566 29.0105163,7.5248566 C23.1108987,7.5248566 17.958891,12.5793499 18.1051625,19.0152964 C18.1051625,23.7772467 22.0707457,29.2055449 29.1567878,29.709369 C35.917782,29.9206501 40.5172084,25.8900574 41.8499044,23.7772467 L41.8499044,17.2437859 C38.1281071,21.7456979 34.2600382,24.3135755 29.4330784,24.0372849" id="Path" fill="#00C99E"></path><path d="M72.6319312,21.6319312 L72.6481836,9.32887189 L67.0248566,9.32887189 L67.0248566,19.1778203 C67.0248566,21.3556405 66.6347992,24.2648184 63.2380497,24.2648184 C61.5803059,24.2648184 60.5076482,23.6309751 59.9225621,22.3470363 C59.4349904,21.2581262 59.4349904,19.9741874 59.4349904,19.1778203 L59.4349904,9.32887189 L53.8116635,9.32887189 L53.8116635,19.9091778 C53.8116635,19.9091778 53.8116635,23.5659656 55.0468451,25.8413002 C56.5095602,28.5229446 59.2399618,29.790631 63.2543021,29.790631 C66.1959847,29.790631 68.666348,28.8479924 70.2265774,27.417782 C70.2265774,27.417782 72.4043977,30.7332696 76.3862333,29.3843212 L76.3862333,24.5573614 C73.9971319,24.5736138 72.6319312,23.5497132 72.6319312,21.6319312" id="Path" fill="#00C99E"></path></g></g></g></g></svg> 