<?xml version="1.0" encoding="UTF-8"?><svg viewBox="0 0 200 200" width="200px" height="200px" xmlns="http://www.w3.org/2000/svg" version="1.2" baseProfile="tiny"><rect x="119" y="87" width="1" height="1" fill="#39cca5"/><g fill="#dcf6ef"><rect x="55" y="99" width="1" height="1"/><rect x="70" y="105" width="1" height="1"/><rect y="107" width="1" height="1" x="74"/><rect height="1" x="84" y="107" width="1"/><rect x="55" y="112" width="1" height="1"/></g><g fill="#55d3b2"><rect x="49" y="106" width="1" height="1"/><rect x="143" y="114" width="1" height="1"/></g><g fill="#26c79d"><rect x="108" y="76" width="1" height="1"/><rect width="1" height="1" x="110" y="77"/><rect x="89" y="94" width="1" height="1"/><rect x="72" y="112" width="1" height="1"/></g><g fill="#d6f4ec"><rect x="89" y="86" width="1" height="1"/><rect x="112" y="87" width="1" height="4"/><rect y="91" width="1" height="1" x="112"/><rect x="50" y="93" width="1" height="1"/></g><g fill="#baede0"><rect x="70" y="88" width="1" height="1"/><rect height="1" x="107" y="111" width="1"/></g><g fill="#43cfaa"><rect x="58" y="105" width="1" height="1"/><rect x="118" y="107" width="1" height="1"/></g><rect height="1" fill="#55c879" x="154" y="108" width="1"/><g fill="#d8f5ed"><rect height="1" x="112" y="104" width="1"/><rect x="138" y="113" width="1" height="1"/></g><rect y="107" width="1" height="1" fill="#afeadb" x="61"/><rect x="79" y="112" width="1" height="1" fill="#e9f9f5"/><g fill="#c1efe3"><rect x="102" y="77" width="1" height="5"/><rect width="1" height="1" x="102" y="82"/><rect x="52" y="90" width="1" height="1"/><rect height="1" x="99" y="94" width="1"/><rect width="1" height="1" x="61" y="114"/></g><g fill="#81dfc6"><rect x="93" y="87" width="1" height="1"/><rect x="144" y="105" width="1" height="1"/></g><rect x="79" y="88" width="1" height="1" fill="#eefaf7"/><g fill="#fefffe"><rect x="67" y="93" width="1" height="1"/><rect x="69" y="106" width="1" height="1"/><rect x="120" y="106" width="1" height="1"/><rect x="118" y="110" width="1" height="1"/><rect x="143" y="113" width="1" height="1"/></g><g fill="#d0f3ea"><rect x="102" y="100" width="1" height="1"/><rect height="1" x="62" y="114" width="1"/><rect x="63" y="114" width="1" height="1"/></g><g fill="#60d6b7"><rect width="1" height="1" x="64" y="93"/><rect height="1" x="67" y="106" width="1"/><rect x="133" y="107" width="1" height="1"/></g><g fill="#cff3e9"><rect x="95" y="103" width="1" height="1"/><rect height="1" x="117" y="114" width="1"/></g><g fill="#fcfefe"><rect y="109" width="1" height="1" x="72"/><rect x="54" y="111" width="1" height="1"/><rect x="90" y="114" width="1" height="1"/></g><g fill="#2ac89f"><rect x="81" y="114" width="1" height="1"/><rect width="1" height="1" x="90" y="115"/></g><g fill="#50d2b0"><rect x="107" y="76" width="1" height="1"/><rect x="88" y="115" width="1" height="1"/></g><g fill="#3fcea8"><rect x="80" y="98" width="1" height="1"/><rect y="102" width="1" height="1" x="56"/><rect x="93" y="104" width="1" height="1"/><rect x="105" y="108" width="1" height="1"/></g><rect width="1" height="1" fill="#c7f1e6" x="101" y="101"/><rect x="153" y="111" width="1" height="1" fill="#c7cb27"/><g fill="#bfefe2"><rect x="98" y="92" width="1" height="1"/><rect x="119" y="111" width="1" height="1"/></g><rect height="1" fill="#77dcc2" x="100" y="96" width="1"/><g fill="#fafefd"><rect width="1" height="1" x="55" y="98"/><rect height="1" x="96" y="102" width="1"/><rect x="98" y="111" width="1" height="1"/><rect width="1" height="1" x="94" y="113"/></g><g fill="#a7e8d7"><rect x="60" y="114" width="1" height="1"/><rect x="65" y="114" width="1" height="1"/></g><rect x="149" y="114" width="1" height="1" fill="#4dd1ae"/><g fill="#d3f4eb"><rect x="112" y="86" width="1" height="1"/><rect y="100" width="1" height="1" x="55"/><rect height="1" x="73" y="105" width="1"/><rect x="106" y="109" width="1" height="1"/><rect width="1" height="1" x="123" y="112"/></g><g fill="#5bd5b5"><rect x="50" y="92" width="1" height="1"/><rect x="137" y="114" width="1" height="1"/></g><g fill="#5ed6b6"><rect x="72" y="97" width="1" height="1"/><rect x="116" y="107" width="1" height="1"/></g><g fill="#2ecaa1"><rect x="107" y="112" width="1" height="1"/><rect x="79" y="113" width="1" height="1"/><rect height="1" x="116" y="115" width="1"/></g><rect fill="#b5ecde" x="83" y="86" width="1" height="1"/><g fill="#8fe2cc"><rect x="86" y="93" width="1" height="1"/><rect height="1" x="48" y="100" width="1"/><rect height="1" x="99" y="111" width="1"/></g><g fill="#3bcda6"><rect x="82" y="105" width="1" height="1"/><rect height="1" x="146" y="115" width="1"/></g><rect x="76" y="110" width="1" height="1" fill="#a8e8d7"/><g fill="#65d8b9"><rect x="144" y="88" width="1" height="1"/><rect y="89" width="1" height="1" x="144"/><rect width="1" height="1" x="89" y="107"/></g><g fill="#c4f0e4"><rect x="58" y="94" width="1" height="1"/><rect x="50" y="107" width="1" height="1"/><rect width="1" height="1" x="100" y="110"/><rect x="64" y="114" width="1" height="1"/></g><g fill="#6edabd"><rect width="1" height="1" x="90" y="94"/><rect x="83" y="106" width="1" height="1"/></g><g fill="#7edec5"><rect x="59" y="114" width="1" height="1"/><rect width="1" height="1" x="118" y="114"/></g><g fill="#fbfefd"><rect height="1" x="55" y="88" width="1"/><rect width="1" height="1" x="127" y="106"/><rect width="1" height="1" x="110" y="113"/></g><g fill="#b7ecde"><rect x="49" y="95" width="1" height="1"/><rect x="98" y="101" width="1" height="1"/><rect x="96" y="105" width="1" height="1"/></g><rect x="57" y="95" width="1" height="1" fill="#b4ecdd"/><rect x="153" y="112" width="1" height="1" fill="#adca3a"/><rect x="125" y="113" width="1" height="1" fill="#f7fdfc"/><rect x="160" y="112" width="1" height="1" fill="#7fc95b"/><rect x="112" y="114" width="1" height="1" fill="#e5f8f3"/><g fill="#41cea9"><rect x="57" y="86" width="1" height="1"/><rect x="70" y="91" width="1" height="1"/><rect height="1" x="82" y="95" width="1"/><rect x="98" y="103" width="1" height="1"/><rect y="104" width="1" height="1" x="81"/><rect x="110" y="114" width="1" height="1"/></g><g fill="#30caa1"><rect x="81" y="86" width="1" height="1"/><rect x="144" y="87" width="1" height="1"/></g><rect y="101" width="1" height="1" fill="#aae9d8" x="72"/><rect x="103" y="107" width="1" height="1" fill="#9fe6d4"/><rect x="153" y="109" width="1" height="1" fill="#45c884"/><g fill="#cbf2e8"><rect width="1" height="1" x="65" y="86"/><rect x="73" y="110" width="1" height="1"/></g><rect fill="#33cba3" x="71" y="88" width="1" height="1"/><rect width="1" height="1" fill="#46d0ac" x="92" y="96"/><rect x="154" y="113" width="1" height="1" fill="#fbcc03"/><rect x="93" y="114" width="1" height="1" fill="#75dcc1"/><g fill="#8ee2cc"><rect x="104" y="76" width="1" height="1"/><rect x="105" y="87" width="1" height="1"/></g><g fill="#62d7b8"><rect height="1" x="71" y="89" width="1"/><rect x="96" y="89" width="1" height="1"/><rect x="144" y="99" width="1" height="4"/><rect width="1" height="1" x="144" y="103"/></g><rect width="1" height="1" fill="#87e0c8" x="48" y="101"/><g fill="#3acca6"><rect width="1" height="1" x="132" y="107"/><rect x="122" y="112" width="1" height="1"/></g><g fill="#80dec5"><rect width="1" height="1" x="111" y="79"/><rect x="71" y="112" width="1" height="1"/></g><rect fill="#4ed2af" x="63" y="93" width="1" height="1"/><g fill="#76dcc1"><rect x="72" y="103" width="1" height="1"/><rect x="73" y="106" width="1" height="1"/></g><rect y="107" width="1" height="1" fill="#94e4cf" x="63"/><rect x="131" y="107" width="1" height="1" fill="#36cba4"/><rect x="134" y="107" width="1" height="1" fill="#bbeee0"/><g fill="#fc0"><rect x="156" y="108" width="1" height="6" fill="#ffcc00"/><rect fill="#ffcc00" x="155" y="109" width="3" height="4"/><rect height="4" fill="#ffcc00" x="158" y="109" width="1"/><rect x="154" y="110" width="5" height="2" fill="#ffcc00"/><rect height="2" fill="#ffcc00" x="159" y="110" width="1"/><rect height="1" fill="#ffcc00" x="154" y="112" width="5"/><rect y="112" width="1" height="1" fill="#ffcc00" x="159"/><rect x="155" y="113" width="3" height="1" fill="#ffcc00"/><rect x="158" y="113" width="1" height="1" fill="#ffcc00"/><rect y="114" width="1" height="1" fill="#ffcc00" x="156"/><rect x="157" y="114" width="1" height="1" fill="#ffcc00"/></g><rect x="58" y="86" width="1" height="1" fill="#8ce2cb"/><g fill="#4ad1ad"><rect x="55" y="87" width="1" height="1"/><rect y="88" width="1" height="1" x="95"/><rect x="57" y="104" width="1" height="1"/></g><rect x="68" y="87" width="1" height="1" fill="#d5f4ec"/><g fill="#94e4ce"><rect height="1" x="119" y="102" width="1"/><rect x="85" y="107" width="1" height="1"/></g><rect x="148" y="108" width="1" height="1" fill="#beeee2"/><g fill="#89e1ca"><rect x="112" y="82" width="1" height="1"/><rect x="119" y="103" width="1" height="1"/></g><rect fill="#adeada" x="49" y="105" width="1" height="1"/><g fill="#35cba4"><rect x="79" y="87" width="1" height="1"/><rect x="102" y="99" width="1" height="1"/><rect x="72" y="107" width="1" height="1"/><rect x="129" y="115" width="1" height="1"/><rect x="147" y="115" width="1" height="1"/></g><g fill="#91e3cd"><rect x="69" y="92" width="1" height="1"/><rect x="136" y="104" width="1" height="1"/><rect x="75" y="109" width="1" height="1"/></g><rect fill="#90e2cd" x="87" y="93" width="1" height="1"/><rect x="119" y="104" width="1" height="1" fill="#75dcc0"/><g fill="#ecfaf6"><rect x="82" y="106" width="1" height="1"/><rect y="113" width="1" height="1" x="81"/></g><g fill="#effbf8"><rect height="1" x="64" y="86" width="1"/><rect x="97" y="91" width="1" height="1"/><rect x="58" y="106" width="1" height="1"/></g><g fill="#bbede0"><rect x="56" y="87" width="1" height="1"/><rect y="106" width="1" height="1" x="68"/></g><g fill="#38cca5"><rect x="100" y="95" width="1" height="1"/><rect x="73" y="111" width="1" height="1"/></g><g fill="#f2fcf9"><rect x="80" y="104" width="1" height="1"/><rect width="1" height="1" x="66" y="107"/></g><rect x="72" y="108" width="1" height="1" fill="#a4e8d6"/><g fill="#40cea9"><rect height="1" x="72" y="104" width="1"/><rect x="89" y="115" width="1" height="1"/></g><rect x="136" y="103" width="1" height="1" fill="#61d6b7"/><rect y="109" width="1" height="1" fill="#c5f0e5" x="118"/><rect x="57" y="113" width="1" height="1" fill="#d4f4eb"/><rect height="1" fill="#bdeee1" x="53" y="89" width="1"/><g fill="#f7fdfb"><rect width="1" height="1" x="80" y="96"/><rect width="1" height="1" x="145" y="114"/></g><rect height="1" fill="#87e0c9" x="72" y="98" width="1"/><rect x="74" y="108" width="1" height="1" fill="#5ad5b4"/><g fill="#82dfc6"><rect x="109" y="77" width="1" height="1"/><rect height="1" x="126" y="114" width="1"/></g><g fill="#a6e8d7"><rect x="105" y="86" width="1" height="1"/><rect x="127" y="105" width="1" height="1"/></g><g fill="#d6f4ed"><rect y="92" width="1" height="1" x="112"/><rect x="112" y="93" width="1" height="1"/></g><g fill="#74dbc0"><rect x="83" y="94" width="1" height="1"/><rect y="98" width="1" height="1" x="48"/></g><rect x="114" y="107" width="1" height="1" fill="#86e0c8"/><g fill="#feffff"><rect height="1" x="57" y="87" width="1"/><rect y="92" width="1" height="1" x="51"/><rect x="78" y="111" width="1" height="1"/><rect width="1" height="1" x="85" y="114"/></g><g fill="#5cd5b5"><rect x="97" y="90" width="1" height="1"/><rect x="87" y="107" width="1" height="1"/><rect x="149" y="109" width="1" height="4"/><rect y="113" width="1" height="1" x="149"/></g><g fill="#49d0ad"><rect width="1" height="1" x="93" y="98"/><rect x="149" y="108" width="1" height="1"/></g><rect x="93" y="106" width="1" height="1" fill="#4fd2b0"/><g fill="#e6f8f4"><rect x="126" y="88" width="1" height="12"/><rect x="89" y="93" width="1" height="1"/><rect x="126" y="100" width="1" height="1"/></g><g fill="#4bd1ae"><rect x="67" y="94" width="1" height="1"/><rect x="67" y="114" width="1" height="1"/></g><rect width="1" height="1" fill="#99ca48" x="160" y="111"/><rect x="80" y="113" width="1" height="1" fill="#90e2cc"/><g fill="#3ccda7"><rect x="104" y="85" width="1" height="1"/><rect y="88" width="1" height="12" x="136"/><rect x="98" y="91" width="1" height="1"/><rect x="136" y="100" width="1" height="1"/></g><g fill="#d7f5ed"><rect height="1" x="94" y="88" width="1"/><rect height="6" x="112" y="97" width="1"/><rect x="112" y="103" width="1" height="1"/><rect x="144" y="106" width="1" height="1"/><rect x="122" y="111" width="1" height="1"/></g><g fill="#aceada"><rect x="85" y="93" width="1" height="1"/><rect x="88" y="93" width="1" height="1"/></g><rect y="113" width="1" height="1" fill="#b6ecde" x="95"/><g fill="#52d3b1"><rect x="67" y="86" width="1" height="1"/><rect x="62" y="93" width="1" height="1"/><rect x="130" y="107" width="1" height="1"/><rect x="114" y="115" width="1" height="1"/><rect width="1" height="1" x="131" y="115"/></g><g fill="#2cc99f"><rect y="89" width="1" height="1" x="52"/><rect height="1" x="123" y="113" width="1"/></g><g fill="#daf5ee"><rect y="103" width="1" height="1" x="99"/><rect x="120" y="107" width="1" height="1"/></g><rect height="1" fill="#67d8ba" x="113" y="106" width="1"/><rect x="159" y="109" width="1" height="1" fill="#e0cb16"/><rect height="1" fill="#53d3b1" x="87" y="115" width="1"/><g fill="#29c89e"><rect height="1" x="61" y="85" width="1"/><rect width="1" height="1" x="94" y="87"/><rect x="100" y="100" width="1" height="1"/><rect x="145" y="106" width="1" height="1"/><rect x="108" y="113" width="1" height="1"/></g><g fill="#f4fcfa"><rect x="95" y="89" width="1" height="1"/><rect x="94" y="99" width="1" height="1"/><rect x="113" y="107" width="1" height="1"/></g><rect x="80" y="97" width="1" height="1" fill="#96e4cf"/><g fill="#d4f4ec"><rect width="1" height="1" x="79" y="100"/><rect x="102" y="108" width="1" height="1"/></g><rect height="1" fill="#36cca4" x="80" y="102" width="1"/><rect height="1" fill="#a8e9d8" x="91" y="107" width="1"/><rect height="1" fill="#46d0ab" x="146" y="107" width="1"/><rect x="141" y="112" width="1" height="1" fill="#a0e6d4"/><g fill="#44cfaa"><rect height="1" x="58" y="114" width="1"/><rect width="1" height="1" x="133" y="115"/></g><g fill="#f1fbf9"><rect width="1" height="1" x="105" y="85"/><rect x="128" y="114" width="1" height="1"/></g><rect x="68" y="94" width="1" height="1" fill="#56d4b3"/><g fill="#51d2b0"><rect height="1" x="48" y="97" width="1"/><rect width="1" height="1" x="71" y="105"/><rect height="1" x="132" y="115" width="1"/></g><rect x="81" y="105" width="1" height="1" fill="#def7f0"/><rect fill="#7fdec5" x="90" y="107" width="1" height="1"/><g fill="#48d0ac"><rect x="126" y="87" width="1" height="1"/><rect x="136" y="102" width="1" height="1"/><rect x="50" y="108" width="1" height="1"/><rect x="119" y="110" width="1" height="1"/><rect x="98" y="112" width="1" height="1"/><rect y="115" width="1" height="1" x="86"/></g><g fill="#a2e7d5"><rect height="1" x="76" y="90" width="1"/><rect height="1" x="71" y="106" width="1"/><rect x="64" y="107" width="1" height="1"/></g><g fill="#97e4d0"><rect height="1" x="52" y="110" width="1"/><rect x="77" y="111" width="1" height="1"/></g><rect width="1" height="1" fill="#ebfaf6" x="148" y="114"/><rect fill="#69c86b" x="154" y="114" width="1" height="1"/><g fill="#fafefc"><rect y="92" width="1" height="1" x="75"/><rect x="128" y="107" width="1" height="1"/></g><rect x="72" y="99" width="1" height="1" fill="#a1e7d4"/><rect y="109" width="1" height="1" fill="#42cfaa" x="120"/><rect x="155" y="115" width="1" height="1" fill="#28c799"/><g fill="#99e5d1"><rect x="77" y="89" width="1" height="1"/><rect x="72" y="102" width="1" height="1"/><rect y="113" width="1" height="1" x="109"/></g><rect y="93" width="1" height="1" fill="#b0ebdb" x="60"/><rect x="95" y="105" width="1" height="1" fill="#40cea8"/><rect width="1" height="1" fill="#f9fefc" x="95" y="106"/><rect x="160" y="110" width="1" height="1" fill="#78c960"/><rect fill="#bceee0" x="144" y="114" width="1" height="1"/><rect y="107" width="1" height="1" fill="#4dd2af" x="115"/><g fill="#ebcc0e"><rect y="113" width="1" height="1" x="159"/><rect x="155" y="114" width="1" height="1"/></g><g fill="#2dc9a0"><rect x="87" y="85" width="1" height="1"/><rect width="1" height="1" x="103" y="108"/></g><g fill="#fdfefe"><rect x="85" y="86" width="1" height="1"/><rect x="99" y="95" width="1" height="1"/><rect x="79" y="102" width="1" height="1"/><rect x="126" y="103" width="1" height="1"/><rect x="75" y="108" width="1" height="1"/><rect x="121" y="109" width="1" height="1"/><rect x="116" y="114" width="1" height="1"/><rect x="134" y="114" width="1" height="1"/></g><g fill="#3ecea8"><rect height="1" x="59" y="94" width="1"/><rect width="1" height="1" x="136" y="101"/></g><rect fill="#9ae5d1" x="56" y="103" width="1" height="1"/><g fill="#4cc87f"><rect x="159" y="114" width="1" height="1"/><rect x="156" y="115" width="1" height="1"/></g><g fill="#28c89e"><rect y="85" width="1" height="1" x="63"/><rect y="87" width="1" height="1" x="136"/><rect x="51" y="90" width="1" height="1"/><rect x="48" y="96" width="1" height="1"/><rect x="60" y="106" width="1" height="1"/><rect x="73" y="107" width="1" height="1"/><rect height="1" x="55" y="113" width="1"/><rect height="1" x="145" y="115" width="1"/></g><g fill="#88e0c9"><rect x="65" y="93" width="1" height="1"/><rect x="48" y="99" width="1" height="1"/><rect x="53" y="111" width="1" height="1"/></g><g fill="#2bc99f"><rect width="1" height="1" x="69" y="93"/><rect y="96" width="1" height="1" x="57"/><rect x="99" y="101" width="1" height="1"/><rect x="127" y="103" width="1" height="1"/><rect width="1" height="1" x="134" y="115"/></g><rect fill="#54d3b2" x="69" y="105" width="1" height="1"/><rect x="88" y="107" width="1" height="1" fill="#59d5b4"/><g fill="#e3f8f2"><rect height="1" x="104" y="84" width="1"/><rect height="1" x="57" y="105" width="1"/></g><g fill="#edfaf7"><rect height="1" x="60" y="86" width="1"/><rect x="60" y="107" width="1" height="1"/></g><g fill="#7bddc3"><rect x="59" y="106" width="1" height="1"/><rect x="120" y="112" width="1" height="1"/></g><g fill="#6cd9bc"><rect x="94" y="104" width="1" height="1"/><rect height="1" x="97" y="104" width="1"/><rect x="105" y="107" width="1" height="1"/></g><rect x="159" y="108" width="1" height="1" fill="#3ec88a"/><rect width="1" height="1" fill="#3acda6" x="113" y="115"/><g fill="#6bd9bc"><rect x="103" y="84" width="1" height="1"/><rect x="86" y="107" width="1" height="1"/><rect y="114" width="1" height="1" x="82"/></g><g fill="#c8f1e6"><rect x="66" y="93" width="1" height="1"/><rect x="108" y="112" width="1" height="1"/></g><g fill="#d7f4ed"><rect height="2" x="112" y="94" width="1"/><rect width="1" height="1" x="112" y="96"/></g><rect x="73" y="95" width="1" height="1" fill="#b9eddf"/><g fill="#8ce1cb"><rect x="105" y="105" width="1" height="1"/><rect x="69" y="113" width="1" height="1"/></g><rect x="82" y="86" width="1" height="1" fill="#78dcc2"/><rect y="107" width="1" height="1" fill="#2ec795" x="157"/><g fill="#24c79c"><rect height="75" width="199"/><rect x="199" width="1" height="199"/><rect y="75" width="199" height="1"/><rect width="101" height="8" y="76"/><rect height="23" x="101" y="76" width="1"/><rect x="109" y="76" width="90" height="1"/><rect height="1" x="111" y="77" width="88"/><rect x="112" y="78" width="87" height="1"/><rect x="112" y="79" width="87" height="1"/><rect width="86" height="6" x="113" y="80"/><rect y="84" width="101" height="1"/><rect y="85" width="60" height="1"/><rect x="60" y="85" width="1" height="1"/><rect x="64" y="85" width="20" height="1"/><rect x="84" y="85" width="1" height="1"/><rect height="1" x="89" y="85" width="14"/><rect height="12" x="103" y="85" width="1"/><rect y="86" width="56" height="1"/><rect x="56" y="86" width="1" height="1"/><rect x="68" y="86" width="12" height="1"/><rect height="1" x="80" y="86" width="1"/><rect x="93" y="86" width="11" height="1"/><rect height="113" x="104" y="86" width="1"/><rect y="86" width="86" height="1" x="113"/><rect y="87" width="54" height="1"/><rect x="54" y="87" width="1" height="1"/><rect x="70" y="87" width="8" height="1"/><rect width="1" height="1" x="78" y="87"/><rect y="87" width="9" height="1" x="95"/><rect height="18" x="113" y="87" width="5"/><rect height="19" x="118" y="87" width="1"/><rect height="15" x="127" y="87" width="8"/><rect height="17" x="135" y="87" width="1"/><rect x="145" y="87" width="54" height="18"/><rect y="88" width="52" height="1"/><rect y="88" width="1" height="1" x="52"/><rect x="72" y="88" width="5" height="1"/><rect x="77" y="88" width="1" height="1"/><rect x="96" y="88" width="8" height="1"/><rect height="2" y="89" width="51"/><rect x="51" y="89" width="1" height="1"/><rect x="72" y="89" width="3" height="2"/><rect x="75" y="89" width="1" height="1"/><rect x="97" y="89" width="7" height="1"/><rect x="71" y="90" width="4" height="1"/><rect width="1" height="1" x="75" y="90"/><rect x="98" y="90" width="6" height="1"/><rect y="91" width="50" height="1"/><rect x="50" y="91" width="1" height="1"/><rect width="3" height="2" x="71" y="91"/><rect width="1" height="1" x="74" y="91"/><rect height="1" x="99" y="91" width="5"/><rect y="92" width="49" height="3"/><rect width="1" height="1" x="49" y="92"/><rect x="70" y="92" width="3" height="3"/><rect x="99" y="92" width="5" height="1"/><rect width="1" height="1" x="73" y="93"/><rect y="93" width="4" height="1" x="100"/><rect width="6" height="11" x="60" y="94"/><rect x="66" y="94" width="1" height="11"/><rect x="69" y="94" width="3" height="9"/><rect y="94" width="3" height="12" x="85"/><rect x="88" y="94" width="1" height="12"/><rect x="100" y="94" width="4" height="1"/><rect y="95" width="48" height="104"/><rect width="1" height="1" x="48" y="95"/><rect x="59" y="95" width="13" height="8"/><rect y="95" width="1" height="1" x="72"/><rect x="83" y="95" width="7" height="10"/><rect y="95" width="1" height="11" x="90"/><rect x="102" y="95" width="2" height="2"/><rect x="58" y="96" width="13" height="7"/><rect x="82" y="96" width="9" height="8"/><rect y="96" width="1" height="10" x="91"/><rect x="57" y="97" width="14" height="6"/><rect x="81" y="97" width="11" height="6"/><rect x="92" y="97" width="1" height="9"/><rect y="97" width="2" height="1" x="102"/><rect x="102" y="98" width="2" height="1"/><rect x="56" y="99" width="15" height="2"/><rect height="2" x="80" y="99" width="12"/><rect x="101" y="99" width="1" height="1"/><rect x="93" y="100" width="1" height="2"/><rect y="101" width="15" height="1" x="56"/><rect height="1" x="80" y="101" width="13"/><rect x="93" y="102" width="1" height="1"/><rect x="127" y="102" width="8" height="1"/><rect y="103" width="14" height="1" x="57"/><rect x="71" y="103" width="1" height="1"/><rect x="81" y="103" width="11" height="1"/><rect x="97" y="103" width="1" height="1"/><rect x="128" y="103" width="7" height="2"/><rect x="58" y="104" width="11" height="1"/><rect x="69" y="104" width="2" height="1"/><rect x="71" y="104" width="1" height="1"/><rect height="1" x="82" y="104" width="10"/><rect x="96" y="104" width="1" height="1"/><rect x="135" y="104" width="1" height="1"/><rect y="105" width="1" height="94" x="48"/><rect y="105" width="9" height="1" x="59"/><rect x="68" y="105" width="1" height="1"/><rect width="1" height="1" x="72" y="105"/><rect x="83" y="105" width="11" height="1"/><rect y="105" width="1" height="1" x="94"/><rect x="113" y="105" width="5" height="1"/><rect x="128" y="105" width="6" height="1"/><rect x="134" y="105" width="1" height="1"/><rect y="105" width="54" height="1" x="145"/><rect x="61" y="106" width="4" height="1"/><rect height="1" x="65" y="106" width="1"/><rect x="72" y="106" width="1" height="1"/><rect y="106" width="7" height="1" x="85"/><rect x="92" y="106" width="1" height="1"/><rect height="1" x="114" y="106" width="4"/><rect height="1" x="118" y="106" width="1"/><rect x="129" y="106" width="5" height="1"/><rect x="134" y="106" width="1" height="1"/><rect y="106" width="53" height="1" x="146"/><rect width="1" height="92" x="49" y="107"/><rect y="107" width="1" height="2" x="119"/><rect x="147" y="107" width="8" height="1"/><rect x="155" y="107" width="1" height="1"/><rect y="107" width="41" height="1" x="158"/><rect height="1" x="73" y="108" width="1"/><rect height="91" x="150" y="108" width="3"/><rect y="108" width="1" height="1" x="153"/><rect x="160" y="108" width="39" height="1"/><rect x="50" y="109" width="1" height="90"/><rect x="74" y="109" width="1" height="90"/><rect x="103" y="109" width="2" height="90"/><rect height="90" x="105" y="109" width="1"/><rect height="1" x="119" y="109" width="1"/><rect y="109" width="38" height="90" x="161"/><rect x="51" y="110" width="1" height="89"/><rect width="3" height="89" x="102" y="110"/><rect height="1" x="120" y="110" width="1"/><rect x="52" y="111" width="1" height="88"/><rect x="75" y="111" width="1" height="88"/><rect height="88" x="101" y="111" width="5"/><rect height="88" x="106" y="111" width="1"/><rect x="120" y="111" width="1" height="1"/><rect x="53" y="112" width="1" height="87"/><rect y="112" width="4" height="87" x="73"/><rect x="77" y="112" width="1" height="87"/><rect y="112" width="7" height="87" x="99"/><rect x="121" y="112" width="1" height="87"/><rect width="1" height="86" x="54" y="113"/><rect height="86" x="71" y="113" width="7"/><rect y="113" width="1" height="86" x="78"/><rect height="86" x="97" y="113" width="10"/><rect x="107" y="113" width="1" height="86"/><rect x="122" y="113" width="1" height="86"/><rect x="140" y="113" width="1" height="86"/><rect y="114" width="2" height="85" x="55"/><rect x="57" y="114" width="1" height="85"/><rect x="69" y="114" width="11" height="85"/><rect y="114" width="1" height="85" x="80"/><rect x="95" y="114" width="14" height="85"/><rect x="109" y="114" width="1" height="85"/><rect width="4" height="85" x="120" y="114"/><rect x="124" y="114" width="1" height="85"/><rect x="139" y="114" width="3" height="85"/><rect x="142" y="114" width="1" height="85"/><rect x="153" y="114" width="1" height="85"/><rect width="39" height="85" x="160" y="114"/><rect y="115" width="26" height="84" x="58"/><rect x="84" y="115" width="1" height="84"/><rect y="115" width="21" height="84" x="91"/><rect x="112" y="115" width="1" height="84"/><rect x="117" y="115" width="11" height="84"/><rect x="128" y="115" width="1" height="84"/><rect x="135" y="115" width="9" height="84"/><rect width="1" height="84" x="144" y="115"/><rect x="148" y="115" width="6" height="84"/><rect y="115" width="1" height="84" x="154"/><rect x="158" y="115" width="41" height="84"/><rect y="116" width="114" height="83" x="85"/><rect y="199" width="199" height="1"/><rect width="1" height="1" x="199" y="199"/></g><g fill="#e8f9f5"><rect x="108" y="77" width="1" height="1"/><rect width="1" height="1" x="111" y="80"/></g><g fill="#26c89d"><rect x="85" y="85" width="1" height="1"/><rect x="53" y="88" width="1" height="1"/><rect x="84" y="94" width="1" height="1"/><rect x="48" y="104" width="1" height="1"/></g><g fill="#e2f7f2"><rect height="1" x="84" y="86" width="1"/><rect x="68" y="93" width="1" height="1"/><rect width="1" height="1" x="81" y="95"/><rect width="1" height="1" x="68" y="113"/></g><rect x="120" y="113" width="1" height="1" fill="#69d9bb"/><rect fill="#aeeada" x="83" y="114" width="1" height="1"/><g fill="#96e4d0"><rect x="66" y="86" width="1" height="1"/><rect x="119" y="88" width="1" height="13"/><rect y="101" width="1" height="1" x="119"/><rect x="135" y="106" width="1" height="1"/></g><g fill="#e8f9f4"><rect x="84" y="93" width="1" height="1"/><rect x="119" y="113" width="1" height="1"/></g><g fill="#eefbf7"><rect x="82" y="94" width="1" height="1"/><rect x="126" y="102" width="1" height="1"/></g><rect x="120" y="108" width="1" height="1" fill="#98e5d0"/><rect x="153" y="113" width="1" height="1" fill="#50c87c"/><rect x="94" y="100" width="1" height="1" fill="#e4f8f3"/><g fill="#c6f0e5"><rect x="59" y="86" width="1" height="1"/><rect y="111" width="1" height="1" x="72"/></g><rect x="80" y="87" width="1" height="1" fill="#9de6d2"/><g fill="#6ddabd"><rect y="88" width="1" height="1" x="78"/><rect height="1" x="106" y="110" width="1"/></g><g fill="#bceee1"><rect width="1" height="1" x="70" y="90"/><rect width="1" height="6" x="103" y="100"/><rect x="103" y="106" width="1" height="1"/></g><g fill="#9de6d3"><rect x="103" y="99" width="1" height="1"/><rect y="114" width="1" height="1" x="111"/></g><g fill="#e7f9f4"><rect height="1" x="79" y="99" width="1"/><rect x="126" y="101" width="1" height="1"/></g><rect height="1" fill="#afebdb" x="92" y="114" width="1"/><g fill="#34cba3"><rect y="114" width="1" height="1" x="94"/><rect x="125" y="114" width="1" height="1"/></g><g fill="#27c89d"><rect x="112" y="80" width="1" height="1"/><rect height="1" x="58" y="95" width="1"/><rect x="135" y="105" width="1" height="1"/><rect x="66" y="106" width="1" height="1"/><rect x="100" y="111" width="1" height="1"/></g><g fill="#f8fdfc"><rect x="69" y="91" width="1" height="1"/><rect x="73" y="96" width="1" height="1"/><rect x="93" y="96" width="1" height="1"/><rect x="56" y="104" width="1" height="1"/><rect height="1" x="51" y="108" width="1"/></g><g fill="#5dd6b6"><rect height="1" x="99" y="93" width="1"/><rect x="73" y="94" width="1" height="1"/></g><g fill="#f5fcfb"><rect x="49" y="96" width="1" height="1"/><rect x="94" y="102" width="1" height="1"/></g><rect x="100" y="98" width="1" height="1" fill="#cbf2e7"/><rect height="1" fill="#89e1c9" x="103" y="76" width="1"/><rect y="87" width="1" height="1" fill="#66d8ba" x="69"/><rect x="91" y="95" width="1" height="1" fill="#3dcda7"/><g fill="#32cba2"><rect x="93" y="103" width="1" height="1"/><rect x="119" y="106" width="1" height="1"/><rect height="1" x="101" y="110" width="1"/></g><rect width="1" height="1" fill="#a6ca3f" x="153" y="110"/><g fill="#f9fdfc"><rect x="96" y="90" width="1" height="1"/><rect x="59" y="93" width="1" height="1"/></g><rect x="101" y="109" width="1" height="1" fill="#d9f5ee"/><rect fill="#37cca5" x="102" y="109" width="1" height="1"/><g fill="#25c79c"><rect y="85" width="1" height="1" x="88"/><rect width="1" height="1" x="76" y="89"/><rect x="49" y="93" width="1" height="1"/><rect x="93" y="99" width="1" height="1"/><rect height="1" x="98" y="102" width="1"/><rect x="95" y="104" width="1" height="1"/><rect x="84" y="106" width="1" height="1"/><rect x="75" y="110" width="1" height="1"/><rect x="76" y="111" width="1" height="1"/><rect x="141" y="113" width="1" height="1"/><rect y="114" width="1" height="1" x="68"/><rect x="138" y="114" width="1" height="1"/></g><rect x="91" y="114" width="1" height="1" fill="#dff7f1"/><g fill="#8de2cb"><rect height="8" x="105" y="96" width="1"/><rect height="1" x="105" y="104" width="1"/></g><rect height="1" fill="#abe9d9" x="72" y="100" width="1"/><g fill="#95e4cf"><rect x="62" y="107" width="1" height="1"/><rect x="124" y="113" width="1" height="1"/></g><rect height="1" fill="#c5f0e4" x="145" y="107" width="1"/><rect y="112" width="1" height="1" fill="#65d8ba" x="78"/><g fill="#58d4b3"><rect x="112" y="81" width="1" height="1"/><rect x="119" y="105" width="1" height="1"/><rect x="54" y="112" width="1" height="1"/></g><g fill="#2cc9a0"><rect height="1" x="102" y="84" width="1"/><rect x="56" y="98" width="1" height="1"/><rect x="100" y="101" width="1" height="1"/><rect x="119" y="114" width="1" height="1"/></g><rect x="112" y="85" width="1" height="1" fill="#cdf2e8"/><rect width="1" height="1" fill="#a5e8d6" x="90" y="86"/><rect x="129" y="107" width="1" height="1" fill="#9be5d2"/><rect x="86" y="85" width="1" height="1" fill="#30caa2"/><g fill="#2ec9a0"><rect width="1" height="1" x="72" y="96"/><rect width="1" height="1" x="101" y="100"/></g><g fill="#63d7b8"><rect x="102" y="76" width="1" height="1"/><rect height="1" x="91" y="86" width="1"/><rect x="49" y="94" width="1" height="1"/><rect x="144" y="95" width="1" height="3"/><rect x="144" y="98" width="1" height="1"/><rect x="139" y="113" width="1" height="1"/></g><rect width="1" height="1" fill="#c0efe2" x="112" y="84"/><rect x="157" y="115" width="1" height="1" fill="#46c884"/><rect fill="#98e4d0" x="142" y="113" width="1" height="1"/><rect y="78" width="1" height="1" fill="#b5ecdd" x="110"/><g fill="#8de2cc"><rect x="105" y="88" width="1" height="7"/><rect y="95" width="1" height="1" x="105"/></g><g fill="#eafaf6"><rect x="91" y="94" width="1" height="1"/><rect x="94" y="101" width="1" height="1"/><rect x="112" y="105" width="1" height="1"/></g><g fill="#49d0ac"><rect x="81" y="96" width="1" height="1"/><rect x="130" y="115" width="1" height="1"/></g><g fill="#f0fbf8"><rect x="49" y="104" width="1" height="1"/><rect x="98" y="104" width="1" height="1"/><rect y="112" width="1" height="1" x="70"/></g><g fill="#4cd1ae"><rect y="87" width="5" height="1" x="120"/><rect x="125" y="87" width="1" height="1"/><rect y="87" width="6" height="1" x="137"/><rect width="1" height="1" x="143" y="87"/><rect y="92" width="1" height="1" x="74"/><rect x="48" y="103" width="1" height="1"/><rect x="96" y="103" width="1" height="1"/><rect height="1" x="115" y="115" width="1"/></g><g fill="#9ee6d3"><rect height="1" x="51" y="91" width="1"/><rect x="93" y="97" width="1" height="1"/><rect height="1" x="100" y="99" width="1"/></g><rect fill="#33c791" x="156" y="107" width="1" height="1"/><rect width="1" height="1" fill="#c1cb2c" x="158" y="108"/><g fill="#e1f7f1"><rect x="79" y="101" width="1" height="1"/><rect x="92" y="107" width="1" height="1"/><rect x="84" y="114" width="1" height="1"/></g><rect y="108" width="1" height="1" fill="#ddf6f0" x="147"/><rect x="96" y="113" width="1" height="1" fill="#55d4b2"/><g fill="#c0efe3"><rect x="102" y="83" width="1" height="1"/><rect x="127" y="114" width="1" height="1"/></g><g fill="#a9e9d8"><rect width="1" height="1" x="100" y="97"/><rect x="94" y="106" width="1" height="1"/><rect height="1" x="117" y="107" width="1"/><rect width="1" height="1" x="140" y="112"/></g><rect fill="#a3e7d6" x="136" y="114" width="1" height="1"/><g fill="#77dcc1"><rect x="106" y="76" width="1" height="1"/><rect x="56" y="113" width="1" height="1"/></g><rect x="99" y="100" width="1" height="1" fill="#c3f0e4"/><rect fill="#fdcc01" x="157" y="108" width="1" height="1"/><rect x="135" y="114" width="1" height="1" fill="#dbf6ef"/><rect x="92" y="95" width="1" height="1" fill="#def6f0"/><rect x="48" y="102" width="1" height="1" fill="#70dabe"/><rect x="155" y="108" width="1" height="1" fill="#d5cb1e"/><g fill="#8ae1ca"><rect x="105" y="76" width="1" height="1"/><rect height="1" x="97" y="102" width="1"/><rect x="80" y="103" width="1" height="1"/></g><rect x="112" y="83" width="1" height="1" fill="#aae9d9"/><g fill="#31caa2"><rect width="1" height="1" x="62" y="85"/><rect x="99" y="102" width="1" height="1"/><rect x="70" y="113" width="1" height="1"/></g><g fill="#f6fdfb"><rect x="88" y="86" width="1" height="1"/><rect height="1" x="81" y="87" width="1"/><rect height="1" x="71" y="107" width="1"/></g><rect width="1" height="1" fill="#27c89e" x="92" y="86"/><rect x="111" y="78" width="1" height="1" fill="#25c79d"/><g fill="#64d7b9"><rect width="1" height="4" x="144" y="90"/><rect width="1" height="1" x="144" y="94"/><rect x="144" y="104" width="1" height="1"/></g><rect x="160" y="109" width="1" height="1" fill="#2cc796"/><rect width="1" height="1" fill="#d9cb1a" x="158" y="114"/><rect width="1" height="1" fill="#92e3cd" x="54" y="88"/><g fill="#71dbbf"><rect x="61" y="93" width="1" height="1"/><rect height="1" x="56" y="97" width="1"/></g><g fill="#caf1e7"><rect y="93" width="1" height="1" x="74"/><rect width="1" height="1" x="100" y="102"/></g><rect x="128" y="106" width="1" height="1" fill="#5dd5b6"/><rect x="154" y="109" width="1" height="1" fill="#f5cc07"/><g fill="#fff"><rect x="103" y="77" width="4" height="6" fill="#fff"/><rect x="107" y="77" width="1" height="33" fill="#fff"/><rect height="33" fill="#fff" x="108" y="78" width="1"/><rect y="78" width="1" height="34" fill="#fff" x="109"/><rect width="1" height="33" fill="#fff" x="110" y="79"/><rect x="111" y="81" width="1" height="32" fill="#fff"/><rect x="103" y="83" width="8" height="1" fill="#fff"/><rect x="105" y="84" width="6" height="1" fill="#fff"/><rect x="106" y="85" width="5" height="23" fill="#fff"/><rect fill="#fff" x="61" y="86" width="2" height="6"/><rect y="86" width="1" height="6" fill="#fff" x="63"/><rect y="86" width="1" height="6" fill="#fff" x="86"/><rect x="87" y="86" width="1" height="6" fill="#fff"/><rect x="58" y="87" width="9" height="5" fill="#fff"/><rect x="67" y="87" width="1" height="5" fill="#fff"/><rect width="9" height="5" fill="#fff" x="82" y="87"/><rect x="91" y="87" width="1" height="6" fill="#fff"/><rect x="56" y="88" width="13" height="4" fill="#fff"/><rect y="88" width="1" height="2" fill="#fff" x="69"/><rect width="13" height="4" fill="#fff" x="80" y="88"/><rect height="7" fill="#fff" x="93" y="88" width="1"/><rect width="5" height="17" fill="#fff" x="120" y="88"/><rect width="1" height="24" fill="#fff" x="125" y="88"/><rect x="137" y="88" width="6" height="23" fill="#fff"/><rect x="143" y="88" width="1" height="24" fill="#fff"/><rect x="54" y="89" width="16" height="1" fill="#fff"/><rect width="1" height="1" fill="#fff" x="70" y="89"/><rect height="3" fill="#fff" x="78" y="89" width="16"/><rect fill="#fff" x="94" y="89" width="1" height="9"/><rect x="53" y="90" width="16" height="2" fill="#fff"/><rect width="1" height="1" fill="#fff" x="69" y="90"/><rect width="18" height="2" fill="#fff" x="77" y="90"/><rect x="95" y="90" width="1" height="12" fill="#fff"/><rect x="52" y="91" width="16" height="1" fill="#fff"/><rect y="91" width="20" height="1" fill="#fff" x="76"/><rect x="96" y="91" width="1" height="10" fill="#fff"/><rect width="16" height="1" fill="#fff" x="52" y="92"/><rect y="92" width="1" height="1" fill="#fff" x="68"/><rect x="76" y="92" width="21" height="1" fill="#fff"/><rect fill="#fff" x="97" y="92" width="1" height="9"/><rect x="51" y="93" width="7" height="1" fill="#fff"/><rect x="58" y="93" width="1" height="1" fill="#fff"/><rect x="75" y="93" width="8" height="1" fill="#fff"/><rect x="83" y="93" width="1" height="1" fill="#fff"/><rect y="93" width="8" height="1" fill="#fff" x="90"/><rect x="98" y="93" width="1" height="7" fill="#fff"/><rect y="94" width="7" height="1" fill="#fff" x="50"/><rect x="57" y="94" width="1" height="1" fill="#fff"/><rect height="1" fill="#fff" x="74" y="94" width="7"/><rect width="1" height="1" fill="#fff" x="81" y="94"/><rect width="6" height="1" fill="#fff" x="92" y="94"/><rect x="50" y="95" width="6" height="2" fill="#fff"/><rect height="1" fill="#fff" x="56" y="95" width="1"/><rect x="74" y="95" width="6" height="3" fill="#fff"/><rect height="1" fill="#fff" x="80" y="95" width="1"/><rect x="93" y="95" width="5" height="1" fill="#fff"/><rect x="99" y="96" width="1" height="3" fill="#fff"/><rect x="49" y="97" width="6" height="6" fill="#fff"/><rect x="55" y="97" width="1" height="1" fill="#fff"/><rect x="73" y="97" width="6" height="7" fill="#fff"/><rect width="1" height="1" fill="#fff" x="79" y="98"/><rect width="5" height="1" fill="#fff" x="94" y="98"/><rect width="1" height="1" fill="#fff" x="99" y="99"/><rect x="98" y="100" width="1" height="1" fill="#fff"/><rect fill="#fff" x="96" y="101" width="1" height="1"/><rect fill="#fff" x="97" y="101" width="1" height="1"/><rect x="102" y="101" width="1" height="6" fill="#fff"/><rect fill="#fff" x="55" y="102" width="1" height="9"/><rect width="1" height="1" fill="#fff" x="95" y="102"/><rect height="6" fill="#fff" x="101" y="102" width="1"/><rect y="103" width="6" height="1" fill="#fff" x="49"/><rect y="103" width="1" height="8" fill="#fff" x="79"/><rect x="94" y="103" width="1" height="1" fill="#fff"/><rect x="100" y="103" width="2" height="5" fill="#fff"/><rect x="50" y="104" width="5" height="2" fill="#fff"/><rect x="73" y="104" width="6" height="1" fill="#fff"/><rect height="4" fill="#fff" x="99" y="104" width="3"/><rect height="9" fill="#fff" x="126" y="104" width="1"/><rect fill="#fff" x="56" y="105" width="1" height="7"/><rect fill="#fff" x="74" y="105" width="6" height="1"/><rect x="80" y="105" width="1" height="7" fill="#fff"/><rect y="105" width="5" height="3" fill="#fff" x="97"/><rect y="105" width="6" height="1" fill="#fff" x="120"/><rect height="1" fill="#fff" x="50" y="106" width="7"/><rect x="57" y="106" width="1" height="6" fill="#fff"/><rect x="70" y="106" width="1" height="5" fill="#fff"/><rect x="74" y="106" width="7" height="1" fill="#fff"/><rect fill="#fff" x="81" y="106" width="1" height="6"/><rect x="96" y="106" width="6" height="2" fill="#fff"/><rect y="106" width="1" height="7" fill="#fff" x="112"/><rect x="121" y="106" width="5" height="2" fill="#fff"/><rect height="5" fill="#fff" x="136" y="106" width="7"/><rect height="1" fill="#fff" x="51" y="107" width="8"/><rect x="59" y="107" width="1" height="6" fill="#fff"/><rect x="67" y="107" width="3" height="5" fill="#fff"/><rect x="75" y="107" width="8" height="1" fill="#fff"/><rect x="83" y="107" width="1" height="6" fill="#fff"/><rect x="93" y="107" width="9" height="1" fill="#fff"/><rect x="102" y="107" width="1" height="1" fill="#fff"/><rect x="127" y="107" width="1" height="6" fill="#fff"/><rect fill="#fff" x="135" y="107" width="9" height="4"/><rect fill="#fff" x="144" y="107" width="1" height="6"/><rect x="52" y="108" width="19" height="1" fill="#fff"/><rect x="71" y="108" width="1" height="3" fill="#fff"/><rect y="108" width="25" height="1" fill="#fff" x="76"/><rect y="108" width="1" height="1" fill="#fff" x="101"/><rect width="11" height="1" fill="#fff" x="106" y="108"/><rect y="108" width="1" height="5" fill="#fff" x="117"/><rect x="121" y="108" width="25" height="1" fill="#fff"/><rect x="146" y="108" width="1" height="6" fill="#fff"/><rect x="52" y="109" width="19" height="1" fill="#fff"/><rect fill="#fff" x="76" y="109" width="24" height="1"/><rect y="109" width="1" height="1" fill="#fff" x="100"/><rect fill="#fff" x="113" y="109" width="4" height="4"/><rect y="109" width="26" height="1" fill="#fff" x="122"/><rect fill="#fff" x="148" y="109" width="1" height="4"/><rect fill="#fff" x="53" y="110" width="19" height="1"/><rect fill="#fff" x="72" y="110" width="1" height="1"/><rect x="77" y="110" width="22" height="1" fill="#fff"/><rect x="99" y="110" width="1" height="1" fill="#fff"/><rect width="10" height="1" fill="#fff" x="107" y="110"/><rect height="1" fill="#fff" x="122" y="110" width="26"/><rect y="111" width="16" height="1" fill="#fff" x="55"/><rect x="71" y="111" width="1" height="1" fill="#fff"/><rect x="79" y="111" width="18" height="1" fill="#fff"/><rect height="1" fill="#fff" x="97" y="111" width="1"/><rect y="111" width="10" height="1" fill="#fff" x="108"/><rect height="2" fill="#fff" x="118" y="111" width="1"/><rect y="111" width="25" height="1" fill="#fff" x="123"/><rect height="1" fill="#fff" x="56" y="112" width="13"/><rect height="1" fill="#fff" x="69" y="112" width="1"/><rect x="80" y="112" width="16" height="1" fill="#fff"/><rect y="112" width="1" height="1" fill="#fff" x="96"/><rect x="109" y="112" width="10" height="1" fill="#fff"/><rect y="112" width="1" height="1" fill="#fff" x="119"/><rect x="124" y="112" width="15" height="1" fill="#fff"/><rect x="139" y="112" width="1" height="1" fill="#fff"/><rect x="142" y="112" width="6" height="1" fill="#fff"/><rect fill="#fff" x="58" y="113" width="9" height="1"/><rect x="67" y="113" width="1" height="1" fill="#fff"/><rect x="82" y="113" width="11" height="1" fill="#fff"/><rect y="113" width="1" height="1" fill="#fff" x="93"/><rect x="111" y="113" width="7" height="1" fill="#fff"/><rect x="118" y="113" width="1" height="1" fill="#fff"/><rect x="126" y="113" width="11" height="1" fill="#fff"/><rect x="137" y="113" width="1" height="1" fill="#fff"/><rect x="144" y="113" width="4" height="1" fill="#fff"/><rect x="148" y="113" width="1" height="1" fill="#fff"/><rect fill="#fff" x="86" y="114" width="3" height="1"/><rect fill="#fff" x="89" y="114" width="1" height="1"/><rect width="2" height="1" fill="#fff" x="113" y="114"/><rect width="1" height="1" fill="#fff" x="115" y="114"/><rect x="129" y="114" width="4" height="1" fill="#fff"/><rect fill="#fff" x="133" y="114" width="1" height="1"/><rect height="1" fill="#fff" x="146" y="114" width="1"/><rect x="147" y="114" width="1" height="1" fill="#fff"/></g><g fill="#e0f7f1"><rect x="56" y="96" width="1" height="1"/><rect x="136" y="105" width="1" height="1"/></g><g fill="#57d4b3"><rect x="127" y="104" width="1" height="1"/><rect y="109" width="1" height="1" x="73"/></g><g fill="#2fcaa1"><rect x="121" y="111" width="1" height="1"/><rect x="85" y="115" width="1" height="1"/></g><g fill="#c2efe3"><rect x="65" y="107" width="1" height="1"/><rect x="97" y="112" width="1" height="1"/></g><g fill="#7ddec4"><rect x="118" y="108" width="1" height="1"/><rect x="51" y="109" width="1" height="1"/></g><rect width="1" height="1" fill="#a4e7d6" x="121" y="110"/><g fill="#e6f9f4"><rect x="92" y="87" width="1" height="1"/><rect x="55" y="101" width="1" height="1"/></g><g fill="#83dfc7"><rect width="1" height="1" x="75" y="91"/><rect x="105" y="106" width="1" height="1"/><rect x="66" y="114" width="1" height="1"/></g><rect x="160" y="113" width="1" height="1" fill="#32c792"/></svg>