<?xml version="1.0" encoding="UTF-8" standalone="no"?>
<!-- Created with Inkscape (http://www.inkscape.org/) -->

<svg
   xmlns:dc="http://purl.org/dc/elements/1.1/"
   xmlns:cc="http://creativecommons.org/ns#"
   xmlns:rdf="http://www.w3.org/1999/02/22-rdf-syntax-ns#"
   xmlns:svg="http://www.w3.org/2000/svg"
   xmlns="http://www.w3.org/2000/svg"
   xmlns:sodipodi="http://sodipodi.sourceforge.net/DTD/sodipodi-0.dtd"
   xmlns:inkscape="http://www.inkscape.org/namespaces/inkscape"
   width="544.5"
   height="141"
   viewBox="0 0 544.50001 141"
   id="svg14756"
   version="1.1"
   inkscape:version="0.91 r13725"
   sodipodi:docname="conduent.svg">
  <defs
     id="defs14758" />
  <sodipodi:namedview
     id="base"
     pagecolor="#ffffff"
     bordercolor="#666666"
     borderopacity="1.0"
     inkscape:pageopacity="0.0"
     inkscape:pageshadow="2"
     inkscape:zoom="0.51598204"
     inkscape:cx="372.04724"
     inkscape:cy="526.1811"
     inkscape:document-units="px"
     inkscape:current-layer="layer1"
     showgrid="false"
     units="px"
     inkscape:window-width="1280"
     inkscape:window-height="744"
     inkscape:window-x="-4"
     inkscape:window-y="-4"
     inkscape:window-maximized="1" />
  <metadata
     id="metadata14761">
    <rdf:RDF>
      <cc:Work
         rdf:about="">
        <dc:format>image/svg+xml</dc:format>
        <dc:type
           rdf:resource="http://purl.org/dc/dcmitype/StillImage" />
        <dc:title></dc:title>
      </cc:Work>
    </rdf:RDF>
  </metadata>
  <g
     inkscape:label="Layer 1"
     inkscape:groupmode="layer"
     id="layer1"
     transform="translate(0,-911.36216)">
    <g
       id="g14821"
       transform="translate(1.05,912.26216)">
      <g
         id="Artwork">
	<g
   id="g14783">
		<path
   id="path14785"
   d="m 65.4,57 c -13.6,0 -24.7,11.1 -24.7,24.7 0,13.6 11,24.7 24.7,24.7 C 79,106.4 90.1,95.3 90.1,81.7 90.1,68 79.1,57 65.4,57 Z m 0,38.1 C 57.7,95.1 53,89.3 53,81.6 c 0,-7.7 4.6,-13.5 12.4,-13.5 7.8,0 12.4,5.8 12.4,13.5 0,7.7 -4.7,13.5 -12.4,13.5 z"
   inkscape:connector-curvature="0" />

		<polygon
   id="polygon14787"
   points="95.6,105.1 107.9,105.1 107.9,77.6 126.9,105.1 139.1,105.1 139.1,58.2 126.9,58.2 126.9,85.7 107.9,58.2 95.6,58.2 " />

		<path
   id="path14789"
   d="m 168.3,58.2 -20.4,0 0,46.8 20.5,0 c 13.1,0 22.9,-10.4 22.9,-23.4 -0.1,-12.9 -8.6,-23.4 -23,-23.4 z m -2.3,36.4 -5.8,0 0,-26 5.8,0 c 8.2,0 12.5,5 12.5,13 -0.1,8.2 -4.2,13 -12.5,13 z"
   inkscape:connector-curvature="0" />

		<path
   id="path14791"
   d="m 226.2,82.9 c 0,6.4 -1.4,12.2 -8.7,12.2 -7.3,0 -8.7,-5.8 -8.7,-12.2 l 0,-24.6 -12.3,0 c 0,0 0,16.2 0,26.3 0,14.3 8.3,21.7 21,21.7 12.7,0 21,-7.9 21,-21.7 0,-10 0,-26.3 0,-26.3 l -12.3,0 0,24.6 z"
   inkscape:connector-curvature="0" />

		<polygon
   id="polygon14793"
   points="278.1,105.1 278.1,94.6 257.8,94.6 257.8,86.7 275.2,86.7 275.2,76.3 257.8,76.3 257.8,68.7 278.1,68.7 278.1,58.2 245.5,58.2 245.5,105.1 " />

		<g
   id="g14795">
			<polygon
   id="polygon14797"
   points="401.3,139.2 401.3,71 442.3,47.3 442.3,115.5 "
   class="st0"
   style="fill:#ff8700" />

			<polygon
   id="polygon14799"
   points="542.4,105.1 483.4,139.2 442.3,115.5 501.4,81.4 "
   class="st0"
   style="fill:#ff8700" />

			<polygon
   id="polygon14801"
   points="442.3,0 501.4,34 501.4,81.4 442.3,47.3 "
   class="st0"
   style="fill:#ff8700" />

		</g>

		<path
   id="path14803"
   d="m 36.8,90.9 c -2.1,1.8 -6.3,4.2 -11,4.2 -7.9,0 -13.4,-5.8 -13.4,-13.5 0,-7.7 5.3,-13.5 13.2,-13.5 4.8,0 8.7,2 11.1,4 l 0,-12.3 C 34.1,58.3 30.5,56.9 24.4,56.9 11.1,56.9 0,66.5 0,81.6 c 0,15.3 9.8,24.7 24.7,24.7 4.1,0 8.9,-1.1 12,-3.1 l 0.1,-12.3 0,0 z"
   inkscape:connector-curvature="0" />

		<polygon
   id="polygon14805"
   points="355.6,68.7 370.2,68.7 370.2,58.2 316.4,58.2 316.4,85.7 297.4,58.2 285.1,58.2 285.1,105.1 297.4,105.1 297.4,77.6 316.4,105.1 328.7,105.1 328.7,68.7 343.3,68.7 343.3,105.1 355.6,105.1 " />

	</g>

</g>
      <g
         id="Trademark">
	<g
   id="g14808">
		<path
   id="path14810"
   d="m 507.9,132.4 5.4,0 0,1.1 -2,0 0,5.6 -1.4,0 0,-5.6 -2,0 0,-1.1 z"
   class="st0"
   inkscape:connector-curvature="0"
   style="fill:#ff8700" />

		<path
   id="path14812"
   d="m 514.6,132.4 1.9,0 1,3.4 c 0.1,0.2 0.1,0.4 0.2,0.6 0.1,0.2 0.1,0.4 0.1,0.6 0,0.2 0.1,0.4 0.1,0.6 l 0,0 c 0,-0.2 0.1,-0.4 0.1,-0.6 0,-0.2 0.1,-0.4 0.1,-0.6 0,-0.2 0.1,-0.4 0.2,-0.6 l 0.9,-3.4 1.9,0 0,6.7 -1.3,0 0,-3.9 c 0,-0.1 0,-0.3 0,-0.4 0,-0.2 0,-0.3 0,-0.5 0,-0.2 0,-0.3 0,-0.5 l 0,0 c 0,0.2 -0.1,0.3 -0.1,0.5 0,0.1 -0.1,0.3 -0.1,0.4 0,0.1 -0.1,0.3 -0.1,0.4 l -1.2,4 -1.3,0 -1.1,-4 c 0,-0.1 -0.1,-0.3 -0.1,-0.4 0,-0.1 -0.1,-0.3 -0.1,-0.4 0,-0.2 -0.1,-0.3 -0.1,-0.5 l 0,0 c 0,0.2 0,0.3 0,0.5 0,0.1 0,0.3 0,0.5 0,0.2 0,0.3 0,0.4 l 0,3.9 -1.3,0 0,-6.7 0.3,0 z"
   class="st0"
   inkscape:connector-curvature="0"
   style="fill:#ff8700" />

	</g>

</g>
    </g>
  </g>
  <style
     id="style14780"
     type="text/css">
	.st0{fill:#FF8700;}
</style>
</svg>
