<svg width="984" height="282" viewBox="0 0 984 282" fill="none" xmlns="http://www.w3.org/2000/svg">
<path d="M306.76 62.77V62.38C306.76 51.85 314.01 44.5 323.76 44.5C331.79 44.5 338.01 48.52 338.8 56.75H332.19C331.45 52.1 328.86 49.7 323.81 49.7C317.64 49.7 313.62 54.5 313.62 62.34V62.73C313.62 70.62 317.39 75.27 323.86 75.27C328.71 75.27 332.14 72.82 332.82 67.87H339.19C338.16 76.3 332.18 80.56 323.86 80.56C312.88 80.55 306.76 73.54 306.76 62.77Z" fill="#2C56DD"/>
<path d="M345.74 62.77V62.38C345.74 52.14 353.09 44.55 363.47 44.55C373.9 44.55 381.11 51.95 381.11 62.23V62.62C381.11 72.86 374.1 80.55 363.47 80.55C352.74 80.55 345.74 72.86 345.74 62.77ZM374.35 62.67V62.28C374.35 55.08 370.33 49.74 363.47 49.74C356.61 49.74 352.55 54.78 352.55 62.33V62.72C352.55 70.36 357.2 75.31 363.57 75.31C370.18 75.31 374.35 70.26 374.35 62.67Z" fill="#2C56DD"/>
<path d="M388.893 45H396.683L411.433 70.32V45H417.353V80.02H410.593L394.823 53.18V80.02H388.893V45V45Z" fill="#2C56DD"/>
<path d="M425.673 69.14H431.943C432.383 72.67 433.803 75.61 439.733 75.61C443.603 75.61 446.343 73.46 446.343 70.22C446.343 66.99 444.723 65.76 439.043 64.83C430.663 63.7 426.703 61.16 426.703 54.59C426.703 48.86 431.603 44.55 438.903 44.55C446.443 44.55 450.953 47.98 451.633 54.69H445.663C445.023 51.02 442.913 49.45 438.903 49.45C434.933 49.45 432.883 51.36 432.883 54.06C432.883 56.9 434.053 58.32 440.133 59.2C448.363 60.33 452.623 62.68 452.623 69.68C452.623 75.76 447.483 80.51 439.743 80.51C430.183 80.51 426.163 75.76 425.673 69.14Z" fill="#2C56DD"/>
<path d="M461.133 45H483.033V50.14H467.653V59.74H480.003V64.64H467.653V74.88H483.863V80.02H461.133V45Z" fill="#2C56DD"/>
<path d="M492.173 45H499.963L514.713 70.32V45H520.633V80.02H513.873L498.103 53.18V80.02H492.173V45V45Z" fill="#2C56DD"/>
<path d="M528.963 69.14H535.233C535.673 72.67 537.093 75.61 543.023 75.61C546.893 75.61 549.633 73.46 549.633 70.22C549.633 66.99 548.013 65.76 542.333 64.83C533.953 63.7 529.993 61.16 529.993 54.59C529.993 48.86 534.893 44.55 542.193 44.55C549.733 44.55 554.243 47.98 554.923 54.69H548.953C548.313 51.02 546.213 49.45 542.193 49.45C538.223 49.45 536.173 51.36 536.173 54.06C536.173 56.9 537.343 58.32 543.423 59.2C551.653 60.33 555.913 62.68 555.913 69.68C555.913 75.76 550.773 80.51 543.033 80.51C533.463 80.51 529.453 75.76 528.963 69.14Z" fill="#2C56DD"/>
<path d="M571.133 64.83L559.523 44.99H566.723L574.613 59.49L582.303 44.99H588.673L577.703 64.88V80.02H571.143V64.83H571.133Z" fill="#2C56DD"/>
<path d="M592.333 69.14H598.603C599.043 72.67 600.463 75.61 606.393 75.61C610.263 75.61 613.003 73.46 613.003 70.22C613.003 66.99 611.383 65.76 605.703 64.83C597.323 63.7 593.363 61.16 593.363 54.59C593.363 48.86 598.263 44.55 605.563 44.55C613.103 44.55 617.613 47.98 618.293 54.69H612.323C611.683 51.02 609.583 49.45 605.563 49.45C601.593 49.45 599.543 51.36 599.543 54.06C599.543 56.9 600.713 58.32 606.793 59.2C615.023 60.33 619.283 62.68 619.283 69.68C619.283 75.76 614.143 80.51 606.403 80.51C596.833 80.51 592.823 75.76 592.333 69.14Z" fill="#2C56DD"/>
<path d="M395.93 231.91C388.3 234.33 379.93 235.82 370.82 235.82C329.15 235.82 302.56 207.18 302.56 168.11V166.62C302.56 127 331.58 98.9102 371.01 98.9102C411 98.9102 439.46 126.07 439.46 165.87V167.36C439.46 188.94 431.46 207.35 417.51 219.63L429.76 232.72C430.5 233.51 430.48 234.75 429.71 235.51L415.44 249.63C414.64 250.42 413.35 250.4 412.58 249.58L395.93 231.91ZM377.7 212.19L366.39 199.88C365.65 199.07 365.69 197.82 366.5 197.07L381.07 183.43C381.88 182.67 383.15 182.72 383.9 183.53L398.9 199.73C404.67 191.92 408.01 181.13 408.01 167.74V166.25C408.01 140.4 394.25 122.72 371 122.72C347.93 122.72 333.98 139.46 333.98 166.43V167.92C333.98 196.01 349.42 212.56 371.37 212.56C373.61 212.56 375.66 212.38 377.7 212.19Z" fill="#2C56DD"/>
<path d="M450.61 199.17V138.49C450.61 137.39 451.51 136.49 452.61 136.49H475.4C476.5 136.49 477.4 137.39 477.4 138.49V195.45C477.4 208.66 482.79 214.98 494.33 214.98C505.68 214.98 514.6 207.91 514.6 193.59V138.49C514.6 137.39 515.5 136.49 516.6 136.49H539.38C540.48 136.49 541.38 137.39 541.38 138.49V231.77C541.38 232.87 540.48 233.77 539.38 233.77H516.6C515.5 233.77 514.6 232.87 514.6 231.77V218.52C509.58 228.38 499.72 235.82 483.72 235.82C464.75 235.81 450.61 224.65 450.61 199.17Z" fill="#2C56DD"/>
<path d="M550.68 186.15V184.66C550.68 154.16 572.81 134.25 602.02 134.25C631.22 134.25 653.17 153.78 653.17 184.1V185.59C653.17 216.28 631.04 235.81 601.83 235.81C572.81 235.81 550.68 216.47 550.68 186.15ZM625.83 185.78V184.48C625.83 165.88 617.09 154.72 602.02 154.72C587.14 154.72 578.21 165.51 578.21 184.11V185.6C578.21 204.2 586.77 215.36 602.02 215.36C617.08 215.35 625.83 204.19 625.83 185.78Z" fill="#2C56DD"/>
<path d="M664.28 136.49H687.25C688.35 136.49 689.25 137.39 689.25 138.49V155.09C695.11 142.66 704.02 135.83 718.56 135.07C719.71 135.01 720.68 135.92 720.68 137.07V158.12C720.68 159.21 719.81 160.1 718.73 160.12C700.03 160.38 689.25 167.06 689.25 185.04V231.77C689.25 232.87 688.35 233.77 687.25 233.77H664.28C663.18 233.77 662.28 232.87 662.28 231.77V138.49C662.28 137.38 663.17 136.49 664.28 136.49Z" fill="#2C56DD"/>
<path d="M729.98 199.17V138.49C729.98 137.39 730.88 136.49 731.98 136.49H754.77C755.87 136.49 756.77 137.39 756.77 138.49V195.45C756.77 208.66 762.16 214.98 773.7 214.98C785.05 214.98 793.97 207.91 793.97 193.59V138.49C793.97 137.39 794.87 136.49 795.97 136.49H818.76C819.86 136.49 820.76 137.39 820.76 138.49V231.77C820.76 232.87 819.86 233.77 818.76 233.77H795.97C794.87 233.77 793.97 232.87 793.97 231.77V218.52C788.95 228.38 779.09 235.82 763.09 235.82C744.12 235.81 729.98 224.65 729.98 199.17Z" fill="#2C56DD"/>
<path d="M837.26 136.49H860.23C861.33 136.49 862.23 137.39 862.23 138.49V151.37C867.07 142.26 877.48 134.26 891.99 134.26C904.82 134.26 914.5 139.65 919.15 151.19C926.96 139.47 939.61 134.26 951.89 134.26C969.93 134.26 983.88 145.61 983.88 171.46V231.77C983.88 232.87 982.98 233.77 981.88 233.77H959.09C957.99 233.77 957.09 232.87 957.09 231.77V174.43C957.09 161.97 951.51 156.39 941.84 156.39C931.42 156.39 923.05 163.09 923.05 176.29V231.77C923.05 232.87 922.15 233.77 921.05 233.77H898.27C897.17 233.77 896.27 232.87 896.27 231.77V174.43C896.27 161.97 890.5 156.39 881.02 156.39C870.6 156.39 862.23 163.09 862.23 176.29V231.77C862.23 232.87 861.33 233.77 860.23 233.77H837.26C836.16 233.77 835.26 232.87 835.26 231.77V138.49C835.26 137.38 836.15 136.49 837.26 136.49Z" fill="#2C56DD"/>
<path fill-rule="evenodd" clip-rule="evenodd" d="M0.119995 141C0.119995 63.4 63.02 0.5 140.62 0.5C218.22 0.5 281.12 63.4 281.12 141C281.12 218.6 218.22 281.5 140.62 281.5C63.02 281.5 0.119995 218.6 0.119995 141ZM206.752 169.684C206.716 162.365 212.68 156.41 220.072 156.363H220.108C227.501 156.422 233.453 162.4 233.393 169.708C233.417 177.004 227.465 182.958 220.072 183.005C212.68 182.97 206.716 177.015 206.752 169.708V169.684ZM216.324 141.103C222.69 137.428 224.886 129.279 221.21 122.915C217.534 116.551 209.382 114.355 203.017 118.031C196.674 121.682 194.478 129.772 198.084 136.136L198.166 136.254C201.842 142.606 209.958 144.778 216.312 141.103C216.312 141.109 216.315 141.112 216.318 141.112C216.321 141.112 216.324 141.109 216.324 141.103ZM60.472 122.942C64.162 116.576 72.3177 114.415 78.6872 118.103C85.0332 121.779 87.1955 129.907 83.529 136.261V136.308C79.8389 142.673 71.6832 144.834 65.3137 141.146C58.9442 137.459 56.7819 129.308 60.472 122.942ZM100.515 114.426C107.881 114.414 113.846 108.435 113.834 101.081C113.834 98.7787 113.234 96.5232 112.093 94.5262C108.481 88.1476 100.362 85.8922 93.9618 89.5102C93.9588 89.5102 93.9566 89.511 93.9547 89.5121L93.9526 89.5136L93.95 89.5161C93.9471 89.5191 93.9441 89.522 93.9383 89.522L93.7147 89.6512C87.3848 93.4103 85.3023 101.586 89.0673 107.906C91.4675 111.935 95.809 114.414 100.515 114.426ZM127.184 90.2409C127.184 82.8873 133.152 76.9199 140.505 76.9199C147.859 76.9199 153.826 82.8873 153.826 90.2409C153.826 97.5945 147.859 103.562 140.505 103.562C133.152 103.562 127.184 97.5945 127.184 90.2409ZM98.0085 156.373C90.655 156.373 84.6875 162.34 84.6875 169.694C84.6875 177.047 90.655 183.015 98.0085 183.015C105.362 183.015 111.33 177.047 111.33 169.694C111.33 162.34 105.362 156.373 98.0085 156.373ZM149.455 133.338C149.455 125.984 155.423 120.017 162.776 120.017C170.13 120.017 176.097 125.984 176.097 133.338C176.097 140.691 170.13 146.659 162.776 146.659C155.423 146.659 149.455 140.691 149.455 133.338ZM173.908 113.125L174.079 113.221C180.943 116.632 189.317 113.932 192.792 107.196C195.996 100.979 193.921 93.387 187.966 89.5792C181.127 86.1208 172.729 88.7477 169.205 95.4596C165.939 101.665 167.965 109.281 173.908 113.125ZM47.8464 169.442C47.9996 162.09 54.077 156.245 61.4265 156.363C68.6583 156.505 74.4649 162.408 74.4884 169.642C74.512 177.006 68.564 182.98 61.2028 183.004C53.8415 183.027 47.87 177.077 47.8464 169.713V169.442ZM182.548 156.333C175.194 156.333 169.227 162.301 169.227 169.654C169.227 177.008 175.194 182.975 182.548 182.975C189.901 182.975 195.869 177.008 195.869 169.654C195.869 162.301 189.901 156.333 182.548 156.333ZM129.928 125.969C133.986 132.094 132.321 140.355 126.198 144.415C125.728 144.732 125.236 145.025 124.72 145.272C118.139 148.534 110.151 145.847 106.89 139.264C103.63 132.681 106.316 124.69 112.896 121.427L112.978 121.38C118.972 118.435 126.233 120.395 129.928 125.969Z" fill="#2C56DD"/>
</svg>
