<?xml version="1.0" encoding="utf-8"?>
<!-- Generator: Adobe Illustrator 19.2.1, SVG Export Plug-In . SVG Version: 6.00 Build 0)  -->
<svg version="1.1" id="layer" xmlns="http://www.w3.org/2000/svg" xmlns:xlink="http://www.w3.org/1999/xlink" x="0px" y="0px"
	 viewBox="0 0 652 652" style="enable-background:new 0 0 652 652;" xml:space="preserve">
<style type="text/css">
	.st0{fill:#E0081C;}
</style>
<path id="a" class="st0" d="M586.5,397.4c-23.6,22.5-80,17.7-80-26.6c0-46.7,49-50.3,79.7-47.5c0-0.1,0-0.1,0-0.2
	c-1.1-24.4-41.8-18.4-58-5.4c-5.1-7.3-13.7-20.3-17.2-26.2c18.7-14.4,64.3-24.9,87.6-11.7c23.4,13.3,27.9,36.5,27.9,48.3
	c0,0,0,0.1,0,0.1l0,91.3l0-12.2h-39L586.5,397.4L586.5,397.4z M433.2,396.3c-41.5,32.9-84,1.7-89.3-40.7
	c-6.6-52.7,35.2-94.6,88.9-76.3v-54.8h41v182.9h-39.5L433.2,396.3L433.2,396.3z M432.8,351.9v-36.6c-17.8-8.1-45.2-8.4-47.7,28.4
	C382.6,381.3,429.6,385.1,432.8,351.9z M275.5,291.2c12-14.7,29.1-18.9,51.2-12.7c-3.3,18.3-5.6,30.7-6.9,37.2
	c-31.9-5.6-43.6,4-43.8,31.9v1c0,0.1,0,0.1,0,0.2c0,0,0,0,0,0v58.6h-41V278h39.5L275.5,291.2L275.5,291.2z M132.3,288.1
	c-11.2,8.2-19.7,19.9-24.1,33.5c-4.2-3.1-9.4-5-15.1-5c-14.1,0-25.6,11.6-25.6,25.9c0,14.3,11.5,25.9,25.6,25.9
	c5.6,0,10.8-1.8,15.1-5c4.4,13.6,12.9,25.3,24.1,33.5c-11,8.1-24.5,12.9-39.2,12.9c-36.8,0-66.6-30.1-66.6-67.3
	c0-37.2,29.8-67.3,66.6-67.3C107.8,275.3,121.3,280,132.3,288.1z M586,350.9c-12.2,0.1-39.8-4.3-39.2,16.1
	c0.6,20.4,39.2,16.8,39.2-6.7C586,352.4,586,352.4,586,350.9z M171.5,368.5c-14.1,0-25.6-11.6-25.6-25.9c0-14.3,11.5-25.9,25.6-25.9
	s25.6,11.6,25.6,25.9C197.1,356.9,185.7,368.5,171.5,368.5z"/>
</svg>
