<?xml version="1.0" encoding="utf-8"?>
<!-- Generator: Adobe Illustrator 25.2.0, SVG Export Plug-In . SVG Version: 6.00 Build 0)  -->
<svg version="1.1" id="Layer_1" xmlns="http://www.w3.org/2000/svg" xmlns:xlink="http://www.w3.org/1999/xlink" x="0px" y="0px"
	 viewBox="0 0 400 245" style="enable-background:new 0 0 400 245;" xml:space="preserve">
<style type="text/css">
	.st0{fill:url(#SVGID_1_);}
	.st1{fill:url(#SVGID_2_);}
	.st2{fill:url(#SVGID_3_);}
</style>
<g>
	<g>
		<linearGradient id="SVGID_1_" gradientUnits="userSpaceOnUse" x1="7.213151e-02" y1="115.233" x2="394.359" y2="115.233">
			<stop  offset="2.869016e-02" style="stop-color:#F6D136;stop-opacity:0"/>
			<stop  offset="0.2535" style="stop-color:#F6D136"/>
			<stop  offset="0.5892" style="stop-color:#9BDB6B"/>
			<stop  offset="1" style="stop-color:#0CD6B1"/>
		</linearGradient>
		<path class="st0" d="M317.7,74.4c-5.4,2.9-10.4,6.8-14.6,11.3c-4.4,4.8-7.8,10.3-10.3,16.2c-2.8,6.9-4.1,14.2-4.1,21.6
			c0,5.1-1.3,9.9-3,14.7l-0.2,0.8c-0.3,7.8,0,15.7-0.2,23.5c3-2.8,5.6-5.8,7.9-9.2c3.4-5.2,6.1-10.8,7.7-16.9
			c1-3.7,1.3-7.6,1.9-11.4c-0.4-6.3,0.6-12.5,3.1-18.3c1.9-4.4,4.5-8.5,7.9-12.1c3.6-3.9,7.9-7,12.8-9.3c12.5-5.8,27.4-4.8,39.1,2.6
			c0-5.2-0.1-10.4,0.1-15.7C350.3,65.8,332.4,66.5,317.7,74.4z"/>
		<linearGradient id="SVGID_2_" gradientUnits="userSpaceOnUse" x1="7.213151e-02" y1="101.2294" x2="394.359" y2="101.2294">
			<stop  offset="2.869016e-02" style="stop-color:#F6D136;stop-opacity:0"/>
			<stop  offset="0.2535" style="stop-color:#F6D136"/>
			<stop  offset="0.5892" style="stop-color:#9BDB6B"/>
			<stop  offset="1" style="stop-color:#0CD6B1"/>
		</linearGradient>
		<path class="st1" d="M395,103.3c-3-7.9-7.8-14.9-13.9-20.7c0.2,7.8,0,15.6,0.1,23.4c0.3,0.9,0.6,1.8,0.9,2.7
			c1.3,3.6,2.1,7.3,2.4,11.1c1.2-2.3,2.6-4.2,5.3-4.9c3.2-0.9,5.6,0.6,7.8,2.8l0.5,0.4C398.1,113.2,396.6,108,395,103.3z"/>
		<linearGradient id="SVGID_3_" gradientUnits="userSpaceOnUse" x1="7.213151e-02" y1="122.6474" x2="394.359" y2="122.6474">
			<stop  offset="2.869016e-02" style="stop-color:#F6D136;stop-opacity:0"/>
			<stop  offset="0.2535" style="stop-color:#F6D136"/>
			<stop  offset="0.5892" style="stop-color:#9BDB6B"/>
			<stop  offset="1" style="stop-color:#0CD6B1"/>
		</linearGradient>
		<path class="st2" d="M269.8,157.2c-4.6,2.8-9.4,4.6-14.7,5.8c-7.7,1.1-15.4,0.5-22.6-2.4c-5-2-9.5-5-13.4-8.7
			c-3.1-3.1-5.7-6.5-7.7-10.3c-3.5-6.7-5-14.1-4.6-21.6c-0.8-7.5-2.3-14.7-5.7-21.4c-2.3-4.7-5.3-9-8.8-12.8
			c-3.9-4.2-8.3-7.7-13.3-10.6c-14-8-31.5-9.4-46.6-3.6c-8.2,3.1-15.6,8.2-21.4,14.7c-2.6,3-5.2,6.2-6.8,9.8
			c-4.4-7.2-9.8-13.6-16.8-18.3c-2.6-1.8-5.3-3.3-8.1-4.6c-3.2-1.5-6.5-2.7-9.9-3.5c-6.6-1.7-13.4-1.9-20.1-1.2
			c-4,0.3-8.1,1.5-11.9,2.8c-7.1,2.5-13.6,6.7-19.1,11.8c-3.1,2.8-5.8,6.3-8.2,9.7c-2.6,3.8-4.4,7.9-6,12.2c-1,2.8-1.7,5.9-2.2,8.8
			c-0.6,3.4-0.6,6.8-0.4,10.2c4.1-0.7,13.2-0.1,13.8,2.2c-0.1-3.5,0-7,0.5-10.4c0.4-2.2,1-4.4,1.7-6.5c1.4-3.8,3.2-7.4,5.6-10.7
			c1.5-2,3.1-3.9,4.9-5.6c4.3-4.1,9.5-7.2,15.1-9.1c4.8-1.6,9.7-2.3,14.7-2.1c1,0.1,2,0.2,2.9,0.3c2.2,0.2,4.3,0.7,6.5,1.3
			c2.5,0.7,4.9,1.7,7.2,2.8c2,1,4,2.2,5.9,3.6c5.7,4.2,10.2,9.8,13.1,16.3l0.5,1.3c1,2.7,1.7,6,4.1,7.8c3.8,3.2,9.9,2.7,13-1.3
			c1.6-2.3,2.2-5.3,3.4-7.8c2.4-5.5,6.1-10.2,10.5-14.3c4.3-3.4,8.8-6.3,14.1-7.9c11.2-3.7,23.9-2.3,33.9,3.8c3.2,2,6.2,4.4,8.8,7.1
			c2.9,3.2,5.4,6.7,7.2,10.6c2.9,6.2,4.2,13.1,3.8,20c0.8,8,2.6,15.7,6.4,22.8c2.6,4.9,6,9.4,9.9,13.4c4.1,4.1,8.9,7.5,14.1,10.1
			c8.4,4.2,18,6.2,27.4,5.7c6.6-0.4,12.9-1.9,19.1-4.5C269.7,167.6,269.8,162.4,269.8,157.2z"/>
	</g>
	<g>
		<path d="M365.8,51.7h14.9l0.2,0.5c0.3,10.1-0.1,20.3,0.2,30.5c0.2,7.8,0,15.6,0.1,23.4c-5.1,1.5-10.3,2.7-15.4,4.1
			c-3.7-5.7-8.8-10-15.4-11.8c-9.7-2.8-20.4,0.8-26.6,8.7c-5.4,6.6-6.9,16-4,24c3.6,10.3,14,17.4,25,16.8c8.8-0.3,16.6-5.4,21-12.9
			c5,1.3,10.1,2.6,15.1,3.9c-2.4,6.7-7.7,12.7-13.4,16.9c-8.3,6-18.9,8.7-29.1,7.3c-10.4-1.3-20.2-6.8-26.7-15.1
			c-5.2-6.5-8.2-14.5-8.8-22.8c-0.4-6.3,0.6-12.5,3.1-18.3c1.9-4.4,4.5-8.5,7.9-12.1c3.6-3.9,7.9-7,12.8-9.3
			c12.5-5.8,27.4-4.8,39.1,2.6c0-5.2-0.1-10.4,0.1-15.7C365.9,65.5,365.6,58.6,365.8,51.7z"/>
		<path d="M58,81.8c1,0.1,2,0.2,2.9,0.3c2.2,0.2,4.3,0.7,6.5,1.3c2.5,0.7,4.9,1.7,7.2,2.8c2,1,4,2.2,5.9,3.6
			c5.7,4.2,10.2,9.8,13.1,16.3c-5,1.6-10.2,2.8-15.4,4.1c-3.6-5.9-9.3-10.4-16.1-12c-8.9-2.2-18.4,0.8-24.6,7.5
			c-6.9,7.4-8.7,18.7-4.2,27.8c4.5,9.7,15.2,15.6,25.8,14.2c8.1-0.9,14.9-5.8,19.1-12.7c5.1,1.2,10.2,2.5,15.3,4
			c-3.2,7.5-8.9,14-15.9,18.3c-8,5-17.7,7-27,5.7c-9.4-1.2-18.2-5.9-24.6-12.8c-6.1-6.6-9.7-15.1-10.7-24c-0.1-3.5,0-7,0.5-10.4
			c0.4-2.2,1-4.4,1.7-6.5c1.4-3.8,3.2-7.4,5.6-10.7c1.5-2,3.1-3.9,4.9-5.6c4.3-4.1,9.5-7.2,15.1-9.1C48.1,82.3,52.9,81.6,58,81.8z"
			/>
		<path d="M173.1,87.6c3.2,2,6.2,4.4,8.8,7.1c2.9,3.2,5.4,6.7,7.2,10.6c2.9,6.2,4.2,13.1,3.8,20c-0.9,7.1-2.8,13.8-6.8,19.8
			c-6.4,9.7-16.9,16.4-28.4,17.9c-9.6,1.4-19.6-0.9-27.8-6.1c-0.2,12.1,0,24.3-0.1,36.4h-15.1c-0.2-2.1-0.2-4.4-0.2-6.5
			c0-15.9,0-31.9,0-47.8c4.8-1.4,9.6-2.6,14.4-3.8c1.1-0.5,1.5,0.9,2.1,1.5c3,4.6,7.6,8,12.7,9.8c9,3.1,19.3,0.8,26-6
			c7.1-6.9,9.4-17.9,5.7-27.1c-3.8-9.6-13.7-16.4-24-16c-9.1,0.1-16.8,5.2-21.6,12.7c-5.1-1.4-10.3-2.5-15.3-4.2
			c2.4-5.5,6.1-10.2,10.5-14.3c4.3-3.4,8.8-6.3,14.1-7.9C150.4,80.1,163.1,81.5,173.1,87.6z"/>
		<path d="M266.9,86.6c7.9,4.2,14.7,11.2,18.1,19.6c-5,1.5-10.1,2.7-15.2,4c-3.4-5.4-8.2-9.6-14.4-11.5c-9.8-3.2-20.8,0.1-27.3,8.1
			c-6.8,8.1-7.6,20.3-1.9,29.2c5.3,8.5,15.5,13.3,25.4,11.6c7.7-1.2,14.2-5.9,18.2-12.6c5.2,1.3,10.4,2.6,15.6,4.1
			c-0.3,7.8,0,15.7-0.2,23.5c-0.2,10.3,0.1,20.5-0.1,30.8h-15.1c-0.5-6.8,0-13.7-0.2-20.5c-0.1-5.2,0-10.4,0-15.6
			c-4.6,2.8-9.4,4.6-14.7,5.8c-7.7,1.1-15.4,0.5-22.6-2.4c-5-2-9.5-5-13.4-8.7c-3.1-3.1-5.7-6.5-7.7-10.3c-3.5-6.7-5-14.1-4.6-21.6
			c0.6-4.5,1.5-8.9,3.3-13.1c4.5-10.6,13.6-19.1,24.5-22.7C245.2,80.5,257.2,81.4,266.9,86.6z"/>
		<path d="M389.8,115c3.2-0.9,5.6,0.6,7.8,2.8c0.4,0.9,0.6,1.8,0.9,2.8v2.2c-0.7,2.2-1.6,4-3.7,5.1c-3.1,1.7-7.2,0.6-9.1-2.4
			c-1.2-1.8-1-3.6-1.1-5.6C385.7,117.5,387.1,115.6,389.8,115z"/>
	</g>
</g>
</svg>
