<svg xmlns="http://www.w3.org/2000/svg" role="img" viewBox="-11.01 -10.51 546.52 111.52"><path fill="#020a09" d="M112.164 77.48v5.323a1.338 1.338 0 0 0 1.388 1.515h1.11v1.726h-1.543a2.805 2.805 0 0 1-3.108-2.989V77.48h-1.668v-1.65h1.668v-2.825h2.152v2.825h2.518v1.65z" data-name="Path 7836"/><path fill="#020a09" d="M125.616 79.833v6.211h-2.093v-5.9c0-1.968-1.032-2.643-2.324-2.643a2.383 2.383 0 0 0-2.459 2.662v5.883h-2.1V71.23h2.1v6.056a3.476 3.476 0 0 1 3.067-1.648c2.217 0 3.81 1.408 3.81 4.2" data-name="Path 7837"/><path fill="#020a09" d="M138.204 81.241h-8.556a3.291 3.291 0 0 0 3.338 3.2 3.332 3.332 0 0 0 2.884-1.582l1.746.743a5.086 5.086 0 0 1-4.621 2.633 5.305 5.305 0 1 1-.047-10.609 5.165 5.165 0 0 1 5.277 5.191zm-8.43-1.466h6.239a3.007 3.007 0 0 0-3.056-2.44 3.2 3.2 0 0 0-3.183 2.44" data-name="Path 7838"/><path fill="#020a09" d="M160.493 79.062v6.983h-2.142v-6.308c0-1.591-.868-2.209-1.929-2.209-1.214 0-2.035.8-2.035 2.287v6.23h-2.146v-6.308c0-1.591-.858-2.209-1.928-2.209-1.225 0-2.025.8-2.025 2.287v6.23h-2.157V75.83h2.152v1.427a3.253 3.253 0 0 1 2.893-1.621 2.906 2.906 0 0 1 2.835 1.621 3.475 3.475 0 0 1 3.01-1.621 3.269 3.269 0 0 1 3.472 3.425" data-name="Path 7839"/><path fill="#020a09" d="M162.477 80.925a5.161 5.161 0 0 1 5.045-5.286 4.544 4.544 0 0 1 3.693 1.679v-1.486h2.141v10.213h-2.15v-1.486a4.539 4.539 0 0 1-3.683 1.679 5.181 5.181 0 0 1-5.045-5.315m8.873 0a3.366 3.366 0 1 0-3.355 3.405 3.311 3.311 0 0 0 3.355-3.405" data-name="Path 7840"/><path fill="#020a09" d="M181.857 75.734v2.055c-2.084 0-3.482.762-3.482 3.019v5.237h-2.152V75.83h2.093v1.814a4.136 4.136 0 0 1 3.54-1.91" data-name="Path 7841"/><path fill="#020a09" d="M190.21 86.044l-4.608-5.073v5.073h-2.151V71.23h2.151v9.008l4.041-4.408h2.71l-4.486 4.707 5.143 5.507z" data-name="Path 7842"/><path fill="#020a09" d="M203.636 81.241h-8.556a3.291 3.291 0 0 0 3.338 3.2 3.332 3.332 0 0 0 2.884-1.582l1.746.743a5.086 5.086 0 0 1-4.621 2.633 5.305 5.305 0 1 1-.047-10.609 5.167 5.167 0 0 1 5.276 5.189zm-8.43-1.466h6.239a3.007 3.007 0 0 0-3.056-2.44 3.2 3.2 0 0 0-3.183 2.44" data-name="Path 7843"/><path fill="#020a09" d="M208.101 77.48v5.323a1.339 1.339 0 0 0 1.388 1.515h1.11v1.726h-1.543a2.805 2.805 0 0 1-3.108-2.989V77.48h-1.668v-1.65h1.668v-2.825h2.152v2.825h2.518v1.65z" data-name="Path 7844"/><path fill="#020a09" d="M212.575 75.83h2.151v1.5a4.552 4.552 0 0 1 3.674-1.689 5.306 5.306 0 0 1 0 10.6 4.541 4.541 0 0 1-3.674-1.679v6.289h-2.151zm8.738 5.112a3.366 3.366 0 1 0-3.366 3.405 3.334 3.334 0 0 0 3.366-3.405" data-name="Path 7845"/><path fill="#020a09" d="M225.603 71.23h2.152v14.814h-2.152z" data-name="Rectangle 2299"/><path fill="#020a09" d="M229.91 80.925a5.161 5.161 0 0 1 5.045-5.286 4.544 4.544 0 0 1 3.693 1.679v-1.486h2.144v10.213h-2.151v-1.486a4.539 4.539 0 0 1-3.683 1.679 5.181 5.181 0 0 1-5.045-5.315m8.873 0a3.367 3.367 0 1 0-3.355 3.405 3.311 3.311 0 0 0 3.355-3.405" data-name="Path 7846"/><path fill="#020a09" d="M242.905 80.933a5.3 5.3 0 0 1 5.46-5.3 5.477 5.477 0 0 1 4.368 2.084l-1.611 1.292a3.24 3.24 0 0 0-2.767-1.447 3.3665 3.3665 0 1 0 0 6.733 3.248 3.248 0 0 0 2.767-1.456l1.611 1.292a5.477 5.477 0 0 1-4.368 2.084 5.293 5.293 0 0 1-5.46-5.286" data-name="Path 7847"/><path fill="#020a09" d="M264.206 81.241h-8.555a3.289 3.289 0 0 0 3.338 3.2 3.331 3.331 0 0 0 2.882-1.582l1.746.743a5.086 5.086 0 0 1-4.62 2.633 5.305 5.305 0 1 1-.049-10.609 5.167 5.167 0 0 1 5.276 5.189zm-8.43-1.466h6.239a3.007 3.007 0 0 0-3.056-2.44 3.2 3.2 0 0 0-3.183 2.44" data-name="Path 7848"/><path fill="#020a09" d="M277.217 77.48h-2.519v8.565h-2.15V77.48h-1.669v-1.648h1.669v-1.486c0-2.121 1.138-3.308 3.085-3.308a5.656 5.656 0 0 1 1.562.242v1.764a3.126 3.126 0 0 0-1.079-.221c-.868 0-1.419.54-1.419 1.591v1.418h2.519z" data-name="Path 7849"/><path fill="#020a09" d="M277.816 80.933a5.462 5.462 0 1 1 5.46 5.305 5.3 5.3 0 0 1-5.46-5.305m8.826 0a3.371 3.371 0 1 0-3.376 3.376 3.341 3.341 0 0 0 3.376-3.376" data-name="Path 7850"/><path fill="#020a09" d="M296.482 75.734v2.055c-2.082 0-3.482.762-3.482 3.019v5.237h-2.15V75.83h2.093v1.814a4.135 4.135 0 0 1 3.539-1.91" data-name="Path 7851"/><path fill="#020a09" d="M303.208 80.923a5.186 5.186 0 0 1 5.044-5.314 4.546 4.546 0 0 1 3.685 1.707l.01-6.086h2.141v14.814h-2.151v-1.486a4.548 4.548 0 0 1-3.685 1.689 5.19 5.19 0 0 1-5.044-5.325m8.873 0a3.366 3.366 0 1 0-3.357 3.405 3.312 3.312 0 0 0 3.357-3.405" data-name="Path 7852"/><path fill="#020a09" d="M316.249 80.925a5.161 5.161 0 0 1 5.045-5.286 4.544 4.544 0 0 1 3.693 1.679v-1.486h2.141v10.213h-2.151v-1.486a4.539 4.539 0 0 1-3.683 1.679 5.181 5.181 0 0 1-5.045-5.315m8.873 0a3.366 3.366 0 1 0-3.355 3.405 3.311 3.311 0 0 0 3.355-3.405" data-name="Path 7853"/><path fill="#020a09" d="M332.557 77.48v5.323a1.339 1.339 0 0 0 1.388 1.515h1.11v1.726h-1.542a2.8 2.8 0 0 1-3.106-2.989V77.48h-1.668v-1.65h1.668v-2.825h2.151v2.825h2.515v1.65z" data-name="Path 7854"/><path fill="#020a09" d="M335.968 80.925a5.162 5.162 0 0 1 5.045-5.286 4.547 4.547 0 0 1 3.695 1.679v-1.486h2.141v10.213h-2.151v-1.486a4.541 4.541 0 0 1-3.685 1.679 5.182 5.182 0 0 1-5.045-5.315m8.875 0a3.366 3.366 0 1 0-3.357 3.405 3.312 3.312 0 0 0 3.357-3.405" data-name="Path 7855"/><path fill="#020a09" d="M143.24 0l-.01 21.81a21.994 21.994 0 1 0 8.7 17.521V.004zm-13.305 53.044a13.715 13.715 0 1 1 13.714-13.714 13.714 13.714 0 0 1-13.714 13.714" data-name="Path 7856"/><path fill="#020a09" d="M192.808 18.7v3.119a21.994 21.994 0 1 0-.017 35.037v3.248h8.777l.021-41.4zm-13.305 34.344a13.715 13.715 0 1 1 13.714-13.714 13.714 13.714 0 0 1-13.714 13.714" data-name="Path 7857"/><path fill="#020a09" d="M270.479 18.7v3.119a21.994 21.994 0 1 0-.017 35.037v3.249h8.777l.021-41.405zm-13.306 34.344a13.715 13.715 0 1 1 13.714-13.714 13.714 13.714 0 0 1-13.714 13.714" data-name="Path 7858"/><path fill="#020a09" d="M232.731 25.383v-6.687h-10.142l.006-18.693h-8.779l-.006 18.693h-6.77v6.687h6.767l-.011 24.1a10.618 10.618 0 0 0 10.618 10.623h8.238v-6.958h-4.767a5.311 5.311 0 0 1-5.311-5.312l.013-22.45z" data-name="Path 7859"/><path fill="#020a09" d="M440.414 60.081h11.719l-20.331-22.58 18.829-20.192h-11.917l-16.8 18.012-.018-35.319h-8.702l.029 60.08h8.711l-.01-20.531z" data-name="Path 7860"/><path fill="#020a09" d="M384.964 17.336a21.995 21.995 0 1 0 22 21.995 22 22 0 0 0-22-21.995m0 35.709a13.715 13.715 0 1 1 13.714-13.714 13.714 13.714 0 0 1-13.714 13.714" data-name="Path 7861"/><path fill="#020a09" d="M346.866 25.303v-6.6h-8.886l-.014 41.406h8.884s.011-17.928.011-22.532c0-6.191 3.928-10.942 13.949-10.942v-8.326a17.275 17.275 0 0 0-13.942 7" data-name="Path 7862"/><path fill="#020a09" d="M511.372 25.303v-6.6h-8.886l-.017 41.406h8.885s.011-17.928.011-22.532c0-6.191 3.928-10.942 13.949-10.942v-8.326a17.275 17.275 0 0 0-13.942 7" data-name="Path 7863"/><path fill="#020a09" d="M286.99.004v39.328a22 22 0 1 0 8.7-17.521L295.679.004zm8.279 39.326a13.715 13.715 0 1 1 13.714 13.714 13.715 13.715 0 0 1-13.714-13.714" data-name="Path 7864"/><path fill="#020a09" d="M495.42 39.33a22 22 0 1 0-2.961 11.018l-7.734-3.252a13.709 13.709 0 0 1-24.949-6.468l35.6.018c.026-.435.043-.874.043-1.316m-21.994-13.714a13.688 13.688 0 0 1 12.354 7.809H461.07a13.69 13.69 0 0 1 12.355-7.809" data-name="Path 7865"/><path fill="#78e6d0" d="M34.244 31.378a14.475 14.475 0 1 0 20.273 2.849 14.476 14.476 0 0 0-20.273-2.849" data-name="Path 7866"/><path fill="#78e6d0" d="M28.979 24.4a23.216 23.216 0 0 1 37.188 18.5l19.726-14.88.013.017V0H-.004v46.263z" data-name="Path 7867"/><path fill="#78e6d0" d="M56.928 61.481a23.215 23.215 0 0 1-37.188-18.5L.014 57.861 0 57.844v28.07h85.91V39.618z" data-name="Path 7868"/></svg>
