<?xml version="1.0" encoding="utf-8"?>
<!-- Generator: Adobe Illustrator 23.0.2, SVG Export Plug-In . SVG Version: 6.00 Build 0)  -->
<svg version="1.1" id="Layer_1" xmlns="http://www.w3.org/2000/svg" xmlns:xlink="http://www.w3.org/1999/xlink" x="0px" y="0px"
	 viewBox="0 0 400 245" style="enable-background:new 0 0 400 245;" xml:space="preserve">
<style type="text/css">
	.st0{clip-path:url(#SVGID_3_);}
	.st1{clip-path:url(#SVGID_4_);fill:#141C2A;}
	.st2{clip-path:url(#SVGID_7_);}
	.st3{clip-path:url(#SVGID_8_);fill:#141C2A;}
	.st4{clip-path:url(#SVGID_11_);}
	.st5{clip-path:url(#SVGID_12_);fill:#141C2A;}
	.st6{clip-path:url(#SVGID_15_);}
	.st7{clip-path:url(#SVGID_16_);fill:#00F3CB;}
	.st8{fill:#FF8300;}
	.st9{fill:#53A3DA;}
	.st10{fill:#F1606D;}
	.st11{fill:#FFFFFF;}
	.st12{fill:#231F20;}
	.st13{fill:#53A4D9;}
	.st14{fill-rule:evenodd;clip-rule:evenodd;fill:#A19888;}
	.st15{fill-rule:evenodd;clip-rule:evenodd;fill:#007AC1;}
	.st16{fill:#FF0000;}
	.st17{fill:url(#SVGID_17_);}
	.st18{fill:url(#SVGID_18_);}
	.st19{opacity:0.85;fill:url(#SVGID_19_);}
	.st20{fill:url(#SVGID_20_);}
	.st21{fill:url(#SVGID_21_);}
	.st22{opacity:0.85;fill:url(#SVGID_22_);}
	.st23{fill:#F40819;stroke:#D30918;stroke-width:0.3888;stroke-miterlimit:10;}
	.st24{fill:#D30918;stroke:#D30918;stroke-width:0.3888;stroke-miterlimit:10;}
	.st25{fill:url(#SVGID_23_);}
	.st26{fill:none;stroke:#231F20;stroke-width:1.145;stroke-miterlimit:10;}
	.st27{fill:#27B3CE;}
	.st28{fill-rule:evenodd;clip-rule:evenodd;fill:#00833C;}
	.st29{fill:none;stroke:#FFFFFF;stroke-width:5.1331;stroke-linecap:round;}
	.st30{fill-rule:evenodd;clip-rule:evenodd;fill:#FFFFFF;}
	.st31{fill:#263F6A;}
	.st32{fill:url(#SVGID_24_);}
	.st33{fill:none;stroke:url(#SVGID_25_);stroke-width:0.9733;stroke-miterlimit:10;}
	.st34{fill:url(#SVGID_26_);}
	.st35{fill:none;stroke:#27246B;stroke-width:0.9733;stroke-miterlimit:10;}
	.st36{fill:none;stroke:url(#SVGID_27_);stroke-width:0.9733;stroke-miterlimit:10;}
	.st37{fill:none;stroke:#231F20;stroke-width:0.9733;stroke-miterlimit:10;}
	.st38{fill:url(#SVGID_28_);}
	.st39{fill:url(#SVGID_29_);}
	.st40{fill:url(#SVGID_30_);}
	.st41{fill:url(#SVGID_31_);}
	.st42{fill:none;stroke:#353291;stroke-width:0.1947;stroke-miterlimit:10;}
	.st43{fill:#1F2B3A;}
	.st44{fill:#8D969C;}
	.st45{fill-rule:evenodd;clip-rule:evenodd;fill:#8D969C;}
	.st46{fill:#005CAA;}
	.st47{fill:#E20074;}
	.st48{fill:none;stroke:#626769;stroke-width:0.5668;stroke-miterlimit:10;}
	.st49{fill:#0174C3;}
	.st50{fill:#202C35;}
	.st51{fill:#AFAEAE;}
	.st52{fill-rule:evenodd;clip-rule:evenodd;fill:#F89E1B;}
	.st53{fill-rule:evenodd;clip-rule:evenodd;fill:#202C35;}
	.st54{fill:#00F100;}
	.st55{fill:#2A2A2A;}
	.st56{fill:#961B1E;}
</style>
<g>
	<g>
		<g>
			<linearGradient id="SVGID_3_" gradientUnits="userSpaceOnUse" x1="1.736" y1="121.9557" x2="79.7339" y2="121.9557">
				<stop  offset="0" style="stop-color:#03DCE3"/>
				<stop  offset="1" style="stop-color:#0DB5BA"/>
			</linearGradient>
			<path style="fill:url(#SVGID_3_);" d="M1.74,81.72c0,0,47.18,21.43,57.64,41.27c5.37,10.18,9.48,32.21,0.22,43.24
				c-0.75,0.89-2.51,2.77-5.52,4.28c-0.01,0-0.01,0.02-0.01,0.01c0.93-0.3,13.95-4.5,18.81-10.91c6.45-8.52,10.63-24.33,1.87-43.15
				C64.63,94.72,16.29,73.39,16.29,73.39L1.74,81.72z"/>
			<linearGradient id="SVGID_4_" gradientUnits="userSpaceOnUse" x1="15.9593" y1="132.3386" x2="50.8022" y2="132.3386">
				<stop  offset="0" style="stop-color:#03DCE3"/>
				<stop  offset="1" style="stop-color:#0DB5BA"/>
			</linearGradient>
			<path style="fill:none;stroke:url(#SVGID_4_);stroke-width:0.9733;stroke-miterlimit:10;" d="M16.19,106.57
				c10.17,5.41,25.9,14.41,30.31,22.77c3.59,6.8,6.34,21.52,0.14,28.89"/>
			<linearGradient id="SVGID_7_" gradientUnits="userSpaceOnUse" x1="15.9373" y1="126.5078" x2="30.1386" y2="126.5078">
				<stop  offset="0" style="stop-color:#03DCE3"/>
				<stop  offset="1" style="stop-color:#0DB5BA"/>
			</linearGradient>
			<polygon style="fill:url(#SVGID_7_);" points="15.94,147.27 30.14,139.17 30.14,114.03 15.94,105.74 			"/>
			<linearGradient id="SVGID_8_" gradientUnits="userSpaceOnUse" x1="6.7005" y1="161.0841" x2="65.323" y2="161.0841">
				<stop  offset="0" style="stop-color:#03DCE3"/>
				<stop  offset="1" style="stop-color:#0DB5BA"/>
			</linearGradient>
			<path style="fill:none;stroke:url(#SVGID_8_);stroke-width:0.9733;stroke-miterlimit:10;" d="M65.01,165.05
				c-0.96,0.82-5.56,3.35-9.08,4.62c-0.19,0.07-0.46,0.17-0.82,0.27c-8.39,2.52-22.59-3.98-22.59-3.98
				c-6.69-3.04-15.17-7.6-25.55-14.42"/>
		</g>
		<g>
			<linearGradient id="SVGID_11_" gradientUnits="userSpaceOnUse" x1="19.0425" y1="111.4946" x2="97.9206" y2="111.4946">
				<stop  offset="0" style="stop-color:#03DCE3"/>
				<stop  offset="1" style="stop-color:#0DB5BA"/>
			</linearGradient>
			<path style="fill:url(#SVGID_11_);" d="M75.19,159.64c1.16-0.46,0.12,0.03,1.95-0.76c4.45-1.93,11.07-6.07,14.25-10.28
				c6.45-8.52,10.11-23.17,1.35-41.99C82.62,84.86,33.6,63.35,33.6,63.35l-14.56,8.33c0,0,47.87,21.62,58.33,41.45
				c5.37,10.18,9.48,32.21,0.22,43.24"/>
		</g>
	</g>
	<g>
		<path class="st43" d="M196.89,129.75v3.55c-2.66-2.67-6.27-4.15-10.33-4.15c-8.58,0-15.3,6.77-15.3,15.41s6.72,15.41,15.3,15.41
			c4.07,0,7.67-1.48,10.33-4.15v3.55h5.34v-29.63H196.89z M186.77,154.79c-5.7,0-10.17-4.49-10.17-10.23s4.47-10.23,10.17-10.23
			c5.67,0,10.12,4.49,10.12,10.23S192.44,154.79,186.77,154.79z"/>
		<path class="st43" d="M225.6,134.98v-5.24h-8.06h-5.34h-5.95v5.24h5.95v16.28c0,3,0.8,5.15,2.46,6.58
			c1.43,1.23,3.41,1.83,6.08,1.83c1.13,0,2.38-0.11,3.76-0.32l1.1-0.17v-4.96l-1.41,0.12c-2.74,0.24-5.08,0.38-5.95-0.42
			c-0.47-0.43-0.7-1.3-0.7-2.67v-16.28H225.6z"/>
		<path class="st43" d="M252.86,129.75v3.55c-2.66-2.67-6.27-4.15-10.33-4.15c-8.58,0-15.3,6.77-15.3,15.41s6.72,15.41,15.3,15.41
			c4.07,0,7.67-1.48,10.33-4.15v3.55h5.34v-29.63H252.86z M242.74,154.79c-5.7,0-10.17-4.49-10.17-10.23s4.47-10.23,10.17-10.23
			c5.67,0,10.12,4.49,10.12,10.23S248.41,154.79,242.74,154.79z"/>
		<path class="st43" d="M282.38,129.15c-4.09,0-7.7,1.49-10.33,4.2v-3.6h-5.29v40.44h5.29v-14.42c2.64,2.71,6.24,4.2,10.33,4.2
			c8.58,0,15.3-6.77,15.3-15.41S290.96,129.15,282.38,129.15z M282.22,134.33c5.7,0,10.17,4.49,10.17,10.23s-4.47,10.23-10.17,10.23
			c-5.7,0-10.17-4.49-10.17-10.23S276.52,134.33,282.22,134.33z"/>
		<path class="st43" d="M326.62,129.75v3.55c-2.66-2.67-6.27-4.15-10.33-4.15c-8.58,0-15.3,6.77-15.3,15.41s6.72,15.41,15.3,15.41
			c4.07,0,7.67-1.48,10.33-4.15v3.55h5.34v-29.63H326.62z M316.5,154.79c-5.7,0-10.17-4.49-10.17-10.23s4.47-10.23,10.17-10.23
			c5.67,0,10.12,4.49,10.12,10.23S322.18,154.79,316.5,154.79z"/>
		<path class="st43" d="M361.8,148.65l-0.64,1.2c-1.65,3.09-4.86,4.94-8.59,4.94c-5.8,0-10.17-4.4-10.17-10.23
			s4.37-10.23,10.17-10.23c3.8,0,7.01,1.87,8.4,4.87l0.6,1.3l4.46-2.61l-0.49-1.07c-2.18-4.73-7.15-7.67-12.96-7.67
			c-8.85,0-15.51,6.62-15.51,15.41s6.67,15.41,15.51,15.41c5.69,0,10.73-2.9,13.15-7.56l0.56-1.08L361.8,148.65z"/>
		<path class="st43" d="M383.61,129.15c-8.86,0-15.3,6.48-15.3,15.41s6.52,15.41,15.51,15.41c5.53,0,10.35-2.52,12.9-6.74l0.67-1.12
			l-4.65-2.75l-0.64,1.17c-1.46,2.66-4.53,4.25-8.22,4.25c-5.01,0-8.85-2.97-9.93-7.53h24.26v-1.29c0-0.19,0.01-0.38,0.02-0.57
			c0.02-0.24,0.03-0.49,0.03-0.73C398.26,137.15,393.13,129.15,383.61,129.15z M373.92,142.02c1-4.65,4.74-7.69,9.69-7.69
			c3.87,0,7.99,2.39,9.06,7.69H373.92z"/>
		<g>
			<path class="st43" d="M146.91,119.02H131.4v5.3h5.45v-0.01h10.06c7.96,0,13.74,6.28,13.74,14.93c0,8.65-5.78,14.93-13.74,14.93
				h-0.85v0.01H131.4v5.28h15.52c10.91,0,19.14-8.69,19.14-20.22C166.05,127.72,157.83,119.02,146.91,119.02z"/>
		</g>
	</g>
</g>
</svg>
