<svg xmlns="http://www.w3.org/2000/svg" height="800" width="1200" viewBox="-132.87405 -41.4045 1151.5751 248.427"><path d="M838.877 142.146c0-12.962 10.523-23.478 23.478-23.478 12.962 0 23.472 10.516 23.472 23.478 0 12.962-10.51 23.472-23.472 23.472-12.955 0-23.478-10.51-23.478-23.472" fill="#86bc24"/><path d="M90.11 79.968c0-14.87-2.874-25.903-8.622-33.09-5.754-7.182-14.47-10.769-26.189-10.769H42.833v90.938h9.538c13.017 0 22.555-3.858 28.628-11.603 6.067-7.73 9.11-19.558 9.11-35.476m44.457-1.549c0 27.093-7.283 47.97-21.848 62.623-14.565 14.66-35.041 21.99-61.434 21.99H0V.689h54.864c25.449 0 45.096 6.665 58.94 19.987 13.84 13.329 20.762 32.568 20.762 57.744m142.057 84.61h40.809V.008h-40.809zm98.137-60.808c0 10.394 1.359 18.322 4.07 23.77 2.717 5.456 7.268 8.18 13.668 8.18 6.331 0 10.809-2.724 13.417-8.18 2.609-5.448 3.906-13.376 3.906-23.77 0-10.34-1.318-18.139-3.96-23.404-2.65-5.278-7.167-7.921-13.573-7.921-6.264 0-10.74 2.63-13.458 7.86-2.711 5.238-4.07 13.057-4.07 23.465m76.597 0c0 19.803-5.19 35.251-15.598 46.325-10.4 11.08-24.96 16.624-43.675 16.624-17.949 0-32.236-5.666-42.84-16.998-10.618-11.331-15.924-26.644-15.924-45.951 0-19.742 5.197-35.082 15.605-46.02 10.407-10.937 25-16.406 43.79-16.406 11.61 0 21.882 2.534 30.782 7.596 8.906 5.06 15.781 12.31 20.611 21.752 4.837 9.43 7.249 20.462 7.249 33.078m16.206 60.809h40.816V41.937h-40.816zm-.001-135.741h40.815V0h-40.815zm123.506 104.855c5.51 0 12.073-1.4 19.729-4.178v30.468c-5.503 2.419-10.734 4.151-15.707 5.177-4.973 1.04-10.809 1.556-17.486 1.556-13.703 0-23.58-3.444-29.647-10.32-6.04-6.875-9.07-17.432-9.07-31.678V73.252h-14.293V41.947h14.294V11.023l41.128-7.153v38.077h26.039v31.305h-26.04v47.133c0 7.84 3.69 11.76 11.053 11.76m94.462 0c5.51 0 12.072-1.4 19.728-4.178v30.468c-5.495 2.419-10.733 4.151-15.706 5.177-4.98 1.04-10.795 1.556-17.487 1.556-13.702 0-23.58-3.444-29.633-10.32-6.053-6.875-9.083-17.432-9.083-31.678V73.252h-14.3V41.947h14.3V10.554L674.47 3.87v38.077h26.054v31.305H674.47v47.133c0 7.84 3.69 11.76 11.06 11.76m71.228-44.675c.557-6.63 2.452-11.488 5.685-14.593 3.248-3.098 7.256-4.646 12.053-4.646 5.23 0 9.388 1.739 12.473 5.244 3.104 3.485 4.72 8.152 4.85 13.995zm57.554-33.397c-9.701-9.511-23.465-14.273-41.27-14.273-18.717 0-33.119 5.469-43.214 16.406-10.089 10.938-15.136 26.63-15.136 47.08 0 19.802 5.456 35.074 16.339 45.794 10.89 10.72 26.181 16.087 45.876 16.087 9.457 0 17.595-.645 24.416-1.93 6.78-1.27 13.342-3.566 19.708-6.881l-6.27-27.29c-4.627 1.889-9.029 3.343-13.186 4.3-6.006 1.393-12.596 2.093-19.77 2.093-7.866 0-14.076-1.922-18.627-5.768-4.552-3.852-6.978-9.164-7.256-15.93h72.949V95.167c0-17.887-4.851-31.59-14.559-41.094M188.73 87.47c.557-6.63 2.452-11.488 5.686-14.593 3.24-3.098 7.255-4.646 12.058-4.646 5.218 0 9.375 1.739 12.467 5.244 3.104 3.485 4.714 8.152 4.857 13.995zm57.56-33.397c-9.707-9.511-23.464-14.273-41.276-14.273-18.724 0-33.119 5.469-43.207 16.406-10.088 10.938-15.143 26.63-15.143 47.08 0 19.802 5.449 35.074 16.345 45.794 10.884 10.72 26.176 16.087 45.87 16.087 9.457 0 17.595-.645 24.416-1.93 6.78-1.27 13.342-3.566 19.715-6.881l-6.277-27.29c-4.627 1.889-9.03 3.343-13.18 4.3-6.019 1.393-12.602 2.093-19.776 2.093-7.86 0-14.076-1.922-18.627-5.768-4.559-3.852-6.977-9.164-7.256-15.93h72.949V95.167c0-17.887-4.851-31.59-14.552-41.094" fill="#0f0b0b"/></svg>