<?xml version="1.0" encoding="utf-8"?>
<!-- Generator: Adobe Illustrator 23.0.2, SVG Export Plug-In . SVG Version: 6.00 Build 0)  -->
<svg version="1.1" id="Layer_1" xmlns="http://www.w3.org/2000/svg" xmlns:xlink="http://www.w3.org/1999/xlink" x="0px" y="0px"
	 viewBox="0 0 400 245" style="enable-background:new 0 0 400 245;" xml:space="preserve">
<style type="text/css">
	.st0{clip-path:url(#SVGID_3_);}
	.st1{clip-path:url(#SVGID_4_);fill:#141C2A;}
	.st2{clip-path:url(#SVGID_7_);}
	.st3{clip-path:url(#SVGID_8_);fill:#141C2A;}
	.st4{clip-path:url(#SVGID_11_);}
	.st5{clip-path:url(#SVGID_12_);fill:#141C2A;}
	.st6{clip-path:url(#SVGID_15_);}
	.st7{clip-path:url(#SVGID_16_);fill:#00F3CB;}
	.st8{fill:#FF8300;}
	.st9{fill:#53A3DA;}
	.st10{fill:#F1606D;}
	.st11{fill:#FFFFFF;}
	.st12{fill:#231F20;}
	.st13{fill:#53A4D9;}
	.st14{fill-rule:evenodd;clip-rule:evenodd;fill:#A19888;}
	.st15{fill-rule:evenodd;clip-rule:evenodd;fill:#007AC1;}
	.st16{fill:#FF0000;}
	.st17{fill:url(#SVGID_17_);}
	.st18{fill:url(#SVGID_18_);}
	.st19{opacity:0.85;fill:url(#SVGID_19_);}
	.st20{fill:url(#SVGID_20_);}
	.st21{fill:url(#SVGID_21_);}
	.st22{opacity:0.85;fill:url(#SVGID_22_);}
	.st23{fill:#F40819;stroke:#D30918;stroke-width:0.3888;stroke-miterlimit:10;}
	.st24{fill:#D30918;stroke:#D30918;stroke-width:0.3888;stroke-miterlimit:10;}
	.st25{fill:url(#SVGID_23_);}
	.st26{fill:none;stroke:#231F20;stroke-width:1.145;stroke-miterlimit:10;}
	.st27{fill:#27B3CE;}
	.st28{fill-rule:evenodd;clip-rule:evenodd;fill:#00833C;}
	.st29{fill:none;stroke:#FFFFFF;stroke-width:5.1331;stroke-linecap:round;}
	.st30{fill-rule:evenodd;clip-rule:evenodd;fill:#FFFFFF;}
	.st31{fill:#263F6A;}
	.st32{fill:url(#SVGID_24_);}
	.st33{fill:none;stroke:url(#SVGID_25_);stroke-width:0.9733;stroke-miterlimit:10;}
	.st34{fill:url(#SVGID_26_);}
	.st35{fill:none;stroke:#27246B;stroke-width:0.9733;stroke-miterlimit:10;}
	.st36{fill:none;stroke:url(#SVGID_27_);stroke-width:0.9733;stroke-miterlimit:10;}
	.st37{fill:none;stroke:#231F20;stroke-width:0.9733;stroke-miterlimit:10;}
	.st38{fill:url(#SVGID_28_);}
	.st39{fill:url(#SVGID_29_);}
	.st40{fill:url(#SVGID_30_);}
	.st41{fill:url(#SVGID_31_);}
	.st42{fill:none;stroke:#353291;stroke-width:0.1947;stroke-miterlimit:10;}
	.st43{fill:#1F2B3A;}
	.st44{fill:#8D969C;}
	.st45{fill-rule:evenodd;clip-rule:evenodd;fill:#8D969C;}
	.st46{fill:#005CAA;}
	.st47{fill:#E20074;}
	.st48{fill:none;stroke:#626769;stroke-width:0.5668;stroke-miterlimit:10;}
	.st49{fill:#0174C3;}
	.st50{fill:#202C35;}
	.st51{fill:#AFAEAE;}
	.st52{fill-rule:evenodd;clip-rule:evenodd;fill:#F89E1B;}
	.st53{fill-rule:evenodd;clip-rule:evenodd;fill:#202C35;}
	.st54{fill:#00F100;}
	.st55{fill:#2A2A2A;}
	.st56{fill:#961B1E;}
</style>
<g>
	<path class="st44" d="M198.43,144.19h2.24v-8.51h-6.25v2.63h3.14c-0.28,2.14-1.55,3.39-3.32,3.39c-2.26,0-3.57-2.03-3.57-5.88
		c0-3.94,1.27-5.97,3.67-5.97c1.45,0,2.44,0.76,3.11,2.33l2.86-0.71c-0.83-2.74-2.91-4.24-5.9-4.24c-4.33,0-6.94,3.07-6.94,8.42
		c0,5.6,2.44,8.83,6.39,8.83c1.96,0,3.37-0.65,4.43-2.03L198.43,144.19L198.43,144.19z"/>
	<path class="st45" d="M205.06,144.19h3.09v-6.8h2.88l3.23,6.8h3.39l-3.71-7.52c1.98-0.55,3.09-2.05,3.09-4.24c0-3.41-2.08-5-6.3-5
		h-5.67V144.19L205.06,144.19z M208.15,134.74v-4.66h2.74c1.98,0,2.95,0.69,2.95,2.33c0,1.61-0.95,2.33-2.95,2.33H208.15
		L208.15,134.74z"/>
	<path class="st45" d="M220.57,135.84c0,5.44,2.68,8.62,6.97,8.62c4.29,0,6.96-3.18,6.96-8.62c0-5.46-2.65-8.62-6.96-8.62
		C223.22,127.22,220.57,130.38,220.57,135.84L220.57,135.84z M223.77,135.84c0-3.85,1.31-5.83,3.76-5.83c2.44,0,3.76,1.98,3.76,5.83
		c0,3.83-1.31,5.79-3.76,5.79C225.09,141.63,223.77,139.67,223.77,135.84L223.77,135.84z"/>
	<path class="st44" d="M238.38,138.03c0,4.31,2.05,6.43,6.34,6.43c4.08,0,6.36-2.12,6.36-5.93v-11.11h-3.07v10.75
		c0,2.44-0.83,3.53-3.3,3.53c-2.33,0-3.18-1.15-3.18-3.53v-10.75h-3.16V138.03L238.38,138.03z"/>
	<path class="st45" d="M255.98,144.19h3.18v-6.78h3.11c3.64,0,5.56-1.75,5.56-5c0-3.37-1.94-4.98-5.86-4.98h-6V144.19L255.98,144.19
		z M259.16,134.76v-4.73h2.35c2.17,0,3.16,0.55,3.16,2.37c0,1.8-1.02,2.35-3.16,2.35H259.16L259.16,134.76z"/>
	<path class="st45" d="M188.5,117.58h5c5.3,0,7.98-2.83,7.98-8.44c0-5.49-2.67-8.32-7.86-8.32h-5.12V117.58L188.5,117.58z
		 M191.65,114.81v-11.21h1.68c3.39,0,4.93,1.73,4.93,5.53c0,3.99-1.43,5.67-4.89,5.67H191.65L191.65,114.81z"/>
	<polygon class="st44" points="205.55,117.58 216.78,117.58 216.78,114.72 208.68,114.72 208.68,110.18 214.33,110.18 214.33,107.5 
		208.68,107.5 208.68,103.54 216.43,103.54 216.43,100.82 205.55,100.82 205.55,117.58 	"/>
	<path class="st44" d="M220.5,111.42c0,4.31,2.05,6.43,6.34,6.43c4.08,0,6.36-2.12,6.36-5.93v-11.11h-3.07v10.74
		c0,2.44-0.83,3.53-3.3,3.53c-2.33,0-3.18-1.15-3.18-3.53v-10.74h-3.16V111.42L220.5,111.42z"/>
	<polygon class="st44" points="241.1,117.58 244.28,117.58 244.28,103.58 248.68,103.58 248.68,100.82 236.69,100.82 236.69,103.58 
		241.1,103.58 241.1,117.58 	"/>
	<path class="st44" d="M250.92,113.8c1.08,2.63,3.25,4.01,6.34,4.01c3.6,0,5.7-1.94,5.7-4.98c0-2.63-1.38-3.71-4.17-4.89
		c-2.65-1.13-4.29-1.41-4.29-2.97c0-1.08,0.83-1.78,2.21-1.78c1.43,0,2.33,0.67,3.02,2.14l2.86-1.04c-0.88-2.42-2.79-3.67-5.65-3.67
		c-3.32,0-5.47,1.91-5.47,4.57c0,1.59,0.69,2.88,1.96,3.69c1.1,0.72,2.49,1.18,3.99,1.73c1.73,0.65,2.49,1.22,2.49,2.35
		c0,1.27-1.01,2.12-2.72,2.12c-1.5,0-2.54-0.78-3.41-2.56L250.92,113.8L250.92,113.8z"/>
	<path class="st44" d="M275.68,112.58c-0.44,1.54-1.66,2.49-3.2,2.49c-2.4,0-3.46-1.89-3.46-5.76c0-4.04,1.11-6.04,3.39-6.04
		c1.52,0,2.51,0.83,2.93,2.44l2.91-0.71c-0.65-2.84-2.63-4.38-5.65-4.38c-4.29,0-6.78,3.09-6.78,8.67c0,5.67,2.26,8.58,6.59,8.58
		c3.18,0,5.35-1.59,6.18-4.47L275.68,112.58L275.68,112.58z"/>
	<polygon class="st44" points="282.23,117.58 285.39,117.58 285.39,110.29 291.78,110.29 291.78,117.58 294.94,117.58 
		294.94,100.82 291.78,100.82 291.78,107.46 285.39,107.46 285.39,100.82 282.23,100.82 282.23,117.58 	"/>
	<polygon class="st44" points="299.93,117.58 311.16,117.58 311.16,114.72 303.07,114.72 303.07,110.18 308.72,110.18 308.72,107.5 
		303.07,107.5 303.07,103.54 310.82,103.54 310.82,100.82 299.93,100.82 299.93,117.58 	"/>
	<path class="st45" d="M322.91,117.58h5.93c4.15,0,6.18-1.52,6.18-4.7c0-2.08-0.95-3.43-2.84-4.08c1.7-0.83,2.44-1.94,2.44-3.53
		c0-2.88-1.94-4.45-5.62-4.45h-6.09V117.58L322.91,117.58z M326,115v-4.96h2.72c2.1,0,3.14,0.78,3.14,2.45
		c0,1.77-1.04,2.51-3.27,2.51H326L326,115z M326,107.53v-4.13h2.4c2.07,0,3.11,0.53,3.11,2.05c0,1.41-0.99,2.08-2.93,2.08H326
		L326,107.53z"/>
	<path class="st45" d="M342.13,98.86h2.54v-2.74h-2.54V98.86L342.13,98.86z M346.05,98.86h2.54v-2.74h-2.54V98.86L346.05,98.86z
		 M338.39,109.23c0,5.44,2.68,8.63,6.96,8.63c4.29,0,6.96-3.18,6.96-8.63c0-5.46-2.65-8.62-6.96-8.62
		C341.05,100.61,338.39,103.77,338.39,109.23L338.39,109.23z M341.6,109.23c0-3.85,1.31-5.83,3.76-5.83c2.44,0,3.76,1.98,3.76,5.83
		c0,3.83-1.31,5.79-3.76,5.79C342.91,115.02,341.6,113.06,341.6,109.23L341.6,109.23z"/>
	<path class="st45" d="M356.21,117.58h3.09v-6.8h2.88l3.23,6.8h3.39l-3.71-7.52c1.98-0.55,3.09-2.05,3.09-4.24c0-3.41-2.08-5-6.3-5
		h-5.67V117.58L356.21,117.58z M359.3,108.13v-4.66h2.74c1.98,0,2.95,0.69,2.95,2.33c0,1.61-0.94,2.33-2.95,2.33H359.3L359.3,108.13
		z"/>
	<path class="st44" d="M371.49,113.8c1.08,2.63,3.25,4.01,6.34,4.01c3.6,0,5.7-1.94,5.7-4.98c0-2.63-1.38-3.71-4.17-4.89
		c-2.65-1.13-4.29-1.41-4.29-2.97c0-1.08,0.83-1.78,2.21-1.78c1.43,0,2.33,0.67,3.02,2.14l2.86-1.04c-0.88-2.42-2.79-3.67-5.65-3.67
		c-3.32,0-5.47,1.91-5.47,4.57c0,1.59,0.69,2.88,1.96,3.69c1.11,0.72,2.49,1.18,3.99,1.73c1.73,0.65,2.49,1.22,2.49,2.35
		c0,1.27-1.02,2.12-2.72,2.12c-1.5,0-2.53-0.78-3.41-2.56L371.49,113.8L371.49,113.8z"/>
	<polygon class="st44" points="387.48,117.58 398.71,117.58 398.71,114.72 390.62,114.72 390.62,110.18 396.27,110.18 396.27,107.5 
		390.62,107.5 390.62,103.54 398.37,103.54 398.37,100.82 387.48,100.82 387.48,117.58 	"/>
	<polygon class="st46" points="18.82,131.02 1.29,140.97 1.29,151.73 28.2,136.35 18.82,131.02 	"/>
	<polygon class="st46" points="46.97,134.77 38.96,130.22 20.19,130.22 37.59,140.1 46.97,134.77 	"/>
	<polygon class="st46" points="75.3,120.18 39.02,140.92 57.83,140.92 84.57,125.6 75.3,120.18 	"/>
	<polygon class="st46" points="103.52,124.02 95.34,119.38 76.62,119.38 94.06,129.43 103.52,124.02 	"/>
	<polygon class="st46" points="159.58,104.23 114.21,130.22 95.45,130.23 159.58,93.59 159.58,104.23 	"/>
	<rect x="172.59" y="86.36" class="st44" width="2.89" height="72.29"/>
</g>
</svg>
