<?xml version="1.0" encoding="utf-8"?>
<!-- Generator: Adobe Illustrator 19.2.1, SVG Export Plug-In . SVG Version: 6.00 Build 0)  -->
<svg version="1.1" id="layer" xmlns="http://www.w3.org/2000/svg" xmlns:xlink="http://www.w3.org/1999/xlink" x="0px" y="0px"
	 viewBox="0 0 652 652" style="enable-background:new 0 0 652 652;" xml:space="preserve">
<style type="text/css">
	.st0{fill:#3F4043;}
	.st1{fill:url(#SVGID_1_);}
	.st2{fill:url(#SVGID_2_);}
	.st3{fill:#29ABE2;}
</style>
<path class="st0" d="M621.3,301.9c1,0,1.7,0.4,2.1,1.1c0.2,0.4,0.5,1.2-0.3,2.3l-11.3,17.3v11.8c0,1.6-1,2.6-2.5,2.6h-1.6
	c-1.6,0-2.5-1-2.5-2.6v-11.8l-11.4-17.3c-0.7-1.2-0.5-2-0.3-2.4c0.3-0.7,1.1-1.1,2.1-1.1h2.1c1.3,0,2.1,0.5,2.7,1.6l8.1,13.1
	l8.2-13.1c0.6-1,1.5-1.5,2.7-1.5H621.3z M346.2,301.9h-17.8c-1.6,0-2.5,1-2.5,2.6v30c0,1.6,1,2.6,2.5,2.6h1.6c1.6,0,2.5-1,2.5-2.6
	v-11.8h11.6c1.6,0,2.5-1.1,2.5-2.6v-0.7c0-1.6-1-2.6-2.5-2.6h-11.6v-9.2h13.7c1.6,0,2.5-1,2.5-2.6v-0.7
	C348.8,302.8,347.8,301.9,346.2,301.9z M277.3,301.9h-9.1c-1.6,0-2.5,1-2.5,2.6v30c0,1.6,1,2.6,2.5,2.6h9.2
	c10.6,0,17.9-7.2,17.9-17.5C295.2,309.1,287.9,301.9,277.3,301.9z M288.4,319.4c0,6.9-4.6,11.7-11.2,11.7h-4.9v-23.5h4.9
	C283.8,307.7,288.4,312.5,288.4,319.4z M389,301.9h1.6c1.6,0,2.5,1,2.5,2.6v30c0,1.6-1,2.6-2.5,2.6H389c-1.6,0-2.5-1-2.5-2.6v-30
	C386.4,302.8,387.4,301.9,389,301.9z M456,301.9h-1.6c-1.6,0-2.5,1-2.5,2.6v20l-15.5-21.1c-0.7-1-1.6-1.4-2.7-1.4h-0.7
	c-1.6,0-2.5,1-2.5,2.6v30c0,1.6,1,2.6,2.5,2.6h1.6c1.6,0,2.5-1,2.5-2.6v-20.1l15.5,21.2c0.7,1,1.6,1.4,2.7,1.4h0.7
	c1.6,0,2.5-1,2.5-2.6v-30C458.5,302.8,457.5,301.9,456,301.9z M498.3,301.9h1.6c1.5,0,2.5,1,2.5,2.6v30c0,1.6-1,2.6-2.5,2.6h-1.6
	c-1.6,0-2.5-1-2.5-2.6v-30C495.8,302.8,496.7,301.9,498.3,301.9z M563.1,301.9h-23.5c-1.5,0-2.5,1-2.5,2.6v0.7c0,1.5,1,2.6,2.5,2.6
	h8.4v26.7c0,1.6,1,2.6,2.5,2.6h1.6c1.6,0,2.5-1,2.5-2.6v-26.7h8.4c1.6,0,2.5-1,2.5-2.6v-0.7C565.7,302.8,564.7,301.9,563.1,301.9z"
	/>
<linearGradient id="SVGID_1_" gradientUnits="userSpaceOnUse" x1="146.673" y1="371.5346" x2="212.4312" y2="303.7874" gradientTransform="matrix(1 0 0 -1 0 652)">
	<stop  offset="0.21" style="stop-color:#F15A24"/>
	<stop  offset="0.6841" style="stop-color:#FBB03B"/>
</linearGradient>
<path class="st1" d="M171.7,273.4c-10.9,0-22.8,5.8-35.4,17.3c-6,5.4-11.2,11.2-15,15.9c0,0,6.1,6.9,12.8,14.3
	c3.6-4.5,8.9-10.6,14.9-16.1c11.2-10.2,18.5-12.3,22.7-12.3c15.7,0,28.5,12.9,28.5,28.9c0,15.8-12.7,28.7-28.5,28.9
	c-0.7,0-1.7-0.1-2.7-0.3c4.6,2.1,9.5,3.6,14.2,3.6c28.8,0,34.4-19.5,34.8-20.9c0.8-3.6,1.3-7.3,1.3-11.2
	C219.1,294.9,197.9,273.4,171.7,273.4z"/>
<linearGradient id="SVGID_2_" gradientUnits="userSpaceOnUse" x1="96.1181" y1="289.7902" x2="30.3595" y2="357.5373" gradientTransform="matrix(1 0 0 -1 0 652)">
	<stop  offset="0.21" style="stop-color:#ED1E79"/>
	<stop  offset="0.8929" style="stop-color:#522785"/>
</linearGradient>
<path class="st2" d="M71.1,369.3c10.9,0,22.8-5.8,35.4-17.3c6-5.4,11.2-11.2,15-15.9c0,0-6.1-6.9-12.8-14.3
	c-3.6,4.5-8.9,10.6-14.9,16.1c-11.2,10.2-18.5,12.3-22.7,12.3c-15.7,0-28.5-12.9-28.5-28.9c0-15.8,12.7-28.7,28.5-28.9
	c0.7,0,1.7,0.1,2.7,0.3c-4.6-2.1-9.5-3.6-14.2-3.6c-28.8,0-34.4,19.5-34.8,20.9c-0.8,3.6-1.3,7.3-1.3,11.2
	C23.6,347.7,44.9,369.3,71.1,369.3z"/>
<path class="st3" d="M93,305.2c-3.1-3-18.5-15.2-33.3-15.6c-26.3-0.6-34,18-34.6,20.5c5-21,23.8-36.6,46.1-36.7
	c18.2,0,36.5,17.4,50.1,33.2c0,0,0-0.1,0.1-0.1c0,0,6.1,6.9,12.8,14.3c0,0,7.6,8.8,15.7,16.6c3.1,3,18.5,15.1,33.2,15.5
	c27,0.7,34.4-19,34.9-20.5c-5,21.1-23.8,36.8-46.1,36.9c-18.2,0-36.5-17.5-50.2-33.2c0,0-0.1,0.1-0.1,0.1c0,0-6.1-6.9-12.8-14.3
	C108.7,321.8,101.1,313,93,305.2z M25,310.2c0,0,0-0.1,0-0.2C25.1,310.1,25.1,310.2,25,310.2z"/>
</svg>
