<?xml version="1.0" encoding="utf-8"?>
<!-- Generator: Adobe Illustrator 25.2.2, SVG Export Plug-In . SVG Version: 6.00 Build 0)  -->
<svg version="1.1" id="Layer_1" xmlns="http://www.w3.org/2000/svg" xmlns:xlink="http://www.w3.org/1999/xlink" x="0px" y="0px"
	 viewBox="0 0 500 200" style="enable-background:new 0 0 500 200;" xml:space="preserve">
<style type="text/css">
	.st0{fill:none;stroke:#5928B1;stroke-width:8;stroke-linejoin:round;stroke-miterlimit:2;}
	.st1{fill:#764BC4;}
	.st2{fill:#5928B1;}
	.st3{fill:#3B3B3B;}
</style>
<g transform="translate(175.69810589055862,-16.73539694143698)translate(155.40565132857236,91.30204260638823)rotate(0)translate(-155.40565132857236,-91.30204260638823)">
	<path class="st0" d="M35.9,149L35.9,149c-2.1,0-3.9-0.7-5.3-2.2l0,0l0,0c-1.4-1.4-2.2-3.2-2.2-5.3l0,0V43.9l0,0
		c0-2.2,0.7-4,2.2-5.4l0,0l0,0c1.4-1.4,3.2-2.1,5.3-2.1l0,0H62l0,0c10.9,0,20.5,2.4,29,7.2l0,0l0,0c8.5,4.8,15,11.5,19.8,20l0,0l0,0
		c4.7,8.5,7.1,18.2,7.1,29l0,0l0,0c0,10.9-2.4,20.6-7.1,29.1l0,0l0,0c-4.7,8.6-11.3,15.2-19.8,20l0,0l0,0c-8.5,4.8-18.1,7.2-29,7.2
		l0,0H35.9z M43.4,135.7H62l0,0c8,0,15.1-1.8,21.4-5.5l0,0l0,0c6.3-3.7,11.2-8.8,14.7-15.4l0,0l0,0c3.5-6.6,5.3-14,5.3-22.3l0,0l0,0
		c0-8.3-1.8-15.7-5.3-22.2l0,0l0,0c-3.5-6.5-8.4-11.6-14.7-15.3l0,0l0,0C77.1,51.5,70,49.7,62,49.7l0,0H43.4V135.7z M148.6,149
		L148.6,149c-2.1,0-3.9-0.7-5.3-2.2l0,0l0,0c-1.4-1.4-2.1-3.2-2.1-5.3l0,0V43.9l0,0c0-2.1,0.7-3.9,2.2-5.3l0,0l0,0
		c1.4-1.4,3.2-2.2,5.2-2.2l0,0l0,0c2.1,0,3.9,0.7,5.3,2.2l0,0l0,0c1.4,1.4,2.2,3.2,2.2,5.3l0,0V134h52.2l0,0c2.1,0,3.9,0.7,5.3,2.2
		l0,0l0,0c1.4,1.4,2.2,3.2,2.2,5.3l0,0l0,0c0,2.1-0.7,3.9-2.2,5.3l0,0l0,0c-1.4,1.4-3.2,2.2-5.3,2.2l0,0H148.6z M305.6,36.4
		L305.6,36.4c2,0,3.7,0.6,5,1.9l0,0l0,0c1.3,1.3,2,2.9,2,5l0,0l0,0c0,2-0.6,3.7-2,5l0,0l0,0c-1.3,1.3-2.9,1.9-5,1.9l0,0h-31v91.2
		l0,0c0,2.1-0.7,3.9-2.2,5.3l0,0l0,0c-1.4,1.4-3.2,2.2-5.3,2.2l0,0l0,0c-2.1,0-3.9-0.7-5.3-2.2l0,0l0,0c-1.4-1.4-2.2-3.2-2.2-5.3
		l0,0V50.3h-31.1l0,0c-2,0-3.7-0.7-5-1.9l0,0l0,0c-1.3-1.3-1.9-3-1.9-5l0,0l0,0c0-2,0.6-3.7,1.9-5l0,0l0,0c1.3-1.3,2.9-1.9,5-1.9
		l0,0H305.6z"/>
	<path class="st1" d="M35.9,149L35.9,149c-2.1,0-3.9-0.7-5.3-2.2l0,0l0,0c-1.4-1.4-2.2-3.2-2.2-5.3l0,0V43.9l0,0
		c0-2.2,0.7-4,2.2-5.4l0,0l0,0c1.4-1.4,3.2-2.1,5.3-2.1l0,0H62l0,0c10.9,0,20.5,2.4,29,7.2l0,0l0,0c8.5,4.8,15,11.5,19.8,20l0,0l0,0
		c4.7,8.5,7.1,18.2,7.1,29l0,0l0,0c0,10.9-2.4,20.6-7.1,29.1l0,0l0,0c-4.7,8.6-11.3,15.2-19.8,20l0,0l0,0c-8.5,4.8-18.1,7.2-29,7.2
		l0,0H35.9z M43.4,135.7H62l0,0c8,0,15.1-1.8,21.4-5.5l0,0l0,0c6.3-3.7,11.2-8.8,14.7-15.4l0,0l0,0c3.5-6.6,5.3-14,5.3-22.3l0,0l0,0
		c0-8.3-1.8-15.7-5.3-22.2l0,0l0,0c-3.5-6.5-8.4-11.6-14.7-15.3l0,0l0,0C77.1,51.5,70,49.7,62,49.7l0,0H43.4V135.7z M148.6,149
		L148.6,149c-2.1,0-3.9-0.7-5.3-2.2l0,0l0,0c-1.4-1.4-2.1-3.2-2.1-5.3l0,0V43.9l0,0c0-2.1,0.7-3.9,2.2-5.3l0,0l0,0
		c1.4-1.4,3.2-2.2,5.2-2.2l0,0l0,0c2.1,0,3.9,0.7,5.3,2.2l0,0l0,0c1.4,1.4,2.2,3.2,2.2,5.3l0,0V134h52.2l0,0c2.1,0,3.9,0.7,5.3,2.2
		l0,0l0,0c1.4,1.4,2.2,3.2,2.2,5.3l0,0l0,0c0,2.1-0.7,3.9-2.2,5.3l0,0l0,0c-1.4,1.4-3.2,2.2-5.3,2.2l0,0H148.6z M305.6,36.4
		L305.6,36.4c2,0,3.7,0.6,5,1.9l0,0l0,0c1.3,1.3,2,2.9,2,5l0,0l0,0c0,2-0.6,3.7-2,5l0,0l0,0c-1.3,1.3-2.9,1.9-5,1.9l0,0h-31v91.2
		l0,0c0,2.1-0.7,3.9-2.2,5.3l0,0l0,0c-1.4,1.4-3.2,2.2-5.3,2.2l0,0l0,0c-2.1,0-3.9-0.7-5.3-2.2l0,0l0,0c-1.4-1.4-2.2-3.2-2.2-5.3
		l0,0V50.3h-31.1l0,0c-2,0-3.7-0.7-5-1.9l0,0l0,0c-1.3-1.3-1.9-3-1.9-5l0,0l0,0c0-2,0.6-3.7,1.9-5l0,0l0,0c1.3-1.3,2.9-1.9,5-1.9
		l0,0H305.6z"/>
</g>
<g transform="translate(113.77298629677448,138.3618481923183)translate(192.8635068516128,31.234909312711764)rotate(0)translate(-192.8635068516128,-31.234909312711764)">
	<path class="st2" d="M20.7,48.8L20.7,48.8c-0.5,0-1-0.2-1.3-0.5l0,0l0,0c-0.4-0.4-0.6-0.8-0.6-1.3l0,0V13.1l0,0
		c0-0.5,0.2-0.9,0.6-1.3l0,0l0,0c0.4-0.4,0.8-0.5,1.3-0.5l0,0l0,0c0.5,0,1,0.2,1.3,0.5l0,0l0,0c0.4,0.4,0.5,0.8,0.5,1.3l0,0v32.1
		h18.8l0,0c0.5,0,1,0.2,1.3,0.5l0,0l0,0c0.4,0.3,0.5,0.8,0.5,1.3l0,0l0,0c0,0.5-0.2,0.9-0.5,1.3l0,0l0,0c-0.4,0.3-0.8,0.5-1.3,0.5
		l0,0H20.7z M70.3,22.2L70.3,22.2c2.5,0,4.8,0.6,6.8,1.8l0,0l0,0c2,1.2,3.6,2.8,4.8,4.8l0,0l0,0c1.2,2,1.8,4.3,1.8,6.8l0,0v11.3l0,0
		c0,0.5-0.2,0.9-0.5,1.3l0,0l0,0c-0.4,0.4-0.8,0.5-1.3,0.5l0,0l0,0c-0.5,0-1-0.2-1.3-0.5l0,0l0,0c-0.4-0.3-0.5-0.8-0.5-1.3l0,0v-2.9
		l0,0c-1.1,1.5-2.5,2.8-4.3,3.6l0,0l0,0C73.9,48.6,72,49,69.9,49l0,0l0,0c-2.4,0-4.6-0.6-6.6-1.8l0,0l0,0c-2-1.2-3.5-2.8-4.7-4.8
		l0,0l0,0c-1.1-2-1.7-4.3-1.7-6.8l0,0l0,0c0-2.5,0.6-4.8,1.8-6.8l0,0l0,0c1.2-2.1,2.8-3.7,4.8-4.8l0,0l0,0
		C65.6,22.8,67.8,22.2,70.3,22.2L70.3,22.2z M70.3,45.6L70.3,45.6c1.8,0,3.5-0.4,4.9-1.3l0,0l0,0c1.5-0.9,2.6-2.1,3.5-3.6l0,0l0,0
		c0.9-1.5,1.3-3.2,1.3-5.1l0,0l0,0c0-1.9-0.4-3.6-1.3-5.1l0,0l0,0c-0.8-1.5-2-2.7-3.5-3.6l0,0l0,0c-1.5-0.9-3.1-1.3-4.9-1.3l0,0l0,0
		c-1.8,0-3.5,0.4-5,1.3l0,0l0,0c-1.5,0.9-2.7,2.1-3.5,3.6l0,0l0,0c-0.9,1.5-1.3,3.2-1.3,5.1l0,0l0,0c0,1.9,0.4,3.6,1.3,5.1l0,0l0,0
		c0.8,1.5,2,2.7,3.5,3.6l0,0l0,0C66.8,45.2,68.5,45.6,70.3,45.6L70.3,45.6z M112.9,22.2L112.9,22.2c2.3,0,4.3,0.5,6.1,1.4l0,0l0,0
		c1.8,1,3.2,2.4,4.2,4.2l0,0l0,0c1,1.8,1.5,4.1,1.5,6.6l0,0v12.5l0,0c0,0.5-0.2,0.9-0.5,1.3l0,0l0,0c-0.4,0.4-0.8,0.5-1.3,0.5l0,0
		l0,0c-0.5,0-1-0.2-1.3-0.5l0,0l0,0c-0.4-0.4-0.5-0.8-0.5-1.3l0,0V34.4l0,0c0-2.9-0.8-5-2.4-6.5l0,0l0,0c-1.6-1.5-3.7-2.2-6.2-2.2
		l0,0l0,0c-1.6,0-3,0.3-4.2,0.9l0,0l0,0c-1.3,0.6-2.3,1.4-3,2.5l0,0l0,0c-0.7,1.1-1.1,2.3-1.1,3.6l0,0v14.2l0,0c0,0.5-0.2,1-0.5,1.3
		l0,0l0,0c-0.3,0.3-0.8,0.5-1.3,0.5l0,0l0,0c-0.5,0-1-0.2-1.3-0.5l0,0l0,0c-0.4-0.3-0.5-0.8-0.5-1.3l0,0V24.4l0,0
		c0-0.5,0.2-1,0.5-1.4l0,0l0,0c0.3-0.4,0.8-0.5,1.3-0.5l0,0l0,0c0.5,0,1,0.2,1.3,0.5l0,0l0,0c0.3,0.4,0.5,0.8,0.5,1.4l0,0V26l0,0
		c1.1-1.2,2.3-2.1,3.8-2.8l0,0l0,0C109.5,22.5,111.2,22.2,112.9,22.2L112.9,22.2z M167.9,23.9L167.9,23.9c0,0.1,0,0.2,0,0.4l0,0
		v11.3l0,0c0,2.5-0.6,4.8-1.8,6.8l0,0l0,0c-1.2,2-2.8,3.7-4.8,4.8l0,0l0,0c-2,1.2-4.3,1.8-6.8,1.8l0,0l0,0c-2.5,0-4.8-0.6-6.8-1.8
		l0,0l0,0c-2-1.2-3.6-2.8-4.8-4.8l0,0l0,0c-1.2-2.1-1.8-4.3-1.8-6.8l0,0l0,0c0-2.5,0.6-4.8,1.7-6.8l0,0l0,0c1.1-2,2.7-3.6,4.7-4.8
		l0,0l0,0c2-1.2,4.2-1.8,6.6-1.8l0,0l0,0c2.1,0,4,0.4,5.7,1.3l0,0l0,0c1.7,0.9,3.2,2.1,4.3,3.6l0,0V13.1l0,0c0-0.5,0.2-1,0.5-1.3
		l0,0l0,0c0.4-0.4,0.8-0.5,1.3-0.5l0,0l0,0c0.5,0,1,0.2,1.3,0.5l0,0l0,0c0.3,0.4,0.5,0.8,0.5,1.3l0,0V23.9z M154.6,45.6L154.6,45.6
		c1.8,0,3.5-0.4,4.9-1.3l0,0l0,0c1.5-0.9,2.6-2.1,3.5-3.6l0,0l0,0c0.8-1.5,1.3-3.2,1.3-5.1l0,0l0,0c0-0.5,0-0.9-0.1-1.2l0,0l0,0
		c0-0.1,0-0.1,0-0.2l0,0l0,0c-0.3-2.5-1.4-4.6-3.1-6.2l0,0l0,0c-1.8-1.6-3.9-2.4-6.5-2.4l0,0l0,0c-1.8,0-3.5,0.4-5,1.3l0,0l0,0
		c-1.5,0.9-2.7,2.1-3.5,3.6l0,0l0,0c-0.8,1.5-1.3,3.2-1.3,5.1l0,0l0,0c0,1.9,0.4,3.6,1.3,5.1l0,0l0,0c0.9,1.5,2,2.7,3.5,3.6l0,0l0,0
		C151.1,45.2,152.8,45.6,154.6,45.6L154.6,45.6z M195.4,49L195.4,49c-2,0-3.9-0.3-5.7-1l0,0l0,0c-1.8-0.7-3.3-1.6-4.4-2.8l0,0l0,0
		c-0.3-0.4-0.5-0.8-0.5-1.1l0,0l0,0c0-0.5,0.3-1,0.8-1.4l0,0l0,0c0.4-0.3,0.8-0.4,1.2-0.4l0,0l0,0c0.5,0,1,0.2,1.4,0.7l0,0l0,0
		c0.8,0.9,1.8,1.6,3.1,2.1l0,0l0,0c1.3,0.5,2.7,0.7,4.2,0.7l0,0l0,0c2.2,0,3.9-0.4,5.1-1.2l0,0l0,0c1.1-0.8,1.7-1.8,1.7-3l0,0l0,0
		c0-1.2-0.6-2.1-1.7-2.9l0,0l0,0c-1.1-0.8-2.9-1.3-5.3-1.7l0,0l0,0c-3.1-0.5-5.5-1.4-7-2.7l0,0l0,0c-1.6-1.3-2.3-2.8-2.3-4.6l0,0
		l0,0c0-2.3,0.9-4.1,2.7-5.4l0,0l0,0c1.8-1.3,4.1-1.9,6.8-1.9l0,0l0,0c2.1,0,4,0.4,5.5,1.1l0,0l0,0c1.6,0.7,2.8,1.7,3.8,3l0,0l0,0
		c0.3,0.4,0.4,0.8,0.4,1.1l0,0l0,0c0,0.5-0.3,1-0.8,1.3l0,0l0,0c-0.2,0.2-0.5,0.2-0.9,0.2l0,0l0,0c-0.7,0-1.2-0.2-1.7-0.7l0,0l0,0
		c-1.6-1.8-3.7-2.7-6.4-2.7l0,0l0,0c-1.8,0-3.2,0.4-4.2,1.1l0,0l0,0c-1.1,0.7-1.6,1.6-1.6,2.7l0,0l0,0c0,1.2,0.5,2.1,1.5,2.8l0,0
		l0,0c1,0.7,2.8,1.2,5.3,1.7l0,0l0,0c3.4,0.6,5.9,1.5,7.4,2.8l0,0l0,0c1.5,1.3,2.2,2.9,2.2,4.8l0,0l0,0c0,1.5-0.4,2.8-1.3,3.9l0,0
		l0,0c-0.9,1.2-2.1,2.1-3.7,2.7l0,0l0,0C199.2,48.7,197.4,49,195.4,49L195.4,49z M233.5,49L233.5,49c-2.5,0-4.7-0.6-6.7-1.8l0,0l0,0
		c-2-1.2-3.5-2.8-4.7-4.8l0,0l0,0c-1.1-2-1.7-4.3-1.7-6.8l0,0l0,0c0-2.6,0.5-4.9,1.6-6.9l0,0l0,0c1.1-2,2.6-3.6,4.5-4.8l0,0l0,0
		c1.9-1.2,4.1-1.7,6.5-1.7l0,0l0,0c4,0,7.3,1.5,9.8,4.6l0,0l0,0c0.3,0.3,0.4,0.6,0.4,1l0,0l0,0c0,0.5-0.3,1-0.8,1.3l0,0l0,0
		c-0.3,0.2-0.6,0.3-0.9,0.3l0,0l0,0c-0.5,0-0.9-0.2-1.4-0.7l0,0l0,0c-1-1.1-2-1.9-3.2-2.4l0,0l0,0c-1.2-0.5-2.4-0.8-3.9-0.8l0,0l0,0
		c-1.8,0-3.3,0.4-4.7,1.3l0,0l0,0c-1.4,0.8-2.4,2-3.2,3.6l0,0l0,0c-0.8,1.5-1.1,3.3-1.1,5.2l0,0l0,0c0,1.9,0.4,3.6,1.2,5.1l0,0l0,0
		c0.8,1.5,1.9,2.7,3.4,3.6l0,0l0,0c1.4,0.9,3.1,1.3,5,1.3l0,0l0,0c2.6,0,4.6-0.7,6.2-2.1l0,0l0,0c0.4-0.4,0.8-0.5,1.3-0.5l0,0l0,0
		c0.4,0,0.7,0.1,1,0.4l0,0l0,0c0.5,0.4,0.7,0.8,0.7,1.3l0,0l0,0c0,0.4-0.2,0.8-0.5,1.1l0,0l0,0C239.9,47.9,237,49,233.5,49L233.5,49
		z M272,22.2L272,22.2c2.5,0,4.8,0.6,6.8,1.8l0,0l0,0c2,1.2,3.6,2.8,4.8,4.8l0,0l0,0c1.2,2,1.8,4.3,1.8,6.8l0,0v11.3l0,0
		c0,0.5-0.2,0.9-0.5,1.3l0,0l0,0c-0.4,0.4-0.8,0.5-1.3,0.5l0,0l0,0c-0.5,0-1-0.2-1.4-0.5l0,0l0,0c-0.4-0.3-0.5-0.8-0.5-1.3l0,0v-2.9
		l0,0c-1.1,1.5-2.5,2.8-4.3,3.6l0,0l0,0c-1.7,0.9-3.6,1.3-5.7,1.3l0,0l0,0c-2.4,0-4.6-0.6-6.6-1.8l0,0l0,0c-2-1.2-3.5-2.8-4.7-4.8
		l0,0l0,0c-1.1-2-1.7-4.3-1.7-6.8l0,0l0,0c0-2.5,0.6-4.8,1.8-6.8l0,0l0,0c1.2-2.1,2.8-3.7,4.8-4.8l0,0l0,0
		C267.2,22.8,269.4,22.2,272,22.2L272,22.2z M272,45.6L272,45.6c1.8,0,3.5-0.4,4.9-1.3l0,0l0,0c1.5-0.9,2.6-2.1,3.5-3.6l0,0l0,0
		c0.8-1.5,1.3-3.2,1.3-5.1l0,0l0,0c0-1.9-0.4-3.6-1.3-5.1l0,0l0,0c-0.9-1.5-2-2.7-3.5-3.6l0,0l0,0c-1.5-0.9-3.1-1.3-4.9-1.3l0,0l0,0
		c-1.8,0-3.5,0.4-5,1.3l0,0l0,0c-1.5,0.9-2.7,2.1-3.5,3.6l0,0l0,0c-0.8,1.5-1.3,3.2-1.3,5.1l0,0l0,0c0,1.9,0.4,3.6,1.3,5.1l0,0l0,0
		c0.8,1.5,2,2.7,3.5,3.6l0,0l0,0C268.5,45.2,270.1,45.6,272,45.6L272,45.6z M315.5,22.2L315.5,22.2c2.5,0,4.8,0.6,6.8,1.8l0,0l0,0
		c2,1.2,3.6,2.8,4.8,4.8l0,0l0,0c1.2,2,1.8,4.3,1.8,6.8l0,0l0,0c0,2.5-0.6,4.8-1.7,6.8l0,0l0,0c-1.1,2-2.7,3.6-4.7,4.8l0,0l0,0
		c-2,1.2-4.2,1.8-6.6,1.8l0,0l0,0c-2.1,0-4-0.4-5.7-1.3l0,0l0,0c-1.7-0.9-3.1-2.1-4.3-3.6l0,0v14.1l0,0c0,0.5-0.2,1-0.5,1.3l0,0l0,0
		c-0.4,0.3-0.8,0.5-1.4,0.5l0,0l0,0c-0.5,0-1-0.2-1.3-0.5l0,0l0,0c-0.3-0.4-0.5-0.8-0.5-1.3l0,0V47.4l0,0c0-0.1,0-0.2,0-0.4l0,0
		V35.6l0,0c0-2.5,0.6-4.8,1.8-6.8l0,0l0,0c1.2-2.1,2.8-3.7,4.8-4.8l0,0l0,0C310.7,22.8,313,22.2,315.5,22.2L315.5,22.2z M315.5,45.6
		L315.5,45.6c1.8,0,3.5-0.4,5-1.3l0,0l0,0c1.5-0.9,2.7-2.1,3.5-3.6l0,0l0,0c0.8-1.5,1.3-3.2,1.3-5.1l0,0l0,0c0-1.9-0.4-3.6-1.3-5.1
		l0,0l0,0c-0.8-1.5-2-2.7-3.5-3.6l0,0l0,0c-1.5-0.9-3.1-1.3-5-1.3l0,0l0,0c-1.8,0-3.5,0.4-4.9,1.3l0,0l0,0c-1.5,0.9-2.6,2.1-3.5,3.6
		l0,0l0,0c-0.9,1.5-1.3,3.2-1.3,5.1l0,0l0,0c0,0.5,0,0.9,0,1.2l0,0l0,0c0,0.1,0.1,0.1,0.1,0.2l0,0l0,0c0.3,2.5,1.4,4.6,3.1,6.2l0,0
		l0,0C310.8,44.8,313,45.6,315.5,45.6L315.5,45.6z M356.9,22.2L356.9,22.2c2.4,0,4.5,0.6,6.3,1.7l0,0l0,0c1.8,1.1,3.2,2.6,4.2,4.6
		l0,0l0,0c1,2,1.5,4.2,1.5,6.7l0,0l0,0c0,0.5-0.2,0.9-0.5,1.2l0,0l0,0c-0.3,0.3-0.7,0.5-1.2,0.5l0,0h-19.4l0,0
		c0.3,2.6,1.3,4.8,3.1,6.4l0,0l0,0c1.8,1.6,4,2.5,6.7,2.5l0,0l0,0c1.2,0,2.3-0.2,3.5-0.6l0,0l0,0c1.2-0.4,2.1-0.9,2.8-1.5l0,0l0,0
		c0.4-0.3,0.8-0.5,1.3-0.5l0,0l0,0c0.4,0,0.7,0.1,1.1,0.4l0,0l0,0c0.4,0.4,0.6,0.8,0.6,1.3l0,0l0,0c0,0.4-0.2,0.8-0.5,1.1l0,0l0,0
		c-1.1,0.9-2.4,1.6-4,2.2l0,0l0,0c-1.6,0.6-3.2,0.9-4.7,0.9l0,0l0,0c-2.6,0-4.9-0.6-6.9-1.7l0,0l0,0c-2-1.1-3.6-2.7-4.7-4.8l0,0l0,0
		c-1.1-2-1.7-4.3-1.7-6.9l0,0l0,0c0-2.6,0.5-4.9,1.6-6.9l0,0l0,0c1.1-2,2.6-3.6,4.5-4.8l0,0l0,0C352.3,22.8,354.5,22.2,356.9,22.2
		L356.9,22.2z M356.9,25.6L356.9,25.6c-2.4,0-4.5,0.8-6.1,2.3l0,0l0,0c-1.6,1.5-2.6,3.5-2.9,6l0,0h17.6l0,0c-0.3-2.5-1.1-4.5-2.7-6
		l0,0l0,0C361.3,26.3,359.3,25.6,356.9,25.6L356.9,25.6z"/>
</g>
<g transform="translate(3.5,15.937527851684397)translate(91.81340842546223,89.72434619240029)rotate(0)translate(-91.81340842546223,-89.72434619240029) scale(2.0165795371637674,2.0165795371637674)">
	<path class="st3" d="M46.6,14.7c0-2.7,2.2-4.9,4.9-4.9s4.9,2.2,4.9,4.9s-2.2,4.9-4.9,4.9S46.6,17.4,46.6,14.7z M14.6,37.6
		c0-2.7,2.2-4.9,4.9-4.9s4.9,2.2,4.9,4.9s-2.2,4.9-4.9,4.9S14.6,40.3,14.6,37.6z M36.8,60.1c0-2.7,2.2-4.9,4.9-4.9
		c2.7,0,4.9,2.2,4.9,4.9c0,2.7-2.2,4.9-4.9,4.9C39,65,36.8,62.8,36.8,60.1z M4.1,77.6c0-2.7,2.2-4.9,4.9-4.9s4.9,2.2,4.9,4.9
		s-2.2,4.9-4.9,4.9S4.1,80.4,4.1,77.6z M72.6,20.5c0-2.7,2.2-4.9,4.9-4.9s4.9,2.2,4.9,4.9s-2.2,4.9-4.9,4.9S72.6,23.2,72.6,20.5z
		 M38.8,84.1c0-2.7,2.2-4.9,4.9-4.9c2.7,0,4.9,2.2,4.9,4.9S46.4,89,43.7,89C41,89,38.8,86.8,38.8,84.1z M9,78.8
		c-0.1,0-0.3,0-0.4-0.1c-0.1,0-0.2-0.1-0.3-0.2c-0.1-0.1-0.3-0.3-0.4-0.5c0,0,0-0.1-0.1-0.1L0,51.1c-0.1-0.5,0-1,0.4-1.3l51.2-36.4
		c0.5-0.3,1.1-0.3,1.5,0.1c0.4,0.4,0.5,1,0.1,1.5L12.6,74.4l28.6-15.3c0.2-0.1,0.4-0.1,0.5-0.1h46.6L76.5,21.3L54.7,2
		c-0.5-0.4-0.5-1.1-0.1-1.6c0.4-0.5,1.1-0.5,1.6-0.1l22.1,19.5c0.2,0.1,0.3,0.3,0.3,0.5L91,59.8c0.1,0.3,0,0.7-0.2,1
		c-0.2,0.3-0.6,0.5-0.9,0.5H42L9.5,78.7c-0.1,0-0.1,0.1-0.2,0.1c-0.1,0-0.1,0-0.2,0.1C9.1,78.8,9,78.8,9,78.8L9,78.8z M2.5,51.2
		L9.4,75l38.4-56L2.5,51.2z M41.7,61.3c-0.1,0-0.2,0-0.2,0l0,0c0,0,0,0,0,0c0,0,0,0,0,0l0,0c0,0,0,0,0,0l0,0
		c-0.2-0.1-0.4-0.2-0.5-0.3L6.7,26.7L2.3,51c-0.1,0.6-0.7,1-1.3,0.9c-0.6-0.1-1-0.7-0.9-1.3l4.8-26.4c0.1-0.4,0.4-0.8,0.8-0.9
		c0.4-0.1,0.9,0,1.2,0.3l34.3,34.3L51,15.2L22.5,8c-0.5-0.1-0.9-0.6-0.9-1.2s0.4-1,0.9-1.1L55.2,0c0.4-0.1,0.8,0.1,1,0.3
		c0.3,0.3,0.4,0.7,0.3,1.1l-2.8,12.1l24,6.1c0.4,0.1,0.7,0.4,0.8,0.8c0.1,0.4,0,0.8-0.2,1.1L42.6,60.9c-0.1,0.1-0.1,0.1-0.2,0.2
		c0,0,0,0,0,0c0,0,0,0,0,0l0,0c0,0,0,0,0,0c0,0,0,0,0,0c0,0,0,0,0,0c0,0,0,0,0,0h0c0,0,0,0,0,0C42.1,61.2,41.9,61.3,41.7,61.3
		L41.7,61.3z M53.2,15.8l-9.4,40.3l31.5-34.7L53.2,15.8z M28.3,7.1L51.5,13l2.4-10.4L28.3,7.1z M43.7,85.2c-0.1,0-0.1,0-0.2,0
		L8.8,78.8c-0.6-0.1-1-0.7-0.9-1.3c0.1-0.6,0.7-1,1.3-0.9l33.2,6.2l-1.8-22.3L21.7,7.3c-0.2-0.6,0.1-1.3,0.7-1.5
		c0.6-0.2,1.3,0.1,1.5,0.7l19,53.2c0,0.1,0.1,0.2,0.1,0.3l2,24c0,0.4-0.1,0.7-0.4,0.9C44.2,85.1,44,85.2,43.7,85.2L43.7,85.2z
		 M43.7,85.2c-0.2,0-0.4,0-0.5-0.1c-0.6-0.3-0.8-1-0.5-1.6l33.8-63.4c0.3-0.6,1-0.8,1.6-0.5c0.6,0.3,0.8,1,0.5,1.6L44.7,84.6
		C44.5,85,44.1,85.2,43.7,85.2z"/>
</g>
</svg>
