<?xml version="1.0" encoding="UTF-8"?> <svg xmlns="http://www.w3.org/2000/svg" width="151" height="54" viewBox="0 0 151 54" fill="none"><g clip-path="url(#clip0)"><path d="M68.5402 35.54C67.0888 34.7227 65.9076 33.4928 65.1435 32.0034C64.3818 30.473 63.9966 28.78 64.0206 27.0676C64.0005 25.4158 64.3674 23.7826 65.0915 22.3011C65.7841 20.8833 66.8571 19.6901 68.1885 18.8573C69.6452 17.9707 71.3233 17.5243 73.0238 17.5709C74.5515 17.5206 76.0637 17.8944 77.3955 18.6516C78.5534 19.3352 79.4892 20.344 80.0888 21.5551C80.7043 22.8303 81.0137 24.2338 80.992 25.6521C80.9807 26.5041 80.8829 27.3527 80.7002 28.1846H68.7799C69.0144 29.8272 69.6537 31.0517 70.698 31.8582C71.7688 32.6768 73.0836 33.1034 74.4264 33.068C76.3757 33.0796 78.2905 32.5494 79.961 31.5356L80.1807 35.4472C79.3094 35.9012 78.386 36.2452 77.4314 36.4715C76.3141 36.7437 75.1683 36.8791 74.0188 36.8747C72.1076 36.9275 70.2169 36.4669 68.5402 35.54ZM76.3445 25.0553C76.3616 24.1342 76.081 23.2325 75.5453 22.4866C74.9992 21.7446 74.1587 21.3736 73.0238 21.3736C72.5256 21.3504 72.0279 21.4272 71.5594 21.5996C71.0909 21.7719 70.6609 22.0364 70.2944 22.3777C69.5712 23.1096 69.0825 24.0438 68.8918 25.0593L76.3445 25.0553Z" fill="#004F50"></path><path d="M104.465 8.55859V36.4881H100.145L100.073 35.2783C99.3916 35.7812 98.6384 36.1768 97.8393 36.4518C96.9499 36.7324 96.0218 36.8685 95.09 36.8551C93.4956 36.9155 91.9202 36.49 90.5688 35.6341C89.2174 34.7782 88.1528 33.5315 87.5134 32.0563C86.8381 30.5352 86.4985 28.884 86.5184 27.2172C86.4996 25.5506 86.839 23.8997 87.5134 22.3782C88.0418 21.2711 88.8015 20.2926 89.7402 19.5099C90.6789 18.7272 91.7744 18.1588 92.9514 17.8438C94.1284 17.5289 95.3591 17.4748 96.5587 17.6854C97.7584 17.8959 98.8987 18.366 99.9013 19.0634V8.55859H104.465ZM99.0222 31.4998C99.7468 30.454 100.109 29.0265 100.109 27.2172C100.109 25.408 99.7468 23.9804 99.0222 22.9347C98.2949 21.8943 97.2053 21.3741 95.7534 21.3741C95.109 21.3478 94.468 21.4811 93.8864 21.7622C93.3048 22.0434 92.8002 22.4639 92.4166 22.9871C91.6174 24.0624 91.2178 25.4779 91.2178 27.2334C91.2178 28.9889 91.6174 30.4043 92.4166 31.4797C92.8002 32.0028 93.3048 32.4234 93.8864 32.7045C94.468 32.9857 95.109 33.119 95.7534 33.0927C97.2079 33.0766 98.2975 32.5456 99.0222 31.4998Z" fill="#004F50"></path><path d="M115.626 35.54C114.176 34.7226 112.996 33.4927 112.234 32.0034C111.465 30.4747 111.073 28.7816 111.091 27.0676C111.071 25.4158 111.437 23.7826 112.162 22.3011C112.854 20.8833 113.927 19.6901 115.259 18.8573C116.715 17.9707 118.393 17.5243 120.094 17.5709C121.622 17.5206 123.134 17.8944 124.466 18.6516C125.625 19.335 126.562 20.3437 127.163 21.5551C127.777 22.8309 128.086 24.234 128.066 25.6521C128.053 26.5042 127.954 27.3528 127.77 28.1846H115.886C116.134 29.8218 116.773 31.045 117.804 31.8542C118.875 32.6728 120.19 33.0994 121.532 33.064C123.481 33.0768 125.396 32.548 127.067 31.5356L127.291 35.4472C126.419 35.9005 125.496 36.2445 124.541 36.4715C123.424 36.743 122.278 36.8784 121.129 36.8747C119.21 36.9303 117.311 36.4696 115.626 35.54ZM123.431 25.0553C123.448 24.1342 123.167 23.2325 122.631 22.4866C122.08 21.7405 121.241 21.3736 120.11 21.3736C119.612 21.3504 119.114 21.4272 118.645 21.5996C118.177 21.7719 117.747 22.0364 117.38 22.3777C116.657 23.1096 116.169 24.0438 115.978 25.0593L123.431 25.0553Z" fill="#004F50"></path><path d="M149.226 19.8813C150.409 21.4218 151.001 23.4945 151.001 26.0996V36.4874H146.425V26.4705C146.425 24.7325 146.133 23.4502 145.558 22.6154C144.983 21.7807 144.047 21.3694 142.761 21.3694C142.1 21.3576 141.444 21.4966 140.844 21.7759C140.243 22.0551 139.713 22.4676 139.292 22.9824V36.4874H134.725V17.8691H139.004L139.08 19.1716C140.525 18.1347 142.251 17.5715 144.023 17.5586C146.312 17.5667 148.046 18.3409 149.226 19.8813Z" fill="#004F50"></path><path d="M0.0199804 27.3091C0.0199804 27.6842 0.0519491 28.0592 0.0919099 28.4383C0.0919099 28.5875 0.119883 28.7367 0.143859 28.8818C0.203672 29.3407 0.289057 29.7957 0.399608 30.2448C0.439569 30.39 0.483526 30.5312 0.527483 30.6723C0.631381 31.0352 0.747268 31.3901 0.883134 31.7409C0.955064 31.9224 1.03499 32.0998 1.11491 32.2813C1.24678 32.5757 1.38664 32.866 1.53849 33.1483C1.61841 33.2975 1.69834 33.4507 1.78225 33.5959C2.29516 34.4631 2.90818 35.2658 3.60846 35.9872L3.82425 36.1929C3.9801 36.3461 4.12795 36.5034 4.29179 36.6486L4.33975 36.6889C4.4916 36.8179 4.65144 36.9389 4.80729 37.0599C4.88321 37.1204 4.95514 37.1849 5.03507 37.2454C5.11499 37.3059 5.18292 37.3704 5.26284 37.4268C5.60251 37.6688 5.95416 37.8986 6.31781 38.1124L18.4779 45.1976L30.594 52.2546L30.638 52.2828C32.0715 53.1261 33.6566 53.6744 35.3014 53.8958C35.8536 53.9731 36.4103 54.0122 36.9678 54.0127C38.3084 54.0027 39.6388 53.7754 40.9079 53.3393C41.1117 53.2748 41.3075 53.2103 41.5153 53.1336C41.7231 53.057 42.0068 52.924 42.2506 52.811C42.4944 52.6981 42.6502 52.6175 42.842 52.5167C43.0338 52.4159 43.1777 52.3634 43.3375 52.2667C43.4334 52.2142 43.5134 52.1457 43.6093 52.0852L43.6892 52.0328C45.5354 50.8929 47.0593 49.2923 48.1142 47.3852C49.169 45.4781 49.719 43.3289 49.7113 41.1449V12.9048C49.7144 10.6466 49.1281 8.42729 48.0114 6.47025C46.8947 4.51321 45.2871 2.88741 43.3501 1.7564C41.4131 0.625387 39.2152 0.0290409 36.9773 0.0273474C34.7395 0.0256538 32.5406 0.618672 30.602 1.74675L6.39373 15.8607C4.60581 16.8865 3.09431 18.3389 1.99152 20.0908C0.888723 21.8427 0.228259 23.8407 0.0679334 25.9098C0.0439569 26.2123 0.0199804 26.5067 0 26.8051C0 26.8696 0 26.9341 0 27.0027C0 27.0712 0 27.2043 0.0199804 27.3091ZM44.7002 45.7662C43.8365 47.2867 42.5481 48.5167 40.9958 49.3027L40.848 49.3753C40.3345 49.6236 39.7995 49.8234 39.2495 49.9721C38.7261 50.1111 38.191 50.2002 37.6511 50.2383L37.3354 50.2625C36.8194 50.2895 36.302 50.2719 35.7889 50.21L35.6371 50.1818C35.1846 50.1129 34.7383 50.0077 34.3024 49.8673C34.1425 49.8149 33.9867 49.7624 33.8308 49.7019C33.3864 49.539 32.9549 49.3422 32.5401 49.1132L32.4082 49.0487L15.8285 39.3705C17.4398 38.9487 18.9518 38.2076 20.2766 37.1905C21.6013 36.1733 22.7124 34.9004 23.545 33.4458C24.3777 31.9913 24.9153 30.3841 25.1266 28.7178C25.3379 27.0516 25.2186 25.3596 24.7757 23.7403L41.4194 33.4386C43.473 34.6357 44.9719 36.6062 45.587 38.9175C46.2021 41.2288 45.8832 43.692 44.7002 45.7662ZM8.17998 34.9105L8.09207 34.85C7.68304 34.602 7.2942 34.3215 6.92921 34.0113L6.55358 33.6806C6.21857 33.367 5.90858 33.0272 5.62649 32.6644C5.58652 32.616 5.54656 32.5757 5.5106 32.5273C5.20807 32.1139 4.94071 31.6755 4.71138 31.2167C4.65943 31.1199 4.61548 31.0231 4.56752 30.9223C4.33505 30.4452 4.14386 29.9487 3.99608 29.4383C3.85156 28.8893 3.75924 28.3275 3.72035 27.7608V27.5955C3.6022 25.521 4.19795 23.4691 5.40677 21.7871C6.61558 20.105 8.36322 18.8961 10.3539 18.3649C11.1047 18.1623 11.8783 18.0579 12.6556 18.0544C14.2163 18.0573 15.7488 18.4745 17.0992 19.2642C19.1553 20.4578 20.6573 22.4267 21.2748 24.7378C21.8923 27.0489 21.5748 29.5129 20.392 31.5877C19.8064 32.615 19.0259 33.5159 18.0953 34.2389C17.1646 34.9619 16.1019 35.4928 14.968 35.8014C12.6778 36.4245 10.236 36.1041 8.17998 34.9105ZM32.4362 4.95264C33.8173 4.14846 35.384 3.72567 36.9785 3.72686C38.573 3.72804 40.139 4.15315 41.5189 4.95938C42.8988 5.76561 44.0439 6.9245 44.8388 8.31935C45.6337 9.71421 46.0504 11.2958 46.0469 12.9048V32.4386C45.2233 31.5715 44.2814 30.8274 43.2496 30.2287L18.9614 16.0704C17.9359 15.4702 16.8313 15.0195 15.6806 14.7316L32.4362 4.95264Z" fill="#004F50"></path></g><defs><clipPath id="clip0"><rect width="151" height="54" fill="white"></rect></clipPath></defs></svg> 