<?xml version="1.0" encoding="utf-8"?>
<!-- Generator: Adobe Illustrator 19.2.1, SVG Export Plug-In . SVG Version: 6.00 Build 0)  -->
<svg version="1.1" id="layer" xmlns="http://www.w3.org/2000/svg" xmlns:xlink="http://www.w3.org/1999/xlink" x="0px" y="0px"
	 viewBox="0 0 652 652" style="enable-background:new 0 0 652 652;" xml:space="preserve">
<style type="text/css">
	.st0{fill:#4664A9;}
</style>
<g>
	<polygon class="st0" points="111.7,372.6 109.8,373.4 107.9,372.6 57.6,350.5 20.9,362.9 109.8,402 198.6,362.9 161.9,350.5 	"/>
	<polygon class="st0" points="111.7,336.8 109.8,337.6 107.9,336.8 57.6,314.7 20.9,327 109.8,366.1 198.6,327 161.9,314.7 	"/>
	<polygon class="st0" points="107,168.8 20.8,292.1 107,330 	"/>
	<polygon class="st0" points="244.4,271.2 244.4,235.2 271.7,235.2 271.7,242.2 252.3,242.2 252.3,249.5 269.4,249.5 269.4,256.6 
		252.3,256.6 252.3,264.1 271.9,264.1 271.9,271.2 	"/>
	<polygon class="st0" points="309.4,271.2 291.9,248.3 291.9,271.2 284.1,271.2 284.1,235.2 291.4,235.2 308.2,257.4 308.2,235.2 
		316.1,235.2 316.1,271.2 	"/>
	<polygon class="st0" points="346.4,242.4 346.4,271.2 338.4,271.2 338.4,242.4 327.4,242.4 327.4,235.2 357.3,235.2 357.3,242.4 	
		"/>
	<polygon class="st0" points="368.5,271.2 368.5,235.2 395.7,235.2 395.7,242.2 376.4,242.2 376.4,249.5 393.4,249.5 393.4,256.6 
		376.4,256.6 376.4,264.1 396,264.1 396,271.2 	"/>
	<path class="st0" d="M430.3,247.4c0-3.4-2.4-5.1-6.2-5.1h-7.9v10.4h8.1C428,252.6,430.3,250.6,430.3,247.4L430.3,247.4z
		 M430.1,271.2l-7.7-11.6h-6.2v11.6h-7.9v-36h16.5c8.5,0,13.6,4.4,13.6,11.9v0.1c0,5.8-3.1,9.5-7.7,11.2l8.8,12.9H430.1z"/>
	<path class="st0" d="M471.1,247.7c0-3.5-2.5-5.4-6.4-5.4h-6.1v11h6.3c4,0,6.3-2.4,6.3-5.4V247.7z M464.6,260.4h-6.1v10.8h-7.9v-36
		h14.7c8.6,0,13.8,5.1,13.8,12.5v0.1C479.2,256,472.7,260.4,464.6,260.4z"/>
	<path class="st0" d="M512.3,247.4c0-3.4-2.4-5.1-6.2-5.1h-7.9v10.4h8.1C510.1,252.6,512.3,250.6,512.3,247.4L512.3,247.4z
		 M512.2,271.2l-7.7-11.6h-6.2v11.6h-8v-36h16.5c8.5,0,13.6,4.4,13.6,11.9v0.1c0,5.8-3.1,9.5-7.7,11.2l8.8,12.9H512.2z"/>
	<rect x="533" y="235.2" class="st0" width="7.9" height="36"/>
	<path class="st0" d="M568,271.7c-5.4,0-11-1.9-15.3-5.8l4.7-5.6c3.2,2.7,6.7,4.4,10.7,4.4c3.2,0,5.2-1.3,5.2-3.4v-0.1
		c0-2-1.2-3.1-7.3-4.6c-7.3-1.8-12-3.8-12-11v-0.2c0-6.5,5.3-10.9,12.7-10.9c5.3,0,9.7,1.7,13.4,4.6l-4.1,6
		c-3.2-2.2-6.4-3.5-9.4-3.5c-3,0-4.6,1.4-4.6,3.1v0.1c0,2.4,1.5,3.1,7.7,4.8c7.3,1.9,11.4,4.5,11.4,10.8v0.1
		C581.2,267.7,575.7,271.7,568,271.7z"/>
	<polygon class="st0" points="593.3,271.2 593.3,235.2 620.5,235.2 620.5,242.2 601.2,242.2 601.2,249.5 618.2,249.5 618.2,256.6 
		601.2,256.6 601.2,264.1 620.8,264.1 620.8,271.2 	"/>
	<polygon class="st0" points="244.4,342.5 244.4,306.5 271.7,306.5 271.7,313.5 252.3,313.5 252.3,320.8 269.4,320.8 269.4,327.9 
		252.3,327.9 252.3,335.5 271.9,335.5 271.9,342.5 	"/>
	<polygon class="st0" points="300.5,313.8 300.5,342.5 292.6,342.5 292.6,313.8 281.6,313.8 281.6,306.5 311.5,306.5 311.5,313.8 	
		"/>
	<polygon class="st0" points="345.3,342.5 345.3,328 330.6,328 330.6,342.5 322.7,342.5 322.7,306.5 330.6,306.5 330.6,320.7 
		345.3,320.7 345.3,306.5 353.2,306.5 353.2,342.5 	"/>
	<polygon class="st0" points="367,342.5 367,306.5 394.2,306.5 394.2,313.5 374.9,313.5 374.9,320.8 391.9,320.8 391.9,327.9 
		374.9,327.9 374.9,335.5 394.4,335.5 394.4,342.5 	"/>
	<path class="st0" d="M428.7,318.7c0-3.4-2.4-5.1-6.2-5.1h-7.9V324h8.1C426.5,324,428.7,321.9,428.7,318.7L428.7,318.7z
		 M428.6,342.5l-7.7-11.6h-6.2v11.6h-7.9v-36h16.5c8.5,0,13.6,4.4,13.6,11.9v0.1c0,5.8-3.1,9.5-7.7,11.2l8.8,12.9H428.6z"/>
	<polygon class="st0" points="449.1,342.5 449.1,306.5 476.3,306.5 476.3,313.5 457,313.5 457,320.8 474,320.8 474,327.9 457,327.9 
		457,335.5 476.6,335.5 476.6,342.5 	"/>
	<path class="st0" d="M503.9,343.1c-9.7,0-15.6-5.4-15.6-16v-20.6h7.9v20.4c0,5.9,2.9,8.9,7.7,8.9c4.8,0,7.7-2.9,7.7-8.7v-20.6h7.9
		v20.4C519.7,337.7,513.5,343.1,503.9,343.1z"/>
	<polygon class="st0" points="561.1,342.5 561.1,319 551,334.4 550.7,334.4 540.7,319.1 540.7,342.5 532.9,342.5 532.9,306.5 
		541.5,306.5 551,321.7 560.6,306.5 569.1,306.5 569.1,342.5 	"/>
	<path class="st0" d="M260.4,387l-4.8,11.7h9.6L260.4,387z M271.3,413.8l-3.3-8.1h-15.3l-3.3,8.1h-8.1l15.5-36.3h7.3l15.5,36.3
		H271.3z"/>
	<polygon class="st0" points="290.3,413.8 290.3,377.8 298.2,377.8 298.2,406.6 316.2,406.6 316.2,413.8 	"/>
	<polygon class="st0" points="327.3,413.8 327.3,377.8 335.3,377.8 335.3,406.6 353.3,406.6 353.3,413.8 	"/>
	<rect x="364.8" y="377.8" class="st0" width="7.9" height="36"/>
	<path class="st0" d="M402.8,387l-4.8,11.7h9.6L402.8,387z M413.8,413.8l-3.3-8.1h-15.3l-3.3,8.1h-8.1l15.5-36.3h7.3l15.5,36.3
		H413.8z"/>
	<polygon class="st0" points="458.1,413.8 440.6,390.9 440.6,413.8 432.8,413.8 432.8,377.8 440.1,377.8 456.9,400 456.9,377.8 
		464.8,377.8 464.8,413.8 	"/>
	<path class="st0" d="M495.5,414.4c-10.6,0-18.5-8.2-18.5-18.6v-0.1c0-10.3,7.7-18.6,18.8-18.6c6.8,0,10.9,2.3,14.2,5.6l-5.1,5.8
		c-2.8-2.5-5.6-4.1-9.2-4.1c-6.1,0-10.4,5.1-10.4,11.2v0.1c0,6.2,4.3,11.3,10.4,11.3c4.1,0,6.7-1.6,9.5-4.2l5.1,5.1
		C506.6,412,502.5,414.4,495.5,414.4z"/>
	<polygon class="st0" points="521.8,413.8 521.8,377.8 549,377.8 549,384.8 529.7,384.8 529.7,392.1 546.7,392.1 546.7,399.2 
		529.7,399.2 529.7,406.8 549.3,406.8 549.3,413.8 	"/>
	<polygon class="st0" points="112.3,407.6 112.3,475.1 197.6,369.6 	"/>
	<polygon class="st0" points="106.6,407.7 21.3,369.6 106.6,475.3 	"/>
	<polygon class="st0" points="112.3,169.1 112.3,329.9 198.4,292.1 	"/>
</g>
</svg>
