<?xml version="1.0" encoding="UTF-8"?>
<svg width="122px" height="25px" viewBox="0 0 122 25" version="1.1" xmlns="http://www.w3.org/2000/svg" xmlns:xlink="http://www.w3.org/1999/xlink">
    <!-- Generator: Sketch 57.1 (83088) - https://sketch.com -->
    <title>Elemential</title>
    <desc>Created with Sketch.</desc>
    <defs>
        <polygon id="path-1" points="0.000189269554 0.274254317 24.8775902 0.274254317 24.8775902 8.67080063 0.000189269554 8.67080063"></polygon>
        <polygon id="path-3" points="0 0.0807849294 24.8775902 0.0807849294 24.8775902 8.47701727 0 8.47701727"></polygon>
    </defs>
    <g id="Page-1" stroke="none" stroke-width="1" fill="none" fill-rule="evenodd">
        <g id="Home" transform="translate(-102.000000, -30.000000)">
            <g id="Banner" transform="translate(0.000000, -14.000000)">
                <g id="Header">
                    <g id="Elemential" transform="translate(102.000000, 44.000000)">
                        <path d="M39.5636567,16.046451 L45.444842,16.046451 L45.444842,18.0437556 L37.0784314,18.0437556 L37.0784314,7.28903863 L45.2441717,7.28903863 L45.2441717,9.28634322 L39.5636567,9.28634322 L39.5636567,11.6216532 L44.5804158,11.6216532 L44.5804158,13.5575022 L39.5636567,13.5575022 L39.5636567,16.046451 Z M47.2663115,18.0437556 L47.2663115,6.64375562 L49.6743559,6.64375562 L49.6743559,18.0437556 L47.2663115,18.0437556 Z M60.0474702,13.9415993 C60.0474702,14.1259659 60.0165979,14.3871518 60.0011617,14.5868823 L53.7186356,14.5868823 C53.9501783,15.6162624 54.8300407,16.2461815 56.0958076,16.2461815 C56.97567,16.2461815 57.6085535,15.9849955 58.1796922,15.4472597 L59.4608953,16.830009 C58.6890862,17.7057502 57.5313725,18.1666667 56.0340629,18.1666667 C53.162933,18.1666667 51.295155,16.3690925 51.295155,13.9108715 C51.295155,11.4372866 53.1938054,9.65507637 55.7253393,9.65507637 C58.164256,9.65507637 60.0474702,11.2836478 60.0474702,13.9415993 Z M55.7407754,11.4680144 C54.6448065,11.4680144 53.8575612,12.1286613 53.6877632,13.1887691 L57.7783515,13.1887691 C57.6085535,12.1440252 56.8213082,11.4680144 55.7407754,11.4680144 Z M72.2883626,9.65507637 C74.2641939,9.65507637 75.6843226,10.7920036 75.6843226,13.3116801 L75.6843226,18.0437556 L73.2762782,18.0437556 L73.2762782,13.6804133 C73.2762782,12.3437556 72.6742671,11.7292004 71.7017876,11.7292004 C70.6212549,11.7292004 69.864882,12.420575 69.864882,13.8955076 L69.864882,18.0437556 L67.4568376,18.0437556 L67.4568376,13.6804133 C67.4568376,12.3437556 66.8856989,11.7292004 65.882347,11.7292004 C64.8172505,11.7292004 64.0608775,12.420575 64.0608775,13.8955076 L64.0608775,18.0437556 L61.6528331,18.0437556 L61.6528331,9.77798742 L63.9528243,9.77798742 L63.9528243,10.7305481 C64.5702716,10.0238095 65.4964425,9.65507637 66.561539,9.65507637 C67.7192527,9.65507637 68.7071683,10.1006289 69.2937432,11.0070979 C69.9574991,10.1620845 71.0380318,9.65507637 72.2883626,9.65507637 Z M86.0728731,13.9415993 C86.0728731,14.1259659 86.0420007,14.3871518 86.0265646,14.5868823 L79.7440385,14.5868823 C79.9755812,15.6162624 80.8554436,16.2461815 82.1212105,16.2461815 C83.0010729,16.2461815 83.6339563,15.9849955 84.2050951,15.4472597 L85.4862982,16.830009 C84.7144891,17.7057502 83.5567754,18.1666667 82.0594658,18.1666667 C79.1883359,18.1666667 77.3205579,16.3690925 77.3205579,13.9108715 C77.3205579,11.4372866 79.2192083,9.65507637 81.7507421,9.65507637 C84.1896589,9.65507637 86.0728731,11.2836478 86.0728731,13.9415993 Z M81.7661783,11.4680144 C80.6702094,11.4680144 79.8829641,12.1286613 79.7131661,13.1887691 L83.8037543,13.1887691 C83.6339563,12.1440252 82.8467111,11.4680144 81.7661783,11.4680144 Z M92.7258676,9.65507637 C94.6862627,9.65507637 96.1681361,10.7920036 96.1681361,13.3116801 L96.1681361,18.0437556 L93.7600917,18.0437556 L93.7600917,13.6804133 C93.7600917,12.3437556 93.1426445,11.7292004 92.0775479,11.7292004 C90.9198343,11.7292004 90.0862804,12.4359389 90.0862804,13.9569632 L90.0862804,18.0437556 L87.678236,18.0437556 L87.678236,9.77798742 L89.9782272,9.77798742 L89.9782272,10.7459119 C90.6265468,10.0391734 91.5990263,9.65507637 92.7258676,9.65507637 Z M103.052673,15.9542677 L103.700993,17.6442947 C103.207035,17.997664 102.481535,18.1666667 101.740598,18.1666667 C99.7802027,18.1666667 98.6379253,17.1680144 98.6379253,15.2014376 L98.6379253,11.8060198 L97.3567222,11.8060198 L97.3567222,9.962354 L98.6379253,9.962354 L98.6379253,7.94968553 L101.04597,7.94968553 L101.04597,9.962354 L103.114418,9.962354 L103.114418,11.8060198 L101.04597,11.8060198 L101.04597,15.1707098 C101.04597,15.8774483 101.431874,16.2615454 102.080194,16.2615454 C102.435226,16.2615454 102.790258,16.1539982 103.052673,15.9542677 Z M106.263399,8.62569632 C105.368101,8.62569632 104.76609,8.04186882 104.76609,7.28903863 C104.76609,6.53620845 105.368101,5.95238095 106.263399,5.95238095 C107.158698,5.95238095 107.760709,6.50548068 107.760709,7.24294699 C107.760709,8.04186882 107.158698,8.62569632 106.263399,8.62569632 Z M105.059377,18.0437556 L105.059377,9.77798742 L107.467421,9.77798742 L107.467421,18.0437556 L105.059377,18.0437556 Z M113.055319,9.65507637 C115.586853,9.65507637 117.05329,10.8227314 117.05329,13.327044 L117.05329,18.0437556 L114.799608,18.0437556 L114.799608,17.0143756 C114.351959,17.7672058 113.487532,18.1666667 112.268074,18.1666667 C110.323115,18.1666667 109.165401,17.091195 109.165401,15.662354 C109.165401,14.2027853 110.199626,13.1887691 112.731159,13.1887691 L114.645246,13.1887691 C114.645246,12.159389 114.027799,11.5601977 112.731159,11.5601977 C111.851297,11.5601977 110.940562,11.8521114 110.338551,12.3283917 L109.474125,10.6537287 C110.38486,10.0084456 111.727808,9.65507637 113.055319,9.65507637 Z M112.870085,16.5534591 C113.672767,16.5534591 114.367395,16.184726 114.645246,15.4318958 L114.645246,14.5868823 L112.993575,14.5868823 C111.866733,14.5868823 111.511701,15.0017071 111.511701,15.5548068 C111.511701,16.1539982 112.021095,16.5534591 112.870085,16.5534591 Z M119.229792,18.0437556 L119.229792,6.64375562 L121.637836,6.64375562 L121.637836,18.0437556 L119.229792,18.0437556 Z" fill="#000000" fill-rule="nonzero"></path>
                        <g id="Group-11" transform="translate(0.000000, 0.000000)">
                            <g id="Group-3" transform="translate(0.000000, 3.252936)">
                                <mask id="mask-2" fill="white">
                                    <use xlink:href="#path-1"></use>
                                </mask>
                                <g id="Clip-2"></g>
                                <path d="M14.2960341,4.43846154 C13.6995196,4.6733124 13.069252,4.79073783 12.4386689,4.79167975 C11.8084013,4.79073783 11.1781337,4.6733124 10.5816191,4.43846154 L0.000189269554,0.274254317 L0.000189269554,4.25321821 L10.6336683,8.333281 C11.2131485,8.555573 11.8232274,8.66766091 12.4336217,8.67017268 L12.4336217,8.67080063 C12.4355144,8.67080063 12.4370917,8.67048666 12.4389844,8.67048666 C12.4405616,8.67048666 12.4421388,8.67080063 12.4440315,8.67080063 L12.4440315,8.67048666 C13.0550568,8.67048666 13.6663974,8.56122449 14.246824,8.3411303 L24.8777794,4.3144427 L24.8777794,0.274254317 L14.2960341,4.43846154 Z" id="Fill-1" fill="#000000" mask="url(#mask-2)"></path>
                            </g>
                            <path d="M12.444,18.1064471 L12.444,18.1064471 C13.0584952,18.1076923 13.6729903,17.9978022 14.2572023,17.7767661 L16.8763775,16.7846154 L16.8763775,12.8627943 L14.3064124,13.8740973 C13.7083206,14.1095761 13.0761603,14.2273155 12.444,14.2273155 C11.8118397,14.2273155 11.1796794,14.1095761 10.5815876,13.8740973 L0.000157724628,9.70989011 L0.000157724628,13.688854 L10.6336367,17.7689168 C11.215956,17.9924647 11.8298203,18.1051805 12.444,18.1064471" id="Fill-4" fill="#000000"></path>
                            <g id="Group-8" transform="translate(0.000000, 15.811805)">
                                <mask id="mask-4" fill="white">
                                    <use xlink:href="#path-3"></use>
                                </mask>
                                <g id="Clip-7"></g>
                                <path d="M12.4387635,4.59789639 C11.8084959,4.59726845 11.1782283,4.47984301 10.5813983,4.24499215 L-3.15449257e-05,0.0807849294 L-3.15449257e-05,4.05974882 L10.6334474,8.13981162 C11.2129277,8.36210361 11.823322,8.47419152 12.4334009,8.4767033 L12.4334009,8.47701727 C12.4352936,8.47701727 12.4371863,8.47701727 12.439079,8.47701727 C12.4406562,8.47701727 12.4422335,8.47701727 12.4441262,8.47701727 L12.4441262,8.4767033 C13.0551514,8.47701727 13.666492,8.36744113 14.2466032,8.14766091 L24.8778741,4.12097331 L24.8778741,0.0807849294 L14.2961288,4.24499215 C13.6996142,4.47984301 13.0693466,4.59726845 12.4387635,4.59789639" id="Fill-6" fill="#000000" mask="url(#mask-4)"></path>
                            </g>
                            <path d="M5.22746736,2.56163265 L12.444,-6.27943485e-05 L19.6602172,2.56163265 L13.3988649,4.84954474 C12.7821616,5.07497645 12.1055229,5.07497645 11.4888197,4.84954474 L5.22746736,2.56163265 Z" id="Fill-9" fill="#000000"></path>
                        </g>
                    </g>
                </g>
            </g>
        </g>
    </g>
</svg>