<svg width="552" height="79" viewBox="0 0 552 79" fill="none" xmlns="http://www.w3.org/2000/svg">
<path fill-rule="evenodd" clip-rule="evenodd" d="M7.6373 0H64.9412V15.5842L57.3039 23.2353H30.1513V27.8824H57.9832V43.4665L50.3459 51.1176H30.1513V55.7647H64.9412V71.3489L57.3039 79H0V7.65113L7.6373 0ZM2.79968 8.13235H56.8235V20.4305L62.6218 14.6217V2.32353H8.598L2.79968 8.13235ZM27.8319 23.0029H22.0336V36.0147H49.8655V48.3129L55.6639 42.5041V30.2059H27.8319V23.0029ZM27.8319 50.9627H22.0336V63.8971H56.8235V76.1953L62.6218 70.3864V58.0882H27.8319V50.9627Z" fill="#141B1F"/>
<path fill-rule="evenodd" clip-rule="evenodd" d="M106.689 0H84.1751L76.5378 7.65113V79H133.842L141.479 71.3489V55.7647H106.689V0ZM79.3375 8.13235L85.1358 2.32353H104.37V58.0882H139.16V70.3864L133.361 76.1953V63.8971H98.5714V8.13235H79.3375Z" fill="#141B1F"/>
<path fill-rule="evenodd" clip-rule="evenodd" d="M183.227 0H160.713L153.076 7.65113V79H210.38L218.017 71.3489V55.7647H183.227V0ZM175.109 8.13235H155.875L161.674 2.32353H180.908V58.0882H215.697V70.3864L209.899 76.1952V63.8971H175.109V8.13235Z" fill="#141B1F"/>
<path fill-rule="evenodd" clip-rule="evenodd" d="M237.251 0H259.765V71.3489L252.127 79H229.613V7.65113L237.251 0ZM232.413 8.13235H251.647V76.1953L257.445 70.3864V2.32353H238.211L232.413 8.13235Z" fill="#141B1F"/>
<path fill-rule="evenodd" clip-rule="evenodd" d="M343.26 0H278.999L271.361 7.65113V79H293.875L301.513 71.3489V51.1176H335.623L343.26 43.4665V0ZM274.161 8.13235L279.959 2.32353H340.941V42.5041L335.143 48.3129V8.13235H274.161ZM293.395 76.1953L299.193 70.3864V50.8853H293.395V76.1953ZM301.513 27.8824V22.0735H321.227V27.8824H301.513ZM321.227 30.2059H300.833L295.035 36.0147H321.227V30.2059ZM293.395 34.3717L299.193 28.5629V22.0735H293.395V34.3717Z" fill="#141B1F"/>
<path fill-rule="evenodd" clip-rule="evenodd" d="M362.494 0H433.714V15.5842L426.077 23.2353H425.597V23.3127H405.882V71.3489L398.245 79H375.731V23.2353H354.857V7.65113L362.494 0ZM431.395 14.6217L425.597 20.4305V8.13235H357.657L363.455 2.32353H431.395V14.6217ZM403.563 70.3864L397.765 76.1952V23.3127H403.563V70.3864Z" fill="#141B1F"/>
<path fill-rule="evenodd" clip-rule="evenodd" d="M552 0H494.696L487.059 7.65113V79H544.363L552 71.3489V55.7647H517.21V23.2353H544.363L552 15.5842V0ZM489.859 8.13235L495.657 2.32353H549.681V14.6217L543.882 20.4305V8.13235H489.859ZM543.882 76.1952L549.681 70.3864V58.0882H514.891V23.0804H509.092V63.8971H543.882V76.1952Z" fill="#141B1F"/>
<path fill-rule="evenodd" clip-rule="evenodd" d="M452.948 0H475.462V71.3489L467.825 79H445.311V7.65113L452.948 0ZM453.909 2.32353L448.111 8.13235H467.345V76.1952L473.143 70.3864V2.32353H453.909Z" fill="#141B1F"/>
</svg>
