<svg xmlns="http://www.w3.org/2000/svg" width="154.885" height="38.102" viewBox="0 0 154.885 38.102">
  <defs>
    <style>
      .cls-1 {
        fill: #fff;
      }
    </style>
  </defs>
  <g id="logo_toubu_nenglian" transform="translate(-183.535 -217.041)">
    <g id="组_5" data-name="组 5" transform="translate(226.511 217.041)">
      <g id="组_2" data-name="组 2" transform="translate(0.084 32.614)">
        <g id="组_1" data-name="组 1">
          <path id="路径_1" data-name="路径 1" class="cls-1" d="M338.389,336.265h-1.113l-2.448-3.585v3.585h-1.162v-5.341h1.162l2.4,3.733v-3.733h1.162Z" transform="translate(-333.666 -330.875)"/>
          <path id="路径_2" data-name="路径 2" class="cls-1" d="M361.559,336.326H357.38V331.01h4.179v.742h-2.992v1.484h2.794V334h-2.794v1.632h2.992Z" transform="translate(-350.579 -330.936)"/>
          <path id="路径_3" data-name="路径 3" class="cls-1" d="M383.231,336.265h-1.113l-2.448-3.585v3.585h-1.162v-5.341h1.162l2.4,3.733v-3.733h1.162Z" transform="translate(-365.647 -330.875)"/>
          <path id="路径_4" data-name="路径 4" class="cls-1" d="M406.663,332.309h-1.236a1.114,1.114,0,0,0-1.162-.816q-1.385.124-1.459,2,.074,1.9,1.557,2.027a1.114,1.114,0,0,0,1.212-.816v-.89h-1.582v-.742h2.695v1.978q-.495,1.187-2.349,1.187a2.541,2.541,0,0,1-2.72-2.769,2.5,2.5,0,0,1,2.646-2.72A2.274,2.274,0,0,1,406.663,332.309Z" transform="translate(-382.129 -330.752)"/>
          <path id="路径_5" data-name="路径 5" class="cls-1" d="M450.165,336.326h-3.956V331.01H447.4v4.624h2.769Z" transform="translate(-413.93 -330.936)"/>
          <path id="路径_6" data-name="路径 6" class="cls-1" d="M467.55,336.326h-1.162V331.01h1.162Z" transform="translate(-428.322 -330.936)"/>
          <path id="路径_7" data-name="路径 7" class="cls-1" d="M481.49,336.326h-1.236l-.445-1.212h-2.077l-.445,1.212H476.05l2-5.316h1.434Zm-2.72-4.228-.791,2.25h1.558Z" transform="translate(-435.212 -330.936)"/>
          <path id="路径_8" data-name="路径 8" class="cls-1" d="M505.608,336.265h-1.113l-2.448-3.585v3.585h-1.162v-5.341h1.162l2.4,3.733v-3.733h1.162Z" transform="translate(-452.924 -330.875)"/>
          <path id="路径_9" data-name="路径 9" class="cls-1" d="M549.052,331.752H547.3v4.574H546.11v-4.574h-1.756v-.742h4.7Z" transform="translate(-483.926 -330.936)"/>
          <path id="路径_10" data-name="路径 10" class="cls-1" d="M571.385,336.326h-4.179V331.01h4.179v.742h-2.992v1.484h2.794V334h-2.794v1.632h2.992Z" transform="translate(-500.224 -330.936)"/>
          <path id="路径_11" data-name="路径 11" class="cls-1" d="M592.54,332.507h-1.162a1.1,1.1,0,0,0-1.113-.989q-1.385.05-1.409,2.027.049,1.879,1.656,1.978a2.21,2.21,0,0,0,1.9-1.187v1.014a2.627,2.627,0,0,1-2.176.89,2.75,2.75,0,0,1-.049-5.489A2.156,2.156,0,0,1,592.54,332.507Z" transform="translate(-514.8 -330.752)"/>
          <path id="路径_12" data-name="路径 12" class="cls-1" d="M612.372,336.326h-1.187V331.01h1.187v2.176h2.4V331.01h1.162v5.316H614.77v-2.374h-2.4Z" transform="translate(-531.589 -330.936)"/>
          <path id="路径_13" data-name="路径 13" class="cls-1" d="M659.042,336.326h-3.956V331.01h1.187v4.624h2.769Z" transform="translate(-562.899 -330.936)"/>
          <path id="路径_14" data-name="路径 14" class="cls-1" d="M679.447,331.752h-1.756v4.574H676.5v-4.574h-1.755v-.742h4.7Z" transform="translate(-576.922 -330.936)"/>
          <path id="路径_15" data-name="路径 15" class="cls-1" d="M699.331,336.324H697.6v-5.316h1.657q2.991-.049,2.943,2.621Q702.347,336.448,699.331,336.324Zm-.1-4.574h-.445v3.882h.445q1.83.05,1.756-2Q701.062,331.725,699.232,331.75Z" transform="translate(-593.219 -330.934)"/>
          <path id="路径_16" data-name="路径 16" class="cls-1" d="M720.6,346.827h-1.187v-1.162H720.6Z" transform="translate(-608.779 -341.388)"/>
        </g>
      </g>
      <g id="组_4" data-name="组 4">
        <path id="路径_17" data-name="路径 17" class="cls-1" d="M343.255,222.441a1.222,1.222,0,0,1-1.108,1.309H336.7l1.45-5.907-2.481-.767-2.3,9.475h8.772a3.915,3.915,0,0,0,3.674-4.109v-3.314h-2.566Z" transform="translate(-333.374 -217.066)"/>
        <path id="路径_18" data-name="路径 18" class="cls-1" d="M384.365,230.937h6.767v-2.8h-6.767a1.223,1.223,0,0,1-1.108-1.308v-.158l8.03-3.644-.655-2.353-7.375,3.359V219.3h-2.566v7.529A3.914,3.914,0,0,0,384.365,230.937Z" transform="translate(-367.12 -218.651)"/>
        <path id="路径_19" data-name="路径 19" class="cls-1" d="M396.206,252.911h2.166v3.466h-2.166v2.8h2.166v4.961c0,.705-.392,1.279-.874,1.279H384.365a1.222,1.222,0,0,1-1.108-1.308v-3.417l8.028-3.612-.653-2.328-7.376,3.324v-4.084h-2.566v10.116a3.914,3.914,0,0,0,3.674,4.109H397.5c1.929,0,3.44-1.792,3.44-4.08v-4.961h3.005v-2.8h-3.005v-3.466h3.005v-2.8h-7.738Z" transform="translate(-367.12 -240.625)"/>
        <path id="路径_20" data-name="路径 20" class="cls-1" d="M438.7,217.847l-2.476-.765-1.442,7.209h7.738v-2.8h-4.593Z" transform="translate(-405.698 -217.07)"/>
        <rect id="矩形_3" data-name="矩形 3" class="cls-1" width="2.566" height="2.801" transform="translate(37.532 4.42)"/>
        <path id="路径_21" data-name="路径 21" class="cls-1" d="M582.559,233.013l-2.72-6.524-2.489,1.251,2.719,6.523Z" transform="translate(-507.375 -223.779)"/>
        <path id="路径_22" data-name="路径 22" class="cls-1" d="M578.169,254.847l2.72,6.523,2.489-1.251-2.72-6.523Z" transform="translate(-507.959 -243.112)"/>
        <path id="路径_23" data-name="路径 23" class="cls-1" d="M485.1,264.02a1.654,1.654,0,0,1-1.637,1.4H467.908a1.19,1.19,0,0,1-1.108-1.279V250.11h-2.566v14.029a3.9,3.9,0,0,0,3.674,4.08H483.6a3.836,3.836,0,0,0,3.791-3.253,60.374,60.374,0,0,0,.783-8.589h-2.566A49.8,49.8,0,0,1,485.1,264.02Z" transform="translate(-426.702 -240.625)"/>
        <path id="路径_24" data-name="路径 24" class="cls-1" d="M543.5,226.993l3.715-.3-.182-2.8-10.049.8.182,2.8,3.768-.292v4.213h-4.21v2.8h4.21v15.309H543.5V234.216h3.977v-2.8H543.5Z" transform="translate(-478.399 -221.931)"/>
        <rect id="矩形_4" data-name="矩形 4" class="cls-1" width="2.566" height="11.842" transform="translate(66.224 15.752)"/>
        <g id="组_3" data-name="组 3" transform="translate(0.135 10.863)">
          <path id="路径_25" data-name="路径 25" class="cls-1" d="M336.409,263.1h9.721v-4.632a3.384,3.384,0,0,0-3.18-3.55h-5.926a3.384,3.384,0,0,0-3.18,3.55V263.1Zm0-4.632a.693.693,0,0,1,.614-.749h5.926a.693.693,0,0,1,.614.749v1.983h-7.154Z" transform="translate(-333.843 -254.915)"/>
          <path id="路径_26" data-name="路径 26" class="cls-1" d="M336.409,286.484h-2.565v7.676h2.566V292.27h0v-2.8h0Z" transform="translate(-333.843 -277.43)"/>
          <path id="路径_27" data-name="路径 27" class="cls-1" d="M351.792,286.484H345.38v2.7h6.411v4.981h2.566v-7.676Z" transform="translate(-342.071 -277.43)"/>
        </g>
        <path id="路径_28" data-name="路径 28" class="cls-1" d="M699.045,294.249l-2.228,1.885c2.894,2.225,4.8,3.16,6.608,3.565l1.061-2.569A23.776,23.776,0,0,1,699.045,294.249Z" transform="translate(-592.577 -272.105)"/>
        <path id="路径_29" data-name="路径 29" class="cls-1" d="M670.451,294.253a23.765,23.765,0,0,1-5.439,2.878l1.061,2.569c1.81-.4,3.712-1.339,6.605-3.563Z" transform="translate(-569.894 -272.108)"/>
        <path id="路径_30" data-name="路径 30" class="cls-1" d="M617.294,224.262v-2.8h-6.2v-4.3h-2.566v4.3H599.7v-4.42h-2.566v4.42h-3.353v2.8h3.353v10.455l-3.861,1.753,1.213,2.092,2.649-1.2V240.5a1.194,1.194,0,0,1-1.108,1.309H586.9a1.372,1.372,0,0,1-1.372-1.372v-1.01h2.417v-2.8h-2.417V217.951h-2.592v18.671h-7.13v2.8h7.13l.017,2.235a3,3,0,0,0,3,2.976h10.071A3.98,3.98,0,0,0,599.7,240.5v-4.3l3.211-1.458-1.214-2.1-2,.921v-9.3h8.829v2.264h-5v6.351a20.36,20.36,0,0,0,4.063,5.778c-.007.005,2.166,1.867,2.166,1.867s.029.029.029.029a.2.2,0,0,1,.022-.031s2.175-1.86,2.168-1.865a20.359,20.359,0,0,0,4.064-5.778v-6.352H611.1v-2.264Zm-4.3,5.065c-.03.734,0,3.2,0,3.2a14.551,14.551,0,0,1-3.208,4.422,14.552,14.552,0,0,1-3.207-4.42s.03-2.466,0-3.2Z" transform="translate(-506.276 -217.041)"/>
        <rect id="矩形_5" data-name="矩形 5" class="cls-1" width="3.04" height="3.453" transform="translate(41.87 0.094)"/>
        <rect id="矩形_6" data-name="矩形 6" class="cls-1" width="2.242" height="2.801" transform="translate(50.642 4.42)"/>
        <path id="路径_31" data-name="路径 31" class="cls-1" d="M484.808,245.993v-2.875h3.663v-2.8h-3.663v-7.865h-8.884v2.8h.985v7.865h5.333v2.875h-6.318v2.8h6.318v3.241h2.566v-3.241h4.379v-2.8Zm-2.566-5.676h-2.293v-5.065h2.293Z" transform="translate(-435.039 -228.032)"/>
        <path id="路径_32" data-name="路径 32" class="cls-1" d="M479.359,243.118h7.9V232.452h-7.9v10.666Zm3.04-7.865h2.293v5.065H482.4Z" transform="translate(-437.489 -228.032)"/>
        <path id="路径_33" data-name="路径 33" class="cls-1" d="M684.981,250.112H672.468v6.351a20.359,20.359,0,0,0,4.064,5.778c-.007.005,2.166,1.867,2.166,1.867s.029.029.029.029a.228.228,0,0,1,.022-.031s2.175-1.86,2.168-1.865a20.367,20.367,0,0,0,4.064-5.778Zm-3.049,6a14.548,14.548,0,0,1-3.207,4.422,14.553,14.553,0,0,1-3.207-4.42s.03-2.466,0-3.2h6.414C681.9,253.647,681.932,256.112,681.932,256.112Z" transform="translate(-575.212 -240.627)"/>
      </g>
    </g>
    <g id="组_6" data-name="组 6" transform="translate(183.535 217.041)">
      <path id="路径_34" data-name="路径 34" class="cls-1" d="M254.036,217.041H246.9a3.137,3.137,0,0,0-2.218.918l-5.644,5.644a1.246,1.246,0,0,0-.365.881v6.867a1.246,1.246,0,0,0,2.128.881l7.9-7.9a1.246,1.246,0,0,1,.881-.365h3.206a1.246,1.246,0,0,1,1.246,1.246V246.97a1.246,1.246,0,0,1-1.246,1.246h-6.029a1.246,1.246,0,0,0-1.246,1.246V253.9a1.246,1.246,0,0,0,1.246,1.246h11.066a3.136,3.136,0,0,0,3.136-3.136v-31.83a3.136,3.136,0,0,0-3.136-3.136Z" transform="translate(-222.861 -217.041)"/>
      <path id="路径_35" data-name="路径 35" class="cls-1" d="M194.915,248.216h-3.206a1.246,1.246,0,0,1-1.246-1.246V225.215a1.246,1.246,0,0,1,1.246-1.246h6.029a1.246,1.246,0,0,0,1.246-1.246v-4.435a1.246,1.246,0,0,0-1.246-1.246H186.671a3.136,3.136,0,0,0-3.136,3.136v31.83a3.136,3.136,0,0,0,3.136,3.136H197.6a3.137,3.137,0,0,0,2.218-.918l5.644-5.644a1.246,1.246,0,0,0,.365-.881v-6.867a1.246,1.246,0,0,0-2.128-.881l-7.9,7.9A1.246,1.246,0,0,1,194.915,248.216Z" transform="translate(-183.535 -217.041)"/>
    </g>
  </g>
</svg>
