<?xml version="1.0" encoding="UTF-8"?>
<svg width="462px" height="237px" viewBox="0 0 462 237" version="1.1" xmlns="http://www.w3.org/2000/svg" xmlns:xlink="http://www.w3.org/1999/xlink">
    <title>element / logo / eos / color</title>
    <g id="element-/-logo-/-eos-/-color" stroke="none" stroke-width="1" fill="none" fill-rule="evenodd">
        <path d="M169.531,129.1382 C163.531,129.1382 158.647,124.2552 158.647,118.2542 C158.647,112.2522 163.529,107.3702 169.531,107.3702 C175.532,107.3702 180.414,112.2532 180.414,118.2542 C180.414,124.2542 175.532,129.1382 169.531,129.1382 M117.938,134.5682 C108.943,134.5682 101.623,127.2492 101.623,118.2542 C101.623,109.2592 108.943,101.9392 117.938,101.9392 C126.933,101.9392 134.252,109.2592 134.252,118.2542 C134.252,127.2492 126.933,134.5682 117.938,134.5682 M162.116,147.0392 C166.36,151.2842 166.36,158.1882 162.116,162.4322 C160.061,164.4882 157.327,165.6212 154.42,165.6212 C151.514,165.6212 148.78,164.4882 146.724,162.4322 C142.481,158.1882 142.481,151.2842 146.724,147.0392 C148.78,144.9852 151.514,143.8532 154.42,143.8532 C157.327,143.8532 160.061,144.9852 162.116,147.0392 M128.822,169.8472 C128.822,175.8472 123.94,180.7312 117.938,180.7312 C111.936,180.7312 107.054,175.8492 107.054,169.8472 C107.054,163.8452 111.938,158.9642 117.938,158.9642 C123.939,158.9642 128.822,163.8462 128.822,169.8472 M89.152,162.4322 C87.095,164.4882 84.364,165.6212 81.456,165.6212 C78.548,165.6212 75.816,164.4882 73.761,162.4322 C69.518,158.1882 69.518,151.2842 73.761,147.0392 C75.816,144.9852 78.549,143.8532 81.456,143.8532 C84.363,143.8532 87.095,144.9852 89.152,147.0392 C93.395,151.2842 93.395,158.1882 89.152,162.4322 M66.345,129.1382 C60.345,129.1382 55.462,124.2552 55.462,118.2542 C55.462,112.2522 60.343,107.3702 66.345,107.3702 C72.347,107.3702 77.228,112.2532 77.228,118.2542 C77.228,124.2542 72.346,129.1382 66.345,129.1382 M73.761,89.4682 C71.706,87.4112 70.573,84.6802 70.573,81.7722 C70.573,78.8642 71.706,76.1322 73.761,74.0762 C75.816,72.0222 78.549,70.8882 81.456,70.8882 C84.363,70.8882 87.095,72.0222 89.152,74.0762 C93.395,78.3202 93.395,85.2252 89.152,89.4682 C87.095,91.5242 84.364,92.6562 81.456,92.6562 C78.548,92.6562 75.816,91.5242 73.761,89.4682 M107.054,66.6612 C107.054,60.6602 111.936,55.7782 117.938,55.7782 C123.94,55.7782 128.822,60.6592 128.822,66.6612 C128.822,72.6622 123.939,77.5432 117.938,77.5432 C111.938,77.5432 107.054,72.6612 107.054,66.6612 M146.724,74.0762 C148.78,72.0222 151.514,70.8882 154.42,70.8882 C157.327,70.8882 160.061,72.0222 162.116,74.0762 C164.172,76.1322 165.305,78.8662 165.305,81.7722 C165.305,84.6782 164.172,87.4112 162.116,89.4682 C160.061,91.5242 157.327,92.6562 154.42,92.6562 C151.514,92.6562 148.78,91.5242 146.724,89.4682 C142.481,85.2252 142.481,78.3202 146.724,74.0762 M169.531,104.6982 C162.508,104.6982 156.716,110.0672 156.043,116.9172 L136.856,116.9172 C136.559,112.6882 134.88,108.8432 132.258,105.8252 L145.824,92.2572 C148.243,94.2452 151.249,95.3282 154.42,95.3282 C158.041,95.3282 161.446,93.9182 164.006,91.3582 C166.567,88.7972 167.978,85.3932 167.978,81.7722 C167.978,78.1502 166.567,74.7462 164.006,72.1872 C161.446,69.6262 158.041,68.2152 154.42,68.2152 C150.8,68.2152 147.395,69.6262 144.834,72.1872 C139.868,77.1542 139.572,85.0462 143.938,90.3652 L130.368,103.9352 C127.349,101.3112 123.504,99.6312 119.275,99.3342 L119.275,80.1482 C126.124,79.4752 131.494,73.6842 131.494,66.6592 C131.494,59.1852 125.412,53.1052 117.938,53.1052 C110.464,53.1052 104.382,59.1852 104.382,66.6612 C104.382,73.6852 109.751,79.4762 116.602,80.1502 L116.602,99.3362 C112.372,99.6322 108.527,101.3132 105.509,103.9362 L91.939,90.3652 C96.306,85.0442 96.008,77.1522 91.042,72.1862 C88.481,69.6252 85.077,68.2142 81.456,68.2142 C77.834,68.2142 74.43,69.6252 71.871,72.1862 C69.311,74.7462 67.9,78.1502 67.9,81.7712 C67.9,85.3912 69.311,88.7962 71.871,91.3572 C74.432,93.9172 77.836,95.3262 81.456,95.3262 C84.629,95.3262 87.633,94.2442 90.052,92.2562 L103.619,105.8232 C100.995,108.8402 99.316,112.6872 99.019,116.9162 L79.832,116.9162 C79.158,110.0672 73.368,104.6972 66.344,104.6972 C58.869,104.6982 52.789,110.7802 52.789,118.2542 C52.789,125.7292 58.869,131.8102 66.345,131.8102 C73.369,131.8102 79.16,126.4402 79.834,119.5902 L99.02,119.5902 C99.317,123.8202 100.997,127.6642 103.62,130.6842 L90.05,144.2512 C87.633,142.2622 84.627,141.1802 81.456,141.1802 C77.836,141.1802 74.432,142.5902 71.871,145.1502 C66.586,150.4362 66.586,159.0362 71.871,164.3232 C74.432,166.8822 77.836,168.2942 81.456,168.2942 C85.076,168.2942 88.481,166.8822 91.042,164.3232 C96.008,159.3552 96.304,151.4632 91.939,146.1432 L105.509,132.5742 C108.526,135.1972 112.372,136.8762 116.602,137.1722 L116.602,156.3592 C109.753,157.0332 104.382,162.8242 104.382,169.8472 C104.382,177.3222 110.462,183.4032 117.938,183.4032 C125.412,183.4032 131.494,177.3222 131.494,169.8472 C131.494,162.8242 126.124,157.0332 119.275,156.3592 L119.275,137.1722 C123.504,136.8752 127.349,135.1962 130.368,132.5742 L143.938,146.1432 C139.571,151.4622 139.868,159.3552 144.834,164.3222 C147.395,166.8822 150.8,168.2942 154.42,168.2942 C158.041,168.2942 161.446,166.8822 164.006,164.3222 C169.292,159.0362 169.292,150.4362 164.006,145.1502 C161.446,142.5892 158.041,141.1802 154.42,141.1802 C151.249,141.1802 148.243,142.2622 145.824,144.2502 L132.258,130.6842 C134.881,127.6642 136.561,123.8202 136.856,119.5902 L156.043,119.5902 C156.716,126.4402 162.508,131.8102 169.531,131.8102 C177.006,131.8102 183.087,125.7292 183.087,118.2542 C183.087,110.7802 177.006,104.6982 169.531,104.6982" id="Fill-1" fill="#5CA734"></path>
        <path d="M317.3547,64.5667 C322.1387,64.5667 326.7047,65.4797 331.0557,67.3057 C335.4037,69.1337 339.2757,71.6997 342.6677,75.0047 C345.9727,78.3967 348.5397,82.2687 350.3657,86.6177 C352.1927,90.9687 353.1057,95.5347 353.1057,100.3177 C353.1057,105.0147 352.1927,109.5387 350.3657,113.8877 C348.5397,118.2377 345.9727,122.1077 342.6677,125.5007 C339.2757,128.8067 335.4037,131.3717 331.0557,133.1987 C326.7047,135.0247 322.1387,135.9387 317.3547,135.9387 C312.5707,135.9387 308.0257,135.0247 303.7197,133.1987 C299.4147,131.3717 295.5647,128.8067 292.1727,125.5007 C288.8657,122.1077 286.3007,118.2377 284.4747,113.8877 C282.6477,109.5387 281.7347,105.0147 281.7347,100.3177 C281.7347,95.5347 282.6477,90.9687 284.4747,86.6177 C286.3007,82.2687 288.8657,78.3967 292.1727,75.0047 C295.5647,71.6997 299.4147,69.1337 303.7197,67.3057 C308.0257,65.4797 312.5707,64.5667 317.3547,64.5667 Z M386.1896,64.305 C389.5816,64.305 392.5596,64.828 395.1266,65.871 C397.6916,66.916 399.8446,68.285 401.5856,69.981 C403.3246,71.677 404.6296,73.592 405.4996,75.722 C406.3686,77.855 406.8046,80.007 406.8046,82.181 L397.6706,82.181 C397.5836,80.615 397.1916,79.291 396.4966,78.202 C395.7996,77.115 394.9086,76.224 393.8216,75.527 C392.7326,74.832 391.5156,74.31 390.1686,73.96 C388.8186,73.615 387.4936,73.439 386.1896,73.439 C382.2746,73.439 379.1856,74.462 376.9246,76.505 C374.6626,78.55 373.5326,81.268 373.5326,84.66 C373.5326,87.706 374.6626,89.945 376.9246,91.379 C379.1856,92.815 382.7966,94.273 387.7546,95.751 C390.2766,96.622 392.7776,97.492 395.2566,98.361 C397.570333,99.173 399.7142,100.363933 401.687387,101.932987 L402.1076,102.275 C406.7166,105.928 409.0226,110.755 409.0226,116.757 C409.0226,119.889 408.3706,122.629 407.0646,124.978 C405.7606,127.328 404.0646,129.329 401.9766,130.98 C399.8896,132.633 397.4956,133.872 394.8006,134.7 C392.1036,135.525 389.4066,135.939 386.7106,135.939 L386.024928,135.930625 C385.30685,135.913938 384.4916,135.8725 383.5796,135.808 C382.3606,135.72 381.0556,135.502 379.6656,135.156 C378.2726,134.807 376.8366,134.35 375.3586,133.786 C373.8786,133.219 372.4436,132.46 371.0536,131.502 C370.0956,130.807 369.0966,129.936 368.0526,128.893 C367.0086,127.849 366.0726,126.61 365.2476,125.174 C364.4186,123.739 363.7466,122.087 363.2246,120.215 C362.7026,118.346 362.4416,116.194 362.4416,113.757 L371.5756,113.757 C371.5756,118.369 373.1406,121.761 376.2726,123.934 C378.9676,125.849 382.4476,126.805 386.7106,126.805 C388.2766,126.805 389.8626,126.61 391.4736,126.218 C393.0826,125.827 394.4946,125.219 395.7136,124.391 C396.9316,123.566 397.9316,122.521 398.7146,121.259 C399.4976,120 399.8896,118.499 399.8896,116.757 C399.8896,114.845 399.3666,113.192 398.3236,111.799 C397.2796,110.41 395.9296,109.19 394.2786,108.146 C392.6256,107.103 390.7556,106.189 388.6686,105.407 C386.5806,104.624 384.4926,103.906 382.4046,103.253 C380.3176,102.601 378.3596,101.949 376.5336,101.296 C374.7066,100.644 373.1846,99.883 371.9666,99.013 C366.9206,95.535 364.3986,90.75 364.3986,84.66 C364.3986,81.529 365.0066,78.723 366.2256,76.245 C367.4426,73.765 369.0516,71.634 371.0536,69.851 C373.0536,68.069 375.3586,66.699 377.9686,65.741 C380.5786,64.785 383.3176,64.305 386.1896,64.305 Z M228.916,66.5151 C233.143619,65.1103381 237.529061,64.5128324 242.074054,64.722583 L242.757,64.7601 C247.488,64.9991 251.987,66.1941 256.258,68.3441 C260.322762,70.3945762 263.888658,73.0962995 266.94964,76.4484062 L267.405,76.9561 L220.793,118.0011 C223.207,120.7441 226.003,122.8311 229.177,124.2661 C232.354,125.7021 235.613,126.5091 238.962,126.6901 C242.309,126.8721 245.634,126.4381 248.937,125.3831 C252.239,124.3301 255.262,122.5941 258.004,120.1801 C260.80365,117.7139 262.944475,114.87948 264.446195,111.684556 L264.678,111.1771 L272.48,115.9281 L272.462,115.9671 C270.437,120.1841 267.63,123.8741 264.04,127.0361 C260.449,130.1981 256.417,132.5301 251.946,134.0331 C247.474,135.5371 242.907,136.1411 238.242,135.8431 C233.454,135.5391 228.967,134.3611 224.784,132.3071 C220.599,130.2551 216.928,127.4331 213.766,123.8411 C210.605,120.2521 208.255,116.2371 206.719,111.7921 C205.182,107.3511 204.597,102.7681 204.957,98.0441 C205.196,93.3141 206.343,88.8271 208.401,84.5801 C210.458,80.3351 213.281,76.6321 216.872,73.4701 C220.462,70.3091 224.478,67.9901 228.916,66.5151 Z M317.3547,73.6997 C313.7017,73.6997 310.2647,74.3967 307.0477,75.7877 C303.8277,77.1797 301.0227,79.0717 298.6317,81.4637 C296.2377,83.8567 294.3457,86.6827 292.9557,89.9447 C291.5627,93.2067 290.8677,96.6647 290.8677,100.3177 C290.8677,103.9707 291.5627,107.4087 292.9557,110.6257 C294.3457,113.8447 296.2377,116.6497 298.6317,119.0417 C301.0227,121.4347 303.8277,123.3267 307.0477,124.7177 C310.2647,126.1097 313.7017,126.8047 317.3547,126.8047 C321.0087,126.8047 324.4437,126.1097 327.6627,124.7177 C330.8797,123.3267 333.7077,121.4347 336.1447,119.0417 C338.5787,116.6497 340.4927,113.8447 341.8847,110.6257 C343.2757,107.4087 343.9727,103.9707 343.9727,100.3177 C343.9727,96.6647 343.2757,93.2067 341.8847,89.9447 C340.4927,86.6827 338.5787,83.8567 336.1447,81.4637 C333.7077,79.0717 330.8797,77.1797 327.6627,75.7877 C324.4437,74.3967 321.0087,73.6997 317.3547,73.6997 Z M253.34,77.1721 C248.453,74.5211 243.238,73.4361 237.692,73.9141 C232.144,74.3951 227.217,76.5311 222.908,80.3251 C220.754,82.2221 218.986,84.3601 217.601,86.7361 C216.218,89.1151 215.226,91.6091 214.63,94.2211 C214.032,96.8331 213.832,99.5031 214.029,102.2261 C214.210846,104.741485 214.736929,107.198928 215.608822,109.600004 L215.834,110.1991 L253.34,77.1721 Z" id="Shape" fill="#345CA7"></path>
        <path d="M248.3037,152.4256 C249.2427,152.4256 250.1327,152.5846 250.9757,152.9046 C251.8187,153.2246 252.5597,153.6996 253.2007,154.3286 C253.8397,154.9586 254.3467,155.7366 254.7197,156.6646 C255.0927,157.5936 255.2807,158.6646 255.2807,159.8806 L255.2807,160.2656 L243.1837,160.2656 C243.2267,161.0976 243.3977,161.8386 243.6967,162.4886 C243.9947,163.1406 244.3837,163.6996 244.8647,164.1686 C245.3437,164.6386 245.8877,164.9956 246.4967,165.2406 C247.1037,165.4866 247.7277,165.6086 248.3687,165.6086 C249.3287,165.6086 250.1707,165.4006 250.8957,164.9846 C251.6217,164.5686 252.2827,163.9556 252.8797,163.1446 L254.3517,164.3286 C253.7117,165.2676 252.8747,166.0036 251.8397,166.5366 C250.8047,167.0696 249.6487,167.3366 248.3687,167.3366 C247.3657,167.3366 246.4207,167.1556 245.5367,166.7926 C244.6507,166.4306 243.8767,165.9186 243.2157,165.2576 C242.5547,164.5966 242.0327,163.8066 241.6487,162.8896 C241.2637,161.9726 241.0727,160.9696 241.0727,159.8806 C241.0727,158.8996 241.2427,157.9556 241.5837,157.0496 C241.9247,156.1416 242.4157,155.3486 243.0557,154.6646 C243.6967,153.9816 244.4577,153.4376 245.3437,153.0326 C246.2287,152.6276 247.2157,152.4256 248.3037,152.4256 Z M318.7344,152.4256 C319.6734,152.4256 320.5634,152.5846 321.4064,152.9046 C322.2494,153.2246 322.9904,153.6996 323.6314,154.3286 C324.2704,154.9586 324.7774,155.7366 325.1504,156.6646 C325.5234,157.5936 325.7114,158.6646 325.7114,159.8806 L325.7114,160.2656 L313.6144,160.2656 C313.6574,161.0976 313.8284,161.8386 314.1274,162.4886 C314.4254,163.1406 314.8144,163.6996 315.2954,164.1686 C315.7744,164.6386 316.3184,164.9956 316.9274,165.2406 C317.5344,165.4866 318.1584,165.6086 318.7994,165.6086 C319.7594,165.6086 320.6014,165.4006 321.3264,164.9846 C322.0524,164.5686 322.7134,163.9556 323.3104,163.1446 L324.7824,164.3286 C324.1424,165.2676 323.3054,166.0036 322.2704,166.5366 C321.2354,167.0696 320.0794,167.3366 318.7994,167.3366 C317.7964,167.3366 316.8514,167.1556 315.9674,166.7926 C315.0814,166.4306 314.3074,165.9186 313.6464,165.2576 C312.9854,164.5966 312.4634,163.8066 312.0794,162.8896 C311.6944,161.9726 311.5034,160.9696 311.5034,159.8806 C311.5034,158.8996 311.6734,157.9556 312.0144,157.0496 C312.3554,156.1416 312.8464,155.3486 313.4864,154.6646 C314.1274,153.9816 314.8884,153.4376 315.7744,153.0326 C316.6594,152.6276 317.6464,152.4256 318.7344,152.4256 Z M335.5348,152.4254 C336.7288,152.4254 337.8118,152.6444 338.7828,153.0804 C339.7528,153.5184 340.5688,154.1424 341.2308,154.9524 L339.8228,156.3934 C339.3738,155.8174 338.7878,155.3004 338.0628,154.8414 C337.3368,154.3824 336.4948,154.1524 335.5348,154.1524 C334.7668,154.1524 334.0628,154.3084 333.4218,154.6164 C332.7828,154.9264 332.2388,155.3424 331.7898,155.8644 C331.3418,156.3884 330.9908,156.9954 330.7348,157.6894 C330.4788,158.3824 330.3508,159.1124 330.3508,159.8804 C330.3508,160.6924 330.4788,161.4434 330.7348,162.1374 C330.9908,162.8304 331.3478,163.4334 331.8068,163.9444 C332.2648,164.4564 332.8088,164.8624 333.4388,165.1604 C334.0678,165.4594 334.7668,165.6094 335.5348,165.6094 C336.4948,165.6094 337.3158,165.4014 337.9978,164.9844 C338.6808,164.5684 339.3208,163.9554 339.9178,163.1454 L341.3908,164.3284 C340.7498,165.2684 339.9348,166.0034 338.9428,166.5364 C337.9508,167.0694 336.8148,167.3364 335.5348,167.3364 C334.3818,167.3364 333.3588,167.1284 332.4618,166.7124 C331.5668,166.2964 330.8088,165.7424 330.1908,165.0494 C329.5718,164.3564 329.0968,163.5614 328.7668,162.6644 C328.4358,161.7694 328.2708,160.8414 328.2708,159.8804 C328.2708,158.9204 328.4408,157.9924 328.7828,157.0974 C329.1228,156.2004 329.6088,155.4064 330.2388,154.7124 C330.8678,154.0204 331.6298,153.4654 332.5268,153.0494 C333.4218,152.6334 334.4248,152.4254 335.5348,152.4254 Z M378.6698,143.752 C379.4588,143.752 380.2648,143.832 381.0858,143.993 C381.9078,144.153 382.6968,144.393 383.4548,144.712 C384.2108,145.033 384.9258,145.438 385.5978,145.929 C386.2698,146.419 386.8718,146.996 387.4068,147.657 L385.8378,148.937 C384.9418,147.849 383.8538,147.033 382.5748,146.489 C381.2938,145.945 379.9818,145.672 378.6378,145.672 C377.2298,145.672 375.9598,145.945 374.8308,146.489 C373.6998,147.033 372.7398,147.764 371.9508,148.681 C371.1608,149.598 370.5528,150.649 370.1258,151.832 C369.6998,153.017 369.4858,154.26 369.4858,155.561 C369.4858,156.863 369.6998,158.105 370.1258,159.289 C370.5528,160.473 371.1658,161.518 371.9658,162.425 C372.7658,163.332 373.7308,164.057 374.8628,164.601 C375.9928,165.145 377.2508,165.416 378.6378,165.416 C379.9818,165.416 381.2938,165.145 382.5748,164.601 C383.8538,164.057 384.9418,163.241 385.8378,162.153 L387.3418,163.401 C386.8088,164.062 386.2058,164.638 385.5348,165.128 C384.8628,165.62 384.1528,166.031 383.4068,166.361 C382.6598,166.692 381.8798,166.937 381.0698,167.097 C380.2588,167.257 379.4588,167.336 378.6698,167.336 C376.9418,167.336 375.3738,167.017 373.9658,166.376 C372.5578,165.737 371.3638,164.873 370.3818,163.785 C369.4008,162.697 368.6428,161.444 368.1098,160.025 C367.5768,158.606 367.3098,157.119 367.3098,155.561 C367.3098,154.003 367.5768,152.516 368.1098,151.097 C368.6428,149.678 369.4008,148.425 370.3818,147.336 C371.3638,146.248 372.5578,145.379 373.9658,144.729 C375.3738,144.079 376.9418,143.752 378.6698,143.752 Z M397.0695,152.4249 C398.2425,152.4249 399.2935,152.6329 400.2215,153.0489 C401.1495,153.4649 401.9275,154.0199 402.5575,154.7129 C403.1865,155.4069 403.6665,156.2009 403.9975,157.0969 C404.3285,157.9929 404.4935,158.9209 404.4935,159.8799 C404.4935,160.8409 404.3285,161.7689 403.9975,162.6649 C403.6665,163.5609 403.1865,164.3559 402.5575,165.0489 C401.9275,165.7429 401.1495,166.2959 400.2215,166.7129 C399.2935,167.1289 398.2425,167.3369 397.0695,167.3369 C395.8745,167.3369 394.8185,167.1289 393.9015,166.7129 C392.9835,166.2959 392.2105,165.7429 391.5815,165.0489 C390.9525,164.3559 390.4715,163.5609 390.1415,162.6649 C389.8105,161.7689 389.6455,160.8409 389.6455,159.8799 C389.6455,158.9209 389.8105,157.9929 390.1415,157.0969 C390.4715,156.2009 390.9525,155.4069 391.5815,154.7129 C392.2105,154.0199 392.9835,153.4649 393.9015,153.0489 C394.8185,152.6329 395.8745,152.4249 397.0695,152.4249 Z M408.462,164.2653 C408.889,164.2653 409.251,164.4143 409.55,164.7123 C409.849,165.0123 409.998,165.3743 409.998,165.8013 C409.998,166.2283 409.849,166.5903 409.55,166.8893 C409.251,167.1873 408.889,167.3363 408.462,167.3363 C408.035,167.3363 407.672,167.1873 407.374,166.8893 C407.075,166.5903 406.926,166.2283 406.926,165.8013 C406.926,165.3743 407.075,165.0123 407.374,164.7123 C407.672,164.4143 408.035,164.2653 408.462,164.2653 Z M228.0169,144.0731 L228.0169,154.4731 L228.0489,154.4731 C228.5179,153.8541 229.1309,153.3581 229.8889,152.9851 C230.6459,152.6121 231.5039,152.4251 232.4649,152.4251 C233.6589,152.4251 234.6289,152.6441 235.3759,153.0801 C236.1229,153.5181 236.6989,154.1211 237.1049,154.8891 C237.3389,155.3361 237.5149,155.8541 237.6329,156.4411 C237.7489,157.0281 237.8089,157.7901 237.8089,158.7291 L237.8089,167.0171 L235.7609,167.0171 L235.7609,158.7611 C235.7609,158.0791 235.7289,157.5181 235.6639,157.0801 C235.6009,156.6441 235.4829,156.2441 235.3129,155.8801 C235.0569,155.3691 234.6729,154.9531 234.1599,154.6331 C233.6489,154.3131 232.9769,154.1531 232.1449,154.1531 C231.3549,154.1531 230.6779,154.2961 230.1129,154.5841 C229.5469,154.8721 229.1049,155.2511 228.7839,155.7211 C228.5289,156.0831 228.3359,156.4951 228.2079,156.9531 C228.0799,157.4121 228.0169,157.9821 228.0169,158.6641 L228.0169,167.0171 L225.9689,167.0171 L225.9689,144.0731 L228.0169,144.0731 Z M295.2794,152.4251 C296.4734,152.4251 297.4434,152.6441 298.1904,153.0801 C298.9374,153.5181 299.5134,154.1211 299.9194,154.8891 C300.1534,155.3361 300.3294,155.8541 300.4474,156.4411 C300.5634,157.0281 300.6234,157.7901 300.6234,158.7291 L300.6234,167.0171 L298.5754,167.0171 L298.5754,158.7611 C298.5754,158.0791 298.5434,157.5181 298.4784,157.0801 C298.4154,156.6441 298.2974,156.2441 298.1274,155.8801 C297.8714,155.3691 297.4874,154.9531 296.9744,154.6331 C296.4634,154.3131 295.7914,154.1531 294.9594,154.1531 C294.1694,154.1531 293.4924,154.2961 292.9274,154.5841 C292.3614,154.8721 291.9194,155.2511 291.5984,155.7211 C291.3434,156.0831 291.1504,156.4951 291.0224,156.9531 C290.8944,157.4121 290.8314,157.9821 290.8314,158.6641 L290.8314,167.0171 L288.7834,167.0171 L288.7834,152.7451 L290.6714,152.7451 L290.7994,154.4731 L290.8634,154.4731 C291.3324,153.8541 291.9454,153.3581 292.7034,152.9851 C293.4604,152.6121 294.3184,152.4251 295.2794,152.4251 Z M307.1507,148.2652 L307.1507,152.7442 L310.6067,152.7442 L310.6067,154.4732 L307.1507,154.4732 L307.1507,167.0172 L305.1027,167.0172 L305.1027,154.4732 L302.9267,154.4732 L302.9267,152.7442 L305.1027,152.7442 L305.1027,148.2652 L307.1507,148.2652 Z M346.1908,144.0731 L346.1908,154.4731 L346.2228,154.4731 C346.6918,153.8541 347.3048,153.3581 348.0628,152.9851 C348.8198,152.6121 349.6778,152.4251 350.6388,152.4251 C351.8328,152.4251 352.8028,152.6441 353.5498,153.0801 C354.2968,153.5181 354.8728,154.1211 355.2788,154.8891 C355.5128,155.3361 355.6888,155.8541 355.8068,156.4411 C355.9228,157.0281 355.9828,157.7901 355.9828,158.7291 L355.9828,167.0171 L353.9348,167.0171 L353.9348,158.7611 C353.9348,158.0791 353.9028,157.5181 353.8378,157.0801 C353.7748,156.6441 353.6568,156.2441 353.4868,155.8801 C353.2308,155.3691 352.8468,154.9531 352.3338,154.6331 C351.8228,154.3131 351.1508,154.1531 350.3188,154.1531 C349.5288,154.1531 348.8518,154.2961 348.2868,154.5841 C347.7208,154.8721 347.2788,155.2511 346.9578,155.7211 C346.7028,156.0831 346.5098,156.4951 346.3818,156.9531 C346.2538,157.4121 346.1908,157.9821 346.1908,158.6641 L346.1908,167.0171 L344.1428,167.0171 L344.1428,144.0731 L346.1908,144.0731 Z M223.4729,144.0727 L223.4729,145.9927 L215.5689,145.9927 L215.5689,167.0167 L213.4249,167.0167 L213.4249,145.9927 L205.5209,145.9927 L205.5209,144.0727 L223.4729,144.0727 Z M280.0789,144.0727 L280.0789,145.9927 L269.1359,145.9927 L269.1359,154.5047 L277.6799,154.5047 L277.6799,156.4257 L269.1359,156.4257 L269.1359,167.0167 L266.9909,167.0167 L266.9909,144.0727 L280.0789,144.0727 Z M284.816,152.745 L284.816,167.017 L282.768,167.017 L282.768,152.745 L284.816,152.745 Z M397.0695,154.1529 C396.2375,154.1529 395.4965,154.3129 394.8455,154.6329 C394.1945,154.9529 393.6335,155.3799 393.1655,155.9129 C392.6955,156.4469 392.3385,157.0599 392.0925,157.7529 C391.8475,158.4469 391.7255,159.1559 391.7255,159.8799 C391.7255,160.6059 391.8475,161.3159 392.0925,162.0089 C392.3385,162.7029 392.6955,163.3159 393.1655,163.8489 C393.6335,164.3819 394.1945,164.8089 394.8455,165.1289 C395.4965,165.4489 396.2375,165.6089 397.0695,165.6089 C397.9015,165.6089 398.6425,165.4489 399.2935,165.1289 C399.9435,164.8089 400.5045,164.3819 400.9735,163.8489 C401.4425,163.3159 401.7995,162.7029 402.0455,162.0089 C402.2905,161.3159 402.4135,160.6059 402.4135,159.8799 C402.4135,159.1559 402.2905,158.4469 402.0455,157.7529 C401.7995,157.0599 401.4425,156.4469 400.9735,155.9129 C400.5045,155.3799 399.9435,154.9529 399.2935,154.6329 C398.6425,154.3129 397.9015,154.1529 397.0695,154.1529 Z M248.3037,154.1526 C247.5567,154.1526 246.8907,154.2866 246.3037,154.5536 C245.7167,154.8196 245.2057,155.1606 244.7677,155.5766 C244.3307,155.9926 243.9787,156.4626 243.7117,156.9846 C243.4457,157.5086 243.2807,158.0246 243.2157,158.5366 L253.1037,158.5366 C253.0607,157.8756 252.9067,157.2726 252.6397,156.7286 C252.3737,156.1846 252.0267,155.7216 251.5997,155.3366 C251.1727,154.9526 250.6767,154.6596 250.1127,154.4566 C249.5467,154.2546 248.9447,154.1526 248.3037,154.1526 Z M318.7344,154.1526 C317.9874,154.1526 317.3214,154.2866 316.7344,154.5536 C316.1474,154.8196 315.6364,155.1606 315.1984,155.5766 C314.7614,155.9926 314.4094,156.4626 314.1424,156.9846 C313.8764,157.5086 313.7114,158.0246 313.6464,158.5366 L323.5344,158.5366 C323.4914,157.8756 323.3374,157.2726 323.0704,156.7286 C322.8044,156.1846 322.4574,155.7216 322.0304,155.3366 C321.6034,154.9526 321.1074,154.6596 320.5434,154.4566 C319.9774,154.2546 319.3754,154.1526 318.7344,154.1526 Z M283.791,145 C284.196,145 284.543,145.145 284.831,145.433 C285.119,145.721 285.264,146.068 285.264,146.473 C285.264,146.878 285.119,147.225 284.831,147.513 C284.543,147.801 284.196,147.945 283.791,147.945 C283.386,147.945 283.039,147.801 282.751,147.513 C282.463,147.225 282.32,146.878 282.32,146.473 C282.32,146.068 282.463,145.721 282.751,145.433 C283.039,145.145 283.386,145 283.791,145 Z" id="Shape" fill="#345CA7"></path>
    </g>
</svg>