<?xml version="1.0" encoding="UTF-8"?> <svg xmlns="http://www.w3.org/2000/svg" fill="none" viewBox="0 0 185 50"><path fill="#111A44" d="M56.05 27.83c0 6.4 4.6 9.7 9.42 9.7 2.36 0 6.2-.78 8.3-2.26v2.7c-2.1 1.24-5.83 1.98-8.5 1.98-6.15 0-12.4-4.1-12.4-12.12 0-7.53 5.33-11.67 11.63-11.67 6.14 0 11.06 3.94 11.06 11.67H56.05zm.2-2.3H72.2c-.82-4.43-4-6.94-7.89-6.94-3.9 0-7.24 2.48-8.06 6.91v.03zM81.91 28.02c0-7.64 6.3-11.9 12.6-11.9s12.44 4.25 12.44 11.83c0 7.67-6.25 11.96-12.55 11.96-6.3 0-12.49-4.26-12.49-11.9zm12.5 9.5c4.66 0 9.37-3.4 9.37-9.5s-4.67-9.46-9.34-9.46c-4.66 0-9.37 3.4-9.37 9.46 0 6.06 4.68 9.5 9.33 9.5zM119.76 28.22c-3.53-1.73-6.66-3.5-6.2-7.3.36-2.9 2.51-4.77 6.97-4.77 2.05 0 4.71.38 6.81 1.68l-2 1.49c-1.23-.5-2.55-.76-3.88-.77-2.46-.05-4.4.45-4.71 2.51-.42 2.76 2.81 3.94 5.53 5.22 4.2 1.97 6.5 3.45 6.5 7.04 0 3.75-2.56 6.6-8.3 6.6-2.73.03-5.42-.69-7.77-2.07l2-1.5c1.68.77 3.52 1.16 5.37 1.15 4.3 0 5.74-2.12 5.74-4.19-.02-2.39-1.96-3.13-6.06-5.1zM143.38 39.44h-3.07V18.95h-4.92v-2.3h7.99v22.79zm-1.63-33.05a2.24 2.24 0 012.03 1.37 2.17 2.17 0 01-.52 2.38 2.23 2.23 0 01-2.42.45 2.22 2.22 0 01-1.35-2.04c.02-.58.27-1.13.69-1.53.42-.4.98-.63 1.56-.63zM152.02 28.02c0-7.64 6.3-11.9 12.6-11.9s12.44 4.25 12.44 11.83c0 7.67-6.25 11.96-12.55 11.96-6.3 0-12.49-4.26-12.49-11.9zm12.5 9.5c4.66 0 9.37-3.4 9.37-9.5s-4.67-9.46-9.34-9.46c-4.66 0-9.37 3.4-9.37 9.46 0 6.06 4.68 9.5 9.33 9.5zM28.98 16.1L17.02 0 5.06 16.1 0 39.93 17.01 50l17.01-10.08-5.04-23.81zM2.76 38.75l3.84-18.1 8.66 25.5-12.5-7.4zm5.02-22.22L17.02 4.1l9.23 12.42-9.23 27.18-9.24-27.18zm19.66 4.11l3.84 18.1-12.5 7.42 8.66-25.52zM179.67 36.76h-.98v-.34h2.34v.34h-.97v2.68h-.4v-2.68zM184.15 36.93l-1.05 2.52h-.15l-1.04-2.52v2.52h-.39v-3.03h.55l.95 2.3.95-2.3h.55v3.03h-.39l.02-2.52z"></path></svg> 