<?xml version="1.0" encoding="utf-8"?>
<!-- Generator: Adobe Illustrator 24.0.1, SVG Export Plug-In . SVG Version: 6.00 Build 0)  -->
<svg version="1.1" id="Layer_1" xmlns="http://www.w3.org/2000/svg" xmlns:xlink="http://www.w3.org/1999/xlink" x="0px" y="0px"
	 viewBox="0 0 277 71.3" style="enable-background:new 0 0 277 71.3;" xml:space="preserve">
<style type="text/css">
	.st0{fill:#00437A;}
	.st1{opacity:0.45;fill:#00437A;}
	.st2{opacity:0.75;fill:#00437A;}
	.st3{opacity:0.15;fill:#00437A;}
	.st4{opacity:0.9;fill:#00437A;}
	.st5{opacity:0.3;fill:#00437A;}
	.st6{opacity:0.6;fill:#00437A;}
</style>
<g>
	<path class="st0" d="M57.9,14.2h13.1v2.6H60.8v5.7h10V25h-10v6.1h10.2v2.6H57.9V14.2z"/>
	<path class="st0" d="M74.5,39V19.6h2.6v2c1-1.4,2.7-2.4,4.6-2.4c3.7,0,6.3,2.8,6.3,7.4S85.5,34,81.8,34c-1.8,0-3.5-0.8-4.6-2.4V39
		H74.5z M81.1,21.6c-1.6,0-3.2,0.9-3.9,2.1v6c0.7,1.1,2.3,2.1,3.9,2.1c2.6,0,4.2-2.1,4.2-5.1C85.3,23.7,83.7,21.6,81.1,21.6z"/>
	<path class="st0" d="M91,15.5c0-0.9,0.8-1.7,1.7-1.7c0.9,0,1.7,0.8,1.7,1.7s-0.8,1.7-1.7,1.7C91.8,17.2,91,16.5,91,15.5z
		 M91.4,19.6H94v14.1h-2.6V19.6z"/>
	<path class="st0" d="M108.2,31.7c-1.1,1.4-2.7,2.4-4.6,2.4c-3.7,0-6.3-2.8-6.3-7.4c0-4.5,2.6-7.4,6.3-7.4c1.8,0,3.5,0.9,4.6,2.4
		v-7.4h2.6v19.5h-2.6V31.7z M108.2,23.6c-0.7-1.1-2.3-2.1-3.9-2.1c-2.6,0-4.3,2.1-4.3,5.1c0,2.9,1.6,5.1,4.3,5.1
		c1.6,0,3.2-0.9,3.9-2V23.6z"/>
	<path class="st0" d="M123.8,32.1c-1.1,1.2-2.7,1.9-4.6,1.9c-2.3,0-4.9-1.6-4.9-4.7c0-3.2,2.5-4.6,4.9-4.6c1.9,0,3.5,0.6,4.6,1.9
		v-2.3c0-1.8-1.4-2.8-3.4-2.8c-1.6,0-3,0.6-4.2,1.9l-1.1-1.8c1.6-1.5,3.5-2.3,5.8-2.3c3.1,0,5.7,1.3,5.7,4.9v9.5h-2.6V32.1z
		 M123.8,28.2c-0.8-1.1-2.2-1.6-3.6-1.6c-1.9,0-3.2,1.1-3.2,2.8c0,1.7,1.3,2.8,3.2,2.8c1.5,0,2.8-0.6,3.6-1.6V28.2z"/>
	<path class="st0" d="M140.1,31.7c-1.1,1.2-2.9,2.3-5,2.3c-3,0-4.5-1.5-4.5-4.5v-10h2.6v9.1c0,2.3,1.2,3,3,3c1.6,0,3.1-0.9,3.9-2
		V19.6h2.6v14.1h-2.6V31.7z"/>
	<path class="st0" d="M146.9,19.6h2.6v2.2c1.1-1.4,2.7-2.5,4.6-2.5v2.7c-0.3-0.1-0.6-0.1-0.9-0.1c-1.3,0-3.1,1-3.7,2v9.8h-2.6V19.6z
		"/>
	<path class="st0" d="M166.3,31.7c-1.1,1.2-2.9,2.3-5,2.3c-3,0-4.5-1.5-4.5-4.5v-10h2.6v9.1c0,2.3,1.2,3,3,3c1.6,0,3.1-0.9,3.9-2
		V19.6h2.6v14.1h-2.6V31.7z"/>
	<path class="st0" d="M173.1,29.9c1,1.1,2.8,2,4.7,2c2,0,3-0.8,3-2c0-1.4-1.6-1.9-3.4-2.3c-2.4-0.6-5.2-1.2-5.2-4.2
		c0-2.2,1.9-4.2,5.4-4.2c2.4,0,4.2,0.9,5.4,2l-1.2,1.8c-0.8-1-2.4-1.7-4.2-1.7c-1.8,0-2.9,0.7-2.9,1.8c0,1.2,1.5,1.6,3.3,2
		c2.5,0.6,5.4,1.2,5.4,4.5c0,2.4-2,4.3-5.7,4.3c-2.4,0-4.4-0.7-5.9-2.2L173.1,29.9z"/>
	<path class="st0" d="M208.1,25h-10.8v8.7h-2.9V14.2h2.9v8.2h10.8v-8.2h2.9v19.5h-2.9V25z"/>
	<path class="st0" d="M221.4,19.2c4.2,0,6.9,3.3,6.9,7.6v0.6h-11.2c0.2,2.4,2,4.4,4.8,4.4c1.5,0,3.1-0.6,4.2-1.7l1.2,1.7
		c-1.4,1.4-3.4,2.1-5.7,2.1c-4.2,0-7.3-3-7.3-7.4C214.4,22.5,217.3,19.2,221.4,19.2z M217.1,25.6h8.6c-0.1-1.9-1.3-4.2-4.3-4.2
		C218.6,21.4,217.3,23.7,217.1,25.6z"/>
	<path class="st0" d="M240.3,32.1c-1.1,1.2-2.7,1.9-4.6,1.9c-2.3,0-4.9-1.6-4.9-4.7c0-3.2,2.5-4.6,4.9-4.6c1.9,0,3.5,0.6,4.6,1.9
		v-2.3c0-1.8-1.4-2.8-3.4-2.8c-1.6,0-3,0.6-4.2,1.9l-1.1-1.8c1.6-1.5,3.5-2.3,5.8-2.3c3.1,0,5.7,1.3,5.7,4.9v9.5h-2.6V32.1z
		 M240.3,28.2c-0.8-1.1-2.2-1.6-3.6-1.6c-1.9,0-3.2,1.1-3.2,2.8c0,1.7,1.3,2.8,3.2,2.8c1.5,0,2.8-0.6,3.6-1.6V28.2z"/>
	<path class="st0" d="M247.1,14.2h2.6v19.5h-2.6V14.2z"/>
	<path class="st0" d="M254.5,30.6v-8.7h-2.3v-2.3h2.3v-3.9h2.6v3.9h2.9v2.3h-2.9V30c0,1,0.5,1.7,1.4,1.7c0.6,0,1.2-0.3,1.4-0.6
		l0.7,2c-0.6,0.5-1.4,0.9-2.7,0.9C255.6,34,254.5,32.8,254.5,30.6z"/>
	<path class="st0" d="M272.4,24.6c0-2.3-1.2-3-3-3c-1.6,0-3.1,1-3.9,2v10.1h-2.6V14.2h2.6v7.4c0.9-1.1,2.8-2.3,5-2.3
		c3,0,4.5,1.5,4.5,4.5v10h-2.6V24.6z"/>
</g>
<g>
	<path class="st0" d="M57.9,47c0-2.9,2.1-4.9,4.8-4.9c1.7,0,2.9,0.8,3.6,1.9l-1,0.5c-0.5-0.8-1.5-1.4-2.6-1.4c-2,0-3.6,1.6-3.6,3.8
		c0,2.2,1.6,3.8,3.6,3.8c1.1,0,2.1-0.6,2.6-1.4l1,0.5c-0.8,1.1-1.9,1.9-3.6,1.9C60,51.8,57.9,49.9,57.9,47z"/>
	<path class="st0" d="M67.2,48.2c0-2,1.3-3.6,3.4-3.6c2.1,0,3.4,1.6,3.4,3.6c0,2-1.3,3.6-3.4,3.6C68.5,51.8,67.2,50.2,67.2,48.2z
		 M72.8,48.2c0-1.4-0.8-2.6-2.3-2.6c-1.4,0-2.3,1.2-2.3,2.6c0,1.4,0.8,2.6,2.3,2.6C72,50.9,72.8,49.6,72.8,48.2z"/>
	<path class="st0" d="M75.1,48.2c0-2,1.3-3.6,3.4-3.6c2.1,0,3.4,1.6,3.4,3.6c0,2-1.3,3.6-3.4,3.6C76.4,51.8,75.1,50.2,75.1,48.2z
		 M80.7,48.2c0-1.4-0.8-2.6-2.3-2.6c-1.4,0-2.3,1.2-2.3,2.6c0,1.4,0.8,2.6,2.3,2.6C79.9,50.9,80.7,49.6,80.7,48.2z"/>
	<path class="st0" d="M83.4,44.9h1.1V46c0.5-0.7,1.3-1.2,2.3-1.2v1.1c-0.1,0-0.3,0-0.4,0c-0.6,0-1.5,0.5-1.8,1.1v4.8h-1.1V44.9z"/>
	<path class="st0" d="M92.7,50.6c-0.5,0.7-1.3,1.2-2.3,1.2c-1.8,0-3-1.4-3-3.6c0-2.2,1.2-3.6,3-3.6c0.9,0,1.7,0.5,2.3,1.2v-3.6h1.1
		v9.4h-1.1V50.6z M92.7,46.7c-0.4-0.6-1.2-1.1-2-1.1c-1.4,0-2.2,1.1-2.2,2.6c0,1.5,0.8,2.6,2.2,2.6c0.8,0,1.7-0.5,2-1.1V46.7z"/>
	<path class="st0" d="M95.5,43c0-0.4,0.3-0.7,0.7-0.7c0.4,0,0.7,0.3,0.7,0.7c0,0.4-0.3,0.7-0.7,0.7C95.8,43.7,95.5,43.4,95.5,43z
		 M95.7,44.9h1.1v6.8h-1.1V44.9z"/>
	<path class="st0" d="M103.2,47.2c0-1.2-0.6-1.6-1.5-1.6c-0.8,0-1.6,0.5-2,1.1v5h-1.1v-6.8h1.1v1c0.5-0.6,1.4-1.2,2.4-1.2
		c1.4,0,2.2,0.7,2.2,2.2v4.8h-1.1V47.2z"/>
	<path class="st0" d="M110.4,50.9c-0.6,0.6-1.3,0.9-2.3,0.9c-1.2,0-2.4-0.8-2.4-2.3c0-1.5,1.2-2.2,2.4-2.2c0.9,0,1.7,0.3,2.3,0.9V47
		c0-0.9-0.7-1.4-1.7-1.4c-0.8,0-1.5,0.3-2.1,0.9l-0.5-0.7c0.7-0.8,1.6-1.1,2.7-1.1c1.4,0,2.6,0.6,2.6,2.3v4.7h-1.1V50.9z
		 M110.4,48.9c-0.4-0.6-1.1-0.8-1.9-0.8c-1,0-1.7,0.6-1.7,1.5c0,0.9,0.7,1.5,1.7,1.5c0.7,0,1.5-0.3,1.9-0.8V48.9z"/>
	<path class="st0" d="M113.6,50.2v-4.4h-1.1v-0.9h1.1V43h1.1v1.9h1.4v0.9h-1.4V50c0,0.5,0.2,0.9,0.7,0.9c0.3,0,0.6-0.1,0.7-0.3
		l0.3,0.8c-0.3,0.3-0.6,0.4-1.3,0.4C114.1,51.8,113.6,51.2,113.6,50.2z"/>
	<path class="st0" d="M120.1,44.7c2.1,0,3.3,1.6,3.3,3.6v0.3h-5.5c0.1,1.3,1,2.3,2.4,2.3c0.8,0,1.6-0.3,2.1-0.9l0.5,0.7
		c-0.7,0.7-1.6,1-2.7,1c-2,0-3.5-1.4-3.5-3.6C116.8,46.3,118.2,44.7,120.1,44.7z M117.9,47.8h4.5c0-1-0.7-2.3-2.2-2.3
		C118.7,45.6,117.9,46.8,117.9,47.8z"/>
	<path class="st0" d="M129.9,50.6c-0.5,0.7-1.3,1.2-2.3,1.2c-1.8,0-3-1.4-3-3.6c0-2.2,1.2-3.6,3-3.6c0.9,0,1.7,0.5,2.3,1.2v-3.6h1.1
		v9.4h-1.1V50.6z M129.9,46.7c-0.4-0.6-1.2-1.1-2-1.1c-1.4,0-2.2,1.1-2.2,2.6c0,1.5,0.8,2.6,2.2,2.6c0.8,0,1.7-0.5,2-1.1V46.7z"/>
	<path class="st0" d="M136.3,47c0-2.9,2.1-4.9,4.8-4.9c1.7,0,2.9,0.8,3.6,1.9l-1,0.5c-0.5-0.8-1.5-1.4-2.6-1.4c-2,0-3.6,1.6-3.6,3.8
		c0,2.2,1.6,3.8,3.6,3.8c1.1,0,2.1-0.6,2.6-1.4l1,0.5c-0.8,1.1-1.9,1.9-3.6,1.9C138.4,51.8,136.3,49.9,136.3,47z"/>
	<path class="st0" d="M150.4,50.9c-0.6,0.6-1.3,0.9-2.3,0.9c-1.2,0-2.4-0.8-2.4-2.3c0-1.5,1.2-2.2,2.4-2.2c0.9,0,1.7,0.3,2.3,0.9V47
		c0-0.9-0.7-1.4-1.7-1.4c-0.8,0-1.5,0.3-2.1,0.9l-0.5-0.7c0.7-0.8,1.6-1.1,2.7-1.1c1.4,0,2.6,0.6,2.6,2.3v4.7h-1.1V50.9z
		 M150.4,48.9c-0.4-0.6-1.1-0.8-1.9-0.8c-1,0-1.7,0.6-1.7,1.5c0,0.9,0.7,1.5,1.7,1.5c0.7,0,1.5-0.3,1.9-0.8V48.9z"/>
	<path class="st0" d="M153.4,44.9h1.1V46c0.5-0.7,1.3-1.2,2.3-1.2v1.1c-0.1,0-0.3,0-0.4,0c-0.6,0-1.5,0.5-1.8,1.1v4.8h-1.1V44.9z"/>
	<path class="st0" d="M160.7,44.7c2.1,0,3.3,1.6,3.3,3.6v0.3h-5.5c0.1,1.3,1,2.3,2.4,2.3c0.8,0,1.6-0.3,2.1-0.9l0.5,0.7
		c-0.7,0.7-1.6,1-2.7,1c-2,0-3.5-1.4-3.5-3.6C157.3,46.3,158.7,44.7,160.7,44.7z M158.4,47.8h4.5c0-1-0.7-2.3-2.2-2.3
		C159.2,45.6,158.5,46.8,158.4,47.8z"/>
	<path class="st0" d="M165,53c0.5-0.3,0.9-0.8,0.9-1.3c0,0-0.1,0-0.2,0c-0.4,0-0.7-0.3-0.7-0.7c0-0.4,0.3-0.8,0.7-0.8
		c0.5,0,0.9,0.4,0.9,1.1c0,0.9-0.5,1.7-1.2,2.1L165,53z"/>
	<path class="st0" d="M172.3,49.4c0.6,0.7,1.6,1.3,3,1.3c1.7,0,2.2-0.9,2.2-1.6c0-1.1-1.1-1.4-2.4-1.8c-1.5-0.4-3.2-0.8-3.2-2.7
		c0-1.5,1.4-2.6,3.2-2.6c1.4,0,2.5,0.5,3.3,1.3l-0.7,0.9c-0.7-0.8-1.7-1.1-2.7-1.1c-1.1,0-1.9,0.6-1.9,1.5c0,0.9,1.1,1.2,2.3,1.5
		c1.5,0.4,3.3,0.9,3.3,2.9c0,1.4-0.9,2.8-3.5,2.8c-1.6,0-2.8-0.6-3.6-1.5L172.3,49.4z"/>
	<path class="st0" d="M184.8,50.7c-0.5,0.6-1.4,1.1-2.4,1.1c-1.4,0-2.2-0.7-2.2-2.2v-4.8h1.1v4.5c0,1.2,0.6,1.5,1.5,1.5
		c0.8,0,1.6-0.5,2-1v-5h1.1v6.8h-1.1V50.7z"/>
	<path class="st0" d="M187.8,54.2v-9.4h1.1v1c0.5-0.7,1.3-1.2,2.3-1.2c1.8,0,3,1.4,3,3.6c0,2.2-1.2,3.6-3,3.6
		c-0.9,0-1.7-0.4-2.3-1.2v3.6H187.8z M190.9,45.6c-0.8,0-1.7,0.5-2,1.1v3.1c0.4,0.6,1.2,1.1,2,1.1c1.4,0,2.2-1.1,2.2-2.6
		C193,46.7,192.2,45.6,190.9,45.6z"/>
	<path class="st0" d="M198.7,44.7c2.1,0,3.3,1.6,3.3,3.6v0.3h-5.5c0.1,1.3,1,2.3,2.4,2.3c0.8,0,1.6-0.3,2.1-0.9l0.5,0.7
		c-0.7,0.7-1.6,1-2.7,1c-2,0-3.5-1.4-3.5-3.6C195.3,46.3,196.7,44.7,198.7,44.7z M196.4,47.8h4.5c0-1-0.7-2.3-2.2-2.3
		C197.2,45.6,196.5,46.8,196.4,47.8z"/>
	<path class="st0" d="M203.5,44.9h1.1V46c0.5-0.7,1.3-1.2,2.3-1.2v1.1c-0.1,0-0.3,0-0.4,0c-0.6,0-1.5,0.5-1.8,1.1v4.8h-1.1V44.9z"/>
	<path class="st0" d="M207.7,43c0-0.4,0.3-0.7,0.7-0.7c0.4,0,0.7,0.3,0.7,0.7c0,0.4-0.3,0.7-0.7,0.7C208.1,43.7,207.7,43.4,207.7,43
		z M207.9,44.9h1.1v6.8h-1.1V44.9z"/>
	<path class="st0" d="M210.5,48.2c0-2,1.3-3.6,3.4-3.6c2.1,0,3.4,1.6,3.4,3.6c0,2-1.3,3.6-3.4,3.6C211.8,51.8,210.5,50.2,210.5,48.2
		z M216.1,48.2c0-1.4-0.8-2.6-2.3-2.6c-1.4,0-2.3,1.2-2.3,2.6c0,1.4,0.8,2.6,2.3,2.6C215.3,50.9,216.1,49.6,216.1,48.2z"/>
	<path class="st0" d="M218.7,44.9h1.1V46c0.5-0.7,1.3-1.2,2.3-1.2v1.1c-0.1,0-0.3,0-0.4,0c-0.6,0-1.5,0.5-1.8,1.1v4.8h-1.1V44.9z"/>
	<path class="st0" d="M227.2,49.4c0.6,0.7,1.6,1.3,3,1.3c1.7,0,2.2-0.9,2.2-1.6c0-1.1-1.1-1.4-2.4-1.8c-1.5-0.4-3.2-0.8-3.2-2.7
		c0-1.5,1.4-2.6,3.2-2.6c1.4,0,2.5,0.5,3.3,1.3l-0.7,0.9c-0.7-0.8-1.7-1.1-2.7-1.1c-1.1,0-1.9,0.6-1.9,1.5c0,0.9,1.1,1.2,2.3,1.5
		c1.5,0.4,3.3,0.9,3.3,2.9c0,1.4-0.9,2.8-3.5,2.8c-1.6,0-2.8-0.6-3.6-1.5L227.2,49.4z"/>
	<path class="st0" d="M238.1,44.7c2.1,0,3.3,1.6,3.3,3.6v0.3h-5.5c0.1,1.3,1,2.3,2.4,2.3c0.8,0,1.6-0.3,2.1-0.9l0.5,0.7
		c-0.7,0.7-1.6,1-2.7,1c-2,0-3.5-1.4-3.5-3.6C234.7,46.3,236.1,44.7,238.1,44.7z M235.8,47.8h4.5c0-1-0.7-2.3-2.2-2.3
		C236.6,45.6,235.9,46.8,235.8,47.8z"/>
	<path class="st0" d="M245.9,44.7c1.2,0,2,0.5,2.5,1.2l-0.7,0.6c-0.5-0.6-1-0.9-1.7-0.9c-1.4,0-2.3,1.1-2.3,2.6
		c0,1.5,0.9,2.6,2.3,2.6c0.7,0,1.3-0.3,1.7-0.9l0.7,0.6c-0.5,0.7-1.3,1.2-2.5,1.2c-2,0-3.4-1.5-3.4-3.6
		C242.5,46.2,243.9,44.7,245.9,44.7z"/>
	<path class="st0" d="M254.2,50.7c-0.5,0.6-1.4,1.1-2.4,1.1c-1.4,0-2.2-0.7-2.2-2.2v-4.8h1.1v4.5c0,1.2,0.6,1.5,1.5,1.5
		c0.8,0,1.6-0.5,2-1v-5h1.1v6.8h-1.1V50.7z"/>
	<path class="st0" d="M257.2,44.9h1.1V46c0.5-0.7,1.3-1.2,2.3-1.2v1.1c-0.1,0-0.3,0-0.4,0c-0.6,0-1.5,0.5-1.8,1.1v4.8h-1.1V44.9z"/>
	<path class="st0" d="M261.5,43c0-0.4,0.3-0.7,0.7-0.7c0.4,0,0.7,0.3,0.7,0.7c0,0.4-0.3,0.7-0.7,0.7C261.8,43.7,261.5,43.4,261.5,43
		z M261.6,44.9h1.1v6.8h-1.1V44.9z"/>
	<path class="st0" d="M264.9,50.2v-4.4h-1.1v-0.9h1.1V43h1.1v1.9h1.4v0.9H266V50c0,0.5,0.2,0.9,0.7,0.9c0.3,0,0.6-0.1,0.7-0.3
		l0.3,0.8c-0.3,0.3-0.6,0.4-1.3,0.4C265.4,51.8,264.9,51.2,264.9,50.2z"/>
	<path class="st0" d="M269.5,53.5c0.5,0,0.8-0.2,1-0.7l0.5-1l-2.8-6.9h1.1l2.3,5.6l2.3-5.6h1.2l-3.4,8.2c-0.4,1-1.1,1.4-2,1.4
		c-0.2,0-0.6,0-0.8-0.1l0.2-1C269,53.4,269.3,53.5,269.5,53.5z"/>
</g>
<path class="st0" d="M36.4,19.4c2.5,0,4.9,0.6,7,1.6l3.4-7.1c-3.2-1.5-6.7-2.3-10.4-2.4V19.4z"/>
<path class="st0" d="M22.4,25.8c1.5-1.8,3.4-3.4,5.6-4.5l-3.4-7.1c-3.2,1.6-6.1,3.9-8.3,6.7L22.4,25.8z"/>
<path class="st1" d="M22.4,48.5l-6.1,4.9c2.3,2.8,5.1,5,8.3,6.6l3.4-7.1C25.9,51.8,24,50.3,22.4,48.5z"/>
<path class="st2" d="M18.3,37.1c0-1.2,0.1-2.4,0.4-3.6l-7.6-1.7c-0.4,1.7-0.6,3.5-0.6,5.3c0,1.8,0.2,3.6,0.6,5.3l7.6-1.7
	C18.5,39.6,18.3,38.4,18.3,37.1z"/>
<path class="st3" d="M43.4,53.2c-2.1,1-4.5,1.6-7,1.6v7.8c3.7-0.1,7.3-0.9,10.4-2.4L43.4,53.2z"/>
<path class="st4" d="M18.9,32.9c0.6-2.4,1.7-4.6,3.1-6.5l-6.1-4.9c-2.2,2.8-3.8,6.1-4.6,9.6L18.9,32.9z"/>
<path class="st0" d="M28.7,21c2.1-1,4.5-1.6,7-1.6v-7.8c-3.7,0.1-7.3,0.9-10.4,2.4L28.7,21z"/>
<path class="st5" d="M35.7,54.8c-2.5,0-4.9-0.6-7-1.6l-3.4,7.1c3.2,1.5,6.7,2.3,10.4,2.4V54.8z"/>
<path class="st6" d="M22,47.9c-1.4-1.9-2.5-4.1-3.1-6.5l-7.6,1.7c0.9,3.5,2.5,6.8,4.6,9.6L22,47.9z"/>
<path class="st0" d="M36,64C20.9,64,8.7,51.7,8.7,36.6S20.9,9.3,36,9.3V3C17.5,3,2.4,18.1,2.4,36.6S17.5,70.3,36,70.3V64z"/>
<path class="st0" d="M36.1,22.8c-7.9,0-14.3,6.4-14.3,14.3c0,7.9,6.4,14.3,14.3,14.3s14.3-6.4,14.3-14.3
	C50.4,29.2,44,22.8,36.1,22.8z M36.1,49.6c-6.9,0-12.4-5.6-12.4-12.4s5.6-12.4,12.4-12.4s12.4,5.6,12.4,12.4S43,49.6,36.1,49.6z"/>
<path class="st0" d="M36,46.5l-0.1,1.9c-0.1,0.2-0.3,0.3-0.6,0.2l-0.1-1.8C35.4,46.7,35.7,46.7,36,46.5L36,46.5z"/>
<path class="st0" d="M35.9,39.6c-0.2,0.1-0.5,0.3-0.7,0.4l0,0.8l0,3.3h0l0,1.3c0,0,0.1,0,0.1,0c0.2-0.1,0.5-0.2,0.7-0.4l0-0.9l0,0
	l0-2.8l0-1.8C36,39.5,35.9,39.6,35.9,39.6z"/>
<path class="st0" d="M36.1,29.6c-0.4,0-0.7,0.1-1,0.2l0,2.5l0,2.4c0,0,0,0,0,0l0,3.1c0,0,0,0,0.1,0c0.3-0.2,0.6-0.3,0.9-0.5l0-0.6
	l0.1-5.3l0,0L36.1,29.6C36.1,29.6,36.1,29.6,36.1,29.6z"/>
<path class="st0" d="M35.1,26.2c0,0,0,0.1,0,0.1c0,0.1,0,1.6,0,1.6c0.3-0.1,0.7-0.1,1.1-0.1c0,0,0.1,0,0.1,0c0,0,0-1.7,0-1.8
	c0-0.1-0.1-0.1-0.1-0.1C36.1,26,35.1,26.2,35.1,26.2z"/>
<path class="st0" d="M37.5,44.8c-0.2,0.6-1.2,1-1.9,1.4c-0.6,0.4-1,0.5-1.3,0.7c-0.4,0.2-0.6-0.1-0.2-0.4c0.5-0.3,1.8-1,2.2-1.4
	c0.5-0.4,0.5-1.1,0-1.5c-0.1,0,0-0.9,0-1.1c0,0,0,0,0,0c0.3,0.1,0.5,0.3,0.7,0.4C37.5,43.4,37.7,44.2,37.5,44.8z"/>
<path class="st0" d="M36.5,33.2L36.5,33.2c0,0-0.1,0-0.1-0.1c0,0.3,0,0.7,0,1c0,0.2,0,0.5,0,0.7c0,0.1,0,0.1,0,0.2
	c0,0.1,0.1,0.1,0.1,0.2c0.5,0.6,0.4,1.5-0.2,2.1c-0.4,0.4-1,0.6-1.5,0.9c-0.9,0.5-1.6,1.3-1.6,2.4c0,1.1,0.7,2,1.7,2.4
	c0-0.2,0-0.5,0-0.7c0-0.1,0-0.3,0-0.4c0-0.2-0.2-0.2-0.3-0.4c-0.3-0.5-0.2-1.1,0.1-1.6c0.4-0.5,2.3-1.4,2.8-1.7
	c0.4-0.3,0.7-0.8,0.8-1.2c0.3-0.9,0.1-2-0.5-2.8C37.5,33.8,37,33.5,36.5,33.2z"/>
<path class="st0" d="M38.2,28.2c-0.2-0.1-0.5,0-0.9,0.1c-0.9-0.2-1.8-0.2-2.6,0c-0.1,0-0.3,0.1-0.4,0.1c-0.1,0-0.3,0.1-0.4,0.2
	c-0.3,0.1-0.5,0.3-0.7,0.5c-0.4,0.3-0.8,0.8-0.9,1.3c-0.3,0.9-0.1,2.1,0.5,2.8c0.5,0.6,1.3,0.9,2,1.2c0-0.5,0-0.9,0-1.4
	c0-0.1,0-0.2,0-0.3c0-0.1-0.2-0.1-0.3-0.2c-0.4-0.2-0.6-0.4-0.8-0.8c-0.1-0.4-0.1-0.8,0-1.2c0.2-0.4,0.6-0.7,1-0.8
	c0.6-0.3,1.3-0.3,2-0.2c0.1,0.2,0.3,0.4,0.8,0.5c0.6,0.2,1.7,0.4,2.2,0.3c0.2-0.1,0.4-0.5,0.4-0.6C40.1,29.3,38.8,28.4,38.2,28.2z
	 M38.8,29c0,0.1-0.3,0.1-0.4,0c-0.2-0.1-0.3-0.3-0.2-0.4c0-0.1,0.2,0,0.4,0.1C38.7,28.8,38.9,28.9,38.8,29z"/>
</svg>
