<?xml version="1.0" encoding="UTF-8" standalone="no"?>
<!-- Created with Inkscape (http://www.inkscape.org/) -->

<svg
   xmlns:dc="http://purl.org/dc/elements/1.1/"
   xmlns:cc="http://creativecommons.org/ns#"
   xmlns:rdf="http://www.w3.org/1999/02/22-rdf-syntax-ns#"
   xmlns:svg="http://www.w3.org/2000/svg"
   xmlns="http://www.w3.org/2000/svg"
   xmlns:sodipodi="http://sodipodi.sourceforge.net/DTD/sodipodi-0.dtd"
   xmlns:inkscape="http://www.inkscape.org/namespaces/inkscape"
   width="4096mm"
   height="4096mm"
   viewBox="0 0 4096 4096"
   version="1.1"
   id="svg1562"
   inkscape:version="0.92.4 (5da689c313, 2019-01-14)"
   sodipodi:docname="equinix-logo.svg"
   inkscape:export-filename="C:\Users\suitedoalex\sites\equinix-logo-0.png"
   inkscape:export-xdpi="25.4"
   inkscape:export-ydpi="25.4">
  <defs
     id="defs1556" />
  <sodipodi:namedview
     id="base"
     pagecolor="#ffffff"
     bordercolor="#666666"
     borderopacity="1.0"
     inkscape:pageopacity="0.0"
     inkscape:pageshadow="2"
     inkscape:zoom="0.01"
     inkscape:cx="6884.3069"
     inkscape:cy="512.83498"
     inkscape:document-units="mm"
     inkscape:current-layer="layer1"
     showgrid="false"
     inkscape:window-width="1600"
     inkscape:window-height="837"
     inkscape:window-x="-8"
     inkscape:window-y="-8"
     inkscape:window-maximized="1" />
  <metadata
     id="metadata1559">
    <rdf:RDF>
      <cc:Work
         rdf:about="">
        <dc:format>image/svg+xml</dc:format>
        <dc:type
           rdf:resource="http://purl.org/dc/dcmitype/StillImage" />
        <dc:title></dc:title>
      </cc:Work>
    </rdf:RDF>
  </metadata>
  <g
     inkscape:label="Layer 1"
     inkscape:groupmode="layer"
     id="layer1"
     transform="translate(0,3799)">
    <path
       d="m 2074.9673,-2550.0234 -141.3779,47.8613 v 720.7835 l -94.3595,-31.9509 v -656.7188 l -282.7546,95.9187 v 464.9145 l -94.2619,-31.9507 v -401.0452 l -94.4247,32.0484 v 434.0674 l 282.9494,95.9187 v -528.8826 l 94.3274,-32.0483 v 592.7842 l 282.7546,95.9831 v -784.6529 l 47.1472,-15.9437 47.1148,15.9437 v 784.6529 l 282.9488,-95.9831 v -592.7842 l 94.1654,32.0483 v 528.8826 l 282.9165,-95.9187 v -434.0674 l -94.3273,-32.0484 v 401.0452 l -94.1644,31.9507 v -464.9145 l -283.0473,-95.9187 v 656.7188 l -94.2298,31.9509 v -720.7835 z"
       style="fill:#e81e26;fill-opacity:1;fill-rule:nonzero;stroke:none;stroke-width:32.47065353"
       id="path196"
       inkscape:connector-curvature="0"
       inkscape:export-filename="C:\Users\suitedoalex\sites\equinix-logo-5.png"
       inkscape:export-xdpi="2.9849551"
       inkscape:export-ydpi="2.9849551" />
    <path
       d="m 346.13181,-1314.8072 v 337.49978 h 309.99735 v -43.60798 H 396.91597 v -109.8152 h 167.80826 v -44.258 H 396.91597 v -95.5607 h 250.28379 v -44.2579 z"
       style="fill:#231f20;fill-opacity:1;fill-rule:nonzero;stroke:none;stroke-width:32.47065353"
       id="path212"
       inkscape:connector-curvature="0"
       inkscape:export-filename="C:\Users\suitedoalex\sites\equinix-logo-5.png"
       inkscape:export-xdpi="2.9849551"
       inkscape:export-ydpi="2.9849551" />
    <path
       d="m 1720.7772,-1111.7681 c 0,60.2981 -41.0427,100.0422 -101.9908,100.0422 -59.2589,0 -96.1773,-40.2964 -96.1773,-100.0422 v -202.1297 h -50.3621 v 204.4353 c 0,91.8588 68.4808,142.02667 146.1824,142.02667 114.7838,0 152.2231,-76.14427 152.2231,-142.02667 v -204.4353 h -49.8753 z"
       style="fill:#231f20;fill-opacity:1;fill-rule:nonzero;stroke:none;stroke-width:32.47065353"
       id="path228"
       inkscape:connector-curvature="0"
       inkscape:export-filename="C:\Users\suitedoalex\sites\equinix-logo-5.png"
       inkscape:export-xdpi="2.9849551"
       inkscape:export-ydpi="2.9849551" />
    <path
       d="m 2049.9969,-977.37178 h 50.005 V -1314.775 h -50.005 z"
       style="fill:#231f20;fill-opacity:1;fill-rule:nonzero;stroke:none;stroke-width:32.47065353"
       id="path242"
       inkscape:connector-curvature="0"
       inkscape:export-filename="C:\Users\suitedoalex\sites\equinix-logo-5.png"
       inkscape:export-xdpi="2.9849551"
       inkscape:export-ydpi="2.9849551" />
    <path
       d="m 2694.8644,-1050.3665 -246.3874,-264.3431 h -49.3553 v 337.40218 h 49.9729 v -266.55138 l 246.7769,266.55138 h 48.7052 v -337.40218 h -49.7123 z"
       style="fill:#231f20;fill-opacity:1;fill-rule:nonzero;stroke:none;stroke-width:32.47065353"
       id="path258"
       inkscape:connector-curvature="0"
       inkscape:export-filename="C:\Users\suitedoalex\sites\equinix-logo-5.png"
       inkscape:export-xdpi="2.9849551"
       inkscape:export-ydpi="2.9849551" />
    <path
       d="m 3046.6512,-977.37178 h 49.9405 V -1314.775 h -49.9405 z"
       style="fill:#231f20;fill-opacity:1;fill-rule:nonzero;stroke:none;stroke-width:32.47065353"
       id="path272"
       inkscape:connector-curvature="0"
       inkscape:export-filename="C:\Users\suitedoalex\sites\equinix-logo-5.png"
       inkscape:export-xdpi="2.9849551"
       inkscape:export-ydpi="2.9849551" />
    <path
       d="m 3580.956,-1160.4744 144.6893,-154.7222 h -61.4671 l -114.7837,121.3097 -111.5689,-121.3097 h -65.0716 l 139.4615,154.8198 -174.432,183.00502 h 63.7073 l 143.0337,-150.24252 136.3117,150.24252 h 69.032 z"
       style="fill:#231f20;fill-opacity:1;fill-rule:nonzero;stroke:none;stroke-width:32.47065353"
       id="path288"
       inkscape:connector-curvature="0"
       inkscape:export-filename="C:\Users\suitedoalex\sites\equinix-logo-5.png"
       inkscape:export-xdpi="2.9849551"
       inkscape:export-ydpi="2.9849551" />
    <path
       d="m 1168.0616,-1146.2841 c 0,47.6662 -16.008,78.7085 -45.0043,105.1073 l -26.8857,-30.2628 -57.8952,-0.089 47.4072,52.7322 c -11.5921,5.4215 -32.4057,9.8386 -48.706,9.9361 -74.26049,0.4598 -133.55179,-57.7974 -133.55179,-137.0581 v -1.196 c 0,-80.6249 55.52478,-137.6757 130.23979,-138.0328 74.7474,-0.6446 134.396,57.4079 134.396,137.5782 z m -133.292,-182.0635 c -103.45156,0.6445 -183.23199,76.6633 -183.23199,182.9075 v 1.2699 c 0,105.4 81.72878,179.66008 184.43329,179.04349 26.4312,-0.18465 57.5381,-6.91246 81.0143,-18.60643 l 28.2495,31.75654 h 57.8952 l -49.4203,-55.3297 c 40.4908,-30.1007 66.0778,-79.6188 66.0778,-140.7279 v -1.2979 c 0,-104.8154 -82.0209,-179.7577 -185.0179,-179.0112 z"
       style="fill:#231f20;fill-opacity:1;fill-rule:nonzero;stroke:none;stroke-width:32.47065353"
       id="path304"
       inkscape:connector-curvature="0"
       inkscape:export-filename="C:\Users\suitedoalex\sites\equinix-logo-5.png"
       inkscape:export-xdpi="2.9849551"
       inkscape:export-ydpi="2.9849551" />
    <path
       d="m 2948.9145,-1992.2422 v -23.9312 h 18.5735 c 9.3192,0 15.1961,4.3168 15.1961,11.9491 0,7.1793 -5.3292,11.9821 -15.1961,11.9821 z m -21.56,44.0949 h 21.6254 v -27.1784 h 13.6379 l 19.0603,27.1784 h 25.8464 l -22.4371,-30.9448 c 11.7538,-3.7645 19.5148,-12.793 19.5148,-26.5929 0,-19.4184 -15.0985,-28.5426 -35.718,-28.5426 h -41.5297 z m 35.2633,32.5674 c -42.8936,0 -75.3001,-33.1196 -75.3001,-73.4483 v -0.4598 c 0,-40.3285 32.8612,-74.0005 75.3001,-74.0005 42.9903,0 75.2018,33.2174 75.2018,73.4483 v 0.5528 c 0,40.2964 -32.666,73.9039 -75.2018,73.9039 z m 0,9.0296 c 47.309,0 84.9426,-37.9262 84.9426,-82.9305 v -0.5528 c 0,-45.0041 -37.1787,-82.5724 -84.9426,-82.5724 -47.4075,0 -85.0411,38.023 -85.0411,83.1247 v 0.4598 c 0,44.9069 37.1789,82.475 85.0411,82.475 z"
       style="fill:#e81e26;fill-opacity:1;fill-rule:nonzero;stroke:none;stroke-width:32.47065353"
       id="path308"
       inkscape:connector-curvature="0"
       inkscape:export-filename="C:\Users\suitedoalex\sites\equinix-logo-5.png"
       inkscape:export-xdpi="2.9849551"
       inkscape:export-ydpi="2.9849551" />
    <path
       d="m 6272.122,-1794.9746 -148.0538,50.8445 v 765.70937 l -98.8157,-33.94237 v -697.6512 l -296.1067,101.897 v 493.8925 l -98.7137,-33.9424 v -426.0423 l -98.8833,34.0461 v 461.1224 l 296.3107,101.89702 v -561.84712 l 98.7821,-34.046 v 629.73191 l 296.1074,101.96602 v -833.55953 l 49.373,-16.9376 49.34,16.9376 v 833.55953 l 296.3107,-101.96602 v -629.73191 l 98.6117,34.046 v 561.84712 l 296.2763,-101.89702 v -461.1224 l -98.7812,-34.0461 v 426.0423 l -98.611,33.9424 v -493.8925 l -296.4136,-101.897 v 697.6512 l -98.68,33.94237 v -765.70937 z"
       style="fill:#ec1d23;fill-opacity:1;fill-rule:nonzero;stroke:none;stroke-width:34.24837494"
       id="path196-0"
       inkscape:connector-curvature="0"
       inkscape:export-filename="C:\Users\suitedoalex\sites\equinix-logo-4.png"
       inkscape:export-xdpi="1.5405885"
       inkscape:export-ydpi="1.5405885" />
    <path
       d="m 7684.9509,-1555.5626 v 458.7862 h 404.5099 v -59.2795 h -338.2431 v -149.2789 h 218.9706 v -60.1626 h -218.9706 v -129.9027 h 326.5919 v -60.1625 z"
       style="fill:#000000;fill-opacity:1;fill-rule:nonzero;stroke:none;stroke-width:43.24591827"
       id="path212-2"
       inkscape:connector-curvature="0"
       inkscape:export-filename="C:\Users\suitedoalex\sites\equinix-logo-4.png"
       inkscape:export-xdpi="1.5405885"
       inkscape:export-ydpi="1.5405885" />
    <path
       d="m 9478.703,-1279.5582 c 0,81.9674 -53.5559,135.9944 -133.0857,135.9944 -77.3256,0 -125.5002,-54.7773 -125.5002,-135.9944 v -274.7684 h -65.7165 v 277.9027 c 0,124.8701 89.3588,193.0665 190.7502,193.0665 149.78,0 198.6343,-103.5082 198.6343,-193.0665 v -277.9027 h -65.0821 z"
       style="fill:#000000;fill-opacity:1;fill-rule:nonzero;stroke:none;stroke-width:43.24591827"
       id="path228-9"
       inkscape:connector-curvature="0"
       inkscape:export-filename="C:\Users\suitedoalex\sites\equinix-logo-4.png"
       inkscape:export-xdpi="1.5405885"
       inkscape:export-ydpi="1.5405885" />
    <path
       d="m 9908.2968,-1096.8639 h 65.2508 v -458.655 h -65.2508 z"
       style="fill:#000000;fill-opacity:1;fill-rule:nonzero;stroke:none;stroke-width:43.24591827"
       id="path242-4"
       inkscape:connector-curvature="0"
       inkscape:export-filename="C:\Users\suitedoalex\sites\equinix-logo-4.png"
       inkscape:export-xdpi="1.5405885"
       inkscape:export-ydpi="1.5405885" />
    <path
       d="m 10749.773,-1196.0909 -321.506,-359.339 h -64.403 v 458.6535 h 65.209 v -362.3412 l 322.015,362.3412 h 63.554 v -458.6535 h -64.869 z"
       style="fill:#000000;fill-opacity:1;fill-rule:nonzero;stroke:none;stroke-width:43.24591827"
       id="path258-3"
       inkscape:connector-curvature="0"
       inkscape:export-filename="C:\Users\suitedoalex\sites\equinix-logo-4.png"
       inkscape:export-xdpi="1.5405885"
       inkscape:export-ydpi="1.5405885" />
    <path
       d="m 11208.814,-1096.8639 h 65.168 v -458.655 h -65.168 z"
       style="fill:#000000;fill-opacity:1;fill-rule:nonzero;stroke:none;stroke-width:43.24591827"
       id="path272-3"
       inkscape:connector-curvature="0"
       inkscape:export-filename="C:\Users\suitedoalex\sites\equinix-logo-4.png"
       inkscape:export-xdpi="1.5405885"
       inkscape:export-ydpi="1.5405885" />
    <path
       d="m 11906.02,-1345.7673 188.803,-210.3247 h -80.207 l -149.78,164.9045 -145.585,-164.9045 h -84.91 l 181.981,210.4574 -227.615,248.7707 h 83.132 l 186.642,-204.2343 177.871,204.2343 h 90.079 z"
       style="fill:#000000;fill-opacity:1;fill-rule:nonzero;stroke:none;stroke-width:43.24591827"
       id="path288-1"
       inkscape:connector-curvature="0"
       inkscape:export-filename="C:\Users\suitedoalex\sites\equinix-logo-4.png"
       inkscape:export-xdpi="1.5405885"
       inkscape:export-ydpi="1.5405885" />
    <path
       d="m 8757.4741,-1326.4775 c 0,64.7959 -20.8887,106.9937 -58.7256,142.8788 l -35.0824,-41.1376 -75.5472,-0.1535 61.8613,71.682 c -15.126,7.373 -42.2853,13.3743 -63.5553,13.5071 -96.9016,0.6139 -174.2705,-78.5678 -174.2705,-186.3126 v -1.6265 c 0,-109.5986 72.454,-187.1521 169.9487,-187.6369 97.5367,-0.8749 175.371,78.0383 175.371,187.0193 z m -173.9309,-247.491 c -134.9924,0.8749 -239.0964,104.2132 -239.0964,248.6381 v 1.7262 c 0,143.277 106.6466,244.2241 240.6646,243.3855 34.4894,-0.2308 75.0799,-9.3963 105.7139,-25.2926 l 36.8617,43.1683 h 75.5471 l -64.4874,-75.2134 c 52.8355,-40.9173 86.2232,-108.2304 86.2232,-191.3003 v -1.7646 c 0,-142.4829 -107.0275,-244.3569 -241.4267,-243.3418 z"
       style="fill:#000000;fill-opacity:1;fill-rule:nonzero;stroke:none;stroke-width:43.24591827"
       id="path304-3"
       inkscape:connector-curvature="0"
       inkscape:export-filename="C:\Users\suitedoalex\sites\equinix-logo-4.png"
       inkscape:export-xdpi="1.5405885"
       inkscape:export-ydpi="1.5405885" />
    <path
       d="m 7263.463,-1198.8022 v -25.4231 h 19.4517 c 9.7584,0 15.9132,4.5881 15.9132,12.6939 0,7.6263 -5.5778,12.7292 -15.9132,12.7292 z m -22.5773,46.8433 h 22.6464 v -28.8725 h 14.282 l 19.9603,28.8725 h 27.0673 l -23.4973,-32.8736 c 12.3095,-3.9972 20.4368,-13.5907 20.4368,-28.2502 0,-20.6287 -15.8119,-30.3219 -37.4042,-30.3219 h -43.4913 z m 36.9284,34.5969 c -44.9192,0 -78.8562,-35.1838 -78.8562,-78.026 v -0.4605 c 0,-42.8422 34.4128,-78.6129 78.8562,-78.6129 45.0205,0 78.7534,35.2881 78.7534,78.0268 v 0.6139 c 0,42.8078 -34.2094,78.5102 -78.7534,78.5102 z m 0,9.5927 c 49.5426,0 88.9539,-40.2904 88.9539,-88.0999 v -0.6139 c 0,-47.8093 -38.9349,-87.7184 -88.9539,-87.7184 -49.6461,0 -89.0573,40.3925 -89.0573,88.3054 v 0.4605 c 0,47.7058 38.9348,87.6157 89.0573,87.6157 z"
       style="fill:#ec1d23;fill-opacity:1;fill-rule:nonzero;stroke:none;stroke-width:34.24837494"
       id="path308-9"
       inkscape:connector-curvature="0"
       inkscape:export-filename="C:\Users\suitedoalex\sites\equinix-logo-4.png"
       inkscape:export-xdpi="1.5405885"
       inkscape:export-ydpi="1.5405885" />
  </g>
</svg>
