<?xml version="1.0" encoding="utf-8"?>
<!-- Generator: Adobe Illustrator 23.0.3, SVG Export Plug-In . SVG Version: 6.00 Build 0)  -->
<svg version="1.1" id="Layer_1" xmlns="http://www.w3.org/2000/svg" xmlns:xlink="http://www.w3.org/1999/xlink" x="0px" y="0px"
	 viewBox="0 0 400 245" style="enable-background:new 0 0 400 245;" xml:space="preserve">
<style type="text/css">
	.st0{fill:#E01B22;}
	.st1{fill:#4064AD;}
	.st2{fill:#E98300;}
	.st3{fill:#00549F;}
	.st4{fill-rule:evenodd;clip-rule:evenodd;}
	.st5{fill-rule:evenodd;clip-rule:evenodd;fill:#C9243A;}
	.st6{fill-rule:evenodd;clip-rule:evenodd;fill:#231F20;}
	.st7{fill-rule:evenodd;clip-rule:evenodd;fill:#7C848A;}
	.st8{fill:#EE3B29;}
	.st9{fill:#7C848A;}
	.st10{fill:#0F0F59;}
	.st11{fill:#F42A4D;}
	.st12{fill:#DA2128;}
	.st13{fill-rule:evenodd;clip-rule:evenodd;fill:#12ABDB;}
	.st14{fill-rule:evenodd;clip-rule:evenodd;fill:#0070AD;}
	.st15{fill:#929497;}
	.st16{fill:#231F20;}
	.st17{fill:#00ADEE;}
	.st18{fill:#2E3191;}
	.st19{fill:#EC1C24;}
	.st20{fill:#0082C9;}
	.st21{fill:#6D67AE;}
	.st22{fill:#2B62AD;}
	.st23{fill:#404041;}
	.st24{fill:#273B5B;}
	.st25{fill:#39B54A;}
	.st26{fill:#474749;}
	.st27{fill:#009245;}
	.st28{fill:#DDDDDD;}
	.st29{fill:#FFFFFF;}
	.st30{fill:url(#SVGID_1_);}
	.st31{fill:url(#SVGID_2_);}
	.st32{fill:url(#SVGID_3_);}
	.st33{fill:url(#SVGID_4_);}
	.st34{fill:url(#SVGID_5_);}
	.st35{fill:url(#SVGID_6_);}
	.st36{fill:url(#SVGID_7_);}
	.st37{fill:url(#SVGID_8_);}
	.st38{fill:url(#SVGID_9_);}
	.st39{fill:url(#SVGID_10_);}
	.st40{fill:url(#SVGID_11_);}
	.st41{fill:url(#SVGID_12_);}
	.st42{fill:url(#SVGID_13_);}
	.st43{fill:url(#SVGID_14_);}
	.st44{fill:url(#SVGID_15_);}
	.st45{fill:url(#SVGID_16_);}
	.st46{fill:url(#SVGID_17_);}
	.st47{fill:#59595C;}
	.st48{fill:#1D7DB9;}
	.st49{fill:#121110;}
	.st50{fill:#010101;}
	.st51{fill:#663795;}
	.st52{fill:#09324A;stroke:#1B75BB;stroke-width:0.6975;stroke-miterlimit:10;}
	.st53{fill:#002432;stroke:#1B75BB;stroke-width:1.0463;stroke-miterlimit:10;}
	.st54{fill-rule:evenodd;clip-rule:evenodd;fill:#E73836;}
	.st55{fill:#231916;}
	.st56{fill:#E73836;}
	.st57{fill:#8C9091;}
	.st58{fill-rule:evenodd;clip-rule:evenodd;fill:#365072;}
	.st59{fill:#365072;}
	.st60{fill:#0093D7;}
	.st61{clip-path:url(#SVGID_19_);fill:url(#SVGID_20_);}
	.st62{clip-path:url(#SVGID_22_);fill:url(#SVGID_23_);}
	.st63{clip-path:url(#SVGID_25_);fill:url(#SVGID_26_);}
	.st64{clip-path:url(#SVGID_28_);fill:url(#SVGID_29_);}
	.st65{clip-path:url(#SVGID_31_);fill:url(#SVGID_32_);}
	.st66{clip-path:url(#SVGID_34_);fill:url(#SVGID_35_);}
	.st67{clip-path:url(#SVGID_37_);fill:url(#SVGID_38_);}
	.st68{clip-path:url(#SVGID_40_);fill:url(#SVGID_41_);}
	.st69{clip-path:url(#SVGID_43_);fill:url(#SVGID_44_);}
	.st70{clip-path:url(#SVGID_68_);}
	.st71{clip-path:url(#SVGID_79_);}
	.st72{fill:#00A9E6;}
	.st73{fill:#4D4D4F;}
	.st74{fill:#898B8D;}
	.st75{fill:#04B3AC;}
	.st76{fill:#A4A2A0;}
	.st77{fill:#D0CFCE;}
	.st78{fill:#74777C;}
	.st79{fill:none;stroke:#ED3024;stroke-width:0.4269;}
	.st80{fill:#A2A4A8;}
	.st81{fill:#3F7BA3;}
	.st82{enable-background:new    ;}
	.st83{fill:#E8B520;}
	.st84{fill:#D27D41;}
	.st85{fill:#0B74BB;}
	.st86{fill:#702784;}
	.st87{fill:#AD2E91;}
	.st88{fill:#ED3694;}
	.st89{fill:#004E9A;}
	.st90{clip-path:url(#SVGID_82_);fill:url(#SVGID_83_);}
	.st91{clip-path:url(#SVGID_85_);fill:url(#SVGID_86_);}
	.st92{clip-path:url(#SVGID_88_);fill:url(#SVGID_89_);}
	.st93{fill:#0898CC;}
	.st94{fill:#12284C;}
	.st95{fill-rule:evenodd;clip-rule:evenodd;fill:#84BE42;}
	.st96{fill-rule:evenodd;clip-rule:evenodd;fill:#C1C0C0;}
	.st97{clip-path:url(#SVGID_91_);fill:#84BE42;}
	.st98{fill:#0066A5;}
	.st99{fill:#F05A22;}
	.st100{clip-path:url(#SVGID_93_);}
	.st101{clip-path:url(#SVGID_95_);fill:#1D1D1B;}
	.st102{clip-path:url(#SVGID_97_);}
	.st103{clip-path:url(#SVGID_99_);fill:#1D1D1B;}
	.st104{clip-path:url(#SVGID_101_);}
	.st105{clip-path:url(#SVGID_103_);fill:#1D1D1B;}
	.st106{clip-path:url(#SVGID_105_);}
	.st107{clip-path:url(#SVGID_107_);fill:#1D1D1B;}
	.st108{clip-path:url(#SVGID_109_);}
	.st109{clip-path:url(#SVGID_111_);fill:#1D1D1B;}
	.st110{clip-path:url(#SVGID_113_);}
	.st111{clip-path:url(#SVGID_115_);fill:#1D1D1B;}
	.st112{clip-path:url(#SVGID_117_);}
	.st113{clip-path:url(#SVGID_119_);fill:#1D9DD9;}
	.st114{clip-path:url(#SVGID_121_);}
	.st115{clip-path:url(#SVGID_123_);fill:#1D1D1B;}
	.st116{clip-path:url(#SVGID_125_);}
	.st117{clip-path:url(#SVGID_127_);fill:#1D9DD9;}
	.st118{clip-path:url(#SVGID_129_);}
	.st119{clip-path:url(#SVGID_131_);fill:#1D1D1B;}
	.st120{clip-path:url(#SVGID_133_);}
	.st121{clip-path:url(#SVGID_135_);fill:#1D9DD9;}
	.st122{clip-path:url(#SVGID_137_);}
	.st123{clip-path:url(#SVGID_139_);fill:#1D1D1B;}
	.st124{clip-path:url(#SVGID_141_);}
	.st125{clip-path:url(#SVGID_143_);fill:#1D9DD9;}
	.st126{clip-path:url(#SVGID_145_);}
	.st127{clip-path:url(#SVGID_147_);fill:#1D1D1B;}
	.st128{fill:#D44432;}
	.st129{fill:#272525;}
	.st130{fill:url(#SVGID_148_);}
	.st131{fill:url(#SVGID_149_);}
	.st132{fill:url(#SVGID_150_);}
	.st133{fill:#002B54;}
	.st134{fill:#B2B1B1;}
	.st135{fill:#E1134F;}
	.st136{fill:#454547;}
	.st137{fill:#00B4D0;}
	.st138{fill:#4564A7;}
	.st139{fill:#0088EE;}
	.st140{fill:#026FC2;}
	.st141{fill:#009FEE;}
	.st142{fill:#00BEEE;}
	.st143{fill:#00AFEE;}
	.st144{fill-rule:evenodd;clip-rule:evenodd;fill:#224099;}
	.st145{clip-path:url(#SVGID_152_);}
	.st146{clip-path:url(#SVGID_156_);}
	.st147{fill:#203260;}
	.st148{fill-rule:evenodd;clip-rule:evenodd;fill:#989A9D;}
	.st149{fill-rule:evenodd;clip-rule:evenodd;fill:#DF068C;}
	.st150{fill:#2E3437;}
	.st151{fill:#989FA4;}
	.st152{fill:#E1DE22;}
	.st153{fill-rule:evenodd;clip-rule:evenodd;fill:#86171D;}
	.st154{fill-rule:evenodd;clip-rule:evenodd;fill:#FFFFFF;}
	.st155{fill:none;stroke:#86171D;stroke-width:6.1349;stroke-miterlimit:10;}
	.st156{fill:#1F1F1F;}
	.st157{fill:#009590;}
	.st158{fill:#ED1651;}
</style>
<g id="Layer_2_1_">
	<g id="Layer_1-2">
		<path class="st129" d="M134.24,74.05v4.48h-19.82v10.06h14.08v4.37h-14.08v12.17h19.82v4.42h-24.95V74.05H134.24z"/>
		<path class="st129" d="M149.78,110.24c-1.67,0.03-3.34-0.19-4.95-0.66c-1.34-0.4-2.55-1.17-3.48-2.21
			c-0.99-1.19-1.69-2.6-2.04-4.11c-0.51-2.16-0.74-4.37-0.69-6.58c-0.05-2.21,0.19-4.41,0.72-6.56c0.38-1.55,1.14-2.99,2.21-4.17
			c1.03-1.07,2.33-1.83,3.76-2.21c1.75-0.45,3.56-0.67,5.37-0.63c0.81,0,1.72,0.04,2.73,0.12c0.97,0.08,1.94,0.22,2.9,0.4
			c0.97,0.18,1.9,0.4,2.8,0.63c0.83,0.21,1.64,0.48,2.43,0.82v34.22h-4.87v-10.95c-0.84,0.55-1.74,1-2.69,1.33
			C152.61,110.09,151.19,110.29,149.78,110.24z M150.64,87.22c-1.11-0.02-2.22,0.09-3.31,0.33c-0.84,0.2-1.59,0.68-2.13,1.35
			c-0.63,0.85-1.05,1.83-1.22,2.87c-0.26,1.61-0.38,3.24-0.35,4.87c-0.02,1.52,0.09,3.05,0.33,4.55c0.15,1.03,0.54,2,1.14,2.85
			c0.56,0.73,1.35,1.25,2.24,1.48c1.06,0.29,2.15,0.43,3.25,0.4c1.53,0.07,3.06-0.23,4.45-0.86c1.03-0.47,1.69-1.51,1.65-2.64V88.19
			c-0.93-0.35-1.91-0.6-2.9-0.74c-1.04-0.15-2.1-0.23-3.15-0.23H150.64z"/>
		<path class="st129" d="M185.62,83.79h4.77v24.33c-0.82,0.33-1.66,0.62-2.52,0.86c-0.94,0.27-1.9,0.5-2.9,0.68
			c-1,0.18-2.01,0.33-3.03,0.43c-0.95,0.1-1.9,0.15-2.85,0.16c-1.59,0.03-3.17-0.17-4.7-0.58c-1.23-0.34-2.34-1.02-3.2-1.96
			c-0.9-1.05-1.53-2.3-1.84-3.65c-0.43-1.91-0.62-3.86-0.58-5.82V83.79h4.78v13.8c-0.02,1.39,0.08,2.77,0.3,4.14
			c0.14,0.91,0.49,1.77,1.02,2.52c0.5,0.61,1.19,1.04,1.96,1.22c1.04,0.24,2.11,0.35,3.18,0.33c0.98,0,1.95-0.06,2.92-0.18
			c0.9-0.12,1.79-0.32,2.66-0.58L185.62,83.79z"/>
		<path class="st129" d="M200.2,73.49c0.77-0.07,1.55,0.08,2.24,0.43c0.41,0.29,0.61,0.99,0.61,2.1c0,1.11-0.2,1.89-0.61,2.34
			c-0.67,0.41-1.46,0.59-2.24,0.51c-0.79,0.07-1.58-0.1-2.26-0.51c-0.42-0.34-0.63-1.12-0.63-2.34c0-1.22,0.21-1.91,0.63-2.09
			C198.64,73.58,199.42,73.43,200.2,73.49z M202.54,109.53h-4.78V83.79h4.78V109.53z"/>
		<path class="st129" d="M220.53,83.06c1.37-0.04,2.73,0.14,4.04,0.54c0.91,0.29,1.77,0.7,2.57,1.22V72.84H232v35.48
			c-0.79,0.33-1.6,0.6-2.43,0.82c-0.9,0.24-1.83,0.44-2.8,0.61c-0.97,0.17-1.93,0.3-2.9,0.38c-0.97,0.08-1.87,0.12-2.73,0.12
			c-1.81,0.03-3.61-0.18-5.37-0.63c-1.43-0.38-2.73-1.14-3.76-2.19c-1.08-1.18-1.84-2.61-2.21-4.16c-0.52-2.15-0.77-4.37-0.72-6.58
			c-0.05-2.2,0.2-4.4,0.74-6.53c0.38-1.55,1.13-2.99,2.18-4.2c0.97-1.05,2.21-1.83,3.59-2.24
			C217.21,83.24,218.87,83.02,220.53,83.06z M221.14,105.98c1.06,0,2.12-0.08,3.18-0.23c0.96-0.12,1.91-0.35,2.82-0.68V90.78
			c0.01-1.11-0.64-2.13-1.65-2.59c-1.36-0.67-2.87-0.98-4.39-0.91c-1.12-0.03-2.23,0.11-3.31,0.4c-0.84,0.25-1.58,0.76-2.1,1.47
			c-0.59,0.86-0.98,1.84-1.14,2.87c-0.26,1.52-0.38,3.06-0.35,4.6c-0.03,1.6,0.09,3.2,0.35,4.78c0.17,1.03,0.59,2.01,1.22,2.85
			c0.54,0.68,1.29,1.16,2.13,1.37C218.95,105.88,220.04,106,221.14,105.98z"/>
		<path class="st129" d="M260.07,108.2c-0.83,0.32-1.68,0.6-2.54,0.84c-0.92,0.25-1.86,0.47-2.82,0.66
			c-0.97,0.19-1.94,0.33-2.92,0.41c-0.98,0.08-1.9,0.12-2.75,0.12c-1.65,0.03-3.3-0.11-4.93-0.4c-1.2-0.2-2.33-0.68-3.31-1.4
			c-0.86-0.68-1.51-1.6-1.86-2.64c-0.43-1.36-0.62-2.78-0.58-4.2c-0.06-1.51,0.2-3.01,0.77-4.42c0.44-1.04,1.17-1.93,2.1-2.57
			c0.97-0.63,2.06-1.04,3.2-1.22c1.35-0.21,2.72-0.31,4.09-0.3c1.15,0,2.29,0.06,3.43,0.18c1.15,0.13,2.3,0.33,3.43,0.58
			c0.02-1.11-0.08-2.22-0.3-3.31c-0.16-0.76-0.54-1.46-1.09-2.01c-0.6-0.53-1.34-0.88-2.13-1.02c-1.15-0.21-2.31-0.3-3.48-0.28
			c-1.34,0-2.69,0.1-4.01,0.3c-1.25,0.17-2.47,0.47-3.65,0.91l-0.9-4.14c1.14-0.3,2.55-0.6,4.19-0.86c1.72-0.28,3.46-0.41,5.21-0.4
			c1.64-0.02,3.27,0.14,4.87,0.49c1.25,0.26,2.42,0.82,3.41,1.63c0.94,0.82,1.62,1.89,1.98,3.08c0.46,1.58,0.68,3.22,0.63,4.87
			L260.07,108.2z M255.4,97.43c-0.92-0.22-1.86-0.37-2.8-0.44c-1.05-0.08-2.12-0.12-3.2-0.12c-0.92-0.01-1.84,0.03-2.75,0.12
			c-0.64,0.05-1.25,0.25-1.8,0.58c-0.47,0.33-0.82,0.8-0.99,1.35c-0.23,0.79-0.33,1.61-0.3,2.43c-0.02,0.87,0.06,1.74,0.26,2.59
			c0.12,0.58,0.41,1.1,0.85,1.5c0.52,0.39,1.13,0.63,1.78,0.71c0.94,0.13,1.89,0.2,2.85,0.18c1.06,0,2.13-0.09,3.18-0.28
			c0.97-0.17,1.93-0.42,2.87-0.74L255.4,97.43z"/>
		<path class="st129" d="M273.49,100.59c-0.11,1.43,0.2,2.86,0.91,4.11c0.87,0.93,2.14,1.39,3.41,1.22c0.82,0,1.63-0.07,2.43-0.21
			c0.74-0.13,1.47-0.31,2.18-0.56l0.91,3.97c-0.97,0.31-1.96,0.56-2.97,0.74c-1.11,0.21-2.25,0.32-3.38,0.33
			c-1.26,0.02-2.53-0.1-3.76-0.38c-0.99-0.22-1.89-0.71-2.62-1.42c-0.75-0.8-1.28-1.8-1.52-2.87c-0.36-1.53-0.52-3.1-0.49-4.67
			V88.03h-4.43v-4.25h4.43v-4.87l4.87-1.98v6.85h9.04v4.27h-9.04L273.49,100.59z"/>
		<path class="st129" d="M299.1,110.24c-1.79,0.03-3.58-0.19-5.3-0.66c-1.43-0.39-2.72-1.17-3.73-2.24
			c-1.07-1.21-1.83-2.66-2.21-4.22c-0.54-2.16-0.79-4.38-0.74-6.61c-0.05-2.21,0.2-4.42,0.74-6.56c0.39-1.54,1.16-2.95,2.24-4.11
			c1.03-1.04,2.32-1.78,3.73-2.17c1.72-0.45,3.5-0.66,5.28-0.63c1.79-0.03,3.57,0.18,5.3,0.63c1.42,0.37,2.71,1.12,3.73,2.17
			c1.07,1.17,1.84,2.59,2.23,4.12c0.54,2.14,0.79,4.35,0.74,6.56c0.04,2.22-0.21,4.45-0.74,6.61c-0.37,1.57-1.14,3.02-2.21,4.22
			c-1.03,1.07-2.33,1.84-3.76,2.24C302.67,110.05,300.89,110.27,299.1,110.24z M299.1,87.12c-1.12-0.04-2.24,0.07-3.33,0.32
			c-0.84,0.21-1.58,0.69-2.1,1.37c-0.6,0.86-0.99,1.84-1.14,2.87c-0.26,1.61-0.38,3.24-0.35,4.87c-0.03,1.59,0.09,3.19,0.35,4.76
			c0.16,1.05,0.55,2.04,1.14,2.92c0.51,0.74,1.25,1.28,2.1,1.55c2.17,0.54,4.44,0.54,6.61,0c0.84-0.25,1.58-0.76,2.1-1.47
			c0.59-0.88,0.98-1.87,1.14-2.92c0.26-1.57,0.38-3.16,0.35-4.76c0.03-1.63-0.09-3.26-0.35-4.87c-0.15-1.03-0.54-2.02-1.14-2.87
			c-0.51-0.7-1.24-1.21-2.07-1.45C301.32,87.19,300.21,87.08,299.1,87.12z"/>
		<path class="st129" d="M114.27,152.87c-0.11,1.43,0.2,2.86,0.91,4.11c0.87,0.93,2.14,1.39,3.41,1.22c0.82,0,1.63-0.07,2.43-0.21
			c0.74-0.13,1.47-0.31,2.18-0.56l0.91,3.97c-0.97,0.31-1.96,0.56-2.97,0.74c-1.11,0.21-2.25,0.32-3.38,0.33
			c-1.26,0.02-2.53-0.1-3.76-0.38c-0.99-0.22-1.89-0.71-2.62-1.42c-0.75-0.81-1.28-1.8-1.52-2.87c-0.36-1.53-0.52-3.1-0.49-4.67
			v-12.81h-4.37v-4.27h4.43v-4.87l4.87-1.98v6.86h9.04v4.27h-9.08V152.87z"/>
		<path class="st129" d="M139.68,135.32c1.64-0.03,3.28,0.17,4.87,0.58c1.31,0.35,2.49,1.07,3.41,2.08c0.99,1.19,1.68,2.6,2.01,4.11
			c0.48,2.18,0.71,4.4,0.66,6.63v1.22h-17.59c-0.04,1.43,0.13,2.86,0.49,4.25c0.24,0.97,0.73,1.87,1.42,2.59
			c0.66,0.62,1.48,1.04,2.36,1.22c1.12,0.24,2.26,0.35,3.41,0.33c0.54,0,1.07-0.04,1.61-0.1c0.62-0.07,1.22-0.16,1.93-0.26
			c0.72-0.1,1.33-0.23,1.98-0.38c0.66-0.15,1.22-0.32,1.8-0.49l0.86,4.01c-0.64,0.21-1.35,0.39-2.1,0.56
			c-0.75,0.17-1.55,0.32-2.34,0.46c-0.79,0.15-1.56,0.24-2.29,0.3s-1.4,0.1-2.01,0.1c-1.73,0.02-3.46-0.2-5.13-0.66
			c-1.46-0.4-2.78-1.17-3.86-2.24c-1.14-1.19-1.97-2.64-2.43-4.22c-0.61-2.15-0.89-4.37-0.84-6.61c-0.05-2.16,0.22-4.32,0.79-6.4
			c0.42-1.55,1.21-2.98,2.29-4.17c1-1.05,2.26-1.82,3.65-2.24C136.26,135.54,137.97,135.3,139.68,135.32z M139.77,139.34
			c-1-0.02-2,0.09-2.97,0.33c-0.74,0.19-1.42,0.57-1.98,1.09c-0.57,0.57-0.98,1.26-1.22,2.03c-0.31,1.04-0.49,2.12-0.56,3.2h12.56
			c-0.04-1.13-0.19-2.25-0.44-3.36c-0.16-0.75-0.51-1.46-1.02-2.03c-0.48-0.49-1.09-0.83-1.75-0.99
			C141.53,139.42,140.65,139.32,139.77,139.34z"/>
		<path class="st129" d="M176.02,161.14c-0.56,0.22-1.13,0.41-1.7,0.56c-0.63,0.17-1.29,0.32-1.98,0.43s-1.37,0.21-2.06,0.28
			c-0.68,0.07-1.3,0.1-1.89,0.1c-1.8,0.03-3.6-0.19-5.34-0.66c-1.48-0.4-2.84-1.17-3.94-2.24c-1.14-1.19-1.97-2.64-2.43-4.22
			c-0.63-2.14-0.92-4.37-0.86-6.61c-0.06-2.22,0.23-4.43,0.86-6.56c0.46-1.55,1.29-2.96,2.43-4.11c1.15-1.05,2.54-1.79,4.05-2.15
			c1.72-0.44,3.5-0.65,5.28-0.63c1.33,0.01,2.65,0.12,3.97,0.33c1.24,0.17,2.47,0.47,3.65,0.89l-1.22,4.27
			c-0.94-0.39-1.92-0.68-2.92-0.86c-1.06-0.2-2.14-0.3-3.22-0.3c-1.15-0.02-2.3,0.09-3.43,0.33c-0.93,0.18-1.78,0.65-2.43,1.33
			c-0.7,0.8-1.19,1.76-1.42,2.8c-0.36,1.57-0.53,3.19-0.49,4.81c-0.04,1.56,0.13,3.13,0.49,4.65c0.24,1.05,0.73,2.02,1.42,2.85
			c0.65,0.71,1.5,1.2,2.43,1.42c1.12,0.27,2.28,0.4,3.43,0.38c1.09,0,2.18-0.11,3.25-0.35c0.99-0.22,1.96-0.52,2.9-0.91
			L176.02,161.14z"/>
		<path class="st129" d="M192.43,135.32c1.43-0.02,2.86,0.15,4.25,0.51c1.15,0.31,2.18,0.94,2.97,1.82
			c0.87,1.06,1.47,2.31,1.75,3.65c0.43,1.92,0.63,3.88,0.58,5.84v14.66h-4.87v-14.08c0.03-1.36-0.08-2.72-0.33-4.06
			c-0.15-0.88-0.51-1.72-1.05-2.43c-0.47-0.59-1.12-1.02-1.85-1.22c-0.89-0.22-1.81-0.32-2.73-0.3c-0.76,0-1.51,0.06-2.26,0.18
			c-0.67,0.1-1.32,0.29-1.93,0.56c-0.51,0.22-0.97,0.54-1.35,0.94c-0.31,0.33-0.5,0.76-0.51,1.22v19.2h-4.87v-36.66h4.87v12.17
			c0.96-0.57,2-1.02,3.08-1.33C189.56,135.55,190.99,135.33,192.43,135.32z"/>
		<path class="st129" d="M214.04,161.81h-4.78v-24.33c0.82-0.33,1.66-0.62,2.52-0.86c0.93-0.27,1.9-0.49,2.9-0.68
			c1-0.19,2-0.33,3-0.44c0.95-0.1,1.91-0.15,2.87-0.16c1.58-0.03,3.16,0.16,4.7,0.56c1.23,0.33,2.34,1.01,3.2,1.96
			c0.89,1.05,1.52,2.31,1.82,3.65c0.43,1.91,0.62,3.86,0.58,5.82v14.49h-4.78v-13.83c0.03-1.39-0.08-2.77-0.3-4.14
			c-0.13-0.91-0.49-1.78-1.03-2.52c-0.51-0.61-1.21-1.04-1.98-1.22c-1.04-0.24-2.11-0.35-3.18-0.33c-0.97,0-1.93,0.05-2.9,0.16
			c-0.9,0.11-1.78,0.29-2.64,0.56L214.04,161.81z"/>
		<path class="st129" d="M249.3,162.51c-1.79,0.03-3.58-0.19-5.32-0.66c-1.43-0.39-2.72-1.17-3.73-2.24
			c-1.07-1.21-1.83-2.66-2.21-4.22c-0.54-2.16-0.79-4.38-0.74-6.61c-0.05-2.21,0.2-4.42,0.74-6.56c0.39-1.54,1.16-2.95,2.24-4.11
			c1.03-1.04,2.32-1.78,3.73-2.17c1.72-0.45,3.5-0.66,5.28-0.63c1.79-0.03,3.57,0.18,5.3,0.63c1.42,0.37,2.71,1.12,3.73,2.17
			c1.06,1.15,1.83,2.55,2.23,4.06c0.54,2.14,0.79,4.35,0.74,6.56c0.05,2.22-0.2,4.44-0.72,6.61c-0.37,1.57-1.14,3.02-2.21,4.22
			c-1.03,1.07-2.33,1.84-3.76,2.24C252.88,162.29,251.1,162.53,249.3,162.51z M249.3,139.4c-1.11-0.02-2.23,0.09-3.31,0.35
			c-0.84,0.21-1.58,0.69-2.1,1.37c-0.6,0.86-0.99,1.84-1.14,2.87c-0.26,1.61-0.38,3.24-0.35,4.87c-0.03,1.59,0.09,3.19,0.35,4.76
			c0.16,1.05,0.55,2.04,1.14,2.92c0.52,0.7,1.26,1.22,2.1,1.46c2.17,0.54,4.44,0.54,6.61,0c0.84-0.25,1.58-0.76,2.1-1.47
			c0.59-0.88,0.98-1.87,1.14-2.92c0.26-1.57,0.38-3.16,0.35-4.76c0.03-1.63-0.09-3.26-0.35-4.87c-0.15-1.03-0.54-2.02-1.14-2.87
			c-0.53-0.68-1.27-1.16-2.1-1.36C251.52,139.49,250.41,139.37,249.3,139.4z"/>
		<path class="st129" d="M272.72,154.9c-0.03,1.06,0.13,2.12,0.49,3.13c0.42,0.99,1.01,1.89,1.75,2.66l-4.06,2.18
			c-0.48-0.47-0.91-0.99-1.29-1.55c-0.36-0.53-0.67-1.11-0.91-1.7c-0.27-0.65-0.46-1.33-0.56-2.03c-0.13-0.84-0.19-1.69-0.18-2.54
			v-29.89h4.77V154.9z"/>
		<path class="st129" d="M291.58,162.51c-1.79,0.03-3.58-0.19-5.3-0.66c-1.43-0.39-2.72-1.17-3.73-2.24
			c-1.07-1.21-1.83-2.66-2.21-4.22c-0.54-2.16-0.79-4.38-0.74-6.61c-0.05-2.21,0.2-4.42,0.74-6.56c0.39-1.54,1.16-2.95,2.24-4.11
			c1.03-1.04,2.32-1.79,3.73-2.17c1.72-0.45,3.5-0.66,5.28-0.63c1.79-0.03,3.57,0.18,5.3,0.63c1.42,0.37,2.72,1.12,3.75,2.17
			c1.06,1.15,1.82,2.55,2.21,4.06c0.54,2.14,0.78,4.35,0.73,6.56c0.05,2.22-0.19,4.44-0.71,6.61c-0.37,1.59-1.14,3.06-2.24,4.27
			c-1.03,1.07-2.33,1.84-3.76,2.24C295.15,162.32,293.37,162.54,291.58,162.51z M291.58,139.4c-1.11-0.02-2.23,0.09-3.31,0.35
			c-0.84,0.21-1.58,0.69-2.1,1.37c-0.6,0.86-0.99,1.84-1.14,2.87c-0.26,1.61-0.38,3.24-0.35,4.87c-0.03,1.59,0.09,3.19,0.35,4.76
			c0.16,1.05,0.55,2.04,1.14,2.92c0.53,0.71,1.27,1.22,2.12,1.46c2.17,0.54,4.44,0.54,6.61,0c0.83-0.24,1.57-0.74,2.09-1.42
			c0.59-0.88,0.98-1.87,1.14-2.92c0.26-1.57,0.38-3.16,0.35-4.76c0.03-1.63-0.09-3.26-0.35-4.87c-0.15-1.03-0.55-2.02-1.14-2.87
			c-0.52-0.69-1.26-1.19-2.09-1.41C293.81,139.49,292.69,139.37,291.58,139.4z"/>
		<path class="st129" d="M332.26,159.87c0.07,2.07-0.25,4.13-0.94,6.08c-0.54,1.47-1.46,2.77-2.66,3.76
			c-1.22,0.95-2.65,1.6-4.16,1.91c-1.8,0.37-3.64,0.55-5.49,0.54c-0.71,0-1.42-0.04-2.13-0.12c-0.81-0.08-1.6-0.18-2.36-0.3
			c-0.8-0.12-1.57-0.27-2.31-0.46c-0.63-0.17-1.25-0.37-1.85-0.62l1.12-4.11c0.57,0.22,1.16,0.41,1.75,0.56
			c0.66,0.17,1.33,0.32,2.01,0.44s1.34,0.21,1.98,0.28c0.59,0.06,1.18,0.1,1.78,0.1c1.22,0.01,2.45-0.1,3.65-0.33
			c0.98-0.2,1.9-0.61,2.69-1.22c0.74-0.6,1.3-1.39,1.62-2.29c0.41-1.17,0.6-2.41,0.56-3.65c-0.84,0.55-1.74,1-2.69,1.33
			c-1.33,0.44-2.72,0.64-4.12,0.61c-1.67,0.03-3.34-0.18-4.95-0.63c-1.36-0.39-2.59-1.16-3.54-2.21c-1.02-1.2-1.75-2.63-2.1-4.17
			c-0.5-2.15-0.73-4.35-0.68-6.56c-0.05-2.21,0.19-4.41,0.72-6.56c0.38-1.55,1.14-2.99,2.21-4.17c1.03-1.07,2.33-1.83,3.76-2.21
			c1.75-0.45,3.56-0.66,5.37-0.63c0.81,0,1.72,0.04,2.73,0.12c1.01,0.08,1.97,0.21,2.9,0.38c0.97,0.17,1.9,0.37,2.8,0.61
			c0.83,0.21,1.64,0.48,2.43,0.82L332.26,159.87z M327.48,140.41c-0.95-0.32-1.93-0.55-2.92-0.68c-1.04-0.15-2.08-0.23-3.13-0.23
			c-1.11-0.02-2.22,0.09-3.31,0.33c-0.84,0.2-1.59,0.67-2.13,1.35c-0.63,0.85-1.05,1.83-1.22,2.87c-0.27,1.61-0.38,3.24-0.35,4.87
			c-0.03,1.54,0.09,3.08,0.35,4.6c0.16,1.02,0.55,2,1.14,2.85c0.53,0.7,1.27,1.2,2.1,1.45c1.08,0.3,2.19,0.43,3.31,0.4
			c0.81,0.01,1.61-0.06,2.41-0.21c0.67-0.11,1.33-0.31,1.96-0.58c0.5-0.22,0.95-0.55,1.31-0.96c0.31-0.36,0.49-0.82,0.49-1.3
			L327.48,140.41z"/>
		<path class="st129" d="M342.14,125.77c0.77-0.07,1.55,0.08,2.24,0.43c0.4,0.29,0.61,0.99,0.61,2.1c0.12,0.83-0.1,1.67-0.61,2.34
			c-0.67,0.41-1.46,0.59-2.24,0.51c-0.79,0.07-1.58-0.1-2.26-0.51c-0.43-0.34-0.63-1.12-0.63-2.34c0-1.22,0.21-1.82,0.63-2.1
			C340.58,125.85,341.36,125.7,342.14,125.77z M344.43,161.81h-4.77v-25.77h4.77V161.81z"/>
		<path class="st129" d="M362.84,135.32c1.64-0.03,3.28,0.17,4.87,0.58c1.31,0.35,2.49,1.07,3.41,2.08c0.99,1.19,1.68,2.6,2.01,4.11
			c0.48,2.18,0.7,4.4,0.66,6.63v1.22h-17.59c-0.04,1.43,0.13,2.86,0.49,4.25c0.24,0.97,0.72,1.86,1.41,2.59
			c0.66,0.62,1.48,1.04,2.36,1.22c1.12,0.24,2.26,0.35,3.41,0.33c0.53,0,1.06-0.04,1.59-0.1c0.63-0.07,1.22-0.16,1.93-0.26
			c0.72-0.1,1.33-0.23,1.98-0.38c0.66-0.15,1.22-0.32,1.8-0.49l0.86,4.01c-0.64,0.21-1.35,0.39-2.1,0.56
			c-0.75,0.17-1.55,0.32-2.34,0.46c-0.79,0.15-1.56,0.24-2.29,0.3c-0.73,0.06-1.4,0.1-2.01,0.1c-1.73,0.02-3.46-0.2-5.13-0.66
			c-1.46-0.4-2.79-1.17-3.87-2.24c-1.14-1.19-1.97-2.64-2.43-4.22c-0.61-2.15-0.89-4.37-0.84-6.61c-0.05-2.16,0.22-4.32,0.79-6.4
			c0.44-1.57,1.25-3.01,2.36-4.21c1-1.05,2.26-1.82,3.65-2.24C359.45,135.52,361.14,135.29,362.84,135.32z M362.93,139.34
			c-1-0.02-2,0.09-2.97,0.33c-0.74,0.19-1.43,0.57-1.98,1.09c-0.57,0.56-0.99,1.26-1.22,2.03c-0.31,1.04-0.49,2.12-0.56,3.2h12.56
			c-0.04-1.13-0.19-2.25-0.44-3.36c-0.15-0.75-0.5-1.45-1.01-2.03c-0.48-0.49-1.09-0.83-1.75-0.99
			C364.7,139.41,363.82,139.32,362.93,139.34z"/>
		<path class="st129" d="M396.63,140.71c-1.15-0.42-2.34-0.74-3.54-0.96c-1.29-0.25-2.6-0.38-3.92-0.38
			c-1.42-0.08-2.84,0.17-4.16,0.71c-1.05,0.66-1.61,1.88-1.42,3.1c-0.09,0.98,0.38,1.92,1.22,2.43c1.44,0.65,3,0.99,4.57,1.01
			c3.24,0.27,5.6,0.97,7.07,2.1c1.55,1.37,2.36,3.4,2.18,5.46c0.04,1.36-0.19,2.72-0.68,3.99c-0.43,1.03-1.13,1.92-2.03,2.57
			c-0.99,0.69-2.12,1.15-3.31,1.37c-1.46,0.28-2.95,0.42-4.44,0.4c-0.67,0-1.41-0.03-2.21-0.1c-0.8-0.06-1.61-0.16-2.43-0.28
			c-0.81-0.12-1.62-0.26-2.43-0.43c-0.71-0.15-1.41-0.33-2.1-0.56l1.22-4.01c0.53,0.2,1.08,0.37,1.63,0.51
			c0.65,0.17,1.33,0.32,2.03,0.44c0.71,0.12,1.44,0.21,2.18,0.28c0.74,0.07,1.44,0.1,2.08,0.1c1.49,0.1,2.97-0.18,4.32-0.82
			c1-0.72,1.53-1.93,1.37-3.15c0.01-0.51-0.08-1.02-0.26-1.5c-0.19-0.45-0.51-0.83-0.91-1.09c-0.55-0.35-1.16-0.6-1.8-0.74
			c-0.96-0.21-1.94-0.36-2.92-0.43c-1.33-0.08-2.65-0.27-3.94-0.58c-1.02-0.24-1.99-0.65-2.87-1.22c-0.77-0.52-1.39-1.24-1.78-2.08
			c-0.44-1.02-0.64-2.12-0.61-3.22c-0.04-1.37,0.21-2.73,0.74-3.99c0.45-1.03,1.18-1.91,2.1-2.54c1.01-0.67,2.14-1.13,3.33-1.35
			c1.46-0.28,2.95-0.42,4.44-0.4c1.41,0.01,2.83,0.13,4.22,0.35c1.48,0.23,2.94,0.56,4.37,1.01c-0.21,0.68-0.41,1.35-0.63,2.01
			C397.08,139.39,396.83,140.03,396.63,140.71z"/>
		
			<linearGradient id="SVGID_1_" gradientUnits="userSpaceOnUse" x1="1.3444" y1="-3457.9641" x2="70.5808" y2="-3457.9641" gradientTransform="matrix(1 0 0 -1 0 -3371.5063)">
			<stop  offset="0" style="stop-color:#D5652C"/>
			<stop  offset="1" style="stop-color:#E0922F"/>
		</linearGradient>
		<path class="st30" d="M9.93,95.04c7.41,0,11.22-6.37,26.04-6.37s18.6,6.37,26.04,6.37c4.74,0,8.58-3.84,8.58-8.58
			s-3.84-8.58-8.58-8.58c-7.46,0-11.22,6.37-26.04,6.37s-18.6-6.37-26.04-6.37c-4.74,0-8.58,3.84-8.58,8.58S5.19,95.04,9.93,95.04z"
			/>
		
			<linearGradient id="SVGID_2_" gradientUnits="userSpaceOnUse" x1="1.3444" y1="-3520.8254" x2="70.5808" y2="-3520.8254" gradientTransform="matrix(1 0 0 -1 0 -3371.5063)">
			<stop  offset="0" style="stop-color:#D5652C"/>
			<stop  offset="1" style="stop-color:#E0922F"/>
		</linearGradient>
		<path class="st31" d="M62,140.74c-7.46,0-11.22,6.37-26.04,6.37s-18.6-6.37-26.04-6.37c-4.74,0-8.58,3.84-8.58,8.58
			c0,4.74,3.84,8.58,8.58,8.58c7.41,0,11.22-6.37,26.04-6.37s18.6,6.37,26.04,6.37c4.74,0,8.58-3.84,8.58-8.58
			C70.58,144.58,66.74,140.74,62,140.74z"/>
		
			<linearGradient id="SVGID_3_" gradientUnits="userSpaceOnUse" x1="1.3444" y1="-3489.4219" x2="48.9863" y2="-3489.4219" gradientTransform="matrix(1 0 0 -1 0 -3371.5063)">
			<stop  offset="0" style="stop-color:#D5652C"/>
			<stop  offset="1" style="stop-color:#E0922F"/>
		</linearGradient>
		<path class="st32" d="M9.93,126.48c8.25,0,9.42-5.74,15.24-5.74s6.97,5.74,15.24,5.74c4.73,0.17,8.71-3.52,8.89-8.25
			c0.17-4.73-3.52-8.71-8.25-8.89c-0.22-0.01-0.43-0.01-0.65,0c-8.33,0-9.42,5.74-15.24,5.74s-6.96-5.74-15.23-5.74
			c-4.74,0-8.58,3.84-8.58,8.58c0,4.74,3.84,8.58,8.58,8.58V126.48z"/>
	</g>
</g>
</svg>
