<?xml version="1.0" encoding="utf-8"?>
<!-- Generator: Adobe Illustrator 25.2.1, SVG Export Plug-In . SVG Version: 6.00 Build 0)  -->
<svg version="1.1" id="Layer_1" xmlns="http://www.w3.org/2000/svg" xmlns:xlink="http://www.w3.org/1999/xlink" x="0px" y="0px"
	 viewBox="0 0 323 156.1" style="enable-background:new 0 0 323 156.1;" xml:space="preserve">
<style type="text/css">
	.st0{fill:#ED1C24;}
</style>
<polygon points="0,120.7 0,153.6 29.4,153.6 29.4,149.4 4.8,149.4 4.8,138.6 20.7,138.6 20.7,134.3 4.8,134.3 4.8,125 28.6,125 
	28.6,120.7 "/>
<path d="M130.5,140.5c0,5.9-3.9,9.8-9.7,9.8c-5.6,0-9.1-3.9-9.1-9.8v-19.7h-4.8v20c0,9,6.5,13.9,13.9,13.9
	c10.9,0,14.4-7.4,14.4-13.9v-20h-4.7V140.5z"/>
<rect x="161.7" y="120.7" width="4.7" height="32.9"/>
<polygon points="222.9,120.7 222.9,146.5 199.5,120.7 194.8,120.7 194.8,153.6 199.6,153.6 199.6,127.6 223,153.6 227.6,153.6 
	227.6,120.7 "/>
<rect x="256.3" y="120.7" width="4.7" height="32.9"/>
<polygon points="314.9,120.6 304,132.5 293.4,120.6 287.2,120.6 300.5,135.8 283.9,153.6 289.9,153.6 303.5,139 316.5,153.6 
	323,153.6 307,135.7 320.7,120.6 "/>
<path d="M65.3,119.3c-9.8,0.1-17.4,7.5-17.4,17.9v0.1c0,10.3,7.8,17.6,17.5,17.5c2.5,0,5.5-0.7,7.7-1.8l2.7,3.1l5.5,0l-4.7-5.4
	c3.8-2.9,6.3-7.8,6.3-13.7v-0.1C82.9,126.6,75.1,119.3,65.3,119.3 M78,137.1c0,4.7-1.5,7.7-4.3,10.3l-2.6-3l-5.5,0l4.5,5.2
	c-1.1,0.5-3.1,1-4.6,1c-7.1,0-12.7-5.6-12.7-13.4l0-0.1c0-7.9,5.3-13.5,12.3-13.5c7.1-0.1,12.7,5.6,12.7,13.4V137.1z"/>
<g>
	<polygon class="st0" points="164.1,0 150.6,4.7 150.6,75.1 141.7,72 141.7,7.8 114.9,17.2 114.9,62.6 105.9,59.5 105.9,20.3 
		97,23.4 97,65.8 123.8,75.2 123.8,23.5 132.7,20.4 132.7,78.3 159.6,87.7 159.6,11 164.1,9.5 168.5,11 168.5,87.7 195.4,78.3 
		195.4,20.4 204.3,23.5 204.3,75.2 231.2,65.8 231.2,23.4 222.2,20.3 222.2,59.5 213.3,62.6 213.3,17.2 186.4,7.8 186.4,72 
		177.5,75.1 177.5,4.7 	"/>
	<path class="st0" d="M248.3,62.9c4.5,0,8.1-3.7,8.1-8.1v-0.1c0-4.4-3.5-8.1-8.1-8.1c-4.5,0-8.1,3.7-8.1,8.1v0
		C240.2,59.2,243.8,62.9,248.3,62.9 M248.3,62c-4.1,0-7.1-3.2-7.1-7.2v0c0-3.9,3.1-7.2,7.1-7.2c4.1,0,7.1,3.2,7.1,7.2v0.1
		C255.4,58.7,252.3,62,248.3,62 M245,58.8h2v-2.6h1.3l1.8,2.6h2.5l-2.1-3c1.1-0.4,1.9-1.2,1.9-2.6c0-1.9-1.4-2.8-3.4-2.8H245V58.8z
		 M247,54.5v-2.3h1.8c0.9,0,1.4,0.4,1.4,1.2c0,0.7-0.5,1.2-1.4,1.2H247z"/>
</g>
</svg>
