<svg xmlns="http://www.w3.org/2000/svg" role="img" viewBox="-14.18 -14.18 737.36 440.86"><path fill="#0f120b" d="M329.30377 306.18633v12.54502h-37.89372v-60.56248h37.4604v12.54502h-24.0514v9.51736h21.63012v12.1981h-21.63012v13.75698h24.48472m4.41322 9.68936l4.93188-10.72786c4.32522 2.50927 9.2571 4.58522 14.18764 4.58522 2.33728 0 3.63458-.51866 3.63458-1.8161 0-1.55729-1.5573-1.81715-2.76793-2.3358l-7.00916-2.76926c-6.57317-2.5082-9.77442-6.40238-9.77442-12.3721 0-8.21952 5.62386-12.97674 17.1289-12.97674 4.49989 0 9.3451.77865 14.44897 2.42234l-3.63457 10.5544c-4.23856-1.73009-8.65045-2.94206-11.8517-2.94206-2.5946 0-3.20126.69319-3.20126 1.7317 0 1.21036 1.0373 1.73062 3.0266 2.5078l6.92249 2.5962c6.05718 2.25048 9.68909 5.4504 9.68909 12.1997 0 9.51536-7.0065 13.49552-17.6489 13.49552-5.2772 0-12.02636-1.12397-18.08221-4.15296m73.36483-17.1293c0-5.71186-3.97856-9.3435-9.17043-9.3435-5.2772 0-9.2571 3.63164-9.2571 9.3435 0 5.70919 3.9799 9.34243 9.2571 9.34243 5.19187 0 9.17043-3.63324 9.17043-9.34243zm-31.83787-19.98604h13.065v5.4504h.17334c2.50794-4.06656 6.66116-6.7477 13.06367-6.7477 10.38107 0 18.94753 7.26649 18.94753 21.28334 0 14.01418-8.56646 21.28227-18.94753 21.28227-6.4025 0-10.55573-2.68114-13.06367-6.7493h-.17333v22.7541h-13.065v-57.2731m62.11977 15.3996h15.9196c-.172-4.67174-3.37591-7.3534-7.6118-7.3534-4.41456 0-7.70248 2.163-8.3078 7.3534zm28.54996 4.75989v2.941H437.2784c.86398 5.016 4.84521 7.26648 10.20908 7.26648 4.84388 0 9.08377-1.98902 11.5917-3.63431l4.75989 9.86389c-4.2399 2.5942-9.69176 4.67174-16.52625 4.67174-13.409 0-22.31945-8.39192-22.31945-21.1088 0-13.49713 8.82378-21.37147 21.10881-21.37147 12.02637 0 19.8115 6.92236 19.8115 21.37147m17.21824-.17346c0 5.70919 4.15456 9.34243 9.34377 9.34243 5.27853 0 9.3451-3.63324 9.3451-9.34243 0-5.71186-4.06657-9.3435-9.3451-9.3435-5.1892 0-9.34377 3.63164-9.34377 9.3435zm31.83787 0c0 12.80381-9.51576 21.28226-22.4941 21.28226-12.89168 0-22.4061-8.47845-22.4061-21.28226 0-12.80648 9.51442-21.28334 22.4061-21.28334 12.97834 0 22.4941 8.47686 22.4941 21.28334m-190.94322 94.07525c0-4.4119-3.28792-6.5749-8.73845-6.5749h-10.46907v13.15073h10.55707c5.10387 0 8.65045-2.16395 8.65045-6.57583zm-19.20752-29.58887v11.8533h10.03708c4.06523 0 6.8345-2.2494 6.8345-6.05597 0-3.72138-2.85593-5.79733-6.74784-5.79733zm33.1365 31.31949c0 12.45807-9.69042 17.04338-20.59015 17.04338h-25.95535v-60.56256h25.0887c10.6424 0 18.68887 4.49989 18.68887 15.05429 0 7.00822-3.28925 11.33305-9.60376 13.4106v.17293c6.8345 1.12557 12.3717 4.8452 12.3717 14.88136m20.24615 17.04338h-13.06367v-60.56256h13.06367v60.56256m19.72484-19.9849c0 5.70918 4.15323 9.34401 9.34377 9.34401 5.27853 0 9.3451-3.63483 9.3451-9.34402 0-5.71026-4.06657-9.3435-9.3451-9.3435-5.19054 0-9.34377 3.63324-9.34377 9.3435zm31.8392 0c0 12.8054-9.51842 21.28226-22.49543 21.28226-12.89035 0-22.40744-8.47687-22.40744-21.28227 0-12.80488 9.5171-21.28333 22.40744-21.28333 12.977 0 22.49544 8.47845 22.49544 21.28333m4.49855 0c0-12.8914 9.4291-21.28333 22.23411-21.28333 5.62386 0 10.12375 1.38383 14.44897 3.8931l-5.3652 10.46907c-2.42127-1.5573-4.93054-2.42234-8.47845-2.42234-5.19054 0-9.77576 3.37432-9.77576 9.3435 0 5.96905 4.58522 9.34402 9.77576 9.34402 3.54791 0 6.05718-.8656 8.47845-2.42286l5.3652 10.46902c-4.32522 2.50827-8.82511 3.89209-14.44897 3.89209-12.80501 0-22.23411-8.39198-22.23411-21.28227m68.77961 19.9849l-13.58232-18.34227v18.34228h-13.06368v-60.56256h13.06368v36.33762l11.6797-15.74493h16.17827l-15.83294 18.1678 18.42754 21.80207h-16.87025m19.98617-19.9849c0-12.89142 9.4291-21.28334 22.23544-21.28334 5.62253 0 10.12242 1.38383 14.44898 3.8931l-5.3652 10.46907c-2.4226-1.5573-4.93188-2.42234-8.47846-2.42234-5.19053 0-9.77709 3.37432-9.77709 9.3435 0 5.96905 4.58656 9.34402 9.7771 9.34402 3.54657 0 6.05584-.8656 8.47845-2.42286l5.3652 10.46902c-4.32656 2.50827-8.82645 3.89209-14.44898 3.89209-12.80634 0-22.23544-8.39198-22.23544-21.28227m55.19862-14.7075h.17333c2.76793-4.2399 7.09449-6.57583 12.80368-6.57583 8.82378 0 15.05296 5.104 15.05296 16.52505v24.74319H573.195v-21.10995c0-5.96958-2.50927-8.65178-7.26782-8.65178-4.41188 0-7.69847 2.5958-7.69847 9.6903v20.07143h-13.06367v-60.56256h13.06367v25.87015m66.09835 14.7075c0-5.71026-3.98124-9.3435-9.2571-9.3435-5.19187 0-9.17044 3.63324-9.17044 9.3435 0 5.7092 3.97857 9.34402 9.17044 9.34402 5.27586 0 9.2571-3.63483 9.2571-9.34402zm-31.83787 0c0-14.01685 8.56512-21.28333 18.94752-21.28333 6.48784 0 10.5544 2.68273 13.06368 6.7493h.17333v-5.45093h13.06234v39.96987h-13.06234v-5.45195h-.17333c-2.50927 4.06812-6.57584 6.74931-13.06368 6.74931-10.3824 0-18.94752-7.26649-18.94752-21.28227m53.81465-19.98496h13.06368v39.96987h-13.06368zm13.497-7.35449h-14.01565v-13.1502h14.01565v13.1502m49.48543 22.58117v24.74319h-12.97701v-21.10995c0-5.96958-2.50927-8.65178-7.35448-8.65178-4.4119 0-7.69848 2.5958-7.69848 9.6903v20.07143h-13.06634v-39.96987h12.80635v6.05611h.17333c2.76793-4.67175 7.44114-7.35448 13.06367-7.35448 8.82378 0 15.05296 5.104 15.05296 16.52505M31.31642 200.15832C14.02565 200.21298.14166 214.2513.14166 231.52553c.02031 17.2249 14.03825 31.18722 31.32582 31.16056 17.29383-.056 31.18149-14.06632 31.18149-31.33255-.02814-17.26624-14.09338-31.21522-31.33255-31.19522m149.85105-120.301l-31.50988 54.05599c31.7432 18.50354 42.47627 59.23585 23.97274 90.97906-14.31831 24.56205-41.97895 36.58708-68.45896 32.19386-.68278-.15066-1.3677-.272-2.05461-.37333-.0516-.01066-.1032-.016-.1548-.02666-.02187-.004-.04573-.00267-.06813-.00533-12.23303-1.7213-24.82645 3.9599-31.43682 15.29828-8.65698 14.8915-3.57844 34.01382 11.37065 42.69653 3.85924 2.23421 7.9898 3.54365 12.14503 4.01444 51.35565 8.55031 104.93565-14.6371 132.71228-62.28658 35.90577-61.59713 15.07963-140.63915-46.5175-176.54625"/><path fill="#59359a" d="M181.13814 79.908l.02933-.05067c-37.63106-21.93679-81.77355-22.6941-118.61383-5.92119V31.25721h-.02494c.0072-5.24787-1.29583-10.56907-4.06403-15.45428C49.91075.77663 30.85857-4.40323 15.81987 4.09389 5.70403 9.82574.02865 20.3788.025 31.2572H0v112.0932h.03594c.26614 17.0129 14.17984 30.7299 31.31274 30.70323 9.98149-.032 18.8214-4.71855 24.51766-11.99037l.00306.00133s.01467-.02266.01987-.03066c1.10197-1.41063 2.09048-2.91326 2.941-4.50256 1.11356-1.69862 2.26247-3.43991 2.89739-4.37455 19.17298-28.23663 57.60002-36.73775 87.66727-19.38885.10933.06533.21333.13466.324.19866 14.96495 8.65978 34.02848 3.52391 42.72826-11.39972 8.64512-14.87029 3.5919-33.95915-11.30905-42.65893"/></svg>