<?xml version="1.0" encoding="utf-8"?>
<!-- Generator: Adobe Illustrator 23.0.3, SVG Export Plug-In . SVG Version: 6.00 Build 0)  -->
<svg version="1.1" id="Layer_1" xmlns="http://www.w3.org/2000/svg" xmlns:xlink="http://www.w3.org/1999/xlink" x="0px" y="0px"
	 viewBox="0 0 400 245" style="enable-background:new 0 0 400 245;" xml:space="preserve">
<style type="text/css">
	.st0{fill:#E01B22;}
	.st1{fill:#4064AD;}
	.st2{fill:#E98300;}
	.st3{fill:#00549F;}
	.st4{fill-rule:evenodd;clip-rule:evenodd;}
	.st5{fill-rule:evenodd;clip-rule:evenodd;fill:#C9243A;}
	.st6{fill-rule:evenodd;clip-rule:evenodd;fill:#231F20;}
	.st7{fill-rule:evenodd;clip-rule:evenodd;fill:#7C848A;}
	.st8{fill:#EE3B29;}
	.st9{fill:#7C848A;}
	.st10{fill:#0F0F59;}
	.st11{fill:#F42A4D;}
	.st12{fill:#DA2128;}
	.st13{fill-rule:evenodd;clip-rule:evenodd;fill:#12ABDB;}
	.st14{fill-rule:evenodd;clip-rule:evenodd;fill:#0070AD;}
	.st15{fill:#929497;}
	.st16{fill:#231F20;}
	.st17{fill:#00ADEE;}
	.st18{fill:#2E3191;}
	.st19{fill:#EC1C24;}
	.st20{fill:#0082C9;}
	.st21{fill:#6D67AE;}
	.st22{fill:#2B62AD;}
	.st23{fill:#404041;}
	.st24{fill:#273B5B;}
	.st25{fill:#39B54A;}
	.st26{fill:#474749;}
	.st27{fill:#009245;}
	.st28{fill:#DDDDDD;}
	.st29{fill:#FFFFFF;}
	.st30{fill:url(#SVGID_1_);}
	.st31{fill:url(#SVGID_2_);}
	.st32{fill:url(#SVGID_3_);}
	.st33{fill:url(#SVGID_4_);}
	.st34{fill:url(#SVGID_5_);}
	.st35{fill:url(#SVGID_6_);}
	.st36{fill:url(#SVGID_7_);}
	.st37{fill:url(#SVGID_8_);}
	.st38{fill:url(#SVGID_9_);}
	.st39{fill:url(#SVGID_10_);}
	.st40{fill:url(#SVGID_11_);}
	.st41{fill:url(#SVGID_12_);}
	.st42{fill:url(#SVGID_13_);}
	.st43{fill:url(#SVGID_14_);}
	.st44{fill:url(#SVGID_15_);}
	.st45{fill:url(#SVGID_16_);}
	.st46{fill:url(#SVGID_17_);}
	.st47{fill:#59595C;}
	.st48{fill:#1D7DB9;}
	.st49{fill:#121110;}
	.st50{fill:#010101;}
	.st51{fill:#663795;}
	.st52{fill:#09324A;stroke:#1B75BB;stroke-width:0.6975;stroke-miterlimit:10;}
	.st53{fill:#002432;stroke:#1B75BB;stroke-width:1.0463;stroke-miterlimit:10;}
	.st54{fill-rule:evenodd;clip-rule:evenodd;fill:#E73836;}
	.st55{fill:#231916;}
	.st56{fill:#E73836;}
	.st57{fill:#8C9091;}
	.st58{fill-rule:evenodd;clip-rule:evenodd;fill:#365072;}
	.st59{fill:#365072;}
	.st60{fill:#0093D7;}
	.st61{clip-path:url(#SVGID_19_);fill:url(#SVGID_20_);}
	.st62{clip-path:url(#SVGID_22_);fill:url(#SVGID_23_);}
	.st63{clip-path:url(#SVGID_25_);fill:url(#SVGID_26_);}
	.st64{clip-path:url(#SVGID_28_);fill:url(#SVGID_29_);}
	.st65{clip-path:url(#SVGID_31_);fill:url(#SVGID_32_);}
	.st66{clip-path:url(#SVGID_34_);fill:url(#SVGID_35_);}
	.st67{clip-path:url(#SVGID_37_);fill:url(#SVGID_38_);}
	.st68{clip-path:url(#SVGID_40_);fill:url(#SVGID_41_);}
	.st69{clip-path:url(#SVGID_43_);fill:url(#SVGID_44_);}
	.st70{clip-path:url(#SVGID_68_);}
	.st71{clip-path:url(#SVGID_79_);}
	.st72{fill:#00A9E6;}
	.st73{fill:#4D4D4F;}
	.st74{fill:#898B8D;}
	.st75{fill:#04B3AC;}
	.st76{fill:#A4A2A0;}
	.st77{fill:#D0CFCE;}
	.st78{fill:#74777C;}
	.st79{fill:none;stroke:#ED3024;stroke-width:0.4269;}
	.st80{fill:#A2A4A8;}
	.st81{fill:#3F7BA3;}
	.st82{enable-background:new    ;}
	.st83{fill:#E8B520;}
	.st84{fill:#D27D41;}
	.st85{fill:#0B74BB;}
	.st86{fill:#702784;}
	.st87{fill:#AD2E91;}
	.st88{fill:#ED3694;}
	.st89{fill:#004E9A;}
	.st90{clip-path:url(#SVGID_82_);fill:url(#SVGID_83_);}
	.st91{clip-path:url(#SVGID_85_);fill:url(#SVGID_86_);}
	.st92{clip-path:url(#SVGID_88_);fill:url(#SVGID_89_);}
	.st93{fill:#0898CC;}
	.st94{fill:#12284C;}
	.st95{fill-rule:evenodd;clip-rule:evenodd;fill:#84BE42;}
	.st96{fill-rule:evenodd;clip-rule:evenodd;fill:#C1C0C0;}
	.st97{clip-path:url(#SVGID_91_);fill:#84BE42;}
	.st98{fill:#0066A5;}
	.st99{fill:#F05A22;}
	.st100{clip-path:url(#SVGID_93_);}
	.st101{clip-path:url(#SVGID_95_);fill:#1D1D1B;}
	.st102{clip-path:url(#SVGID_97_);}
	.st103{clip-path:url(#SVGID_99_);fill:#1D1D1B;}
	.st104{clip-path:url(#SVGID_101_);}
	.st105{clip-path:url(#SVGID_103_);fill:#1D1D1B;}
	.st106{clip-path:url(#SVGID_105_);}
	.st107{clip-path:url(#SVGID_107_);fill:#1D1D1B;}
	.st108{clip-path:url(#SVGID_109_);}
	.st109{clip-path:url(#SVGID_111_);fill:#1D1D1B;}
	.st110{clip-path:url(#SVGID_113_);}
	.st111{clip-path:url(#SVGID_115_);fill:#1D1D1B;}
	.st112{clip-path:url(#SVGID_117_);}
	.st113{clip-path:url(#SVGID_119_);fill:#1D9DD9;}
	.st114{clip-path:url(#SVGID_121_);}
	.st115{clip-path:url(#SVGID_123_);fill:#1D1D1B;}
	.st116{clip-path:url(#SVGID_125_);}
	.st117{clip-path:url(#SVGID_127_);fill:#1D9DD9;}
	.st118{clip-path:url(#SVGID_129_);}
	.st119{clip-path:url(#SVGID_131_);fill:#1D1D1B;}
	.st120{clip-path:url(#SVGID_133_);}
	.st121{clip-path:url(#SVGID_135_);fill:#1D9DD9;}
	.st122{clip-path:url(#SVGID_137_);}
	.st123{clip-path:url(#SVGID_139_);fill:#1D1D1B;}
	.st124{clip-path:url(#SVGID_141_);}
	.st125{clip-path:url(#SVGID_143_);fill:#1D9DD9;}
	.st126{clip-path:url(#SVGID_145_);}
	.st127{clip-path:url(#SVGID_147_);fill:#1D1D1B;}
	.st128{fill:#D44432;}
	.st129{fill:#272525;}
	.st130{fill:url(#SVGID_148_);}
	.st131{fill:url(#SVGID_149_);}
	.st132{fill:url(#SVGID_150_);}
	.st133{fill:#002B54;}
	.st134{fill:#B2B1B1;}
	.st135{fill:#E1134F;}
	.st136{fill:#454547;}
	.st137{fill:#00B4D0;}
	.st138{fill:#4564A7;}
	.st139{fill:#0088EE;}
	.st140{fill:#026FC2;}
	.st141{fill:#009FEE;}
	.st142{fill:#00BEEE;}
	.st143{fill:#00AFEE;}
	.st144{fill-rule:evenodd;clip-rule:evenodd;fill:#224099;}
	.st145{clip-path:url(#SVGID_152_);}
	.st146{clip-path:url(#SVGID_156_);}
	.st147{fill:#203260;}
	.st148{fill-rule:evenodd;clip-rule:evenodd;fill:#989A9D;}
	.st149{fill-rule:evenodd;clip-rule:evenodd;fill:#DF068C;}
	.st150{fill:#2E3437;}
	.st151{fill:#989FA4;}
	.st152{fill:#E1DE22;}
	.st153{fill-rule:evenodd;clip-rule:evenodd;fill:#86171D;}
	.st154{fill-rule:evenodd;clip-rule:evenodd;fill:#FFFFFF;}
	.st155{fill:none;stroke:#86171D;stroke-width:6.1349;stroke-miterlimit:10;}
	.st156{fill:#1F1F1F;}
	.st157{fill:#009590;}
	.st158{fill:#ED1651;}
</style>
<g>
	<g>
		<g>
			<g>
				<defs>
					<path id="SVGID_81_" d="M376.69,113.16c-7.02,8.48-0.79,16.95,0.13,18.94c1.06,1.46,0.53,5.17-1.32,7.28
						c-7.55,9.27-22.25,10.86-29.4,11.13c-2.38,0-2.78,0.13-3.71,1.19c-0.79,1.06-0.66,1.99,0.66,3.18c1.19,1.06,3.18,1.06,4.5,1.32
						c5.03,0.66,31.13,2.52,45.96-14.97c3.71-4.11,5.17-9.01,5.17-13.24v-0.66c-0.13-5.96-2.78-11.52-6.23-14.3
						c-2.78-2.38-5.83-3.31-8.48-3.31C381.19,109.72,378.54,110.91,376.69,113.16"/>
				</defs>
				<clipPath id="SVGID_1_">
					<use xlink:href="#SVGID_81_"  style="overflow:visible;"/>
				</clipPath>
				
					<linearGradient id="SVGID_2_" gradientUnits="userSpaceOnUse" x1="-2267.7429" y1="-851.2814" x2="-2264.802" y2="-851.2814" gradientTransform="matrix(4.0529 -12.4913 12.4913 4.0529 20188.9395 -24725.1523)">
					<stop  offset="0" style="stop-color:#73BDE9"/>
					<stop  offset="0.102" style="stop-color:#73BDE9"/>
					<stop  offset="0.6314" style="stop-color:#0898CC"/>
					<stop  offset="1" style="stop-color:#0898CC"/>
				</linearGradient>
				<polygon style="clip-path:url(#SVGID_1_);fill:url(#SVGID_2_);" points="393.24,175.68 413.11,114.35 347.02,93.03 
					327.02,154.09 				"/>
			</g>
		</g>
	</g>
	<g>
		<g>
			<g>
				<defs>
					<path id="SVGID_84_" d="M322.51,86.54c-1.46,0.53-2.38,2.38-3.44,3.18c-3.18,3.97-17.62,25.83-9.8,47.28
						c4.5,12.85,17.62,15.76,24.9,13.11c7.15-2.78,9.8-8.74,7.81-13.77c-3.31-9.27-12.32-9.27-15.76-9.27h-0.79
						c-1.85,0-4.64-2.12-5.7-4.77c-3.97-11.26,1.99-24.9,5.17-30.99c1.06-1.99,1.06-2.52,0.66-3.71c-0.13-0.79-0.66-1.32-1.46-1.32
						C323.44,86.14,322.91,86.28,322.51,86.54"/>
				</defs>
				<clipPath id="SVGID_3_">
					<use xlink:href="#SVGID_84_"  style="overflow:visible;"/>
				</clipPath>
				
					<linearGradient id="SVGID_4_" gradientUnits="userSpaceOnUse" x1="-1958.4419" y1="-1037.4921" x2="-1955.5009" y2="-1037.4921" gradientTransform="matrix(8.7589 6.8371 -6.8371 8.7589 10371.0312 22587.5645)">
					<stop  offset="0" style="stop-color:#73BDE9"/>
					<stop  offset="0.102" style="stop-color:#73BDE9"/>
					<stop  offset="0.6314" style="stop-color:#0898CC"/>
					<stop  offset="1" style="stop-color:#0898CC"/>
				</linearGradient>
				<polygon style="clip-path:url(#SVGID_3_);fill:url(#SVGID_4_);" points="269.01,127.6 327.81,173.43 376.16,111.44 
					317.48,65.61 				"/>
			</g>
		</g>
	</g>
	<g>
		<g>
			<g>
				<defs>
					<path id="SVGID_87_" d="M350.73,65.88c-11.13,0.13-18.28,8.74-19.34,15.36c-1.32,7.68,2.52,12.85,8.08,13.77
						c10.6,1.85,14.97-7.68,16.16-9.8c1.06-1.72,4.37-3.05,7.02-2.52c11.79,1.99,20.53,14.04,24.5,20c1.19,1.99,1.46,2.12,2.78,2.38
						c1.19,0.13,1.99-0.53,2.38-2.12c0.13-1.46-0.66-3.18-1.06-4.5c-1.85-4.64-13.51-28.34-35.89-32.05
						c-1.19-0.13-2.38-0.4-3.71-0.4h-0.79v-0.13H350.73z"/>
				</defs>
				<clipPath id="SVGID_5_">
					<use xlink:href="#SVGID_87_"  style="overflow:visible;"/>
				</clipPath>
				
					<linearGradient id="SVGID_6_" gradientUnits="userSpaceOnUse" x1="-2299.0679" y1="-1177.0697" x2="-2296.127" y2="-1177.0697" gradientTransform="matrix(-15.0263 3.9043 -3.9043 -15.0263 -38758.2734 -8631.1221)">
					<stop  offset="0" style="stop-color:#73BDE9"/>
					<stop  offset="0.102" style="stop-color:#73BDE9"/>
					<stop  offset="0.6314" style="stop-color:#0898CC"/>
					<stop  offset="1" style="stop-color:#0898CC"/>
				</linearGradient>
				<polygon style="clip-path:url(#SVGID_5_);fill:url(#SVGID_6_);" points="388.47,50.65 320.53,68.39 334.04,120.31 401.98,102.7 
									"/>
			</g>
		</g>
	</g>
	<path class="st93" d="M342.91,123.36c3.97,5.83,11.92,7.02,17.62,3.18c5.7-3.97,7.02-11.92,3.05-17.62
		c-3.97-5.7-11.92-7.02-17.48-3.05C340.26,109.98,338.94,117.8,342.91,123.36"/>
	<path class="st94" d="M207.95,128.26c0,3.84-0.66,9.01-6.62,9.01c-1.72,0-3.97-0.13-5.7-0.4l-0.53-0.13v-22.38l0.53-0.13
		c1.32-0.13,3.44-0.13,5.7-0.13c5.96,0,6.62,5.03,6.62,9.01V128.26z M218.15,122.7c0-11.13-5.83-17.09-16.82-17.09
		c-6.49,0-12.32,1.32-14.44,1.85c-1.85,0.4-1.85,0.66-1.85,1.46v48.48c0,0.4,0.53,0.79,1.06,0.79h8.48c0.53,0,0.79-0.53,0.79-0.79
		v-12.72l0.66,0.13c2.12,0.13,4.37,0.53,5.56,0.53c10.99,0,16.82-6.23,16.82-17.09v-5.56C218.41,122.7,218.15,122.7,218.15,122.7z"
		/>
	<path class="st94" d="M177.75,143.89v-5.3c0-0.13,0-0.66-1.06-0.66h-3.31c-2.52,0-2.78-1.06-2.78-3.71v-20.66h6.23
		c0.53,0,0.79-0.53,0.79-1.06v-5.56c0-0.53-0.4-0.79-0.79-0.79h-6.23v-7.81c0-0.4-0.13-0.66-0.66-0.66h-0.26l-8.48,1.46
		c-0.53,0-1.06,0.4-1.06,0.79v6.23h-5.96c-0.53,0-1.06,0.53-1.06,1.06v4.5c0,0.66,0.53,1.06,1.06,1.06l5.83,1.06v20.26
		c0,9.67,3.71,11.52,11.13,11.52c1.99,0,3.31-0.13,5.3-0.66C177.35,144.55,177.75,144.42,177.75,143.89"/>
	<path class="st94" d="M147.95,143.23V137c0-0.4-0.53-0.66-0.79-0.66h-0.26c-2.52,0.13-4.5,0.53-8.48,0.53
		c-2.78,0-6.23-1.46-6.23-8.48v-5.83c0-7.02,3.31-8.61,6.23-8.61c3.97,0,5.83,0.13,8.48,0.53h0.13c0.4,0,0.79-0.13,0.79-0.66v-6.23
		c0-0.66-0.13-0.79-1.06-1.06c-1.99-0.53-5.03-1.06-9.14-1.06c-9.8,0-15.63,6.36-15.63,16.95v5.83c0,10.6,5.83,16.95,15.63,16.95
		c3.97,0,7.02-0.66,9.14-1.06C147.82,144.16,147.95,143.89,147.95,143.23"/>
	<path class="st94" d="M274.57,128c0,7.28-3.71,9.01-6.62,9.01c-4.37,0-6.62-3.18-6.62-9.01v-4.9c0-5.83,2.38-9.01,6.62-9.01
		c3.05,0,6.62,1.46,6.62,9.01V128z M284.63,122.96c0-11.13-5.96-17.48-16.69-17.48c-10.6,0-16.82,6.49-16.82,17.48v4.9
		c0,10.99,6.23,17.48,16.82,17.48s16.69-6.36,16.69-17.48V122.96z"/>
	<path class="st94" d="M245.96,105.48c-3.18,0-6.49,1.19-9.01,3.18l-0.79,0.66v-2.52c0-0.53-0.4-0.79-0.79-0.79h-8.34
		c-0.53,0-0.79,0.4-0.79,0.79v36.95c0,0.53,0.53,1.06,1.06,1.06h8.48c0.4,0,0.79-0.53,0.79-1.06v-27.28l0.13-0.13
		c3.18-1.72,5.96-2.38,9.27-2.38h0.53c0.4,0,0.66-0.53,0.66-0.79v-6.49C246.75,106.01,246.49,105.48,245.96,105.48"/>
	<path class="st94" d="M58.28,132.1l7.15,11.52c0.66,1.06,1.06,1.32,1.46,1.32h10.46c0.13,0,0.53-0.13,0.53-0.53
		c0-0.13-0.13-0.13-0.13-0.13L64.9,125.48l11.66-18.28v-0.53c0-0.13,0-0.4-0.13-0.4h-9.27c-0.4,0-0.66,0.13-1.32,1.19l-5.96,10.2
		l-6.62-10.2c-0.53-0.79-0.79-1.19-1.32-1.19H41.46c-0.13,0-0.53,0.13-0.53,0.53v0.13l11.92,17.75l-12.32,19.34v0.4
		c0,0.4,0.13,0.4,0.13,0.4h9.27c0.53,0,0.79-0.13,1.46-1.19L58.28,132.1z"/>
	<path class="st94" d="M103.84,136.21l-0.4,0.13c-1.99,1.06-3.97,1.46-5.83,1.46c-3.05,0-4.9-0.66-4.9-3.84v-0.66
		c0-3.97,1.85-5.56,6.49-5.56h4.5v8.61h0.13V136.21z M98.15,105.48c-4.37,0-9.14,0.79-11.92,1.46c-0.4,0.13-1.06,0.4-1.06,1.06v5.56
		c0,0.53,0.13,0.66,0.79,0.66h0.13c1.99-0.13,7.02-0.53,11.52-0.53c2.78,0,5.7,0.66,5.7,5.3v2.91h-4.11
		c-11.52,0-16.42,3.31-16.42,11.26v0.66c0,9.8,7.02,11.52,11.26,11.52c3.71,0,6.36-1.06,9.27-3.05l0.79-0.66v2.12
		c0,0.53,0.4,1.06,0.79,1.06h7.68c0.53,0,0.79-0.53,0.79-1.06v-24.64C113.78,110.12,108.74,105.48,98.15,105.48"/>
	<path class="st94" d="M25.04,122.57H11.53v-0.79c0-5.03,2.52-8.34,6.89-8.34c4.11,0,6.62,3.05,6.62,8.34V122.57z M18.28,105.48
		c-10.6,0-16.95,6.89-16.95,17.75v4.9c0,16.03,12.98,17.35,16.82,17.35c6.23,0,9.93-0.66,13.91-1.72c1.06-0.13,1.06-0.53,1.06-1.32
		v-5.3c0-0.13,0-0.66-0.79-0.66h-0.26c-2.78,0.4-9.14,0.66-13.24,0.66c-4.9,0-7.55-2.78-7.55-8.08v-0.53h22.52
		c0.79,0,1.06-0.66,1.06-1.19v-3.97C34.97,112.37,28.74,105.48,18.28,105.48"/>
	<path class="st94" d="M48.88,178.86c-0.53,0-1.06,0.13-2.78,0.13c-1.85,0-3.18-0.53-3.18-2.78v-5.03c0-2.38,1.46-2.78,3.18-2.78
		c1.72,0,2.38,0.13,2.78,0.13c0.13,0.13,0.13,0.13,0.13,0.4v0.79c0,0.13-0.13,0.4-0.13,0.4h-2.78c-0.79,0-1.19,0.13-1.19,1.19v1.46
		h3.84c0.13,0,0.4,0.13,0.4,0.13v1.06c0,0.13-0.13,0.13-0.4,0.13H44.9v1.85c0,1.06,0.4,1.19,1.19,1.19h2.78
		c0.13,0,0.13,0.13,0.13,0.4v0.66C49.14,178.72,49.14,178.86,48.88,178.86"/>
	<path class="st94" d="M61.59,179.12h-1.72c-0.13,0-0.13-0.13-0.4-0.4l-1.99-3.31l-1.99,3.31c0,0.13-0.13,0.4-0.4,0.4h-1.46
		c-0.13,0-0.13-0.13-0.13-0.13v-0.13l3.05-5.03l-3.18-5.03v-0.13c0-0.13,0.13-0.13,0.13-0.13h1.72c0.13,0,0.13,0.13,0.4,0.13
		l1.99,3.18l1.99-3.18c0.13-0.13,0.13-0.13,0.4-0.13h1.46c0.13,0,0.13,0,0.13,0.13v0.13l-3.05,5.03l3.18,5.03v0.13
		C61.86,178.86,61.72,179.12,61.59,179.12"/>
	<path class="st94" d="M67.68,179.12h-1.32c-0.13,0-0.4-0.13-0.4-0.4v-10.2c0-0.13,0.13-0.13,0.4-0.13h1.32
		c0.13,0,0.4,0.13,0.4,0.13v10.2C68.08,178.72,68.08,179.12,67.68,179.12"/>
	<path class="st94" d="M79.74,169.98h-2.52v8.74c0,0.13-0.13,0.4-0.4,0.4H75.5c-0.13,0-0.4-0.13-0.4-0.4v-8.74h-2.38
		c-0.13,0-0.4,0-0.4-0.13v-1.06c0-0.13,0.13-0.13,0.4-0.13h6.89c0.13,0,0.13,0.13,0.13,0.13v1.06
		C80,169.98,79.87,169.98,79.74,169.98"/>
	<path class="st94" d="M88.08,179.12c-2.38,0-3.84-1.06-3.84-3.97v-6.36c0-0.13,0.13-0.13,0.13-0.13h1.46
		c0.13,0,0.13,0.13,0.13,0.13v6.36c0,1.46,0.53,2.38,1.99,2.38s1.99-0.79,1.99-2.38v-6.36c0-0.13,0.13-0.13,0.4-0.13h1.46
		c0.13,0,0.13,0.13,0.13,0.13v6.36C92.19,178.06,90.47,179.12,88.08,179.12"/>
	<path class="st94" d="M99.74,179.12c-1.06,0-1.85,0-2.52-0.13c-0.13,0-0.13-0.13-0.13-0.13v-1.06c0-0.13,0.13-0.13,0.13-0.13
		c0.66,0.13,1.99,0.13,2.52,0.13c1.32,0,1.72-0.4,1.72-1.19c0-0.66-0.13-0.79-1.19-1.46l-1.99-1.46c-1.32-0.79-1.72-1.72-1.72-2.65
		c0-1.46,1.06-2.65,3.71-2.65c1.06,0,2.12,0.13,2.65,0.13c0.13,0,0.4,0.13,0.4,0.13v1.06c0,0.13-0.13,0.13-0.13,0.13h-0.4
		c-0.79-0.13-1.85-0.13-2.78-0.13c-0.93,0-1.46,0.4-1.46,1.06c0,0.53,0.13,0.66,1.06,1.32l1.85,1.06c1.46,0.79,1.99,1.72,1.99,2.78
		C103.31,177.53,102.52,179.12,99.74,179.12"/>
	<path class="st94" d="M118.15,170.12c0-0.13,0-0.13-0.13-0.13s-0.13,0-0.13,0.13l-1.06,4.37h2.52L118.15,170.12z M122.12,179.12
		h-1.46c-0.13,0-0.13-0.13-0.13-0.4l-0.66-2.65h-3.31l-0.66,2.65c0,0.13-0.13,0.4-0.13,0.4h-1.46c-0.13,0-0.4-0.13-0.4-0.4h0.13
		l2.38-9.01c0.4-1.32,1.32-1.46,1.99-1.46c0.66,0,1.72,0.13,1.99,1.46l2.38,9.01C122.39,178.86,122.25,179.12,122.12,179.12"/>
	<path class="st94" d="M132.58,178.86c-0.13,0-1.19,0.13-2.38,0.13c-1.72,0-3.97-0.79-3.97-4.37v-1.99c0-3.71,2.38-4.37,3.97-4.37
		c1.06,0,1.99,0.13,2.38,0.13c0.13,0,0.4,0.13,0.4,0.13v1.06c0,0.13-0.13,0.4-0.4,0.4c-0.53-0.13-1.46-0.13-2.12-0.13
		c-1.19,0-2.12,0.66-2.12,2.65v1.99c0,1.99,1.06,2.65,2.12,2.65c0.66,0,1.72,0,2.12-0.13c0.13,0,0.4,0.13,0.4,0.4v1.06
		C132.98,178.72,132.85,178.72,132.58,178.86"/>
	<path class="st94" d="M144.11,169.98h-2.52v8.74c0,0.13-0.13,0.4-0.13,0.4H140c-0.13,0-0.13-0.13-0.13-0.4v-8.74h-2.52
		c-0.13,0-0.13,0-0.13-0.13v-1.06c0-0.13,0.13-0.13,0.13-0.13h7.02c0.13,0,0.13,0.13,0.13,0.13v1.06
		C144.37,169.98,144.24,169.98,144.11,169.98"/>
	<path class="st94" d="M152.58,170.12c0-0.13-0.13-0.13-0.13-0.13c-0.13,0-0.13,0-0.13,0.13l-1.06,4.37h2.38L152.58,170.12z
		 M156.42,179.12h-1.46c-0.13,0-0.13-0.13-0.13-0.4l-0.66-2.65h-3.31l-0.66,2.65c0,0.13-0.13,0.4-0.13,0.4h-1.72
		c-0.13,0-0.13-0.13-0.13-0.4l2.38-9.01c0.13-1.32,1.32-1.46,1.99-1.46s1.72,0.13,1.99,1.46l2.38,9.01
		C156.56,178.86,156.56,179.12,156.42,179.12"/>
	<path class="st94" d="M172.72,171.57c0-1.19-0.66-1.72-2.12-1.72c-0.13,0-1.06,0.13-1.19,0.13v3.31h1.19
		C172.19,173.43,172.72,172.9,172.72,171.57 M170.6,175.02c-0.4,0-1.06-0.13-1.19-0.13v3.71c0,0.13-0.13,0.4-0.4,0.4h-1.46
		c-0.13,0-0.13-0.13-0.13-0.4v-9.8c0-0.4,0.13-0.4,0.53-0.53c0.66-0.13,1.72-0.13,2.78-0.13c2.12,0,3.97,0.66,3.97,3.18v0.26
		C174.7,174.22,172.72,175.02,170.6,175.02"/>
	<path class="st94" d="M184.64,171.44c0-1.06-0.66-1.46-2.12-1.46h-1.32v3.18h1.32C183.71,173.29,184.64,172.9,184.64,171.44
		 M186.62,179.12h-1.72c-0.13,0-0.13-0.13-0.4-0.4l-1.99-3.71h-0.13c-0.4,0-1.06-0.13-1.32-0.13v3.84c0,0.13-0.13,0.4-0.13,0.4
		h-1.46c-0.13,0-0.13-0.13-0.13-0.4v-9.93c0-0.4,0.13-0.4,0.53-0.53c0.66-0.13,1.72-0.13,2.78-0.13c2.12,0,3.97,0.66,3.97,3.18v0.26
		c0,1.46-0.66,2.52-1.99,3.05l2.12,3.97c0.13,0,0.13,0.13,0.13,0.13C186.89,178.86,186.89,179.12,186.62,179.12"/>
	<path class="st94" d="M197.22,172.76c0-1.99-0.66-2.78-1.99-2.78c-1.32,0-1.99,0.79-1.99,2.78v1.99c0,1.85,0.66,2.65,1.99,2.65
		c1.46,0,1.99-0.79,1.99-2.65V172.76z M194.97,179.12c-2.38,0-3.97-1.19-3.97-4.37v-1.99c0-3.18,1.85-4.5,3.97-4.5
		c2.38,0,3.97,1.32,3.97,4.5v1.99C199.21,177.93,197.48,179.12,194.97,179.12"/>
	<path class="st94" d="M209.54,175.68c0-0.66-0.53-1.46-1.85-1.46h-1.85v3.18h1.19c1.85,0,2.38-0.53,2.38-1.46v-0.13h0.13
		L209.54,175.68L209.54,175.68z M209.27,171.44c0-1.06-0.66-1.46-2.38-1.46c-0.26,0-0.66,0-1.06,0.13v2.78h1.85
		C209.01,172.9,209.27,172.23,209.27,171.44 M207.15,179.12c-1.19,0-1.99,0-2.38-0.13c-0.53-0.13-0.66-0.13-0.66-0.66v-9.14
		c0-0.53,0.13-0.66,0.66-0.66c0.4-0.13,1.32-0.13,2.38-0.13c2.52,0,4.37,0.66,4.37,2.78v0.13c0,1.06-0.26,1.85-1.19,2.12
		c0.79,0.4,1.32,1.06,1.32,2.12v0.13C211.26,178.46,209.67,179.12,207.15,179.12"/>
	<path class="st94" d="M220,170.12l-0.13-0.13c-0.13,0-0.13,0-0.13,0.13l-1.06,4.37h2.52L220,170.12z M223.84,179.12h-1.46
		c-0.13,0-0.13-0.13-0.13-0.4l-0.66-2.65h-3.18l-0.66,2.65c0,0.13-0.13,0.4-0.13,0.4h-1.46c-0.13,0-0.13-0.13-0.13-0.4l2.38-9.01
		c0.4-1.32,1.46-1.46,1.99-1.46c0.66,0,1.46,0.13,1.99,1.46l2.38,9.01C223.97,178.86,223.97,179.12,223.84,179.12"/>
	<path class="st94" d="M234.7,169.98h-2.52v8.74c0,0.13-0.13,0.4-0.13,0.4h-1.59c-0.13,0-0.13-0.13-0.13-0.4v-8.74h-2.52
		c-0.13,0-0.13,0-0.13-0.13v-1.06c0-0.13,0.13-0.13,0.13-0.13h7.02c0.13,0,0.13,0.13,0.13,0.13v1.06
		C235.1,169.98,234.97,169.98,234.7,169.98"/>
</g>
</svg>
