<?xml version="1.0" encoding="utf-8"?>
<!-- Generator: Adobe Illustrator 23.0.3, SVG Export Plug-In . SVG Version: 6.00 Build 0)  -->
<svg version="1.1" id="Layer_1" xmlns="http://www.w3.org/2000/svg" xmlns:xlink="http://www.w3.org/1999/xlink" x="0px" y="0px"
	 viewBox="0 0 400 245" style="enable-background:new 0 0 400 245;" xml:space="preserve">
<style type="text/css">
	.st0{fill:#E01B22;}
	.st1{fill:#4064AD;}
	.st2{fill:#E98300;}
	.st3{fill:#00549F;}
	.st4{fill-rule:evenodd;clip-rule:evenodd;}
	.st5{fill-rule:evenodd;clip-rule:evenodd;fill:#C9243A;}
	.st6{fill-rule:evenodd;clip-rule:evenodd;fill:#231F20;}
	.st7{fill-rule:evenodd;clip-rule:evenodd;fill:#7C848A;}
	.st8{fill:#EE3B29;}
	.st9{fill:#7C848A;}
	.st10{fill:#0F0F59;}
	.st11{fill:#F42A4D;}
	.st12{fill:#DA2128;}
	.st13{fill-rule:evenodd;clip-rule:evenodd;fill:#12ABDB;}
	.st14{fill-rule:evenodd;clip-rule:evenodd;fill:#0070AD;}
	.st15{fill:#929497;}
	.st16{fill:#231F20;}
	.st17{fill:#00ADEE;}
	.st18{fill:#2E3191;}
	.st19{fill:#EC1C24;}
	.st20{fill:#0082C9;}
	.st21{fill:#6D67AE;}
	.st22{fill:#2B62AD;}
	.st23{fill:#404041;}
	.st24{fill:#273B5B;}
	.st25{fill:#39B54A;}
	.st26{fill:#474749;}
	.st27{fill:#009245;}
	.st28{fill:#DDDDDD;}
	.st29{fill:#FFFFFF;}
	.st30{fill:url(#SVGID_1_);}
	.st31{fill:url(#SVGID_2_);}
	.st32{fill:url(#SVGID_3_);}
	.st33{fill:url(#SVGID_4_);}
	.st34{fill:url(#SVGID_5_);}
	.st35{fill:url(#SVGID_6_);}
	.st36{fill:url(#SVGID_7_);}
	.st37{fill:url(#SVGID_8_);}
	.st38{fill:url(#SVGID_9_);}
	.st39{fill:url(#SVGID_10_);}
	.st40{fill:url(#SVGID_11_);}
	.st41{fill:url(#SVGID_12_);}
	.st42{fill:url(#SVGID_13_);}
	.st43{fill:url(#SVGID_14_);}
	.st44{fill:url(#SVGID_15_);}
	.st45{fill:url(#SVGID_16_);}
	.st46{fill:url(#SVGID_17_);}
	.st47{fill:#59595C;}
	.st48{fill:#1D7DB9;}
	.st49{fill:#121110;}
	.st50{fill:#010101;}
	.st51{fill:#663795;}
	.st52{fill:#09324A;stroke:#1B75BB;stroke-width:0.6975;stroke-miterlimit:10;}
	.st53{fill:#002432;stroke:#1B75BB;stroke-width:1.0463;stroke-miterlimit:10;}
	.st54{fill-rule:evenodd;clip-rule:evenodd;fill:#E73836;}
	.st55{fill:#231916;}
	.st56{fill:#E73836;}
	.st57{fill:#8C9091;}
	.st58{fill-rule:evenodd;clip-rule:evenodd;fill:#365072;}
	.st59{fill:#365072;}
	.st60{fill:#0093D7;}
	.st61{clip-path:url(#SVGID_19_);fill:url(#SVGID_20_);}
	.st62{clip-path:url(#SVGID_22_);fill:url(#SVGID_23_);}
	.st63{clip-path:url(#SVGID_25_);fill:url(#SVGID_26_);}
	.st64{clip-path:url(#SVGID_28_);fill:url(#SVGID_29_);}
	.st65{clip-path:url(#SVGID_31_);fill:url(#SVGID_32_);}
	.st66{clip-path:url(#SVGID_34_);fill:url(#SVGID_35_);}
	.st67{clip-path:url(#SVGID_37_);fill:url(#SVGID_38_);}
	.st68{clip-path:url(#SVGID_40_);fill:url(#SVGID_41_);}
	.st69{clip-path:url(#SVGID_43_);fill:url(#SVGID_44_);}
	.st70{clip-path:url(#SVGID_68_);}
	.st71{clip-path:url(#SVGID_79_);}
	.st72{fill:#00A9E6;}
	.st73{fill:#4D4D4F;}
	.st74{fill:#898B8D;}
	.st75{fill:#04B3AC;}
	.st76{fill:#A4A2A0;}
	.st77{fill:#D0CFCE;}
	.st78{fill:#74777C;}
	.st79{fill:none;stroke:#ED3024;stroke-width:0.4269;}
	.st80{fill:#A2A4A8;}
	.st81{fill:#3F7BA3;}
	.st82{enable-background:new    ;}
	.st83{fill:#E8B520;}
	.st84{fill:#D27D41;}
	.st85{fill:#0B74BB;}
	.st86{fill:#702784;}
	.st87{fill:#AD2E91;}
	.st88{fill:#ED3694;}
	.st89{fill:#004E9A;}
	.st90{clip-path:url(#SVGID_82_);fill:url(#SVGID_83_);}
	.st91{clip-path:url(#SVGID_85_);fill:url(#SVGID_86_);}
	.st92{clip-path:url(#SVGID_88_);fill:url(#SVGID_89_);}
	.st93{fill:#0898CC;}
	.st94{fill:#12284C;}
	.st95{fill-rule:evenodd;clip-rule:evenodd;fill:#84BE42;}
	.st96{fill-rule:evenodd;clip-rule:evenodd;fill:#C1C0C0;}
	.st97{clip-path:url(#SVGID_91_);fill:#84BE42;}
	.st98{fill:#0066A5;}
	.st99{fill:#F05A22;}
	.st100{clip-path:url(#SVGID_93_);}
	.st101{clip-path:url(#SVGID_95_);fill:#1D1D1B;}
	.st102{clip-path:url(#SVGID_97_);}
	.st103{clip-path:url(#SVGID_99_);fill:#1D1D1B;}
	.st104{clip-path:url(#SVGID_101_);}
	.st105{clip-path:url(#SVGID_103_);fill:#1D1D1B;}
	.st106{clip-path:url(#SVGID_105_);}
	.st107{clip-path:url(#SVGID_107_);fill:#1D1D1B;}
	.st108{clip-path:url(#SVGID_109_);}
	.st109{clip-path:url(#SVGID_111_);fill:#1D1D1B;}
	.st110{clip-path:url(#SVGID_113_);}
	.st111{clip-path:url(#SVGID_115_);fill:#1D1D1B;}
	.st112{clip-path:url(#SVGID_117_);}
	.st113{clip-path:url(#SVGID_119_);fill:#1D9DD9;}
	.st114{clip-path:url(#SVGID_121_);}
	.st115{clip-path:url(#SVGID_123_);fill:#1D1D1B;}
	.st116{clip-path:url(#SVGID_125_);}
	.st117{clip-path:url(#SVGID_127_);fill:#1D9DD9;}
	.st118{clip-path:url(#SVGID_129_);}
	.st119{clip-path:url(#SVGID_131_);fill:#1D1D1B;}
	.st120{clip-path:url(#SVGID_133_);}
	.st121{clip-path:url(#SVGID_135_);fill:#1D9DD9;}
	.st122{clip-path:url(#SVGID_137_);}
	.st123{clip-path:url(#SVGID_139_);fill:#1D1D1B;}
	.st124{clip-path:url(#SVGID_141_);}
	.st125{clip-path:url(#SVGID_143_);fill:#1D9DD9;}
	.st126{clip-path:url(#SVGID_145_);}
	.st127{clip-path:url(#SVGID_147_);fill:#1D1D1B;}
	.st128{fill:#D44432;}
	.st129{fill:#272525;}
	.st130{fill:url(#SVGID_148_);}
	.st131{fill:url(#SVGID_149_);}
	.st132{fill:url(#SVGID_150_);}
	.st133{fill:#002B54;}
	.st134{fill:#B2B1B1;}
	.st135{fill:#E1134F;}
	.st136{fill:#454547;}
	.st137{fill:#00B4D0;}
	.st138{fill:#4564A7;}
	.st139{fill:#0088EE;}
	.st140{fill:#026FC2;}
	.st141{fill:#009FEE;}
	.st142{fill:#00BEEE;}
	.st143{fill:#00AFEE;}
	.st144{fill-rule:evenodd;clip-rule:evenodd;fill:#224099;}
	.st145{clip-path:url(#SVGID_152_);}
	.st146{clip-path:url(#SVGID_156_);}
	.st147{fill:#203260;}
	.st148{fill-rule:evenodd;clip-rule:evenodd;fill:#989A9D;}
	.st149{fill-rule:evenodd;clip-rule:evenodd;fill:#DF068C;}
	.st150{fill:#2E3437;}
	.st151{fill:#989FA4;}
	.st152{fill:#E1DE22;}
	.st153{fill-rule:evenodd;clip-rule:evenodd;fill:#86171D;}
	.st154{fill-rule:evenodd;clip-rule:evenodd;fill:#FFFFFF;}
	.st155{fill:none;stroke:#86171D;stroke-width:6.1349;stroke-miterlimit:10;}
	.st156{fill:#1F1F1F;}
	.st157{fill:#009590;}
	.st158{fill:#ED1651;}
</style>
<g>
	<g>
		<path class="st81" d="M220.44,124.57c0-13.85,10.34-23.31,23.65-23.31c7.99,0,13.28,3.63,16.74,8.16c0.76,1,0.41,2.46-0.72,3.03
			l-3.09,1.58c-0.87,0.45-1.93,0.2-2.53-0.58c-2.34-3.01-6.17-5.17-10.41-5.17c-8.92,0-15.54,6.82-15.54,16.28
			c0,9.46,6.62,16.28,15.54,16.28c4.24,0,8.07-2.11,10.41-5.15c0.6-0.78,1.66-1.03,2.53-0.58l3.06,1.56
			c1.13,0.57,1.48,2.04,0.71,3.04c-3.49,4.53-8.74,8.16-16.72,8.16C230.77,147.87,220.44,138.42,220.44,124.57z"/>
		<path class="st81" d="M300,124.57c0-10.79,6.13-19.27,15.53-22.2c0.44-0.14,0.88-0.26,1.33-0.37c1.94-0.48,4.01-0.74,6.18-0.74
			c13.51,0,23.04,9.86,23.04,23.31s-9.53,23.31-23.04,23.31C309.52,147.87,300,138.01,300,124.57z M337.96,124.57
			c0-9.32-5.88-16.28-14.93-16.28c-9.12,0-14.93,6.96-14.93,16.28c0,9.26,5.81,16.28,14.93,16.28
			C332.09,140.85,337.96,133.82,337.96,124.57z"/>
		<path class="st81" d="M203.3,102h-7.09c-0.84,0-1.59,0.51-1.9,1.29l-16.1,40.99c-0.52,1.34,0.46,2.78,1.9,2.78h4.6
			c0.84,0,1.6-0.52,1.9-1.31l2.81-7.34l2.23-6.96l2.33-6.18l5.77-15.3l8.11,21.48h-8.13c-0.89,0-1.67,0.57-1.94,1.42l-1.35,4.21
			c-0.21,0.66,0.28,1.33,0.97,1.33h12.68l2.81,7.34c0.3,0.79,1.06,1.31,1.9,1.31h4.6c1.44,0,2.42-1.45,1.9-2.78l-16.1-40.99
			C204.89,102.51,204.14,102,203.3,102z"/>
		<path class="st81" d="M177.92,120.65h-14.89v-11.69h21.08c0.84,0,1.59-0.51,1.9-1.29l1.13-2.88c0.53-1.34-0.46-2.78-1.9-2.78
			h-28.08c-1.12,0-2.04,0.91-2.04,2.04v40.99c0,1.12,0.91,2.04,2.04,2.04H161c1.12,0,2.04-0.91,2.04-2.04v-17.42h13.75
			c0.84,0,1.59-0.51,1.9-1.29l1.13-2.89C180.34,122.09,179.36,120.65,177.92,120.65z"/>
		<path class="st81" d="M265.55,102c-1.71,0-2.67,1.99-1.58,3.31l1.9,2.77c0.38,0.55,1.01,0.88,1.68,0.88h11.33v38.1h7.9v-38.1
			h11.34c0.68,0,1.3-0.35,1.68-0.91c0.63-0.93,1.32-1.82,2.06-2.66c1.16-1.32,0.26-3.39-1.5-3.39L265.55,102z"/>
		<g>
			<path class="st81" d="M386.74,103.15l-9.13,22.02c-0.21,0.5-0.21,1.06,0,1.56l2.76,6.7c0.35,0.84,1.53,0.84,1.88,0l8.25-19.92
				v31.41c0,1.12,0.91,2.04,2.04,2.04h3.83c1.12,0,2.04-0.91,2.04-2.04v-40.99c0-1.12-0.91-2.04-2.04-2.04h-7.75
				C387.8,101.89,387.06,102.39,386.74,103.15z"/>
			<path class="st81" d="M376.04,141.53c1.45,0,2.44-1.47,1.88-2.81l-2.96-7.17l0,0l-11.71-28.4c-0.31-0.76-1.06-1.26-1.88-1.26
				h-7.75c-1.12,0-2.04,0.91-2.04,2.04v40.99c0,1.12,0.91,2.04,2.04,2.04h3.83c1.12,0,2.04-0.91,2.04-2.04v-31.41l11.03,26.76
				c0.31,0.76,1.06,1.26,1.88,1.26H376.04z"/>
		</g>
	</g>
	<g>
		<g class="st82">
			<g>
				<g>
					<path class="st83" d="M39.76,158.64c-1.12,1.4-1.98,2.75-2.53,4.01C37.78,161.4,38.64,160.05,39.76,158.64"/>
				</g>
			</g>
		</g>
		<path class="st84" d="M46.09,74.59c1.19-0.05,2.78-0.12,3.97-0.13c4.21,0.02,6.41,1.66,5.55,4.9c-1.06,3.97-6.47,9.35-13.74,14.17
			c-1.37,0.65-2.79-1.21-2.5-1.99c0.04-0.11,0.15-0.22,0.24-0.3c6.35-4.21,11.08-8.91,12-12.37c0.86-3.24-1.8-4.66-6.6-4.19
			L46.09,74.59"/>
		<path class="st83" d="M70.61,79.26c2.44,1.13,3.46,3.23,2.65,6.27c-2.43,9.1-20.31,23.23-39.94,31.54
			c-3.73,1.58-7.25,2.84-10.49,3.77c-1.77,0.26-2.06-2.31-1.32-3.36c0.24-0.34,0.5-0.45,0.71-0.54c3.05-0.88,6.37-2.06,9.88-3.55
			c18.48-7.83,35.31-21.12,37.6-29.69c0.83-3.1-0.36-5.16-3.09-6.15C67.81,78.04,69.43,78.7,70.61,79.26"/>
		<path class="st83" d="M91.87,99.51l0.59,1.12c0.57,1.56,0.57,1.56,0.58,2.5c-0.01,0.05-0.03,0.13-0.08,0.16
			c-0.54-0.18-1.83-2.65-1.96-3.72c-0.01-1.12-0.29-2.09-0.82-2.92L91.87,99.51"/>
		<path class="st81" d="M96.18,110.38c0.28,1.07,0.24,2.31-0.14,3.74c-2.39,8.97-17.67,22.13-36.17,31.83
			c-2.07,0.86-3.33-0.7-2.84-2.03c0.24-0.64,0.67-0.92,1.06-1.16c18.8-9.87,34.34-23.24,36.77-32.36c0.44-1.66,0.43-3.08,0-4.26
			C95.27,107.41,95.84,109.09,96.18,110.38"/>
		<path class="st84" d="M97.6,118.94l0.09,1.55c0.03,0.71-0.07,1.49-0.29,2.34c-1.47,5.49-8.11,12.67-17.38,19.51
			c-1.5,0.92-2.15-0.41-1.94-1.47c0.18-0.86,0.74-1.35,0.98-1.56c9.6-7.09,16.48-14.52,18-20.21c0.29-1.1,0.37-2.09,0.26-2.97
			L97.6,118.94"/>
		<path class="st81" d="M29.88,155.66c-0.19-0.36-1.22-1.67-2.79-1.58c-7.78,1.28-13.36,0.47-15.61-2.37
			c-0.04-0.05-0.08-0.09-0.12-0.14c0.02,0.03,0.05,0.07,0.07,0.1c0.41,0.53,0.9,1.12,1.4,1.71c0.5,0.6,1,1.2,1.45,1.7
			c2.38,2.53,7.73,3.22,15.08,2.01C30.32,156.8,30.1,156.07,29.88,155.66z"/>
		<path class="st84" d="M52.32,156.53c0.12,0.3,0.28,1.05-0.97,1.67c-14.03,5.55-25.03,6.69-29.44,3.58
			c-1.03-0.79-2.42-1.82-3.42-2.65c4.28,3.59,15.92,2.52,30.88-3.4C51.58,155.04,52.31,156.52,52.32,156.53"/>
		<path class="st81" d="M97.53,126.93c-0.15,1.13-0.31,2.64-0.5,3.76c-0.04,0.23-0.09,0.47-0.16,0.71
			c-2.35,8.82-19.67,22.49-38.68,30.54c-12.37,5.24-22.41,6.81-27.26,4.84c-1.2-0.56-2.8-1.28-3.97-1.89
			c16.68,6.95,68.16-21.18,70.62-38.59L97.53,126.93"/>
		<path class="st83" d="M94.1,140.83c-7.17,14.66-40.08,31.05-53.18,28.94c-1.36-0.3-3.17-0.7-4.52-1.06
			c4.69,1.34,13.43-0.2,24.05-4.7c17.1-7.24,32.69-19.47,35.2-27.53C95.2,137.79,94.66,139.56,94.1,140.83"/>
		<path class="st81" d="M83.54,155.54c-0.1,0.17-0.48,0.76-1.13,1.33c-4.58,3.69-10.62,7.33-16.95,10.01
			c-5.34,2.26-10,3.47-13.45,3.64c-1.5,0.03-3.5,0.03-4.99-0.02c4,0.22,10.01-1.15,17.05-4.13c7.17-3.04,14.02-7.17,19.21-11.35
			c0.11-0.08,0.27-0.16,0.4-0.21c0.03,0.06,0.07,0.13,0.1,0.19C83.71,155.17,83.63,155.39,83.54,155.54"/>
		<path class="st83" d="M5.06,117.84c-0.74-0.38-1.33-0.85-1.76-1.43c-0.6-0.82-0.85-1.84-0.75-3.06c0.08-0.44,0.13-0.88,0.22-1.31
			c-0.04,0.14-0.07,0.27-0.1,0.4l-0.34,1.73l-0.39,2.6l0,0c-0.04,0.35-0.06,0.69-0.05,1.02c0.01,0.16,0.04,0.31,0.06,0.46
			c0.01,0.09,0.02,0.17,0.03,0.26c0.07,0.37,0.16,0.72,0.31,1.04c0.03,0.06,0.07,0.1,0.09,0.16c0.04,0.07,0.08,0.14,0.12,0.21
			c0.07,0.13,0.13,0.26,0.22,0.38c0-0.03,0.01-0.05,0.01-0.08c0.45,0.64,1.05,1.19,1.86,1.6c0.42,0.06,0.63-0.68,0.74-1.32
			C5.34,120.47,5.66,118.39,5.06,117.84z"/>
		<path class="st84" d="M79.34,84.69l-1.93-1.43l-1.64-1.11c0.85,0.63,2.43,1.79,2.3,4.55c-0.79,15.79-61.94,53.41-75.57,38.82
			c-0.59-0.8-0.89-1.76-0.89-2.9c0.01,1.2,0.11,2.76,0.18,4.02c0,0.02,0,0.03,0,0.05c0.01,0.09,0.01,0.2,0.02,0.29
			c0,0.02,0.01,0.04,0.01,0.06c0.01,0.09,0.03,0.17,0.05,0.25c0-0.03-0.01-0.06-0.01-0.09c0.02,0.13,0.06,0.25,0.08,0.37
			c-0.02-0.1-0.06-0.18-0.07-0.28c0.04,0.28,0.1,0.54,0.19,0.8c0.03,0.1,0.05,0.2,0.09,0.29c0.02,0.05,0.04,0.09,0.05,0.14
			c-0.01-0.03-0.02-0.07-0.03-0.1c0.07,0.16,0.16,0.3,0.25,0.46c-0.07-0.12-0.16-0.23-0.21-0.35c0.14,0.33,0.31,0.63,0.51,0.92
			c0-0.02,0-0.04,0-0.06c3.48,4.85,16.73,3.78,33.94-3.51c21.78-9.23,41.62-24.9,44.32-35C81.69,88.09,81.07,86.03,79.34,84.69z"/>
		<path class="st81" d="M86.66,91.81c-0.85-1.01-2.07-2.29-2.97-3.27c1.42,1.39,1.87,3.39,1.18,5.97
			c-2.8,10.5-23.43,26.79-46.07,36.38c-17.75,7.52-31.48,8.69-35.22,3.79c-0.01-0.02-0.04-0.05-0.06-0.08
			c-0.4-0.55-0.68-1.17-0.83-1.86c0.29,1.29,0.79,2.99,1.14,4.27c0.22,0.78,0.36,0.94,0.68,1.37l0.03,0.04
			c0.01,0.01,0.01,0.01,0.02,0.02l0,0l0.01,0.02c0,0,0,0,0,0.01l0.04,0.05c0-0.01,0-0.01-0.01-0.02c3.81,5.02,17.81,3.83,35.93-3.85
			c23.1-9.79,44.13-26.4,46.99-37.11C88.17,95.12,87.84,93.21,86.66,91.81z"/>
		<path class="st81" d="M37.15,76.1c-0.69,0.19-0.95,0.26-1.58,0.46c-0.63,0.19-0.87,0.27-1.53,0.5c-0.7,0.24-1.08,0.38-1.55,0.56
			c-0.51,0.19-0.86,0.34-1.58,0.63c-0.53,0.22-0.73,0.31-1.22,0.54c-0.49,0.22-0.67,0.31-1.17,0.55c-0.48,0.24-0.65,0.32-1.11,0.56
			c-0.45,0.23-0.62,0.32-1.08,0.58c-0.46,0.25-0.63,0.35-1.06,0.61c-0.43,0.25-0.6,0.36-1.05,0.63c-0.46,0.29-0.63,0.39-1.06,0.68
			c-0.44,0.29-0.61,0.4-1.06,0.72c-0.49,0.34-0.67,0.47-1.12,0.81c-0.45,0.33-0.64,0.47-1.11,0.85c-0.54,0.43-0.74,0.59-1.22,1
			c-0.48,0.4-0.7,0.59-1.22,1.06c-1.05,0.95-1.96,1.89-2.67,2.79c-0.64,0.81-1.14,1.58-1.46,2.31c-0.12,0.28-0.22,0.55-0.29,0.81
			c-0.05,0.18-0.08,0.36-0.1,0.52c-0.08,0.66,0.05,1.21,0.37,1.64c1.48,2.02,7.06,1.56,14.28-1.5c2.29-0.97,4.53-2.11,6.62-3.34
			c0.47-0.4,0.14-1-0.02-1.24c-0.15-0.23-0.91-1.09-1.57-0.85c-1.66,0.98-3.44,1.89-5.26,2.66c-5.74,2.43-10.18,2.8-11.36,1.2
			c-0.32-0.43-0.4-1.01-0.21-1.72c0.2-0.75,0.68-1.59,1.39-2.47c0.89-1.11,2.14-2.3,3.63-3.48c3.14-2.28,6.93-4.46,10.88-6.14
			c0.63-0.27,1.22-0.48,1.83-0.71c5.7-1.87,9.44-1.29,8.66,1.62c-0.24,0.89-0.87,1.91-1.84,3.06c0.42,0.42,2.64,0.93,3.61,0.45
			c1.19-1.35,1.99-2.64,2.28-3.76C47.11,75.35,43.28,74.45,37.15,76.1z"/>
		<path class="st84" d="M23.7,99.09c-6.9,2.29-12.01,2.33-13.57,0.22c-0.5-0.68-0.63-1.6-0.33-2.73c0.27-0.9,0.63-1.61,1.05-2.28
			c0.37-0.55,0.74-1.11,1.15-1.64l-0.01,0.02l-0.66,0.86c-0.36,0.48-0.76,1.06-1.15,1.63c-0.39,0.56-0.77,1.12-1.09,1.61
			c-0.29,0.5-0.68,1.18-0.93,1.7c-0.18,0.4-0.32,0.79-0.42,1.16c-0.07,0.26-0.12,0.51-0.15,0.76c-0.02,0.53-0.03,0.92,0.05,1.28
			c0.01,0.02,0.02,0.05,0.02,0.07c0.07,0.32,0.2,0.63,0.46,1.02c0.01,0.02,0.03,0.04,0.04,0.05c1.6,1.86,4.94,1.89,7.45,1.58
			c8.78-1.08,8.91-2.59,9-3.59C24.6,100.79,24.7,98.95,23.7,99.09z"/>
		<path class="st81" d="M61.79,76.05c-0.48-0.13-0.97-0.27-1.85-0.46c-1.13-0.24-1.18-0.23-1.61-0.2c2.25,0.83,3.22,2.53,2.54,5.09
			c-1.89,7.1-15.84,18.11-31.15,24.6c-12.06,5.11-21.37,5.89-23.85,2.51c-0.67-0.91-0.84-2.12-0.44-3.62
			c0.14-0.52,0.34-1.06,0.6-1.62c-0.56,1.25-1.22,2.96-1.72,4.24c-0.09,0.26-0.18,0.52-0.24,0.77c-0.09,0.33-0.15,0.65-0.19,0.96
			c-0.15,1.21,0.09,2.21,0.67,3c2.71,3.69,12.9,2.84,26.09-2.75c16.75-7.1,32-19.14,34.07-26.91C65.47,78.86,64.4,77,61.79,76.05z"
			/>
		<path class="st83" d="M8.37,147.08c0,0-0.2-0.14-0.8-1.44c0,0,0,0,0-0.01c-0.02-0.04-0.05-0.09-0.07-0.13
			c-0.36-0.68-0.69-1.36-1.01-2.05c3.79,5.17,18.05,3.98,36.51-3.84c13.87-5.88,27.01-14.18,36.03-22.24
			c1.57-0.83,2.25,0.45,2.46,1.03c0.47,1.27-0.08,2.04-0.45,2.56c-9.03,8.07-22.2,16.39-36.09,22.28
			c-17.29,7.33-30.86,8.82-35.66,4.76C9.29,147.99,8.65,147.43,8.37,147.08"/>
	</g>
</g>
</svg>
