
		<svg xmlns="http://www.w3.org/2000/svg" xmlns:xlink="http://www.w3.org/1999/xlink" version="1.1" width="3019.3298969072166" height="807.0231958762887">
			
			<g transform="scale(0.9664948453608248) translate(10, 10)">
				
			
			<g transform="scale(5.190311418685121) translate(10, 10)">
				

<g id="SvgjsG1093" transform="matrix(1,0,0,1,0,0)">
</g>
<title xmlns="http://www.w3.org/2000/svg">Artboard 61</title>
<g id="1551122644314" rel="symbol">
	<path class="st0" d="M89.8,10h-77C5.7,10,0,15.7,0,22.8v89.8c0,7.1,5.7,12.8,12.8,12.8h89.8c7.1,0,12.8-5.7,12.8-12.8v-77L89.8,10z    M38.5,22.8H77v19.3H38.5V22.8z M102.7,112.7H12.8V22.8h12.8v32.1h64.2V28.2L102.7,41V112.7z M25.7,67.8h64.2v12.8H25.7V67.8z    M25.7,87h64.2v12.8H25.7V87z" style="fill: #FFA500;"/>
</g>
<g id="1551122642294" rel="main_text">
	<path d="M240.5,23.6v91.2c0,1.4-0.7,2-2,2h-11c-1.4,0-2-0.7-2-2V23.6c0-1.4,0.7-2,2-2h11C239.8,21.5,240.5,22.2,240.5,23.6z    M177.6,18h-8.3c-14.3,0-22.1,7.6-22.1,22.9v7.9H140c-1.4,0-2,0.7-2,2v9.5c0,1.4,0.7,2,2,2h7.2v52.4c0,1.4,0.7,2,2,2h11   c1.4,0,2-0.7,2-2V62.4h13.9c1.4,0,2-0.7,2-2v-9.5c0-1.4-0.7-2-2-2h-13.9v-8c0-6,2.6-8.7,6.9-8.7h8.3c1.4,0,2-0.7,2-2V20   C179.7,18.7,179,18,177.6,18z M205.7,48.8h-11c-1.4,0-2,0.7-2,2v64c0,1.4,0.7,2,2,2h11c1.4,0,2-0.7,2-2v-64   C207.7,49.4,207,48.8,205.7,48.8z M205.7,21.5h-11c-1.4,0-2,0.7-2,2v10.8c0,1.4,0.7,2,2,2h11c1.4,0,2-0.7,2-2V23.6   C207.7,22.2,207,21.5,205.7,21.5z M446.9,115.6c0.1,0.5,0.3,1.2-0.4,1.2H434c-1.5,0-2.5-1.4-2.5-3.3v-4.6   c-3.1,4.8-7.6,8.6-14.6,8.6h-4.2c-12.7,0-21.9-7.6-21.9-21.2s7.5-19.7,21.6-19.7h19.1V71c0-7.2-2.6-9.1-9.7-9.1h-3.7   c-6.9,0-12.1,1.8-15,3c-2.2,0.8-3.7,0.8-4.5-1.1l-2.9-6.7c-0.5-1.4-0.7-2.5,0.7-3.3c5.7-3.5,14.2-5.6,21.6-5.6h3.7   c16.9,0,24.8,7.5,24.8,23.4v41.9C446.6,114.2,446.7,115.1,446.9,115.6z M431.5,88.4h-18.8c-4.1,0-6.9,1.8-6.9,7.8   c0,5.7,2.9,7.8,6.9,7.8h7.2c7.4,0,9.9-3,11.6-6.5V88.4z M486,75.6c-9.3-1.1-10.3-3.8-10.3-7.8c0-3.8,2.9-6,8-6h4.5   c5.6,0,7.2,2.5,8.4,5.6c0.7,1.9,1.9,2.5,3.5,2.5h9.8c1.5,0,1.9-0.8,1.9-2.2c0-12.1-9.7-19.3-23.4-19.3h-4.8   c-14,0-23.1,5.9-23.1,19.7c0,14,6.5,19.3,25.5,20.8c10.6,1,12,2.5,12,8.3c0,4.5-2.6,6.8-8.4,6.8h-5.9c-5.2,0-6.8-1.8-8.3-4.8   c-0.4-1.1-1.2-1.5-3.3-1.5h-9.9c-1.4,0-2.2,0.8-2,2c1.4,11.6,9.4,17.7,24,17.7h4.8c15.4,0,24.2-6.1,24.2-20.3   C513,81.4,504.2,77.4,486,75.6z M308.8,73v11.7c0,2.6-1.4,4.1-4.1,4.1h-34.4v6c0,6.3,3.5,9.1,8.8,9.1h6.7c7.6,0,9.4-1.5,12.3-4.8   c0.8-1,1.6-1,3,0l5.6,3.7c1.4,1,1.5,1.9,0.7,3c-4.9,6-9.4,11.7-21.5,11.7h-6.7c-15,0-24.4-11.2-24.4-25.6V73   c0-14.7,9.4-24.8,24.4-24.8h6.7C298.6,48.2,308.8,57.6,308.8,73z M293.7,71c0-6.5-3.1-9.1-7.9-9.1h-6.7c-5.3,0-8.8,2.6-8.8,9.3v5.9   h23.4V71z M540.1,88.8v6c0,6.3,3.5,9.1,8.8,9.1h6.7c7.6,0,9.4-1.5,12.3-4.8c0.8-1,1.6-1,3,0l5.6,3.7c1.4,1,1.5,1.9,0.7,3   c-4.9,6-9.4,11.7-21.5,11.7H549c-15,0-24.4-11.2-24.4-25.6V73c0-14.7,9.4-24.8,24.4-24.8h6.7c12.8,0,23,9.4,23,24.8v11.7   c0,2.6-1.4,4.1-4.1,4.1H540.1z M540.1,76.9h23.4v-6c0-6.5-3.1-9.1-7.9-9.1H549c-5.3,0-8.8,2.6-8.8,9.3V76.9z M379.2,72.9v20.3   c0,14.4-9,24.4-24,24.4h-3.4c-6.9,0-11.2-3.1-13.6-7.4v4.6c0,1.4-1,2-1.9,2h-11.2c-1.4,0-2-0.7-2-2V23.6c0-1.4,0.7-2,2-2h11.2   c1,0,1.9,0.7,1.9,2V55c2.5-3.9,6.7-6.8,13.6-6.8h3.4C370.2,48.2,379.2,58.3,379.2,72.9z M364.1,71c0-6.5-3.5-9.1-9-9.1h-8   c-5.3,0-8.8,2.6-8.8,9.1v23.8c0,6.3,3.5,9.1,8.8,9.1h8c5.4,0,9-2.9,9-9.1V71z"/>
</g>

			</g>
		
			</g>
		</svg>
	