<svg xmlns="http://www.w3.org/2000/svg" role="img" xmlns:xlink="http://www.w3.org/1999/xlink" viewBox="-3.44 -3.44 178.75 41.75"><defs><path id="a" d="M0 .432h7.575v22.109H0z"/><path id="c" d="M0 35h172V0H0z"/></defs><g fill="none" fill-rule="evenodd"><g transform="translate(0 5)"><mask id="b" fill="#fff"><use xlink:href="#a"/></mask><path fill="#06062A" d="M7.57492 2.80619c-.74024-.31637-1.37553-.4755-1.90353-.4755-.39483 0-.72141.0798-.98259.23752-.2593.15912-.42259.34171-.48988.54683-.06683.20794-.10165.75619-.10165 1.64943l-.00094 2.11506H7.3735V8.6219H4.09445l-.0113 13.91876H2.06292V8.6219H-.00014V6.87953h2.06306V4.4331c0-1.12325.10306-1.9245.30964-2.40468.20753-.47924.55812-.86508 1.0546-1.15798C3.9222.57753 4.5208.43156 5.22385.43156c.65412 0 1.43765.13424 2.35106.40226v1.97237z" mask="url(#b)"/></g><mask id="d" fill="#fff"><use xlink:href="#c"/></mask><path fill="#06062A" d="M9.58698 27h1.82604V11.41616H9.58698V27zm.90643-22c.41599 0 .7703.16207 1.06508.48669.29391.32415.44151.71649.44151 1.17468 0 .4484-.1476.83606-.44151 1.15974-.29477.32508-.64909.48716-1.06508.48716-.40621 0-.75755-.16208-1.05232-.48716C9.14717 7.49743 9 7.10976 9 6.66137c0-.4582.14717-.85053.44109-1.17468C9.73586 5.16207 10.08719 5 10.4934 5zM16 11.40113h2.06563v2.79578c.82596-1.07109 1.74188-1.87055 2.74439-2.40072C21.81349 11.26555 22.90403 11 24.08549 11c1.19926 0 2.26334.29594 3.19321.8897.92987.59234 1.61537 1.38994 2.05793 2.3937C29.7792 15.2867 30 16.84964 30 18.97172V27h-2.06419v-7.44108c0-1.79622-.07744-2.99541-.22946-3.59805-.23956-1.03182-.69896-1.80884-1.37724-2.32966-.67876-.52082-1.56534-.7817-2.65684-.7817-1.2488 0-2.36773.4016-3.35677 1.20481-.9876.80274-1.64038 1.79622-1.9545 2.98185-.19772.77422-.29537 2.18894-.29537 4.24323V27H16V11.40113zm25.42443 3.82314c-1.29822 0-2.3754.41988-3.23055 1.2601-.85563.84023-1.28394 1.93967-1.28394 3.29459 0 1.3848.4283 2.50386 1.28394 3.3581.85515.85517 1.93233 1.28252 3.23055 1.28252 1.25835 0 2.3183-.43389 3.17787-1.30354.86007-.86871 1.29182-1.97656 1.29182-3.3226 0-1.3367-.42338-2.4324-1.26917-3.28711-.84481-.8547-1.91165-1.28206-3.20052-1.28206zM37.0916 6v7.73484c.74437-.70618 1.55029-1.23628 2.41626-1.5903.8645-.35357 1.79054-.53011 2.77713-.53011 2.14352 0 3.96458.7697 5.46564 2.30723C49.25021 15.45826 50 17.43062 50 19.83594c0 2.32124-.77539 4.26184-2.32519 5.82273C46.12551 27.22002 44.28722 28 42.1634 28c-.94524 0-1.82598-.1602-2.64076-.4792-.81625-.31946-1.6261-.84302-2.43103-1.56835v1.64635H33V6h4.0916zm22.37876 8.81837c-1.26419 0-2.31557.43902-3.15707 1.31608-.84053.87658-1.26128 1.99883-1.26128 3.3658 0 1.40668.41687 2.5459 1.24622 3.4186.8313.87173 1.88365 1.30639 3.15756 1.30639 1.2739 0 2.33258-.4395 3.17796-1.3219.84636-.8819 1.26856-2.01579 1.26856-3.4031 0-1.38682-.41491-2.51392-1.24524-3.38032-.83178-.86738-1.89337-1.30155-3.1867-1.30155zM59.40283 11c1.52995 0 2.96759.38184 4.31389 1.14454 1.3463.76368 2.39623 1.79822 3.15124 3.10655C67.62298 16.55796 68 17.96999 68 19.48571c0 1.5259-.3809 2.95197-1.13933 4.27919-.75987 1.3277-1.7957 2.36516-3.10751 3.11333C62.4433 27.62737 60.9969 28 59.4174 28c-2.32433 0-4.30855-.82425-5.9522-2.4737C51.82207 23.87634 51 21.87266 51 19.51477c0-2.52555.92847-4.63099 2.7854-6.31534C55.41495 11.73364 57.28742 11 59.40283 11zm19.06705 3.81837c-1.26378 0-2.3162.43902-3.15532 1.31608-.84251.87658-1.26231 1.99883-1.26231 3.3658 0 1.40668.41542 2.5459 1.24677 3.4186.83085.87173 1.88279 1.30639 3.15725 1.30639 1.27204 0 2.33223-.4395 3.17912-1.3219.84446-.8819 1.26815-2.01579 1.26815-3.4031 0-1.38682-.41543-2.51392-1.24629-3.38032-.83037-.86738-1.89347-1.30155-3.18737-1.30155zM78.40428 11c1.52858 0 2.9663.38184 4.31317 1.14454 1.34589.76368 2.39587 1.79822 3.15045 3.10655C86.62344 16.55796 87 17.96999 87 19.48571c0 1.5259-.37996 2.95197-1.1389 4.27919-.75944 1.3277-1.79533 2.36516-3.10721 3.11333C81.44249 27.62737 79.99797 28 78.41886 28c-2.32446 0-4.30977-.82425-5.95301-2.4737C70.82162 23.87634 70 21.87266 70 19.51477c0-2.52555.92852-4.63099 2.78604-6.31534C74.4152 11.73364 76.2873 11 78.40428 11zM89.192 6h4.273v5.925H96v3.472h-2.535V28h-4.273V15.397H87v-3.472h2.192zm36.05513 7.50017C124.5217 13.16746 123.76107 13 122.96302 13c-1.31762 0-2.44943.41864-3.39632 1.2568-.69066.60946-1.21424 1.5243-1.5667 2.7432h10c-.23082-.91-.5659-1.63755-1.00615-2.18266-.44024-.5438-1.02263-.9827-1.74672-1.31717z" mask="url(#d)"/><path fill="#06062A" d="M164.0376 26.20223h-1.84147v-6.8267c0-1.64834-.06512-2.74913-.1968-3.30142-.2291-.94775-.64218-1.65975-1.24253-2.1379-.60178-.4772-1.38894-.71627-2.36244-.71627-1.11372 0-2.1105.36836-2.99178 1.1046-.88128.73718-1.46214 1.6488-1.74307 2.7358-.17588.70155-.26429 2.00006-.26429 3.89365v5.24824h-1.84099V6.3671h1.841v8.08958c.74675-.98244 1.56623-1.71678 2.46082-2.20349.89507-.4867 1.86333-.73005 2.90718-.73005 1.06904 0 2.01829.27187 2.84823.81466.82852.54469 1.44028 1.27475 1.83528 2.19065.39406.91685.59085 2.35272.59085 4.30762v7.36617zm-27.8953-4.23205c.53049.9197 1.25823 1.6336 2.18229 2.14217.92406.50714 1.95887.76095 3.1073.76095 2.10242 0 3.81982-.83748 5.14982-2.51148l1.46072.95916c-.68402 1.03044-1.60285 1.8299-2.75602 2.3974-1.15365.56846-2.46606.8522-3.93961.8522-2.26262 0-4.13973-.71817-5.62945-2.15737-1.49256-1.43778-2.23742-3.18735-2.23742-5.24777 0-1.38549.34938-2.6726 1.04622-3.86084.69685-1.18777 1.65514-2.11555 2.87438-2.78192 1.2183-.66684 2.58252-.99955 4.09077-.99955.94688 0 1.86143.14449 2.74318.43442.88033.28946 1.62852.66637 2.24313 1.13073.61319.46532 1.13416 1.0566 1.56482 1.77572l-1.46072.90782c-1.2606-1.67543-2.98133-2.5129-5.16361-2.5129-1.74307 0-3.19.56132-4.34223 1.68208-1.15174 1.12122-1.72738 2.4839-1.72738 4.08566 0 1.0428.26477 2.02382.79382 2.94352zm-16.68202 1.30944c1.0272 1.06277 2.29588 1.59368 3.80699 1.59368.72774 0 1.43742-.12595 2.12619-.37976.68924-.25334 1.27534-.58937 1.7578-1.00906.48295-.41874 1.00535-1.09604 1.5672-2.03048l1.55246.81562c-.50862.99955-1.09756 1.8066-1.76446 2.41974-.6669.61408-1.41699 1.0813-2.25073 1.40118-.8347.31987-1.7792.48005-2.8316.48005-2.33487 0-4.16017-.76523-5.47734-2.29522-1.31668-1.52998-1.97503-3.26007-1.97503-5.18978 0-1.81468.55805-3.43165 1.67177-4.85421 1.41366-1.80519 3.3055-2.70825 5.67508-2.70825 2.44134 0 4.3888.9254 5.84667 2.77431 1.03481 1.30755 1.56149 2.93924 1.57908 4.89367h-12.8779c.03423 1.6626.5666 3.0248 1.59382 4.08851zm-5.5263-9.79684h-2.92048v12.71945h-1.841V13.48278h-2.51264v-1.59082h2.51265V6.57765h1.84099v5.3143h2.92048v1.59083zM167.50994 0h-62.01989C103.01022 0 101 2.01099 101 4.48967v26.02019C101 32.989 103.01021 35 105.49005 35h62.0199C169.99216 35 172 32.98901 172 30.50986V4.48966C172 2.011 169.99217 0 167.50994 0z" mask="url(#d)"/></g></svg>