<?xml version="1.0" encoding="utf-8"?>
<!-- Generator: Adobe Illustrator 23.0.3, SVG Export Plug-In . SVG Version: 6.00 Build 0)  -->
<svg version="1.1" id="Layer_1" xmlns="http://www.w3.org/2000/svg" xmlns:xlink="http://www.w3.org/1999/xlink" x="0px" y="0px"
	 viewBox="0 0 400 245" style="enable-background:new 0 0 400 245;" xml:space="preserve">
<style type="text/css">
	.st0{fill:#E01B22;}
	.st1{fill:#4064AD;}
	.st2{fill:#E98300;}
	.st3{fill:#00549F;}
	.st4{fill-rule:evenodd;clip-rule:evenodd;}
	.st5{fill-rule:evenodd;clip-rule:evenodd;fill:#C9243A;}
	.st6{fill-rule:evenodd;clip-rule:evenodd;fill:#231F20;}
	.st7{fill-rule:evenodd;clip-rule:evenodd;fill:#7C848A;}
	.st8{fill:#EE3B29;}
	.st9{fill:#7C848A;}
	.st10{fill:#0F0F59;}
	.st11{fill:#F42A4D;}
	.st12{fill:#DA2128;}
	.st13{fill-rule:evenodd;clip-rule:evenodd;fill:#12ABDB;}
	.st14{fill-rule:evenodd;clip-rule:evenodd;fill:#0070AD;}
	.st15{fill:#929497;}
	.st16{fill:#231F20;}
	.st17{fill:#00ADEE;}
	.st18{fill:#2E3191;}
	.st19{fill:#EC1C24;}
	.st20{fill:#0082C9;}
	.st21{fill:#6D67AE;}
	.st22{fill:#2B62AD;}
	.st23{fill:#404041;}
	.st24{fill:#273B5B;}
	.st25{fill:#39B54A;}
	.st26{fill:#474749;}
	.st27{fill:#009245;}
	.st28{fill:#DDDDDD;}
	.st29{fill:#FFFFFF;}
	.st30{fill:url(#SVGID_1_);}
	.st31{fill:url(#SVGID_2_);}
	.st32{fill:url(#SVGID_3_);}
	.st33{fill:url(#SVGID_4_);}
	.st34{fill:url(#SVGID_5_);}
	.st35{fill:url(#SVGID_6_);}
	.st36{fill:url(#SVGID_7_);}
	.st37{fill:url(#SVGID_8_);}
	.st38{fill:url(#SVGID_9_);}
	.st39{fill:url(#SVGID_10_);}
	.st40{fill:url(#SVGID_11_);}
	.st41{fill:url(#SVGID_12_);}
	.st42{fill:url(#SVGID_13_);}
	.st43{fill:url(#SVGID_14_);}
	.st44{fill:url(#SVGID_15_);}
	.st45{fill:url(#SVGID_16_);}
	.st46{fill:url(#SVGID_17_);}
	.st47{fill:#59595C;}
	.st48{fill:#1D7DB9;}
	.st49{fill:#121110;}
	.st50{fill:#010101;}
	.st51{fill:#663795;}
	.st52{fill:#09324A;stroke:#1B75BB;stroke-width:0.6975;stroke-miterlimit:10;}
	.st53{fill:#002432;stroke:#1B75BB;stroke-width:1.0463;stroke-miterlimit:10;}
	.st54{fill-rule:evenodd;clip-rule:evenodd;fill:#E73836;}
	.st55{fill:#231916;}
	.st56{fill:#E73836;}
	.st57{fill:#8C9091;}
	.st58{fill-rule:evenodd;clip-rule:evenodd;fill:#365072;}
	.st59{fill:#365072;}
	.st60{fill:#0093D7;}
	.st61{clip-path:url(#SVGID_19_);fill:url(#SVGID_20_);}
	.st62{clip-path:url(#SVGID_22_);fill:url(#SVGID_23_);}
	.st63{clip-path:url(#SVGID_25_);fill:url(#SVGID_26_);}
	.st64{clip-path:url(#SVGID_28_);fill:url(#SVGID_29_);}
	.st65{clip-path:url(#SVGID_31_);fill:url(#SVGID_32_);}
	.st66{clip-path:url(#SVGID_34_);fill:url(#SVGID_35_);}
	.st67{clip-path:url(#SVGID_37_);fill:url(#SVGID_38_);}
	.st68{clip-path:url(#SVGID_40_);fill:url(#SVGID_41_);}
	.st69{clip-path:url(#SVGID_43_);fill:url(#SVGID_44_);}
	.st70{clip-path:url(#SVGID_68_);}
	.st71{clip-path:url(#SVGID_79_);}
	.st72{fill:#00A9E6;}
	.st73{fill:#4D4D4F;}
	.st74{fill:#898B8D;}
	.st75{fill:#04B3AC;}
	.st76{fill:#A4A2A0;}
	.st77{fill:#D0CFCE;}
	.st78{fill:#74777C;}
	.st79{fill:none;stroke:#ED3024;stroke-width:0.4269;}
	.st80{fill:#A2A4A8;}
	.st81{fill:#3F7BA3;}
	.st82{enable-background:new    ;}
	.st83{fill:#E8B520;}
	.st84{fill:#D27D41;}
	.st85{fill:#0B74BB;}
	.st86{fill:#702784;}
	.st87{fill:#AD2E91;}
	.st88{fill:#ED3694;}
	.st89{fill:#004E9A;}
	.st90{clip-path:url(#SVGID_82_);fill:url(#SVGID_83_);}
	.st91{clip-path:url(#SVGID_85_);fill:url(#SVGID_86_);}
	.st92{clip-path:url(#SVGID_88_);fill:url(#SVGID_89_);}
	.st93{fill:#0898CC;}
	.st94{fill:#12284C;}
	.st95{fill-rule:evenodd;clip-rule:evenodd;fill:#84BE42;}
	.st96{fill-rule:evenodd;clip-rule:evenodd;fill:#C1C0C0;}
	.st97{clip-path:url(#SVGID_91_);fill:#84BE42;}
	.st98{fill:#0066A5;}
	.st99{fill:#F05A22;}
	.st100{clip-path:url(#SVGID_93_);}
	.st101{clip-path:url(#SVGID_95_);fill:#1D1D1B;}
	.st102{clip-path:url(#SVGID_97_);}
	.st103{clip-path:url(#SVGID_99_);fill:#1D1D1B;}
	.st104{clip-path:url(#SVGID_101_);}
	.st105{clip-path:url(#SVGID_103_);fill:#1D1D1B;}
	.st106{clip-path:url(#SVGID_105_);}
	.st107{clip-path:url(#SVGID_107_);fill:#1D1D1B;}
	.st108{clip-path:url(#SVGID_109_);}
	.st109{clip-path:url(#SVGID_111_);fill:#1D1D1B;}
	.st110{clip-path:url(#SVGID_113_);}
	.st111{clip-path:url(#SVGID_115_);fill:#1D1D1B;}
	.st112{clip-path:url(#SVGID_117_);}
	.st113{clip-path:url(#SVGID_119_);fill:#1D9DD9;}
	.st114{clip-path:url(#SVGID_121_);}
	.st115{clip-path:url(#SVGID_123_);fill:#1D1D1B;}
	.st116{clip-path:url(#SVGID_125_);}
	.st117{clip-path:url(#SVGID_127_);fill:#1D9DD9;}
	.st118{clip-path:url(#SVGID_129_);}
	.st119{clip-path:url(#SVGID_131_);fill:#1D1D1B;}
	.st120{clip-path:url(#SVGID_133_);}
	.st121{clip-path:url(#SVGID_135_);fill:#1D9DD9;}
	.st122{clip-path:url(#SVGID_137_);}
	.st123{clip-path:url(#SVGID_139_);fill:#1D1D1B;}
	.st124{clip-path:url(#SVGID_141_);}
	.st125{clip-path:url(#SVGID_143_);fill:#1D9DD9;}
	.st126{clip-path:url(#SVGID_145_);}
	.st127{clip-path:url(#SVGID_147_);fill:#1D1D1B;}
	.st128{fill:#D44432;}
	.st129{fill:#272525;}
	.st130{fill:url(#SVGID_148_);}
	.st131{fill:url(#SVGID_149_);}
	.st132{fill:url(#SVGID_150_);}
	.st133{fill:#002B54;}
	.st134{fill:#B2B1B1;}
	.st135{fill:#E1134F;}
	.st136{fill:#454547;}
	.st137{fill:#00B4D0;}
	.st138{fill:#4564A7;}
	.st139{fill:#0088EE;}
	.st140{fill:#026FC2;}
	.st141{fill:#009FEE;}
	.st142{fill:#00BEEE;}
	.st143{fill:#00AFEE;}
	.st144{fill-rule:evenodd;clip-rule:evenodd;fill:#224099;}
	.st145{clip-path:url(#SVGID_152_);}
	.st146{clip-path:url(#SVGID_156_);}
	.st147{fill:#203260;}
	.st148{fill-rule:evenodd;clip-rule:evenodd;fill:#989A9D;}
	.st149{fill-rule:evenodd;clip-rule:evenodd;fill:#DF068C;}
	.st150{fill:#2E3437;}
	.st151{fill:#989FA4;}
	.st152{fill:#E1DE22;}
	.st153{fill-rule:evenodd;clip-rule:evenodd;fill:#86171D;}
	.st154{fill-rule:evenodd;clip-rule:evenodd;fill:#FFFFFF;}
	.st155{fill:none;stroke:#86171D;stroke-width:6.1349;stroke-miterlimit:10;}
	.st156{fill:#1F1F1F;}
	.st157{fill:#009590;}
	.st158{fill:#ED1651;}
</style>
<g>
	<g>
		<g>
			<g>
				<path class="st75" d="M190.87,111c-0.45-3.91-3.79-6.98-7.82-6.98h-26.4c-0.65,0-1.18,0.53-1.18,1.18v47.6
					c0,0.65,0.53,1.18,1.18,1.18h8.69c0.65,0,1.18-0.53,1.18-1.18v-39.77c0-0.65,0.53-1.18,1.18-1.18h8.23
					c2.17,0,3.94,1.77,3.94,3.94v37.02c0,0.65,0.53,1.18,1.18,1.18h8.69c0.65,0,1.18-0.53,1.18-1.18v-40.9
					C190.93,111.89,190.93,111.29,190.87,111z"/>
			</g>
			<path class="st75" d="M114.46,100.03c0-0.65,0.53-1.18,1.18-1.18h18.16c0.65,0,1.18-0.53,1.18-1.18V92.2
				c0-0.65-0.53-1.18-1.18-1.18h-29.21c-0.65,0-1.18,0.53-1.18,1.18v61.77h9.87c0.65,0,1.18-0.53,1.18-1.18v-25.2
				c0-0.65,0.53-1.18,1.18-1.18h16.5c0.65,0,1.18-0.53,1.18-1.18v-5.46c0-0.65-0.53-1.18-1.18-1.18h-17.68V100.03z"/>
			<g>
				<path class="st75" d="M149.58,91.02h-9.87v6.64c0,0.65,0.53,1.18,1.18,1.18h8.69c0.65,0,1.18-0.53,1.18-1.18V92.2
					C150.76,91.55,150.23,91.02,149.58,91.02z"/>
				<path class="st75" d="M149.58,104.02h-8.69c-0.65,0-1.18,0.53-1.18,1.18v45.1v2.49v1.18h1.18h2.49h6.19
					c0.65,0,1.18-0.53,1.18-1.18v-47.6C150.76,104.55,150.23,104.02,149.58,104.02z"/>
			</g>
		</g>
		<g>
			<g>
				<path class="st76" d="M307.15,111.89 M271.87,152.8c0,0.65,0.53,1.18,1.18,1.18h26.22c3.99,0,7.31-3.17,7.8-7.03l0.02-35.95
					c-0.45-3.91-3.79-6.98-7.82-6.98h-16.35V92.2c0-0.65-0.53-1.18-1.18-1.18h-8.69c-0.65,0-1.18,0.53-1.18,1.18V152.8z
					 M292.16,111.84c2.17,0,3.94,1.77,3.94,3.94v26.43c0,2.17-1.77,3.94-3.94,3.94h-8.06c-0.65,0-1.18-0.53-1.18-1.18v-31.95
					c0-0.65,0.53-1.18,1.18-1.18H292.16z"/>
			</g>
			<g>
				<path class="st76" d="M267.11,111c-0.45-3.91-3.79-6.98-7.82-6.98H236.9c-0.63,0-1.15,0.5-1.18,1.13c0,0.02-0.01,5.52-0.01,5.52
					c0,0.65,0.53,1.18,1.18,1.18h15.27c2.17,0,3.94,1.77,3.94,3.94v2.81h-16.35c-4.03,0-7.37,3.07-7.82,6.98
					c-0.06,0.41-0.06,21.09,0,21.41c0.46,3.9,3.8,6.95,7.82,6.95l26.22,0.05c0.16,0,0.32-0.03,0.46-0.09
					c0.07-0.03,0.14-0.07,0.2-0.11c0.13-0.09,0.23-0.19,0.32-0.32c0.13-0.19,0.2-0.42,0.2-0.66v-33.03v-7.88
					C267.16,111.89,267.16,111.36,267.11,111z M254.93,126.41c0.65,0,1.18,0.53,1.18,1.18v17.38c0,0.65-0.53,1.18-1.18,1.18h-8.06
					c-2.17,0-3.94-1.77-3.94-3.94V130.2c0-1.54,0.9-2.88,2.2-3.53c0.35-0.18,0.75-0.26,1.14-0.26H254.93z"/>
			</g>
			<path class="st76" d="M206.7,100.03c0-0.65,0.53-1.18,1.18-1.18h18.16c0.65,0,1.18-0.53,1.18-1.18V92.2
				c0-0.65-0.53-1.18-1.18-1.18h-29.21c-0.65,0-1.18,0.53-1.18,1.18v61.77h9.87c0.65,0,1.18-0.53,1.18-1.18v-25.2
				c0-0.65,0.53-1.18,1.18-1.18h16.5c0.65,0,1.18-0.53,1.18-1.18v-5.46c0-0.65-0.53-1.18-1.18-1.18H206.7V100.03z"/>
			<g>
				<path class="st76" d="M352.95,91.02h-9.87v6.64c0,0.65,0.53,1.18,1.18,1.18h8.69c0.65,0,1.18-0.53,1.18-1.18V92.2
					C354.13,91.55,353.6,91.02,352.95,91.02z"/>
				<path class="st76" d="M352.95,104.02h-8.69c-0.65,0-1.18,0.53-1.18,1.18v45.1v2.49v1.18h1.18h2.49h6.19
					c0.65,0,1.18-0.53,1.18-1.18v-47.6C354.13,104.55,353.6,104.02,352.95,104.02z"/>
			</g>
			<path class="st76" d="M322.79,153.14c0,0.46-0.53,0.84-1.18,0.84h-6.19h-2.49h-1.18v-0.84v-1.77V119.3l0,0v-7.4
				c0,0,0-0.54,0.06-0.89c0.45-3.91,3.79-6.98,7.82-6.98h17.56c0.63,0,1.15,0.5,1.18,1.13c0,0.02,0.01,5.52,0.01,5.52
				c0,0.65-0.53,1.18-1.18,1.18h-10.44c-2.17,0-3.94,1.77-3.94,3.94L322.79,153.14z"/>
			<path class="st76" d="M386.86,130.72c-1.61-4.05,0.34-8.21,0.34-8.22l0.7-1.42l0,0l8.32-17.06h-9.42c-0.47,0-1,0.28-1.39,0.67
				c-0.15,0.16-0.28,0.33-0.37,0.51l-8.07,16.55c-0.3,0.56-0.93,1.01-1.52,1.09h-5.57V92.2c0-0.65-0.53-1.18-1.18-1.18h-8.69
				c-0.65,0-1.18,0.53-1.18,1.18v60.59c0,0.65,0.53,1.18,1.18,1.18h8.69c0.6,0,1.09-0.45,1.17-1.02l0.02-21.11
				c0-0.18,0.04-0.34,0.11-0.49c0.19-0.4,0.6-0.69,1.07-0.69h4.02c0.65,0,1.44,0.53,1.76,1.18l10.7,21.95h10.63L386.86,130.72z"/>
		</g>
	</g>
	<g>
		<path class="st75" d="M36.5,127.51l0-20.02l-17.34,10.01l0-10.01l43.35-25.03L45.17,72.44L1.82,97.46v50.07l17.33,10.01
			l0.01-20.03L36.5,127.51z"/>
		<g>
			<polygon class="st77" points="71.18,87.45 62.51,82.45 45.17,92.46 71.18,107.48 			"/>
		</g>
		<polygon class="st77" points="19.16,137.52 19.16,157.54 19.16,157.55 27.83,162.55 27.83,162.55 27.83,162.55 45.17,152.54 		"/>
		<polygon class="st77" points="36.5,127.51 53.84,137.52 53.84,117.49 36.5,107.48 		"/>
		<polygon class="st75" points="88.52,97.46 71.18,87.46 71.18,107.48 53.84,117.5 53.84,137.52 71.18,127.51 71.18,137.51 
			27.83,162.55 45.17,172.56 88.52,147.53 		"/>
	</g>
</g>
</svg>
