<svg xmlns="http://www.w3.org/2000/svg" viewBox="0 0 4827.84 1699.04"><defs><style>.cls-1,.cls-2,.cls-3{fill:#091133;}.cls-1,.cls-2{fill-rule:evenodd;}.cls-2{stroke:#091133;stroke-linecap:round;stroke-linejoin:round;stroke-width:15px;}.cls-3{font-size:1296px;font-family:Avenir-Black, Avenir;font-weight:800;letter-spacing:-0.04em;}.cls-4{letter-spacing:-0.04em;}.cls-5{letter-spacing:-0.04em;}</style></defs><g id="Layer_2" data-name="Layer 2"><g id="Layer_1-2" data-name="Layer 1"><g id="Layer_1-3" data-name="Layer 1"><path class="cls-1" d="M585.51,7.53C262.14,7.53,0,269.67,0,593A582.86,582.86,0,0,0,63.22,857.88c11.6-63.34,38.77-181.26,63.9-233.4,21.18-44,41.72-83,61.22-117.67,13.17-23.38-54.37,31.52-42.28,12C221.7,396.9,354.35,271.65,353.72,260c-1.27-23.28-42.77-53.35-21.57-127.53,16.87-59.07,54.18,99.77,92.65,112,4.56,1.46,75.39.73,86.49.73,7.95,0,5.75-11.92-11.26-32.22-17.94-21.39,68.45,31.46,72.9,31.49,1.7,0,37.29-30.74,61.18-47.31,27.24-18.89,42.28-22.86,27.3-3.36-36.39,47.35-25.56,50.67-20.92,50.67l18.66-.1s78.72-.09,81.94-1c54.25-15.61,90.06-174,99.73-97.58C851.3,228.57,822,239.82,821.6,260c-.52,23.67,185,224.57,233.1,338.7,1.24,3-5.09-.12-9-3.16-4.19-3.27-48.45-41.16-43.5-31.59,9.34,18,28.84,46.37,38.45,66.54,30,63,59.69,162.83,70.09,221.46A583.05,583.05,0,0,0,1171,593C1171,269.67,908.87,7.53,585.51,7.53ZM280.38,912c-36.34,0-44.47,89.09-45.83,149.69A587,587,0,0,0,284,1095a484.28,484.28,0,0,1,2.87-92.5C298,914.13,306,912,280.38,912Zm635.37,0c-27.69,0-17.48,0-12.77,107,1.21,27.54-.34,49.93-3.25,68.1q24.35-15.51,47-33.29C948.83,995.9,946.65,912,915.75,912Z"/><path class="cls-2" d="M438.69,533.91l293.63.42"/><path class="cls-1" d="M490.24,529.19s18.91-40.39,23.5-40.39c4.36,0,23.33,40,23.33,40Z"/><path class="cls-1" d="M631.11,529.19S650,488.8,654.61,488.8c4.37,0,23.34,40,23.34,40Z"/></g><text class="cls-3" transform="translate(1345.05 1106.77)">flu<tspan class="cls-4" x="1456.68" y="0">r</tspan><tspan class="cls-5" x="1933.61" y="0">ee</tspan></text></g></g></svg>