<svg xmlns="http://www.w3.org/2000/svg" viewBox="0 0 3482.78 3519.31"><defs><style>.cls-1,.cls-2,.cls-3{fill:#091133;}.cls-1,.cls-2{fill-rule:evenodd;}.cls-2{stroke:#091133;stroke-linecap:round;stroke-linejoin:round;stroke-width:20px;}.cls-3{font-size:1296px;font-family:Avenir-Black, Avenir;font-weight:800;letter-spacing:-0.04em;}.cls-4{letter-spacing:-0.04em;}.cls-5{letter-spacing:-0.04em;}</style></defs><g id="Layer_2" data-name="Layer 2"><g id="Layer_1-2" data-name="Layer 1"><g id="Layer_1-3" data-name="Layer 1"><path class="cls-1" d="M1741.39,0c-558.37,0-1011,452.65-1011,1011a1006.76,1006.76,0,0,0,109.16,457.33c20-109.39,67-313,110.35-403,36.57-75.9,72-143.35,105.72-203.17,22.73-40.38-93.9,54.41-73,20.73,130.6-210.53,359.67-426.8,358.57-446.91-2.19-40.2-73.85-92.11-37.25-220.21,29.14-102,93.56,172.28,160,193.41,7.88,2.5,130.17,1.26,149.34,1.26,13.73,0,9.94-20.59-19.43-55.64-31-37,118.19,54.32,125.87,54.38,2.94,0,64.4-53.09,105.65-81.7,47-32.63,73-39.48,47.13-5.8-62.82,81.76-44.13,87.5-36.11,87.5,1.86,0,32.22-.19,32.22-.19s135.93-.15,141.49-1.75c93.66-27,155.51-300.5,172.21-168.5,18.09,143-32.44,162.39-33.2,197.24-.89,40.87,319.43,387.79,402.51,584.86,2.14,5.1-8.79-.22-15.53-5.46-7.25-5.64-83.67-71.08-75.12-54.55,16.13,31.16,49.8,80.07,66.38,114.91,51.75,108.69,103.09,281.16,121,382.4A1006.75,1006.75,0,0,0,2752.42,1011C2752.42,452.65,2299.76,0,1741.39,0ZM1214.52,1561.88c-62.76,0-76.8,153.84-79.14,258.48a1013.6,1013.6,0,0,0,85.33,57.43,836.07,836.07,0,0,1,5-159.71C1245,1565.49,1258.81,1561.88,1214.52,1561.88Zm1097.12,0c-47.81,0-30.18,0-22,184.79,2.09,47.56-.59,86.21-5.62,117.6q42-26.79,81.17-57.5C2368.75,1706.68,2365,1561.88,2311.64,1561.88Z"/><path class="cls-2" d="M1487.88,908.93l507,.73"/><path class="cls-1" d="M1576.89,900.78s32.65-69.73,40.58-69.73c7.53,0,40.29,69.1,40.29,69.1Z"/><path class="cls-1" d="M1820.14,900.78s32.66-69.73,40.58-69.73c7.54,0,40.29,69.1,40.29,69.1Z"/></g><text class="cls-3" transform="translate(54.02 2927.03)">flu<tspan class="cls-4" x="1456.68" y="0">r</tspan><tspan class="cls-5" x="1933.61" y="0">ee</tspan></text></g></g></svg>