<?xml version="1.0" encoding="utf-8"?>
<!-- Generator: Adobe Illustrator 23.0.3, SVG Export Plug-In . SVG Version: 6.00 Build 0)  -->
<svg version="1.1" id="Layer_1" xmlns="http://www.w3.org/2000/svg" xmlns:xlink="http://www.w3.org/1999/xlink" x="0px" y="0px"
	 viewBox="0 0 400 245" style="enable-background:new 0 0 400 245;" xml:space="preserve">
<style type="text/css">
	.st0{fill:#E01B22;}
	.st1{fill:#4064AD;}
	.st2{fill:#E98300;}
	.st3{fill:#00549F;}
	.st4{fill-rule:evenodd;clip-rule:evenodd;}
	.st5{fill-rule:evenodd;clip-rule:evenodd;fill:#C9243A;}
	.st6{fill-rule:evenodd;clip-rule:evenodd;fill:#231F20;}
	.st7{fill-rule:evenodd;clip-rule:evenodd;fill:#7C848A;}
	.st8{fill:#EE3B29;}
	.st9{fill:#7C848A;}
	.st10{fill:#0F0F59;}
	.st11{fill:#F42A4D;}
	.st12{fill:#DA2128;}
	.st13{fill-rule:evenodd;clip-rule:evenodd;fill:#12ABDB;}
	.st14{fill-rule:evenodd;clip-rule:evenodd;fill:#0070AD;}
	.st15{fill:#929497;}
	.st16{fill:#231F20;}
	.st17{fill:#00ADEE;}
	.st18{fill:#2E3191;}
	.st19{fill:#EC1C24;}
	.st20{fill:#0082C9;}
	.st21{fill:#6D67AE;}
	.st22{fill:#2B62AD;}
	.st23{fill:#404041;}
	.st24{fill:#273B5B;}
	.st25{fill:#39B54A;}
	.st26{fill:#474749;}
	.st27{fill:#009245;}
	.st28{fill:#DDDDDD;}
	.st29{fill:#FFFFFF;}
	.st30{fill:url(#SVGID_1_);}
	.st31{fill:url(#SVGID_2_);}
	.st32{fill:url(#SVGID_3_);}
	.st33{fill:url(#SVGID_4_);}
	.st34{fill:url(#SVGID_5_);}
	.st35{fill:url(#SVGID_6_);}
	.st36{fill:url(#SVGID_7_);}
	.st37{fill:url(#SVGID_8_);}
	.st38{fill:url(#SVGID_9_);}
	.st39{fill:url(#SVGID_10_);}
	.st40{fill:url(#SVGID_11_);}
	.st41{fill:url(#SVGID_12_);}
	.st42{fill:url(#SVGID_13_);}
	.st43{fill:url(#SVGID_14_);}
	.st44{fill:url(#SVGID_15_);}
	.st45{fill:url(#SVGID_16_);}
	.st46{fill:url(#SVGID_17_);}
	.st47{fill:#59595C;}
	.st48{fill:#1D7DB9;}
	.st49{fill:#121110;}
	.st50{fill:#010101;}
	.st51{fill:#663795;}
	.st52{fill:#09324A;stroke:#1B75BB;stroke-width:0.6975;stroke-miterlimit:10;}
	.st53{fill:#002432;stroke:#1B75BB;stroke-width:1.0463;stroke-miterlimit:10;}
	.st54{fill-rule:evenodd;clip-rule:evenodd;fill:#E73836;}
	.st55{fill:#231916;}
	.st56{fill:#E73836;}
	.st57{fill:#8C9091;}
	.st58{fill-rule:evenodd;clip-rule:evenodd;fill:#365072;}
	.st59{fill:#365072;}
	.st60{fill:#0093D7;}
	.st61{clip-path:url(#SVGID_19_);fill:url(#SVGID_20_);}
	.st62{clip-path:url(#SVGID_22_);fill:url(#SVGID_23_);}
	.st63{clip-path:url(#SVGID_25_);fill:url(#SVGID_26_);}
	.st64{clip-path:url(#SVGID_28_);fill:url(#SVGID_29_);}
	.st65{clip-path:url(#SVGID_31_);fill:url(#SVGID_32_);}
	.st66{clip-path:url(#SVGID_34_);fill:url(#SVGID_35_);}
	.st67{clip-path:url(#SVGID_37_);fill:url(#SVGID_38_);}
	.st68{clip-path:url(#SVGID_40_);fill:url(#SVGID_41_);}
	.st69{clip-path:url(#SVGID_43_);fill:url(#SVGID_44_);}
	.st70{clip-path:url(#SVGID_68_);}
	.st71{clip-path:url(#SVGID_79_);}
	.st72{fill:#00A9E6;}
	.st73{fill:#4D4D4F;}
	.st74{fill:#898B8D;}
	.st75{fill:#04B3AC;}
	.st76{fill:#A4A2A0;}
	.st77{fill:#D0CFCE;}
	.st78{fill:#74777C;}
	.st79{fill:none;stroke:#ED3024;stroke-width:0.4269;}
	.st80{fill:#A2A4A8;}
	.st81{fill:#3F7BA3;}
	.st82{enable-background:new    ;}
	.st83{fill:#E8B520;}
	.st84{fill:#D27D41;}
	.st85{fill:#0B74BB;}
	.st86{fill:#702784;}
	.st87{fill:#AD2E91;}
	.st88{fill:#ED3694;}
	.st89{fill:#004E9A;}
	.st90{clip-path:url(#SVGID_82_);fill:url(#SVGID_83_);}
	.st91{clip-path:url(#SVGID_85_);fill:url(#SVGID_86_);}
	.st92{clip-path:url(#SVGID_88_);fill:url(#SVGID_89_);}
	.st93{fill:#0898CC;}
	.st94{fill:#12284C;}
	.st95{fill-rule:evenodd;clip-rule:evenodd;fill:#84BE42;}
	.st96{fill-rule:evenodd;clip-rule:evenodd;fill:#C1C0C0;}
	.st97{clip-path:url(#SVGID_91_);fill:#84BE42;}
	.st98{fill:#0066A5;}
	.st99{fill:#F05A22;}
	.st100{clip-path:url(#SVGID_93_);}
	.st101{clip-path:url(#SVGID_95_);fill:#1D1D1B;}
	.st102{clip-path:url(#SVGID_97_);}
	.st103{clip-path:url(#SVGID_99_);fill:#1D1D1B;}
	.st104{clip-path:url(#SVGID_101_);}
	.st105{clip-path:url(#SVGID_103_);fill:#1D1D1B;}
	.st106{clip-path:url(#SVGID_105_);}
	.st107{clip-path:url(#SVGID_107_);fill:#1D1D1B;}
	.st108{clip-path:url(#SVGID_109_);}
	.st109{clip-path:url(#SVGID_111_);fill:#1D1D1B;}
	.st110{clip-path:url(#SVGID_113_);}
	.st111{clip-path:url(#SVGID_115_);fill:#1D1D1B;}
	.st112{clip-path:url(#SVGID_117_);}
	.st113{clip-path:url(#SVGID_119_);fill:#1D9DD9;}
	.st114{clip-path:url(#SVGID_121_);}
	.st115{clip-path:url(#SVGID_123_);fill:#1D1D1B;}
	.st116{clip-path:url(#SVGID_125_);}
	.st117{clip-path:url(#SVGID_127_);fill:#1D9DD9;}
	.st118{clip-path:url(#SVGID_129_);}
	.st119{clip-path:url(#SVGID_131_);fill:#1D1D1B;}
	.st120{clip-path:url(#SVGID_133_);}
	.st121{clip-path:url(#SVGID_135_);fill:#1D9DD9;}
	.st122{clip-path:url(#SVGID_137_);}
	.st123{clip-path:url(#SVGID_139_);fill:#1D1D1B;}
	.st124{clip-path:url(#SVGID_141_);}
	.st125{clip-path:url(#SVGID_143_);fill:#1D9DD9;}
	.st126{clip-path:url(#SVGID_145_);}
	.st127{clip-path:url(#SVGID_147_);fill:#1D1D1B;}
	.st128{fill:#D44432;}
	.st129{fill:#272525;}
	.st130{fill:url(#SVGID_148_);}
	.st131{fill:url(#SVGID_149_);}
	.st132{fill:url(#SVGID_150_);}
	.st133{fill:#002B54;}
	.st134{fill:#B2B1B1;}
	.st135{fill:#E1134F;}
	.st136{fill:#454547;}
	.st137{fill:#00B4D0;}
	.st138{fill:#4564A7;}
	.st139{fill:#0088EE;}
	.st140{fill:#026FC2;}
	.st141{fill:#009FEE;}
	.st142{fill:#00BEEE;}
	.st143{fill:#00AFEE;}
	.st144{fill-rule:evenodd;clip-rule:evenodd;fill:#224099;}
	.st145{clip-path:url(#SVGID_152_);}
	.st146{clip-path:url(#SVGID_156_);}
	.st147{fill:#203260;}
	.st148{fill-rule:evenodd;clip-rule:evenodd;fill:#989A9D;}
	.st149{fill-rule:evenodd;clip-rule:evenodd;fill:#DF068C;}
	.st150{fill:#2E3437;}
	.st151{fill:#989FA4;}
	.st152{fill:#E1DE22;}
	.st153{fill-rule:evenodd;clip-rule:evenodd;fill:#86171D;}
	.st154{fill-rule:evenodd;clip-rule:evenodd;fill:#FFFFFF;}
	.st155{fill:none;stroke:#86171D;stroke-width:6.1349;stroke-miterlimit:10;}
	.st156{fill:#1F1F1F;}
	.st157{fill:#009590;}
	.st158{fill:#ED1651;}
</style>
<g>
	<g>
		<g>
			<path class="st150" d="M60.23,208.23c-10.25,0-17.98,7.53-17.98,17.51c0,9.98,7.73,17.51,17.98,17.51s17.99-7.53,17.99-17.51
				C78.21,215.76,70.48,208.23,60.23,208.23z M60.23,236.47c-6.28,0-11.21-4.71-11.21-10.74c0-6.02,4.92-10.73,11.21-10.73
				c6.29,0,11.21,4.71,11.21,10.73C71.44,231.76,66.52,236.47,60.23,236.47z"/>
			<path class="st150" d="M120.37,219.7c0-7.45-5.91-10.8-10.98-10.8H89.73v33.67h6.78v-26.9h12.89c4.2,0,4.2,3.12,4.2,4.03
				c0,2.38-1.47,4.16-3.96,4.16c-2.49,0-9.09,0-9.09,0l11.28,18.72h7.77l-8.73-13.29c1.4,0,1.4,0,1.47-0.01
				C115.32,228.95,120.37,227.13,120.37,219.7z"/>
			<path class="st150" d="M244.94,219.7c0-7.45-5.91-10.8-10.98-10.8h-19.67v33.67h6.78v-26.9h12.89c4.2,0,4.2,3.12,4.2,4.03
				c0,2.38-1.47,4.16-3.96,4.16c-2.49,0-9.09,0-9.09,0l11.28,18.72h7.77l-8.73-13.29c1.4,0,1.4,0,1.47-0.01
				C239.88,228.95,244.94,227.13,244.94,219.7z"/>
			<path class="st150" d="M270.11,208.23c-10.25,0-17.99,7.53-17.99,17.51c0,9.98,7.73,17.51,17.99,17.51
				c10.26,0,17.99-7.53,17.99-17.51C288.1,215.76,280.37,208.23,270.11,208.23z M270.11,236.47c-6.28,0-11.2-4.71-11.2-10.74
				c0-6.02,4.92-10.73,11.2-10.73c6.29,0,11.21,4.71,11.21,10.73C281.32,231.76,276.4,236.47,270.11,236.47z"/>
			<polygon class="st150" points="357.04,221.17 368.56,208.9 359.18,208.9 345.36,223.65 345.36,208.9 338.58,208.9 338.58,242.57 
				345.36,242.57 345.36,233.52 352.19,226.27 361.45,242.57 369.33,242.57 			"/>
			<polygon class="st150" points="10.31,242.57 17.09,242.57 17.09,228.45 25.88,228.45 29.97,221.89 29.97,221.68 17.09,221.68 
				17.09,215.67 34.12,215.67 38.32,208.93 38.32,208.9 10.31,208.9 			"/>
			<path class="st150" d="M151.28,230h5.68v3.72c-1,1.08-3.71,2.96-8.25,2.96c-7.69,0-11.69-5.53-11.69-10.78
				c0-5.43,3.49-11.2,11.82-11.2c4.81,0,7.77,1.71,9.25,3.19l1.01,0.99l3.28-5.27c-2.06-1.94-6.21-5.39-13.77-5.39
				c-10.47,0-18.36,7.51-18.36,17.46c0,11.4,9.17,17.54,18.03,17.54c6.98,0,12-2.62,15.27-6.78l0.2-0.28v-12.94h-16.67L151.28,230z"
				/>
			<polygon class="st150" points="198.37,215.67 202.59,208.9 174.71,208.9 174.71,242.57 202.58,242.57 198.38,235.8 181.49,235.8 
				181.49,228.45 196.42,228.45 196.42,221.68 181.49,221.68 181.49,215.67 			"/>
			<path class="st150" d="M314.57,236.47c-7.8,0-12.01-5.4-12.01-10.49c0-7.14,5.6-10.99,10.88-10.99c5.73,0,9.37,3.03,10.92,4.33
				l0.63,0.52l3.57-5.74c-5.45-4.83-11.21-5.88-15.17-5.88c-9.87,0-17.61,7.8-17.61,17.76c0,10.8,8.99,17.26,17.69,17.26
				c8.2,0,12.29-2.49,15.16-5.22l-3.62-5.84C323.17,234.21,319.92,236.47,314.57,236.47z"/>
		</g>
		<polygon class="st151" points="152.95,104.97 207.57,8.71 220.31,52.37 172.02,136.82 		"/>
		<polygon class="st150" points="226.28,26.94 268.49,104.23 255.89,126.07 		"/>
		<polygon class="st152" points="160,14.66 196,1.76 144.98,91.67 129.75,66.25 		"/>
		<polygon class="st152" points="131.87,96.05 112.27,96.05 121.97,79.52 		"/>
		<polygon class="st151" points="111.15,109.54 139.95,109.54 177.98,173.13 148.76,173.13 		"/>
		<polygon class="st150" points="228.94,173.13 193.67,173.13 179.98,150.1 225.57,70.37 246.56,142.26 		"/>
	</g>
	<g>
		<g>
			<path class="st150" d="M382.5,210.7c1.26,0,2.48,0.64,2.48,2.25c0,1.72-1.15,2.25-1.81,2.31l1.63,3.34h-1.3l-1.58-3.3h-2.94v3.3
				h-1.14v-7.9H382.5z M378.98,211.84v2.33h3.52c0.85,0,1.34-0.44,1.34-1.21c0-0.9-0.68-1.12-1.34-1.12H378.98z"/>
		</g>
		<g>
			<path class="st150" d="M381.41,222.94c-4.57,0-8.29-3.72-8.29-8.29c0-4.57,3.72-8.29,8.29-8.29s8.29,3.72,8.29,8.29
				C389.69,219.22,385.97,222.94,381.41,222.94z M381.41,207.31c-4.05,0-7.35,3.3-7.35,7.35s3.3,7.35,7.35,7.35s7.35-3.3,7.35-7.35
				S385.46,207.31,381.41,207.31z"/>
		</g>
	</g>
</g>
</svg>
