<?xml version="1.0" encoding="utf-8"?>
<!-- Generator: Adobe Illustrator 23.0.3, SVG Export Plug-In . SVG Version: 6.00 Build 0)  -->
<svg version="1.1" id="Layer_1" xmlns="http://www.w3.org/2000/svg" xmlns:xlink="http://www.w3.org/1999/xlink" x="0px" y="0px"
	 viewBox="0 0 400 245" style="enable-background:new 0 0 400 245;" xml:space="preserve">
<style type="text/css">
	.st0{fill:#EE3A25;}
	.st1{fill:#B31E3B;}
	.st2{fill:#231F20;}
	.st3{fill:#53CAE5;}
	.st4{fill:#FFFFFF;}
	.st5{fill-rule:evenodd;clip-rule:evenodd;fill:#53CAE5;}
	.st6{fill:#231916;}
	.st7{fill:#3EB4B5;}
	.st8{fill:#171F1F;}
	.st9{fill:#0072BB;}
	.st10{fill:#464646;}
	.st11{fill:#8C8C8C;}
	.st12{fill:#1B1B1C;}
	.st13{opacity:0.4;fill:#4464FB;}
	.st14{opacity:0.8;fill:#4464FB;}
	.st15{opacity:0.6;fill:#4464FB;}
	.st16{opacity:0.5;fill:#4464FB;}
	.st17{opacity:0.9;fill:#4464FB;}
	.st18{opacity:0.7;fill:#4464FB;}
	.st19{opacity:0.3;fill:#4464FB;}
	.st20{fill:#4464FB;}
	.st21{fill:#212D56;}
</style>
<g>
	<path class="st3" d="M241,120.38c4.7,11.94,9.44,32.7,6.35,43.56c-2.03,7.11-8.22,10.49-13.58,11.68c-5.12,1.13-15,1.54-16.22-5.28
		c-1.57-8.86,9.81-10.79,15.53-8.14c1.5-10.5-1.28-20.96-5.37-27.58L241,120.38L241,120.38z"/>
	<path class="st4" d="M257.04,122.97c4.7,11.94,3.55,36.77,2.34,42.69c-1.38,6.72-8.12,14.63-14.41,14.9
		c-6.81,0.29-13.44-1.27-13.77-8.55c-0.4-8.99,9.34-11.94,15.61-9.4c1.8-6.48,1.03-18.79-3.05-25.41"/>
	<path class="st3" d="M187.28,134.87c2.04,7.29,1.92,16.94,2.15,23.37c-3.86-1.11-11.25-1.47-14.85,3.58
		c-3.04,4.26-1.69,10.61,3.47,13.33c4.65,2.45,12.16,0.9,16.46-0.64c6.72-2.41,7.5-6.64,7.76-13.43c0.35-9.18-0.98-18.79-1.03-27.88
		L187.28,134.87L187.28,134.87z"/>
	<path class="st4" d="M201.24,138.08c2.04,7.29,1.11,15.07,2.12,22.62c-3.98-0.77-11.22-0.72-14.82,4.32
		c-3.04,4.26-2.17,11.74,2.36,14.23c4.61,2.54,13.57,0.85,17.88-0.69c6.72-2.41,6.72-8.02,6.98-14.8
		c0.35-9.18-0.51-18.27-0.56-27.36"/>
	<path class="st3" d="M238.24,92.7c-3.09,10.02-13.38,17.1-25.13,18.43c-14.8,1.68-14.22,0.11-23.73-0.14
		c-9.52,0.25-16.09,1.88-25.13,0.14c-15.91-3.07-24.6-11.94-26.72-22.21c-2.81-13.61-0.8-26.54,4.51-36.93
		c3.63-7.1,12.23-20.31,32.12-22.39c0,0-23.32-26.39-23.17-26.39c0,0,46.21,19.27,65.75,33.23C232.92,48,245.3,69.82,238.24,92.7"/>
	<path class="st4" d="M160.49,74.26c0,5.71-4.63,10.34-10.34,10.34c-5.71,0-10.34-4.63-10.34-10.34c0-5.71,4.63-10.34,10.34-10.34
		C155.86,63.92,160.49,68.55,160.49,74.26"/>
	<path class="st4" d="M233.79,73.7c0,5.71-4.63,10.34-10.34,10.34S213.1,79.41,213.1,73.7c0-5.71,4.63-10.34,10.34-10.34
		S233.79,67.99,233.79,73.7"/>
	<path class="st4" d="M195.17,106.94c-7.29,0-16.28,0.84-22.83-2.09c-6.37-2.85-5.36-13.13-3.36-18.75
		c2.23-6.25,10.28-17.16,18.23-16.43c8.06,0.75,15.2,10.86,18.36,19.27c1.24,3.3,1.98,9.44,0.28,12.98
		C203.34,107.15,195.17,106.94,195.17,106.94"/>
	<path class="st3" d="M191.4,76.37c0,1.73-2.25,3.14-5.03,3.14c-2.78,0-5.03-1.41-5.03-3.14c0-1.74,2.25-3.14,5.03-3.14
		C189.15,73.23,191.4,74.64,191.4,76.37"/>
	<path class="st3" d="M141.77,58.64c-6.27,6.6-13.35,13.18-20.68,18.6c-3.89,2.87-4.24,2.68-5.29-1.43
		c-0.72-2.85-1.13-6.29-1.27-9.21c-0.26-5.39-1.27-13.71,1.59-18.11c3.1-4.76,11.85-3.72,17.06-3.67
		c6.45,0.07,11.26,0.71,11.94,7.96L141.77,58.64L141.77,58.64z"/>
	<path class="st3" d="M226.8,50.26c0.67-7.24,5.48-7.89,11.94-7.96c5.21-0.05,13.96-1.1,17.06,3.67c2.86,4.4,1.85,12.72,1.59,18.11
		c-0.14,2.93-0.54,6.37-1.27,9.21c-1.04,4.11-1.4,4.3-5.29,1.43c-7.33-5.41-14.41-12-20.68-18.6L226.8,50.26L226.8,50.26z"/>
	<path class="st3" d="M187.14,87.4c-5.91,0-10.25-2.58-10.52-2.75l0.87-1.43c0.09,0.06,9.34,5.52,18.83-0.01l0.84,1.45
		C193.64,86.71,190.18,87.4,187.14,87.4"/>
	<polygon class="st5" points="142.65,71.07 157.41,71.07 157.41,74.83 142.65,74.83 142.65,71.07 	"/>
	<polygon class="st5" points="215.9,70.23 230.7,70.23 230.7,74 215.9,74 215.9,70.23 	"/>
	<path class="st3" d="M178.35,109.74c-2.78,9.6-2.04,24.07,9.49,32.81c10.19,7.72,23.38,10.03,33.92,9.63
		c15.07-0.57,39.92-8.28,39.37-20.1c-0.84-18.01-10.89-22.2-29.32-18.85c-26.78,4.87-30.15,0-33.92-5.03L178.35,109.74
		L178.35,109.74z"/>
	<path class="st3" d="M202.92,139.33c2.04,7.29,2.12,19.95,2.15,23.37c-3.98-0.77-11.25-1.47-14.85,3.58
		c-3.04,4.26-1.23,11.15,3.47,13.33c4.77,2.21,12.47,1.76,16.77,0.21c6.72-2.41,6.72-8.02,6.98-14.8
		c0.35-9.18-0.51-18.27-0.56-27.36L202.92,139.33L202.92,139.33z"/>
	<path class="st3" d="M259.99,124.42c4.19,14.54,2.49,36.48,1.27,42.4c-1.38,6.72-3.75,11.32-12.27,12.58
		c-5.18,0.76-14.47,0.03-15.66-6.12c-1.82-9.43,10.41-11.27,15.53-8.14c2.09-8.4,0.86-20.15-3.22-26.78L259.99,124.42L259.99,124.42
		z"/>
	<path class="st4" d="M190.85,144.48c0,0,5.14,3.58,13.12,5.74l-0.68,2.89C203.29,153.1,196.12,151.87,190.85,144.48"/>
	<polygon class="st3" points="248.57,114.06 259.88,98.57 266.58,103.17 285.85,80.56 269.09,119.09 263.65,114.48 254.85,128.3 
		248.57,114.06 	"/>
	<path class="st3" d="M129.03,193.67h6.68v47.62h-6.68V193.67L129.03,193.67z M132.3,214.89h23.09v6.35H132.3V214.89L132.3,214.89z
		 M132.3,193.67H159v6.35H132.3V193.67L132.3,193.67z"/>
	<path class="st3" d="M169.44,214.8h16.25c1.27,0,2.39-0.31,3.37-0.92c0.98-0.61,1.74-1.48,2.28-2.6c0.53-1.12,0.8-2.42,0.8-3.88
		c0-1.46-0.27-2.76-0.8-3.88c-0.53-1.12-1.29-1.99-2.26-2.6c-0.97-0.61-2.1-0.92-3.39-0.92h-16.25v-6.35h15.98
		c2.75,0,5.17,0.57,7.25,1.7c2.09,1.14,3.7,2.75,4.85,4.83c1.15,2.09,1.72,4.49,1.72,7.22c0,2.73-0.58,5.14-1.74,7.22
		c-1.16,2.09-2.78,3.7-4.86,4.83c-2.09,1.14-4.49,1.7-7.22,1.7h-15.98V214.8L169.44,214.8z M166.53,193.64h6.68v47.65h-6.68V193.64
		L166.53,193.64z M182.41,219.68l6.65-1.51l12.18,23.12h-7.93L182.41,219.68L182.41,219.68z"/>
	<path class="st3" d="M224.57,241.78c-2.29,0-4.47-0.22-6.52-0.65c-2.05-0.44-3.97-1.09-5.75-1.97c-1.78-0.87-3.44-1.97-4.99-3.28
		l4.16-5.11c1.81,1.57,3.81,2.75,5.99,3.54c2.18,0.79,4.55,1.18,7.11,1.18c3.45,0,6.12-0.64,8.02-1.92c1.9-1.28,2.85-3.08,2.85-5.42
		v-0.03c0-1.66-0.43-2.97-1.29-3.95c-0.86-0.97-1.98-1.69-3.34-2.16c-1.36-0.47-3.13-0.9-5.29-1.29c-0.07-0.02-0.14-0.03-0.21-0.03
		c-0.08,0-0.15-0.01-0.21-0.03l-0.49-0.1c-3.19-0.55-5.78-1.16-7.78-1.85c-2-0.69-3.71-1.94-5.13-3.77
		c-1.42-1.82-2.13-4.42-2.13-7.78v-0.03c0-2.95,0.66-5.46,1.98-7.55c1.32-2.09,3.25-3.67,5.78-4.77c2.53-1.09,5.58-1.64,9.14-1.64
		c1.7,0,3.38,0.19,5.03,0.56c1.65,0.37,3.28,0.92,4.88,1.65c1.6,0.73,3.18,1.65,4.73,2.77l-3.8,5.31c-1.81-1.33-3.62-2.33-5.42-3
		c-1.8-0.67-3.61-1-5.42-1c-3.25,0-5.78,0.65-7.58,1.95c-1.8,1.3-2.7,3.14-2.7,5.52v0.03c0,1.64,0.46,2.93,1.39,3.86
		c0.93,0.94,2.09,1.63,3.47,2.08c1.39,0.45,3.31,0.91,5.78,1.39c0.09,0.02,0.17,0.04,0.25,0.05c0.08,0.01,0.16,0.03,0.25,0.05
		c0.11,0.02,0.23,0.04,0.36,0.07c0.13,0.02,0.25,0.04,0.36,0.07c2.88,0.59,5.29,1.29,7.22,2.1c1.93,0.81,3.55,2.11,4.85,3.91
		c1.3,1.8,1.95,4.26,1.95,7.39v0.07c0,2.9-0.69,5.39-2.06,7.45c-1.38,2.06-3.37,3.64-5.98,4.72
		C231.41,241.24,228.26,241.78,224.57,241.78L224.57,241.78z"/>
	<path class="st3" d="M258.46,197.57h6.68v43.72h-6.68V197.57L258.46,197.57z M245,193.67h33.6v6.35H245V193.67L245,193.67z"/>
</g>
</svg>
