<?xml version="1.0" encoding="utf-8"?>
<!-- Generator: Adobe Illustrator 23.0.3, SVG Export Plug-In . SVG Version: 6.00 Build 0)  -->
<svg version="1.1" id="Layer_1" xmlns="http://www.w3.org/2000/svg" xmlns:xlink="http://www.w3.org/1999/xlink" x="0px" y="0px"
	 viewBox="0 0 400 245" style="enable-background:new 0 0 400 245;" xml:space="preserve">
<style type="text/css">
	.st0{fill:#E01B22;}
	.st1{fill:#4064AD;}
	.st2{fill:#E98300;}
	.st3{fill:#00549F;}
	.st4{fill-rule:evenodd;clip-rule:evenodd;}
	.st5{fill-rule:evenodd;clip-rule:evenodd;fill:#C9243A;}
	.st6{fill-rule:evenodd;clip-rule:evenodd;fill:#231F20;}
	.st7{fill-rule:evenodd;clip-rule:evenodd;fill:#7C848A;}
	.st8{fill:#EE3B29;}
	.st9{fill:#7C848A;}
	.st10{fill:#0F0F59;}
	.st11{fill:#F42A4D;}
	.st12{fill:#DA2128;}
	.st13{fill-rule:evenodd;clip-rule:evenodd;fill:#12ABDB;}
	.st14{fill-rule:evenodd;clip-rule:evenodd;fill:#0070AD;}
	.st15{fill:#929497;}
	.st16{fill:#231F20;}
	.st17{fill:#00ADEE;}
	.st18{fill:#2E3191;}
	.st19{fill:#EC1C24;}
	.st20{fill:#0082C9;}
	.st21{fill:#6D67AE;}
	.st22{fill:#2B62AD;}
	.st23{fill:#404041;}
	.st24{fill:#273B5B;}
	.st25{fill:#39B54A;}
	.st26{fill:#474749;}
	.st27{fill:#009245;}
	.st28{fill:#DDDDDD;}
	.st29{fill:#FFFFFF;}
	.st30{fill:url(#SVGID_1_);}
	.st31{fill:url(#SVGID_2_);}
	.st32{fill:url(#SVGID_3_);}
	.st33{fill:url(#SVGID_4_);}
	.st34{fill:url(#SVGID_5_);}
	.st35{fill:url(#SVGID_6_);}
	.st36{fill:url(#SVGID_7_);}
	.st37{fill:url(#SVGID_8_);}
	.st38{fill:url(#SVGID_9_);}
	.st39{fill:url(#SVGID_10_);}
	.st40{fill:url(#SVGID_11_);}
	.st41{fill:url(#SVGID_12_);}
	.st42{fill:url(#SVGID_13_);}
	.st43{fill:url(#SVGID_14_);}
	.st44{fill:url(#SVGID_15_);}
	.st45{fill:url(#SVGID_16_);}
	.st46{fill:url(#SVGID_17_);}
	.st47{fill:#59595C;}
	.st48{fill:#1D7DB9;}
	.st49{fill:#121110;}
	.st50{fill:#010101;}
	.st51{fill:#663795;}
	.st52{fill:#09324A;stroke:#1B75BB;stroke-width:0.6975;stroke-miterlimit:10;}
	.st53{fill:#002432;stroke:#1B75BB;stroke-width:1.0463;stroke-miterlimit:10;}
	.st54{fill-rule:evenodd;clip-rule:evenodd;fill:#E73836;}
	.st55{fill:#231916;}
	.st56{fill:#E73836;}
	.st57{fill:#8C9091;}
	.st58{fill-rule:evenodd;clip-rule:evenodd;fill:#365072;}
	.st59{fill:#365072;}
	.st60{fill:#0093D7;}
	.st61{clip-path:url(#SVGID_19_);fill:url(#SVGID_20_);}
	.st62{clip-path:url(#SVGID_22_);fill:url(#SVGID_23_);}
	.st63{clip-path:url(#SVGID_25_);fill:url(#SVGID_26_);}
	.st64{clip-path:url(#SVGID_28_);fill:url(#SVGID_29_);}
	.st65{clip-path:url(#SVGID_31_);fill:url(#SVGID_32_);}
	.st66{clip-path:url(#SVGID_34_);fill:url(#SVGID_35_);}
	.st67{clip-path:url(#SVGID_37_);fill:url(#SVGID_38_);}
	.st68{clip-path:url(#SVGID_40_);fill:url(#SVGID_41_);}
	.st69{clip-path:url(#SVGID_43_);fill:url(#SVGID_44_);}
	.st70{clip-path:url(#SVGID_68_);}
	.st71{clip-path:url(#SVGID_79_);}
	.st72{fill:#00A9E6;}
	.st73{fill:#4D4D4F;}
	.st74{fill:#898B8D;}
	.st75{fill:#04B3AC;}
	.st76{fill:#A4A2A0;}
	.st77{fill:#D0CFCE;}
	.st78{fill:#74777C;}
	.st79{fill:none;stroke:#ED3024;stroke-width:0.4269;}
	.st80{fill:#A2A4A8;}
	.st81{fill:#3F7BA3;}
	.st82{enable-background:new    ;}
	.st83{fill:#E8B520;}
	.st84{fill:#D27D41;}
	.st85{fill:#0B74BB;}
	.st86{fill:#702784;}
	.st87{fill:#AD2E91;}
	.st88{fill:#ED3694;}
	.st89{fill:#004E9A;}
	.st90{clip-path:url(#SVGID_82_);fill:url(#SVGID_83_);}
	.st91{clip-path:url(#SVGID_85_);fill:url(#SVGID_86_);}
	.st92{clip-path:url(#SVGID_88_);fill:url(#SVGID_89_);}
	.st93{fill:#0898CC;}
	.st94{fill:#12284C;}
	.st95{fill-rule:evenodd;clip-rule:evenodd;fill:#84BE42;}
	.st96{fill-rule:evenodd;clip-rule:evenodd;fill:#C1C0C0;}
	.st97{clip-path:url(#SVGID_91_);fill:#84BE42;}
	.st98{fill:#0066A5;}
	.st99{fill:#F05A22;}
	.st100{clip-path:url(#SVGID_93_);}
	.st101{clip-path:url(#SVGID_95_);fill:#1D1D1B;}
	.st102{clip-path:url(#SVGID_97_);}
	.st103{clip-path:url(#SVGID_99_);fill:#1D1D1B;}
	.st104{clip-path:url(#SVGID_101_);}
	.st105{clip-path:url(#SVGID_103_);fill:#1D1D1B;}
	.st106{clip-path:url(#SVGID_105_);}
	.st107{clip-path:url(#SVGID_107_);fill:#1D1D1B;}
	.st108{clip-path:url(#SVGID_109_);}
	.st109{clip-path:url(#SVGID_111_);fill:#1D1D1B;}
	.st110{clip-path:url(#SVGID_113_);}
	.st111{clip-path:url(#SVGID_115_);fill:#1D1D1B;}
	.st112{clip-path:url(#SVGID_117_);}
	.st113{clip-path:url(#SVGID_119_);fill:#1D9DD9;}
	.st114{clip-path:url(#SVGID_121_);}
	.st115{clip-path:url(#SVGID_123_);fill:#1D1D1B;}
	.st116{clip-path:url(#SVGID_125_);}
	.st117{clip-path:url(#SVGID_127_);fill:#1D9DD9;}
	.st118{clip-path:url(#SVGID_129_);}
	.st119{clip-path:url(#SVGID_131_);fill:#1D1D1B;}
	.st120{clip-path:url(#SVGID_133_);}
	.st121{clip-path:url(#SVGID_135_);fill:#1D9DD9;}
	.st122{clip-path:url(#SVGID_137_);}
	.st123{clip-path:url(#SVGID_139_);fill:#1D1D1B;}
	.st124{clip-path:url(#SVGID_141_);}
	.st125{clip-path:url(#SVGID_143_);fill:#1D9DD9;}
	.st126{clip-path:url(#SVGID_145_);}
	.st127{clip-path:url(#SVGID_147_);fill:#1D1D1B;}
	.st128{fill:#D44432;}
	.st129{fill:#272525;}
	.st130{fill:url(#SVGID_148_);}
	.st131{fill:url(#SVGID_149_);}
	.st132{fill:url(#SVGID_150_);}
	.st133{fill:#002B54;}
	.st134{fill:#B2B1B1;}
	.st135{fill:#E1134F;}
	.st136{fill:#454547;}
	.st137{fill:#00B4D0;}
	.st138{fill:#4564A7;}
	.st139{fill:#0088EE;}
	.st140{fill:#026FC2;}
	.st141{fill:#009FEE;}
	.st142{fill:#00BEEE;}
	.st143{fill:#00AFEE;}
	.st144{fill-rule:evenodd;clip-rule:evenodd;fill:#224099;}
	.st145{clip-path:url(#SVGID_152_);}
	.st146{clip-path:url(#SVGID_156_);}
	.st147{fill:#203260;}
	.st148{fill-rule:evenodd;clip-rule:evenodd;fill:#989A9D;}
	.st149{fill-rule:evenodd;clip-rule:evenodd;fill:#DF068C;}
	.st150{fill:#2E3437;}
	.st151{fill:#989FA4;}
	.st152{fill:#E1DE22;}
	.st153{fill-rule:evenodd;clip-rule:evenodd;fill:#86171D;}
	.st154{fill-rule:evenodd;clip-rule:evenodd;fill:#FFFFFF;}
	.st155{fill:none;stroke:#86171D;stroke-width:6.1349;stroke-miterlimit:10;}
	.st156{fill:#1F1F1F;}
	.st157{fill:#009590;}
	.st158{fill:#ED1651;}
</style>
<g>
	<g>
		<path class="st54" d="M345.24,134.62v-20.47h48.81V76.71h-48.81v-16.4h52.5V49.8h-69.91v15.5h-12.99V44.02h-16.48v21.27h-16.57
			v10.52h14.91c-0.55,2.23-1.16,4.42-1.8,6.57c-0.99,3.3-2.07,6.52-3.26,9.65c-1.35,3.31-2.76,6.65-4.23,10.04
			c-1.41,3.21-2.89,6.48-4.46,9.82l-0.32,0.7l0.1,0.72l0.93,6.53l0.97,6.8l4.71-5.44c1.56-1.79,3.03-3.62,4.39-5.47
			c1.33-1.82,2.56-3.65,3.69-5.51h0.01c0.31-0.51,0.63-1.02,0.94-1.53v41.37h16.48V96.42l6.35,6.91l2.8,3.05l2.35-3.34l1.5-2.12
			v49.12h17.41v-5.73h53.43v-9.71H345.24z M345.24,86.42h32.32v18.04h-32.32V86.42z M327.84,89.6c-0.44-0.58-0.89-1.15-1.32-1.73
			c-1.31-1.73-2.59-3.52-3.85-5.33l0,0c-0.36-0.56-0.68-1.05-0.95-1.49c-0.21-0.34-0.52-0.83-0.96-1.54
			c-0.76-1.25-1.49-2.48-2.18-3.7h9.26V89.6z"/>
	</g>
	<g>
		<path class="st54" d="M243.42,53.03l-3.9,2.41c-2.05,1.27-4.09,2.56-6.08,3.86l-1.06,0.7l-1.04,0.68h0l-0.35,0.23h21.46h3.18v2.81
			l0,0V87.4v2.81h-3.18h-9.22h-3.18V87.4V70.63h-82.05V87.4v2.81h-3.19h-10.11h-3.18V87.4V63.73v-2.81h3.18h20.32l-0.09-0.13
			c-0.14-0.19-0.33-0.44-0.58-0.77c-0.23-0.3-0.42-0.54-0.58-0.73h-0.01l0,0l-0.04-0.06l-0.08-0.12c-0.73-1.03-1.49-2.03-2.28-2.99
			c-0.8-0.97-1.63-1.9-2.5-2.8l-2.33-2.41l2.99-1.76l5.54-3.25l1.62-0.95l1.7,0.85c1.23,0.62,2.44,1.34,3.62,2.16
			c1.15,0.81,2.32,1.74,3.52,2.79c1.12,0.99,2.21,2,3.29,3.02c1.16,1.1,2.25,2.16,3.29,3.2l2.13,2.13l-2.37,1.8h6.49l-0.02-16.58
			h18.73v16.58l6.05,0.02l13.64-16.62L243.42,53.03z"/>
		<path class="st54" d="M207.72,125.37v-3.35h38.7v-9.7h-38.69v-4.22c1.22-0.04,17.61-0.31,31.57-2.62
			c-2.25-5.49-4.85-10.3-4.85-10.3V72.36H162.7v24.38h50.86c0,0-8.11,1.01-19.36,1.31c-4.14,0.11-8.15,0.24-12.03,0.31
			c-3.57,0.06-7.46,0.1-11.69,0.1h-18.49l0.63,3.27l0.92,4.89l0.45,2.35h38.2v3.36h-40.54v9.68h40.54v3.36h-50.45v9.7h49.83
			c-0.21,0.94-0.44,1.99-0.71,3.16l-0.03,0.14l-0.02,0.14c-0.02,0.2-0.06,0.4-0.12,0.58c-0.04,0.14-0.09,0.27-0.15,0.38
			c-0.13,0.27-0.39,0.45-0.77,0.54c-0.58-0.08-1.33-0.2-2.19-0.32l-2.76-0.41h-0.03c-0.68-0.1-1.72-0.25-2.79-0.41
			c-0.76-0.11-1.53-0.22-2.74-0.39l-4.92-0.69l1.37,4.23l1.85,5.71l0.65,2.05h2.4c1.48,0,3.07-0.04,4.76-0.12
			c1.59-0.07,3.18-0.18,4.76-0.32c1.7-0.15,3.28-0.32,4.76-0.52c1.57-0.21,3.15-0.45,4.73-0.73l0.24-0.04l0.27-0.09
			c1.8-0.59,3.26-1.55,4.4-2.86c1.06-1.22,1.8-2.73,2.21-4.51l0.02-0.08v-0.03h0c0.09-0.48,0.18-0.9,0.24-1.26
			c0.09-0.5,0.16-0.91,0.21-1.24c0.17-1.01,0.28-1.97,0.37-2.88h48.03v-9.7H207.72z M179.19,87.01v-4.97h38.77v4.97H179.19z"/>
	</g>
	<polygon class="st54" points="7.14,129.63 7.13,129.63 7.46,129.78 7.14,129.63 7.14,129.63 	"/>
	<path class="st55" d="M20.74,188.37v12.55h-2.79H5.54v-12.55v-6.86c0.19-3.17,0.71-5.88,1.56-8.15c2.08-5.43,5.73-8.17,10.93-8.21
		h6.65h5.76h12.41v6.57H32.79h-5.1c-3.92,0-6.23,1.86-6.95,5.57v2.87h22.1v5.86h-22.1V188.37z"/>
	<path class="st55" d="M67.19,194.47h18v6.51H62.43h-14.5l18.12-29.27H47.88v-6.57l12.45,0.06l9.66-0.06h15.2l-18.16,29.33H67.19z"
		/>
	<path class="st55" d="M127.57,200.92h-12.49h-5.51h-6.9c-5.75,0.04-9.46-2.05-11.13-6.28c-0.71-1.76-1.14-3.85-1.27-6.27v-6.86
		c0.19-3.17,0.71-5.88,1.56-8.15c2.08-5.43,5.73-8.15,10.93-8.15l6.66-0.06l5.71,0.06l12.45-0.06v6.57h-10.06h-5.1
		c-3.92,0-6.23,1.86-6.94,5.57v11.09c0.05,3.79,2.22,5.83,6.49,6.1h6.65v-4.69v-8.91h8.96v8.91V200.92z"/>
	<path class="st56" d="M163.05,185.99h-11.19h-15.23v-5.87h26.41c1.32,0,1.98-0.96,1.98-2.88c-0.74-3.72-2.81-5.58-6.21-5.58h-6.95
		h-15.23v-6.58h24.89c5.21,0.04,8.86,2.78,10.94,8.22c1.02,4.46,0.56,7.64-1.35,9.52c1.92,2.11,2.37,5.4,1.35,9.87
		c-2.08,5.44-5.77,8.18-11.07,8.22h-24.77v-6.58h22.18c3.4,0,5.47-1.86,6.21-5.58C165.02,186.91,164.36,185.99,163.05,185.99z"/>
	<path class="st56" d="M193.2,180h16.46h0.65c3.34,0,5.05,3.02,5.1,9.05c-0.44,2.97-1.21,5.32-2.31,7.05
		c-1.62,3.17-5.03,4.78-10.24,4.82h-12.38c-8.34,0-12.5-3.23-12.5-9.69v-9.75c0.19-3.17,0.71-5.89,1.56-8.16
		c2.09-5.44,5.75-8.18,10.99-8.22h12.31h10.86v6.58h-8.44h-5.1c-3.92,0-6.24,1.86-6.95,5.58V180z M204.23,185.88H193.2v2.88
		c0,3.72,2.32,5.58,6.95,5.58c3.4,0,5.48-1.29,6.21-3.88v-2.29C206.37,186.64,205.66,185.88,204.23,185.88z"/>
	<path class="st56" d="M232.74,200.91c-5.75,0.04-9.48-2.05-11.15-6.28c-0.71-1.76-1.14-3.86-1.27-6.28v-6.87
		c0.19-3.17,0.71-5.89,1.57-8.16c2.08-5.44,5.73-8.16,10.94-8.16l6.67-0.06l5.72,0.06c5.21,0,8.86,2.72,10.95,8.16
		c0.85,2.27,1.37,4.99,1.56,8.16v6.87c-0.14,2.43-0.56,4.53-1.28,6.28c-1.67,4.23-5.43,6.32-11.27,6.28h-5.51H232.74z
		 M248.71,177.25c-0.74-3.72-2.81-5.58-6.21-5.58c-3.92,0-6.24,1.86-6.95,5.58v11.1c0.05,3.8,2.22,5.84,6.5,6.11
		c4.39-0.27,6.61-2.23,6.67-5.87V177.25z"/>
	<path class="st56" d="M262.64,196.55c0-2.87,1.24-4.32,3.73-4.36h3.69v4.36c0,2.91-1.23,4.36-3.69,4.36h-3.69L262.64,196.55z"/>
	<path class="st55" d="M312.67,200.92h-12.49h-5.5h-6.9c-5.75,0.04-9.46-2.05-11.13-6.28c-0.71-1.76-1.14-3.85-1.28-6.27v-6.86
		c0.19-3.17,0.71-5.88,1.56-8.15c2.08-5.43,5.74-8.17,10.97-8.21h12.28h12.49v6.57h-10.06h-5.1c-3.92,0-6.23,1.86-6.94,5.57v11.09
		c0.06,3.79,2.22,5.83,6.49,6.1h6.49h9.12V200.92z"/>
	<path class="st55" d="M330.15,200.92c-5.75,0.04-9.46-2.05-11.13-6.28c-0.71-1.76-1.14-3.85-1.28-6.27v-6.86
		c0.19-3.17,0.71-5.88,1.56-8.15c2.08-5.43,5.72-8.15,10.93-8.15l6.65-0.06l5.71,0.06c5.2,0,8.85,2.72,10.93,8.15
		c0.85,2.27,1.37,4.99,1.56,8.15v6.86c-0.14,2.43-0.56,4.52-1.28,6.27c-1.67,4.22-5.42,6.32-11.25,6.28h-5.51H330.15z M346.1,177.28
		c-0.74-3.71-2.81-5.57-6.21-5.57c-3.92,0-6.23,1.86-6.94,5.57v11.09c0.05,3.79,2.21,5.83,6.49,6.1c4.38-0.27,6.6-2.23,6.66-5.86
		V177.28z"/>
	<path class="st55" d="M368.84,174.68v26.24h-8.71v-29.21c0-4.37,1.42-6.57,4.27-6.57h6.41c3.01,0,5.21,1.06,6.61,3.17l1.93,3.28
		l2.1-3.28c1.39-2.11,3.6-3.17,6.61-3.17h6.24c2.96,0,4.44,2.07,4.44,6.22v29.56h-8.71v-26.24l-8.66,13.9
		c-1.34,2.15-2.67,2.17-3.99,0.06L368.84,174.68z"/>
	<g>
		<path class="st54" d="M9.6,125.8c-0.49,1.29-1.32,2.59-2.13,4.05l0.36,0.15l2.5,1.13l-2.85-1.28c-0.5,0.9-0.54,1.01-0.62,1.15
			l-0.65,1.13c-1.16,1.98-2.38,3.94-3.66,5.86l-1.27,1.92L3,141.49l3.67,3.33l2.53,2.28l2.2-2.52c6.03-6.89,10.65-13.78,13.82-20.68
			c1.57-3.42,3.59-9.66,4.43-13.62c1.13-5.35,1.51-8.37,2.21-11.76h19.54c-0.05,0.32-0.09,0.64-0.14,0.95
			c-0.21,1.4-0.45,2.68-0.68,3.86c-1.27,6.34-3.06,16.37-5.36,20.75l-0.02,0.02v0l2.88,1.2l-2.88-1.19c-0.4,0.8-0.89,1.6-1.44,2.41
			c-0.58,0.83-1.18,1.62-1.81,2.33c-3.55,3.99-8.87,7.51-15.94,10.52l-3.18,1.36l1.8,2.7l2.77,4.16l1.51,2.28l2.63-1.19
			c3.87-1.75,7.51-3.74,10.91-5.97c3.42-2.23,6.64-4.72,9.7-7.48c2.89-2.6,5.57-5.47,8.06-8.58c2.13-2.67,4.09-10.17,5.89-13.14
			h27.99c-0.06,1.18-0.15,2.43-0.27,3.77c-0.09,0.98-0.09,1.07-0.11,1.22c-0.2,2.01-0.51,8.91-0.89,11.38v0.02h-0.01
			c-0.11,0.71-0.25,1.37-0.44,1.94c-0.16,0.56-0.37,1.09-0.63,1.59c-1.07,2.15-2.93,3.48-5.56,3.97c-1.03-0.11-2.11-0.22-3.56-0.37
			c-1.76-0.18-3.09-0.33-3.77-0.4l-0.3-0.04c-2.09-0.25-4.05-0.47-6.53-0.81l-4.87-0.65l1.35,4.27l1.85,5.83l0.65,2.08h20.16
			l0.1-0.01c4.57-0.51,8.3-2.06,11.21-4.69c2.82-2.55,4.75-6.04,5.81-10.48h0l0-0.02v-0.01c0.26-1.05,0.52-2.11,0.74-3.16
			c0.31-1.39,0.53-2.42,0.66-3.08c1.02-5.19,1.65-14.73,1.88-19.29l0.16-3h-44.1l0.43-5.08h50.75v-9.92H77.5v-7.36h35.93V53H16.81
			c0,0,0,34.26,0,45.68C16.81,106.86,12.09,119.21,9.6,125.8z M61.01,88.6H32.38v-7.38h28.63V88.6z M32.38,71.33V62.9h64.54v8.43
			H32.38z"/>
		<rect x="58.09" y="44.19" class="st54" width="18.71" height="8.9"/>
	</g>
</g>
</svg>
