<svg xmlns="http://www.w3.org/2000/svg" xmlns:xlink="http://www.w3.org/1999/xlink" version="1.1" id="Layer_1" x="0px" y="0px" width="230px" height="35px" viewBox="55 -7.5 230 35" enable-background="new 55 -7.5 230 35" xml:space="preserve">
<path fill="#77787B" d="M131.9,16.5c-1.4,0.5-2.8,0.8-4.3,0.8c-2,0-3.6-0.5-4.7-1.7s-1.8-2.7-1.8-4.6c0-2,0.6-3.7,1.9-5  s3.1-1.9,5.2-1.9c1,0,2.2,0.1,3.4,0.5v2.6c-1.3-0.5-2.4-0.6-3.6-0.6c-1.3,0-2.3,0.4-3.1,1.1c-0.8,0.8-1.2,1.8-1.2,3.2  c0,1.3,0.4,2.3,1,3.1c0.6,0.8,1.7,1,2.9,1c0.6,0,1.2,0,1.5-0.1v-4.3h2.7v6H131.9z"/>
<path fill="#77787B" d="M153.1,17.2h-2.8L149,8.7l-2.7,8.4h-2.4L141.1,9l-1,8.2h-2.7l1.9-12.6h3.1l2.8,8.6l2.9-8.6h3.1L153.1,17.2z"/>
<path fill="#77787B" d="M174,6.7h-4.7v3.1h4.5v2.2h-4.5v5.2h-2.7V4.5h7.4C174,4.5,174,6.7,174,6.7z"/>
<path fill="#77787B" d="M182.3,17.2h-2.7V4.5h2.7V17.2z"/>
<path fill="#77787B" d="M199.6,17.2h-3.3l-4.9-8.6v8.6h-2.6V4.5h3.3l4.9,8.6L197,4.5h2.6v12.7H199.6z"/>
<path fill="#77787B" d="M216.6,17.2h-2.9l-0.9-2.4h-4.7l-0.8,2.4h-2.7l4.5-12.6h2.9L216.6,17.2z M212.3,12.6l-1.8-4.9l-1.7,4.9  H212.3z"/>
<path fill="#77787B" d="M232.4,17.2H229l-4.9-8.6v8.6h-2.6V4.5h3.3l4.9,8.6l-0.1-8.6h2.6v12.7H232.4z"/>
<path fill="#77787B" d="M247.2,16.8c-1,0.4-2,0.5-3.1,0.5c-1.9,0-3.4-0.5-4.5-1.7c-1-1-1.5-2.6-1.5-4.5c0-2.2,0.5-3.8,1.7-5.1  c1.1-1.3,2.7-1.8,4.7-1.8c1,0,1.8,0.1,2.6,0.3v2.4c-0.8-0.3-1.7-0.4-2.7-0.4c-1.1,0-1.9,0.4-2.6,1.1c-0.6,0.8-0.9,1.8-0.9,3.1  c0,1.4,0.3,2.4,0.9,3.2c0.6,0.6,1.5,1,2.7,1c0.9,0,1.8-0.3,2.6-0.6v2.4H247.2z"/>
<path fill="#77787B" d="M255.9,17.2h-2.7V4.5h2.7V17.2z"/>
<path fill="#77787B" d="M272.9,17.2h-2.9l-0.9-2.4h-4.7l-0.8,2.4h-2.7l4.5-12.6h2.9L272.9,17.2z M268.5,12.6l-1.8-4.9l-1.7,4.9  H268.5z"/>
<path fill="#77787B" d="M285,17.2h-7.2V4.5h2.7v10.4h4.5V17.2z"/>
<rect x="55" y="-7.5" fill="#0060A8" width="34.9" height="34.9"/>
<rect x="63.7" y="15.9" fill="#FFFFFF" width="17.5" height="2.8"/>
<polygon fill="#FFFFFF" points="72.4,1.3 75.3,1.3 76.7,10.9 78.3,1.3 81.2,1.3 81.2,14.4 79.3,14.4 79.3,4.5 77.6,14.4 76,14.4   74.3,4.5 74.3,14.4 72.4,14.4 "/>
<path fill="#FFFFFF" d="M68.3,5.4h2V4.5c0-0.9,0-3.4-3.3-3.4c-3.3-0.1-3.3,2.9-3.3,3.4v6.8c0,2,0.8,3.3,2.6,3.3c1.2,0,1.9-0.6,2-0.9  v0.6h1.9V7.2h-3.1v1.5h1.2v2c0,1-0.4,1.8-1.3,1.8c-1,0-1.3-0.8-1.3-1.8V4.4c0-0.5,0-1.7,1.3-1.7s1.3,1.1,1.3,1.7V5.4z"/>
<line fill="none" stroke="#77787B" stroke-width="1.568" stroke-miterlimit="10" x1="106.2" y1="-7.5" x2="106.2" y2="27.4"/>
</svg>