<?xml version="1.0" encoding="utf-8"?>
<!-- Generator: Adobe Illustrator 23.0.3, SVG Export Plug-In . SVG Version: 6.00 Build 0)  -->
<svg version="1.1" id="Layer_1" xmlns="http://www.w3.org/2000/svg" xmlns:xlink="http://www.w3.org/1999/xlink" x="0px" y="0px"
	 viewBox="0 0 400 245" style="enable-background:new 0 0 400 245;" xml:space="preserve">
<style type="text/css">
	.st0{fill:#E01B22;}
	.st1{fill:#4064AD;}
	.st2{fill:#E98300;}
	.st3{fill:#00549F;}
	.st4{fill-rule:evenodd;clip-rule:evenodd;}
	.st5{fill-rule:evenodd;clip-rule:evenodd;fill:#C9243A;}
	.st6{fill-rule:evenodd;clip-rule:evenodd;fill:#231F20;}
	.st7{fill-rule:evenodd;clip-rule:evenodd;fill:#7C848A;}
	.st8{fill:#EE3B29;}
	.st9{fill:#7C848A;}
	.st10{fill:#0F0F59;}
	.st11{fill:#F42A4D;}
	.st12{fill:#DA2128;}
	.st13{fill-rule:evenodd;clip-rule:evenodd;fill:#12ABDB;}
	.st14{fill-rule:evenodd;clip-rule:evenodd;fill:#0070AD;}
	.st15{fill:#929497;}
	.st16{fill:#231F20;}
	.st17{fill:#00ADEE;}
	.st18{fill:#2E3191;}
	.st19{fill:#EC1C24;}
	.st20{fill:#0082C9;}
	.st21{fill:#6D67AE;}
	.st22{fill:#2B62AD;}
	.st23{fill:#404041;}
	.st24{fill:#273B5B;}
	.st25{fill:#39B54A;}
	.st26{fill:#474749;}
	.st27{fill:#009245;}
	.st28{fill:#DDDDDD;}
	.st29{fill:#FFFFFF;}
	.st30{fill:url(#SVGID_1_);}
	.st31{fill:url(#SVGID_2_);}
	.st32{fill:url(#SVGID_3_);}
	.st33{fill:url(#SVGID_4_);}
	.st34{fill:url(#SVGID_5_);}
	.st35{fill:url(#SVGID_6_);}
	.st36{fill:url(#SVGID_7_);}
	.st37{fill:url(#SVGID_8_);}
	.st38{fill:url(#SVGID_9_);}
	.st39{fill:url(#SVGID_10_);}
	.st40{fill:url(#SVGID_11_);}
	.st41{fill:url(#SVGID_12_);}
	.st42{fill:url(#SVGID_13_);}
	.st43{fill:url(#SVGID_14_);}
	.st44{fill:url(#SVGID_15_);}
	.st45{fill:url(#SVGID_16_);}
	.st46{fill:url(#SVGID_17_);}
	.st47{fill:#59595C;}
	.st48{fill:#1D7DB9;}
	.st49{fill:#121110;}
	.st50{fill:#010101;}
	.st51{fill:#663795;}
	.st52{fill:#09324A;stroke:#1B75BB;stroke-width:0.6975;stroke-miterlimit:10;}
	.st53{fill:#002432;stroke:#1B75BB;stroke-width:1.0463;stroke-miterlimit:10;}
	.st54{fill-rule:evenodd;clip-rule:evenodd;fill:#E73836;}
	.st55{fill:#231916;}
	.st56{fill:#E73836;}
	.st57{fill:#8C9091;}
	.st58{fill-rule:evenodd;clip-rule:evenodd;fill:#365072;}
	.st59{fill:#365072;}
	.st60{fill:#0093D7;}
	.st61{clip-path:url(#SVGID_19_);fill:url(#SVGID_20_);}
	.st62{clip-path:url(#SVGID_22_);fill:url(#SVGID_23_);}
	.st63{clip-path:url(#SVGID_25_);fill:url(#SVGID_26_);}
	.st64{clip-path:url(#SVGID_28_);fill:url(#SVGID_29_);}
	.st65{clip-path:url(#SVGID_31_);fill:url(#SVGID_32_);}
	.st66{clip-path:url(#SVGID_34_);fill:url(#SVGID_35_);}
	.st67{clip-path:url(#SVGID_37_);fill:url(#SVGID_38_);}
	.st68{clip-path:url(#SVGID_40_);fill:url(#SVGID_41_);}
	.st69{clip-path:url(#SVGID_43_);fill:url(#SVGID_44_);}
	.st70{clip-path:url(#SVGID_68_);}
	.st71{clip-path:url(#SVGID_79_);}
	.st72{fill:#00A9E6;}
	.st73{fill:#4D4D4F;}
	.st74{fill:#898B8D;}
	.st75{fill:#04B3AC;}
	.st76{fill:#A4A2A0;}
	.st77{fill:#D0CFCE;}
	.st78{fill:#74777C;}
	.st79{fill:none;stroke:#ED3024;stroke-width:0.4269;}
	.st80{fill:#A2A4A8;}
	.st81{fill:#3F7BA3;}
	.st82{enable-background:new    ;}
	.st83{fill:#E8B520;}
	.st84{fill:#D27D41;}
	.st85{fill:#0B74BB;}
	.st86{fill:#702784;}
	.st87{fill:#AD2E91;}
	.st88{fill:#ED3694;}
	.st89{fill:#004E9A;}
	.st90{clip-path:url(#SVGID_82_);fill:url(#SVGID_83_);}
	.st91{clip-path:url(#SVGID_85_);fill:url(#SVGID_86_);}
	.st92{clip-path:url(#SVGID_88_);fill:url(#SVGID_89_);}
	.st93{fill:#0898CC;}
	.st94{fill:#12284C;}
	.st95{fill-rule:evenodd;clip-rule:evenodd;fill:#84BE42;}
	.st96{fill-rule:evenodd;clip-rule:evenodd;fill:#C1C0C0;}
	.st97{clip-path:url(#SVGID_91_);fill:#84BE42;}
	.st98{fill:#0066A5;}
	.st99{fill:#F05A22;}
	.st100{clip-path:url(#SVGID_93_);}
	.st101{clip-path:url(#SVGID_95_);fill:#1D1D1B;}
	.st102{clip-path:url(#SVGID_97_);}
	.st103{clip-path:url(#SVGID_99_);fill:#1D1D1B;}
	.st104{clip-path:url(#SVGID_101_);}
	.st105{clip-path:url(#SVGID_103_);fill:#1D1D1B;}
	.st106{clip-path:url(#SVGID_105_);}
	.st107{clip-path:url(#SVGID_107_);fill:#1D1D1B;}
	.st108{clip-path:url(#SVGID_109_);}
	.st109{clip-path:url(#SVGID_111_);fill:#1D1D1B;}
	.st110{clip-path:url(#SVGID_113_);}
	.st111{clip-path:url(#SVGID_115_);fill:#1D1D1B;}
	.st112{clip-path:url(#SVGID_117_);}
	.st113{clip-path:url(#SVGID_119_);fill:#1D9DD9;}
	.st114{clip-path:url(#SVGID_121_);}
	.st115{clip-path:url(#SVGID_123_);fill:#1D1D1B;}
	.st116{clip-path:url(#SVGID_125_);}
	.st117{clip-path:url(#SVGID_127_);fill:#1D9DD9;}
	.st118{clip-path:url(#SVGID_129_);}
	.st119{clip-path:url(#SVGID_131_);fill:#1D1D1B;}
	.st120{clip-path:url(#SVGID_133_);}
	.st121{clip-path:url(#SVGID_135_);fill:#1D9DD9;}
	.st122{clip-path:url(#SVGID_137_);}
	.st123{clip-path:url(#SVGID_139_);fill:#1D1D1B;}
	.st124{clip-path:url(#SVGID_141_);}
	.st125{clip-path:url(#SVGID_143_);fill:#1D9DD9;}
	.st126{clip-path:url(#SVGID_145_);}
	.st127{clip-path:url(#SVGID_147_);fill:#1D1D1B;}
	.st128{fill:#D44432;}
	.st129{fill:#272525;}
	.st130{fill:url(#SVGID_148_);}
	.st131{fill:url(#SVGID_149_);}
	.st132{fill:url(#SVGID_150_);}
	.st133{fill:#002B54;}
	.st134{fill:#B2B1B1;}
	.st135{fill:#E1134F;}
	.st136{fill:#454547;}
	.st137{fill:#00B4D0;}
	.st138{fill:#4564A7;}
	.st139{fill:#0088EE;}
	.st140{fill:#026FC2;}
	.st141{fill:#009FEE;}
	.st142{fill:#00BEEE;}
	.st143{fill:#00AFEE;}
	.st144{fill-rule:evenodd;clip-rule:evenodd;fill:#224099;}
	.st145{clip-path:url(#SVGID_152_);}
	.st146{clip-path:url(#SVGID_156_);}
	.st147{fill:#203260;}
	.st148{fill-rule:evenodd;clip-rule:evenodd;fill:#989A9D;}
	.st149{fill-rule:evenodd;clip-rule:evenodd;fill:#DF068C;}
	.st150{fill:#2E3437;}
	.st151{fill:#989FA4;}
	.st152{fill:#E1DE22;}
	.st153{fill-rule:evenodd;clip-rule:evenodd;fill:#86171D;}
	.st154{fill-rule:evenodd;clip-rule:evenodd;fill:#FFFFFF;}
	.st155{fill:none;stroke:#86171D;stroke-width:6.1349;stroke-miterlimit:10;}
	.st156{fill:#1F1F1F;}
	.st157{fill:#009590;}
	.st158{fill:#ED1651;}
</style>
<g>
	<g>
		<g>
			
				<radialGradient id="SVGID_1_" cx="10922.1709" cy="-7292.3823" r="10.6553" gradientTransform="matrix(-1 0 0 -1 11270.584 -7180.8784)" gradientUnits="userSpaceOnUse">
				<stop  offset="0.2413" style="stop-color:#016938"/>
				<stop  offset="1" style="stop-color:#8CC540"/>
			</radialGradient>
			<path class="st30" d="M348.41,126.53c-0.64,0-1.17-0.52-1.17-1.17V97.65c0-0.64,0.52-1.17,1.17-1.17s1.17,0.52,1.17,1.17v27.71
				C349.58,126.01,349.06,126.53,348.41,126.53z"/>
		</g>
		<g>
			<radialGradient id="SVGID_2_" cx="372.4136" cy="90.7189" r="5.7834" gradientUnits="userSpaceOnUse">
				<stop  offset="0.2413" style="stop-color:#016938"/>
				<stop  offset="1" style="stop-color:#8CC540"/>
			</radialGradient>
			<path class="st31" d="M372.41,98.81c-0.64,0-1.17-0.52-1.17-1.17V83.79c0-0.64,0.52-1.17,1.17-1.17s1.17,0.52,1.17,1.17v13.86
				C373.58,98.29,373.06,98.81,372.41,98.81z"/>
		</g>
		<g>
			<radialGradient id="SVGID_3_" cx="366.4134" cy="97.6472" r="7.6454" gradientUnits="userSpaceOnUse">
				<stop  offset="0.2413" style="stop-color:#016938"/>
				<stop  offset="1" style="stop-color:#8CC540"/>
			</radialGradient>
			<path class="st32" d="M360.41,105.74c-0.2,0-0.4-0.05-0.58-0.16c-0.36-0.21-0.58-0.59-0.58-1.01V90.72c0-0.42,0.22-0.8,0.58-1.01
				c0.36-0.21,0.81-0.21,1.17,0l12,6.93c0.36,0.21,0.58,0.59,0.58,1.01s-0.22,0.8-0.58,1.01l-12,6.93
				C360.82,105.69,360.61,105.74,360.41,105.74z M361.58,92.74v9.81l8.5-4.91L361.58,92.74z"/>
		</g>
		<g>
			<radialGradient id="SVGID_4_" cx="366.4134" cy="111.504" r="7.6454" gradientUnits="userSpaceOnUse">
				<stop  offset="0.2413" style="stop-color:#016938"/>
				<stop  offset="1" style="stop-color:#8CC540"/>
			</radialGradient>
			<path class="st33" d="M360.41,119.6c-0.2,0-0.4-0.05-0.58-0.16c-0.36-0.21-0.58-0.59-0.58-1.01v-13.86c0-0.42,0.22-0.8,0.58-1.01
				c0.36-0.21,0.81-0.21,1.17,0l12,6.93c0.36,0.21,0.58,0.59,0.58,1.01s-0.22,0.8-0.58,1.01l-12,6.93
				C360.82,119.55,360.61,119.6,360.41,119.6z M361.58,106.6v9.81l8.5-4.91L361.58,106.6z"/>
		</g>
		<g>
			
				<radialGradient id="SVGID_5_" cx="10904.1709" cy="-7271.5972" r="7.6454" gradientTransform="matrix(-1 0 0 -1 11270.584 -7180.8784)" gradientUnits="userSpaceOnUse">
				<stop  offset="0.2413" style="stop-color:#016938"/>
				<stop  offset="1" style="stop-color:#8CC540"/>
			</radialGradient>
			<path class="st34" d="M372.41,98.81c-0.2,0-0.4-0.05-0.58-0.16l-12-6.93c-0.36-0.21-0.58-0.59-0.58-1.01s0.22-0.8,0.58-1.01
				l12-6.93c0.36-0.21,0.81-0.21,1.17,0c0.36,0.21,0.58,0.59,0.58,1.01v13.86c0,0.42-0.22,0.8-0.58,1.01
				C372.82,98.76,372.62,98.81,372.41,98.81z M362.75,90.72l8.5,4.91v-9.81L362.75,90.72z"/>
		</g>
		<g>
			<radialGradient id="SVGID_6_" cx="378.4137" cy="104.5756" r="7.6453" gradientUnits="userSpaceOnUse">
				<stop  offset="0.2413" style="stop-color:#016938"/>
				<stop  offset="1" style="stop-color:#8CC540"/>
			</radialGradient>
			<path class="st35" d="M372.41,112.67c-0.2,0-0.4-0.05-0.58-0.16c-0.36-0.21-0.58-0.59-0.58-1.01V97.65c0-0.42,0.22-0.8,0.58-1.01
				c0.36-0.21,0.81-0.21,1.17,0l12,6.93c0.36,0.21,0.58,0.59,0.58,1.01s-0.22,0.8-0.58,1.01l-12,6.93
				C372.82,112.62,372.62,112.67,372.41,112.67z M373.58,99.67v9.81l8.5-4.91L373.58,99.67z"/>
		</g>
		<g>
			<radialGradient id="SVGID_7_" cx="378.4137" cy="118.4323" r="7.6453" gradientUnits="userSpaceOnUse">
				<stop  offset="0.2413" style="stop-color:#016938"/>
				<stop  offset="1" style="stop-color:#8CC540"/>
			</radialGradient>
			<path class="st36" d="M372.41,126.53c-0.2,0-0.4-0.05-0.58-0.16c-0.36-0.21-0.58-0.59-0.58-1.01V111.5c0-0.42,0.22-0.8,0.58-1.01
				c0.36-0.21,0.81-0.21,1.17,0l12,6.93c0.36,0.21,0.58,0.59,0.58,1.01s-0.22,0.8-0.58,1.01l-12,6.93
				C372.82,126.48,372.62,126.53,372.41,126.53z M373.58,113.53v9.81l8.5-4.91L373.58,113.53z"/>
		</g>
		<g>
			<radialGradient id="SVGID_8_" cx="366.4134" cy="125.3607" r="7.6454" gradientUnits="userSpaceOnUse">
				<stop  offset="0.2413" style="stop-color:#016938"/>
				<stop  offset="1" style="stop-color:#8CC540"/>
			</radialGradient>
			<path class="st37" d="M360.41,133.46c-0.2,0-0.4-0.05-0.58-0.16c-0.36-0.21-0.58-0.59-0.58-1.01v-13.86
				c0-0.42,0.22-0.8,0.58-1.01c0.36-0.21,0.81-0.21,1.17,0l12,6.93c0.36,0.21,0.58,0.59,0.58,1.01c0,0.42-0.22,0.8-0.58,1.01
				l-12,6.93C360.82,133.4,360.61,133.46,360.41,133.46z M361.58,120.45v9.81l8.5-4.91L361.58,120.45z"/>
		</g>
		<g>
			<radialGradient id="SVGID_9_" cx="390.4139" cy="111.504" r="7.6453" gradientUnits="userSpaceOnUse">
				<stop  offset="0.2413" style="stop-color:#016938"/>
				<stop  offset="1" style="stop-color:#8CC540"/>
			</radialGradient>
			<path class="st38" d="M384.41,119.6c-0.2,0-0.4-0.05-0.58-0.16c-0.36-0.21-0.58-0.59-0.58-1.01v-13.86c0-0.42,0.22-0.8,0.58-1.01
				c0.36-0.21,0.81-0.21,1.17,0l12,6.93c0.36,0.21,0.58,0.59,0.58,1.01s-0.22,0.8-0.58,1.01l-12,6.93
				C384.82,119.55,384.62,119.6,384.41,119.6z M385.58,106.6v9.81l8.5-4.91L385.58,106.6z"/>
		</g>
		<g>
			<radialGradient id="SVGID_10_" cx="354.4129" cy="104.5756" r="7.6454" gradientUnits="userSpaceOnUse">
				<stop  offset="0.2413" style="stop-color:#016938"/>
				<stop  offset="1" style="stop-color:#8CC540"/>
			</radialGradient>
			<path class="st39" d="M348.41,112.67c-0.4,0-0.8-0.21-1.01-0.58c-0.32-0.56-0.13-1.27,0.43-1.59l10.25-5.92l-10.25-5.92
				c-0.56-0.32-0.75-1.04-0.43-1.59c0.32-0.56,1.04-0.75,1.59-0.43l12,6.93c0.36,0.21,0.58,0.59,0.58,1.01s-0.22,0.8-0.58,1.01
				l-12,6.93C348.81,112.62,348.61,112.67,348.41,112.67z"/>
		</g>
		<g>
			
				<radialGradient id="SVGID_11_" cx="10916.1709" cy="-7278.5254" r="7.6453" gradientTransform="matrix(-1 0 0 -1 11270.584 -7180.8784)" gradientUnits="userSpaceOnUse">
				<stop  offset="0.2413" style="stop-color:#016938"/>
				<stop  offset="1" style="stop-color:#8CC540"/>
			</radialGradient>
			<path class="st40" d="M360.41,105.74c-0.2,0-0.4-0.05-0.58-0.16l-12-6.93c-0.36-0.21-0.58-0.59-0.58-1.01s0.22-0.8,0.58-1.01
				l12-6.93c0.36-0.21,0.81-0.21,1.17,0c0.36,0.21,0.58,0.59,0.58,1.01v13.86c0,0.42-0.22,0.8-0.58,1.01
				C360.82,105.69,360.61,105.74,360.41,105.74z M350.75,97.65l8.5,4.91v-9.81L350.75,97.65z"/>
		</g>
		<g>
			
				<radialGradient id="SVGID_12_" cx="10904.1709" cy="-7285.4541" r="7.6454" gradientTransform="matrix(-1 0 0 -1 11270.584 -7180.8784)" gradientUnits="userSpaceOnUse">
				<stop  offset="0.2413" style="stop-color:#016938"/>
				<stop  offset="1" style="stop-color:#8CC540"/>
			</radialGradient>
			<path class="st41" d="M372.41,112.67c-0.2,0-0.4-0.05-0.58-0.16l-12-6.93c-0.36-0.21-0.58-0.59-0.58-1.01s0.22-0.8,0.58-1.01
				l12-6.93c0.36-0.21,0.81-0.21,1.17,0c0.36,0.21,0.58,0.59,0.58,1.01v13.86c0,0.42-0.22,0.8-0.58,1.01
				C372.82,112.62,372.62,112.67,372.41,112.67z M362.75,104.58l8.5,4.91v-9.81L362.75,104.58z"/>
		</g>
		<g>
			
				<radialGradient id="SVGID_13_" cx="10916.1709" cy="-7292.3823" r="7.6453" gradientTransform="matrix(-1 0 0 -1 11270.584 -7180.8784)" gradientUnits="userSpaceOnUse">
				<stop  offset="0.2413" style="stop-color:#016938"/>
				<stop  offset="1" style="stop-color:#8CC540"/>
			</radialGradient>
			<path class="st42" d="M360.41,119.6c-0.2,0-0.4-0.05-0.58-0.16l-12-6.93c-0.36-0.21-0.58-0.59-0.58-1.01s0.22-0.8,0.58-1.01
				l12-6.93c0.36-0.21,0.81-0.21,1.17,0c0.36,0.21,0.58,0.59,0.58,1.01v13.86c0,0.42-0.22,0.8-0.58,1.01
				C360.82,119.55,360.61,119.6,360.41,119.6z M350.75,111.5l8.5,4.91v-9.81L350.75,111.5z"/>
		</g>
		<g>
			<radialGradient id="SVGID_14_" cx="354.413" cy="121.8965" r="6.0341" gradientUnits="userSpaceOnUse">
				<stop  offset="0.2413" style="stop-color:#016938"/>
				<stop  offset="1" style="stop-color:#8CC540"/>
			</radialGradient>
			<path class="st43" d="M348.41,126.53c-0.4,0-0.8-0.21-1.01-0.58c-0.32-0.56-0.13-1.27,0.43-1.59l12-6.93
				c0.56-0.32,1.27-0.13,1.59,0.43c0.32,0.56,0.13,1.27-0.43,1.59l-12,6.93C348.81,126.48,348.61,126.53,348.41,126.53z"/>
		</g>
		<g>
			
				<radialGradient id="SVGID_15_" cx="10892.1699" cy="-7292.3823" r="7.6453" gradientTransform="matrix(-1 0 0 -1 11270.584 -7180.8784)" gradientUnits="userSpaceOnUse">
				<stop  offset="0.2413" style="stop-color:#016938"/>
				<stop  offset="1" style="stop-color:#8CC540"/>
			</radialGradient>
			<path class="st44" d="M384.41,119.6c-0.2,0-0.4-0.05-0.58-0.16l-12-6.93c-0.36-0.21-0.58-0.59-0.58-1.01s0.22-0.8,0.58-1.01
				l12-6.93c0.36-0.21,0.81-0.21,1.17,0c0.36,0.21,0.58,0.59,0.58,1.01v13.86c0,0.42-0.22,0.8-0.58,1.01
				C384.82,119.55,384.62,119.6,384.41,119.6z M374.75,111.5l8.5,4.91v-9.81L374.75,111.5z"/>
		</g>
		<g>
			
				<radialGradient id="SVGID_16_" cx="10904.1709" cy="-7299.3105" r="7.6454" gradientTransform="matrix(-1 0 0 -1 11270.584 -7180.8784)" gradientUnits="userSpaceOnUse">
				<stop  offset="0.2413" style="stop-color:#016938"/>
				<stop  offset="1" style="stop-color:#8CC540"/>
			</radialGradient>
			<path class="st45" d="M372.41,126.53c-0.2,0-0.4-0.05-0.58-0.16l-12-6.93c-0.36-0.21-0.58-0.59-0.58-1.01s0.22-0.8,0.58-1.01
				l12-6.93c0.36-0.21,0.81-0.21,1.17,0c0.36,0.21,0.58,0.59,0.58,1.01v13.86c0,0.42-0.22,0.8-0.58,1.01
				C372.82,126.48,372.62,126.53,372.41,126.53z M362.75,118.43l8.5,4.91v-9.81L362.75,118.43z"/>
		</g>
		<g>
			
				<radialGradient id="SVGID_17_" cx="10916.1709" cy="-7306.2393" r="7.6453" gradientTransform="matrix(-1 0 0 -1 11270.584 -7180.8784)" gradientUnits="userSpaceOnUse">
				<stop  offset="0.2413" style="stop-color:#016938"/>
				<stop  offset="1" style="stop-color:#8CC540"/>
			</radialGradient>
			<path class="st46" d="M360.41,133.46c-0.2,0-0.4-0.05-0.58-0.16l-12-6.93c-0.36-0.21-0.58-0.59-0.58-1.01
				c0-0.42,0.22-0.8,0.58-1.01l12-6.93c0.36-0.21,0.81-0.21,1.17,0c0.36,0.21,0.58,0.59,0.58,1.01v13.86c0,0.42-0.22,0.8-0.58,1.01
				C360.82,133.4,360.61,133.46,360.41,133.46z M350.75,125.36l8.5,4.91v-9.81L350.75,125.36z"/>
		</g>
	</g>
	<g>
		<path class="st47" d="M36.6,160.19c-3.31,1.46-7.46,2.18-12.44,2.18c-14.5,0-21.74-7.13-21.74-21.4c0-13.5,7.37-20.25,22.12-20.25
			c4.5,0,8.52,0.67,12.06,2.01v6.89c-3.54-1.53-7.37-2.3-11.49-2.3c-9.86,0-14.79,4.55-14.79,13.64c0,9.86,4.65,14.79,13.96,14.79
			c1.38,0,2.95-0.23,4.71-0.69v-11.95h7.61V160.19z"/>
		<path class="st47" d="M43.06,162.09v-30.16h5.89l0.95,3.85c2.64-2.57,5.44-3.85,8.39-3.85v6.15c-2.83,0-5.37,1.27-7.61,3.82v20.19
			H43.06z"/>
		<path class="st47" d="M88.07,149.97H68.34c0,4.06,3.31,6.09,9.94,6.09c3.04,0,6.09-0.29,9.13-0.86v6.03
			c-2.66,0.57-6.09,0.86-10.28,0.86c-10.93,0-16.4-5.14-16.4-15.42c0-9.82,5.01-14.73,15.02-14.73
			C85.74,131.93,89.85,137.94,88.07,149.97z M68.34,144.4h12.58c0.27-4.33-1.74-6.49-6.03-6.49
			C70.87,137.9,68.68,140.07,68.34,144.4z"/>
		<path class="st47" d="M119.26,149.97H99.53c0,4.06,3.31,6.09,9.94,6.09c3.04,0,6.09-0.29,9.13-0.86v6.03
			c-2.66,0.57-6.09,0.86-10.28,0.86c-10.93,0-16.4-5.14-16.4-15.42c0-9.82,5.01-14.73,15.02-14.73
			C116.94,131.93,121.04,137.94,119.26,149.97z M99.53,144.4h12.58c0.27-4.33-1.74-6.49-6.03-6.49
			C102.06,137.9,99.88,140.07,99.53,144.4z"/>
		<path class="st47" d="M124.98,162.09v-30.16h5.89l0.95,3.85c3.66-2.57,7.33-3.85,11.03-3.85c6.95,0,10.43,3.74,10.43,11.23v18.93
			h-7.61v-19.01c0-3.33-1.66-5-4.97-5c-2.66,0-5.36,1.27-8.1,3.82v20.19H124.98z"/>
		<path class="st47" d="M160.45,160.65v-6.32c3.35,1.34,7.22,2.01,11.6,2.01c3.27,0,4.91-1.05,4.91-3.16c0-1.91-1.1-2.87-3.3-2.87
			h-5.46c-6.13,0-9.19-3.06-9.19-9.19c0-6.32,4.47-9.48,13.41-9.48c3.79,0,7.36,0.57,10.71,1.72v6.32
			c-3.35-1.34-6.99-2.01-10.91-2.01c-4.12,0-6.18,1.05-6.18,3.16c0,1.91,1.2,2.87,3.59,2.87h4.88c6.7,0,10.05,3.06,10.05,9.19
			c0,6.32-4.27,9.48-12.81,9.48C167.58,162.38,163.8,161.8,160.45,160.65z"/>
		<path class="st47" d="M189.89,127.05h5.63l1.15,4.88h7.01v6.03h-6.18v13.87c0,2.81,1.22,4.22,3.65,4.22h2.53v6.03h-6.2
			c-5.06,0-7.58-2.71-7.58-8.13V127.05z"/>
		<path class="st47" d="M209.43,162.09v-30.16h5.89l0.95,3.85c2.64-2.57,5.44-3.85,8.39-3.85v6.15c-2.83,0-5.37,1.27-7.61,3.82
			v20.19H209.43z"/>
		<path class="st47" d="M254.43,149.97H234.7c0,4.06,3.31,6.09,9.94,6.09c3.04,0,6.09-0.29,9.13-0.86v6.03
			c-2.66,0.57-6.09,0.86-10.28,0.86c-10.93,0-16.4-5.14-16.4-15.42c0-9.82,5.01-14.73,15.02-14.73
			C252.11,131.93,256.21,137.94,254.43,149.97z M234.7,144.4h12.58c0.27-4.33-1.74-6.49-6.03-6.49
			C237.23,137.9,235.05,140.07,234.7,144.4z"/>
		<path class="st47" d="M258.71,152.7c0-6.18,4.37-9.28,13.1-9.28c2.62,0,4.96,0.19,7.01,0.57v-1.98c0-2.7-2.61-4.05-7.84-4.05
			c-3.29,0-6.57,0.48-9.82,1.44v-6.03c3.26-0.96,6.53-1.44,9.82-1.44c10.3,0,15.45,3.31,15.45,9.94v20.22h-3.85l-3.27-2.13
			c-2.62,1.42-5.42,2.13-8.39,2.13C262.78,162.09,258.71,158.96,258.71,152.7z M271.81,149.16c-3.66,0-5.49,1.15-5.49,3.45
			s1.53,3.45,4.6,3.45c3.1,0,5.73-0.78,7.9-2.36v-3.96C276.9,149.36,274.57,149.16,271.81,149.16z"/>
		<path class="st47" d="M293.61,162.09v-30.16h5.89l0.89,3.79c3.47-2.53,6.9-3.79,10.31-3.79c3.79,0,6.48,1.38,8.07,4.14
			c3.85-2.76,7.46-4.14,10.83-4.14c6.36,0,9.54,3.82,9.54,11.46v18.7h-7.61V143.1c0-3.35-1.42-5.03-4.25-5.03
			c-2.26,0-4.62,1.3-7.09,3.91v20.11h-7.61v-18.9c0-3.41-1.4-5.11-4.19-5.11c-2.41,0-4.8,1.3-7.15,3.91v20.11H293.61z"/>
	</g>
</g>
</svg>
