<?xml version="1.0" encoding="utf-8"?>
<!-- Generator: Adobe Illustrator 23.0.3, SVG Export Plug-In . SVG Version: 6.00 Build 0)  -->
<svg version="1.1" id="Layer_1" xmlns="http://www.w3.org/2000/svg" xmlns:xlink="http://www.w3.org/1999/xlink" x="0px" y="0px"
	 viewBox="0 0 400 245" style="enable-background:new 0 0 400 245;" xml:space="preserve">
<style type="text/css">
	.st0{fill:#E01B22;}
	.st1{fill:#4064AD;}
	.st2{fill:#E98300;}
	.st3{fill:#00549F;}
	.st4{fill-rule:evenodd;clip-rule:evenodd;}
	.st5{fill-rule:evenodd;clip-rule:evenodd;fill:#C9243A;}
	.st6{fill-rule:evenodd;clip-rule:evenodd;fill:#231F20;}
	.st7{fill-rule:evenodd;clip-rule:evenodd;fill:#7C848A;}
	.st8{fill:#EE3B29;}
	.st9{fill:#7C848A;}
	.st10{fill:#0F0F59;}
	.st11{fill:#F42A4D;}
	.st12{fill:#DA2128;}
	.st13{fill-rule:evenodd;clip-rule:evenodd;fill:#12ABDB;}
	.st14{fill-rule:evenodd;clip-rule:evenodd;fill:#0070AD;}
	.st15{fill:#929497;}
	.st16{fill:#231F20;}
	.st17{fill:#00ADEE;}
	.st18{fill:#2E3191;}
	.st19{fill:#EC1C24;}
	.st20{fill:#0082C9;}
	.st21{fill:#6D67AE;}
	.st22{fill:#2B62AD;}
	.st23{fill:#404041;}
	.st24{fill:#273B5B;}
	.st25{fill:#39B54A;}
	.st26{fill:#474749;}
	.st27{fill:#009245;}
	.st28{fill:#DDDDDD;}
	.st29{fill:#FFFFFF;}
	.st30{fill:url(#SVGID_1_);}
	.st31{fill:url(#SVGID_2_);}
	.st32{fill:url(#SVGID_3_);}
	.st33{fill:url(#SVGID_4_);}
	.st34{fill:url(#SVGID_5_);}
	.st35{fill:url(#SVGID_6_);}
	.st36{fill:url(#SVGID_7_);}
	.st37{fill:url(#SVGID_8_);}
	.st38{fill:url(#SVGID_9_);}
	.st39{fill:url(#SVGID_10_);}
	.st40{fill:url(#SVGID_11_);}
	.st41{fill:url(#SVGID_12_);}
	.st42{fill:url(#SVGID_13_);}
	.st43{fill:url(#SVGID_14_);}
	.st44{fill:url(#SVGID_15_);}
	.st45{fill:url(#SVGID_16_);}
	.st46{fill:url(#SVGID_17_);}
	.st47{fill:#59595C;}
	.st48{fill:#1D7DB9;}
	.st49{fill:#121110;}
	.st50{fill:#010101;}
	.st51{fill:#663795;}
	.st52{fill:#09324A;stroke:#1B75BB;stroke-width:0.6975;stroke-miterlimit:10;}
	.st53{fill:#002432;stroke:#1B75BB;stroke-width:1.0463;stroke-miterlimit:10;}
	.st54{fill-rule:evenodd;clip-rule:evenodd;fill:#E73836;}
	.st55{fill:#231916;}
	.st56{fill:#E73836;}
	.st57{fill:#8C9091;}
	.st58{fill-rule:evenodd;clip-rule:evenodd;fill:#365072;}
	.st59{fill:#365072;}
	.st60{fill:#0093D7;}
	.st61{clip-path:url(#SVGID_19_);fill:url(#SVGID_20_);}
	.st62{clip-path:url(#SVGID_22_);fill:url(#SVGID_23_);}
	.st63{clip-path:url(#SVGID_25_);fill:url(#SVGID_26_);}
	.st64{clip-path:url(#SVGID_28_);fill:url(#SVGID_29_);}
	.st65{clip-path:url(#SVGID_31_);fill:url(#SVGID_32_);}
	.st66{clip-path:url(#SVGID_34_);fill:url(#SVGID_35_);}
	.st67{clip-path:url(#SVGID_37_);fill:url(#SVGID_38_);}
	.st68{clip-path:url(#SVGID_40_);fill:url(#SVGID_41_);}
	.st69{clip-path:url(#SVGID_43_);fill:url(#SVGID_44_);}
	.st70{clip-path:url(#SVGID_68_);}
	.st71{clip-path:url(#SVGID_79_);}
	.st72{fill:#00A9E6;}
	.st73{fill:#4D4D4F;}
	.st74{fill:#898B8D;}
	.st75{fill:#04B3AC;}
	.st76{fill:#A4A2A0;}
	.st77{fill:#D0CFCE;}
	.st78{fill:#74777C;}
	.st79{fill:none;stroke:#ED3024;stroke-width:0.4269;}
	.st80{fill:#A2A4A8;}
	.st81{fill:#3F7BA3;}
	.st82{enable-background:new    ;}
	.st83{fill:#E8B520;}
	.st84{fill:#D27D41;}
	.st85{fill:#0B74BB;}
	.st86{fill:#702784;}
	.st87{fill:#AD2E91;}
	.st88{fill:#ED3694;}
	.st89{fill:#004E9A;}
	.st90{clip-path:url(#SVGID_82_);fill:url(#SVGID_83_);}
	.st91{clip-path:url(#SVGID_85_);fill:url(#SVGID_86_);}
	.st92{clip-path:url(#SVGID_88_);fill:url(#SVGID_89_);}
	.st93{fill:#0898CC;}
	.st94{fill:#12284C;}
	.st95{fill-rule:evenodd;clip-rule:evenodd;fill:#84BE42;}
	.st96{fill-rule:evenodd;clip-rule:evenodd;fill:#C1C0C0;}
	.st97{clip-path:url(#SVGID_91_);fill:#84BE42;}
	.st98{fill:#0066A5;}
	.st99{fill:#F05A22;}
	.st100{clip-path:url(#SVGID_93_);}
	.st101{clip-path:url(#SVGID_95_);fill:#1D1D1B;}
	.st102{clip-path:url(#SVGID_97_);}
	.st103{clip-path:url(#SVGID_99_);fill:#1D1D1B;}
	.st104{clip-path:url(#SVGID_101_);}
	.st105{clip-path:url(#SVGID_103_);fill:#1D1D1B;}
	.st106{clip-path:url(#SVGID_105_);}
	.st107{clip-path:url(#SVGID_107_);fill:#1D1D1B;}
	.st108{clip-path:url(#SVGID_109_);}
	.st109{clip-path:url(#SVGID_111_);fill:#1D1D1B;}
	.st110{clip-path:url(#SVGID_113_);}
	.st111{clip-path:url(#SVGID_115_);fill:#1D1D1B;}
	.st112{clip-path:url(#SVGID_117_);}
	.st113{clip-path:url(#SVGID_119_);fill:#1D9DD9;}
	.st114{clip-path:url(#SVGID_121_);}
	.st115{clip-path:url(#SVGID_123_);fill:#1D1D1B;}
	.st116{clip-path:url(#SVGID_125_);}
	.st117{clip-path:url(#SVGID_127_);fill:#1D9DD9;}
	.st118{clip-path:url(#SVGID_129_);}
	.st119{clip-path:url(#SVGID_131_);fill:#1D1D1B;}
	.st120{clip-path:url(#SVGID_133_);}
	.st121{clip-path:url(#SVGID_135_);fill:#1D9DD9;}
	.st122{clip-path:url(#SVGID_137_);}
	.st123{clip-path:url(#SVGID_139_);fill:#1D1D1B;}
	.st124{clip-path:url(#SVGID_141_);}
	.st125{clip-path:url(#SVGID_143_);fill:#1D9DD9;}
	.st126{clip-path:url(#SVGID_145_);}
	.st127{clip-path:url(#SVGID_147_);fill:#1D1D1B;}
	.st128{fill:#D44432;}
	.st129{fill:#272525;}
	.st130{fill:url(#SVGID_148_);}
	.st131{fill:url(#SVGID_149_);}
	.st132{fill:url(#SVGID_150_);}
	.st133{fill:#002B54;}
	.st134{fill:#B2B1B1;}
	.st135{fill:#E1134F;}
	.st136{fill:#454547;}
	.st137{fill:#00B4D0;}
	.st138{fill:#4564A7;}
	.st139{fill:#0088EE;}
	.st140{fill:#026FC2;}
	.st141{fill:#009FEE;}
	.st142{fill:#00BEEE;}
	.st143{fill:#00AFEE;}
	.st144{fill-rule:evenodd;clip-rule:evenodd;fill:#224099;}
	.st145{clip-path:url(#SVGID_152_);}
	.st146{clip-path:url(#SVGID_156_);}
	.st147{fill:#203260;}
	.st148{fill-rule:evenodd;clip-rule:evenodd;fill:#989A9D;}
	.st149{fill-rule:evenodd;clip-rule:evenodd;fill:#DF068C;}
	.st150{fill:#2E3437;}
	.st151{fill:#989FA4;}
	.st152{fill:#E1DE22;}
	.st153{fill-rule:evenodd;clip-rule:evenodd;fill:#86171D;}
	.st154{fill-rule:evenodd;clip-rule:evenodd;fill:#FFFFFF;}
	.st155{fill:none;stroke:#86171D;stroke-width:6.1349;stroke-miterlimit:10;}
	.st156{fill:#1F1F1F;}
	.st157{fill:#009590;}
	.st158{fill:#ED1651;}
</style>
<g>
	<path class="st153" d="M120.11,2.33h159.77v159.71H120.11V2.33z"/>
	<g>
		<polygon class="st154" points="244.59,18.96 225.52,18.96 225.52,37.93 209.3,37.93 209.3,18.96 190.22,18.96 190.22,37.93 
			174.48,37.93 174.48,18.96 155.41,18.96 155.41,49.84 160.18,49.84 160.18,68.91 169.71,68.91 169.71,49.84 194.99,49.84 
			194.99,68.91 204.53,68.91 204.53,49.84 230.29,49.84 230.29,68.92 239.82,68.92 239.82,49.84 244.59,49.84 		"/>
		<path class="st154" d="M242.7,53.66v19.07h-15.74V53.66h-19.08v19.07h-16.22V53.66h-19.08v19.07h-15.74V53.66h-19.08v88.41h41.97
			v-33.09c0-15.37,20.03-15.05,20.03-15.05s20.03-0.32,20.03,15.05v33.09h41.97V53.66H242.7z"/>
		<path class="st154" d="M191.13,145.95c0,0.66,0.53,1.19,1.19,1.19h5.96v1.43h-0.24c-0.92,0-1.67,0.75-1.67,1.67
			c0,0.92,0.75,1.67,1.67,1.67h3.82c0.92,0,1.67-0.75,1.67-1.67c0-0.92-0.75-1.67-1.67-1.67h-0.24v-25.74h0.24
			c0.92,0,1.67-0.75,1.67-1.67c0-0.75-0.5-1.38-1.18-1.59l10-8.12l-12.55-10.2l-12.6,10.23l10.09,8.19
			c-0.54,0.28-0.92,0.83-0.92,1.48c0,0.92,0.75,1.67,1.67,1.67h0.24v12.87h-5.96c-0.66,0-1.19,0.53-1.19,1.19v0.72v1.43
			c0,0.53,0.43,0.95,0.95,0.95c0.53,0,0.95-0.43,0.95-0.95v-0.95h5.25v6.67h-5.25v-0.95c0-0.53-0.43-0.95-0.95-0.95
			c-0.53,0-0.95,0.43-0.95,0.95v1.43V145.95z M199.82,117.77l-7.66-6.22l7.79-6.33l7.66,6.22L199.82,117.77z"/>
	</g>
	<line class="st155" x1="119.8" y1="240.67" x2="280.2" y2="240.67"/>
	<g>
		<path class="st156" d="M168.27,172.72l1.36,16.71h-1.36c-1.39-4.17-3.17-7.3-5.33-9.4c-3.17-3.04-7.22-4.55-12.16-4.55
			c-6.72,0-11.84,2.66-15.36,7.99c-2.94,4.49-4.41,9.84-4.41,16.04c0,5.07,0.98,9.68,2.93,13.83c1.95,4.15,4.51,7.19,7.66,9.13
			c3.15,1.94,6.4,2.91,9.76,2.91c1.94,0,3.82-0.24,5.64-0.73c1.82-0.48,3.58-1.21,5.26-2.18v-15.31c0-2.65-0.2-4.38-0.61-5.21
			c-0.4-0.82-1.03-1.44-1.86-1.86c-0.84-0.42-2.33-0.63-4.46-0.63v-1.5h20.44v1.5h-0.97c-2.03,0-3.42,0.68-4.17,2.03
			c-0.52,0.97-0.78,2.86-0.78,5.67v16.18c-3,1.62-5.96,2.8-8.87,3.56c-2.91,0.76-6.14,1.14-9.69,1.14c-10.24,0-18.01-3.28-23.3-9.83
			c-3.97-4.91-5.96-10.58-5.96-17.01c0-4.65,1.11-9.11,3.34-13.37c2.65-5.07,6.3-8.98,10.95-11.72c3.88-2.26,8.45-3.39,13.71-3.39
			c1.94,0,3.69,0.16,5.26,0.48c1.57,0.32,3.79,1.02,6.66,2.08c1.45,0.55,2.44,0.82,2.96,0.82c0.48,0,0.9-0.23,1.26-0.68
			c0.35-0.45,0.56-1.36,0.63-2.71H168.27z"/>
		<path class="st156" d="M213.57,172.72v18.31h-1.45c-0.45-3.52-1.28-6.31-2.5-8.38c-1.21-2.07-2.94-3.71-5.18-4.94
			c-2.25-1.23-4.56-1.84-6.95-1.84c-2.68,0-4.91,0.82-6.69,2.47c-1.78,1.65-2.66,3.52-2.66,5.62c0,1.62,0.56,3.08,1.7,4.41
			c1.61,1.97,5.44,4.57,11.48,7.8c4.94,2.65,8.32,4.68,10.13,6.1c1.81,1.42,3.2,3.09,4.17,5.01c0.97,1.92,1.45,3.93,1.45,6.03
			c0,4.01-1.55,7.46-4.65,10.37c-3.1,2.91-7.09,4.36-11.97,4.36c-1.55,0-3-0.11-4.36-0.34c-0.81-0.13-2.48-0.61-5.01-1.43
			c-2.54-0.82-4.14-1.24-4.82-1.24c-0.65,0-1.16,0.19-1.53,0.58c-0.37,0.39-0.65,1.2-0.85,2.42h-1.4v-18.12h1.4
			c0.68,3.78,1.59,6.61,2.74,8.5c1.15,1.89,2.9,3.46,5.26,4.7c2.36,1.24,4.94,1.87,7.75,1.87c3.23,0,5.79-0.86,7.68-2.57
			c1.89-1.71,2.83-3.75,2.83-6.1c0-1.29-0.36-2.6-1.07-3.92c-0.71-1.32-1.83-2.55-3.34-3.68c-1-0.78-3.76-2.43-8.28-4.97
			c-4.52-2.53-7.74-4.56-9.67-6.08c-1.92-1.52-3.38-3.19-4.36-5.01c-0.99-1.82-1.48-3.82-1.48-5.98c0-3.81,1.45-7.09,4.36-9.84
			c2.91-2.74,6.62-4.12,11.14-4.12c2.81,0,5.78,0.69,8.91,2.08c1.45,0.65,2.49,0.97,3.1,0.97c0.65,0,1.19-0.2,1.62-0.61
			c0.44-0.4,0.78-1.22,1.04-2.45H213.57z"/>
		<path class="st156" d="M253.97,197.52l11.34,16.96c3.16,4.68,5.51,7.64,7.03,8.87c1.52,1.23,3.44,1.91,5.76,2.03v1.45h-22.67
			v-1.45c1.49-0.03,2.6-0.18,3.34-0.44c0.55-0.26,1-0.62,1.36-1.09c0.35-0.47,0.53-0.96,0.53-1.48c0-0.58-0.13-1.18-0.39-1.79
			c-0.16-0.42-0.87-1.57-2.13-3.44l-8.96-13.56l-11.09,14.19c-1.16,1.52-1.86,2.53-2.08,3.03c-0.23,0.5-0.34,1.03-0.34,1.57
			c0,0.84,0.35,1.53,1.04,2.08c0.69,0.55,2.03,0.86,4,0.92v1.45h-18.75v-1.45c1.32-0.13,2.47-0.4,3.44-0.82
			c1.62-0.68,3.15-1.58,4.6-2.71c1.45-1.13,3.12-2.89,4.99-5.28l12.5-15.75l-10.42-15.26c-2.84-4.13-5.25-6.84-7.22-8.11
			c-1.97-1.28-4.25-1.96-6.83-2.06v-1.45h24.47v1.45c-2.1,0.1-3.53,0.44-4.29,1.04c-0.76,0.6-1.14,1.25-1.14,1.96
			c0,0.97,0.61,2.37,1.84,4.22l8.14,12.11l9.4-11.87c1.1-1.42,1.77-2.39,2.01-2.91c0.24-0.52,0.36-1.05,0.36-1.6
			c0-0.55-0.16-1.02-0.48-1.4c-0.39-0.55-0.88-0.94-1.48-1.16c-0.6-0.23-1.83-0.35-3.71-0.39v-1.45h18.75v1.45
			c-1.49,0.1-2.7,0.34-3.63,0.73c-1.39,0.58-2.66,1.38-3.83,2.4c-1.16,1.02-2.81,2.9-4.94,5.64L253.97,197.52z"/>
	</g>
</g>
</svg>
