<svg xmlns="http://www.w3.org/2000/svg" xmlns:xlink="http://www.w3.org/1999/xlink" width="136" height="24" viewBox="0 0 136 24"><defs><path id="a" d="M0 0h136v23.853H0z"/></defs><clipPath id="b"><use xlink:href="#a" overflow="visible"/></clipPath><path clip-path="url(#b)" fill="#E42613" d="M135.977 14.315l-.01 5.58c-2.923 1.14-6.262 1.782-9.81 1.774-3.55-.01-6.886-.663-9.8-1.813l.01-5.582c2.666 1.387 6.078 2.23 9.8 2.238 3.72.008 7.138-.82 9.81-2.198m-9.8-2.96c-4.572-.01-8.448-1.358-9.798-3.217l-.01 3.83c2.447 1.52 5.93 2.473 9.802 2.48 3.87.01 7.354-.93 9.81-2.44l.007-3.83c-1.36 1.852-5.238 3.185-9.812 3.176M126.2 0c-3.992-.008-7.542 1.008-9.81 2.592l-.006 2.647c1.356-1.855 5.238-3.185 9.812-3.177 2.013.004 3.89.266 5.475.722l-5.514 3.255c-.31-.16-1.344-.704-2.568-1.342l-2.094 1.237 4.722 2.472 7.892-4.665c.83.452 1.474.968 1.888 1.536l.006-2.646c-2.265-1.594-5.81-2.624-9.8-2.632"/><path clip-path="url(#b)" fill="#1D1D1B" d="M25.15 18.807l-2.912-.006.003-1.603h-.045c-.94 1.145-2.27 1.873-3.875 1.87-2.795-.006-4.003-1.978-3.998-4.636l.015-7.443 3.07.007-.014 6.3c-.002 1.444.017 3.39 1.985 3.394 2.222.004 2.71-2.398 2.712-3.91l.01-5.774 3.07.006-.02 11.797zM29.656 7.638c1.19-.547 2.795-.887 4.102-.885 3.597.007 3.936 1.497 3.93 4.978l-.004 1.513c-.002 1.193.022 2.086.04 2.956.022.893.135 1.72.202 2.633l-2.77-.005c-.115-.618-.114-1.397-.136-1.765h-.046c-.712 1.307-2.25 2.034-3.647 2.03-2.083-.003-4.12-1.267-4.117-3.51.004-1.765.855-2.793 2.024-3.365 1.17-.57 2.68-.68 3.963-.677l1.696.003c.004-1.9.304-2.543-1.506-2.546-1.306-.003-2.61.5-3.644 1.275l-.087-2.634zm2.432 9.214c.938.002 1.672-.408 2.154-1.05.504-.664.646-1.51.648-2.427l-1.33-.002c-1.373-.002-3.413.223-3.416 2.03-.002 1.01.846 1.446 1.944 1.45"/><path clip-path="url(#b)" fill="#1D1D1B" d="M40.366 7.04l2.725.006-.004 2.68h.048c.137-1.097 1.402-2.95 3.235-2.947.297 0 .616 0 .938.094l-.006 3.09c-.275-.16-.825-.253-1.376-.254-2.495-.005-2.5 3.11-2.505 4.806l-.008 4.33-3.07-.01.024-11.795zM57.046 17.542H57c-.92 1.144-2.18 1.6-3.623 1.597-3.62-.01-4.94-2.988-4.935-6.22.006-3.25 1.34-6.135 4.96-6.127 1.535.002 2.61.53 3.523 1.656h.046l.012-5.613L60.056.552l-.037 18.324-2.978-.006.004-1.328zm-2.817-.785c2.038.005 2.707-2.147 2.71-3.82.003-1.647-.77-3.757-2.743-3.762-1.99-.003-2.546 2.172-2.55 3.752-.003 1.626.567 3.827 2.582 3.83"/><path clip-path="url(#b)" fill="#1D1D1B" d="M64.455 9.334l-2.27-.005.235-2.246 2.04.004.002-1.44 3.076-3.04-.01 4.487 2.726.005-.233 2.245-2.495-.004-.01 5.498c-.003 1.007.27 1.947 1.44 1.95.546 0 1.12-.112 1.442-.317l.04 2.427c-.644.184-1.352.273-2.267.27-2.407-.005-3.732-1.495-3.728-3.83l.013-6.003zM72.432 7.104l3.07.007-.023 11.796-3.072-.005.024-11.796zm1.543-5.08c.802 0 1.467.666 1.465 1.47-.002.8-.668 1.463-1.47 1.462-.8 0-1.464-.668-1.462-1.47 0-.802.667-1.465 1.467-1.463"/><path clip-path="url(#b)" fill="#1D1D1B" d="M78.686 7.118l2.863.005-.005 1.65h.046c.966-1.44 2.365-1.918 3.51-1.916 1.65.003 2.817.624 3.477 2.09.713-1.42 2.25-2.08 3.692-2.076 2.91.007 3.73 2.003 3.725 4.635l-.016 7.445-3.07-.007.015-7.032c0-1.1.004-2.656-1.76-2.66-2.037-.004-2.295 2.425-2.297 3.96l-.013 5.726-3.07-.007.015-7.033c.002-1.1.006-2.657-1.758-2.66-2.04-.006-2.295 2.424-2.3 3.957l-.012 5.726-3.07-.006.026-11.796zM108.534 18.31c-1.123.616-2.406.935-4.056.93-3.893-.007-6.157-2.254-6.148-6.124.006-3.415 1.822-6.23 5.486-6.22 4.375.007 5.604 3.01 5.597 7.133l-8.153-.018c.135 1.9 1.46 2.98 3.36 2.986 1.49.002 2.544-.545 3.69-1.186l.224 2.498zm-2.048-6.395c-.09-1.488-.774-2.773-2.49-2.777-1.72-.002-2.592 1.187-2.73 2.767l5.22.01zM8.622 8.58C7.776 7.228 6.564 6.7 5.006 6.697 1.48 6.69.006 9.962 0 12.802c-.006 3.16 1.317 5.956 4.797 5.964 1.72.003 3.096-.864 3.67-1.87h.047c-.004 2.032-.148 4.565-3.512 4.57 0 0-.57-.057-.943-.215-.557-.236-.76-.542-.76-.542l-2.25 1.248s.604.78 1.435 1.21c1.333.69 2.502.686 2.502.686v-.002c4.936.005 6.586-3.012 6.593-6.218l.02-10.65-2.978 1.6zm-2.81 7.806c-1.764-.003-2.608-1.976-2.605-3.577.004-1.812.67-3.734 2.756-3.73 1.786.003 2.562 1.654 2.558 3.67-.002 1.97-.785 3.64-2.71 3.636"/></svg>