<?xml version="1.0" encoding="UTF-8"?><svg xmlns="http://www.w3.org/2000/svg" version="1.2" baseProfile="tiny" viewBox="0 0 170 170" width="170px" height="170px"><g fill="#18174d"><rect y="72" width="1" height="1" x="46"/><rect x="73" y="72" width="1" height="1"/><rect x="83" y="72" width="1" height="1"/><rect x="85" y="73" width="1" height="1"/><rect x="98" y="73" width="1" height="1"/><rect x="101" y="73" width="5" height="1"/><rect y="73" width="1" height="1" x="106"/><rect x="113" y="73" width="1" height="1"/><rect height="1" x="59" y="74" width="1"/><rect x="97" y="74" width="1" height="1"/><rect x="116" y="74" width="1" height="1"/><rect x="87" y="75" width="1" height="1"/><rect height="1" x="116" y="75" width="1"/><rect x="121" y="75" width="2" height="1"/><rect width="1" height="1" x="123" y="75"/><rect y="75" width="2" height="1" x="126"/><rect x="128" y="75" width="1" height="1"/><rect x="54" y="76" width="1" height="1"/><rect height="1" x="81" y="76" width="1"/><rect width="1" height="1" x="129" y="76"/><rect x="55" y="77" width="1" height="1"/><rect y="77" width="1" height="1" x="82"/><rect y="77" width="1" height="1" x="88"/><rect x="112" y="77" width="1" height="1"/><rect width="1" height="2" x="118" y="77"/><rect y="78" width="1" height="1" x="108"/><rect x="108" y="79" width="1" height="2"/><rect x="118" y="79" width="1" height="1"/><rect x="108" y="81" width="1" height="1"/><rect y="81" width="1" height="2" x="111"/><rect x="110" y="82" width="1" height="1"/><rect x="114" y="82" width="2" height="1"/><rect x="116" y="82" width="1" height="1"/><rect x="105" y="83" width="1" height="1"/><rect x="111" y="83" width="2" height="1"/><rect x="113" y="83" width="1" height="1"/><rect width="1" height="1" x="120" y="83"/><rect x="58" y="87" width="1" height="1"/><rect x="85" y="87" width="1" height="1"/><rect x="48" y="89" width="1" height="1"/><rect x="49" y="89" width="1" height="1"/><rect y="89" width="1" height="1" x="75"/><rect height="1" x="76" y="89" width="1"/><rect x="107" y="90" width="1" height="1"/><rect x="118" y="90" width="1" height="1"/><rect width="1" height="7" x="127" y="91"/><rect x="62" y="92" width="1" height="1"/><rect x="112" y="92" width="1" height="1"/><rect x="107" y="94" width="1" height="1"/><rect x="122" y="96" width="1" height="1"/><rect height="1" x="89" y="98" width="1"/><rect x="95" y="98" width="1" height="1"/><rect x="98" y="98" width="1" height="1"/><rect x="127" y="98" width="1" height="1"/><rect width="1" height="1" x="73" y="99"/><rect x="82" y="99" width="1" height="1"/><rect x="115" y="99" width="1" height="1"/><rect x="116" y="99" width="1" height="1"/><rect width="1" height="1" x="124" y="99"/><rect x="49" y="100" width="2" height="1"/><rect x="51" y="100" width="1" height="1"/><rect x="77" y="100" width="2" height="1"/><rect x="79" y="100" width="1" height="1"/><rect x="88" y="100" width="1" height="1"/><rect x="116" y="100" width="1" height="1"/><rect y="101" width="1" height="1" x="60"/><rect width="1" height="1" x="113" y="101"/><rect width="1" height="1" x="114" y="103"/><rect x="118" y="103" width="1" height="1"/></g><g fill="#7e7d9b"><rect height="1" x="47" y="72" width="1"/><rect height="1" x="45" y="73" width="1"/><rect width="1" height="1" x="57" y="73"/><rect y="73" width="1" height="1" x="72"/><rect width="1" height="1" x="123" y="73"/><rect x="120" y="74" width="1" height="1"/><rect x="49" y="75" width="1" height="1"/><rect y="75" width="1" height="1" x="76"/><rect x="111" y="75" width="1" height="1"/><rect y="76" width="1" height="1" x="47"/><rect width="1" height="1" x="60" y="76"/><rect width="1" height="1" x="105" y="78"/><rect x="109" y="78" width="1" height="1"/><rect y="78" width="2" height="1" x="112"/><rect x="114" y="78" width="1" height="1"/><rect y="78" width="1" height="1" x="120"/><rect x="68" y="79" width="1" height="1"/><rect x="83" y="79" width="1" height="1"/><rect x="88" y="79" width="1" height="2"/><rect x="105" y="79" width="1" height="1"/><rect y="80" width="1" height="1" x="45"/><rect x="68" y="80" width="1" height="1"/><rect width="1" height="1" x="72" y="80"/><rect x="83" y="80" width="1" height="1"/><rect x="97" y="80" width="1" height="2"/><rect x="100" y="80" width="1" height="1"/><rect width="1" height="1" x="129" y="80"/><rect width="1" height="1" x="88" y="81"/><rect width="1" height="1" x="117" y="81"/><rect height="1" x="97" y="82" width="1"/><rect x="117" y="82" width="1" height="1"/><rect width="1" height="1" x="79" y="85"/><rect y="87" width="1" height="1" x="57"/><rect y="89" width="1" height="1" x="80"/><rect x="87" y="89" width="1" height="1"/><rect height="1" x="55" y="90" width="1"/><rect x="108" y="90" width="1" height="1"/><rect x="56" y="91" width="1" height="1"/><rect x="114" y="91" width="1" height="1"/><rect width="1" height="1" x="122" y="92"/><rect x="107" y="93" width="1" height="1"/><rect x="62" y="94" width="1" height="1"/><rect y="94" width="1" height="1" x="84"/><rect height="1" x="62" y="95" width="1"/><rect width="1" height="1" x="84" y="95"/><rect x="124" y="95" width="1" height="1"/><rect x="89" y="96" width="1" height="1"/><rect x="104" y="96" width="1" height="1"/><rect height="1" x="104" y="97" width="1"/><rect x="45" y="99" width="1" height="1"/><rect x="61" y="99" width="1" height="1"/><rect x="95" y="99" width="1" height="1"/><rect x="98" y="99" width="1" height="1"/><rect y="100" width="1" height="1" x="42"/><rect x="58" y="102" width="1" height="1"/><rect y="102" width="1" height="1" x="85"/><rect y="102" width="1" height="1" x="106"/><rect x="112" y="102" width="1" height="1"/><rect x="47" y="103" width="1" height="1"/><rect x="74" y="103" width="1" height="1"/><rect width="1" height="1" x="113" y="103"/></g><g fill="#f0f0f3"><rect x="50" y="72" width="1" height="1"/><rect x="77" y="72" width="2" height="1"/><rect width="1" height="1" x="79" y="72"/><rect x="46" y="73" width="1" height="1"/><rect width="1" height="1" x="56" y="73"/><rect y="73" width="1" height="1" x="73"/><rect x="83" y="73" width="1" height="1"/><rect x="110" y="74" width="1" height="1"/><rect x="111" y="74" width="4" height="1"/><rect x="115" y="74" width="1" height="1"/><rect x="122" y="74" width="1" height="1"/><rect x="126" y="74" width="1" height="1"/><rect x="127" y="74" width="1" height="1"/><rect height="1" x="54" y="75" width="1"/><rect width="1" height="1" x="81" y="75"/><rect x="98" y="75" width="1" height="1"/><rect height="1" x="112" y="75" width="1"/><rect y="76" width="1" height="1" x="111"/><rect x="124" y="76" width="1" height="1"/><rect x="60" y="77" width="1" height="1"/><rect width="1" height="1" x="83" y="77"/><rect y="77" width="1" height="1" x="87"/><rect y="77" width="1" height="1" x="116"/><rect x="100" y="78" width="1" height="1"/><rect x="98" y="80" width="1" height="1"/><rect x="126" y="81" width="1" height="1"/><rect height="1" x="59" y="84" width="1"/><rect x="82" y="84" width="1" height="1"/><rect x="48" y="86" width="1" height="2"/><rect y="88" width="1" height="1" x="48"/><rect y="88" width="1" height="1" x="58"/><rect width="1" height="1" x="85" y="88"/><rect x="107" y="91" width="1" height="1"/><rect x="112" y="91" width="1" height="1"/><rect x="57" y="92" width="1" height="1"/><rect height="1" x="121" y="93" width="1"/><rect x="122" y="93" width="1" height="1"/><rect x="68" y="96" width="1" height="1"/><rect x="124" y="96" width="1" height="1"/><rect x="42" y="97" width="1" height="1"/><rect x="68" y="97" width="1" height="1"/><rect width="1" height="1" x="69" y="97"/><rect width="2" height="1" x="41" y="98"/><rect x="43" y="98" width="1" height="1"/><rect x="61" y="98" width="1" height="1"/><rect x="70" y="98" width="1" height="1"/><rect x="88" y="98" width="1" height="1"/><rect height="1" x="56" y="99" width="1"/><rect x="106" y="99" width="1" height="1"/><rect y="99" width="1" height="1" x="126"/><rect x="46" y="100" width="1" height="1"/><rect x="55" y="100" width="1" height="1"/><rect width="1" height="1" x="73" y="100"/><rect x="82" y="100" width="1" height="1"/><rect x="71" y="101" width="1" height="1"/><rect width="1" height="1" x="107" y="101"/><rect x="57" y="102" width="1" height="1"/><rect y="102" width="1" height="1" x="84"/><rect x="113" y="102" width="1" height="1"/><rect x="50" y="103" width="1" height="1"/><rect x="51" y="103" width="1" height="1"/><rect y="103" width="2" height="1" x="77"/><rect y="103" width="1" height="1" x="79"/><rect x="110" y="103" width="1" height="1"/><rect x="111" y="103" width="1" height="1"/></g><g fill="#2f2e5f"><rect x="86" y="74" width="1" height="1"/><rect x="116" y="76" width="1" height="1"/><rect x="114" y="77" width="1" height="1"/><rect x="120" y="77" width="3" height="1"/><rect x="123" y="77" width="1" height="1"/><rect y="77" width="3" height="1" x="126"/><rect x="129" y="77" width="1" height="2"/><rect x="46" y="78" width="1" height="1"/><rect x="68" y="78" width="1" height="1"/><rect x="98" y="79" width="1" height="1"/><rect x="120" y="79" width="1" height="1"/><rect x="129" y="79" width="1" height="1"/><rect x="101" y="80" width="1" height="1"/><rect x="102" y="80" width="1" height="1"/><rect x="112" y="80" width="2" height="1"/><rect width="1" height="1" x="114" y="80"/><rect y="81" width="1" height="1" x="104"/><rect width="3" height="1" x="112" y="81"/><rect y="81" width="1" height="1" x="115"/><rect height="1" x="61" y="82" width="1"/><rect x="108" y="82" width="1" height="1"/><rect x="118" y="82" width="1" height="1"/><rect x="97" y="83" width="1" height="1"/><rect width="1" height="1" x="98" y="83"/><rect x="106" y="83" width="1" height="1"/><rect x="60" y="84" width="1" height="1"/><rect width="1" height="1" x="48" y="85"/><rect y="85" width="1" height="1" x="49"/><rect x="75" y="85" width="1" height="1"/><rect x="76" y="85" width="1" height="1"/><rect height="1" x="58" y="86" width="1"/><rect height="1" x="50" y="89" width="1"/><rect y="89" width="1" height="1" x="51"/><rect y="89" width="1" height="1" x="77"/><rect width="1" height="1" x="78" y="89"/><rect x="61" y="90" width="1" height="1"/><rect x="113" y="90" width="1" height="1"/><rect x="121" y="90" width="1" height="1"/><rect x="118" y="91" width="1" height="11"/><rect width="1" height="1" x="89" y="92"/><rect x="105" y="92" width="1" height="1"/><rect x="123" y="93" width="1" height="1"/><rect x="104" y="94" width="1" height="1"/><rect height="1" x="125" y="96" width="1"/><rect x="43" y="97" width="1" height="1"/><rect x="62" y="97" width="1" height="1"/><rect x="70" y="97" width="1" height="1"/><rect x="44" y="98" width="1" height="1"/><rect x="83" y="98" width="1" height="1"/><rect width="1" height="1" x="55" y="99"/><rect x="104" y="99" width="1" height="1"/><rect width="1" height="1" x="127" y="99"/><rect x="52" y="100" width="1" height="1"/><rect y="100" width="1" height="1" x="76"/><rect x="125" y="100" width="1" height="1"/><rect x="87" y="101" width="1" height="1"/><rect x="96" y="101" width="1" height="1"/><rect x="97" y="101" width="1" height="1"/><rect x="44" y="102" width="1" height="1"/><rect x="71" y="102" width="1" height="1"/><rect x="115" y="102" width="1" height="1"/><rect x="118" y="102" width="1" height="1"/><rect x="46" y="103" width="1" height="1"/><rect height="1" x="73" y="103" width="1"/><rect x="107" y="103" width="1" height="1"/><rect height="1" x="127" y="103" width="1"/></g><g fill="#bbbbcb"><rect x="48" y="72" width="1" height="1"/><rect y="73" width="1" height="2" x="99"/><rect width="1" height="1" x="112" y="73"/><rect y="74" width="1" height="1" x="44"/><rect x="98" y="74" width="7" height="1"/><rect height="1" x="105" y="74" width="1"/><rect height="1" x="99" y="75" width="1"/><rect x="82" y="76" width="1" height="1"/><rect x="117" y="76" width="1" height="1"/><rect width="1" height="1" x="69" y="77"/><rect x="73" y="77" width="1" height="1"/><rect x="124" y="77" width="1" height="2"/><rect x="56" y="78" width="1" height="1"/><rect x="125" y="78" width="1" height="1"/><rect x="124" y="79" width="1" height="1"/><rect y="80" width="1" height="1" x="126"/><rect x="122" y="82" width="1" height="1"/><rect x="129" y="82" width="1" height="1"/><rect y="90" width="1" height="1" x="109"/><rect x="119" y="90" width="1" height="1"/><rect y="90" width="1" height="1" x="120"/><rect x="128" y="90" width="1" height="1"/><rect height="1" x="129" y="90" width="1"/><rect y="91" width="1" height="1" x="61"/><rect x="125" y="97" width="1" height="1"/><rect y="98" width="1" height="1" x="106"/><rect x="115" y="100" width="1" height="1"/><rect y="102" width="1" height="1" x="45"/><rect x="72" y="102" width="1" height="1"/><rect x="48" y="103" width="1" height="1"/><rect height="1" x="54" y="103" width="1"/><rect x="75" y="103" width="1" height="1"/><rect x="81" y="103" width="1" height="1"/><rect width="1" height="1" x="119" y="103"/><rect x="120" y="103" width="1" height="1"/><rect x="128" y="103" width="1" height="1"/><rect y="103" width="1" height="1" x="129"/></g><g fill="#dddde5"><rect x="49" y="72" width="1" height="1"/><rect height="1" x="52" y="72" width="1"/><rect x="76" y="72" width="1" height="1"/><rect x="85" y="74" width="1" height="1"/><rect x="121" y="74" width="1" height="1"/><rect y="74" width="1" height="1" x="124"/><rect height="1" x="125" y="74" width="1"/><rect x="128" y="74" width="1" height="1"/><rect x="75" y="75" width="1" height="1"/><rect x="86" y="75" width="1" height="1"/><rect x="97" y="75" width="1" height="1"/><rect width="1" height="1" x="105" y="76"/><rect x="42" y="77" width="1" height="1"/><rect x="109" y="77" width="1" height="1"/><rect x="117" y="77" width="1" height="1"/><rect x="99" y="78" width="1" height="2"/><rect x="72" y="79" width="1" height="1"/><rect width="1" height="1" x="125" y="79"/><rect x="99" y="80" width="1" height="1"/><rect x="100" y="81" width="2" height="1"/><rect x="102" y="81" width="1" height="1"/><rect x="110" y="81" width="1" height="1"/><rect x="116" y="81" width="1" height="1"/><rect x="123" y="81" width="1" height="1"/><rect x="56" y="82" width="1" height="1"/><rect x="128" y="82" width="1" height="1"/><rect x="87" y="83" width="1" height="1"/><rect x="53" y="85" width="1" height="1"/><rect y="85" width="1" height="1" x="80"/><rect width="1" height="1" x="57" y="86"/><rect x="75" y="86" width="1" height="2"/><rect y="86" width="1" height="1" x="84"/><rect x="75" y="88" width="1" height="1"/><rect height="1" x="54" y="89" width="1"/><rect x="81" y="89" width="1" height="1"/><rect x="110" y="90" width="1" height="1"/><rect x="84" y="92" width="1" height="1"/><rect x="113" y="92" width="1" height="1"/><rect y="93" width="1" height="1" x="115"/><rect x="123" y="96" width="1" height="1"/><rect x="57" y="97" width="1" height="1"/><rect y="98" width="1" height="1" x="68"/><rect x="83" y="99" width="1" height="1"/><rect y="99" width="1" height="1" x="125"/><rect x="87" y="100" width="1" height="1"/><rect width="1" height="1" x="105" y="100"/><rect x="86" y="101" width="1" height="1"/><rect x="115" y="101" width="1" height="1"/><rect x="114" y="102" width="1" height="1"/><rect width="1" height="1" x="49" y="103"/><rect x="52" y="103" width="1" height="1"/><rect x="53" y="103" width="1" height="1"/><rect height="1" x="76" y="103" width="1"/><rect y="103" width="1" height="1" x="80"/><rect x="109" y="103" width="1" height="1"/></g><g fill="#ccccd7"><rect x="53" y="72" width="1" height="1"/><rect x="80" y="72" width="1" height="1"/><rect height="1" x="58" y="74" width="1"/><rect x="109" y="74" width="1" height="1"/><rect x="48" y="75" width="1" height="1"/><rect x="59" y="75" width="1" height="1"/><rect width="1" height="2" x="125" y="75"/><rect x="55" y="76" width="1" height="1"/><rect y="76" width="1" height="1" x="98"/><rect x="121" y="76" width="2" height="1"/><rect x="123" y="76" width="1" height="1"/><rect x="126" y="76" width="2" height="1"/><rect x="128" y="76" width="1" height="1"/><rect x="98" y="77" width="1" height="1"/><rect x="105" y="77" width="1" height="1"/><rect x="110" y="77" width="1" height="1"/><rect x="115" y="77" width="1" height="1"/><rect width="1" height="1" x="125" y="77"/><rect y="78" width="3" height="1" x="101"/><rect x="104" y="78" width="1" height="1"/><rect x="45" y="79" width="1" height="1"/><rect y="80" width="2" height="1" x="42"/><rect height="1" x="44" y="80" width="1"/><rect x="69" y="80" width="2" height="1"/><rect height="1" x="71" y="80" width="1"/><rect width="1" height="1" x="103" y="81"/><rect x="124" y="81" width="1" height="1"/><rect x="83" y="82" width="1" height="1"/><rect x="99" y="82" width="1" height="1"/><rect x="100" y="82" width="1" height="1"/><rect x="103" y="82" width="1" height="1"/><rect x="104" y="82" width="1" height="1"/><rect x="112" y="82" width="1" height="1"/><rect x="60" y="83" width="1" height="1"/><rect height="1" x="111" y="90" width="1"/><rect x="88" y="91" width="1" height="1"/><rect width="1" height="1" x="109" y="91"/><rect x="121" y="91" width="1" height="1"/><rect x="105" y="93" width="1" height="1"/><rect x="123" y="94" width="1" height="1"/><rect x="106" y="95" width="1" height="1"/><rect height="1" x="84" y="97" width="1"/><rect x="60" y="100" width="1" height="1"/><rect y="101" width="1" height="1" x="59"/><rect x="127" y="102" width="1" height="1"/><rect y="103" width="1" height="1" x="112"/></g><g fill="#01003b"><rect width="1" height="1" x="71" y="73"/><rect width="1" height="1" x="110" y="73"/><rect x="96" y="75" width="1" height="1"/><rect x="109" y="75" width="1" height="1"/><rect x="113" y="75" width="1" height="1"/><rect x="96" y="76" width="1" height="1"/><rect x="41" y="77" width="1" height="1"/><rect y="77" width="1" height="1" x="81"/><rect width="1" height="1" x="40" y="79"/><rect x="67" y="79" width="1" height="1"/><rect height="1" x="73" y="79" width="1"/><rect x="40" y="80" width="1" height="1"/><rect x="67" y="80" width="1" height="1"/><rect x="42" y="81" width="3" height="1"/><rect x="45" y="81" width="1" height="1"/><rect y="81" width="1" height="1" x="69"/><rect x="70" y="81" width="1" height="1"/><rect x="43" y="82" width="2" height="1"/><rect x="45" y="82" width="1" height="1"/><rect x="100" y="83" width="2" height="1"/><rect x="102" y="83" width="1" height="1"/><rect width="3" height="1" x="115" y="83"/><rect x="118" y="83" width="1" height="1"/><rect x="80" y="84" width="1" height="1"/><rect y="84" width="2" height="1" x="116"/><rect x="118" y="84" width="1" height="1"/><rect x="74" y="85" width="1" height="1"/><rect x="89" y="91" width="1" height="1"/><rect height="1" x="104" y="91" width="1"/><rect y="91" width="1" height="1" x="105"/><rect x="110" y="92" width="1" height="1"/><rect x="111" y="92" width="1" height="1"/><rect x="112" y="93" width="1" height="1"/><rect y="94" width="1" height="1" x="113"/><rect height="1" x="113" y="95" width="1"/><rect x="114" y="95" width="1" height="1"/><rect x="117" y="95" width="1" height="4"/><rect height="1" x="83" y="97" width="1"/><rect y="99" width="1" height="1" x="40"/><rect height="1" x="67" y="99" width="1"/><rect x="117" y="99" width="1" height="2"/><rect x="40" y="100" width="1" height="1"/><rect x="41" y="100" width="1" height="1"/><rect x="67" y="100" width="1" height="1"/><rect x="68" y="100" width="1" height="1"/><rect width="1" height="1" x="104" y="100"/><rect height="1" x="124" y="100" width="1"/><rect width="1" height="1" x="68" y="101"/><rect x="69" y="101" width="1" height="2"/><rect y="101" width="1" height="1" x="95"/><rect x="104" y="101" width="1" height="1"/><rect x="112" y="101" width="1" height="1"/><rect y="101" width="1" height="1" x="117"/><rect x="70" y="102" width="1" height="2"/><rect x="95" y="102" width="2" height="1"/><rect x="97" y="102" width="1" height="1"/><rect y="103" width="3" height="1" x="69"/><rect x="72" y="103" width="1" height="2"/><rect x="54" y="104" width="2" height="1"/><rect height="1" x="56" y="104" width="1"/><rect y="104" width="7" height="1" x="70"/><rect x="77" y="104" width="3" height="1"/><rect x="80" y="104" width="1" height="1"/><rect x="113" y="104" width="2" height="1"/><rect x="54" y="105" width="1" height="1"/><rect x="55" y="105" width="1" height="1"/><rect x="72" y="105" width="2" height="1"/><rect height="1" x="74" y="105" width="1"/></g><g fill="#fff"><rect fill="#fff" width="169" height="57"/><rect x="169" width="1" height="169" fill="#fff"/><rect width="169" height="1" fill="#fff" y="57"/><rect height="111" fill="#fff" y="58" width="30"/><rect height="111" fill="#fff" x="30" y="58" width="1"/><rect height="111" fill="#fff" x="139" y="58" width="30"/><rect x="51" y="72" width="1" height="2" fill="#fff"/><rect width="8" height="1" fill="#fff" x="47" y="73"/><rect x="55" y="73" width="1" height="2" fill="#fff"/><rect height="1" fill="#fff" x="74" y="73" width="8"/><rect x="82" y="73" width="1" height="2" fill="#fff"/><rect x="45" y="74" width="12" height="1" fill="#fff"/><rect y="74" width="1" height="11" fill="#fff" x="57"/><rect x="72" y="74" width="12" height="1" fill="#fff"/><rect width="1" height="11" fill="#fff" x="84" y="74"/><rect x="123" y="74" width="1" height="1" fill="#fff"/><rect x="44" y="75" width="3" height="1" fill="#fff"/><rect x="47" y="75" width="1" height="1" fill="#fff"/><rect height="1" fill="#fff" x="55" y="75" width="3"/><rect fill="#fff" x="58" y="75" width="1" height="10"/><rect fill="#fff" x="71" y="75" width="3" height="1"/><rect x="74" y="75" width="1" height="1" fill="#fff"/><rect x="82" y="75" width="3" height="1" fill="#fff"/><rect x="85" y="75" width="1" height="10" fill="#fff"/><rect fill="#fff" x="115" y="75" width="1" height="1"/><rect y="76" width="3" height="2" fill="#fff" x="43"/><rect fill="#fff" x="46" y="76" width="1" height="1"/><rect height="1" fill="#fff" x="56" y="76" width="3"/><rect x="59" y="76" width="1" height="7" fill="#fff"/><rect x="70" y="76" width="3" height="2" fill="#fff"/><rect x="73" y="76" width="1" height="1" fill="#fff"/><rect x="83" y="76" width="3" height="1" fill="#fff"/><rect x="86" y="76" width="1" height="8" fill="#fff"/><rect x="115" y="76" width="1" height="1" fill="#fff"/><rect x="56" y="77" width="3" height="1" fill="#fff"/><rect x="42" y="78" width="3" height="1" fill="#fff"/><rect x="45" y="78" width="1" height="1" fill="#fff"/><rect y="78" width="1" height="4" fill="#fff" x="60"/><rect x="69" y="78" width="3" height="1" fill="#fff"/><rect x="72" y="78" width="1" height="1" fill="#fff"/><rect height="4" fill="#fff" x="87" y="78" width="1"/><rect x="42" y="79" width="2" height="1" fill="#fff"/><rect fill="#fff" x="44" y="79" width="1" height="1"/><rect height="1" fill="#fff" x="69" y="79" width="2"/><rect width="1" height="1" fill="#fff" x="71" y="79"/><rect width="1" height="1" fill="#fff" x="100" y="79"/><rect x="104" y="80" width="1" height="1" fill="#fff"/><rect height="1" fill="#fff" x="124" y="80" width="1"/><rect x="125" y="80" width="1" height="1" fill="#fff"/><rect x="60" y="82" width="1" height="1" fill="#fff"/><rect x="87" y="82" width="1" height="1" fill="#fff"/><rect x="113" y="82" width="1" height="1" fill="#fff"/><rect x="56" y="83" width="3" height="2" fill="#fff"/><rect x="59" y="83" width="1" height="1" fill="#fff"/><rect y="83" width="3" height="2" fill="#fff" x="83"/><rect x="55" y="84" width="3" height="1" fill="#fff"/><rect height="1" fill="#fff" x="86" y="84" width="1"/><rect x="54" y="85" width="4" height="1" fill="#fff"/><rect x="58" y="85" width="1" height="1" fill="#fff"/><rect height="1" fill="#fff" x="81" y="85" width="4"/><rect y="85" width="1" height="1" fill="#fff" x="85"/><rect height="2" fill="#fff" x="49" y="86" width="7"/><rect y="86" width="1" height="4" fill="#fff" x="56"/><rect height="2" fill="#fff" x="76" y="86" width="7"/><rect y="86" width="1" height="4" fill="#fff" x="83"/><rect width="8" height="1" fill="#fff" x="49" y="88"/><rect x="57" y="88" width="1" height="3" fill="#fff"/><rect x="76" y="88" width="8" height="1" fill="#fff"/><rect x="84" y="88" width="1" height="3" fill="#fff"/><rect height="1" fill="#fff" x="55" y="89" width="4"/><rect height="11" fill="#fff" x="59" y="89" width="1"/><rect height="1" fill="#fff" x="82" y="89" width="4"/><rect fill="#fff" x="86" y="89" width="1" height="11"/><rect width="4" height="1" fill="#fff" x="56" y="90"/><rect x="60" y="90" width="1" height="9" fill="#fff"/><rect x="83" y="90" width="4" height="1" fill="#fff"/><rect fill="#fff" x="87" y="90" width="1" height="9"/><rect x="57" y="91" width="3" height="1" fill="#fff"/><rect fill="#fff" x="84" y="91" width="3" height="1"/><rect x="108" y="91" width="1" height="1" fill="#fff"/><rect height="1" fill="#fff" x="113" y="91" width="1"/><rect fill="#fff" x="119" y="91" width="1" height="11"/><rect x="120" y="91" width="1" height="11" fill="#fff"/><rect x="128" y="91" width="1" height="11" fill="#fff"/><rect x="129" y="91" width="1" height="11" fill="#fff"/><rect x="58" y="92" width="3" height="7" fill="#fff"/><rect height="5" fill="#fff" x="61" y="92" width="1"/><rect height="7" fill="#fff" x="85" y="92" width="3"/><rect y="92" width="1" height="5" fill="#fff" x="88"/><rect x="106" y="92" width="1" height="2" fill="#fff"/><rect fill="#fff" x="107" y="92" width="1" height="1"/><rect width="1" height="1" fill="#fff" x="114" y="92"/><rect height="1" fill="#fff" x="121" y="92" width="1"/><rect x="114" y="93" width="1" height="1" fill="#fff"/><rect fill="#fff" x="105" y="94" width="1" height="5"/><rect fill="#fff" x="106" y="94" width="1" height="1"/><rect x="122" y="94" width="1" height="1" fill="#fff"/><rect height="1" fill="#fff" x="123" y="95" width="1"/><rect x="41" y="96" width="1" height="1" fill="#fff"/><rect x="41" y="97" width="1" height="1" fill="#fff"/><rect fill="#fff" x="61" y="97" width="1" height="1"/><rect x="88" y="97" width="1" height="1" fill="#fff"/><rect width="1" height="1" fill="#fff" x="124" y="97"/><rect fill="#fff" x="57" y="98" width="3" height="2"/><rect width="1" height="1" fill="#fff" x="69" y="98"/><rect width="3" height="2" fill="#fff" x="84" y="98"/><rect y="98" width="1" height="1" fill="#fff" x="125"/><rect y="99" width="2" height="1" fill="#fff" x="42"/><rect x="44" y="99" width="1" height="2" fill="#fff"/><rect width="1" height="1" fill="#fff" x="60" y="99"/><rect fill="#fff" x="69" y="99" width="2" height="1"/><rect x="71" y="99" width="1" height="1" fill="#fff"/><rect x="87" y="99" width="1" height="1" fill="#fff"/><rect height="1" fill="#fff" x="96" y="99" width="1"/><rect y="99" width="1" height="1" fill="#fff" x="97"/><rect height="1" fill="#fff" x="105" y="99" width="1"/><rect x="43" y="100" width="2" height="1" fill="#fff"/><rect x="45" y="100" width="1" height="1" fill="#fff"/><rect fill="#fff" x="56" y="100" width="3" height="1"/><rect x="59" y="100" width="1" height="1" fill="#fff"/><rect x="70" y="100" width="2" height="1" fill="#fff"/><rect width="1" height="1" fill="#fff" x="72" y="100"/><rect y="100" width="3" height="1" fill="#fff" x="83"/><rect x="86" y="100" width="1" height="1" fill="#fff"/><rect x="96" y="100" width="1" height="1" fill="#fff"/><rect fill="#fff" x="97" y="100" width="1" height="1"/><rect x="106" y="100" width="1" height="1" fill="#fff"/><rect height="1" fill="#fff" x="126" y="100" width="3"/><rect fill="#fff" x="44" y="101" width="14" height="1"/><rect fill="#fff" x="58" y="101" width="1" height="1"/><rect width="13" height="1" fill="#fff" x="72" y="101"/><rect x="85" y="101" width="1" height="1" fill="#fff"/><rect fill="#fff" x="106" y="101" width="1" height="1"/><rect x="127" y="101" width="2" height="1" fill="#fff"/><rect x="46" y="102" width="10" height="1" fill="#fff"/><rect height="1" fill="#fff" x="56" y="102" width="1"/><rect y="102" width="10" height="1" fill="#fff" x="73"/><rect x="83" y="102" width="1" height="1" fill="#fff"/><rect x="107" y="102" width="1" height="1" fill="#fff"/><rect height="1" fill="#fff" x="108" y="102" width="1"/><rect x="119" y="102" width="1" height="1" fill="#fff"/><rect width="1" height="1" fill="#fff" x="120" y="102"/><rect height="1" fill="#fff" x="128" y="102" width="1"/><rect fill="#fff" x="129" y="102" width="1" height="1"/><rect height="58" fill="#fff" x="31" y="111" width="138"/><rect y="169" width="169" height="1" fill="#fff"/><rect x="169" y="169" width="1" height="1" fill="#fff"/></g><g fill="#9393ac"><rect x="54" y="72" width="1" height="1"/><rect x="81" y="72" width="1" height="1"/><rect x="84" y="73" width="1" height="1"/><rect x="127" y="73" width="1" height="1"/><rect y="74" width="1" height="1" x="129"/><rect y="75" width="1" height="1" x="53"/><rect width="1" height="1" x="70" y="75"/><rect height="1" x="80" y="75" width="1"/><rect x="105" y="75" width="1" height="1"/><rect x="74" y="76" width="1" height="1"/><rect x="87" y="76" width="1" height="1"/><rect x="113" y="77" width="1" height="1"/><rect x="41" y="79" width="1" height="1"/><rect y="79" width="1" height="1" x="56"/><rect x="102" y="79" width="2" height="1"/><rect width="1" height="1" x="104" y="79"/><rect height="1" x="109" y="79" width="2"/><rect x="111" y="79" width="1" height="1"/><rect width="2" height="1" x="115" y="79"/><rect width="1" height="1" x="117" y="79"/><rect x="41" y="80" width="1" height="1"/><rect x="56" y="80" width="1" height="1"/><rect x="111" y="80" width="1" height="1"/><rect y="80" width="1" height="1" x="116"/><rect width="1" height="1" x="121" y="80"/><rect x="122" y="80" width="1" height="1"/><rect x="127" y="80" width="1" height="1"/><rect x="128" y="80" width="1" height="1"/><rect x="83" y="81" width="1" height="1"/><rect x="109" y="81" width="1" height="1"/><rect x="101" y="82" width="1" height="1"/><rect x="102" y="82" width="1" height="1"/><rect width="1" height="1" x="120" y="82"/><rect x="52" y="85" width="1" height="1"/><rect x="84" y="87" width="1" height="1"/><rect width="1" height="1" x="53" y="89"/><rect x="112" y="90" width="1" height="1"/><rect width="1" height="1" x="110" y="91"/><rect width="1" height="1" x="84" y="93"/><rect x="57" y="94" width="1" height="1"/><rect height="1" x="89" y="94" width="1"/><rect x="41" y="95" width="1" height="1"/><rect x="57" y="95" width="1" height="1"/><rect x="68" y="95" width="1" height="1"/><rect x="89" y="95" width="1" height="1"/><rect x="84" y="96" width="1" height="1"/><rect x="124" y="98" width="1" height="1"/><rect width="1" height="1" x="72" y="99"/><rect y="99" width="1" height="1" x="88"/><rect y="100" width="1" height="1" x="47"/><rect x="54" y="100" width="1" height="1"/><rect y="100" width="1" height="1" x="74"/><rect x="81" y="100" width="1" height="1"/><rect x="126" y="101" width="1" height="1"/><rect width="1" height="1" x="55" y="103"/><rect x="82" y="103" width="1" height="1"/><rect x="108" y="103" width="1" height="1"/></g><g fill="#67668a"><rect x="74" y="72" width="1" height="1"/><rect width="1" height="1" x="122" y="73"/><rect width="1" height="1" x="126" y="73"/><rect x="106" y="74" width="1" height="1"/><rect height="1" x="52" y="75" width="1"/><rect x="79" y="75" width="1" height="1"/><rect width="1" height="1" x="112" y="76"/><rect x="100" y="77" width="3" height="1"/><rect x="103" y="77" width="1" height="1"/><rect x="110" y="78" width="1" height="1"/><rect x="115" y="78" width="1" height="1"/><rect x="116" y="78" width="1" height="1"/><rect x="61" y="79" width="1" height="2"/><rect x="105" y="80" width="1" height="1"/><rect width="1" height="1" x="120" y="80"/><rect x="61" y="81" width="1" height="1"/><rect x="99" y="81" width="1" height="1"/><rect x="127" y="81" width="1" height="1"/><rect height="1" x="106" y="82" width="1"/><rect y="82" width="1" height="1" x="109"/><rect x="123" y="82" width="1" height="1"/><rect x="55" y="83" width="1" height="1"/><rect y="84" width="1" height="1" x="54"/><rect x="81" y="84" width="1" height="1"/><rect y="85" width="1" height="1" x="86"/><rect x="86" y="88" width="1" height="1"/><rect x="60" y="89" width="1" height="1"/><rect x="82" y="90" width="1" height="1"/><rect x="83" y="91" width="1" height="1"/><rect y="91" width="1" height="1" x="106"/><rect width="1" height="1" x="89" y="93"/><rect x="114" y="94" width="1" height="1"/><rect x="115" y="94" width="1" height="1"/><rect x="104" y="95" width="1" height="1"/><rect y="96" width="1" height="1" x="62"/><rect x="69" y="96" width="1" height="1"/><rect x="104" y="98" width="1" height="1"/><rect width="1" height="1" x="126" y="98"/><rect x="41" y="99" width="1" height="1"/><rect x="69" y="100" width="1" height="1"/><rect x="107" y="100" width="1" height="1"/><rect x="43" y="101" width="1" height="1"/><rect x="70" y="101" width="1" height="1"/><rect x="110" y="102" width="1" height="1"/></g><g fill="#ababbe"><rect x="75" y="72" width="1" height="1"/><rect x="71" y="74" width="1" height="1"/><rect y="75" width="1" height="1" x="43"/><rect x="100" y="75" width="4" height="1"/><rect x="104" y="75" width="1" height="2"/><rect width="1" height="1" x="124" y="75"/><rect x="99" y="76" width="1" height="1"/><rect x="46" y="77" width="1" height="1"/><rect y="77" width="1" height="1" x="99"/><rect x="104" y="77" width="1" height="1"/><rect x="83" y="78" width="1" height="1"/><rect height="1" x="98" y="78" width="1"/><rect y="78" width="2" height="1" x="121"/><rect width="1" height="2" x="123" y="78"/><rect width="2" height="1" x="126" y="78"/><rect x="128" y="78" width="1" height="1"/><rect x="101" y="79" width="1" height="1"/><rect x="112" y="79" width="2" height="1"/><rect x="114" y="79" width="1" height="1"/><rect width="1" height="1" x="103" y="80"/><rect x="110" y="80" width="1" height="1"/><rect x="115" y="80" width="1" height="1"/><rect width="1" height="1" x="123" y="80"/><rect x="56" y="81" width="1" height="1"/><rect x="125" y="81" width="1" height="1"/><rect height="1" x="98" y="82" width="1"/><rect x="105" y="82" width="1" height="1"/><rect x="127" y="82" width="1" height="1"/><rect x="111" y="91" width="1" height="1"/><rect y="93" width="1" height="1" x="57"/><rect x="122" y="95" width="1" height="1"/><rect x="57" y="96" width="1" height="1"/><rect x="106" y="96" width="1" height="1"/><rect y="97" width="1" height="1" x="106"/><rect width="1" height="1" x="96" y="98"/><rect x="97" y="98" width="1" height="1"/><rect x="114" y="101" width="1" height="1"/><rect y="102" width="1" height="1" x="109"/></g><g fill="#02003c"><rect x="31" y="58" width="107" height="13"/><rect height="52" x="138" y="58" width="1"/><rect width="107" height="1" x="31" y="71"/><rect x="31" y="72" width="14" height="1"/><rect x="45" y="72" width="1" height="1"/><rect x="56" y="72" width="16" height="1"/><rect x="72" y="72" width="1" height="1"/><rect x="84" y="72" width="54" height="1"/><rect x="31" y="73" width="13" height="1"/><rect x="44" y="73" width="1" height="1"/><rect height="1" x="58" y="73" width="12"/><rect width="1" height="1" x="70" y="73"/><rect width="11" height="1" x="86" y="73"/><rect x="97" y="73" width="1" height="1"/><rect x="107" y="73" width="2" height="1"/><rect x="109" y="73" width="1" height="1"/><rect x="114" y="73" width="7" height="1"/><rect x="121" y="73" width="1" height="1"/><rect width="1" height="1" x="124" y="73"/><rect y="73" width="1" height="1" x="125"/><rect height="1" x="128" y="73" width="10"/><rect x="31" y="74" width="12" height="1"/><rect y="74" width="1" height="1" x="43"/><rect y="74" width="10" height="1" x="60"/><rect x="70" y="74" width="1" height="1"/><rect x="87" y="74" width="9" height="1"/><rect width="1" height="1" x="96" y="74"/><rect x="107" y="74" width="1" height="15"/><rect x="108" y="74" width="1" height="3"/><rect height="1" x="117" y="74" width="2"/><rect y="74" width="1" height="15" x="119"/><rect x="130" y="74" width="8" height="9"/><rect width="11" height="1" x="31" y="75"/><rect y="75" width="1" height="1" x="42"/><rect x="60" y="75" width="9" height="1"/><rect x="69" y="75" width="1" height="1"/><rect height="1" x="88" y="75" width="7"/><rect x="95" y="75" width="1" height="22"/><rect x="106" y="75" width="1" height="6"/><rect x="110" y="75" width="1" height="1"/><rect x="117" y="75" width="1" height="1"/><rect x="118" y="75" width="2" height="1"/><rect height="1" x="120" y="75" width="1"/><rect y="75" width="9" height="1" x="129"/><rect x="31" y="76" width="10" height="2"/><rect x="41" y="76" width="1" height="1"/><rect x="48" y="76" width="5" height="8"/><rect width="1" height="8" x="53" y="76"/><rect y="76" width="7" height="1" x="61"/><rect x="68" y="76" width="1" height="1"/><rect height="8" x="75" y="76" width="5"/><rect x="80" y="76" width="1" height="7"/><rect width="7" height="1" x="88" y="76"/><rect x="97" y="76" width="1" height="3"/><rect x="109" y="76" width="1" height="1"/><rect x="113" y="76" width="1" height="1"/><rect x="120" y="76" width="1" height="1"/><rect x="47" y="77" width="7" height="7"/><rect y="77" width="1" height="3" x="54"/><rect height="1" x="61" y="77" width="7"/><rect x="68" y="77" width="1" height="1"/><rect y="77" width="6" height="7" x="74"/><rect height="13" x="89" y="77" width="8"/><rect width="1" height="1" x="108" y="77"/><rect x="31" y="78" width="9" height="20"/><rect x="40" y="78" width="1" height="1"/><rect x="55" y="78" width="1" height="2"/><rect x="62" y="78" width="5" height="13"/><rect x="67" y="78" width="1" height="1"/><rect x="81" y="78" width="1" height="2"/><rect x="82" y="78" width="1" height="2"/><rect width="9" height="1" x="46" y="79"/><rect height="1" x="97" y="79" width="1"/><rect height="3" x="46" y="80" width="9"/><rect x="55" y="80" width="1" height="2"/><rect x="73" y="80" width="9" height="3"/><rect x="82" y="80" width="1" height="2"/><rect x="109" y="80" width="1" height="1"/><rect x="117" y="80" width="2" height="1"/><rect x="40" y="81" width="1" height="17"/><rect x="41" y="81" width="1" height="13"/><rect x="67" y="81" width="1" height="15"/><rect width="1" height="13" x="68" y="81"/><rect y="81" width="9" height="3" x="71"/><rect x="98" y="81" width="1" height="1"/><rect x="105" y="81" width="2" height="1"/><rect x="118" y="81" width="3" height="1"/><rect y="81" width="1" height="8" x="121"/><rect height="1" x="128" y="81" width="10"/><rect x="42" y="82" width="1" height="13"/><rect x="55" y="82" width="1" height="1"/><rect x="69" y="82" width="13" height="1"/><rect x="82" y="82" width="1" height="1"/><rect x="124" y="82" width="1" height="12"/><rect width="1" height="13" x="125" y="82"/><rect height="1" x="43" y="83" width="11"/><rect x="54" y="83" width="1" height="1"/><rect x="61" y="83" width="20" height="1"/><rect width="1" height="1" x="81" y="83"/><rect x="88" y="83" width="8" height="6"/><rect x="99" y="83" width="1" height="27"/><rect x="103" y="83" width="1" height="11"/><rect x="104" y="83" width="1" height="7"/><rect x="108" y="83" width="2" height="6"/><rect x="110" y="83" width="1" height="6"/><rect width="1" height="7" x="114" y="83"/><rect x="122" y="83" width="2" height="8"/><rect x="126" y="83" width="2" height="7"/><rect y="83" width="10" height="6" x="128"/><rect x="43" y="84" width="10" height="1"/><rect x="53" y="84" width="1" height="1"/><rect y="84" width="18" height="1" x="61"/><rect height="1" x="79" y="84" width="1"/><rect x="97" y="84" width="18" height="5"/><rect x="115" y="84" width="1" height="7"/><rect height="5" x="120" y="84" width="8"/><rect x="43" y="85" width="4" height="11"/><rect x="47" y="85" width="1" height="14"/><rect x="60" y="85" width="13" height="3"/><rect y="85" width="1" height="13" x="73"/><rect x="87" y="85" width="51" height="3"/><rect y="86" width="15" height="1" x="59"/><rect x="74" y="86" width="1" height="13"/><rect height="1" x="86" y="86" width="52"/><rect x="59" y="87" width="15" height="1"/><rect width="52" height="1" x="86" y="87"/><rect x="60" y="88" width="14" height="1"/><rect x="87" y="88" width="51" height="1"/><rect y="89" width="13" height="1" x="61"/><rect x="88" y="89" width="50" height="1"/><rect x="48" y="90" width="6" height="9"/><rect width="1" height="9" x="54" y="90"/><rect y="90" width="12" height="5" x="69"/><rect x="81" y="90" width="1" height="9"/><rect width="17" height="1" x="89" y="90"/><rect y="90" width="1" height="1" x="106"/><rect x="114" y="90" width="3" height="1"/><rect x="117" y="90" width="1" height="4"/><rect x="126" y="90" width="1" height="2"/><rect x="127" y="90" width="1" height="1"/><rect height="20" x="130" y="90" width="8"/><rect x="55" y="91" width="1" height="7"/><rect x="62" y="91" width="20" height="1"/><rect width="1" height="7" x="82" y="91"/><rect y="91" width="13" height="6" x="90"/><rect x="115" y="91" width="1" height="1"/><rect x="116" y="91" width="1" height="1"/><rect y="91" width="4" height="1" x="122"/><rect x="56" y="92" width="1" height="5"/><rect x="63" y="92" width="20" height="2"/><rect height="4" x="83" y="92" width="1"/><rect x="104" y="92" width="1" height="1"/><rect x="109" y="92" width="1" height="9"/><rect x="116" y="92" width="1" height="4"/><rect y="92" width="3" height="1" x="123"/><rect x="126" y="92" width="1" height="2"/><rect x="104" y="93" width="1" height="1"/><rect x="108" y="93" width="3" height="7"/><rect y="93" width="1" height="8" x="111"/><rect x="41" y="94" width="15" height="1"/><rect x="63" y="94" width="20" height="1"/><rect y="94" width="1" height="16" x="103"/><rect height="6" x="112" y="94" width="1"/><rect y="94" width="1" height="1" x="117"/><rect height="1" x="124" y="94" width="2"/><rect x="126" y="94" width="1" height="3"/><rect x="42" y="95" width="14" height="1"/><rect x="63" y="95" width="4" height="3"/><rect x="69" y="95" width="14" height="1"/><rect x="107" y="95" width="5" height="4"/><rect x="115" y="95" width="1" height="3"/><rect x="121" y="95" width="1" height="15"/><rect x="125" y="95" width="1" height="1"/><rect x="43" y="96" width="13" height="1"/><rect height="2" x="67" y="96" width="1"/><rect width="13" height="1" x="70" y="96"/><rect width="1" height="1" x="83" y="96"/><rect width="3" height="2" x="113" y="96"/><rect x="116" y="96" width="1" height="2"/><rect width="12" height="1" x="44" y="97"/><rect x="56" y="97" width="1" height="1"/><rect x="71" y="97" width="11" height="1"/><rect height="1" x="90" y="97" width="13"/><rect x="122" y="97" width="1" height="13"/><rect height="1" x="126" y="97" width="1"/><rect x="31" y="98" width="9" height="12"/><rect x="40" y="98" width="1" height="1"/><rect y="98" width="10" height="1" x="45"/><rect x="55" y="98" width="1" height="1"/><rect x="62" y="98" width="5" height="12"/><rect width="1" height="1" x="67" y="98"/><rect x="72" y="98" width="10" height="1"/><rect height="1" x="82" y="98" width="1"/><rect y="98" width="4" height="12" x="90"/><rect width="1" height="2" x="94" y="98"/><rect x="100" y="98" width="3" height="12"/><rect x="113" y="98" width="3" height="1"/><rect height="1" x="116" y="98" width="1"/><rect height="12" x="123" y="98" width="1"/><rect x="46" y="99" width="8" height="1"/><rect y="99" width="1" height="1" x="54"/><rect x="74" y="99" width="7" height="1"/><rect width="1" height="1" x="81" y="99"/><rect height="11" x="89" y="99" width="4"/><rect x="107" y="99" width="7" height="1"/><rect x="114" y="99" width="1" height="1"/><rect x="61" y="100" width="5" height="10"/><rect x="94" y="100" width="1" height="10"/><rect width="6" height="1" x="108" y="100"/><rect x="114" y="100" width="1" height="1"/><rect x="40" y="101" width="2" height="9"/><rect x="42" y="101" width="1" height="9"/><rect x="67" y="101" width="1" height="9"/><rect height="9" x="88" y="101" width="5"/><rect height="9" x="98" y="101" width="5"/><rect x="109" y="101" width="2" height="1"/><rect x="111" y="101" width="1" height="1"/><rect x="116" y="101" width="1" height="9"/><rect height="9" x="124" y="101" width="1"/><rect x="125" y="101" width="1" height="9"/><rect y="102" width="1" height="8" x="43"/><rect height="8" x="59" y="102" width="9"/><rect x="68" y="102" width="1" height="8"/><rect width="1" height="8" x="86" y="102"/><rect x="87" y="102" width="7" height="8"/><rect x="104" y="102" width="1" height="8"/><rect height="8" x="105" y="102" width="1"/><rect width="1" height="8" x="117" y="102"/><rect y="102" width="1" height="8" x="126"/><rect x="44" y="103" width="1" height="7"/><rect y="103" width="1" height="7" x="45"/><rect x="57" y="103" width="11" height="7"/><rect height="7" x="84" y="103" width="20"/><rect height="7" x="106" y="103" width="1"/><rect y="103" width="2" height="7" x="115"/><rect width="3" height="6" x="46" y="104"/><rect x="49" y="104" width="4" height="6"/><rect x="53" y="104" width="1" height="6"/><rect x="69" y="104" width="1" height="6"/><rect x="81" y="104" width="31" height="6"/><rect x="112" y="104" width="1" height="6"/><rect x="118" y="104" width="20" height="6"/><rect x="56" y="105" width="15" height="5"/><rect y="105" width="1" height="5" x="71"/><rect height="5" x="75" y="105" width="38"/><rect x="113" y="105" width="25" height="5"/><rect x="54" y="106" width="84" height="4"/><rect x="31" y="110" width="107" height="1"/><rect x="138" y="110" width="1" height="1"/></g><g fill="#4e4d76"><rect x="55" y="72" width="1" height="1"/><rect x="82" y="72" width="1" height="1"/><rect width="1" height="1" x="100" y="73"/><rect y="73" width="1" height="1" x="111"/><rect x="50" y="75" width="1" height="1"/><rect x="51" y="75" width="1" height="1"/><rect y="75" width="1" height="1" x="77"/><rect x="78" y="75" width="1" height="1"/><rect x="114" y="75" width="1" height="1"/><rect x="42" y="76" width="1" height="1"/><rect height="1" x="69" y="76" width="1"/><rect x="100" y="76" width="3" height="1"/><rect height="1" x="103" y="76" width="1"/><rect y="76" width="1" height="1" x="110"/><rect y="76" width="1" height="1" x="114"/><rect x="118" y="76" width="1" height="1"/><rect width="1" height="1" x="111" y="77"/><rect x="41" y="78" width="1" height="1"/><rect x="61" y="78" width="1" height="1"/><rect height="1" x="73" y="78" width="1"/><rect x="88" y="78" width="1" height="1"/><rect y="78" width="1" height="1" x="111"/><rect x="117" y="78" width="1" height="1"/><rect x="121" y="79" width="2" height="1"/><rect x="126" y="79" width="2" height="1"/><rect x="128" y="79" width="1" height="1"/><rect x="122" y="81" width="1" height="1"/><rect x="88" y="82" width="1" height="1"/><rect height="1" x="126" y="82" width="1"/><rect x="82" y="83" width="1" height="1"/><rect y="84" width="1" height="1" x="87"/><rect y="85" width="1" height="1" x="50"/><rect x="51" y="85" width="1" height="1"/><rect x="59" y="85" width="1" height="1"/><rect x="77" y="85" width="1" height="1"/><rect y="85" width="1" height="1" x="78"/><rect x="85" y="86" width="1" height="1"/><rect x="59" y="88" width="1" height="1"/><rect x="52" y="89" width="1" height="1"/><rect x="79" y="89" width="1" height="1"/><rect width="1" height="1" x="88" y="90"/><rect x="108" y="92" width="1" height="1"/><rect x="115" y="92" width="1" height="1"/><rect x="62" y="93" width="1" height="1"/><rect x="113" y="93" width="1" height="1"/><rect height="1" x="121" y="94" width="1"/><rect x="42" y="96" width="1" height="1"/><rect x="89" y="97" width="1" height="1"/><rect width="1" height="1" x="123" y="97"/><rect x="56" y="98" width="1" height="1"/><rect x="71" y="98" width="1" height="1"/><rect x="68" y="99" width="1" height="1"/><rect x="48" y="100" width="1" height="1"/><rect x="53" y="100" width="1" height="1"/><rect x="75" y="100" width="1" height="1"/><rect x="80" y="100" width="1" height="1"/><rect width="1" height="1" x="95" y="100"/><rect x="98" y="100" width="1" height="1"/><rect x="105" y="101" width="1" height="1"/><rect x="108" y="101" width="1" height="1"/><rect x="111" y="102" width="1" height="1"/><rect y="103" width="1" height="1" x="56"/><rect x="83" y="103" width="1" height="1"/></g></svg>