<?xml version="1.0" encoding="utf-8"?>
<svg xmlns="http://www.w3.org/2000/svg" version="1.1" viewBox="0 0 1900 900">
  <defs>
    <style>
      .cls-1 {
        fill: #a8d04b;
      }

      .cls-1, .cls-2, .cls-3, .cls-4, .cls-5 {
        stroke: #fff;
      }

      .cls-1, .cls-2, .cls-3, .cls-4, .cls-5, .cls-6 {
        stroke-miterlimit: 10;
      }

      .cls-1, .cls-3, .cls-4, .cls-5 {
        stroke-width: 6px;
      }

      .cls-7, .cls-8 {
        fill: #290b31;
      }

      .cls-2 {
        stroke-width: 4px;
      }

      .cls-2, .cls-9 {
        fill: #462de0;
      }

      .cls-8, .cls-10 {
        fill-rule: evenodd;
      }

      .cls-10 {
        fill: #ffea00;
      }

      .cls-3 {
        fill: #80c88d;
      }

      .cls-4 {
        fill: #f99f44;
      }

      .cls-11 {
        fill: #fff;
      }

      .cls-5 {
        fill: #20a1a1;
      }

      .cls-12 {
        fill: #b81a56;
      }

      .cls-6 {
        stroke: #1d1d1b;
      }

      .cls-13 {
        display: none;
      }
    </style>
  </defs>
  <g>
    <path class="cls-12" d="M76.2,679.1c-19.5,0-35.3-15.9-35.3-35.3V248.5c0-18.7,15.2-34,34-34h406.5c0-.1,4.8-.1,4.8-.1,18.7,0,34,15.2,34,34v396.6c0,18.7-15.2,34-34,34h-210.6c-18.7,0-34-15.2-34-34l-.5-257.4c0-19.5,15.9-35.3,35.3-35.3s35.3,15.7,35.3,35.1l.5,195.5c0,13.8,11.2,25,25,25h88.4c13.8,0,25-11.3,25-25.3l-2.7-272.9c-.2-13.6-11.4-24.8-25-24.8H136.5c-13.8,0-25,11.2-25,25v333.9c0,19.5-15.9,35.3-35.3,35.3Z"/>
    <path class="cls-11" d="M486,218.9c16.3,0,29.5,13.2,29.5,29.5v396.6c0,16.3-13.2,29.5-29.5,29.5h-210.6c-16.3,0-29.5-13.2-29.5-29.5l-.5-257.4c0-17.1,14-30.8,30.8-30.8s30.8,13.7,30.8,30.6l.5,195.5c0,16.3,13.2,29.5,29.5,29.5h88.4c16.3,0,29.5-13.4,29.5-29.8l-2.7-272.9c-.3-16-13.4-29.2-29.5-29.2H136.5c-16.3,0-29.5,13.2-29.5,29.5v333.9c0,17.1-14,30.8-30.8,30.8s-30.8-14-30.8-30.8V248.5c0-16.3,13.2-29.5,29.5-29.5h411c0-.1.3-.1.3-.1M486,209.9h-9.3c0,.1-402,.1-402,.1-21.2,0-38.5,17.3-38.5,38.5v395.2c0,22,17.9,39.8,39.8,39.8s39.8-17.9,39.8-39.8v-333.9c0-11.3,9.2-20.5,20.5-20.5h286.4c11.1,0,20.3,9.1,20.5,20.3l2.7,272.9c0,11.4-9.2,20.7-20.5,20.7h-88.4c-11.3,0-20.5-9.2-20.5-20.5l-.5-195.5c0-21.8-17.9-39.5-39.8-39.5s-39.8,17.9-39.8,39.8l.5,257.5c0,21.2,17.3,38.5,38.5,38.5h210.6c21.2,0,38.5-17.3,38.5-38.5V248.4c0-21.2-17.3-38.5-38.5-38.5h0Z"/>
  </g>
  <g>
    <path class="cls-11" d="M909.5,584.1h-41.6v-125.1h-130.7v125.1h-41.6v-273.7h41.6v113.6h130.7v-113.6h41.6v273.7Z" style="stroke: rgb(0, 0, 0); fill: rgb(0, 0, 0);"/>
    <path class="cls-11" d="M995,298.8c6.1,0,11.5,1.9,16,5.3,4.6,3.5,6.9,9.6,6.9,17.9s-2.4,14.3-6.9,17.9c-4.6,3.8-9.9,5.6-16,5.6s-11.8-1.9-16.6-5.6-6.9-9.6-6.9-17.9,2.4-14.4,6.9-17.9,10.2-5.3,16.6-5.3ZM1015.1,377.6v206.8h-40.8v-206.8h40.8Z" style="stroke: rgb(0, 0, 0); fill: rgb(0, 0, 0);"/>
    <path class="cls-11" d="M1156.2,373.5c27,0,48.5,8.3,64,25.1,15.5,16.8,23.4,39.7,23.4,68.6v22.3h-138.7c.5,21.2,6.1,37.5,16.6,48.8,10.5,11.3,25.4,16.8,44.7,16.8s25.1-1.1,35.3-3.8c10.5-2.4,20.9-6.1,32.2-11v33.7c-10.5,4.8-20.9,8.3-31.4,10.5-10.5,2.2-23.1,3.3-37.5,3.3s-37.5-4.1-53-11.8c-15.2-8-27.3-19.8-35.9-35.3-8.6-15.5-12.9-35.1-12.9-58.4s4.1-42.8,11.8-59c7.7-16,18.7-28.4,32.7-37,14-8.6,30.3-12.9,49-12.9h-.4ZM1156.2,405.2c-14.4,0-26.2,4.8-35.1,14.3-8.8,9.4-14,22.8-15.5,40.2h97.5c0-16-4.1-29.2-11.8-39.4-7.5-10.2-19.3-15.2-35.1-15.2v.3h-.1Z" style="stroke: rgb(0, 0, 0); fill: rgb(0, 0, 0);"/>
    <path class="cls-11" d="M1392.6,373.5c8.3,0,15.8.5,22.6,1.9l-4.3,38c-6.7-1.9-13.7-2.7-20.6-2.7-10.5,0-20.1,2.7-29.2,7.7-9.1,5-16,12.4-21.7,22-5.6,9.6-8.3,21.2-8.3,34.8v109.1h-40.8v-206.8h32.2l5.3,36.7h1.6c6.4-11,14.9-20.6,25.7-28.7,10.7-8,23.1-12.1,37.2-12.1h.4Z" style="stroke: rgb(0, 0, 0); fill: rgb(0, 0, 0);"/>
    <path class="cls-11" d="M1624,480.7c0,34.2-8.8,60.9-26.5,79.3-17.7,18.7-41.6,28.1-71.3,28.1s-35.3-4.1-49.6-12.6c-14.4-8.3-25.7-20.4-34-36.4-8.3-16-12.6-35.3-12.6-58.4,0-34.2,8.6-60.6,25.9-79.3,17.4-18.5,41.3-27.9,71.3-27.9s35.6,4.1,50.1,12.6c14.4,8.3,25.7,20.4,34,36.1,8.3,15.8,12.6,35.3,12.6,58.4h0ZM1471.8,480.7c0,23.4,4.3,41.6,13.2,54.3,8.8,13.2,22.8,19.6,42.1,19.6s33.3-6.4,42.1-19.6c8.8-13.2,13.2-31.4,13.2-54.3s-4.3-41.6-13.2-54.3c-8.8-12.8-23.1-19-42.4-19s-33.3,6.4-41.8,19c-8.6,12.6-13.2,30.8-13.2,54.3Z" style="stroke: rgb(0, 0, 0); fill: rgb(0, 0, 0);"/>
  </g>
</svg>