<?xml version="1.0" encoding="utf-8"?>
<!-- Generator: Adobe Illustrator 23.0.2, SVG Export Plug-In . SVG Version: 6.00 Build 0)  -->
<svg version="1.1" id="Layer_1" xmlns="http://www.w3.org/2000/svg" xmlns:xlink="http://www.w3.org/1999/xlink" x="0px" y="0px"
	 viewBox="0 0 400 245" style="enable-background:new 0 0 400 245;" xml:space="preserve">
<style type="text/css">
	.st0{fill:#4EC8F4;}
	.st1{fill:#00B5F0;}
	.st2{fill:#E84F7D;}
	.st3{fill:#D32C52;}
	.st4{fill:#00BEF2;}
	.st5{fill:#E43F69;}
	.st6{fill:#80C144;}
	.st7{fill:#90C74D;}
	.st8{fill:#B9D87C;}
	.st9{fill:#F7EE6E;}
	.st10{fill:#FDBE30;}
	.st11{fill:#FFCC41;}
	.st12{fill:#2B2E31;}
	.st13{fill:#424143;}
	.st14{fill:url(#SVGID_1_);}
	.st15{fill:url(#SVGID_2_);}
	.st16{fill:url(#SVGID_3_);}
	.st17{fill-rule:evenodd;clip-rule:evenodd;fill:#1576B5;}
	.st18{fill-rule:evenodd;clip-rule:evenodd;fill:#58C5EF;}
	.st19{fill:#666F75;}
	.st20{fill:#1576B5;}
	.st21{fill:#231F20;}
</style>
<g>
	<linearGradient id="SVGID_1_" gradientUnits="userSpaceOnUse" x1="200" y1="98.5642" x2="200" y2="158.2842">
		<stop  offset="0" style="stop-color:#003B8B"/>
		<stop  offset="0.35" style="stop-color:#0091DA"/>
		<stop  offset="1" style="stop-color:#008BD5"/>
	</linearGradient>
	<path class="st14" d="M326.54,97.52h13.36l15.2,40.54l10.14-40.54h13.05l-14.73,58.82h-12.75l-15.36-40.54
		c-3.38,13.21-6.91,27.18-10.14,40.54h-13.36l1.07-3.99c-3.38,1.69-6.29,3.22-9.67,3.99c-9.68,2.15-19.51-0.92-22.26-9.06v-11.36
		l9.37-38.39h13.05l-9.98,40.39c-2.15,10.75,20.42,8.44,22.88,0.46C320.09,123.48,323.01,112.42,326.54,97.52L326.54,97.52z
		 M281.09,105.97l0.77-0.92c-0.31-0.15-0.62-0.31-0.77-0.61V105.97z M281.09,147.28c-1.08-3.07-1.23-6.6-0.16-10.9l0.16-0.46V147.28
		L281.09,147.28z M281.09,104.43c-3.84-2.46-8.6-5.38-13.21-6.6c-27.95-7.53-41.62,17.51-26.11,30.1
		c4.45,3.84,11.52,5.83,16.89,7.98c4.91,2,5.84,8.14-0.31,9.67c-8.6,2.15-20.73-5.84-24.57-11.21l-8.76,9.37v5.07
		c6.3,4.61,13.98,7.37,22.73,8.14c16.43,1.23,28.72-6.14,28.41-18.27c-0.46-16.43-19.04-14.74-26.72-23.49
		c-2.31-2.77-0.46-7.99,6.14-8.14c6.3,0,11.98,4.15,15.66,8.91l9.83-9.98V104.43L281.09,104.43z M225.03,133.76v-25.65
		c2.77,4.61,3.38,10.44,2.15,17.82C226.73,128.85,225.96,131.31,225.03,133.76z M225.03,108.12v25.65
		c-4.3,11.21-13.36,17.97-24.1,21.04v-11.67c6.6-3.53,11.06-9.67,12.9-17.2c2.15-9.21-1.69-18.12-12.9-19.04V96.6
		c7.99,0.46,15.82,2.76,21.19,7.83C223.19,105.51,224.27,106.89,225.03,108.12L225.03,108.12z M225.03,143.75l-2.76,2.92
		c0.92,0.77,1.85,1.54,2.76,2.15V143.75z M200.93,96.6v10.29c-0.62-0.15-1.23-0.15-1.85-0.15h-1.84l-9.68,39.62
		c1.85,0,3.84-0.15,5.53-0.46c2.92-0.62,5.53-1.54,7.83-2.76v11.67c-7.83,2.3-16.74,2.77-25.34,1.84v-15.2
		c3.69-14.75,7.37-29.33,10.9-44.08C190.95,96.6,195.86,96.29,200.93,96.6L200.93,96.6z M175.59,111.96l3.69-14.59h-3.69V111.96z
		 M175.59,97.37v14.59l-10.9,44.23h-13.36l-15.36-40.7c-3.23,13.36-6.91,27.18-10.14,40.7h-12.74l0.92-3.84
		c-2.92,1.69-6.3,3.22-9.68,3.99c-8.76,2-17.51-0.31-21.19-6.76v-18.12l8.3-34.25h13.2l-10.14,40.7
		c-2.15,10.75,20.58,8.44,23.03,0.46c3.69-14.9,6.45-26.11,10.14-41h12.75l15.51,40.85l9.99-40.85H175.59L175.59,97.37z
		 M175.59,141.45c-1.23,4.91-2.3,9.83-3.53,14.74c1.23,0.15,2.3,0.31,3.53,0.46V141.45L175.59,141.45z M83.14,104.9
		c0.62-2.46,1.23-5.07,2-7.68h-2V104.9z M83.14,97.22v7.68c-4.3,17.04-8.45,33.94-12.75,51.14H57.34l6.45-26.11H40.91l-6.45,26.11
		H21.71L36.3,97.22h12.74l-5.83,23.5h22.88c1.69-6.76,4.14-16.74,5.83-23.5H83.14L83.14,97.22z M83.14,131.46l-1.23,4.91
		c-1.38,5.53-0.77,9.83,1.23,13.21V131.46z"/>
	<linearGradient id="SVGID_2_" gradientUnits="userSpaceOnUse" x1="256.5163" y1="241.4679" x2="256.5163" y2="2.0284">
		<stop  offset="0" style="stop-color:#F29600"/>
		<stop  offset="0.5" style="stop-color:#E50013"/>
		<stop  offset="1" style="stop-color:#F29600"/>
	</linearGradient>
	<path class="st15" d="M292.61,4.15c29.63,7.06,46.99,40.08,47.45,82.01v3.22c0,0.46,0,0.92,0,1.38h-13.21
		c0.31-39.62-16.28-71.1-44.38-77.86c-23.65-5.53-50.22,7.53-71.41,32.1C234.87,14.44,265.58-2.3,292.61,4.15L292.61,4.15z
		 M323.47,162.94c-23.65,52.83-67.11,86.77-103.66,77.86c-26.57-6.3-43.31-33.48-46.84-68.95c4.76,29.18,19.97,50.99,42.85,56.36
		c32.86,7.83,71.1-20.43,93.21-65.27H323.47z"/>
	<linearGradient id="SVGID_3_" gradientUnits="userSpaceOnUse" x1="196.853" y1="122.0235" x2="196.853" y2="157.0133">
		<stop  offset="0" style="stop-color:#0E3387"/>
		<stop  offset="1" style="stop-color:#008BD5"/>
	</linearGradient>
	<path class="st16" d="M350.19,125.01l4.91,13.06l3.53-14.13c4.45-0.61,8.91-1.23,13.36-1.84l-8.44,34.24h-12.75l-11.52-30.25
		C342.97,125.78,346.51,125.32,350.19,125.01L350.19,125.01z M224.73,148.66v-4.6l9.06-9.68c3.84,5.37,15.97,13.36,24.57,11.21
		c6.14-1.53,5.22-7.68,0.31-9.67c-5.37-2.15-12.44-4.15-16.89-7.98c-0.46-0.31-0.93-0.77-1.38-1.08
		c10.59,0.61,21.03,1.08,31.48,1.38c2.46,2.46,4.14,5.68,4.3,10.44c0.31,12.13-11.97,19.5-28.41,18.27
		C238.85,156.19,231.02,153.27,224.73,148.66L224.73,148.66z M224.73,134.53c1.08-2.61,2-5.53,2.46-8.6l0,0
		c-0.77-0.15-1.53-0.15-2.46-0.31V134.53L224.73,134.53z M332.68,126.7c-2.46,9.83-4.91,19.81-7.37,29.64h-13.36l1.07-3.99
		c-3.38,1.69-6.29,3.22-9.67,3.99c-13.2,3.07-26.41-3.68-22.42-19.96l1.99-7.99c4.3,0,8.6,0,12.9,0l-2.3,9.52
		c-2.15,10.75,20.42,8.44,22.88,0.46c0.92-3.84,1.85-7.37,2.77-10.75C323.63,127.31,328.08,127.01,332.68,126.7z M224.73,125.63
		v8.91c-8.13,19.81-31.02,25.03-52.06,21.66v-2.61c2.61-10.6,5.22-21.19,7.83-31.79c4.14,0.31,8.44,0.77,12.74,1.07l-5.68,23.5
		c1.85,0,3.84-0.15,5.53-0.46c10.75-2,18.27-9.67,20.73-19.96c0-0.31,0.16-0.77,0.16-1.07C217.67,125.16,221.2,125.47,224.73,125.63
		L224.73,125.63z M224.73,144.06l-2.46,2.61c0.77,0.61,1.69,1.38,2.46,2V144.06L224.73,144.06z M172.67,123.78l0.62-2.61
		c-0.16,0-0.46,0-0.62,0V123.78z M172.67,121.17v2.61l-7.98,32.4h-13.36l-13.82-36.71c3.84,0.15,7.52,0.15,11.52,0.31l6.91,18.43
		l4.3-17.81C164.38,120.56,168.52,120.87,172.67,121.17L172.67,121.17z M172.67,153.58c-0.15,0.77-0.46,1.69-0.62,2.61
		c0.16,0,0.46,0,0.62,0V153.58L172.67,153.58z M134.89,119.48c-2.92,12.13-6.14,24.57-9.06,36.71h-12.74l0.92-3.84
		c-2.92,1.69-6.3,3.22-9.68,3.99c-13.21,2.92-26.41-3.68-22.42-19.96l3.84-15.51c4.3-0.46,8.75-0.62,13.2-0.92l-4.45,17.97
		c-2.15,10.75,20.58,8.44,23.03,0.46c1.69-6.91,3.23-12.9,4.61-19.05C126.45,119.33,130.59,119.33,134.89,119.48L134.89,119.48z
		 M78.99,121.33c-16.74,1.38-33.33,3.68-50.52,6.91l-6.76,27.8h12.75l6.45-26.11h22.88l-6.45,26.11h13.05
		C73.31,144.36,76.23,132.84,78.99,121.33z"/>
</g>
</svg>
