<svg xmlns="http://www.w3.org/2000/svg" role="img" viewBox="-4.15 1.60 345.54 91.29"><title>Hyperledger Firefly logo</title><style>svg {enable-background:new 0 0 336.9295654 93.0705872}</style><style>.st3{fill:#462de0}</style><path fill="#24272a" d="M124.387 9.024L128.851 9l.042 7.55 8.674-.045-.041-7.551 4.465-.023.106 20.251-4.464.021-.046-8.751-8.674.046.046 8.752-4.466.024zm28.482 11.597l-7.677-11.572 5.553-.03 4.334 7.558 4.511-7.604 5.296-.026-7.552 11.652.044 8.637-4.464.024zm15.14147-11.62449l7.52939-.03877c1.04856-.0062 2.04289.08298 2.97746.27068.93536.18533 1.7536.50954 2.45473.9718.69726.46614 1.25412 1.09123 1.66829 1.87922.4157.7888.62512 1.7854.63287 2.98603.00543 1.18355-.18071 2.1747-.55689 2.97979-.37846.80119-.89967 1.44181-1.56434 1.92424-.66777.48005-1.45577.82131-2.37094 1.02529-.91675.2063-1.90718.31181-2.97594.31802l-3.26366.01628.04111 7.8947-4.46428.02248-.1078-20.24976zm4.51237 8.557l2.9759-.01548c.40254-.0008.78645-.0419 1.16027-.12024.37073-.07598.70268-.20938.99973-.39167.29474-.18382.53051-.432.71045-.74766.17993-.3149.2668-.71045.26524-1.18743-.00386-.51342-.1241-.92914-.36296-1.24247-.242-.3141-.54756-.55533-.92139-.72593-.36998-.16677-.78802-.27612-1.2464-.3211-.45836-.04421-.89811-.0667-1.31768-.06281l-2.28956.01084.0264 4.80395zM186.368 9.015l13.768-.072.022 4.119-9.304.049.021 3.774 8.788-.046.021 4.119-8.788.047.021 4.119 9.819-.05.021 4.117-14.283.074zm17.48419-.01659l7.84273-.04265c1.02919-.00545 2.00953.08918 2.93327.2854.9268.1947 1.73808.52507 2.43999.98733.69723.46381 1.25412 1.09123 1.6675 1.87927.41572.7903.6259 1.77607.63288 2.95573.00699 1.43093-.3599 2.64785-1.09903 3.65534-.736 1.00594-1.82106 1.64344-3.25355 1.918l5.19874 8.52604-5.35309.02788-4.27658-8.07306-2.20654.01164.04265 8.0948-4.46582.02404-.10315-20.24976zm4.5085 8.35458l2.63388-.01316c.39941-.00156.826-.0186 1.27351-.04966.44829-.03176.85312-.11711 1.21456-.26367.3622-.14428.6608-.37075.8989-.67707.235-.30637.35212-.7345.35058-1.2875-.0039-.51575-.1117-.92603-.32267-1.22852-.21017-.30405-.47853-.5359-.8035-.69724-.32496-.16213-.70034-.2676-1.11916-.32341-.41959-.0551-.8291-.08147-1.2301-.07759l-2.92005.01473.02405 4.6031zM223.202 8.977l4.463-.023.086 16.132 8.273-.044.023 4.119-12.74.065zm15.94.024l13.768-.072.021 4.119-9.302.05.021 3.774 8.787-.044.022 4.117-8.79.046.023 4.119 9.819-.049.021 4.117-14.284.073zm17.48474-.0053l6.69794-.0349c1.62097-.00932 3.16519.16441 4.62637.51732 1.46045.35442 2.73938.93691 3.83063 1.74038 1.092.80507 1.96066 1.85134 2.60827 3.14655.6453 1.29526.97416 2.86504.9819 4.71481.00852 1.64036-.29318 3.08757-.90743 4.33782-.61274 1.25256-1.44257 2.30659-2.48651 3.1582-1.04627.85544-2.25388 1.50463-3.62513 1.9498-1.37353.44753-2.81302.674-4.31921.68096l-7.29901.03881-.10782-20.24975zm4.55115 16.10887l2.31897-.01316c1.0292-.00545 1.98938-.1148 2.87353-.32806.8873-.21718 1.65357-.56777 2.29886-1.0579.64606-.48787 1.15405-1.13006 1.52167-1.92425.36764-.79186.54913-1.76059.5437-2.90531-.00543-.99121-.197-1.85367-.57315-2.5866-.3746-.73293-.87952-1.33403-1.51163-1.80869-.63132-.47385-1.37588-.82751-2.2228-1.05942-.85004-.2358-1.7443-.34902-2.67966-.34514l-2.6331.01472.0636 12.0138zm36.77142 2.64808c-1.31308.69416-2.68506 1.19831-4.1137 1.51008-1.43018.31413-2.88828.4731-4.37663.48086-1.58453.007-3.04647-.23191-4.38436-.71973-1.3379-.49018-2.4951-1.19287-3.47309-2.1135-.98034-.91906-1.7443-2.0351-2.29574-3.3474-.55066-1.31539-.8291-2.78125-.83841-4.403-.00931-1.62095.25595-3.08914.79187-4.40845.53903-1.31694 1.2898-2.4415 2.26007-3.37302.96716-.9299 2.11734-1.64575 3.45367-2.14677 1.32935-.50491 2.78824-.76087 4.37274-.76787 1.62177-.00928 3.1171.17761 4.48288.56152 1.36505.38472 2.56797 1.05015 3.6026 1.9987l-3.12945 3.44905c-.61429-.62671-1.30457-1.10056-2.06928-1.4209-.76397-.31953-1.71948-.47698-2.86425-.47002-.95395.00388-1.81641.17141-2.5881.49951-.77094.33038-1.43098.78335-1.98396 1.36736-.54913.58633-.96872 1.2805-1.2619 2.084-.29083.80115-.43432 1.6698-.42886 2.60284.0062.95551.15664 1.82573.45678 2.61452.30094.7903.72751 1.47515 1.2836 2.0522.55689.58012 1.22388 1.02917 1.99714 1.35026.77404.31958 1.64038.47546 2.59356.47158.97415-.00544 1.81253-.11867 2.51834-.34126.70264-.22258 1.26496-.44904 1.68378-.68095l-.01785-3.29004-3.63516.0186-.02015-4.1191 7.92801-.0427.05585 10.58363zM301.044 8.536l13.768-.072.02 4.116-9.302.051.02 3.774 8.789-.045.021 4.117-8.788.047.022 4.121 9.817-.052.022 4.116-14.282.076zm17.4842-.0154l7.84271-.04109c1.0292-.00544 2.00723.08687 2.93482.2854.92602.1947 1.73806.52508 2.43844.98733.69959.46226 1.25412 1.08892 1.66983 1.87927.4134.78875.62357 1.77608.63056 2.95574.00698 1.43093-.3599 2.64785-1.09668 3.65534-.73835 1.00361-1.82343 1.64192-3.25437 1.918l5.1972 8.52447-5.35308.02793-4.2789-8.07155-2.20423.01165.04267 8.09479-4.4635.02173-.10547-20.249zm4.50848 8.35615l2.63388-.01472c.39942 0 .82444-.0186 1.2735-.0481.44675-.03176.8516-.11711 1.2138-.26523.36066-.14273.66001-.3692.89735-.67552.23733-.30637.35443-.7345.3529-1.2875-.00387-.51574-.1117-.92602-.3211-1.2285-.21174-.30406-.4801-.53592-.80738-.69725-.32422-.16213-.69958-.26916-1.11685-.32341-.42114-.05742-.8291-.08147-1.2324-.0799l-2.91775.01703.02405 4.6031z"/><path fill="#472ee0" d="M126.83475 43.94156h26.6377v5.3877h-20.89112v13.28857h19.45459v5.3877h-19.4546v18.31689h-5.74657V43.94156zm31.96435 0h5.74658v42.38086h-5.74658V43.94156zm14.24658 0h14.90528c2.71289 0 4.94726.36963 6.7041 1.10742 1.75586.73877 3.14258 1.67627 4.16016 2.81348s1.72558 2.41504 2.125 3.83105c.39843 1.417.59863 2.7837.59863 4.10059 0 1.35693-.23926 2.66357-.71777 3.9204-.4795 1.25733-1.16797 2.39454-2.06543 3.41212-.89844 1.01758-1.9961 1.87646-3.292 2.57422-1.29785.69873-2.74511 1.12793-4.33984 1.28662l12.03125 19.33496h-7.18262l-10.77539-18.67627h-6.40527v18.67627h-5.7461V43.94156zm5.7461 18.67627h7.54297c1.1162 0 2.22363-.08985 3.32226-.26904 1.09668-.1797 2.07422-.50928 2.93262-.9878.8584-.479 1.5459-1.16748 2.06543-2.06543.51855-.89795.77832-2.06494.77832-3.50146 0-1.43701-.25977-2.604-.77832-3.50196-.51953-.89794-1.20703-1.58642-2.06543-2.06542-.8584-.47852-1.83594-.80811-2.93262-.98731-1.09863-.17969-2.20605-.26953-3.32226-.26953h-7.54297v13.64795zm28.4336-18.67627h27.35546v5.3877h-21.60937v12.63037h20.11328v5.3872h-20.11328v13.58838h22.6875v5.3872h-28.4336V43.94157zm34.17968 0h26.6377v5.3877h-20.8916v13.28857h19.45507v5.3877h-19.45508v18.31689h-5.74609V43.94156zm31.96484 0h5.7461V80.9352h19.45508v5.3872H273.3699V43.94157zm32.02442 24.30322l-16.042-24.30322h7.36329l11.55273 18.6167 11.91211-18.6167h7.00293l-16.042 24.30322v18.07764h-5.74706V68.24478z"/><g id="Group-2-Copy-2" transform="translate(0 .665)"><path id="Path-3" fill="#ffea00" fill-rule="evenodd" d="M41.344 61.991v9.842l12.403 7.312 12.373-7.312V48.929l-12.373 7.144-12.403-7.144z" clip-rule="evenodd"/><path id="Combined-Shape" d="M63.94499 46.3944l4.21819 1.71921.00017 22.87608c0 1.45317-.74758 2.7999-1.97117 3.56986l-.1379.08315-10.22842 5.90538c-1.3051.7535-2.91304.7535-4.21814 0L41.3793 74.6427c-1.3051-.7535-2.10907-2.14602-2.10907-3.653l-.00043-22.85612 4.2182-1.58856.00036 24.44467 10.22843 5.90538L63.9452 70.9897 63.945 46.3944zM51.60772 22.63822c1.3051-.7535 2.91304-.7535 4.21814 0l10.22842 5.90538c1.3051.7535 2.10907 2.14602 2.10907 3.653v.00001l-.00017 4.52976-4.2182-.08711.00023-4.44265-10.22842-5.90538-10.22843 5.90538-.00036 4.0204-4.2182-.0865.00043-3.9339c0-1.45317.74757-2.7999 1.97117-3.56986l.1379-.08315 10.22842-5.90538z" class="st3"/><path id="Path-2" d="M65.06554 57.77423l2.10907 3.653-12.37302 7.14357c-.62925.36329-1.39929.37627-2.03859.03893l-.07048-.03893-12.37301-7.14356 2.10906-3.653 11.3183 6.5345 11.31867-6.5345z" class="st3"/><path id="Path-2-Copy" d="M65.06554 46.9477l2.10907 3.653-12.37302 7.14356c-.62925.3633-1.39929.37627-2.03859.03893l-.07048-.03893-12.37301-7.14356 2.10906-3.653 11.3183 6.5345 11.31867-6.5345z" class="st3"/><path id="Path-4" d="M53.71679 33.72953H4.78646c-2.02764 0-2.8872 2.58192-1.26416 3.79728L27.1812 55.24296c.61737.4623 1.43787.55073 2.13957.23059L54.5922 43.94399c.75148-.34285 1.23365-1.09281 1.23365-1.9188v-6.1866c0-1.1648-.94426-2.10906-2.10906-2.10906zm-2.10907 4.21813v2.72126L28.70805 51.11639 11.12181 37.94766h40.48591z" class="st3"/><path id="Path-4-Copy" d="M53.99392 33.72953h48.93031c2.02765 0 2.88721 2.58192 1.26417 3.79728L80.52951 55.24296c-.61738.4623-1.43787.55073-2.13957.23059L53.1185 43.94399c-.75148-.34285-1.23365-1.09281-1.23365-1.9188v-6.1866c0-1.1648.94426-2.10906 2.10907-2.10906zm2.10906 4.21813v2.72126l22.89967 10.44747 17.58623-13.16873h-40.4859z" class="st3"/><path id="Line-Copy-3" d="M46.68657 20.53164c1.14197 0 2.07195.9076 2.10798 2.04081l.00108.06826v4.55072c0 1.1648-.94426 2.10906-2.10906 2.10906-1.14197 0-2.07195-.9076-2.10798-2.0408l-.00108-.06826V22.6407c0-1.1648.94426-2.10907 2.10906-2.10907z" class="st3"/><path id="Line-Copy-4" d="M61.16882 20.53164c1.14197 0 2.07195.9076 2.10798 2.04081l.00109.06826v4.55072c0 1.1648-.94426 2.10906-2.10907 2.10906-1.14196 0-2.07195-.9076-2.10798-2.0408l-.00109-.06826V22.6407c0-1.1648.94427-2.10907 2.10907-2.10907z" class="st3"/></g></svg>