<?xml version="1.0" encoding="utf-8"?>
<!-- Generator: Adobe Illustrator 25.3.1, SVG Export Plug-In . SVG Version: 6.00 Build 0)  -->
<svg version="1.1" id="Layer_1" xmlns="http://www.w3.org/2000/svg" xmlns:xlink="http://www.w3.org/1999/xlink" x="0px" y="0px"
	 viewBox="0 0 327.7 93.1" style="enable-background:new 0 0 327.7 93.1;" xml:space="preserve">
<style type="text/css">
	.st0{fill:#24272A;}
	.st1{fill:#F1564A;}
	.st2{fill:#D9D9D9;}
</style>
<g>
	<polygon class="st0" points="114.3,9.2 118.8,9.1 118.8,16.7 127.5,16.7 127.5,9.1 132,9.1 132.1,29.4 127.6,29.4 127.6,20.6 
		118.9,20.7 118.9,29.4 114.4,29.4 	"/>
	<polygon class="st0" points="142.8,20.8 135.2,9.2 140.7,9.2 145.1,16.7 149.6,9.1 154.9,9.1 147.3,20.8 147.4,29.4 142.9,29.4 	
		"/>
	<path class="st0" d="M158,9.1l7.5,0c1,0,2,0.1,3,0.3c0.9,0.2,1.8,0.5,2.5,1c0.7,0.5,1.3,1.1,1.7,1.9c0.4,0.8,0.6,1.8,0.6,3
		c0,1.2-0.2,2.2-0.6,3c-0.4,0.8-0.9,1.4-1.6,1.9c-0.7,0.5-1.5,0.8-2.4,1c-0.9,0.2-1.9,0.3-3,0.3l-3.3,0l0,7.9l-4.5,0L158,9.1z
		 M162.5,17.7l3,0c0.4,0,0.8,0,1.2-0.1c0.4-0.1,0.7-0.2,1-0.4c0.3-0.2,0.5-0.4,0.7-0.7c0.2-0.3,0.3-0.7,0.3-1.2
		c0-0.5-0.1-0.9-0.4-1.2c-0.2-0.3-0.5-0.6-0.9-0.7c-0.4-0.2-0.8-0.3-1.2-0.3c-0.5,0-0.9-0.1-1.3-0.1l-2.3,0L162.5,17.7z"/>
	<polygon class="st0" points="176.4,9.2 190.2,9.1 190.2,13.2 180.9,13.3 180.9,17 189.7,17 189.7,21.1 180.9,21.2 180.9,25.3 
		190.8,25.2 190.8,29.4 176.5,29.4 	"/>
	<path class="st0" d="M193.9,9.1l7.9,0c1,0,2,0.1,2.9,0.3c0.9,0.2,1.7,0.5,2.4,1c0.7,0.5,1.3,1.1,1.7,1.9c0.4,0.8,0.6,1.8,0.6,3
		c0,1.4-0.4,2.7-1.1,3.7c-0.7,1-1.8,1.6-3.3,1.9l5.2,8.5l-5.4,0l-4.3-8.1l-2.2,0l0,8.1l-4.5,0L193.9,9.1z M198.4,17.5l2.6,0
		c0.4,0,0.8,0,1.3,0c0.4,0,0.9-0.1,1.2-0.3c0.4-0.1,0.7-0.4,0.9-0.7c0.2-0.3,0.4-0.7,0.4-1.3c0-0.5-0.1-0.9-0.3-1.2
		c-0.2-0.3-0.5-0.5-0.8-0.7c-0.3-0.2-0.7-0.3-1.1-0.3c-0.4-0.1-0.8-0.1-1.2-0.1l-2.9,0L198.4,17.5z"/>
	<polygon class="st0" points="213.3,9.1 217.7,9.1 217.8,25.3 226.1,25.2 226.1,29.3 213.4,29.4 	"/>
	<polygon class="st0" points="229.2,9.1 243,9.1 243,13.2 233.7,13.3 233.7,17 242.5,17 242.5,21.1 233.7,21.2 233.8,25.3 
		243.6,25.2 243.6,29.3 229.3,29.4 	"/>
	<path class="st0" d="M246.7,9.1l6.7,0c1.6,0,3.2,0.2,4.6,0.5c1.5,0.4,2.7,0.9,3.8,1.7c1.1,0.8,2,1.9,2.6,3.2c0.6,1.3,1,2.9,1,4.7
		c0,1.6-0.3,3.1-0.9,4.3c-0.6,1.3-1.4,2.3-2.5,3.2c-1,0.9-2.3,1.5-3.6,2c-1.4,0.4-2.8,0.7-4.3,0.7l-7.3,0L246.7,9.1z M251.3,25.3
		l2.3,0c1,0,2-0.1,2.9-0.3c0.9-0.2,1.7-0.6,2.3-1.1c0.6-0.5,1.2-1.1,1.5-1.9c0.4-0.8,0.5-1.8,0.5-2.9c0-1-0.2-1.9-0.6-2.6
		c-0.4-0.7-0.9-1.3-1.5-1.8c-0.6-0.5-1.4-0.8-2.2-1.1c-0.9-0.2-1.7-0.3-2.7-0.3l-2.6,0L251.3,25.3z"/>
	<path class="st0" d="M288.1,27.9c-1.3,0.7-2.7,1.2-4.1,1.5c-1.4,0.3-2.9,0.5-4.4,0.5c-1.6,0-3-0.2-4.4-0.7
		c-1.3-0.5-2.5-1.2-3.5-2.1c-1-0.9-1.7-2-2.3-3.4c-0.6-1.3-0.8-2.8-0.8-4.4c0-1.6,0.3-3.1,0.8-4.4c0.5-1.3,1.3-2.4,2.3-3.4
		c1-0.9,2.1-1.6,3.5-2.1c1.3-0.5,2.8-0.8,4.4-0.8c1.6,0,3.1,0.2,4.5,0.6c1.4,0.4,2.6,1.1,3.6,2l-3.1,3.5c-0.6-0.6-1.3-1.1-2.1-1.4
		c-0.8-0.3-1.7-0.5-2.9-0.5c-1,0-1.8,0.2-2.6,0.5c-0.8,0.3-1.4,0.8-2,1.4c-0.5,0.6-1,1.3-1.3,2.1c-0.3,0.8-0.4,1.7-0.4,2.6
		c0,1,0.2,1.8,0.5,2.6c0.3,0.8,0.7,1.5,1.3,2.1c0.6,0.6,1.2,1,2,1.4c0.8,0.3,1.6,0.5,2.6,0.5c1,0,1.8-0.1,2.5-0.3
		c0.7-0.2,1.3-0.4,1.7-0.7l0-3.3l-3.6,0l0-4.1l7.9,0L288.1,27.9z"/>
	<polygon class="st0" points="291.2,8.7 305,8.6 305,12.7 295.7,12.8 295.7,16.6 304.5,16.5 304.5,20.6 295.7,20.7 295.7,24.8 
		305.6,24.8 305.6,28.9 291.3,29 	"/>
	<path class="st0" d="M308.7,8.7l7.9,0c1,0,2,0.1,2.9,0.3c0.9,0.2,1.7,0.5,2.4,1c0.7,0.5,1.3,1.1,1.7,1.9c0.4,0.8,0.6,1.8,0.6,3
		c0,1.4-0.4,2.7-1.1,3.7c-0.7,1-1.8,1.6-3.3,1.9l5.2,8.5l-5.4,0l-4.3-8.1l-2.2,0l0,8.1l-4.5,0L308.7,8.7z M313.2,17l2.6,0
		c0.4,0,0.8,0,1.3,0c0.4,0,0.9-0.1,1.2-0.3c0.4-0.1,0.7-0.4,0.9-0.7c0.2-0.3,0.4-0.7,0.4-1.3c0-0.5-0.1-0.9-0.3-1.2
		c-0.2-0.3-0.5-0.5-0.8-0.7c-0.3-0.2-0.7-0.3-1.1-0.3c-0.4-0.1-0.8-0.1-1.2-0.1l-2.9,0L313.2,17z"/>
	<g>
		<path class="st1" d="M143.5,53.1c-1.2-1.5-2.7-2.7-4.5-3.5c-1.8-0.8-3.7-1.2-5.6-1.2c-2.3,0-4.5,0.4-6.4,1.3
			c-1.9,0.9-3.5,2.1-4.9,3.6c-1.4,1.5-2.4,3.3-3.1,5.4c-0.7,2.1-1.1,4.3-1.1,6.6c0,2.2,0.4,4.3,1.1,6.2c0.7,2,1.7,3.7,3.1,5.2
			c1.3,1.5,3,2.7,4.9,3.5c1.9,0.9,4.1,1.3,6.5,1.3c2.4,0,4.5-0.5,6.3-1.5c1.8-1,3.3-2.3,4.6-4.1l4.8,3.6c-0.3,0.4-0.9,1-1.6,1.9
			c-0.8,0.8-1.8,1.6-3.1,2.4c-1.3,0.8-2.8,1.5-4.7,2.1c-1.8,0.6-3.9,0.9-6.3,0.9c-3.3,0-6.3-0.6-8.9-1.9c-2.6-1.3-4.9-2.9-6.8-4.9
			c-1.9-2-3.3-4.3-4.3-6.9c-1-2.6-1.5-5.2-1.5-7.8c0-3.2,0.5-6.2,1.6-8.9c1.1-2.7,2.5-5.1,4.4-7c1.9-2,4.2-3.5,6.8-4.6
			c2.7-1.1,5.6-1.6,8.8-1.6c2.7,0,5.4,0.5,8.1,1.6c2.6,1.1,4.8,2.7,6.5,4.9L143.5,53.1z"/>
		<path class="st1" d="M154,44.1h26.8v5.3h-21.2v12.4h19.7v5.3h-19.7v13.3h22.3v5.3H154V44.1z"/>
		<path class="st1" d="M188.1,44.1h5.6v36.3h19.1v5.3h-24.7V44.1z"/>
		<path class="st1" d="M217.3,44.1h5.6v36.3H242v5.3h-24.7V44.1z"/>
		<path class="st1" d="M264,86.8c-3.2,0-6.1-0.6-8.8-1.7c-2.7-1.1-4.9-2.7-6.8-4.6c-1.9-2-3.4-4.3-4.5-6.9c-1.1-2.7-1.6-5.5-1.6-8.6
			c0-3.1,0.5-6,1.6-8.6c1.1-2.7,2.6-5,4.5-6.9c1.9-2,4.2-3.5,6.8-4.6c2.7-1.1,5.6-1.7,8.8-1.7c3.2,0,6.1,0.6,8.8,1.7
			c2.7,1.1,4.9,2.7,6.8,4.6c1.9,2,3.4,4.3,4.5,6.9c1.1,2.7,1.6,5.5,1.6,8.6c0,3.1-0.5,6-1.6,8.6c-1.1,2.7-2.6,5-4.5,6.9
			c-1.9,2-4.2,3.5-6.8,4.6C270,86.2,267.1,86.8,264,86.8z M264,81.5c2.4,0,4.5-0.4,6.5-1.3c1.9-0.9,3.6-2.1,4.9-3.6
			c1.4-1.5,2.4-3.2,3.2-5.3c0.7-2,1.1-4.2,1.1-6.4c0-2.3-0.4-4.4-1.1-6.4c-0.7-2-1.8-3.8-3.2-5.3c-1.4-1.5-3-2.7-4.9-3.6
			c-1.9-0.9-4.1-1.3-6.5-1.3c-2.4,0-4.5,0.4-6.5,1.3c-1.9,0.9-3.6,2.1-4.9,3.6c-1.4,1.5-2.4,3.2-3.2,5.3c-0.7,2-1.1,4.2-1.1,6.4
			c0,2.3,0.4,4.4,1.1,6.4c0.7,2,1.8,3.8,3.2,5.3c1.4,1.5,3,2.7,4.9,3.6C259.4,81,261.6,81.5,264,81.5z"/>
	</g>
	<g>
		<path class="st2" d="M43.4,38c-13.8-15-18.8-25.6-14.3-30.1c1.4-1.4,2.9-2,4.5-1.8c-1.2,1.7-1,4,0.5,5.6c1.7,1.7,4.4,1.7,6.1,0
			c1.7-1.7,1.7-4.4,0-6.1c-0.1-0.1-0.1-0.1-0.2-0.2c-0.2-0.2-3.1-3-7-3.1c-2.4,0-4.6,1-6.6,3c-3.7,3.7-3.7,9.2,0,16.4
			c2.9,5.6,8,12.4,15.4,20.3C19.5,41.4,7.3,37.4,7.3,30.6c0-2,0.6-3.5,1.9-4.5c0.4,2,2.1,3.6,4.3,3.6c2.4,0,4.3-1.9,4.3-4.3
			c0-2.4-1.9-4.3-4.3-4.3c-0.1,0-0.2,0-0.2,0c-0.3,0-4.3,0-7.1,2.8c-1.7,1.7-2.6,4-2.6,6.8c0,5.2,3.9,9.1,11.6,11.6
			c6.3,2.1,15.4,3.2,27.1,3.5l1-1.4C43.2,42.1,43.3,40,43.4,38z"/>
		<path class="st2" d="M78.2,47.5c-5.7-3-13.7-4.8-23.7-5.3c14.3-12.9,24.4-17.5,28.8-13c1.4,1.4,2,2.9,1.8,4.5
			c-1.7-1.2-4-1-5.6,0.5c-1.7,1.7-1.7,4.4,0,6.1c1.7,1.7,4.4,1.7,6.1,0c0.1-0.1,0.1-0.1,0.2-0.2c0.2-0.2,3-3.1,3.1-7
			c0-2.4-1-4.6-3-6.6c-3.7-3.7-9.2-3.7-16.4,0c-5,2.5-10.8,6.8-17.6,12.9c-0.1,1.5-0.1,3.1-0.2,4.7l1,0.7l1.7,1.2
			C69.4,46.9,84,51,84,60.3c0,2.2-0.7,3.6-1.6,4.6c-0.5-1.9-2.2-3.3-4.2-3.3c-2.4,0-4.3,1.9-4.3,4.3c0,2.4,1.9,4.3,4.3,4.3
			c0.1,0,0.2,0,0.3,0l0,0c0.1,0,9.3-0.2,9.3-9.9C87.7,57.3,86.5,51.8,78.2,47.5z"/>
		<path class="st2" d="M42.1,50.2l-0.8-0.5C29.7,60.4,15.1,69.4,8.2,62.4c-1.6-1.6-2.1-3.1-2.1-4.3c1.7,1,3.9,0.8,5.3-0.6
			c1.7-1.7,1.7-4.4,0-6.1c-1.7-1.7-4.4-1.7-6.1,0c-0.1,0.1-0.1,0.1-0.2,0.2l0,0C5,51.5-1.4,58.1,5.5,65c2.1,2.1,6.9,5.1,15.7,2.3
			c6.5-2.1,13.8-6.8,21.8-14.2c0-0.8,0.1-1.5,0.1-2.3L42.1,50.2z"/>
		<path class="st2" d="M51.8,52.3c9.7,11.1,17.1,24.3,10.6,30.8c-1.6,1.6-3.1,2.1-4.3,2.1c1-1.7,0.8-3.9-0.6-5.3
			c-1.7-1.7-4.4-1.7-6.1,0c-1.7,1.7-1.7,4.4,0,6.1c0.1,0.1,0.1,0.1,0.2,0.2l0,0c0.1,0.1,6.7,6.5,13.6-0.5c2.1-2.1,5.1-6.9,2.3-15.7
			c-2-6.5-6.7-13.7-14-21.6l-1.6,2.2C51.8,51.2,51.8,51.8,51.8,52.3z"/>
		<path class="st1" d="M49.4,45.4c0.4-23.5,4.4-36.3,11.4-36.3c2,0,3.5,0.6,4.5,1.9c-2,0.4-3.6,2.1-3.6,4.3c0,2.4,1.9,4.3,4.3,4.3
			c2.4,0,4.3-1.9,4.3-4.3c0-0.1,0-0.2,0-0.2c0-0.3,0-4.3-2.8-7.1c-1.7-1.7-4-2.6-6.8-2.6c-5.2,0-9.1,3.9-11.6,11.6
			c-2.1,6.5-3.3,16-3.5,28.2l-2.1,3l2.1,1.4c-0.1,16.8-3.9,36.1-14.5,36.1c-2.2,0-3.6-0.7-4.6-1.6c1.9-0.5,3.3-2.2,3.3-4.2
			c0-2.4-1.9-4.3-4.3-4.3c-2.4,0-4.3,1.9-4.3,4.3c0,0.1,0,0.2,0,0.3l0,0c0,0.1,0.2,9.3,9.9,9.3c2.9,0,8.5-1.2,12.8-9.5
			c3.6-6.9,5.4-17,5.5-30.1l2.1-3L49.4,45.4z"/>
	</g>
</g>
</svg>
