<svg id="Layer_1" data-name="Layer 1" xmlns="http://www.w3.org/2000/svg" viewBox="0 0 1948.76 496.49"><defs><style>.cls-1{fill:#013a44;}.cls-2{fill:#e3262d;}.cls-3,.cls-4{fill:none;}.cls-3,.cls-4,.cls-5{stroke:#fff;stroke-miterlimit:10;}.cls-3,.cls-5{stroke-width:1.44px;}.cls-4{stroke-width:1.45px;}.cls-5{fill:#fff;}</style></defs><path class="cls-1" d="M1435.4,144c.09-.68.12-1.36.15-2.07v-.06H1417l-.06.51a9,9,0,0,1-7.14,8.11,21.28,21.28,0,0,1-4.6.52q-26.54,0-53.08,0a20.91,20.91,0,0,1-4.59-.52,8.6,8.6,0,0,1-6.79-6,15.18,15.18,0,0,1-.63-4c-.07-2-.05-4.07,0-6.05v-4.23l95.58.16V123.6c0-5.15,0-10.29,0-15.43a45.31,45.31,0,0,0-.45-6.47,21.52,21.52,0,0,0-7.32-13.34,29.28,29.28,0,0,0-19.79-7.27c-8.42,0-16.92-.06-25.38-.06-9.33,0-18.62,0-27.75,0h-5.71a34.29,34.29,0,0,0-5.58.52,29.49,29.49,0,0,0-9.37,3.29,24.93,24.93,0,0,0-9.82,9.57,23.59,23.59,0,0,0-3,12v14.44q0,9.75,0,19.51a29.53,29.53,0,0,0,.3,4.09c1,7.24,4.88,12.93,11.53,16.93a31.83,31.83,0,0,0,16.63,4.42h57.51a31.63,31.63,0,0,0,13.86-3C1429.67,158.8,1434.27,152.63,1435.4,144Zm-95.26-38.76a9.06,9.06,0,0,1,7.64-8.89,24.21,24.21,0,0,1,4.72-.47q20.32,0,40.65,0H1405a18.08,18.08,0,0,1,5.86.81,8.42,8.42,0,0,1,6.11,7.82c.17,2.23.14,4.49.12,6.67,0,.93,0,1.87,0,2.8v1.32h-77v-4.11C1340.07,109.19,1340.06,107.18,1340.14,105.2Z"/><path class="cls-1" d="M1840.56,101.7a21.46,21.46,0,0,0-7.31-13.34,29.3,29.3,0,0,0-19.79-7.27c-8.42,0-16.92-.06-25.38-.06-9.33,0-18.62,0-27.75,0h-5.72a34.17,34.17,0,0,0-5.57.52,29.41,29.41,0,0,0-9.37,3.29,24.93,24.93,0,0,0-9.82,9.57,23.59,23.59,0,0,0-3,12v14.44q0,9.75,0,19.51a33,33,0,0,0,.3,4.09c1,7.24,4.88,12.93,11.53,16.93a31.89,31.89,0,0,0,16.64,4.42h57.51a31.63,31.63,0,0,0,13.86-3c8.32-4,12.91-10.17,14-18.84.09-.68.13-1.36.16-2.07v-.06H1822.4l-.06.51a9,9,0,0,1-7.14,8.11,21.35,21.35,0,0,1-4.6.52q-26.53,0-53.08,0a21,21,0,0,1-4.6-.52,8.63,8.63,0,0,1-6.79-6,15.6,15.6,0,0,1-.63-4c-.06-2,0-4.07,0-6.05v-4.23l95.57.16V123.6c0-5.15,0-10.29,0-15.43A46.73,46.73,0,0,0,1840.56,101.7Zm-18.1,9.42c0,.93,0,1.87,0,2.8v1.32h-77v-1.65q0-1.23,0-2.46c0-1.94,0-3.95.06-5.93a9.05,9.05,0,0,1,7.64-8.89,24.14,24.14,0,0,1,4.72-.47q20.33,0,40.65,0h11.86a18.08,18.08,0,0,1,5.86.81,8.45,8.45,0,0,1,6.11,7.82C1822.5,106.68,1822.48,108.94,1822.46,111.12Z"/><path class="cls-1" d="M1152.25,101.7a21.52,21.52,0,0,0-7.32-13.34,29.27,29.27,0,0,0-19.78-7.27c-8.43,0-16.92-.06-25.39-.06-9.33,0-18.62,0-27.75,0h-5.71a34.29,34.29,0,0,0-5.58.52,29.49,29.49,0,0,0-9.37,3.29,24.93,24.93,0,0,0-9.82,9.57,23.64,23.64,0,0,0-3,12v14.27q0,9.84,0,19.68a29.53,29.53,0,0,0,.3,4.09c1,7.24,4.88,12.93,11.53,16.93a31.84,31.84,0,0,0,16.64,4.42h57.5a31.63,31.63,0,0,0,13.86-3c8.32-4,12.92-10.17,14-18.84.09-.67.12-1.36.16-2.06v-.07h-18.52l-.06.51a9,9,0,0,1-7.14,8.11,21.28,21.28,0,0,1-4.6.52q-26.54,0-53.07,0a20.93,20.93,0,0,1-4.6-.52,8.62,8.62,0,0,1-6.79-6,15.6,15.6,0,0,1-.63-4c-.07-2,0-4.07,0-6.05l0-1.94a5.49,5.49,0,0,1,.08-.85l.15-1.28h95.33v-6.71c0-5.13,0-10.27,0-15.4A46.73,46.73,0,0,0,1152.25,101.7Zm-18.15,9.53c0,.94,0,1.87,0,2.8a1.36,1.36,0,0,1-.16.6l-.25.59-.7.14h-75.67l-.15-1.07a4.37,4.37,0,0,1-.06-.59c0-.82,0-1.63,0-2.45,0-1.94,0-4,.06-5.94a9.05,9.05,0,0,1,7.64-8.88,23.37,23.37,0,0,1,4.71-.47q20.32,0,40.66,0H1122a18.36,18.36,0,0,1,5.86.8,8.45,8.45,0,0,1,6.11,7.82C1134.15,106.79,1134.13,109.05,1134.1,111.23Z"/><path class="cls-1" d="M640.79,103.44V37.88H622.13V165.69l5.92,0c3,0,6.48,0,12.74-.05V151.2c.05-12.76,0-9.92,0-22.69Z"/><path class="cls-1" d="M1945.44,94.27a23.81,23.81,0,0,0-9.46-9.69,29.64,29.64,0,0,0-14.35-3.51c-7.53-.1-14.29-.09-20.67,0a32,32,0,0,0-12.27,2.6,21.76,21.76,0,0,0-6.65,4.71l-.11.11V81.28h-18.66s.44,84.68.14,84.51H1882l.26-57.28a35.91,35.91,0,0,1,.27-4.48,8.45,8.45,0,0,1,5.3-7,15.59,15.59,0,0,1,6.29-1.09q12.09,0,24.19,0a26.69,26.69,0,0,1,3.86.38c4.67.7,7.69,4.11,8.05,9.13h18.59A32,32,0,0,0,1945.44,94.27Z"/><path class="cls-1" d="M1258.24,94.27a23.74,23.74,0,0,0-9.46-9.69,29.64,29.64,0,0,0-14.35-3.51c-7.53-.1-14.29-.09-20.66,0a31.91,31.91,0,0,0-12.27,2.6,21.68,21.68,0,0,0-6.66,4.71l-.11.11V81.28h-18.66s.44,84.68.15,84.51h18.53l.26-57.28a35.91,35.91,0,0,1,.27-4.48,8.45,8.45,0,0,1,5.3-7,15.59,15.59,0,0,1,6.29-1.09q12.11,0,24.19,0a26.83,26.83,0,0,1,3.87.38c4.66.7,7.68,4.11,8,9.13h18.6A32.2,32.2,0,0,0,1258.24,94.27Z"/><path class="cls-1" d="M988.74,165.81a25.1,25.1,0,0,0,3-.24l.24,0a30.29,30.29,0,0,0,14.28-5.44,22.8,22.8,0,0,0,7.86-9.58,25,25,0,0,0,2-10.2q0-16.32,0-32.66v-1.42a26.38,26.38,0,0,0-.63-6.35,22.84,22.84,0,0,0-9.17-13.44,31.28,31.28,0,0,0-18.43-5.74q-22.32,0-44.61,0a35.07,35.07,0,0,0-5.45.46,30.08,30.08,0,0,0-11.63,4.58c-.24.16-1.5,1-2.48,1.72V81.14H905.08V188.56l9-.05,9.58,0V137.68q0-15,0-30.09v-.49a24.73,24.73,0,0,1,.13-3.08,8.6,8.6,0,0,1,5.9-7.52,15.91,15.91,0,0,1,4.89-.87c6.46,0,12.92,0,19.38,0h13.3c6.4,0,12.79,0,19.19,0a15.57,15.57,0,0,1,4.88.9,8.69,8.69,0,0,1,5.92,8.46q0,18.16,0,36.33a8.92,8.92,0,0,1-7.34,9.13,21.05,21.05,0,0,1-4.6.51c-12.58,0-22.87,0-33.58,0H942l-13.94,14.83c14.38,0,44.32,0,59.1,0Z"/><path class="cls-1" d="M1571,165.45V40.7l-18.62.1v98.68a23,23,0,0,1-.13,3.09,8.58,8.58,0,0,1-5.89,7.52,16,16,0,0,1-4.89.87h-51.87a15.89,15.89,0,0,1-4.89-.91,8.69,8.69,0,0,1-5.92-8.46q0-18.17,0-36.33a8.94,8.94,0,0,1,7.34-9.13,21.68,21.68,0,0,1,4.6-.51l43.34,0L1548,80.78c-14.38,0-44.34,0-59.13,0h-1.52a27.57,27.57,0,0,0-3,.24l-.24,0a30.21,30.21,0,0,0-14.27,5.44,23.09,23.09,0,0,0-7.87,9.58,25.22,25.22,0,0,0-2,10.2q0,17,0,34.08a26.38,26.38,0,0,0,.63,6.35,22.91,22.91,0,0,0,9.17,13.45,31.23,31.23,0,0,0,18.44,5.73q22.31.06,44.61,0a34.08,34.08,0,0,0,5.45-.46,29.78,29.78,0,0,0,11.62-4.58c.24-.15,1.21-.77,2.48-1.53v0h0l0,0v6.15Z"/><polygon class="cls-1" points="1279.74 38.86 1279.74 165.82 1298.4 165.81 1298.4 38.86 1279.74 38.86"/><path class="cls-1" d="M729.64,38.86V96.7H653.05l-12.22,14.82c14.6,0,66.82,0,88.81,0v54.32h18.67v-127Z"/><path class="cls-1" d="M1705.81,81.45c0-.19,0-.38,0-.58h-7.22c-3.75,0-7.5,0-11.28,0l-.08,6.59s-7.5-6.8-20.14-6.8h-20.88q-11.4,0-22.78,0a35.68,35.68,0,0,0-5.6.38,31.33,31.33,0,0,0-11.74,4.33,23.28,23.28,0,0,0-10,12.15,26.06,26.06,0,0,0-1.35,8.8c0,7.46,0,14.92,0,22.37v11.18a31.08,31.08,0,0,0,.41,5.38,21.82,21.82,0,0,0,5.58,11.39,28,28,0,0,0,20.7,9c13.72.23,29.7.15,45.16.07h1.79L1682.35,151c-16.88,0-41.26,0-57.25,0a19.21,19.21,0,0,1-4.87-.72c-3.92-1.05-6.37-4.13-6.71-8.44a12.71,12.71,0,0,1,0-1.38v-34a13,13,0,0,1,.66-4.63,8.51,8.51,0,0,1,5.49-5.34,17.17,17.17,0,0,1,4.88-.85c6.46-.06,12.92,0,19.38,0h13c6.49,0,13,0,19.46,0a15.7,15.7,0,0,1,4.75.85,8.31,8.31,0,0,1,5.52,5.88,13.3,13.3,0,0,1,.51,3.51l.09,68.68h0v3.29a6.88,6.88,0,0,1-.6,2.67,8.63,8.63,0,0,1-5.18,4.67,15.14,15.14,0,0,1-5.6.92h-51.55L1612.1,200.9c13.41.07,36.85,0,54.2,0h12.19a33.13,33.13,0,0,0,3.77-.26,28.82,28.82,0,0,0,12-4.12,23.1,23.1,0,0,0,9.64-10.83,25.47,25.47,0,0,0,1.89-10.35q0-31.92,0-63.85Z"/><path class="cls-1" d="M881.59,81.53c0-.13,0-.26,0-.39H863v11q0,23.82,0,47.65a18.38,18.38,0,0,1-.43,3.88,8.41,8.41,0,0,1-4.87,6.05A15.41,15.41,0,0,1,851,151H839.31q-19,0-38,0a20.48,20.48,0,0,1-4.61-.52,9.24,9.24,0,0,1-7-6.12,12.44,12.44,0,0,1-.55-4.37V81.74c0-.2,0-.4,0-.61H770.54v13.1q0,22.71,0,45.41a41,41,0,0,0,.34,5.16,21,21,0,0,0,5.44,11.69,28,28,0,0,0,20.86,9.24l48.53.06a26.65,26.65,0,0,0,14.89-4.11,12.63,12.63,0,0,0,2.36-2.07h0v17.83a7.9,7.9,0,0,1-3.88,6.75,13,13,0,0,1-7.28,1.91H800L787.82,200.9c16.46,0,51.51,0,66.32,0a34.79,34.79,0,0,0,3.89-.26,28.82,28.82,0,0,0,13.86-5.38c6.39-4.68,9.64-10.86,9.66-18.39.07-23.49.06-47.38.05-70.48Z"/><path class="cls-2" d="M626.79,477.16V239.57h28.88V477.16Z"/><path class="cls-2" d="M707.24,477.16V239.57h97.29q22.35,0,39.37,7.64t26.64,21.72q9.63,14.08,9.63,33.77v3.74q0,23.42-11.34,37T842,361.76v4.75q12.38.35,20.46,8t8.07,22.91v79.76H842V400.8q0-10.19-5.67-15.62t-17-5.43h-83.2v97.41ZM736.12,354h65.66q23.73,0,36.62-11.37t12.89-31.74v-2.38q0-20.36-12.72-31.73t-36.79-11.37H736.12Z"/><path class="cls-2" d="M1008.06,481.92q-43,0-68.58-24.61t-25.62-71.79v-54.3q0-47.18,25.62-71.79t68.58-24.61q43.32,0,68.94,24.61t25.61,71.79v54.3q0,47.19-25.61,71.79T1008.06,481.92Zm0-25.46q31.29,0,48.48-18.5t17.19-51.42V330.2q0-32.93-17.19-51.43t-48.48-18.49q-30.93,0-48.13,18.49T942.74,330.2v56.34q0,32.93,17.19,51.42T1008.06,456.46Z"/><path class="cls-2" d="M1147.3,477.16V239.57h28.88V345.13H1289V239.57h28.88V477.16H1289V370.93H1176.18V477.16Z"/><path class="cls-2" d="M1350.49,477.16l74.26-237.59h50.88l74.26,237.59H1520l-18.56-60.07H1399l-18.56,60.07Zm55.69-85.87h87.67L1452.6,256.88h-4.82Z"/><path class="cls-2" d="M521,208.21l-44.93-9.72,30.36-35.22C480,137,423.39,130.24,365.1,149.19a194.63,194.63,0,0,0-24.29,9.47,222.73,222.73,0,0,0,1.46-25.75c0-61.2-24-113.18-57.08-130.18L260.9,42.56,237.59,2.49c-33,17-57.08,68.73-57.08,129.94A222.56,222.56,0,0,0,182,158.17a194.63,194.63,0,0,0-24.29-9.47C99.39,129.76,42.79,136.56,16.32,162.79L46.68,198,1.75,208.21c6.07,36.67,47.84,75.54,106.14,94.48a250.62,250.62,0,0,0,24.77,6.56,222,222,0,0,0-16.27,19.91C80.44,378.71,69.27,434.82,86,468.09l43-18-4.62,45.66c36.68,5.59,86.71-22.1,122.66-71.65,5.34-7.28,10-14.81,14.33-22.1a201.05,201.05,0,0,0,14.33,22.1c35.95,49.55,85.74,77.24,122.66,71.65l-4.62-45.66,43,18c16.76-33.27,5.83-89.38-30.36-138.93a222,222,0,0,0-16.27-19.91,233.57,233.57,0,0,0,24.77-6.56c58.3-18.94,100.31-57.81,106.14-94.48"/><path class="cls-3" d="M389.88,311,261.39,404,132.9,311,182.21,160.6h158.6Z"/><path class="cls-4" d="M260.66,324.79l76.27-6.8M184.4,318l76.26,6.8"/><path class="cls-3" d="M336.93,318l-76.27,44L184.4,318V230.07l76.26-44,76.27,44Zm0-88.17L260.66,223m-76.26,7,76.26-7m76.27,7-32.31,69.22m-44,62.66,44-62.66M184.4,230.07l32.3,69.22m44,62.66-44-62.66"/><path class="cls-3" d="M304.62,299.29l-44-76.27-44,76.27Z"/><path class="cls-3" d="M216.7,248l44,76,44-76Zm-32.3-18,32.3,18m87.92,0,32.31-18m-76.27,94V362"/><circle class="cls-5" cx="260.66" cy="361.95" r="5.34"/><circle class="cls-5" cx="184.4" cy="230.07" r="5.34"/><circle class="cls-5" cx="216.7" cy="299.29" r="5.34"/><circle class="cls-5" cx="304.62" cy="299.29" r="5.34"/><circle class="cls-5" cx="260.66" cy="223.02" r="5.34"/><circle class="cls-5" cx="336.93" cy="230.07" r="5.34"/><path class="cls-3" d="M336.93,318l-32.31-70m-44-61.93,44,61.93M184.4,318l32.3-70m44-61.93L216.7,248"/><path class="cls-3" d="M260.66,362l-63.39-4.85m127,1L260.66,362M157.44,236.38l27-6.31m181.19,6.31-28.66-6.31M184.4,318l-51.5-7m204,7,52.95-7M182.21,160.36l78.45,25.75m80.15-25.75-80.15,25.75"/><path class="cls-3" d="M261.39,160.6,260.9,42.32M157.44,236.38,46.68,198.49m82.58,251.63,68-93m196.49,93L324.3,358.07m152-159.58L365.59,236.38M389.88,311l86.46-112.46M340.81,160.6l135.53,37.89M182.21,160.6,260.9,42.32M340.81,160.6,260.9,42.32M132.66,309.25l-86-110.76M182.21,160.6,46.68,198.49m86,110.76-3.4,140.87M261.39,404,129.26,450.12M389.88,311l3.88,139.17M261.39,404l132.37,46.15"/></svg>