<?xml version="1.0" encoding="utf-8"?>
<!-- Generator: Adobe Illustrator 25.2.1, SVG Export Plug-In . SVG Version: 6.00 Build 0)  -->
<svg version="1.1" id="Layer_1" xmlns="http://www.w3.org/2000/svg" xmlns:xlink="http://www.w3.org/1999/xlink" x="0px" y="0px"
	 viewBox="0 0 1968.9 478.8" style="enable-background:new 0 0 1968.9 478.8;" xml:space="preserve">
<style type="text/css">
	.st0{fill:#013A44;}
	.st1{fill:#4B8047;}
	.st2{fill:#225087;}
	.st3{fill:#F1564A;}
	.st4{fill:#D9D9D9;}
	.st5{fill:#19A1A1;}
	.st6{fill:#231F20;}
	.st7{fill:#9BC792;}
	.st8{fill:#4C7F3E;}
	.st9{fill:#2775BB;}
	.st10{fill:none;}
	.st11{fill:#80C88E;}
	.st12{fill:#24282A;}
	.st13{fill:#80C88D;}
	.st14{fill:#A8D04B;}
	.st15{fill:#F99F44;}
	.st16{fill:#AA57A2;}
	.st17{fill:#24272A;}
	.st18{fill-rule:evenodd;clip-rule:evenodd;fill:#FFEA00;}
	.st19{fill:#462DE0;}
	.st20{fill:#0B3C84;}
	.st21{fill:#005CD6;}
	.st22{fill:#FEFEFE;}
	.st23{fill:#4085DF;}
	.st24{fill:#9BEBE4;}
	.st25{fill:#A1F5E3;}
	.st26{fill:#4A9BDD;}
	.st27{fill:#4084DF;}
	.st28{fill:#005CD5;}
	.st29{fill:#1D9BCF;}
	.st30{fill:#23A7CE;}
	.st31{fill:#26AECE;}
	.st32{fill:#1A95D0;}
	.st33{fill:#20A2CF;}
	.st34{fill:#0F7DD2;}
	.st35{fill:#35CDCB;}
	.st36{fill:#39D7CA;}
	.st37{fill:#0D78D3;}
	.st38{fill:#188FD0;}
	.st39{fill:#1283D2;}
	.st40{fill:#0A72D3;}
	.st41{fill:#1487D1;}
	.st42{fill:#1F9FCF;}
	.st43{fill:#0261D5;}
	.st44{fill:#37D2CA;}
	.st45{fill:#28B3CD;}
	.st46{fill:#086DD3;}
	.st47{fill:#0669D4;}
	.st48{fill:#168BD1;}
	.st49{fill:#30C2CC;}
	.st50{fill:#0464D4;}
	.st51{fill:#2AB6CD;}
	.st52{fill:#2CBACD;}
	.st53{fill:#32C7CB;}
	.st54{fill:#2EBECC;}
	.st55{fill:#2EBFCC;}
	.st56{fill:#107ED2;}
	.st57{fill:#1385D1;}
	.st58{fill:#0B73D3;}
	.st59{fill:#20A0CF;}
	.st60{fill:#0D78D2;}
	.st61{fill:#1282D2;}
	.st62{fill:#1D9ACF;}
	.st63{fill:#1B96D0;}
	.st64{fill:#096ED3;}
	.st65{fill:#1991D0;}
	.st66{fill:#0362D5;}
	.st67{fill:#0465D4;}
	.st68{fill:#28B1CD;}
	.st69{fill:#25ABCE;}
	.st70{fill:#2AB7CD;}
	.st71{fill:#2CBBCC;}
	.st72{fill:#1E9DCF;}
	.st73{fill:#2EC0CC;}
	.st74{fill:#34CDCB;}
	.st75{fill:#30C3CC;}
	.st76{fill:#42EBC8;}
	.st77{fill:#0E79D2;}
	.st78{fill:#0C75D3;}
	.st79{fill:#0B70D4;}
	.st80{fill:#39D6CA;}
	.st81{fill:#36D1CA;}
	.st82{fill:#0B74D3;}
	.st83{fill:#43ECC8;}
	.st84{fill:#1180D2;}
	.st85{fill:#1486D1;}
	.st86{fill:#0F7BD2;}
	.st87{fill:#1386D1;}
	.st88{fill:#168AD1;}
	.st89{fill:#40E5C9;}
	.st90{fill:#3DE0C9;}
	.st91{fill:#168CD1;}
	.st92{fill:#1890D0;}
	.st93{fill:#1A94D0;}
	.st94{fill:#0362D4;}
	.st95{fill:#41E7C8;}
	.st96{fill:#0566D4;}
	.st97{fill:#1E9CCF;}
	.st98{fill:#27B1CD;}
	.st99{fill:#23A8CE;}
	.st100{fill:#25ACCE;}
	.st101{fill:#1A93D0;}
	.st102{fill:#1B97D0;}
	.st103{fill:#0D77D3;}
	.st104{fill:#21A3CF;}
	.st105{fill:#2FC2CC;}
	.st106{fill:#1589D1;}
	.st107{fill:#2DBDCC;}
	.st108{fill:#34CCCB;}
	.st109{fill:#37D1CA;}
	.st110{fill:#3CDEC9;}
	.st111{fill:#31C6CB;}
	.st112{fill:#3AD8CA;}
	.st113{fill:#27B0CD;}
	.st114{fill:#3BDCC9;}
	.st115{fill:#24AACE;}
	.st116{fill:#22A5CE;}
	.st117{fill:#1D99D0;}
	.st118{fill:#20A1CF;}
	.st119{fill:#1F9CD0;}
	.st120{fill:#3FE3C9;}
	.st121{fill:#086ED3;}
	.st122{fill:#2DBBCC;}
	.st123{fill:#38D3CA;}
	.st124{fill:#29B5CD;}
	.st125{fill:#26ADCE;}
	.st126{fill:#24A8CE;}
	.st127{fill:#37D3CA;}
	.st128{fill:#1C95D0;}
	.st129{fill:#2FC1CC;}
	.st130{fill:#36CFCB;}
	.st131{fill:#33C9CB;}
	.st132{fill:#2BB7CD;}
	.st133{fill:#2DBCCC;}
	.st134{fill:#23A6CE;}
	.st135{fill:#35C9CC;}
	.st136{fill:#E3262D;}
	.st137{fill:none;stroke:#FFFFFF;stroke-width:1.4384;stroke-miterlimit:10;}
	.st138{fill:none;stroke:#FFFFFF;stroke-width:1.445;stroke-miterlimit:10;}
	.st139{fill:#FFFFFF;stroke:#FFFFFF;stroke-width:1.4384;stroke-miterlimit:10;}
	.st140{fill:#FFFFFF;}
	.st141{fill:#FFFFFF;stroke:#FFFFFF;stroke-width:1.445;stroke-miterlimit:10;}
</style>
<g id="Logos_1_">
	<g id="Hyperledger-Firefly-Guide-Copy_1_" transform="translate(-89.000000, -432.000000)">
		<g id="Group-2_1_" transform="translate(89.000000, 431.000000)">
			<g id="Group-2-Copy-2_1_" transform="translate(0.000000, 0.665356)">
				<polygon id="Path-3_1_" class="st18" points="211.6,291.5 211.6,345.7 279.4,386 347.1,345.7 347.1,219.6 279.4,258.9 
					211.6,219.6 				"/>
				<path id="Combined-Shape_1_" class="st19" d="M335.2,205.6l23.1,9.5l0,126c0,8-4.1,15.4-10.8,19.7l-0.8,0.5l-56,32.5
					c-7.1,4.1-15.9,4.1-23.1,0l0,0l-56-32.5c-7.1-4.1-11.5-11.8-11.5-20.1l0,0l0-125.8l23.1-8.7l0,134.6l56,32.5l56-32.5
					L335.2,205.6z M267.7,74.8c7.1-4.1,15.9-4.1,23.1,0l0,0l56,32.5c7.1,4.1,11.5,11.8,11.5,20.1l0,0l0,24.9l-23.1-0.5l0-24.5
					l-56-32.5l-56,32.5l0,22.1l-23.1-0.5l0-21.7c0-8,4.1-15.4,10.8-19.7l0.8-0.5L267.7,74.8z"/>
				<path id="Path-2_1_" class="st19" d="M341.3,268.3l11.5,20.1l-67.7,39.3c-3.4,2-7.7,2.1-11.2,0.2l-0.4-0.2l-67.7-39.3l11.5-20.1
					l61.9,36L341.3,268.3z"/>
				<path id="Path-2-Copy_1_" class="st19" d="M341.3,208.7l11.5,20.1l-67.7,39.3c-3.4,2-7.7,2.1-11.2,0.2l-0.4-0.2l-67.7-39.3
					l11.5-20.1l61.9,36L341.3,208.7z"/>
				<path id="Path-4_1_" class="st19" d="M279.2,135.9H11.6c-11.1,0-15.8,14.2-6.9,20.9l129.4,97.5c3.4,2.5,7.9,3,11.7,1.3
					L284,192.2c4.1-1.9,6.7-6,6.7-10.6v-34.1C290.8,141.1,285.6,135.9,279.2,135.9z M267.7,159.1v15l-125.3,57.5l-96.2-72.5H267.7z"
					/>
				<path id="Path-4-Copy_1_" class="st19" d="M280.8,135.9h267.7c11.1,0,15.8,14.2,6.9,20.9l-129.4,97.5c-3.4,2.5-7.9,3-11.7,1.3
					L276,192.2c-4.1-1.9-6.7-6-6.7-10.6v-34.1C269.2,141.1,274.4,135.9,280.8,135.9z M292.3,159.1v15l125.3,57.5l96.2-72.5H292.3z"
					/>
				<path id="Line-Copy-3_1_" class="st19" d="M240.8,63.2c6.2,0,11.3,5,11.5,11.2l0,0.4v25.1c0,6.4-5.2,11.6-11.5,11.6
					c-6.2,0-11.3-5-11.5-11.2l0-0.4V74.9C229.2,68.4,234.4,63.2,240.8,63.2z"/>
				<path id="Line-Copy-4_1_" class="st19" d="M320,63.2c6.2,0,11.3,5,11.5,11.2l0,0.4v25.1c0,6.4-5.2,11.6-11.5,11.6
					c-6.2,0-11.3-5-11.5-11.2l0-0.4V74.9C308.5,68.4,313.6,63.2,320,63.2z"/>
			</g>
		</g>
	</g>
</g>
<g>
	<path class="st19" d="M642.9,479.6V240.8H789v25.9H671.9v80.2h107.8v25.9H671.9v106.8H642.9z"/>
	<path class="st19" d="M826,479.6V240.8h29v238.8H826z"/>
	<path class="st19" d="M906.9,479.6V240.8h97.8c15,0,28.2,2.6,39.6,7.7c11.4,5.1,20.3,12.4,26.8,21.8c6.4,9.4,9.7,20.8,9.7,33.9v3.8
		c0,15.7-3.8,28.1-11.4,37.2c-7.6,9.1-16.6,15.2-27,18.4v4.8c8.3,0.2,15.1,2.9,20.6,8c5.4,5.1,8.1,12.8,8.1,23v80.2h-28.7v-76.8
		c0-6.8-1.9-12.1-5.7-15.7c-3.8-3.6-9.5-5.5-17.1-5.5h-83.6v97.9H906.9z M935.9,355.7h66c15.9,0,28.2-3.8,36.8-11.4
		c8.6-7.6,13-18.3,13-31.9V310c0-13.6-4.3-24.3-12.8-31.9c-8.5-7.6-20.9-11.4-37-11.4h-66V355.7z"/>
	<path class="st19" d="M1121.5,479.6V240.8h149v25.9h-119.9v79.8h110.2v25.9h-110.2v81.2h121.6v25.9H1121.5z"/>
	<path class="st19" d="M1312.6,479.6V240.8h146.2v25.9h-117.2v80.2h107.8v25.9h-107.8v106.8H1312.6z"/>
	<path class="st19" d="M1495.8,479.6V240.8h29v212.9h122.3v25.9H1495.8z"/>
	<path class="st19" d="M1701.8,479.6v-91.1l-86.1-147.7h33.2l65,114.6h4.8l65-114.6h33.2l-86.1,147.7v91.1H1701.8z"/>
</g>
<g>
	<path class="st0" d="M1455.6,145.7c0.1-0.7,0.1-1.4,0.2-2.1c0,0,0,0,0-0.1h-18.5l-0.1,0.5c-0.5,4.2-3.2,7.2-7.1,8.1
		c-1.5,0.3-3.1,0.5-4.6,0.5c-17.7,0-35.4,0-53.1,0c-1.5,0-3.1-0.2-4.6-0.5c-3.5-0.8-5.8-2.9-6.8-6c-0.4-1.2-0.6-2.6-0.6-4
		c-0.1-2-0.1-4.1,0-6.1v-1.9v-2.3l95.6,0.2l0-6.7c0-5.1,0-10.3,0-15.4c0-2.4-0.2-4.5-0.5-6.5c-0.8-5.3-3.2-9.8-7.3-13.3
		c-5.4-4.8-12.1-7.2-19.8-7.3c-8.4,0-16.9-0.1-25.4-0.1c-9.3,0-18.6,0-27.8,0l-5.7,0c-1.7,0-3.6,0.2-5.6,0.5
		c-3.4,0.6-6.5,1.7-9.4,3.3c-4.3,2.4-7.6,5.6-9.8,9.6c-2,3.6-3,7.5-3,12l0,14.4c0,6.5,0,13,0,19.5c0,1.3,0.1,2.7,0.3,4.1
		c1,7.2,4.9,12.9,11.5,16.9c4.9,2.9,10.5,4.4,16.6,4.4c17.3,0,34.5,0,51.8,0l5.8,0c5,0,9.7-1,13.9-3
		C1449.8,160.5,1454.4,154.3,1455.6,145.7z M1360.3,106.9c0.2-4.6,3-7.9,7.6-8.9c1.5-0.3,3.1-0.5,4.7-0.5c13.6,0,27.1,0,40.7,0h11.9
		c1.6,0,3.8,0.1,5.9,0.8c3.7,1.3,5.8,4,6.1,7.8c0.2,2.2,0.1,4.5,0.1,6.7c0,0.9,0,1.9,0,2.8l0,1.3h-77v-1.7c0-0.8,0-1.6,0-2.5
		C1360.2,110.9,1360.2,108.9,1360.3,106.9z"/>
	<path class="st0" d="M1860.7,103.4c-0.8-5.3-3.2-9.8-7.3-13.3c-5.4-4.8-12.1-7.2-19.8-7.3c-8.4,0-16.9-0.1-25.4-0.1
		c-9.3,0-18.6,0-27.8,0l-5.7,0c-1.7,0-3.6,0.2-5.6,0.5c-3.4,0.6-6.5,1.7-9.4,3.3c-4.3,2.4-7.6,5.6-9.8,9.6c-2,3.6-3,7.5-3,12l0,14.4
		c0,6.5,0,13,0,19.5c0,1.3,0.1,2.7,0.3,4.1c1,7.2,4.9,12.9,11.5,16.9c4.9,2.9,10.5,4.4,16.6,4.4c17.3,0,34.5,0,51.8,0l5.8,0
		c5,0,9.7-1,13.9-3c8.3-4,12.9-10.2,14-18.8c0.1-0.7,0.1-1.4,0.2-2.1c0,0,0,0,0-0.1h-18.5l-0.1,0.5c-0.5,4.2-3.2,7.2-7.1,8.1
		c-1.5,0.3-3.1,0.5-4.6,0.5c-17.7,0-35.4,0-53.1,0c-1.5,0-3.1-0.2-4.6-0.5c-3.5-0.8-5.8-2.9-6.8-6c-0.4-1.2-0.6-2.6-0.6-4
		c-0.1-2-0.1-4.1,0-6.1v-1.9v-2.3l95.6,0.2l0-6.7c0-5.1,0-10.3,0-15.4C1861.2,107.5,1861,105.4,1860.7,103.4z M1842.6,112.8
		c0,0.9,0,1.9,0,2.8l0,1.3h-77v-1.7c0-0.8,0-1.6,0-2.5c0-1.9,0-4,0.1-5.9c0.2-4.6,3-7.9,7.6-8.9c1.5-0.3,3.1-0.5,4.7-0.5
		c13.6,0,27.1,0,40.7,0h11.9c1.6,0,3.8,0.1,5.9,0.8c3.7,1.3,5.8,4,6.1,7.8C1842.7,108.4,1842.6,110.6,1842.6,112.8z"/>
	<path class="st0" d="M1172.4,103.4c-0.8-5.3-3.2-9.8-7.3-13.3c-5.4-4.8-12.1-7.2-19.8-7.3c-8.4,0-16.9-0.1-25.4-0.1
		c-9.3,0-18.6,0-27.7,0l-5.7,0c-1.7,0-3.6,0.2-5.6,0.5c-3.4,0.6-6.5,1.7-9.4,3.3c-4.3,2.4-7.6,5.6-9.8,9.6c-2,3.6-3,7.5-3,12l0,14.3
		c0,6.6,0,13.1,0,19.7c0,1.3,0.1,2.7,0.3,4.1c1,7.2,4.9,12.9,11.5,16.9c4.9,2.9,10.5,4.4,16.6,4.4c17.3,0,34.5,0,51.8,0l5.8,0
		c5,0,9.7-1,13.9-3c8.3-4,12.9-10.2,14-18.8c0.1-0.7,0.1-1.4,0.2-2.1c0,0,0,0,0-0.1h-18.5l-0.1,0.5c-0.5,4.2-3.2,7.2-7.1,8.1
		c-1.5,0.3-3.1,0.5-4.6,0.5c-17.7,0-35.4,0-53.1,0c-1.5,0-3.1-0.2-4.6-0.5c-3.5-0.8-5.8-2.9-6.8-6c-0.4-1.2-0.6-2.6-0.6-4
		c-0.1-2-0.1-4.1,0-6.1l0-1.9c0-0.3,0-0.5,0.1-0.8l0.2-1.3h95.3l0-6.7c0-5.1,0-10.3,0-15.4C1172.9,107.5,1172.7,105.4,1172.4,103.4z
		 M1154.3,112.9c0,0.9,0,1.9,0,2.8c0,0.3-0.1,0.5-0.2,0.6l-0.2,0.6l-0.7,0.1h-75.7l-0.1-1.1c0-0.2-0.1-0.4-0.1-0.6
		c0-0.8,0-1.6,0-2.5c0-1.9,0-4,0.1-5.9c0.2-4.6,3-7.9,7.6-8.9c1.5-0.3,3.1-0.5,4.7-0.5c13.6,0,27.1,0,40.7,0h11.9
		c1.6,0,3.8,0.1,5.9,0.8c3.7,1.3,5.8,4,6.1,7.8C1154.3,108.5,1154.3,110.7,1154.3,112.9z"/>
	<path class="st0" d="M661,105.1V39.6h-18.7v127.8c2.2,0,3.9,0,5.9,0c3,0,6.5,0,12.7-0.1v-14.4c0.1-12.8,0-9.9,0-22.7V105.1z"/>
	<path class="st0" d="M1965.6,96c-2.2-4.2-5.4-7.4-9.5-9.7c-4.1-2.3-8.8-3.4-14.4-3.5c-7.5-0.1-14.3-0.1-20.7,0
		c-4.3,0.1-8.6,1-12.3,2.6c-2.5,1.1-4.7,2.8-6.7,4.7l-0.1,0.1V83h-18.7c0,0,0.4,84.7,0.1,84.5h18.5l0.3-57.3c0-1.7,0.1-3.2,0.3-4.5
		c0.4-3.3,2.2-5.7,5.3-7c2.2-0.9,4.4-1.1,6.3-1.1c8.1,0,16.1,0,24.2,0c1.3,0,2.6,0.2,3.9,0.4c4.7,0.7,7.7,4.1,8,9.1c0,0,0,0,0,0
		h18.6C1968.3,102.6,1967.3,99,1965.6,96z"/>
	<path class="st0" d="M1278.4,96c-2.2-4.2-5.4-7.4-9.5-9.7c-4.1-2.3-8.8-3.4-14.4-3.5c-7.5-0.1-14.3-0.1-20.7,0
		c-4.3,0.1-8.6,1-12.3,2.6c-2.5,1.1-4.7,2.8-6.7,4.7l-0.1,0.1V83h-18.7c0,0,0.4,84.7,0.1,84.5h18.5l0.3-57.3c0-1.7,0.1-3.2,0.3-4.5
		c0.4-3.3,2.2-5.7,5.3-7c2.2-0.9,4.4-1.1,6.3-1.1c8.1,0,16.1,0,24.2,0c1.3,0,2.6,0.2,3.9,0.4c4.7,0.7,7.7,4.1,8,9.1c0,0,0,0,0,0
		h18.6C1281.1,102.6,1280.1,99,1278.4,96z"/>
	<path class="st0" d="M1008.9,167.5c1,0,2-0.1,3-0.2l0.2,0c5.3-0.6,10.2-2.5,14.3-5.4c3.6-2.6,6.2-5.7,7.9-9.6c1.3-3.1,2-6.4,2-10.2
		c0-10.9,0-21.8,0-32.7l0-1.4c0-1.8-0.1-4.1-0.6-6.3c-1.4-5.6-4.5-10.1-9.2-13.4c-5.3-3.8-11.5-5.7-18.4-5.7c-14.9,0-29.7,0-44.6,0
		c-1.8,0-3.6,0.2-5.4,0.5c-4.1,0.7-8,2.2-11.6,4.6c-0.2,0.2-1.5,1-2.5,1.7l0,0v-6.4h-18.6v107.4c2,0,5.5,0,9,0c3.7,0,7.4,0,9.6,0
		l0-50.8c0-10,0-20.1,0-30.1l0-0.5c0-1,0-2,0.1-3.1c0.5-3.8,2.5-6.4,5.9-7.5c1.6-0.6,3.3-0.9,4.9-0.9c6.5-0.1,12.9,0,19.4,0l6.6,0
		l6.8,0c6.4,0,12.8,0,19.2,0c1.5,0,3.2,0.3,4.9,0.9c3.6,1.3,5.9,4.5,5.9,8.5c0,12.1,0,24.2,0,36.3c0,4.7-2.8,8.1-7.3,9.1
		c-1.5,0.3-3,0.5-4.6,0.5c-12.6,0-22.9,0-33.6,0h-9.8l-13.9,14.8c14.4,0,44.3,0,59.1,0L1008.9,167.5z"/>
	<path class="st0" d="M1591.2,167.1V42.4l-18.6,0.1l0,98.7c0,1,0,2-0.1,3.1c-0.5,3.8-2.5,6.4-5.9,7.5c-1.6,0.6-3.3,0.9-4.9,0.9
		l-51.9,0c-1.5,0-3.2-0.3-4.9-0.9c-3.6-1.3-5.9-4.5-5.9-8.5c0-12.1,0-24.2,0-36.3c0-4.7,2.8-8.1,7.3-9.1c1.5-0.3,3-0.5,4.6-0.5
		l43.3,0l13.9-14.8c-14.4,0-44.3,0-59.1,0l-1.5,0c-1,0-2,0.1-3,0.2l-0.2,0c-5.4,0.6-10.2,2.5-14.3,5.4c-3.6,2.6-6.2,5.8-7.9,9.6
		c-1.3,3.1-2,6.4-2,10.2c0,11.4,0,22.7,0,34.1c0,1.8,0.1,4.1,0.6,6.3c1.4,5.6,4.5,10.1,9.2,13.4c5.3,3.8,11.5,5.7,18.4,5.7
		c14.9,0,29.7,0,44.6,0c1.8,0,3.6-0.2,5.4-0.5c4.1-0.7,8-2.2,11.6-4.6c0.2-0.2,1.2-0.8,2.5-1.5v0h0c0,0,0,0,0,0v6.2H1591.2z"/>
	<polygon class="st0" points="1299.9,40.6 1299.9,167.5 1318.6,167.5 1318.6,40.6 	"/>
	<path class="st0" d="M749.8,40.6v57.8c-15.7,0-67.6,0-76.6,0L661,113.2c14.6,0,66.8,0,88.8,0v54.3l18.7,0l0-127H749.8z"/>
	<path class="st0" d="M1726,83.1c0-0.2,0-0.4,0-0.6c-2.4,0-4.8,0-7.2,0c-3.8,0-7.5,0-11.3,0l-0.1,6.6c0,0-7.5-6.8-20.1-6.8
		c-7,0-13.9,0-20.9,0c-7.6,0-15.2,0-22.8,0c-2.2,0-4,0.1-5.6,0.4c-4.4,0.7-8.3,2.2-11.7,4.3c-4.9,3.1-8.2,7.2-9.9,12.1
		c-0.9,2.6-1.4,5.5-1.4,8.8c0,7.5,0,14.9,0,22.4l0,11.2c0,2,0.1,3.8,0.4,5.4c0.8,4.4,2.6,8.3,5.6,11.4c5.5,5.9,12.5,8.9,20.7,9
		c13.7,0.2,29.7,0.1,45.2,0.1l1.8,0l13.9-14.8c-16.9,0-41.3,0-57.3,0c-1.5,0-3.1-0.2-4.9-0.7c-3.9-1.1-6.4-4.1-6.7-8.4
		c0-0.5,0-0.9,0-1.4l0-12.2l0-21.8c0-1.5,0.1-3.1,0.7-4.6c1-2.7,2.9-4.5,5.5-5.3c1.7-0.6,3.4-0.8,4.9-0.9c6.5-0.1,12.9,0,19.4,0
		l6.6,0l6.5,0c6.5,0,13,0,19.5,0c1.5,0,3.1,0.3,4.7,0.9c2.8,0.9,4.7,3,5.5,5.9c0.3,1.2,0.5,2.4,0.5,3.5l0.1,68.7h0v0.3c0,1,0,2,0,3
		c0,0.8-0.2,1.8-0.6,2.7c-1,2.2-2.7,3.8-5.2,4.7c-1.7,0.6-3.6,1-5.6,0.9l-22.2,0c-10.2,0-20.6,0-29.3,0l-12.2,14.8
		c13.4,0.1,36.9,0,54.2,0l12.2,0c1.3,0,2.6-0.1,3.8-0.3c4.2-0.5,8.3-1.8,12-4.1c4.5-2.8,7.7-6.3,9.6-10.8c1.3-3,1.9-6.3,1.9-10.4
		c0-21.3,0-42.6,0-63.8L1726,83.1z"/>
	<path class="st0" d="M901.8,83.2c0-0.1,0-0.3,0-0.4h-18.6v11c0,15.9,0,31.8,0,47.7c0,1.3-0.1,2.6-0.4,3.9c-0.6,2.8-2.3,4.9-4.9,6.1
		c-1.9,0.9-4,1.3-6.7,1.3h-11.7c-12.7,0-25.3,0-38,0c-1.6,0-3.1-0.2-4.6-0.5c-3.5-0.8-5.9-2.9-7-6.1c-0.5-1.5-0.5-3-0.5-4.4l0-58.2
		c0-0.2,0-0.4,0-0.6h-18.5l0,13.1c0,15.1,0,30.3,0,45.4c0,1.7,0.1,3.4,0.3,5.2c0.6,4.4,2.4,8.4,5.4,11.7c5.5,6,12.5,9.1,20.9,9.2
		l48.5,0.1c5.7,0,10.8-1.4,14.9-4.1c0.2-0.2,1.4-0.9,2.4-2.1l0,0l0,17.8c0,2.8-1.4,5.1-3.9,6.8c-2,1.3-4.4,1.9-7.3,1.9c0,0,0,0,0,0
		l-17.5,0c-11.8,0-24.7,0-34.3,0L808,202.6c16.5,0,51.5,0,66.3,0c1.1,0,2.4-0.1,3.9-0.3c5.1-0.6,9.8-2.4,13.9-5.4
		c6.4-4.7,9.6-10.9,9.7-18.4c0.1-23.5,0.1-47.4,0-70.5L901.8,83.2z"/>
</g>
</svg>
