<?xml version="1.0" encoding="utf-8"?>
<!-- Generator: Adobe Illustrator 25.2.1, SVG Export Plug-In . SVG Version: 6.00 Build 0)  -->
<svg version="1.1" id="Layer_1" xmlns="http://www.w3.org/2000/svg" xmlns:xlink="http://www.w3.org/1999/xlink" x="0px" y="0px"
	 viewBox="0 0 1842.3 557.1" style="enable-background:new 0 0 1842.3 557.1;" xml:space="preserve">
<style type="text/css">
	.st0{fill:#013A44;}
	.st1{fill:#4B8047;}
	.st2{fill:#225087;}
	.st3{fill:#F1564A;}
	.st4{fill:#D9D9D9;}
	.st5{fill:#19A1A1;}
	.st6{fill:#231F20;}
	.st7{fill:#9BC792;}
	.st8{fill:#4C7F3E;}
	.st9{fill:#2775BB;}
	.st10{fill:none;}
	.st11{fill:#80C88E;}
	.st12{fill:#24282A;}
	.st13{fill:#80C88D;}
	.st14{fill:#A8D04B;}
	.st15{fill:#F99F44;}
	.st16{fill:#AA57A2;}
	.st17{fill:#24272A;}
	.st18{fill-rule:evenodd;clip-rule:evenodd;fill:#FFEA00;}
	.st19{fill:#462DE0;}
	.st20{fill:#0B3C84;}
	.st21{fill:#005CD6;}
	.st22{fill:#FEFEFE;}
	.st23{fill:#4085DF;}
	.st24{fill:#9BEBE4;}
	.st25{fill:#A1F5E3;}
	.st26{fill:#4A9BDD;}
	.st27{fill:#4084DF;}
	.st28{fill:#005CD5;}
	.st29{fill:#1D9BCF;}
	.st30{fill:#23A7CE;}
	.st31{fill:#26AECE;}
	.st32{fill:#1A95D0;}
	.st33{fill:#20A2CF;}
	.st34{fill:#0F7DD2;}
	.st35{fill:#35CDCB;}
	.st36{fill:#39D7CA;}
	.st37{fill:#0D78D3;}
	.st38{fill:#188FD0;}
	.st39{fill:#1283D2;}
	.st40{fill:#0A72D3;}
	.st41{fill:#1487D1;}
	.st42{fill:#1F9FCF;}
	.st43{fill:#0261D5;}
	.st44{fill:#37D2CA;}
	.st45{fill:#28B3CD;}
	.st46{fill:#086DD3;}
	.st47{fill:#0669D4;}
	.st48{fill:#168BD1;}
	.st49{fill:#30C2CC;}
	.st50{fill:#0464D4;}
	.st51{fill:#2AB6CD;}
	.st52{fill:#2CBACD;}
	.st53{fill:#32C7CB;}
	.st54{fill:#2EBECC;}
	.st55{fill:#2EBFCC;}
	.st56{fill:#107ED2;}
	.st57{fill:#1385D1;}
	.st58{fill:#0B73D3;}
	.st59{fill:#20A0CF;}
	.st60{fill:#0D78D2;}
	.st61{fill:#1282D2;}
	.st62{fill:#1D9ACF;}
	.st63{fill:#1B96D0;}
	.st64{fill:#096ED3;}
	.st65{fill:#1991D0;}
	.st66{fill:#0362D5;}
	.st67{fill:#0465D4;}
	.st68{fill:#28B1CD;}
	.st69{fill:#25ABCE;}
	.st70{fill:#2AB7CD;}
	.st71{fill:#2CBBCC;}
	.st72{fill:#1E9DCF;}
	.st73{fill:#2EC0CC;}
	.st74{fill:#34CDCB;}
	.st75{fill:#30C3CC;}
	.st76{fill:#42EBC8;}
	.st77{fill:#0E79D2;}
	.st78{fill:#0C75D3;}
	.st79{fill:#0B70D4;}
	.st80{fill:#39D6CA;}
	.st81{fill:#36D1CA;}
	.st82{fill:#0B74D3;}
	.st83{fill:#43ECC8;}
	.st84{fill:#1180D2;}
	.st85{fill:#1486D1;}
	.st86{fill:#0F7BD2;}
	.st87{fill:#1386D1;}
	.st88{fill:#168AD1;}
	.st89{fill:#40E5C9;}
	.st90{fill:#3DE0C9;}
	.st91{fill:#168CD1;}
	.st92{fill:#1890D0;}
	.st93{fill:#1A94D0;}
	.st94{fill:#0362D4;}
	.st95{fill:#41E7C8;}
	.st96{fill:#0566D4;}
	.st97{fill:#1E9CCF;}
	.st98{fill:#27B1CD;}
	.st99{fill:#23A8CE;}
	.st100{fill:#25ACCE;}
	.st101{fill:#1A93D0;}
	.st102{fill:#1B97D0;}
	.st103{fill:#0D77D3;}
	.st104{fill:#21A3CF;}
	.st105{fill:#2FC2CC;}
	.st106{fill:#1589D1;}
	.st107{fill:#2DBDCC;}
	.st108{fill:#34CCCB;}
	.st109{fill:#37D1CA;}
	.st110{fill:#3CDEC9;}
	.st111{fill:#31C6CB;}
	.st112{fill:#3AD8CA;}
	.st113{fill:#27B0CD;}
	.st114{fill:#3BDCC9;}
	.st115{fill:#24AACE;}
	.st116{fill:#22A5CE;}
	.st117{fill:#1D99D0;}
	.st118{fill:#20A1CF;}
	.st119{fill:#1F9CD0;}
	.st120{fill:#3FE3C9;}
	.st121{fill:#086ED3;}
	.st122{fill:#2DBBCC;}
	.st123{fill:#38D3CA;}
	.st124{fill:#29B5CD;}
	.st125{fill:#26ADCE;}
	.st126{fill:#24A8CE;}
	.st127{fill:#37D3CA;}
	.st128{fill:#1C95D0;}
	.st129{fill:#2FC1CC;}
	.st130{fill:#36CFCB;}
	.st131{fill:#33C9CB;}
	.st132{fill:#2BB7CD;}
	.st133{fill:#2DBCCC;}
	.st134{fill:#23A6CE;}
	.st135{fill:#35C9CC;}
	.st136{fill:#E3262D;}
	.st137{fill:none;stroke:#FFFFFF;stroke-width:1.4384;stroke-miterlimit:10;}
	.st138{fill:none;stroke:#FFFFFF;stroke-width:1.445;stroke-miterlimit:10;}
	.st139{fill:#FFFFFF;stroke:#FFFFFF;stroke-width:1.4384;stroke-miterlimit:10;}
	.st140{fill:#FFFFFF;}
	.st141{fill:#FFFFFF;stroke:#FFFFFF;stroke-width:1.445;stroke-miterlimit:10;}
</style>
<g>
	<path class="st5" d="M517.4,552.4v-25.2h33.3V342.8h-33.3v-25.2h119.3c13.8,0,26.1,2.5,36.9,7.4c10.8,4.9,19.1,11.8,25.1,20.6
		c6,8.8,9,19.2,9,31v2.7c0,11-2.2,20-6.5,27c-4.3,7-9.4,12.5-15.3,16.4c-5.9,3.9-11.7,6.8-17.3,8.6v4.7c5.7,1.3,11.6,4,17.7,7.9
		c6.1,3.9,11.3,9.4,15.5,16.6c4.2,7.2,6.3,16.2,6.3,27.2v3.4c0,12.7-3.1,23.8-9.3,33c-6.2,9.3-14.7,16.3-25.5,21.1
		c-10.8,4.8-23.1,7.2-36.9,7.2H517.4z M579.3,421.3h55c13.6,0,24.5-3.4,32.6-10.2c8.2-6.8,12.2-15.8,12.2-27v-3.4
		c0-11.4-4-20.5-12.1-27.3c-8-6.8-19-10.2-32.8-10.2h-55V421.3z M579.3,526.9h54c14.9,0,26.4-3.5,34.3-10.4
		c7.9-6.9,11.9-16.3,11.9-28.2v-3c0-11.9-4-21.2-11.9-28.2c-7.9-6.9-19.4-10.4-34.3-10.4h-54V526.9z"/>
	<path class="st5" d="M749.8,552.4V317.6h146.4v25.5H778.4v78.5h108.4v25.5H778.4v79.8H898v25.5H749.8z"/>
	<path class="st5" d="M1016.9,557.1c-17.2,0-32.6-3-46.2-9.1s-24.3-15.1-32.1-27.3c-7.8-12.2-11.7-27.4-11.7-45.8v-7H955v7
		c0,19.5,5.8,33.9,17.3,43.4c11.6,9.5,26.4,14.3,44.5,14.3c18.6,0,32.7-4.1,42.5-12.4c9.7-8.3,14.6-18.7,14.6-31.2
		c0-8.7-2.2-15.6-6.6-20.8c-4.4-5.1-10.6-9.3-18.5-12.6c-7.9-3.2-17.2-6.1-27.9-8.6l-17.7-4.4c-13.8-3.6-26-7.9-36.7-13.1
		c-10.6-5.1-19-11.9-25-20.3c-6-8.4-9-19.2-9-32.4c0-13.2,3.3-24.6,10-34.2c6.7-9.6,16.1-17,28.2-22.1c12.1-5.1,26.1-7.7,42-7.7
		c16.1,0,30.5,2.7,43.3,8.2c12.8,5.5,22.9,13.5,30.2,24.2c7.4,10.6,11,24,11,40.1v14.1h-28.2v-14.1c0-11.4-2.4-20.6-7.3-27.5
		c-4.9-6.9-11.6-12.1-20-15.4c-8.5-3.4-18.2-5-29-5c-15.6,0-28.2,3.4-37.7,10.2c-9.5,6.8-14.3,16.5-14.3,29c0,8.3,2,15,6.1,20.1
		c4.1,5.1,9.9,9.3,17.3,12.6c7.5,3.2,16.4,6.1,26.8,8.6l17.7,4.4c13.8,2.9,26.2,6.9,37.2,11.9c11,5,19.8,11.9,26.3,20.5
		c6.6,8.6,9.9,19.8,9.9,33.7c0,13.9-3.5,25.9-10.5,36.2c-7,10.3-16.9,18.3-29.7,24C1049.1,554.3,1034.1,557.1,1016.9,557.1z"/>
	<path class="st5" d="M1228.5,557.1c-17.7,0-33.1-3.1-46.2-9.4c-13.1-6.3-23.3-15.6-30.6-28c-7.3-12.4-10.9-27.7-10.9-45.8V317.6
		h28.2v156.6c0,19.2,5.2,33.7,15.6,43.3c10.4,9.6,25,14.4,43.8,14.4c18.8,0,33.4-4.8,43.8-14.4c10.4-9.6,15.6-24,15.6-43.3V317.6
		h28.5v156.3c0,18.1-3.6,33.4-10.9,45.8c-7.3,12.4-17.5,21.8-30.7,28C1261.7,554,1246.2,557.1,1228.5,557.1z"/>
</g>
<g>
	<path class="st0" d="M1329,207.8c0.1-0.7,0.1-1.4,0.2-2.1c0,0,0,0,0-0.1h-18.5l-0.1,0.5c-0.5,4.2-3.2,7.2-7.1,8.1
		c-1.5,0.3-3.1,0.5-4.6,0.5c-17.7,0-35.4,0-53.1,0c-1.5,0-3.1-0.2-4.6-0.5c-3.5-0.8-5.8-2.9-6.8-6c-0.4-1.2-0.6-2.6-0.6-4
		c-0.1-2-0.1-4.1,0-6.1v-1.9v-2.3l95.6,0.2l0-6.7c0-5.1,0-10.3,0-15.4c0-2.4-0.2-4.5-0.5-6.5c-0.8-5.3-3.2-9.8-7.3-13.3
		c-5.4-4.8-12.1-7.2-19.8-7.3c-8.4,0-16.9-0.1-25.4-0.1c-9.3,0-18.6,0-27.8,0l-5.7,0c-1.7,0-3.6,0.2-5.6,0.5
		c-3.4,0.6-6.5,1.7-9.4,3.3c-4.3,2.4-7.6,5.6-9.8,9.6c-2,3.6-3,7.5-3,12l0,14.4c0,6.5,0,13,0,19.5c0,1.3,0.1,2.7,0.3,4.1
		c1,7.2,4.9,12.9,11.5,16.9c4.9,2.9,10.5,4.4,16.6,4.4c17.3,0,34.5,0,51.8,0l5.8,0c5,0,9.7-1,13.9-3
		C1323.2,222.6,1327.8,216.5,1329,207.8z M1233.7,169c0.2-4.6,3-7.9,7.6-8.9c1.5-0.3,3.1-0.5,4.7-0.5c13.6,0,27.1,0,40.7,0h11.9
		c1.6,0,3.8,0.1,5.9,0.8c3.7,1.3,5.8,4,6.1,7.8c0.2,2.2,0.1,4.5,0.1,6.7c0,0.9,0,1.9,0,2.8l0,1.3h-77v-1.7c0-0.8,0-1.6,0-2.5
		C1233.6,173,1233.6,171,1233.7,169z"/>
	<path class="st0" d="M1734.1,165.5c-0.8-5.3-3.2-9.8-7.3-13.3c-5.4-4.8-12.1-7.2-19.8-7.3c-8.4,0-16.9-0.1-25.4-0.1
		c-9.3,0-18.6,0-27.8,0l-5.7,0c-1.7,0-3.6,0.2-5.6,0.5c-3.4,0.6-6.5,1.7-9.4,3.3c-4.3,2.4-7.6,5.6-9.8,9.6c-2,3.6-3,7.5-3,12l0,14.4
		c0,6.5,0,13,0,19.5c0,1.3,0.1,2.7,0.3,4.1c1,7.2,4.9,12.9,11.5,16.9c4.9,2.9,10.5,4.4,16.6,4.4c17.3,0,34.5,0,51.8,0l5.8,0
		c5,0,9.7-1,13.9-3c8.3-4,12.9-10.2,14-18.8c0.1-0.7,0.1-1.4,0.2-2.1c0,0,0,0,0-0.1H1716l-0.1,0.5c-0.5,4.2-3.2,7.2-7.1,8.1
		c-1.5,0.3-3.1,0.5-4.6,0.5c-17.7,0-35.4,0-53.1,0c-1.5,0-3.1-0.2-4.6-0.5c-3.5-0.8-5.8-2.9-6.8-6c-0.4-1.2-0.6-2.6-0.6-4
		c-0.1-2-0.1-4.1,0-6.1v-1.9v-2.3l95.6,0.2l0-6.7c0-5.1,0-10.3,0-15.4C1734.6,169.6,1734.4,167.5,1734.1,165.5z M1716,174.9
		c0,0.9,0,1.9,0,2.8l0,1.3h-77v-1.7c0-0.8,0-1.6,0-2.5c0-1.9,0-4,0.1-5.9c0.2-4.6,3-7.9,7.6-8.9c1.5-0.3,3.1-0.5,4.7-0.5
		c13.6,0,27.1,0,40.7,0h11.9c1.6,0,3.8,0.1,5.9,0.8c3.7,1.3,5.8,4,6.1,7.8C1716.1,170.5,1716,172.8,1716,174.9z"/>
	<path class="st0" d="M1045.8,165.5c-0.8-5.3-3.2-9.8-7.3-13.3c-5.4-4.8-12.1-7.2-19.8-7.3c-8.4,0-16.9-0.1-25.4-0.1
		c-9.3,0-18.6,0-27.7,0l-5.7,0c-1.7,0-3.6,0.2-5.6,0.5c-3.4,0.6-6.5,1.7-9.4,3.3c-4.3,2.4-7.6,5.6-9.8,9.6c-2,3.6-3,7.5-3,12l0,14.3
		c0,6.6,0,13.1,0,19.7c0,1.3,0.1,2.7,0.3,4.1c1,7.2,4.9,12.9,11.5,16.9c4.9,2.9,10.5,4.4,16.6,4.4c17.3,0,34.5,0,51.8,0l5.8,0
		c5,0,9.7-1,13.9-3c8.3-4,12.9-10.2,14-18.8c0.1-0.7,0.1-1.4,0.2-2.1c0,0,0,0,0-0.1h-18.5l-0.1,0.5c-0.5,4.2-3.2,7.2-7.1,8.1
		c-1.5,0.3-3.1,0.5-4.6,0.5c-17.7,0-35.4,0-53.1,0c-1.5,0-3.1-0.2-4.6-0.5c-3.5-0.8-5.8-2.9-6.8-6c-0.4-1.2-0.6-2.6-0.6-4
		c-0.1-2-0.1-4.1,0-6.1l0-1.9c0-0.3,0-0.5,0.1-0.8l0.2-1.3h95.3l0-6.7c0-5.1,0-10.3,0-15.4C1046.2,169.6,1046.1,167.5,1045.8,165.5z
		 M1027.7,175.1c0,0.9,0,1.9,0,2.8c0,0.3-0.1,0.5-0.2,0.6l-0.2,0.6l-0.7,0.1h-75.7l-0.1-1.1c0-0.2-0.1-0.4-0.1-0.6
		c0-0.8,0-1.6,0-2.5c0-1.9,0-4,0.1-5.9c0.2-4.6,3-7.9,7.6-8.9c1.5-0.3,3.1-0.5,4.7-0.5c13.6,0,27.1,0,40.7,0h11.9
		c1.6,0,3.8,0.1,5.9,0.8c3.7,1.3,5.8,4,6.1,7.8C1027.7,170.6,1027.7,172.9,1027.7,175.1z"/>
	<path class="st0" d="M534.3,167.3v-65.6h-18.7v127.8c2.2,0,3.9,0,5.9,0c3,0,6.5,0,12.7-0.1V215c0.1-12.8,0-9.9,0-22.7V167.3z"/>
	<path class="st0" d="M1839,158.1c-2.2-4.2-5.4-7.4-9.5-9.7c-4.1-2.3-8.8-3.4-14.4-3.5c-7.5-0.1-14.3-0.1-20.7,0
		c-4.3,0.1-8.6,1-12.3,2.6c-2.5,1.1-4.7,2.8-6.7,4.7l-0.1,0.1v-7.2h-18.7c0,0,0.4,84.7,0.1,84.5h18.5l0.3-57.3
		c0-1.7,0.1-3.2,0.3-4.5c0.4-3.3,2.2-5.7,5.3-7c2.2-0.9,4.4-1.1,6.3-1.1c8.1,0,16.1,0,24.2,0c1.3,0,2.6,0.2,3.9,0.4
		c4.7,0.7,7.7,4.1,8,9.1c0,0,0,0,0,0h18.6C1841.7,164.7,1840.7,161.2,1839,158.1z"/>
	<path class="st0" d="M1151.8,158.1c-2.2-4.2-5.4-7.4-9.5-9.7c-4.1-2.3-8.8-3.4-14.4-3.5c-7.5-0.1-14.3-0.1-20.7,0
		c-4.3,0.1-8.6,1-12.3,2.6c-2.5,1.1-4.7,2.8-6.7,4.7l-0.1,0.1v-7.2h-18.7c0,0,0.4,84.7,0.1,84.5h18.5l0.3-57.3
		c0-1.7,0.1-3.2,0.3-4.5c0.4-3.3,2.2-5.7,5.3-7c2.2-0.9,4.4-1.1,6.3-1.1c8.1,0,16.1,0,24.2,0c1.3,0,2.6,0.2,3.9,0.4
		c4.7,0.7,7.7,4.1,8,9.1c0,0,0,0,0,0h18.6C1154.5,164.7,1153.5,161.2,1151.8,158.1z"/>
	<path class="st0" d="M882.3,229.6c1,0,2-0.1,3-0.2l0.2,0c5.3-0.6,10.2-2.5,14.3-5.4c3.6-2.6,6.2-5.7,7.9-9.6c1.3-3.1,2-6.4,2-10.2
		c0-10.9,0-21.8,0-32.7l0-1.4c0-1.8-0.1-4.1-0.6-6.3c-1.4-5.6-4.5-10.1-9.2-13.4c-5.3-3.8-11.5-5.7-18.4-5.7c-14.9,0-29.7,0-44.6,0
		c-1.8,0-3.6,0.2-5.4,0.5c-4.1,0.7-8,2.2-11.6,4.6c-0.2,0.2-1.5,1-2.5,1.7l0,0V145h-18.6v107.4c2,0,5.5,0,9,0c3.7,0,7.4,0,9.6,0
		l0-50.8c0-10,0-20.1,0-30.1l0-0.5c0-1,0-2,0.1-3.1c0.5-3.8,2.5-6.4,5.9-7.5c1.6-0.6,3.3-0.9,4.9-0.9c6.5-0.1,12.9,0,19.4,0l6.6,0
		l6.8,0c6.4,0,12.8,0,19.2,0c1.5,0,3.2,0.3,4.9,0.9c3.6,1.3,5.9,4.5,5.9,8.5c0,12.1,0,24.2,0,36.3c0,4.7-2.8,8.1-7.3,9.1
		c-1.5,0.3-3,0.5-4.6,0.5c-12.6,0-22.9,0-33.6,0h-9.8l-13.9,14.8c14.4,0,44.3,0,59.1,0L882.3,229.6z"/>
	<path class="st0" d="M1464.6,229.3V104.5l-18.6,0.1l0,98.7c0,1,0,2-0.1,3.1c-0.5,3.8-2.5,6.4-5.9,7.5c-1.6,0.6-3.3,0.9-4.9,0.9
		l-51.9,0c-1.5,0-3.2-0.3-4.9-0.9c-3.6-1.3-5.9-4.5-5.9-8.5c0-12.1,0-24.2,0-36.3c0-4.7,2.8-8.1,7.3-9.1c1.5-0.3,3-0.5,4.6-0.5
		l43.3,0l13.9-14.8c-14.4,0-44.3,0-59.1,0l-1.5,0c-1,0-2,0.1-3,0.2l-0.2,0c-5.4,0.6-10.2,2.5-14.3,5.4c-3.6,2.6-6.2,5.8-7.9,9.6
		c-1.3,3.1-2,6.4-2,10.2c0,11.4,0,22.7,0,34.1c0,1.8,0.1,4.1,0.6,6.3c1.4,5.6,4.5,10.1,9.2,13.4c5.3,3.8,11.5,5.7,18.4,5.7
		c14.9,0,29.7,0,44.6,0c1.8,0,3.6-0.2,5.4-0.5c4.1-0.7,8-2.2,11.6-4.6c0.2-0.2,1.2-0.8,2.5-1.5v0h0c0,0,0,0,0,0v6.2H1464.6z"/>
	<polygon class="st0" points="1173.3,102.7 1173.3,229.6 1192,229.6 1192,102.7 	"/>
	<path class="st0" d="M623.2,102.7v57.8c-15.7,0-67.6,0-76.6,0l-12.2,14.8c14.6,0,66.8,0,88.8,0v54.3l18.7,0l0-127H623.2z"/>
	<path class="st0" d="M1599.4,145.3c0-0.2,0-0.4,0-0.6c-2.4,0-4.8,0-7.2,0c-3.8,0-7.5,0-11.3,0l-0.1,6.6c0,0-7.5-6.8-20.1-6.8
		c-7,0-13.9,0-20.9,0c-7.6,0-15.2,0-22.8,0c-2.2,0-4,0.1-5.6,0.4c-4.4,0.7-8.3,2.2-11.7,4.3c-4.9,3.1-8.2,7.2-9.9,12.1
		c-0.9,2.6-1.4,5.5-1.4,8.8c0,7.5,0,14.9,0,22.4l0,11.2c0,2,0.1,3.8,0.4,5.4c0.8,4.4,2.6,8.3,5.6,11.4c5.5,5.9,12.5,8.9,20.7,9
		c13.7,0.2,29.7,0.1,45.2,0.1l1.8,0l13.9-14.8c-16.9,0-41.3,0-57.3,0c-1.5,0-3.1-0.2-4.9-0.7c-3.9-1.1-6.4-4.1-6.7-8.4
		c0-0.5,0-0.9,0-1.4l0-12.2l0-21.8c0-1.5,0.1-3.1,0.7-4.6c1-2.7,2.9-4.5,5.5-5.3c1.7-0.6,3.4-0.8,4.9-0.9c6.5-0.1,12.9,0,19.4,0
		l6.6,0l6.5,0c6.5,0,13,0,19.5,0c1.5,0,3.1,0.3,4.7,0.9c2.8,0.9,4.7,3,5.5,5.9c0.3,1.2,0.5,2.4,0.5,3.5l0.1,68.7h0v0.3c0,1,0,2,0,3
		c0,0.8-0.2,1.8-0.6,2.7c-1,2.2-2.7,3.8-5.2,4.7c-1.7,0.6-3.6,1-5.6,0.9l-22.2,0c-10.2,0-20.6,0-29.3,0l-12.2,14.8
		c13.4,0.1,36.9,0,54.2,0l12.2,0c1.3,0,2.6-0.1,3.8-0.3c4.2-0.5,8.3-1.8,12-4.1c4.5-2.8,7.7-6.3,9.6-10.8c1.3-3,1.9-6.3,1.9-10.4
		c0-21.3,0-42.6,0-63.8L1599.4,145.3z"/>
	<path class="st0" d="M775.1,145.3c0-0.1,0-0.3,0-0.4h-18.6v11c0,15.9,0,31.8,0,47.7c0,1.3-0.1,2.6-0.4,3.9
		c-0.6,2.8-2.3,4.9-4.9,6.1c-1.9,0.9-4,1.3-6.7,1.3h-11.7c-12.7,0-25.3,0-38,0c-1.6,0-3.1-0.2-4.6-0.5c-3.5-0.8-5.9-2.9-7-6.1
		c-0.5-1.5-0.5-3-0.5-4.4l0-58.2c0-0.2,0-0.4,0-0.6h-18.5l0,13.1c0,15.1,0,30.3,0,45.4c0,1.7,0.1,3.4,0.3,5.2
		c0.6,4.4,2.4,8.4,5.4,11.7c5.5,6,12.5,9.1,20.9,9.2l48.5,0.1c5.7,0,10.8-1.4,14.9-4.1c0.2-0.2,1.4-0.9,2.4-2.1l0,0l0,17.8
		c0,2.8-1.4,5.1-3.9,6.8c-2,1.3-4.4,1.9-7.3,1.9c0,0,0,0,0,0l-17.5,0c-11.8,0-24.7,0-34.3,0l-12.2,14.8c16.5,0,51.5,0,66.3,0
		c1.1,0,2.4-0.1,3.9-0.3c5.1-0.6,9.8-2.4,13.9-5.4c6.4-4.7,9.6-10.9,9.7-18.4c0.1-23.5,0.1-47.4,0-70.5L775.1,145.3z"/>
</g>
<path class="st5" d="M407.8,228.7v-1.2c0-14.5-11.6-26.1-26.1-26.1h-1.2c-5.8,0-11,1.7-15.1,4.6l-129.9-74.8c0-0.6,0-1.2,0-1.7v-1.2
	c0-14.5-11.6-26.1-26.1-26.1h-1.2c-14.5,0-26.1,11.6-26.1,26.1v1.2c0,0.6,0,1.2,0,1.7L52.2,206.1c-1.7-1.2-2.9-1.7-4.6-2.9V52.4
	C56.8,48.3,63.2,39,63.2,28C63.2,12.9,51,1.3,36.5,1.3S9.9,12.9,9.9,28c0,11,6.4,20.3,15.7,24.4v151.4c-9.3,4.1-15.7,13.3-15.7,23.8
	v1.2c0,10.4,6.4,19.7,15.7,23.8v149.7c-9.3,4.1-15.7,13.3-15.7,23.8v1.2c0,14.5,11.6,26.1,26.1,26.1h1.2c5.8,0,11-1.7,15.1-4.6
	l129.9,74.8c0,0.6,0,1.2,0,1.7v1.2c0,14.5,11.6,26.1,26.1,26.1h1.2c14.5,0,26.1-11.6,26.1-26.1v-1.2c0-0.6,0-1.2,0-1.7l129.9-74.8
	c4.1,2.9,9.3,4.6,15.1,4.6h1.2c14.5,0,26.1-11.6,26.1-26.1v-0.6c0-10.4-6.4-19.7-15.7-23.8V253.1C401.4,249,407.8,239.7,407.8,228.7
	z M370.1,398.1c-12.2-20.3-33.1-42.3-59.2-63.8c-5.8,4.6-12.2,9.3-18,13.9c33.1,26.7,54,52.2,62.7,69.6c-0.6,2.9-1.2,5.8-1.2,8.7
	v1.2c0,0.6,0,1.2,0,1.7l-129.9,75.4c-3.5-2.3-7-4.1-11.6-4.6c-16.2-27.3-31.9-88.8-31.9-172.3c0-12.8,0.6-25.5,1.2-37.1
	c-7.5-3.5-14.5-7-21.5-10.4c-1.2,15.7-1.7,31.3-1.7,47.6c0,67.3,10.4,135.2,30.2,174.6l-119.5-69c22,0,51.6-7,84.1-19.7
	c-1.2-7.5-1.7-15.1-2.9-22.6c-42.9,17.4-75.4,22.6-93.4,19.1c-2.9-3.5-6.4-6.4-10.4-8.1V253.1c4.1-1.7,7.5-4.6,10.4-8.1
	c26.7-5.2,89.3,9.9,168.2,56.9c10.4,6.4,20.3,12.8,29.6,19.1c6.4-4.6,12.8-9.3,19.1-13.9c-12.2-8.1-24.4-16.2-37.1-24.4
	c-65-38.9-127-60.9-167.7-61.5l119.5-69c-10.4,20.9-18.6,49.3-23.2,81.8c7,2.9,13.9,5.8,20.9,9.3c5.8-41.2,16.2-71.4,26.1-88.2
	c4.1-0.6,8.1-2.3,11.6-4.6l129.9,75.4c0,0.6,0,1.2,0,1.7v1.2c0,2.9,0.6,5.8,1.2,8.1c-13.3,27.8-58,73.1-129.4,116
	c-11,7-22,12.8-32.5,18c0.6,8.1,1.2,16.2,2.3,23.8c13.9-7,27.8-14.5,41.8-22.6c57.4-34.2,109.6-77.7,132.8-115.4v141.5H370.1z"/>
</svg>
