<?xml version="1.0" encoding="utf-8"?>
<!-- Generator: Adobe Illustrator 25.3.1, SVG Export Plug-In . SVG Version: 6.00 Build 0)  -->
<svg version="1.1" id="Layer_1" xmlns="http://www.w3.org/2000/svg" xmlns:xlink="http://www.w3.org/1999/xlink" x="0px" y="0px"
	 viewBox="0 0 329.8 93.1" style="enable-background:new 0 0 329.8 93.1;" xml:space="preserve">
<style type="text/css">
	.st0{fill:#24272A;}
	.st1{fill:#9A2E5B;}
</style>
<g>
	<g>
		<polygon class="st0" points="121.7,20.1 130.4,20 130.4,28.8 134.9,28.8 134.8,8.5 130.3,8.5 130.4,16.1 121.7,16.1 121.6,8.5 
			117.2,8.6 117.3,28.9 121.7,28.9 		"/>
		<polygon class="st0" points="145.8,28.9 150.2,28.8 150.2,20.2 157.8,8.5 152.5,8.5 147.9,16.1 143.6,8.6 138,8.6 145.7,20.2 		
			"/>
		<path class="st0" d="M165.5,28.8l0-7.9l3.3,0c1.1,0,2.1-0.1,3-0.3c0.9-0.2,1.7-0.5,2.4-1c0.7-0.5,1.2-1.1,1.6-1.9
			c0.4-0.8,0.6-1.8,0.6-3c0-1.2-0.2-2.2-0.6-3c-0.4-0.8-1-1.4-1.7-1.9c-0.7-0.5-1.5-0.8-2.5-1c-0.9-0.2-1.9-0.3-3-0.3l-7.6,0
			l0.1,20.3L165.5,28.8z M167.7,12.3c0.4,0,0.9,0,1.3,0.1c0.5,0,0.9,0.2,1.3,0.3c0.4,0.2,0.7,0.4,0.9,0.7c0.2,0.3,0.4,0.7,0.4,1.2
			c0,0.5-0.1,0.9-0.3,1.2c-0.2,0.3-0.4,0.6-0.7,0.8c-0.3,0.2-0.6,0.3-1,0.4c-0.4,0.1-0.8,0.1-1.2,0.1l-3,0l0-4.8L167.7,12.3z"/>
		<polygon class="st0" points="193.8,28.8 193.7,24.7 183.9,24.7 183.9,20.6 192.7,20.5 192.7,16.4 183.9,16.4 183.8,12.7 
			193.2,12.6 193.1,8.5 179.3,8.6 179.4,28.9 		"/>
		<path class="st0" d="M207.9,28.8l5.4,0l-5.2-8.6c1.4-0.3,2.5-0.9,3.3-1.9c0.7-1,1.1-2.2,1.1-3.7c0-1.2-0.2-2.2-0.6-3
			c-0.4-0.8-1-1.4-1.7-1.9c-0.7-0.5-1.5-0.8-2.4-1c-0.9-0.2-1.9-0.3-2.9-0.3l-7.9,0l0.1,20.3l4.5,0l0-8.1l2.2,0L207.9,28.8z
			 M201.4,16.9l0-4.6l2.9,0c0.4,0,0.8,0,1.2,0.1c0.4,0.1,0.8,0.2,1.1,0.3c0.3,0.2,0.6,0.4,0.8,0.7c0.2,0.3,0.3,0.7,0.3,1.2
			c0,0.6-0.1,1-0.4,1.3c-0.2,0.3-0.5,0.5-0.9,0.7c-0.4,0.1-0.8,0.2-1.2,0.3c-0.4,0-0.9,0-1.3,0L201.4,16.9z"/>
		<polygon class="st0" points="229.2,28.8 229.1,24.6 220.8,24.7 220.8,8.5 216.3,8.5 216.4,28.8 		"/>
		<polygon class="st0" points="246.7,28.8 246.7,24.6 236.8,24.7 236.8,20.6 245.6,20.5 245.6,16.4 236.8,16.4 236.8,12.6 
			246.1,12.6 246.1,8.5 232.3,8.5 232.4,28.9 		"/>
		<path class="st0" d="M265.2,26.2c1-0.9,1.9-1.9,2.5-3.2c0.6-1.3,0.9-2.7,0.9-4.4c0-1.9-0.3-3.4-1-4.7c-0.6-1.3-1.5-2.3-2.6-3.2
			c-1.1-0.8-2.4-1.4-3.8-1.7c-1.5-0.4-3-0.5-4.6-0.5l-6.7,0l0.1,20.3l7.3,0c1.5,0,3-0.2,4.3-0.7C263,27.7,264.2,27,265.2,26.2z
			 M256.7,24.7l-2.3,0l-0.1-12.1l2.6,0c0.9,0,1.8,0.1,2.7,0.3c0.8,0.2,1.6,0.6,2.2,1.1c0.6,0.5,1.1,1.1,1.5,1.8
			c0.4,0.7,0.6,1.6,0.6,2.6c0,1.1-0.2,2.1-0.5,2.9c-0.4,0.8-0.9,1.4-1.5,1.9c-0.6,0.5-1.4,0.8-2.3,1.1
			C258.7,24.6,257.7,24.7,256.7,24.7z"/>
		<path class="st0" d="M283.3,16.8l0,4.1l3.6,0l0,3.3c-0.4,0.2-1,0.5-1.7,0.7c-0.7,0.2-1.5,0.3-2.5,0.3c-1,0-1.8-0.2-2.6-0.5
			c-0.8-0.3-1.4-0.8-2-1.4c-0.6-0.6-1-1.3-1.3-2.1c-0.3-0.8-0.5-1.7-0.5-2.6c0-0.9,0.1-1.8,0.4-2.6c0.3-0.8,0.7-1.5,1.3-2.1
			c0.6-0.6,1.2-1,2-1.4c0.8-0.3,1.6-0.5,2.6-0.5c1.1,0,2.1,0.2,2.9,0.5c0.8,0.3,1.5,0.8,2.1,1.4l3.1-3.5c-1-1-2.2-1.6-3.6-2
			c-1.4-0.4-2.9-0.6-4.5-0.6c-1.6,0-3.1,0.3-4.4,0.8c-1.3,0.5-2.5,1.2-3.5,2.2c-1,0.9-1.7,2.1-2.3,3.4c-0.5,1.3-0.8,2.8-0.8,4.4
			c0,1.6,0.3,3.1,0.8,4.4c0.6,1.3,1.3,2.4,2.3,3.4c1,0.9,2.1,1.6,3.5,2.1c1.3,0.5,2.8,0.7,4.4,0.7c1.5,0,3-0.2,4.4-0.5
			c1.4-0.3,2.8-0.8,4.1-1.5l-0.1-10.6L283.3,16.8z"/>
		<polygon class="st0" points="308.8,28.3 308.8,24.2 298.9,24.2 298.9,20.1 307.7,20 307.7,15.9 298.9,16 298.9,12.2 308.2,12.1 
			308.2,8 294.4,8.1 294.5,28.4 		"/>
		<path class="st0" d="M316.5,28.3l0-8.1l2.2,0l4.3,8.1l5.4,0l-5.2-8.6c1.4-0.3,2.5-0.9,3.3-1.9c0.7-1,1.1-2.2,1.1-3.7
			c0-1.2-0.2-2.2-0.6-3c-0.4-0.8-1-1.4-1.7-1.9c-0.7-0.5-1.5-0.8-2.4-1c-0.9-0.2-1.9-0.3-2.9-0.3l-7.9,0l0.1,20.3L316.5,28.3z
			 M319.3,11.8c0.4,0,0.8,0,1.2,0.1c0.4,0.1,0.8,0.2,1.1,0.3c0.3,0.2,0.6,0.4,0.8,0.7c0.2,0.3,0.3,0.7,0.3,1.2c0,0.6-0.1,1-0.4,1.3
			c-0.2,0.3-0.5,0.5-0.9,0.7c-0.4,0.1-0.8,0.2-1.2,0.3c-0.5,0-0.9,0-1.3,0l-2.6,0l0-4.6L319.3,11.8z"/>
	</g>
	<g>
		<path class="st1" d="M117.1,69.7V44.6h5.2v25c0,7.5,4,12.2,11.6,12.2s11.6-4.7,11.6-12.2v-25h5.2v25c0,10.2-5.7,16.7-16.8,16.7
			C122.7,86.4,117.1,79.8,117.1,69.7z"/>
		<path class="st1" d="M183.9,85.6l-10.4-16.3h-8.2v16.3h-5.1v-41h16.5c7.5,0,12.9,4.8,12.9,12.4c0,7.4-5.1,11.4-10.7,11.9L190,85.6
			H183.9z M184.3,57c0-4.7-3.4-7.8-8.2-7.8h-10.8v15.7h10.8C180.9,64.8,184.3,61.6,184.3,57z"/>
		<path class="st1" d="M195.2,79.9l3.1-3.9c2.6,3.1,7.1,5.9,12.9,5.9c7.3,0,9.7-3.9,9.7-7.1c0-10.6-24.3-4.7-24.3-19.3
			c0-6.8,6-11.4,14.2-11.4c6.2,0,11.1,2.2,14.5,5.8l-3.1,3.8c-3.1-3.4-7.4-4.9-11.9-4.9c-4.9,0-8.4,2.6-8.4,6.5
			c0,9.2,24.3,3.9,24.3,19.3c0,5.9-4.1,12.1-15.1,12.1C203.9,86.4,198.6,83.7,195.2,79.9z"/>
		<path class="st1" d="M262.4,85.6l-3.6-9.2h-20.4l-3.6,9.2h-5.8l16.6-41h6.3l16.5,41H262.4z M248.6,49.8L239.9,72h17.4L248.6,49.8z
			"/>
	</g>
	<g>
		<g>
			<path class="st1" d="M68.5,11.1c1.4-1.7,1.4-4.1,1.8-6.1c0.2,2.1-0.1,4.6,1.5,6.2c1.9,1.8,4.7,1.5,7.1,1.7
				c-2.3,0.4-4.9,0.3-6.8,1.8c-1.9,1.7-1.6,4.5-1.8,6.8c-0.4-2.3-0.4-4.9-2-6.6c-1.6-1.4-3.9-1.5-5.9-1.9
				C64.4,12.7,66.9,12.9,68.5,11.1z"/>
			<g>
				<path class="st1" d="M34.2,20.1c3.5,0.8,6.8-0.9,10.1-1.5c0.6,2.7,1.2,5.7,0,8.3c-1.8,2.4-4.6,4.2-5.2,7.3
					c-1.1,3.9,1,7.6,3,10.8c-0.8-3.2-1.2-6.5-0.8-9.8c6.3,0.8,11.9,4.6,15.1,10.1c-0.7-2.7-1.8-5.2-3.2-7.6
					c6.4-0.6,13.3-0.2,18.9,3.3c6.1,3.6,9.8,10.7,9.5,17.8c-0.1,6.1,1.9,12.4,6.3,16.8c0,3.2,0,6.4,0.3,9.6
					c3.6,0.1,7.3,0.1,10.9,0.4c-5.8,0.5-11.6-0.1-17.4,0c-27.1,0-54.1,0.1-81.2,0c3.8-0.2,7.6-0.4,11.5-0.8c1.9-2.7,5.7-3,7.1-6
					c2.5-4.1,3.4-9,3.6-13.8c2.6,1.8,5.5,3.1,8.5,4c-5.1-4-10-8.6-12.2-14.9c-3.9-9.3-1.9-20.3,4.2-28.2c-0.9-1-3-2-1.8-3.5
					c1.4-2.2,4-0.9,5.8,0C29.4,21.3,31.6,19.5,34.2,20.1z M49.9,70.4c0.2,4.6-0.1,9.2-1.3,13.7c1.9,0,3.9,0.1,5.8-0.1
					c1.5-0.8,2.8-2,4.2-2.9c-1.8-2.8-4.1-5.3-5.5-8.3c3.1-0.7,6.1-1.5,9-2.7C58,70.1,54,70.6,49.9,70.4z M66.2,84.2
					c3.2,0.1,6.4,0.1,9.6,0.2c1.3-1.3,2.6-2.4,4-3.6c-2.9-4.4-8.7-5.4-11.8-9.6C64.7,74.8,66.1,79.9,66.2,84.2z M35.6,72.2
					c-2.3,4.7-5.6,8.8-9.5,12.3c3.3-0.1,6.7-0.1,10-0.2c1.4-1.3,2.8-2.4,4.4-3.5C39.5,77.5,37.8,74.7,35.6,72.2z"/>
			</g>
		</g>
	</g>
</g>
</svg>
