<?xml version="1.0" encoding="utf-8"?>
<!-- Generator: Adobe Illustrator 25.2.1, SVG Export Plug-In . SVG Version: 6.00 Build 0)  -->
<svg version="1.1" id="Layer_1" xmlns="http://www.w3.org/2000/svg" xmlns:xlink="http://www.w3.org/1999/xlink" x="0px" y="0px"
	 viewBox="0 0 2300.7 430.5" style="enable-background:new 0 0 2300.7 430.5;" xml:space="preserve">
<style type="text/css">
	.st0{fill:#013A44;}
	.st1{fill:#4B8047;}
	.st2{fill:#225087;}
	.st3{fill:#F1564A;}
	.st4{fill:#D9D9D9;}
	.st5{fill:#19A1A1;}
	.st6{fill:#231F20;}
	.st7{fill:#9BC792;}
	.st8{fill:#4C7F3E;}
	.st9{fill:#2775BB;}
	.st10{fill:none;}
	.st11{fill:#80C88E;}
	.st12{fill:#24282A;}
	.st13{fill:#80C88D;}
	.st14{fill:#A8D04B;}
	.st15{fill:#F99F44;}
	.st16{fill:#AA57A2;}
	.st17{fill:#24272A;}
	.st18{fill-rule:evenodd;clip-rule:evenodd;fill:#FFEA00;}
	.st19{fill:#462DE0;}
	.st20{fill:#0B3C84;}
	.st21{fill:#005CD6;}
	.st22{fill:#FEFEFE;}
	.st23{fill:#4085DF;}
	.st24{fill:#9BEBE4;}
	.st25{fill:#A1F5E3;}
	.st26{fill:#4A9BDD;}
	.st27{fill:#4084DF;}
	.st28{fill:#005CD5;}
	.st29{fill:#1D9BCF;}
	.st30{fill:#23A7CE;}
	.st31{fill:#26AECE;}
	.st32{fill:#1A95D0;}
	.st33{fill:#20A2CF;}
	.st34{fill:#0F7DD2;}
	.st35{fill:#35CDCB;}
	.st36{fill:#39D7CA;}
	.st37{fill:#0D78D3;}
	.st38{fill:#188FD0;}
	.st39{fill:#1283D2;}
	.st40{fill:#0A72D3;}
	.st41{fill:#1487D1;}
	.st42{fill:#1F9FCF;}
	.st43{fill:#0261D5;}
	.st44{fill:#37D2CA;}
	.st45{fill:#28B3CD;}
	.st46{fill:#086DD3;}
	.st47{fill:#0669D4;}
	.st48{fill:#168BD1;}
	.st49{fill:#30C2CC;}
	.st50{fill:#0464D4;}
	.st51{fill:#2AB6CD;}
	.st52{fill:#2CBACD;}
	.st53{fill:#32C7CB;}
	.st54{fill:#2EBECC;}
	.st55{fill:#2EBFCC;}
	.st56{fill:#107ED2;}
	.st57{fill:#1385D1;}
	.st58{fill:#0B73D3;}
	.st59{fill:#20A0CF;}
	.st60{fill:#0D78D2;}
	.st61{fill:#1282D2;}
	.st62{fill:#1D9ACF;}
	.st63{fill:#1B96D0;}
	.st64{fill:#096ED3;}
	.st65{fill:#1991D0;}
	.st66{fill:#0362D5;}
	.st67{fill:#0465D4;}
	.st68{fill:#28B1CD;}
	.st69{fill:#25ABCE;}
	.st70{fill:#2AB7CD;}
	.st71{fill:#2CBBCC;}
	.st72{fill:#1E9DCF;}
	.st73{fill:#2EC0CC;}
	.st74{fill:#34CDCB;}
	.st75{fill:#30C3CC;}
	.st76{fill:#42EBC8;}
	.st77{fill:#0E79D2;}
	.st78{fill:#0C75D3;}
	.st79{fill:#0B70D4;}
	.st80{fill:#39D6CA;}
	.st81{fill:#36D1CA;}
	.st82{fill:#0B74D3;}
	.st83{fill:#43ECC8;}
	.st84{fill:#1180D2;}
	.st85{fill:#1486D1;}
	.st86{fill:#0F7BD2;}
	.st87{fill:#1386D1;}
	.st88{fill:#168AD1;}
	.st89{fill:#40E5C9;}
	.st90{fill:#3DE0C9;}
	.st91{fill:#168CD1;}
	.st92{fill:#1890D0;}
	.st93{fill:#1A94D0;}
	.st94{fill:#0362D4;}
	.st95{fill:#41E7C8;}
	.st96{fill:#0566D4;}
	.st97{fill:#1E9CCF;}
	.st98{fill:#27B1CD;}
	.st99{fill:#23A8CE;}
	.st100{fill:#25ACCE;}
	.st101{fill:#1A93D0;}
	.st102{fill:#1B97D0;}
	.st103{fill:#0D77D3;}
	.st104{fill:#21A3CF;}
	.st105{fill:#2FC2CC;}
	.st106{fill:#1589D1;}
	.st107{fill:#2DBDCC;}
	.st108{fill:#34CCCB;}
	.st109{fill:#37D1CA;}
	.st110{fill:#3CDEC9;}
	.st111{fill:#31C6CB;}
	.st112{fill:#3AD8CA;}
	.st113{fill:#27B0CD;}
	.st114{fill:#3BDCC9;}
	.st115{fill:#24AACE;}
	.st116{fill:#22A5CE;}
	.st117{fill:#1D99D0;}
	.st118{fill:#20A1CF;}
	.st119{fill:#1F9CD0;}
	.st120{fill:#3FE3C9;}
	.st121{fill:#086ED3;}
	.st122{fill:#2DBBCC;}
	.st123{fill:#38D3CA;}
	.st124{fill:#29B5CD;}
	.st125{fill:#26ADCE;}
	.st126{fill:#24A8CE;}
	.st127{fill:#37D3CA;}
	.st128{fill:#1C95D0;}
	.st129{fill:#2FC1CC;}
	.st130{fill:#36CFCB;}
	.st131{fill:#33C9CB;}
	.st132{fill:#2BB7CD;}
	.st133{fill:#2DBCCC;}
	.st134{fill:#23A6CE;}
	.st135{fill:#35C9CC;}
	.st136{fill:#E3262D;}
	.st137{fill:none;stroke:#FFFFFF;stroke-width:1.4384;stroke-miterlimit:10;}
	.st138{fill:none;stroke:#FFFFFF;stroke-width:1.445;stroke-miterlimit:10;}
	.st139{fill:#FFFFFF;stroke:#FFFFFF;stroke-width:1.4384;stroke-miterlimit:10;}
	.st140{fill:#FFFFFF;}
	.st141{fill:#FFFFFF;stroke:#FFFFFF;stroke-width:1.445;stroke-miterlimit:10;}
</style>
<g>
	<path class="st6" d="M260.3,392.8H81c-47.7,0-81-34.1-81-82.9V135.8c0-50.9,29.3-81.1,80.5-82.9h0.3l172.9,1.5
		c55.2,0,85.7,31.4,85.7,88.5l0,0v32.2h-31.8v-32.2c0-39.8-16.2-56.7-54.1-56.7L81.2,84.7c-33.8,1.3-49.5,17.6-49.5,51.2v174
		c0,31.5,18.9,51.1,49.2,51.1h179.2c32.9,0,47.9-29.5,47.9-56.9v-33.8h31.8v33.8C340,355.5,306.4,392.8,260.3,392.8z"/>
</g>
<g>
	<path class="st7" d="M531.8,426.1l67.5-218.6h46.2l67.4,218.6h-27.2l-16.8-55.2h-93L559,426.2L531.8,426.1L531.8,426.1z
		 M582.4,347.1H662l-37.5-123.7h-4.4L582.4,347.1z"/>
	<path class="st7" d="M745.7,426.1V207.5h50.9l76.2,202h4.1v-202h25.9v218.6h-50.9L776,223.7h-4.4v202.4H745.7z"/>
	<path class="st7" d="M1032.4,430.5c-26,0-46.8-7.5-62.3-22.6s-23.3-37.1-23.3-66v-50c0-28.9,7.8-51,23.3-66
		c15.5-15.1,36.3-22.6,62.3-22.6c26.2,0,47.1,7.5,62.6,22.6s23.3,37.1,23.3,66v50c0,28.9-7.8,51-23.3,66
		C1079.5,423,1058.6,430.5,1032.4,430.5z M1032.4,407.1c18.9,0,33.6-5.7,44-17s15.6-27.1,15.6-47.3v-51.9c0-20.2-5.2-36-15.6-47.3
		s-25.1-17-44-17c-18.7,0-33.3,5.7-43.7,17c-10.4,11.3-15.6,27.1-15.6,47.3v51.8c0,20.2,5.2,36,15.6,47.3
		C999.1,401.4,1013.7,407.1,1032.4,407.1z"/>
	<path class="st7" d="M1162,426.1V207.5h50.9l76.2,202h4.1v-202h25.9v218.6h-50.9l-75.9-202.4h-4.4v202.4H1162z"/>
	<path class="st8" d="M1448.3,430.5c-26,0-46.7-7.5-62.1-22.6s-23.1-37.1-23.1-66v-50c0-28.9,7.7-51,23.1-66
		c15.4-15.1,36.1-22.6,62.1-22.6c25.8,0,45.6,7.2,59.5,21.5c13.8,14.4,20.8,34,20.8,59v1.6h-25.9v-2.5c0-16.4-4.4-29.9-13.3-40.4
		s-22.5-15.8-41.1-15.8c-18.5,0-33,5.7-43.4,17s-15.6,27.2-15.6,47.6v51.2c0,20.4,5.2,36.3,15.6,47.6c10.4,11.3,24.9,17,43.4,17
		s32.2-5.3,41.1-15.8c8.8-10.5,13.3-24,13.3-40.4v-5h25.9v4.1c0,25-6.9,44.7-20.8,59C1494,423.3,1474.2,430.5,1448.3,430.5z"/>
	<path class="st8" d="M1569.8,426.1V207.5h88.4c13.5,0,25.5,2.3,35.8,7s18.4,11.4,24.2,20c5.8,8.6,8.7,19,8.7,31.1v3.4
		c0,14.4-3.4,25.7-10.3,34s-15,14-24.4,16.9v4.4c7.5,0.2,13.7,2.7,18.6,7.3c4.9,4.7,7.3,11.7,7.3,21.1v73.4h-25.9v-70.2
		c0-6.2-1.7-11-5.2-14.4c-3.4-3.3-8.6-5-15.5-5h-75.6v89.6H1569.8z M1596,312.8h59.6c14.4,0,25.5-3.5,33.3-10.5s11.7-16.7,11.7-29.2
		v-2.2c0-12.5-3.9-22.2-11.6-29.2s-18.8-10.5-33.4-10.5H1596V312.8z"/>
	<path class="st8" d="M1766.9,426.1V207.5h134.6v23.7h-108.4v73.1h99.6V328h-99.6v74.3H1903V426L1766.9,426.1L1766.9,426.1z"/>
	<path class="st8" d="M1932.4,426.1v-23.4h30.6V231h-30.6v-23.4h85.2c28.7,0,51,7.3,66.7,21.9s23.6,37,23.6,67.1v40.6
		c0,30.4-7.9,52.8-23.6,67.3c-15.7,14.5-37.9,21.7-66.7,21.7h-85.2V426.1z M1989.2,402.4h28.4c21.2,0,37.3-5.2,48.1-15.6
		s16.2-26.5,16.2-48.4v-42.8c0-22.3-5.4-38.5-16.2-48.7s-26.9-15.3-48.1-15.3h-28.4L1989.2,402.4L1989.2,402.4z"/>
	<path class="st8" d="M2222.5,430.5c-15.8,0-30-2.8-42.5-8.4s-22.3-14.1-29.5-25.5c-7.2-11.3-10.8-25.6-10.8-42.6v-6.6h25.9v6.6
		c0,18.1,5.3,31.6,15.9,40.4c10.6,8.9,24.3,13.3,40.9,13.3c17.1,0,30.1-3.8,39-11.6c8.9-7.7,13.4-17.4,13.4-29
		c0-8.1-2-14.6-6.1-19.4s-9.7-8.7-17-11.7s-15.8-5.7-25.6-8l-16.2-4.1c-12.7-3.3-23.9-7.4-33.7-12.2c-9.8-4.8-17.4-11.1-23-18.9
		c-5.5-7.8-8.3-17.8-8.3-30.1c0-12.3,3.1-22.9,9.2-31.9c6.1-8.9,14.8-15.8,25.9-20.6c11.1-4.8,24-7.2,38.6-7.2
		c14.8,0,28.1,2.6,39.8,7.7c11.8,5.1,21,12.6,27.8,22.5s10.1,22.3,10.1,37.3v13.1h-25.9v-13.1c0-10.6-2.2-19.2-6.7-25.6
		c-4.5-6.5-10.6-11.2-18.4-14.4c-7.8-3.1-16.7-4.7-26.7-4.7c-14.4,0-25.9,3.2-34.7,9.5c-8.7,6.4-13.1,15.4-13.1,27
		c0,7.7,1.9,13.9,5.6,18.7c3.7,4.8,9.1,8.7,15.9,11.7c6.9,3,15.1,5.7,24.7,8l16.2,4.1c12.7,2.7,24.1,6.4,34.2,11.1
		c10.1,4.7,18.2,11,24.2,19s9.1,18.5,9.1,31.4s-3.2,24.2-9.7,33.7c-6.5,9.6-15.6,17-27.3,22.3
		C2252.1,427.8,2238.3,430.5,2222.5,430.5z"/>
</g>
<rect x="120.3" y="122.7" class="st7" width="97.8" height="40.4"/>
<rect x="121.1" y="283.9" class="st7" width="97.8" height="40.4"/>
<rect x="121.1" y="202.6" class="st8" width="299.7" height="40.4"/>
<g>
	<polygon class="st8" points="455.8,224.6 412,199.3 412,250 	"/>
	<polygon class="st8" points="391.8,285 391.8,164.3 496.2,224.6 	"/>
</g>
<g>
	<path class="st0" d="M1355.2,106.1c0.1-0.7,0.1-1.4,0.2-2.1c0,0,0,0,0-0.1h-18.5l-0.1,0.5c-0.5,4.2-3.2,7.2-7.1,8.1
		c-1.5,0.3-3.1,0.5-4.6,0.5c-17.7,0-35.4,0-53.1,0c-1.5,0-3.1-0.2-4.6-0.5c-3.5-0.8-5.8-2.9-6.8-6c-0.4-1.2-0.6-2.6-0.6-4
		c-0.1-2-0.1-4.1,0-6.1v-1.9v-2.3l95.6,0.2v-6.7c0-5.1,0-10.3,0-15.4c0-2.4-0.2-4.5-0.5-6.5c-0.8-5.3-3.2-9.8-7.3-13.3
		c-5.4-4.8-12.1-7.2-19.8-7.3c-8.4,0-16.9-0.1-25.4-0.1c-9.3,0-18.6,0-27.8,0h-5.7c-1.7,0-3.6,0.2-5.6,0.5c-3.4,0.6-6.5,1.7-9.4,3.3
		c-4.3,2.4-7.6,5.6-9.8,9.6c-2,3.6-3,7.5-3,12v14.4c0,6.5,0,13,0,19.5c0,1.3,0.1,2.7,0.3,4.1c1,7.2,4.9,12.9,11.5,16.9
		c4.9,2.9,10.5,4.4,16.6,4.4c17.3,0,34.5,0,51.8,0h5.8c5,0,9.7-1,13.9-3C1349.4,121,1354,114.8,1355.2,106.1z M1259.9,67.4
		c0.2-4.6,3-7.9,7.6-8.9c1.5-0.3,3.1-0.5,4.7-0.5c13.6,0,27.1,0,40.7,0h11.9c1.6,0,3.8,0.1,5.9,0.8c3.7,1.3,5.8,4,6.1,7.8
		c0.2,2.2,0.1,4.5,0.1,6.7c0,0.9,0,1.9,0,2.8v1.3h-77v-1.7c0-0.8,0-1.6,0-2.5C1259.8,71.4,1259.8,69.3,1259.9,67.4z"/>
	<path class="st0" d="M1760.3,63.9c-0.8-5.3-3.2-9.8-7.3-13.3c-5.4-4.8-12.1-7.2-19.8-7.3c-8.4,0-16.9-0.1-25.4-0.1
		c-9.3,0-18.6,0-27.8,0h-5.7c-1.7,0-3.6,0.2-5.6,0.5c-3.4,0.6-6.5,1.7-9.4,3.3c-4.3,2.4-7.6,5.6-9.8,9.6c-2,3.6-3,7.5-3,12V83
		c0,6.5,0,13,0,19.5c0,1.3,0.1,2.7,0.3,4.1c1,7.2,4.9,12.9,11.5,16.9c4.9,2.9,10.5,4.4,16.6,4.4c17.3,0,34.5,0,51.8,0h5.8
		c5,0,9.7-1,13.9-3c8.3-4,12.9-10.2,14-18.8c0.1-0.7,0.1-1.4,0.2-2.1c0,0,0,0,0-0.1h-18.5l-0.1,0.5c-0.5,4.2-3.2,7.2-7.1,8.1
		c-1.5,0.3-3.1,0.5-4.6,0.5c-17.7,0-35.4,0-53.1,0c-1.5,0-3.1-0.2-4.6-0.5c-3.5-0.8-5.8-2.9-6.8-6c-0.4-1.2-0.6-2.6-0.6-4
		c-0.1-2-0.1-4.1,0-6.1v-1.9v-2.3l95.6,0.2v-6.7c0-5.1,0-10.3,0-15.4C1760.8,67.9,1760.6,65.8,1760.3,63.9z M1742.2,73.3
		c0,0.9,0,1.9,0,2.8v1.3h-77v-1.7c0-0.8,0-1.6,0-2.5c0-1.9,0-4,0.1-5.9c0.2-4.6,3-7.9,7.6-8.9c1.5-0.3,3.1-0.5,4.7-0.5
		c13.6,0,27.1,0,40.7,0h11.9c1.6,0,3.8,0.1,5.9,0.8c3.7,1.3,5.8,4,6.1,7.8C1742.3,68.8,1742.2,71.1,1742.2,73.3z"/>
	<path class="st0" d="M1072,63.9c-0.8-5.3-3.2-9.8-7.3-13.3c-5.4-4.8-12.1-7.2-19.8-7.3c-8.4,0-16.9-0.1-25.4-0.1
		c-9.3,0-18.6,0-27.7,0h-5.7c-1.7,0-3.6,0.2-5.6,0.5c-3.4,0.6-6.5,1.7-9.4,3.3c-4.3,2.4-7.6,5.6-9.8,9.6c-2,3.6-3,7.5-3,12v14.3
		c0,6.6,0,13.1,0,19.7c0,1.3,0.1,2.7,0.3,4.1c1,7.2,4.9,12.9,11.5,16.9c4.9,2.9,10.5,4.4,16.6,4.4c17.3,0,34.5,0,51.8,0h5.8
		c5,0,9.7-1,13.9-3c8.3-4,12.9-10.2,14-18.8c0.1-0.7,0.1-1.4,0.2-2.1c0,0,0,0,0-0.1h-18.5l-0.1,0.5c-0.5,4.2-3.2,7.2-7.1,8.1
		c-1.5,0.3-3.1,0.5-4.6,0.5c-17.7,0-35.4,0-53.1,0c-1.5,0-3.1-0.2-4.6-0.5c-3.5-0.8-5.8-2.9-6.8-6c-0.4-1.2-0.6-2.6-0.6-4
		c-0.1-2-0.1-4.1,0-6.1v-1.9c0-0.3,0-0.5,0.1-0.8l0.2-1.3h95.3v-6.7c0-5.1,0-10.3,0-15.4C1072.4,67.9,1072.3,65.8,1072,63.9z
		 M1053.9,73.4c0,0.9,0,1.9,0,2.8c0,0.3-0.1,0.5-0.2,0.6l-0.2,0.6l-0.7,0.1h-75.7l-0.1-1.1c0-0.2-0.1-0.4-0.1-0.6c0-0.8,0-1.6,0-2.5
		c0-1.9,0-4,0.1-5.9c0.2-4.6,3-7.9,7.6-8.9c1.5-0.3,3.1-0.5,4.7-0.5c13.6,0,27.1,0,40.7,0h11.9c1.6,0,3.8,0.1,5.9,0.8
		c3.7,1.3,5.8,4,6.1,7.8C1053.9,69,1053.9,71.2,1053.9,73.4z"/>
	<path class="st0" d="M560.5,65.6V0h-18.6v127.8c2.2,0,3.9,0,5.9,0c3,0,6.5,0,12.7-0.1v-14.4c0.1-12.8,0-9.9,0-22.7V65.6L560.5,65.6
		z"/>
	<path class="st0" d="M1865.2,56.4c-2.2-4.2-5.4-7.4-9.5-9.7c-4.1-2.3-8.8-3.4-14.4-3.5c-7.5-0.1-14.3-0.1-20.7,0
		c-4.3,0.1-8.6,1-12.3,2.6c-2.5,1.1-4.7,2.8-6.7,4.7l-0.1,0.1v-7.2h-18.7c0,0,0.4,84.7,0.1,84.5h18.5l0.3-57.3
		c0-1.7,0.1-3.2,0.3-4.5c0.4-3.3,2.2-5.7,5.3-7c2.2-0.9,4.4-1.1,6.3-1.1c8.1,0,16.1,0,24.2,0c1.3,0,2.6,0.2,3.9,0.4
		c4.7,0.7,7.7,4.1,8,9.1l0,0h18.6C1867.9,63.1,1866.8,59.5,1865.2,56.4z"/>
	<path class="st0" d="M1178,56.4c-2.2-4.2-5.4-7.4-9.5-9.7c-4.1-2.3-8.8-3.4-14.4-3.5c-7.5-0.1-14.3-0.1-20.7,0
		c-4.3,0.1-8.6,1-12.3,2.6c-2.5,1.1-4.7,2.8-6.7,4.7l-0.1,0.1v-7.2h-18.7c0,0,0.4,84.7,0.1,84.5h18.5l0.3-57.3
		c0-1.7,0.1-3.2,0.3-4.5c0.4-3.3,2.2-5.7,5.3-7c2.2-0.9,4.4-1.1,6.3-1.1c8.1,0,16.1,0,24.2,0c1.3,0,2.6,0.2,3.9,0.4
		c4.7,0.7,7.7,4.1,8,9.1l0,0h18.6C1180.7,63.1,1179.6,59.5,1178,56.4z"/>
	<path class="st0" d="M908.5,128c1,0,2-0.1,3-0.2h0.2c5.3-0.6,10.2-2.5,14.3-5.4c3.6-2.6,6.2-5.7,7.9-9.6c1.3-3.1,2-6.4,2-10.2
		c0-10.9,0-21.8,0-32.7v-1.4c0-1.8-0.1-4.1-0.6-6.3c-1.4-5.6-4.5-10.1-9.2-13.4c-5.3-3.8-11.5-5.7-18.4-5.7c-14.9,0-29.7,0-44.6,0
		c-1.8,0-3.6,0.2-5.4,0.5c-4.1,0.7-8,2.2-11.6,4.6c-0.2,0.2-1.5,1-2.5,1.7l0,0v-6.4H825v107.4c2,0,5.5,0,9,0c3.7,0,7.4,0,9.6,0
		v-50.8c0-10,0-20.1,0-30.1v-0.5c0-1,0-2,0.1-3.1c0.5-3.8,2.5-6.4,5.9-7.5c1.6-0.6,3.3-0.9,4.9-0.9c6.5-0.1,12.9,0,19.4,0h6.6h6.8
		c6.4,0,12.8,0,19.2,0c1.5,0,3.2,0.3,4.9,0.9c3.6,1.3,5.9,4.5,5.9,8.5c0,12.1,0,24.2,0,36.3c0,4.7-2.8,8.1-7.3,9.1
		c-1.5,0.3-3,0.5-4.6,0.5c-12.6,0-22.9,0-33.6,0H862l-13.9,14.8c14.4,0,44.3,0,59.1,0L908.5,128z"/>
	<path class="st0" d="M1490.8,127.6V2.9L1472.2,3v98.7c0,1,0,2-0.1,3.1c-0.5,3.8-2.5,6.4-5.9,7.5c-1.6,0.6-3.3,0.9-4.9,0.9h-51.9
		c-1.5,0-3.2-0.3-4.9-0.9c-3.6-1.3-5.9-4.5-5.9-8.5c0-12.1,0-24.2,0-36.3c0-4.7,2.8-8.1,7.3-9.1c1.5-0.3,3-0.5,4.6-0.5h43.3
		l13.9-14.8c-14.4,0-44.3,0-59.1,0h-1.5c-1,0-2,0.1-3,0.2h-0.2c-5.4,0.6-10.2,2.5-14.3,5.4c-3.6,2.6-6.2,5.8-7.9,9.6
		c-1.3,3.1-2,6.4-2,10.2c0,11.4,0,22.7,0,34.1c0,1.8,0.1,4.1,0.6,6.3c1.4,5.6,4.5,10.1,9.2,13.4c5.3,3.8,11.5,5.7,18.4,5.7
		c14.9,0,29.7,0,44.6,0c1.8,0,3.6-0.2,5.4-0.5c4.1-0.7,8-2.2,11.6-4.6c0.2-0.2,1.2-0.8,2.5-1.5l0,0l0,0l0,0v6.2L1490.8,127.6
		L1490.8,127.6z"/>
	<polygon class="st0" points="1199.5,1 1199.5,128 1218.2,128 1218.2,1 	"/>
	<path class="st0" d="M649.4,1v57.9c-15.7,0-67.6,0-76.6,0l-12.2,14.8c14.6,0,66.8,0,88.8,0V128h18.7V1C668.1,1,649.4,1,649.4,1z"/>
	<path class="st0" d="M1625.6,43.6c0-0.2,0-0.4,0-0.6c-2.4,0-4.8,0-7.2,0c-3.8,0-7.5,0-11.3,0l-0.1,6.6c0,0-7.5-6.8-20.1-6.8
		c-7,0-13.9,0-20.9,0c-7.6,0-15.2,0-22.8,0c-2.2,0-4,0.1-5.6,0.4c-4.4,0.7-8.3,2.2-11.7,4.3c-4.9,3.1-8.2,7.2-9.9,12.1
		c-0.9,2.6-1.4,5.5-1.4,8.8c0,7.5,0,14.9,0,22.4V102c0,2,0.1,3.8,0.4,5.4c0.8,4.4,2.6,8.3,5.6,11.4c5.5,5.9,12.5,8.9,20.7,9
		c13.7,0.2,29.7,0.1,45.2,0.1h1.8l13.9-14.8c-16.9,0-41.3,0-57.3,0c-1.5,0-3.1-0.2-4.9-0.7c-3.9-1.1-6.4-4.1-6.7-8.4
		c0-0.5,0-0.9,0-1.4V90.4V68.6c0-1.5,0.1-3.1,0.7-4.6c1-2.7,2.9-4.5,5.5-5.3c1.7-0.6,3.4-0.8,4.9-0.9c6.5-0.1,12.9,0,19.4,0h6.6h6.5
		c6.5,0,13,0,19.5,0c1.5,0,3.1,0.3,4.7,0.9c2.8,0.9,4.7,3,5.5,5.9c0.3,1.2,0.5,2.4,0.5,3.5l0.1,68.7l0,0v0.3c0,1,0,2,0,3
		c0,0.8-0.2,1.8-0.6,2.7c-1,2.2-2.7,3.8-5.2,4.7c-1.7,0.6-3.6,1-5.6,0.9h-22.2c-10.2,0-20.6,0-29.3,0l-12.2,14.8
		c13.4,0.1,36.9,0,54.2,0h12.2c1.3,0,2.6-0.1,3.8-0.3c4.2-0.5,8.3-1.8,12-4.1c4.5-2.8,7.7-6.3,9.6-10.8c1.3-3,1.9-6.3,1.9-10.4
		c0-21.3,0-42.6,0-63.8L1625.6,43.6z"/>
	<path class="st0" d="M801.3,43.7c0-0.1,0-0.3,0-0.4h-18.6v11c0,15.9,0,31.8,0,47.7c0,1.3-0.1,2.6-0.4,3.9c-0.6,2.8-2.3,4.9-4.9,6.1
		c-1.9,0.9-4,1.3-6.7,1.3H759c-12.7,0-25.3,0-38,0c-1.6,0-3.1-0.2-4.6-0.5c-3.5-0.8-5.9-2.9-7-6.1c-0.5-1.5-0.5-3-0.5-4.4V44.1
		c0-0.2,0-0.4,0-0.6h-18.5v13.1c0,15.1,0,30.3,0,45.4c0,1.7,0.1,3.4,0.3,5.2c0.6,4.4,2.4,8.4,5.4,11.7c5.5,6,12.5,9.1,20.9,9.2
		l48.5,0.1c5.7,0,10.8-1.4,14.9-4.1c0.2-0.2,1.4-0.9,2.4-2.1l0,0v17.8c0,2.8-1.4,5.1-3.9,6.8c-2,1.3-4.4,1.9-7.3,1.9l0,0h-17.5
		c-11.8,0-24.7,0-34.3,0l-12.2,14.8c16.5,0,51.5,0,66.3,0c1.1,0,2.4-0.1,3.9-0.3c5.1-0.6,9.8-2.4,13.9-5.4
		c6.4-4.7,9.6-10.9,9.7-18.4c0.1-23.5,0.1-47.4,0-70.5L801.3,43.7z"/>
</g>
</svg>
