<?xml version="1.0" encoding="utf-8"?>
<!-- Generator: Adobe Illustrator 25.2.1, SVG Export Plug-In . SVG Version: 6.00 Build 0)  -->
<svg version="1.1" id="Layer_1" xmlns="http://www.w3.org/2000/svg" xmlns:xlink="http://www.w3.org/1999/xlink" x="0px" y="0px"
	 viewBox="0 0 1852.9 539.3" style="enable-background:new 0 0 1852.9 539.3;" xml:space="preserve">
<style type="text/css">
	.st0{fill:#013A44;}
	.st1{fill:#4B8047;}
	.st2{fill:#225087;}
	.st3{fill:#F1564A;}
	.st4{fill:#D9D9D9;}
	.st5{fill:#19A1A1;}
	.st6{fill:#231F20;}
	.st7{fill:#9BC792;}
	.st8{fill:#4C7F3E;}
	.st9{fill:#2775BB;}
	.st10{fill:none;}
	.st11{fill:#80C88E;}
	.st12{fill:#24282A;}
	.st13{fill:#80C88D;}
	.st14{fill:#A8D04B;}
	.st15{fill:#F99F44;}
	.st16{fill:#AA57A2;}
	.st17{fill:#24272A;}
	.st18{fill-rule:evenodd;clip-rule:evenodd;fill:#FFEA00;}
	.st19{fill:#462DE0;}
	.st20{fill:#0B3C84;}
	.st21{fill:#005CD6;}
	.st22{fill:#FEFEFE;}
	.st23{fill:#4085DF;}
	.st24{fill:#9BEBE4;}
	.st25{fill:#A1F5E3;}
	.st26{fill:#4A9BDD;}
	.st27{fill:#4084DF;}
	.st28{fill:#005CD5;}
	.st29{fill:#1D9BCF;}
	.st30{fill:#23A7CE;}
	.st31{fill:#26AECE;}
	.st32{fill:#1A95D0;}
	.st33{fill:#20A2CF;}
	.st34{fill:#0F7DD2;}
	.st35{fill:#35CDCB;}
	.st36{fill:#39D7CA;}
	.st37{fill:#0D78D3;}
	.st38{fill:#188FD0;}
	.st39{fill:#1283D2;}
	.st40{fill:#0A72D3;}
	.st41{fill:#1487D1;}
	.st42{fill:#1F9FCF;}
	.st43{fill:#0261D5;}
	.st44{fill:#37D2CA;}
	.st45{fill:#28B3CD;}
	.st46{fill:#086DD3;}
	.st47{fill:#0669D4;}
	.st48{fill:#168BD1;}
	.st49{fill:#30C2CC;}
	.st50{fill:#0464D4;}
	.st51{fill:#2AB6CD;}
	.st52{fill:#2CBACD;}
	.st53{fill:#32C7CB;}
	.st54{fill:#2EBECC;}
	.st55{fill:#2EBFCC;}
	.st56{fill:#107ED2;}
	.st57{fill:#1385D1;}
	.st58{fill:#0B73D3;}
	.st59{fill:#20A0CF;}
	.st60{fill:#0D78D2;}
	.st61{fill:#1282D2;}
	.st62{fill:#1D9ACF;}
	.st63{fill:#1B96D0;}
	.st64{fill:#096ED3;}
	.st65{fill:#1991D0;}
	.st66{fill:#0362D5;}
	.st67{fill:#0465D4;}
	.st68{fill:#28B1CD;}
	.st69{fill:#25ABCE;}
	.st70{fill:#2AB7CD;}
	.st71{fill:#2CBBCC;}
	.st72{fill:#1E9DCF;}
	.st73{fill:#2EC0CC;}
	.st74{fill:#34CDCB;}
	.st75{fill:#30C3CC;}
	.st76{fill:#42EBC8;}
	.st77{fill:#0E79D2;}
	.st78{fill:#0C75D3;}
	.st79{fill:#0B70D4;}
	.st80{fill:#39D6CA;}
	.st81{fill:#36D1CA;}
	.st82{fill:#0B74D3;}
	.st83{fill:#43ECC8;}
	.st84{fill:#1180D2;}
	.st85{fill:#1486D1;}
	.st86{fill:#0F7BD2;}
	.st87{fill:#1386D1;}
	.st88{fill:#168AD1;}
	.st89{fill:#40E5C9;}
	.st90{fill:#3DE0C9;}
	.st91{fill:#168CD1;}
	.st92{fill:#1890D0;}
	.st93{fill:#1A94D0;}
	.st94{fill:#0362D4;}
	.st95{fill:#41E7C8;}
	.st96{fill:#0566D4;}
	.st97{fill:#1E9CCF;}
	.st98{fill:#27B1CD;}
	.st99{fill:#23A8CE;}
	.st100{fill:#25ACCE;}
	.st101{fill:#1A93D0;}
	.st102{fill:#1B97D0;}
	.st103{fill:#0D77D3;}
	.st104{fill:#21A3CF;}
	.st105{fill:#2FC2CC;}
	.st106{fill:#1589D1;}
	.st107{fill:#2DBDCC;}
	.st108{fill:#34CCCB;}
	.st109{fill:#37D1CA;}
	.st110{fill:#3CDEC9;}
	.st111{fill:#31C6CB;}
	.st112{fill:#3AD8CA;}
	.st113{fill:#27B0CD;}
	.st114{fill:#3BDCC9;}
	.st115{fill:#24AACE;}
	.st116{fill:#22A5CE;}
	.st117{fill:#1D99D0;}
	.st118{fill:#20A1CF;}
	.st119{fill:#1F9CD0;}
	.st120{fill:#3FE3C9;}
	.st121{fill:#086ED3;}
	.st122{fill:#2DBBCC;}
	.st123{fill:#38D3CA;}
	.st124{fill:#29B5CD;}
	.st125{fill:#26ADCE;}
	.st126{fill:#24A8CE;}
	.st127{fill:#37D3CA;}
	.st128{fill:#1C95D0;}
	.st129{fill:#2FC1CC;}
	.st130{fill:#36CFCB;}
	.st131{fill:#33C9CB;}
	.st132{fill:#2BB7CD;}
	.st133{fill:#2DBCCC;}
	.st134{fill:#23A6CE;}
	.st135{fill:#35C9CC;}
	.st136{fill:#E3262D;}
	.st137{fill:none;stroke:#FFFFFF;stroke-width:1.4384;stroke-miterlimit:10;}
	.st138{fill:none;stroke:#FFFFFF;stroke-width:1.445;stroke-miterlimit:10;}
	.st139{fill:#FFFFFF;stroke:#FFFFFF;stroke-width:1.4384;stroke-miterlimit:10;}
	.st140{fill:#FFFFFF;}
	.st141{fill:#FFFFFF;stroke:#FFFFFF;stroke-width:1.445;stroke-miterlimit:10;}
</style>
<g>
	<path class="st13" d="M618.2,537.7c-29.2,0-52.4-8.3-69.7-25.1c-17.3-16.7-25.9-41.1-25.9-73.1v-55.3c0-32,8.6-56.4,25.9-73.1
		c17.3-16.7,40.5-25.1,69.7-25.1c28.9,0,51.2,7.9,66.7,23.8c15.5,15.9,23.3,37.7,23.3,65.3v1.7h-29.1v-2.8c0-18.2-5-33.1-14.9-44.8
		c-9.9-11.6-25.3-17.5-46-17.5c-20.8,0-37,6.3-48.7,18.8C557.9,343.4,552,361,552,383.5v56.7c0,22.6,5.8,40.1,17.5,52.7
		c11.7,12.6,27.9,18.8,48.7,18.8c20.8,0,36.1-5.8,46-17.5c9.9-11.6,14.9-26.6,14.9-44.8V444h29.1v4.5c0,27.6-7.8,49.4-23.3,65.3
		C669.4,529.7,647.1,537.7,618.2,537.7z"/>
	<path class="st13" d="M729.2,532.8l75.6-241.9h51.8l75.6,241.9h-30.5l-18.9-61.2H778.5l-18.9,61.2H729.2z M785.9,445.4h89.3
		l-42-136.9h-4.9L785.9,445.4z"/>
	<path class="st13" d="M1050.5,537.7c-29.2,0-52.4-8.3-69.7-25.1c-17.3-16.7-25.9-41.1-25.9-73.1v-55.3c0-32,8.6-56.4,25.9-73.1
		c17.3-16.7,40.5-25.1,69.7-25.1c28.9,0,51.2,7.9,66.7,23.8c15.5,15.9,23.3,37.7,23.3,65.3v1.7h-29.1v-2.8c0-18.2-5-33.1-14.9-44.8
		c-9.9-11.6-25.3-17.5-46-17.5c-20.8,0-37,6.3-48.7,18.8c-11.7,12.6-17.5,30.1-17.5,52.7v56.7c0,22.6,5.8,40.1,17.5,52.7
		c11.7,12.6,27.9,18.8,48.7,18.8c20.8,0,36.1-5.8,46-17.5c9.9-11.6,14.9-26.6,14.9-44.8V444h29.1v4.5c0,27.6-7.8,49.4-23.3,65.3
		C1101.7,529.7,1079.4,537.7,1050.5,537.7z"/>
	<path class="st13" d="M1237.4,532.8V317.2h-78.8v-26.3h186.9v26.3h-78.8v215.6H1237.4z"/>
	<path class="st13" d="M1379.6,532.8V290.9h29.4v241.9H1379.6z"/>
</g>
<g>
	<path class="st0" d="M1339.5,195.3c0.1-0.7,0.1-1.4,0.2-2.1c0,0,0,0,0-0.1h-18.5l-0.1,0.5c-0.5,4.2-3.2,7.2-7.1,8.1
		c-1.5,0.3-3.1,0.5-4.6,0.5c-17.7,0-35.4,0-53.1,0c-1.5,0-3.1-0.2-4.6-0.5c-3.5-0.8-5.8-2.9-6.8-6c-0.4-1.2-0.6-2.6-0.6-4
		c-0.1-2-0.1-4.1,0-6.1v-1.9v-2.3l95.6,0.2l0-6.7c0-5.1,0-10.3,0-15.4c0-2.4-0.2-4.5-0.5-6.5c-0.8-5.3-3.2-9.8-7.3-13.3
		c-5.4-4.8-12.1-7.2-19.8-7.3c-8.4,0-16.9-0.1-25.4-0.1c-9.3,0-18.6,0-27.8,0l-5.7,0c-1.7,0-3.6,0.2-5.6,0.5
		c-3.4,0.6-6.5,1.7-9.4,3.3c-4.3,2.4-7.6,5.6-9.8,9.6c-2,3.6-3,7.5-3,12l0,14.4c0,6.5,0,13,0,19.5c0,1.3,0.1,2.7,0.3,4.1
		c1,7.2,4.9,12.9,11.5,16.9c4.9,2.9,10.5,4.4,16.6,4.4c17.3,0,34.5,0,51.8,0l5.8,0c5,0,9.7-1,13.9-3
		C1333.8,210.2,1338.4,204,1339.5,195.3z M1244.3,156.6c0.2-4.6,3-7.9,7.6-8.9c1.5-0.3,3.1-0.5,4.7-0.5c13.6,0,27.1,0,40.7,0h11.9
		c1.6,0,3.8,0.1,5.9,0.8c3.7,1.3,5.8,4,6.1,7.8c0.2,2.2,0.1,4.5,0.1,6.7c0,0.9,0,1.9,0,2.8l0,1.3h-77V165c0-0.8,0-1.6,0-2.5
		C1244.2,160.6,1244.2,158.6,1244.3,156.6z"/>
	<path class="st0" d="M1744.7,153.1c-0.8-5.3-3.2-9.8-7.3-13.3c-5.4-4.8-12.1-7.2-19.8-7.3c-8.4,0-16.9-0.1-25.4-0.1
		c-9.3,0-18.6,0-27.8,0l-5.7,0c-1.7,0-3.6,0.2-5.6,0.5c-3.4,0.6-6.5,1.7-9.4,3.3c-4.3,2.4-7.6,5.6-9.8,9.6c-2,3.6-3,7.5-3,12l0,14.4
		c0,6.5,0,13,0,19.5c0,1.3,0.1,2.7,0.3,4.1c1,7.2,4.9,12.9,11.5,16.9c4.9,2.9,10.5,4.4,16.6,4.4c17.3,0,34.5,0,51.8,0l5.8,0
		c5,0,9.7-1,13.9-3c8.3-4,12.9-10.2,14-18.8c0.1-0.7,0.1-1.4,0.2-2.1c0,0,0,0,0-0.1h-18.5l-0.1,0.5c-0.5,4.2-3.2,7.2-7.1,8.1
		c-1.5,0.3-3.1,0.5-4.6,0.5c-17.7,0-35.4,0-53.1,0c-1.5,0-3.1-0.2-4.6-0.5c-3.5-0.8-5.8-2.9-6.8-6c-0.4-1.2-0.6-2.6-0.6-4
		c-0.1-2-0.1-4.1,0-6.1v-1.9v-2.3l95.6,0.2l0-6.7c0-5.1,0-10.3,0-15.4C1745.1,157.2,1745,155,1744.7,153.1z M1726.6,162.5
		c0,0.9,0,1.9,0,2.8l0,1.3h-77V165c0-0.8,0-1.6,0-2.5c0-1.9,0-4,0.1-5.9c0.2-4.6,3-7.9,7.6-8.9c1.5-0.3,3.1-0.5,4.7-0.5
		c13.6,0,27.1,0,40.7,0h11.9c1.6,0,3.8,0.1,5.9,0.8c3.7,1.3,5.8,4,6.1,7.8C1726.6,158.1,1726.6,160.3,1726.6,162.5z"/>
	<path class="st0" d="M1056.4,153.1c-0.8-5.3-3.2-9.8-7.3-13.3c-5.4-4.8-12.1-7.2-19.8-7.3c-8.4,0-16.9-0.1-25.4-0.1
		c-9.3,0-18.6,0-27.7,0l-5.7,0c-1.7,0-3.6,0.2-5.6,0.5c-3.4,0.6-6.5,1.7-9.4,3.3c-4.3,2.4-7.6,5.6-9.8,9.6c-2,3.6-3,7.5-3,12l0,14.3
		c0,6.6,0,13.1,0,19.7c0,1.3,0.1,2.7,0.3,4.1c1,7.2,4.9,12.9,11.5,16.9c4.9,2.9,10.5,4.4,16.6,4.4c17.3,0,34.5,0,51.8,0l5.8,0
		c5,0,9.7-1,13.9-3c8.3-4,12.9-10.2,14-18.8c0.1-0.7,0.1-1.4,0.2-2.1c0,0,0,0,0-0.1h-18.5l-0.1,0.5c-0.5,4.2-3.2,7.2-7.1,8.1
		c-1.5,0.3-3.1,0.5-4.6,0.5c-17.7,0-35.4,0-53.1,0c-1.5,0-3.1-0.2-4.6-0.5c-3.5-0.8-5.8-2.9-6.8-6c-0.4-1.2-0.6-2.6-0.6-4
		c-0.1-2-0.1-4.1,0-6.1l0-1.9c0-0.3,0-0.5,0.1-0.8l0.2-1.3h95.3l0-6.7c0-5.1,0-10.3,0-15.4C1056.8,157.2,1056.7,155,1056.4,153.1z
		 M1038.2,162.6c0,0.9,0,1.9,0,2.8c0,0.3-0.1,0.5-0.2,0.6l-0.2,0.6l-0.7,0.1h-75.7l-0.1-1.1c0-0.2-0.1-0.4-0.1-0.6
		c0-0.8,0-1.6,0-2.5c0-1.9,0-4,0.1-5.9c0.2-4.6,3-7.9,7.6-8.9c1.5-0.3,3.1-0.5,4.7-0.5c13.6,0,27.1,0,40.7,0h11.9
		c1.6,0,3.8,0.1,5.9,0.8c3.7,1.3,5.8,4,6.1,7.8C1038.3,158.2,1038.3,160.4,1038.2,162.6z"/>
	<path class="st0" d="M544.9,154.8V89.3h-18.7v127.8c2.2,0,3.9,0,5.9,0c3,0,6.5,0,12.7-0.1v-14.4c0.1-12.8,0-9.9,0-22.7V154.8z"/>
	<path class="st0" d="M1849.6,145.7c-2.2-4.2-5.4-7.4-9.5-9.7c-4.1-2.3-8.8-3.4-14.4-3.5c-7.5-0.1-14.3-0.1-20.7,0
		c-4.3,0.1-8.6,1-12.3,2.6c-2.5,1.1-4.7,2.8-6.7,4.7l-0.1,0.1v-7.2h-18.7c0,0,0.4,84.7,0.1,84.5h18.5l0.3-57.3
		c0-1.7,0.1-3.2,0.3-4.5c0.4-3.3,2.2-5.7,5.3-7c2.2-0.9,4.4-1.1,6.3-1.1c8.1,0,16.1,0,24.2,0c1.3,0,2.6,0.2,3.9,0.4
		c4.7,0.7,7.7,4.1,8,9.1c0,0,0,0,0,0h18.6C1852.3,152.3,1851.2,148.7,1849.6,145.7z"/>
	<path class="st0" d="M1162.4,145.7c-2.2-4.2-5.4-7.4-9.5-9.7c-4.1-2.3-8.8-3.4-14.4-3.5c-7.5-0.1-14.3-0.1-20.7,0
		c-4.3,0.1-8.6,1-12.3,2.6c-2.5,1.1-4.7,2.8-6.7,4.7l-0.1,0.1v-7.2h-18.7c0,0,0.4,84.7,0.1,84.5h18.5l0.3-57.3
		c0-1.7,0.1-3.2,0.3-4.5c0.4-3.3,2.2-5.7,5.3-7c2.2-0.9,4.4-1.1,6.3-1.1c8.1,0,16.1,0,24.2,0c1.3,0,2.6,0.2,3.9,0.4
		c4.7,0.7,7.7,4.1,8,9.1c0,0,0,0,0,0h18.6C1165.1,152.3,1164,148.7,1162.4,145.7z"/>
	<path class="st0" d="M892.9,217.2c1,0,2-0.1,3-0.2l0.2,0c5.3-0.6,10.2-2.5,14.3-5.4c3.6-2.6,6.2-5.7,7.9-9.6c1.3-3.1,2-6.4,2-10.2
		c0-10.9,0-21.8,0-32.7l0-1.4c0-1.8-0.1-4.1-0.6-6.3c-1.4-5.6-4.5-10.1-9.2-13.4c-5.3-3.8-11.5-5.7-18.4-5.7c-14.9,0-29.7,0-44.6,0
		c-1.8,0-3.6,0.2-5.4,0.5c-4.1,0.7-8,2.2-11.6,4.6c-0.2,0.2-1.5,1-2.5,1.7l0,0v-6.4h-18.6v107.4c2,0,5.5,0,9,0c3.7,0,7.4,0,9.6,0
		l0-50.8c0-10,0-20.1,0-30.1l0-0.5c0-1,0-2,0.1-3.1c0.5-3.8,2.5-6.4,5.9-7.5c1.6-0.6,3.3-0.9,4.9-0.9c6.5-0.1,12.9,0,19.4,0l6.6,0
		l6.8,0c6.4,0,12.8,0,19.2,0c1.5,0,3.2,0.3,4.9,0.9c3.6,1.3,5.9,4.5,5.9,8.5c0,12.1,0,24.2,0,36.3c0,4.7-2.8,8.1-7.3,9.1
		c-1.5,0.3-3,0.5-4.6,0.5c-12.6,0-22.9,0-33.6,0h-9.8l-13.9,14.8c14.4,0,44.3,0,59.1,0L892.9,217.2z"/>
	<path class="st0" d="M1475.2,216.8V92.1l-18.6,0.1l0,98.7c0,1,0,2-0.1,3.1c-0.5,3.8-2.5,6.4-5.9,7.5c-1.6,0.6-3.3,0.9-4.9,0.9
		l-51.9,0c-1.5,0-3.2-0.3-4.9-0.9c-3.6-1.3-5.9-4.5-5.9-8.5c0-12.1,0-24.2,0-36.3c0-4.7,2.8-8.1,7.3-9.1c1.5-0.3,3-0.5,4.6-0.5
		l43.3,0l13.9-14.8c-14.4,0-44.3,0-59.1,0l-1.5,0c-1,0-2,0.1-3,0.2l-0.2,0c-5.4,0.6-10.2,2.5-14.3,5.4c-3.6,2.6-6.2,5.8-7.9,9.6
		c-1.3,3.1-2,6.4-2,10.2c0,11.4,0,22.7,0,34.1c0,1.8,0.1,4.1,0.6,6.3c1.4,5.6,4.5,10.1,9.2,13.4c5.3,3.8,11.5,5.7,18.4,5.7
		c14.9,0,29.7,0,44.6,0c1.8,0,3.6-0.2,5.4-0.5c4.1-0.7,8-2.2,11.6-4.6c0.2-0.2,1.2-0.8,2.5-1.5v0h0c0,0,0,0,0,0v6.2H1475.2z"/>
	<polygon class="st0" points="1183.9,90.2 1183.9,217.2 1202.5,217.2 1202.5,90.2 	"/>
	<path class="st0" d="M633.8,90.2v57.8c-15.7,0-67.6,0-76.6,0L545,162.9c14.6,0,66.8,0,88.8,0v54.3l18.7,0l0-127H633.8z"/>
	<path class="st0" d="M1609.9,132.8c0-0.2,0-0.4,0-0.6c-2.4,0-4.8,0-7.2,0c-3.8,0-7.5,0-11.3,0l-0.1,6.6c0,0-7.5-6.8-20.1-6.8
		c-7,0-13.9,0-20.9,0c-7.6,0-15.2,0-22.8,0c-2.2,0-4,0.1-5.6,0.4c-4.4,0.7-8.3,2.2-11.7,4.3c-4.9,3.1-8.2,7.2-9.9,12.1
		c-0.9,2.6-1.4,5.5-1.4,8.8c0,7.5,0,14.9,0,22.4l0,11.2c0,2,0.1,3.8,0.4,5.4c0.8,4.4,2.6,8.3,5.6,11.4c5.5,5.9,12.5,8.9,20.7,9
		c13.7,0.2,29.7,0.1,45.2,0.1l1.8,0l13.9-14.8c-16.9,0-41.3,0-57.3,0c-1.5,0-3.1-0.2-4.9-0.7c-3.9-1.1-6.4-4.1-6.7-8.4
		c0-0.5,0-0.9,0-1.4l0-12.2l0-21.8c0-1.5,0.1-3.1,0.7-4.6c1-2.7,2.9-4.5,5.5-5.3c1.7-0.6,3.4-0.8,4.9-0.9c6.5-0.1,12.9,0,19.4,0
		l6.6,0l6.5,0c6.5,0,13,0,19.5,0c1.5,0,3.1,0.3,4.7,0.9c2.8,0.9,4.7,3,5.5,5.9c0.3,1.2,0.5,2.4,0.5,3.5l0.1,68.7h0v0.3c0,1,0,2,0,3
		c0,0.8-0.2,1.8-0.6,2.7c-1,2.2-2.7,3.8-5.2,4.7c-1.7,0.6-3.6,1-5.6,0.9l-22.2,0c-10.2,0-20.6,0-29.3,0l-12.2,14.8
		c13.4,0.1,36.9,0,54.2,0l12.2,0c1.3,0,2.6-0.1,3.8-0.3c4.2-0.5,8.3-1.8,12-4.1c4.5-2.8,7.7-6.3,9.6-10.8c1.3-3,1.9-6.3,1.9-10.4
		c0-21.3,0-42.6,0-63.8L1609.9,132.8z"/>
	<path class="st0" d="M785.7,132.9c0-0.1,0-0.3,0-0.4h-18.6v11c0,15.9,0,31.8,0,47.7c0,1.3-0.1,2.6-0.4,3.9
		c-0.6,2.8-2.3,4.9-4.9,6.1c-1.9,0.9-4,1.3-6.7,1.3h-11.7c-12.7,0-25.3,0-38,0c-1.6,0-3.1-0.2-4.6-0.5c-3.5-0.8-5.9-2.9-7-6.1
		c-0.5-1.5-0.5-3-0.5-4.4l0-58.2c0-0.2,0-0.4,0-0.6h-18.5l0,13.1c0,15.1,0,30.3,0,45.4c0,1.7,0.1,3.4,0.3,5.2
		c0.6,4.4,2.4,8.4,5.4,11.7c5.5,6,12.5,9.1,20.9,9.2l48.5,0.1c5.7,0,10.8-1.4,14.9-4.1c0.2-0.2,1.4-0.9,2.4-2.1l0,0l0,17.8
		c0,2.8-1.4,5.1-3.9,6.8c-2,1.3-4.4,1.9-7.3,1.9c0,0,0,0,0,0l-17.5,0c-11.8,0-24.7,0-34.3,0l-12.2,14.8c16.5,0,51.5,0,66.3,0
		c1.1,0,2.4-0.1,3.9-0.3c5.1-0.6,9.8-2.4,13.9-5.4c6.4-4.7,9.6-10.9,9.7-18.4c0.1-23.5,0.1-47.4,0-70.5L785.7,132.9z"/>
</g>
<g>
	<path class="st14" d="M197.7,423.5c-0.1-0.2-0.2-0.4-0.4-0.5c-5.1-7.1-11.6-12.6-18.8-16.5l4.9-10.4l1.1-2.4
		c1.4-2.9,0.2-6.3-2.7-7.6c-2.9-1.4-6.3-0.2-7.6,2.7l-1.4,2.9l-5,10.5c-5-1.5-10.2-2.3-15.4-2.3c-11.1,0-22.3,3.3-32,10.3
		c-24.8,17.7-30.5,52.1-12.8,76.9c0.4,0.5,0.8,1,1.2,1.6l-8.2,4.3c-0.7,0.4-1.3,0.9-1.8,1.5c-1.4,1.7-1.7,4.2-0.6,6.2
		c1,1.9,3,3,5.1,3c0.9,0,1.8-0.2,2.7-0.7l0.1-0.1l10.6-5.6c6.2,5.8,13.7,11.1,21.8,15.2l-0.3,12.6l0,1.6c-0.1,3.2,2.4,5.8,5.6,5.8
		c0,0,0.1,0,0.1,0c2.3,0,4.2-1.3,5.1-3.3c0.3-0.7,0.6-1.5,0.6-2.3l0.2-9.5c7.8,2.8,15.9,4.5,23.4,4.5c3.4,0,6.6-0.3,9.8-1
		c6.7-1.7,13.3-4.6,18.6-12.4c-2.6-6.5-4.1-13.5-4.1-20.9V423.5L197.7,423.5z M126,468.8c-3.6,0-6.5-2.9-6.5-6.5
		c0-3.6,2.9-6.5,6.5-6.5c3.6,0,6.5,2.9,6.5,6.5C132.5,465.9,129.6,468.8,126,468.8z M157.6,433.6c0-3.6,2.9-6.5,6.5-6.5
		c3.6,0,6.5,2.9,6.5,6.5c0,3.6-2.9,6.5-6.5,6.5C160.5,440.1,157.6,437.2,157.6,433.6z M170.6,488.3c-3.6,0-6.5-2.9-6.5-6.5
		c0-3.6,2.9-6.5,6.5-6.5c3.6,0,6.5,2.9,6.5,6.5C177.1,485.4,174.2,488.3,170.6,488.3z"/>
	<path class="st14" d="M124.8,280.8c-0.4-2.7-2.7-4.8-5.5-4.9c-2.2,0-4.1,1.2-5.2,3c-0.4,0.8-0.7,1.6-0.7,2.5l-0.3,8.9
		c-0.7,0-1.5-0.1-2.2-0.1c-3.5,0-7.1,0.5-10.6,1.5c-20.5,5.9-32.4,27.3-26.6,47.8c0.5,1.6,1.1,3.4,2,5.4l-11.8,1.3l-4.1,0.4
		c-3.1,0.3-5.4,3.2-5.1,6.3c0.3,2.9,2.8,5.1,5.7,5.1c0.2,0,0.4,0,0.6,0l8-0.9l12.5-1.3c9.2,15,24.3,32.6,38.1,41.4
		c9.2-5.3,19.5-8.2,30.2-8.6c2.2-6.8,3.2-15.4,3.4-24.4l11.5-2.3l0.7-0.1c3.1-0.6,5.1-3.6,4.5-6.7c-0.5-2.7-2.9-4.6-5.5-4.6
		c-0.4,0-0.8,0-1.2,0.1l-10.2,2c-0.7-13.5-2.8-26.5-5-34.3c-3.5-12.2-12.5-21.4-23.5-25.5l0.4-10.9
		C124.9,281.5,124.8,281.1,124.8,280.8L124.8,280.8z M130.2,367.5c0,3.6-2.9,6.5-6.5,6.5c-3.6,0-6.5-2.9-6.5-6.5
		c0-3.6,2.9-6.5,6.5-6.5C127.3,361,130.2,363.9,130.2,367.5z M126,321.4c0,3.6-2.9,6.5-6.5,6.5c-3.6,0-6.5-2.9-6.5-6.5
		c0-3.6,2.9-6.5,6.5-6.5C123.1,314.9,126,317.8,126,321.4z"/>
	<path class="st13" d="M64.9,389.9c-5.2-2.3-10.7-3.4-16-3.4c-11.3,0-22.2,4.9-29.8,13.4l-7.2-8.7c-0.1-0.1-0.1-0.1-0.2-0.2
		c-2-2.2-5.5-2.5-7.8-0.6c-2.4,2-2.8,5.6-0.8,8.1l1.6,1.9l7.9,9.6c-0.1,0.1-0.1,0.2-0.2,0.3c-6.9,15.7-2.8,33.5,8.9,44.8l-8.3,7.9
		l-1.3,1.2c-2.3,2.2-2.4,5.8-0.2,8.1c1.1,1.2,2.6,1.8,4.2,1.8c1.4,0,2.8-0.5,3.9-1.6l2.6-2.4l8.7-8.2c0.7,0.4,1.4,0.7,2.1,1.1
		c6.8,3,15.5,4.6,24.4,4.6c10.4,0,21-2.2,29.1-6.9c-0.5-5.5-0.3-11,0.6-16.6c1.4-8.5,4.4-16.4,8.7-23.5
		C89.1,407.3,76.7,395.1,64.9,389.9z M50.8,421.1c-3.6,0-6.5-2.9-6.5-6.5c0-3.6,2.9-6.5,6.5-6.5c3.6,0,6.5,2.9,6.5,6.5
		C57.3,418.2,54.4,421.1,50.8,421.1z M62.5,451.2c-3.6,0-6.5-2.9-6.5-6.5c0-3.6,2.9-6.5,6.5-6.5c3.6,0,6.5,2.9,6.5,6.5
		C69,448.2,66.1,451.2,62.5,451.2z"/>
	<path class="st13" d="M21.5,286.9c1.3,0.5,2.8,0.6,4.2,0l2.3-0.9l11.9-4.6c3.8,3,8.3,5.6,13.2,7.6c5.9,2.4,12.4,3.9,18.4,4.1
		c6.2-7.5,14.6-13,24-15.9c3.9-14.1-2.8-34.2-12.6-44.3c-3.2-3.3-7-5.8-11.1-7.5c-3.7-1.5-7.7-2.2-11.6-2.3l0-10.7
		c0-0.3,0-0.6-0.1-0.9c-0.4-2.7-2.8-4.9-5.6-4.9c-3.2,0-5.7,2.6-5.7,5.7l0,0.5l0,11.9c-4.3,1.5-8.3,3.9-11.8,7.3
		c-11.1,10.8-12.9,27.5-5.2,40.2l-10.2,4c-0.2,0.1-0.3,0.2-0.5,0.3c-2.6,1.3-3.8,4.3-2.7,7.1C18.9,285.2,20.1,286.4,21.5,286.9
		L21.5,286.9z M60.6,247.9c1.4-3.3,5.2-4.9,8.5-3.6c3.3,1.4,4.9,5.2,3.6,8.5c-1.4,3.3-5.2,4.9-8.5,3.6
		C60.9,255.1,59.3,251.3,60.6,247.9L60.6,247.9z"/>
	<path class="st13" d="M380.2,196.2c-11.3,14-28.4,21.1-50.9,21.1c-2,0-4-0.1-6.1-0.2v22.6c0.8,0.1,1.6,0.2,2.5,0.2
		c2.2,0.1,4.4,0.2,6.5,0.2h0c36.7,0,57.2-15.8,67.9-29c30.3-37.6,16.2-94.5,14.5-100.9c-2-7.5-6.8-13.8-13.6-17.7
		c-4-2.3-8.4-3.6-12.9-3.8C393.1,107,405.8,164.4,380.2,196.2z"/>
	<path class="st13" d="M323.2,206.7c22.3,1.3,38.7-4.4,48.9-17c23-28.5,9.7-84.4,5.5-99.6c-14.7,4.7-23.3,20.1-19.3,35.1
		c3.7,14.2,5,38.9-3.6,49.5c-4.4,5.4-13.2,7.8-26.2,7.2c-0.5,0-1,0-1.5,0c-1.3,0-2.6,0.1-3.8,0.3C323.2,182,323.2,206.7,323.2,206.7
		z"/>
	<path class="st13" d="M197.7,264.3v-22.7c-11.9-4-39.9-17.5-47.9-56.9c-0.9-4.5-1.5-9-1.8-13.4c-0.8,1.5-1.7,2.9-2.9,4.2
		c-3.8,4.2-9.2,6.6-14.8,6.6c-1.5,0-3-0.2-4.4-0.5c2.7,28,14.5,46,24.9,56.8C165.5,253.4,183.3,260.7,197.7,264.3z"/>
	<path class="st13" d="M162,135.2c-0.4,1.6-0.8,3.3-1.1,5c0.2,1.1,0.3,2.1,0.3,3.2c0,3.2-0.8,6.3-2.2,9c-1,9.5-1,19.9,1.1,30.2
		c6.3,30.9,26.6,43.3,37.7,47.9V202c-1.9-1.2-3.6-2.7-5.2-4.3c-6.6-6.9-9.5-17.9-8.7-32.7C184.6,150.9,175.1,138.6,162,135.2z"/>
	<path class="st13" d="M272.9,463.8V86.6c0-7.5-0.5-14.1-1.2-20.1c-1.5,0.3-3,0.5-4.5,0.5c-5.6,0-11-2.4-14.8-6.6
		c-2.8-3.2-4.5-7-4.9-11.1c-2.8,9.3-4.8,21.4-4.8,37.3v377.2c0,8.7,0.9,28,4.4,44.8c2.3,11.1,5.4,19.3,8.8,24.2h3.6
		c3.5-4.9,6.6-13.2,8.8-24.2C272,491.8,272.9,472.5,272.9,463.8z"/>
	<path class="st13" d="M312.8,378V75.6c0-7.6-1.9-14.8-5.3-21.2c-0.8,2.2-2.1,4.2-3.6,5.9c-3.8,4.2-9.2,6.6-14.8,6.6
		c-2.4,0-4.7-0.4-6.9-1.3c0.8,6.3,1.2,13.1,1.2,20.8v377.2c0,6.1-0.4,46.1-11.6,68.8c16.7-1.5,30.8-12.1,37.2-26.9
		c-3.2-6-5.8-12.8-7.8-20.3c-6.7-25.3-5.4-55.8,3.6-85.8C307.1,392.1,309.8,384.9,312.8,378L312.8,378z"/>
	<path class="st13" d="M243.5,531.8c-10.7-22.9-11.2-61.9-11.2-68V86.6c0-20.7,3.1-35.9,7.6-47.1c-1.2-1.8-2.2-3.8-2.7-5.9
		c-17,6.5-29,22.9-29,42.1v412.1C208.2,509.3,223.3,527.3,243.5,531.8L243.5,531.8z"/>
	<path class="st14" d="M329.7,516.2c-2.1-74.6,21.1-128,41.3-160.1c4.3-6.8,8.6-12.8,12.7-18.3c-5.5-3.6-8.8-9.6-8.8-16.4
		c0-0.3,0-0.6,0.1-0.9c-24.7,11.7-48.4,42.3-60.3,82.1C300.6,450.2,307.6,496.1,329.7,516.2z"/>
	<path class="st14" d="M408.7,392.1c1.8-11.6,2.9-22.8,3.4-33c-2,0.7-4.1,1.1-6.3,1.1c-5.6,0-11-2.4-14.8-6.6
		c-1.1-1.3-2.1-2.7-2.8-4.1c-2.8,3.9-5.7,8.2-8.6,12.7c-19.7,31.3-42.2,83.8-39.3,157.5C385.5,485.6,402.5,432.1,408.7,392.1
		L408.7,392.1z"/>
	<path class="st14" d="M438.2,439.6c9.3-31.1,9.6-61.4,2.5-84.3c-3.6,3.1-8.2,4.9-13,4.9c-1.7,0-3.4-0.2-5.1-0.7
		c-0.5,10.5-1.6,21.9-3.5,34c-9,58.1-33.1,103.7-70,132.6C382.3,532.6,421.6,494.9,438.2,439.6z"/>
	<path class="st15" d="M391,312.9c-7.4,3.3-7.4,13.7,0,17c3.7,1.6,5.9,5.5,5.5,9.5c-0.6,5.9,4.1,10.3,9.3,10.3
		c1.8,0,3.7-0.6,5.4-1.8c1.6-1.2,3.6-1.8,5.5-1.8s3.9,0.6,5.5,1.8h0c1.7,1.3,3.6,1.8,5.4,1.8c5.2,0,9.9-4.4,9.3-10.3
		c-0.4-4,1.8-7.9,5.5-9.5c7.4-3.3,7.4-13.7,0-17c-3.7-1.6-5.9-5.5-5.5-9.5c0.6-5.9-4.1-10.3-9.3-10.3c-1.8,0-3.7,0.6-5.4,1.8h0
		c-1.6,1.2-3.6,1.8-5.5,1.8s-3.9-0.6-5.5-1.8c-1.7-1.3-3.6-1.8-5.4-1.8c-5.2,0-9.9,4.4-9.3,10.3C397,307.5,394.7,311.3,391,312.9
		L391,312.9z M416.7,327.9c-3.6,0-6.5-2.9-6.5-6.5c0-3.6,2.9-6.5,6.5-6.5c3.6,0,6.5,2.9,6.5,6.5C423.2,325,420.3,327.9,416.7,327.9z
		"/>
	<path class="st15" d="M125,169.9c1.7,1.3,3.6,1.8,5.4,1.8c5.2,0,9.9-4.4,9.3-10.3c-0.4-4,1.8-7.9,5.5-9.5h0c7.4-3.3,7.4-13.7,0-17
		h0c-3.7-1.6-5.9-5.5-5.5-9.5c0.6-5.9-4.1-10.3-9.3-10.3c-1.8,0-3.7,0.6-5.4,1.8c-1.6,1.2-3.6,1.8-5.5,1.8s-3.9-0.6-5.5-1.8
		c-1.7-1.3-3.6-1.8-5.4-1.8c-5.2,0-9.9,4.4-9.3,10.3c0.4,4-1.8,7.9-5.5,9.5h0c-7.4,3.3-7.4,13.7,0,17h0c3.7,1.6,5.9,5.5,5.5,9.5
		c-0.6,5.9,4.1,10.3,9.3,10.3c1.8,0,3.7-0.6,5.4-1.8c1.6-1.2,3.6-1.8,5.5-1.8S123.4,168.7,125,169.9z M113,143.4
		c0-3.6,2.9-6.5,6.5-6.5s6.5,2.9,6.5,6.5c0,3.6-2.9,6.5-6.5,6.5S113,147,113,143.4z"/>
	<path class="st15" d="M252.5,36.8c3.7,1.6,5.9,5.5,5.5,9.5v0c-0.6,5.9,4.1,10.3,9.3,10.3c1.8,0,3.7-0.6,5.4-1.8
		c1.6-1.2,3.6-1.8,5.5-1.8c1.9,0,3.9,0.6,5.5,1.8c1.7,1.3,3.6,1.8,5.4,1.8c5.2,0,9.9-4.4,9.3-10.3v0c-0.4-4,1.8-7.9,5.5-9.5
		c7.4-3.3,7.4-13.7,0-17c-3.7-1.6-5.9-5.5-5.5-9.5C299,4.4,294.2,0,289.1,0c-1.8,0-3.7,0.6-5.4,1.8c-1.6,1.2-3.6,1.8-5.5,1.8
		c-1.9,0-3.9-0.6-5.5-1.8c-1.7-1.3-3.6-1.8-5.4-1.8c-5.2,0-9.9,4.4-9.3,10.3c0.4,4-1.8,7.9-5.5,9.5
		C245.1,23.1,245.1,33.5,252.5,36.8z M284.7,28.3c0,3.6-2.9,6.5-6.5,6.5c-3.6,0-6.5-2.9-6.5-6.5s2.9-6.5,6.5-6.5
		C281.7,21.8,284.7,24.7,284.7,28.3z"/>
</g>
</svg>
