<?xml version="1.0" encoding="utf-8"?>
<!-- Generator: Adobe Illustrator 26.0.1, SVG Export Plug-In . SVG Version: 6.00 Build 0)  -->
<svg version="1.1" id="Layer_1" xmlns="http://www.w3.org/2000/svg" xmlns:xlink="http://www.w3.org/1999/xlink" x="0px" y="0px"
	 viewBox="0 0 1015 300" style="enable-background:new 0 0 1015 300;" xml:space="preserve">
<style type="text/css">
	.st0{fill:#24272A;}
	.st1{fill:#AA57A2;}
	.st2{fill:#FFFFFF;}
</style>
<g>
	<g>
		<polygon class="st0" points="367.4770508,68.2171631 394.5111694,68.0723114 394.6560059,95.3478394 408.5671082,95.2805939 
			408.2381592,32.1670723 394.3201904,32.237339 394.4482117,55.7735329 367.414093,55.9114838 367.2860718,32.3821869 
			353.372406,32.4571991 353.7039185,95.5681305 367.6218872,95.4931259 		"/>
		<polygon class="st0" points="442.2814941,95.5245895 456.1925659,95.449585 456.0546265,68.5318604 479.5908203,32.2183723 
			463.0862732,32.2976952 449.0277405,55.9959793 435.5205994,32.4429741 418.2133179,32.5347977 442.1413879,68.6016998 		"/>
		<path class="st0" d="M503.5792236,95.4120789l-0.1280212-24.6048889l10.1717224-0.0508652
			c3.3306885-0.0189667,6.4173584-0.3479004,9.2746582-0.9910965c2.8521118-0.635437,5.3081055-1.6989517,7.3894043-3.1952896
			c2.0714722-1.5036697,3.6958008-3.5000839,4.8753052-5.9969978c1.1726074-2.5094185,1.7524414-5.5982323,1.7355957-9.2871323
			c-0.0241089-3.7419243-0.6768188-6.8479805-1.97229-9.3060989c-1.2907104-2.4559631-3.0263062-4.4040909-5.1994629-5.8568878
			c-2.1852417-1.4407272-4.7351685-2.4512215-7.6506348-3.0288925c-2.9125366-0.5849991-6.0112305-0.8626251-9.2794189-0.8432274
			l-23.4663391,0.1207085l0.3362427,63.1105003L503.5792236,95.4120789z M510.4466248,44.0343208
			c1.3075256-0.0120735,2.677948,0.058197,4.1065979,0.1957169c1.4287109,0.1401062,2.7314453,0.4811058,3.8846436,1.0010071
			c1.1652832,0.5315437,2.1175537,1.2833786,2.871521,2.2624016c0.7445068,0.9764328,1.1191406,2.2718811,1.1312256,3.8721161
			c0.0047607,1.4864235-0.2659912,2.7193604-0.826416,3.7009697c-0.5608521,0.9837646-1.2958984,1.7571526-2.2145386,2.3300819
			c-0.9255981,0.5681877-1.9602051,0.9837646-3.1155396,1.2204361c-1.1652832,0.2444344-2.3615723,0.3724709-3.6160278,0.3750572
			l-9.2750854,0.0482826l-0.0819092-14.9724426L510.4466248,44.0343208z"/>
		<polygon class="st0" points="591.3886108,95.3094788 591.3234863,82.4791565 560.7216187,82.6334839 560.6539307,69.7958374 
			588.0454712,69.6509857 587.9777832,56.8129082 560.5910034,56.9581871 560.5258789,45.1961288 589.5202026,45.0413628 
			589.4525146,32.2037125 546.5445557,32.4283142 546.8734741,95.5392532 		"/>
		<path class="st0" d="M635.347168,95.3090439l16.6834717-0.0870819l-16.2023926-26.5724106
			c4.4644775-0.8553009,7.8460083-2.8422241,10.1398926-5.9775963c2.303772-3.1396828,3.4470215-6.9324799,3.4250488-11.3921814
			c-0.0215454-3.6763992-0.6763916-6.7488289-1.97229-9.211689c-1.2880859-2.4563942-3.0236816-4.4114189-5.1968384-5.8573189
			c-2.1878662-1.4402962-4.7162476-2.4701881-7.6045532-3.0767441c-2.8789062-0.6117249-5.9345093-0.9065971-9.1419067-0.8897858
			l-24.442749,0.1332092l0.3215942,63.110508l13.9179688-0.0750122l-0.1327515-25.2282562l6.8768311-0.0362091
			L635.347168,95.3090439z M615.0859985,58.4152985l-0.0750122-14.3460579l9.1009521-0.0461273
			c1.2497559-0.0120735,2.5257568,0.0702667,3.8337402,0.2418442c1.3053589,0.1741638,2.4749146,0.5026588,3.4879761,1.0083351
			c1.0126343,0.5026627,1.848999,1.2251816,2.5042725,2.1727333c0.6574097,0.9428101,0.9932251,2.2214432,1.0053101,3.8290062
			c0.0047607,1.723526-0.3599854,3.0577736-1.0924072,4.0126534c-0.7419434,0.9544487-1.6726685,1.6605873-2.8016968,2.1102219
			c-1.1264648,0.4565315-2.3883057,0.7225189-3.7850342,0.8216705c-1.3950195,0.0965691-2.7245483,0.1500244-3.9691162,0.1547661
			L615.0859985,58.4152985z"/>
		<polygon class="st0" points="701.3740234,95.2172165 701.3016357,82.37957 675.5172729,82.5145035 675.2512817,32.2390633 
			661.34021,32.3093338 661.6691284,95.4202652 		"/>
		<polygon class="st0" points="755.8664551,95.267662 755.8013916,82.4373398 725.1995239,82.5921021 725.1292114,69.7544556 
			752.5237427,69.6091766 752.4534912,56.7788506 725.0689087,56.9163704 725.0037842,45.1543121 753.9955444,44.9995461 
			753.9278564,32.1618996 711.0202637,32.3864975 711.3513794,95.4974365 		"/>
		<path class="st0" d="M813.3567505,87.1595764c3.25354-2.6542664,5.8396606-5.9392242,7.7494507-9.8428116
			c1.9144897-3.8966904,2.8546753-8.4072647,2.8280029-13.5196457c-0.0241699-5.7650681-1.0488892-10.6571617-3.0599365-14.6939545
			c-2.0184326-4.0367966-4.725708-7.2976189-8.1292114-9.8066063c-3.4009399-2.5042419-7.3868408-4.3195953-11.9388428-5.4240646
			c-4.5536499-1.1001625-9.3664551-1.6416206-14.418457-1.6123047l-20.875061,0.1086349l0.3363037,63.1109352l22.7481079-0.1211395
			c4.6942139-0.021553,9.1806641-0.7276917,13.4614868-2.1222916
			C806.3320312,91.8490601,810.0959473,89.8254852,813.3567505,87.1595764z M786.9244385,82.5330429l-7.2272949,0.0409546
			l-0.1983032-37.4425354l8.2063599-0.0456963c2.9150391-0.0120697,5.7020874,0.3405685,8.3516235,1.0755882
			c2.6396484,0.72295,4.9597778,1.8248367,6.9273071,3.3017769c1.9700928,1.4795265,3.5436401,3.3526421,4.7114868,5.6370277
			c1.1721191,2.2843857,1.7692261,4.9722786,1.7860107,8.0615196c0.0172729,3.5677605-0.5487671,6.5867424-1.6942139,9.0547752
			c-1.145874,2.4749298-2.729248,4.4765091-4.7424927,5.996994c-2.0110474,1.5273743-4.399353,2.6202087-7.164856,3.2970276
			C793.1245117,82.1752319,790.1322632,82.5158005,786.9244385,82.5330429z"/>
		<path class="st0" d="M869.4171143,57.9751472l0.0625,12.8376503l11.3296509-0.058197l0.0556641,10.2540817
			c-1.3054199,0.7225189-3.0578003,1.4282227-5.2478027,2.1222916c-2.1998901,0.693634-4.8127441,1.0462723-7.848938,1.0635147
			c-2.9707031,0.0120697-5.6706543-0.4737701-8.0831299-1.4700394c-2.40979-1.0005798-4.4885864-2.3999176-6.2241821-4.2079391
			c-1.7329712-1.7985382-3.0625-3.9329071-4.0005493-6.3961945c-0.9354858-2.4581146-1.4041138-5.1705856-1.4235229-8.1481705
			c-0.0172119-2.9081841,0.4302368-5.6154747,1.3364258-8.1123924c0.9139404-2.5042458,2.2214355-4.6674919,3.9329224-6.494915
			c1.7235107-1.8200912,3.7807007-3.2319374,6.1832275-4.2613945c2.4050903-1.0225639,5.0929565-1.5446243,8.0662231-1.556694
			c3.5678101-0.0219879,6.5458374,0.4690323,8.9267578,1.4648705c2.3835449,0.9979897,4.534729,2.4749298,6.4492188,4.4282303
			l9.7531738-10.7494125c-3.2246094-2.9564667-6.9734497-5.0300446-11.2279663-6.2293587
			c-4.2566528-1.1962948-8.9168091-1.7787075-13.9714355-1.7498245c-4.9382324,0.021986-9.4849854,0.8195171-13.6278687,2.3930206
			c-4.1647949,1.5614357-7.7498169,3.7927971-10.7640381,6.6906319c-3.0237427,2.9034424-5.3637085,6.4082642-7.0437012,10.5127411
			c-1.670105,4.1118088-2.4969482,8.6874771-2.4680176,13.7390747c0.0292969,5.0546188,0.8970947,9.6229553,2.6132812,13.7226944
			c1.7183838,4.0898209,4.0993042,7.5683441,7.1549072,10.4325562c3.0479126,2.8693848,6.6544189,5.0593567,10.8240356,6.5871658
			c4.1695557,1.52005,8.7262573,2.2645569,13.6644897,2.2430038c4.6386108-0.024147,9.1828003-0.5199051,13.6403198-1.4989243
			c4.4523926-0.9716949,8.7284546-2.5426178,12.8208618-4.7062912l-0.1741943-32.9849892L869.4171143,57.9751472z"/>
		<polygon class="st0" points="948.789917,93.8088226 948.7196045,80.9780731 918.125061,81.1401672 918.0552368,68.2977753 
			945.4467163,68.1524963 945.3790283,55.3195877 917.9875488,55.460125 917.9267578,43.6976318 946.9163208,43.5407143 
			946.8533936,30.710392 903.9458618,30.9349937 904.2769165,94.0454941 		"/>
		<path class="st0" d="M972.6757202,93.9286728l-0.1328125-25.2282562l6.8695679-0.0362091l13.3359985,25.1558228
			l16.6834717-0.0870819l-16.1980591-26.5676651c4.460144-0.8600388,7.8416748-2.849556,10.1428833-5.9775963
			c2.2964478-3.1396828,3.4396973-6.9324799,3.4177246-11.3921814c-0.0215454-3.6763992-0.6768188-6.7535706-1.9649658-9.211689
			c-1.2958374-2.4632912-3.0241089-4.4165916-5.2042236-5.8573189c-2.1830444-1.4402962-4.713562-2.4701881-7.5997925-3.0767441
			c-2.8909302-0.6190548-5.939209-0.9065971-9.1466064-0.8897839l-24.442749,0.1280346l0.3284912,63.1083488L972.6757202,93.9286728
			z M981.5058594,42.5319443c1.2570801-0.0051727,2.5283813,0.0698395,3.8411255,0.248745
			c1.3001709,0.1694221,2.4701538,0.5026588,3.4806519,1.0083351c1.0199585,0.5026588,1.8563232,1.2251816,2.5162964,2.1727333
			c0.65271,0.9428101,0.9885254,2.2214432,1.0006104,3.8290062c0.0046997,1.723526-0.3599854,3.0577736-1.0997314,4.0126534
			c-0.7397461,0.9544487-1.6726685,1.6605873-2.7965698,2.1050491c-1.1290283,0.4617043-2.3908081,0.7276917-3.7832642,0.8268433
			c-1.399353,0.0918274-2.7241211,0.1500244-3.968689,0.1500244l-8.2089844,0.0456963l-0.0750122-14.3460617L981.5058594,42.5319443
			z"/>
	</g>
	<g>
		<path class="st1" d="M354.7068787,271.9238586V145.1036224h56.4717407c22.0559692,0,35.5565186,13.309433,35.5565186,32.3224487
			c0,15.9700928-10.6487427,26.6188354-22.2471008,29.0914154c13.4975281,2.0903168,24.7166443,15.9700928,24.7166443,31.1817169
			c0,20.3448944-13.5005493,34.2246552-36.6972351,34.2246552H354.7068787z M430.382782,179.7075195
			c0-11.4072113-7.6058044-20.5360107-21.8678589-20.5360107h-38.0260315v40.8808746h38.0260315
			C422.7769775,200.0523834,430.382782,191.3058472,430.382782,179.7075195z M432.8523254,235.9881287
			c0-11.5983429-7.9850464-21.8678589-23.3847656-21.8678589h-38.9786682v43.7326965h38.9786682
			C424.1088257,257.8529663,432.8523254,249.4856415,432.8523254,235.9881287z"/>
		<path class="st1" d="M472.9474487,271.9238586V145.1036224h83.0905762v14.0678864h-67.3085938v40.8808746h65.9736938v14.0678864
			h-65.9736938v43.7326965h67.3085938v14.0708923H472.9474487z"/>
		<path class="st1" d="M619.9365845,271.9238586l-51.1503906-126.8202362h18.0634155l42.7830811,109.5182953l42.7770386-109.5182953
			h18.0634766l-50.9562378,126.8202362H619.9365845z"/>
		<path class="st1" d="M705.4117432,271.9238586V145.1036224h83.0906372v14.0678864h-67.3085938v40.8808746h65.9736938v14.0678864
			h-65.9736938v43.7326965h67.3085938v14.0708923H705.4117432z"/>
		<path class="st1" d="M810.0911255,271.9238586V145.1036224h15.7819824v112.7493439h58.9412842v14.0708923H810.0911255z"/>
	</g>
	<g>
		<polygon class="st1" points="37.6623573,4.6844959 37.6623573,244.3874054 277.3652649,4.6844959 		"/>
		<polygon class="st0" points="244.0103607,55.6122818 4.307137,295.3154907 244.0103607,295.3154907 		"/>
	</g>
</g>
</svg>
