<?xml version="1.0" encoding="UTF-8" standalone="no"?>
<svg
   xmlns:dc="http://purl.org/dc/elements/1.1/"
   xmlns:cc="http://creativecommons.org/ns#"
   xmlns:rdf="http://www.w3.org/1999/02/22-rdf-syntax-ns#"
   xmlns:svg="http://www.w3.org/2000/svg"
   xmlns="http://www.w3.org/2000/svg"
   viewBox="0 0 577.32001 124.09333"
   height="124.09333"
   width="577.32001"
   xml:space="preserve"
   id="svg2"
   version="1.1"><metadata
     id="metadata8"><rdf:RDF><cc:Work
         rdf:about=""><dc:format>image/svg+xml</dc:format><dc:type
           rdf:resource="http://purl.org/dc/dcmitype/StillImage" /></cc:Work></rdf:RDF></metadata><defs
     id="defs6" /><g
     transform="matrix(1.3333333,0,0,-1.3333333,0,124.09333)"
     id="g10"><g
       transform="scale(0.1)"
       id="g12"><path
         id="path14"
         style="fill:#232325;fill-opacity:1;fill-rule:nonzero;stroke:none"
         d="m 1147.87,840.465 44.65,0.238 0.41,-75.492 86.74,0.441 -0.41,75.52 44.66,0.226 1.05,-202.503 -44.63,-0.223 -0.47,87.519 -86.74,-0.468 0.46,-87.512 -44.65,-0.242 -1.07,202.496" /><path
         id="path16"
         style="fill:#232325;fill-opacity:1;fill-rule:nonzero;stroke:none"
         d="m 1432.7,724.492 -76.78,115.723 55.54,0.293 43.34,-75.57 45.1,76.039 52.96,0.253 -75.52,-116.511 0.44,-86.371 -44.63,-0.243 -0.45,86.387" /><path
         id="path18"
         style="fill:#232325;fill-opacity:1;fill-rule:nonzero;stroke:none"
         d="m 1629.23,755.172 29.76,0.152 c 4.02,0.008 7.86,0.418 11.6,1.207 3.71,0.754 7.03,2.09 10,3.914 2.95,1.836 5.3,4.321 7.1,7.477 1.81,3.148 2.67,7.105 2.66,11.875 -0.04,5.133 -1.24,9.293 -3.63,12.422 -2.43,3.144 -5.48,5.554 -9.21,7.261 -3.71,1.668 -7.88,2.762 -12.47,3.211 -4.58,0.442 -8.98,0.664 -13.18,0.625 l -22.89,-0.105 z m -45.12,85.566 75.29,0.391 c 10.49,0.062 20.43,-0.828 29.78,-2.703 9.35,-1.856 17.54,-5.098 24.55,-9.723 6.97,-4.66 12.54,-10.914 16.68,-18.789 4.16,-7.891 6.25,-17.855 6.32,-29.863 0.06,-11.836 -1.8,-21.75 -5.56,-29.797 -3.79,-8.012 -9.01,-14.418 -15.65,-19.242 -6.68,-4.801 -14.56,-8.211 -23.71,-10.254 -9.17,-2.067 -19.07,-3.121 -29.75,-3.18 l -32.64,-0.164 0.41,-78.945 -44.64,-0.227 -1.08,202.496" /><path
         id="path20"
         style="fill:#232325;fill-opacity:1;fill-rule:nonzero;stroke:none"
         d="m 1767.69,840.559 137.67,0.722 0.22,-41.191 -93.03,-0.5 0.21,-37.738 87.87,0.464 0.22,-41.191 -87.89,-0.465 0.21,-41.191 98.19,0.5 0.21,-41.172 -142.82,-0.734 -1.06,202.496" /><path
         id="path22"
         style="fill:#232325;fill-opacity:1;fill-rule:nonzero;stroke:none"
         d="m 1987.61,757.176 26.34,0.129 c 4,0.019 8.25,0.187 12.74,0.5 4.48,0.316 8.52,1.172 12.13,2.636 3.63,1.446 6.62,3.707 9,6.774 2.35,3.058 3.51,7.344 3.5,12.871 -0.03,5.16 -1.11,9.262 -3.22,12.285 -2.11,3.039 -4.79,5.359 -8.04,6.973 -3.25,1.621 -7,2.676 -11.19,3.234 -4.2,0.555 -8.29,0.817 -12.3,0.777 l -29.2,-0.144 z m -45.08,83.547 78.42,0.425 c 10.3,0.055 20.1,-0.894 29.33,-2.855 9.28,-1.945 17.38,-5.25 24.4,-9.875 6.98,-4.637 12.54,-10.906 16.68,-18.789 4.15,-7.902 6.25,-17.762 6.33,-29.559 0.07,-14.308 -3.6,-26.48 -10.99,-36.554 -7.36,-10.059 -18.22,-16.434 -32.53,-19.18 l 51.98,-85.258 -53.53,-0.277 -42.77,80.726 -22.06,-0.117 0.42,-80.945 -44.66,-0.242 -1.02,202.5" /><path
         id="path24"
         style="fill:#232325;fill-opacity:1;fill-rule:nonzero;stroke:none"
         d="m 2136.02,840.938 44.64,0.226 0.85,-161.312 82.73,0.433 0.23,-41.191 -127.39,-0.649 -1.06,202.493" /><path
         id="path26"
         style="fill:#232325;fill-opacity:1;fill-rule:nonzero;stroke:none"
         d="m 2295.43,840.691 137.67,0.723 0.22,-41.191 -93.03,-0.5 0.21,-37.739 87.87,0.446 0.22,-41.168 -87.89,-0.469 0.22,-41.191 98.19,0.496 0.21,-41.164 -142.83,-0.739 -1.06,202.496" /><path
         id="path28"
         style="fill:#232325;fill-opacity:1;fill-rule:nonzero;stroke:none"
         d="m 2515.78,679.66 23.19,0.133 c 10.29,0.051 19.89,1.145 28.74,3.281 8.87,2.172 16.53,5.676 22.99,10.578 6.45,4.879 11.53,11.301 15.21,19.239 3.68,7.922 5.49,17.609 5.43,29.054 -0.04,9.91 -1.96,18.539 -5.72,25.868 -3.75,7.332 -8.8,13.339 -15.12,18.085 -6.31,4.739 -13.76,8.278 -22.23,10.598 -8.5,2.359 -17.44,3.492 -26.79,3.453 l -26.34,-0.152 z m -45.51,161.09 66.98,0.352 c 16.21,0.089 31.65,-1.649 46.26,-5.176 14.61,-3.547 27.39,-9.371 38.31,-17.403 10.92,-8.054 19.6,-18.515 26.09,-31.464 6.44,-12.957 9.73,-28.653 9.81,-47.149 0.09,-16.406 -2.93,-30.879 -9.07,-43.379 -6.13,-12.527 -14.43,-23.066 -24.86,-31.582 -10.47,-8.554 -22.54,-15.051 -36.26,-19.5 -13.73,-4.476 -28.13,-6.742 -43.19,-6.808 l -73,-0.387 -1.07,202.496" /><path
         id="path30"
         style="fill:#232325;fill-opacity:1;fill-rule:nonzero;stroke:none"
         d="m 2883.49,653.18 c -13.12,-6.942 -26.84,-11.981 -41.13,-15.102 -14.31,-3.14 -28.89,-4.73 -43.77,-4.808 -15.84,-0.071 -30.46,2.316 -43.84,7.195 -13.38,4.902 -24.95,11.93 -34.73,21.137 -9.81,9.191 -17.45,20.351 -22.96,33.472 -5.51,13.156 -8.29,27.813 -8.38,44.035 -0.1,16.204 2.56,30.887 7.92,44.082 5.39,13.168 12.89,24.414 22.6,33.731 9.66,9.301 21.17,16.457 34.54,21.469 13.29,5.047 27.88,7.605 43.72,7.675 16.22,0.094 31.17,-1.773 44.83,-5.617 13.65,-3.847 25.68,-10.496 36.03,-19.984 l -31.3,-34.492 c -6.14,6.269 -13.05,11.007 -20.7,14.211 -7.63,3.195 -17.18,4.769 -28.64,4.699 -9.54,-0.039 -18.16,-1.711 -25.88,-4.992 -7.7,-3.309 -14.3,-7.832 -19.84,-13.672 -5.49,-5.867 -9.68,-12.809 -12.62,-20.84 -2.91,-8.016 -4.33,-16.699 -4.29,-26.031 0.06,-9.555 1.58,-18.258 4.58,-26.149 3,-7.898 7.27,-14.75 12.83,-20.515 5.57,-5.809 12.24,-10.293 19.97,-13.508 7.74,-3.192 16.4,-4.754 25.94,-4.715 9.74,0.059 18.12,1.184 25.18,3.41 7.02,2.227 12.65,4.492 16.84,6.813 l -0.18,32.902 -36.36,-0.188 -0.19,41.192 79.28,0.426 0.55,-105.836" /><path
         id="path32"
         style="fill:#232325;fill-opacity:1;fill-rule:nonzero;stroke:none"
         d="m 2914.45,845.348 137.68,0.722 0.19,-41.168 -93.02,-0.5 0.2,-37.746 87.89,0.453 0.21,-41.175 -87.89,-0.469 0.23,-41.207 98.17,0.523 0.23,-41.172 -142.83,-0.757 -1.06,202.496" /><path
         id="path34"
         style="fill:#232325;fill-opacity:1;fill-rule:nonzero;stroke:none"
         d="m 3134.37,761.941 26.34,0.145 c 3.99,0 8.24,0.187 12.73,0.48 4.47,0.317 8.52,1.172 12.14,2.657 3.61,1.425 6.6,3.687 8.98,6.75 2.37,3.062 3.54,7.343 3.52,12.879 -0.04,5.156 -1.11,9.257 -3.21,12.285 -2.12,3.039 -4.8,5.355 -8.07,6.972 -3.24,1.621 -7,2.688 -11.17,3.231 -4.21,0.578 -8.29,0.816 -12.32,0.801 l -29.18,-0.172 z m -45.09,83.559 78.43,0.41 c 10.29,0.055 20.07,-0.871 29.35,-2.851 9.26,-1.95 17.38,-5.254 24.38,-9.875 7,-4.621 12.54,-10.887 16.7,-18.793 4.13,-7.887 6.24,-17.758 6.31,-29.555 0.07,-14.313 -3.6,-26.481 -10.97,-36.559 -7.38,-10.035 -18.23,-16.414 -32.55,-19.179 l 51.98,-85.243 -53.53,-0.281 -42.79,80.719 -22.04,-0.117 0.43,-80.946 -44.64,-0.222 -1.06,202.492" /><path
         id="path36"
         style="fill:#1574c2;fill-opacity:1;fill-rule:nonzero;stroke:none"
         d="M 930,490.871 659.52,293.418 v 285 l -390.415,-285 v 285 L 6.63281,386.809 C 43.9648,167.207 235.117,0 465.352,0 c 257.007,0 465.351,208.348 465.351,465.352 0,8.566 -0.25,17.07 -0.703,25.519" /><path
         id="path38"
         style="fill:#6bcfe9;fill-opacity:1;fill-rule:nonzero;stroke:none"
         d="M 922.953,550.254 C 883.043,766.715 693.359,930.703 465.352,930.703 208.348,930.703 0,722.359 0,465.352 0,459.133 0.15625,452.949 0.402344,446.789 L 321.227,680.988 V 395.992 L 711.633,680.988 V 395.992 l 211.32,154.262" /><path
         id="path40"
         style="fill:#6bcfe9;fill-opacity:1;fill-rule:nonzero;stroke:none"
         d="m 1188.61,163.309 c 10.19,-15.289 23.23,-26.563 39.11,-33.817 15.87,-7.254 32.24,-10.879 49.1,-10.879 9.4,0 19.01,1.473 28.81,4.414 9.79,2.942 18.71,7.352 26.75,13.231 8.03,5.879 14.6,13.129 19.7,21.758 5.09,8.617 7.64,18.613 7.64,29.984 0,16.07 -5.09,28.316 -15.29,36.754 -10.19,8.422 -22.83,15.476 -37.92,21.164 -15.09,5.68 -31.56,11.172 -49.39,16.465 -17.85,5.289 -34.31,12.644 -49.39,22.051 -15.1,9.406 -27.74,22.046 -37.93,37.925 -10.2,15.875 -15.29,37.34 -15.29,64.387 0,12.141 2.65,25.082 7.94,38.809 5.29,13.715 13.62,26.258 24.99,37.629 11.36,11.363 25.96,20.875 43.81,28.515 17.83,7.649 39.29,11.473 64.38,11.473 22.73,0 44.49,-3.145 65.27,-9.41 20.77,-6.274 39,-19.02 54.68,-38.223 l -45.86,-41.75 c -7.06,10.973 -17.05,19.789 -29.99,26.461 -12.93,6.664 -27.63,10 -44.1,10 -15.68,0 -28.72,-2.059 -39.1,-6.176 -10.39,-4.117 -18.73,-9.41 -24.99,-15.875 -6.28,-6.469 -10.68,-13.433 -13.23,-20.875 -2.55,-7.449 -3.82,-14.316 -3.82,-20.578 0,-17.644 5.09,-31.164 15.29,-40.574 10.19,-9.406 22.83,-17.051 37.92,-22.934 15.09,-5.879 31.55,-11.172 49.4,-15.875 17.83,-4.703 34.29,-11.273 49.39,-19.695 15.08,-8.434 27.73,-19.801 37.92,-34.105 10.19,-14.313 15.28,-34.012 15.28,-59.094 0,-19.989 -3.81,-38.028 -11.46,-54.098 -7.64,-16.078 -17.93,-29.598 -30.87,-40.5702 -12.93,-10.9805 -28.22,-19.4024 -45.86,-25.2813 -17.64,-5.8789 -36.45,-8.8242 -56.45,-8.8242 -26.66,0 -51.94,4.707 -75.85,14.1172 -23.92,9.4023 -42.92,23.8985 -57.04,43.5075 l 46.45,39.989" /><path
         id="path42"
         style="fill:#6bcfe9;fill-opacity:1;fill-rule:nonzero;stroke:none"
         d="m 1720.75,228.57 -77.61,191.106 h -1.18 L 1563.17,228.57 Z m -101.13,264.016 h 51.15 L 1848.93,76.2813 h -65.85 L 1741.33,179.18 H 1543.18 L 1502.02,76.2813 h -65.86 l 183.46,416.3047" /><path
         id="path44"
         style="fill:#6bcfe9;fill-opacity:1;fill-rule:nonzero;stroke:none"
         d="m 1807.18,492.586 h 58.8 l 92.01,-332.809 h 1.19 l 97.91,332.809 h 64.67 l 97.89,-332.809 h 1.19 l 92.03,332.809 h 58.8 L 2250.53,76.2813 h -59.97 L 2090.02,416.145 h -1.18 L 1988.87,76.2813 H 1928.9 L 1807.18,492.586" /><path
         id="path46"
         style="fill:#6bcfe9;fill-opacity:1;fill-rule:nonzero;stroke:none"
         d="m 2529.65,439.664 h -134.06 v 52.922 h 324.58 V 439.664 H 2586.11 V 76.2813 h -56.46 V 439.664" /><path
         id="path48"
         style="fill:#6bcfe9;fill-opacity:1;fill-rule:nonzero;stroke:none"
         d="m 2934.2,118.613 c 23.9,0 45.46,4.414 64.67,13.235 19.2,8.816 35.67,20.672 49.4,35.57 13.71,14.898 24.29,32.437 31.75,52.629 7.44,20.183 11.17,41.648 11.17,64.387 0,22.73 -3.73,44.191 -11.17,64.386 -7.46,20.184 -18.04,37.723 -31.75,52.625 -13.73,14.895 -30.2,26.754 -49.4,35.575 -19.21,8.816 -40.77,13.23 -64.67,13.23 -23.92,0 -45.48,-4.414 -64.68,-13.23 -19.22,-8.821 -35.68,-20.68 -49.4,-35.575 -13.73,-14.902 -24.3,-32.441 -31.75,-52.625 -7.46,-20.195 -11.18,-41.656 -11.18,-64.386 0,-22.739 3.72,-44.204 11.18,-64.387 7.45,-20.192 18.02,-37.731 31.75,-52.629 13.72,-14.898 30.18,-26.754 49.4,-35.57 19.2,-8.821 40.76,-13.235 64.68,-13.235 z m 0,-52.9177 c -31.76,0 -60.96,5.586 -87.62,16.7578 -26.66,11.1719 -49.49,26.5509 -68.5,46.1599 -19.02,19.598 -33.91,42.723 -44.69,69.383 -10.79,26.652 -16.17,55.469 -16.17,86.438 0,30.964 5.38,59.773 16.17,86.437 10.78,26.649 25.67,49.774 44.69,69.379 19.01,19.602 41.84,34.992 68.5,46.16 26.66,11.176 55.86,16.762 87.62,16.762 31.74,0 60.94,-5.586 87.6,-16.762 26.66,-11.168 49.49,-26.558 68.51,-46.16 19,-19.605 33.9,-42.73 44.69,-69.379 10.78,-26.664 16.17,-55.473 16.17,-86.437 0,-30.969 -5.39,-59.786 -16.17,-86.438 -10.79,-26.66 -25.69,-49.785 -44.69,-69.383 -19.02,-19.609 -41.85,-34.988 -68.51,-46.1599 -26.66,-11.1718 -55.86,-16.7578 -87.6,-16.7578" /><path
         id="path50"
         style="fill:#6bcfe9;fill-opacity:1;fill-rule:nonzero;stroke:none"
         d="m 3414.29,118.613 c 23.91,0 45.47,4.414 64.68,13.235 19.2,8.816 35.67,20.672 49.4,35.57 13.71,14.898 24.29,32.437 31.74,52.629 7.44,20.183 11.18,41.648 11.18,64.387 0,22.73 -3.74,44.191 -11.18,64.386 -7.45,20.184 -18.03,37.723 -31.74,52.625 -13.73,14.895 -30.2,26.754 -49.4,35.575 -19.21,8.816 -40.77,13.23 -64.68,13.23 -23.91,0 -45.48,-4.414 -64.67,-13.23 -19.22,-8.821 -35.68,-20.68 -49.4,-35.575 -13.73,-14.902 -24.31,-32.441 -31.76,-52.625 -7.45,-20.195 -11.17,-41.656 -11.17,-64.386 0,-22.739 3.72,-44.204 11.17,-64.387 7.45,-20.192 18.03,-37.731 31.76,-52.629 13.72,-14.898 30.18,-26.754 49.4,-35.57 19.19,-8.821 40.76,-13.235 64.67,-13.235 z m 0,-52.9177 c -31.75,0 -60.95,5.586 -87.61,16.7578 -26.66,11.1719 -49.5,26.5509 -68.5,46.1599 -19.02,19.598 -33.92,42.723 -44.69,69.383 -10.79,26.652 -16.17,55.469 -16.17,86.438 0,30.964 5.38,59.773 16.17,86.437 10.77,26.649 25.67,49.774 44.69,69.379 19,19.602 41.84,34.992 68.5,46.16 26.66,11.176 55.86,16.762 87.61,16.762 31.75,0 60.95,-5.586 87.61,-16.762 26.66,-11.168 49.48,-26.558 68.51,-46.16 19,-19.605 33.89,-42.73 44.68,-69.379 10.79,-26.664 16.18,-55.473 16.18,-86.437 0,-30.969 -5.39,-59.786 -16.18,-86.438 -10.79,-26.66 -25.68,-49.785 -44.68,-69.383 -19.03,-19.609 -41.85,-34.988 -68.51,-46.1599 -26.66,-11.1718 -55.86,-16.7578 -87.61,-16.7578" /><path
         id="path52"
         style="fill:#6bcfe9;fill-opacity:1;fill-rule:nonzero;stroke:none"
         d="m 3762.37,439.664 h -134.06 v 52.922 h 324.58 V 439.664 H 3818.82 V 76.2813 h -56.45 V 439.664" /><path
         id="path54"
         style="fill:#6bcfe9;fill-opacity:1;fill-rule:nonzero;stroke:none"
         d="m 4001.22,492.586 h 56.44 V 319.715 h 215.8 v 172.871 h 56.45 V 76.2813 h -56.45 V 266.793 h -215.8 V 76.2813 h -56.44 V 492.586" /></g></g></svg>