<?xml version="1.0" encoding="utf-8"?>
<svg width="100%" height="100%" viewBox="0 0 1900 500" version="1.1" style="fill-rule:evenodd;clip-rule:evenodd;stroke-linejoin:round;stroke-miterlimit:2;" xmlns="http://www.w3.org/2000/svg" xmlns:xlink="http://www.w3.org/1999/xlink">
  <g>
    <title>Hyperledger</title>
    <path d="M 574.852 145.472 L 574.852 54.84 L 556.193 54.84 L 556.193 182.643 C 558.37 182.641 560.121 182.627 562.11 182.612 C 565.087 182.588 568.595 182.562 574.852 182.559 L 574.852 168.162 C 574.907 155.399 574.852 158.234 574.852 145.472 Z" style="fill:rgb(31,31,31);fill-rule:nonzero;"/>
    <path d="M 663.708 55.819 L 663.708 113.656 C 648.003 113.654 596.131 113.652 587.11 113.644 L 574.895 128.465 C 589.488 128.487 641.709 128.479 663.708 128.467 L 663.708 182.782 L 682.373 182.772 L 682.371 55.819 L 663.708 55.819 Z" style="fill:rgb(31,31,31);fill-rule:nonzero;"/>
    <path d="M 1274.21 122.154 C 1274.402 117.529 1277.259 114.208 1281.85 113.269 C 1283.355 112.96 1284.942 112.803 1286.565 112.801 C 1300.116 112.779 1313.666 112.779 1327.221 112.779 L 1339.078 112.779 C 1340.699 112.779 1342.829 112.87 1344.941 113.586 C 1348.652 114.842 1350.765 117.544 1351.05 121.405 C 1351.215 123.634 1351.19 125.893 1351.166 128.079 C 1351.156 129.011 1351.146 129.943 1351.149 130.875 L 1351.144 132.2 L 1274.154 132.2 L 1274.154 130.543 C 1274.156 129.725 1274.16 128.908 1274.154 128.091 C 1274.142 126.148 1274.128 124.139 1274.21 122.154 M 1369.465 160.915 C 1369.554 160.239 1369.586 159.557 1369.621 158.851 C 1369.622 158.83 1369.623 158.81 1369.624 158.79 L 1351.11 158.79 L 1351.048 159.297 C 1350.555 163.477 1347.886 166.508 1343.907 167.402 C 1342.374 167.747 1340.827 167.923 1339.31 167.925 C 1321.618 167.959 1303.926 167.957 1286.231 167.926 C 1284.689 167.923 1283.143 167.749 1281.633 167.409 C 1278.16 166.628 1275.812 164.541 1274.843 161.375 C 1274.474 160.171 1274.262 158.819 1274.215 157.356 C 1274.148 155.335 1274.164 153.285 1274.18 151.305 L 1274.18 147.078 L 1369.753 147.241 L 1369.758 140.553 C 1369.766 135.411 1369.773 130.269 1369.731 125.126 C 1369.713 122.735 1369.564 120.62 1369.275 118.658 C 1368.499 113.387 1366.037 108.897 1361.958 105.312 C 1356.514 100.529 1349.856 98.083 1342.172 98.043 C 1333.747 97.999 1325.252 97.984 1316.788 97.984 C 1307.46 97.984 1298.169 98.002 1289.038 98.019 L 1283.324 98.031 C 1281.598 98.034 1279.723 98.208 1277.75 98.55 C 1274.368 99.137 1271.214 100.244 1268.376 101.839 C 1264.03 104.284 1260.819 107.416 1258.558 111.41 C 1256.539 114.973 1255.562 118.893 1255.566 123.395 L 1255.571 137.834 C 1255.57 144.338 1255.57 150.84 1255.584 157.344 C 1255.588 158.639 1255.689 160.017 1255.885 161.436 C 1256.886 168.672 1260.765 174.369 1267.415 178.368 C 1272.28 181.296 1277.877 182.78 1284.051 182.784 C 1301.304 182.794 1318.558 182.791 1335.809 182.787 L 1341.56 182.785 C 1346.588 182.785 1351.251 181.767 1355.418 179.76 C 1363.74 175.753 1368.335 169.587 1369.465 160.915" style="fill:rgb(31,31,31);fill-rule:nonzero;"/>
    <path d="M 1756.52 128.08 C 1756.509 129.012 1756.499 129.944 1756.503 130.875 L 1756.498 132.201 L 1679.507 132.201 L 1679.507 130.544 C 1679.509 129.726 1679.514 128.909 1679.507 128.092 C 1679.495 126.149 1679.481 124.14 1679.563 122.155 C 1679.756 117.53 1682.613 114.209 1687.203 113.27 C 1688.708 112.961 1690.295 112.804 1691.919 112.802 C 1705.47 112.78 1719.02 112.78 1732.575 112.78 L 1744.432 112.78 C 1746.052 112.78 1748.183 112.871 1750.295 113.586 C 1754.006 114.843 1756.118 117.545 1756.403 121.406 C 1756.569 123.635 1756.543 125.894 1756.52 128.08 M 1774.628 118.659 C 1773.853 113.388 1771.39 108.898 1767.311 105.313 C 1761.867 100.529 1755.209 98.084 1747.525 98.043 C 1739.1 97.999 1730.605 97.984 1722.142 97.984 C 1712.813 97.984 1703.523 98.003 1694.391 98.019 L 1688.678 98.032 C 1686.952 98.035 1685.076 98.209 1683.104 98.551 C 1679.721 99.138 1676.567 100.245 1673.73 101.84 C 1669.384 104.285 1666.172 107.417 1663.911 111.411 C 1661.893 114.974 1660.915 118.894 1660.92 123.395 L 1660.925 137.835 C 1660.924 144.339 1660.924 150.841 1660.938 157.345 C 1660.942 158.64 1661.042 160.018 1661.239 161.437 C 1662.24 168.673 1666.119 174.37 1672.769 178.369 C 1677.633 181.296 1683.23 182.781 1689.405 182.785 C 1706.658 182.795 1723.912 182.791 1741.163 182.788 L 1746.914 182.786 C 1751.942 182.786 1756.604 181.768 1760.772 179.761 C 1769.093 175.753 1773.688 169.588 1774.819 160.916 C 1774.907 160.24 1774.94 159.558 1774.975 158.851 C 1774.975 158.831 1774.976 158.81 1774.977 158.79 L 1756.463 158.79 L 1756.401 159.298 C 1755.908 163.478 1753.239 166.508 1749.261 167.403 C 1747.728 167.748 1746.181 167.924 1744.663 167.925 C 1726.971 167.959 1709.28 167.957 1691.584 167.927 C 1690.043 167.924 1688.497 167.749 1686.987 167.41 C 1683.514 166.628 1681.166 164.541 1680.196 161.376 C 1679.827 160.172 1679.616 158.819 1679.568 157.356 C 1679.501 155.336 1679.518 153.286 1679.533 151.306 L 1679.533 147.079 L 1775.107 147.242 L 1775.112 140.554 C 1775.12 135.412 1775.126 130.269 1775.085 125.127 C 1775.066 122.736 1774.917 120.621 1774.628 118.659" style="fill:rgb(31,31,31);fill-rule:nonzero;"/>
    <path d="M 1068.17 128.189 C 1068.159 129.123 1068.149 130.056 1068.153 130.989 C 1068.156 131.253 1068.06 131.453 1067.996 131.585 L 1067.752 132.173 L 1067.043 132.315 L 991.378 132.315 L 991.231 131.248 C 991.194 131.032 991.168 130.844 991.168 130.658 C 991.17 129.839 991.164 129.022 991.157 128.206 C 991.145 126.263 991.131 124.254 991.213 122.269 C 991.407 117.644 994.263 114.322 998.853 113.384 C 1000.358 113.075 1001.946 112.918 1003.57 112.916 C 1017.121 112.894 1030.674 112.894 1044.226 112.894 L 1056.083 112.894 C 1057.702 112.894 1059.833 112.985 1061.945 113.7 C 1065.655 114.955 1067.768 117.659 1068.054 121.52 C 1068.219 123.747 1068.193 126.006 1068.17 128.189 M 1086.316 118.658 C 1085.54 113.386 1083.078 108.896 1079 105.313 C 1073.556 100.529 1066.899 98.084 1059.213 98.043 C 1050.788 97.999 1042.294 97.984 1033.83 97.984 C 1024.502 97.984 1015.212 98.002 1006.081 98.019 L 1000.366 98.031 C 998.64 98.035 996.764 98.209 994.792 98.55 C 991.41 99.137 988.256 100.245 985.419 101.839 C 981.072 104.286 977.859 107.417 975.599 111.411 C 973.582 114.972 972.604 118.892 972.608 123.395 L 972.613 137.67 C 972.612 144.229 972.612 150.786 972.627 157.344 C 972.63 158.638 972.73 160.016 972.927 161.437 C 973.928 168.674 977.808 174.37 984.458 178.369 C 989.321 181.296 994.918 182.781 1001.093 182.784 C 1018.347 182.794 1035.598 182.791 1052.851 182.788 L 1058.602 182.786 C 1063.63 182.786 1068.292 181.768 1072.46 179.761 C 1080.78 175.753 1085.376 169.589 1086.508 160.914 C 1086.595 160.243 1086.628 159.561 1086.663 158.856 C 1086.664 158.834 1086.664 158.812 1086.665 158.79 L 1068.151 158.79 L 1068.089 159.297 C 1067.598 163.478 1064.928 166.508 1060.949 167.402 C 1059.416 167.748 1057.869 167.923 1056.352 167.925 C 1038.66 167.959 1020.968 167.957 1003.273 167.927 C 1001.732 167.923 1000.186 167.749 998.676 167.409 C 995.202 166.628 992.854 164.541 991.884 161.376 C 991.516 160.171 991.304 158.82 991.256 157.356 C 991.19 155.335 991.206 153.286 991.221 151.306 L 991.233 149.366 C 991.234 149.102 991.268 148.84 991.313 148.521 L 991.468 147.242 L 1086.795 147.242 L 1086.801 140.53 C 1086.808 135.396 1086.816 130.261 1086.774 125.126 C 1086.754 122.735 1086.606 120.62 1086.316 118.658" style="fill:rgb(31,31,31);fill-rule:nonzero;"/>
    <path d="M 1879.5 111.225 C 1877.255 107.05 1874.072 103.791 1870.042 101.542 C 1865.934 99.252 1861.237 98.104 1855.688 98.032 C 1848.159 97.932 1841.4 97.933 1835.025 98.035 C 1830.7 98.102 1826.453 99.019 1822.755 100.634 C 1820.24 101.733 1818.023 103.405 1816.101 105.347 L 1815.993 105.454 L 1815.993 98.233 L 1797.329 98.233 C 1797.329 98.233 1797.773 182.921 1797.476 182.744 L 1816.013 182.744 L 1816.272 125.469 C 1816.282 123.722 1816.368 122.3 1816.544 120.993 C 1816.987 117.681 1818.771 115.324 1821.843 113.983 C 1824.015 113.035 1826.239 112.904 1828.13 112.901 C 1836.195 112.891 1844.257 112.88 1852.32 112.911 C 1853.613 112.916 1854.887 113.092 1856.185 113.285 C 1860.851 113.985 1863.867 117.402 1864.232 122.417 C 1864.233 122.417 1864.233 122.417 1864.233 122.418 L 1882.826 122.418 C 1882.211 117.855 1881.15 114.291 1879.5 111.225" style="fill:rgb(31,31,31);fill-rule:nonzero;"/>
    <path d="M 922.802 182.766 C 923.778 182.764 924.8 182.642 925.788 182.524 L 926.027 182.495 C 931.375 181.861 936.177 180.032 940.301 177.06 C 943.926 174.448 946.498 171.314 948.162 167.482 C 949.489 164.432 950.13 161.095 950.125 157.282 C 950.113 146.393 950.117 135.505 950.122 124.616 L 950.123 123.196 C 950.123 121.407 950.053 119.068 949.497 116.848 C 948.1 111.266 945.014 106.742 940.326 103.404 C 935.001 99.613 928.797 97.683 921.89 97.668 C 907.018 97.636 892.15 97.642 877.281 97.678 C 875.502 97.683 873.668 97.837 871.831 98.136 C 867.748 98.803 863.836 100.343 860.207 102.717 C 859.968 102.873 858.702 103.699 857.727 104.433 L 857.727 104.478 L 857.727 98.098 L 839.139 98.098 L 839.139 205.516 C 841.168 205.51 844.655 205.49 848.183 205.47 C 851.864 205.448 855.589 205.426 857.761 205.421 L 857.766 154.641 C 857.757 144.609 857.757 134.577 857.766 124.545 L 857.765 124.06 C 857.763 123.056 857.759 122.017 857.895 120.982 C 858.384 117.224 860.423 114.622 863.789 113.46 C 865.399 112.906 867.09 112.605 868.681 112.591 C 875.142 112.537 881.602 112.546 888.065 112.549 L 894.616 112.554 L 901.366 112.549 C 907.761 112.544 914.156 112.537 920.552 112.595 C 922.068 112.608 923.757 112.921 925.439 113.499 C 929.075 114.751 931.343 117.991 931.353 121.958 C 931.382 134.066 931.376 146.177 931.358 158.288 C 931.35 162.954 928.607 166.366 924.018 167.414 C 922.545 167.751 920.998 167.924 919.417 167.927 C 906.835 167.951 896.544 167.947 885.831 167.949 L 876.08 167.949 L 862.143 182.773 C 876.522 182.813 906.46 182.785 921.24 182.767 L 922.802 182.766 Z" style="fill:rgb(31,31,31);fill-rule:nonzero;"/>
    <path d="M 1505.09 182.409 L 1505.09 57.661 L 1486.468 57.756 L 1486.465 156.438 C 1486.467 157.446 1486.47 158.486 1486.335 159.524 C 1485.846 163.284 1483.808 165.884 1480.441 167.046 C 1478.831 167.6 1477.14 167.902 1475.549 167.915 L 1423.678 167.913 C 1422.161 167.898 1420.472 167.585 1418.791 167.007 C 1415.152 165.756 1412.886 162.515 1412.877 158.55 C 1412.848 146.441 1412.854 134.329 1412.872 122.218 C 1412.879 117.553 1415.623 114.142 1420.212 113.092 C 1421.687 112.755 1423.235 112.583 1424.814 112.581 L 1468.15 112.557 L 1482.087 97.736 C 1467.699 97.692 1437.744 97.722 1422.955 97.739 L 1421.429 97.741 C 1420.451 97.742 1419.428 97.864 1418.438 97.982 L 1418.203 98.011 C 1412.853 98.647 1408.05 100.476 1403.928 103.446 C 1400.355 106.021 1397.709 109.244 1396.067 113.024 C 1394.741 116.075 1394.1 119.413 1394.104 123.226 C 1394.118 134.588 1394.112 145.951 1394.107 157.311 C 1394.106 159.1 1394.176 161.438 1394.733 163.66 C 1396.13 169.242 1399.216 173.764 1403.903 177.102 C 1409.229 180.894 1415.432 182.824 1422.34 182.839 C 1437.213 182.874 1452.081 182.866 1466.949 182.828 C 1468.727 182.824 1470.561 182.669 1472.398 182.37 C 1476.482 181.704 1480.392 180.163 1484.023 177.789 C 1484.259 177.635 1485.23 177.02 1486.503 176.258 L 1486.503 176.239 L 1486.536 176.239 C 1486.525 176.245 1486.515 176.251 1486.503 176.258 L 1486.503 182.409 L 1505.09 182.409 Z" style="fill:rgb(31,31,31);fill-rule:nonzero;"/>
    <path d="M 815.65 98.486 C 815.65 98.356 815.646 98.227 815.639 98.095 L 797.056 98.095 L 797.056 109.097 C 797.058 124.981 797.059 140.863 797.039 156.747 C 797.038 158.075 796.894 159.381 796.612 160.627 C 795.975 163.442 794.338 165.478 791.744 166.677 C 789.872 167.545 787.75 167.949 785.066 167.949 L 773.369 167.949 C 760.696 167.949 748.023 167.952 735.348 167.927 C 733.765 167.924 732.217 167.749 730.745 167.408 C 727.253 166.601 724.885 164.54 723.711 161.283 C 723.165 159.771 723.165 158.253 723.165 156.913 L 723.162 98.697 C 723.162 98.496 723.153 98.295 723.14 98.092 L 704.6 98.092 L 704.599 111.188 C 704.598 126.324 704.597 141.461 704.615 156.597 C 704.618 158.295 704.732 160.029 704.956 161.756 C 705.531 166.204 707.362 170.135 710.398 173.444 C 715.886 179.427 722.905 182.537 731.258 182.686 L 779.782 182.745 C 785.502 182.745 790.543 181.353 794.672 178.637 C 794.91 178.482 796.061 177.689 797.034 176.563 L 797.056 176.553 L 797.039 194.385 C 797.008 197.18 795.671 199.514 793.167 201.135 C 791.179 202.424 788.795 203.051 785.879 203.051 L 785.864 203.051 L 768.388 203.048 C 756.545 203.046 743.645 203.045 734.094 203.036 L 721.879 217.857 C 738.345 217.882 773.395 217.868 788.199 217.855 C 789.344 217.853 790.583 217.772 792.095 217.596 C 797.232 216.997 801.895 215.186 805.954 212.214 C 812.342 207.538 815.592 201.354 815.614 193.83 C 815.683 170.335 815.671 146.445 815.66 123.342 L 815.65 98.486 Z" style="fill:rgb(31,31,31);fill-rule:nonzero;"/>
    <path d="M 1192.3 111.225 C 1190.054 107.05 1186.872 103.791 1182.841 101.542 C 1178.733 99.252 1174.037 98.104 1168.487 98.032 C 1160.958 97.932 1154.2 97.933 1147.825 98.035 C 1143.499 98.102 1139.252 99.019 1135.555 100.634 C 1133.039 101.733 1130.822 103.405 1128.9 105.347 L 1128.793 105.454 L 1128.793 98.233 L 1110.129 98.233 C 1110.129 98.233 1110.573 182.921 1110.276 182.744 L 1128.812 182.744 L 1129.072 125.469 C 1129.082 123.722 1129.167 122.3 1129.343 120.993 C 1129.786 117.681 1131.57 115.324 1134.643 113.983 C 1136.814 113.035 1139.038 112.904 1140.93 112.901 C 1148.995 112.891 1157.057 112.88 1165.12 112.911 C 1166.413 112.916 1167.686 113.092 1168.985 113.285 C 1173.651 113.985 1176.667 117.402 1177.032 122.417 L 1177.033 122.418 L 1195.625 122.418 C 1195.011 117.855 1193.95 114.291 1192.3 111.225" style="fill:rgb(31,31,31);fill-rule:nonzero;"/>
    <rect x="54.149" y="72.814" width="126.953" height="18.665" style="fill:rgb(31,31,31);" transform="matrix(0, 1, 1, 0, 1140.991989, 1.670006)"/>
    <path d="M 1639.88 98.408 C 1639.88 98.217 1639.87 98.024 1639.858 97.823 C 1637.441 97.831 1635.038 97.829 1632.642 97.826 C 1628.884 97.821 1625.133 97.818 1621.355 97.857 L 1621.28 104.446 C 1621.28 104.446 1613.778 97.649 1601.142 97.649 C 1594.18 97.649 1587.218 97.657 1580.256 97.659 C 1572.657 97.66 1565.068 97.657 1557.475 97.674 C 1555.249 97.679 1553.473 97.803 1551.881 98.061 C 1547.517 98.766 1543.566 100.222 1540.139 102.387 C 1535.278 105.454 1531.931 109.542 1530.191 114.532 C 1529.27 117.172 1528.825 120.052 1528.835 123.339 C 1528.855 130.796 1528.852 138.252 1528.849 145.708 L 1528.848 156.891 C 1528.849 158.933 1528.98 160.643 1529.262 162.27 C 1530.029 166.7 1531.905 170.531 1534.837 173.654 C 1540.334 179.513 1547.297 182.552 1555.533 182.687 C 1569.253 182.916 1585.239 182.836 1600.697 182.759 L 1602.487 182.748 L 1616.417 167.93 C 1599.535 167.96 1575.157 167.96 1559.167 167.916 C 1557.701 167.913 1556.064 167.671 1554.299 167.198 C 1550.378 166.144 1547.932 163.07 1547.589 158.76 C 1547.551 158.301 1547.552 157.838 1547.554 157.376 L 1547.555 145.206 L 1547.55 123.41 C 1547.55 121.927 1547.631 120.339 1548.212 118.782 C 1549.213 116.106 1551.11 114.258 1553.699 113.441 C 1555.444 112.888 1557.085 112.602 1558.574 112.589 C 1565.037 112.532 1571.5 112.54 1577.961 112.547 L 1584.515 112.552 L 1590.997 112.547 C 1597.485 112.542 1603.971 112.535 1610.456 112.589 C 1611.933 112.601 1613.531 112.887 1615.206 113.44 C 1617.984 114.361 1619.891 116.394 1620.723 119.316 C 1621.059 120.5 1621.237 121.714 1621.24 122.828 L 1621.323 191.505 L 1621.315 191.505 L 1621.315 191.767 C 1621.318 192.778 1621.32 193.789 1621.318 194.799 C 1621.315 195.648 1621.102 196.596 1620.718 197.467 C 1619.754 199.656 1618.01 201.225 1615.534 202.133 C 1613.829 202.759 1611.975 203.105 1609.94 203.056 L 1587.694 203.048 C 1577.51 203.046 1567.082 203.044 1558.389 203.034 L 1546.166 217.861 C 1559.574 217.93 1583.02 217.897 1600.368 217.871 L 1612.559 217.854 C 1613.825 217.853 1615.119 217.733 1616.328 217.601 C 1620.578 217.144 1624.629 215.756 1628.37 213.478 C 1632.905 210.717 1636.057 207.174 1638.006 202.649 C 1639.297 199.65 1639.897 196.36 1639.894 192.293 C 1639.88 171.012 1639.881 149.731 1639.881 128.451 L 1639.88 98.408 Z" style="fill:rgb(31,31,31);fill-rule:nonzero;"/>
  </g>
  <g>
    <title>web3j</title>
    <path d="M 572.436 428.642 L 546.132 267.167 L 565.522 267.167 L 588.344 416.191 L 591.584 416.191 L 621.345 267.167 L 655.942 267.167 L 685.461 416.191 L 688.701 416.191 L 711.548 267.167 L 730.913 267.167 L 704.609 428.642 L 670.013 428.642 L 640.251 278.7 L 637.036 278.7 L 607.274 428.642 L 572.436 428.642 Z" style="fill:rgb(0,92,214);fill-rule:nonzero;"/>
    <path d="M 757.898 428.642 L 757.898 267.167 L 857.336 267.167 L 857.336 284.695 L 777.288 284.695 L 777.288 338.682 L 850.881 338.682 L 850.881 356.209 L 777.288 356.209 L 777.288 411.114 L 858.496 411.114 L 858.496 428.642 L 757.898 428.642 Z" style="fill:rgb(0,92,214);fill-rule:nonzero;"/>
    <path d="M 922.155 338.44 L 959.532 338.44 C 968.749 338.44 976.123 336.095 981.653 331.404 C 987.196 326.714 989.97 320.525 989.97 312.837 L 989.97 310.516 C 989.97 302.683 987.238 296.421 981.774 291.731 C 976.322 287.041 968.912 284.695 959.532 284.695 L 922.155 284.695 L 922.155 338.44 Z M 922.155 411.114 L 958.831 411.114 C 968.985 411.114 976.752 408.733 982.137 403.958 C 987.516 399.19 990.212 392.728 990.212 384.568 L 990.212 382.514 C 990.212 374.36 987.516 367.899 982.137 363.124 C 976.752 358.355 968.985 355.968 958.831 355.968 L 922.155 355.968 L 922.155 411.114 Z M 880.16 428.642 L 880.16 411.332 L 902.79 411.332 L 902.79 284.454 L 880.16 284.454 L 880.16 267.168 L 961.152 267.168 C 970.532 267.168 978.873 268.86 986.174 272.245 C 993.476 275.617 999.163 280.337 1003.243 286.412 C 1007.317 292.492 1009.36 299.607 1009.36 307.76 L 1009.36 309.597 C 1009.36 317.14 1007.891 323.342 1004.959 328.189 C 1002.04 333.024 998.583 336.79 994.588 339.48 C 990.587 342.175 986.67 344.133 982.838 345.355 L 982.838 348.594 C 986.67 349.513 990.659 351.32 994.805 354.009 C 998.964 356.705 1002.469 360.513 1005.322 365.445 C 1008.175 370.365 1009.601 376.585 1009.601 384.109 L 1009.601 386.43 C 1009.601 395.2 1007.48 402.773 1003.243 409.156 C 999.018 415.539 993.246 420.386 985.932 423.686 C 978.631 426.992 970.29 428.642 960.91 428.642 L 880.16 428.642 Z" style="fill:rgb(0,92,214);fill-rule:nonzero;"/>
    <path d="M 1221.83 431.882 C 1205.982 431.882 1193.483 427.427 1184.332 418.512 C 1175.176 409.585 1170.6 396.814 1170.6 380.193 L 1170.6 367.742 L 1189.748 367.742 L 1189.748 380.193 C 1189.748 390.19 1192.395 398.343 1197.702 404.659 C 1203.021 410.964 1210.981 414.112 1221.588 414.112 C 1232.353 414.112 1239.962 411.006 1244.411 404.78 C 1248.872 398.543 1251.108 390.347 1251.108 380.193 L 1251.108 284.695 L 1222.749 284.695 L 1222.749 267.168 L 1288.025 267.168 L 1288.025 284.695 L 1270.497 284.695 L 1270.497 380.193 C 1270.497 396.959 1266.339 409.76 1258.022 418.609 C 1249.718 427.458 1237.654 431.882 1221.83 431.882" style="fill:rgb(0,92,214);fill-rule:nonzero;"/>
    <path d="M 1091.71 431.882 C 1080.329 431.882 1070.145 429.73 1061.151 425.427 C 1052.157 421.111 1045.08 414.88 1039.924 406.738 C 1034.762 398.585 1032.188 388.739 1032.188 377.195 L 1032.188 372.819 L 1050.876 372.819 L 1050.876 376.977 C 1050.876 388.812 1054.636 398.108 1062.167 404.877 C 1069.71 411.646 1079.556 415.031 1091.71 415.031 C 1104.022 415.031 1113.596 411.84 1120.432 405.457 C 1127.28 399.074 1130.707 391.042 1130.707 381.353 L 1130.707 379.516 C 1130.707 372.444 1129.015 366.715 1125.63 362.326 C 1122.245 357.944 1117.664 354.711 1111.897 352.632 C 1106.126 350.552 1099.785 349.513 1092.871 349.513 L 1066.566 349.513 L 1066.566 326.207 L 1128.168 286.775 L 1128.168 283.994 L 1036.128 283.994 L 1036.128 267.168 L 1147.993 267.168 L 1147.993 293.23 L 1087.793 331.985 L 1087.793 334.741 L 1099.326 334.741 C 1108.398 334.741 1116.739 336.403 1124.349 339.721 C 1131.97 343.028 1138.044 347.953 1142.578 354.493 C 1147.123 361.021 1149.395 369.205 1149.395 379.032 L 1149.395 381.571 C 1149.395 391.725 1147.008 400.573 1142.239 408.116 C 1137.464 415.648 1130.767 421.486 1122.148 425.645 C 1113.542 429.803 1103.394 431.882 1091.71 431.882" style="fill:rgb(0,92,214);fill-rule:nonzero;"/>
  </g>
  <g id="Layer-1" style="">
    <title>logo</title>
    <path d="M 321.897 43.79 L 214.309 250.048 L 285.125 249.971 L 392.713 43.712 L 321.897 43.79 Z M 321.981 43.71 L 429.567 249.969 L 500.383 250.049 L 392.797 43.789 L 321.981 43.71 Z M 220.231 43.791 L 112.642 250.047 L 183.456 249.969 L 291.045 43.713 L 220.231 43.791 Z M 220.313 43.712 L 327.902 249.969 L 398.718 250.047 L 291.129 43.79 L 220.313 43.712 Z M 112.643 250.13 L 220.231 456.381 L 291.045 456.459 L 183.457 250.208 L 112.643 250.13 Z M 327.902 250.207 L 220.314 456.458 L 291.127 456.381 L 398.715 250.129 L 327.902 250.207 Z M 214.31 250.129 L 321.898 456.381 L 392.711 456.458 L 285.124 250.207 L 214.31 250.129 Z M 429.567 250.207 L 321.983 456.46 L 392.796 456.382 L 500.38 250.129 L 429.567 250.207 Z M 221.043 43.79 L 113.455 250.048 L 184.271 249.971 L 291.859 43.713 L 221.043 43.79 Z M 221.124 43.71 L 328.71 249.969 L 399.526 250.049 L 291.94 43.789 L 221.124 43.71 Z M 119.376 43.791 L 11.786999999999999 250.047 L 82.601 249.969 L 190.19 43.713 L 119.376 43.791 Z M 119.458 43.712 L 227.047 249.969 L 297.863 250.047 L 190.274 43.79 L 119.458 43.712 Z M 11.788 250.13 L 119.376 456.382 L 190.189 456.459 L 82.602 250.208 L 11.788 250.13 Z M 227.048 250.207 L 119.46 456.458 L 190.274 456.38 L 297.862 250.129 L 227.048 250.207 Z M 113.456 250.129 L 221.044 456.381 L 291.857 456.458 L 184.27 250.207 L 113.456 250.129 Z M 328.711 250.206 L 221.127 456.459 L 291.94 456.381 L 399.524 250.128 L 328.711 250.206 Z" style="fill-rule: nonzero; fill: rgb(7, 108, 213);"/>
  </g>
  <defs>
  </defs>
</svg>
