<?xml version="1.0" encoding="utf-8"?>
<!-- Generator: Adobe Illustrator 25.3.1, SVG Export Plug-In . SVG Version: 6.00 Build 0)  -->
<svg version="1.1" id="Layer_1" xmlns="http://www.w3.org/2000/svg" xmlns:xlink="http://www.w3.org/1999/xlink" x="0px" y="0px"
	 viewBox="0 0 743 203.4" style="enable-background:new 0 0 743 203.4;" xml:space="preserve">
<style type="text/css">
	.st0{fill:#E3262D;}
	.st1{fill:none;stroke:#FFFFFF;stroke-width:1.4384;stroke-miterlimit:10;}
	.st2{fill:none;stroke:#FFFFFF;stroke-width:1.4449;stroke-miterlimit:10;}
	.st3{fill:#FFFFFF;stroke:#FFFFFF;stroke-width:1.4384;stroke-miterlimit:10;}
	.st4{fill:#2F3134;}
</style>
<g>
	<g>
		<path class="st0" d="M213.8,84.7l-18.5-4l12.5-14.5c-10.9-10.8-34.2-13.6-58.2-5.8c-3.5,1.1-6.8,2.4-10,3.9
			c0.4-3.4,0.6-7,0.6-10.6c0-25.2-9.9-46.6-23.5-53.6l-10,16.4L97.1,0c-13.6,7-23.5,28.3-23.5,53.5c0,3.6,0.2,7.2,0.6,10.6
			c-3.2-1.5-6.5-2.8-10-3.9c-24-7.8-47.3-5-58.2,5.8l12.5,14.5L0,84.7c2.5,15.1,19.7,31.1,43.7,38.9c3.4,1.1,6.9,2,10.2,2.7
			c-2.3,2.5-4.6,5.3-6.7,8.2c-14.8,20.4-19.4,43.5-12.5,57.2l17.7-7.4l-1.9,18.8c15.1,2.3,35.7-9.1,50.5-29.5c2.2-3,4.1-6.1,5.9-9.1
			c1.7,3.1,3.7,6.1,5.9,9.1c14.8,20.4,35.3,31.8,50.5,29.5l-1.9-18.8l17.7,7.4c6.9-13.7,2.4-36.8-12.5-57.2
			c-2.1-2.9-4.4-5.7-6.7-8.2c3.4-0.7,6.8-1.6,10.2-2.7C194.1,115.8,211.4,99.8,213.8,84.7z"/>
		<polygon class="st1" points="159.8,127 106.9,165.3 54,127 74.3,65.1 139.6,65.1 		"/>
		<g>
			<g>
				<line class="st2" x1="106.6" y1="132.7" x2="138" y2="129.9"/>
				<line class="st2" x1="75.2" y1="129.9" x2="106.6" y2="132.7"/>
				<g>
					<polygon class="st1" points="138,129.9 106.6,148 75.2,129.9 75.2,93.7 106.6,75.6 138,93.7 					"/>
					<line class="st1" x1="138" y1="93.6" x2="106.6" y2="90.8"/>
					<line class="st1" x1="75.2" y1="93.7" x2="106.6" y2="90.8"/>
					<line class="st1" x1="138" y1="93.7" x2="124.7" y2="122.2"/>
					<line class="st1" x1="106.6" y1="148" x2="124.7" y2="122.2"/>
					<line class="st1" x1="75.2" y1="93.7" x2="88.5" y2="122.2"/>
					<line class="st1" x1="106.6" y1="148" x2="88.5" y2="122.2"/>
					<polygon class="st1" points="124.7,122.2 106.6,90.8 88.5,122.2 					"/>
					<polygon class="st1" points="88.5,101.1 106.6,132.4 124.7,101.1 					"/>
					<line class="st1" x1="75.2" y1="93.7" x2="88.5" y2="101.1"/>
					<line class="st1" x1="124.7" y1="101.1" x2="138" y2="93.7"/>
					<line class="st1" x1="106.6" y1="132.4" x2="106.6" y2="148"/>
					<circle class="st3" cx="106.6" cy="148" r="2.2"/>
					<circle class="st3" cx="75.2" cy="93.7" r="2.2"/>
					<circle class="st3" cx="88.5" cy="122.2" r="2.2"/>
					<circle class="st3" cx="124.7" cy="122.2" r="2.2"/>
					<circle class="st3" cx="106.6" cy="90.8" r="2.2"/>
					<circle class="st3" cx="138" cy="93.7" r="2.2"/>
					<line class="st1" x1="138" y1="129.9" x2="124.7" y2="101.1"/>
					<line class="st1" x1="106.6" y1="75.6" x2="124.7" y2="101.1"/>
					<line class="st1" x1="75.2" y1="129.9" x2="88.5" y2="101.1"/>
					<line class="st1" x1="106.6" y1="75.6" x2="88.5" y2="101.1"/>
				</g>
			</g>
			<line class="st1" x1="106.6" y1="148" x2="80.5" y2="146"/>
			<line class="st1" x1="132.8" y1="146.4" x2="106.6" y2="148"/>
			<line class="st1" x1="64.1" y1="96.3" x2="75.2" y2="93.7"/>
			<line class="st1" x1="149.8" y1="96.3" x2="138" y2="93.7"/>
			<line class="st1" x1="75.2" y1="129.9" x2="54" y2="127"/>
			<line class="st1" x1="138" y1="129.9" x2="159.8" y2="127"/>
			<line class="st1" x1="74.3" y1="65" x2="106.6" y2="75.6"/>
			<line class="st1" x1="139.6" y1="65" x2="106.6" y2="75.6"/>
		</g>
		<line class="st1" x1="106.9" y1="65.1" x2="106.7" y2="16.4"/>
		<line class="st1" x1="64.1" y1="96.3" x2="18.5" y2="80.7"/>
		<line class="st1" x1="52.5" y1="184.3" x2="80.5" y2="146"/>
		<line class="st1" x1="161.4" y1="184.3" x2="132.8" y2="146.4"/>
		<line class="st1" x1="195.4" y1="80.7" x2="149.8" y2="96.3"/>
		<line class="st1" x1="159.8" y1="127" x2="195.4" y2="80.7"/>
		<line class="st1" x1="139.6" y1="65.1" x2="195.4" y2="80.7"/>
		<line class="st1" x1="74.3" y1="65.1" x2="106.7" y2="16.4"/>
		<line class="st1" x1="139.6" y1="65.1" x2="106.7" y2="16.4"/>
		<line class="st1" x1="53.9" y1="126.3" x2="18.5" y2="80.7"/>
		<line class="st1" x1="74.3" y1="65.1" x2="18.5" y2="80.7"/>
		<line class="st1" x1="53.9" y1="126.3" x2="52.5" y2="184.3"/>
		<line class="st1" x1="106.9" y1="165.3" x2="52.5" y2="184.3"/>
		<line class="st1" x1="159.8" y1="127" x2="161.4" y2="184.3"/>
		<line class="st1" x1="106.9" y1="165.3" x2="161.4" y2="184.3"/>
	</g>
	<g>
		<path class="st4" d="M262.3,16.4l10.5-0.1l0.1,17.8l20.5-0.1l-0.1-17.8l10.5-0.1l0.3,47.8L293.5,64l-0.1-20.6L273,43.4l0.1,20.6
			l-10.5,0.1L262.3,16.4z"/>
		<path class="st4" d="M324.7,43.4l-18.1-27.3l13.1-0.1L330,33.9l10.6-17.9l12.5-0.1l-17.8,27.5l0.1,20.4l-10.5,0.1L324.7,43.4z"/>
		<path class="st4" d="M355.9,15.9l17.8-0.1c2.5,0,4.8,0.2,7,0.6c2.2,0.4,4.1,1.2,5.8,2.3c1.6,1.1,3,2.6,3.9,4.4
			c1,1.9,1.5,4.2,1.5,7c0,2.8-0.4,5.1-1.3,7c-0.9,1.9-2.1,3.4-3.7,4.5c-1.6,1.1-3.4,1.9-5.6,2.4c-2.2,0.5-4.5,0.7-7,0.7l-7.7,0
			l0.1,18.6l-10.5,0.1L355.9,15.9z M366.6,36l7,0c0.9,0,1.9-0.1,2.7-0.3c0.9-0.2,1.7-0.5,2.4-0.9c0.7-0.4,1.3-1,1.7-1.8
			c0.4-0.7,0.6-1.7,0.6-2.8c0-1.2-0.3-2.2-0.9-2.9c-0.6-0.7-1.3-1.3-2.2-1.7c-0.9-0.4-1.9-0.7-2.9-0.8c-1.1-0.1-2.1-0.2-3.1-0.1
			l-5.4,0L366.6,36z"/>
		<path class="st4" d="M398.2,15.6l32.5-0.2l0.1,9.7l-21.9,0.1l0,8.9l20.7-0.1l0.1,9.7l-20.7,0.1l0.1,9.7l23.2-0.1l0.1,9.7
			l-33.7,0.2L398.2,15.6z"/>
		<path class="st4" d="M439.6,15.4l18.5-0.1c2.4,0,4.7,0.2,6.9,0.7c2.2,0.5,4.1,1.2,5.8,2.3c1.6,1.1,3,2.6,3.9,4.4
			c1,1.9,1.5,4.2,1.5,7c0,3.4-0.8,6.2-2.6,8.6c-1.7,2.4-4.3,3.9-7.7,4.5L478.2,63L465.6,63l-10.1-19l-5.2,0l0.1,19.1l-10.5,0.1
			L439.6,15.4z M450.3,35.1l6.2,0c0.9,0,1.9,0,3-0.1c1.1-0.1,2-0.3,2.9-0.6c0.9-0.3,1.6-0.9,2.1-1.6c0.6-0.7,0.8-1.7,0.8-3
			c0-1.2-0.3-2.2-0.8-2.9s-1.1-1.3-1.9-1.6c-0.8-0.4-1.6-0.6-2.6-0.8c-1-0.1-2-0.2-2.9-0.2l-6.9,0L450.3,35.1z"/>
		<path class="st4" d="M483.1,15.2l10.5-0.1l0.2,38.1l19.5-0.1l0.1,9.7l-30,0.2L483.1,15.2z"/>
		<path class="st4" d="M518.7,15l32.5-0.2l0.1,9.7l-21.9,0.1l0,8.9l20.7-0.1l0.1,9.7l-20.7,0.1l0.1,9.7l23.2-0.1l0.1,9.7L519,62.8
			L518.7,15z"/>
		<path class="st4" d="M560.2,14.8l15.8-0.1c3.8,0,7.5,0.4,10.9,1.2c3.4,0.8,6.5,2.2,9,4.1c2.6,1.9,4.6,4.4,6.2,7.4
			c1.5,3.1,2.3,6.8,2.3,11.1c0,3.9-0.7,7.3-2.1,10.2c-1.4,3-3.4,5.4-5.9,7.5c-2.5,2-5.3,3.5-8.5,4.6c-3.2,1.1-6.6,1.6-10.2,1.6
			l-17.2,0.1L560.2,14.8z M570.9,52.8l5.5,0c2.4,0,4.7-0.3,6.8-0.8c2.1-0.5,3.9-1.3,5.4-2.5c1.5-1.2,2.7-2.7,3.6-4.5
			c0.9-1.9,1.3-4.2,1.3-6.9c0-2.3-0.5-4.4-1.4-6.1c-0.9-1.7-2.1-3.1-3.6-4.3c-1.5-1.1-3.2-2-5.2-2.5c-2-0.6-4.1-0.8-6.3-0.8l-6.2,0
			L570.9,52.8z"/>
		<path class="st4" d="M654.2,58.7c-3.1,1.6-6.3,2.8-9.7,3.6c-3.4,0.7-6.8,1.1-10.3,1.1c-3.7,0-7.2-0.5-10.3-1.7
			c-3.2-1.2-5.9-2.8-8.2-5c-2.3-2.2-4.1-4.8-5.4-7.9c-1.3-3.1-2-6.6-2-10.4c0-3.8,0.6-7.3,1.9-10.4c1.3-3.1,3-5.8,5.3-8
			c2.3-2.2,5-3.9,8.1-5.1c3.1-1.2,6.6-1.8,10.3-1.8c3.8,0,7.4,0.4,10.6,1.3c3.2,0.9,6.1,2.5,8.5,4.7l-7.4,8.1
			c-1.4-1.5-3.1-2.6-4.9-3.4c-1.8-0.8-4.1-1.1-6.8-1.1c-2.3,0-4.3,0.4-6.1,1.2c-1.8,0.8-3.4,1.8-4.7,3.2c-1.3,1.4-2.3,3-3,4.9
			c-0.7,1.9-1,3.9-1,6.1c0,2.3,0.4,4.3,1.1,6.2c0.7,1.9,1.7,3.5,3,4.8c1.3,1.4,2.9,2.4,4.7,3.2c1.8,0.8,3.9,1.1,6.1,1.1
			c2.3,0,4.3-0.3,5.9-0.8c1.7-0.5,3-1.1,4-1.6l0-7.8l-8.6,0l-0.1-9.7l18.7-0.1L654.2,58.7z"/>
		<path class="st4" d="M663,14.2l32.5-0.2l0.1,9.7l-21.9,0.1l0,8.9l20.7-0.1l0.1,9.7l-20.7,0.1l0.1,9.7l23.2-0.1l0.1,9.7L663.2,62
			L663,14.2z"/>
		<path class="st4" d="M704.4,14l18.5-0.1c2.4,0,4.7,0.2,6.9,0.7c2.2,0.5,4.1,1.2,5.8,2.3c1.6,1.1,3,2.6,3.9,4.4
			c1,1.9,1.5,4.2,1.5,7c0,3.4-0.8,6.2-2.6,8.6c-1.7,2.4-4.3,3.9-7.7,4.5L743,61.6l-12.6,0.1l-10.1-19l-5.2,0l0.1,19.1l-10.5,0.1
			L704.4,14z M715.1,33.7l6.2,0c0.9,0,1.9,0,3-0.1c1.1-0.1,2-0.3,2.9-0.6c0.9-0.3,1.6-0.9,2.1-1.6c0.6-0.7,0.8-1.7,0.8-3
			c0-1.2-0.3-2.2-0.8-2.9c-0.5-0.7-1.1-1.3-1.9-1.6c-0.8-0.4-1.6-0.6-2.6-0.8c-1-0.1-2-0.2-2.9-0.2l-6.9,0L715.1,33.7z"/>
	</g>
	<g>
		<path class="st0" d="M262.3,90.6h12.7v93.4h-12.7V90.6z"/>
		<path class="st0" d="M295.4,90.6h32.8c23.9,0,29.9,14.4,29.9,26.1c0,11.9-8.8,23.1-22.9,24.7l26.5,42.6h-15.8l-23.7-41.1h-14.1
			v41.1h-12.7V90.6z M308.1,131.7h16.6c10,0,20-2.4,20-15c0-12.7-10-15-20-15h-16.6V131.7z"/>
		<path class="st0" d="M366.7,137.2c0-27.7,20.2-49.1,48.7-49.1c28.5,0,48.7,21.4,48.7,49.1s-20.2,49.1-48.7,49.1
			C386.9,186.3,366.7,164.9,366.7,137.2z M450.6,137.2c0-20.4-13.8-37.2-35.2-37.2c-21.4,0-35.2,16.7-35.2,37.2s13.8,37.2,35.2,37.2
			C436.7,174.4,450.6,157.7,450.6,137.2z"/>
		<path class="st0" d="M479.3,90.6h12.7v38.8h48.4V90.6H553v93.4h-12.7v-42.7h-48.4v42.7h-12.7V90.6z"/>
		<path class="st0" d="M603.8,90.6h11.5l40,93.4h-14.8l-9.4-23.1h-44.4l-9.2,23.1h-14.8L603.8,90.6z M626.5,149.8l-17.4-42.9h-0.3
			l-17.7,42.9H626.5z"/>
	</g>
</g>
</svg>
