<?xml version="1.0" encoding="utf-8"?>
<!-- Generator: Adobe Illustrator 25.3.1, SVG Export Plug-In . SVG Version: 6.00 Build 0)  -->
<svg version="1.1" id="Layer_1" xmlns="http://www.w3.org/2000/svg" xmlns:xlink="http://www.w3.org/1999/xlink" x="0px" y="0px"
	 viewBox="0 0 326.5 91" style="enable-background:new 0 0 326.5 91;" xml:space="preserve">
<style type="text/css">
	.st0{fill:#24272A;}
	.st1{fill:#F1564A;}
	.st2{fill:#97D6D7;}
</style>
<g>
	<polygon class="st0" points="118.5,20.2 127.2,20.1 127.3,28.9 131.7,28.9 131.6,8.6 127.2,8.6 127.2,16.2 118.5,16.2 118.5,8.6 
		114,8.7 114.1,29 118.6,28.9 	"/>
	<polygon class="st0" points="142.6,29 147.1,28.9 147,20.3 154.6,8.6 149.3,8.6 144.8,16.2 140.4,8.7 134.9,8.7 142.6,20.3 	"/>
	<path class="st0" d="M162.3,28.9l0-7.9l3.3,0c1.1,0,2.1-0.1,3-0.3c0.9-0.2,1.7-0.5,2.4-1c0.7-0.5,1.2-1.1,1.6-1.9
		c0.4-0.8,0.6-1.8,0.6-3c0-1.2-0.2-2.2-0.6-3c-0.4-0.8-1-1.4-1.7-1.9c-0.7-0.5-1.5-0.8-2.5-1c-0.9-0.2-1.9-0.3-3-0.3l-7.6,0
		l0.1,20.3L162.3,28.9z M164.5,12.4c0.4,0,0.9,0,1.3,0.1c0.5,0,0.9,0.2,1.3,0.3c0.4,0.2,0.7,0.4,0.9,0.7c0.2,0.3,0.4,0.7,0.4,1.2
		c0,0.5-0.1,0.9-0.3,1.2c-0.2,0.3-0.4,0.6-0.7,0.8c-0.3,0.2-0.6,0.3-1,0.4c-0.4,0.1-0.8,0.1-1.2,0.1l-3,0l0-4.8L164.5,12.4z"/>
	<polygon class="st0" points="190.6,28.9 190.6,24.8 180.7,24.8 180.7,20.7 189.5,20.6 189.5,16.5 180.7,16.5 180.7,12.8 190,12.7 
		190,8.6 176.2,8.6 176.3,29 	"/>
	<path class="st0" d="M204.7,28.9l5.4,0l-5.2-8.6c1.4-0.3,2.5-0.9,3.3-1.9c0.7-1,1.1-2.2,1.1-3.7c0-1.2-0.2-2.2-0.6-3
		c-0.4-0.8-1-1.4-1.7-1.9c-0.7-0.5-1.5-0.8-2.4-1c-0.9-0.2-1.9-0.3-2.9-0.3l-7.9,0l0.1,20.3l4.5,0l0-8.1l2.2,0L204.7,28.9z
		 M198.2,17l0-4.6l2.9,0c0.4,0,0.8,0,1.2,0.1c0.4,0.1,0.8,0.2,1.1,0.3c0.3,0.2,0.6,0.4,0.8,0.7c0.2,0.3,0.3,0.7,0.3,1.2
		c0,0.6-0.1,1-0.4,1.3c-0.2,0.3-0.5,0.5-0.9,0.7c-0.4,0.1-0.8,0.2-1.2,0.3c-0.4,0-0.9,0-1.3,0L198.2,17z"/>
	<polygon class="st0" points="226,28.9 226,24.7 217.7,24.8 217.6,8.6 213.1,8.6 213.2,28.9 	"/>
	<polygon class="st0" points="243.5,28.9 243.5,24.7 233.7,24.8 233.6,20.7 242.5,20.6 242.4,16.5 233.6,16.5 233.6,12.7 
		242.9,12.7 242.9,8.6 229.1,8.6 229.2,29 	"/>
	<path class="st0" d="M262,26.3c1-0.9,1.9-1.9,2.5-3.2c0.6-1.3,0.9-2.7,0.9-4.4c0-1.9-0.3-3.4-1-4.7c-0.6-1.3-1.5-2.3-2.6-3.2
		c-1.1-0.8-2.4-1.4-3.8-1.7c-1.5-0.4-3-0.5-4.6-0.5l-6.7,0l0.1,20.3l7.3,0c1.5,0,3-0.2,4.3-0.7C259.8,27.8,261,27.1,262,26.3z
		 M253.5,24.8l-2.3,0l-0.1-12.1l2.6,0c0.9,0,1.8,0.1,2.7,0.3c0.8,0.2,1.6,0.6,2.2,1.1c0.6,0.5,1.1,1.1,1.5,1.8
		c0.4,0.7,0.6,1.6,0.6,2.6c0,1.1-0.2,2.1-0.5,2.9c-0.4,0.8-0.9,1.4-1.5,1.9c-0.6,0.5-1.4,0.8-2.3,1.1
		C255.5,24.7,254.6,24.8,253.5,24.8z"/>
	<path class="st0" d="M280.1,16.9l0,4.1l3.6,0l0,3.3c-0.4,0.2-1,0.5-1.7,0.7c-0.7,0.2-1.5,0.3-2.5,0.3c-1,0-1.8-0.2-2.6-0.5
		c-0.8-0.3-1.4-0.8-2-1.4c-0.6-0.6-1-1.3-1.3-2.1c-0.3-0.8-0.5-1.7-0.5-2.6c0-0.9,0.1-1.8,0.4-2.6c0.3-0.8,0.7-1.5,1.3-2.1
		c0.6-0.6,1.2-1,2-1.4c0.8-0.3,1.6-0.5,2.6-0.5c1.1,0,2.1,0.2,2.9,0.5c0.8,0.3,1.5,0.8,2.1,1.4l3.1-3.5c-1-1-2.2-1.6-3.6-2
		c-1.4-0.4-2.9-0.6-4.5-0.6c-1.6,0-3.1,0.3-4.4,0.8c-1.3,0.5-2.5,1.2-3.5,2.2c-1,0.9-1.7,2.1-2.3,3.4c-0.5,1.3-0.8,2.8-0.8,4.4
		c0,1.6,0.3,3.1,0.8,4.4c0.6,1.3,1.3,2.4,2.3,3.4c1,0.9,2.1,1.6,3.5,2.1c1.3,0.5,2.8,0.7,4.4,0.7c1.5,0,3-0.2,4.4-0.5
		c1.4-0.3,2.8-0.8,4.1-1.5L288,16.8L280.1,16.9z"/>
	<polygon class="st0" points="305.6,28.4 305.6,24.3 295.8,24.3 295.7,20.2 304.6,20.1 304.5,16 295.7,16.1 295.7,12.3 305,12.2 
		305,8.1 291.2,8.2 291.3,28.5 	"/>
	<path class="st0" d="M313.3,28.4l0-8.1l2.2,0l4.3,8.1l5.4,0l-5.2-8.6c1.4-0.3,2.5-0.9,3.3-1.9c0.7-1,1.1-2.2,1.1-3.7
		c0-1.2-0.2-2.2-0.6-3c-0.4-0.8-1-1.4-1.7-1.9c-0.7-0.5-1.5-0.8-2.4-1c-0.9-0.2-1.9-0.3-2.9-0.3l-7.9,0l0.1,20.3L313.3,28.4z
		 M316.2,11.9c0.4,0,0.8,0,1.2,0.1c0.4,0.1,0.8,0.2,1.1,0.3c0.3,0.2,0.6,0.4,0.8,0.7c0.2,0.3,0.3,0.7,0.3,1.2c0,0.6-0.1,1-0.4,1.3
		c-0.2,0.3-0.5,0.5-0.9,0.7c-0.4,0.1-0.8,0.2-1.2,0.3c-0.5,0-0.9,0-1.3,0l-2.6,0l0-4.6L316.2,11.9z"/>
</g>
<g>
	<path class="st1" d="M114.2,43.5h26.2v5.3h-20.5v13.1H139v5.3h-19.1v18h-5.6V43.5z"/>
	<path class="st1" d="M157.5,43.5h5.1l17.8,41.7h-6.6l-4.2-10.3h-19.8l-4.1,10.3h-6.6L157.5,43.5z M167.6,69.9l-7.8-19.1h-0.1
		l-7.9,19.1H167.6z"/>
	<path class="st1" d="M183.5,43.5H198c7.2,0,12.7,3.4,12.7,10.4c0,4.8-2.9,7.8-7.2,9.2v0.1c5,0.4,9,4.8,9,10.4
		c0,7.5-6.5,11.6-14.7,11.6h-14.3V43.5z M189.2,60.8h7.7c4.3,0,7.8-1.7,7.8-6.2c0-3.3-2.1-6.1-6.6-6.1h-8.9V60.8z M189.2,80.2h8.3
		c3.4,0,9-1.2,9-7.1c0-4.9-3.5-7.4-8.9-7.4h-8.4V80.2z"/>
	<path class="st1" d="M219.4,43.5h14.7c10.7,0,13.4,6.4,13.4,11.7c0,5.3-3.9,10.3-10.2,11l11.8,19H242l-10.6-18.4h-6.3v18.4h-5.7
		V43.5z M225.1,61.9h7.4c4.5,0,8.9-1.1,8.9-6.7s-4.5-6.7-8.9-6.7h-7.4V61.9z"/>
	<path class="st1" d="M255.4,43.5h5.7v41.7h-5.7V43.5z"/>
	<path class="st1" d="M298.4,52.5c-2.4-3.1-6.2-4.8-10.1-4.8c-9.4,0-15.5,7.5-15.5,16.9c0,8.8,5.8,16.2,15.5,16.2
		c4.8,0,8.4-2.1,10.9-5.6l4.8,3.6c-1.2,1.7-6.2,7.3-15.8,7.3c-13.2,0-21.4-11.1-21.4-21.5c0-12.9,8.9-22.2,21.7-22.2
		c5.5,0,11.2,2.1,14.6,6.5L298.4,52.5z"/>
</g>
<g>
	<path class="st1" d="M51.5,85.2c-0.4,0.8-1.4,1.2-2.2,0.8l-18.6-8.9c-0.8-0.4-1.2-1.4-0.8-2.2l2-4.1c0.4-0.8,1.4-1.2,2.2-0.8
		l18.6,8.9c0.8,0.4,1.2,1.4,0.8,2.2L51.5,85.2z M14.6,67.6c-0.4,0.8-1.4,1.2-2.2,0.8L1,63c-0.8-0.4-1.2-1.4-0.8-2.2l2-4.1
		c0.4-0.8,1.4-1.2,2.2-0.8l11.4,5.4c0.8,0.4,1.2,1.4,0.8,2.2L14.6,67.6z"/>
	<path class="st1" d="M89.1,35.2c-0.4,0.8-1.4,1.2-2.2,0.8l-11.4-5.4c-0.8-0.4-1.2-1.4-0.8-2.2l2-4.1c0.4-0.8,1.4-1.2,2.2-0.8
		l11.4,5.4c0.8,0.4,1.2,1.4,0.8,2.2L89.1,35.2z M59.4,21.1c-0.4,0.8-1.4,1.2-2.2,0.8L38.7,13c-0.8-0.4-1.2-1.4-0.8-2.2l2-4.1
		c0.4-0.8,1.4-1.2,2.2-0.8l18.5,8.8c0.8,0.4,1.2,1.4,0.8,2.2L59.4,21.1z"/>
	<path class="st1" d="M32.2,30.7c-0.4,0.8-1.4,1.2-2.2,0.8l-11.4-5.4c-0.8-0.4-1.2-1.4-0.8-2.2l2-4.1c0.4-0.8,1.4-1.2,2.2-0.8
		l11.4,5.4c0.8,0.4,1.2,1.4,0.8,2.2L32.2,30.7z"/>
	<path class="st1" d="M69.1,48.3c-0.4,0.8-1.4,1.2-2.2,0.8l-18.6-8.9c-0.8-0.4-1.2-1.4-0.8-2.2l2-4.1c0.4-0.8,1.4-1.2,2.2-0.8
		l18.6,8.9c0.8,0.4,1.2,1.4,0.8,2.2L69.1,48.3z"/>
	<path class="st1" d="M71.5,72.1c-0.4,0.8-1.4,1.2-2.2,0.8l-11.4-5.5c-0.8-0.4-1.2-1.4-0.8-2.2l2-4.1c0.4-0.8,1.4-1.2,2.2-0.8
		l11.4,5.5c0.8,0.4,1.2,1.4,0.8,2.2L71.5,72.1z"/>
	<path class="st1" d="M41.8,58c-0.4,0.8-1.4,1.2-2.2,0.8L21,49.9c-0.8-0.4-1.2-1.4-0.8-2.2l2-4.1c0.4-0.8,1.4-1.2,2.2-0.8L43,51.6
		c0.8,0.4,1.2,1.4,0.8,2.2L41.8,58z"/>
	<g>
		<path class="st2" d="M12.7,52.9c-0.4,0.8-1.4,1.2-2.2,0.8l-4.1-2c-0.8-0.4-1.2-1.4-0.8-2.2l8.9-18.6c0.4-0.8,1.4-1.2,2.2-0.8
			l4.1,2c0.8,0.4,1.2,1.4,0.8,2.2L12.7,52.9z"/>
		<path class="st2" d="M30.3,16c-0.4,0.8-1.4,1.2-2.2,0.8l-4.1-2c-0.8-0.4-1.2-1.4-0.8-2.2l5.4-11.3c0.4-0.8,1.4-1.2,2.2-0.8l4.1,2
			c0.8,0.4,1.2,1.4,0.8,2.2L30.3,16z"/>
		<path class="st2" d="M62.7,90.4c-0.4,0.8-1.4,1.2-2.2,0.8l-4.1-2c-0.8-0.4-1.2-1.4-0.8-2.2l5.4-11.3c0.4-0.8,1.4-1.2,2.2-0.8
			l4.1,2c0.8,0.4,1.2,1.4,0.8,2.2L62.7,90.4z"/>
		<path class="st2" d="M76.8,60.9c-0.4,0.8-1.4,1.2-2.2,0.8l-4.1-2c-0.8-0.4-1.2-1.4-0.8-2.2l8.9-18.6c0.4-0.8,1.4-1.2,2.2-0.8
			l4.1,2c0.8,0.4,1.2,1.4,0.8,2.2L76.8,60.9z"/>
		<path class="st2" d="M67.2,33.6c-0.4,0.8-1.4,1.2-2.2,0.8l-4.1-2c-0.8-0.4-1.2-1.4-0.8-2.2L65.4,19c0.4-0.8,1.4-1.2,2.2-0.8l4.1,2
			c0.8,0.4,1.2,1.4,0.8,2.2L67.2,33.6z"/>
		<path class="st2" d="M49.6,70.5c-0.4,0.8-1.4,1.2-2.2,0.8l-4.1-2c-0.8-0.4-1.2-1.4-0.8-2.2l8.9-18.6c0.4-0.8,1.4-1.2,2.2-0.8
			l4.1,2c0.8,0.4,1.2,1.4,0.8,2.2L49.6,70.5z"/>
		<path class="st2" d="M25.8,72.8c-0.4,0.8-1.4,1.2-2.2,0.8l-4.1-2c-0.8-0.4-1.2-1.4-0.8-2.2L24,58.1c0.4-0.8,1.4-1.2,2.2-0.8l4.1,2
			c0.8,0.4,1.2,1.4,0.8,2.2L25.8,72.8z"/>
		<path class="st2" d="M39.9,43.3c-0.4,0.8-1.4,1.2-2.2,0.8l-4.1-2c-0.8-0.4-1.2-1.4-0.8-2.2l8.9-18.6c0.4-0.8,1.4-1.2,2.2-0.8
			l4.1,2c0.8,0.4,1.2,1.4,0.8,2.2L39.9,43.3z"/>
	</g>
</g>
</svg>
