<?xml version="1.0" encoding="utf-8"?>
<!-- Generator: Adobe Illustrator 25.3.1, SVG Export Plug-In . SVG Version: 6.00 Build 0)  -->
<svg version="1.1" id="Layer_1" xmlns="http://www.w3.org/2000/svg" xmlns:xlink="http://www.w3.org/1999/xlink" x="0px" y="0px"
	 viewBox="0 0 329.8 93.1" style="enable-background:new 0 0 329.8 93.1;" xml:space="preserve">
<style type="text/css">
	.st0{fill:#24272A;}
	.st1{fill:#F37321;}
</style>
<g>
	<g>
		<polygon class="st0" points="120.6,19.8 129.3,19.8 129.4,28.6 133.8,28.6 133.7,8.2 129.3,8.2 129.3,15.8 120.6,15.9 120.5,8.3 
			116,8.3 116.2,28.7 120.6,28.6 		"/>
		<polygon class="st0" points="144.7,28.7 149.2,28.6 149.2,19.9 156.8,8.2 151.4,8.3 146.9,15.9 142.5,8.3 137,8.3 144.7,20 		"/>
		<path class="st0" d="M164.5,28.6l0-7.9l3.3,0c1.1,0,2.1-0.1,3-0.3c0.9-0.2,1.7-0.5,2.4-1c0.7-0.5,1.2-1.1,1.6-1.9
			c0.4-0.8,0.6-1.8,0.6-3c0-1.2-0.2-2.2-0.6-3c-0.4-0.8-1-1.4-1.7-1.9c-0.7-0.5-1.5-0.8-2.5-1c-0.9-0.2-1.9-0.3-3-0.3l-7.6,0
			l0.1,20.4L164.5,28.6z M166.7,12c0.4,0,0.9,0,1.3,0.1s0.9,0.2,1.3,0.3c0.4,0.2,0.7,0.4,0.9,0.7c0.2,0.3,0.4,0.7,0.4,1.2
			c0,0.5-0.1,0.9-0.3,1.2c-0.2,0.3-0.4,0.6-0.7,0.7c-0.3,0.2-0.6,0.3-1,0.4c-0.4,0.1-0.8,0.1-1.2,0.1l-3,0l0-4.8L166.7,12z"/>
		<polygon class="st0" points="192.8,28.6 192.8,24.4 182.9,24.5 182.9,20.4 191.7,20.3 191.7,16.2 182.9,16.2 182.9,12.4 
			192.2,12.4 192.2,8.2 178.4,8.3 178.5,28.7 		"/>
		<path class="st0" d="M207,28.6l5.4,0l-5.2-8.6c1.4-0.3,2.5-0.9,3.3-1.9c0.7-1,1.1-2.2,1.1-3.7c0-1.2-0.2-2.2-0.6-3
			c-0.4-0.8-1-1.4-1.7-1.9c-0.7-0.5-1.5-0.8-2.5-1c-0.9-0.2-1.9-0.3-2.9-0.3l-7.9,0l0.1,20.4l4.5,0l0-8.1l2.2,0L207,28.6z
			 M200.5,16.7l0-4.6l2.9,0c0.4,0,0.8,0,1.2,0.1s0.8,0.2,1.1,0.3c0.3,0.2,0.6,0.4,0.8,0.7c0.2,0.3,0.3,0.7,0.3,1.2
			c0,0.6-0.1,1-0.4,1.3c-0.2,0.3-0.5,0.5-0.9,0.7c-0.4,0.1-0.8,0.2-1.2,0.3c-0.4,0-0.9,0-1.3,0L200.5,16.7z"/>
		<polygon class="st0" points="228.3,28.6 228.3,24.4 220,24.5 219.9,8.2 215.4,8.3 215.5,28.6 		"/>
		<polygon class="st0" points="245.9,28.6 245.9,24.4 236,24.5 236,20.3 244.8,20.3 244.8,16.2 235.9,16.2 235.9,12.4 245.3,12.4 
			245.3,8.2 231.4,8.3 231.5,28.6 		"/>
		<path class="st0" d="M264.4,26c1-0.9,1.9-1.9,2.5-3.2c0.6-1.3,0.9-2.7,0.9-4.4c0-1.9-0.3-3.4-1-4.7s-1.5-2.4-2.6-3.2
			c-1.1-0.8-2.4-1.4-3.9-1.7c-1.5-0.4-3-0.5-4.7-0.5l-6.7,0l0.1,20.4l7.3,0c1.5,0,3-0.2,4.3-0.7C262.2,27.5,263.4,26.8,264.4,26z
			 M255.9,24.5l-2.3,0l-0.1-12.1l2.6,0c0.9,0,1.8,0.1,2.7,0.3c0.8,0.2,1.6,0.6,2.2,1.1c0.6,0.5,1.1,1.1,1.5,1.8s0.6,1.6,0.6,2.6
			c0,1.1-0.2,2.1-0.5,2.9c-0.4,0.8-0.9,1.4-1.5,1.9c-0.6,0.5-1.4,0.8-2.3,1.1C257.9,24.3,256.9,24.5,255.9,24.5z"/>
		<path class="st0" d="M282.5,16.5l0,4.1l3.7,0l0,3.3c-0.4,0.2-1,0.5-1.7,0.7c-0.7,0.2-1.6,0.3-2.5,0.3c-1,0-1.8-0.2-2.6-0.5
			c-0.8-0.3-1.4-0.8-2-1.4c-0.6-0.6-1-1.3-1.3-2.1c-0.3-0.8-0.5-1.7-0.5-2.6c0-0.9,0.1-1.8,0.4-2.6c0.3-0.8,0.7-1.5,1.3-2.1
			c0.6-0.6,1.2-1,2-1.4c0.8-0.3,1.6-0.5,2.6-0.5c1.1,0,2.1,0.1,2.9,0.5c0.8,0.3,1.5,0.8,2.1,1.4l3.1-3.5c-1-1-2.2-1.6-3.6-2
			c-1.4-0.4-2.9-0.6-4.5-0.6c-1.6,0-3.1,0.3-4.4,0.8c-1.3,0.5-2.5,1.2-3.5,2.2c-1,0.9-1.7,2.1-2.3,3.4c-0.5,1.3-0.8,2.8-0.8,4.4
			c0,1.6,0.3,3.1,0.8,4.4c0.6,1.3,1.3,2.4,2.3,3.4c1,0.9,2.1,1.6,3.5,2.1c1.3,0.5,2.8,0.7,4.4,0.7c1.5,0,3-0.2,4.4-0.5
			c1.4-0.3,2.8-0.8,4.1-1.5l-0.1-10.6L282.5,16.5z"/>
		<polygon class="st0" points="308.1,28.1 308.1,24 298.2,24 298.2,19.9 307,19.8 307,15.7 298.2,15.7 298.2,11.9 307.5,11.9 
			307.5,7.7 293.7,7.8 293.8,28.2 		"/>
		<path class="st0" d="M315.8,28.1l0-8.1l2.2,0l4.3,8.1l5.4,0l-5.2-8.6c1.4-0.3,2.5-0.9,3.3-1.9c0.7-1,1.1-2.2,1.1-3.7
			c0-1.2-0.2-2.2-0.6-3c-0.4-0.8-1-1.4-1.7-1.9c-0.7-0.5-1.5-0.8-2.5-1c-0.9-0.2-1.9-0.3-3-0.3l-7.9,0l0.1,20.4L315.8,28.1z
			 M318.7,11.6c0.4,0,0.8,0,1.2,0.1s0.8,0.2,1.1,0.3c0.3,0.2,0.6,0.4,0.8,0.7s0.3,0.7,0.3,1.2c0,0.6-0.1,1-0.4,1.3
			c-0.2,0.3-0.5,0.5-0.9,0.7c-0.4,0.1-0.8,0.2-1.2,0.3c-0.4,0-0.9,0-1.3,0l-2.6,0l0-4.6L318.7,11.6z"/>
	</g>
	<g>
		<path class="st1" d="M114.3,65c0-12.8,9.4-21.3,21.2-21.3c7.3,0,12.4,3.2,16,7.6l-4.1,2.6c-2.6-3.3-7-5.7-11.9-5.7
			c-9,0-15.8,6.8-15.8,16.7c0,9.7,6.8,16.7,15.8,16.7c4.9,0,9-2.3,11.1-4.4V69h-14.2v-4.6h19.2v14.8c-3.8,4.3-9.4,7.2-16.2,7.2
			C123.7,86.4,114.3,77.8,114.3,65z"/>
		<path class="st1" d="M183.7,85.6l-10.4-16.3H165v16.3h-5.1V44.4h16.5c7.5,0,13,4.8,13,12.4c0,7.4-5.1,11.5-10.7,12l11.1,16.8
			H183.7z M184.1,56.8c0-4.7-3.4-7.8-8.3-7.8H165v15.7h10.8C180.7,64.7,184.1,61.4,184.1,56.8z"/>
		<path class="st1" d="M197.5,85.6V44.4h5.1v41.1H197.5z"/>
		<path class="st1" d="M212.2,85.6V44.4h14.1c12.8,0,21.1,8.9,21.1,20.6c0,11.7-8.3,20.5-21.1,20.5H212.2z M242.1,65
			c0-8.9-5.6-16-15.8-16h-8.9v32h8.9C236.3,81,242.1,73.8,242.1,65z"/>
	</g>
	<g>
		<rect x="50.9" y="10.9" class="st0" width="14.2" height="14.7"/>
		<rect x="70.1" y="10.9" class="st0" width="13.9" height="14.7"/>
		<rect x="12.7" y="30.6" class="st0" width="14.4" height="13.8"/>
		<rect x="50.9" y="30.6" class="st0" width="14.2" height="13.8"/>
		<rect x="32.1" y="68.6" class="st0" width="13.8" height="13.6"/>
		<rect x="32.1" y="10.9" class="st0" width="13.8" height="14.7"/>
		<rect x="70.1" y="30.6" class="st0" width="13.9" height="13.8"/>
		<rect x="32.1" y="30.6" class="st0" width="13.8" height="13.8"/>
		<rect x="32.1" y="49.4" class="st0" width="13.8" height="14.2"/>
		<rect x="50.9" y="49.4" class="st1" width="14.2" height="14.2"/>
		<rect x="12.7" y="10.9" class="st1" width="14.4" height="14.7"/>
		<rect x="12.7" y="68.6" class="st0" width="14.4" height="13.6"/>
		<rect x="12.7" y="49.4" class="st0" width="14.4" height="14.2"/>
		<path class="st1" d="M89.7,5.2v82.7H7V5.2H89.7 M94.7,0.2h-5H7H2v5v82.7v5h5h82.7h5v-5V5.2V0.2L94.7,0.2z"/>
	</g>
</g>
</svg>
