<?xml version="1.0" encoding="utf-8"?>
<!-- Generator: Adobe Illustrator 25.3.1, SVG Export Plug-In . SVG Version: 6.00 Build 0)  -->
<svg version="1.1" id="Layer_1" xmlns="http://www.w3.org/2000/svg" xmlns:xlink="http://www.w3.org/1999/xlink" x="0px" y="0px"
	 viewBox="0 0 415.3 122.3" style="enable-background:new 0 0 415.3 122.3;" xml:space="preserve">
<style type="text/css">
	.st0{fill:#00538B;}
	.st1{fill:#8C9091;}
	.st2{fill:#2F3134;}
</style>
<g>
	<g>
		<g id="g3476" transform="matrix(0.79543424,0,0,0.79543424,-29.374918,-164.19294)">
			<g id="g-39">
				<g id="g-40">
					<path id="path3480" class="st0" d="M136.4,349.3l-18.8,10.9l-18.8-10.9v-21.9l18.8-10.9l18.8,10.9V349.3z"/>
				</g>
			</g>
		</g>
		<g id="g3482" transform="matrix(0.4773114,0,0,0.4773114,-22.142277,-214.49827)">
			<g id="g-11">
				<g id="g-12">
					<path id="path3486" class="st0" d="M138.1,482.2l-18.8,10.9l-18.8-10.9v-21.9l18.8-10.9l18.8,10.9V482.2z"/>
				</g>
			</g>
		</g>
		<g id="g3488" transform="matrix(0.31250858,0,0,0.31250858,197.9259,-14.885247)">
			<g id="g-1">
				<g id="g-2">
					<path id="path3492" class="st0" d="M-249.2,251.1l-18.8,10.9l-18.8-10.9v-21.9l18.8-10.9l18.8,10.9V251.1z"/>
				</g>
			</g>
		</g>
		<g id="g3494" transform="matrix(0.40373871,0,0,0.40373871,118.6681,47.206187)">
			<g id="g-15">
				<g id="g-16">
					<path id="path3498" class="st0" d="M-55.1,161.8l-18.8,10.9l-18.8-10.9v-21.9l18.8-10.9l18.8,10.9V161.8z"/>
				</g>
			</g>
		</g>
		<g id="g3500" transform="matrix(1.7972,0,0,1.7972,-306.01556,-798.51339)">
			<g id="g-31">
				<g id="g-32">
					<path id="path3504" class="st0" d="M214.5,486.3l-18.8,10.9l-18.8-10.9v-21.9l18.8-10.9l18.8,10.9V486.3z"/>
				</g>
			</g>
		</g>
		<g id="g3506" transform="matrix(0.94327003,0,0,0.94327003,35.370161,-283.14336)">
			<g id="g-3">
				<g id="g-4">
					<path id="path3510" class="st0" d="M95.4,402.9l-18.8,10.9l-18.8-10.9V381l18.8-10.9L95.4,381V402.9z"/>
				</g>
			</g>
		</g>
		<g id="g3512" transform="matrix(0.17330407,0,0,0.17330407,246.03239,38.641745)">
			<g id="g-25">
				<g id="g-26">
					<path id="path3516" class="st0" d="M-702.9,87.3l-18.8,10.9l-18.8-10.9V65.4l18.8-10.9l18.8,10.9V87.3z"/>
				</g>
			</g>
		</g>
		<g id="g3518" transform="matrix(0.62891477,0,0,0.62891477,-110.12272,-108.14605)">
			<g id="g-5">
				<g id="g-6">
					<path id="path3522" class="st0" d="M212.7,328.4l-18.8,10.9l-18.8-10.9v-21.9l18.8-10.9l18.8,10.9V328.4z"/>
				</g>
			</g>
		</g>
		<g id="g3524" transform="matrix(0.23412183,0,0,0.23412183,0.764975,-82.9111)">
			<g id="g-7">
				<g id="g-8">
					<path id="path3528" class="st0" d="M100.6,418.8l-18.8,10.9L63,418.8v-21.9L81.8,386l18.8,10.9V418.8z"/>
				</g>
			</g>
		</g>
		<g id="g3530" transform="matrix(0.08473194,0,0,0.08473194,280.53852,83.104273)">
			<g id="g-9">
				<g id="g-10">
					<path id="path3534" class="st0" d="M-1793.4-366.3l-18.8,10.9l-18.8-10.9v-21.9l18.8-10.9l18.8,10.9V-366.3z"/>
				</g>
			</g>
		</g>
		<g id="g3536" transform="matrix(0.08473194,0,0,0.08473194,25.876638,7.8212873)">
			<g id="g-13">
				<g id="g-14">
					<path id="path3540" class="st0" d="M-102.3,133.6l-18.8,10.9l-18.8-10.9v-21.9l18.8-10.9l18.8,10.9V133.6z"/>
				</g>
			</g>
		</g>
		<g id="g3542" transform="matrix(0.20680638,0,0,0.20680638,143.41198,-29.113302)">
			<g id="g-17">
				<g id="g-18">
					<path id="path3546" class="st0" d="M-290.2,296.2l-18.8,10.9l-18.8-10.9v-21.9l18.8-10.9l18.8,10.9V296.2z"/>
				</g>
			</g>
		</g>
		<g id="g3548" transform="matrix(0.37989122,0,0,0.37989122,131.63043,-117.61278)">
			<g id="g-19">
				<g id="g-20">
					<path id="path3552" class="st0" d="M-85.3,401.1l-18.8,10.9l-18.8-10.9v-21.9l18.8-10.9l18.8,10.9V401.1z"/>
				</g>
			</g>
		</g>
		<g id="g3554" transform="matrix(0.1165688,0,0,0.1165688,86.558337,205.88381)">
			<g id="g-21">
				<g id="g-22">
					<path id="path3558" class="st0" d="M-334.2-793.7l-18.8,10.9l-18.8-10.9v-21.9l18.8-10.9l18.8,10.9V-793.7z"/>
				</g>
			</g>
		</g>
		<g id="flowRoot4486" transform="translate(-14.132563,-0.00588023)">
		</g>
	</g>
	<g>
		<rect x="153.2" y="58" class="st1" width="7.1" height="52.5"/>
		<polygon class="st1" points="173.9,58 183.2,58 212.1,101.2 212.3,101.2 212.3,58 219.4,58 219.4,110.6 210.3,110.6 181.1,67.4 
			181,67.4 181,110.6 173.9,110.6 		"/>
		<path class="st1" d="M231.7,58H250c22.2,0,27.6,16.5,27.6,26.3c0,13.4-10,26.3-28.8,26.3h-17.1V58z M238.8,103.9h9
			c12,0,22.3-6.6,22.3-19.6c0-6.7-3.5-19.6-20.5-19.6h-10.7V103.9z"/>
		<polygon class="st1" points="300.3,88.2 280.4,58 289.5,58 303.8,81.1 318.6,58 327.3,58 307.4,88.2 307.4,110.6 300.3,110.6 		
			"/>
		<polygon class="st2" points="152.5,14.6 158.3,14.6 158.3,24.3 169.5,24.3 169.5,14.5 175.2,14.5 175.4,40.6 169.6,40.7 
			169.6,29.4 158.4,29.4 158.4,40.7 152.7,40.7 		"/>
		<polygon class="st2" points="186.7,29.6 176.8,14.7 183.9,14.6 189.5,24.4 195.3,14.6 202.2,14.5 192.4,29.6 192.5,40.7 
			186.7,40.7 		"/>
		<path class="st2" d="M203.7,14.6l9.7,0c1.4,0,2.6,0.1,3.8,0.3c1.2,0.2,2.3,0.7,3.2,1.3c0.9,0.6,1.6,1.4,2.2,2.4
			c0.5,1,0.8,2.3,0.8,3.9c0,1.5-0.2,2.8-0.7,3.8c-0.5,1-1.2,1.9-2,2.5c-0.9,0.6-1.9,1.1-3.1,1.3c-1.2,0.3-2.5,0.4-3.8,0.4l-4.2,0
			l0.1,10.2l-5.8,0L203.7,14.6z M209.5,25.6l3.8,0c0.5,0,1-0.1,1.5-0.2c0.5-0.1,0.9-0.3,1.3-0.5c0.4-0.2,0.7-0.6,0.9-1
			c0.2-0.4,0.3-0.9,0.3-1.5c0-0.7-0.2-1.2-0.5-1.6c-0.3-0.4-0.7-0.7-1.2-0.9c-0.5-0.2-1-0.4-1.6-0.4c-0.6-0.1-1.2-0.1-1.7-0.1l-3,0
			L209.5,25.6z"/>
		<polygon class="st2" points="226.8,14.6 244.6,14.5 244.6,19.8 232.6,19.9 232.6,24.8 244,24.7 244,30 232.7,30.1 232.7,35.4 
			245.4,35.3 245.4,40.6 227,40.7 		"/>
		<path class="st2" d="M249.5,14.6l10.1-0.1c1.3,0,2.6,0.1,3.8,0.4c1.2,0.3,2.2,0.7,3.1,1.3c0.9,0.6,1.6,1.4,2.1,2.4
			c0.5,1,0.8,2.3,0.8,3.8c0,1.8-0.5,3.4-1.4,4.7c-0.9,1.3-2.3,2.1-4.2,2.5l6.7,11l-6.9,0l-5.5-10.4l-2.8,0l0.1,10.4l-5.8,0
			L249.5,14.6z M255.3,25.4l3.4,0c0.5,0,1.1,0,1.6-0.1c0.6,0,1.1-0.2,1.6-0.3c0.5-0.2,0.9-0.5,1.2-0.9c0.3-0.4,0.5-0.9,0.5-1.7
			c0-0.7-0.1-1.2-0.4-1.6c-0.3-0.4-0.6-0.7-1-0.9c-0.4-0.2-0.9-0.3-1.4-0.4c-0.5-0.1-1.1-0.1-1.6-0.1l-3.8,0L255.3,25.4z"/>
		<polygon class="st2" points="273.3,14.6 279,14.6 279.1,35.4 289.8,35.3 289.8,40.6 273.4,40.7 		"/>
		<polygon class="st2" points="292.7,14.6 310.5,14.5 310.5,19.8 298.5,19.9 298.5,24.8 309.8,24.7 309.9,30 298.5,30.1 298.6,35.4 
			311.2,35.3 311.3,40.6 292.8,40.7 		"/>
		<path class="st2" d="M315.4,14.6l8.6,0c2.1,0,4.1,0.2,6,0.7c1.9,0.5,3.5,1.2,4.9,2.2c1.4,1,2.5,2.4,3.4,4.1
			c0.8,1.7,1.3,3.7,1.3,6.1c0,2.1-0.4,4-1.2,5.6c-0.8,1.6-1.9,3-3.2,4.1c-1.3,1.1-2.9,1.9-4.7,2.5c-1.8,0.6-3.6,0.9-5.6,0.9
			l-9.4,0.1L315.4,14.6z M321.2,35.4l3,0c1.3,0,2.6-0.1,3.7-0.4c1.1-0.3,2.1-0.7,3-1.4c0.8-0.6,1.5-1.5,2-2.5c0.5-1,0.7-2.3,0.7-3.7
			c0-1.3-0.3-2.4-0.7-3.3c-0.5-0.9-1.1-1.7-1.9-2.3c-0.8-0.6-1.8-1.1-2.9-1.4c-1.1-0.3-2.2-0.5-3.5-0.4l-3.4,0L321.2,35.4z"/>
		<path class="st2" d="M366.8,38.8c-1.7,0.9-3.5,1.5-5.3,1.9c-1.8,0.4-3.7,0.6-5.6,0.6c-2,0-3.9-0.3-5.7-0.9
			c-1.7-0.6-3.2-1.5-4.5-2.7c-1.3-1.2-2.2-2.6-3-4.3c-0.7-1.7-1.1-3.6-1.1-5.7c0-2.1,0.3-4,1-5.7c0.7-1.7,1.7-3.1,2.9-4.3
			c1.2-1.2,2.7-2.1,4.5-2.8c1.7-0.7,3.6-1,5.6-1c2.1,0,4,0.2,5.8,0.7c1.8,0.5,3.3,1.4,4.6,2.6l-4,4.4c-0.8-0.8-1.7-1.4-2.7-1.8
			c-1-0.4-2.2-0.6-3.7-0.6c-1.2,0-2.3,0.2-3.3,0.6c-1,0.4-1.8,1-2.6,1.8c-0.7,0.8-1.2,1.7-1.6,2.7c-0.4,1-0.6,2.2-0.6,3.4
			c0,1.2,0.2,2.4,0.6,3.4c0.4,1,0.9,1.9,1.7,2.6c0.7,0.7,1.6,1.3,2.6,1.7c1,0.4,2.1,0.6,3.3,0.6c1.3,0,2.3-0.2,3.2-0.4
			c0.9-0.3,1.6-0.6,2.2-0.9l0-4.2l-4.7,0l0-5.3l10.2-0.1L366.8,38.8z"/>
		<polygon class="st2" points="371.6,14.6 389.3,14.5 389.3,19.8 377.4,19.9 377.4,24.8 388.7,24.7 388.7,30 377.4,30.1 377.4,35.4 
			390.1,35.3 390.1,40.6 371.7,40.7 		"/>
		<path class="st2" d="M394.2,14.6l10.1-0.1c1.3,0,2.6,0.1,3.8,0.4c1.2,0.3,2.2,0.7,3.1,1.3c0.9,0.6,1.6,1.4,2.2,2.4
			c0.5,1,0.8,2.3,0.8,3.8c0,1.8-0.5,3.4-1.4,4.7c-1,1.3-2.4,2.1-4.2,2.5l6.7,11l-6.9,0l-5.5-10.4l-2.8,0l0.1,10.4l-5.8,0L394.2,14.6
			z M400,25.4l3.4,0c0.5,0,1.1,0,1.6-0.1c0.6,0,1.1-0.2,1.6-0.3c0.5-0.2,0.9-0.5,1.2-0.9c0.3-0.4,0.5-0.9,0.5-1.7
			c0-0.7-0.1-1.2-0.4-1.6c-0.3-0.4-0.6-0.7-1-0.9c-0.4-0.2-0.9-0.3-1.4-0.4c-0.5-0.1-1.1-0.1-1.6-0.1l-3.8,0L400,25.4z"/>
	</g>
</g>
</svg>
