<?xml version="1.0" encoding="utf-8"?>
<!-- Generator: Adobe Illustrator 25.3.1, SVG Export Plug-In . SVG Version: 6.00 Build 0)  -->
<svg version="1.1" id="Layer_1" xmlns="http://www.w3.org/2000/svg" xmlns:xlink="http://www.w3.org/1999/xlink" x="0px" y="0px"
	 viewBox="0 0 344.6 99.5" style="enable-background:new 0 0 344.6 99.5;" xml:space="preserve">
<style type="text/css">
	.st0{fill:#F99F44;}
	.st1{fill:#24272A;}
	.st2{fill:#9D9FA2;}
</style>
<g>
	<g>
		<path class="st0" d="M15.8,36.2v12.1h8.3l17.5,28.9V48.2H59v28.9l17.5-28.9h8.3V36.2H61.2V1.7c-3.5-0.8-7.1-1.2-10.9-1.2
			S43,0.9,39.5,1.7v34.5H15.8z"/>
		<path class="st0" d="M64.8,2.6v29.9h23.7v19.3h-9.9L55.4,90V51.8H45.2V90L22.1,51.8h-9.9V32.6h23.7V2.6C15.7,8.8,1,27.6,1,49.8
			C1,77,23.1,99.1,50.3,99.1S99.6,77,99.6,49.8C99.6,27.6,85,8.8,64.8,2.6z"/>
	</g>
	<g>
		<polygon class="st1" points="124.6,23.6 133.3,23.5 133.3,32.3 137.8,32.3 137.7,12 133.2,12 133.3,19.6 124.6,19.6 124.5,12 
			120,12.1 120.2,32.4 124.6,32.4 		"/>
		<polygon class="st1" points="148.7,32.4 153.1,32.3 153.1,23.7 160.7,12 155.4,12 150.8,19.6 146.5,12.1 140.9,12.1 148.6,23.7 		
			"/>
		<path class="st1" d="M168.4,32.3l0-7.9l3.3,0c1.1,0,2.1-0.1,3-0.3c0.9-0.2,1.7-0.5,2.4-1c0.7-0.5,1.2-1.1,1.6-1.9
			c0.4-0.8,0.6-1.8,0.6-3c0-1.2-0.2-2.2-0.6-3c-0.4-0.8-1-1.4-1.7-1.9c-0.7-0.5-1.5-0.8-2.5-1c-0.9-0.2-1.9-0.3-3-0.3l-7.6,0
			l0.1,20.3L168.4,32.3z M170.6,15.8c0.4,0,0.9,0,1.3,0.1c0.5,0,0.9,0.2,1.3,0.3c0.4,0.2,0.7,0.4,0.9,0.7c0.2,0.3,0.4,0.7,0.4,1.2
			c0,0.5-0.1,0.9-0.3,1.2c-0.2,0.3-0.4,0.6-0.7,0.8c-0.3,0.2-0.6,0.3-1,0.4c-0.4,0.1-0.8,0.1-1.2,0.1l-3,0l0-4.8L170.6,15.8z"/>
		<polygon class="st1" points="196.7,32.3 196.6,28.2 186.8,28.2 186.8,24.1 195.6,24 195.6,19.9 186.7,19.9 186.7,16.2 196.1,16.1 
			196,12 182.2,12.1 182.3,32.4 		"/>
		<path class="st1" d="M210.8,32.3l5.4,0l-5.2-8.6c1.4-0.3,2.5-0.9,3.3-1.9c0.7-1,1.1-2.2,1.1-3.7c0-1.2-0.2-2.2-0.6-3
			c-0.4-0.8-1-1.4-1.7-1.9c-0.7-0.5-1.5-0.8-2.4-1c-0.9-0.2-1.9-0.3-2.9-0.3l-7.9,0l0.1,20.3l4.5,0l0-8.1l2.2,0L210.8,32.3z
			 M204.3,20.4l0-4.6l2.9,0c0.4,0,0.8,0,1.2,0.1c0.4,0.1,0.8,0.2,1.1,0.3c0.3,0.2,0.6,0.4,0.8,0.7c0.2,0.3,0.3,0.7,0.3,1.2
			c0,0.6-0.1,1-0.4,1.3c-0.2,0.3-0.5,0.5-0.9,0.7c-0.4,0.1-0.8,0.2-1.2,0.3c-0.4,0-0.9,0-1.3,0L204.3,20.4z"/>
		<polygon class="st1" points="232.1,32.3 232,28.1 223.7,28.2 223.7,12 219.2,12 219.3,32.3 		"/>
		<polygon class="st1" points="249.6,32.3 249.6,28.1 239.7,28.2 239.7,24.1 248.5,24 248.5,19.9 239.7,19.9 239.7,16.1 249,16.1 
			249,12 235.2,12 235.3,32.4 		"/>
		<path class="st1" d="M268.1,29.7c1-0.9,1.9-1.9,2.5-3.2c0.6-1.3,0.9-2.7,0.9-4.4c0-1.9-0.3-3.4-1-4.7c-0.6-1.3-1.5-2.3-2.6-3.2
			c-1.1-0.8-2.4-1.4-3.8-1.7c-1.5-0.4-3-0.5-4.6-0.5l-6.7,0l0.1,20.3l7.3,0c1.5,0,3-0.2,4.3-0.7C265.8,31.2,267.1,30.5,268.1,29.7z
			 M259.6,28.2l-2.3,0l-0.1-12.1l2.6,0c0.9,0,1.8,0.1,2.7,0.3c0.8,0.2,1.6,0.6,2.2,1.1c0.6,0.5,1.1,1.1,1.5,1.8
			c0.4,0.7,0.6,1.6,0.6,2.6c0,1.1-0.2,2.1-0.5,2.9c-0.4,0.8-0.9,1.4-1.5,1.9c-0.6,0.5-1.4,0.8-2.3,1.1
			C261.6,28.1,260.6,28.2,259.6,28.2z"/>
		<path class="st1" d="M286.2,20.3l0,4.1l3.6,0l0,3.3c-0.4,0.2-1,0.5-1.7,0.7c-0.7,0.2-1.5,0.3-2.5,0.3c-1,0-1.8-0.2-2.6-0.5
			c-0.8-0.3-1.4-0.8-2-1.4c-0.6-0.6-1-1.3-1.3-2.1c-0.3-0.8-0.5-1.7-0.5-2.6c0-0.9,0.1-1.8,0.4-2.6c0.3-0.8,0.7-1.5,1.3-2.1
			c0.6-0.6,1.2-1,2-1.4c0.8-0.3,1.6-0.5,2.6-0.5c1.1,0,2.1,0.2,2.9,0.5c0.8,0.3,1.5,0.8,2.1,1.4l3.1-3.5c-1-1-2.2-1.6-3.6-2
			c-1.4-0.4-2.9-0.6-4.5-0.6c-1.6,0-3.1,0.3-4.4,0.8c-1.3,0.5-2.5,1.2-3.5,2.2c-1,0.9-1.7,2.1-2.3,3.4c-0.5,1.3-0.8,2.8-0.8,4.4
			c0,1.6,0.3,3.1,0.8,4.4c0.6,1.3,1.3,2.4,2.3,3.4c1,0.9,2.1,1.6,3.5,2.1c1.3,0.5,2.8,0.7,4.4,0.7c1.5,0,3-0.2,4.4-0.5
			c1.4-0.3,2.8-0.8,4.1-1.5l-0.1-10.6L286.2,20.3z"/>
		<polygon class="st1" points="311.7,31.8 311.7,27.7 301.8,27.7 301.8,23.6 310.6,23.6 310.6,19.4 301.8,19.5 301.8,15.7 
			311.1,15.6 311.1,11.5 297.3,11.6 297.4,31.9 		"/>
		<path class="st1" d="M319.4,31.8l0-8.1l2.2,0l4.3,8.1l5.4,0l-5.2-8.6c1.4-0.3,2.5-0.9,3.3-1.9c0.7-1,1.1-2.2,1.1-3.7
			c0-1.2-0.2-2.2-0.6-3c-0.4-0.8-1-1.4-1.7-1.9c-0.7-0.5-1.5-0.8-2.4-1c-0.9-0.2-1.9-0.3-2.9-0.3l-7.9,0l0.1,20.3L319.4,31.8z
			 M322.2,15.3c0.4,0,0.8,0,1.2,0.1c0.4,0.1,0.8,0.2,1.1,0.3c0.3,0.2,0.6,0.4,0.8,0.7c0.2,0.3,0.3,0.7,0.3,1.2c0,0.6-0.1,1-0.4,1.3
			c-0.2,0.3-0.5,0.5-0.9,0.7c-0.4,0.1-0.8,0.2-1.2,0.3c-0.5,0-0.9,0-1.3,0l-2.6,0l0-4.6L322.2,15.3z"/>
	</g>
	<g>
		<path class="st2" d="M149.2,56.5c-1.2-1.5-2.7-2.7-4.5-3.5s-3.7-1.2-5.6-1.2c-2.3,0-4.5,0.4-6.4,1.3s-3.5,2.1-4.9,3.6
			c-1.3,1.5-2.4,3.3-3.1,5.4c-0.7,2.1-1.1,4.3-1.1,6.6c0,2.2,0.4,4.3,1.1,6.2c0.7,2,1.7,3.7,3.1,5.2c1.3,1.5,3,2.7,4.9,3.5
			c1.9,0.9,4.1,1.3,6.5,1.3c2.4,0,4.5-0.5,6.3-1.5c1.8-1,3.3-2.3,4.6-4.1l4.8,3.6c-0.3,0.4-0.9,1-1.6,1.8c-0.8,0.8-1.8,1.6-3.1,2.4
			c-1.3,0.8-2.8,1.5-4.7,2.1c-1.8,0.6-3.9,0.9-6.3,0.9c-3.3,0-6.2-0.6-8.9-1.9c-2.6-1.3-4.9-2.9-6.7-4.9c-1.9-2-3.3-4.3-4.3-6.9
			c-1-2.6-1.5-5.2-1.5-7.8c0-3.2,0.5-6.2,1.6-8.9c1.1-2.7,2.5-5.1,4.4-7c1.9-2,4.2-3.5,6.8-4.6c2.7-1.1,5.6-1.6,8.8-1.6
			c2.7,0,5.4,0.5,8.1,1.6c2.6,1.1,4.8,2.7,6.5,4.9L149.2,56.5z"/>
		<path class="st2" d="M174.6,47.5h5.1l17.8,41.5h-6.6l-4.2-10.3H167l-4.1,10.3h-6.6L174.6,47.5z M184.7,73.9L177,54.8h-0.1
			L169,73.9H184.7z"/>
		<path class="st2" d="M202.1,47.5h5.6v36.3h19.1v5.3h-24.7V47.5z"/>
		<path class="st2" d="M231.5,47.5h5.6v41.5h-5.6V47.5z"/>
		<path class="st2" d="M246.6,47.5h14.6c2.7,0,4.8,0.4,6.6,1.1c1.7,0.7,3.1,1.6,4.1,2.8c1,1.1,1.7,2.4,2.1,3.8
			c0.4,1.4,0.6,2.7,0.6,4s-0.2,2.6-0.6,4c-0.4,1.4-1.1,2.6-2.1,3.8c-1,1.1-2.4,2-4.1,2.8c-1.7,0.7-3.9,1.1-6.6,1.1h-9v18.3h-5.6
			V47.5z M252.2,65.8h7.4c1.1,0,2.2-0.1,3.3-0.3c1.1-0.2,2-0.5,2.9-1c0.8-0.5,1.5-1.1,2-2c0.5-0.9,0.8-2,0.8-3.4
			c0-1.4-0.3-2.6-0.8-3.4c-0.5-0.9-1.2-1.6-2-2c-0.8-0.5-1.8-0.8-2.9-1c-1.1-0.2-2.2-0.3-3.3-0.3h-7.4V65.8z"/>
		<path class="st2" d="M279.8,47.5h26.8v5.3h-21.2v12.4h19.7v5.3h-19.7v13.3h22.2v5.3h-27.9V47.5z"/>
		<path class="st2" d="M314.1,47.5h14.6c2.7,0,4.8,0.4,6.6,1.1c1.7,0.7,3.1,1.6,4.1,2.8c1,1.1,1.7,2.4,2.1,3.8
			c0.4,1.4,0.6,2.7,0.6,4c0,1.3-0.2,2.6-0.7,3.8c-0.5,1.2-1.1,2.3-2,3.3c-0.9,1-2,1.8-3.2,2.5c-1.3,0.7-2.7,1.1-4.3,1.3l11.8,18.9
			h-7L326,70.8h-6.3v18.3h-5.6V47.5z M319.7,65.8h7.4c1.1,0,2.2-0.1,3.3-0.3c1.1-0.2,2-0.5,2.9-1c0.8-0.5,1.5-1.1,2-2
			c0.5-0.9,0.8-2,0.8-3.4c0-1.4-0.3-2.6-0.8-3.4c-0.5-0.9-1.2-1.6-2-2c-0.8-0.5-1.8-0.8-2.9-1c-1.1-0.2-2.2-0.3-3.3-0.3h-7.4V65.8z"
			/>
	</g>
</g>
</svg>
