<?xml version="1.0" encoding="utf-8"?>
<!-- Generator: Adobe Illustrator 25.3.1, SVG Export Plug-In . SVG Version: 6.00 Build 0)  -->
<svg version="1.1" id="Layer_1" xmlns="http://www.w3.org/2000/svg" xmlns:xlink="http://www.w3.org/1999/xlink" x="0px" y="0px"
	 viewBox="0 0 433 93.1" style="enable-background:new 0 0 433 93.1;" xml:space="preserve">
<style type="text/css">
	.st0{fill:#24272A;}
	.st1{fill:#0075C9;}
	.st2{fill:#54C8E8;}
</style>
<g>
	<polygon class="st0" points="114.8,9 119.3,9 119.3,16.5 128,16.5 127.9,9 132.4,8.9 132.5,29.2 128,29.2 128,20.5 119.3,20.5 
		119.4,29.2 114.9,29.3 	"/>
	<polygon class="st0" points="143.3,20.6 135.6,9 141.1,9 145.5,16.6 150,9 155.3,8.9 147.7,20.6 147.8,29.2 143.3,29.3 	"/>
	<path class="st0" d="M158.4,9l7.5,0c1,0,2,0.1,3,0.3c0.9,0.2,1.8,0.5,2.5,1c0.7,0.5,1.3,1.1,1.7,1.9c0.4,0.8,0.6,1.8,0.6,3
		c0,1.2-0.2,2.2-0.6,3c-0.4,0.8-0.9,1.4-1.6,1.9c-0.7,0.5-1.5,0.8-2.4,1c-0.9,0.2-1.9,0.3-3,0.3l-3.3,0l0,7.9l-4.5,0L158.4,9z
		 M162.9,17.6l3,0c0.4,0,0.8,0,1.2-0.1c0.4-0.1,0.7-0.2,1-0.4c0.3-0.2,0.5-0.4,0.7-0.7c0.2-0.3,0.3-0.7,0.3-1.2
		c0-0.5-0.1-0.9-0.4-1.2c-0.2-0.3-0.5-0.6-0.9-0.7c-0.4-0.2-0.8-0.3-1.2-0.3c-0.5,0-0.9-0.1-1.3-0.1l-2.3,0L162.9,17.6z"/>
	<polygon class="st0" points="176.8,9 190.5,8.9 190.6,13.1 181.3,13.1 181.3,16.9 190.1,16.8 190.1,21 181.3,21 181.3,25.1 
		191.1,25.1 191.2,29.2 176.9,29.3 	"/>
	<path class="st0" d="M194.3,9l7.8,0c1,0,2,0.1,2.9,0.3c0.9,0.2,1.7,0.5,2.4,1c0.7,0.5,1.3,1.1,1.7,1.9c0.4,0.8,0.6,1.8,0.6,3
		c0,1.4-0.4,2.6-1.1,3.7c-0.7,1-1.8,1.6-3.3,1.9l5.2,8.5l-5.4,0l-4.3-8.1l-2.2,0l0,8.1l-4.5,0L194.3,9z M198.8,17.4l2.6,0
		c0.4,0,0.8,0,1.3,0c0.4,0,0.9-0.1,1.2-0.3c0.4-0.1,0.7-0.4,0.9-0.7c0.2-0.3,0.4-0.7,0.4-1.3c0-0.5-0.1-0.9-0.3-1.2
		c-0.2-0.3-0.5-0.5-0.8-0.7c-0.3-0.2-0.7-0.3-1.1-0.3c-0.4-0.1-0.8-0.1-1.2-0.1l-2.9,0L198.8,17.4z"/>
	<polygon class="st0" points="213.6,9 218.1,9 218.2,25.1 226.4,25 226.4,29.2 213.7,29.2 	"/>
	<polygon class="st0" points="229.5,9 243.3,8.9 243.3,13 234,13.1 234.1,16.9 242.8,16.8 242.9,20.9 234.1,21 234.1,25.1 
		243.9,25.1 243.9,29.2 229.6,29.3 	"/>
	<path class="st0" d="M247,9l6.7,0c1.6,0,3.2,0.2,4.6,0.5c1.5,0.4,2.7,0.9,3.8,1.7c1.1,0.8,2,1.9,2.6,3.1c0.6,1.3,1,2.9,1,4.7
		c0,1.6-0.3,3.1-0.9,4.3c-0.6,1.3-1.4,2.3-2.5,3.2c-1,0.9-2.3,1.5-3.6,1.9c-1.4,0.4-2.8,0.7-4.3,0.7l-7.3,0L247,9z M251.6,25.1
		l2.3,0c1,0,2-0.1,2.9-0.3c0.9-0.2,1.7-0.6,2.3-1.1c0.6-0.5,1.2-1.1,1.5-1.9c0.4-0.8,0.5-1.8,0.5-2.9c0-1-0.2-1.9-0.6-2.6
		c-0.4-0.7-0.9-1.3-1.5-1.8c-0.6-0.5-1.4-0.8-2.2-1.1c-0.9-0.2-1.7-0.3-2.7-0.3l-2.6,0L251.6,25.1z"/>
	<path class="st0" d="M288.3,27.8c-1.3,0.7-2.7,1.2-4.1,1.5c-1.4,0.3-2.9,0.5-4.4,0.5c-1.6,0-3-0.2-4.4-0.7
		c-1.3-0.5-2.5-1.2-3.5-2.1c-1-0.9-1.7-2-2.3-3.3c-0.6-1.3-0.8-2.8-0.8-4.4c0-1.6,0.3-3.1,0.8-4.4c0.5-1.3,1.3-2.4,2.3-3.4
		c1-0.9,2.1-1.6,3.5-2.1c1.3-0.5,2.8-0.8,4.4-0.8c1.6,0,3.1,0.2,4.5,0.6c1.4,0.4,2.6,1.1,3.6,2l-3.1,3.4c-0.6-0.6-1.3-1.1-2.1-1.4
		c-0.8-0.3-1.7-0.5-2.9-0.5c-1,0-1.8,0.2-2.6,0.5c-0.8,0.3-1.4,0.8-2,1.4c-0.5,0.6-1,1.3-1.3,2.1c-0.3,0.8-0.4,1.7-0.4,2.6
		c0,1,0.2,1.8,0.5,2.6c0.3,0.8,0.7,1.5,1.3,2.1c0.6,0.6,1.2,1,2,1.4c0.8,0.3,1.6,0.5,2.6,0.5c1,0,1.8-0.1,2.5-0.3
		c0.7-0.2,1.3-0.4,1.7-0.7l0-3.3l-3.6,0l0-4.1l7.9,0L288.3,27.8z"/>
	<polygon class="st0" points="291.4,8.5 305.2,8.5 305.2,12.6 295.9,12.6 296,16.4 304.7,16.4 304.8,20.5 296,20.5 296,24.6 
		305.8,24.6 305.8,28.7 291.6,28.8 	"/>
	<path class="st0" d="M308.9,8.5l7.8,0c1,0,2,0.1,2.9,0.3c0.9,0.2,1.7,0.5,2.4,1c0.7,0.5,1.3,1.1,1.7,1.9c0.4,0.8,0.6,1.8,0.6,3
		c0,1.4-0.4,2.6-1.1,3.7c-0.7,1-1.8,1.6-3.3,1.9l5.2,8.5l-5.4,0l-4.3-8.1l-2.2,0l0,8.1l-4.5,0L308.9,8.5z M313.4,16.9l2.6,0
		c0.4,0,0.8,0,1.3,0c0.4,0,0.9-0.1,1.2-0.3c0.4-0.1,0.7-0.4,0.9-0.7c0.2-0.3,0.4-0.7,0.4-1.3c0-0.5-0.1-0.9-0.3-1.2
		c-0.2-0.3-0.5-0.5-0.8-0.7c-0.3-0.2-0.7-0.3-1.1-0.3c-0.4-0.1-0.8-0.1-1.2-0.1l-2.9,0L313.4,16.9z"/>
	<g>
		<g>
			<path class="st1" d="M93,44L66,63.7V35.2l-39,28.5V35.2L0.7,54.4c3.7,22,22.8,38.7,45.9,38.7c25.7,0,46.5-20.8,46.5-46.5
				C93.1,45.7,93,44.8,93,44z"/>
		</g>
	</g>
	<g>
		<g>
			<path class="st2" d="M92.3,38c-4-21.6-23-38-45.8-38C20.8,0,0,20.8,0,46.5c0,0.6,0,1.2,0,1.9L32.1,25v28.5l39-28.5v28.5L92.3,38z
				"/>
		</g>
	</g>
	<g>
		<path class="st2" d="M118.9,76.7c1,1.5,2.3,2.7,3.9,3.4c1.6,0.7,3.2,1.1,4.9,1.1c0.9,0,1.9-0.1,2.9-0.4c1-0.3,1.9-0.7,2.7-1.3
			c0.8-0.6,1.5-1.3,2-2.2c0.5-0.9,0.8-1.9,0.8-3c0-1.6-0.5-2.8-1.5-3.7c-1-0.8-2.3-1.5-3.8-2.1c-1.5-0.6-3.2-1.1-4.9-1.6
			c-1.8-0.5-3.4-1.3-4.9-2.2c-1.5-0.9-2.8-2.2-3.8-3.8c-1-1.6-1.5-3.7-1.5-6.4c0-1.2,0.3-2.5,0.8-3.9c0.5-1.4,1.4-2.6,2.5-3.8
			c1.1-1.1,2.6-2.1,4.4-2.9c1.8-0.8,3.9-1.1,6.4-1.1c2.3,0,4.4,0.3,6.5,0.9c2.1,0.6,3.9,1.9,5.5,3.8l-4.6,4.2c-0.7-1.1-1.7-2-3-2.6
			c-1.3-0.7-2.8-1-4.4-1c-1.6,0-2.9,0.2-3.9,0.6c-1,0.4-1.9,0.9-2.5,1.6c-0.6,0.6-1.1,1.3-1.3,2.1c-0.3,0.7-0.4,1.4-0.4,2.1
			c0,1.8,0.5,3.1,1.5,4.1c1,0.9,2.3,1.7,3.8,2.3c1.5,0.6,3.2,1.1,4.9,1.6c1.8,0.5,3.4,1.1,4.9,2c1.5,0.8,2.8,2,3.8,3.4
			c1,1.4,1.5,3.4,1.5,5.9c0,2-0.4,3.8-1.1,5.4c-0.8,1.6-1.8,3-3.1,4.1c-1.3,1.1-2.8,1.9-4.6,2.5s-3.6,0.9-5.6,0.9
			c-2.7,0-5.2-0.5-7.6-1.4c-2.4-0.9-4.3-2.4-5.7-4.4L118.9,76.7z"/>
		<path class="st2" d="M162,43.8h5.1l17.8,41.6h-6.6l-4.2-10.3h-19.8l-4.1,10.3h-6.6L162,43.8z M172.1,70.2l-7.8-19.1h-0.1
			l-7.9,19.1H172.1z"/>
		<path class="st2" d="M180.7,43.8h5.9l9.2,33.3h0.1l9.8-33.3h6.5l9.8,33.3h0.1l9.2-33.3h5.9l-12.1,41.6h-6l-10.1-34h-0.1l-10,34h-6
			L180.7,43.8z"/>
		<path class="st2" d="M253,49.1h-13.4v-5.3H272v5.3h-13.4v36.3H253V49.1z"/>
		<path class="st2" d="M293.4,86.5c-3.2,0-6.1-0.6-8.8-1.7s-4.9-2.7-6.8-4.6c-1.9-2-3.4-4.3-4.5-6.9c-1.1-2.7-1.6-5.5-1.6-8.6
			c0-3.1,0.5-6,1.6-8.6c1.1-2.7,2.6-5,4.5-6.9c1.9-2,4.2-3.5,6.8-4.6s5.6-1.7,8.8-1.7c3.2,0,6.1,0.6,8.8,1.7s4.9,2.7,6.9,4.6
			c1.9,2,3.4,4.3,4.5,6.9c1.1,2.7,1.6,5.5,1.6,8.6c0,3.1-0.5,6-1.6,8.6c-1.1,2.7-2.6,5-4.5,6.9c-1.9,2-4.2,3.5-6.9,4.6
			S296.6,86.5,293.4,86.5z M293.4,81.2c2.4,0,4.5-0.4,6.5-1.3c1.9-0.9,3.6-2.1,4.9-3.6c1.4-1.5,2.4-3.2,3.2-5.3
			c0.7-2,1.1-4.2,1.1-6.4c0-2.3-0.4-4.4-1.1-6.4c-0.7-2-1.8-3.8-3.2-5.3c-1.4-1.5-3-2.7-4.9-3.6c-1.9-0.9-4.1-1.3-6.5-1.3
			c-2.4,0-4.5,0.4-6.5,1.3c-1.9,0.9-3.6,2.1-4.9,3.6c-1.4,1.5-2.4,3.2-3.2,5.3c-0.7,2-1.1,4.2-1.1,6.4c0,2.3,0.4,4.4,1.1,6.4
			c0.7,2,1.8,3.8,3.2,5.3c1.4,1.5,3,2.7,4.9,3.6C288.9,80.8,291,81.2,293.4,81.2z"/>
		<path class="st2" d="M341.4,86.5c-3.2,0-6.1-0.6-8.8-1.7s-4.9-2.7-6.8-4.6c-1.9-2-3.4-4.3-4.5-6.9c-1.1-2.7-1.6-5.5-1.6-8.6
			c0-3.1,0.5-6,1.6-8.6c1.1-2.7,2.6-5,4.5-6.9c1.9-2,4.2-3.5,6.8-4.6s5.6-1.7,8.8-1.7c3.2,0,6.1,0.6,8.8,1.7s4.9,2.7,6.9,4.6
			c1.9,2,3.4,4.3,4.5,6.9c1.1,2.7,1.6,5.5,1.6,8.6c0,3.1-0.5,6-1.6,8.6c-1.1,2.7-2.6,5-4.5,6.9c-1.9,2-4.2,3.5-6.9,4.6
			S344.6,86.5,341.4,86.5z M341.4,81.2c2.4,0,4.5-0.4,6.5-1.3c1.9-0.9,3.6-2.1,4.9-3.6c1.4-1.5,2.4-3.2,3.2-5.3
			c0.7-2,1.1-4.2,1.1-6.4c0-2.3-0.4-4.4-1.1-6.4c-0.7-2-1.8-3.8-3.2-5.3c-1.4-1.5-3-2.7-4.9-3.6c-1.9-0.9-4.1-1.3-6.5-1.3
			c-2.4,0-4.5,0.4-6.5,1.3c-1.9,0.9-3.6,2.1-4.9,3.6c-1.4,1.5-2.4,3.2-3.2,5.3c-0.7,2-1.1,4.2-1.1,6.4c0,2.3,0.4,4.4,1.1,6.4
			c0.7,2,1.8,3.8,3.2,5.3c1.4,1.5,3,2.7,4.9,3.6C336.9,80.8,339,81.2,341.4,81.2z"/>
		<path class="st2" d="M376.2,49.1h-13.4v-5.3h32.5v5.3h-13.4v36.3h-5.6V49.1z"/>
		<path class="st2" d="M400.1,43.8h5.6v17.3h21.6V43.8h5.6v41.6h-5.6V66.4h-21.6v19.1h-5.6V43.8z"/>
	</g>
</g>
</svg>
