<?xml version="1.0" encoding="utf-8"?>
<!-- Generator: Adobe Illustrator 23.0.2, SVG Export Plug-In . SVG Version: 6.00 Build 0)  -->
<svg version="1.1" id="Layer_1" xmlns="http://www.w3.org/2000/svg" xmlns:xlink="http://www.w3.org/1999/xlink" x="0px" y="0px"
	 viewBox="0 0 400 245" style="enable-background:new 0 0 400 245;" xml:space="preserve">
<style type="text/css">
	.st0{fill:#4094D0;}
	.st1{fill:#EE4636;}
	.st2{fill:#FFC10E;}
	.st3{fill:#2FB355;}
	.st4{fill:none;}
	.st5{fill-rule:evenodd;clip-rule:evenodd;}
	.st6{fill-rule:evenodd;clip-rule:evenodd;fill:#E82D3C;}
	.st7{fill:#4F81C2;}
	.st8{fill:#F25022;}
	.st9{fill:#80BA01;}
	.st10{fill:#777777;}
	.st11{fill:#02A4EF;}
	.st12{fill:#FFB902;}
	.st13{fill:#263C8D;}
	.st14{fill:#1853A3;}
	.st15{fill:#54565A;}
	.st16{fill:#808080;}
	.st17{fill:#0085C3;}
	.st18{fill:#4666A9;}
	.st19{fill:#006BB6;}
	.st20{fill-rule:evenodd;clip-rule:evenodd;fill:#2C348A;}
	.st21{fill:#F58220;}
	.st22{fill:#0058A9;}
	.st23{fill-rule:evenodd;clip-rule:evenodd;fill:#EC1C24;}
	.st24{fill:#ED1A3B;}
</style>
<g>
	<path class="st7" d="M388.17,178.08c2.25,0,4.18,0.78,5.76,2.38c1.59,1.58,2.38,3.5,2.38,5.74c0,2.26-0.79,4.18-2.38,5.78
		c-1.58,1.6-3.49,2.39-5.76,2.39c-2.25,0-4.18-0.79-5.75-2.39c-1.58-1.59-2.37-3.52-2.37-5.78c0-2.24,0.78-4.15,2.38-5.74
		C384.01,178.87,385.93,178.08,388.17,178.08z M397.63,186.18c0-2.59-0.92-4.82-2.76-6.65c-1.84-1.84-4.08-2.75-6.69-2.75
		c-2.6,0-4.82,0.92-6.65,2.75c-1.85,1.84-2.76,4.06-2.76,6.65c0,2.63,0.91,4.86,2.73,6.7c1.84,1.84,4.07,2.78,6.68,2.78
		c2.62,0,4.85-0.93,6.69-2.78C396.71,191.03,397.63,188.79,397.63,186.18z M390.69,184.15c0,0.78-0.36,1.32-1.08,1.6
		c-0.39,0.15-0.97,0.22-1.75,0.22h-1.66v-3.7h1.57c1.02,0,1.76,0.13,2.23,0.38C390.47,182.91,390.69,183.41,390.69,184.15z
		 M384.37,180.99v10.35h1.83v-4.06h1.45c0.97,0,1.65,0.11,2.04,0.33c0.65,0.4,0.98,1.18,0.98,2.38v0.81l0.03,0.33
		c0.02,0.05,0.02,0.09,0.03,0.12c0,0.03,0.02,0.07,0.03,0.1h1.71l-0.06-0.13c-0.05-0.09-0.08-0.27-0.09-0.54
		c-0.02-0.27-0.02-0.53-0.02-0.78v-0.75c0-0.54-0.19-1.06-0.56-1.61c-0.38-0.55-0.96-0.89-1.76-1.02c0.64-0.1,1.14-0.27,1.5-0.5
		c0.66-0.44,1-1.12,1-2.04c0-1.31-0.54-2.18-1.61-2.63c-0.6-0.24-1.55-0.37-2.83-0.37H384.37z"/>
	<g>
		<polygon class="st7" points="2.37,49.34 74.13,49.34 74.13,58.68 2.37,58.68 2.37,49.34 		"/>
		<polygon class="st7" points="2.37,68.96 74.13,68.96 74.13,78.26 2.37,78.26 2.37,68.96 		"/>
		<polygon class="st7" points="22.86,88.51 53.64,88.51 53.64,97.85 22.86,97.85 22.86,88.51 		"/>
		<polygon class="st7" points="22.86,108.1 53.64,108.1 53.64,117.39 22.86,117.39 22.86,108.1 		"/>
		<polygon class="st7" points="22.86,127.63 53.64,127.63 53.64,136.96 22.86,136.96 22.86,127.63 		"/>
		<polygon class="st7" points="22.86,147.19 53.64,147.19 53.64,156.57 22.86,156.57 22.86,147.19 		"/>
		<polygon class="st7" points="2.37,166.78 74.13,166.78 74.13,176.11 2.37,176.11 2.37,166.78 		"/>
		<polygon class="st7" points="2.37,186.36 74.13,186.36 74.13,195.66 2.37,195.66 2.37,186.36 		"/>
		<path class="st7" d="M84.34,68.96h110.59c0.95,1.69,2.77,7.07,3.19,9.3H84.34V68.96L84.34,68.96z"/>
		<polygon class="st7" points="104.89,88.51 135.59,88.51 135.59,97.85 104.89,97.85 104.89,88.51 		"/>
		<path class="st7" d="M166.35,88.51h32.79c0.1,2.17-0.79,7.24-1.41,9.34h-31.39V88.51L166.35,88.51z"/>
		<path class="st7" d="M104.89,127.63h78.98c2.47,1.7,6.53,6.59,8.53,9.33h-87.51V127.63L104.89,127.63z"/>
		<polygon class="st7" points="104.89,147.19 135.59,147.19 135.59,156.57 104.89,156.57 104.89,147.19 		"/>
		<path class="st7" d="M166.35,147.19h31.2c0.68,1.44,1.68,7.34,1.78,9.38h-32.98V147.19L166.35,147.19z"/>
		<path class="st7" d="M84.34,166.78h113.69c-0.16,2.34-1.92,7.57-2.87,9.33H84.34V166.78L84.34,166.78z"/>
		<path class="st7" d="M84.34,186.36h102.8c-9.11,7.64-17.16,9.3-31.27,9.3H145.7H84.34V186.36L84.34,186.36z"/>
		<polygon class="st7" points="207.37,49.34 265.97,49.34 269.06,58.68 207.37,58.68 207.37,49.34 		"/>
		<polygon class="st7" points="207.37,68.96 272.45,68.96 275.52,78.26 207.37,78.26 207.37,68.96 		"/>
		<polygon class="st7" points="227.85,88.51 278.96,88.51 282.04,97.85 227.85,97.85 227.85,88.51 		"/>
		<polygon class="st7" points="293.3,108.1 350.85,108.1 350.85,117.39 320.1,117.39 320.1,109.19 317.28,117.39 290.22,117.39 
			293.3,108.1 		"/>
		<polygon class="st7" points="288.53,117.39 261.42,117.39 258.61,109.15 258.61,117.39 227.85,117.39 227.85,108.1 285.44,108.1 
			288.53,117.39 		"/>
		<polygon class="st7" points="227.85,127.63 258.61,127.63 258.61,136.96 227.85,136.96 227.85,127.63 		"/>
		<polygon class="st7" points="227.85,147.19 258.61,147.19 258.61,156.57 227.85,156.57 227.85,147.19 		"/>
		<polygon class="st7" points="207.37,166.78 258.61,166.78 258.61,176.11 207.37,176.11 207.37,166.78 		"/>
		<polygon class="st7" points="207.37,186.36 258.61,186.36 258.61,195.66 207.37,195.66 207.37,186.36 		"/>
		<polygon class="st7" points="312.81,49.34 371.34,49.34 371.34,58.68 309.67,58.68 312.81,49.34 		"/>
		<polygon class="st7" points="306.3,68.96 371.34,68.96 371.34,78.26 303.21,78.26 306.3,68.96 		"/>
		<polygon class="st7" points="299.79,88.51 350.85,88.51 350.85,97.85 296.7,97.85 299.79,88.51 		"/>
		<polygon class="st7" points="320.1,127.63 350.85,127.63 350.85,136.96 320.1,136.96 320.1,127.63 		"/>
		<polygon class="st7" points="320.1,147.19 350.85,147.19 350.85,156.57 320.1,156.57 320.1,147.19 		"/>
		<polygon class="st7" points="320.1,166.78 371.34,166.78 371.34,176.11 320.1,176.11 320.1,166.78 		"/>
		<polygon class="st7" points="320.1,186.36 371.34,186.36 371.34,195.66 320.1,195.66 320.1,186.36 		"/>
		<polygon class="st7" points="264.89,127.63 313.86,127.63 310.68,136.96 268.08,136.96 264.89,127.63 		"/>
		<polygon class="st7" points="271.52,147.19 307.22,147.19 304.05,156.57 274.69,156.57 271.52,147.19 		"/>
		<polygon class="st7" points="278.14,166.78 300.58,166.78 297.41,176.11 281.33,176.11 278.14,166.78 		"/>
		<polygon class="st7" points="284.79,186.36 293.98,186.36 290.79,195.66 287.95,195.66 284.79,186.36 		"/>
		<path class="st7" d="M104.89,117.41h78.98c2.58-1.78,7.29-6.7,9.2-9.31h-88.18V117.41L104.89,117.41z"/>
		<path class="st7" d="M84.34,58.68h102.8c-9.11-7.63-17.16-9.3-31.27-9.3H145.7H84.34V58.68L84.34,58.68z"/>
	</g>
</g>
</svg>
