<?xml version="1.0" encoding="utf-8"?>
<!-- Generator: Adobe Illustrator 23.0.3, SVG Export Plug-In . SVG Version: 6.00 Build 0)  -->
<svg version="1.1" id="Layer_1" xmlns="http://www.w3.org/2000/svg" xmlns:xlink="http://www.w3.org/1999/xlink" x="0px" y="0px"
	 viewBox="0 0 400 245" style="enable-background:new 0 0 400 245;" xml:space="preserve">
<style type="text/css">
	.st0{fill:#EE3A25;}
	.st1{fill:#B31E3B;}
	.st2{fill:#231F20;}
	.st3{fill:#53CAE5;}
	.st4{fill:#FFFFFF;}
	.st5{fill-rule:evenodd;clip-rule:evenodd;fill:#53CAE5;}
	.st6{fill:#231916;}
	.st7{fill:#3EB4B5;}
	.st8{fill:#171F1F;}
	.st9{fill:#0072BB;}
	.st10{fill:#464646;}
	.st11{fill:#8C8C8C;}
	.st12{fill:#1B1B1C;}
	.st13{opacity:0.4;fill:#4464FB;}
	.st14{opacity:0.8;fill:#4464FB;}
	.st15{opacity:0.6;fill:#4464FB;}
	.st16{opacity:0.5;fill:#4464FB;}
	.st17{opacity:0.9;fill:#4464FB;}
	.st18{opacity:0.7;fill:#4464FB;}
	.st19{opacity:0.3;fill:#4464FB;}
	.st20{fill:#4464FB;}
	.st21{fill:#212D56;}
</style>
<g>
	<g>
		<path class="st12" d="M247.32,110V75.01l-11.26-8.8c0.21-0.72,0.35-1.47,0.35-2.26c0-0.98-0.2-1.9-0.51-2.77L247.32,51V17.9
			c3.04-1.23,5.19-4.2,5.19-7.68c0-4.58-3.71-8.29-8.29-8.29c-3.73,0-6.86,2.49-7.89,5.88h-72.38c-1.23-3.04-4.2-5.19-7.67-5.19
			c-4.58,0-8.29,3.71-8.29,8.29c0,3.48,2.15,6.45,5.18,7.68v37.68c-3.04,1.23-5.18,4.2-5.18,7.68c0,3.48,2.15,6.45,5.18,7.68V110
			c-3.04,1.23-5.18,4.2-5.18,7.68c0,4.58,3.71,8.29,8.29,8.29c3.48,0,6.44-2.15,7.67-5.19h72.59c1.23,3.04,4.2,5.19,7.68,5.19
			c4.58,0,8.29-3.71,8.29-8.29C252.51,114.19,250.36,111.22,247.32,110z M231.77,56.54c-1.1-0.54-2.33-0.88-3.64-0.88
			c-4.58,0-8.29,3.71-8.29,8.29c0,4.58,3.71,8.29,8.29,8.29c1.5,0,2.9-0.43,4.11-1.13l8.87,6.93V110c-2.08,0.84-3.73,2.49-4.57,4.57
			h-72.59c-0.84-2.08-2.49-3.73-4.57-4.57V71.62c3.04-1.23,5.18-4.2,5.18-7.68c0-3.48-2.15-6.45-5.18-7.68V18.59
			c2.08-0.84,3.73-2.49,4.57-4.57h72.95c0.91,1.74,2.38,3.13,4.22,3.87v30.32L231.77,56.54z"/>
		<path class="st12" d="M221.71,34.39c0-2.49-2.01-4.51-4.5-4.51c-1.94,0-3.58,1.23-4.21,2.95h-25.52
			c-0.63-1.72-2.27-2.95-4.21-2.95c-2.49,0-4.51,2.02-4.51,4.51c0,1.93,1.23,3.57,2.95,4.21v6.79c-1.72,0.64-2.95,2.28-2.95,4.22
			c0,2.48,2.01,4.5,4.51,4.5c1.65,0,3.08-0.9,3.87-2.23h2.9v24.15h-2.91c-0.79-1.31-2.21-2.2-3.85-2.2c-2.49,0-4.51,2.02-4.51,4.51
			c0,1.93,1.23,3.57,2.95,4.21v6.76c-1.72,0.63-2.95,2.28-2.95,4.21c0,2.48,2.01,4.5,4.51,4.5c1.94,0,3.57-1.23,4.21-2.95H213
			c0.63,1.71,2.27,2.95,4.21,2.95c2.48,0,4.5-2.02,4.5-4.5c0-1.94-1.23-3.58-2.94-4.21v-6.76c1.71-0.64,2.94-2.27,2.94-4.21
			c0-2.49-2.01-4.51-4.5-4.51c-1.64,0-3.06,0.89-3.85,2.2h-2.91V51.87h2.9c0.78,1.33,2.21,2.23,3.87,2.23c2.48,0,4.5-2.02,4.5-4.5
			c0-1.94-1.23-3.58-2.94-4.22v-6.79C220.48,37.96,221.71,36.32,221.71,34.39z M207.34,48.77v30.35h5.45
			c0.29,1.58,1.39,2.86,2.87,3.41v6.77c-1.23,0.45-2.2,1.43-2.66,2.66h-25.52c-0.45-1.23-1.42-2.21-2.65-2.66v-6.77
			c1.47-0.54,2.58-1.83,2.87-3.41h5.45V48.77h-5.45c-0.29-1.57-1.4-2.84-2.86-3.38v-6.8c1.23-0.46,2.2-1.43,2.65-2.65H213
			c0.46,1.23,1.43,2.2,2.66,2.65v6.8c-1.46,0.54-2.57,1.81-2.86,3.38H207.34z"/>
		
			<rect x="169.42" y="16.84" transform="matrix(0.7734 -0.6339 0.6339 0.7734 23.2615 113.4652)" class="st12" width="1.87" height="14.7"/>
		
			<rect x="164.03" y="103.05" transform="matrix(0.7379 -0.6749 0.6749 0.7379 -25.5306 142.2177)" class="st12" width="12.64" height="1.86"/>
		
			<rect x="219.97" y="23.26" transform="matrix(0.6332 -0.774 0.774 0.6332 64.6521 184.8121)" class="st12" width="14.7" height="1.87"/>
		
			<rect x="226.39" y="97.66" transform="matrix(0.6756 -0.7372 0.7372 0.6756 -2.9256 201.3121)" class="st12" width="1.86" height="12.64"/>
	</g>
	<g>
		<path class="st12" d="M35.02,199.97c-0.89,0-1.53-0.2-1.93-0.6c-0.4-0.4-0.6-1.04-0.6-1.93v-8.35c0-0.89,0.2-1.53,0.6-1.93
			c0.4-0.4,1.04-0.6,1.93-0.6h6.95V163h-6.95c-0.89,0-1.53-0.2-1.93-0.6c-0.4-0.4-0.6-1.04-0.6-1.93v-8.49c0-0.89,0.2-1.53,0.6-1.93
			c0.4-0.4,1.04-0.6,1.93-0.6H64.9c0.89,0,1.53,0.2,1.93,0.6c0.4,0.4,0.6,1.04,0.6,1.93v8.49c0,0.89-0.2,1.53-0.6,1.93
			c-0.4,0.4-1.04,0.6-1.93,0.6H58.1v23.57h6.81c0.89,0,1.53,0.2,1.93,0.6c0.4,0.4,0.6,1.04,0.6,1.93v8.35c0,0.89-0.2,1.53-0.6,1.93
			c-0.4,0.4-1.04,0.6-1.93,0.6H35.02z"/>
		<path class="st12" d="M89.1,199.97H78.58c-0.89,0-1.53-0.2-1.93-0.6c-0.4-0.4-0.6-1.04-0.6-1.93v-45.45c0-0.89,0.2-1.53,0.6-1.93
			c0.4-0.4,1.04-0.6,1.93-0.6h7.3c0.89,0,1.65,0.14,2.28,0.42c0.63,0.28,1.25,0.77,1.86,1.47l13.61,15.57v-14.94
			c0-0.89,0.2-1.53,0.6-1.93c0.4-0.4,1.04-0.6,1.93-0.6h10.52c0.89,0,1.53,0.2,1.93,0.6c0.4,0.4,0.6,1.04,0.6,1.93v45.45
			c0,0.89-0.2,1.53-0.6,1.93c-0.4,0.4-1.04,0.6-1.93,0.6h-10.52c-0.89,0-1.53-0.2-1.93-0.6c-0.4-0.4-0.6-1.04-0.6-1.93v-8.63
			L91.63,174.3v23.15c0,0.89-0.2,1.53-0.6,1.93C90.63,199.77,89.99,199.97,89.1,199.97z"/>
		<path class="st12" d="M158.33,199.97H131.4c-0.89,0-1.53-0.2-1.93-0.6c-0.4-0.4-0.6-1.04-0.6-1.93v-45.45
			c0-0.89,0.2-1.53,0.6-1.93c0.4-0.4,1.04-0.6,1.93-0.6h22.38c4.58,0,7.97,0.88,10.17,2.63c2.2,1.75,3.3,4.45,3.3,8.1v3.37
			c0,1.96-0.34,3.57-1.02,4.8c-0.68,1.24-1.72,2.16-3.12,2.77c2.99,0.28,5.21,1.31,6.66,3.09c1.45,1.78,2.17,4.37,2.17,7.79v6.45
			c0,3.93-1.11,6.83-3.33,8.7C166.39,199.04,162.97,199.97,158.33,199.97z M144.66,161.39v7.58h5.96c0.89,0,1.55-0.23,2-0.7
			c0.44-0.47,0.67-1.17,0.67-2.1v-1.96c0-0.93-0.22-1.64-0.67-2.1c-0.44-0.47-1.11-0.7-2-0.7H144.66z M144.66,179.77v8.28h9.12
			c0.89,0,1.55-0.23,2-0.7c0.44-0.47,0.67-1.17,0.67-2.1v-2.74c0-0.93-0.22-1.62-0.67-2.07c-0.44-0.44-1.11-0.67-2-0.67H144.66z"/>
		<path class="st12" d="M217.96,199.97h-35.71c-0.89,0-1.53-0.2-1.93-0.6c-0.4-0.4-0.6-1.04-0.6-1.93v-45.45
			c0-0.89,0.2-1.53,0.6-1.93c0.4-0.4,1.04-0.6,1.93-0.6h10.87c0.89,0,1.53,0.2,1.94,0.6c0.39,0.4,0.6,1.04,0.6,1.93v34.72h9.6
			v-11.36c0-0.89,0.2-1.53,0.6-1.93c0.4-0.4,1.05-0.6,1.93-0.6h10.18c0.88,0,1.53,0.2,1.93,0.6c0.4,0.4,0.6,1.04,0.6,1.93v22.09
			c0,0.89-0.2,1.53-0.6,1.93C219.49,199.77,218.84,199.97,217.96,199.97z"/>
		<path class="st12" d="M271.27,186.71c0,2.15-0.32,4.1-0.95,5.86c-0.63,1.75-1.75,3.25-3.37,4.49c-1.61,1.24-3.83,2.21-6.66,2.91
			c-2.83,0.7-6.42,1.05-10.77,1.05s-7.95-0.35-10.8-1.05c-2.85-0.7-5.09-1.67-6.7-2.91c-1.61-1.24-2.73-2.74-3.37-4.49
			c-0.63-1.75-0.95-3.71-0.95-5.86v-23.92c0-2.15,0.31-4.1,0.95-5.86c0.63-1.75,1.76-3.26,3.37-4.52c1.61-1.26,3.85-2.24,6.7-2.95
			c2.86-0.7,6.45-1.05,10.8-1.05s7.94,0.35,10.77,1.05c2.83,0.7,5.05,1.68,6.66,2.95c1.62,1.26,2.74,2.77,3.37,4.52
			c0.63,1.75,0.95,3.71,0.95,5.86V186.71z M243.63,184.19c0,0.93,0.35,1.72,1.05,2.35c0.7,0.63,2.31,0.95,4.84,0.95
			c2.52,0,4.14-0.32,4.84-0.95c0.7-0.63,1.05-1.41,1.05-2.35v-18.87c0-0.89-0.35-1.65-1.05-2.28c-0.7-0.63-2.31-0.95-4.84-0.95
			c-2.52,0-4.14,0.32-4.84,0.95c-0.7,0.63-1.05,1.39-1.05,2.28V184.19z"/>
		<path class="st12" d="M313.77,199.97h-17.11c-5.85,0-10.18-1.17-13.01-3.51c-2.83-2.34-4.24-5.94-4.24-10.8v-21.82
			c0-4.86,1.41-8.47,4.24-10.84c2.83-2.36,7.16-3.54,13.01-3.54h17.11c0.89,0,1.53,0.2,1.93,0.6c0.39,0.4,0.6,1.04,0.6,1.93v8.49
			c0,0.89-0.2,1.53-0.6,1.93c-0.4,0.4-1.04,0.6-1.93,0.6h-14.1c-1.45,0-2.52,0.29-3.23,0.88c-0.7,0.59-1.05,1.46-1.05,2.63v16.69
			c0,1.17,0.35,2.02,1.05,2.56s1.78,0.81,3.23,0.81h14.1c0.89,0,1.53,0.2,1.93,0.6c0.39,0.4,0.6,1.04,0.6,1.93v8.35
			c0,0.89-0.2,1.53-0.6,1.93C315.31,199.77,314.66,199.97,313.77,199.97z"/>
		<path class="st12" d="M337.62,199.97h-10.87c-0.89,0-1.53-0.2-1.93-0.6c-0.4-0.4-0.6-1.04-0.6-1.93v-45.45
			c0-0.89,0.2-1.53,0.6-1.93c0.4-0.4,1.04-0.6,1.93-0.6h10.87c0.89,0,1.53,0.2,1.93,0.6c0.39,0.4,0.6,1.04,0.6,1.93v16.13h2.8
			l7.23-16.34c0.32-0.84,0.77-1.44,1.33-1.79c0.56-0.35,1.28-0.53,2.17-0.53h10.8c0.79,0,1.34,0.2,1.62,0.6
			c0.28,0.4,0.26,0.97-0.07,1.72l-7.16,16.34c2.62,0.14,4.71,1.06,6.28,2.77c1.57,1.71,2.35,3.96,2.35,6.77v19.78
			c0,0.89-0.2,1.53-0.6,1.93c-0.4,0.4-1.04,0.6-1.93,0.6h-10.8c-0.89,0-1.53-0.2-1.93-0.6c-0.4-0.4-0.6-1.04-0.6-1.93v-13.68
			c0-0.75-0.19-1.33-0.56-1.75c-0.37-0.42-0.93-0.63-1.68-0.63h-9.26v16.06c0,0.89-0.2,1.53-0.6,1.93
			C339.15,199.77,338.51,199.97,337.62,199.97z"/>
	</g>
	<g>
		<path d="M83.93,229.62c-0.34,1.78-0.75,3.5-1.21,5.17l-2.15,7.82h-4.29l-6.24-17.83h4.6l2.3,7.47c0.53,1.73,0.99,3.4,1.4,5.02
			h0.07c0.34-1.57,0.75-3.24,1.23-5.02l2.04-7.47h4.6l2.01,7.47c0.43,1.58,0.84,3.26,1.23,5.02h0.07c0.42-1.66,0.88-3.33,1.4-5.02
			l2.3-7.47h4.6l-6.24,17.83h-4.29l-2.15-7.82c-0.49-1.75-0.9-3.48-1.21-5.17H83.93z"/>
		<path d="M112.16,229.62c-0.34,1.78-0.75,3.5-1.21,5.17l-2.15,7.82h-4.29l-6.24-17.83h4.6l2.3,7.47c0.53,1.73,0.99,3.4,1.4,5.02
			h0.07c0.34-1.57,0.75-3.24,1.23-5.02l2.04-7.47h4.6l2.01,7.47c0.43,1.58,0.84,3.26,1.23,5.02h0.07c0.42-1.66,0.88-3.33,1.4-5.02
			l2.3-7.47h4.6l-6.24,17.83h-4.29l-2.15-7.82c-0.49-1.75-0.9-3.48-1.21-5.17H112.16z"/>
		<path d="M140.38,229.62c-0.34,1.78-0.75,3.5-1.21,5.17l-2.15,7.82h-4.29l-6.24-17.83h4.6l2.3,7.47c0.53,1.73,0.99,3.4,1.4,5.02
			h0.07c0.34-1.57,0.75-3.24,1.23-5.02l2.04-7.47h4.6l2.01,7.47c0.43,1.58,0.84,3.26,1.23,5.02h0.07c0.42-1.66,0.88-3.33,1.4-5.02
			l2.3-7.47h4.6l-6.24,17.83h-4.29l-2.15-7.82c-0.49-1.75-0.9-3.48-1.21-5.17H140.38z"/>
		<path d="M156.46,237.7h4.95v4.91h-4.95V237.7z"/>
		<path d="M166.84,215.97h4.58v4.73h-4.58V215.97z M166.95,224.79h4.36v17.83h-4.36V224.79z"/>
		<path d="M180.21,227.27h0.07c0.26-0.37,0.58-0.73,0.98-1.09c0.39-0.36,0.84-0.67,1.34-0.94c0.5-0.27,1.06-0.49,1.66-0.65
			c0.61-0.17,1.26-0.25,1.94-0.25c0.65,0,1.28,0.07,1.89,0.22c0.61,0.15,1.16,0.38,1.67,0.69s0.95,0.72,1.33,1.21
			c0.39,0.5,0.69,1.09,0.91,1.78c0.12,0.38,0.21,0.8,0.25,1.24c0.04,0.45,0.06,0.97,0.06,1.55v11.57h-4.36v-10.89
			c0-0.48-0.02-0.89-0.05-1.23c-0.04-0.34-0.1-0.64-0.2-0.9c-0.22-0.56-0.56-0.97-1-1.21c-0.45-0.24-0.99-0.37-1.63-0.37
			c-0.85,0-1.66,0.2-2.44,0.6c-0.78,0.4-1.47,0.98-2.07,1.74v12.27h-4.36v-17.83h3.61L180.21,227.27z"/>
		<path d="M214.23,233.4c0,1.61-0.23,3.03-0.7,4.27c-0.47,1.24-1.08,2.26-1.83,3.05c-0.75,0.8-1.6,1.39-2.55,1.78
			c-0.94,0.39-1.89,0.58-2.85,0.58c-0.68,0-1.28-0.08-1.82-0.25c-0.54-0.17-1.01-0.37-1.42-0.62c-0.4-0.24-0.74-0.5-1.02-0.77
			c-0.28-0.27-0.49-0.51-0.65-0.72h-0.07l-0.42,1.89h-3.61c0.02-0.53,0.05-1.18,0.06-1.96c0.02-0.78,0.03-1.52,0.03-2.22v-22.46
			h4.36v7.41c0,0.53,0,1.02-0.01,1.46c-0.01,0.45-0.01,0.79-0.03,1.04h0.04c0.28-0.2,0.59-0.39,0.92-0.57
			c0.33-0.18,0.69-0.35,1.09-0.5c0.39-0.15,0.82-0.26,1.27-0.35c0.45-0.09,0.93-0.13,1.44-0.13c0.99,0,1.96,0.18,2.9,0.54
			c0.94,0.36,1.77,0.91,2.5,1.66c0.73,0.74,1.31,1.69,1.74,2.85C214.02,230.55,214.23,231.89,214.23,233.4z M209.72,233.62
			c0-1.12-0.13-2.08-0.4-2.88c-0.27-0.8-0.62-1.42-1.06-1.84c-0.44-0.42-0.89-0.71-1.36-0.86c-0.47-0.15-0.94-0.22-1.41-0.22
			c-0.64,0-1.29,0.13-1.95,0.39c-0.66,0.26-1.26,0.6-1.8,1.03v8.54c0.17,0.2,0.38,0.4,0.63,0.62s0.53,0.41,0.85,0.59
			c0.31,0.18,0.65,0.33,1.02,0.44c0.37,0.12,0.76,0.17,1.18,0.17c0.71,0,1.33-0.14,1.87-0.43c0.53-0.29,0.98-0.7,1.34-1.22
			c0.36-0.53,0.63-1.16,0.82-1.89C209.63,235.32,209.72,234.51,209.72,233.62z"/>
		<path d="M218.28,242.61v-26.64h4.36v26.64H218.28z"/>
		<path d="M244.61,233.71c0,1.4-0.21,2.67-0.63,3.83c-0.42,1.15-1.02,2.14-1.8,2.96c-0.78,0.82-1.72,1.46-2.82,1.9
			c-1.1,0.45-2.34,0.67-3.7,0.67c-1.4,0-2.65-0.22-3.76-0.67c-1.11-0.45-2.05-1.08-2.83-1.9c-0.77-0.82-1.37-1.81-1.78-2.96
			c-0.41-1.15-0.62-2.43-0.62-3.83c0-1.4,0.21-2.67,0.63-3.83c0.42-1.15,1.02-2.14,1.79-2.96c0.78-0.82,1.72-1.46,2.82-1.9
			c1.1-0.45,2.34-0.67,3.7-0.67c1.4,0,2.65,0.22,3.76,0.67c1.11,0.45,2.05,1.08,2.83,1.9c0.77,0.82,1.37,1.81,1.77,2.96
			C244.4,231.04,244.61,232.31,244.61,233.71z M240.1,233.71c0-0.94-0.11-1.78-0.33-2.5c-0.22-0.72-0.53-1.33-0.92-1.82
			c-0.39-0.49-0.86-0.86-1.42-1.1c-0.55-0.24-1.16-0.37-1.8-0.37c-0.64,0-1.23,0.12-1.77,0.37c-0.55,0.24-1.02,0.61-1.41,1.1
			c-0.39,0.49-0.7,1.1-0.92,1.82c-0.22,0.72-0.33,1.56-0.33,2.5s0.11,1.78,0.33,2.5c0.22,0.72,0.53,1.33,0.93,1.81
			c0.4,0.48,0.87,0.85,1.41,1.1c0.55,0.25,1.15,0.38,1.8,0.38s1.24-0.13,1.78-0.38c0.54-0.25,1-0.62,1.4-1.1
			c0.39-0.48,0.7-1.09,0.92-1.81C239.99,235.49,240.1,234.65,240.1,233.71z"/>
		<path d="M261.31,242.23c-0.55,0.23-1.23,0.43-2.02,0.6c-0.79,0.17-1.64,0.25-2.52,0.25c-1.29,0-2.49-0.18-3.61-0.55
			s-2.09-0.93-2.93-1.67c-0.83-0.75-1.49-1.7-1.97-2.84c-0.48-1.15-0.72-2.49-0.72-4.02c0-1.72,0.28-3.19,0.83-4.42
			c0.55-1.23,1.27-2.22,2.15-2.99c0.88-0.77,1.86-1.33,2.96-1.69c1.1-0.36,2.18-0.54,3.25-0.54c0.8,0,1.56,0.07,2.3,0.21
			c0.74,0.14,1.41,0.33,2.01,0.58v3.55c-0.54-0.23-1.11-0.42-1.72-0.56c-0.61-0.14-1.26-0.21-1.96-0.21c-0.7,0-1.37,0.11-2.01,0.32
			c-0.64,0.22-1.2,0.56-1.69,1.02c-0.49,0.47-0.88,1.08-1.17,1.85c-0.29,0.77-0.43,1.69-0.43,2.77c0,0.79,0.11,1.52,0.33,2.22
			c0.22,0.69,0.54,1.28,0.97,1.78c0.42,0.49,0.96,0.89,1.62,1.19c0.65,0.3,1.43,0.45,2.33,0.45c0.79,0,1.52-0.08,2.17-0.24
			c0.65-0.16,1.27-0.35,1.84-0.59V242.23z"/>
		<path d="M265.27,215.97h4.36v16.04h0.09l6.79-7.23h5.39l-7.82,8.37l7.87,9.46h-5.28l-6.97-8.3h-0.07v8.3h-4.36V215.97z"/>
		<path d="M285.17,237.7h4.95v4.91h-4.95V237.7z"/>
		<path d="M308.39,242.23c-0.55,0.23-1.23,0.43-2.02,0.6c-0.8,0.17-1.64,0.25-2.52,0.25c-1.29,0-2.49-0.18-3.61-0.55
			c-1.12-0.37-2.09-0.93-2.93-1.67c-0.84-0.75-1.49-1.7-1.97-2.84c-0.48-1.15-0.72-2.49-0.72-4.02c0-1.72,0.28-3.19,0.83-4.42
			c0.55-1.23,1.27-2.22,2.14-2.99c0.88-0.77,1.87-1.33,2.97-1.69c1.1-0.36,2.18-0.54,3.25-0.54c0.8,0,1.56,0.07,2.3,0.21
			c0.74,0.14,1.4,0.33,2.01,0.58v3.55c-0.54-0.23-1.11-0.42-1.72-0.56c-0.6-0.14-1.26-0.21-1.96-0.21c-0.7,0-1.37,0.11-2.01,0.32
			c-0.64,0.22-1.2,0.56-1.69,1.02s-0.88,1.08-1.17,1.85c-0.29,0.77-0.43,1.69-0.43,2.77c0,0.79,0.11,1.52,0.33,2.22
			c0.22,0.69,0.54,1.28,0.96,1.78c0.43,0.49,0.96,0.89,1.62,1.19c0.66,0.3,1.44,0.45,2.33,0.45c0.8,0,1.52-0.08,2.17-0.24
			c0.65-0.16,1.26-0.35,1.84-0.59V242.23z"/>
		<path d="M329.16,233.71c0,1.4-0.21,2.67-0.63,3.83c-0.42,1.15-1.02,2.14-1.8,2.96c-0.78,0.82-1.72,1.46-2.82,1.9
			c-1.1,0.45-2.34,0.67-3.7,0.67c-1.4,0-2.65-0.22-3.76-0.67c-1.11-0.45-2.05-1.08-2.83-1.9c-0.77-0.82-1.37-1.81-1.77-2.96
			c-0.41-1.15-0.62-2.43-0.62-3.83c0-1.4,0.21-2.67,0.63-3.83c0.42-1.15,1.02-2.14,1.8-2.96c0.78-0.82,1.72-1.46,2.82-1.9
			c1.1-0.45,2.34-0.67,3.7-0.67c1.4,0,2.65,0.22,3.76,0.67c1.11,0.45,2.05,1.08,2.83,1.9c0.77,0.82,1.37,1.81,1.77,2.96
			C328.96,231.04,329.16,232.31,329.16,233.71z M324.66,233.71c0-0.94-0.11-1.78-0.33-2.5c-0.22-0.72-0.53-1.33-0.92-1.82
			c-0.39-0.49-0.86-0.86-1.42-1.1c-0.55-0.24-1.16-0.37-1.8-0.37c-0.64,0-1.23,0.12-1.77,0.37c-0.55,0.24-1.02,0.61-1.41,1.1
			c-0.39,0.49-0.7,1.1-0.92,1.82c-0.22,0.72-0.33,1.56-0.33,2.5s0.11,1.78,0.33,2.5c0.22,0.72,0.53,1.33,0.93,1.81
			c0.4,0.48,0.87,0.85,1.41,1.1c0.55,0.25,1.15,0.38,1.8,0.38c0.65,0,1.24-0.13,1.78-0.38c0.54-0.25,1-0.62,1.4-1.1
			c0.39-0.48,0.7-1.09,0.92-1.81C324.55,235.49,324.66,234.65,324.66,233.71z"/>
	</g>
</g>
</svg>
