<?xml version="1.0" encoding="utf-8"?>
<!-- Generator: Adobe Illustrator 23.0.2, SVG Export Plug-In . SVG Version: 6.00 Build 0)  -->
<svg version="1.1" id="Layer_1" xmlns="http://www.w3.org/2000/svg" xmlns:xlink="http://www.w3.org/1999/xlink" x="0px" y="0px"
	 viewBox="0 0 400 245" style="enable-background:new 0 0 400 245;" xml:space="preserve">
<style type="text/css">
	.st0{fill:#404040;}
	.st1{fill:url(#SVGID_1_);}
	.st2{fill:url(#SVGID_2_);}
	.st3{fill:url(#SVGID_3_);}
	.st4{fill:url(#SVGID_4_);}
	.st5{fill:url(#SVGID_5_);}
	.st6{fill:url(#SVGID_6_);}
	.st7{fill:url(#SVGID_7_);}
	.st8{fill:url(#SVGID_8_);}
	.st9{fill:#202945;}
	.st10{fill:#DAA900;}
	.st11{fill:#292933;}
	.st12{fill:#8E91A1;}
	.st13{fill-rule:evenodd;clip-rule:evenodd;fill:#343333;}
	.st14{fill-rule:evenodd;clip-rule:evenodd;fill:#FF3000;}
	.st15{fill:#232020;}
	.st16{fill-rule:evenodd;clip-rule:evenodd;fill:#0068B7;}
	.st17{clip-path:url(#SVGID_10_);fill:url(#SVGID_11_);}
	.st18{clip-path:url(#SVGID_13_);fill:url(#SVGID_14_);}
	.st19{clip-path:url(#SVGID_16_);fill:#FFFFFF;}
	.st20{fill:#018E82;}
	.st21{clip-path:url(#SVGID_18_);fill:#FFFFFF;}
	.st22{fill-rule:evenodd;clip-rule:evenodd;fill:#5E9FD7;}
	.st23{fill-rule:evenodd;clip-rule:evenodd;fill:#2A3457;}
	.st24{fill:#045576;}
	.st25{fill:url(#SVGID_19_);}
	.st26{fill:#22292B;}
	.st27{fill-rule:evenodd;clip-rule:evenodd;fill:url(#SVGID_20_);}
	.st28{fill:#231F20;}
	.st29{fill:#E87B1B;}
	.st30{fill:#818485;}
	.st31{fill:#231916;}
	.st32{fill:#5C186A;}
	.st33{fill:#AEBE25;}
	.st34{fill:#333333;}
	.st35{fill:#FBBC12;}
	.st36{fill:#FFFFFF;}
	.st37{fill:#EC1C24;}
	.st38{fill:#9A9C9C;}
	.st39{fill:#3D3D3A;}
	.st40{fill:#D41E46;}
	.st41{fill:#262261;}
	.st42{fill:#652D90;}
	.st43{fill:#90278E;}
	.st44{fill:#EB008B;}
</style>
<g>
	<path class="st13" d="M125.35,102.59h-3.33v24.31h3.33V102.59z M126.12,94.34c0-1.31-1.07-2.44-2.44-2.44
		c-1.31,0-2.43,1.13-2.43,2.44c0,1.37,1.13,2.5,2.43,2.5C125.05,96.83,126.12,95.7,126.12,94.34"/>
	<path class="st13" d="M152.21,126.91v-17.36c0-4.69-2.44-7.43-7.25-7.43c-3.27,0-6.06,1.72-8.74,4.1l-0.54-3.63h-2.62v24.31h3.39
		v-17.54c2.61-2.68,5.29-4.22,7.84-4.22c3.09,0,4.52,1.9,4.52,4.99v16.76H152.21z"/>
	<path class="st13" d="M170.64,93.44l-0.54-3.15c-0.48-0.06-0.89-0.12-1.72-0.12c-4.16,0-6.83,2.08-6.83,6.54v5.88h-3.69v2.91h3.69
		v21.4h3.33v-21.4h5.47l-0.48-2.91h-4.99v-5.64c0-2.68,1.37-3.69,3.69-3.69C169.51,93.27,170.16,93.32,170.64,93.44"/>
	<path class="st13" d="M192.81,114.78c0,5.76-2.62,9.74-7.55,9.74c-4.82,0-7.49-4.16-7.49-9.74c0-5.77,2.62-9.81,7.49-9.81
		C190.13,104.97,192.81,109.2,192.81,114.78 M196.26,114.78c0-8.09-4.7-12.66-10.99-12.66c-6.12,0-10.94,4.58-10.94,12.66
		c0,8.02,4.69,12.66,10.94,12.66C191.44,127.44,196.26,122.8,196.26,114.78"/>
	<path class="st13" d="M213.97,105.27l-0.53-3.15c-3.98,0.06-6.83,2.74-8.62,5.47l-0.78-4.99h-2.49v24.31h3.39v-15.28
		C206.54,108.42,209.98,105.57,213.97,105.27"/>
	<path class="st13" d="M254.44,126.91v-17.42c0-4.64-2.26-7.37-7.13-7.37c-3.33,0-6.12,1.78-8.8,4.22
		c-0.89-2.67-2.97-4.22-6.72-4.22c-3.21,0-5.94,1.67-8.56,3.98l-0.53-3.51h-2.62v24.31h3.39v-17.66c2.62-2.56,5.17-4.1,7.67-4.1
		c3.15,0,4.4,1.9,4.4,4.99v16.76h3.39v-17.6c2.67-2.61,5.17-4.16,7.67-4.16c3.15,0,4.46,1.9,4.46,4.99v16.76H254.44z"/>
	<path class="st13" d="M275.01,120.19c-2.02,2.08-4.58,3.45-7.25,3.45c-2.32,0-3.69-1.31-3.69-3.33c0-2.5,1.9-4.93,10.94-5.83
		V120.19z M279.58,126.91v-17.18c0-5.41-2.85-7.85-8.8-7.85c-3.8,0-6.6,0.89-9.51,2.08l0.59,3.92c2.68-1.19,5.53-2.08,8.5-2.08
		c2.79,0,4.63,1.07,4.63,4.16v1.01c-10.16,1.07-15.45,3.51-15.45,9.63c0,4.16,2.79,6.83,7.19,6.83c4.04,0,6.72-1.84,8.68-3.8
		l0.48,3.27H279.58z"/>
	<path class="st13" d="M321.49,126.91v-17.83c0-4.4-2.26-7.19-6.9-7.19c-3.44,0-6.42,1.96-8.62,4.04c-0.95-2.5-2.91-4.04-6.48-4.04
		c-3.45,0-6.24,1.96-8.56,4.04l-0.53-3.51h-3.69v24.49h4.58v-16.94c2.26-2.38,4.52-3.98,6.95-3.98c2.68,0,3.57,1.72,3.57,4.22v16.7
		h4.58v-16.94c2.26-2.38,4.51-3.98,6.95-3.98c2.68,0,3.62,1.72,3.62,4.22v16.7H321.49z"/>
	<path class="st13" d="M349.42,126.91v-24.49h-4.58v16.94c-2.2,2.38-4.7,3.98-7.07,3.98c-2.67,0-3.74-1.72-3.74-4.22v-16.7h-4.58
		v17.83c0,4.4,2.38,7.19,7.07,7.19c3.45,0,6.36-1.9,8.68-4.1l0.59,3.57H349.42z"/>
	<path class="st13" d="M373.73,120.07c0-4.69-2.73-6.42-8.8-7.96c-3.8-0.95-5.05-1.9-5.05-3.51c0-1.78,1.42-2.85,4.22-2.85
		c2.56,0,5.29,0.89,7.43,2.08l0.71-4.28c-2.32-1.01-5.05-1.67-8.09-1.67c-5.29,0-8.62,2.91-8.62,6.78c0,4.4,2.32,6.12,8.08,7.55
		c4.4,1.07,5.83,1.9,5.83,4.16c0,2.08-1.84,3.27-4.99,3.27c-3.33,0-6.3-1.25-8.62-2.85l-0.71,4.34c2.14,1.19,5.71,2.32,8.98,2.32
		C370.4,127.44,373.73,124.53,373.73,120.07"/>
	<path class="st13" d="M394.65,111.69h-11.77c0.71-4.22,3.09-6.18,5.94-6.18C392.33,105.51,394.11,107.77,394.65,111.69
		 M399.29,114.19c0-6.78-3.27-12.3-10.4-12.3c-6.18,0-10.82,4.81-10.82,12.72c0,8.97,4.99,12.84,11.35,12.84
		c4.04,0,7.19-1.25,9.81-3.33l-0.66-4.1c-2.67,2.14-5.23,3.51-8.8,3.51c-4.28,0-6.96-2.67-7.13-8.38h16.64V114.19z"/>
	<path class="st14" d="M76.02,105.27c-1.49-4.46-5.88-4.46-7.43-4.16c-3.21,0.77-6.95,4.22-9.27,8.32
		c-2.14,3.75-4.22,9.93-1.42,12.6c0.89,0.95,2.08,1.19,3.21,1.07c4.04-0.06,7.96-2.97,9.69-5.23L76.02,105.27z M0.71,172.55h99.85
		V72.7H0.71V172.55z M51.06,124.17l-3.09,1.9c-2.08,1.31-4.99,2.32-8.56,1.78c-2.68-0.41-4.88-2.55-5.77-4.63
		c-0.77-1.78-0.53-4.76,0.41-7.07l4.4-10.7c0.83-2.14,0.71-3.03,0.42-3.5c-0.47-0.72-0.95-1.07-2.14-1.07h-2.62l1.25-2.85h5.82
		c2.68,0,7.07,1.55,3.92,9.27l-4.28,10.28c-0.3,0.83-1.37,3.39-0.06,4.76c1.54,1.66,5.35,0.77,7.25-0.42l1.67-1.01
		c-0.18-0.71-0.24-1.31-0.24-1.84c0-6.54,3.33-13.02,9.57-17.89c3.33-2.56,8.68-4.4,12.9-3.63c1.31,0.24,3.86,0.77,5.82,3.57
		l1.25-3.03h7.31l-7.43,17.83c-0.65,1.66-1.9,5.11,0.18,6.89c1.84,1.55,4.69,0.12,5.59-0.47l7.61-4.76l0.78,3.57l-7.43,4.63
		c-2.68,1.67-4.99,2.14-7.61,2.14c-0.95,0-5.83-0.54-7.13-5.94c-5.23,4.7-8.74,6.48-14.62,5.76
		C53.91,127.5,52.18,125.95,51.06,124.17 M51.65,89.4c-0.66,2.55-3.39,4.58-5.83,4.58c-2.2,0-3.51-1.61-2.86-3.92
		c0.66-2.5,3.39-4.52,5.83-4.52C50.87,85.54,52.3,87.08,51.65,89.4 M6.48,116.09l2.38,1.01c0.53,4.93,5.7,15.4,12.12,21.1
		c4.04,3.57,9.45,7.79,17.89,10.46c6.18,1.9,11.83,2.56,16.76,2.38c4.75-0.18,12.9-2.32,16.22-7.43l2.38,0.95
		c-1.31,2.97-4.75,9.39-13.61,11.71c-13.73,3.74-27.76-0.83-39.35-10.7C11.41,137.13,6.78,124.23,6.48,116.09"/>
	<path class="st15" d="M119.18,79.51c0,4-3.14,7.15-7.23,7.15c-4.05,0-7.28-3.14-7.28-7.15c0-3.92,3.23-7.06,7.28-7.06
		C116.04,72.45,119.18,75.59,119.18,79.51 M106.48,79.51c0,3.14,2.33,5.64,5.51,5.64c3.1,0,5.38-2.5,5.38-5.6
		c0-3.14-2.28-5.68-5.43-5.68C108.81,73.87,106.48,76.41,106.48,79.51 M110.83,83.21h-1.64v-7.06c0.65-0.13,1.55-0.21,2.71-0.21
		c1.33,0,1.94,0.21,2.45,0.52c0.39,0.3,0.69,0.86,0.69,1.55c0,0.78-0.6,1.38-1.46,1.64v0.09c0.69,0.26,1.08,0.77,1.29,1.72
		c0.22,1.08,0.35,1.51,0.52,1.76h-1.77c-0.21-0.26-0.34-0.9-0.56-1.72c-0.13-0.78-0.56-1.12-1.46-1.12h-0.78V83.21z M110.88,79.21
		h0.78c0.91,0,1.64-0.3,1.64-1.03c0-0.65-0.47-1.08-1.51-1.08c-0.43,0-0.73,0.04-0.9,0.09V79.21z"/>
</g>
</svg>
