<svg xmlns="http://www.w3.org/2000/svg" width="219.969" height="62.594" viewBox="0 0 219.969 62.594"><g transform="translate(-5.707 -6.892)"><g transform="translate(7.104 6.892)"><path d="M10.2,6.892H18.13V45.654H10.2Z" transform="translate(-10.199 -6.892)" fill="#e8432a" fill-rule="evenodd"/><path d="M76.43,70.107H68.783V53.113c0-2.686.276-5.585-1.983-6.029a3.117,3.117,0,0,0-1.942.324c-1.794.926-1.781,2.839-1.781,5.584V70.107H55.471c0-8.938.348-18.491-.243-27.029l7.647.041.2,2.67.041-.081c1.035-1.045,1.435-2.059,2.954-2.711,3.5-1.5,7.836-.092,9.306,2.266,1.22,1.956,1.052,5.2,1.052,8.416Z" transform="translate(-41.228 -31.345)" fill="#e8432a" fill-rule="evenodd"/><path d="M161.542,70.069h-7.607V53.075c0-2.65.245-5.591-1.983-6.029a3.361,3.361,0,0,0-1.7.2c-2.043.769-2.064,2.871-2.063,5.705V70.069h-7.607V51.983c0-2.6.361-6.783-.243-8.9l.04-.041h7.607l.243,2.752v-.081c.956-1.127,1.6-2.171,3.075-2.792,3.624-1.522,7.86.073,9.306,2.468,1.141,1.89.931,5.126.931,8.173Z" transform="translate(-99.878 -31.307)" fill="#e8432a" fill-rule="evenodd"/><path d="M438.884,6.892h7.607l-.04,6.433h-7.566Z" transform="translate(-305.603 -6.892)" fill="#f8c100" fill-rule="evenodd"/><path d="M665.784,50.267H660.6c-.51,0-1.6.159-1.942-.081a3.1,3.1,0,0,0-1.78-3.925c-1.821-.5-4.15.781-3.6,2.671.48,1.651,2.554,2.59,3.925,3.4,3.778,2.227,10.958,4.712,9.468,11.572a7.739,7.739,0,0,1-.89,2.387c-1.32,2.147-3.775,3.1-6.676,3.682l-2.387.2a13.11,13.11,0,0,1-4.613-.243c-3.813-.955-6.762-3.87-6.029-9.023h7.364c-.045,2.234.428,4.314,2.1,4.815,2.112.631,4.784-1.281,3.925-3.439-1.013-2.545-4.762-3.786-7.081-5.139a40.577,40.577,0,0,1-3.6-2.306,6.052,6.052,0,0,1-2.59-6.312l.566-1.9c1.787-4.046,8.594-5.67,14.121-3.925C664.2,43.746,665.84,45.913,665.784,50.267Z" transform="translate(-448.302 -31.088)" fill="#f8c100" fill-rule="evenodd"/><path d="M345.469,70.187h-7.607V53.152c0-2.613.262-5.56-1.942-5.988a3.273,3.273,0,0,0-1.78.243c-1.984.834-2.023,2.865-2.023,5.705V70.187H324.51V53.193c0-2.66.259-5.594-1.983-6.029a3.278,3.278,0,0,0-1.78.243c-1.962.824-1.983,2.9-1.983,5.705V70.187h-7.607c0-8.961.1-18.4-.2-27.029h7.607l.2,2.752.081-.04c.938-2.816,5.756-4.227,9.306-2.832,2.022.794,2.529,1.845,3.6,3.561h.041c1.489-4.513,9.521-5.654,12.422-1.578,1.4,1.961,1.255,5.152,1.254,8.578Z" transform="translate(-217.448 -31.425)" fill="#f8c100" fill-rule="evenodd"/><path d="M500.95,70.11H493.3V53.116c0-2.681.276-5.591-1.983-6.029a3.126,3.126,0,0,0-1.942.324c-1.8.926-1.781,2.837-1.78,5.584V70.11h-7.607c0-8.959.184-18.462-.243-27.029l7.647.041a10.453,10.453,0,0,0,.243,2.67v-.081c1.037-1.048,1.431-2.057,2.954-2.711,3.495-1.5,7.835-.086,9.306,2.266,1.222,1.953,1.052,5.206,1.052,8.416Z" transform="translate(-333.762 -31.348)" fill="#f8c100" fill-rule="evenodd"/><path d="M438.884,44.632l7.607.041V71.661h-7.607Z" transform="translate(-305.603 -32.898)" fill="#f8c100" fill-rule="evenodd"/><path d="M584.523,41.527V6.892h-7.4V20.811h-.04c-1.018-2.189-5.815-3.717-9.023-2.468-2.111.822-3.239,2.568-3.925,4.815-1.285,4.209-1.394,15.009.243,18.855a6.487,6.487,0,0,0,2.59,3.075,8.7,8.7,0,0,0,7.324.566,7.534,7.534,0,0,0,2.751-2.509v-.081q.142,1.275.283,2.549h7.4Zm-7.445-9.549q-.021,1.719-.041,3.439c-.276,1.888.041,3.66-.728,4.977a2.694,2.694,0,0,1-1.942,1.295c-3.618.642-3.109-2.926-3.52-5.624q-.041-1.8-.081-3.6c0-3.111-.221-7.022,1.173-8.821.432-.558.972-.553,1.7-.85a2.675,2.675,0,0,1,2.225.85C577.257,25.427,577.078,28.8,577.078,31.978Z" transform="translate(-391.237 -6.892)" fill="#f8c100" fill-rule="evenodd"/><path d="M231.98,55.9c0,3.447-.395,9.8,3.286,10.04,3.841.252,3.642-5.482,3.742-8.77.1-3.133.428-9.272-2.9-9.827-4.369-.728-4.126,5.012-4.126,8.558m.289-13.186c-7.934,1.547-8.556,8.889-7.875,17.327.3,3.7,1.191,7.29,3.714,8.987,3.425,2.3,14.9,3.851,17.493-4.014,1.554-4.715,2.173-17.188-2.68-20.637C240.34,42.539,236.035,41.975,232.269,42.71Z" transform="translate(-157.657 -31.358)" fill="#e8432a" fill-rule="evenodd"/></g><text transform="translate(5.707 65.486)" fill="#1a1818" font-size="16" font-family="Helvetica" letter-spacing="0.1em"><tspan x="0" y="0">Powering the Digital Next</tspan></text></g></svg>