<svg xmlns="http://www.w3.org/2000/svg" viewBox="0 0 1011.79 217.8"><defs><style>.cls-1{fill:#8c528c;}.cls-2{fill:#8775bd;}.cls-3{fill:#adc8e6;}.cls-4{fill:#56c1bf;}.cls-5{fill:#2ea690;}.cls-6{fill:#81dec8;}.cls-7{fill:#a2ebda;}.cls-8{fill:#ff7a7f;}.cls-9{fill:#f2666d;}.cls-10{fill:#ffb0bc;}.cls-11{fill:#ffdbdb;}.cls-12{fill:#68cb88;}.cls-13{fill:#ffa252;}.cls-14{fill:#ffc38f;}.cls-15{fill:#cfedab;}.cls-16{fill:#f9d4b2;}.cls-17{fill:#fff;}</style></defs><g id="Layer_2" data-name="Layer 2"><g id="Layer_1-2" data-name="Layer 1"><path d="M311.1,120.39V12.88h12V120.39Z"/><path d="M359,120.39H347.3V42.71h11.5v5.44q12.57-7,24.08-7,15.53,0,20.89,8.39t5.36,29.83v41H397.64V79.69q0-16.15-3.19-22.14t-13.59-6A40.75,40.75,0,0,0,370.37,53a53.12,53.12,0,0,0-8.47,2.88L359,57.32Z"/><path d="M470.5,52.81H445.8V89.94q0,13.36,1.94,17.56t9.25,4.19l13.82-.93.78,9.63a106.18,106.18,0,0,1-15.85,1.71q-12.12,0-16.78-5.9T434.3,93.67V52.81h-11V42.71h11V18.94h11.5V42.71h24.7Z"/><path d="M537.62,110.76l4.51-.46.31,9.16a222.73,222.73,0,0,1-30.3,2.49q-16.78,0-23.77-9.71t-7-30.22q0-40.86,32.47-40.86,15.69,0,23.46,8.77t7.77,27.58l-.62,8.86H493.19q0,12.9,4.66,19.11t16.23,6.21Q525.66,111.69,537.62,110.76Zm-4.19-33.71q0-14.3-4.59-20.2T513.93,51q-10.33,0-15.54,6.21T493,77.05Z"/><path d="M563.25,120.39V42.71h11.5V53.28A75.63,75.63,0,0,1,603.18,41V52.81a83.77,83.77,0,0,0-13.59,3.88,90.64,90.64,0,0,0-10.8,4.67l-3.88,2v57Z"/><path d="M617.94,120.39V8.84H629.6V120.39Z"/><path d="M705.72,110.76l4.51-.46.31,9.16a222.73,222.73,0,0,1-30.3,2.49q-16.77,0-23.77-9.71t-7-30.22q0-40.86,32.47-40.86,15.69,0,23.46,8.77t7.77,27.58l-.62,8.86H661.29q0,12.9,4.66,19.11t16.24,6.21Q693.75,111.69,705.72,110.76Zm-4.19-33.71q0-14.3-4.58-20.2T682,51q-10.34,0-15.54,6.21t-5.36,19.89Z"/><path d="M791,8.84V120.39h-11.5v-5.28q-12,6.84-23.61,6.84A34.31,34.31,0,0,1,745,120.39a22.23,22.23,0,0,1-8.7-5.59q-8.39-8.39-8.39-31t7.53-32.62q7.54-10,24.94-10a97.29,97.29,0,0,1,19.11,2V8.84Zm-40.4,101.61a20.12,20.12,0,0,0,7.23,1.09,38.62,38.62,0,0,0,9.94-1.48,58.78,58.78,0,0,0,8.62-2.87l3.11-1.4V53.12A101,101,0,0,0,761,51.25q-11.81,0-16.47,7.54T739.9,82.18q0,18,5.44,24.23A13.37,13.37,0,0,0,750.62,110.45Z"/><path d="M843.53,156.91q-18.64,0-26-5.06t-7.38-18.4q0-6.37,2.79-10.34t9.48-8.93q-4.35-3-4.35-10.72,0-2.64,3.88-9.79l1.4-2.48q-12.27-5.59-12.27-23.46,0-26.58,29.05-26.57a58.63,58.63,0,0,1,13.83,1.55l2.33.47,23-.63v10l-14.76-.31q5.13,5.13,5.13,15.54,0,14.59-7.22,20.43T839.65,94a43.2,43.2,0,0,1-7.62-.62q-2.79,6.84-2.79,8.86,0,4.82,3,6t17.87,1.16q14.91,0,21.44,4.66T878,132.2Q878,156.9,843.53,156.91Zm-21.91-24.4q0,8.24,4.59,11.42t16.93,3.19q12.36,0,17.71-3.42t5.36-11.42q0-8-3.88-10.33t-15.23-2.33l-16.78-.78q-5.12,3.73-6.91,6.53A13,13,0,0,0,821.62,132.51Zm1.09-64.78q0,9.17,4.12,13t13.59,3.88q9.48,0,13.52-3.88t4-13.13q0-9.24-4-13.13t-13.52-3.89q-9.48,0-13.59,4T822.71,67.73Z"/><path d="M946.23,110.76l4.5-.46.31,9.16A222.47,222.47,0,0,1,920.75,122Q904,122,897,112.24T890,82q0-40.86,32.48-40.86,15.69,0,23.46,8.77t7.76,27.58l-.62,8.86H901.79q0,12.9,4.66,19.11t16.24,6.21Q934.25,111.69,946.23,110.76ZM942,77.05q0-14.3-4.58-20.2T922.53,51Q912.2,51,907,57.16t-5.36,19.89Z"/><path d="M971.86,120.39V42.71h11.5V53.28A75.63,75.63,0,0,1,1011.79,41V52.81a83.77,83.77,0,0,0-13.59,3.88,89.91,89.91,0,0,0-10.8,4.67l-3.89,2v57Z"/><path d="M340,170.8H315.65v12.71h22.19v7.4H315.65v14.6H307V163.34H340Z"/><path d="M368.89,206.25c-15,0-24.27-8.44-24.27-21.82s9.29-21.82,24.33-21.82,24.33,8.43,24.33,21.82S383.93,206.25,368.89,206.25Zm.06-36.07c-9.41,0-15.52,5.44-15.52,14.19s6.11,14.11,15.58,14.11,15.4-5.44,15.4-14.11S378.36,170.18,369,170.18Z"/><path d="M444.31,184.55c0,13.38-6.66,21.7-21.58,21.7s-21.08-7.52-21.08-21.7V163.34h8.62v21.21c0,9.35,4.15,13.93,13,13.93,8.43,0,12.59-4.7,12.59-13.93V163.34h8.43Z"/><path d="M496.87,205.51h-8.68l-24.63-29.09h-.12v29.09h-8.62V163.34h8.68l24.63,29.09h.12V163.34h8.62Z"/><path d="M526.15,205.51H507.63V163.34h18.52c18.46,0,26.89,6.91,26.89,20.78C553,197.39,544.73,205.51,526.15,205.51Zm-.49-34.71h-9.41v27.13h9.41c13.2,0,18.52-5,18.52-13.75S539.11,170.8,525.66,170.8Z"/><path d="M602.67,205.51h-9.41l-4.89-11.43H569.3l-4.77,11.43H555.3l19-42.17h9.41Zm-23.78-34.1h-.12l-6.91,16.5h14.06Z"/><path d="M643.86,170.8H626v34.71H617.4V170.8H599.61v-7.46h44.25Z"/><path d="M659.57,205.51H651V163.34h8.62Z"/><path d="M693,206.25c-15,0-24.26-8.44-24.26-21.82s9.29-21.82,24.32-21.82,24.33,8.43,24.33,21.82S708,206.25,693,206.25Zm.06-36.07c-9.41,0-15.52,5.44-15.52,14.19s6.11,14.11,15.58,14.11,15.41-5.44,15.41-14.11S702.48,170.18,693.06,170.18Z"/><path d="M768.06,205.51h-8.68l-24.63-29.09h-.13v29.09H726V163.34h8.67l24.64,29.09h.12V163.34h8.62Z"/><path class="cls-1" d="M73.05,186.43l-.07-.09a86.35,86.35,0,0,1-37.84-35.55h0A82.94,82.94,0,0,1,4.3,109.48,82.83,82.83,0,0,0,110.81,213,82.92,82.92,0,0,1,73.05,186.43Z"/><path class="cls-2" d="M148.3,186l0-.07-.11.06a86.23,86.23,0,0,1-75.12.42l-.14-.07.07.09A82.92,82.92,0,0,0,110.81,213,83,83,0,0,0,148.3,186Z"/><path class="cls-3" d="M73.12,186.41a86.23,86.23,0,0,0,75.12-.42,148.4,148.4,0,0,1-37.61-14.07A148,148,0,0,1,73.12,186.41Z"/><path class="cls-4" d="M185.81,150h0a86.36,86.36,0,0,1-37.45,36l0,.07a83,83,0,0,1-37.49,27A82.83,82.83,0,0,0,216.18,108.32,82.86,82.86,0,0,1,185.81,150Z"/><path class="cls-5" d="M185.64,67.21h0a86.18,86.18,0,0,1,.17,82.73v0h0a82.86,82.86,0,0,0,30.37-41.64A83,83,0,0,0,185.64,67.21Z"/><path class="cls-6" d="M185.81,150a86.18,86.18,0,0,0-.17-82.73,148.66,148.66,0,0,1-13.87,41.47A148.46,148.46,0,0,1,185.81,150Z"/><path class="cls-7" d="M171.77,108.69q-3.26,6.39-7.08,12.41A150.39,150.39,0,0,1,123,164.32q-6,4.08-12.32,7.6A148.4,148.4,0,0,0,148.24,186l.11-.06a86.36,86.36,0,0,0,37.45-36v0A148.46,148.46,0,0,0,171.77,108.69Z"/><path class="cls-8" d="M34.4,68a.75.75,0,0,0,.07-.12,86.49,86.49,0,0,1,38-36.53l0,0a83,83,0,0,1,37.14-26.6A82.83,82.83,0,0,0,4.3,109.48,82.93,82.93,0,0,1,34.4,68Z"/><path class="cls-9" d="M35.13,150.79h0A86.15,86.15,0,0,1,34.4,68,82.93,82.93,0,0,0,4.3,109.48,82.94,82.94,0,0,0,35.13,150.79Z"/><path class="cls-10" d="M34.48,68v-.06a.75.75,0,0,1-.07.12,86.15,86.15,0,0,0,.73,82.74,148.08,148.08,0,0,1,13.64-41.51A148.14,148.14,0,0,1,34.48,68Z"/><path class="cls-11" d="M98.21,164.44A150.2,150.2,0,0,1,56,121.57q-3.87-6-7.18-12.3a148.08,148.08,0,0,0-13.64,41.51h0A86.35,86.35,0,0,0,73,186.34l.14.07a148,148,0,0,0,37.51-14.49Q104.24,168.47,98.21,164.44Z"/><path class="cls-12" d="M147.11,31l0,0a86.42,86.42,0,0,1,38.49,36.23h0a83,83,0,0,1,30.54,41.11A82.83,82.83,0,0,0,109.67,4.77,82.93,82.93,0,0,1,147.11,31Z"/><path class="cls-13" d="M72.53,31.37A86.28,86.28,0,0,1,147.11,31,82.93,82.93,0,0,0,109.67,4.77,83,83,0,0,0,72.53,31.37Z"/><path class="cls-14" d="M109.9,45.53A147.69,147.69,0,0,1,147.12,31h0l0,0a86.28,86.28,0,0,0-74.58.41l0,0h0A148.39,148.39,0,0,1,109.9,45.53Z"/><path class="cls-15" d="M109.9,45.53a147.5,147.5,0,0,1,12.76,7.76,150.23,150.23,0,0,1,41.88,42.89q3.9,6.06,7.23,12.51a148.66,148.66,0,0,0,13.87-41.47h0A86.42,86.42,0,0,0,147.14,31h0A147.69,147.69,0,0,0,109.9,45.53Z"/><path class="cls-16" d="M48.77,109.27q3.23-6.42,7-12.49A150.1,150.1,0,0,1,97.22,53.43a147.55,147.55,0,0,1,12.68-7.9A148.39,148.39,0,0,0,72.51,31.39h0a86.49,86.49,0,0,0-38,36.53V68A148.14,148.14,0,0,0,48.77,109.27Z"/><path class="cls-17" d="M122.66,53.29a147.5,147.5,0,0,0-12.76-7.76,147.55,147.55,0,0,0-12.68,7.9A150.1,150.1,0,0,0,55.81,96.78q-3.81,6.06-7,12.49,3.3,6.33,7.18,12.3a150.2,150.2,0,0,0,42.26,42.87q6,4,12.42,7.48,6.36-3.51,12.32-7.6a150.39,150.39,0,0,0,41.74-43.22q3.83-6,7.08-12.41-3.32-6.43-7.23-12.51A150.23,150.23,0,0,0,122.66,53.29Z"/></g></g></svg>