<?xml version="1.0" encoding="UTF-8"?> <svg xmlns="http://www.w3.org/2000/svg" xmlns:xlink="http://www.w3.org/1999/xlink" width="451px" height="390px" viewBox="0 0 451 390"> <!-- Generator: Sketch 63.1 (92452) - https://sketch.com --> <title>Logo_Intellect_MAIN</title> <desc>Created with Sketch.</desc> <g id="Page-1" stroke="none" stroke-width="1" fill="none" fill-rule="evenodd"> <g id="Desktop-HD-Copy-8" transform="translate(-804.000000, -177.000000)"> <g id="Logo_Intellect_MAIN" transform="translate(804.000000, 177.000000)"> <g id="Group"> <path d="M9.53669913,340.357394 L40.822561,348.43662 C46.7458346,349.947183 51.4112701,342.852113 51.4112701,332.621479 L51.4112701,274.533451 C51.4112701,264.302817 46.7687044,255.422535 40.8454308,254.827465 L9.39948044,251.669014 C4.18517012,251.142606 0.11434891,258.397887 0.11434891,267.758803 L0.11434891,320.903169 C0.11434891,330.264085 4.32238882,339.007042 9.53669913,340.357394 Z" id="Path" fill="#67B0EC"></path> <path d="M72.7259071,356.47007 L112.359239,366.517606 C119.769049,368.417254 126.378416,360.635563 126.378416,349.169014 L126.378416,284.100352 C126.378416,272.633803 119.700439,262.632042 112.26776,261.899648 L72.9546049,257.985915 C66.5053263,257.34507 61.2452764,265.309859 61.2452764,275.700704 L61.2452764,334.635563 C61.2681462,345.026408 66.2766285,354.822183 72.7259071,356.47007 Z" id="Path" fill="#67B0EC"></path> <path d="M151.10065,376.633803 L201.345562,389.427817 C210.90513,391.876761 219.115382,383.271127 219.115382,370.225352 L219.115382,296.253521 C219.115382,283.230634 210.99661,271.764085 201.437041,270.802817 L151.14639,265.81338 C143.004747,265.012324 136.235292,273.892606 136.235292,285.542254 L136.235292,351.68662 C136.258162,363.359155 142.959008,374.551056 151.10065,376.633803 Z" id="Path" fill="#67B0EC"></path> <path d="M9.53669913,239.355634 L40.822561,241.827465 C46.7458346,242.285211 51.4112701,234.297535 51.4112701,224.066901 L51.4112701,165.978873 C51.4112701,155.748239 46.7687044,147.760563 40.8454308,148.21831 L9.39948044,150.690141 C4.18517012,151.102113 0.11434891,159.089789 0.11434891,168.450704 L0.11434891,221.59507 C0.11434891,230.978873 4.32238882,238.966549 9.53669913,239.355634 Z" id="Path" fill="#67B0EC"></path> <path d="M72.7259071,244.299296 L112.359239,247.366197 C119.769049,247.93838 126.378416,239.058099 126.378416,227.591549 L126.378416,162.5 C126.378416,151.033451 119.700439,142.130282 112.26776,142.702465 L72.9546049,145.769366 C66.5053263,146.272887 61.2452764,155.176056 61.2452764,165.544014 L61.2452764,224.478873 C61.2681462,234.892606 66.2766285,243.795775 72.7259071,244.299296 Z" id="Path" fill="#113765"></path> <path d="M151.10065,250.433099 L201.345562,254.346831 C210.90513,255.079225 219.115382,245.054577 219.115382,232.03169 L219.115382,158.059859 C219.115382,145.036972 210.99661,134.989437 201.437041,135.744718 L151.14639,139.658451 C143.004747,140.299296 136.235292,150.346831 136.235292,161.973592 L136.235292,228.117958 C136.258162,239.767606 142.959008,249.815141 151.10065,250.433099 Z" id="Path" fill="#67B0EC"></path> <path d="M9.53669913,138.399648 L40.822561,135.241197 C46.7458346,134.646127 51.4112701,125.788732 51.4112701,115.558099 L51.4112701,57.4700704 C51.4112701,47.2394366 46.7687044,40.1214789 40.8454308,41.6320423 L9.39948044,49.7112676 C4.18517012,51.0616197 0.11434891,59.7816901 0.11434891,69.1426056 L0.11434891,122.286972 C0.11434891,131.670775 4.32238882,138.903169 9.53669913,138.399648 Z" id="Path" fill="#67B0EC"></path> <path d="M72.7259071,132.105634 L112.359239,128.191901 C119.769049,127.459507 126.378416,117.457746 126.378416,105.991197 L126.378416,40.9225352 C126.378416,29.4559859 119.700439,21.6742958 112.26776,23.5510563 L72.9546049,33.5985915 C66.5053263,35.2464789 61.2452764,45.0651408 61.2452764,55.4559859 L61.2452764,114.390845 C61.2681462,124.758803 66.2766285,132.746479 72.7259071,132.105634 Z" id="Path" fill="#67B0EC"></path> <path d="M151.10065,124.232394 L201.345562,119.242958 C210.90513,118.28169 219.115382,106.838028 219.115382,93.7922535 L219.115382,19.8204225 C219.115382,6.79753521 210.99661,-1.83098592 201.437041,0.617957746 L151.14639,13.4119718 C143.004747,15.4947183 136.235292,26.709507 136.235292,38.3591549 L136.235292,104.480634 C136.258162,116.176056 142.959008,125.056338 151.10065,124.232394 Z" id="Path" fill="#67B0EC"></path> <path d="M435.394912,263.822183 C442.827591,262.723592 449.757135,267.827465 450.969233,275.22007 L450.969233,267.78169 C450.969233,258.420775 446.921282,251.165493 441.684102,251.691901 L410.238151,254.850352 C404.314878,255.445423 399.672312,264.302817 399.672312,274.556338 L399.672312,275.586268 L424.783333,271.901408 C426.635785,267.690141 430.523648,264.508803 435.394912,263.822183 Z" id="Path" fill="#1A3762"></path> <path d="M439.374254,291.103873 C434.52586,291.81338 429.883294,289.890845 426.910222,286.411972 L399.672312,290.417254 L399.672312,332.621479 C399.672312,342.852113 404.314878,349.947183 410.261021,348.43662 L441.546883,340.357394 C446.761193,339.02993 450.992103,330.286972 450.992103,320.926056 L450.992103,279.751761 C450.008702,285.496479 445.457616,290.211268 439.374254,291.103873 Z" id="Path" fill="#1A3762"></path> <path d="M389.792566,277.028169 L389.792566,275.700704 C389.792566,265.309859 384.532516,257.34507 378.083238,257.985915 L338.770082,261.899648 C331.337403,262.632042 324.659427,272.633803 324.659427,284.100352 L324.659427,325.274648 L387.093932,277.417254 L389.792566,277.028169 Z" id="Path" fill="#1A3762"></path> <path d="M324.682296,341.570423 L324.682296,349.191901 C324.682296,360.658451 331.291663,368.440141 338.701473,366.540493 L378.334805,356.492958 C384.784084,354.84507 389.792566,345.026408 389.792566,334.635563 L389.792566,293.850352 L328.615899,340.746479 L324.682296,341.570423 Z" id="Path" fill="#1A3762"></path> <path d="M248.434443,363.748239 C240.978894,365.28169 233.706303,360.452465 232.174028,352.991197 C232.082549,352.487676 231.99107,351.961268 231.94533,351.457746 L231.94533,370.248239 C231.94533,383.271127 240.155582,391.899648 249.715151,389.450704 L299.960062,376.633803 C308.101704,374.551056 314.82542,363.359155 314.82542,351.709507 L314.82542,343.584507 L258.565756,355.096831 C256.942002,359.353873 253.237097,362.764085 248.434443,363.748239 Z" id="Path" fill="#1A3762"></path> <path d="M242.922825,336.71831 C247.72548,335.734155 252.459525,337.40493 255.638424,340.700704 L314.84829,328.59331 L314.84829,285.542254 C314.84829,273.892606 308.078835,265.012324 299.914322,265.81338 L249.646541,270.802817 C240.086972,271.764085 231.9682,283.207746 231.9682,296.253521 L231.9682,348.940141 C232.494205,343.058099 236.816594,337.977113 242.922825,336.71831 Z" id="Path" fill="#1A3762"></path> <path d="M437.155885,181.336268 C444.794392,181.336268 450.923494,187.538732 450.832014,195.160211 C450.763405,202.78169 444.519955,208.93838 436.927187,208.93838 C432.010184,208.93838 427.733534,206.352113 425.309338,202.484155 L399.649442,202.461268 L399.649442,224.112676 C399.649442,234.34331 404.292008,242.330986 410.238151,241.873239 L441.524013,239.401408 C446.738323,238.989437 450.969233,231.001761 450.969233,221.640845 L450.969233,168.496479 C450.969233,159.135563 446.921282,151.147887 441.684102,150.735915 L410.238151,148.264085 C404.314878,147.806338 399.672312,155.771127 399.672312,166.024648 L399.672312,187.790493 L425.446556,187.81338 C427.916493,183.922535 432.238882,181.336268 437.155885,181.336268 Z" id="Path" fill="#1A3762"></path> <path d="M389.792566,165.566901 C389.792566,155.198944 384.532516,146.272887 378.083238,145.792254 L338.770082,142.725352 C331.337403,142.153169 324.659427,151.033451 324.659427,162.522887 L324.659427,187.721831 L389.769696,187.767606 L389.769696,165.566901 L389.792566,165.566901 Z" id="Path" fill="#1A3762"></path> <path d="M324.682296,227.568662 C324.682296,239.035211 331.291663,247.93838 338.701473,247.34331 L378.334805,244.276408 C384.784084,243.772887 389.792566,234.869718 389.792566,224.478873 L389.792566,202.392606 L324.682296,202.346831 L324.682296,227.568662 L324.682296,227.568662 Z" id="Path" fill="#1A3762"></path> <path d="M245.484241,181.176056 C250.401244,181.176056 254.723633,183.762324 257.193569,187.653169 L314.82542,187.698944 L314.82542,161.973592 C314.82542,150.323944 308.055965,140.276408 299.891453,139.658451 L249.623672,135.744718 C240.064103,134.989437 231.94533,145.036972 231.94533,158.059859 L231.94533,192.734155 C232.97447,186.165493 238.623306,181.153169 245.484241,181.176056 Z" id="Path" fill="#1A3762"></path> <path d="M245.644329,208.755282 C238.737655,208.755282 232.97447,203.628521 231.94533,196.991197 L231.94533,232.03169 C231.94533,245.054577 240.155582,255.102113 249.715151,254.346831 L299.960062,250.433099 C308.101704,249.792254 314.82542,239.744718 314.82542,228.09507 L314.82542,202.346831 L257.262179,202.301056 C254.860852,206.169014 250.561333,208.755282 245.644329,208.755282 Z" id="Path" fill="#1A3762"></path> <path d="M439.259905,97.3626761 C445.389006,98.209507 450.008702,102.992958 450.969233,108.806338 L450.969233,69.165493 C450.969233,59.8045775 446.921282,51.0616197 441.684102,49.7341549 L410.238151,41.6549296 C404.314878,40.1443662 399.672312,47.2394366 399.672312,57.4929577 L399.672312,98.4383803 L426.841613,102.214789 C429.768945,98.6672535 434.388641,96.6989437 439.259905,97.3626761 Z" id="Path" fill="#1A3762"></path> <path d="M435.486391,124.690141 C430.615127,124.026408 426.704394,120.867958 424.829072,116.702465 L399.672312,113.223592 L399.672312,115.558099 C399.672312,125.788732 404.314878,134.646127 410.261021,135.241197 L441.546883,138.399648 C446.761193,138.926056 450.992103,131.670775 450.992103,122.309859 L450.992103,113.177817 C449.802874,120.59331 442.91907,125.72007 435.486391,124.690141 Z" id="Path" fill="#1A3762"></path> <path d="M324.682296,64.2447183 L324.682296,105.96831 C324.682296,117.434859 331.291663,127.43662 338.701473,128.169014 L378.334805,132.082746 C384.784084,132.723592 389.792566,124.735915 389.792566,114.367958 L389.792566,111.827465 L386.933843,111.43838 L324.682296,64.2447183 Z" id="Path" fill="#1A3762"></path> <path d="M389.792566,95.2112676 L389.792566,55.4559859 C389.792566,45.0651408 384.532516,35.2464789 378.083238,33.5985915 L338.770082,23.5510563 C331.337403,21.6514085 324.659427,29.4559859 324.659427,40.9225352 L324.659427,47.8802817 L328.272852,48.5897887 L389.792566,95.2112676 Z" id="Path" fill="#1A3762"></path> <path d="M248.342964,26.3204225 C253.168488,27.2588028 256.896262,30.6232394 258.542887,34.903169 L314.82542,45.9577465 L314.82542,38.4049296 C314.82542,26.7552817 308.055965,15.540493 299.891453,13.4577465 L249.623672,0.663732394 C240.064103,-1.78521127 231.94533,6.82042254 231.94533,19.8661972 L231.94533,39.0457746 C231.99107,38.4507042 232.036809,37.8327465 232.174028,37.2376761 C233.637694,29.7306338 240.864545,24.8556338 248.342964,26.3204225 Z" id="Path" fill="#1A3762"></path> <path d="M243.037174,53.3732394 C236.725114,52.1373239 232.311247,46.7816901 231.94533,40.6707746 L231.94533,93.7922535 C231.94533,106.815141 240.155582,118.28169 249.715151,119.242958 L299.960062,124.232394 C308.101704,125.056338 314.82542,116.153169 314.82542,104.503521 L314.82542,60.8802817 L255.707034,49.2764085 C252.573873,52.6179577 247.862698,54.334507 243.037174,53.3732394 Z" id="Path" fill="#1A3762"></path> </g> </g> </g> </g> </svg> 