<svg xmlns="http://www.w3.org/2000/svg" role="img" viewBox="-5.56 -5.56 289.38 106.88"><style>svg {enable-background:new 0 0 278.4 95.9}</style><path d="M0 72V24C13.7 16 27.5 8 41.4 0c13.8 8 27.5 15.9 41.3 23.9V72c-13.6 7.9-27.4 15.9-41.3 23.9C27.6 88 13.8 80 0 72zm42-1.5c-10.5-6-20.8-11.9-31.2-17.8-.4-.2-.7-.4-1.1-.5-.1 0-.2 0-.2.1-.1 0-.1.1-.4.2v8.8C19.9 67.4 30.9 73.7 41.9 80c1.5-.9 3-1.7 4.5-2.6 1.5-.9 3-1.7 4.5-2.6 1.5-.9 3-1.7 4.5-2.6 1.6-.9 3.2-1.8 4.7-2.7 1.5-.9 3-1.7 4.5-2.6 1.5-.9 3-1.7 4.5-2.6 1.4-.9 3.1-1.4 4.3-2.9-6.1-3.5-11.9-6.9-18-10.4 1.2-.8 2.2-1.4 3.5-2.3-2.8-1.6-5.2-3-7.5-4.3-1.4.7-2.6 1.3-3.8 2-1.5-.9-3-1.7-4.6-2.7l4.2-2.8c-2.8-1.6-5.2-3-7.6-4.3-1.7 1-3.2 1.8-4.6 2.6-2.8-1.6-5.5-3.2-8.4-4.9 5.4-3.1 10.4-6 15.4-8.9 7.4 4.2 14.5 8.3 21.8 12.5 2.7-1.6 5.3-3.1 8.3-4.8-10.3-6-20.2-11.6-30.1-17.3-10.5 6.1-21 12.1-31.9 18.4 5.8 3.4 11.1 6.5 16.6 9.7-1.1.7-1.8 1.3-2.8 2 2.7 1.6 5.2 2.9 7.5 4.3 1.2-.7 2.2-1.2 3.2-1.7 1.5.9 3 1.7 4.7 2.8-1.4.9-2.4 1.5-3.8 2.4 2.8 1.6 5.2 3 7.6 4.3 1.5-.8 2.8-1.5 4.1-2.2 3.4 2 6.7 3.9 10.1 5.9-5.2 3-10.2 5.9-15.3 8.8zm113.4-19.4V28.5c0-1 .1-2 .4-3 .9-3 3.3-4.9 6.5-5.1 1.7-.1 3.4-.1 5.2 0 3.7.2 6.5 3 6.8 6.8.1.7 0 1.4 0 2.1v43.2c0 .8 0 1.6-.1 2.4-.3 3.6-3.2 6.4-6.8 6.6-1.4.1-2.9.1-4.3 0-4.6-.1-7.6-3.1-7.7-7.7V58.1v-7zm12.9-.3v-.9-20.6c0-2.4-1.3-3.7-3.5-3.7s-3.5 1.4-3.6 3.7v43.6c.2 1.9 1.6 3.2 3.6 3.2s3.3-1.2 3.5-3.3v-1.7-20.3zm44.4 11.8v9.2c0 .8.1 1.6.3 2.3.5 1.4 1.7 2.2 3.1 2.1 1.3-.1 2.4-1 2.7-2.4.1-.6.1-1.3.2-1.9.5-5.7-.6-11.1-3.6-16.1-2.1-3.6-3.8-7.5-5.8-11.3-1.9-3.7-3-7.5-2.9-11.7.1-1.4 0-2.9 0-4.3.1-2.1.7-4.1 2.1-5.7 1.2-1.3 2.6-2.2 4.4-2.3 1.6-.1 3.3-.1 4.9 0 3 .2 5.7 2.7 6.3 5.9.3 1.7.2 3.4.2 5.1 0 1.2-.7 2-1.7 2.6-1.2.6-2.4 1.2-3.9 1.9-.1-.8-.1-1.4-.2-2 0-1.6 0-3.3-.1-4.9-.1-1.9-1.5-3.2-3.1-3.2-1.5 0-3 1.3-3.1 3-.3 4.3-.3 8.6 1.7 12.6 2 3.9 3.9 7.8 5.9 11.7 1.1 2.2 2.3 4.3 3.1 6.6.7 1.9 1.2 3.9 1.3 5.8.2 2.9.1 5.9 0 8.8-.1 1.2-.4 2.4-.9 3.5-1.2 2.4-3.2 3.6-5.8 3.8-1.1.1-2.2 0-3.2 0-3.7.3-7.5-2.2-8-7.3-.2-2.2-.1-4.4 0-6.7.1-1.6.8-2.9 2.4-3.5 1.2-.5 2.3-1 3.7-1.6zm54.9 18.5c-2-.3-3.9.5-5.7-.9V27h-8.1c0-1.7-.1-3.2 0-4.6 0-.8.6-1.3 1.4-1.4H277.1c.4 0 .8.1 1.4.1-.4 1.8-1 3.4-2 4.7-.4.6-1.4 1-2.2 1.1-1.3.2-2.6.1-3.9.1-2.4 0-2.7.3-2.7 2.8V78.7c0 .8-.1 1.5-.1 2.4zM114.9 21c1.4 0 2.6-.1 3.9 0 1 .1 1.6.7 1.8 1.8.1.6.1 1.3.1 1.9v54.1c0 .6-.1 1.3-.1 2.1-1.4 0-2.8.1-4.1 0-1.1-.1-1.5-.5-1.6-1.6V78 23c-.1-.6-.1-1.2 0-2z"/></svg>