<?xml version="1.0" encoding="UTF-8"?> <!-- Generator: Adobe Illustrator 24.1.3, SVG Export Plug-In . SVG Version: 6.00 Build 0) --> <svg xmlns="http://www.w3.org/2000/svg" xmlns:xlink="http://www.w3.org/1999/xlink" version="1.1" id="Layer_1" x="0px" y="0px" viewBox="0 0 400 245" style="enable-background:new 0 0 400 245;" xml:space="preserve"> <style type="text/css"> .st0{fill:#F09485;} .st1{fill:#F2B26B;} .st2{fill:#72C389;} .st3{fill:#8D845D;} .st4{fill:#EC703C;} .st5{fill:#60C1D1;} .st6{fill:#7B8E72;} .st7{fill:#8C6844;} .st8{fill:#8C9458;} .st9{fill:#4A8255;} .st10{fill:#BD5F77;} .st11{fill:#C193C2;} .st12{fill:#23AC7E;} .st13{fill:#BE4E4A;} .st14{fill:#BE706C;} .st15{fill:#42746B;} .st16{fill:#647DA6;} .st17{fill:#768278;} .st18{fill:#6D5C6F;} .st19{fill:#324259;} .st20{fill:#7C7E79;} </style> <path class="st0" d="M71.7,58.4c2.8,1,5.4,2.8,7.3,5.1c0.2,0.2,0.5,0.8,0.9,0.7l-0.2,0.2c-2.2,1.3-4.1,3-5.6,5.1 c-1.1,1.6-2.3,3-3.7,4.4c-1.1,1-2.3,2-3.6,2.8h-0.3c-0.8-0.8-1.8-1.2-2.5-2c-1.7-1.4-3.2-2.9-4.7-4.5c-1.1-1.4-2.3-2.7-3.7-3.9 c-0.5-0.4-1.1-0.8-1.7-1.1v-0.2c0.3-0.4,0.6-0.9,0.9-1.3c1.4-2.1,3.4-3.7,5.7-4.7C64,57.3,68,57.1,71.7,58.4z"></path> <path class="st1" d="M43.7,62c1.3-0.1,2.5,0,3.8,0.2c2.3,0.4,4.4,1.3,6.3,2.6V65c-1.2,2.2-1.7,4.7-1.6,7.1c0.1,2.8,1.1,5.6,2.8,7.8 c0.1,0.2,0.2,0.4,0.3,0.6c-2.3,0.4-4.7,0.9-7,1.3c-0.8,0.2-1.6,0.4-2.4,0.5c-4.3-3.8-9.6-6.4-15.2-7.3c0.4-1.2,0.8-2.5,1.3-3.7 c0.8-1.9,1.8-3.5,3.2-5C37.5,63.9,40.5,62.4,43.7,62z"></path> <path class="st2" d="M88.9,62.1c2.8,0.4,5.4,1.6,7.5,3.4c2.5,2.4,4.1,5.6,4.6,9c-0.8,0.2-1.7,0.3-2.5,0.3c-1.6,0.4-3.2,0.6-4.9,0.8 c-1.8-0.1-3.5-0.5-5.1-1.3c-1.2-0.6-2.4-1.4-3.4-2.3c-1-1.2-1.9-2.4-2.6-3.8c-0.8-1.3-1.7-2.6-2.6-3.9l0.2-0.2 C82.7,62.5,85.8,61.8,88.9,62.1L88.9,62.1z"></path> <path class="st3" d="M79.7,64.3c0.9,1.2,1.8,2.5,2.6,3.9c0.7,1.4,1.6,2.7,2.7,3.8c1.1,0.9,2.2,1.7,3.5,2.3c1.6,0.8,3.3,1.2,5.1,1.3 c1.6-0.1,3.3-0.4,4.9-0.8c0.8,0,1.7-0.1,2.5-0.3c0,0.7,0.1,1.5,0.2,2.2c0.2,2.3,0.1,4.7-0.3,7c-0.4,2.6-1.2,5.2-2.3,7.6 c-0.9-0.9-1.6-2-2.5-2.9c-2.2-2.1-4.7-3.7-7.6-4.7c-3.7-1.4-7.7-2.1-11.5-3c-1.7-0.4-3.4-1-5-1.6c-1.8-0.7-3.6-1.5-5.2-2.6 c1.3-0.8,2.5-1.7,3.6-2.8c1.3-1.3,2.6-2.8,3.7-4.4C75.7,67.4,77.6,65.6,79.7,64.3z"></path> <path class="st4" d="M53.8,65c0.6,0.3,1.2,0.7,1.7,1.1c1.4,1.1,2.6,2.4,3.7,3.9c1.5,1.6,3.1,3.1,4.8,4.6c0.8,0.7,1.8,1.2,2.6,2 c-1.3,0.9-2.7,1.6-4.2,2.1c-1.2,0.4-2.5,0.8-3.7,1.1c-1,0.3-2.1,0.3-3.1,0.7h-0.1c-0.1-0.2-0.2-0.4-0.3-0.6c-1.7-2.2-2.7-5-2.8-7.8 C52.1,69.7,52.7,67.2,53.8,65z"></path> <path class="st0" d="M101,74.5c2.8-0.2,5.5,0.2,8.2,1c5.7,1.9,9.5,7.5,9.2,13.5c0,1.5-0.2,2.9-0.6,4.3l-0.1,0.1 c-1.1-0.2-2.1-0.3-3.2-0.2c-0.5,0-1,0-1.5,0.1c-3.1,0.5-6,2.1-8.1,4.5c-0.5,0.6-1,1.2-1.5,1.9c-1.4-2.8-3-5.4-4.7-8v-0.3 c1.1-2.4,1.8-5,2.3-7.6c0.3-2.3,0.4-4.7,0.3-7C101.1,76,101,75.3,101,74.5z"></path> <path class="st5" d="M27,74.8c1-0.1,2.1-0.1,3.1,0.1c0.5,0,0.5,0.4,0.5,0.8c-0.4,1.8-0.6,3.6-0.9,5.5c-0.4,2.1-1.4,4-3,5.4 c-0.9,1.1-2,2-3.2,2.6c-0.9,0.6-1.9,1-2.9,1.2c-1.2,0.3-2.4,0.6-3.6,0.9c-0.7,0.2-1.5,0.5-2.2,0.7l-0.5-0.2 c-0.3-1.7-0.4-3.4-0.3-5.1c0.2-1.6,0.7-3.1,1.4-4.5c1-2,2.5-3.7,4.4-4.9C21.9,75.7,24.4,74.9,27,74.8z"></path> <path class="st6" d="M30.7,75c5.7,0.9,11,3.5,15.3,7.3v0.2c-2.8,0.8-5.4,2.2-7.5,4.2c-1.1,1.3-2.4,2.3-3.4,3.7c-1,1.4-1.9,2.6-2.7,4 c-1.4,2.4-2.9,4.8-4.4,7.1c-1.7,2.5-3.6,4.7-5.9,6.6c-0.8-3.2-2.3-6.3-4.4-8.9c-1.5-2.1-2.7-4.5-3.3-7.1l-0.1-0.3l0.5,0.2 c0.8-0.2,1.5-0.4,2.2-0.7c1.2-0.3,2.4-0.5,3.6-0.9c1-0.2,2-0.6,2.9-1.2c1.2-0.6,2.3-1.5,3.2-2.6c1.6-1.5,2.6-3.4,3-5.4 c0.3-1.8,0.5-3.7,0.9-5.5C30.7,75.4,30.7,75.2,30.7,75z"></path> <path class="st7" d="M66.5,76.5h0.3c1.6,1.1,3.4,2,5.2,2.6c1.6,0.6,3.3,1.2,5,1.6c3.8,1,7.8,1.6,11.5,3c2.8,1,5.4,2.6,7.6,4.7 c0.9,0.9,1.6,2,2.5,2.9v0.3c-0.5,0.7-0.8,1.6-1.3,2.3c-0.7,1.3-1.6,2.6-2.5,3.8c-1.1,1.5-2.4,3-3.8,4.3c-0.4,0.4-0.9,0.7-1.4,1 c-0.6,0.5-0.8,1-1.6,1.2c-0.8-3.1-2.3-5.9-4.4-8.4c-3.2-3.6-7.4-6.3-12-7.6c-1.6-0.5-3.2-0.9-4.9-1.1c-2.9-0.7-5.7-1.9-8-3.7 c-1.2-0.9-2.2-1.9-3.2-3c1-0.4,2.1-0.4,3.1-0.7c1.3-0.3,2.5-0.7,3.7-1.1C63.8,78.1,65.2,77.4,66.5,76.5z"></path> <path class="st8" d="M55.4,80.5L55.4,80.5c1,1.1,2.1,2.1,3.2,3c2.4,1.8,5.1,3,8.1,3.7c1.7,0.3,3.3,0.6,4.9,1.1c4.6,1.3,8.8,4,12,7.6 c2,2.4,3.5,5.3,4.4,8.3v0.1c-1.2,0.7-2.4,1.5-3.6,2.1c-1.9,1-3.8,1.9-5.9,2.4c-0.7,0.1-1.4,0.3-2.1,0.5h-0.1c-0.4-1.6-1.7-3-2.7-4.3 c-1.4-1.6-3.1-3-4.9-4.2c-0.8-0.5-1.7-0.8-2.5-1.3c-0.8-0.4-1.6-0.7-2.4-1c-1.3-0.6-2.7-1-4.2-1.3c-1.5-0.4-3-0.7-4.5-0.8 c-1.5-5.1-4.2-9.8-8-13.5c-0.3-0.3-0.6-0.5-1-0.6v-0.2c0.8-0.1,1.6-0.2,2.4-0.5C50.7,81.4,53,80.9,55.4,80.5z"></path> <path class="st9" d="M46,82.5c0.4,0.1,0.7,0.3,1,0.6c3.8,3.7,6.5,8.4,8,13.5c-1.3,0-2.5,0-3.8,0.1c-2.9,0.3-5.7,1.3-8.2,2.8 c-1.1,0.6-2.1,1.3-3.1,2.1c-1.3,1.2-2.6,2.4-3.8,3.8c-1.4,1.8-2.6,3.7-3.7,5.7c-1,1.8-2.3,3.5-3.8,4.9c-1.8,1.9-3.9,3.3-6.3,4.2 c0.2-2.2,0.3-4.3,0.3-6.5c0-1.3-0.1-2.5-0.3-3.8c-0.1-0.5-0.2-1-0.3-1.6c2.2-1.9,4.2-4.2,5.9-6.6c1.6-2.3,3-4.7,4.4-7.1 c0.8-1.4,1.8-2.7,2.7-4c0.9-1.3,2.3-2.4,3.4-3.7C40.6,84.7,43.2,83.3,46,82.5z"></path> <path class="st4" d="M98.7,91.7c1.7,2.6,3.3,5.2,4.7,8v0.1c-0.8,1.1-1.4,2.4-1.8,3.6c-1,2.9-1.3,6-1,9.1c0,1.1,0.4,2.2,0.3,3.4 c0,1.1,0,2.5,0,3.8c-0.2,5.6-2.3,10.9-6.1,15c-1.2,1.2-2.5,2.3-3.9,3.2h-0.1c-0.6-0.6-1.3-1-1.8-1.6c-1.9-1.7-3.6-3.5-5.1-5.6 c-0.5-0.8-1-1.6-1.4-2.4c2.2-2,3.9-4.5,4.8-7.4c1.7-5.4,1.9-11.1,0.7-16.6v-0.1c0.8-0.2,1-0.7,1.6-1.2c0.5-0.3,1-0.6,1.5-1.1 c1.4-1.3,2.7-2.8,3.9-4.3c0.9-1.2,1.8-2.4,2.5-3.8C97.9,93.2,98.2,92.4,98.7,91.7z"></path> <path class="st1" d="M14.5,92.1c0.7,2.5,1.8,5,3.3,7.1c2,2.7,3.5,5.7,4.4,8.9c-2.8,2.4-6.1,4.2-9.6,5.5c-1.9,0.8-3.7,1.8-5.4,3 c-0.7-0.3-1-0.9-1.5-1.4c-1.4-2-2.2-4.3-2.5-6.7c-0.1-1.6,0-3.3,0.4-4.9c0.5-1.7,1.2-3.3,2.1-4.8c1.5-2.3,3.5-4.2,5.8-5.5 C12.4,92.8,13.4,92.4,14.5,92.1z"></path> <path class="st10" d="M112.9,93.3c0.5-0.1,1-0.1,1.5-0.1c1.1-0.1,2.2,0,3.2,0.2c-0.7,2.2-1.6,4.3-2.8,6.2c-1.7,2.6-3,5.4-3.8,8.4 c-0.2,0.5-0.3,1-0.3,1.5l-0.2,0.3c0-0.2-0.1-0.4-0.1-0.6c-1.6-1.4-3-2.9-4.2-4.7c-0.4-0.5-0.5-1-0.9-1.5c-0.8-0.9-1.2-2.1-1.9-3 v-0.2c0.5-0.6,0.9-1.3,1.5-1.9C107,95.4,109.8,93.9,112.9,93.3z"></path> <path class="st11" d="M117.7,93.4l0.1-0.1c2.6,0.5,5,1.7,7,3.6c2.5,2.5,4.1,5.8,4.5,9.3c0.4,3.9-0.5,7.7-2.6,11 c-0.1,0.2-0.2,0.4-0.2,0.7l-0.1-0.1c-0.1-0.2-0.3-0.4-0.5-0.5c-0.7-0.4-1.3-1-2.1-1.4c-1.5-1-3.1-1.7-4.8-2.2 c-2.1-0.7-4.1-1.6-6-2.9c-0.8-0.4-1.2-1.2-2.1-1.5c0-0.5,0.1-1,0.3-1.4c0.9-2.9,2.2-5.8,3.9-8.3C116.1,97.7,117,95.6,117.7,93.4z"></path> <path class="st12" d="M51.3,96.7c1.2-0.1,2.5-0.1,3.8-0.1c0.7,2.5,1.2,5,1.4,7.5c0.1,1.7,0,3.4-0.3,5.1c-2,0.2-4,0.8-5.9,1.7 c-3.1,1.7-5.8,4-7.9,6.8c-1.3,1.5-2.4,3.1-3.4,4.8c-0.5,1-1,2-1.3,3l-0.1,0.2l-0.3-0.2c-3.5-0.1-7,0.4-10.4,1.6 c-1.9,0.6-3.8,1.4-5.5,2.4c0.1-1,0.1-2,0.3-3c0.2-2.1,0.6-4.2,0.8-6.3v-0.1c2.4-0.9,4.6-2.3,6.3-4.2c1.5-1.4,2.8-3.1,3.8-4.9 c1-2,2.3-3.9,3.7-5.7c1.2-1.3,2.5-2.6,3.8-3.8c1-0.8,2-1.5,3.1-2.1C45.5,97.9,48.4,97,51.3,96.7z"></path> <path class="st2" d="M55,96.6c1.5,0.1,3,0.3,4.5,0.8c1.4,0.2,2.8,0.6,4.2,1.3c0.8,0.3,1.6,0.6,2.4,1c0.8,0.5,1.7,0.8,2.5,1.3 c1.8,1.1,3.5,2.5,5,4.1c1,1.3,2.3,2.7,2.7,4.3c-3.5,0.6-7.1,0.6-10.6,0.1c-2.9-0.1-6.3-0.6-9.2-0.2c-0.1,0.1-0.1,0.3-0.2,0.4 l-0.1-0.4c0.3-1.7,0.4-3.4,0.3-5.1C56.2,101.6,55.7,99.1,55,96.6z"></path> <path class="st13" d="M103.4,99.8c0.7,1,1.2,2.1,1.9,3c0.4,0.5,0.5,1,0.9,1.5c1.2,1.7,2.6,3.3,4.2,4.7c0.1,0.2,0.1,0.4,0.1,0.7 c-0.3,1.5-0.6,2.9-0.7,4.4c-0.1,1.9,0,3.9,0,5.8c0.2,2,0.3,4,0.5,6c0.1,0.6,0.1,1.2,0.1,1.8c0.2,1.9,0.2,3.9,0,5.8 c-0.2,3.9-1.7,7.7-4.2,10.7c-1.5-0.1-2.9-0.4-4.4-0.8c-1.8-0.3-3.4-1.3-5.1-1.8c-1.4-0.8-2.9-1.6-4.3-2.6c-0.6-0.3-1.1-0.7-1.7-1.1 c1.4-0.9,2.7-2,3.9-3.2c3.8-4.1,6-9.4,6.1-15c0-1.3,0-2.5,0-3.8c0-1.3-0.3-2.2-0.3-3.4c-0.3-3.1,0-6.2,1-9.1 C102,102.1,102.6,100.9,103.4,99.8z"></path> <path class="st1" d="M87.9,104.3c1.3,5.5,1,11.3-0.7,16.7c-1,2.8-2.6,5.4-4.8,7.4h-0.1c-0.8-1.5-1.4-3.1-1.9-4.7 c-1.2-3.6-1.8-7.4-2.9-11.1c-0.3-1.1-0.8-2.1-1.1-3.2c0.7-0.2,1.4-0.3,2.1-0.5c2.1-0.6,4-1.4,5.9-2.4 C85.6,105.9,86.7,105,87.9,104.3z"></path> <path class="st8" d="M22.1,108.1c0.1,0.5,0.1,1,0.3,1.6c0.2,1.2,0.3,2.5,0.3,3.8c0,2.2-0.1,4.4-0.3,6.5v0.1 c-1.6,0.6-3.2,0.9-4.9,0.9c-3.9,0.1-7.7-1.4-10.4-4.3l0.1-0.1c1.7-1.2,3.5-2.2,5.4-3C16.1,112.4,19.3,110.5,22.1,108.1z"></path> <path class="st5" d="M56.2,109.3l0.1,0.4c-1.1,6.7-4.7,11.8-6.3,18.5c-0.4-0.1-0.8-0.2-1.2-0.4c-1.7-0.7-3.6-1.3-5.4-1.7 c-1.9-0.2-3.8-0.5-5.7-0.6c0.3-1,0.8-2,1.3-3c1-1.7,2.1-3.4,3.4-4.8c2.1-2.8,4.8-5.1,7.9-6.8C52.1,110,54.1,109.5,56.2,109.3z"></path> <path class="st14" d="M110.7,109.4c0.9,0.3,1.3,1.1,2.1,1.5c1.9,1.2,3.9,2.2,6,2.9c1.7,0.5,3.3,1.2,4.8,2.2c0.8,0.4,1.3,1,2.1,1.4 c0.2,0.1,0.4,0.3,0.5,0.5c-0.7,0.8-1.2,1.7-1.9,2.5s-1.5,1.7-2.2,2.5c-2,2.4-3,5.4-2.9,8.5c0,1.8,0.5,3.6,1.4,5.1 c0.9,1.5,1.7,3.1,2.3,4.8c-1.7,0.9-3.4,1.6-5.2,2.1c-1.6,0.4-3.2,0.7-4.8,0.9c-2.2,0.2-4.5,0.3-6.8,0.1c2.5-3,3.9-6.8,4.2-10.7 c0.2-1.9,0.2-3.9,0-5.8c0-0.6,0-1.2-0.1-1.8c-0.2-2-0.3-4-0.5-6c0-1.9-0.1-3.9,0-5.8c0.2-1.5,0.4-3,0.7-4.4L110.7,109.4z"></path> <path class="st2" d="M7.1,116.8c2.7,2.9,6.5,4.4,10.4,4.3c1.7,0,3.3-0.3,4.9-0.9c-0.2,2.1-0.6,4.2-0.8,6.3c-0.2,1-0.1,2-0.3,3 l-0.1,0.2c-4.6,2.7-8.5,6.5-11.1,11.1c-0.2,0.3-0.4,0.7-0.5,1.1l-0.3-0.2c-0.7-0.4-1.4-0.9-2-1.4c-2.8-2-4.8-4.9-5.8-8.2 c-0.4-1.4-0.6-2.8-0.5-4.2c0-0.6,0.2-1.2,0.2-1.8C1.9,122.4,4,119,7.1,116.8z"></path> <path class="st1" d="M126.3,117.8l0.1,0.1c2.7,2.2,4.5,5.4,4.9,8.9c0.2,1.6,0.2,3.2-0.2,4.7c-0.7,2.7-2.2,5.2-4.3,7 c-1.1,1-2.4,1.9-3.7,2.5H123c-0.6-1.6-1.4-3.2-2.3-4.8c-0.9-1.6-1.4-3.3-1.4-5.1c-0.1-3.1,0.9-6.1,2.9-8.5c0.7-0.8,1.5-1.6,2.2-2.5 C125.1,119.4,125.6,118.6,126.3,117.8z"></path> <path class="st15" d="M37.3,125.5l0.3,0.2c-0.5,1.3-0.9,2.6-1.2,4c-0.3,1.7-0.3,3.4-0.2,5.1c0.2,0.9,0.2,1.8,0.3,2.7 c0.8,3.2,2.1,6.3,3.9,9.1c0.8,1.2,1.7,2.4,2.8,3.5c0.3,0.4,0.6,0.8,1,1.2c1.4,1.5,2.7,3.2,3.6,5c1,1.9,1.6,4.1,1.8,6.2 c0.1,0.4,0.2,0.8,0.2,1.2c-1.4-0.4-2.7-1.1-4-1.5c-1.6-0.7-3.3-1.2-5.1-1.5c-0.7,0-1.6-0.4-2.3-0.1l-0.2-0.2 c-0.9-2.3-2.1-4.4-3.5-6.3c-3.3-4.6-7.4-8.2-10.4-13.1c-1.2-2-2.1-4.2-2.6-6.4c-0.2-1.6-0.4-3.1-0.5-4.7l0.1-0.2 c1.8-1,3.6-1.8,5.6-2.4C30.2,126,33.7,125.4,37.3,125.5z"></path> <path class="st16" d="M37.7,125.5c1.9,0,3.8,0.4,5.7,0.6c1.9,0.4,3.7,0.9,5.4,1.7c0.4,0.2,0.8,0.3,1.2,0.4l0.1,0.1 c-0.3,0.7-0.4,1.4-0.4,2.1c-0.2,2.5,0.1,5,0.9,7.4c1.1,2.9,2.6,5.7,4.4,8.2c1,1.4,2.2,2.7,3.4,3.9c0.4,0.4,0.8,0.7,1.2,1.1 c-0.4,1.6-0.9,3.1-1.2,4.6c-0.5,2.6-0.6,5.3-0.5,8c0.1,1.3,0.4,2.6,0.5,4c-2.9-1.1-5.7-2.5-8.5-3.9v-0.1c0-0.4-0.2-0.8-0.2-1.2 c-0.2-2.2-0.8-4.3-1.8-6.2c-1-1.8-2.2-3.5-3.6-5c-0.4-0.4-0.7-0.8-1-1.2c-1-1.1-1.9-2.2-2.8-3.5c-1.8-2.8-3.2-5.9-3.9-9.1 c-0.1-0.9-0.1-1.8-0.3-2.7c-0.1-1.7,0-3.4,0.2-5.1c0.3-1.4,0.7-2.7,1.2-4L37.7,125.5z"></path> <path class="st11" d="M50,128.3c4.2,1.9,7.9,5.6,11.4,8.5c1.5,1.3,3.1,2.4,4.8,3.3v0.1c-0.6,0.6-1.2,1.2-1.7,1.9 c-2.1,2.7-3.7,5.8-4.7,9l-0.1,0.1c-0.4-0.4-0.8-0.8-1.2-1.1c-1.2-1.2-2.4-2.5-3.4-4c-1.9-2.5-3.4-5.3-4.4-8.3 c-0.8-2.4-1.1-4.9-0.9-7.4C49.6,129.6,49.8,128.9,50,128.3z"></path> <path class="st0" d="M82.3,128.4h0.1c0.4,0.8,0.8,1.6,1.4,2.4c1.5,2.1,3.2,3.9,5.1,5.6c0.6,0.6,1.3,1,1.8,1.6 c-4,2.4-8.5,3.9-13.2,4.4c-3.9,0.5-7.9-0.3-11.4-2.2V140c2.7-2.6,5.8-4.9,9.1-6.6C77.8,132,80.1,130.3,82.3,128.4z"></path> <path class="st17" d="M21.2,129.7c0.2,1.6,0.3,3.1,0.5,4.7c0.5,2.3,1.4,4.4,2.6,6.4c3,4.9,7.2,8.5,10.4,13.1c1.4,2,2.6,4.2,3.5,6.4 c-0.8-0.1-1.6-0.1-2.4-0.1c-1.5,0.1-3,0.3-4.4,0.6c-2.3,0.5-4.3,1.4-6.7,1.7c-1.4,0.2-2.7,0.2-4.1,0.1h-0.1c0.2-1.2,0-2.4,0.1-3.7 c0.2-1.8,0.3-3.5,0.2-5.3c-0.3-2.4-1.3-4.7-2.9-6.5c-0.9-1.1-2-2-3.3-2.7c-1.7-0.7-3.4-1.6-5-2.6c0.1-0.4,0.3-0.8,0.5-1.1 C12.8,136.2,16.6,132.4,21.2,129.7z"></path> <path class="st10" d="M90.7,137.9L90.7,137.9c0.6,0.4,1.1,0.8,1.7,1.1c1.4,1,2.9,1.7,4.3,2.6c1.7,0.5,3.3,1.5,5.1,1.8 c1.4,0.4,2.9,0.7,4.4,0.8c-1.2,1.6-2.7,3-3.9,4.5c-0.8,0.8-1.6,1.6-2.4,2.5l-0.1,0.1c-1.4-0.5-3-0.8-4.5-0.7c-3.7,0-7.3,1-10.6,2.7 c-1.7,0.7-3.5,1.3-5.3,1.8c-3.3,0.7-6.7,0.9-10.1,0.4c-2.7-0.5-5.3-1.5-7.6-3.1c-0.7-0.5-1.5-1-2.1-1.5c1.1-3.2,2.7-6.3,4.7-9 c0.5-0.7,1.1-1.3,1.7-1.9c3.4,2,7.4,2.8,11.4,2.2C82.2,141.9,86.7,140.4,90.7,137.9z"></path> <path class="st11" d="M123,141.1h0.1c0.2,0.7,0.4,1.3,0.6,2c1,2.9,1.2,5.9,0.6,8.9c-0.7,3.2-2.6,6-5.2,8c-2.6,1.8-5.7,2.8-8.8,2.9 h-0.1c-0.4-3.5-2.1-6.6-4.8-8.8c-1.6-1.3-3.5-2.3-5.5-2.9c0.8-0.9,1.6-1.7,2.4-2.5c1.3-1.5,2.8-2.9,3.9-4.5c2.2,0.2,4.5,0.1,6.8-0.1 c1.6-0.2,3.2-0.5,4.8-0.9C119.6,142.7,121.4,142,123,141.1z"></path> <path class="st11" d="M9.3,141.7l0.3,0.2c1.6,1,3.3,1.9,5,2.6c1.3,0.7,2.4,1.6,3.3,2.7c1.6,1.8,2.6,4.1,2.9,6.5 c0.1,1.8,0,3.5-0.2,5.3c-0.1,1.2,0,2.5-0.1,3.7c-3.1-0.2-6-1.4-8.3-3.4c-2.9-2.5-4.6-6.1-4.7-9.9c0-2.5,0.6-4.9,1.6-7.1 C9.3,142.2,9.4,142,9.3,141.7z"></path> <path class="st18" d="M95.3,150.6c1.5-0.1,3.1,0.2,4.5,0.7c-0.4,0.5-0.8,0.9-1.2,1.3c-0.5,0.4-0.8,1-1.2,1.4c-0.4,0.5-0.8,1-1.1,1.5 c-0.5,0.6-1,1.3-1.4,1.9c-0.7,1.1-1.1,2.4-1.8,3.5c-0.8,0.2-1.6,0.2-2.4,0.3c-4.2,0.8-8.3,2.1-12.2,4c-3.8,1.6-7.7,3.2-11.9,3.5 c-1.3,0-2.5,0.1-3.8,0c-1.5-0.2-2.9-0.6-4.3-1.1l-0.1-0.1c-0.1-1.3-0.4-2.6-0.5-4c-0.2-2.7,0-5.4,0.5-8c0.3-1.6,0.8-3.1,1.2-4.6 l0.1-0.1c0.7,0.6,1.4,1.1,2.1,1.5c2.3,1.5,4.9,2.6,7.6,3.1c3.4,0.5,6.8,0.3,10.1-0.4c1.8-0.5,3.6-1.1,5.3-1.8 C88,151.6,91.6,150.7,95.3,150.6z"></path> <path class="st16" d="M99.8,151.3l0.1-0.1c2,0.6,3.9,1.6,5.5,2.9c2.7,2.2,4.4,5.4,4.8,8.8c-2.1,0-4.1-0.2-6.1-0.6 c-2.9-0.8-6-1.3-9.1-1.3c-0.7,0-1.3,0-2,0c0.7-1.1,1.1-2.4,1.8-3.5c0.4-0.7,0.9-1.3,1.4-1.9c0.3-0.5,0.7-1.1,1.1-1.5 c0.4-0.4,0.8-1,1.2-1.4C99.1,152.2,99.5,151.8,99.8,151.3z"></path> <path class="st19" d="M164.5,115.2c0-14.1,0-28.3,0-42.4c-2.8,0-5.7,0-8.5,0v42.3C158.8,115.2,161.6,115.2,164.5,115.2z"></path> <path class="st19" d="M299.8,115.1l0.1,0.1c2.9,0,5.9,0,8.8,0c1-4,2-8.5,2.9-12.6c2-8.7,4-17.3,5.9-25.9c0.3-1.3,0.6-2.6,0.8-3.9 c-3,0-6,0-9.1,0c-0.4,1.7-0.9,4.6-1.2,6.4c-1.3,7-2.5,14-3.8,20.9c-0.1,0.6-0.2,1.2-0.4,1.8c-1.9-9.4-4.1-19.6-6-29.1 c-2.2,0-4.5,0-6.7,0c-1.4,6.8-2.9,14.2-4.3,21c-0.5,2.7-1.2,5.6-1.6,8.2c-0.4-1.7-0.6-3.4-1-5.1c-1.4-7.8-2.9-15.7-4.4-23.5 c0-0.2-0.1-0.4-0.2-0.6c-3,0-6,0-9.1,0c-0.2,0.2,0.2,0.7,0.1,1l9.2,40.5c0.1,0.2,0,0.6,0.2,0.8c2.9,0,5.9,0,8.8,0 c0.1-0.1,0.2-0.3,0.1-0.4c1.7-8.9,3.4-17.8,5.1-26.6c0-0.3,0.1-0.6,0.2-0.9c1.1,5.9,2.5,12.9,3.6,18.9 C298.7,109.1,299.3,112.1,299.8,115.1z"></path> <path class="st19" d="M398.7,114.3c-3.2-5.3-6.3-10.7-9.5-16c2.2-3.2,4.5-6.4,6.7-9.6c1-1.3,1.8-2.7,2.9-4v-0.3 c-2.9,0.1-5.9,0-8.8,0c-3.1,4.5-6.1,9.1-9.1,13.6l-0.2,0.1c0-0.4,0-0.7,0-1.1c0-8.1,0-16.1,0-24.2h-7.5c-0.2,0.2,0,0.8-0.1,1 c0,13.7,0,27.5,0,41.2l0.1,0.1c2.5,0,5,0,7.5,0c0-2.4,0-4.9,0-7.3c0.2-0.4,0.4-0.7,0.6-1c0.9-1.2,1.7-2.4,2.6-3.6h0.1 c2,3.9,4.2,7.8,6.2,11.8l0.1,0.1c2.9,0,5.9,0,8.8,0C399.1,114.8,398.9,114.5,398.7,114.3z"></path> <path class="st19" d="M216.3,108.9c-0.9,0.5-1.9,0.5-2.7,0c-0.7-0.7-1.1-1.7-1-2.7V91.2c1.6,0,3.4,0,5.1,0c0-2.2,0-4.5,0-6.7 c-1.7,0-3.4,0-5.1,0c-0.1-2.7,0-5.7-0.1-8.4c-2.5,0-5,0-7.5,0l-0.1,0.2c0,2.7,0,5.4,0,8.2c-1.3,0-2.7,0-4,0c0,2.2,0,4.4,0,6.5 l0.1,0.2c1.2,0.1,2.8-0.1,3.9,0.1c0,5.8,0,11.6,0,17.3c-0.3,3.8,2.5,7.1,6.2,7.4c0.4,0,0.8,0,1.2,0c2.1,0.1,4.7-0.4,6.4-1.8 c-0.5-1.9-1.1-3.9-1.6-5.8C216.8,108.4,216.6,108.7,216.3,108.9z"></path> <path class="st19" d="M196.7,115.2l0.1-0.1c0-7.6,0-15.3,0-22.9c0-1.8-0.4-3.5-1.2-5.1c-1.4-2.2-3.8-3.4-6.4-3.3 c-3.7-0.2-7.2,1.5-9.4,4.4l-0.2,0.1c0-1.2,0-2.4,0-3.6l-0.1-0.1c-2.5,0-4.9,0-7.4,0l-0.1,0.1c0,10.2,0,20.4,0,30.7h7.7 c0-7,0-13.9,0-20.9c1-1.9,2.7-3.2,4.7-3.8c1.3-0.3,2.7,0.1,3.7,0.9c0.8,0.9,1.1,2.1,1.1,3.3c0,6.8,0,13.5,0,20.3l0.1,0.1 C191.7,115.2,194.2,115.2,196.7,115.2z"></path> <path class="st19" d="M221.6,106.4c1,3.3,3.2,6.1,6.2,7.8c2.9,1.6,6.3,2.2,9.6,1.6c3.2-0.4,6.2-2,8.4-4.3c0-0.3-0.2-0.5-0.4-0.7 c-1-1.3-2-2.6-3-3.9c-0.1,0-0.3,0.1-0.4,0.2c-1.8,1.8-4.2,2.8-6.7,2.7c-1.7,0-3.4-0.7-4.7-1.9c-1.4-1.4-2.3-3.3-2.4-5.4l0.1-0.2 c6.4,0,12.8,0,19.1,0c0.1-2,0-4-0.3-6c-0.4-3-1.5-5.9-3.4-8.3c-1.3-1.6-3-2.8-4.9-3.5c-2.2-0.8-4.7-1-7-0.6c-3.3,0.5-6.2,2.3-8.1,5 c-2.6,3.8-3.8,8.4-3.2,13C220.8,103.4,221.1,104.9,221.6,106.4z M230.3,91.7c2.1-2.2,5.6-2.3,7.8-0.2c0.1,0.1,0.2,0.2,0.4,0.4 c1.1,1.5,1.8,3.4,1.8,5.3c-3.9,0-7.8,0-11.7,0l-0.1-0.1C228.4,95,229.1,93.2,230.3,91.7z"></path> <path class="st19" d="M269,91.2c0-2.5,0-5,0-7.4c-3.3,0.2-6.3,1.9-8.2,4.7l-0.2-0.2c0.1-1.2,0-2.4,0-3.6c-0.1-0.3-0.7-0.1-0.9-0.2 c-2.2,0-4.5,0-6.7,0c0,10.2,0,20.4,0,30.6l0.1,0.1c2.5,0,5,0,7.5,0l0.1-0.1c0-6.7,0-13.5,0-20.2c0.3-0.7,0.8-1.3,1.5-1.8 c1.4-1.2,3.1-1.9,4.9-2C267.7,91,268.3,91.1,269,91.2z"></path> <path class="st19" d="M327.6,114.7c1.5,0.7,3.1,1.1,4.8,1.2c0.9,0.2,1.8,0.2,2.7,0c3.6-0.3,6.9-2.2,9-5.1c2.8-3.8,3.5-8.6,3.1-13.2 c-0.3-3.2-1.4-6.2-3.3-8.8c-1.9-2.5-4.6-4.1-7.7-4.7c-1.2-0.2-2.4-0.3-3.6-0.2c-3.8,0.1-7.4,1.9-9.7,4.9c-2.5,3.6-3.7,7.9-3.4,12.2 c0.1,1.9,0.4,3.8,1.1,5.7C321.7,110.2,324.2,113.1,327.6,114.7z M328.7,93.7c0.6-1.5,1.9-2.6,3.4-3.1c1.8-0.5,3.7,0,4.9,1.3 c1.3,1.6,2.1,3.6,2.3,5.7c0.3,2,0.2,4-0.3,6c-0.3,1.7-1.2,3.2-2.4,4.4c-1.9,1.5-4.6,1.5-6.4-0.1c-1.4-1.5-2.3-3.4-2.5-5.4 C327.2,99.6,327.5,96.5,328.7,93.7L328.7,93.7z"></path> <path class="st19" d="M367.5,83.9c-2.5,0.5-4.7,1.8-6.3,3.7c-0.2,0.4-0.5,0.7-0.8,1c0-1.4,0-2.7,0-4.1c-2.4-0.1-5,0-7.4,0h-0.2 c0,9.8,0,20.6,0,30.5l0.1,0.2c2.5,0,5,0,7.5,0c0.1-0.2,0.1-0.4,0.1-0.6c0-6.6,0-13.2,0-19.8c0.1-0.2,0.2-0.5,0.4-0.7 c1.4-1.7,3.4-2.8,5.5-3.1c0.8,0,1.6,0,2.4,0.1c0-2.4,0-4.9,0-7.4C368.4,83.8,368,83.8,367.5,83.9z"></path> <path class="st19" d="M224.3,128.3c-2.1,0.1-4,1.6-4.4,3.7c-0.6,2.5,1,4.9,3.5,5.5s4.9-1,5.5-3.5c0.2-0.9,0.1-1.9-0.2-2.8 C228,129.4,226.2,128.2,224.3,128.3z"></path> <path class="st19" d="M175,130.3c-3.1-0.1-7.1,0-10.3-0.1c-2.9,9.8-5.9,20.1-8.9,29.9c-1.2,4.1-2.5,8.4-3.7,12.5l0.1,0.1 c2.6-0.1,6.2,0.1,8.7-0.1c0.6-2.5,1.3-5,1.9-7.4l0.1-0.1c4.6,0,9.1,0,13.7,0c0.7,2.3,1.3,5.2,2.1,7.5c2.9,0,5.9,0,8.8,0 c-0.2-1-0.6-2.1-0.9-3.1C182.8,156.5,178.9,143.4,175,130.3z M164.8,157.7l-0.1-0.1c0.5-1.6,0.9-3.3,1.3-4.9 c1.2-4.8,2.6-9.7,3.8-14.4l0.2,0.1c1.3,5.1,2.7,10.4,4.1,15.5c0.3,1.3,0.7,2.6,1,3.9C171.5,157.6,168.1,157.7,164.8,157.7 L164.8,157.7z"></path> <path class="st19" d="M191.3,130.3c0,14.1,0,28.3,0,42.4c2.5,0,5.1,0,7.7,0c0-14.1,0-28.3,0-42.4 C196.5,130.2,193.8,130.3,191.3,130.3z"></path> <path class="st19" d="M213.4,130.3c-2.5,0-4.9,0-7.4,0l-0.1,0.1c0,13.8,0,27.6,0,41.4c0,0.3-0.1,0.8,0.1,1c2.5,0,4.9,0,7.4,0 l0.1-0.1c0-14.1,0-28.2,0-42.3L213.4,130.3z"></path> <path class="st19" d="M258.5,149.8c-0.3-2.5-1.5-4.7-3.4-6.2c-2.2-1.6-4.9-2.4-7.7-2.4c-4.5-0.2-8.9,1.3-12.3,4.2 c-0.3,0.2-0.1,0.5,0,0.8c0.9,1.5,1.7,3.1,2.5,4.6l0.2,0.1c2-2.1,4.8-3.3,7.8-3.2c1.6,0,3.2,0.7,4.3,1.9c0.6,0.8,1,1.9,1,2.9 c0,1.4,0,2.9,0,4.3c-0.3-0.1-0.5-0.4-0.7-0.6c-1.1-1.1-2.6-1.9-4.1-2.3c-1.8-0.5-3.7-0.5-5.6-0.1c-2.1,0.5-4,1.7-5.3,3.5 c-1.2,1.8-1.8,4-1.7,6.2c-0.1,2.1,0.5,4.3,1.7,6.1c1.7,2.5,4.4,4,7.4,4.1c3.2,0.2,6.3-1.2,8.4-3.7c0,1-0.1,2,0,2.9 c2.2,0.1,5.3,0,7.6,0.1l0.1-0.1v-20.9C258.6,151.1,258.6,150.5,258.5,149.8z M250.9,165.4c-1.2,2.1-3.6,3.1-6,2.7 c-1.7-0.3-3.1-1.5-3.6-3.2c-0.5-1.7-0.2-3.5,0.9-4.9c0.9-1,2.1-1.6,3.4-1.6c2.1-0.1,4.1,1,5.3,2.9C251,162.7,251,164.1,250.9,165.4 L250.9,165.4z"></path> <path class="st19" d="M289.1,144.1c-1.2-1.6-3-2.6-4.9-2.8c-4.2-0.6-8.4,1.1-10.8,4.6c0-1.3,0-2.5,0-3.8l-0.1-0.1h-7.5 c0,10.2,0,20.4,0,30.7l0.1,0.1c2.5-0.1,5,0,7.4,0c0-6.9,0-13.9,0-20.9c0.9-1.7,2.5-3.1,4.4-3.7c2-0.8,4.2,0.2,4.9,2.2 c0.2,0.6,0.3,1.3,0.2,1.9c0,6.8,0,13.6,0,20.4l0.1,0.1c2.5,0,4.9,0,7.4,0l0.1-0.1c0-7.7,0-15.4,0-23.1 C290.6,147.6,290.1,145.8,289.1,144.1z"></path> <path class="st19" d="M310.4,166.7c-1.1-0.1-2.1-0.5-3-1.1c-1.7-1.3-2.9-3.3-3.2-5.5c-0.4-2-0.4-4.2,0.1-6.2 c0.4-1.9,1.4-3.6,2.9-4.8c2.4-1.8,5.8-1.5,7.9,0.5c0.4,0.2,0.6,0.9,1,0.9c1.2-1.6,2.4-3.3,3.5-4.9c0.1-0.1,0.1-0.3,0-0.5 c-1.6-1.8-3.7-3-6-3.5c-2.6-0.6-5.4-0.6-8,0.2c-2.9,0.9-5.3,2.8-6.9,5.3c-2.2,3.7-3.2,8-2.6,12.3c0.3,3.6,1.7,7,4.1,9.8 c1.8,1.9,4.1,3.2,6.6,3.8c3.1,0.7,6.4,0.4,9.4-0.9c1.4-0.7,2.7-1.7,3.7-2.9c-1.3-1.7-2.6-3.7-3.9-5.3 C314.6,165.8,312.6,166.8,310.4,166.7z"></path> <path class="st19" d="M348.9,157.5c-0.1-0.5-0.1-1-0.1-1.6c-0.1-2.8-0.8-5.6-2.1-8.1c-1.3-2.7-3.6-4.8-6.4-5.9 c-2.5-0.9-5.3-1.1-7.9-0.4c-3.6,0.9-6.6,3.2-8.3,6.5c-1.9,3.8-2.6,8-2,12.2c0.2,2.1,0.9,4.1,1.8,5.9c1.6,3.1,4.4,5.5,7.7,6.6 c5.3,1.6,11.8,0.3,15.6-3.9c-1.1-1.4-2.2-2.9-3.3-4.4c-0.4-0.2-0.5,0.1-0.7,0.3c-2.6,2.5-7,3.4-10.1,1.4c-2.2-1.4-3.2-3.8-3.5-6.3 l0.1-0.1c6.2,0,12.5,0,18.7,0c0.3,0,0.4,0,0.5-0.3C348.9,158.9,348.9,158.2,348.9,157.5z M341.3,154.6c-3.9,0-7.7,0-11.6,0l-0.1-0.1 c0.1-1.9,0.7-3.7,1.9-5.2c2-2.3,5.5-2.4,7.8-0.4c0.1,0.1,0.2,0.2,0.2,0.2c1.2,1.5,1.9,3.4,2,5.4L341.3,154.6z"></path> <path class="st19" d="M228.2,171.7V142c-2.6,0-5.1,0-7.7,0c0,10.2,0,20.4,0,30.7l0.1,0.1c2.5,0,4.9,0,7.4,0 C228.3,172.5,228.2,172,228.2,171.7z"></path> <path class="st2" d="M38.4,160.4l0.2,0.2c0.2,0.8,0.5,1.6,0.8,2.4c0.7,2.4,1.1,4.9,1.3,7.4c0.2,1,0.1,1.9,0.3,2.9 c0.2,1.3,0.6,2.5,1,3.7c0.1,0.1,0.2,0.3,0.3,0.4l-0.2,0.2c-1.2,0.5-2.5,0.9-3.8,1.1c-3.5,0.6-7.1-0.1-10-2.1 c-3.5-2.3-5.9-5.8-6.9-9.8c-0.4-1.3-0.5-2.6-0.5-3.9c1.4,0.1,2.7,0,4.1-0.1c2.4-0.2,4.4-1.1,6.7-1.7c1.4-0.3,2.9-0.5,4.4-0.6 C36.8,160.3,37.6,160.3,38.4,160.4z"></path> <path class="st12" d="M40.8,160.7c1.7,0.3,3.4,0.8,5.1,1.5c1.3,0.4,2.6,1.2,4,1.5v0.1c-0.3,0.8,0,1.7-0.2,2.5 c-0.4,3.5-2,6.6-4.7,8.9c-0.9,0.7-1.9,1.4-3,2c-0.1-0.1-0.2-0.2-0.3-0.4c-0.4-1.2-0.8-2.5-1-3.7c-0.2-1-0.2-1.9-0.3-2.9 c-0.2-2.5-0.6-5-1.3-7.4c-0.2-0.8-0.6-1.6-0.8-2.4C39.2,160.3,40.1,160.7,40.8,160.7z"></path> <path class="st20" d="M93.1,161c-0.6,1.3-1,2.8-1.2,4.2c-0.8,3.1-0.2,6.6-1,9.8c-0.2,1.2-0.6,2.3-1.1,3.4h-0.4 c-1.1-0.3-2.3-0.7-3.3-1.2c-1.2-0.6-2.5-1.1-3.8-1.5c-1.4-0.3-2.8-0.4-4.2-0.3c-1,0.1-1.9,0.3-2.8,0.6c-1.1,0.4-2.1,0.9-3,1.5 c-1.5,1-2.5,2.5-3.9,3.7l-1.7,1.6l-0.3,0.3v-0.4c-0.6-1-1.4-1.6-2-2.5c-2.2-2.9-3.9-6.2-5-9.7c-0.4-0.8-0.6-1.7-0.7-2.7 c1.4,0.5,2.8,0.8,4.3,1.1c1.3,0.1,2.5,0,3.8,0c4.2-0.3,8.1-1.9,11.9-3.5c3.9-1.9,7.9-3.2,12.2-4C91.5,161.2,92.3,161.3,93.1,161z"></path> <path class="st5" d="M93.1,161c0.7,0,1.3,0,2,0c3.1,0,6.1,0.4,9.1,1.2c2,0.5,4,0.7,6.1,0.6h0.1c0.2,1.6,0.2,3.2-0.2,4.8 c-0.8,3.7-3.1,7-6.3,9c-2.3,1.6-5,2.5-7.8,2.6c-1,0.1-1.9,0.1-2.9-0.1c-1.1,0-2.2-0.4-3.3-0.5c-0.1,0.1-0.1,0.3-0.2,0.4 c0.1-0.3,0-0.5-0.3-0.6h0.4c0.5-1.1,0.9-2.3,1.1-3.4c0.8-3.2,0.2-6.6,1-9.8C92.1,163.8,92.5,162.3,93.1,161z"></path> <path class="st5" d="M49.9,163.9c2.8,1.4,5.6,2.8,8.5,3.9l0.1,0.1c0.1,0.9,0.3,1.8,0.7,2.7c1.1,3.5,2.8,6.8,5,9.7 c0.6,0.9,1.5,1.6,2,2.5v0.4c-1.8,1.5-3.8,2.6-5.9,3.5c-2.3,0.9-4.8,1.2-7.3,0.8c-2.7-0.5-5.2-1.7-7.2-3.7c-1.7-1.8-3-3.8-3.8-6.1 l0.2-0.2c1-0.6,2-1.3,3-2c2.6-2.3,4.3-5.5,4.7-8.9C49.9,165.6,49.6,164.6,49.9,163.9z"></path> <path class="st0" d="M78,175.5c1.4-0.1,2.8,0,4.2,0.3c1.3,0.4,2.6,0.9,3.8,1.5c1.1,0.5,2.2,0.9,3.3,1.2c0.3,0.1,0.4,0.4,0.3,0.6 c-1.5,3.5-4.3,6.2-7.9,7.6c-2.5,0.9-5.2,1.1-7.8,0.5c-2.8-0.8-5.3-2.3-7.3-4.3l1.7-1.6c1.3-1.2,2.3-2.7,3.9-3.7 c0.9-0.6,1.9-1.1,3-1.5C76.1,175.8,77,175.6,78,175.5z"></path> </svg> 