<svg xmlns="http://www.w3.org/2000/svg" xmlns:xlink="http://www.w3.org/1999/xlink" width="2000" height="2202.01" viewBox="0 0 2000 2202.01"><defs><linearGradient id="0" x1="891.39" y1="1049.95" x2="1398.68" y2="1776.61" gradientUnits="userSpaceOnUse"><stop stop-color="#ea078c"/><stop offset="1" stop-color="#69009a"/></linearGradient><linearGradient id="1" x1="454.65" y1="1042.69" x2="1486.38" y2="408.57" xlink:href="#0"/></defs><path d="m1047.38 809.84l57 74s343 503.76 514.82 755.34q177.69 261.82 355.69 523.4a421.1 421.1 0 0 1 25.11 38.92c-211.16.87-422.38.41-633.54.2-210.18-312-627.52-938.12-627.52-938.12l-36-65.55" fill="url(#0)"/><path d="M554.05,1455.2c-7.76,6.23-7.2,16.51-7.2,25.46l-8.48,28.43L497.24,848.4l50.33-53.83C560.48,785.78,1060,257.8,1300.34,6.32c5.66-8,16-5.6,24.42-6.32,209.16.67,627.53.46,627.53.46S614.93,1390.58,554.05,1455.2Z" fill="url(#1)"/><path fill="#69009a" d="M 0,0.72 H547.37 V2200.78 H0 z"/></svg>