<?xml version="1.0" encoding="utf-8"?>
<!-- Generator: Adobe Illustrator 19.1.0, SVG Export Plug-In . SVG Version: 6.00 Build 0)  -->
<!DOCTYPE svg PUBLIC "-//W3C//DTD SVG 1.1//EN" "http://www.w3.org/Graphics/SVG/1.1/DTD/svg11.dtd">
<svg version="1.1" id="Layer_1" xmlns:sketch="http://www.bohemiancoding.com/sketch/ns"
	 xmlns="http://www.w3.org/2000/svg" xmlns:xlink="http://www.w3.org/1999/xlink" x="0px" y="0px" viewBox="213 3 486 55"
	 style="enable-background:new 213 3 486 55;" xml:space="preserve">
<style type="text/css">
	.st0{fill:#006BA6;}
</style>
<g id="Home" sketch:type="MSPage">
	<g id="Home-Copy" transform="translate(-75.000000, -58.000000)" sketch:type="MSArtboardGroup">
		<g id="_x31_400-expanded" transform="translate(-1.500000, 0.000000)" sketch:type="MSLayerGroup">
			<g id="top-bar" sketch:type="MSShapeGroup">
				<g id="logo" transform="translate(76.000000, 58.000000)">
					<path id="Fill-1" class="st0" d="M250.1,19.8c-0.6-0.5-1.4-1.1-2.2-1.3l-1.3,25.4l6.4-17.6C253.6,23.6,252.1,21.4,250.1,19.8"
						/>
					<path id="Fill-2" class="st0" d="M239.6,18.2l3.7,25.3l3.6-25.3C244.8,17.4,242,17.3,239.6,18.2"/>
					<path id="Fill-3" class="st0" d="M236.5,19.8c-2,1.7-3.5,3.9-2.9,6.5l6.4,17.6l-1.3-25.4C237.9,18.7,237.1,19.2,236.5,19.8"/>
					<path id="Fill-4" class="st0" d="M223.7,22.2c4.2,7.4,8.6,15.3,12.8,22.4c-1.5-6.2-3-16.5-5.2-19.4
						C228.8,21.7,223.7,22.2,223.7,22.2"/>
					<path id="Fill-5" class="st0" d="M216.2,25.9l17.4,20l-10.8-23.6C220,22.4,217.6,23.8,216.2,25.9"/>
					<path id="Fill-6" class="st0" d="M252.5,31.3L249.6,45c3.7-6.4,7.4-12.7,11-19.1C257.2,26.1,253.7,27.4,252.5,31.3"/>
					<path id="Fill-7" class="st0" d="M261.6,25.9l-9.2,20.3l16.1-17.5C266.7,26.8,264.3,25.9,261.6,25.9"/>
					<path id="Fill-8" class="st0" d="M213.9,34.9c5.7,4.3,11.3,8.8,17,13.1l-15.3-21.5C214.2,29,213.8,31.8,213.9,34.9"/>
					<path id="Fill-9" class="st0" d="M270.5,31.2c-0.3-0.7-0.7-1.3-1.3-1.8l-13.9,18.9c5.5-4.1,10.8-8.3,16.1-12.4
						C271.5,34.2,271.3,32.6,270.5,31.2"/>
					<path id="Fill-10" class="st0" d="M213.9,43.7l14.8,6.8c-4.9-4.9-9.9-9.6-14.8-14.4L213.9,43.7"/>
					<path id="Fill-11" class="st0" d="M271.5,44.2v-6.9l-14,13.5C262.3,48.5,266.7,46.4,271.5,44.2"/>
					<path id="Fill-12" class="st0" d="M213.9,50.4c4.5,1,9.3,2.2,13.3,3.1l-13.3-8.8V50.4"/>
					<path id="Fill-13" class="st0" d="M271.5,50.8v-5.3c-4.2,2.6-8.5,5.4-12.4,8.1L271.5,50.8"/>
					<path id="Fill-14" class="st0" d="M213.9,57h13l-13-5.5V57"/>
					<path id="Fill-15" class="st0" d="M271.5,57v-5c-4.3,1.8-8,3.3-12,5H271.5"/>
					<path id="Fill-16" class="st0" d="M267,19.1c0.1-7.8-11.3-7.8-11.1-0.1C255.8,26.2,267.3,26.6,267,19.1"/>
					<path id="Fill-17" class="st0" d="M267,19.1C267,19.1,267,19.1,267,19.1L267,19.1L267,19.1"/>
					<path id="Fill-18" class="st0" d="M229.8,15.1c0.4-7.8-11.8-7.5-11.3,0C218.1,22.9,230.5,23,229.8,15.1"/>
					<path id="Fill-19" class="st0" d="M243.3,16.6c4.5,0.1,6.3-3.2,6.4-6.3c0.2-4.8-2.8-6.8-6.4-6.8c-3.6,0-6.5,2.1-6.3,6.8
						C237.1,13,238.2,16.5,243.3,16.6"/>
					<path id="Fill-20" class="st0" d="M339.1,26.3h5.3v30.4h-5.3V26.3z"/>
					<path id="Fill-21" class="st0" d="M320.4,26.3l-9,25.8l-8.8-11l11.7-14.8h-6.1l-10.8,14.4V26.3h-5.3l0,30.4h5.3v-15l11.2,15
						h1.2l0,0h5.2l2.8-8.8H329l2.9,8.8h5.5l-10.6-30.4H320.4L320.4,26.3z M319.1,43.7l4.1-12.6h0.1l4.2,12.6H319.1L319.1,43.7z"/>
					<path id="Fill-22" class="st0" d="M516.2,48.3l-5.3-22h-9.3v30.4h5.2V30.8l6.7,25.9h5.3c0.1,0,6.7-25.9,6.7-25.9v25.9h5.2V26.3
						h-9.1L516.2,48.3"/>
					<path id="Fill-23" class="st0" d="M544,26.3l-10.6,30.5h5.2l2.8-8.8h11.3l3,8.8h5.5l-10.6-30.5H544L544,26.3z M542.8,43.7
						l4.1-12.6h0.1l4.3,12.6H542.8L542.8,43.7z"/>
					<path id="Fill-24" class="st0" d="M582.7,49.8l-12.2-23.5l-7,0l0,30.4h5V33.8l12,22.9h7.2V26.3h-5.1V49.8"/>
					<path id="Fill-25" class="st0" d="M683,52.3h-12.6v-8.6h9.3v-4.4l-9.3,0v-8.6c1.2,0,11.5,0,11.5,0v-4.4c-3.1,0-16.8,0-16.8,0
						l0,30.5l17.8,0L683,52.3"/>
					<path id="Fill-26" class="st0" d="M634.7,26.2L634.7,26.2l-1,0V50l-12.2-23.7h-7v26h-16.1v-8.6h9.3v-4.4l-9.3,0v-8.6
						c1.2,0,11.5,0,11.5,0v-4.4c-3.1,0-16.7,0-16.7,0l0,30.5l25.9,0h0.4V33.5l12,23.2h7.2V30.9h9.3v25.9h5.3V30.9h9.1l0-4.6H634.7"
						/>
					<path id="Fill-27" class="st0" d="M494,41.4c1.7-1.4,2.9-3.7,2.9-6.5c0-2.8-1.2-5-2.9-6.4c-1.9-1.6-4.5-2.2-8.9-2.2h-8.9v12.9
						h0v13.2h-16.2v-8.6h9.3v-4.4l-9.3,0v-8.6c1.2,0,11.5,0,11.5,0v-4.4c-3.1,0-16.8,0-16.8,0v30.5l26.8,0V43.8h2.6
						c2.4,3.8,7.6,13,7.6,13h6.3l-8.2-13.4C491.6,43,492.9,42.3,494,41.4L494,41.4z M481.6,39.3v-8.6h4.5c4,0,5.6,1.6,5.6,4.2
						c0,2.9-1.6,4.3-5.6,4.3H481.6L481.6,39.3z"/>
					<path id="Fill-28" class="st0" d="M410.4,41.4c1.7-1.4,2.9-3.7,2.9-6.5c0-2.8-1.2-5-2.9-6.4c-1.8-1.6-4.5-2.2-8.9-2.2h-8.9
						v12.9h0v13.2h-16.2v-8.6h9.3v-4.4l-9.3,0v-8.6c1.2,0,11.5,0,11.5,0v-4.4c-3.1,0-16.8,0-16.8,0v30.5l26.8,0V43.8h2.6
						c2.4,3.8,7.6,13,7.6,13h6.3l-8.2-13.4C408.1,43,409.4,42.3,410.4,41.4L410.4,41.4z M398,39.3v-8.6h4.5c4,0,5.6,1.6,5.6,4.2
						c0,2.9-1.6,4.3-5.6,4.3H398L398,39.3z"/>
					<path id="Fill-29" class="st0" d="M448.7,28.6c-1.9-1.6-4.5-2.3-8.9-2.3h-8.9v30.5h5.3V44.2h3.6c4.4,0,7-0.8,8.8-2.4
						c1.7-1.4,2.9-3.8,2.9-6.6C451.5,32.4,450.3,30,448.7,28.6L448.7,28.6z M440.7,39.7h-4.5v-9h4.5c4,0,5.6,1.8,5.6,4.4
						C446.3,37.9,444.5,39.7,440.7,39.7L440.7,39.7z"/>
					<path id="Fill-30" class="st0" d="M359.9,39c-4.2-1.5-6.1-2.7-6.1-5.1c0-1.8,1.9-3.9,5.5-3.9c2.7,0,5.3,0.9,6.6,1.6v-4.4
						c-1.4-0.7-3.9-1.4-6.5-1.4c-6.6,0-11.1,3.7-11.1,8.6c0,4.4,3.4,7.1,8.5,8.8c4,1.4,5.7,2.8,5.7,5.2c0,2.6-2.2,4.4-5.9,4.4
						c-2.9,0-6.5-1-8.4-2.2v4.7c1.8,1,5,1.8,8,1.8c7.9,0,11.7-4.2,11.7-9.1C368,43.5,365.2,40.9,359.9,39"/>
					<path id="Fill-31" class="st0" d="M687.8,51.3c0-2.9,2.2-5.1,5.1-5.1c2.8,0,5,2.2,5,5.1c0,3-2.2,5.1-5,5.1
						C690.1,56.5,687.8,54.3,687.8,51.3L687.8,51.3z M692.9,57.5c3.4,0,6.3-2.6,6.3-6.2c0-3.5-2.9-6.2-6.3-6.2
						c-3.4,0-6.3,2.6-6.3,6.2C686.6,54.9,689.5,57.5,692.9,57.5L692.9,57.5z M691.6,51.8h1.2l1.9,3.1h1.2l-2-3.1
						c1.1-0.1,1.9-0.7,1.9-2c0-1.4-0.8-2-2.5-2h-2.7v7.1h1.1V51.8L691.6,51.8z M691.6,50.9v-2.2h1.5c0.8,0,1.6,0.2,1.6,1
						c0,1.1-0.8,1.2-1.7,1.2H691.6L691.6,50.9z"/>
				</g>
			</g>
		</g>
	</g>
</g>
</svg>
