<?xml version="1.0" encoding="utf-8"?>
<!-- Generator: Adobe Illustrator 19.2.1, SVG Export Plug-In . SVG Version: 6.00 Build 0)  -->
<svg version="1.1" id="layer" xmlns="http://www.w3.org/2000/svg" xmlns:xlink="http://www.w3.org/1999/xlink" x="0px" y="0px"
	 viewBox="0 0 652 652" style="enable-background:new 0 0 652 652;" xml:space="preserve">
<style type="text/css">
	.st0{fill:#462DE0;}
</style>
<path id="Fill-9" class="st0" d="M241.9,359.4l-25.9-30.9v30.9h-13.7v-93h13.7v57.4l23.9-29.3h17.7l-27,30.9l29,34H241.9z
	 M290.9,330.4c-3.4,0-14.6,0.7-14.6,10c0,1.8,0.8,7.9,11.6,7.9c1.6,0,15.6-0.2,20.7-8.7l0-0.1v-5.2l-0.2-0.1
	C302.1,331.5,295,330.4,290.9,330.4L290.9,330.4z M287.4,360.8c-15.2,0-24.7-7.8-24.7-20.5c0-13.2,10.2-20.8,27.9-20.8
	c5.9,0,11.9,1.4,17.8,4.2l0.4,0.2v-3.4c0-9.1-6.6-15-16.8-15c-7,0-14.4,3.5-18.5,8.8l-7.9-8.4c8-11.2,20.6-12.9,27.4-12.9
	c19.1,0,29.6,9.8,29.6,27.5v38.8h-13.7v-7.7l-0.5,0.6C302.5,359.7,292.7,360.8,287.4,360.8L287.4,360.8z M338.2,359.4h13.9v-93
	h-13.9V359.4z M398.1,305.1c-10.5,0-18.3,6.4-19.6,16.4l0,0.3h38.7l0-0.3C415.7,311.4,408.4,305.1,398.1,305.1L398.1,305.1z
	 M398.1,360.8c-19.3,0-33.4-14.3-33.4-34.1c0-9.9,3.4-18.4,9.7-24.6c6.1-5.9,14.5-9.1,23.6-9.1c19.2,0,32.5,13.8,32.5,33.7
	c0,1.5,0,3.6-0.1,5h-52.1l0,0.3c1.4,10.1,9.4,16.7,20.3,16.7c7.6,0,14.6-3.6,17.9-9.3c2.2,1,4.6,2.1,7,3.1c1.5,0.6,2.9,1.3,4.3,1.9
	C422.7,354.7,411.6,360.8,398.1,360.8L398.1,360.8z M442.6,359.4h13.7v-64.9h-13.7V359.4z M502.6,306.5c-11.5,0-19.9,8.5-19.9,20.2
	c0,12,8.4,20.6,19.9,20.6c10.1,0,20.3-7.1,20.3-20.6C522.9,313.6,512.4,306.5,502.6,306.5L502.6,306.5z M500.7,360.8
	c-18.5,0-32.4-14.5-32.4-33.8c0-19.7,13.6-33.9,32.4-33.9c9.8,0,18.2,4.1,21.9,10.7l0.5,0.9v-38.3h13.7v93h-13.7v-10.3l-0.5,0.9
	C518.9,356.6,510.3,360.8,500.7,360.8L500.7,360.8z M583.7,306.7c-11.6,0-20.1,8.4-20.1,20.1c0,12,8.4,20.6,20.1,20.6
	c11.7,0,20.2-8.7,20.2-20.6C603.9,315.1,595.4,306.7,583.7,306.7L583.7,306.7z M583.7,360.8c-9.1,0-17.6-3.3-23.8-9.3
	c-6.5-6.2-10-15-10-24.8c0-19.5,14.2-33.7,33.8-33.7c19.7,0,34.1,14.2,34.1,33.7c0,9.7-3.6,18.5-10.1,24.8
	C601.4,357.5,592.9,360.8,583.7,360.8L583.7,360.8z M449.5,282.2c-5.2,0-9.4-4-9.4-8.8c0-4.9,4.2-8.8,9.4-8.8c5.2,0,9.3,3.9,9.3,8.8
	C458.7,278.3,454.7,282.2,449.5,282.2L449.5,282.2z"/>
<path id="Fill-11" class="st0" d="M149,290.3v17.1l-49.4-28.5l21.9-12.7l20.4,11.8C146.3,280.5,149,285.2,149,290.3L149,290.3z
	 M29,326.1l49.4,28.5l-21.9,12.7l-20.4-11.8c-4.4-2.5-7.1-7.3-7.1-12.3V326.1z M61.5,332.6V307l49.7,28.7L89,348.5L61.5,332.6z
	 M89,285l27.5,15.9v25.7l-49.7-28.7L89,285z M89,249.6c2.5,0,5,0.7,7.1,1.9l14.8,8.5l-49.4,28.5l-0.1-25.3l20.4-11.8
	C84,250.3,86.5,249.6,89,249.6L89,249.6z M36.1,278l14.8-8.6v57.1L29,313.9v-23.6C29,285.2,31.7,280.5,36.1,278L36.1,278z
	 M116.6,370.1l-20.4,11.8c-2.2,1.2-4.6,1.9-7.1,1.9c-2.5,0-5-0.7-7.1-1.9l-14.8-8.5l49.4-28.5L116.6,370.1z M141.9,355.5l-14.8,8.5
	V307l21.9,12.6v23.6C149,348.2,146.3,353,141.9,355.5L141.9,355.5z M147.5,268.3l-45.8-26.4c-3.8-2.2-8.2-3.4-12.7-3.4
	c-4.5,0-8.9,1.2-12.7,3.4l-45.8,26.4c-7.8,4.5-12.7,13-12.7,22v52.9c0,9,4.9,17.5,12.7,22l45.8,26.4c3.8,2.2,8.2,3.4,12.7,3.4
	c4.5,0,8.9-1.2,12.7-3.4l45.8-26.4c7.8-4.5,12.7-13,12.7-22v-52.9C160.2,281.2,155.3,272.8,147.5,268.3L147.5,268.3z"/>
</svg>
