<?xml version="1.0" encoding="utf-8"?>
<!-- Generator: Adobe Illustrator 23.0.3, SVG Export Plug-In . SVG Version: 6.00 Build 0)  -->
<svg version="1.1" id="Layer_1" xmlns="http://www.w3.org/2000/svg" xmlns:xlink="http://www.w3.org/1999/xlink" x="0px" y="0px"
	 viewBox="0 0 400 245" style="enable-background:new 0 0 400 245;" xml:space="preserve">
<style type="text/css">
	.st0{fill:#E01B22;}
	.st1{fill:#4064AD;}
	.st2{fill:#E98300;}
	.st3{fill:#00549F;}
	.st4{fill-rule:evenodd;clip-rule:evenodd;}
	.st5{fill-rule:evenodd;clip-rule:evenodd;fill:#C9243A;}
	.st6{fill-rule:evenodd;clip-rule:evenodd;fill:#231F20;}
	.st7{fill-rule:evenodd;clip-rule:evenodd;fill:#7C848A;}
	.st8{fill:#EE3B29;}
	.st9{fill:#7C848A;}
	.st10{fill:#0F0F59;}
	.st11{fill:#F42A4D;}
	.st12{fill:#DA2128;}
	.st13{fill-rule:evenodd;clip-rule:evenodd;fill:#12ABDB;}
	.st14{fill-rule:evenodd;clip-rule:evenodd;fill:#0070AD;}
	.st15{fill:#929497;}
	.st16{fill:#231F20;}
	.st17{fill:#00ADEE;}
	.st18{fill:#2E3191;}
	.st19{fill:#EC1C24;}
	.st20{fill:#0082C9;}
	.st21{fill:#6D67AE;}
	.st22{fill:#2B62AD;}
	.st23{fill:#404041;}
	.st24{fill:#273B5B;}
	.st25{fill:#39B54A;}
	.st26{fill:#474749;}
	.st27{fill:#009245;}
	.st28{fill:#DDDDDD;}
	.st29{fill:#FFFFFF;}
	.st30{fill:url(#SVGID_1_);}
	.st31{fill:url(#SVGID_2_);}
	.st32{fill:url(#SVGID_3_);}
	.st33{fill:url(#SVGID_4_);}
	.st34{fill:url(#SVGID_5_);}
	.st35{fill:url(#SVGID_6_);}
	.st36{fill:url(#SVGID_7_);}
	.st37{fill:url(#SVGID_8_);}
	.st38{fill:url(#SVGID_9_);}
	.st39{fill:url(#SVGID_10_);}
	.st40{fill:url(#SVGID_11_);}
	.st41{fill:url(#SVGID_12_);}
	.st42{fill:url(#SVGID_13_);}
	.st43{fill:url(#SVGID_14_);}
	.st44{fill:url(#SVGID_15_);}
	.st45{fill:url(#SVGID_16_);}
	.st46{fill:url(#SVGID_17_);}
	.st47{fill:#59595C;}
	.st48{fill:#1D7DB9;}
	.st49{fill:#121110;}
	.st50{fill:#010101;}
	.st51{fill:#663795;}
	.st52{fill:#09324A;stroke:#1B75BB;stroke-width:0.6975;stroke-miterlimit:10;}
	.st53{fill:#002432;stroke:#1B75BB;stroke-width:1.0463;stroke-miterlimit:10;}
	.st54{fill-rule:evenodd;clip-rule:evenodd;fill:#E73836;}
	.st55{fill:#231916;}
	.st56{fill:#E73836;}
	.st57{fill:#8C9091;}
	.st58{fill-rule:evenodd;clip-rule:evenodd;fill:#365072;}
	.st59{fill:#365072;}
	.st60{fill:#0093D7;}
	.st61{clip-path:url(#SVGID_19_);fill:url(#SVGID_20_);}
	.st62{clip-path:url(#SVGID_22_);fill:url(#SVGID_23_);}
	.st63{clip-path:url(#SVGID_25_);fill:url(#SVGID_26_);}
	.st64{clip-path:url(#SVGID_28_);fill:url(#SVGID_29_);}
	.st65{clip-path:url(#SVGID_31_);fill:url(#SVGID_32_);}
	.st66{clip-path:url(#SVGID_34_);fill:url(#SVGID_35_);}
	.st67{clip-path:url(#SVGID_37_);fill:url(#SVGID_38_);}
	.st68{clip-path:url(#SVGID_40_);fill:url(#SVGID_41_);}
	.st69{clip-path:url(#SVGID_43_);fill:url(#SVGID_44_);}
	.st70{clip-path:url(#SVGID_68_);}
	.st71{clip-path:url(#SVGID_79_);}
	.st72{fill:#00A9E6;}
	.st73{fill:#4D4D4F;}
	.st74{fill:#898B8D;}
	.st75{fill:#04B3AC;}
	.st76{fill:#A4A2A0;}
	.st77{fill:#D0CFCE;}
	.st78{fill:#74777C;}
	.st79{fill:none;stroke:#ED3024;stroke-width:0.4269;}
	.st80{fill:#A2A4A8;}
	.st81{fill:#3F7BA3;}
	.st82{enable-background:new    ;}
	.st83{fill:#E8B520;}
	.st84{fill:#D27D41;}
	.st85{fill:#0B74BB;}
	.st86{fill:#702784;}
	.st87{fill:#AD2E91;}
	.st88{fill:#ED3694;}
	.st89{fill:#004E9A;}
	.st90{clip-path:url(#SVGID_82_);fill:url(#SVGID_83_);}
	.st91{clip-path:url(#SVGID_85_);fill:url(#SVGID_86_);}
	.st92{clip-path:url(#SVGID_88_);fill:url(#SVGID_89_);}
	.st93{fill:#0898CC;}
	.st94{fill:#12284C;}
	.st95{fill-rule:evenodd;clip-rule:evenodd;fill:#84BE42;}
	.st96{fill-rule:evenodd;clip-rule:evenodd;fill:#C1C0C0;}
	.st97{clip-path:url(#SVGID_91_);fill:#84BE42;}
	.st98{fill:#0066A5;}
	.st99{fill:#F05A22;}
	.st100{clip-path:url(#SVGID_93_);}
	.st101{clip-path:url(#SVGID_95_);fill:#1D1D1B;}
	.st102{clip-path:url(#SVGID_97_);}
	.st103{clip-path:url(#SVGID_99_);fill:#1D1D1B;}
	.st104{clip-path:url(#SVGID_101_);}
	.st105{clip-path:url(#SVGID_103_);fill:#1D1D1B;}
	.st106{clip-path:url(#SVGID_105_);}
	.st107{clip-path:url(#SVGID_107_);fill:#1D1D1B;}
	.st108{clip-path:url(#SVGID_109_);}
	.st109{clip-path:url(#SVGID_111_);fill:#1D1D1B;}
	.st110{clip-path:url(#SVGID_113_);}
	.st111{clip-path:url(#SVGID_115_);fill:#1D1D1B;}
	.st112{clip-path:url(#SVGID_117_);}
	.st113{clip-path:url(#SVGID_119_);fill:#1D9DD9;}
	.st114{clip-path:url(#SVGID_121_);}
	.st115{clip-path:url(#SVGID_123_);fill:#1D1D1B;}
	.st116{clip-path:url(#SVGID_125_);}
	.st117{clip-path:url(#SVGID_127_);fill:#1D9DD9;}
	.st118{clip-path:url(#SVGID_129_);}
	.st119{clip-path:url(#SVGID_131_);fill:#1D1D1B;}
	.st120{clip-path:url(#SVGID_133_);}
	.st121{clip-path:url(#SVGID_135_);fill:#1D9DD9;}
	.st122{clip-path:url(#SVGID_137_);}
	.st123{clip-path:url(#SVGID_139_);fill:#1D1D1B;}
	.st124{clip-path:url(#SVGID_141_);}
	.st125{clip-path:url(#SVGID_143_);fill:#1D9DD9;}
	.st126{clip-path:url(#SVGID_145_);}
	.st127{clip-path:url(#SVGID_147_);fill:#1D1D1B;}
	.st128{fill:#D44432;}
	.st129{fill:#272525;}
	.st130{fill:url(#SVGID_148_);}
	.st131{fill:url(#SVGID_149_);}
	.st132{fill:url(#SVGID_150_);}
	.st133{fill:#002B54;}
	.st134{fill:#B2B1B1;}
	.st135{fill:#E1134F;}
	.st136{fill:#454547;}
	.st137{fill:#00B4D0;}
	.st138{fill:#4564A7;}
	.st139{fill:#0088EE;}
	.st140{fill:#026FC2;}
	.st141{fill:#009FEE;}
	.st142{fill:#00BEEE;}
	.st143{fill:#00AFEE;}
	.st144{fill-rule:evenodd;clip-rule:evenodd;fill:#224099;}
	.st145{clip-path:url(#SVGID_152_);}
	.st146{clip-path:url(#SVGID_156_);}
	.st147{fill:#203260;}
	.st148{fill-rule:evenodd;clip-rule:evenodd;fill:#989A9D;}
	.st149{fill-rule:evenodd;clip-rule:evenodd;fill:#DF068C;}
	.st150{fill:#2E3437;}
	.st151{fill:#989FA4;}
	.st152{fill:#E1DE22;}
	.st153{fill-rule:evenodd;clip-rule:evenodd;fill:#86171D;}
	.st154{fill-rule:evenodd;clip-rule:evenodd;fill:#FFFFFF;}
	.st155{fill:none;stroke:#86171D;stroke-width:6.1349;stroke-miterlimit:10;}
	.st156{fill:#1F1F1F;}
	.st157{fill:#009590;}
	.st158{fill:#ED1651;}
</style>
<g>
	<polygon class="st55" points="200.88,107.28 200.88,142.42 194,142.42 194,125.51 179.74,125.51 179.74,142.42 172.87,142.42 
		172.87,107.28 179.74,107.28 179.74,120.94 194,120.94 194,107.28 	"/>
	<g>
		<path class="st55" d="M219.97,129.28l-3.37,0.45c-1.57,0.2-2.84,0.74-3.81,1.61c-0.98,0.87-1.45,1.96-1.45,3.27
			c0,1.16,0.33,2.11,0.98,2.81c0.65,0.7,1.42,1.05,2.33,1.05c0.7,0,1.38-0.1,2.04-0.3c0.65-0.2,1.21-0.56,1.67-1.1
			c0.51-0.54,0.9-1.25,1.19-2.14c0.28-0.88,0.43-2.04,0.43-3.44V129.28z M221.47,142.42c-0.21-0.13-0.43-0.43-0.68-0.9
			c-0.26-0.48-0.39-0.93-0.39-1.41c-1.03,1.11-2.22,1.86-3.57,2.26c-1.34,0.41-2.66,0.6-3.96,0.6c-2.38,0-4.36-0.72-5.93-2.18
			c-1.57-1.45-2.36-3.44-2.36-5.95c0-2.31,0.83-4.33,2.49-6.05c1.66-1.72,4.05-2.76,7.21-3.09l5.62-0.65c0-2.14-0.48-3.61-1.43-4.39
			c-0.95-0.79-2.04-1.18-3.23-1.18c-1.47,0-2.87,0.32-4.19,0.98c-1.32,0.66-2.54,1.49-3.64,2.49l-1.16-5.07
			c1.34-0.93,2.76-1.64,4.25-2.1c1.49-0.47,3.2-0.7,5.14-0.7c1.2,0,2.45,0.17,3.75,0.5c1.28,0.34,2.45,0.89,3.48,1.66
			c1.07,0.77,1.94,1.78,2.61,3.04c0.67,1.25,1.01,2.8,1.01,4.65v10.94c0,1.04,0.07,2.15,0.24,3.31c0.17,1.18,0.51,2.26,1.01,3.26
			H221.47z"/>
		<path class="st55" d="M237.93,115.57v2.31c0.9-0.9,1.96-1.59,3.18-2.08c1.23-0.49,2.49-0.73,3.8-0.73c3.21,0,5.74,0.93,7.61,2.81
			c1.86,1.88,2.78,4.44,2.78,7.68v16.86h-6.57v-15.91c0-2.04-0.47-3.7-1.38-4.97c-0.93-1.27-2.22-1.91-3.9-1.91
			c-1.54,0-2.84,0.63-3.89,1.89c-1.06,1.25-1.59,2.99-1.59,5.19v15.71h-6.53v-26.86H237.93z"/>
		<path class="st55" d="M274.18,129.28l-3.36,0.45c-1.57,0.2-2.84,0.74-3.81,1.61c-0.97,0.87-1.46,1.96-1.46,3.27
			c0,1.16,0.33,2.11,0.98,2.81c0.65,0.7,1.44,1.05,2.34,1.05c0.7,0,1.38-0.1,2.04-0.3c0.65-0.2,1.21-0.56,1.68-1.1
			c0.5-0.54,0.89-1.25,1.18-2.14c0.29-0.88,0.43-2.04,0.43-3.44V129.28z M275.69,142.42c-0.2-0.13-0.43-0.43-0.68-0.9
			c-0.25-0.48-0.37-0.93-0.37-1.41c-1.04,1.11-2.22,1.86-3.56,2.26c-1.34,0.41-2.67,0.6-3.97,0.6c-2.38,0-4.35-0.72-5.93-2.18
			c-1.56-1.45-2.34-3.44-2.34-5.95c0-2.31,0.82-4.33,2.48-6.05c1.65-1.72,4.06-2.76,7.21-3.09l5.61-0.65c0-2.14-0.47-3.61-1.43-4.39
			c-0.95-0.79-2.03-1.18-3.24-1.18c-1.48,0-2.87,0.32-4.2,0.98c-1.32,0.66-2.53,1.49-3.64,2.49l-1.15-5.07
			c1.34-0.93,2.75-1.64,4.24-2.1c1.5-0.47,3.2-0.7,5.15-0.7c1.2,0,2.45,0.17,3.73,0.5c1.3,0.34,2.45,0.89,3.49,1.66
			c1.07,0.77,1.94,1.78,2.61,3.04c0.67,1.25,1,2.8,1,4.65v10.94c0,1.04,0.09,2.15,0.25,3.31c0.17,1.18,0.51,2.26,1.01,3.26H275.69z"
			/>
		<path class="st55" d="M299.83,126.31v11.75h3.62c1.74,0,3.18-0.51,4.34-1.53c1.15-1.02,1.73-2.48,1.73-4.39
			c0-2.11-0.68-3.61-2.05-4.49c-1.38-0.89-2.92-1.33-4.62-1.33H299.83z M299.83,111.65v10.29h2.56c1.9,0,3.35-0.51,4.31-1.54
			c0.97-1.02,1.46-2.38,1.46-4.09c0-1.4-0.41-2.53-1.23-3.39c-0.82-0.85-1.99-1.28-3.49-1.28H299.83z M304.1,142.42h-11.2v-35.14
			h11.95c2.94,0,5.38,0.75,7.31,2.25c1.92,1.51,2.88,3.45,2.88,5.83c0,2.38-0.57,4.25-1.76,5.63c-1.16,1.37-2.46,2.31-3.86,2.81
			c2.04,0.5,3.77,1.42,5.17,2.76c1.4,1.34,2.1,3.2,2.1,5.58c0,3.11-1.07,5.6-3.23,7.48C311.3,141.49,308.19,142.42,304.1,142.42"/>
		<path class="st55" d="M335.22,129.28l-3.36,0.45c-1.57,0.2-2.84,0.74-3.82,1.61c-0.97,0.87-1.45,1.96-1.45,3.27
			c0,1.16,0.33,2.11,0.98,2.81c0.65,0.7,1.44,1.05,2.33,1.05c0.7,0,1.39-0.1,2.04-0.3c0.65-0.2,1.21-0.56,1.68-1.1
			c0.5-0.54,0.89-1.25,1.18-2.14c0.29-0.88,0.43-2.04,0.43-3.44V129.28z M336.73,142.42c-0.2-0.13-0.43-0.43-0.68-0.9
			c-0.25-0.48-0.37-0.93-0.37-1.41c-1.04,1.11-2.23,1.86-3.56,2.26c-1.34,0.41-2.67,0.6-3.97,0.6c-2.38,0-4.35-0.72-5.93-2.18
			c-1.57-1.45-2.36-3.44-2.36-5.95c0-2.31,0.84-4.33,2.5-6.05c1.65-1.72,4.05-2.76,7.2-3.09l5.62-0.65c0-2.14-0.48-3.61-1.43-4.39
			c-0.95-0.79-2.03-1.18-3.23-1.18c-1.48,0-2.87,0.32-4.2,0.98c-1.32,0.66-2.53,1.49-3.64,2.49l-1.15-5.07
			c1.34-0.93,2.75-1.64,4.23-2.1c1.5-0.47,3.21-0.7,5.16-0.7c1.2,0,2.45,0.17,3.73,0.5c1.29,0.34,2.45,0.89,3.49,1.66
			c1.07,0.77,1.93,1.78,2.61,3.04c0.67,1.25,0.99,2.8,0.99,4.65v10.94c0,1.04,0.09,2.15,0.26,3.31c0.16,1.18,0.5,2.26,1,3.26H336.73
			z"/>
		<path class="st55" d="M353.2,115.57v2.31c0.9-0.9,1.96-1.59,3.18-2.08c1.22-0.49,2.49-0.73,3.8-0.73c3.2,0,5.74,0.93,7.6,2.81
			c1.86,1.88,2.78,4.44,2.78,7.68v16.86h-6.57v-15.91c0-2.04-0.46-3.7-1.38-4.97c-0.92-1.27-2.21-1.91-3.9-1.91
			c-1.54,0-2.83,0.63-3.88,1.89c-1.06,1.25-1.58,2.99-1.58,5.19v15.71h-6.52v-26.86H353.2z"/>
	</g>
	<polygon class="st55" points="375.18,142.42 375.18,105.78 381.71,105.78 381.71,125 390.25,115.57 397.22,115.57 386.83,127.06 
		398.53,142.42 391.05,142.42 381.71,130.23 381.71,142.42 	"/>
	<g>
		<path class="st55" d="M103.68,108.47l-7.26-2.39C92.89,116.09,84.3,123.3,84.3,123.3v-16.02h-7.27v35.12h7.27v-18.34l11.58,18.34
			h9.15l-12.93-18.85C92.11,123.55,100.33,118.21,103.68,108.47 M152.85,131.62c0-3.1-2.22-4.72-4.9-4.72h-6.17v9.62h6.17
			C150.66,136.52,152.85,134.71,152.85,131.62 M141.69,121.46h7.81c1.36-1.03,2.13-2.57,2.13-4.36c0-2.32-1.3-4.21-4.29-4.21h-5.65
			V121.46z M160.51,131.62c0,6.82-4.75,10.78-11.98,10.78h-13.82v-35.12h14.05c6.08,0,10.16,3.82,10.16,8.8
			c0,2.85-1.21,5.21-3.41,6.83C158.22,124.5,160.51,127.38,160.51,131.62 M115.27,136.27h14.27v6.13H108.1v-35.12h20.99l-0.9,5.87
			h-13.01v7.96h11.04V127h-10.94V136.27z"/>
	</g>
	<path class="st157" d="M48.95,128.6c-0.16-1-0.43-1.98-0.84-2.88c-1.27-2.75-3.04-5.06-5.7-6.61c-4.14-2.42-9.14-2.4-13.23,0.08
		c-1.85,1.12-3.38,2.73-4.36,4.67c-0.33,0.66-0.6,1.34-0.82,2.04c-1.08,3.42-1.04,8.04,0.91,11.16c0.63,1.03,1.55,1.89,2.67,2.33
		c1.12,0.43,2.45,0.38,3.46-0.27c1.3-0.84,1.53-2.44,1.29-3.87c-0.31-1.82-0.54-3.61,0.13-5.4c0.21-0.57,0.52-1.11,0.95-1.54
		c0.27-0.26,0.58-0.46,0.92-0.62c0.7-0.35,1.51-0.5,2.29-0.38c1.35,0.22,2.46,1.27,3.06,2.5c0.6,1.23,0.76,2.63,0.82,4
		c0.29,5.97-1.14,12.15-2.66,17.89c-0.16,0.59-0.32,1.18-0.49,1.77c-0.13,0.45-0.36,1.04-0.07,1.47c0.13,0.19,0.32,0.32,0.54,0.41
		c0.88,0.36,1.61-0.18,2.2-0.79c3.5-3.52,5.74-8.06,7.28-12.74c0.57-1.75,1.06-3.52,1.4-5.33C49.14,134.04,49.4,131.21,48.95,128.6"
		/>
	<path class="st157" d="M74.02,101.01c0-0.9-0.79-1.49-1.64-1.46c-0.87,0.03-1.67,0.47-2.46,0.78c-15.4,5.86-32.77,6.97-49,4.63
		c-2.78-0.4-5.59-0.96-8.38-1.4c-1.74-0.27-3.47-0.67-5.23-0.8c-1.5-0.12-3.37-0.17-4.59,0.87c-1.6,1.38-1.48,4-0.57,5.74
		c1.09,2.07,3,3.64,4.98,4.82c1.93,1.15,4.23,2.38,6.54,2.23c6.2-0.4,12.39-0.99,18.55-1.8c10.51-1.36,21.53-2.65,31.41-6.73
		c3.22-1.33,6.41-2.99,9.18-5.15C73.3,102.37,74.02,101.74,74.02,101.01"/>
	<path class="st158" d="M29.85,95.73c0,3.34,2.71,6.06,6.05,6.06c3.35,0,6.06-2.71,6.06-6.06c0-0.5-0.11-1-0.33-1.45
		c-0.52-1.1-1.1-1.63-1.05-2.95c0.09-1.78-2.2-1.8-3.42-1.8c-1.34,0-2.76,0.18-3.97,0.79c-0.96,0.48-1.79,1.23-2.38,2.14
		c-0.6,0.93-0.94,2.02-0.96,3.14C29.85,95.64,29.85,95.68,29.85,95.73"/>
</g>
</svg>
