<?xml version="1.0" encoding="utf-8"?>
<!-- Generator: Adobe Illustrator 23.0.2, SVG Export Plug-In . SVG Version: 6.00 Build 0)  -->
<svg version="1.1" id="Layer_1" xmlns="http://www.w3.org/2000/svg" xmlns:xlink="http://www.w3.org/1999/xlink" x="0px" y="0px"
	 viewBox="0 0 400 245" style="enable-background:new 0 0 400 245;" xml:space="preserve">
<style type="text/css">
	.st0{fill:#20D6F5;}
	.st1{fill:#333333;}
	.st2{fill:url(#SVGID_1_);}
	.st3{fill:url(#SVGID_2_);}
	.st4{fill:url(#SVGID_3_);}
	.st5{fill:url(#SVGID_4_);}
	.st6{fill:url(#SVGID_5_);}
	.st7{fill:url(#SVGID_6_);}
	.st8{fill:url(#SVGID_7_);}
	.st9{fill:url(#SVGID_8_);}
	.st10{fill:url(#SVGID_9_);}
	.st11{fill:url(#SVGID_10_);}
	.st12{fill:url(#SVGID_11_);}
	.st13{fill:url(#SVGID_12_);}
	.st14{fill:#F37032;}
	.st15{fill:#58595B;}
	.st16{fill:#FFFFFF;}
	.st17{fill:#2C2523;}
	.st18{fill-rule:evenodd;clip-rule:evenodd;fill:#337E3D;}
	.st19{fill-rule:evenodd;clip-rule:evenodd;fill:#8BBF45;}
	.st20{fill:#2A2E7C;}
	.st21{fill:#43B4E4;}
	.st22{fill:url(#SVGID_13_);}
	.st23{fill:url(#SVGID_14_);}
	.st24{fill:url(#SVGID_15_);}
	.st25{fill:url(#SVGID_16_);}
	.st26{fill:url(#SVGID_17_);}
	.st27{fill:url(#SVGID_18_);}
	.st28{fill:url(#SVGID_19_);}
	.st29{fill:#E1251B;}
	.st30{fill:none;}
	.st31{fill:#4D4D4D;}
	.st32{fill:#A0CC40;}
	.st33{fill:#A682B8;}
	.st34{fill:#917A81;}
	.st35{fill:#E1496D;}
	.st36{fill:#C82A5C;}
	.st37{fill:#EA8096;}
	.st38{fill:#C04A7D;}
	.st39{fill:#C9DF91;}
	.st40{fill:#BD8549;}
	.st41{fill:#8B63A9;}
	.st42{fill:#0078BA;}
	.st43{fill:#231F20;}
	.st44{fill:#536657;}
	.st45{fill:#00A75D;}
	.st46{fill:#182B4F;}
	.st47{fill:#3665B0;}
	.st48{fill:#008FC8;}
	.st49{fill:#00A9E8;}
	.st50{fill:#29C2E3;}
	.st51{fill-rule:evenodd;clip-rule:evenodd;fill:url(#in_sf_base_1_);}
	.st52{fill-rule:evenodd;clip-rule:evenodd;fill:url(#in_sf_base_2_);}
	.st53{fill-rule:evenodd;clip-rule:evenodd;fill:url(#SVGID_20_);}
	.st54{fill-rule:evenodd;clip-rule:evenodd;fill:url(#out_sf_base_1_);}
	.st55{opacity:0.74;fill-rule:evenodd;clip-rule:evenodd;fill:url(#SVGID_21_);}
	.st56{fill-rule:evenodd;clip-rule:evenodd;fill:url(#in_up_right_1_);}
	.st57{fill-rule:evenodd;clip-rule:evenodd;fill:url(#in_up_right_2_);}
	.st58{fill-rule:evenodd;clip-rule:evenodd;fill:url(#SVGID_22_);}
	.st59{opacity:0.9;fill-rule:evenodd;clip-rule:evenodd;fill:url(#SVGID_23_);}
	.st60{fill:#241D1E;}
	.st61{fill:#727172;}
	.st62{fill:#5C5B5B;}
	.st63{opacity:0.2;fill-rule:evenodd;clip-rule:evenodd;fill:url(#SVGID_24_);}
	.st64{opacity:0.2;fill-rule:evenodd;clip-rule:evenodd;fill:url(#SVGID_25_);fill-opacity:0.42;}
	.st65{opacity:0.5;fill:#C5C5C4;}
	.st66{fill-rule:evenodd;clip-rule:evenodd;fill:url(#SVGID_26_);}
	.st67{opacity:0.9;fill-rule:evenodd;clip-rule:evenodd;fill:url(#SVGID_27_);}
	.st68{fill:url(#wing_low_sf_1_);}
	.st69{fill-rule:evenodd;clip-rule:evenodd;fill:url(#SVGID_28_);}
	.st70{fill-rule:evenodd;clip-rule:evenodd;fill:url(#SVGID_29_);}
	.st71{fill-rule:evenodd;clip-rule:evenodd;fill:url(#SVGID_30_);}
	.st72{fill-rule:evenodd;clip-rule:evenodd;fill:url(#SVGID_31_);}
	.st73{fill-rule:evenodd;clip-rule:evenodd;fill:#454242;}
	.st74{fill:#C5C5C4;}
	.st75{fill:url(#SVGID_32_);fill-opacity:0.8;}
	.st76{fill:#454242;}
	.st77{fill-rule:evenodd;clip-rule:evenodd;fill:url(#SVGID_33_);}
	.st78{fill-rule:evenodd;clip-rule:evenodd;fill:#DADBDA;}
	.st79{fill-rule:evenodd;clip-rule:evenodd;fill:url(#SVGID_34_);}
	.st80{fill-rule:evenodd;clip-rule:evenodd;fill:url(#SVGID_35_);}
	.st81{fill-rule:evenodd;clip-rule:evenodd;fill:url(#SVGID_36_);}
	.st82{fill-rule:evenodd;clip-rule:evenodd;fill:url(#SVGID_37_);}
	.st83{fill:#005BAB;}
	.st84{fill:url(#SVGID_38_);}
	.st85{fill:url(#SVGID_39_);}
	.st86{fill:#ED2924;}
	.st87{fill:#2F3A79;}
	.st88{fill-rule:evenodd;clip-rule:evenodd;fill:#E13A3E;}
	.st89{fill-rule:evenodd;clip-rule:evenodd;fill:#231F20;}
</style>
<g>
	<g>
		<linearGradient id="SVGID_1_" gradientUnits="userSpaceOnUse" x1="36.1157" y1="124.1449" x2="58.2997" y2="124.1449">
			<stop  offset="0" style="stop-color:#27A8E0"/>
			<stop  offset="1" style="stop-color:#204496"/>
		</linearGradient>
		<circle class="st2" cx="47.21" cy="124.14" r="11.09"/>
		<linearGradient id="SVGID_2_" gradientUnits="userSpaceOnUse" x1="1.9243" y1="138.666" x2="41.5087" y2="138.666">
			<stop  offset="0" style="stop-color:#27A8E0"/>
			<stop  offset="1" style="stop-color:#204496"/>
		</linearGradient>
		<path class="st3" d="M24.77,124.15c0-2.17,0.31-4.27,0.89-6.25l-23.74-13.7v46.1l39.58,22.85v-27.29
			C31.88,143.33,24.77,134.57,24.77,124.15z"/>
		<linearGradient id="SVGID_3_" gradientUnits="userSpaceOnUse" x1="8.0095" y1="89.9715" x2="86.4158" y2="89.9715">
			<stop  offset="0" style="stop-color:#27A8E0"/>
			<stop  offset="1" style="stop-color:#204496"/>
		</linearGradient>
		<path class="st4" d="M47.21,71.86L8.01,94.49l23.54,13.59c4.04-3.94,9.56-6.37,15.66-6.37c6.1,0,11.62,2.43,15.66,6.38
			l23.54-13.59L47.21,71.86z"/>
		<linearGradient id="SVGID_4_" gradientUnits="userSpaceOnUse" x1="52.9067" y1="138.6718" x2="92.4911" y2="138.6718">
			<stop  offset="0" style="stop-color:#27A8E0"/>
			<stop  offset="1" style="stop-color:#204496"/>
		</linearGradient>
		<path class="st5" d="M68.76,117.9c0.57,1.98,0.89,4.08,0.89,6.24c0,10.42-7.11,19.18-16.74,21.71v27.29l39.58-22.85V104.2
			L68.76,117.9z"/>
	</g>
	<g>
		<linearGradient id="SVGID_5_" gradientUnits="userSpaceOnUse" x1="114.7965" y1="123.1188" x2="151.5844" y2="123.1188">
			<stop  offset="0" style="stop-color:#27A8E0"/>
			<stop  offset="1" style="stop-color:#204496"/>
		</linearGradient>
		<polygon class="st6" points="137.75,121.98 150.85,101.16 140.35,101.16 129.54,118.89 124.02,118.89 124.02,101.16 114.8,101.16 
			114.8,145.08 124.02,145.08 124.02,126.21 129.42,126.21 140.47,145.08 151.58,145.08 		"/>
		<linearGradient id="SVGID_6_" gradientUnits="userSpaceOnUse" x1="153.3924" y1="127.5082" x2="185.6747" y2="127.5082">
			<stop  offset="0" style="stop-color:#27A8E0"/>
			<stop  offset="1" style="stop-color:#204496"/>
		</linearGradient>
		<path class="st7" d="M181.92,113.5c-2.51-2.89-6.64-4.37-12.25-4.4c-5.62-0.03-9.77,1.4-12.33,4.26
			c-2.58,2.87-3.91,7.61-3.94,14.08c-0.04,6.47,1.24,11.21,3.78,14.1c2.53,2.87,6.67,4.34,12.28,4.37c5.62,0.03,9.76-1.38,12.3-4.21
			c2.56-2.84,3.88-7.57,3.91-14.08C185.71,121.16,184.45,116.41,181.92,113.5z M175.28,136.67c-1.1,1.69-3.05,2.54-5.78,2.52
			c-2.73-0.02-4.68-0.89-5.78-2.59c-1.08-1.67-1.6-4.65-1.57-9.12c0.03-4.47,0.56-7.44,1.64-9.09c1.1-1.69,3.07-2.54,5.84-2.52
			c2.73,0.02,4.67,0.89,5.75,2.59c1.06,1.67,1.57,4.65,1.54,9.11C176.9,132.05,176.36,135.02,175.28,136.67z"/>
		<linearGradient id="SVGID_7_" gradientUnits="userSpaceOnUse" x1="191.7229" y1="127.1201" x2="213.1129" y2="127.1201">
			<stop  offset="0" style="stop-color:#27A8E0"/>
			<stop  offset="1" style="stop-color:#204496"/>
		</linearGradient>
		<path class="st8" d="M200.09,115.44l-0.12,0.23h-0.82l-0.83-6.01l-6.6,0.32v35.11h8.45v-17.72c0-3.04,0.83-5.49,2.47-7.28
			c1.65-1.8,3.8-2.71,6.38-2.71c1.2,0,2.39,0.16,3.55,0.46l0.54-8.25c-1.03-0.28-2.2-0.42-3.49-0.42
			C205.42,109.16,202.3,111.21,200.09,115.44z"/>
		<linearGradient id="SVGID_8_" gradientUnits="userSpaceOnUse" x1="216.6028" y1="127.4186" x2="246.6151" y2="127.4186">
			<stop  offset="0" style="stop-color:#27A8E0"/>
			<stop  offset="1" style="stop-color:#204496"/>
		</linearGradient>
		<path class="st9" d="M232.12,109.1c-5.18,0-9.09,1.54-11.64,4.56c-2.57,3.05-3.87,7.52-3.87,13.28c0,6.27,1.44,11.02,4.28,14.13
			c2.83,3.1,7.31,4.67,13.33,4.67c4.25,0,8.07-0.73,11.35-2.16l-0.9-6.61c-2.99,1.08-6.12,1.63-9.32,1.63
			c-3.24,0-5.68-0.68-7.27-2.01c-1.6-1.34-2.53-3.59-2.78-6.69l-0.04-0.47h21.17c0.12-1.04,0.19-2.36,0.19-3.93
			c0-5.47-1.28-9.63-3.8-12.34C240.31,110.47,236.71,109.1,232.12,109.1z M225.08,124.15l0.03-0.46c0.21-2.79,0.83-4.73,1.9-5.93
			c1.08-1.2,2.81-1.82,5.16-1.82c4.4,0,6.7,2.61,6.82,7.77l0.01,0.44H225.08z"/>
		<linearGradient id="SVGID_9_" gradientUnits="userSpaceOnUse" x1="251.7551" y1="123.1484" x2="282.1507" y2="123.1484">
			<stop  offset="0" style="stop-color:#27A8E0"/>
			<stop  offset="1" style="stop-color:#204496"/>
		</linearGradient>
		<path class="st10" d="M272.88,137.88c-4.26,0-7.27-1.1-8.94-3.27c-1.67-2.17-2.48-6-2.48-11.73c0-5.45,0.8-9.11,2.45-11.2
			c1.65-2.09,4.61-3.15,8.79-3.15c3.08,0,5.91,0.45,8.41,1.33l0.91-7.78c-2.97-1.13-6.3-1.7-9.92-1.7
			c-13.69,0-20.35,7.34-20.35,22.44c0,7.86,1.63,13.74,4.85,17.49c3.2,3.72,8.2,5.61,14.84,5.61c3.9,0,7.5-0.76,10.7-2.27
			l-0.91-7.31C278.64,137.36,275.83,137.88,272.88,137.88z"/>
		<linearGradient id="SVGID_10_" gradientUnits="userSpaceOnUse" x1="286.0224" y1="127.5081" x2="318.3036" y2="127.5081">
			<stop  offset="0" style="stop-color:#27A8E0"/>
			<stop  offset="1" style="stop-color:#204496"/>
		</linearGradient>
		<path class="st11" d="M302.19,109.1c-5.62,0-9.76,1.46-12.31,4.33c-2.56,2.89-3.86,7.64-3.86,14.11c0,6.47,1.3,11.21,3.86,14.08
			c2.55,2.86,6.69,4.3,12.31,4.3c5.62,0,9.75-1.44,12.28-4.28c2.54-2.85,3.83-7.6,3.83-14.11c0-6.47-1.29-11.22-3.83-14.11
			C311.94,110.56,307.81,109.1,302.19,109.1z M307.96,136.64c-1.09,1.7-3.04,2.56-5.77,2.56c-2.73,0-4.68-0.86-5.8-2.55
			c-1.09-1.66-1.62-4.64-1.62-9.11c0-4.47,0.52-7.44,1.59-9.1c1.1-1.7,3.06-2.56,5.83-2.56c2.73,0,4.67,0.86,5.77,2.56
			c1.07,1.66,1.59,4.64,1.59,9.1C309.55,132,309.03,134.98,307.96,136.64z"/>
		<linearGradient id="SVGID_11_" gradientUnits="userSpaceOnUse" x1="324.3521" y1="127.0601" x2="354.0056" y2="127.0601">
			<stop  offset="0" style="stop-color:#27A8E0"/>
			<stop  offset="1" style="stop-color:#204496"/>
		</linearGradient>
		<path class="st12" d="M341.96,109.04c-3.78,0-7.04,1.17-9.69,3.48l-0.44,0.39l-1.49-3.37l-5.98,0.37v35.17h8.45v-25.63l0.08-0.11
			c0.64-0.9,1.57-1.62,2.78-2.14c1.19-0.52,2.42-0.78,3.67-0.78c4.11,0,6.29,2.09,6.29,6.05v22.62h8.39v-22.62
			c0-4.33-1.09-7.68-3.23-9.98C348.64,110.2,345.67,109.04,341.96,109.04z"/>
		<linearGradient id="SVGID_12_" gradientUnits="userSpaceOnUse" x1="359.2891" y1="123.1188" x2="398.0757" y2="123.1188">
			<stop  offset="0" style="stop-color:#27A8E0"/>
			<stop  offset="1" style="stop-color:#204496"/>
		</linearGradient>
		<polygon class="st13" points="385.29,122.1 397.52,101.16 387.07,101.16 381.4,112.09 379.19,116.62 378.48,116.62 376.21,112.08 
			370.54,101.16 359.6,101.16 371.77,122.34 359.29,145.08 369.94,145.08 376.21,132.6 378.41,127.94 379.14,127.94 381.29,132.55 
			387.67,145.08 398.08,145.08 		"/>
	</g>
</g>
</svg>
