<?xml version="1.0" encoding="utf-8"?>
<!-- Generator: Adobe Illustrator 23.0.2, SVG Export Plug-In . SVG Version: 6.00 Build 0)  -->
<svg version="1.1" id="Layer_1" xmlns="http://www.w3.org/2000/svg" xmlns:xlink="http://www.w3.org/1999/xlink" x="0px" y="0px"
	 viewBox="0 0 400 245" style="enable-background:new 0 0 400 245;" xml:space="preserve">
<style type="text/css">
	.st0{fill:#20D6F5;}
	.st1{fill:#333333;}
	.st2{fill:url(#SVGID_1_);}
	.st3{fill:url(#SVGID_2_);}
	.st4{fill:url(#SVGID_3_);}
	.st5{fill:url(#SVGID_4_);}
	.st6{fill:url(#SVGID_5_);}
	.st7{fill:url(#SVGID_6_);}
	.st8{fill:url(#SVGID_7_);}
	.st9{fill:url(#SVGID_8_);}
	.st10{fill:url(#SVGID_9_);}
	.st11{fill:url(#SVGID_10_);}
	.st12{fill:url(#SVGID_11_);}
	.st13{fill:url(#SVGID_12_);}
	.st14{fill:#F37032;}
	.st15{fill:#58595B;}
	.st16{fill:#FFFFFF;}
	.st17{fill:#2C2523;}
	.st18{fill-rule:evenodd;clip-rule:evenodd;fill:#337E3D;}
	.st19{fill-rule:evenodd;clip-rule:evenodd;fill:#8BBF45;}
	.st20{fill:#2A2E7C;}
	.st21{fill:#43B4E4;}
	.st22{fill:url(#SVGID_13_);}
	.st23{fill:url(#SVGID_14_);}
	.st24{fill:url(#SVGID_15_);}
	.st25{fill:url(#SVGID_16_);}
	.st26{fill:url(#SVGID_17_);}
	.st27{fill:url(#SVGID_18_);}
	.st28{fill:url(#SVGID_19_);}
	.st29{fill:#E1251B;}
	.st30{fill:none;}
	.st31{fill:#4D4D4D;}
	.st32{fill:#A0CC40;}
	.st33{fill:#A682B8;}
	.st34{fill:#917A81;}
	.st35{fill:#E1496D;}
	.st36{fill:#C82A5C;}
	.st37{fill:#EA8096;}
	.st38{fill:#C04A7D;}
	.st39{fill:#C9DF91;}
	.st40{fill:#BD8549;}
	.st41{fill:#8B63A9;}
	.st42{fill:#0078BA;}
	.st43{fill:#231F20;}
	.st44{fill:#536657;}
	.st45{fill:#00A75D;}
	.st46{fill:#182B4F;}
	.st47{fill:#3665B0;}
	.st48{fill:#008FC8;}
	.st49{fill:#00A9E8;}
	.st50{fill:#29C2E3;}
	.st51{fill-rule:evenodd;clip-rule:evenodd;fill:url(#in_sf_base_1_);}
	.st52{fill-rule:evenodd;clip-rule:evenodd;fill:url(#in_sf_base_2_);}
	.st53{fill-rule:evenodd;clip-rule:evenodd;fill:url(#SVGID_20_);}
	.st54{fill-rule:evenodd;clip-rule:evenodd;fill:url(#out_sf_base_1_);}
	.st55{opacity:0.74;fill-rule:evenodd;clip-rule:evenodd;fill:url(#SVGID_21_);}
	.st56{fill-rule:evenodd;clip-rule:evenodd;fill:url(#in_up_right_1_);}
	.st57{fill-rule:evenodd;clip-rule:evenodd;fill:url(#in_up_right_2_);}
	.st58{fill-rule:evenodd;clip-rule:evenodd;fill:url(#SVGID_22_);}
	.st59{opacity:0.9;fill-rule:evenodd;clip-rule:evenodd;fill:url(#SVGID_23_);}
	.st60{fill:#241D1E;}
	.st61{fill:#727172;}
	.st62{fill:#5C5B5B;}
	.st63{opacity:0.2;fill-rule:evenodd;clip-rule:evenodd;fill:url(#SVGID_24_);}
	.st64{opacity:0.2;fill-rule:evenodd;clip-rule:evenodd;fill:url(#SVGID_25_);fill-opacity:0.42;}
	.st65{opacity:0.5;fill:#C5C5C4;}
	.st66{fill-rule:evenodd;clip-rule:evenodd;fill:url(#SVGID_26_);}
	.st67{opacity:0.9;fill-rule:evenodd;clip-rule:evenodd;fill:url(#SVGID_27_);}
	.st68{fill:url(#wing_low_sf_1_);}
	.st69{fill-rule:evenodd;clip-rule:evenodd;fill:url(#SVGID_28_);}
	.st70{fill-rule:evenodd;clip-rule:evenodd;fill:url(#SVGID_29_);}
	.st71{fill-rule:evenodd;clip-rule:evenodd;fill:url(#SVGID_30_);}
	.st72{fill-rule:evenodd;clip-rule:evenodd;fill:url(#SVGID_31_);}
	.st73{fill-rule:evenodd;clip-rule:evenodd;fill:#454242;}
	.st74{fill:#C5C5C4;}
	.st75{fill:url(#SVGID_32_);fill-opacity:0.8;}
	.st76{fill:#454242;}
	.st77{fill-rule:evenodd;clip-rule:evenodd;fill:url(#SVGID_33_);}
	.st78{fill-rule:evenodd;clip-rule:evenodd;fill:#DADBDA;}
	.st79{fill-rule:evenodd;clip-rule:evenodd;fill:url(#SVGID_34_);}
	.st80{fill-rule:evenodd;clip-rule:evenodd;fill:url(#SVGID_35_);}
	.st81{fill-rule:evenodd;clip-rule:evenodd;fill:url(#SVGID_36_);}
	.st82{fill-rule:evenodd;clip-rule:evenodd;fill:url(#SVGID_37_);}
	.st83{fill:#005BAB;}
	.st84{fill:url(#SVGID_38_);}
	.st85{fill:url(#SVGID_39_);}
	.st86{fill:#ED2924;}
	.st87{fill:#2F3A79;}
	.st88{fill-rule:evenodd;clip-rule:evenodd;fill:#E13A3E;}
	.st89{fill-rule:evenodd;clip-rule:evenodd;fill:#231F20;}
</style>
<g>
	<path class="st14" d="M20.91,108.57H2.66c0,0,20.43,25.48,20.92,26.09c-0.49,0.61-20.92,26.14-20.92,26.14h18.51l20.67-26.14
		l-20.68-26.09H20.91z"/>
	<path class="st15" d="M92.66,108.57l-20.67,26.09l20.66,26.14h18.51c0,0-20.42-25.52-20.91-26.14
		c0.49-0.61,20.91-26.09,20.91-26.09H92.92H92.66z"/>
	<rect x="54.89" y="82.46" class="st15" width="15.75" height="78.33"/>
	<path class="st15" d="M379.99,107.37c-5.69,0-11.56,3.08-15.06,8.6c-2.9-5.19-7.46-8.6-15.02-8.6c-4.17,0-10.61,2.01-14.56,7.64
		v-6.44h-13.97v52.22h14.9v-26.95c0-10.51,3.51-14.37,8.93-14.37c6.2,0,6.71,6.12,6.71,11.03v30.29h14.88v-26.95
		c0-10.51,3.51-14.37,8.93-14.37c6.19,0,6.71,6.12,6.71,11.03v30.29h14.89v-33.4C397.34,113.54,390.62,107.37,379.99,107.37"/>
	<path class="st15" d="M166.43,134.7c0,15.37-12.78,27.84-28.53,27.84c-15.76,0-28.53-12.47-28.53-27.84
		c0-15.37,12.77-27.84,28.53-27.84C153.65,106.86,166.43,119.33,166.43,134.7 M137.9,119.23c-7.94,0-14.38,6.93-14.38,15.47
		c0,8.54,6.43,15.47,14.38,15.47c7.94,0,14.37-6.93,14.37-15.47C152.27,126.16,145.84,119.23,137.9,119.23"/>
	<path class="st15" d="M285.13,106.86c-15.76,0-28.53,12.46-28.53,27.84c0,1.16,0.07,2.31,0.21,3.43c0.03,0.29,0.07,0.57,0.12,0.85
		c0.25,1.54-0.23,2.84-0.7,3.75c-0.09,0.17-0.19,0.33-0.29,0.49c-2.57,4.18-6.98,6.95-11.99,6.95c-7.94,0-14.37-6.93-14.37-15.47
		c0-8.54,6.43-15.47,14.37-15.47c2.96,0,5.69,0.98,7.97,2.63l6.56-11.1c-4.26-2.47-9.22-3.9-14.53-3.9
		c-15.76,0-28.53,12.46-28.53,27.84c0,15.37,12.77,27.84,28.53,27.84c8.1,0,15.4-3.3,20.58-8.59c5.19,5.29,12.49,8.59,20.6,8.59
		c15.75,0,28.53-12.47,28.53-27.84C313.66,119.33,300.88,106.86,285.13,106.86 M285.13,150.18c-7.94,0-14.38-6.93-14.38-15.47
		c0-8.54,6.44-15.47,14.38-15.47c7.93,0,14.38,6.93,14.38,15.47C299.5,143.24,293.06,150.18,285.13,150.18"/>
	<path class="st15" d="M212.67,113.1c-3.35-2.49-10.88-6.17-19.6-6.17c-6.62,0-12.89,2.06-16.77,5.77c-3.03,2.9-4.63,6.7-4.63,11.01
		c0,11.11,8.39,13.49,15.12,15.39c4.99,1.41,9.33,2.53,9.33,6.44c0,1.64-0.6,2.97-1.76,3.96c-1.85,1.58-4.73,1.92-6.78,1.71
		c-4.33-0.45-8.77-2.38-12.35-5.44l-0.63-0.53l-5.17,10.55l0.43,0.33c4.65,3.57,12.1,6.1,18.52,6.29
		c7.26,0.22,13.91-1.87,18.07-5.75c3.3-3.07,4.96-7.06,4.96-11.82c0-11.58-9.11-14.21-16.35-16.34c-4.57-1.34-8.18-2.39-8.18-5.29
		c0-1.41,0.5-2.57,1.49-3.46c1.39-1.24,3.71-1.89,6.22-1.74c4.65,0.28,9.66,2.76,12.47,4.78L212.67,113.1z"/>
</g>
</svg>
