<svg xmlns="http://www.w3.org/2000/svg" width="200" height="39" viewBox="0 0 200 39"><g fill="#FFF" fill-rule="evenodd"><path d="M17.586 27.062l-13.11-9.524.51-.701 12.408 9.015L31.202 6.848l-4.898-3.56-10.387 14.295-6.092-4.426.51-.701 5.39 3.917L26.113 2.078l6.301 4.578z"/><path d="M16.7 21.07L4.577 12.262 0 18.563l15.697 11.405.51-.701L1.21 18.372l3.559-4.898L16.89 22.28 27.832 7.222l-.7-.51zm37.34 5.306v4.44H37.223V1.808h4.76v24.567zm13.11 4.984c-6.145 0-10.177-3.972-10.177-9.993V8.44h4.6v12.283c0 3.886 2.123 6.246 5.578 6.246 3.483 0 5.566-2.401 5.566-6.246V8.44h4.6v12.928c0 6.021-3.991 9.993-10.166 9.993zm25.572 0c-6.666 0-11.728-5.073-11.728-11.756 0-6.684 5.05-11.71 11.74-11.71 5.53 0 9.853 3.387 11.095 8.52h-4.558c-1.177-2.573-3.632-4.129-6.549-4.129-4.029 0-7.045 3.183-7.045 7.33s3.058 7.353 7.045 7.353c2.929 0 5.3-1.58 6.52-4.3h4.64c-1.23 5.228-5.635 8.692-11.16 8.692zm16.108-.545h4.6V8.44h-4.6v22.376zm-.076-25.843h4.753V.227h-4.753v4.745zm21.156 21.996c4.22 0 7.33-3.182 7.33-7.34 0-4.19-3.11-7.342-7.33-7.342-4.217 0-7.3 3.123-7.3 7.341s3.083 7.341 7.3 7.341zM141.52.418v30.398h-3.478l-.592-2.538c-2.014 1.94-4.763 3.095-7.9 3.095-6.767 0-11.634-5.038-11.634-11.746 0-6.736 4.867-11.733 11.634-11.733 2.87 0 5.416.959 7.371 2.603V.417h4.6zm6.968 30.397h4.6V8.44h-4.6v22.376zm-.077-25.843h4.753V.227h-4.753v4.745zm24.582 21.665v4.178h-3.42c-4.901 0-7.927-3.025-7.927-7.968V12.38h-4.002v-.89l7.783-8.274h.783V8.44h6.658v3.94h-6.622v10.106c0 2.668 1.485 4.152 4.194 4.152h2.553zm26.786-18.198L189.498 31.22c-2.528 5.625-4.755 7.616-9.314 7.616h-2.275v-4.143h1.919c2.96 0 3.87-.865 5.51-4.445l.502-1.055-9.744-20.755h5.003l7.111 15.602 6.673-15.602h4.896z"/></g></svg>