<?xml version="1.0" encoding="UTF-8"?>
<!-- Generator: Adobe Illustrator 24.2.2, SVG Export Plug-In . SVG Version: 6.00 Build 0)  -->
<svg version="1.1" id="Layer_1" xmlns="http://www.w3.org/2000/svg" xmlns:xlink="http://www.w3.org/1999/xlink" x="0px" y="0px" viewBox="0 0 1687.1 608" style="enable-background:new 0 0 1687.1 608;" xml:space="preserve">
<style type="text/css">
	.st0{fill:#6A2B82;}
	.st1{fill:#81B350;}
	.st2{fill:#2180AA;}
	.st3{fill:#2F619B;}
	.st4{fill:#2A4899;}
	.st5{fill:#522D84;}
	.st6{fill:#21476F;}
	.st7{fill:#9B2378;}
	.st8{fill:#35B08B;}
	.st9{fill:#BC1E6B;}
	.st10{fill:#002060;}
	.st11{opacity:0.16;}
</style>
<g>
	<polygon class="st0" points="298.9,303.8 151.9,151.9 298.9,0  "/>
	<polygon class="st1" points="151.9,151.9 298.9,303.8 151.9,455.7  "/>
	<polygon class="st2" points="298.9,607.8 446,455.9 298.9,304  "/>
	<polygon class="st3" points="298.9,304 151.9,455.9 298.9,607.8  "/>
	<polygon class="st4" points="151.9,152.1 4.8,304 151.9,455.9  "/>
	<polygon class="st5" points="4.8,304 151.9,152.1 4.8,0.2  "/>
	<polygon class="st6" points="151.9,455.9 298.9,304 151.9,152.1  "/>
	<polygon class="st0" points="4.8,607.5 151.9,455.6 4.8,303.7  "/>
	<path class="st7" d="M298.9,304c49.3-51.1,98.6-102.3,147.9-153.4C397.5,100.4,348.2,50.3,298.9,0.2V304z"/>
	<path class="st8" d="M298.9,607.7c48.9-50.5,97.9-101,146.8-151.5l157,151.5H298.9z"/>
	<path class="st9" d="M598,1c-50.9,50.3-101.7,100.6-152.6,150.9C396.2,101.6,347.1,51.3,297.9,1C397.9,1,498,1,598,1"/>
	<path class="st10" d="M679.4,316.6l-36.6,38v101h-39.4v-299h39.4v147.9l132.9-147.9h47.6l-117.7,132l126.9,167h-47.2L679.4,316.6z"/>
	<path class="st10" d="M968.6,267.5c-5.8-1-12-1.4-18.7-1.4c-24.9,0-41.8,10.6-50.7,31.8v157.7h-38V233.4h37l0.6,25.7   c12.5-19.8,30.1-29.8,53-29.8c7.4,0,13,1,16.8,2.9V267.5z"/>
	<path class="st10" d="M1079.6,400l51.8-166.5h40.7l-89.3,256.5c-13.8,37-35.8,55.4-65.9,55.4l-7.2-0.6l-14.2-2.7v-30.8l10.3,0.8   c12.9,0,22.9-2.6,30.1-7.8c7.2-5.2,13.1-14.7,17.8-28.5l8.4-22.6l-79.3-219.7h41.5L1079.6,400z"/>
	<path class="st10" d="M1393.5,347c0,33.8-7.7,61.1-23.2,81.7c-15.5,20.7-36.4,31-62.8,31c-27,0-48.2-8.6-63.7-25.7v107h-38V233.4   h34.7l1.8,24.6c15.5-19.2,37-28.7,64.5-28.7c26.7,0,47.8,10.1,63.4,30.2c15.5,20.1,23.3,48.1,23.3,84V347z M1355.6,342.7   c0-25.1-5.3-44.8-16-59.3c-10.7-14.5-25.3-21.8-43.9-21.8c-23,0-40.3,10.2-51.8,30.6v106.2c11.4,20.3,28.8,30.4,52.2,30.4   c18.2,0,32.7-7.2,43.4-21.7C1350.2,392.6,1355.6,371.1,1355.6,342.7z"/>
	<g>
		<path class="st10" d="M1687.1,362.4c-3.4,31.5-14.7,55.6-33.8,72.3c-19.1,16.7-44.5,25.1-76.3,25.1c-22.2,0-41.8-5.5-58.8-16.6    c-17-11.1-30.2-26.8-39.5-47.1c-9.3-20.3-14-43.6-14.2-69.7v-38.8c0-26.6,4.7-50.1,14-70.6c9.3-20.5,22.7-36.4,40.1-47.5    c17.5-11.2,37.5-16.7,60.3-16.7c32,0,57.3,8.6,75.9,25.9c18.5,17.2,29.3,41.1,32.3,71.7h-25.5c-6.3-50.8-33.9-76.2-82.8-76.2    c-27.1,0-48.7,10.1-64.8,30.4c-16.1,20.3-24.1,48.3-24.1,84.1v36.6c0,34.5,7.8,62.1,23.5,82.6c15.7,20.6,36.9,30.8,63.6,30.8    c26.4,0,46.3-6.3,59.8-19c13.4-12.7,21.7-31.7,24.8-57H1687.1z"/>
	</g>
	<g class="st11">
		<polygon points="294.1,304 147.1,152.1 294.1,0.1   "/>
		<polygon points="147.1,152.1 294.1,304 147.1,455.9   "/>
		<polygon points="294.1,608 441.2,456.1 294.1,304.1   "/>
		<polygon points="294.1,304.1 147.1,456.1 294.1,608   "/>
		<polygon points="147.1,152.2 0,304.1 147.1,456.1   "/>
		<polygon points="0,304.1 147.1,152.2 0,0.3   "/>
		<polygon points="147.1,456.1 294.1,304.1 147.1,152.2   "/>
		<polygon points="0,607.7 147.1,455.8 0,303.8   "/>
		<path d="M294.1,304.1C343.4,253,392.7,201.9,442,150.7C392.7,100.6,343.4,50.5,294.1,0.3V304.1z"/>
		<path d="M294.1,607.9c48.9-50.5,97.9-101,146.8-151.5l157,151.5H294.1z"/>
		<path d="M593.2,1.1C542.3,51.4,491.4,101.7,440.6,152C391.4,101.7,342.3,51.4,293.1,1.1C393.1,1.1,493.2,1.1,593.2,1.1"/>
	</g>
</g>
</svg>