<svg width="172" height="49" viewBox="0 0 172 49" xmlns="http://www.w3.org/2000/svg"><g fill="none" fill-rule="evenodd"><path d="M5.867 21.452s.021-.37.036-.55c.118-1.48.434-5.409.907-6.515 1.198-2.802 3.445-5.03 6.497-6.446.331-.154.603-.396.787-.702l2.226-3.694 2.514 4.073 2.587-2.688-2-3.24C18.762.623 17.595-.008 16.3 0c-1.297.007-2.457.652-3.102 1.723l-1.988 3.3c-2.95 1.438-6.737 4.246-8.307 9.52-.497 1.67-.727 6.138-.716 8.17l.013 2.34 3.655-3.418.01-.183zM26.99 19.57L10.274 37.777c-2.442-1.64-3.941-3.858-3.992-8.69l16.783-18.174c2.405 1.637 3.878 3.86 3.925 8.659zm3.663 1.838l-.001-.212.11-.12-.06-.239c-.02-.08-.036-.157-.053-.235l-.005-.947c-.034-6.252-2.241-9.293-5.156-11.367L32.87.293 27.883.32 21.381 7.3l-1.705 1.756.049.023L2.817 27.232l-.198.001v.21l-.11.12.06.241c.02.079.037.161.054.245l.005.938c.035 6.305 2.28 9.344 5.231 11.42L0 48.964l5.19-.028 25.267-27.528h.196zm-3.248 5.782s-.021.37-.036.55c-.118 1.479-.433 5.407-.907 6.514-1.198 2.802-3.445 5.031-6.497 6.447a1.796 1.796 0 0 0-.787.7l-2.226 3.695-2.514-4.073-2.587 2.688 2 3.241c.658 1.065 1.825 1.697 3.12 1.69 1.297-.008 2.456-.652 3.102-1.724l1.988-3.3c2.95-1.437 6.737-4.246 8.307-9.52.497-1.668.727-6.137.716-8.17l-.013-2.34-3.655 3.418-.01.183z" fill="#25EA9A"/><path class="logo-path" fill="#FFF" d="M48.575 11.979h-3.338v22.792h12.314v-3.153h-8.976zm12.665-.293c-1.022 0-1.764.732-1.764 1.74s.758 1.768 1.764 1.768c1.005 0 1.735-.744 1.735-1.768 0-1.008-.73-1.74-1.735-1.74M59.591 34.77h3.269V18.076h-3.269zm21.66-16.952c-1.705 0-3.121.564-4.652 1.436-.982-.919-2.514-1.436-4.306-1.436a9.9 9.9 0 0 0-3.559.685l-.021-.428H65.86V34.77h3.255V21.337a8.072 8.072 0 0 1 2.953-.592c2.446 0 2.729 1.37 2.729 2.4V34.77h3.254V23.975c0-.851-.021-1.702-.146-2.346 1.69-.792 2.166-.884 3.056-.884 1.762 0 2.62 1.014 2.62 3.1v10.926h3.253v-11.08c0-3.513-2.244-5.873-5.584-5.873m11.068 6.145c0-2.816 2.07-3.237 3.304-3.237 1.438 0 3.153.55 3.153 3.172v1.158h-6.457v-1.093zm3.344-6.161c-4.08 0-6.613 2.386-6.613 6.227v5.408c0 3.551 2.293 5.671 6.135 5.671 2.262 0 4.21-.655 5.791-1.948l.603-.493-2.023-1.86-.44.3c-1.085.738-2.361 1.112-3.795 1.112-2.733 0-3.048-1.49-3.048-2.61v-1.865h9.668v-3.781c0-3.858-2.347-6.161-6.278-6.161zm16.714-3.045c2.084 0 3.722.821 4.585 2.296l1.488-.747c-1.066-2.079-3.187-3.352-6.208-3.352-4.316 0-7.333 2.39-7.333 7.203v7.875c0 4.812 3.017 7.211 7.333 7.211 3.021 0 5.142-1.282 6.208-3.36l-1.488-.747c-.863 1.474-2.5 2.295-4.585 2.295-3.21 0-5.477-1.75-5.477-5.4v-7.874c0-3.65 2.266-5.4 5.477-5.4m15.8 4.546c-1.4 0-2.878.294-4.107.912v-6.751h-1.923v21.442h1.923v-13.19c1.093-.535 2.497-.88 3.871-.88 2.356 0 4.128 1.061 4.128 3.754v10.316h1.923V24.5c0-3.934-2.896-5.197-5.815-5.197m19.31 13.468c-1.037.556-2.411.894-3.738.894-2.556 0-4.63-.894-4.63-3.747 0-2.997 2.291-3.747 5.016-3.747 1.086 0 2.243.121 3.352.266v6.334zm-4.5-13.463c-2.213 0-3.712.629-4.716 1.458l1.005 1.055c.882-.557 2.043-.896 3.527-.896 4.043 0 4.64 2.015 4.685 4.105-1.237-.163-2.51-.294-3.614-.294-3.376 0-6.55 1.027-6.55 5.182 0 3.97 2.844 5.234 6.143 5.325 1.508 0 3.088-.355 4.354-1.067l.04.792h1.55v-9.23c0-3.175-.636-6.43-6.424-6.43zm11.754-6.138c-.593 0-1.09.384-1.09 1.065 0 .637.455 1.093 1.09 1.093.68 0 1.062-.498 1.062-1.093 0-.636-.426-1.064-1.062-1.064m-.975 21.734h1.922V19.56h-1.922zm12.252-15.602c-1.484 0-3.075.338-4.393 1.053l-.04-.797h-1.548v15.347h1.922v-13.19c1.071-.535 2.453-.858 3.806-.858 2.377 0 4.194 1.061 4.194 3.732v10.316h1.922V24.5c0-3.837-2.848-5.197-5.863-5.197"/></g></svg>