<svg xmlns="http://www.w3.org/2000/svg" width="74.745" height="13.291" viewBox="0 0 74.745 13.291"><path fill="#287D9D" d="M0 2.013a1.368 1.368 0 0 0 2.734 0 1.368 1.368 0 0 0-2.734 0zm4.64 0a1.368 1.368 0 0 0 2.734 0 1.368 1.368 0 0 0-2.734 0zm6.007 3.273a1.368 1.368 0 0 0 0 2.734 1.368 1.368 0 0 0 0-2.734zM4.64 11.293a1.368 1.368 0 0 0 2.734 0 1.368 1.368 0 0 0-2.734 0zm-4.64 0a1.368 1.368 0 0 0 2.734 0 1.368 1.368 0 0 0-2.734 0zm1.367-6.007a1.368 1.368 0 1 0 .001 2.735 1.368 1.368 0 0 0-.001-2.735z"/><path fill="#35C4EA" d="M8.642 11.293c0-2.006-.613-2.635-2.635-2.635a2.002 2.002 0 0 1-2.005-2.005c0-1.11.895-2.005 2.005-2.005 2.046 0 2.635-.646 2.635-2.635 0-1.11.895-2.005 2.005-2.005 1.11 0 2.005.895 2.005 2.005s-.895 2.005-2.005 2.005c-1.947 0-2.635.696-2.635 2.635 0 1.931.688 2.634 2.635 2.634 1.11 0 2.005.895 2.005 2.006a2.003 2.003 0 0 1-2.005 2.006 2.003 2.003 0 0 1-2.005-2.006zm9.379-9.529h1.516v6.529h2.212v1.451H18.02v-7.98h.001zm4.906-.356c.257 0 .48.091.671.282a.95.95 0 0 1 .282.679c0 .266-.091.489-.273.68s-.407.281-.664.281c-.265 0-.489-.091-.68-.282s-.282-.422-.282-.688c0-.257.091-.481.273-.671a.955.955 0 0 1 .673-.281zm-.746 2.427h1.483v5.899h-1.483V3.835zm6.794 0h1.475v8.063h-1.475V9.113c-.29.273-.58.473-.87.598-.29.123-.604.182-.944.182-.762 0-1.425-.299-1.98-.887s-.837-1.326-.837-2.204c0-.912.265-1.658.804-2.238.539-.58 1.193-.87 1.964-.87.356 0 .688.066.994.199.315.132.597.332.862.605v-.663h.007zm-1.558 1.218a1.49 1.49 0 0 0-1.144.489c-.307.323-.456.737-.456 1.242 0 .514.157.929.464 1.26.307.332.688.496 1.144.496.464 0 .854-.164 1.16-.488.306-.323.464-.746.464-1.268 0-.513-.158-.928-.464-1.242-.306-.331-.695-.489-1.168-.489zm4.127-1.218h1.5v2.842c0 .555.033.937.116 1.153.074.215.199.381.364.504.166.125.373.184.622.184s.456-.059.622-.174c.174-.117.298-.291.381-.523.058-.173.091-.53.091-1.093V3.835h1.483v2.502c0 1.027-.083 1.732-.24 2.113-.199.463-.489.82-.878 1.061-.389.248-.878.373-1.475.373-.646 0-1.168-.141-1.566-.432-.398-.289-.68-.695-.845-1.209-.116-.357-.174-1.012-.174-1.948v-2.46h-.001zm6.852-2.427c.257 0 .48.091.671.282.182.19.281.415.281.679a.946.946 0 0 1-.273.68.886.886 0 0 1-.663.282.917.917 0 0 1-.679-.282.935.935 0 0 1-.282-.688.95.95 0 0 1 .945-.953zm-.737 2.427h1.483v5.899h-1.483V3.835zm6.785-2.27h1.475v8.179h-1.475v-.623c-.289.273-.58.473-.869.598a2.362 2.362 0 0 1-.945.181c-.762 0-1.425-.297-1.98-.887-.555-.588-.836-1.325-.836-2.204 0-.912.265-1.657.803-2.237.539-.58 1.193-.87 1.964-.87.356 0 .688.066.995.199.314.132.596.332.861.605V1.565h.007zm-1.557 3.488a1.49 1.49 0 0 0-1.144.489c-.307.323-.455.737-.455 1.242 0 .514.157.929.464 1.26.306.332.688.496 1.144.496.464 0 .854-.164 1.16-.488.307-.323.463-.746.463-1.268 0-.513-.156-.928-.463-1.242-.307-.331-.697-.489-1.169-.489z"/><path fill="#287D9D" d="M46.583 8.252l.679-.406c.48.879 1.027 1.318 1.657 1.318.266 0 .521-.059.754-.191a1.324 1.324 0 0 0 .721-1.168c0-.266-.091-.531-.273-.788-.248-.356-.704-.779-1.367-1.276-.662-.505-1.076-.862-1.242-1.094a1.977 1.977 0 0 1-.423-1.218c0-.348.083-.663.249-.953.165-.282.396-.514.703-.679.299-.166.631-.249.986-.249.381 0 .729.091 1.053.282.331.182.671.53 1.035 1.027l-.646.497c-.298-.398-.555-.663-.77-.787a1.315 1.315 0 0 0-.688-.191c-.324 0-.589.1-.788.29a.935.935 0 0 0-.306.721c0 .174.033.339.107.505.074.166.207.34.397.53.107.099.447.365 1.027.795.688.514 1.16.961 1.425 1.359.258.398.381.795.381 1.201 0 .58-.223 1.078-.662 1.508-.439.424-.97.639-1.6.639a2.3 2.3 0 0 1-1.316-.389c-.398-.238-.763-.678-1.093-1.283zm5.832-6.687h.763v3.331c.307-.406.646-.712 1.011-.911a2.483 2.483 0 0 1 1.201-.298c.439 0 .829.116 1.177.339.34.224.597.522.755.903.165.381.24.969.24 1.773v3.032h-.763V6.917c0-.679-.024-1.135-.083-1.358-.092-.39-.266-.68-.514-.878s-.572-.298-.97-.298c-.456 0-.87.149-1.234.456s-.604.68-.721 1.127c-.075.29-.108.82-.108 1.607v2.163h-.762V1.565h.008zm12.264 2.27v5.899h-.746v-1.01c-.314.389-.68.68-1.068.869a2.962 2.962 0 0 1-1.301.291c-.838 0-1.55-.307-2.139-.912-.588-.605-.887-1.342-.887-2.212 0-.854.299-1.574.896-2.179s1.317-.903 2.154-.903c.48 0 .919.107 1.317.307.389.207.737.514 1.035.928V3.827h.738v.008zm-3.041.589c-.423 0-.813.107-1.168.315a2.234 2.234 0 0 0-.854.878 2.426 2.426 0 0 0-.315 1.193c0 .414.108.813.315 1.194.215.381.496.67.861.887.356.207.746.314 1.16.314s.812-.107 1.185-.314.655-.49.862-.854a2.46 2.46 0 0 0 .298-1.21c0-.68-.224-1.251-.68-1.715-.447-.465-1.002-.688-1.664-.688zm4.068-.589h.778v.862c.232-.34.473-.588.729-.762a1.46 1.46 0 0 1 .804-.257c.207 0 .431.066.671.199l-.397.638c-.157-.066-.29-.108-.397-.108-.249 0-.498.108-.729.315s-.414.53-.538.969c-.092.34-.142 1.019-.142 2.039v1.997h-.778V3.835h-.001zm8.203 3.944l.637.34c-.207.414-.447.746-.729.994a2.847 2.847 0 0 1-.928.58 3.218 3.218 0 0 1-1.168.199c-.961 0-1.716-.314-2.254-.945-.539-.629-.813-1.342-.813-2.137 0-.746.232-1.417.688-1.997.58-.746 1.359-1.118 2.337-1.118 1.003 0 1.806.381 2.411 1.143.432.539.646 1.21.654 2.013h-5.303c.017.688.232 1.252.654 1.69.423.439.945.656 1.566.656.299 0 .588-.051.879-.158.281-.107.521-.24.721-.414.2-.174.416-.455.648-.846zm0-1.591c-.1-.406-.249-.729-.439-.969a2.074 2.074 0 0 0-.771-.588 2.328 2.328 0 0 0-1.002-.224c-.58 0-1.077.19-1.491.555-.307.273-.53.679-.688 1.218h4.393v.008z"/></svg>