<?xml version="1.0" encoding="utf-8"?>
<svg xmlns="http://www.w3.org/2000/svg" version="1.1" viewBox="0 0 1900 900">
  <defs>
    <style>
      .cls-1 {
        fill: #a8d04b;
      }

      .cls-1, .cls-2, .cls-3, .cls-4, .cls-5 {
        stroke: #fff;
      }

      .cls-1, .cls-2, .cls-3, .cls-4, .cls-5, .cls-6 {
        stroke-miterlimit: 10;
      }

      .cls-1, .cls-3, .cls-4, .cls-5 {
        stroke-width: 6px;
      }

      .cls-7, .cls-8 {
        fill: #290b31;
      }

      .cls-2 {
        stroke-width: 4px;
      }

      .cls-2, .cls-9 {
        fill: #462de0;
      }

      .cls-8, .cls-10 {
        fill-rule: evenodd;
      }

      .cls-10 {
        fill: #ffea00;
      }

      .cls-3 {
        fill: #80c88d;
      }

      .cls-4 {
        fill: #f99f44;
      }

      .cls-11 {
        fill: #fff;
      }

      .cls-5 {
        fill: #20a1a1;
      }

      .cls-6 {
        stroke: #1d1d1b;
      }

      .cls-12 {
        display: none;
      }
    </style>
  </defs>
  <g>
    <g id="Lockness">
      <g>
        <path class="cls-7" d="M903.9,414c-21,0-41.9-2.9-52.4-5.6h-.2c-18.3-5.6-21.7-9.9-22.4-28.6-.8-4.4-1.1-9.3-1.5-14.4-1.2-16.2-2.5-33-17-38.1-5-1.3-9.4-1.9-13.2-1.9-13,0-19.4,7.4-23.8,27.4v.2c-2.7,9.5-3.3,17.4-3.8,24.5-1.6,20.8-4,30.9-40.7,34.5h-1.7c-10.4.9-21.1,1.6-31.7,1.6-18,0-32.5-2.3-45.8-7.2-22-6.2-18.1-29.2-15.3-46,.4-2.4.8-4.7,1.1-6.8l.2-1.5v-3.3h.4c6-43.5,24.4-80.5,53.4-107.2,29.9-27.5,69-42.1,113-42.1s8.4.1,12.7.4c39,.8,73.8,16.1,100.6,44.3,33.2,35,51.9,88.2,50.2,142.4v.2s0,.2,0,.2c-2.1,17.7-23.6,27.1-62.2,27.1Z"/>
        <path class="cls-11" d="M802.7,203c4.1,0,8.3.1,12.5.4,96.9,1.9,150.3,93.8,147.4,183.1-2.2,18.7-30.6,24-58.8,24s-41.4-2.9-51.5-5.5c-16.9-5.2-19.3-8.1-19.9-25.6-3.3-18.6.9-47.9-21-55.5-5.4-1.4-10.1-2.1-14.2-2.1-16.2,0-22.9,10.7-27.2,30.2-9.8,35.4,7.5,51.6-41.5,56.4-11,.8-22,1.6-33,1.6s-30.1-1.6-44.7-7c-22.7-6.3-13.7-33.2-11.6-50.8h0c11-89.2,75.1-149.3,163.4-149.3M639.3,352.3s0,0,0,0h0s0,0,0,0M802.7,196c-44.9,0-84.8,14.9-115.4,43-28.9,26.6-47.6,63.3-54.1,106.3h-.9v6.6s-.2,1.9-.2,1.9c-.3,1.9-.6,3.9-1,6.1-1.5,8.7-3.2,18.6-1.8,27.5,1.8,11.5,8.5,19.2,19.5,22.4,13.6,5,28.5,7.4,46.9,7.4s21.5-.8,31.9-1.5h1.6c0-.1,0-.1,0-.1h0c18.9-1.9,29.7-5.5,36-12.2,6.5-6.9,7.1-15.5,7.9-25.5.5-6.9,1.1-14.7,3.7-23.8v-.2c0,0,0-.2,0-.2,4.5-20.7,10.6-24.7,20.3-24.7,3.4,0,7.5.6,12.1,1.8,11.4,4.1,13.1,16.6,14.5,35,.4,5.1.7,10,1.5,14.5.4,9.7,1.4,15.9,5.4,21,4,5.1,9.9,7.6,19.5,10.6h.1s.2,0,.2,0c10.7,2.8,31.9,5.7,53.2,5.7,51.3,0,64-16.4,65.7-30.2v-.3s0-.3,0-.3c.9-26.6-3.2-53.8-11.7-78.6-8.8-25.5-22.4-48.5-39.4-66.4-27.4-28.9-63-44.6-103-45.4-4.3-.3-8.6-.4-12.8-.4h0Z"/>
      </g>
      <g>
        <path class="cls-7" d="M507.4,414.3c-18.4,0-33.8-2.5-43.4-4.7-23.3-5.1-24.4-12.1-27.6-32.9v-.2c-1.5-9.6-2.3-18.1-3-25.5-4.7-46.8-30.5-80.4-60.3-119.2-3.5-4.5-4.4-8.4-2.8-11.7,1.8-3.8,6.6-5.6,14.4-5.6.9,0,1.8,0,2.8,0,32,0,63.5,10.2,91.2,29.6,25.9,18.1,47.4,43.4,62.4,73.1,11.8,19.3,22.2,40.8,31.7,65.7,3.7,8.6,1.1,15.4-7.7,20.1h-.2c-15.3,7.4-35.2,11.2-57.4,11.2Z" style=""/>
        <path class="cls-11" d="M387.5,217.9c65.9,0,121.7,43.7,150.5,101,12.7,20.7,22.8,42.7,31.5,65.3,3.2,7.5.5,12.2-6.1,15.8-16.6,7.9-36.7,10.8-55.9,10.8s-30.5-1.9-42.7-4.6c-21-4.6-21.7-9.5-24.9-30.2-1.4-9.2-2.2-17.2-2.9-25.3-4.7-46.6-29.2-79.5-61-121.1-6.2-8.1-1.7-11.6,8.8-11.7.9,0,1.9,0,2.8,0M387.5,210.9v7-7c-1,0-1.9,0-2.9,0-3.5,0-13.8,0-17.5,7.6-2.8,5.7.2,11.5,3.2,15.3,29.5,38.5,54.9,71.7,59.6,117.5.7,7.4,1.5,15.9,3,25.7v.2c1.7,11,2.9,18.3,7.1,24.1,4.8,6.6,12.5,9.4,23.3,11.7,9.8,2.2,25.5,4.7,44.2,4.7s43.1-4,58.9-11.5h.2c0,0,.2-.2.2-.2,13.9-7.5,11.8-18.5,9.3-24.5-9.5-25-19.9-46.6-31.8-66.1-15.2-30.2-37.1-55.8-63.4-74.3-28.2-19.8-60.5-30.3-93.2-30.3h0Z" style=""/>
      </g>
      <g>
        <path class="cls-8" d="M1094.6,414c-15.8,0-32.2-2-48.5-6-25.1-5.4-21.9-23.8-19.1-40,.9-5,1.9-10.7,1.9-15.8v-1.4s.2-.2.2-.2c6.9-57.6,24.4-118,52.3-179.3-1.1-6-.5-10.2,1.9-13.1,2.4-2.9,6.3-4.4,11.9-4.4s1,0,1.5,0c8.5-1.5,16.8-3.3,26-5.2,24.1-5,49-10.2,74.2-10.2s18.7.7,27.7,2.3c18,2.9,35.2,20,37,36.6.8,7.3-1,20.7-21.4,28.6-39.4,15.2-63.3,36.4-75.2,66.6-10.6,26.9-12,61.3-4.6,111.6,1.3,8.8.2,15.1-8.9,19.6-.2,0-.3.2-.5.2-16.9,6.7-35.8,10-56.3,10ZM1132,182.9s.1,0,.5,0,0,0,.1,0c.2-.6.2-1.9.2-2.7v-.9s0-1,0-1c0-.8,0-2.1-.2-2.7,0,0-.2,0-.3,0h-.1c-.1,0-.2,0-.2,0,0,0-.6.6-.6,3.4,0,3.2.5,3.7.5,3.8h0Z"/>
        <path class="cls-11" d="M1197,142c9,0,18,.7,27.1,2.2,26,4.2,53.9,43.5,15,58.5-83,32-95.6,90.2-82.1,181.9,1.2,8.5-.2,12.6-7,16,0,0-.2,0-.2.1-17.4,6.8-36.2,9.8-55,9.8s-32.3-2.2-47.7-5.9c-21.9-4.7-19.3-19.9-16.5-36,1-5.5,1.9-11,2-16.3h0c7.3-63.1,26.9-124.2,52.6-180.5,0,0,0,0,0,0h0s0,0,0,0c-2.2-10.2.8-14.4,10.2-14.4.5,0,1,0,1.5,0,0,0,0,0,0,0,.1,0,.3,0,.4,0,8.8-1.6,17.5-3.4,26.2-5.2,24.3-5.1,48.7-10.1,73.5-10.1M1132.5,186.4c3.7,0,3.8-3.2,3.9-6.1h0c0-.3,0-.6,0-.8,0-.4,0-.9,0-1.4,0-2.9-.2-6-4-6,0,0-.1,0-.2,0-3.6,0-4.2,3.9-4.2,7,0,3.3.3,7.3,4.6,7.3M1197,135c-25.6,0-50.7,5.2-74.9,10.3-9,1.9-17.2,3.6-25.5,5.1-.4,0-.8,0-1.2,0-2.8,0-5.2.3-7.4.9l-.4-1.7-1,2.2c-2.4.9-4.4,2.3-5.9,4.2-3.7,4.5-3.6,10.3-2.8,14.9-27.5,60.9-45,120.8-52,178.1l-.4.4v2.9c0,4.8-1,10.1-1.9,15.2-1.5,8.6-3,17.4-.9,25.3,2.6,9.7,10.3,16,22.7,18.7,16.6,4,33.2,6.1,49.3,6.1s40.3-3.5,57.6-10.3c.3-.1.5-.2.8-.3,11.6-5.8,12.1-14.6,10.8-23.3-7.3-49.6-5.9-83.5,4.4-109.8,11.5-29.3,34.8-49.8,73.2-64.6,16.5-6.4,25-18.1,23.6-32.2-1.9-18-20.5-36.5-39.9-39.7-9.1-1.6-18.3-2.3-28.2-2.3h0Z"/>
      </g>
      <path class="cls-11" d="M260.2,568c0-57.7,34.8-98.4,93-98.4s92.2,40.3,92.2,98-34.8,98.4-92.6,98.4-92.6-39.9-92.6-98h0,0ZM408.3,568c0-38.9-17.4-68.6-55.2-68.6s-55.9,29.8-55.9,68.6,17.4,68.6,55.9,68.6,55.2-30.1,55.2-68.6h0Z" style="fill: rgb(0, 0, 0);"/>
      <path class="cls-11" d="M465.7,568c0-58.1,36-98,90.8-98s79.2,30.9,83.5,72.6h-36.7c-1.8-19.3-12.7-43.2-46.5-43.2s-54.1,33.8-54.1,68.6,14.5,68.3,54.1,68.3,44.7-23.2,46.5-44.3h36.7c-2.6,42.5-35.6,74.1-83.1,74.1s-91.1-39.9-91.1-98h0Z" style="fill: rgb(0, 0, 0);"/>
      <polygon class="cls-11" points="791.4 660.6 730.8 565.8 703.9 591.5 703.9 660.6 668.4 660.6 668.4 475.4 703.9 475.4 703.9 553.8 784.9 475.4 825.9 475.4 754.7 543.2 833.5 660.5 791.4 660.5 791.4 660.6" style="fill: rgb(0, 0, 0);"/>
      <path class="cls-11" d="M1007.1,532v128.5h-35.6v-118.7c0-24.7-10.9-41.4-37.7-41.4s-50.1,18.5-50.1,46.5v113.7h-35.6v-185.2h35.6v23.2h.7c9.8-14.2,29-28.7,61-28.7s61.7,19.6,61.7,62.1h0s0,0,0,0Z" style="fill: rgb(0, 0, 0);"/>
      <path class="cls-11" d="M1215.2,577.4h-142.3c.7,30.9,18.9,59.6,55.6,59.6s45.4-21.1,48.7-33.4h36.3c-9.8,35.6-37,62.5-85.7,62.5s-91.5-41.8-91.5-98.4,34.8-98,91.5-98,87.9,37,87.9,94.4,0,10.5-.3,13.4h0c0,0,0,0,0,0ZM1178.5,549.4c0-29-20.3-50.9-51.9-50.9s-51.6,20.3-53.8,50.9h105.7Z" style="fill: rgb(0, 0, 0);"/>
      <path class="cls-11" d="M1233.3,598.8h36c1.5,21.4,14.5,38.1,49,38.1s39.6-13.8,39.6-27.2c0-23.2-24.7-25.8-48.6-30.9-32.3-7.6-69.3-17.1-69.3-55.5s25.8-53.4,70.5-53.4,75.2,27.2,77.7,59.2h-36c-2.5-14.2-10.2-30.5-41-30.5s-34.1,9.4-34.1,23.2,20.7,21.1,46.8,26.9c34.1,8,71.2,17.8,71.2,59.2s-27.6,57.7-76.3,57.7-84.3-29-85.3-66.8h0s0,0,0,0Z" style="fill: rgb(0, 0, 0);"/>
      <path class="cls-11" d="M1410.5,598.8h36c1.5,21.4,14.5,38.1,49,38.1s39.6-13.8,39.6-27.2c0-23.2-24.7-25.8-48.6-30.9-32.3-7.6-69.3-17.1-69.3-55.5s25.8-53.4,70.5-53.4,75.2,27.2,77.7,59.2h-36c-2.5-14.2-10.2-30.5-41-30.5s-34.1,9.4-34.1,23.2,20.7,21.1,46.8,26.9c34.1,8,71.2,17.8,71.2,59.2s-27.6,57.7-76.3,57.7-84.3-29-85.3-66.8h0s0,0,0,0Z" style="fill: rgb(0, 0, 0);"/>
      <path class="cls-11" d="M241.4,576.7c0,50.6-41,90.3-91.6,90.3s-91.5-41-91.5-91.6v-100.1h35.7v101.3c0,30.8,25,55.8,55.8,55.8s55.8-25,55.8-55.8h35.8Z" style="fill: rgb(0, 0, 0);"/>
    </g>
  </g>
</svg>