<?xml version="1.0" encoding="utf-8"?>
<!-- Generator: Adobe Illustrator 23.0.3, SVG Export Plug-In . SVG Version: 6.00 Build 0)  -->
<svg version="1.1" id="Layer_1" xmlns="http://www.w3.org/2000/svg" xmlns:xlink="http://www.w3.org/1999/xlink" x="0px" y="0px"
	 viewBox="0 0 400 245" style="enable-background:new 0 0 400 245;" xml:space="preserve">
<style type="text/css">
	.st0{fill-rule:evenodd;clip-rule:evenodd;fill:url(#SVGID_1_);}
	.st1{fill-rule:evenodd;clip-rule:evenodd;fill:url(#SVGID_2_);}
	.st2{fill-rule:evenodd;clip-rule:evenodd;fill:#0064A1;}
	.st3{fill-rule:evenodd;clip-rule:evenodd;fill:#0091CB;}
	.st4{fill-rule:evenodd;clip-rule:evenodd;fill:#0090CB;}
	.st5{fill-rule:evenodd;clip-rule:evenodd;fill:url(#SVGID_3_);}
	.st6{fill-rule:evenodd;clip-rule:evenodd;fill:url(#SVGID_4_);}
	.st7{fill-rule:evenodd;clip-rule:evenodd;fill:url(#SVGID_5_);}
</style>
<g>
	<linearGradient id="SVGID_1_" gradientUnits="userSpaceOnUse" x1="49.5581" y1="84.7276" x2="49.5581" y2="170.0609">
		<stop  offset="0" style="stop-color:#27C2F1"/>
		<stop  offset="1" style="stop-color:#294586"/>
	</linearGradient>
	<path class="st0" d="M49.56,88.99c-8.35-0.04-15.34-2.99-19.58-4.14c-1.04-0.28-3.01-0.38-3.01-0.38
		c-8.32,0-15.06,6.74-15.06,15.06c0,0,0.19,2.16,0.6,3.06c1.84,4.01,3.87,11.6,3.92,19.9c-0.04,8.3-2.08,15.89-3.92,19.9
		c-0.41,0.9-0.6,3.06-0.6,3.06c0,8.32,6.74,15.06,15.06,15.06c0,0,1.98-0.09,3.01-0.38c4.24-1.16,11.23-4.1,19.58-4.14
		c8.35,0.04,15.34,2.99,19.58,4.14c1.04,0.28,3.01,0.38,3.01,0.38c8.32,0,15.06-6.74,15.06-15.06c0,0-0.19-2.16-0.6-3.06
		c-1.84-4.01-3.87-11.6-3.92-19.9c0.04-8.3,2.08-15.89,3.92-19.9c0.41-0.9,0.6-3.06,0.6-3.06c0-8.32-6.74-15.06-15.06-15.06
		c0,0-1.98,0.09-3.01,0.38C64.9,86.01,57.9,88.96,49.56,88.99z M25.46,122.5c-0.03-8.62-2.63-16.5-4.27-19.89
		c-0.12-0.25-0.25-1.95-0.25-1.95c0-4.15,2.99-7.15,7.15-7.15c0,0,1.45,0,1.83,0.2c3.28,1.72,10.87,4.32,19.63,4.32
		s16.35-2.6,19.63-4.32c0.38-0.2,1.83-0.2,1.83-0.2c4.15,0,7.15,2.99,7.15,7.15c0,0-0.12,1.7-0.25,1.95
		c-1.64,3.39-4.24,11.27-4.27,19.89c0.03,8.62,2.63,16.5,4.27,19.89c0.12,0.25,0.25,1.95,0.25,1.95c0,4.15-2.99,7.15-7.15,7.15
		c0,0-1.45,0-1.83-0.2c-3.28-1.72-10.87-4.32-19.63-4.32s-16.35,2.6-19.63,4.32c-0.38,0.2-1.83,0.2-1.83,0.2
		c-4.15,0-7.15-2.99-7.15-7.15c0,0,0.12-1.7,0.25-1.95C22.84,139,25.43,131.12,25.46,122.5z"/>
	<linearGradient id="SVGID_2_" gradientUnits="userSpaceOnUse" x1="49.5581" y1="75.2743" x2="49.5581" y2="169.3915">
		<stop  offset="0" style="stop-color:#27C2F1"/>
		<stop  offset="1" style="stop-color:#294586"/>
	</linearGradient>
	<path class="st1" d="M25.84,98.78c-5.91,5.85-12.93,8.7-16.73,10.87c-0.93,0.53-2.39,1.86-2.39,1.86
		c-5.86,5.86-5.84,15.39,0.05,21.28c0,0,1.66,1.4,2.59,1.75c4.13,1.54,10.94,5.48,16.85,11.32c5.85,5.91,9.79,12.72,11.32,16.85
		c0.35,0.93,1.75,2.59,1.75,2.59c5.89,5.89,15.42,5.91,21.28,0.05c0,0,1.33-1.46,1.86-2.39c2.17-3.8,5.01-10.82,10.87-16.73
		c5.91-5.85,12.93-8.7,16.73-10.87c0.93-0.53,2.39-1.86,2.39-1.86c5.86-5.86,5.84-15.39-0.05-21.28c0,0-1.66-1.4-2.59-1.75
		c-4.13-1.54-10.94-5.48-16.85-11.32c-5.85-5.91-9.79-12.72-11.32-16.85c-0.35-0.93-1.75-2.59-1.75-2.59
		c-5.89-5.89-15.42-5.91-21.28-0.05c0,0-1.33,1.46-1.86,2.39C34.54,85.85,31.69,92.87,25.84,98.78z M32.57,139.49
		c-6.13-6.08-13.53-9.83-17.09-11.07c-0.27-0.09-1.56-1.21-1.56-1.21c-2.94-2.94-2.95-7.17-0.02-10.1c0,0,1.02-1.02,1.43-1.15
		c3.53-1.1,10.72-4.61,16.9-10.78c6.17-6.18,9.69-13.37,10.78-16.9c0.13-0.41,1.15-1.44,1.15-1.44c2.93-2.93,7.15-2.92,10.1,0.02
		c0,0,1.11,1.29,1.21,1.56c1.24,3.56,4.99,10.96,11.07,17.09c6.13,6.08,13.53,9.83,17.09,11.07c0.27,0.09,1.56,1.21,1.56,1.21
		c2.94,2.94,2.95,7.17,0.02,10.1c0,0-1.02,1.02-1.43,1.15c-3.53,1.1-10.72,4.61-16.9,10.78c-6.17,6.18-9.69,13.37-10.78,16.9
		c-0.13,0.41-1.15,1.44-1.15,1.44c-2.93,2.93-7.15,2.92-10.1-0.02c0,0-1.11-1.29-1.21-1.56C42.4,153.02,38.65,145.61,32.57,139.49z"
		/>
	<path class="st2" d="M127.75,133.41l8.35-18.5c0.52-1.16,1.04-2.32,1.54-3.47c0.5-1.15,1.02-2.5,1.54-4.05l0.45,0.11
		c-0.22,1.77-0.36,3.46-0.39,5.07c-0.04,1.6-0.06,2.88-0.06,3.81v23.31h3.76v-37.97h-4.62l-9.14,20.45
		c-0.3,0.64-0.62,1.36-0.95,2.17c-0.34,0.81-0.67,1.61-1.03,2.42c-0.35,0.81-0.68,1.56-0.97,2.25c-0.3,0.7-0.52,1.25-0.67,1.66
		c-0.15-0.49-0.36-1.08-0.62-1.77c-0.26-0.7-0.55-1.44-0.86-2.22c-0.32-0.79-0.64-1.58-0.97-2.37c-0.34-0.78-0.65-1.5-0.94-2.14
		l-9.14-20.45h-4.62v37.97h3.75v-23.31c0-0.94-0.01-2.22-0.03-3.84c-0.03-1.62-0.14-3.32-0.34-5.1l0.38-0.05
		c0.48,1.55,0.97,2.9,1.46,4.05c0.49,1.15,0.99,2.31,1.52,3.47l8.35,18.5H127.75z"/>
	<path class="st2" d="M165.74,116.79c1.08,1.43,1.63,3.5,1.63,6.19v0.9v1.01H151.6c0.07-1.49,0.29-2.86,0.65-4.11
		c0.35-1.25,0.88-2.33,1.57-3.25c0.69-0.91,1.57-1.63,2.64-2.13c1.07-0.5,2.33-0.76,3.79-0.76
		C162.83,114.63,164.66,115.35,165.74,116.79z M170.19,127.54c0.18-0.66,0.32-1.37,0.42-2.11c0.09-0.74,0.14-1.54,0.14-2.39
		c0-3.44-0.9-6.15-2.7-8.12c-1.8-1.96-4.45-2.95-7.93-2.95c-2.14,0-3.98,0.36-5.52,1.07c-1.54,0.71-2.8,1.69-3.8,2.94
		c-1,1.26-1.74,2.74-2.22,4.46c-0.49,1.72-0.73,3.57-0.73,5.55c0,4.3,1.1,7.73,3.3,10.26c2.2,2.54,5.49,3.81,9.85,3.81
		c1.64,0,3.14-0.17,4.53-0.49c1.38-0.32,2.65-0.75,3.8-1.29l-0.84-2.73c-1.04,0.49-2.19,0.86-3.44,1.1
		c-1.25,0.25-2.49,0.37-3.72,0.37c-3.03,0-5.35-0.82-6.97-2.48c-1.62-1.66-2.54-3.99-2.76-7.01H170.19z"/>
	<path class="st2" d="M198.18,101.34h-3.76v15.86c-0.41-0.62-0.91-1.23-1.47-1.85c-0.57-0.61-1.23-1.18-1.99-1.69
		c-0.76-0.51-1.6-0.92-2.52-1.23c-0.93-0.31-1.92-0.46-2.98-0.46c-1.82,0-3.46,0.36-4.91,1.07c-1.46,0.71-2.69,1.7-3.69,2.97
		c-1.01,1.27-1.77,2.76-2.3,4.46c-0.53,1.7-0.79,3.57-0.79,5.58c0,2.32,0.27,4.35,0.82,6.08c0.55,1.74,1.33,3.2,2.34,4.37
		c1.01,1.18,2.22,2.07,3.63,2.66c1.41,0.59,2.94,0.9,4.62,0.9c2.05,0,3.9-0.57,5.53-1.72c1.63-1.14,2.87-2.54,3.71-4.21l0.87,5.55
		h2.89V101.34z M194.42,126.63c0,1.45-0.23,2.79-0.68,4.01c-0.45,1.22-1.07,2.29-1.86,3.17c-0.79,0.89-1.71,1.59-2.77,2.09
		c-1.05,0.5-2.18,0.75-3.38,0.75c-1.05,0-2.08-0.19-3.06-0.58s-1.85-1-2.63-1.84c-0.78-0.83-1.39-1.93-1.84-3.28
		c-0.45-1.35-0.67-3.01-0.67-4.98c0-1.78,0.22-3.34,0.65-4.68c0.43-1.34,1.03-2.44,1.81-3.31c0.77-0.87,1.68-1.52,2.74-1.95
		c1.05-0.43,2.21-0.64,3.45-0.64c1.58,0,3.09,0.44,4.55,1.33c1.45,0.89,2.68,2.12,3.7,3.67V126.63z"/>
	<path class="st2" d="M204.56,105.52c0.49,0.51,1.18,0.76,2.09,0.76c0.94,0,1.64-0.25,2.11-0.76c0.47-0.51,0.7-1.14,0.7-1.9
		c0-0.75-0.24-1.38-0.7-1.89c-0.47-0.51-1.17-0.76-2.11-0.76c-0.9,0-1.6,0.25-2.09,0.76c-0.49,0.51-0.73,1.14-0.73,1.89
		C203.83,104.38,204.07,105.01,204.56,105.52z M208.33,112.35h-3.75v27.34h3.75V112.35z"/>
	<path class="st2" d="M230.31,115.41c1.1,0.26,2.13,0.6,3.11,1.01c0.11-0.41,0.25-0.85,0.42-1.33c0.17-0.47,0.3-0.94,0.42-1.4
		c-1.12-0.53-2.29-0.95-3.5-1.26c-1.21-0.31-2.56-0.46-4.05-0.46c-2.21,0-4.13,0.36-5.77,1.07c-1.64,0.71-3,1.69-4.1,2.94
		c-1.09,1.26-1.9,2.74-2.44,4.46c-0.53,1.72-0.79,3.57-0.79,5.55s0.26,3.83,0.79,5.55c0.53,1.72,1.34,3.22,2.44,4.49
		c1.09,1.27,2.44,2.26,4.04,2.97c1.6,0.71,3.5,1.06,5.71,1.06c1.65,0,3.08-0.15,4.31-0.46c1.23-0.31,2.44-0.76,3.64-1.38l-0.84-2.73
		c-1.04,0.49-2.15,0.87-3.3,1.13c-1.16,0.26-2.31,0.39-3.47,0.39c-1.68,0-3.11-0.28-4.31-0.84c-1.2-0.56-2.18-1.33-2.97-2.31
		c-0.79-0.99-1.36-2.14-1.73-3.48c-0.38-1.34-0.56-2.81-0.56-4.41c0-1.6,0.18-3.06,0.56-4.4c0.37-1.34,0.94-2.49,1.7-3.46
		c0.76-0.96,1.74-1.73,2.91-2.29c1.17-0.56,2.56-0.84,4.17-0.84C228.01,115.01,229.21,115.15,230.31,115.41z"/>
	<path class="st2" d="M254.93,122.99h-6.18c-3.74,0-6.65,0.75-8.73,2.26c-2.08,1.51-3.12,3.78-3.12,6.82c0,1.32,0.21,2.47,0.64,3.47
		c0.44,0.99,1.03,1.83,1.78,2.51c0.75,0.68,1.63,1.19,2.63,1.52c1,0.33,2.08,0.5,3.25,0.5c1.35,0,2.53-0.13,3.52-0.38
		c1-0.26,1.89-0.67,2.66-1.21c0.78-0.55,1.45-1.16,2.01-1.86c0.56-0.7,1.07-1.44,1.52-2.24l0.91,5.32h2.85v-17.92
		c0-3.03-0.87-5.43-2.61-7.18c-1.74-1.75-4.34-2.62-7.81-2.62c-2.02,0-3.84,0.24-5.49,0.72c-1.65,0.48-2.96,1.02-3.97,1.63
		c0.15,0.46,0.3,0.89,0.47,1.28c0.17,0.4,0.32,0.84,0.48,1.33c1.11-0.53,2.36-0.98,3.75-1.36c1.38-0.38,2.93-0.56,4.64-0.56
		c2.06,0,3.69,0.5,4.92,1.51c1.23,1.01,1.84,2.7,1.84,5.08V122.99z M254.93,128.34c0,1.05-0.21,2.1-0.64,3.14
		c-0.43,1.05-1.04,1.98-1.81,2.81c-0.78,0.82-1.72,1.49-2.84,1.99s-2.36,0.75-3.74,0.75c-1.49,0-2.73-0.43-3.74-1.29
		c-1-0.86-1.5-2.13-1.5-3.82c0-2.02,0.68-3.57,2.04-4.65c1.36-1.08,3.37-1.63,6.05-1.63h6.18V128.34z"/>
	<rect x="265.09" y="101.34" class="st2" width="3.76" height="38.35"/>
	<path class="st3" d="M290.45,115.41c1.1,0.26,2.13,0.6,3.1,1.01c0.11-0.41,0.25-0.85,0.42-1.33c0.17-0.47,0.3-0.94,0.42-1.4
		c-1.12-0.53-2.29-0.95-3.5-1.26c-1.21-0.31-2.56-0.46-4.05-0.46c-2.21,0-4.12,0.36-5.77,1.07c-1.64,0.71-3,1.69-4.09,2.94
		c-1.09,1.26-1.91,2.74-2.44,4.46c-0.53,1.72-0.8,3.57-0.8,5.55s0.26,3.83,0.8,5.55c0.53,1.72,1.34,3.22,2.44,4.49
		c1.09,1.27,2.43,2.26,4.04,2.97c1.6,0.71,3.5,1.06,5.71,1.06c1.64,0,3.07-0.15,4.31-0.46c1.23-0.31,2.44-0.76,3.64-1.38l-0.84-2.73
		c-1.04,0.49-2.15,0.87-3.3,1.13c-1.16,0.26-2.31,0.39-3.47,0.39c-1.68,0-3.12-0.28-4.31-0.84c-1.2-0.56-2.18-1.33-2.97-2.31
		c-0.79-0.99-1.36-2.14-1.73-3.48s-0.56-2.81-0.56-4.41c0-1.6,0.18-3.06,0.56-4.4c0.37-1.34,0.94-2.49,1.7-3.46
		c0.76-0.96,1.74-1.73,2.91-2.29c1.17-0.56,2.56-0.84,4.17-0.84C288.14,115.01,289.34,115.15,290.45,115.41z"/>
	<path class="st3" d="M302.67,120.39c1-1.43,2.31-2.61,3.94-3.57c1.63-0.95,3.41-1.43,5.34-1.43c1.89,0,3.38,0.65,4.47,1.94
		c1.09,1.3,1.65,3.06,1.65,5.3v17.06h3.75v-17.13c0-3.34-0.8-5.94-2.41-7.8c-1.61-1.86-3.84-2.79-6.72-2.79
		c-1.12,0-2.19,0.17-3.22,0.5c-1.03,0.33-1.97,0.74-2.83,1.23c-0.86,0.5-1.63,1.04-2.3,1.63c-0.67,0.59-1.23,1.16-1.68,1.7v-15.69
		h-3.76v38.35h3.76V120.39z"/>
	<path class="st3" d="M344.37,122.99h-6.18c-3.74,0-6.65,0.75-8.73,2.26c-2.07,1.51-3.11,3.78-3.11,6.82c0,1.32,0.21,2.47,0.64,3.47
		c0.44,0.99,1.03,1.83,1.78,2.51c0.75,0.68,1.63,1.19,2.63,1.52c1,0.33,2.08,0.5,3.25,0.5c1.35,0,2.53-0.13,3.52-0.38
		c1-0.26,1.88-0.67,2.66-1.21s1.45-1.16,2.01-1.86c0.56-0.7,1.07-1.44,1.52-2.24l0.91,5.32h2.85v-17.92c0-3.03-0.87-5.43-2.61-7.18
		c-1.74-1.75-4.34-2.62-7.81-2.62c-2.02,0-3.84,0.24-5.49,0.72c-1.64,0.48-2.96,1.02-3.96,1.63c0.15,0.46,0.3,0.89,0.47,1.28
		c0.17,0.4,0.32,0.84,0.47,1.33c1.11-0.53,2.36-0.98,3.75-1.36c1.38-0.38,2.93-0.56,4.64-0.56c2.05,0,3.69,0.5,4.92,1.51
		c1.23,1.01,1.85,2.7,1.85,5.08V122.99z M344.37,128.34c0,1.05-0.21,2.1-0.64,3.14c-0.43,1.05-1.03,1.98-1.81,2.81
		c-0.78,0.82-1.72,1.49-2.84,1.99s-2.36,0.75-3.74,0.75c-1.49,0-2.73-0.43-3.74-1.29c-1-0.86-1.5-2.13-1.5-3.82
		c0-2.02,0.67-3.57,2.04-4.65c1.36-1.08,3.37-1.63,6.05-1.63h6.18V128.34z"/>
	<path class="st3" d="M354.13,105.52c0.49,0.51,1.18,0.76,2.08,0.76c0.94,0,1.64-0.25,2.11-0.76c0.47-0.51,0.7-1.14,0.7-1.9
		c0-0.75-0.23-1.38-0.7-1.89c-0.47-0.51-1.17-0.76-2.11-0.76c-0.9,0-1.6,0.25-2.08,0.76c-0.49,0.51-0.73,1.14-0.73,1.89
		C353.4,104.38,353.64,105.01,354.13,105.52z M357.9,112.35h-3.76v27.34h3.76V112.35z"/>
	<path class="st3" d="M368.81,120.55c1.04-1.46,2.36-2.68,3.98-3.67c1.62-0.99,3.4-1.49,5.33-1.49c1.89,0,3.38,0.65,4.46,1.94
		c1.08,1.3,1.62,3.06,1.62,5.3v17.06h3.76v-17.13c0-3.34-0.81-5.94-2.42-7.8c-1.61-1.86-3.85-2.79-6.74-2.79
		c-1.16,0-2.25,0.17-3.26,0.5c-1.01,0.33-1.94,0.74-2.78,1.24c-0.84,0.5-1.6,1.05-2.27,1.66c-0.67,0.6-1.24,1.19-1.68,1.74
		l-0.83-4.75h-2.93v27.34h3.76V120.55z"/>
	<g>
		<path class="st4" d="M395.34,105.2c-0.05-0.14-0.1-0.29-0.15-0.43l-0.17-0.4l-1.16-2.62h-0.82v4.79h0.63v-2.93v-0.45v-0.43h0.04
			c0.02,0.09,0.06,0.21,0.11,0.35c0.05,0.14,0.11,0.29,0.19,0.46l0.99,2.19h0.72l0.99-2.19c0.08-0.17,0.14-0.32,0.19-0.46
			c0.05-0.14,0.09-0.25,0.15-0.35v0.43v0.45v2.93h0.63v-4.79h-0.82l-1.16,2.62c-0.05,0.12-0.11,0.25-0.17,0.4
			c-0.06,0.14-0.11,0.29-0.15,0.43H395.34z M392.2,102.4v-0.64h-3.56v0.62l1.45-0.01v4.18h0.63v-4.17L392.2,102.4z"/>
	</g>
	<linearGradient id="SVGID_3_" gradientUnits="userSpaceOnUse" x1="20.7187" y1="84.9858" x2="20.7187" y2="169.8897">
		<stop  offset="0" style="stop-color:#27C2F1"/>
		<stop  offset="1" style="stop-color:#294586"/>
	</linearGradient>
	<path class="st5" d="M15.97,115.75c0.27,2.15,0.44,4.42,0.46,6.75c-0.01,2.1-0.15,4.16-0.38,6.12c2.03,0.77,5,2.2,8.23,4.27
		c0.68-3.13,1.17-6.69,1.18-10.39c-0.02-3.89-0.55-7.63-1.29-10.88C20.96,113.68,18.01,115.04,15.97,115.75z"/>
	<linearGradient id="SVGID_4_" gradientUnits="userSpaceOnUse" x1="78.3975" y1="84.9858" x2="78.3975" y2="169.8897">
		<stop  offset="0" style="stop-color:#27C2F1"/>
		<stop  offset="1" style="stop-color:#294586"/>
	</linearGradient>
	<path class="st6" d="M83.14,129.25c-0.27-2.15-0.44-4.42-0.46-6.75c0.01-2.1,0.15-4.16,0.38-6.13c-2.03-0.77-5-2.2-8.23-4.27
		c-0.68,3.13-1.17,6.69-1.18,10.39c0.02,3.89,0.55,7.63,1.29,10.88C78.15,131.32,81.11,129.96,83.14,129.25z"/>
	<linearGradient id="SVGID_5_" gradientUnits="userSpaceOnUse" x1="50.0833" y1="156.5027" x2="50.0833" y2="169.7257">
		<stop  offset="0" style="stop-color:#262261"/>
		<stop  offset="0.1791" style="stop-color:#294586"/>
	</linearGradient>
	<path class="st7" d="M35.55,158.43c0.86,1.6,1.53,3.06,1.98,4.28c0.35,0.93,1.75,2.59,1.75,2.59c5.89,5.89,15.42,5.91,21.28,0.05
		c0,0,1.33-1.46,1.86-2.39c0.66-1.15,1.37-2.59,2.21-4.2c-2.45-0.76-5.31-1.6-8.49-2.15l-0.03,0.11c-0.13,0.41-1.15,1.44-1.15,1.44
		c-2.93,2.93-7.15,2.92-10.1-0.02c0,0-1.11-1.29-1.21-1.56l-0.03-0.07C40.64,156.97,37.91,157.71,35.55,158.43z"/>
</g>
</svg>
