<?xml version="1.0" encoding="UTF-8" standalone="no"?>
<svg
   xmlns:dc="http://purl.org/dc/elements/1.1/"
   xmlns:cc="http://creativecommons.org/ns#"
   xmlns:rdf="http://www.w3.org/1999/02/22-rdf-syntax-ns#"
   xmlns:svg="http://www.w3.org/2000/svg"
   xmlns="http://www.w3.org/2000/svg"
   xmlns:sodipodi="http://sodipodi.sourceforge.net/DTD/sodipodi-0.dtd"
   xmlns:inkscape="http://www.inkscape.org/namespaces/inkscape"
   width="162px"
   height="27px"
   viewBox="0 0 162 27"
   version="1.1"
   id="svg14"
   sodipodi:docname="5ebdf83dcd9d98df038cc70a_ML-Logo_Color.svg">
  <metadata
     id="metadata20">
    <rdf:RDF>
      <cc:Work
         rdf:about="">
        <dc:format>image/svg+xml</dc:format>
        <dc:type
           rdf:resource="http://purl.org/dc/dcmitype/StillImage" />
      </cc:Work>
    </rdf:RDF>
  </metadata>
  <defs
     id="defs18" />
  <sodipodi:namedview
     pagecolor="#ffffff"
     bordercolor="#666666"
     borderopacity="1"
     objecttolerance="10"
     gridtolerance="10"
     guidetolerance="10"
     inkscape:pageopacity="0"
     inkscape:pageshadow="2"
     inkscape:window-width="640"
     inkscape:window-height="480"
     id="namedview16" />
  <!-- Generator: Sketch 64 (93537) - https://sketch.com -->
  <title
     id="title2">ML-Logo_Color</title>
  <desc
     id="desc4">Created with Sketch.</desc>
  <g
     id="Symbols"
     stroke="none"
     stroke-width="1"
     fill="none"
     fill-rule="evenodd">
    <g
       id="Logo-Dark"
       transform="translate(-46.000000, -15.000000)">
      <g
         id="Logo">
        <g
           id="ML-Logo_Color"
           transform="translate(46.000000, 15.000000)">
          <g
             id="Group-14">
            <g
               id="Group-9"
               transform="translate(0.000000, 0.595946)" />
            <path
               d="M29.8418919,15.9588649 L29.8427027,16.0399459 L29.8386486,16.0399459 C29.8386486,16.6253514 29.6618919,17.2042703 29.3091892,17.7321081 C29.0391892,18.1350811 28.667027,18.5064324 28.1935135,18.8226486 L27.972973,18.9694054 C26.4064865,20.0185946 24.8375676,21.0685946 23.2735135,22.116973 L20.8159459,23.7637297 C19.997027,24.3134595 19.1764865,24.8623784 18.3567568,25.4104865 C17.3918919,26.0558919 16.1456757,26.3802162 14.9172973,26.3802162 C13.6889189,26.3802162 12.4435135,26.0567027 11.4794595,25.4104865 L9.59675676,24.1496757 C8.58486486,23.4726486 7.57216216,22.7948108 6.5627027,22.116973 C5.59054054,21.4642703 4.61513514,20.8115676 3.64135135,20.1596757 L1.64594595,18.8226486 C1.17486486,18.5080541 0.804324324,18.1383243 0.535135135,17.7361622 C0.178378378,17.2042703 -1.10134124e-13,16.6237297 -1.10134124e-13,16.0399459 L0.00405405405,16.0399459 L0.00486486486,15.9661622 C0.300810811,16.2921081 0.638918919,16.5799459 1.00621622,16.8248108 L1.56081081,17.1953514 C1.75864865,17.4612973 2.01162162,17.6842703 2.28567568,17.8675135 L4.28108108,19.2045405 C5.25486486,19.8572432 6.22945946,20.5091351 7.20243243,21.1618378 C8.21351351,21.8396757 9.22459459,22.5183243 10.2356757,23.1953514 L12.1191892,24.4553514 C12.9210811,24.9929189 13.9597297,25.2312973 14.9172973,25.2312973 C15.8756757,25.2312973 16.9151351,24.9929189 17.7178378,24.4553514 C18.5375676,23.9080541 19.3572973,23.3583243 20.1762162,22.8094054 L22.6337838,21.1618378 C24.2002703,20.1118378 25.7667568,19.0634595 27.3340541,18.0142703 L27.5545946,17.8675135 C27.8294595,17.6834595 28.0832432,17.4596757 28.2827027,17.1929189 L28.6127027,16.9723784 L28.8324324,16.8248108 C29.202973,16.5783243 29.5443243,16.2888649 29.8418919,15.9588649 Z M29.8410811,13.0007027 L29.8427027,13.0866486 L29.8386486,13.0866486 C29.8386486,13.6736757 29.6618919,14.2517838 29.3091892,14.7788108 C29.0391892,15.1817838 28.667027,15.5531351 28.1935135,15.8701622 L27.972973,16.0177297 C26.4064865,17.0661081 24.8375676,18.1152973 23.2735135,19.1644865 L20.8159459,20.8120541 C19.997027,21.360973 19.1764865,21.9107027 18.3567568,22.458 C17.3918919,23.1042162 16.1456757,23.4269189 14.9172973,23.4269189 C13.6889189,23.4269189 12.4435135,23.1042162 11.4794595,22.458 L9.59675676,21.1963784 C8.58486486,20.5193514 7.57216216,19.8415135 6.5627027,19.1644865 C5.59054054,18.5125946 4.61513514,17.8590811 3.64135135,17.2063784 L1.64594595,15.8701622 C1.17486486,15.5547568 0.804324324,15.185027 0.535135135,14.7844865 C0.178378378,14.2517838 -1.13686838e-13,13.6720541 -1.13686838e-13,13.0874595 L0.00405405405,13.0874595 L0.00486486486,13.0071892 C0.300810811,13.3339459 0.638918919,13.6201622 1.00621622,13.8666486 L1.55108108,14.2307027 C1.75054054,14.5015135 2.00675676,14.7293514 2.28567568,14.915027 L4.28108108,16.2520541 C5.25486486,16.9039459 6.22945946,17.5566486 7.20243243,18.2101622 C8.21351351,18.888 9.22459459,19.565027 10.2356757,20.2420541 L12.1191892,21.5028649 C12.9210811,22.0396216 13.9597297,22.2771892 14.9172973,22.2771892 C15.8756757,22.2771892 16.9151351,22.0388108 17.7178378,21.5020541 C18.5375676,20.9547568 19.3572973,20.4058378 20.1762162,19.8569189 L22.6337838,18.2101622 C24.2002703,17.1601622 25.7667568,16.110973 27.3340541,15.0625946 L27.5545946,14.9142162 C27.8335135,14.7285405 28.0921622,14.4998919 28.2924324,14.2282703 L28.8324324,13.8666486 C29.2021622,13.6193514 29.5435135,13.3298919 29.8410811,13.0007027 Z M18.4321622,0.810891892 L18.9867568,1.18224324 C20.4154054,2.13981081 21.8464865,3.099 23.2735135,4.05413514 C24.2756757,4.72467568 25.2810811,5.39764865 26.2856757,6.069 L28.1935135,7.34440541 C28.667027,7.66143243 29.04,8.03278378 29.3091892,8.43494595 C29.6651351,8.96764865 29.8427027,9.54575676 29.8427027,10.1279189 L29.8386486,10.1279189 C29.8386486,10.7141351 29.6618919,11.2930541 29.3091892,11.8200811 C29.0391892,12.2230541 28.667027,12.5944054 28.1935135,12.9114324 L27.972973,13.059 C26.4064865,14.1073784 24.8375676,15.1565676 23.2735135,16.2057568 L20.8159459,17.8517027 C19.997027,18.4014324 19.1764865,18.9511622 18.3567568,19.4992703 C17.3918919,20.1454865 16.1456757,20.4681892 14.9172973,20.4681892 C13.6889189,20.4681892 12.4435135,20.1454865 11.4794595,19.4992703 L9.59675676,18.2384595 C8.58486486,17.5606216 7.57216216,16.8827838 6.5627027,16.2057568 C5.59054054,15.5530541 4.61513514,14.9003514 3.64135135,14.2476486 L1.64594595,12.9114324 C1.17486486,12.596027 0.804324324,12.2262973 0.535135135,11.8249459 C0.178378378,11.2930541 -1.13686838e-13,10.7133243 -1.13686838e-13,10.1287297 L0.00405405405,10.1287297 C0.00405405405,9.54008108 0.180810811,8.95954054 0.535135135,8.43089189 C0.804324324,8.03035135 1.17486486,7.65981081 1.64594595,7.34440541 C2.62702703,6.68602703 3.61378378,6.02683784 4.59891892,5.36764865 L6.5627027,4.05413514 C8.16486486,2.98143243 9.77675676,1.90143243 11.3805405,0.826297297 L11.4040541,0.810891892 L18.4321622,0.810891892 Z M17.8159459,2.93035135 L17.849,2.95289189 L17.1859459,3.39656757 C16.6422973,3.75997297 15.9200108,3.9605027 15.16863,3.99697459 L14.9172973,4.00305405 C14.1605676,4.00305405 13.4182865,3.83952162 12.8376332,3.51186568 L12.6502703,3.39656757 L11.987027,2.95224324 L9.85905405,4.37845946 L9.85905405,4.37845946 L7.73351351,5.80224324 L5.76972973,7.11575676 C4.78459459,7.77494595 3.79783784,8.43413514 2.81675676,9.09251351 C2.58,9.25062162 2.40243243,9.42413514 2.28324324,9.6017027 C2.18918919,9.74245946 2.1324973,9.88581081 2.1135827,10.0251146 L2.10648649,10.1287297 C2.11054054,10.3030541 2.16810811,10.4830541 2.28324324,10.6541351 C2.37859459,10.7968378 2.51130811,10.9359081 2.68179892,11.0667795 L2.81675676,11.1633243 L4.81216216,12.4995405 C5.78594595,13.1522432 6.76135135,13.8049459 7.73351351,14.4576486 L9.24962838,15.4736959 L9.24962838,15.4736959 L10.7675676,16.4903514 L12.6502703,17.7503514 C13.2535135,18.1549459 14.0764865,18.3576486 14.9172973,18.3576486 C15.7572973,18.3576486 16.5818919,18.1549459 17.1859459,17.7503514 L18.4158446,16.9283919 L18.4158446,16.9283919 L19.6451351,16.1052162 L22.1027027,14.4576486 L24.4515203,12.8839662 L24.4515203,12.8839662 L26.8021622,11.3108919 L27.0227027,11.1633243 C27.2610811,11.0035946 27.4410811,10.8292703 27.5610811,10.6500811 C27.6538378,10.5106216 27.7102703,10.3685676 27.729133,10.2305611 L27.7362162,10.1279189 C27.7321622,9.95440541 27.6745946,9.77602703 27.5610811,9.60575676 C27.4650811,9.46240541 27.3312,9.32216757 27.1590227,9.19002486 L27.0227027,9.09251351 L25.1148649,7.81710811 C24.1102703,7.14494595 23.1048649,6.47278378 22.1027027,5.80224324 C20.6756757,4.84710811 19.2445946,3.88791892 17.8159459,2.93035135 Z M22.5687568,8.89402703 C23.0528108,9.21754054 23.5336216,9.54024324 24.0176757,9.86213514 C22.4309189,10.9251081 20.8441622,11.9880811 19.2598378,13.0478108 C17.6755135,14.1083514 16.0887568,15.1705135 14.5060541,16.2294324 C14.0228108,15.9083514 13.5411892,15.5848378 13.0579459,15.2621351 C14.6406486,14.2015946 16.2274054,13.1402432 17.8117297,12.0797027 C19.3968649,11.0191622 20.9828108,9.95618919 22.5687568,8.89402703 Z M19.6733514,6.95456757 L21.1214595,7.9242973 L21.1214595,7.9242973 C19.5363243,8.98808108 17.9495676,10.0502432 16.3652432,11.109973 C14.7809189,12.1705135 13.194973,13.2334865 11.6122703,14.2932162 C11.1282162,13.9697027 10.644973,13.647 10.1633514,13.3242973 C11.7468649,12.2637568 13.3328108,11.2007838 14.9171351,10.1402432 C16.5014595,9.08051351 18.0882162,8.01835135 19.6733514,6.95456757 Z M11.4006486,8.61835135 L12.8487568,9.58727027 L11.0528108,10.7897027 L8.71605405,12.3553784 L8.71605405,12.3553784 C8.23281081,12.0318649 7.75037838,11.7091622 7.26794595,11.3856486 C8.04632432,10.8642973 8.82632432,10.3413243 9.6047027,9.82078378 L11.4006486,8.61835135 Z M13.8706216,5.08686486 C14.2622432,5.34875676 14.3271081,5.75416216 14.0798108,6.09632432 C14.5533243,6.14335135 15.0292703,6.19118919 15.5052162,6.23821622 C15.4541351,6.02821622 15.4054865,5.81821622 15.3544054,5.60740541 L16.4368378,4.88335135 L16.4368378,4.88335135 L16.6784595,6.14497297 L16.6784595,6.14497297 C17.3498108,6.19686486 18.0195405,6.24713514 18.6908919,6.29659459 C18.3073784,6.55605405 17.9222432,6.81389189 17.5379189,7.07091892 C17.1876486,7.03362162 16.8357568,6.99794595 16.4830541,6.95983784 C16.5398108,7.19416216 16.5957568,7.4292973 16.6533243,7.66443243 C16.2908919,7.90605405 15.9292703,8.14605405 15.5700811,8.38767568 C15.4833243,7.93848649 15.3965676,7.48767568 15.3114324,7.03767568 C14.5792703,6.96389189 13.8487297,6.89091892 13.1181892,6.81632432 C13.0598108,6.85605405 13.0006216,6.89578378 12.9414324,6.93551351 C13.3808919,7.22902703 13.8195405,7.52335135 14.2565676,7.81605405 C13.8949459,8.05686486 13.5333243,8.2992973 13.1717027,8.54091892 C12.7346757,8.24659459 12.296027,7.9547027 11.8565676,7.66037838 C11.246027,7.25172973 10.6354865,6.84308108 10.0265676,6.43362162 C10.3881892,6.19118919 10.7498108,5.94956757 11.1114324,5.70875676 C11.391973,5.51983784 11.6749459,5.33091892 11.9562973,5.14281081 C12.5068378,4.7747027 13.3671081,4.75037838 13.8706216,5.08686486 Z M12.9081892,5.73064865 C12.7371081,5.6147027 12.4411622,5.62524324 12.2530541,5.75091892 C12.0325135,5.89767568 11.8127838,6.04443243 11.5930541,6.19281081 L11.5930541,6.19281081 L12.2198108,6.61281081 C12.4395405,6.46443243 12.6592703,6.31767568 12.8806216,6.17091892 C13.0687297,6.04524324 13.0817027,5.84578378 12.9081892,5.73064865 Z"
               id="Combined-Shape"
               fill="#011F42" />
          </g>
          <path
             d="M45.699141,9.92030228 L41.5546311,16.2072141 L41.4796174,16.2072141 L37.3726143,9.95840478 L37.3726143,19.4840287 L35.1034483,19.4840287 L35.1034483,6.1481552 L37.5601487,6.1481552 L41.5546311,12.4541182 L45.5491135,6.1481552 L48.005814,6.1481552 L48.005814,19.4840287 L45.699141,19.4840287 L45.699141,9.92030228 Z M61.1365032,6.1481552 L61.1365032,8.24379247 L53.7101415,8.24379247 L53.7101415,11.7111196 L60.2925984,11.7111196 L60.2925984,13.8067568 L53.7101415,13.8067568 L53.7101415,17.3883914 L61.2302704,17.3883914 L61.2302704,19.4840287 L51.4034686,19.4840287 L51.4034686,6.1481552 L61.1365032,6.1481552 Z M75.8612347,12.7970407 C75.8612347,13.736907 75.6924554,14.6164308 75.3548918,15.4356385 C75.0173282,16.2548463 74.5391203,16.9629106 73.9202538,17.5598527 C73.3013872,18.1567948 72.5637593,18.6267208 71.707348,18.969645 C70.8509367,19.3125692 69.9101486,19.4840287 68.8849555,19.4840287 L63.9903081,19.4840287 L63.9903081,6.1481552 L68.8849555,6.1481552 C69.9101486,6.1481552 70.8509367,6.31643954 71.707348,6.65301327 C72.5637593,6.989587 73.3013872,7.45633791 73.9202538,8.05327999 C74.5391203,8.65022207 75.0173282,9.3551112 75.3548918,10.1679685 C75.6924554,10.9808258 75.8612347,11.8571744 75.8612347,12.7970407 Z M73.4420411,12.8351432 C73.4420411,12.1746966 73.3326471,11.568238 73.1138559,11.015749 C72.8950647,10.4632601 72.5887616,9.98380847 72.1949374,9.57737982 C71.8011132,9.17095117 71.3229053,8.85343354 70.7602994,8.62481743 C70.1976934,8.39620131 69.572585,8.28189496 68.8849555,8.28189496 L66.296981,8.28189496 L66.296981,17.3502889 L68.8849555,17.3502889 C69.572585,17.3502889 70.1976934,17.2391578 70.7602994,17.0168921 C71.3229053,16.7946264 71.8011132,16.4834592 72.1949374,16.083381 C72.5887616,15.6833028 72.8950647,15.2070263 73.1138559,14.6545374 C73.3326471,14.1020484 73.4420411,13.4955898 73.4420411,12.8351432 Z M78.8088067,6.1481552 L81.1154797,6.1481552 L81.1154797,19.4840287 L78.8088067,19.4840287 L78.8088067,6.1481552 Z M84.6444084,19.4840287 L84.6444084,6.1481552 L86.9510813,6.1481552 L86.9510813,17.3502889 L93.8523467,17.3502889 L93.8523467,19.4840287 L84.6444084,19.4840287 Z M106.007857,6.1481552 L106.007857,8.24379247 L98.5814954,8.24379247 L98.5814954,11.7111196 L105.163952,11.7111196 L105.163952,13.8067568 L98.5814954,13.8067568 L98.5814954,17.3883914 L106.101624,17.3883914 L106.101624,19.4840287 L96.2748225,19.4840287 L96.2748225,6.1481552 L106.007857,6.1481552 Z M120.732589,12.7970407 C120.732589,13.736907 120.563809,14.6164308 120.226246,15.4356385 C119.888682,16.2548463 119.410474,16.9629106 118.791608,17.5598527 C118.172741,18.1567948 117.435113,18.6267208 116.578702,18.969645 C115.722291,19.3125692 114.781503,19.4840287 113.756309,19.4840287 L108.861662,19.4840287 L108.861662,6.1481552 L113.756309,6.1481552 C114.781503,6.1481552 115.722291,6.31643954 116.578702,6.65301327 C117.435113,6.989587 118.172741,7.45633791 118.791608,8.05327999 C119.410474,8.65022207 119.888682,9.3551112 120.226246,10.1679685 C120.563809,10.9808258 120.732589,11.8571744 120.732589,12.7970407 Z M118.313395,12.8351432 C118.313395,12.1746966 118.204001,11.568238 117.98521,11.015749 C117.766419,10.4632601 117.460115,9.98380847 117.066291,9.57737982 C116.672467,9.17095117 116.194259,8.85343354 115.631653,8.62481743 C115.069047,8.39620131 114.443939,8.28189496 113.756309,8.28189496 L111.168335,8.28189496 L111.168335,17.3502889 L113.756309,17.3502889 C114.443939,17.3502889 115.069047,17.2391578 115.631653,17.0168921 C116.194259,16.7946264 116.672467,16.4834592 117.066291,16.083381 C117.460115,15.6833028 117.766419,15.2070263 117.98521,14.6545374 C118.204001,14.1020484 118.313395,13.4955898 118.313395,12.8351432 Z M135.251032,17.6360577 C134.925971,17.9154774 134.566534,18.1821922 134.172709,18.4362101 C133.778885,18.690228 133.353812,18.9124903 132.897476,19.1030037 C132.44114,19.2935172 131.95043,19.4427505 131.425331,19.5507081 C130.900232,19.6586657 130.350136,19.7126437 129.775028,19.7126437 C128.749835,19.7126437 127.818424,19.538009 126.980766,19.1887344 C126.143108,18.8394597 125.427359,18.356833 124.833497,17.7408395 C124.239635,17.1248461 123.780181,16.3977307 123.455119,15.5594716 C123.130058,14.7212125 122.96753,13.8131121 122.96753,12.8351432 C122.96753,11.8952769 123.133184,11.0062276 123.464496,10.1679685 C123.795808,9.3297094 124.261514,8.5962437 124.861627,7.96754937 C125.46174,7.33885505 126.177489,6.84035238 127.008896,6.47202642 C127.840303,6.10370045 128.749835,5.91954023 129.737521,5.91954023 C130.31263,5.91954023 130.834595,5.96081752 131.303433,6.04337334 C131.772272,6.12592916 132.206722,6.24341068 132.606797,6.39582143 C133.006873,6.54823217 133.385063,6.73556757 133.74138,6.95783324 C134.097698,7.18009891 134.444633,7.43728818 134.782196,7.72940878 L133.319428,9.50117483 C133.069381,9.28525961 132.813087,9.08839868 132.550537,8.91058614 C132.287988,8.73277361 132.01294,8.58354033 131.725386,8.46288182 C131.437832,8.34222331 131.122152,8.24696803 130.778337,8.1771131 C130.434522,8.10725818 130.056332,8.07233124 129.643754,8.07233124 C129.043641,8.07233124 128.484169,8.19616311 127.965321,8.44383057 C127.446474,8.69149803 126.996396,9.03124189 126.615074,9.46307233 C126.233752,9.89490278 125.9337,10.3965806 125.714909,10.9681209 C125.496117,11.5396612 125.386724,12.149295 125.386724,12.7970407 C125.386724,13.4828891 125.492992,14.1179243 125.705532,14.7021655 C125.918072,15.2864067 126.22125,15.7912597 126.615074,16.2167397 C127.008898,16.6422197 127.477729,16.9756132 128.021582,17.2169302 C128.565434,17.4582472 129.174915,17.5789039 129.850042,17.5789039 C130.47516,17.5789039 131.059636,17.4868238 131.603488,17.3026608 C132.147341,17.1184978 132.619298,16.8740093 133.019373,16.5691878 L133.019373,14.0734743 L129.662508,14.0734743 L129.662508,12.0349908 L135.251032,12.0349908 L135.251032,17.6360577 Z M148.006653,6.1481552 L148.006653,8.24379247 L140.580291,8.24379247 L140.580291,11.7111196 L147.162748,11.7111196 L147.162748,13.8067568 L140.580291,13.8067568 L140.580291,17.3883914 L148.10042,17.3883914 L148.10042,19.4840287 L138.273618,19.4840287 L138.273618,6.1481552 L148.006653,6.1481552 Z M162,19.4840287 L159.280751,19.4840287 L156.05516,14.8355242 L153.16713,14.8355242 L153.16713,19.4840287 L150.860458,19.4840287 L150.860458,6.1481552 L156.71153,6.1481552 C157.461672,6.1481552 158.139914,6.24658567 158.746278,6.44344955 C159.352643,6.64031342 159.865231,6.91972893 160.28406,7.28170445 C160.702889,7.64367997 161.02482,8.08820464 161.249862,8.6152918 C161.474905,9.14237896 161.587424,9.72978656 161.587424,10.3775322 C161.587424,10.9363716 161.509286,11.4348743 161.353006,11.8730552 C161.196727,12.3112361 160.981065,12.6986076 160.706013,13.0351813 C160.430961,13.371755 160.102779,13.6575209 159.721457,13.8924875 C159.340135,14.127454 158.918187,14.3084391 158.4556,14.435448 L162,19.4840287 Z M159.243245,10.510891 C159.243245,9.77423903 159.005703,9.21858319 158.530614,8.84390678 C158.055524,8.46923036 157.386658,8.28189496 156.523996,8.28189496 L153.16713,8.28189496 L153.16713,12.7589382 L156.542749,12.7589382 C157.367905,12.7589382 158.024269,12.5557269 158.51186,12.1492983 C158.999452,11.7428696 159.243245,11.1967393 159.243245,10.510891 Z"
             id="MEDILEDGER"
             fill="#011F42"
             fill-rule="nonzero" />
        </g>
      </g>
    </g>
  </g>
</svg>
