<svg xmlns="http://www.w3.org/2000/svg" role="img" viewBox="-4.83 -4.83 196.91 251.16"><style>svg {enable-background:new 0 0 187.4 241.6}</style><style>.st0{fill:#cf202f}</style><path d="M54 4.2s-1.4 3.2-3.1 7c-2.5 5.6-5.8 13.2-7.7 20-2.7 9.3-4.6 23-2.1 33.1 1.1 4.3 2.1 7.4 3.7 11.1 2.6 6.3 6.7 12.7 14 19.7 0 0 2.5-3.3 3.5-9.2.6-3.5.6-4.3.8-7 .4-4.3.4-8.9.6-14.1.3-6.9-.3-14.5-2-24.7-.9-5.4-2.5-15.3-3.8-20.9-1.4-5.8-3.9-15-3.9-15m35.8 13.1c-2.8 2-3.1 2.7-4.9 4.6-1.9 2.1-2.3 3.6-2 6.3.1.7.5 2.1.9 2.8 1.4 2.2 3.3 3.3 5.7 3.4 1.4 0 4-1.2 6.6-4.6s3.2-4.7 3.1-6.3c0-1.3-.3-2.8-1.9-4.5-1.8-2.1-5.5-3.2-7.5-1.7m-15 33.5c1.8 7.3 2 14 2 14 6.1-8.6 12.4-16.1 20.5-22.6 8.8-7 15-11.2 26.3-16.2 10-4.4 14.8-5.7 19.8-7.2 5.8-1.8 9.8-2.9 15.2-4 5.2-1.1 10.3-2 10.3-.8 0 .9-5.9 2.9-6.7 3.3-4.1 1.8-7.9 3.1-16.6 7.1-10.3 4.8-17.8 10.1-26.6 17.2-7.8 6.4-15.4 15-22.1 23.9-1.7 2.3-6.3 7.5-10.2 13.6-3.4 5.5-6.6 11.2-7.7 13-2 3.5-5.8 11.5-5.8 11.5s3.5 1.2 9.6 1c7.1-.3 12.5-1.1 21.5-5.6 10.1-5.1 16.8-11.2 24.1-18.8 7-7.3 12.1-13.2 18.3-22.6 4-6 7.3-10.5 12.6-21 3.3-6.6 4.8-13.8 5.8-14.1 1.1-.3 1.3 6.7.4 12.8-2.4 15-3.9 19.2-8.5 28.9-3.3 7-8.2 14.3-15 21.3-7.1 7.2-13 12.2-22.4 18.2-6.8 4.4-11.5 6.5-18.9 8.6-8.3 2.3-17.9 1.8-21.5 1.5-5.2-.4-9.4-1.7-9.4-1.7-1.5 2.6-4.1 11.1-5 14.6-.9 3.5-2.5 7.3-3.4 8.9-1.3 2.4-3.1 4-4.8 3.4-3.1-1.1-4.7-4-5.3-7.8-1-6-.1-12.3.6-15.8 1-5 3-11.3 3-11.3-1.7-1.8-6.9-6.9-12.8-18-4.7-8.8-8.4-20.6-8.2-32.3.2-12.4 3-24.3 8.6-35.5 2.7-5.5 5-8.6 7-11.7C51.5 3.4 54 0 54.3 0c.4 0 5.9 11.4 11.4 24.6 5.6 13.5 7.2 18.6 9.1 26.2M71.2 221c0-6.3-4.3-11.5-10.2-11.5-6 0-10.2 5.1-10.2 11.5 0 6.5 4 11.5 10.2 11.5 6.1 0 10.2-5.1 10.2-11.5m4.6 14.5c-4 3.9-9.4 6-14.8 6-4.8 0-9.5-1.7-13.3-4.7-4.9-3.9-7.6-9.5-7.6-15.8 0-5.6 2.1-10.6 6.1-14.5 3.9-3.8 9.3-6 14.8-6s10.9 2.2 14.8 6c4 3.9 6.1 9 6.1 14.5 0 5.6-2.2 10.7-6.1 14.5m22.1-15.6c4.5 0 6.6-1.4 6.6-4.9 0-4.1-2-5.4-6.5-5.4h-2.1v10.3h2zm-12-18.5H97.8c5.4 0 9.6.1 12.9 2.6 2.8 2.2 4.4 5.5 4.4 9.6 0 6.1-3.1 10-8.8 11.2l10.7 15.7h-12l-9-15.3v15.3H86l-.1-39.1zm46.8 17.6c4.5 0 6.9-.9 6.9-4.6 0-3.8-2.5-4.5-6.8-4.5h-2.1v9.2l2-.1zm-12 21.5v-39.1h12c4.9 0 8.8.1 11.9 2 3.4 2.2 5.5 6.2 5.5 11.3 0 5.2-1.9 9.1-5.4 11.2-2.7 1.6-5.7 1.7-9.3 1.7h-4.7v12.9h-10zm44.6-7.3c3 0 4.9-1.7 4.9-4 0-3.1-2.1-4-6.6-5.2-7.1-1.9-10.5-4.7-10.5-10.8 0-7.3 5.3-12.7 13.5-12.7 4.4 0 8.2 1.2 11.6 3.5l-3.3 7.7c-2.5-2.1-5.1-3.1-7.5-3.1-2.6 0-4.3 1.4-4.3 3.3 0 2.8 2.7 3.4 6.2 4.3 6.9 1.9 10.8 4.4 10.8 11.6 0 8.1-5.8 13.8-15 13.8-5.5 0-9.7-1.7-13.9-5.7l4.8-7.9c3.1 3.4 6.1 5.2 9.3 5.2m-144.4-.8c-6.1 0-10.1-4.2-10.3-11.5.2-7.3 4.1-11.5 10.3-11.5 3.4 0 6.2 1.5 8.4 4.5l9.2-4.4c-4-6-10-9-17.6-9-12 0-20.9 8.6-20.9 20.5s8.9 20.5 20.9 20.5c7.6 0 13.6-3.1 17.6-9l-9.2-4.4c-2.2 2.9-5 4.3-8.4 4.3M33.3 192v-25.7c-.5 3.4-1.4 5.8-1.8 7.3l-5.3 18.3h-7.1l-5.3-18.3c-.4-1.5-1.3-3.9-1.8-7.3V192H2v-39.1h13.5l5.9 20.2c.4 1.3.9 3 1.3 5.3.3-2.2.8-3.9 1.2-5.4l6-20.1h13.5V192H33.3zm16-39.1h24v8.6H59.7v6.8h12.8v8.3H59.7v6.7h13.6v8.7h-24zm41.4 18.5c4.5 0 6.6-1.4 6.6-4.9 0-4.1-2-5.4-6.5-5.4h-2.1v10.3h2zm-12-18.5H90.6c5.4 0 9.6.1 12.9 2.6 2.8 2.2 4.4 5.5 4.4 9.6 0 6.1-3.1 10-8.8 11.2l10.7 15.7h-12l-9-15.3V192h-10l-.1-39.1zm53.1 31.1c-6.1 0-10.1-4.2-10.3-11.5.2-7.3 4.1-11.5 10.3-11.5 3.4 0 6.2 1.5 8.4 4.5l9.2-4.4c-4-6-10-9-17.6-9-12 0-20.9 8.6-20.9 20.5s8.9 20.5 20.9 20.5c7.6 0 13.6-3.1 17.6-9l-9.2-4.4c-2.2 2.8-5 4.3-8.4 4.3" class="st0"/><path d="M151.8 192.8h12l23.6-39.9h-12.1l-7 11.9-8.4-11.9h-11.8l14.8 21.1z" class="st0"/></svg>