<?xml version="1.0" encoding="UTF-8" standalone="no"?>
<svg
   xmlns:dc="http://purl.org/dc/elements/1.1/"
   xmlns:cc="http://creativecommons.org/ns#"
   xmlns:rdf="http://www.w3.org/1999/02/22-rdf-syntax-ns#"
   xmlns:svg="http://www.w3.org/2000/svg"
   xmlns="http://www.w3.org/2000/svg"
   xmlns:sodipodi="http://sodipodi.sourceforge.net/DTD/sodipodi-0.dtd"
   xmlns:inkscape="http://www.inkscape.org/namespaces/inkscape"
   version="1.1"
   id="svg2"
   xml:space="preserve"
   width="192"
   height="88.160004"
   viewBox="0 0 192 88.160004"
   sodipodi:docname="metrika-logo.eps"><metadata
     id="metadata8"><rdf:RDF><cc:Work
         rdf:about=""><dc:format>image/svg+xml</dc:format><dc:type
           rdf:resource="http://purl.org/dc/dcmitype/StillImage" /></cc:Work></rdf:RDF></metadata><defs
     id="defs6" /><sodipodi:namedview
     pagecolor="#ffffff"
     bordercolor="#666666"
     borderopacity="1"
     objecttolerance="10"
     gridtolerance="10"
     guidetolerance="10"
     inkscape:pageopacity="0"
     inkscape:pageshadow="2"
     inkscape:window-width="640"
     inkscape:window-height="480"
     id="namedview4" /><g
     id="g10"
     inkscape:groupmode="layer"
     inkscape:label="ink_ext_XXXXXX"
     transform="matrix(1.3333333,0,0,-1.3333333,0,88.16)"><g
       id="g12"
       transform="scale(0.1)"><path
         d="M 1373.61,72.9023 1339.07,151.25 1304.52,72.9023 Z M 1291.46,43.2539 1272.42,0 h -34.27 l 83.78,190.148 h 34.28 L 1439.99,0 h -34.28 l -19.04,43.2539 h -95.21 z M 1042.94,190.148 h 32.1 V 97.3828 l 87.04,92.7652 h 40.81 L 1126.45,106.906 1203.98,0 h -38.09 l -63.1,83.2422 -27.75,-29.9219 V 0 h -32.1 v 190.148 z m -114.956,0 h 32.098 V 0 H 927.984 V 190.148 Z M 771.949,93.0273 c 18.133,0 30.469,2.8125 37,8.4377 6.535,5.625 9.797,14.648 9.797,27.07 0,12.414 -3.359,20.949 -10.07,25.567 -6.707,4.628 -18.68,6.933 -35.906,6.933 H 731.969 V 93.0273 h 39.98 z m 79.707,35.3707 c 0,-31.3746 -13.691,-51.1402 -41.074,-59.3042 L 860.367,0 h -40.812 l -45.43,63.9258 H 731.969 V 0 h -32.106 v 190.148 h 70.727 c 29.023,0 49.785,-4.894 62.297,-14.687 12.519,-9.797 18.769,-25.481 18.769,-47.063 z M 577.289,160.773 V 0 h -32.094 v 160.773 h -57.672 v 29.375 H 634.961 V 160.773 H 577.289 Z M 431.051,190.148 V 159.953 H 329.586 v -50.324 h 91.129 V 81.0664 H 329.586 V 30.1953 h 104.73 V 0 H 297.484 V 190.148 H 431.051 Z M 32.0977,0 H 0 V 190.148 H 50.0547 L 107.449,70.7344 164.844,190.148 h 49.785 V 0 H 182.527 V 148.527 L 116.156,16.5938 H 98.2031 L 32.0977,148.527 V 0 0"
         style="fill:#161a25;fill-opacity:1;fill-rule:evenodd;stroke:none"
         id="path14" /><path
         d="m 1016.39,364.844 c 0,61.367 -53.554,47.972 -53.554,110.074 0,64.625 53.554,51.664 53.554,113.262 0,40.347 -32.714,73.066 -73.066,73.066 -40.34,0 -73.066,-32.719 -73.066,-73.066 0,-46.782 -5.692,-51.168 -52.391,-97.871 -46.699,-46.704 -51.027,-52.399 -97.871,-52.399 -40.348,0 -73.066,-32.719 -73.066,-73.066 0,-40.352 32.718,-73.067 73.066,-73.067 40.352,0 73.067,32.715 73.067,73.067 0,45.594 5.691,51.168 52.402,97.871 35.066,35.086 78.348,87.258 78.348,12.203 0,-62.102 -53.555,-48.707 -53.555,-110.074 0,-40.352 32.726,-73.067 73.066,-73.067 40.352,0 73.066,32.715 73.066,73.067 z M 719.996,661.246 c 40.352,0 73.067,-32.719 73.067,-73.066 0,-40.348 -32.715,-73.067 -73.067,-73.067 -47.812,0 -51.164,-5.691 -97.867,-52.398 -46.703,-46.707 -52.395,-52.277 -52.395,-97.871 0,-40.352 -32.718,-73.067 -73.062,-73.067 -40.348,0 -73.07,32.715 -73.07,73.067 0,40.347 32.722,73.066 73.07,73.066 46.848,0 51.164,5.692 97.871,52.399 46.703,46.703 52.387,51.089 52.387,97.871 0,40.347 32.718,73.066 73.066,73.066 v 0"
         style="fill:#f1443d;fill-opacity:1;fill-rule:evenodd;stroke:none"
         id="path16" /></g></g></svg>
