<?xml version="1.0" encoding="UTF-8" standalone="no"?>
<svg
   xmlns:dc="http://purl.org/dc/elements/1.1/"
   xmlns:cc="http://creativecommons.org/ns#"
   xmlns:rdf="http://www.w3.org/1999/02/22-rdf-syntax-ns#"
   xmlns:svg="http://www.w3.org/2000/svg"
   xmlns="http://www.w3.org/2000/svg"
   xml:space="preserve"
   enable-background="new 54.064 105.541 445.253 63.814"
   viewBox="54.064 105.541 485.253 103.814"
   height="103.814"
   width="485.25299"
   y="0px"
   x="0px"
   id="MIRACL-4"
   version="1.1"><metadata
   id="metadata43"><rdf:RDF><cc:Work
       rdf:about=""><dc:format>image/svg+xml</dc:format><dc:type
         rdf:resource="http://purl.org/dc/dcmitype/StillImage" /><dc:title></dc:title></cc:Work></rdf:RDF></metadata><defs
   id="defs41" />
<g
   transform="translate(20,20)"
   id="g4">
	<path
   style="fill:#4c565c"
   id="path2"
   d="m 499.317,112.639 c 0,3.874 -3.121,7.14 -7.119,7.14 -3.979,0 -7.057,-3.225 -7.057,-7.098 0,-3.873 3.1,-7.14 7.1,-7.14 3.976,0.001 7.076,3.205 7.076,7.098 z m -1.193,0 c 0,-3.203 -2.555,-5.842 -5.883,-5.842 -3.352,0 -5.904,2.681 -5.904,5.884 0,3.204 2.533,5.842 5.861,5.842 3.349,0 5.926,-2.68 5.926,-5.884 z m -4.356,0.985 1.635,2.365 h -1.383 l -1.318,-2.135 h -0.314 -1.652 v 2.135 h -1.193 v -7.075 h 2.848 c 1.844,0 2.867,0.878 2.867,2.428 -0.004,1.109 -0.527,1.904 -1.49,2.282 z m -1.381,-0.775 c 1.088,0 1.736,-0.544 1.736,-1.486 0,-0.943 -0.648,-1.444 -1.736,-1.444 h -1.652 v 2.93 z" />
</g>
<g
   transform="translate(20,20)"
   id="g18">
	<path
   style="fill:#4c565c"
   id="path6"
   d="m 226.115,168.928 -0.08,-41.84 -17.682,36 h -6.16 l -17.68,-36 v 41.84 h -8.881 v -56 h 11.201 l 18.48,37.201 18.4,-37.201 h 11.121 v 56 z" />
	<path
   style="fill:#4c565c"
   id="path8"
   d="m 249.633,168.928 v -56 h 9.439 v 56 z" />
	<path
   style="fill:#4c565c"
   id="path10"
   d="m 299.072,151.969 c -0.799,0.08 -1.68,0.08 -2.562,0.08 h -13.278 v 16.879 h -9.438 v -56 h 22.719 c 14.32,0 22.561,6.959 22.561,19.119 0,8.961 -4.16,15.281 -11.6,18.162 l 12.561,18.719 h -10.721 z m -2.56,-8.401 c 8.641,0 13.602,-3.68 13.602,-11.281 0,-7.359 -4.961,-10.879 -13.602,-10.879 h -13.279 v 22.16 z" />
	<path
   style="fill:#4c565c"
   id="path12"
   d="m 339.551,156.289 -5.359,12.639 h -9.84 l 24.721,-56 h 9.68 l 24.48,56 h -10.08 l -5.359,-12.639 z m 14.082,-33.281 -10.562,24.881 h 21.121 z" />
	<path
   style="fill:#4c565c"
   id="path14"
   d="m 435.313,121.328 -5.521,6.879 c -4.08,-4.4 -9.92,-7.119 -15.6,-7.119 -11.201,0 -20.002,8.641 -20.002,19.68 0,11.041 8.801,19.759 20.002,19.759 5.6,0 11.359,-2.559 15.6,-6.639 l 5.6,6.24 c -5.68,5.6 -13.76,9.199 -21.68,9.199 -16.399,0 -29.121,-12.4 -29.121,-28.48 0,-15.92 12.882,-28.16 29.441,-28.16 7.922,0.001 15.842,3.28 21.281,8.641 z" />
	<path
   style="fill:#4c565c"
   id="path16"
   d="m 478.672,160.369 v 8.559 H 444.99 v -56 h 9.439 v 47.441 z" />
</g>
<g
   transform="translate(20,20)"
   id="g36">
	<polygon
   style="fill:#4c565c"
   id="polygon20"
   points="74.479,113.66 94.885,113.66 74.479,168.355 54.064,168.355 " />
	<polygon
   style="fill:#4c565c"
   id="polygon22"
   points="115.297,113.66 135.703,113.66 115.297,168.355 94.885,168.355 " />
	<g
   id="g28">
		<polygon
   style="fill:#5692ce"
   id="polygon24"
   points="135.703,113.66 115.297,113.66 135.703,168.355 156.117,168.355 " />
		<path
   style="fill:#ffffff"
   id="path26"
   d="m 135.703,113.66 20.414,54.695 H 135.703 L 115.297,113.66 h 20.406 m 0.695,-1 h -0.695 -20.406 -1.439 l 0.504,1.35 20.406,54.695 0.242,0.65 h 0.693 20.414 1.441 l -0.504,-1.351 -20.414,-54.694 z" />
	</g>
	<g
   id="g34">
		<polygon
   style="fill:#5692ce"
   id="polygon30"
   points="94.885,113.66 74.479,113.66 94.885,168.355 115.297,168.355 " />
		<path
   style="fill:#ffffff"
   id="path32"
   d="m 94.885,113.66 20.412,54.695 H 94.885 L 74.479,113.66 h 20.406 m 0.695,-1 H 94.885 74.479 73.04 l 0.504,1.35 20.406,54.695 0.242,0.65 h 0.693 20.412 1.441 l -0.504,-1.351 -20.412,-54.694 z" />
	</g>
</g>
</svg>