<svg id="Layer_1" data-name="Layer 1" xmlns="http://www.w3.org/2000/svg" viewBox="0 0 1200 532.2"><defs><style>.cls-1{fill:#4d32b6;}</style></defs><polygon class="cls-1" points="300.49 354.8 277.9 354.8 277.9 224.36 352.46 267.41 329.86 280.45 300.49 263.49 300.49 354.8"/><polygon class="cls-1" points="277.9 200.88 277.9 177.4 413.46 255.67 413.46 279.15 277.9 200.88"/><polygon class="cls-1" points="463.16 177.4 390.87 219.14 411.29 230.94 463.16 200.88 463.16 177.4"/><polygon class="cls-1" points="440.57 237.41 463.16 224.36 463.16 354.8 440.57 354.8 440.57 237.41"/><path class="cls-1" d="M570.83,271.38q-14.46-14.13-35.2-14.13t-35,14a45.8,45.8,0,0,0-14.36,34q0,21.24,14.08,35.26,14.07,14.22,34.92,14.22,21,0,35.48-13.93t14.37-34.8Q585.1,285.51,570.83,271.38ZM555.7,327.69q-7.51,8.06-20.07,8.06t-20.08-8.15q-7.42-8.07-7.42-21.9,0-12.9,7.61-21.05t19.89-8.15q12.45,0,20.07,8.15t7.52,21.52Q563.22,319.64,555.7,327.69Z"/><path class="cls-1" d="M676.91,200.88v69.64q-12.85-13.27-29.12-13.27a39.83,39.83,0,0,0-31.11,13.93Q604.22,285,604.21,305.7q0,21.15,12.47,35.26,12.55,13.85,31.59,13.84,16,0,28.64-12.32v12.27h21.5V200.88Zm-6,126.72q-7.33,8.14-19.22,8.15a23.41,23.41,0,0,1-18.46-8.44q-7.12-8.34-7.13-21.61,0-12.42,7.33-20.86a23.69,23.69,0,0,1,18.45-8.34q11.7,0,19,8.24,7.32,8.44,7.33,21.44T670.91,327.6Z"/><path class="cls-1" d="M810.21,306q0-22.85-11.8-35.74t-32.34-13q-20.27,0-32.54,13.37-12.18,13.56-12.18,35.45,0,22.1,12.56,35.46t33.3,13.27a56.25,56.25,0,0,0,13.41-1.51,40.46,40.46,0,0,0,11.52-4.79,47.12,47.12,0,0,0,10-8.34,35.78,35.78,0,0,0,7.92-13.4l-17.15-8.83q-6.57,10.23-11.71,14T768,335.75q-10.28,0-16.84-6.64T743.71,311h66.41Zm-65.07-12.42a24.78,24.78,0,0,1,3-7.11,21.6,21.6,0,0,1,4.8-5.35,20.84,20.84,0,0,1,6.24-3.42,22.2,22.2,0,0,1,7.32-1.18q17.13,0,21.6,17.06Z"/><polygon class="cls-1" points="882.43 302.02 916.68 257.25 890.42 257.25 869.39 285.7 848.75 257.25 823.25 257.25 856.55 302.02 815.35 354.8 841.52 354.8 869.39 318.35 896.6 354.8 922.1 354.8 882.43 302.02"/><path class="cls-1" d="M939.18,253.36a13,13,0,1,1,13.13-12.91A13,13,0,0,1,939.18,253.36Zm.2-23.67a10.65,10.65,0,1,0,10.56,10.74A10.66,10.66,0,0,0,939.38,229.69Z"/><path class="cls-1" d="M942.11,246.08l-2.41-3.54-.46,0-2.7,0,0,3.5-2.22,0,.14-12,4.93.05a6.81,6.81,0,0,1,2.71.55,4,4,0,0,1,1.75,1.49,4.18,4.18,0,0,1,.59,2.29,4,4,0,0,1-.69,2.32,3.92,3.92,0,0,1-1.9,1.43l2.71,4Zm-.69-9.49a3.42,3.42,0,0,0-2.21-.64l-2.6,0-.05,4.77,2.6,0a3.37,3.37,0,0,0,2.21-.6,2.44,2.44,0,0,0,0-3.53Z"/></svg>