<?xml version="1.0" encoding="utf-8"?>
<!-- Generator: Adobe Illustrator 23.0.2, SVG Export Plug-In . SVG Version: 6.00 Build 0)  -->
<svg version="1.1" id="Layer_1" xmlns="http://www.w3.org/2000/svg" xmlns:xlink="http://www.w3.org/1999/xlink" x="0px" y="0px"
	 viewBox="0 0 400 245" style="enable-background:new 0 0 400 245;" xml:space="preserve">
<style type="text/css">
	.st0{fill:#EC1C24;}
	.st1{fill:#231F20;}
	.st2{fill:#0076AD;}
	.st3{fill:#44B549;}
	.st4{fill:#F6AF26;}
	.st5{fill:#4AA5D2;}
	.st6{fill:#B2CD41;}
	.st7{fill:#221F1F;stroke:#221F1F;stroke-width:0.0971;stroke-miterlimit:10;}
	.st8{fill:#221F1F;}
	.st9{fill:#96B85C;}
	.st10{fill:#E4B836;}
	.st11{fill:#053E72;}
	.st12{fill:#C8102E;}
	.st13{fill:#FFFFFF;}
	.st14{fill:url(#SVGID_1_);}
	.st15{fill:url(#SVGID_2_);}
	.st16{fill:#193760;}
	.st17{fill:none;stroke:#193760;stroke-width:1.3933;stroke-miterlimit:10;}
	.st18{fill:#ED5E30;}
	.st19{fill:#0067AB;}
	.st20{fill:#0077BF;}
	.st21{fill:#0077C0;}
	.st22{fill:#003DA6;}
	.st23{fill:#005CB8;}
	.st24{fill:#FFCD00;}
	.st25{fill:#008656;}
	.st26{fill:#124191;}
	.st27{fill:#0071BB;}
</style>
<g>
	<path class="st18" d="M33.66,122.08c0,9.76,0.08,16.01,0.24,18.76h3.7c0.3,0.61,0.45,1.26,0.45,1.96c0,0.63-0.13,1.06-0.38,1.29
		c-0.26,0.23-0.76,0.35-1.5,0.35H23.85c-0.28-0.75-0.42-1.44-0.42-2.1c0-0.51,0.12-0.89,0.37-1.14c0.24-0.24,0.67-0.37,1.28-0.37
		h1.19c0.16-3.42,0.24-8.21,0.24-14.36c0-4.8-0.51-7.99-1.52-9.57c-1.01-1.58-2.65-2.38-4.91-2.38c-1.47,0-2.91,0.55-4.31,1.64
		c-1.41,1.1-2.11,3.06-2.11,5.9v7.37c0,4.12,0.08,7.92,0.24,11.39h2.83c0.28,0.61,0.42,1.26,0.42,1.96c0,0.63-0.13,1.06-0.38,1.29
		c-0.26,0.23-0.75,0.35-1.47,0.35H2.61c-0.3-0.75-0.45-1.44-0.45-2.1c0-0.51,0.13-0.89,0.38-1.14c0.26-0.24,0.68-0.37,1.26-0.37
		h2.41c0.19-3.7,0.28-8.24,0.28-13.62c0-6.87-0.27-10.85-0.8-11.95c-0.54-1.09-1.56-1.64-3.07-1.64c-0.3-0.65-0.45-1.33-0.45-2.03
		c0-0.63,0.24-1.03,0.73-1.21c0.49-0.17,3.57-0.35,9.26-0.54c0.14,1.07,0.14,2.45,0,4.12c2.31-1.54,4.52-2.67,6.65-3.39
		c2.13-0.72,4.11-1.08,5.92-1.08c2.31,0,4.08,0.4,5.31,1.21c1.23,0.8,2.07,1.82,2.52,3.06c2.1-1.42,4.2-2.49,6.31-3.2
		c2.11-0.71,4.05-1.07,5.82-1.07c2.86,0,5.08,0.72,6.65,2.15c1.57,1.43,2.36,4.16,2.36,8.19c0,12.53,0.18,19.17,0.54,19.91
		c0.36,0.75,1.19,1.11,2.5,1.08c0.26,0.68,0.38,1.35,0.38,2.03c0,0.63-0.2,1.05-0.59,1.26c-0.4,0.21-1.13,0.31-2.2,0.31
		c-3.24,0-5.22-0.04-5.94-0.12c-0.72-0.08-1.21-0.33-1.47-0.73c-0.26-0.41-0.38-1.09-0.38-2.04v-15.06c0-4.8-0.51-7.99-1.52-9.57
		c-1.01-1.58-2.65-2.38-4.91-2.38c-1.47,0-2.91,0.55-4.31,1.64C34.37,117.27,33.66,119.24,33.66,122.08z"/>
	<path class="st18" d="M93.97,114.15c-1.12,3.42-3.36,10.62-6.72,21.59c-3.37,10.97-5.86,17.44-7.48,19.42
		c-1.62,1.98-3.45,3.25-5.48,3.81c-2.04,0.56-4.36,0.84-6.97,0.84c-2.54,0-4.19-0.19-4.94-0.56c-0.76-0.37-1.14-1.06-1.14-2.06
		c0-1.23,0.4-2.35,1.19-3.35c4.38,0.88,7.6,1.22,9.68,1c2.07-0.22,4.13-3.55,6.18-9.97c-1.93-0.07-2.98-0.16-3.14-0.28
		c-0.16-0.12-1.39-4.04-3.67-11.77c-2.28-7.73-3.71-12.45-4.28-14.17c-0.57-1.71-1.03-2.9-1.36-3.56c-0.34-0.66-0.76-1.07-1.28-1.22
		c-0.51-0.15-1.18-0.23-1.99-0.23c-0.3-0.77-0.45-1.48-0.45-2.13c0-0.79,0.4-1.26,1.19-1.41c0.79-0.15,2.4-0.23,4.82-0.23
		c1.86,0,3.12,0.11,3.77,0.33c0.65,0.22,1.11,0.63,1.36,1.22c0.26,0.59,0.65,2.24,1.17,4.94c0.52,2.7,1.63,7.2,3.32,13.5
		c1.69,6.3,2.64,9.45,2.85,9.45c0.21,0,1.27-3.63,3.18-10.88c1.91-7.25,3-12.01,3.28-14.27h-1.89c-0.28-0.68-0.42-1.36-0.42-2.06
		s0.13-1.19,0.4-1.47c0.27-0.28,0.7-0.42,1.31-0.42h9.85c0.3,0.65,0.45,1.35,0.45,2.1c0,0.72-0.15,1.21-0.45,1.47
		c-0.3,0.26-0.83,0.38-1.57,0.38H93.97z"/>
	<path class="st18" d="M114.2,113.97c2.31-1.54,4.58-2.67,6.83-3.39c2.25-0.72,4.26-1.08,6.03-1.08c3.1,0,5.43,0.72,7,2.15
		c1.57,1.43,2.36,4.16,2.36,8.19c0,12.53,0.18,19.17,0.54,19.91c0.36,0.75,1.19,1.11,2.5,1.08c0.26,0.68,0.38,1.35,0.38,2.03
		c0,0.63-0.2,1.05-0.59,1.26c-0.4,0.21-1.13,0.31-2.2,0.31c-3.24,0-5.22-0.04-5.94-0.12c-0.72-0.08-1.21-0.33-1.47-0.73
		c-0.26-0.41-0.38-1.09-0.38-2.04v-15.06c0-4.8-0.51-7.99-1.52-9.57c-1.01-1.58-2.65-2.38-4.91-2.38c-1.93,0-3.6,0.55-5.01,1.64
		c-1.41,1.1-2.11,3.06-2.11,5.9v7.37c0,4.12,0.08,7.92,0.24,11.39h3.88c0.28,0.61,0.42,1.26,0.42,1.96c0,0.63-0.13,1.06-0.38,1.29
		c-0.26,0.23-0.75,0.35-1.47,0.35h-13.73c-0.3-0.75-0.45-1.44-0.45-2.1c0-0.51,0.13-0.89,0.38-1.14c0.26-0.24,0.68-0.37,1.26-0.37
		h2.41c0.19-3.7,0.28-8.24,0.28-13.62c0-6.87-0.27-10.85-0.8-11.95c-0.54-1.09-1.56-1.64-3.07-1.64c-0.3-0.65-0.45-1.33-0.45-2.03
		c0-0.63,0.24-1.03,0.73-1.21c0.49-0.17,3.57-0.35,9.26-0.54C114.34,110.92,114.34,112.29,114.2,113.97z"/>
	<path class="st18" d="M171.67,141.64c-2.12,1.26-4.1,2.15-5.94,2.69c-1.84,0.54-3.74,0.8-5.69,0.8c-3.96,0-7-1.19-9.14-3.56
		c-2.13-2.38-3.2-6.5-3.2-12.37c0-6.47,1.42-11.41,4.26-14.79c2.84-3.39,7.09-5.08,12.75-5.08c1.35,0,2.48,0.07,3.39,0.21
		s1.77,0.31,2.59,0.52c0-1.72-0.04-3.57-0.12-5.54c-0.08-1.97-0.24-3.36-0.49-4.17c-0.24-0.82-0.65-1.34-1.22-1.57
		c-0.57-0.23-1.3-0.35-2.18-0.35c-0.3-0.72-0.45-1.43-0.45-2.13c0-0.72,0.29-1.18,0.87-1.36c0.58-0.19,2.5-0.28,5.76-0.28
		c1.84,0,3.09,0.09,3.74,0.26c0.65,0.17,1.02,0.5,1.12,0.98c0.09,0.48,0.14,1.3,0.14,2.46v25.01c0,8.9,0.2,14.08,0.61,15.55
		c0.41,1.47,1.04,2.11,1.9,1.92c0.33,0.54,0.49,1.06,0.49,1.57c0,0.65-0.77,1.27-2.32,1.85c-1.55,0.58-2.81,0.87-3.79,0.87
		c-0.58,0-1.07-0.2-1.47-0.61C172.88,144.12,172.34,143.15,171.67,141.64z M163.53,114.01c-2.79,0-4.82,0.97-6.06,2.92
		c-1.25,1.95-1.87,5.3-1.87,10.08c0,4.19,0.59,7.48,1.78,9.87c1.19,2.39,3.19,3.58,6.01,3.58c1.49,0,2.85-0.3,4.09-0.89
		c1.23-0.59,2.08-1.37,2.53-2.34c0.45-0.97,0.68-3.35,0.68-7.14v-14.25c-0.84-0.47-1.86-0.88-3.06-1.26
		C166.43,114.19,165.07,114.01,163.53,114.01z"/>
	<path class="st1" d="M204.72,109.33c3.07,0,5.51,0.3,7.32,0.89c1.8,0.59,2.71,1.55,2.71,2.88c0,1.37-0.58,2.74-1.75,4.09
		c-4.57-2.12-8.17-3.18-10.83-3.18c-1.79,0-3.14,0.34-4.04,1.01c-0.9,0.68-1.34,1.65-1.34,2.93c0,1.33,0.51,2.42,1.52,3.28
		c1.01,0.86,3.09,1.87,6.24,3.04c3.96,1.4,6.78,2.85,8.45,4.35c1.68,1.5,2.52,3.57,2.52,6.2c0,3.33-1.28,5.88-3.84,7.65
		c-2.56,1.77-6.21,2.65-10.93,2.65c-3.61,0-6.36-0.26-8.26-0.77c-1.9-0.51-2.85-1.58-2.85-3.21c0-1.19,0.45-2.35,1.36-3.49
		c3.98,1.86,7.69,2.79,11.11,2.79c2.14,0,3.74-0.35,4.79-1.05c1.05-0.7,1.57-1.82,1.57-3.35c0-1.65-0.8-2.96-2.39-3.93
		c-1.6-0.97-4.09-2.11-7.49-3.44c-3.35-1.28-5.67-2.63-6.95-4.05c-1.28-1.42-1.92-3.23-1.92-5.41c0-2.96,1.27-5.34,3.81-7.16
		C196.05,110.23,199.78,109.33,204.72,109.33z"/>
	<path class="st1" d="M227.44,110.06c0-1.72-0.04-3.57-0.12-5.54c-0.08-1.97-0.24-3.36-0.49-4.17c-0.24-0.82-0.65-1.34-1.22-1.57
		c-0.57-0.23-1.3-0.35-2.18-0.35c-0.3-0.72-0.45-1.43-0.45-2.13c0-0.72,0.29-1.18,0.87-1.36c0.58-0.19,2.5-0.28,5.76-0.28
		c1.84,0,3.09,0.09,3.74,0.26s1.02,0.5,1.12,0.98c0.09,0.48,0.14,1.3,0.14,2.46v14.78c1.44-0.95,3.2-1.8,5.26-2.53
		c2.06-0.73,4.21-1.1,6.45-1.1c2.86,0,5.08,0.72,6.65,2.15c1.57,1.43,2.36,4.16,2.36,8.19c0,12.53,0.18,19.17,0.54,19.91
		c0.36,0.75,1.19,1.11,2.5,1.08c0.26,0.68,0.38,1.35,0.38,2.03c0,0.63-0.2,1.05-0.59,1.26c-0.4,0.21-1.13,0.31-2.2,0.31
		c-3.24,0-5.22-0.04-5.94-0.12c-0.72-0.08-1.21-0.33-1.47-0.73c-0.26-0.41-0.38-1.09-0.38-2.04v-15.06c0-4.8-0.51-7.99-1.52-9.57
		c-1.01-1.58-2.65-2.38-4.91-2.38c-1.93,0-3.6,0.55-5.01,1.64c-1.41,1.1-2.11,3.06-2.11,5.9v7.37c0,4.12,0.08,7.92,0.24,11.39h3.88
		c0.28,0.61,0.42,1.26,0.42,1.96c0,0.63-0.13,1.06-0.38,1.29c-0.26,0.23-0.75,0.35-1.47,0.35h-13.73c-0.3-0.75-0.45-1.44-0.45-2.1
		c0-0.51,0.13-0.89,0.38-1.14c0.26-0.24,0.68-0.37,1.26-0.37h2.41c0.19-3.7,0.28-7.73,0.28-12.09V110.06z"/>
	<path class="st1" d="M279.06,140.84h5.1c0.28,0.61,0.42,1.26,0.42,1.96c0,0.63-0.13,1.06-0.38,1.29c-0.26,0.23-0.75,0.35-1.47,0.35
		H267.6c-0.3-0.75-0.45-1.44-0.45-2.1c0-0.51,0.13-0.89,0.38-1.14c0.26-0.24,0.68-0.37,1.26-0.37h2.59
		c0.19-3.24,0.28-7.03,0.28-11.39v-15.13h-4.09c-0.28-0.84-0.42-1.65-0.42-2.45c0-0.58,0.13-1.01,0.38-1.28
		c0.26-0.27,0.69-0.4,1.29-0.4h2.83c0.07-5.85,1.25-9.9,3.53-12.16c2.28-2.26,5.89-3.39,10.83-3.39c2.82,0,4.96,0.23,6.43,0.7
		c1.47,0.47,2.2,1.33,2.2,2.59c0,1.12-0.48,2.29-1.43,3.53c-3.91-1.54-7.06-2.31-9.43-2.31c-2.05,0-3.39,0.68-4.04,2.04
		c-0.64,1.36-0.96,3.71-0.96,7.04v1.96h9.68c0.28,0.77,0.42,1.58,0.42,2.45c0,0.68-0.13,1.12-0.38,1.34
		c-0.26,0.22-0.77,0.33-1.54,0.33h-8.17v15.13C278.78,133.8,278.87,137.6,279.06,140.84z"/>
	<path class="st1" d="M298.54,110.2h2.38l2.83-9.92c0.98,0.3,1.81,0.66,2.5,1.08c0.69,0.42,1.19,0.91,1.52,1.48
		c0.33,0.57,0.49,2.54,0.49,5.92v1.43h11.49c0.28,0.77,0.42,1.58,0.42,2.45c0,0.68-0.13,1.12-0.38,1.34
		c-0.26,0.22-0.77,0.33-1.54,0.33h-9.99v16.52c0,3.94,0.36,6.53,1.08,7.77c0.72,1.25,1.81,1.9,3.27,1.97
		c1.46,0.07,3.24-0.41,5.36-1.43c0.51,0.77,0.77,1.61,0.77,2.52c0,1.23-0.68,2.06-2.04,2.48c-1.36,0.42-3.51,0.63-6.45,0.63
		c-3.19,0-5.51-0.65-6.97-1.96c-1.46-1.3-2.18-3.74-2.18-7.3v-8.21c0-4.47-0.13-8.8-0.38-13h-3.42c-0.28-0.84-0.42-1.65-0.42-2.45
		c0-0.58,0.13-1.01,0.38-1.28C297.5,110.33,297.93,110.2,298.54,110.2z"/>
	<path class="st18" d="M371.23,137.21h-21.17c-0.76,0-1.39,0.62-1.39,1.38c0,0.76,0.62,1.38,1.39,1.38h21.17
		c0.76,0,1.39-0.62,1.39-1.38C372.62,137.83,372,137.21,371.23,137.21z"/>
	<path class="st18" d="M371.23,142.95h-21.17c-0.76,0-1.39,0.62-1.39,1.38c0,0.76,0.62,1.39,1.39,1.39h21.17
		c0.76,0,1.39-0.62,1.39-1.39C372.62,143.56,372,142.95,371.23,142.95z"/>
	<path class="st18" d="M365.09,148.7h-8.87c-0.76,0-1.39,0.62-1.39,1.38c0,0.76,0.62,1.39,1.39,1.39h8.87
		c0.76,0,1.37-0.62,1.37-1.39C366.46,149.32,365.84,148.7,365.09,148.7z"/>
	<path class="st18" d="M367.84,86.17c-1.71-0.52-4.45-0.84-6.06-0.98v2.83v5.85v3.49v27.75v3.37v2.64v2.76l9.47,0
		c0.7,0,1.29-0.53,1.37-1.22c0.24-2.03,0.94-4.87,2.84-6.86c5.28-4.41,8.3-10.87,8.3-17.73C383.77,98.19,377.07,88.98,367.84,86.17z
		"/>
	<path d="M353.52,115.97c-2.36,1.92-4.06,3.3-7.28,0.55l-0.01,0.01c-0.21-0.18-0.47-0.3-0.76-0.3c-0.65,0-1.17,0.53-1.17,1.17
		c0,0.36,0.17,0.67,0.43,0.89l-0.02,0.03c1.82,1.55,3.41,2.12,4.82,2.12c1.74,0,3.2-0.87,4.45-1.81c0.1,0.1,0.2,0.2,0.29,0.29
		c1.74,1.7,3.24,3.18,0.36,7.81l0.05,0.03c-0.05,0.13-0.09,0.28-0.09,0.43c0,0.65,0.53,1.17,1.17,1.17c0.34,0,0.65-0.15,0.86-0.39
		l0.01,0.01c0.03-0.05,0.05-0.09,0.08-0.14c0.06-0.08,0.11-0.16,0.14-0.25c3.53-5.97,0.86-8.61-0.93-10.37
		c-0.03-0.03-0.05-0.05-0.08-0.08c1.11-0.85,1.94-1.3,2.84-1.09v-2.41C356.64,113.43,354.94,114.81,353.52,115.97z"/>
	<path d="M350.85,130.95c-0.19-1.04-0.56-2.46-1.26-3.94c1.29-0.17,2.49-0.59,3.58-1.25l0.27-0.21l-0.01-0.02
		c0.26-0.23,0.41-0.56,0.41-0.91c0-0.74-0.65-1.65-1.42-1.22l-0.38,0.21c-1.11,0.71-2.39,1-3.7,1c-3.28,0-6.13-2.33-6.78-5.54
		c-0.09-0.45-0.14-0.92-0.14-1.38c0-1.22,0.33-2.43,0.96-3.5c0.05-0.09,0.1-0.17,0.16-0.25c0.62-0.95,1.46-1.74,2.44-2.29l0.25-0.14
		c0.58,0.7,1.3,1.2,2.15,1.47c0.69,0.22,1.39,0.32,2.09,0.32c1.13,0,2.25-0.28,3.31-0.85c1.66-0.88,3.92-2.87,5.26-7.31l-0.04-0.01
		c0.04-0.12,0.08-0.24,0.08-0.38c0-0.65-0.53-1.17-1.17-1.17c-0.55,0-0.98,0.38-1.12,0.89l-0.02-0.01c-0.86,2.85-2.31,4.95-4.1,5.9
		c-1.14,0.61-2.38,0.73-3.59,0.36c-1.02-0.32-1.5-1.32-1.71-2.1c-0.51-1.85-0.17-4.86,1.8-7.07l-0.04-0.03
		c0.18-0.21,0.29-0.46,0.29-0.75c0-0.65-0.53-1.17-1.17-1.17c-0.39,0-0.72,0.2-0.93,0.49c-2.16,2.5-3.06,6.17-2.23,9.17
		c0,0.01,0.01,0.02,0.01,0.04l-0.17,0.09l-0.13,0.08c-1.12,0.62-2.11,1.48-2.9,2.51c-1.43-1.71-2.22-3.86-2.22-6.09
		c0-2.03,0.64-3.97,1.86-5.63c0.96-1.31,2.24-2.35,3.71-3.03c2.13-0.98,4.55-1.13,6.74-0.47c0.36,0.14,0.74,0.12,1.07-0.06
		c0.63-0.33,0.87-1.12,0.54-1.75c-0.11-0.22-0.28-0.39-0.49-0.51l0.01-0.04l-0.34-0.1c-1.52-0.47-3.1-0.64-4.75-0.47
		c2.22-2.24,4.86-3.92,7.71-4.87c1.17-0.39,2.54-0.62,3.95-0.76v-2.81c-1.46,0.15-2.94,0.42-4.47,0.9
		c-4.61,1.42-9.06,4.79-11.91,9.02c-3.83,2.15-6.21,6.19-6.21,10.57c0,2.87,1.02,5.62,2.88,7.81l-0.01,0l0.36,0.39
		c0.01,0.01,0.02,0.02,0.03,0.04l0,0c0,0,0.01,0.01,0.01,0.01l0.14,0.15l0.01,0c0.01,0.01,0.03,0.03,0.05,0.04
		c-0.42,1.09-0.63,2.22-0.63,3.37c0,0.69,0.08,1.41,0.25,2.12c0.83,3.58,3.67,6.35,7.25,7.1c1.23,1.91,1.71,4.08,1.89,5.57
		c0.08,0.69,0.67,1.21,1.36,1.21l9.01,0v-2.74L350.85,130.95z"/>
	<path d="M348.81,106.23l0.04,0.01c-0.01,0.04-0.03,0.08-0.03,0.13c0,0.65,0.53,1.17,1.17,1.17c0.51,0,0.94-0.33,1.1-0.79l0.02,0.01
		c1.05-4.63,4.42-7.66,7.57-8.43v-2.42C354.64,96.65,350.18,100.21,348.81,106.23z"/>
	<g>
		<path class="st1" d="M384.87,93.24c0.02-0.43,0.03-1.54,0.03-3.34c0-0.97-0.01-1.62-0.02-1.95c-1.16,0.06-1.81,0.09-1.95,0.09
			c-0.16,0-0.28-0.03-0.35-0.09c-0.07-0.06-0.11-0.17-0.11-0.34c0-0.23,0.06-0.47,0.17-0.74c0.68,0.16,1.55,0.24,2.58,0.24h3.35
			c0.16,0,0.27,0.02,0.35,0.07s0.11,0.16,0.11,0.32c0,0.3-0.09,0.59-0.26,0.86c-0.62-0.28-1.34-0.42-2.17-0.42h-0.12
			c-0.02,0.33-0.02,0.98-0.02,1.95c0,1.8,0.01,2.91,0.02,3.33h0.76c0.06,0.12,0.09,0.24,0.09,0.37c0,0.12-0.02,0.2-0.06,0.24
			c-0.04,0.05-0.11,0.07-0.21,0.07h-2.94c-0.06-0.15-0.09-0.29-0.09-0.42c0-0.09,0.02-0.16,0.07-0.2c0.05-0.04,0.12-0.06,0.22-0.06
			H384.87z"/>
		<path class="st1" d="M389.79,87.12h2.72c0.15,0.64,0.32,1.28,0.49,1.92c0.18,0.64,0.35,1.3,0.51,1.98
			c0.17,0.68,0.26,1.02,0.29,1.02c0.02,0,0.2-0.65,0.52-1.94c0.32-1.29,0.55-2.28,0.69-2.98h2.61c0.06,0.12,0.08,0.25,0.08,0.37
			c0,0.12-0.02,0.2-0.06,0.25c-0.04,0.04-0.11,0.07-0.2,0.07h-0.38c0,0.56,0.03,1.5,0.09,2.82c0.06,1.32,0.11,2.19,0.14,2.62h0.47
			c0.06,0.12,0.08,0.24,0.08,0.37c0,0.12-0.02,0.2-0.07,0.24c-0.04,0.05-0.11,0.07-0.21,0.07h-2.27c-0.06-0.15-0.08-0.29-0.08-0.42
			c0-0.09,0.02-0.16,0.07-0.2c0.05-0.04,0.12-0.06,0.22-0.06h0.18c0.02-0.64-0.01-2.2-0.1-4.68c-0.26,1.09-0.5,2.04-0.75,2.85
			c-0.24,0.81-0.42,1.32-0.55,1.54c-0.13,0.22-0.36,0.33-0.71,0.33c-0.51,0-0.8-0.02-0.85-0.05c-0.06-0.04-0.21-0.45-0.47-1.23
			c-0.26-0.78-0.59-1.94-0.99-3.48c-0.01,2.51-0.01,4.08,0.01,4.73h0.38c0.06,0.12,0.08,0.24,0.08,0.37c0,0.12-0.02,0.2-0.06,0.24
			c-0.04,0.05-0.11,0.07-0.21,0.07h-2.08c-0.06-0.15-0.09-0.29-0.09-0.42c0-0.09,0.02-0.16,0.07-0.2c0.05-0.04,0.12-0.06,0.22-0.06
			h0.32c0.03-0.43,0.08-1.3,0.14-2.62c0.06-1.32,0.09-2.26,0.09-2.82h-0.56c-0.06-0.15-0.08-0.29-0.08-0.42
			c0-0.09,0.02-0.16,0.07-0.2C389.62,87.14,389.69,87.12,389.79,87.12z"/>
	</g>
</g>
</svg>
