<svg id="Layer_1" data-name="Layer 1" xmlns="http://www.w3.org/2000/svg" viewBox="0 0 215 75"><defs><style>.cls-1{fill:#010101;}.cls-2{fill:#0e6cb6;}</style></defs><title>NAR_HeaderLogo_215x75px</title><polygon class="cls-1" points="70.64 11.89 70.64 24.88 68.27 24.88 62.05 17 62.05 24.88 59.19 24.88 59.19 11.89 61.58 11.89 67.79 19.78 67.79 11.89 70.64 11.89"/><path class="cls-1" d="M80.72,19.82l-2-5-2,5Zm.91,2.28h-5.8l-1.1,2.78h-3l5.56-13h2.85l5.59,13h-3Z"/><polygon class="cls-1" points="87.86 14.34 83.87 14.34 83.87 11.89 94.75 11.89 94.75 14.34 90.75 14.34 90.75 24.88 87.86 24.88 87.86 14.34"/><rect class="cls-1" x="96.42" y="11.89" width="2.89" height="12.99"/><path class="cls-1" d="M110.07,22a3.74,3.74,0,0,0,1.4-1.47,4.81,4.81,0,0,0,0-4.31,3.74,3.74,0,0,0-1.4-1.47,4,4,0,0,0-4,0,3.74,3.74,0,0,0-1.4,1.47,4.81,4.81,0,0,0,0,4.31,3.74,3.74,0,0,0,1.4,1.47,4,4,0,0,0,4,0m-5.5,2.22a6.28,6.28,0,0,1-2.45-2.4,6.75,6.75,0,0,1-.88-3.44,6.72,6.72,0,0,1,.88-3.44,6.31,6.31,0,0,1,2.45-2.41,7.48,7.48,0,0,1,7,0A6.49,6.49,0,0,1,114,15a7.09,7.09,0,0,1,0,6.88,6.46,6.46,0,0,1-2.44,2.4,7.48,7.48,0,0,1-7,0"/><polygon class="cls-1" points="128 11.89 128 24.88 125.63 24.88 119.41 17 119.41 24.88 116.55 24.88 116.55 11.89 118.94 11.89 125.15 19.78 125.15 11.89 128 11.89"/><path class="cls-1" d="M138.08,19.82l-2-5-2,5ZM139,22.1h-5.8l-1.1,2.78h-3l5.56-13h2.85l5.59,13h-3Z"/><polygon class="cls-1" points="144.24 11.89 147.13 11.89 147.13 22.43 153.56 22.43 153.56 24.88 144.24 24.88 144.24 11.89"/><path class="cls-1" d="M66.5,38.93l-2-5-2,5Zm.91,2.28H61.62L60.51,44h-3l5.57-13H66l5.58,13h-3Z"/><path class="cls-1" d="M74.23,43.8A6.57,6.57,0,0,1,72,42.71l1-2.26a6.25,6.25,0,0,0,1.91,1,6.79,6.79,0,0,0,2.21.37,3.36,3.36,0,0,0,1.82-.38,1.16,1.16,0,0,0,.59-1,1,1,0,0,0-.35-.77,2.61,2.61,0,0,0-.89-.49c-.37-.12-.86-.26-1.47-.41a19.63,19.63,0,0,1-2.34-.7,3.78,3.78,0,0,1-1.56-1.13,3.12,3.12,0,0,1-.65-2.08,3.64,3.64,0,0,1,.59-2,4,4,0,0,1,1.77-1.46,7,7,0,0,1,2.9-.54,9.14,9.14,0,0,1,2.33.3,6.74,6.74,0,0,1,2,.85L81,34.22a6.76,6.76,0,0,0-3.46-1,3.14,3.14,0,0,0-1.79.4,1.26,1.26,0,0,0-.58,1.08,1,1,0,0,0,.67,1,9.72,9.72,0,0,0,2,.64,20,20,0,0,1,2.34.71,3.87,3.87,0,0,1,1.56,1.11,3.08,3.08,0,0,1,.65,2.06,3.63,3.63,0,0,1-.6,2A4.11,4.11,0,0,1,80,43.68a7.07,7.07,0,0,1-2.91.54,9.75,9.75,0,0,1-2.86-.42"/><path class="cls-1" d="M85.47,43.8a6.54,6.54,0,0,1-2.23-1.09l1-2.26a6.31,6.31,0,0,0,1.9,1,6.89,6.89,0,0,0,2.22.37,3.32,3.32,0,0,0,1.81-.38,1.14,1.14,0,0,0,.59-1,1,1,0,0,0-.35-.77,2.52,2.52,0,0,0-.89-.49c-.36-.12-.85-.26-1.47-.41a19.4,19.4,0,0,1-2.33-.7,3.78,3.78,0,0,1-1.56-1.13,3.13,3.13,0,0,1-.66-2.08,3.72,3.72,0,0,1,.59-2,4.08,4.08,0,0,1,1.78-1.46,7,7,0,0,1,2.9-.54,9.14,9.14,0,0,1,2.33.3,6.86,6.86,0,0,1,2,.85l-.89,2.29a6.79,6.79,0,0,0-3.46-1,3.14,3.14,0,0,0-1.79.4,1.26,1.26,0,0,0-.58,1.08,1,1,0,0,0,.66,1,10.06,10.06,0,0,0,2,.64,19.2,19.2,0,0,1,2.33.71A3.74,3.74,0,0,1,93,38.13a3,3,0,0,1,.65,2.06,3.7,3.7,0,0,1-.59,2,4.09,4.09,0,0,1-1.8,1.46,7,7,0,0,1-2.9.54,9.75,9.75,0,0,1-2.86-.42"/><path class="cls-1" d="M103.4,41.13a3.84,3.84,0,0,0,1.4-1.48,4.79,4.79,0,0,0,0-4.3,3.92,3.92,0,0,0-5.39-1.48A3.7,3.7,0,0,0,98,35.35a4.79,4.79,0,0,0,0,4.3,3.7,3.7,0,0,0,1.4,1.48,4,4,0,0,0,4,0m-5.5,2.21a6.26,6.26,0,0,1-2.44-2.4,7.09,7.09,0,0,1,0-6.88,6.26,6.26,0,0,1,2.44-2.4,7.4,7.4,0,0,1,7,0,6.39,6.39,0,0,1,2.44,2.4,7.09,7.09,0,0,1,0,6.88,6.39,6.39,0,0,1-2.44,2.4,7.4,7.4,0,0,1-7,0"/><path class="cls-1" d="M112.71,43.35A6.27,6.27,0,0,1,110.28,41a7.24,7.24,0,0,1,0-6.92,6.27,6.27,0,0,1,2.43-2.39,6.89,6.89,0,0,1,3.46-.87,7,7,0,0,1,2.94.6,5.83,5.83,0,0,1,2.2,1.7l-1.85,1.79a3.93,3.93,0,0,0-3.14-1.53,4,4,0,0,0-2.07.53,3.74,3.74,0,0,0-1.42,1.48,4.79,4.79,0,0,0,0,4.3,3.74,3.74,0,0,0,1.42,1.48,4,4,0,0,0,2.07.53,3.94,3.94,0,0,0,3.14-1.54l1.85,1.78a5.74,5.74,0,0,1-2.21,1.72,7,7,0,0,1-2.94.6,6.86,6.86,0,0,1-3.45-.87"/><rect class="cls-1" x="122.95" y="31.01" width="2.89" height="12.99"/><path class="cls-1" d="M136.1,38.93l-2-5-2,5Zm.91,2.28h-5.8L130.1,44h-3l5.57-13h2.85l5.58,13h-3Z"/><polygon class="cls-1" points="143.24 33.46 139.25 33.46 139.25 31.01 150.13 31.01 150.13 33.46 146.13 33.46 146.13 43.99 143.24 43.99 143.24 33.46"/><rect class="cls-1" x="151.8" y="31.01" width="2.89" height="12.99"/><path class="cls-1" d="M165.45,41.13a3.84,3.84,0,0,0,1.4-1.48,4.87,4.87,0,0,0,0-4.3,3.84,3.84,0,0,0-1.4-1.48,4,4,0,0,0-4,0,3.84,3.84,0,0,0-1.4,1.48,4.79,4.79,0,0,0,0,4.3,3.84,3.84,0,0,0,1.4,1.48,4,4,0,0,0,4,0m-5.51,2.21a6.32,6.32,0,0,1-2.44-2.4,7.16,7.16,0,0,1,0-6.88,6.32,6.32,0,0,1,2.44-2.4,7.09,7.09,0,0,1,3.51-.88,7,7,0,0,1,3.49.88,6.42,6.42,0,0,1,2.45,2.4,7.09,7.09,0,0,1,0,6.88,6.42,6.42,0,0,1-2.45,2.4,6.91,6.91,0,0,1-3.49.88,7,7,0,0,1-3.51-.88"/><polygon class="cls-1" points="183.38 31.01 183.38 43.99 181.01 43.99 174.78 36.11 174.78 43.99 171.93 43.99 171.93 31.01 174.32 31.01 180.53 38.89 180.53 31.01 183.38 31.01"/><path class="cls-1" d="M198.91,41.13a3.76,3.76,0,0,0,1.4-1.48,4.79,4.79,0,0,0,0-4.3,3.76,3.76,0,0,0-1.4-1.48,4,4,0,0,0-4,0,3.76,3.76,0,0,0-1.4,1.48,4.79,4.79,0,0,0,0,4.3,3.76,3.76,0,0,0,1.4,1.48,4,4,0,0,0,4,0m-5.5,2.21a6.32,6.32,0,0,1-2.44-2.4,7.09,7.09,0,0,1,0-6.88,6.32,6.32,0,0,1,2.44-2.4,7.4,7.4,0,0,1,7,0,6.39,6.39,0,0,1,2.44,2.4,7,7,0,0,1,0,6.88,6.39,6.39,0,0,1-2.44,2.4,7.4,7.4,0,0,1-7,0"/><polygon class="cls-1" points="208.46 33.42 208.46 36.85 214.23 36.85 214.23 39.26 208.46 39.26 208.46 43.99 205.57 43.99 205.57 31.01 215 31.01 215 33.42 208.46 33.42"/><path class="cls-2" d="M66.42,53.15a3,3,0,0,0-2-.58H62.08V57.1h2.36a2.93,2.93,0,0,0,2-.6,2.43,2.43,0,0,0,0-3.35m.73,10-2.41-3.62H62.08v3.62H59.19v-13H64.6a6.64,6.64,0,0,1,2.88.58,4.29,4.29,0,0,1,1.88,1.63,5,5,0,0,1,0,5,4.28,4.28,0,0,1-1.9,1.6l2.8,4.18Z"/><polygon class="cls-2" points="81.72 60.7 81.72 63.11 72.05 63.11 72.05 50.12 81.48 50.12 81.48 52.53 74.92 52.53 74.92 55.35 80.72 55.35 80.72 57.69 74.92 57.69 74.92 60.7 81.72 60.7"/><path class="cls-2" d="M91.49,58l-2-5-2,5Zm.91,2.28H86.61L85.5,63.11h-3l5.57-13H91l5.58,13h-3Z"/><polygon class="cls-2" points="97.66 50.12 100.55 50.12 100.55 60.66 106.81 60.66 106.81 63.11 97.66 63.11 97.66 50.12"/><polygon class="cls-2" points="109.23 52.57 105.23 52.57 105.23 50.12 116.11 50.12 116.11 52.57 112.12 52.57 112.12 63.11 109.23 63.11 109.23 52.57"/><path class="cls-2" d="M125.24,60.24a3.67,3.67,0,0,0,1.4-1.47,4.81,4.81,0,0,0,0-4.31,3.67,3.67,0,0,0-1.4-1.47,4,4,0,0,0-4,0,3.67,3.67,0,0,0-1.4,1.47,4.81,4.81,0,0,0,0,4.31,3.67,3.67,0,0,0,1.4,1.47,4,4,0,0,0,4,0m-5.5,2.22a6.28,6.28,0,0,1-2.44-2.41,7.16,7.16,0,0,1,0-6.88,6.32,6.32,0,0,1,2.44-2.4,7.08,7.08,0,0,1,3.51-.87,7,7,0,0,1,3.49.87,6.32,6.32,0,0,1,2.44,2.4,7,7,0,0,1,0,6.88,6.28,6.28,0,0,1-2.44,2.41,7,7,0,0,1-3.49.87,7.08,7.08,0,0,1-3.51-.87"/><path class="cls-2" d="M139.12,53.15a2.94,2.94,0,0,0-2-.58h-2.35V57.1h2.35a2.89,2.89,0,0,0,2-.6,2.4,2.4,0,0,0,0-3.35m.73,10-2.41-3.62h-2.65v3.62H131.9v-13h5.4a6.58,6.58,0,0,1,2.88.58,4.23,4.23,0,0,1,1.88,1.63,4.62,4.62,0,0,1,.66,2.5,4.51,4.51,0,0,1-.67,2.5,4.23,4.23,0,0,1-1.9,1.6l2.8,4.18Z"/><path class="cls-2" d="M146.06,62.91a6.76,6.76,0,0,1-2.22-1.08l1-2.27a6.76,6.76,0,0,0,1.91,1,7.16,7.16,0,0,0,2.21.37,3.45,3.45,0,0,0,1.82-.38,1.15,1.15,0,0,0,.59-1,1,1,0,0,0-.35-.77,2.62,2.62,0,0,0-.89-.5c-.36-.12-.85-.26-1.47-.4a20,20,0,0,1-2.34-.71A3.82,3.82,0,0,1,144.74,56a3.16,3.16,0,0,1-.65-2.08,3.75,3.75,0,0,1,.59-2,3.94,3.94,0,0,1,1.78-1.45,6.93,6.93,0,0,1,2.89-.54,9.61,9.61,0,0,1,2.34.29,6.87,6.87,0,0,1,2,.86l-.89,2.28a6.79,6.79,0,0,0-3.46-1,3.19,3.19,0,0,0-1.8.41,1.27,1.27,0,0,0-.58,1.07,1.07,1.07,0,0,0,.67,1,10.73,10.73,0,0,0,2.05.64,19.4,19.4,0,0,1,2.33.7,3.92,3.92,0,0,1,1.56,1.11,3,3,0,0,1,.65,2.06,3.68,3.68,0,0,1-.59,2,4,4,0,0,1-1.8,1.46,7,7,0,0,1-2.9.54,9.87,9.87,0,0,1-2.87-.42"/><path class="cls-2" d="M159.23,53.19a.9.9,0,0,0,.57-.17.6.6,0,0,0,.2-.48.63.63,0,0,0-.2-.49.9.9,0,0,0-.57-.17h-.61v1.31Zm1.64.13a1.37,1.37,0,0,1-.57.52l.88,1.4H160.1L159.34,54h-.71v1.21h-1.08V51.05h1.75a1.9,1.9,0,0,1,1.29.4,1.37,1.37,0,0,1,.47,1.09,1.5,1.5,0,0,1-.19.78m-.23,2.52a3,3,0,0,0,1.07-1.13,3.28,3.28,0,0,0,.39-1.59,3.32,3.32,0,0,0-.38-1.58,2.81,2.81,0,0,0-1.05-1.11,2.94,2.94,0,0,0-4.1,1.13,3.27,3.27,0,0,0-.39,1.58,3.22,3.22,0,0,0,.39,1.58,3,3,0,0,0,1.05,1.13,2.87,2.87,0,0,0,1.51.41,2.82,2.82,0,0,0,1.51-.42m.37-6a3.55,3.55,0,0,1,1.32,1.37,4.1,4.1,0,0,1,0,3.87A3.7,3.7,0,0,1,161,56.45a3.65,3.65,0,0,1-3.72,0A3.65,3.65,0,0,1,156,55.07a4,4,0,0,1-.48-1.93,3.91,3.91,0,0,1,.48-1.92,3.56,3.56,0,0,1,1.33-1.39,3.61,3.61,0,0,1,1.87-.5,3.57,3.57,0,0,1,1.86.49"/><path class="cls-2" d="M46.13,11.85H0V63.2H46.13ZM19.69,56.1H6.58V18.61H19.72ZM29.85,18.65a9.35,9.35,0,0,1,9.51,9.65c0,7.46-6.46,9.12-9.54,9.08H24.7l0-18.72ZM24.7,56.19V37.62l18,18.57Z"/></svg>