<?xml version="1.0" encoding="utf-8"?>
<!-- Generator: Adobe Illustrator 24.2.1, SVG Export Plug-In . SVG Version: 6.00 Build 0)  -->
<svg version="1.1" id="Brand_Statement_x2B_NEC_Mark"
	 xmlns="http://www.w3.org/2000/svg" xmlns:xlink="http://www.w3.org/1999/xlink" x="0px" y="0px" viewBox="0 0 400 245"
	 style="enable-background:new 0 0 400 245;" xml:space="preserve">
<style type="text/css">
	.st0{fill:#1414A0;}
	.st1{fill:#002B62;}
	.st2{fill:#EB6E00;}
</style>
<g>
	<g>
		<g>
			<g>
				<path class="st0" d="M111.5,133H126c3.3,0,7.2,3.1,8.9,4.8l25.3,28V133h8.6v44.8h-15c-2.7-0.1-5.3-0.6-8.4-3.7l-25.2-28.1v31.7
					h-8.6V133z"/>
				<path class="st0" d="M290.6,178.1c-10.3,1.4-20.7,1.6-31.1,0.7c-6.1-0.5-12.1-1.8-17.6-4.6c-6.9-3.6-9.1-11.6-9-19
					c0.1-6.7,2.1-13.9,8.1-17.9c3.9-2.6,8.2-3.4,12.6-4.3c12.2-2.2,24.5-1.7,36.4-0.4v6.4c-14.1-2.7-28.9-2.1-34,4.4
					c-3.1,4-3.6,8-3.6,11.4c0,6.1,2.1,15.3,14.4,17.1c8,1.2,16,0.3,23.8-1.1V178.1z"/>
				<path class="st0" d="M202.6,171.1c1.2,0,20.6,0.1,27.2,0v6.7c-13.4,0.5-26.3,0.7-39.8,0.2c-11.5-0.5-13.5-6.3-13.7-11.8V133
					h52.8v6.4H195v11.4h31.2v6.2H195c0,3.4,0.1,7.2,0.1,7.9C195.3,169.2,197.3,170.8,202.6,171.1"/>
			</g>
		</g>
	</g>
	<g>
		<g>
			<g>
				<path class="st1" d="M21,91.7c-0.4-1.3-0.6-2.4-0.6-5.7c0-3.3,0.1-4.4,0.6-5.7c1.1-3.3,3.7-5,7.3-5c3.6,0,6.3,1.7,7.4,5
					c0.4,1.3,0.5,2.4,0.5,5.7c0,3.3-0.1,4.4-0.5,5.7c-1.1,3.3-3.8,5-7.4,5C24.8,96.7,22.1,95,21,91.7z M32.3,90.8
					c0.2-0.8,0.4-1.8,0.4-4.8c0-2.9-0.1-4-0.4-4.8c-0.6-1.7-1.8-2.7-3.9-2.7c-2,0-3.3,1-3.8,2.7C24.3,82,24.2,83,24.2,86
					c0,2.9,0.1,4,0.4,4.8c0.6,1.7,1.8,2.7,3.8,2.7C30.5,93.5,31.7,92.4,32.3,90.8z"/>
				<path class="st1" d="M39.9,96.4c-0.2,0-0.3-0.1-0.3-0.3V82c0-0.2,0.1-0.3,0.3-0.3h2.8c0.2,0,0.3,0.1,0.3,0.3v1.2h0
					c0.7-1.1,1.9-1.9,3.8-1.9c1.2,0,2.3,0.5,3.1,1.2c0.1,0.1,0.2,0.3,0,0.4l-1.6,2c-0.1,0.1-0.3,0.2-0.4,0.1
					c-0.7-0.4-1.4-0.7-2.2-0.7c-1.9,0-2.8,1.4-2.8,3.7v8c0,0.2-0.1,0.3-0.3,0.3H39.9z"/>
				<path class="st1" d="M50.9,92.7c-0.3-0.9-0.5-2.1-0.5-3.7s0.2-2.7,0.5-3.6c0.8-2.6,3.1-4.1,6.1-4.1c2.2,0,3.9,0.9,5.1,2.3
					c0.1,0.1,0.1,0.3,0,0.4l-1.9,1.7c-0.2,0.1-0.3,0.1-0.4,0c-0.7-0.8-1.5-1.3-2.7-1.3c-1.3,0-2.3,0.6-2.7,1.9
					c-0.2,0.7-0.3,1.6-0.3,2.7c0,1.1,0.1,2,0.3,2.8c0.4,1.3,1.4,1.9,2.7,1.9c1.2,0,2-0.5,2.7-1.3c0.1-0.2,0.3-0.2,0.4,0l1.9,1.7
					c0.2,0.1,0.1,0.3,0,0.4c-1.2,1.4-2.9,2.3-5.1,2.3C54,96.7,51.7,95.3,50.9,92.7z"/>
				<path class="st1" d="M74.3,96.4c-0.2,0-0.3-0.1-0.3-0.3v-8.5c0-1.9-0.9-3.2-2.8-3.2c-1.8,0-2.8,1.3-2.8,3.2v8.5
					c0,0.2-0.1,0.3-0.3,0.3h-2.8c-0.2,0-0.3-0.1-0.3-0.3V75.9c0-0.2,0.1-0.3,0.3-0.3h2.8c0.2,0,0.3,0.1,0.3,0.3V83h0
					c0.7-0.9,1.9-1.7,3.9-1.7c3.1,0,5.1,2.3,5.1,5.5v9.3c0,0.2-0.1,0.3-0.3,0.3H74.3z"/>
				<path class="st1" d="M80.7,92.6c-0.3-0.9-0.5-2.1-0.5-3.6c0-1.5,0.2-2.7,0.5-3.6c0.8-2.6,3.1-4.1,6-4.1c3,0,5.2,1.6,6.1,4.1
					c0.3,1,0.5,2.1,0.5,4.4c0,0.2-0.1,0.3-0.3,0.3h-9.1c-0.1,0-0.2,0.1-0.2,0.2c0,0.4,0.1,0.8,0.2,1.1c0.5,1.4,1.6,2.2,3.3,2.2
					c1.7,0,2.7-0.6,3.5-1.4c0.1-0.1,0.3-0.2,0.5-0.1l1.8,1.6c0.1,0.1,0.1,0.3,0,0.4c-1.3,1.5-3.3,2.5-6.1,2.5
					C83.7,96.7,81.5,95.2,80.7,92.6z M89.6,86.1c-0.4-1.2-1.5-1.9-2.9-1.9c-1.4,0-2.5,0.7-2.9,1.9c-0.1,0.4-0.2,0.8-0.2,1.3
					c0,0.1,0.1,0.2,0.2,0.2h5.8c0.1,0,0.2-0.1,0.2-0.2C89.8,86.9,89.7,86.5,89.6,86.1z"/>
				<path class="st1" d="M95.2,94.4c-0.1-0.1-0.1-0.3,0-0.4l1.8-1.8c0.1-0.1,0.3-0.1,0.4,0c1.1,1,2.8,1.7,4.3,1.7
					c1.8,0,2.7-0.7,2.7-1.7c0-0.9-0.5-1.4-2.5-1.6l-1.6-0.2c-3-0.3-4.5-1.8-4.5-4.3c0-2.9,2.1-4.7,5.7-4.7c2.3,0,4.2,0.8,5.5,1.8
					c0.2,0.1,0.2,0.3,0.1,0.4l-1.5,1.8c-0.1,0.2-0.3,0.2-0.4,0.1c-0.9-0.6-2.4-1.2-3.9-1.2c-1.5,0-2.2,0.6-2.2,1.5
					c0,0.9,0.5,1.4,2.4,1.6l1.6,0.2c3.1,0.3,4.5,1.9,4.5,4.3c0,2.9-2.1,5-6.2,5C98.6,96.7,96.5,95.5,95.2,94.4z"/>
				<path class="st1" d="M114.9,96.6c-3,0-4.1-1.4-4.1-4.3v-7.8c0-0.1-0.1-0.2-0.2-0.2h-1c-0.2,0-0.3-0.1-0.3-0.3v-2
					c0-0.2,0.1-0.3,0.3-0.3h1c0.1,0,0.2-0.1,0.2-0.2v-4c0-0.2,0.1-0.3,0.3-0.3h2.8c0.2,0,0.3,0.1,0.3,0.3v4c0,0.1,0.1,0.2,0.2,0.2h2
					c0.2,0,0.3,0.1,0.3,0.3v2c0,0.2-0.1,0.3-0.3,0.3h-2c-0.1,0-0.2,0.1-0.2,0.2v7.6c0,1.1,0.4,1.4,1.4,1.4h0.8
					c0.2,0,0.3,0.1,0.3,0.3v2.4c0,0.2-0.1,0.3-0.3,0.3H114.9z"/>
				<path class="st1" d="M120.1,96.4c-0.2,0-0.3-0.1-0.3-0.3V82c0-0.2,0.1-0.3,0.3-0.3h2.8c0.2,0,0.3,0.1,0.3,0.3v1.2h0
					c0.7-1.1,2-1.9,3.8-1.9c1.2,0,2.3,0.5,3.1,1.2c0.1,0.1,0.2,0.3,0.1,0.4l-1.6,2c-0.1,0.1-0.3,0.2-0.4,0.1
					c-0.7-0.4-1.4-0.7-2.2-0.7c-1.9,0-2.8,1.4-2.8,3.7v8c0,0.2-0.1,0.3-0.3,0.3H120.1z"/>
				<path class="st1" d="M140.1,96.4c-0.2,0-0.3-0.1-0.3-0.3V95h0c-0.7,1-2.1,1.7-4.2,1.7c-2.7,0-4.9-1.4-4.9-4.5
					c0-3.2,2.3-4.7,5.9-4.7h3c0.1,0,0.2-0.1,0.2-0.2v-0.7c0-1.7-0.8-2.5-3.3-2.5c-1.6,0-2.7,0.5-3.4,1c-0.1,0.1-0.3,0.1-0.4-0.1
					l-1.2-2c-0.1-0.2,0-0.3,0.1-0.4c1.2-0.8,2.8-1.4,5.2-1.4c4.5,0,6.1,1.5,6.1,5.1v9.7c0,0.2-0.1,0.3-0.3,0.3H140.1z M139.7,91.4
					v-1.1c0-0.1,0-0.2-0.2-0.2h-2.4c-2.2,0-3.2,0.6-3.2,2c0,1.2,0.9,1.8,2.5,1.8C138.5,94,139.7,93.1,139.7,91.4z"/>
				<path class="st1" d="M151,96.6c-3,0-4.1-1.4-4.1-4.3v-7.8c0-0.1-0.1-0.2-0.2-0.2h-1c-0.2,0-0.3-0.1-0.3-0.3v-2
					c0-0.2,0.2-0.3,0.3-0.3h1c0.1,0,0.2-0.1,0.2-0.2v-4c0-0.2,0.1-0.3,0.3-0.3h2.8c0.2,0,0.3,0.1,0.3,0.3v4c0,0.1,0,0.2,0.2,0.2h2
					c0.2,0,0.3,0.1,0.3,0.3v2c0,0.2-0.1,0.3-0.3,0.3h-2c-0.1,0-0.2,0.1-0.2,0.2v7.6c0,1.1,0.4,1.4,1.4,1.4h0.8
					c0.2,0,0.3,0.1,0.3,0.3v2.4c0,0.2-0.1,0.3-0.3,0.3H151z"/>
				<path class="st1" d="M156.2,78.9c-0.2,0-0.3-0.1-0.3-0.3v-2.6c0-0.2,0.1-0.3,0.3-0.3h2.8c0.2,0,0.3,0.1,0.3,0.3v2.6
					c0,0.2-0.1,0.3-0.3,0.3H156.2z M156.2,96.4c-0.2,0-0.3-0.1-0.3-0.3V82c0-0.2,0.1-0.3,0.3-0.3h2.8c0.2,0,0.3,0.1,0.3,0.3v14.1
					c0,0.2-0.1,0.3-0.3,0.3H156.2z"/>
				<path class="st1" d="M172.5,96.4c-0.2,0-0.3-0.1-0.3-0.3v-8.5c0-1.9-0.9-3.2-2.8-3.2c-1.8,0-2.8,1.3-2.8,3.2v8.5
					c0,0.2-0.1,0.3-0.3,0.3h-2.8c-0.2,0-0.3-0.1-0.3-0.3V82c0-0.2,0.1-0.3,0.3-0.3h2.8c0.2,0,0.3,0.1,0.3,0.3V83h0
					c0.6-0.9,1.9-1.7,3.9-1.7c3.1,0,5.1,2.3,5.1,5.5v9.3c0,0.2-0.1,0.3-0.3,0.3H172.5z"/>
				<path class="st1" d="M178.8,100c-0.1-0.2-0.1-0.3,0-0.4l1.8-1.8c0.2-0.1,0.3-0.1,0.5,0c0.9,0.9,2,1.4,3.2,1.4
					c2.3,0,3.3-1.2,3.3-3.5v-1.4h0c-0.7,1.1-1.9,1.7-3.8,1.7c-2.5,0-4.3-1.3-5-3.6c-0.4-1.1-0.5-2.1-0.5-3.8c0-1.6,0.1-2.6,0.5-3.7
					c0.7-2.4,2.5-3.6,5-3.6c1.9,0,3.2,0.7,3.8,1.7h0V82c0-0.2,0.1-0.3,0.3-0.3h2.8c0.2,0,0.3,0.1,0.3,0.3v13.5
					c0,4.2-2.4,6.8-6.9,6.8C182.1,102.2,179.9,101.4,178.8,100z M187.3,91.1c0.2-0.7,0.3-1.4,0.3-2.4c0-1-0.1-1.7-0.3-2.4
					c-0.4-1.2-1.2-1.9-2.7-1.9c-1.4,0-2.2,0.7-2.6,1.9c-0.2,0.7-0.4,1.4-0.4,2.4c0,1,0.1,1.7,0.4,2.4c0.4,1.2,1.2,1.9,2.6,1.9
					C186.1,93,186.9,92.3,187.3,91.1z"/>
			</g>
			<g>
				<path class="st2" d="M207.2,81.3c-2,0-3.7,0.5-4.8,1.4c-0.3,0.2-0.4,0.5-0.2,0.9l0.5,0.8c0.2,0.3,0.6,0.3,0.9,0.1
					c0.8-0.7,1.9-1,3.4-1c2.9,0,3.4,0.9,3.4,2.9v1.3H207c-4.8,0-5.8,2.4-5.8,4.5c0,2.8,1.9,4.5,5.2,4.5c1.8,0,3.2-0.5,4.1-1.4v0.5
					c0,0.4,0.3,0.6,0.6,0.6h1c0.4,0,0.6-0.3,0.6-0.6v-9.4C212.8,82.7,211.2,81.3,207.2,81.3z M210.5,89.7v2c0,1.7-1.5,2.8-3.8,2.8
					c-1.5,0-3.2-0.4-3.2-2.4c0-1.2,0.4-2.4,3.7-2.4H210.5z"/>
				<path class="st2" d="M230.6,81.3c-1.8,0-3.1,0.5-4.1,1.6v-6.7c0-0.4-0.3-0.6-0.6-0.6h-1c-0.4,0-0.6,0.3-0.6,0.6v19.5
					c0,0.4,0.3,0.6,0.6,0.6h1c0.4,0,0.6-0.3,0.6-0.6v-0.6c0.9,1.1,2.3,1.6,4.1,1.6c2.6,0,4.4-1.2,5.2-3.6c0.4-1.2,0.5-2.4,0.5-4
					c0-1.7-0.2-2.9-0.5-4.1C235,82.5,233.2,81.3,230.6,81.3z M230.2,83.6c1.7,0,2.8,0.7,3.3,2.2c0.3,0.7,0.4,1.8,0.4,3.2
					c0,1.4-0.1,2.5-0.4,3.2c-0.5,1.5-1.6,2.2-3.3,2.2c-1.7,0-2.9-0.8-3.4-2.2c-0.2-0.7-0.4-1.7-0.4-3.2c0-1.5,0.1-2.5,0.4-3.2
					C227.4,84.3,228.5,83.6,230.2,83.6z"/>
				<path class="st2" d="M248.7,82.4c-0.8-0.7-1.9-1.1-3.1-1.1c-1.5,0-2.7,0.5-3.5,1.5v-0.6c0-0.4-0.3-0.6-0.7-0.6h-1
					c-0.4,0-0.7,0.3-0.7,0.6v13.5c0,0.4,0.3,0.6,0.7,0.6h1c0.4,0,0.7-0.3,0.7-0.6V88c0-1.6,0.4-4.4,3.1-4.4c0.7,0,1.4,0.2,2.1,0.7
					c0.1,0.1,0.3,0.1,0.4,0.1c0.1,0,0.3-0.1,0.5-0.3l0.6-0.8c0.1-0.1,0.2-0.3,0.1-0.5C248.9,82.6,248.8,82.5,248.7,82.4z"/>
				<path class="st2" d="M253,75.6h-1.3c-0.4,0-0.6,0.3-0.6,0.6v1.7c0,0.4,0.3,0.6,0.6,0.6h1.3c0.4,0,0.6-0.3,0.6-0.6v-1.7
					C253.6,75.8,253.3,75.6,253,75.6z"/>
				<path class="st2" d="M252.8,81.6h-1c-0.4,0-0.7,0.3-0.7,0.6v13.5c0,0.4,0.3,0.6,0.7,0.6h1c0.4,0,0.6-0.3,0.6-0.6V82.3
					C253.5,81.9,253.2,81.6,252.8,81.6z"/>
				<path class="st2" d="M268.2,81.6h-1c-0.4,0-0.6,0.3-0.6,0.6v0.6c-0.9-1-2.2-1.5-3.9-1.5c-2.5,0-4.3,1.3-5.1,3.6
					c-0.3,1.1-0.5,2.2-0.5,3.9c0,1.7,0.2,2.9,0.5,3.9c0.8,2.3,2.6,3.6,5.1,3.6c1.7,0,3.1-0.5,3.9-1.5v0.9c0,2.7-1.2,3.9-3.7,3.9
					c-1.4,0-2.5-0.5-3.3-1.4c-0.2-0.3-0.6-0.3-0.9-0.1l-0.7,0.6c-0.3,0.2-0.3,0.5-0.1,0.9c0.9,1.3,2.7,2.2,4.8,2.2
					c3.9,0,6.3-2.2,6.3-6.2V82.3C268.8,81.9,268.5,81.6,268.2,81.6z M262.9,94.3c-1.6,0-2.7-0.7-3.2-2.2c-0.3-0.7-0.4-1.7-0.4-3.1
					c0-1.4,0.1-2.4,0.4-3.1c0.5-1.5,1.6-2.2,3.2-2.2c1.7,0,2.8,0.7,3.3,2.2c0.3,0.7,0.3,1.6,0.3,3.1c0,1.5-0.1,2.4-0.3,3.1
					C265.7,93.5,264.6,94.3,262.9,94.3z"/>
				<path class="st2" d="M279.6,81.3c-1.7,0-3,0.6-3.9,1.6v-6.7c0-0.4-0.3-0.6-0.7-0.6h-1c-0.4,0-0.6,0.3-0.6,0.6v19.5
					c0,0.4,0.3,0.6,0.6,0.6h1c0.4,0,0.7-0.3,0.7-0.6v-8.6c0-2.1,1.4-3.6,3.5-3.6c2.3,0,3.4,1.3,3.4,3.9v8.3c0,0.4,0.3,0.6,0.7,0.6h1
					c0.4,0,0.6-0.3,0.6-0.6V87C284.9,83.4,283,81.3,279.6,81.3z"/>
				<path class="st2" d="M294.4,81.6h-2.5v-3.9c0-0.4-0.3-0.6-0.6-0.6h-1c-0.4,0-0.6,0.3-0.6,0.6v3.9h-1.3c-0.4,0-0.6,0.3-0.6,0.6
					v0.8c0,0.4,0.3,0.6,0.6,0.6h1.3v8.6c0,3,1.2,4.2,4.1,4.2h0.8c0.4,0,0.7-0.3,0.7-0.6v-0.9c0-0.4-0.3-0.6-0.7-0.6h-0.6
					c-1.5,0-2-0.3-2-2v-8.5h2.5c0.4,0,0.7-0.3,0.7-0.6v-0.8C295.1,81.9,294.8,81.6,294.4,81.6z"/>
				<path class="st2" d="M303.6,81.3c-2.8,0-4.8,1.4-5.7,3.9c-0.3,1-0.5,2.1-0.5,3.8c0,1.7,0.2,2.8,0.5,3.7c0.9,2.6,2.9,4,5.8,4
					c2.3,0,4.3-0.9,5.5-2.5c0.2-0.3,0.2-0.7-0.1-0.9l-0.7-0.6c-0.3-0.2-0.7-0.2-0.9,0.1c-0.9,1.1-2.2,1.7-3.7,1.7
					c-1.9,0-3.1-0.8-3.7-2.5c-0.2-0.6-0.3-1.2-0.3-2.2h9.2c0.4,0,0.7-0.3,0.7-0.6c0-1.9-0.1-2.9-0.4-3.9
					C308.4,82.8,306.4,81.3,303.6,81.3z M303.6,83.5c1.8,0,3,0.8,3.5,2.4c0.2,0.5,0.2,1.1,0.3,1.8h-7.5c0-0.7,0.1-1.3,0.3-1.8
					C300.6,84.3,301.8,83.5,303.6,83.5z"/>
				<path class="st2" d="M322.2,82.4c-0.8-0.7-1.9-1.1-3.1-1.1c-1.5,0-2.7,0.5-3.5,1.5v-0.6c0-0.4-0.3-0.6-0.7-0.6h-1
					c-0.4,0-0.6,0.3-0.6,0.6v13.5c0,0.4,0.3,0.6,0.6,0.6h1c0.4,0,0.7-0.3,0.7-0.6V88c0-1.6,0.4-4.4,3.1-4.4c0.7,0,1.4,0.2,2.1,0.7
					c0.1,0.1,0.3,0.1,0.4,0.1c0.1,0,0.3-0.1,0.5-0.3l0.6-0.8c0.1-0.1,0.2-0.3,0.1-0.5C322.4,82.6,322.3,82.5,322.2,82.4z"/>
				<path class="st2" d="M350.2,81.6h-1.1c-0.4,0-0.6,0.3-0.7,0.5l-3.3,10.3l-3.5-10.3c-0.1-0.3-0.4-0.5-0.7-0.5h-0.9
					c-0.2,0-0.5,0.1-0.7,0.5L336,92.4l-3.4-10.3c-0.1-0.2-0.3-0.5-0.7-0.5h-1.1c-0.3,0-0.4,0.1-0.5,0.2c-0.1,0.1-0.2,0.3-0.1,0.5
					l4.5,13.5c0.1,0.4,0.4,0.5,0.7,0.5h0.9c0.4,0,0.6-0.2,0.7-0.5l3.5-10.3l3.4,10.3c0.1,0.3,0.4,0.5,0.7,0.5h0.9
					c0.4,0,0.6-0.2,0.7-0.5l4.5-13.5c0.1-0.3,0-0.5,0-0.5C350.6,81.7,350.5,81.6,350.2,81.6z"/>
				<path class="st2" d="M358.7,81.3c-2.8,0-4.9,1.4-5.7,3.9c-0.3,1.1-0.5,2.2-0.5,3.8c0,1.6,0.2,2.7,0.5,3.8
					c0.8,2.5,2.9,3.9,5.7,3.9c2.8,0,4.9-1.4,5.7-3.9c0.4-1.1,0.5-2.2,0.5-3.8c0-1.6-0.1-2.7-0.5-3.8
					C363.6,82.8,361.6,81.3,358.7,81.3z M358.7,94.5c-1.7,0-2.9-0.8-3.5-2.4c-0.2-0.8-0.4-1.7-0.4-3.1c0-1.4,0.1-2.3,0.4-3.1
					c0.5-1.5,1.8-2.4,3.5-2.4c1.7,0,3,0.9,3.5,2.4c0.3,0.8,0.4,1.7,0.4,3.1c0,1.4-0.1,2.3-0.4,3.1C361.7,93.6,360.5,94.5,358.7,94.5
					z"/>
				<path class="st2" d="M377.3,82.4c-0.8-0.7-1.9-1.1-3.1-1.1c-1.5,0-2.7,0.5-3.5,1.5v-0.6c0-0.4-0.3-0.6-0.6-0.6h-1
					c-0.4,0-0.6,0.3-0.6,0.6v13.5c0,0.4,0.3,0.6,0.6,0.6h1c0.4,0,0.6-0.3,0.6-0.6V88c0-1.6,0.4-4.4,3.1-4.4c0.7,0,1.4,0.2,2.1,0.7
					c0.1,0.1,0.3,0.1,0.4,0.1c0.2,0,0.3-0.1,0.5-0.3l0.6-0.8c0.1-0.1,0.2-0.3,0.2-0.5C377.6,82.6,377.5,82.5,377.3,82.4z"/>
				<path class="st2" d="M383.8,94.3h-0.5c-0.8,0-1.2-0.2-1.2-1.5V76.2c0-0.4-0.3-0.6-0.7-0.6h-1c-0.4,0-0.6,0.3-0.6,0.6v16.6
					c0,2.5,1,3.6,3.3,3.6h0.7c0.4,0,0.6-0.3,0.6-0.6v-0.9C384.5,94.5,384.2,94.3,383.8,94.3z"/>
				<path class="st2" d="M397.9,75.6h-1c-0.4,0-0.6,0.3-0.6,0.6v6.7c-0.9-1-2.3-1.6-4.1-1.6c-2.7,0-4.5,1.2-5.2,3.6
					c-0.4,1.1-0.5,2.3-0.5,4.1c0,1.7,0.1,3,0.5,4c0.8,2.4,2.5,3.6,5.2,3.6c1.8,0,3.1-0.5,4.1-1.6v0.6c0,0.4,0.3,0.6,0.6,0.6h1
					c0.4,0,0.6-0.3,0.6-0.6V76.2C398.5,75.8,398.2,75.6,397.9,75.6z M392.4,94.5c-1.7,0-2.8-0.8-3.3-2.2c-0.2-0.7-0.4-1.8-0.4-3.2
					c0-1.4,0.1-2.5,0.4-3.2c0.5-1.5,1.6-2.2,3.3-2.2c1.7,0,2.9,0.8,3.3,2.2c0.3,0.7,0.4,1.7,0.4,3.2c0,1.5-0.1,2.5-0.4,3.2
					C395.3,93.7,394.2,94.5,392.4,94.5z"/>
			</g>
		</g>
		<path class="st2" d="M16.5,99.4c0.8-0.4,1.2-1.3,0.8-2.1L2.8,66.1v0c0,0,0,0,0,0c-0.1-0.3-0.5-0.5-0.9-0.3
			c-0.3,0.2-0.5,0.5-0.3,0.9l0,0v0l12.9,32C14.7,99.4,15.7,99.8,16.5,99.4L16.5,99.4z"/>
	</g>
</g>
</svg>
