<?xml version="1.0" encoding="UTF-8"?><svg xmlns="http://www.w3.org/2000/svg" version="1.2" baseProfile="tiny" viewBox="0 0 140 39" width="140px" height="39px"><g fill="#3f71b9"><rect x="12" y="3" width="1" height="13"/><rect width="1" height="1" x="12" y="16"/></g><rect height="1" fill="#3981c3" x="7" y="5" width="1"/><rect height="1" fill="#358aca" x="4" y="7" width="1"/><g fill="#50338f"><rect x="31" y="9" width="1" height="1"/><rect y="10" width="1" height="17" x="31"/><rect x="31" y="27" width="1" height="1"/></g><g fill="#3393cf"><rect x="134" y="9" width="1" height="22"/><rect x="134" y="31" width="1" height="1"/><rect x="111" y="32" width="1" height="1"/></g><rect y="11" width="1" height="1" fill="#3f9fdf" x="129"/><rect x="58" y="32" width="1" height="1" fill="#512b87"/><g fill="#503691"><rect x="30" y="9" width="1" height="18"/><rect x="30" y="27" width="1" height="1"/></g><g fill="#523e99"><rect width="1" height="1" x="55" y="18"/><rect x="56" y="30" width="1" height="1"/><rect x="2" y="31" width="1" height="1"/><rect x="7" y="34" width="1" height="1"/><rect x="12" y="37" width="1" height="1"/></g><g fill="#4e3b97"><rect y="22" width="1" height="1" x="85"/><rect x="4" y="32" width="1" height="1"/><rect x="9" y="35" width="1" height="1"/></g><g fill="#3e76bc"><rect x="22" y="24" width="1" height="10"/><rect width="1" height="1" x="22" y="34"/></g><g fill="#3789ca"><rect x="28" y="28" width="1" height="2"/><rect height="1" x="28" y="30" width="1"/></g><g fill="#512e8a"><rect x="1" y="30" width="1" height="1"/><rect x="63" y="32" width="1" height="1"/></g><g fill="#4461b0"><rect x="19" y="37" width="1" height="1"/><rect x="14" y="38" width="1" height="1"/></g><g fill="#4e3d95"><rect x="28" y="7" width="1" height="1"/><rect x="28" y="8" width="1" height="17"/><rect x="28" y="25" width="1" height="1"/></g><g fill="#50308b"><rect x="30" y="8" width="1" height="1"/><rect x="48" y="9" width="1" height="1"/><rect width="1" height="1" x="52" y="24"/></g><g fill="#4556a6"><rect x="12" y="18" width="1" height="17"/><rect width="1" height="1" x="12" y="35"/></g><g fill="#502e88"><rect x="42" y="32" width="1" height="1"/><rect x="86" y="32" width="1" height="1"/></g><rect x="47" y="32" width="1" height="1" fill="#522c8c"/><rect fill="#3f6bb5" x="13" y="1" width="1" height="1"/><g fill="#4657a7"><rect x="20" y="4" width="1" height="17"/><rect x="20" y="21" width="1" height="1"/></g><g fill="#4d4097"><rect height="1" x="27" y="7" width="1"/><rect height="17" x="27" y="8" width="1"/><rect x="27" y="25" width="1" height="1"/></g><rect y="10" width="1" height="1" fill="#5052a2"/><g fill="#522e8b"><rect y="11" width="1" height="17"/><rect y="28" width="1" height="1"/></g><g fill="#4850a2"><rect width="1" height="1" x="22" y="4"/><rect x="8" y="15" width="1" height="1"/></g><rect height="1" fill="#4f4499" x="3" y="12" width="1"/><g fill="#435fad"><rect y="20" width="1" height="17" x="15"/><rect x="15" y="37" width="1" height="1"/></g><rect height="1" fill="#4261ad" x="17" y="1" width="1"/><g fill="#494a9e"><rect x="24" y="6" width="1" height="17"/><rect x="24" y="23" width="1" height="1"/></g><rect y="6" width="1" height="1" fill="#4b479b" x="25"/><g fill="#368fcd"><rect x="3" y="9" width="1" height="1"/><rect x="3" y="10" width="1" height="1"/></g><g fill="#4f3993"><rect x="29" y="9" width="1" height="17"/><rect x="29" y="26" width="1" height="1"/><rect y="28" width="1" height="1" x="31"/></g><rect x="121" y="11" width="1" height="1" fill="#3399cc"/><rect y="14" width="1" height="1" fill="#4b449a" x="6"/><rect x="16" y="19" width="1" height="1" fill="#4163b0"/><rect y="31" width="1" height="1" fill="#4e3892" x="3"/><g fill="#3f6bb4"><rect x="14" y="2" width="1" height="15"/><rect x="14" y="17" width="1" height="1"/></g><rect x="25" y="5" width="1" height="1" fill="#4a459d"/><g fill="#397ec2"><rect x="8" y="6" width="1" height="7"/><rect x="8" y="13" width="1" height="1"/></g><rect x="29" y="8" width="1" height="1" fill="#4e3993"/><rect x="1" y="11" width="1" height="1" fill="#52358e"/><g fill="#4e3b94"><rect width="1" height="17" x="4" y="13"/><rect y="30" width="1" height="1" x="4"/></g><rect height="1" fill="#3390ce" x="30" y="30" width="1"/><rect fill="#425ead" x="15" y="38" width="1" height="1"/><rect x="15" width="1" height="1" fill="#3f68b1"/><g fill="#3d75bb"><rect y="4" width="1" height="11" x="11"/><rect height="1" x="11" y="15" width="1"/></g><g fill="#4559a8"><rect x="13" y="19" width="1" height="17"/><rect x="13" y="36" width="1" height="1"/></g><g fill="#3980c3"><rect x="25" y="26" width="1" height="6"/><rect x="25" y="32" width="1" height="1"/></g><rect x="30" y="28" width="1" height="1" fill="#4276bc"/><rect x="122" y="28" width="1" height="1" fill="#3490ce"/><g fill="#3292d2"><rect width="1" height="1" x="131" y="31"/><rect x="125" y="32" width="1" height="1"/></g><rect y="32" width="1" height="1" fill="#4b3f96" x="5"/><g fill="#4d439a"><rect x="26" y="6" width="1" height="1"/><rect x="26" y="7" width="1" height="17"/><rect x="26" y="24" width="1" height="1"/></g><rect fill="#4468b2" x="7" y="14" width="1" height="1"/><g fill="#4f2a8a"><rect y="18" width="1" height="3" x="85"/><rect x="85" y="21" width="1" height="1"/></g><rect x="18" y="21" width="1" height="1" fill="#4067b2"/><rect fill="#426eb7" x="25" y="25" width="1" height="1"/><rect x="25" y="33" width="1" height="1" fill="#387fc2"/><rect x="20" y="3" width="1" height="1" fill="#4657a6"/><g fill="#3c78bd"><rect width="1" height="11" x="10" y="4"/><rect height="1" x="10" y="15" width="1"/></g><g fill="#5b237f"><rect x="32" y="9" width="1" height="1"/><rect height="1" x="85" y="17" width="1"/></g><g fill="#494b9f"><rect x="9" y="16" width="1" height="17"/><rect y="23" width="1" height="1" x="23"/><rect x="9" y="33" width="1" height="1"/></g><rect fill="#3f6db6" x="13" y="2" width="1" height="1"/><g fill="#4361ae"><rect x="17" y="2" width="1" height="17"/><rect x="17" y="19" width="1" height="1"/></g><rect width="1" height="1" fill="#387fc1" x="8" y="4"/><rect x="23" y="4" width="1" height="1" fill="#494c9f"/><g fill="#3492cf"><rect x="2" y="8" width="1" height="1"/><rect x="118" y="15" width="1" height="1"/><rect width="1" height="1" x="117" y="16"/><rect x="124" y="21" width="1" height="1"/><rect height="1" x="116" y="25" width="1"/></g><g fill="#368dcc"><rect height="1" x="3" y="8" width="1"/><rect width="1" height="1" x="29" y="28"/><rect x="29" y="29" width="1" height="1"/></g><g fill="#502c89"><rect x="69" y="8" width="1" height="1"/><rect y="8" width="1" height="1" x="89"/><rect x="50" y="12" width="1" height="1"/><rect x="89" y="12" width="1" height="1"/><rect x="51" y="14" width="1" height="1"/><rect x="52" y="15" width="1" height="1"/><rect x="54" y="17" width="1" height="1"/><rect x="74" y="17" width="1" height="1"/><rect width="1" height="1" x="48" y="18"/><rect y="19" width="1" height="1" x="49"/><rect y="21" width="1" height="1" x="56"/><rect x="74" y="22" width="1" height="1"/><rect height="1" x="55" y="27" width="1"/><rect x="57" y="31" width="1" height="1"/><rect x="69" y="32" width="1" height="1"/></g><g fill="#4c3f96"><rect x="5" y="14" width="1" height="17"/><rect x="5" y="31" width="1" height="1"/></g><g fill="#4166b1"><rect x="12" y="17" width="1" height="1"/><rect x="17" y="21" width="1" height="16"/><rect x="17" y="37" width="1" height="1"/></g><rect width="1" height="1" fill="#445daa" x="19" y="21"/><g fill="#3f73ba"><rect height="11" x="21" y="23" width="1"/><rect x="21" y="34" width="1" height="1"/></g><g fill="#2c78d2"><rect x="31" y="30" width="1" height="1"/><rect x="26" y="33" width="1" height="1"/><rect y="36" width="1" height="1" x="21"/></g><g fill="#4a4ca0"><rect y="5" width="1" height="17" x="23"/><rect x="23" y="22" width="1" height="1"/></g><g fill="#4a459b"><rect y="15" width="1" height="17" x="7"/><rect x="7" y="32" width="1" height="1"/></g><rect x="20" y="22" width="1" height="1" fill="#4366b2"/><g fill="#4f3e99"><rect x="17" width="1" height="1"/><rect height="1" x="49" y="10" width="1"/><rect height="1" x="51" y="23" width="1"/></g><g fill="#4164b0"><rect x="16" y="1" width="1" height="17"/><rect width="1" height="1" x="16" y="18"/></g><g fill="#4850a3"><rect x="22" y="5" width="1" height="17"/><rect height="1" x="22" y="22" width="1"/></g><g fill="#4b479c"><rect x="25" y="7" width="1" height="17"/><rect width="1" height="1" x="25" y="24"/><rect width="1" height="1" x="29" y="27"/><rect x="7" y="33" width="1" height="1"/></g><g fill="#4752a4"><rect height="17" x="11" y="18" width="1"/><rect x="11" y="35" width="1" height="1"/></g><g fill="#3f69b3"><rect x="18" y="22" width="1" height="14"/><rect x="18" y="36" width="1" height="1"/></g><rect x="23" y="24" width="1" height="1" fill="#4074b9"/><rect x="16" y="38" width="1" height="1" fill="#4362ae"/><rect x="17" y="38" width="1" height="1" fill="#4164b1"/><rect x="14" y="1" width="1" height="1" fill="#3f6ab4"/><rect fill="#4e3e94" x="28" y="26" width="1" height="1"/><rect x="18" y="1" width="1" height="1" fill="#445dab"/><g fill="#445aa9"><rect y="3" width="1" height="17" x="19"/><rect height="1" x="13" y="18" width="1"/><rect height="1" x="19" y="20" width="1"/></g><g fill="#502d89"><rect x="43" y="8" width="3" height="1"/><rect x="46" y="8" width="1" height="1"/><rect x="59" y="8" width="3" height="1"/><rect width="1" height="1" x="62" y="8"/><rect x="70" y="8" width="15" height="1"/><rect y="8" width="1" height="1" x="85"/><rect x="90" y="8" width="16" height="1"/><rect x="106" y="8" width="1" height="1"/><rect x="90" y="12" width="5" height="1"/><rect height="1" x="95" y="12" width="1"/><rect height="1" x="102" y="12" width="4"/><rect height="1" x="106" y="12" width="1"/><rect x="57" y="22" width="1" height="1"/><rect x="58" y="22" width="1" height="1"/><rect x="54" y="26" width="1" height="1"/></g><rect y="9" width="1" height="1" fill="#3193d0"/><g fill="#512c8a"><rect x="89" y="9" width="1" height="2"/><rect x="89" y="11" width="1" height="1"/><rect x="101" y="12" width="1" height="1"/><rect x="50" y="21" width="1" height="1"/><rect x="75" y="22" width="9" height="1"/><rect x="84" y="22" width="1" height="1"/><rect x="74" y="27" width="1" height="1"/><rect x="56" y="29" width="1" height="1"/></g><g fill="#4362af"><rect x="16" y="20" width="1" height="17"/><rect x="16" y="37" width="1" height="1"/></g><g fill="#406eb8"><rect x="20" y="23" width="1" height="12"/><rect width="1" height="1" x="20" y="35"/></g><rect fill="#495eab" x="27" y="26" width="1" height="1"/><rect x="9" y="34" width="1" height="1" fill="#494a9f"/><rect x="10" y="35" width="1" height="1" fill="#474ea0"/><g fill="#3b7bbf"><rect width="1" height="1" x="9" y="4"/><rect x="9" y="5" width="1" height="9"/><rect x="9" y="14" width="1" height="1"/></g><g fill="#502d8a"><rect height="1" x="42" y="8" width="1"/><rect y="9" width="1" height="22" x="63"/><rect width="1" height="2" x="107" y="9"/><rect height="1" x="49" y="11" width="1"/><rect x="107" y="11" width="1" height="1"/><rect x="74" y="13" width="1" height="3"/><rect x="74" y="16" width="1" height="1"/><rect x="47" y="17" width="1" height="1"/><rect x="51" y="22" width="1" height="1"/><rect x="74" y="23" width="1" height="3"/><rect x="74" y="26" width="1" height="1"/><rect y="29" width="1" height="1"/><rect x="63" y="31" width="1" height="1"/></g><rect x="11" y="16" width="1" height="1" fill="#3e73b9"/><rect x="21" y="22" width="1" height="1" fill="#4555a6"/><rect y="37" width="1" height="1" fill="#445ba9" x="14"/><rect x="12" y="2" width="1" height="1" fill="#3f70b8"/><g fill="#55318d"><rect y="10" width="1" height="18" x="32"/><rect height="1" x="32" y="28" width="1"/></g><g fill="#406cb5"><rect width="1" height="13" x="19" y="22"/><rect x="19" y="35" width="1" height="1"/></g><rect x="4" y="31" width="1" height="1" fill="#4d3a93"/><g fill="#4f2c89"><rect x="43" y="32" width="3" height="1"/><rect x="46" y="32" width="1" height="1"/><rect x="59" y="32" width="3" height="1"/><rect x="62" y="32" width="1" height="1"/><rect x="70" y="32" width="15" height="1"/><rect x="85" y="32" width="1" height="1"/><rect x="96" y="32" width="4" height="1"/><rect x="100" y="32" width="1" height="1"/></g><rect width="1" height="1" fill="#4559a7" x="13" y="37"/><rect width="1" height="1" fill="#3f68b3" x="18" y="37"/><g fill="#3b78bc"><rect x="11" y="2" width="1" height="1"/><rect height="1" x="32" y="29" width="1"/></g><rect x="11" y="3" width="1" height="1" fill="#3c74ba"/><g fill="#512d8a"><rect x="47" y="8" width="1" height="1"/><rect width="1" height="1" x="58" y="8"/><rect height="22" x="42" y="9" width="1"/><rect x="43" y="9" width="3" height="22"/><rect x="46" y="9" width="1" height="22"/><rect y="9" width="3" height="22" x="59"/><rect x="62" y="9" width="1" height="22"/><rect height="22" x="69" y="9" width="1"/><rect width="15" height="3" x="70" y="9"/><rect x="85" y="9" width="1" height="3"/><rect x="90" y="9" width="16" height="2"/><rect x="106" y="9" width="1" height="2"/><rect height="6" x="47" y="10" width="1"/><rect x="48" y="11" width="1" height="6"/><rect height="1" x="90" y="11" width="16"/><rect x="106" y="11" width="1" height="1"/><rect x="49" y="12" width="1" height="6"/><rect x="70" y="12" width="15" height="1"/><rect x="85" y="12" width="1" height="1"/><rect x="96" y="12" width="4" height="19"/><rect x="100" y="12" width="1" height="19"/><rect x="70" y="13" width="3" height="18"/><rect y="13" width="1" height="18" x="73"/><rect x="50" y="14" width="1" height="5"/><rect x="51" y="15" width="1" height="6"/><rect x="47" y="16" width="5" height="1"/><rect width="1" height="6" x="52" y="16"/><rect x="48" y="17" width="4" height="1"/><rect width="4" height="1" x="49" y="18"/><rect x="53" y="18" width="1" height="5"/><rect x="74" y="18" width="10" height="3"/><rect x="84" y="18" width="1" height="3"/><rect y="19" width="4" height="1" x="50"/><rect x="54" y="19" width="1" height="6"/><rect x="55" y="20" width="1" height="6"/><rect height="1" x="51" y="21" width="4"/><rect x="74" y="21" width="10" height="1"/><rect x="84" y="21" width="1" height="1"/><rect x="52" y="22" width="4" height="1"/><rect x="56" y="22" width="1" height="6"/><rect height="1" x="53" y="23" width="4"/><rect x="57" y="23" width="5" height="6"/><rect width="8" height="1" x="54" y="25"/><rect x="55" y="26" width="7" height="1"/><rect x="56" y="28" width="6" height="1"/><rect x="74" y="28" width="11" height="3"/><rect x="85" y="28" width="1" height="3"/><rect x="86" y="28" width="1" height="3"/><rect x="57" y="29" width="5" height="1"/><rect x="58" y="30" width="4" height="1"/><rect width="1" height="1" x="42" y="31"/><rect y="31" width="3" height="1" x="43"/><rect width="1" height="1" x="46" y="31"/><rect x="59" y="31" width="3" height="1"/><rect x="62" y="31" width="1" height="1"/><rect width="1" height="1" x="69" y="31"/><rect height="1" x="70" y="31" width="15"/><rect height="1" x="85" y="31" width="1"/><rect width="1" height="1" x="86" y="31"/><rect y="31" width="4" height="1" x="96"/><rect width="1" height="1" x="100" y="31"/></g><g fill="#0ff"><rect fill="#00ffff" x="130" y="10" width="1" height="1"/><rect x="128" y="26" width="1" height="1" fill="#00ffff"/></g><rect x="8" y="14" width="1" height="1" fill="#387dc2"/><g fill="#552a8a"><rect x="57" y="21" width="1" height="1"/><rect x="54" y="27" width="1" height="1"/></g><g fill="#3d79be"><rect width="1" height="8" x="23" y="25"/><rect x="23" y="33" width="1" height="1"/></g><rect x="29" y="30" width="1" height="1" fill="#368ccc"/><rect x="22" y="35" width="1" height="1" fill="#3d77bd"/><rect x="6" y="6" width="1" height="1" fill="#3883c6"/><g fill="#3391d0"><rect x="134" y="8" width="1" height="1"/><rect x="111" y="9" width="1" height="22"/><rect height="1" x="122" y="11" width="1"/><rect x="120" y="13" width="1" height="1"/><rect width="1" height="1" x="126" y="14"/><rect x="118" y="16" width="1" height="1"/><rect x="123" y="17" width="1" height="1"/><rect x="123" y="20" width="1" height="1"/><rect height="1" x="118" y="23" width="1"/><rect x="123" y="28" width="1" height="1"/><rect x="111" y="31" width="1" height="1"/></g><g fill="#3491cf"><rect x="2" y="9" width="1" height="1"/><rect x="116" y="9" width="1" height="7"/><rect width="1" height="1" x="2" y="10"/><rect x="116" y="16" width="1" height="1"/><rect x="122" y="18" width="1" height="1"/><rect height="1" x="116" y="24" width="1"/><rect width="1" height="1" x="119" y="24"/><rect x="127" y="25" width="1" height="1"/><rect x="116" y="26" width="1" height="5"/><rect x="128" y="27" width="1" height="1"/><rect width="1" height="1" x="30" y="29"/><rect y="29" width="1" height="1" x="31"/><rect x="29" y="31" width="1" height="1"/><rect x="116" y="31" width="1" height="1"/><rect height="1" x="124" y="31" width="1"/></g><g fill="#4f2d8a"><rect height="3" x="86" y="9" width="1"/><rect y="12" width="1" height="1" x="86"/><rect x="86" y="27" width="1" height="1"/></g><g fill="#4f3590"><rect width="1" height="17" x="2" y="12"/><rect width="1" height="1" x="2" y="29"/></g><rect y="25" width="1" height="1" fill="#4d459c" x="26"/><rect x="11" y="36" width="1" height="1" fill="#4551a2"/><g fill="#4654a5"><rect y="4" width="1" height="17" x="21"/><rect width="1" height="1" x="11" y="17"/><rect height="1" x="21" y="21" width="1"/><rect x="24" y="24" width="1" height="1"/><rect x="12" y="36" width="1" height="1"/></g><g fill="#512d89"><rect height="1" x="86" y="8" width="1"/><rect x="58" y="9" width="1" height="12"/><rect height="1" x="53" y="16" width="1"/><rect height="13" x="47" y="18" width="1"/><rect x="58" y="21" width="1" height="1"/><rect x="75" y="27" width="10" height="1"/><rect x="85" y="27" width="1" height="1"/><rect height="1" x="47" y="31" width="1"/></g><g fill="#474fa1"><rect y="17" width="1" height="17" x="10"/><rect y="34" width="1" height="1" x="10"/></g><g fill="#502c8a"><rect width="1" height="1" x="47" y="9"/><rect width="1" height="1" x="48" y="10"/><rect x="50" y="13" width="1" height="1"/><rect width="1" height="1" x="53" y="17"/><rect x="54" y="18" width="1" height="1"/><rect height="1" x="50" y="20" width="1"/><rect x="52" y="23" width="1" height="1"/><rect height="1" x="53" y="24" width="1"/><rect x="53" y="25" width="1" height="1"/><rect y="30" width="1" height="1" x="57"/><rect x="58" y="31" width="1" height="1"/></g><g fill="#3590cf"><rect x="1" y="10" width="1" height="1"/><rect x="124" y="22" width="1" height="1"/></g><rect x="3" y="11" width="1" height="1" fill="#368ecc"/><g fill="#52328d"><rect height="17" x="1" y="12" width="1"/><rect height="1" x="1" y="29" width="1"/></g><g fill="#4f3892"><rect x="3" y="13" width="1" height="17"/><rect y="30" width="1" height="1" x="3"/></g><g fill="#2a94d4"><rect x="123" y="19" width="1" height="1"/><rect x="121" y="27" width="1" height="1"/></g><rect y="32" width="1" height="1" fill="#3785c7" x="27"/><rect x="19" y="2" width="1" height="1" fill="#435aa8"/><g fill="#3888c8"><rect x="5" y="7" width="1" height="5"/><rect x="5" y="12" width="1" height="1"/></g><g fill="#4f2f87"><rect x="75" y="17" width="9" height="1"/><rect height="1" x="84" y="17" width="1"/></g><rect x="28" y="27" width="1" height="1" fill="#3b7fc4"/><rect width="1" height="1" fill="#4065b0" x="16"/><g fill="#3c79bd"><rect x="10" y="3" width="1" height="1"/><rect x="23" y="34" width="1" height="1"/></g><rect width="1" height="1" fill="#4653a4" x="21" y="3"/><rect fill="#397ec1" x="8" y="5" width="1" height="1"/><g fill="#3884c7"><rect x="6" y="7" width="1" height="5"/><rect x="6" y="12" width="1" height="1"/><rect height="4" x="27" y="27" width="1"/><rect height="1" x="27" y="31" width="1"/></g><g fill="#368bcb"><rect x="4" y="8" width="1" height="3"/><rect x="4" y="11" width="1" height="1"/></g><rect width="1" height="1" fill="#3783c5" x="26" y="32"/><rect width="1" height="1" fill="#3f6cb7" x="20" y="36"/><g fill="#3491d0"><rect x="112" y="8" width="3" height="1"/><rect x="115" y="8" width="1" height="1"/><rect x="116" y="8" width="1" height="1"/><rect width="1" height="1" x="124" y="8"/><rect height="1" x="126" y="8" width="4"/><rect x="130" y="8" width="1" height="1"/><rect y="8" width="1" height="1" x="131"/><rect x="135" y="8" width="4" height="1"/><rect x="139" y="8" width="1" height="1"/><rect x="124" y="30" width="1" height="1"/><rect x="131" y="32" width="1" height="1"/></g><g fill="#3492d0"><rect x="112" y="9" width="3" height="22"/><rect width="1" height="22" x="115" y="9"/><rect x="125" y="9" width="4" height="1"/><rect height="1" x="129" y="9" width="1"/><rect x="130" y="9" width="1" height="1"/><rect width="4" height="22" x="135" y="9"/><rect height="22" x="139" y="9" width="1"/><rect x="124" y="10" width="4" height="1"/><rect x="128" y="10" width="1" height="1"/><rect x="123" y="11" width="4" height="1"/><rect height="1" x="127" y="11" width="1"/><rect y="12" width="4" height="1" x="122"/><rect width="1" height="1" x="126" y="12"/><rect y="13" width="4" height="2" x="121"/><rect height="1" x="125" y="13" width="1"/><rect y="14" width="4" height="2" x="120"/><rect x="119" y="15" width="5" height="1"/><rect height="1" x="124" y="15" width="1"/><rect x="125" y="15" width="1" height="1"/><rect height="1" x="119" y="16" width="4"/><rect height="1" x="123" y="16" width="1"/><rect height="4" x="118" y="17" width="4"/><rect x="122" y="17" width="1" height="1"/><rect y="18" width="5" height="3" x="116"/><rect x="122" y="20" width="1" height="6"/><rect x="116" y="21" width="7" height="1"/><rect x="123" y="21" width="1" height="6"/><rect x="116" y="22" width="1" height="1"/><rect width="6" height="1" x="117" y="22"/><rect width="1" height="1" x="116" y="23"/><rect x="120" y="23" width="4" height="1"/><rect x="124" y="23" width="1" height="6"/><rect y="24" width="1" height="1" x="117"/><rect height="1" x="121" y="24" width="4"/><rect x="125" y="24" width="1" height="6"/><rect width="1" height="1" x="126" y="24"/><rect x="120" y="25" width="1" height="1"/><rect x="121" y="25" width="4" height="1"/><rect x="122" y="26" width="4" height="1"/><rect width="1" height="5" x="126" y="26"/><rect x="123" y="27" width="4" height="1"/><rect height="4" x="127" y="27" width="1"/><rect x="124" y="29" width="4" height="1"/><rect x="128" y="29" width="1" height="2"/><rect y="30" width="4" height="1" x="125"/><rect x="129" y="30" width="1" height="1"/><rect y="31" width="3" height="1" x="112"/><rect height="1" x="115" y="31" width="1"/><rect height="1" x="126" y="31" width="3"/><rect y="31" width="1" height="1" x="129"/><rect x="135" y="31" width="4" height="1"/><rect x="139" y="31" width="1" height="1"/></g><g fill="#4f2b8b"><rect y="13" width="1" height="18" x="101"/><rect x="101" y="31" width="1" height="1"/></g><g fill="#55388d"><rect width="1" height="1" x="52" y="14"/><rect x="48" y="19" width="1" height="1"/></g><rect x="15" y="19" width="1" height="1" fill="#4461ae"/><rect x="5" y="6" width="1" height="1" fill="#3886c9"/><g fill="#3392d0"><rect x="125" y="8" width="1" height="1"/><rect x="1" y="9" width="1" height="1"/><rect height="1" x="124" y="9" width="1"/><rect x="129" y="10" width="1" height="1"/><rect height="1" x="128" y="11" width="1"/><rect width="1" height="1" x="121" y="12"/><rect x="127" y="12" width="1" height="1"/><rect width="1" height="1" x="126" y="13"/><rect x="119" y="14" width="1" height="1"/><rect x="125" y="14" width="1" height="1"/><rect x="116" y="17" width="1" height="1"/><rect width="1" height="1" x="117" y="17"/><rect width="1" height="1" x="122" y="19"/><rect x="117" y="23" width="1" height="1"/><rect x="119" y="23" width="1" height="1"/><rect height="1" x="120" y="24" width="1"/><rect x="126" y="25" width="1" height="1"/><rect x="121" y="26" width="1" height="1"/><rect y="27" width="1" height="1" x="122"/><rect x="128" y="28" width="1" height="1"/><rect width="1" height="1" x="123" y="29"/><rect x="129" y="29" width="1" height="1"/><rect x="125" y="31" width="1" height="1"/><rect x="130" y="31" width="1" height="1"/></g><g fill="#4a499d"><rect y="16" width="1" height="17" x="8"/><rect x="8" y="33" width="1" height="1"/></g><rect x="10" y="16" width="1" height="1" fill="#435caa"/><g fill="#3f6cb5"><rect x="13" y="17" width="1" height="1"/><rect x="19" y="36" width="1" height="1"/></g><g fill="#4361af"><rect height="1" x="17" y="20" width="1"/><rect width="1" height="1" x="22" y="23"/></g><g fill="#4167b2"><rect y="1" width="1" height="17" x="15"/><rect x="15" y="18" width="1" height="1"/></g><g fill="#4c3f99"><rect width="1" height="1" x="22" y="3"/><rect x="27" y="6" width="1" height="1"/><rect x="101" y="32" width="1" height="1"/></g><g fill="#3882c5"><rect y="6" width="1" height="7" x="7"/><rect x="7" y="13" width="1" height="1"/><rect height="5" x="26" y="26" width="1"/><rect height="1" x="26" y="31" width="1"/></g><rect fill="#4558a6" x="20" y="2" width="1" height="1"/><g fill="#3590d1"><rect x="123" y="9" width="1" height="1"/><rect x="127" y="13" width="1" height="1"/><rect y="28" width="1" height="1" x="129"/><rect x="116" y="32" width="1" height="1"/></g><rect height="1" fill="#476db5" x="2" y="11" width="1"/><g fill="#3f72b9"><rect x="9" y="15" width="1" height="1"/><rect x="21" y="35" width="1" height="1"/></g><rect width="1" height="1" fill="#3f68b2" x="14" y="18"/><g fill="#445caa"><rect x="14" y="19" width="1" height="17"/><rect x="14" y="36" width="1" height="1"/></g><g fill="#3c7cc1"><rect y="25" width="1" height="7" x="24"/><rect x="24" y="32" width="1" height="1"/></g><g fill="#4c7ea4"><rect x="14" width="1" height="1"/><rect y="1" width="1" height="1" x="19"/><rect x="9" y="3" width="1" height="1"/><rect x="24" y="4" width="1" height="1"/><rect height="1" x="4" y="6" width="1"/><rect x="29" y="7" width="1" height="1"/><rect x="120" y="12" width="1" height="1"/><rect width="1" height="1" x="123" y="18"/><rect x="53" y="26" width="1" height="1"/><rect x="130" y="29" width="1" height="1"/><rect x="123" y="30" width="1" height="1"/></g><g fill="#338cce"><rect y="5" width="1" height="1" x="6"/><rect height="1" x="1" y="8" width="1"/><rect height="1" x="122" y="10" width="1"/><rect width="1" height="1" x="128" y="12"/><rect y="22" width="1" height="1" x="125"/><rect x="134" y="32" width="1" height="1"/></g><g fill="#512c89"><rect y="8" width="1" height="1" x="63"/><rect x="107" y="8" width="1" height="1"/><rect width="1" height="1" x="107" y="12"/><rect x="55" y="19" width="1" height="1"/><rect height="1" x="56" y="20" width="1"/><rect x="55" y="28" width="1" height="1"/></g><g fill="#3391cf"><rect x="111" y="8" width="1" height="1"/><rect height="1" x="123" y="10" width="1"/><rect height="1" x="127" y="26" width="1"/></g><g fill="#4c4299"><rect x="6" y="15" width="1" height="17"/><rect x="6" y="32" width="1" height="1"/></g><rect x="28" y="31" width="1" height="1" fill="#3789c9"/><rect fill="#4d419a" x="6" y="33" width="1" height="1"/><rect fill="#4a479c" x="8" y="34" width="1" height="1"/><rect fill="#48499d" x="24" y="5" width="1" height="1"/><rect x="6" y="13" width="1" height="1" fill="#3b81c3"/><g fill="#445eab"><rect x="18" y="2" width="1" height="17"/><rect y="19" width="1" height="1" x="18"/><rect x="18" y="20" width="1" height="1"/></g><rect x="4" y="12" width="1" height="1" fill="#3f7cc0"/><g fill="#3f6db7"><rect x="13" y="3" width="1" height="13"/><rect x="13" y="16" width="1" height="1"/></g><rect x="3" y="7" width="1" height="1" fill="#378fcc"/><rect x="5" y="13" width="1" height="1" fill="#4956a5"/><g fill="#522e8a"><rect x="51" y="13" width="1" height="1"/><rect width="1" height="1" x="49" y="20"/></g><g fill="#3392cf"><rect x="124" y="16" width="1" height="1"/><rect width="1" height="1" x="125" y="23"/><rect height="1" x="130" y="30" width="1"/><rect x="112" y="32" width="3" height="1"/><rect y="32" width="1" height="1" x="115"/><rect height="1" x="126" y="32" width="4"/><rect y="32" width="1" height="1" x="130"/><rect x="135" y="32" width="4" height="1"/><rect x="139" y="32" width="1" height="1"/></g><rect fill="#4e3490" x="2" y="30" width="1" height="1"/><rect height="1" fill="#3b7bc1" x="24" y="33" width="1"/><rect x="24" y="34" width="1" height="1" fill="#387abc"/></svg>