<?xml version="1.0" encoding="utf-8"?>
<!-- Generator: Adobe Illustrator 25.2.2, SVG Export Plug-In . SVG Version: 6.00 Build 0)  -->
<svg version="1.1" id="Layer_1" xmlns="http://www.w3.org/2000/svg" xmlns:xlink="http://www.w3.org/1999/xlink" x="0px" y="0px"
	 viewBox="0 0 923.1 134.5" style="enable-background:new 0 0 923.1 134.5;" xml:space="preserve">
<style type="text/css">
	.st0{fill:#6486C2;}
</style>
<path class="st0" d="M140.1,1.1v27.8h42.2v103.9h29.9V28.9h42.2V1.1H140.1z M632.3,1.1H557v28h73.3c10.8,0,15,4.9,15,17.5v4.7h-60.8
	c-23.1,0-34.6,11.5-34.6,37.7v6.2c0,26.8,11.9,37.6,35.9,37.6h89.1V46.3C674.9,13.1,663.9,1.1,632.3,1.1 M588.9,104.7
	c-4.5,0-9.6-2.3-9.6-13.6c0-11.3,5-13.3,9.6-13.3h56.4v26.9L588.9,104.7z M880.6,1.1h-75.3v28h73.3c10.7,0,14.9,4.9,14.9,17.5v4.7
	h-60.7c-23.1,0-34.7,11.5-34.7,37.7v6.2c0,26.8,11.9,37.6,35.9,37.6h89.1V46.3C923.2,13.1,912.2,1.1,880.6,1.1 M837.2,104.7
	c-4.5,0-9.6-2.3-9.6-13.6c0-11.3,5-13.3,9.6-13.3h56.4v26.9L837.2,104.7z M263.9,1.1v27.8h42.2v103.9h30V28.9h42.2V1.1H263.9z
	 M680.9,1.1v27.8h42.2v103.9H753V28.9h42.2V1.1H680.9z M538.3,86.7V47.3c0-34.4-13.3-46.1-43.5-46.1h-80.1v131.6h81.5
	C528.2,132.8,538.3,116.9,538.3,86.7 M507.8,87.3c0,12.5-4.2,17.5-15,17.5h-48.2V29.2h48.2c10.7,0,15,4.9,15,17.6V87.3z M97.8,101.4
	c-0.6-1.2-40.5-79-45.5-86.7c-5.6-8.8-12.5-15-25.6-15C14.6-0.3,0.1,5.1,0.1,34.4v98.4h29.5V50.8c0-5.9-0.3-14.6-0.4-16.4
	c-0.1-1.5,0-2.8,0.7-3.2c0.8-0.5,1.6,0.3,2.3,1.4c0.6,1.1,37.6,74.4,45.5,86.8c5.6,8.9,12.5,15,25.6,15c12.2,0,26.6-5.4,26.6-34.7
	V1.1h-29.5v82.1c0,5.9,0.3,14.6,0.4,16.4c0,1.4,0,2.8-0.7,3.2C99.3,103.4,98.5,102.6,97.8,101.4"/>
</svg>
