<svg xmlns="http://www.w3.org/2000/svg" height="800" width="1200" viewBox="-74.99988 -18.2201 649.99896 109.3206"><path d="M75.821.7604v15.039h22.8742V72.083h16.1968V15.7993h22.8743V.7604zm266.631 0h-40.795v15.1612h39.6896c5.849 0 8.1145 2.6673 8.1145 9.462v2.5417h-32.9188c-12.5272 0-18.7438 6.247-18.7438 20.3979v3.3714c0 14.5427 6.4612 20.3885 19.451 20.3885h48.2579V25.2064c0-17.945-5.9407-24.446-23.0554-24.446m-23.518 56.076c-2.4528 0-5.206-1.2218-5.206-7.3524 0-6.1244 2.6889-7.1962 5.206-7.1962h30.5271v14.549zM476.943.7604h-40.7855v15.1612h39.7139c5.8152 0 8.0815 2.6673 8.0815 9.462v2.5417h-32.885c-12.528 0-18.769 6.247-18.769 20.3979v3.3714c0 14.5427 6.4612 20.3885 19.4423 20.3885h48.258V25.2064c0-17.945-5.9414-24.446-23.0562-24.446m-23.5179 56.076c-2.4521 0-5.2021-1.2218-5.2021-7.3524 0-6.1244 2.6943-7.1962 5.2021-7.1962h30.5278v14.549zM142.9104.7604v15.039h22.8743V72.083h16.236V15.7993h22.875V.7604zm225.8424 0v15.039h22.8743V72.083h16.196V15.7993h22.8751V.7604zM291.5279 47.1V25.7538c0-18.652-7.227-24.9604-23.579-24.9604h-43.3922v71.289h44.1518c17.3319 0 22.8194-8.6294 22.8194-24.9814m-16.5394.3367c0 6.7951-2.2961 9.462-8.1144 9.462h-26.0908V15.955h26.0908c5.8183 0 8.1144 2.6641 8.1144 9.5232zM52.9458 55.086c-.337-.6428-21.9563-42.8097-24.6232-46.9715C25.2661 3.3403 21.5581 0 14.4565 0 7.8393 0 0 2.9084 0 18.7986v53.3167h15.9545V27.6484c0-3.1816-.1807-7.931-.2144-8.8803-.0305-.7931 0-1.528.4012-1.7424.4226-.2817.885.15 1.2218.7319.3063.6185 20.361 40.2987 24.6476 47.002 3.0346 4.8139 6.7737 8.1208 13.8747 8.1208 6.6175 0 14.426-2.9397 14.426-18.805V.7589H54.3567v44.467c0 3.2122.1807 7.931.2419 8.8803 0 .7685 0 1.528-.398 1.7484-.4625.2757-.9187-.1561-1.2556-.7685" fill="#6485c1"/></svg>