<?xml version="1.0" encoding="utf-8"?>
<!-- Generator: Adobe Illustrator 23.0.2, SVG Export Plug-In . SVG Version: 6.00 Build 0)  -->
<svg version="1.1" id="Layer_1" xmlns="http://www.w3.org/2000/svg" xmlns:xlink="http://www.w3.org/1999/xlink" x="0px" y="0px"
	 viewBox="0 0 400 245" style="enable-background:new 0 0 400 245;" xml:space="preserve">
<style type="text/css">
	.st0{fill:#1E65F3;}
	.st1{fill:#121112;}
	.st2{fill:#7BB1DB;}
	.st3{fill:#958437;}
	.st4{fill:#739833;}
	.st5{fill:#C9D200;}
	.st6{fill:#F9B500;}
	.st7{fill:url(#SVGID_1_);}
	.st8{fill:url(#SVGID_2_);}
	.st9{fill:url(#SVGID_3_);}
	.st10{fill:url(#SVGID_4_);}
	.st11{fill:#808184;}
	.st12{clip-path:url(#SVGID_6_);fill-rule:evenodd;clip-rule:evenodd;}
	.st13{fill:none;}
	.st14{fill:#020202;}
	.st15{fill:#E7E015;}
	.st16{fill:#323644;}
	.st17{fill:#F26F21;}
	.st18{fill-rule:evenodd;clip-rule:evenodd;fill:#58595B;}
	.st19{fill:#58595B;}
	.st20{fill:url(#SVGID_7_);}
	.st21{fill:url(#SVGID_8_);}
	.st22{fill:url(#SVGID_9_);}
	.st23{fill:url(#SVGID_10_);}
	.st24{fill:url(#SVGID_11_);}
	.st25{fill:url(#SVGID_12_);}
	.st26{fill:url(#SVGID_13_);}
	.st27{fill:url(#SVGID_14_);}
	.st28{fill:url(#SVGID_15_);}
	.st29{fill:url(#SVGID_16_);}
	.st30{fill:url(#SVGID_17_);}
	.st31{fill:url(#SVGID_18_);}
	.st32{fill:#670000;}
	.st33{fill-rule:evenodd;clip-rule:evenodd;fill:#F8A03A;}
	.st34{fill-rule:evenodd;clip-rule:evenodd;fill:#FFFFFF;}
	.st35{fill:#919195;}
	.st36{fill:#EE3124;}
	.st37{fill:#455560;}
	.st38{fill-rule:evenodd;clip-rule:evenodd;fill:#D0D2D3;}
	.st39{fill-rule:evenodd;clip-rule:evenodd;fill:#EF3E42;}
	.st40{fill-rule:evenodd;clip-rule:evenodd;fill:#231F20;}
	.st41{fill-rule:evenodd;clip-rule:evenodd;fill:#231F20;stroke:#231F20;stroke-width:0.2642;stroke-miterlimit:10;}
	.st42{fill:#1F88A0;}
	.st43{fill:#231F20;}
	.st44{fill:#009DDC;}
	.st45{fill:#1D3586;}
	.st46{fill:#211D70;}
	.st47{fill:#72C5E7;}
	.st48{fill:#F48C45;}
	.st49{fill:#238BC2;}
	.st50{fill:#EC6025;}
	.st51{fill:#1090D3;}
	.st52{fill:#F48C46;}
	.st53{fill:#F18041;}
	.st54{fill:#6DB9E4;}
	.st55{fill:#6BB3E1;}
	.st56{fill:#76BDE6;}
	.st57{fill:#A6CEEE;}
	.st58{fill:#F49357;}
	.st59{fill:#77BBE3;}
	.st60{fill:#85C1E7;}
	.st61{fill:#F17C3E;}
	.st62{fill:#88C3EA;}
	.st63{fill:#9DC4EB;}
	.st64{fill:#F9BD95;}
	.st65{fill:#F6985C;}
	.st66{fill:#FAB182;}
	.st67{fill:#F49056;}
	.st68{fill:#6EBCE5;}
	.st69{fill:#F69E67;}
	.st70{fill:#ACD1EF;}
	.st71{fill:#F8B07F;}
	.st72{fill:#8DC7EC;}
	.st73{fill:#F9C29D;}
	.st74{fill:#B7DBF3;}
	.st75{fill:#F3955D;}
	.st76{fill:#FFFFFF;}
	.st77{fill:#B7274C;}
	.st78{fill:#00ABE8;}
	.st79{fill:#008CCC;}
	.st80{fill:#007BB6;}
	.st81{fill:#68CEF2;}
	.st82{fill:#595959;}
	.st83{fill:#8EC341;}
</style>
<g>
	<g id="wordmark">
		<g id="Vector">
			<g transform="translate(3901 -2624.64)">
				<path id="path0_fill" class="st0" d="M62.74,187.36h6.71l19.21,29.85c0.67,1.05,1.28,2.13,1.83,3.24v-33.09h6.37v42.82h-6.73
					l-19.15-29.85c-0.67-1.05-1.28-2.13-1.83-3.24v33.09h-6.4V187.36z"/>
			</g>
		</g>
		<g id="Vector_1_">
			<g transform="translate(4016.34 -2590.23)">
				<path id="path1_fill" class="st0" d="M104.57,199.84h6.24v18.23c0,4.71,2.44,7.22,6.73,7.22c4.47,0,7.95-3.82,7.95-9.05v-16.39
					h6.24v30.34h-6.24v-4.9c-0.94,1.78-2.36,3.27-4.1,4.28c-1.74,1.02-3.73,1.52-5.75,1.46c-5.94,0-11.08-3.67-11.08-11.68V199.84z"
					/>
			</g>
		</g>
		<g id="Vector_2_">
			<g transform="translate(4107.25 -2627)">
				<path id="path2_fill" class="st1" d="M177.48,219.78c-4.47,7.27-9.48,11.25-18.72,11.25c-12.18,0-21.23-9.16-21.23-22.26
					c0-13.1,9.66-22.26,21.53-22.26c8.75,0,15.35,4.58,18.32,11.07l-5.26,3.82c-3.05-5.93-7.28-8.87-13.15-8.87
					c-8.08,0-14.69,6.87-14.69,16.27c0,9.3,6.18,16.27,14.63,16.27c5.75,0,10.28-2.76,13.52-8.87L177.48,219.78z"/>
			</g>
		</g>
		<g id="Vector_3_">
			<g transform="translate(4224.29 -2590.25)">
				<path id="path3_fill" class="st1" d="M184.51,236.73c0.87,0.38,1.81,0.59,2.76,0.61c1.59,0,2.56-0.49,3.67-3.24l1.4-3.73
					l-12.36-30.53h7.16l8.57,21.9l8.5-21.9h6.87l-14.68,36.46c-1.95,4.95-4.83,6.79-8.5,6.79c-1.49,0-2.98-0.23-4.4-0.67
					L184.51,236.73z"/>
			</g>
		</g>
		<g id="Vector_4_">
			<g transform="translate(4322.33 -2592.59)">
				<path id="path4_fill" class="st1" d="M215.53,199.84h6.24v4.65c1.9-3,6.06-5.5,10.77-5.5c7.58,0,14.01,5.99,14.01,16.03
					c0,9.85-6.43,16.03-14.56,16.03c-4.35,0-8.27-1.95-10.22-5.01v16.64h-6.24V199.84z M221.36,215.01c0,6.11,4.22,10.27,9.42,10.27
					c5.2,0,9.42-4.16,9.42-10.27s-4.22-10.28-9.42-10.28C225.59,204.73,221.36,208.89,221.36,215.01z"/>
			</g>
		</g>
		<g id="Vector_5_">
			<g transform="translate(4423.35 -2624.68)">
				<path id="path5_fill" class="st1" d="M279.69,230.18h-6.24v-18.59c0-4.34-2.57-6.87-6.73-6.87c-4.47,0-8.32,3.67-8.32,9.42
					v16.03h-6.24v-42.82h6.24v17.55c1.11-1.8,2.66-3.28,4.5-4.32c1.84-1.04,3.91-1.59,6.03-1.61c5.93,0,10.76,3.73,10.76,10.69
					V230.18z"/>
			</g>
		</g>
		<g id="Vector_6_">
			<g transform="translate(4512.54 -2592.61)">
				<path id="path6_fill" class="st1" d="M290.72,216.36c0.24,5.38,3.86,9.24,9.24,9.24c4.95,0,7.28-2.69,9.05-6.3l4.83,2.88
					c-2.81,5.81-7.22,8.87-14.07,8.87c-8.32,0-15.27-6.54-15.27-16.03s6.98-16.03,15.6-16.03c8.81,0,14.69,6.3,14.69,15.17v2.21
					L290.72,216.36z M290.72,211.59h18.11c-0.49-4.95-4.65-7.59-8.87-7.59C295.41,204,291.88,207.18,290.72,211.59z"/>
			</g>
		</g>
		<g id="Vector_7_">
			<g transform="translate(4610.36 -2592.59)">
				<path id="path7_fill" class="st1" d="M336.19,205.22c-0.77-0.25-1.57-0.37-2.38-0.37c-4.4,0-7.59,3.98-7.59,9.36v15.97h-6.24
					v-30.34h6.24v5.14c1.65-3.55,4.58-5.99,8.75-5.99c0.77,0.01,1.54,0.11,2.29,0.31L336.19,205.22z"/>
			</g>
		</g>
	</g>
	<g id="coinmark">
		<g id="Vector_8_">
			<g transform="translate(3964 -3136)">
				<path id="path8_fill" class="st0" d="M246.15,1.99l-17.5,8.3c-0.09,0.04-0.17,0.1-0.24,0.17c-0.07,0.07-0.12,0.16-0.15,0.25
					c-0.03,0.09-0.05,0.19-0.04,0.29c0.01,0.1,0.03,0.19,0.07,0.28l26.62,56.11c9.89,20.87,7.24,36.71-7.8,43.87
					c-12.17,5.78-22.68,1.75-30.87-12.33l-31.52-66.44C171.94,5.57,154.53-1.57,133.88,8.23c-13.43,6.37-21.23,17.77-21.07,32.22
					c0,0.17-0.05,0.34-0.16,0.47c-0.1,0.13-0.25,0.23-0.42,0.27c-0.17,0.04-0.34,0.02-0.5-0.05c-0.15-0.07-0.28-0.2-0.35-0.35
					l-6.88-14.5c-0.04-0.09-0.1-0.17-0.17-0.23c-0.07-0.07-0.16-0.12-0.25-0.15c-0.09-0.03-0.19-0.05-0.29-0.04
					c-0.1,0.01-0.19,0.03-0.28,0.07l-17.5,8.28c-0.18,0.08-0.31,0.23-0.38,0.42c-0.07,0.18-0.06,0.39,0.02,0.56l48.34,101.92
					c0.09,0.18,0.24,0.32,0.43,0.38c0.19,0.07,0.39,0.06,0.57-0.03l17.5-8.3c0.09-0.04,0.17-0.1,0.24-0.17
					c0.07-0.07,0.12-0.16,0.15-0.25c0.03-0.09,0.05-0.19,0.04-0.29c0-0.1-0.03-0.19-0.07-0.28l-25.88-54.54
					c-10.54-22.23-8.54-38.3,7.62-45.96c12.4-5.88,22.04-1.93,30.7,13.15c0.01,0.02,0.02,0.04,0.03,0.06l31.21,65.8
					c12.04,25.37,30.74,34.09,50.5,24.72c15.27-7.24,21.6-18.14,21.23-32.48c0-0.17,0.05-0.34,0.16-0.47
					c0.1-0.14,0.25-0.23,0.42-0.27c0.17-0.04,0.34-0.02,0.5,0.05c0.15,0.07,0.28,0.2,0.35,0.35l6.95,14.65
					c0.04,0.09,0.1,0.17,0.17,0.24c0.07,0.07,0.16,0.12,0.25,0.15c0.09,0.03,0.19,0.05,0.29,0.04c0.1-0.01,0.19-0.03,0.28-0.07
					l17.5-8.3c0.09-0.04,0.17-0.1,0.23-0.17c0.07-0.07,0.12-0.16,0.15-0.25c0.03-0.09,0.05-0.19,0.04-0.29
					c-0.01-0.1-0.03-0.19-0.07-0.28L247.14,2.35c-0.09-0.18-0.24-0.32-0.43-0.38C246.53,1.9,246.33,1.91,246.15,1.99z"/>
			</g>
		</g>
	</g>
</g>
</svg>
