<?xml version="1.0" encoding="utf-8"?>
<!-- Generator: Adobe Illustrator 23.0.2, SVG Export Plug-In . SVG Version: 6.00 Build 0)  -->
<svg version="1.1" id="Layer_1" xmlns="http://www.w3.org/2000/svg" xmlns:xlink="http://www.w3.org/1999/xlink" x="0px" y="0px"
	 viewBox="0 0 400 245" style="enable-background:new 0 0 400 245;" xml:space="preserve">
<style type="text/css">
	.st0{fill:#1E65F3;}
	.st1{fill:#121112;}
	.st2{fill:#7BB1DB;}
	.st3{fill:#958437;}
	.st4{fill:#739833;}
	.st5{fill:#C9D200;}
	.st6{fill:#F9B500;}
	.st7{fill:url(#SVGID_1_);}
	.st8{fill:url(#SVGID_2_);}
	.st9{fill:url(#SVGID_3_);}
	.st10{fill:url(#SVGID_4_);}
	.st11{fill:#808184;}
	.st12{clip-path:url(#SVGID_6_);fill-rule:evenodd;clip-rule:evenodd;}
	.st13{fill:none;}
	.st14{fill:#020202;}
	.st15{fill:#E7E015;}
	.st16{fill:#323644;}
	.st17{fill:#F26F21;}
	.st18{fill-rule:evenodd;clip-rule:evenodd;fill:#58595B;}
	.st19{fill:#58595B;}
	.st20{fill:url(#SVGID_7_);}
	.st21{fill:url(#SVGID_8_);}
	.st22{fill:url(#SVGID_9_);}
	.st23{fill:url(#SVGID_10_);}
	.st24{fill:url(#SVGID_11_);}
	.st25{fill:url(#SVGID_12_);}
	.st26{fill:url(#SVGID_13_);}
	.st27{fill:url(#SVGID_14_);}
	.st28{fill:url(#SVGID_15_);}
	.st29{fill:url(#SVGID_16_);}
	.st30{fill:url(#SVGID_17_);}
	.st31{fill:url(#SVGID_18_);}
	.st32{fill:#670000;}
	.st33{fill-rule:evenodd;clip-rule:evenodd;fill:#F8A03A;}
	.st34{fill-rule:evenodd;clip-rule:evenodd;fill:#FFFFFF;}
	.st35{fill:#919195;}
	.st36{fill:#EE3124;}
	.st37{fill:#455560;}
	.st38{fill-rule:evenodd;clip-rule:evenodd;fill:#D0D2D3;}
	.st39{fill-rule:evenodd;clip-rule:evenodd;fill:#EF3E42;}
	.st40{fill-rule:evenodd;clip-rule:evenodd;fill:#231F20;}
	.st41{fill-rule:evenodd;clip-rule:evenodd;fill:#231F20;stroke:#231F20;stroke-width:0.2642;stroke-miterlimit:10;}
	.st42{fill:#1F88A0;}
	.st43{fill:#231F20;}
	.st44{fill:#009DDC;}
	.st45{fill:#1D3586;}
	.st46{fill:#211D70;}
	.st47{fill:#72C5E7;}
	.st48{fill:#F48C45;}
	.st49{fill:#238BC2;}
	.st50{fill:#EC6025;}
	.st51{fill:#1090D3;}
	.st52{fill:#F48C46;}
	.st53{fill:#F18041;}
	.st54{fill:#6DB9E4;}
	.st55{fill:#6BB3E1;}
	.st56{fill:#76BDE6;}
	.st57{fill:#A6CEEE;}
	.st58{fill:#F49357;}
	.st59{fill:#77BBE3;}
	.st60{fill:#85C1E7;}
	.st61{fill:#F17C3E;}
	.st62{fill:#88C3EA;}
	.st63{fill:#9DC4EB;}
	.st64{fill:#F9BD95;}
	.st65{fill:#F6985C;}
	.st66{fill:#FAB182;}
	.st67{fill:#F49056;}
	.st68{fill:#6EBCE5;}
	.st69{fill:#F69E67;}
	.st70{fill:#ACD1EF;}
	.st71{fill:#F8B07F;}
	.st72{fill:#8DC7EC;}
	.st73{fill:#F9C29D;}
	.st74{fill:#B7DBF3;}
	.st75{fill:#F3955D;}
	.st76{fill:#FFFFFF;}
	.st77{fill:#B7274C;}
	.st78{fill:#00ABE8;}
	.st79{fill:#008CCC;}
	.st80{fill:#007BB6;}
	.st81{fill:#68CEF2;}
	.st82{fill:#595959;}
	.st83{fill:#8EC341;}
</style>
<g>
	<g>
		<defs>
			<rect id="SVGID_5_" x="1.8" y="79.94" width="396.41" height="85.15"/>
		</defs>
		<clipPath id="SVGID_1_">
			<use xlink:href="#SVGID_5_"  style="overflow:visible;"/>
		</clipPath>
		<polygon style="clip-path:url(#SVGID_1_);fill-rule:evenodd;clip-rule:evenodd;" points="398.2,134.37 371.4,134.37 371.4,108.52 
			397.95,108.52 397.95,112.93 377.43,112.93 377.43,118.69 389.4,118.69 389.4,123.1 377.43,123.1 377.43,129.51 398.2,129.51 		
			"/>
		<polygon style="clip-path:url(#SVGID_1_);fill-rule:evenodd;clip-rule:evenodd;" points="364,113.13 352.03,113.13 352.03,134.37 
			346,134.37 346,113.13 334.08,113.13 334.08,108.52 364,108.52 		"/>
		<path style="clip-path:url(#SVGID_1_);fill-rule:evenodd;clip-rule:evenodd;" d="M319.36,108.52h-5.83l-14.69,25.85h6.04
			l3.02-5.66h16.45l3.12,5.66h6.79L319.36,108.52z M310.46,124.05l5.78-10.52l5.58,10.52H310.46z"/>
		<path style="clip-path:url(#SVGID_1_);fill-rule:evenodd;clip-rule:evenodd;" d="M291.05,128.26c0,2.4-0.46,4.02-1.38,4.86
			c-0.92,0.84-2.61,1.25-5.05,1.25h-17.9c-2.45,0-4.13-0.42-5.05-1.25c-0.92-0.83-1.38-2.45-1.38-4.86v-13.62
			c0-2.4,0.46-4.02,1.38-4.86c0.92-0.84,2.61-1.25,5.05-1.25h17.9c2.58,0,4.3,0.44,5.15,1.33c0.86,0.89,1.28,2.6,1.28,5.13
			l-5.88,1.05v-2.91H266.3v16.38h18.86v-5.76h-9.86v-4.41h15.74V128.26z"/>
		
			<rect x="241.51" y="108.52" style="clip-path:url(#SVGID_1_);fill-rule:evenodd;clip-rule:evenodd;" width="6.04" height="25.85"/>
		<path style="clip-path:url(#SVGID_1_);fill-rule:evenodd;clip-rule:evenodd;" d="M228.28,134.37h-4.12l-19.06-15.98
			c-0.8-0.67-1.53-1.37-2.16-2.1c0.17,1.67,0.25,2.99,0.25,3.96v14.13h-5.43v-25.85h4.12l18.26,15.23c1.31,1.1,2.3,2.04,2.97,2.8
			c-0.17-2.4-0.25-3.89-0.25-4.46v-13.57h5.43V134.37z"/>
		<path style="clip-path:url(#SVGID_1_);fill-rule:evenodd;clip-rule:evenodd;" d="M185.08,134.37h-5.58v-16.08
			c0-0.57,0.07-1.45,0.2-2.65c-0.3,0.63-0.8,1.54-1.51,2.7l-9.76,12.92h-1.21l-9.76-12.97c-0.7-0.93-1.22-1.82-1.56-2.65
			c0.1,1.04,0.15,1.89,0.15,2.55v16.18h-4.88v-25.85h4.88l12.22,15.63l11.97-15.63h4.83V134.37z"/>
		<path style="clip-path:url(#SVGID_1_);fill-rule:evenodd;clip-rule:evenodd;" d="M137.13,109.78c-0.92-0.84-2.61-1.25-5.05-1.25
			h-19.11c-2.45,0-4.13,0.42-5.05,1.25c-0.92,0.83-1.38,2.45-1.38,4.86v13.62c0,2.4,0.46,4.02,1.38,4.86
			c0.92,0.84,2.61,1.25,5.05,1.25h19.11c2.45,0,4.13-0.42,5.05-1.25c0.92-0.83,1.38-2.45,1.38-4.86v-13.62
			C138.51,112.23,138.05,110.61,137.13,109.78 M132.48,129.51h-19.92v-16.38h19.92V129.51z"/>
	</g>
	<path class="st13" d="M85.59,122.69c0.02,0.18,0.04,0.36,0.06,0.53C85.63,123.04,85.61,122.87,85.59,122.69z"/>
	<path class="st13" d="M85.68,123.56c0.02,0.19,0.03,0.38,0.05,0.57C85.71,123.94,85.7,123.75,85.68,123.56z"/>
	<path class="st13" d="M85.85,126.46c0.01,0.2,0.01,0.41,0.01,0.61C85.86,126.87,85.86,126.66,85.85,126.46z"/>
	<path class="st13" d="M85.85,128.83c0.01-0.17,0.01-0.35,0.01-0.52C85.86,128.49,85.85,128.66,85.85,128.83z"/>
	<path class="st13" d="M85.87,127.78c0-0.12,0-0.25,0-0.38c0,0.18,0,0.36,0,0.54C85.87,127.89,85.87,127.83,85.87,127.78z"/>
	<path class="st13" d="M85.79,130.1c-0.01,0.18-0.02,0.37-0.04,0.55C85.76,130.46,85.77,130.28,85.79,130.1z"/>
	<path class="st13" d="M85.4,121.22c-0.01-0.1-0.03-0.19-0.05-0.29c0.03,0.17,0.05,0.34,0.08,0.51
		C85.42,121.37,85.41,121.3,85.4,121.22z"/>
	<path class="st13" d="M85.03,119.13c0.04,0.2,0.08,0.39,0.11,0.59C85.11,119.52,85.07,119.33,85.03,119.13z"/>
	<path class="st13" d="M85.2,120.05c0.03,0.18,0.06,0.36,0.09,0.54C85.27,120.4,85.23,120.23,85.2,120.05z"/>
	<path class="st13" d="M85.48,121.81c0.02,0.17,0.05,0.35,0.07,0.52C85.52,122.16,85.5,121.98,85.48,121.81z"/>
	<path class="st13" d="M84.98,118.85c-0.06-0.29-0.12-0.58-0.19-0.86C84.86,118.28,84.92,118.57,84.98,118.85z"/>
	<path class="st13" d="M85.8,125.2c-0.01-0.24-0.03-0.47-0.04-0.71c0-0.02,0-0.03,0-0.05C85.77,124.69,85.79,124.94,85.8,125.2z"/>
	<path class="st13" d="M85.81,129.74c0.01-0.18,0.02-0.36,0.03-0.54C85.83,129.38,85.82,129.56,85.81,129.74z"/>
	<path class="st13" d="M85.85,126.19c-0.01-0.29-0.02-0.59-0.04-0.88C85.83,125.6,85.84,125.9,85.85,126.19z"/>
	<path d="M66.41,97.61c0.62,0.58,1.22,1.18,1.8,1.8c0.58,0.62,1.14,1.26,1.67,1.92c0.54,0.66,1.05,1.34,1.54,2.04l5.53-2.76
		c-0.69-0.97-1.42-1.91-2.17-2.83c-0.75-0.91-1.54-1.8-2.35-2.65c-0.81-0.86-1.66-1.68-2.53-2.48c-0.87-0.8-1.77-1.57-2.7-2.31
		l-2.72,5.6C65.15,96.47,65.79,97.03,66.41,97.61z"/>
	<path d="M62.4,94.38l2.88-5.5c-0.96-0.69-1.94-1.35-2.95-1.97c-1.02-0.63-2.07-1.22-3.14-1.78c-1.09-0.56-2.2-1.09-3.34-1.58
		c-1.16-0.49-2.35-0.94-3.57-1.35l0.77,7.67c0.86,0.26,1.7,0.55,2.53,0.87c0.82,0.32,1.62,0.67,2.4,1.05
		c0.78,0.38,1.53,0.78,2.27,1.22C60.99,93.44,61.7,93.9,62.4,94.38z"/>
	<path d="M73.99,107.69c0.36,0.73,0.7,1.47,1.01,2.23c0.31,0.77,0.6,1.55,0.86,2.35c0.26,0.81,0.49,1.63,0.69,2.47l7.62,0.78
		c-0.34-1.2-0.73-2.38-1.15-3.52c-0.42-1.13-0.88-2.24-1.37-3.31c-0.49-1.07-1.01-2.11-1.57-3.13c-0.55-1.01-1.14-1.99-1.76-2.95
		l-5.48,2.96C73.24,106.26,73.63,106.97,73.99,107.69z"/>
	<path d="M42.57,88.69c0.87-0.07,1.75-0.09,2.63-0.08c0.88,0.02,1.76,0.08,2.65,0.18c0.88,0.1,1.77,0.25,2.66,0.43l-0.63-7.75
		c-1.27-0.35-2.54-0.64-3.81-0.87c-1.29-0.24-2.58-0.41-3.86-0.53c-1.31-0.12-2.61-0.18-3.91-0.17c-1.33,0-2.64,0.07-3.95,0.21
		l5.62,8.92C40.82,88.87,41.69,88.76,42.57,88.69z"/>
	<path class="st14" d="M85.85,128.83c0,0.12-0.01,0.24-0.01,0.37c0-0.06,0.01-0.12,0.01-0.19
		C85.84,128.95,85.84,128.89,85.85,128.83z"/>
	<path class="st14" d="M85.75,130.65c-0.01,0.11-0.02,0.23-0.03,0.34C85.73,130.87,85.74,130.76,85.75,130.65z"/>
	<path class="st14" d="M85.81,129.74c-0.01,0.12-0.01,0.24-0.02,0.36C85.79,129.98,85.8,129.86,85.81,129.74z"/>
	<path class="st14" d="M85.14,119.72c0.02,0.11,0.04,0.22,0.06,0.33C85.18,119.94,85.17,119.83,85.14,119.72z"/>
	<path class="st14" d="M85.85,126.46c0-0.09,0-0.18-0.01-0.27C85.85,126.28,85.85,126.37,85.85,126.46z"/>
	<path class="st14" d="M85.03,119.13c-0.02-0.09-0.04-0.18-0.05-0.28C85,118.95,85.01,119.04,85.03,119.13z"/>
	<path class="st14" d="M85.87,127.07c0,0.11,0,0.22,0,0.33C85.87,127.29,85.87,127.18,85.87,127.07z"/>
	<path d="M85.85,128.83c0.01-0.17,0.01-0.35,0.01-0.52c0-0.12,0-0.25,0.01-0.37c0-0.18,0-0.36,0-0.54c0-0.11,0-0.22,0-0.33
		c0-0.2-0.01-0.41-0.01-0.61c0-0.09,0-0.18-0.01-0.27c-0.01-0.29-0.02-0.59-0.04-0.88c0-0.04,0-0.07-0.01-0.11
		c-0.01-0.25-0.03-0.51-0.05-0.76c-0.01-0.1-0.02-0.2-0.02-0.3c-0.02-0.19-0.03-0.38-0.05-0.57c-0.01-0.11-0.02-0.23-0.03-0.34
		c-0.02-0.18-0.04-0.36-0.06-0.53c-0.01-0.12-0.03-0.24-0.04-0.36c-0.02-0.17-0.04-0.35-0.07-0.52c-0.02-0.12-0.03-0.24-0.05-0.37
		c-0.02-0.17-0.05-0.34-0.08-0.51c-0.02-0.12-0.04-0.23-0.06-0.35c-0.03-0.18-0.06-0.36-0.09-0.54c-0.02-0.11-0.04-0.22-0.06-0.33
		c-0.04-0.2-0.07-0.39-0.11-0.59c-0.02-0.09-0.04-0.18-0.05-0.28c-0.06-0.29-0.12-0.58-0.19-0.86l-7.75-0.66
		c0.12,0.82,0.2,1.64,0.25,2.45c0.05,0.82,0.06,1.64,0.04,2.44c-0.02,0.82-0.08,1.62-0.18,2.42c-0.1,0.81-0.23,1.61-0.4,2.39
		l8.78,5.72c0.08-0.59,0.14-1.18,0.19-1.77c0.01-0.11,0.02-0.23,0.03-0.34c0.01-0.18,0.03-0.37,0.04-0.55
		c0.01-0.12,0.01-0.24,0.02-0.36c0.01-0.18,0.02-0.36,0.03-0.54C85.84,129.08,85.84,128.96,85.85,128.83z"/>
	<path class="st14" d="M85.81,125.31C85.81,125.31,85.81,125.3,85.81,125.31c0-0.04,0-0.08-0.01-0.11
		C85.81,125.23,85.81,125.27,85.81,125.31z"/>
	<path class="st14" d="M85.75,124.44c-0.01-0.1-0.02-0.2-0.02-0.3C85.74,124.24,85.75,124.34,85.75,124.44z"/>
	<path class="st14" d="M85.65,123.22c0.01,0.11,0.02,0.23,0.03,0.34C85.67,123.45,85.66,123.33,85.65,123.22z"/>
	<path class="st14" d="M85.86,128.32c0-0.12,0-0.25,0.01-0.37C85.86,128.07,85.86,128.19,85.86,128.32z"/>
	<path class="st14" d="M85.55,122.33c0.01,0.12,0.03,0.24,0.04,0.36C85.58,122.57,85.56,122.45,85.55,122.33z"/>
	<path class="st14" d="M85.3,120.58c0.02,0.12,0.04,0.23,0.06,0.35C85.33,120.82,85.31,120.7,85.3,120.58z"/>
	<path class="st14" d="M85.46,121.63c-0.01-0.06-0.02-0.12-0.03-0.18c0.02,0.12,0.03,0.24,0.05,0.37
		C85.47,121.75,85.46,121.69,85.46,121.63z"/>
	<path d="M75.12,131.91c-0.34,0.75-0.72,1.48-1.15,2.18c-0.43,0.72-0.9,1.41-1.4,2.08c-0.52,0.68-1.07,1.33-1.67,1.95l7.61,12.08
		c0.86-1.14,1.64-2.33,2.35-3.55c0.69-1.19,1.31-2.42,1.85-3.67c0.53-1.22,0.99-2.47,1.39-3.74c0.39-1.24,0.71-2.5,0.97-3.77
		l-9.06-5.81C75.76,130.42,75.46,131.18,75.12,131.91z"/>
	<path d="M30.05,93.36c0.74-0.56,1.51-1.08,2.31-1.54c0.79-0.46,1.6-0.87,2.44-1.23c0.82-0.35,1.66-0.66,2.53-0.92l-5.71-9.18
		c-1.37,0.24-2.72,0.55-4.05,0.93c-1.37,0.4-2.71,0.87-4.03,1.42c-1.35,0.57-2.67,1.22-3.96,1.95c-1.32,0.76-2.6,1.6-3.82,2.54
		l12.13,7.9C28.58,94.56,29.3,93.93,30.05,93.36z"/>
	<path d="M66.57,141.61c-0.76,0.47-1.56,0.89-2.4,1.28c-0.85,0.39-1.74,0.73-2.66,1.02c-0.94,0.3-1.91,0.54-2.92,0.72l1.82,18.05
		c1.72-0.51,3.36-1.13,4.92-1.85c1.52-0.7,2.95-1.49,4.31-2.36c1.32-0.85,2.56-1.77,3.72-2.76c1.13-0.96,2.18-1.99,3.16-3.06
		l-7.79-12.53C68.03,140.65,67.32,141.15,66.57,141.61z"/>
	<path d="M35,138.5c-1.02-0.76-2-1.58-2.94-2.46c-0.94-0.87-1.83-1.79-2.67-2.76c-0.84-0.97-1.62-1.98-2.35-3.02l-18.51,9.99
		c1.19,1.98,2.52,3.88,3.97,5.68c1.46,1.81,3.05,3.52,4.74,5.12c1.69,1.6,3.49,3.07,5.38,4.41c1.88,1.34,3.83,2.54,5.86,3.59
		l9.68-18.46C37.08,139.97,36.02,139.26,35,138.5z"/>
	<path d="M21.99,105.6c0.27-1.05,0.61-2.05,1.01-3.02c0.39-0.95,0.83-1.85,1.32-2.7c0.48-0.84,1.02-1.64,1.59-2.39l-12.61-8.1
		c-1.14,1.05-2.22,2.18-3.23,3.41c-1.04,1.26-2,2.61-2.88,4.05c-0.9,1.48-1.71,3.06-2.41,4.73c-0.72,1.72-1.33,3.53-1.81,5.44
		l18.38,1.9C21.5,107.77,21.71,106.66,21.99,105.6z"/>
	<path d="M51.79,144.99c-1.11-0.08-2.21-0.23-3.32-0.44c-1.11-0.21-2.22-0.49-3.32-0.83c-1.1-0.34-2.2-0.75-3.27-1.21l-9.01,18.57
		c1.97,0.79,3.98,1.43,6.01,1.93c2,0.49,4.02,0.85,6.04,1.05c1.98,0.2,3.97,0.26,5.94,0.18c1.93-0.08,3.83-0.3,5.71-0.65
		l-1.52-18.57C53.98,145.08,52.89,145.07,51.79,144.99z"/>
	<path d="M23.26,123.19c-0.45-1.16-0.83-2.33-1.14-3.52c-0.31-1.18-0.54-2.36-0.7-3.55c-0.16-1.18-0.25-2.36-0.26-3.53L2.2,110.98
		c-0.29,2-0.42,4.04-0.41,6.08c0.02,2.09,0.19,4.19,0.52,6.28c0.33,2.13,0.83,4.25,1.47,6.34c0.65,2.12,1.46,4.2,2.42,6.23
		l18.62-9.29C24.24,125.5,23.72,124.36,23.26,123.19z"/>
</g>
</svg>
