<?xml version="1.0" encoding="utf-8"?>
<!-- Generator: Adobe Illustrator 23.0.2, SVG Export Plug-In . SVG Version: 6.00 Build 0)  -->
<svg version="1.1" id="Layer_1" xmlns="http://www.w3.org/2000/svg" xmlns:xlink="http://www.w3.org/1999/xlink" x="0px" y="0px"
	 viewBox="0 0 400 245" style="enable-background:new 0 0 400 245;" xml:space="preserve">
<style type="text/css">
	.st0{fill:#1E65F3;}
	.st1{fill:#121112;}
	.st2{fill:#7BB1DB;}
	.st3{fill:#958437;}
	.st4{fill:#739833;}
	.st5{fill:#C9D200;}
	.st6{fill:#F9B500;}
	.st7{fill:url(#SVGID_1_);}
	.st8{fill:url(#SVGID_2_);}
	.st9{fill:url(#SVGID_3_);}
	.st10{fill:url(#SVGID_4_);}
	.st11{fill:#808184;}
	.st12{clip-path:url(#SVGID_6_);fill-rule:evenodd;clip-rule:evenodd;}
	.st13{fill:none;}
	.st14{fill:#020202;}
	.st15{fill:#E7E015;}
	.st16{fill:#323644;}
	.st17{fill:#F26F21;}
	.st18{fill-rule:evenodd;clip-rule:evenodd;fill:#58595B;}
	.st19{fill:#58595B;}
	.st20{fill:url(#SVGID_7_);}
	.st21{fill:url(#SVGID_8_);}
	.st22{fill:url(#SVGID_9_);}
	.st23{fill:url(#SVGID_10_);}
	.st24{fill:url(#SVGID_11_);}
	.st25{fill:url(#SVGID_12_);}
	.st26{fill:url(#SVGID_13_);}
	.st27{fill:url(#SVGID_14_);}
	.st28{fill:url(#SVGID_15_);}
	.st29{fill:url(#SVGID_16_);}
	.st30{fill:url(#SVGID_17_);}
	.st31{fill:url(#SVGID_18_);}
	.st32{fill:#670000;}
	.st33{fill-rule:evenodd;clip-rule:evenodd;fill:#F8A03A;}
	.st34{fill-rule:evenodd;clip-rule:evenodd;fill:#FFFFFF;}
	.st35{fill:#919195;}
	.st36{fill:#EE3124;}
	.st37{fill:#455560;}
	.st38{fill-rule:evenodd;clip-rule:evenodd;fill:#D0D2D3;}
	.st39{fill-rule:evenodd;clip-rule:evenodd;fill:#EF3E42;}
	.st40{fill-rule:evenodd;clip-rule:evenodd;fill:#231F20;}
	.st41{fill-rule:evenodd;clip-rule:evenodd;fill:#231F20;stroke:#231F20;stroke-width:0.2642;stroke-miterlimit:10;}
	.st42{fill:#1F88A0;}
	.st43{fill:#231F20;}
	.st44{fill:#009DDC;}
	.st45{fill:#1D3586;}
	.st46{fill:#211D70;}
	.st47{fill:#72C5E7;}
	.st48{fill:#F48C45;}
	.st49{fill:#238BC2;}
	.st50{fill:#EC6025;}
	.st51{fill:#1090D3;}
	.st52{fill:#F48C46;}
	.st53{fill:#F18041;}
	.st54{fill:#6DB9E4;}
	.st55{fill:#6BB3E1;}
	.st56{fill:#76BDE6;}
	.st57{fill:#A6CEEE;}
	.st58{fill:#F49357;}
	.st59{fill:#77BBE3;}
	.st60{fill:#85C1E7;}
	.st61{fill:#F17C3E;}
	.st62{fill:#88C3EA;}
	.st63{fill:#9DC4EB;}
	.st64{fill:#F9BD95;}
	.st65{fill:#F6985C;}
	.st66{fill:#FAB182;}
	.st67{fill:#F49056;}
	.st68{fill:#6EBCE5;}
	.st69{fill:#F69E67;}
	.st70{fill:#ACD1EF;}
	.st71{fill:#F8B07F;}
	.st72{fill:#8DC7EC;}
	.st73{fill:#F9C29D;}
	.st74{fill:#B7DBF3;}
	.st75{fill:#F3955D;}
	.st76{fill:#FFFFFF;}
	.st77{fill:#B7274C;}
	.st78{fill:#00ABE8;}
	.st79{fill:#008CCC;}
	.st80{fill:#007BB6;}
	.st81{fill:#68CEF2;}
	.st82{fill:#595959;}
	.st83{fill:#8EC341;}
</style>
<g>
	<polygon class="st15" points="331.83,242.31 375.93,196.77 375.93,2.69 24.07,2.69 24.07,242.31 	"/>
	<g>
		<path class="st16" d="M175.3,23.34c0.21-0.86,1.07-1.5,1.93-1.5h1.71c0.75,0,1.61,0.54,1.82,1.18l21.21,59.03
			c0.21,0,0.32,0,0.54,0l20.89-59.03c0.21-0.64,1.07-1.18,1.82-1.18h1.71c0.86,0,1.71,0.64,1.93,1.5l13.82,71.99
			c0.32,1.5-0.32,2.57-1.93,2.57h-4.29c-0.86,0-1.71-0.75-1.93-1.5l-9.53-55.17c-0.11,0-0.32,0-0.43,0L204.87,97.8
			c-0.21,0.64-1.18,1.18-1.82,1.18h-1.93c-0.64,0-1.61-0.54-1.82-1.18l-19.93-56.56c-0.11,0-0.32,0-0.43,0l-9.32,55.17
			c-0.11,0.75-1.07,1.5-1.93,1.5h-4.29c-1.61,0-2.25-1.07-1.93-2.57L175.3,23.34z"/>
		<path class="st16" d="M260.08,23.77c0-1.07,0.96-1.93,2.04-1.93h2.68l48.32,60.21c0.11,0,0.11,0,0.21,0v-57.1
			c0-1.07,0.86-2.04,2.04-2.04h3.75c1.07,0,2.04,0.96,2.04,2.04v72.1c0,1.07-0.96,1.93-2.04,1.93h-1.93l-49.17-61.39h-0.11v58.28
			c0,1.07-0.86,2.04-2.04,2.04h-3.75c-1.07,0-2.04-0.96-2.04-2.04V23.77z"/>
		<path class="st16" d="M347.55,24.95c0-1.07,0.96-2.04,2.04-2.04h4.29c1.07,0,2.04,0.96,2.04,2.04v70.92
			c0,1.07-0.96,2.04-2.04,2.04h-4.29c-1.07,0-2.04-0.96-2.04-2.04V24.95z"/>
		<g>
			<path class="st16" d="M113.67,115.59H95.02c-1.18,0-2.04-0.96-2.04-2.03v-3.11c0-1.07,0.86-2.04,2.04-2.04h45.42
				c1.18,0,2.04,0.96,2.04,2.04v3.11c0,1.07-0.86,2.03-2.04,2.03h-18.64v65.78c0,1.07-0.96,2.04-2.04,2.04h-4.07
				c-1.07,0-2.04-0.96-2.04-2.04V115.59z"/>
			<path class="st16" d="M153.3,110.44c0-1.07,0.96-2.04,2.04-2.04h4.07c1.18,0,2.04,0.96,2.04,2.04v44.67
				c0,12.21,7.61,21.75,20.14,21.75c12.64,0,20.35-9.32,20.35-21.53v-44.89c0-1.07,0.86-2.04,2.04-2.04h4.07
				c1.07,0,2.04,0.96,2.04,2.04v45.32c0,16.28-11.57,28.71-28.5,28.71c-16.82,0-28.28-12.43-28.28-28.71V110.44z"/>
			<path class="st16" d="M230.96,110.44c0-1.07,0.86-2.04,1.93-2.04h24c20.68,0,37.6,16.82,37.6,37.39c0,20.78-16.93,37.6-37.6,37.6
				h-24c-1.07,0-1.93-0.96-1.93-2.04V110.44z M255.17,176.01c17.57,0,30.32-12.53,30.32-30.21c0-17.57-12.75-30.1-30.32-30.1h-16.07
				v60.31H255.17z"/>
			<path class="st16" d="M310.98,110.44c0-1.07,0.86-2.04,2.04-2.04h42.21c1.18,0,2.04,0.96,2.04,2.04v3.11
				c0,1.07-0.86,2.03-2.04,2.03h-36v26.14h30.75c1.07,0,2.04,0.96,2.04,2.04v3.11c0,1.18-0.96,2.04-2.04,2.04h-30.75v27.32h36
				c1.18,0,2.04,0.96,2.04,2.04v3.11c0,1.07-0.86,2.04-2.04,2.04h-42.21c-1.18,0-2.04-0.96-2.04-2.04V110.44z"/>
		</g>
		<path class="st16" d="M117.5,81.32c-17.06,0-30.95-13.88-30.95-30.95s13.88-30.95,30.95-30.95s30.95,13.88,30.95,30.95
			S134.57,81.32,117.5,81.32z M117.5,26.7c-13.05,0-23.67,10.62-23.67,23.67s10.62,23.67,23.67,23.67s23.67-10.62,23.67-23.67
			S130.55,26.7,117.5,26.7z"/>
		<rect x="91.38" y="89.4" class="st16" width="52.24" height="7.28"/>
	</g>
</g>
</svg>
