<svg width="104" height="24" viewBox="0 0 104 24" fill="none" xmlns="http://www.w3.org/2000/svg">
<path fill-rule="evenodd" clip-rule="evenodd" d="M7.93555 22.5589L10.4203 23.9845V21.7036V19.4226V17.1418L7.93555 15.7161V22.5589Z" fill="#0086B9"/>
<path fill-rule="evenodd" clip-rule="evenodd" d="M7.93555 10.4961L10.4153 11.8941L12.8952 10.4961L10.4153 9.09814L7.93555 10.4961Z" fill="#00B5F8"/>
<path fill-rule="evenodd" clip-rule="evenodd" d="M10.415 11.8945V14.6872L12.8948 13.2908V10.498L10.415 11.8945Z" fill="#005D96"/>
<path fill-rule="evenodd" clip-rule="evenodd" d="M7.93555 13.2908L10.4153 14.6872V11.8945L7.93555 10.498V13.2908Z" fill="#0086B9"/>
<path fill-rule="evenodd" clip-rule="evenodd" d="M1.99866 7.15211L0.0205078 6.00776L10.4058 0L19.8032 5.43627L20.7911 6.00776L15.3529 9.15373L15.3528 9.15367L14.8566 9.4408L10.4058 6.86603L5.95496 9.4408L3.97682 8.29645L3.97705 8.29633L1.99891 7.15199L1.99866 7.15211ZM10.4058 2.2887L2.98797 6.57984L4.96613 7.72418L10.4058 4.57739L15.8468 7.72489L17.8249 6.58054L10.4058 2.2887Z" fill="#00B5F8"/>
<path fill-rule="evenodd" clip-rule="evenodd" d="M5.95215 21.4342L0.0205078 18.0054V6.00415L5.95215 9.43304V21.4342ZM1.99771 8.2894V16.8623L3.97492 18.0054V9.43234L1.99771 8.2894Z" fill="#0086B9"/>
<path fill-rule="evenodd" clip-rule="evenodd" d="M18.8222 7.1499L20.8004 6.00854V17.993L10.415 23.9851V21.7024L10.4178 21.7008V19.4181L10.415 19.4196V17.1369L14.8659 14.5688V9.4327L16.844 8.29128V8.29221L18.8222 7.15085V7.1499ZM16.844 15.7102L11.4068 18.8474V21.1301L18.8222 16.8515V8.29221L16.844 9.43357V15.7102Z" fill="#005D96"/>
<path fill-rule="evenodd" clip-rule="evenodd" d="M36.4383 17.3069C39.7683 17.3069 42.2095 14.761 42.2095 11.4887C42.2095 8.18855 39.7518 5.63721 36.4383 5.63721C33.1248 5.63721 30.667 8.18855 30.667 11.4887C30.667 14.7554 33.1082 17.3069 36.4383 17.3069ZM36.4383 7.24015C38.7807 7.24015 40.4321 9.00386 40.4321 11.4887C40.4321 13.9568 38.7863 15.7039 36.4383 15.7039C34.0957 15.7039 32.4444 13.9568 32.4444 11.4887C32.4444 9.00386 34.0903 7.24015 36.4383 7.24015Z" fill="white"/>
<path fill-rule="evenodd" clip-rule="evenodd" d="M47.6951 9.80811C47.1411 9.80811 46.2359 9.96337 45.5721 10.7676H45.5666V10.0022H43.9482V20.4516H45.5666V16.2697C46.2963 17.1848 47.3275 17.3123 47.7062 17.3123C49.3574 17.3123 51.0855 15.8537 51.0855 13.5297C51.0855 11.2502 49.5164 9.80811 47.6951 9.80811ZM47.4593 15.8314C46.1591 15.8314 45.4788 14.7777 45.4788 13.5741C45.4788 12.0655 46.4444 11.2834 47.4593 11.2834C48.4413 11.2834 49.4067 12.0655 49.4067 13.5408C49.4067 14.8055 48.6827 15.8314 47.4593 15.8314Z" fill="white"/>
<path fill-rule="evenodd" clip-rule="evenodd" d="M54.4147 11.472V17.0849H52.7964V11.472H52.0996V9.9966H52.7964V7.46191H54.4147V9.9966H55.6491V11.472H54.4147Z" fill="white"/>
<path fill-rule="evenodd" clip-rule="evenodd" d="M56.7027 5.30444H58.3209V10.6124C58.9408 9.94126 59.6545 9.80811 60.2084 9.80811C61.4921 9.80811 62.0953 10.4792 62.2873 10.7676C62.7319 11.4221 62.7319 12.2097 62.7319 12.7366V17.0794H61.1133V12.8975C61.1133 12.4149 61.13 12.0488 60.7951 11.6606C60.5594 11.3722 60.2578 11.2779 59.8573 11.2779C59.2374 11.2779 58.842 11.5996 58.6501 11.8879C58.3485 12.3373 58.3157 13.0416 58.3157 13.6684V17.0849H56.6973V5.30444H56.7027Z" fill="white"/>
<path fill-rule="evenodd" clip-rule="evenodd" d="M70.1761 16.4474C70.56 16.109 70.8783 15.6599 71.0978 15.2438L69.7372 14.4784C69.4849 15.0886 69.0902 15.4048 69.0241 15.4546C68.7391 15.6764 68.3604 15.8373 67.9158 15.8373C67.0602 15.8373 66.0615 15.2438 66.0288 13.946H71.0374V13.6908C71.0374 12.748 70.8179 11.7552 70.3898 11.1118C69.8803 10.3575 68.9747 9.81396 67.7238 9.81396C65.6611 9.81396 64.3447 11.3226 64.3447 13.5966C64.3447 16.1756 66.1167 17.3127 67.7347 17.3127C68.1955 17.3127 69.3206 17.2183 70.1761 16.4474ZM67.7514 11.2837C68.5466 11.2837 69.1775 11.7829 69.37 12.5983H66.1167C66.3253 11.8106 66.9722 11.2837 67.7514 11.2837Z" fill="white"/>
<path fill-rule="evenodd" clip-rule="evenodd" d="M72.7166 10.0025H74.3352V10.6459C74.6696 10.2299 75.2075 9.81396 75.9969 9.81396C76.3923 9.81396 76.9025 9.94148 77.3139 10.2299L76.5841 11.7219C76.2826 11.4668 75.9367 11.3836 75.6625 11.3836C75.092 11.3836 74.7736 11.6886 74.6145 11.9438C74.3462 12.3764 74.3296 12.9532 74.3296 13.4025V17.0908H72.7109V10.0025H72.7166Z" fill="white"/>
<path fill-rule="evenodd" clip-rule="evenodd" d="M80.0575 7.085C80.0575 6.50818 79.5799 6.02563 79.0094 6.02563C78.4388 6.02563 77.9619 6.50262 77.9619 7.085C77.9619 7.66183 78.4388 8.14437 79.0094 8.14437C79.5799 8.14437 80.0575 7.66183 80.0575 7.085ZM79.8161 17.0851V10.0024H78.1975V17.0851H79.8161Z" fill="white"/>
<path fill-rule="evenodd" clip-rule="evenodd" d="M83.3971 10.0024V14.0735C83.3971 14.5061 83.3971 14.9721 83.6988 15.3548C83.9183 15.6431 84.2693 15.8372 84.7795 15.8372C85.2841 15.8372 85.6351 15.6431 85.8604 15.3548C86.162 14.9721 86.162 14.5061 86.162 14.0735V10.0024H87.7807V14.1068C87.7807 14.9387 87.7312 15.7097 87.0342 16.4307C86.3045 17.2017 85.2403 17.3126 84.752 17.3126C84.3245 17.3126 83.2764 17.2017 82.5301 16.4307C81.8336 15.7097 81.7842 14.9387 81.7842 14.1068V10.0024H83.3971Z" fill="white"/>
<path fill-rule="evenodd" clip-rule="evenodd" d="M89.7393 10.0022H91.3579V10.6567C91.8348 10.0466 92.422 9.80811 93.1023 9.80811C93.4367 9.80811 94.386 9.87465 94.9071 10.8675C95.4777 9.98555 96.3826 9.80811 96.9865 9.80811C98.018 9.80811 98.6379 10.3184 98.9832 10.9285C99.159 11.2169 99.3452 11.6828 99.3452 12.7088V17.085H97.7272V13.1914C97.7272 12.3927 97.6335 12.071 97.5841 11.9269C97.4249 11.5275 97.14 11.2834 96.6463 11.2834C96.0919 11.2834 95.7902 11.6217 95.6644 11.827C95.5707 11.9712 95.3461 12.3871 95.3461 13.4299V17.085H93.7384V13.1914C93.7384 12.8364 93.6895 12.2152 93.5798 11.9269C93.404 11.4609 93.0856 11.2834 92.6415 11.2834C92.148 11.2834 91.8457 11.5386 91.6595 11.827C91.3906 12.2429 91.3579 12.8531 91.3579 13.4299V17.085H89.7393V10.0022Z" fill="white"/>
<path fill-rule="evenodd" clip-rule="evenodd" d="M101.874 10.265H101.425V11.4925H101.176V10.265H100.728V10.0483H101.869V10.265H101.874Z" fill="white"/>
<path fill-rule="evenodd" clip-rule="evenodd" d="M103.622 11.4925H103.39V10.3816L103 11.4925H102.8L102.399 10.3816V11.4925H102.167V10.0483H102.513L102.908 11.176L103.287 10.0483H103.633V11.4925H103.622Z" fill="white"/>
</svg>
