<svg xmlns="http://www.w3.org/2000/svg" xmlns:xlink="http://www.w3.org/1999/xlink" width="1000" zoomAndPan="magnify" viewBox="0 0 750 187.499995" height="250" preserveAspectRatio="xMidYMid meet" version="1.0"><defs><g/><clipPath id="d953e69a8f"><path d="M 7.277344 36 L 84 36 L 84 142 L 7.277344 142 Z M 7.277344 36 " clip-rule="nonzero"/></clipPath><clipPath id="201a0bb250"><path d="M -11.394531 120.671875 C -11.394531 120.671875 82.851562 35.8125 82.851562 35.8125 C 82.851562 35.8125 115.128906 71.65625 115.128906 71.65625 C 115.128906 71.65625 20.878906 156.519531 20.878906 156.519531 C 20.878906 156.519531 -11.394531 120.671875 -11.394531 120.671875 Z M -11.394531 120.671875 " clip-rule="nonzero"/></clipPath><clipPath id="bf4a8dc71b"><path d="M 7.296875 141.027344 C 7.296875 141.027344 77.292969 29.46875 77.292969 29.46875 C 77.292969 29.46875 188.851562 99.464844 188.851562 99.464844 C 188.851562 99.464844 118.859375 211.023438 118.859375 211.023438 C 118.859375 211.023438 7.296875 141.027344 7.296875 141.027344 Z M 7.296875 141.027344 " clip-rule="nonzero"/></clipPath><clipPath id="1ef91dc468"><path d="M 7.296875 141.027344 C 7.296875 141.027344 77.292969 29.46875 77.292969 29.46875 C 77.292969 29.46875 188.851562 99.464844 188.851562 99.464844 C 188.851562 99.464844 118.859375 211.023438 118.859375 211.023438 C 118.859375 211.023438 7.296875 141.027344 7.296875 141.027344 Z M 7.296875 141.027344 " clip-rule="nonzero"/></clipPath><clipPath id="b72478eb33"><path d="M 7.296875 141.027344 C 7.296875 141.027344 77.292969 29.46875 77.292969 29.46875 C 77.292969 29.46875 188.851562 99.464844 188.851562 99.464844 C 188.851562 99.464844 118.859375 211.023438 118.859375 211.023438 C 118.859375 211.023438 7.296875 141.027344 7.296875 141.027344 Z M 7.296875 141.027344 " clip-rule="nonzero"/></clipPath><clipPath id="1b7238ec70"><path d="M 88 36 L 164.585938 36 L 164.585938 142 L 88 142 Z M 88 36 " clip-rule="nonzero"/></clipPath><clipPath id="f3bc58ba11"><path d="M 183.25 120.671875 C 183.25 120.671875 89.003906 35.8125 89.003906 35.8125 C 89.003906 35.8125 56.730469 71.65625 56.730469 71.65625 C 56.730469 71.65625 150.976562 156.519531 150.976562 156.519531 C 150.976562 156.519531 183.25 120.671875 183.25 120.671875 Z M 183.25 120.671875 " clip-rule="nonzero"/></clipPath><clipPath id="c0b60798c8"><path d="M 164.558594 141.027344 C 164.558594 141.027344 94.5625 29.46875 94.5625 29.46875 C 94.5625 29.46875 -16.996094 99.464844 -16.996094 99.464844 C -16.996094 99.464844 52.996094 211.023438 52.996094 211.023438 C 52.996094 211.023438 164.558594 141.027344 164.558594 141.027344 Z M 164.558594 141.027344 " clip-rule="nonzero"/></clipPath><clipPath id="b7f05fc098"><path d="M 164.558594 141.027344 C 164.558594 141.027344 94.5625 29.46875 94.5625 29.46875 C 94.5625 29.46875 -16.996094 99.464844 -16.996094 99.464844 C -16.996094 99.464844 52.996094 211.023438 52.996094 211.023438 C 52.996094 211.023438 164.558594 141.027344 164.558594 141.027344 Z M 164.558594 141.027344 " clip-rule="nonzero"/></clipPath><clipPath id="fd06ef8f91"><path d="M 164.558594 141.027344 C 164.558594 141.027344 94.5625 29.46875 94.5625 29.46875 C 94.5625 29.46875 -16.996094 99.464844 -16.996094 99.464844 C -16.996094 99.464844 52.996094 211.023438 52.996094 211.023438 C 52.996094 211.023438 164.558594 141.027344 164.558594 141.027344 Z M 164.558594 141.027344 " clip-rule="nonzero"/></clipPath></defs><g clip-path="url(#d953e69a8f)"><g clip-path="url(#201a0bb250)"><g clip-path="url(#bf4a8dc71b)"><g clip-path="url(#1ef91dc468)"><g clip-path="url(#b72478eb33)"><path fill="#5e17eb" d="M 83.042969 36.03125 C 57.144531 70.742188 32.058594 105.386719 7.363281 141.070312 C 14.488281 137.398438 26.496094 133.632812 34.332031 130.566406 C 41.507812 127.765625 56.304688 123.707031 62.152344 118.511719 C 69.835938 112.855469 76.296875 107.933594 78.332031 98.132812 C 82.011719 80.4375 83.566406 54.316406 83.042969 36.027344 C 83.042969 36.027344 83.042969 36.03125 83.042969 36.03125 Z M 83.042969 36.03125 " fill-opacity="1" fill-rule="evenodd"/></g></g></g></g></g><g clip-path="url(#1b7238ec70)"><g clip-path="url(#f3bc58ba11)"><g clip-path="url(#c0b60798c8)"><g clip-path="url(#b7f05fc098)"><g clip-path="url(#fd06ef8f91)"><path fill="#5e17eb" d="M 88.8125 36.03125 C 114.710938 70.742188 139.800781 105.386719 164.492188 141.070312 C 157.367188 137.398438 145.363281 133.632812 137.523438 130.566406 C 130.347656 127.765625 115.554688 123.707031 109.703125 118.511719 C 102.019531 112.855469 95.558594 107.933594 93.523438 98.132812 C 89.84375 80.4375 88.289062 54.316406 88.816406 36.027344 C 88.816406 36.027344 88.8125 36.03125 88.8125 36.03125 Z M 88.8125 36.03125 " fill-opacity="1" fill-rule="evenodd"/></g></g></g></g></g><g fill="#5e17eb" fill-opacity="1"><g transform="translate(176.326264, 126.662186)"><g><path d="M 43.6875 -76.5 C 49.832031 -76.5 55.320312 -74.378906 60.15625 -70.140625 C 64.914062 -65.910156 67.296875 -59.6875 67.296875 -51.46875 C 67.296875 -46.375 66.601562 -42.007812 65.21875 -38.375 C 63.832031 -34.75 61.972656 -32.023438 59.640625 -30.203125 C 57.222656 -28.304688 54.757812 -26.96875 52.25 -26.1875 C 49.65625 -25.320312 46.929688 -24.890625 44.078125 -24.890625 L 19.0625 -24.890625 L 19.0625 -5.703125 C 19.0625 -4.148438 18.5 -2.8125 17.375 -1.6875 C 16.25 -0.5625 14.910156 0 13.359375 0 C 11.796875 0 10.5 -0.5625 9.46875 -1.6875 C 8.34375 -2.8125 7.78125 -4.148438 7.78125 -5.703125 L 7.78125 -70.796875 C 7.78125 -72.347656 8.34375 -73.6875 9.46875 -74.8125 C 10.5 -75.9375 11.796875 -76.5 13.359375 -76.5 Z M 19.0625 -65.859375 L 19.0625 -35.53125 L 43.5625 -35.53125 C 52.03125 -35.53125 56.265625 -40.84375 56.265625 -51.46875 C 56.265625 -61.0625 52.03125 -65.859375 43.5625 -65.859375 Z M 19.0625 -65.859375 "/></g></g></g><g fill="#5e17eb" fill-opacity="1"><g transform="translate(247.504326, 126.662186)"><g><path d="M 36.953125 -76.5 C 39.109375 -76.5 41.050781 -75.9375 42.78125 -74.8125 C 44.507812 -73.6875 45.722656 -72.175781 46.421875 -70.28125 L 69.75 -7.78125 C 70.007812 -7.082031 70.140625 -6.347656 70.140625 -5.578125 C 70.140625 -3.929688 69.625 -2.59375 68.59375 -1.5625 C 67.550781 -0.519531 66.207031 0 64.5625 0 C 61.800781 0 59.988281 -1.164062 59.125 -3.5 L 53.8125 -18.015625 L 20.21875 -18.015625 L 14.90625 -3.5 C 14.039062 -1.164062 12.226562 0 9.46875 0 C 7.820312 0 6.484375 -0.519531 5.453125 -1.5625 C 4.410156 -2.59375 3.890625 -3.929688 3.890625 -5.578125 C 3.890625 -6.347656 4.019531 -7.082031 4.28125 -7.78125 L 27.609375 -70.28125 C 28.304688 -72.175781 29.519531 -73.6875 31.25 -74.8125 C 32.882812 -75.9375 34.785156 -76.5 36.953125 -76.5 Z M 24.25 -28.65625 L 49.78125 -28.65625 L 36.953125 -63.265625 Z M 24.25 -28.65625 "/></g></g></g><g fill="#5e17eb" fill-opacity="1"><g transform="translate(321.534693, 126.662186)"><g><path d="M 64.4375 -7.265625 C 64.613281 -6.828125 64.703125 -6.222656 64.703125 -5.453125 C 64.703125 -3.972656 64.140625 -2.71875 63.015625 -1.6875 C 61.890625 -0.5625 60.59375 0 59.125 0 C 56.445312 0 54.71875 -1.207031 53.9375 -3.625 L 50.828125 -13.21875 C 47.890625 -22.382812 43.175781 -26.96875 36.6875 -26.96875 L 19.703125 -26.96875 L 19.703125 -5.703125 C 19.703125 -4.148438 19.140625 -2.8125 18.015625 -1.6875 C 16.898438 -0.5625 15.5625 0 14 0 C 12.445312 0 11.148438 -0.5625 10.109375 -1.6875 C 8.984375 -2.8125 8.421875 -4.148438 8.421875 -5.703125 L 8.421875 -70.796875 C 8.421875 -72.347656 8.984375 -73.6875 10.109375 -74.8125 C 11.148438 -75.9375 12.445312 -76.5 14 -76.5 L 43.171875 -76.5 C 49.398438 -76.5 54.847656 -74.550781 59.515625 -70.65625 C 64.179688 -66.6875 66.515625 -60.59375 66.515625 -52.375 C 66.515625 -49.78125 66.210938 -47.144531 65.609375 -44.46875 C 64.910156 -41.789062 63.484375 -39.023438 61.328125 -36.171875 C 59.171875 -33.316406 56.316406 -31.414062 52.765625 -30.46875 C 55.359375 -27.957031 57.390625 -25.28125 58.859375 -22.4375 C 60.242188 -19.582031 61.710938 -15.734375 63.265625 -10.890625 Z M 42.140625 -37.59375 C 44.210938 -37.59375 45.8125 -37.722656 46.9375 -37.984375 C 48.0625 -38.160156 49.398438 -38.679688 50.953125 -39.546875 C 52.421875 -40.328125 53.503906 -41.796875 54.203125 -43.953125 C 54.890625 -46.023438 55.234375 -48.789062 55.234375 -52.25 C 55.234375 -57.613281 54.066406 -61.242188 51.734375 -63.140625 C 49.316406 -64.953125 46.117188 -65.859375 42.140625 -65.859375 L 19.703125 -65.859375 L 19.703125 -37.59375 Z M 42.140625 -37.59375 "/></g></g></g><g fill="#5e17eb" fill-opacity="1"><g transform="translate(393.231356, 126.662186)"><g><path d="M 36.953125 -76.5 C 39.109375 -76.5 41.050781 -75.9375 42.78125 -74.8125 C 44.507812 -73.6875 45.722656 -72.175781 46.421875 -70.28125 L 69.75 -7.78125 C 70.007812 -7.082031 70.140625 -6.347656 70.140625 -5.578125 C 70.140625 -3.929688 69.625 -2.59375 68.59375 -1.5625 C 67.550781 -0.519531 66.207031 0 64.5625 0 C 61.800781 0 59.988281 -1.164062 59.125 -3.5 L 53.8125 -18.015625 L 20.21875 -18.015625 L 14.90625 -3.5 C 14.039062 -1.164062 12.226562 0 9.46875 0 C 7.820312 0 6.484375 -0.519531 5.453125 -1.5625 C 4.410156 -2.59375 3.890625 -3.929688 3.890625 -5.578125 C 3.890625 -6.347656 4.019531 -7.082031 4.28125 -7.78125 L 27.609375 -70.28125 C 28.304688 -72.175781 29.519531 -73.6875 31.25 -74.8125 C 32.882812 -75.9375 34.785156 -76.5 36.953125 -76.5 Z M 24.25 -28.65625 L 49.78125 -28.65625 L 36.953125 -63.265625 Z M 24.25 -28.65625 "/></g></g></g><g fill="#5e17eb" fill-opacity="1"><g transform="translate(467.261735, 126.662186)"><g><path d="M 36.953125 0 C 34.785156 0 32.882812 -0.5625 31.25 -1.6875 C 29.519531 -2.8125 28.304688 -4.320312 27.609375 -6.21875 L 4.28125 -68.71875 C 4.019531 -69.40625 3.890625 -70.140625 3.890625 -70.921875 C 3.890625 -72.566406 4.410156 -73.90625 5.453125 -74.9375 C 6.484375 -75.976562 7.820312 -76.5 9.46875 -76.5 C 12.226562 -76.5 14.039062 -75.332031 14.90625 -73 L 36.953125 -13.21875 L 59 -73 C 59.863281 -75.332031 61.675781 -76.5 64.4375 -76.5 C 66.082031 -76.5 67.421875 -75.976562 68.453125 -74.9375 C 69.492188 -73.90625 70.015625 -72.566406 70.015625 -70.921875 C 70.015625 -70.140625 69.882812 -69.40625 69.625 -68.71875 L 46.28125 -6.21875 C 45.59375 -4.320312 44.425781 -2.8125 42.78125 -1.6875 C 41.050781 -0.5625 39.109375 0 36.953125 0 Z M 36.953125 0 "/></g></g></g><g fill="#5e17eb" fill-opacity="1"><g transform="translate(541.162455, 126.662186)"><g><path d="M 19.703125 -42.140625 L 46.9375 -42.140625 C 48.40625 -42.140625 49.660156 -41.617188 50.703125 -40.578125 C 51.734375 -39.546875 52.25 -38.296875 52.25 -36.828125 C 52.25 -35.359375 51.734375 -34.101562 50.703125 -33.0625 C 49.660156 -32.019531 48.40625 -31.5 46.9375 -31.5 L 19.703125 -31.5 L 19.703125 -10.625 L 54.203125 -10.625 C 55.671875 -10.625 56.921875 -10.109375 57.953125 -9.078125 C 58.992188 -8.035156 59.515625 -6.78125 59.515625 -5.3125 C 59.515625 -3.84375 58.992188 -2.59375 57.953125 -1.5625 C 56.921875 -0.519531 55.671875 0 54.203125 0 L 14 0 C 12.445312 0 11.148438 -0.5625 10.109375 -1.6875 C 8.984375 -2.8125 8.421875 -4.148438 8.421875 -5.703125 L 8.421875 -70.796875 C 8.421875 -72.347656 8.984375 -73.6875 10.109375 -74.8125 C 11.148438 -75.9375 12.445312 -76.5 14 -76.5 L 54.203125 -76.5 C 55.671875 -76.5 56.921875 -75.976562 57.953125 -74.9375 C 58.992188 -73.90625 59.515625 -72.65625 59.515625 -71.1875 C 59.515625 -69.71875 58.992188 -68.460938 57.953125 -67.421875 C 56.921875 -66.378906 55.671875 -65.859375 54.203125 -65.859375 L 19.703125 -65.859375 Z M 19.703125 -42.140625 "/></g></g></g><g fill="#5e17eb" fill-opacity="1"><g transform="translate(607.802766, 126.662186)"><g><path d="M 14 0 C 12.445312 0 11.148438 -0.5625 10.109375 -1.6875 C 8.984375 -2.8125 8.421875 -4.148438 8.421875 -5.703125 L 8.421875 -70.796875 C 8.421875 -72.347656 8.984375 -73.6875 10.109375 -74.8125 C 11.148438 -75.9375 12.445312 -76.5 14 -76.5 C 15.5625 -76.5 16.898438 -75.9375 18.015625 -74.8125 C 19.140625 -73.6875 19.703125 -72.347656 19.703125 -70.796875 L 19.703125 -10.625 L 51.21875 -10.625 C 52.6875 -10.625 53.9375 -10.109375 54.96875 -9.078125 C 56.007812 -8.035156 56.53125 -6.78125 56.53125 -5.3125 C 56.53125 -3.84375 56.007812 -2.59375 54.96875 -1.5625 C 53.9375 -0.519531 52.6875 0 51.21875 0 Z M 14 0 "/></g></g></g><g fill="#5e17eb" fill-opacity="1"><g transform="translate(669.516351, 126.662186)"><g><path d="M 36.953125 -76.5 C 39.109375 -76.5 41.050781 -75.9375 42.78125 -74.8125 C 44.507812 -73.6875 45.722656 -72.175781 46.421875 -70.28125 L 69.75 -7.78125 C 70.007812 -7.082031 70.140625 -6.347656 70.140625 -5.578125 C 70.140625 -3.929688 69.625 -2.59375 68.59375 -1.5625 C 67.550781 -0.519531 66.207031 0 64.5625 0 C 61.800781 0 59.988281 -1.164062 59.125 -3.5 L 53.8125 -18.015625 L 20.21875 -18.015625 L 14.90625 -3.5 C 14.039062 -1.164062 12.226562 0 9.46875 0 C 7.820312 0 6.484375 -0.519531 5.453125 -1.5625 C 4.410156 -2.59375 3.890625 -3.929688 3.890625 -5.578125 C 3.890625 -6.347656 4.019531 -7.082031 4.28125 -7.78125 L 27.609375 -70.28125 C 28.304688 -72.175781 29.519531 -73.6875 31.25 -74.8125 C 32.882812 -75.9375 34.785156 -76.5 36.953125 -76.5 Z M 24.25 -28.65625 L 49.78125 -28.65625 L 36.953125 -63.265625 Z M 24.25 -28.65625 "/></g></g></g></svg>