<?xml version="1.0" encoding="utf-8"?>
<!-- Generator: Adobe Illustrator 16.0.0, SVG Export Plug-In . SVG Version: 6.00 Build 0)  -->
<!DOCTYPE svg PUBLIC "-//W3C//DTD SVG 1.0//EN" "http://www.w3.org/TR/2001/REC-SVG-20010904/DTD/svg10.dtd">
<svg version="1.0" id="Layer_1" xmlns="http://www.w3.org/2000/svg" xmlns:xlink="http://www.w3.org/1999/xlink" x="0px" y="0px"
	 width="24px" height="24px" viewBox="0 0 24 24" enable-background="new 0 0 24 24" xml:space="preserve">
<path fill="#3C2966" d="M11.87598-0.00635c0.08203,0,0.16504,0,0.24805,0c0.07031,0.01123,0.1416,0.02246,0.21191,0.0332
	c0.49219,0.0752,0.91113,0.28955,1.27539,0.63086c0.55371,0.51807,1.22363,0.82666,1.94336,1.03418
	c0.54688,0.1582,1.10352,0.2373,1.6748,0.19043c0.22559-0.01904,0.4541-0.04004,0.67871-0.02148
	c0.96973,0.07959,1.82227,0.83594,2.00879,1.7959c0.11914,0.60986,0.3584,1.16357,0.69727,1.67676
	c0.44824,0.67969,1,1.24805,1.7207,1.65234c0.94043,0.52832,1.36914,1.6792,1.02539,2.7041
	c-0.0752,0.22461-0.18848,0.43652-0.26465,0.66113c-0.21289,0.63184-0.27539,1.28369-0.23438,1.94678
	c0.03418,0.56543,0.13867,1.11426,0.38379,1.62891c0.17773,0.37305,0.25879,0.76172,0.22168,1.17285
	c-0.07031,0.79199-0.43359,1.41504-1.12305,1.81348c-0.54102,0.3125-1.00293,0.70508-1.38867,1.19043
	c-0.50684,0.63574-0.87793,1.33496-1.03906,2.14453c-0.20898,1.05273-1.16211,1.81348-2.2334,1.80859
	c-0.19629,0-0.3916-0.03027-0.58789-0.04004c-0.57422-0.0293-1.13281,0.06543-1.67871,0.23828
	c-0.70508,0.22266-1.34082,0.56055-1.89258,1.06641c-0.85938,0.78809-2.20508,0.78125-3.06396-0.00879
	c-0.43604-0.40039-0.92822-0.70117-1.47607-0.91406c-0.74756-0.29102-1.5166-0.44824-2.3252-0.36426
	c-0.21436,0.02246-0.43506,0.02637-0.64844,0.00098c-0.9165-0.1084-1.71143-0.81055-1.91113-1.71094
	c-0.125-0.56543-0.31152-1.09961-0.61621-1.59082c-0.4668-0.75195-1.05078-1.38184-1.83545-1.82129
	c-0.88379-0.49609-1.32031-1.57324-1.05322-2.55273c0.06543-0.24023,0.18262-0.4668,0.26953-0.70215
	c0.23242-0.62695,0.29932-1.27832,0.27441-1.94238c-0.02246-0.60742-0.13184-1.19727-0.39551-1.75098
	C0.62744,9.72168,0.54834,9.46973,0.53076,9.20215C0.46875,8.24756,0.82178,7.48633,1.64795,6.99707
	c0.61816-0.3667,1.13184-0.83008,1.55273-1.40381c0.41553-0.56738,0.72656-1.18262,0.86572-1.88037
	c0.19385-0.97266,0.90967-1.66162,1.89062-1.84033c0.26465-0.04834,0.52734-0.02393,0.79248,0.00439
	c0.58447,0.0625,1.15527-0.02734,1.71436-0.19189c0.74951-0.22021,1.43604-0.55762,2.0083-1.10547
	c0.2666-0.25439,0.58936-0.41797,0.94873-0.50293C11.57031,0.0415,11.72363,0.021,11.87598-0.00635z M6.73145,16.86719
	c0.00293,0,0.00586,0,0.00879,0c0,0.10352-0.00635,0.20703,0.00098,0.30957c0.05957,0.81934,0.71973,1.33594,1.51953,1.16211
	c0.31055-0.06641,0.6123-0.18652,0.90723-0.30762c0.77148-0.31543,1.55078-0.58301,2.39746-0.61523
	c0.92578-0.03516,1.8291,0.04102,2.69629,0.39746c0.41992,0.17285,0.84473,0.33789,1.27441,0.48242
	c0.36426,0.12305,0.7373,0.12207,1.08301-0.07129c0.44922-0.25,0.62695-0.66797,0.63672-1.15625
	c0.00879-0.37793-0.01465-0.75781-0.04688-1.13574c-0.05469-0.62988-0.0332-1.25195,0.1123-1.86914
	c0.2002-0.84473,0.49805-1.65039,1.01465-2.35645c0.28125-0.38281,0.60059-0.7373,0.89453-1.11182
	c0.13086-0.16748,0.2627-0.34082,0.35547-0.53027c0.22559-0.46436,0.21387-0.91992-0.12891-1.33447
	c-0.17285-0.20947-0.39746-0.35352-0.6543-0.43652c-0.27051-0.08838-0.54785-0.15869-0.82422-0.23096
	c-0.58301-0.15332-1.16895-0.29053-1.70508-0.58447c-0.8584-0.47168-1.63184-1.04834-2.21484-1.84521
	c-0.3125-0.42773-0.57812-0.88965-0.87305-1.33105c-0.09082-0.13672-0.19629-0.26758-0.31348-0.38281
	c-0.4209-0.41455-0.97363-0.49512-1.45801-0.22119c-0.21094,0.11963-0.38477,0.28223-0.52148,0.47998
	c-0.16211,0.23535-0.32275,0.47314-0.46777,0.71924c-0.43604,0.74268-0.97217,1.39502-1.6665,1.9126
	C8.14062,7.27051,7.48828,7.66357,6.73975,7.87158c-0.375,0.104-0.75195,0.2002-1.12939,0.29541
	C5.2915,8.24756,4.97852,8.34082,4.71826,8.55518C4.38037,8.8335,4.21582,9.18506,4.27295,9.62891
	c0.0415,0.32178,0.18945,0.59473,0.38818,0.84326c0.18506,0.23145,0.36816,0.46533,0.56396,0.68799
	c0.49121,0.55566,0.87646,1.1748,1.13525,1.87207c0.2793,0.75098,0.47412,1.52051,0.45361,2.32812
	C6.80127,15.86328,6.75977,16.36523,6.73145,16.86719z"/>
<path fill-rule="evenodd" clip-rule="evenodd" fill="none" d="M11.87598-0.00635C11.72363,0.021,11.57031,0.0415,11.4209,0.07666
	c-0.35938,0.08496-0.68213,0.24854-0.94873,0.50293C9.8999,1.12744,9.21338,1.46484,8.46387,1.68506
	C7.90479,1.84961,7.33398,1.93945,6.74951,1.87695C6.48438,1.84863,6.22168,1.82422,5.95703,1.87256
	C4.97607,2.05127,4.26025,2.74023,4.06641,3.71289c-0.13916,0.69775-0.4502,1.31299-0.86572,1.88037
	c-0.4209,0.57373-0.93457,1.03711-1.55273,1.40381c-0.82617,0.48926-1.1792,1.25049-1.11719,2.20508
	c0.01758,0.26758,0.09668,0.51953,0.21143,0.76172c0.26367,0.55371,0.37305,1.14355,0.39551,1.75098
	c0.0249,0.66406-0.04199,1.31543-0.27441,1.94238c-0.08691,0.23535-0.2041,0.46191-0.26953,0.70215
	c-0.26709,0.97949,0.16943,2.05664,1.05322,2.55273c0.78467,0.43945,1.36865,1.06934,1.83545,1.82129
	c0.30469,0.49121,0.49121,1.02539,0.61621,1.59082c0.19971,0.90039,0.99463,1.60254,1.91113,1.71094
	c0.21338,0.02539,0.43408,0.02148,0.64844-0.00098c0.80859-0.08398,1.57764,0.07324,2.3252,0.36426
	c0.54785,0.21289,1.04004,0.51367,1.47607,0.91406c0.85889,0.79004,2.20459,0.79688,3.06396,0.00879
	c0.55176-0.50586,1.1875-0.84375,1.89258-1.06641c0.5459-0.17285,1.10449-0.26758,1.67871-0.23828
	c0.19629,0.00977,0.3916,0.04004,0.58789,0.04004c1.07129,0.00488,2.02441-0.75586,2.2334-1.80859
	c0.16113-0.80957,0.53223-1.50879,1.03906-2.14453c0.38574-0.48535,0.84766-0.87793,1.38867-1.19043
	c0.68945-0.39844,1.05273-1.02148,1.12305-1.81348c0.03711-0.41113-0.04395-0.7998-0.22168-1.17285
	C23,13.41211,22.89551,12.86328,22.86133,12.29785c-0.04102-0.66309,0.02148-1.31494,0.23438-1.94678
	c0.07617-0.22461,0.18945-0.43652,0.26465-0.66113c0.34375-1.0249-0.08496-2.17578-1.02539-2.7041
	c-0.7207-0.4043-1.27246-0.97266-1.7207-1.65234c-0.33887-0.51318-0.57812-1.06689-0.69727-1.67676
	c-0.18652-0.95996-1.03906-1.71631-2.00879-1.7959c-0.22461-0.01855-0.45312,0.00244-0.67871,0.02148
	c-0.57129,0.04688-1.12793-0.03223-1.6748-0.19043c-0.71973-0.20752-1.38965-0.51611-1.94336-1.03418
	c-0.36426-0.34131-0.7832-0.55566-1.27539-0.63086c-0.07031-0.01074-0.1416-0.02197-0.21191-0.0332c3.8291,0,7.65918,0,11.48828,0
	c0,8.00439,0,16.0083,0,24.01221c-7.74121,0-15.4834,0-23.2251,0c0-8.00391,0-16.00781,0-24.01221
	C4.2168-0.00635,8.04639-0.00635,11.87598-0.00635z"/>
<path fill-rule="evenodd" clip-rule="evenodd" fill="none" d="M6.73145,16.86719c0.02832-0.50195,0.06982-1.00391,0.08252-1.50684
	c0.02051-0.80762-0.17432-1.57715-0.45361-2.32812c-0.25879-0.69727-0.64404-1.31641-1.13525-1.87207
	c-0.1958-0.22266-0.37891-0.45654-0.56396-0.68799C4.4624,10.22363,4.31445,9.95068,4.27295,9.62891
	C4.21582,9.18506,4.38037,8.8335,4.71826,8.55518C4.97852,8.34082,5.2915,8.24756,5.61035,8.16699
	c0.37744-0.09521,0.75439-0.19141,1.12939-0.29541C7.48828,7.66357,8.14062,7.27051,8.7583,6.81006
	c0.69434-0.51758,1.23047-1.16992,1.6665-1.9126c0.14502-0.24609,0.30566-0.48389,0.46777-0.71924
	c0.13672-0.19775,0.31055-0.36035,0.52148-0.47998c0.48438-0.27393,1.03711-0.19336,1.45801,0.22119
	c0.11719,0.11523,0.22266,0.24609,0.31348,0.38281c0.29492,0.44141,0.56055,0.90332,0.87305,1.33105
	c0.58301,0.79688,1.35645,1.37354,2.21484,1.84521c0.53613,0.29395,1.12207,0.43115,1.70508,0.58447
	c0.27637,0.07227,0.55371,0.14258,0.82422,0.23096c0.25684,0.08301,0.48145,0.22705,0.6543,0.43652
	c0.34277,0.41455,0.35449,0.87012,0.12891,1.33447c-0.09277,0.18945-0.22461,0.36279-0.35547,0.53027
	c-0.29395,0.37451-0.61328,0.729-0.89453,1.11182c-0.5166,0.70605-0.81445,1.51172-1.01465,2.35645
	c-0.14551,0.61719-0.16699,1.23926-0.1123,1.86914c0.03223,0.37793,0.05566,0.75781,0.04688,1.13574
	c-0.00977,0.48828-0.1875,0.90625-0.63672,1.15625c-0.3457,0.19336-0.71875,0.19434-1.08301,0.07129
	c-0.42969-0.14453-0.85449-0.30957-1.27441-0.48242c-0.86719-0.35645-1.77051-0.43262-2.69629-0.39746
	c-0.84668,0.03223-1.62598,0.2998-2.39746,0.61523c-0.29492,0.12109-0.59668,0.24121-0.90723,0.30762
	c-0.7998,0.17383-1.45996-0.34277-1.51953-1.16211c-0.00732-0.10254-0.00098-0.20605-0.00098-0.30957
	C6.7373,16.86719,6.73438,16.86719,6.73145,16.86719z"/>
</svg>
