<?xml version="1.0" encoding="utf-8"?>
<!-- Generator: Adobe Illustrator 19.2.1, SVG Export Plug-In . SVG Version: 6.00 Build 0)  -->
<svg version="1.1" id="layer" xmlns="http://www.w3.org/2000/svg" xmlns:xlink="http://www.w3.org/1999/xlink" x="0px" y="0px"
	 viewBox="0 0 652 652" style="enable-background:new 0 0 652 652;" xml:space="preserve">
<style type="text/css">
	.st0{fill:#1E1E1E;}
	.st1{fill:#E6007A;}
</style>
<path class="st0" d="M166.9,314.8c-11.3-0.1-22,5.2-28.7,14.4c-7.7,9.4-11.7,21.3-11.5,33.4c-0.4,7.8,2.2,15.5,7.2,21.5
	c4.8,5.5,11.9,8.5,19.2,8.1c10.8,0,21-5,27.6-13.6c8.2-9.8,12.6-22.2,12.4-34.9c0.3-7.5-1.8-14.9-6.1-21
	C182.7,317.5,175.9,314.8,166.9,314.8z M167.4,372.2c-3.6,3.7-8.6,5.8-13.8,5.9c-3.5,0.2-6.9-1.3-9-4.1c-2.4-3.3-3.5-7.3-3.2-11.3
	c-0.3-8.6,2.1-17.1,7-24.2c3.9-6.1,10.6-9.8,17.9-9.7c8.1,0,12.2,5,12.2,14.9C178.5,354.3,174.6,364.5,167.4,372.2z M604.6,350.5
	c-3.4-1.2-7.2,0.5-8.6,3.8c-6.3,15.8-14,23.7-23.5,23.7c-5,0-7.5-4.3-7.5-12.4c0.6-9.2,2-18.3,4-27.3l2-9.5h19.4
	c3.3,0,6.2-2.4,6.8-5.7c0.8-3.8-1.7-7.5-5.4-8.2c-0.4-0.1-0.9-0.1-1.3-0.1h-16.1l3.2-15.8c0.8-3.9-1.7-7.8-5.6-8.7
	c-0.5-0.1-0.9-0.2-1.4-0.2c-3.4-0.1-6.3,2.3-7,5.7l-4.2,18.7h-45.2c-11.4-0.1-22.1,5.3-28.7,14.6c-7.7,9.4-11.7,21.3-11.5,33.4
	c0,3.3,0.4,6.5,1.1,9.7c-2.9,3.5-7.2,5.5-11.8,5.7c-2.3,0.2-4.6-0.7-6.1-2.5c-1.4-2.5-2-5.3-1.8-8.1c0.3-8.1,1.4-16.2,3.2-24.2
	l11.7-54.6c0.9-3.9-1.5-7.7-5.4-8.6c-3.9-0.9-7.7,1.5-8.6,5.4l0,0l-6.8,33.4c-4.8-2.9-10.3-4.3-15.8-4.3
	c-11.3-0.2-22.1,4.8-29.4,13.6c-7.9,9.7-12.1,21.8-11.7,34.3c-0.1,4,0.5,7.9,1.6,11.7c-2.8,2.4-6.3,3.8-9.9,3.8
	c-2.4,0.2-4.8-0.7-6.5-2.5c-1.6-2.4-2.3-5.3-2-8.1c0.2-5.4,1-10.8,2.3-16.1c0.8-4-1.8-7.9-5.9-8.7c-0.2,0-0.4-0.1-0.6-0.1
	c-3.6-0.5-7,1.9-7.9,5.4c-1.9,7.7-5.3,15-9.9,21.5c-3.3,5.1-8.8,8.4-14.9,8.8c-3.2-0.1-6.1-1.8-7.7-4.5c-2.1-3.6-3.1-7.8-3-12
	c-0.4-8.5,2-16.8,7-23.7c4.2-6.1,11.2-9.6,18.5-9.5c3.7,0,7.4,0.8,10.9,2.3c2.1,1,4.5,0.8,6.5-0.5c3.3-2,4.4-6.3,2.4-9.6
	c-0.8-1.3-1.9-2.3-3.3-2.9c-1.8-0.8-3.7-1.4-5.6-1.8c-3.5-1-7-1.5-10.6-1.6c-11.2,0-21.9,4.9-29.1,13.6c-4.3,4.8-7.4,10.5-9.3,16.7
	l0,0c-7,22.3-16,33.1-26.9,33.1c-3.2,0.2-6.2-1.1-8.1-3.6c-1.8-2.6-2.7-5.7-2.5-8.8c-0.1-1,0-2,0.2-2.9c6.5-2.5,12.3-6.9,16.5-12.4
	c4.1-5.3,6.4-11.8,6.5-18.5c0-11.3-6.1-17-18.5-17c-8.6,0-16.9,3.4-23,9.5l7.7-35.5c0.8-3.9-1.7-7.6-5.5-8.4c-0.5-0.1-1-0.2-1.5-0.1
	c-3.4-0.1-6.3,2.3-7,5.7l-21,98c-0.8,3.8,1.6,7.6,5.5,8.4c0.5,0.1,1,0.2,1.5,0.2l0,0c3.3-0.1,6.2-2.5,6.7-5.8l6.5-30
	c1.1-4,2.6-7.9,4.5-11.5c2.4-4.2,5.6-7.9,9.5-10.8c3.9-3.4,9-5.3,14.2-5.2c2.6-0.4,5,1.4,5.4,4c0.1,0.5,0.1,0.9,0,1.4
	c-0.4,4.8-2.9,9.2-6.8,12c-4.1,3.7-9.2,6.1-14.7,7c-0.5,4.3-0.7,7.5-0.7,9.3c-0.3,7.8,1.9,15.4,6.3,21.8c4.3,5.5,11.1,8.4,18.1,7.9
	c9.6-0.1,18.7-4.6,24.6-12.2l2.7-3.2c1,2.6,2.5,5.1,4.3,7.2c4.4,5.4,11.1,8.4,18.1,8.1c9.7,0,17.9-4.5,24.6-14c2.9,9.5,9.7,14,21,14
	c6.3-0.1,12.5-2.4,17.3-6.4c4.4,4.1,10.2,6.3,16.1,6.1c9.7,0,17.8-4.5,24.6-14c2.9,9.5,9.7,14,21,14c7.2,0.1,14.1-2.6,19.4-7.5
	c4.8,5,11.4,7.7,18.3,7.5c10.8,0,21-5,27.6-13.6c8.1-9.8,12.5-22.1,12.4-34.8c0.1-5.2-0.8-10.3-2.7-15.1h18.8l-1.8,8.1
	c-2.3,9.4-3.8,19-4.5,28.7c0,17.6,7.2,26.6,21.4,26.6c16.1,0,28.2-10.9,36.8-32.3c1.5-3.2,0-7.1-3.2-8.6
	C605,350.7,604.8,350.6,604.6,350.5z M444.4,341.9c-2.5,12.4-6.5,21.5-11.1,27.4c-4.6,5.9-9.9,8.8-15.3,8.8
	c-3.2-0.1-6.1-1.8-7.7-4.5c-2-3.6-3.1-7.6-2.9-11.7c-0.4-8.5,2.1-16.8,7-23.7c6.3-9.7,19.3-12.4,29-6.1c0.9,0.6,1.8,1.3,2.7,2.1
	L444.4,341.9z M523.1,358.9c-2.2,4.7-4.9,9.1-8.1,13.1c-3.6,3.8-8.6,6-13.8,6.1c-3.5,0.2-6.8-1.3-9-4.1c-2.4-3.3-3.5-7.3-3.2-11.3
	c-0.3-8.6,2.1-17.1,7-24.2c3.9-6.1,10.6-9.7,17.9-9.7c8.1,0,12.2,5,12.2,14.9c-0.2,5.2-1.2,10.3-3,15.1H523.1z M228.1,279.8
	c-3.4-0.1-6.3,2.3-7,5.7l-21,98c-0.8,3.8,1.6,7.6,5.5,8.4c0.5,0.1,1,0.2,1.5,0.2c3.4,0.1,6.3-2.3,7-5.7l21-98
	c0.7-3.9-1.8-7.7-5.7-8.5C229,279.9,228.6,279.8,228.1,279.8z M77.9,258.1c-28.4,0.1-51.4,23.1-51.5,51.5c0,5.7,0.9,11.3,2.7,16.7
	c1.3,3.7,5.3,5.6,9,4.5c3.6-1.4,5.6-5.3,4.4-9c-1.5-4.2-2.2-8.7-2-13.1c0.6-20.5,17.7-36.6,38.2-36s36.6,17.7,36,38.2
	c-0.6,19.2-15.7,34.8-34.9,36c0,0-7.2,0.5-10.8,0.9c-1.3,0.2-2.6,0.4-3.9,0.8c-0.2,0.2-0.5,0.1-0.7-0.1c-0.1-0.2-0.1-0.4,0-0.6
	l1.1-6.1l6.8-30.7c0.8-3.8-1.6-7.6-5.4-8.4s-7.6,1.6-8.4,5.4c0,0-16.1,75-16.1,75.7c-0.9,3.7,1.3,7.4,5,8.3c0.1,0,0.3,0.1,0.4,0.1
	c3.7,0.9,7.4-1.4,8.3-5.1c0-0.1,0.1-0.2,0.1-0.3c0.2-0.9,2.3-10.9,2.3-10.9c1.5-7.5,7.6-13.2,15.1-14.4c1.6-0.2,8.1-0.7,8.1-0.7
	c28.3-2.6,49.1-27.7,46.5-56C125.8,278.7,104.2,258.6,77.9,258.1z"/>
<path class="st1" d="M619.6,376.7c-4.7-0.9-9.2,2.1-10.2,6.7c0,0,0,0,0,0c-1,4.6,1.9,9.1,6.5,10.1c0.1,0,0.2,0,0.2,0
	c4.5,1,9-1.8,10.1-6.3c0-0.2,0.1-0.3,0.1-0.5C627.1,382.2,624.1,377.8,619.6,376.7z"/>
</svg>
