<svg xmlns="http://www.w3.org/2000/svg" role="img" viewBox="-2.52 -2.52 130.91 53.91"><path fill="#00E8C1" d="M95.841 22.602V8.536h3.656v10.617h5.112v3.48h-8.768v-.031zm10.168 0V8.536h3.656v14.067h-3.656zM56 39.435V24.803l7.368 7.703 7.368-7.703v14.632H67.31V33.07l-3.941 4.193-3.941-4.193v6.365H56zm17.422 0V25.368h3.656v14.067h-3.656zm6.283 0V24.803l8.911 7.613v-7.049h3.513V40l-8.911-7.673v7.108h-3.513zm17.307 0V28.818h-3.627v-3.48h10.853v3.48h-3.541v10.617h-3.685zm21.934-20.015c-1.805.015-3.357-1.324-3.672-3.167-.315-1.844.699-3.654 2.399-4.283s3.59.107 4.471 1.741H126c-.924-3.712-4.365-6.133-8.032-5.649s-6.415 3.719-6.415 7.553 2.749 7.07 6.415 7.553 7.108-1.937 8.032-5.649h-3.855c-.672 1.17-1.885 1.891-3.199 1.901zM76.877 8.536v8.327c.015.889-.433 1.717-1.173 2.166-.74.449-1.656.449-2.395 0-.74-.449-1.188-1.277-1.173-2.166V8.536h-3.684v8.03c-.116 1.742.51 3.449 1.714 4.669 2.505 2.14 6.12 2.14 8.625 0 1.203-1.221 1.83-2.928 1.714-4.669v-8.03h-3.628zm-11.48 1.219c-.863-.761-1.952-1.191-3.084-1.22H56v14.067h3.656V18.53h2.656c1.215-.017 2.374-.53 3.227-1.427.965-.914 1.506-2.214 1.485-3.569.024-1.448-.572-2.831-1.627-3.779zm-3.428 5.293h-2.285v-3.063h2.285c.816 0 1.477.686 1.477 1.532s-.661 1.532-1.477 1.531zm29.246-.088c1.09-.471 1.776-1.602 1.714-2.825.032-.967-.344-1.901-1.029-2.558-.688-.69-1.614-1.066-2.57-1.041h-6.254v14.067h6.74c1.082.036 2.132-.382 2.913-1.16.79-.778 1.217-1.873 1.171-3.002.097-1.703-1.062-3.206-2.685-3.481zm-4.485-3.331h1.857c.615.068 1.082.607 1.082 1.249 0 .642-.467 1.181-1.082 1.249H86.73v-2.498zm2.486 7.821H86.73v-2.676h2.485c.659.073 1.154.656 1.142 1.343-.001.679-.491 1.251-1.141 1.333zm-64.619-1.387c2.594-.01 4.938 1.545 5.937 3.938 1 2.394.457 5.154-1.373 6.991s-4.589 2.39-6.986 1.4c-2.397-.99-3.961-3.328-3.961-5.922-.006-3.531 2.851-6.399 6.383-6.407zm0-18.063C14.679-.039 5.716 5.906 1.893 15.057S.143 34.762 7.142 41.789s17.544 9.141 26.711 5.354C43.02 43.357 49 34.418 49 24.5c.016-6.486-2.547-12.712-7.124-17.307S31.082.01 24.597 0z"/></svg>