<svg id="splitsvg" version="1.1" xmlns="http://www.w3.org/2000/svg" xmlns:xlink="http://www.w3.org/1999/xlink" width="1380" height="704"><g id="svgg"><path id="path0" d="M166.989 8.252 C 138.173 11.178,113.545 25.072,96.693 47.910 C 92.568 53.500,87.394 62.776,84.983 68.905 L 83.786 71.949 80.460 72.824 C 40.204 83.409,19.791 127.430,37.841 164.734 C 46.876 183.407,63.367 196.966,82.391 201.361 L 85.507 202.081 203.221 202.173 C 309.347 202.256,321.156 202.215,323.188 201.758 C 351.035 195.499,368.585 174.712,368.585 147.987 C 368.585 125.960,357.069 107.695,337.414 98.549 L 333.751 96.844 333.185 93.591 C 326.017 52.332,286.402 25.453,245.134 33.847 C 243.476 34.185,242.067 34.461,242.004 34.461 C 241.941 34.461,240.834 33.504,239.544 32.336 C 226.315 20.352,208.118 11.840,189.586 8.967 C 185.506 8.334,170.768 7.868,166.989 8.252 M186.312 16.601 C 206.169 19.212,223.362 27.506,237.602 41.344 L 239.616 43.301 243.077 42.412 C 261.843 37.592,280.798 40.684,296.618 51.146 C 312.350 61.550,323.230 78.744,325.608 96.959 C 325.827 98.632,326.096 100.632,326.207 101.404 L 326.409 102.808 329.791 104.001 C 372.596 119.100,370.635 179.206,326.892 192.862 C 321.169 194.649,327.495 194.567,203.382 194.455 L 87.762 194.351 84.638 193.630 C 57.115 187.273,36.888 159.752,39.288 131.923 C 41.620 104.871,60.436 84.506,87.983 79.219 L 89.815 78.868 90.526 76.712 C 103.629 37.002,144.828 11.148,186.312 16.601 M171.659 35.307 C 158.838 36.106,146.332 40.366,135.932 47.478 L 133.539 49.114 154.370 49.197 C 165.827 49.243,184.585 49.243,196.055 49.197 L 216.908 49.114 213.366 46.743 C 201.550 38.833,185.535 34.442,171.659 35.307 M255.717 59.783 C 252.511 60.189,248.778 60.994,245.920 61.896 L 242.725 62.905 243.665 63.667 C 244.505 64.348,253.480 70.375,268.438 80.304 C 271.272 82.185,274.388 84.266,275.362 84.928 C 276.337 85.590,282.697 89.831,289.497 94.354 C 296.296 98.876,302.883 103.265,304.133 104.106 C 307.089 106.096,307.047 106.114,306.788 102.979 C 304.609 76.585,280.964 56.587,255.717 59.783 M132.367 85.829 L 132.367 110.789 133.736 110.788 C 145.112 110.775,163.987 104.550,176.760 96.598 C 189.249 88.823,205.736 71.153,209.336 61.684 L 209.646 60.870 171.007 60.870 L 132.367 60.870 132.367 85.829 M117.259 66.506 C 111.619 74.895,107.202 86.101,106.150 94.686 L 105.972 96.135 113.131 100.859 L 120.290 105.583 120.375 94.636 C 120.421 88.615,120.421 78.808,120.375 72.843 L 120.290 61.997 117.259 66.506 M225.765 88.548 L 225.765 110.789 259.163 110.789 C 277.531 110.789,292.423 110.667,292.254 110.519 C 292.086 110.370,278.035 101.003,261.031 89.704 C 244.026 78.404,229.316 68.622,228.341 67.966 C 227.367 67.310,226.389 66.668,226.167 66.540 C 225.847 66.354,225.765 70.845,225.765 88.548 M212.521 79.034 C 210.845 81.393,203.535 89.837,202.057 91.121 C 201.368 91.719,199.528 93.421,197.967 94.903 C 192.863 99.748,184.492 105.974,178.950 109.046 L 176.096 110.628 194.862 110.711 C 205.184 110.757,213.679 110.743,213.742 110.681 C 213.804 110.619,213.817 103.104,213.771 93.980 L 213.688 77.392 212.521 79.034 M88.084 99.030 C 87.907 99.089,86.555 99.512,85.081 99.972 C 79.654 101.664,73.856 105.230,69.901 109.308 L 68.465 110.789 87.567 110.789 L 106.669 110.789 97.715 104.831 C 92.791 101.554,88.682 98.884,88.584 98.898 C 88.486 98.912,88.261 98.972,88.084 99.030 M318.841 147.798 C 318.841 173.847,318.857 174.557,319.451 174.557 C 324.197 174.557,332.980 168.840,336.767 163.285 C 347.430 147.645,338.227 124.314,320.191 121.267 L 318.841 121.038 318.841 147.798 M60.904 123.284 C 57.653 129.360,58.369 146.848,62.117 152.913 C 62.334 153.264,81.405 140.931,94.525 131.956 C 95.588 131.228,99.138 128.851,102.415 126.672 L 108.374 122.711 84.794 122.708 C 62.424 122.705,61.198 122.735,60.904 123.284 M149.919 126.082 C 152.754 127.930,156.667 130.533,158.615 131.865 C 160.564 133.198,164.208 135.631,166.715 137.273 C 173.900 141.979,183.875 148.600,185.990 150.067 C 188.796 152.012,212.607 167.796,213.280 168.156 C 213.821 168.446,213.849 167.354,213.849 145.583 L 213.849 122.705 179.308 122.713 L 144.767 122.721 149.919 126.082 M225.765 145.560 L 225.765 168.414 232.172 164.159 C 235.696 161.818,240.001 158.961,241.739 157.810 C 243.477 156.659,248.818 153.092,253.609 149.883 C 258.399 146.675,263.333 143.431,264.573 142.676 C 265.813 141.920,266.900 141.200,266.989 141.076 C 267.151 140.848,290.903 125.088,293.156 123.712 C 293.820 123.307,294.364 122.914,294.364 122.840 C 294.364 122.766,278.929 122.705,260.064 122.705 L 225.765 122.705 225.765 145.560 M132.367 151.847 L 132.367 175.201 167.359 175.201 L 202.351 175.201 201.095 174.302 C 200.404 173.807,188.969 166.179,175.684 157.351 C 162.399 148.523,147.218 138.418,141.948 134.896 L 132.367 128.493 132.367 151.847 M301.127 132.599 C 298.027 134.686,293.390 137.783,290.821 139.480 C 288.253 141.178,284.554 143.642,282.602 144.955 C 280.650 146.268,269.678 153.575,258.220 161.192 L 237.387 175.040 272.047 175.122 C 291.110 175.167,306.757 175.154,306.818 175.093 C 306.879 175.032,306.891 164.592,306.846 151.893 L 306.763 128.805 301.127 132.599 M104.177 139.805 C 95.326 145.667,87.142 151.114,85.990 151.910 C 84.839 152.705,80.595 155.542,76.559 158.214 L 69.222 163.071 70.279 164.174 C 78.517 172.762,86.987 175.201,108.569 175.201 L 120.451 175.201 120.451 152.174 C 120.451 139.509,120.410 129.147,120.360 129.147 C 120.310 129.147,113.028 133.943,104.177 139.805 M244.444 272.303 L 244.444 312.721 250.077 312.721 L 255.709 312.721 255.793 300.242 L 255.878 287.762 262.596 287.675 L 269.315 287.587 270.648 288.964 C 271.381 289.721,274.747 293.311,278.127 296.942 C 281.508 300.572,286.204 305.608,288.563 308.132 L 292.852 312.721 299.566 312.721 L 306.280 312.721 306.280 311.935 C 306.280 311.348,303.078 307.671,293.639 297.418 C 286.687 289.866,280.721 283.343,280.382 282.921 L 279.766 282.154 282.315 279.387 C 283.716 277.865,286.240 275.118,287.923 273.282 C 296.171 264.283,300.896 259.154,303.462 256.415 C 305.397 254.350,306.280 253.164,306.280 252.630 L 306.280 251.852 299.547 251.852 L 292.813 251.852 288.330 256.602 C 285.865 259.215,280.623 264.795,276.683 269.002 L 269.519 276.651 262.618 276.651 L 255.717 276.651 255.717 254.267 L 255.717 231.884 250.081 231.884 L 244.444 231.884 244.444 272.303 M314.010 274.879 L 314.010 312.721 319.805 312.721 L 325.601 312.721 325.683 282.545 L 325.765 252.368 333.451 261.369 C 337.678 266.320,343.106 272.689,345.512 275.523 C 347.919 278.357,351.930 283.068,354.427 285.990 C 356.924 288.913,361.500 294.275,364.597 297.907 C 367.693 301.538,371.803 306.357,373.730 308.615 L 377.233 312.721 383.947 312.721 L 390.660 312.721 390.660 274.879 L 390.660 237.037 385.024 237.037 L 379.388 237.037 379.388 267.150 C 379.388 285.439,379.271 297.262,379.089 297.262 C 378.925 297.262,378.478 296.864,378.096 296.377 C 377.714 295.890,374.312 291.868,370.536 287.440 C 353.556 267.526,345.560 258.143,338.969 250.396 C 335.072 245.816,330.893 240.936,329.681 239.553 L 327.477 237.037 320.744 237.037 L 314.010 237.037 314.010 274.879 M9.340 275.040 L 9.340 312.721 15.137 312.721 L 20.934 312.721 20.934 299.114 L 20.934 285.507 35.238 285.594 L 49.543 285.681 52.700 289.459 C 54.436 291.537,57.601 295.266,59.732 297.746 C 61.863 300.225,65.612 304.610,68.061 307.488 L 72.516 312.721 79.253 312.721 L 85.990 312.721 85.990 311.929 C 85.990 311.377,84.633 309.547,81.512 305.890 C 79.048 303.005,74.202 297.311,70.742 293.237 L 64.452 285.829 69.827 285.638 C 76.849 285.388,79.286 284.465,82.569 280.813 C 85.776 277.247,85.974 276.124,85.977 261.514 C 85.981 245.171,85.425 243.300,79.412 239.454 C 75.941 237.234,78.181 237.359,42.018 237.359 L 9.340 237.359 9.340 275.040 M73.718 249.084 C 74.753 250.020,74.784 272.720,73.752 273.752 C 72.977 274.527,23.571 274.789,22.121 274.026 C 20.951 273.410,20.944 273.336,20.939 261.322 C 20.934 248.841,20.895 249.151,22.544 248.535 C 24.097 247.954,73.050 248.479,73.718 249.084 M97.907 257.488 L 97.907 263.124 122.843 263.124 L 147.779 263.124 148.454 263.982 C 149.090 264.791,149.124 265.168,149.041 270.664 L 148.953 276.490 123.416 276.572 L 97.879 276.654 97.973 289.623 L 98.068 302.592 99.139 304.768 C 101.085 308.718,104.822 311.596,109.011 312.371 C 110.272 312.604,119.194 312.721,135.654 312.721 L 160.402 312.721 160.314 287.352 L 160.225 261.983 159.119 259.735 C 157.159 255.754,153.582 252.952,149.473 252.178 C 148.395 251.975,138.307 251.852,122.822 251.852 L 97.907 251.852 97.907 257.488 M181.159 252.306 C 177.130 253.306,173.896 255.993,172.015 259.903 L 170.853 262.319 170.853 282.126 C 170.853 301.906,170.854 301.935,171.576 303.704 C 173.033 307.277,176.137 310.381,179.710 311.838 L 181.481 312.560 207.488 312.653 L 233.494 312.747 233.494 307.098 L 233.494 301.449 208.739 301.449 C 184.182 301.449,183.977 301.444,183.135 300.782 L 182.287 300.114 182.287 282.263 C 182.287 264.842,182.302 264.397,182.931 263.768 C 183.564 263.135,184.004 263.124,208.374 263.124 L 233.172 263.124 233.172 257.488 L 233.172 251.852 207.971 251.879 C 189.067 251.900,182.367 252.006,181.159 252.306 M148.605 287.796 C 149.047 287.966,149.114 288.882,149.114 294.720 L 149.114 301.449 129.995 301.449 C 111.140 301.449,110.864 301.440,110.027 300.782 L 109.179 300.114 109.179 294.072 C 109.179 290.749,109.275 287.933,109.393 287.815 C 109.662 287.547,147.907 287.528,148.605 287.796  M -25 0 L -5 0 L -5 20 L -25 20 Z M 405 0 L 425 0 L 425 20 L 405 20 Z" stroke="none" fill="#284b64" fill-rule="evenodd" transform="translate(30,0)"></path><path id="path1" d="M0.000 161.031 L 0.000 322.061 200.000 322.061 L 400.000 322.061 400.000 161.031 L 400.000 0.000 200.000 0.000 L 0.000 0.000 0.000 161.031 M182.770 8.072 C 204.273 9.694,223.286 17.794,240.318 32.592 L 242.059 34.105 245.909 33.319 C 282.689 25.805,320.457 48.404,331.246 84.380 C 332.147 87.386,333.655 94.475,333.655 95.706 C 333.655 96.375,334.053 96.661,336.473 97.733 C 371.085 113.070,380.209 158.789,354.018 185.643 C 347.099 192.738,333.155 200.082,322.383 202.305 C 318.665 203.073,89.116 202.932,85.025 202.160 C 69.632 199.255,56.264 191.051,46.059 178.248 C 15.484 139.889,33.099 85.819,80.508 72.501 L 83.560 71.643 85.516 67.142 C 102.449 28.165,140.748 4.903,182.770 8.072 M170.370 16.293 C 158.423 17.321,151.914 18.741,143.067 22.247 C 118.351 32.043,99.783 51.264,91.134 76.006 C 90.546 77.689,90.052 79.092,90.037 79.123 C 90.022 79.154,88.163 79.554,85.905 80.011 C 40.287 89.247,23.879 144.166,56.768 177.533 C 64.745 185.625,73.759 190.692,84.863 193.324 L 87.762 194.012 203.375 194.112 C 331.483 194.222,321.283 194.386,328.064 192.117 C 358.608 181.897,370.334 146.917,351.977 120.784 C 346.867 113.510,337.734 106.795,329.098 103.963 L 325.991 102.944 325.781 100.506 C 322.299 60.128,283.211 32.543,243.775 42.632 L 239.724 43.669 236.851 40.974 C 218.515 23.776,193.090 14.337,170.370 16.293 M184.929 35.611 C 191.726 36.559,198.987 38.700,204.992 41.527 C 209.317 43.563,217.692 48.760,217.292 49.160 C 217.128 49.324,133.269 49.318,133.104 49.154 C 132.880 48.929,139.401 44.690,142.673 42.932 C 154.664 36.494,170.985 33.666,184.929 35.611 M270.048 60.050 C 288.610 64.252,302.516 78.365,306.254 96.796 C 306.982 100.388,307.240 106.167,306.666 106.045 C 306.474 106.004,301.272 102.616,295.107 98.516 C 253.498 70.846,242.351 63.350,242.351 63.040 C 242.351 62.331,248.899 60.302,253.571 59.563 C 256.274 59.135,267.470 59.466,270.048 60.050 M209.978 60.789 C 209.937 62.366,204.256 71.126,199.900 76.329 C 182.962 96.555,159.460 109.124,135.068 110.999 L 132.367 111.206 132.367 85.877 L 132.367 60.548 171.176 60.548 C 192.520 60.548,209.981 60.656,209.978 60.789 M121.095 83.770 C 121.095 101.702,121.012 106.317,120.692 106.193 C 118.012 105.151,105.636 96.190,105.636 95.291 C 105.636 91.526,108.732 81.585,111.953 75.008 C 114.881 69.028,119.901 61.192,120.803 61.192 C 120.975 61.192,121.095 70.506,121.095 83.770 M233.923 71.167 C 237.850 73.792,252.874 83.791,267.311 93.387 C 281.747 102.983,293.607 110.969,293.666 111.134 C 293.732 111.317,280.533 111.433,259.608 111.433 L 225.443 111.433 225.443 88.555 L 225.443 65.678 226.113 66.036 C 226.481 66.233,229.995 68.542,233.923 71.167 M214.093 93.961 L 214.010 111.272 194.263 111.355 C 182.671 111.404,174.590 111.319,174.695 111.149 C 174.793 110.990,176.314 110.045,178.075 109.048 C 190.148 102.212,203.380 90.605,211.272 79.928 C 212.601 78.130,213.798 76.658,213.932 76.655 C 214.066 76.653,214.139 84.440,214.093 93.961 M98.275 104.723 C 103.387 108.118,107.568 111.016,107.568 111.164 C 107.568 111.312,98.583 111.433,87.601 111.433 C 76.540 111.433,67.633 111.309,67.633 111.154 C 67.633 108.492,83.910 98.606,88.372 98.557 C 88.708 98.554,93.164 101.328,98.275 104.723 M321.532 121.285 C 343.096 126.861,349.092 155.144,331.715 169.316 C 328.284 172.114,319.761 175.808,318.514 175.037 C 318.309 174.911,318.196 165.223,318.196 147.807 L 318.196 120.773 318.875 120.773 C 319.248 120.773,320.443 121.003,321.532 121.285 M108.854 122.625 C 108.850 122.925,63.212 153.338,62.477 153.531 C 61.336 153.829,58.897 145.939,58.299 140.016 C 57.774 134.821,58.700 127.496,60.394 123.442 L 60.837 122.383 84.847 122.383 C 98.052 122.383,108.855 122.492,108.854 122.625 M214.092 145.813 C 214.138 158.611,214.103 169.082,214.015 169.082 C 213.553 169.082,144.311 122.785,144.497 122.599 C 144.617 122.479,160.307 122.417,179.363 122.462 L 214.010 122.544 214.092 145.813 M295.002 122.625 C 294.999 122.758,289.745 126.360,283.327 130.631 C 276.910 134.902,261.804 144.956,249.758 152.974 C 237.713 160.993,227.315 167.899,226.651 168.322 L 225.443 169.090 225.443 145.737 L 225.443 122.383 260.225 122.383 C 279.356 122.383,295.005 122.492,295.002 122.625 M182.678 161.640 C 193.787 169.010,202.881 175.149,202.887 175.282 C 202.894 175.415,187.029 175.523,167.633 175.523 L 132.367 175.523 132.367 151.861 L 132.367 128.199 147.424 138.220 C 155.705 143.731,171.569 154.270,182.678 161.640 M121.095 152.013 L 121.095 175.523 107.488 175.522 C 86.474 175.520,79.862 173.655,70.700 165.144 L 68.510 163.109 94.400 145.829 C 108.639 136.325,120.471 128.539,120.692 128.526 C 121.011 128.507,121.095 133.407,121.095 152.013 M307.001 151.879 C 307.047 164.736,307.025 175.315,306.951 175.389 C 306.639 175.701,236.665 175.512,236.769 175.200 C 236.877 174.876,306.233 128.572,306.679 128.527 C 306.809 128.513,306.954 139.022,307.001 151.879 M255.960 254.026 L 256.043 276.329 262.766 276.329 L 269.488 276.329 281.040 263.934 L 292.593 251.540 299.436 251.535 L 306.280 251.530 306.280 252.541 C 306.280 253.796,306.146 253.951,290.677 270.692 C 288.876 272.641,285.769 276.024,283.771 278.211 L 280.138 282.186 280.754 282.881 C 281.515 283.738,292.007 295.189,296.440 300.000 C 306.078 310.459,306.280 310.699,306.280 311.730 L 306.280 312.721 299.412 312.721 L 292.543 312.721 290.152 310.219 C 288.838 308.842,285.008 304.748,281.643 301.120 C 278.277 297.493,274.156 293.112,272.484 291.385 L 269.445 288.245 262.742 288.245 L 256.039 288.245 256.039 300.483 L 256.039 312.721 250.081 312.721 L 244.122 312.721 244.122 272.134 L 244.122 231.547 250.000 231.635 L 255.878 231.723 255.960 254.026 M77.999 238.380 C 81.317 239.965,83.140 241.707,84.626 244.715 L 85.829 247.149 85.829 261.504 L 85.829 275.859 84.768 278.016 C 83.379 280.835,81.380 282.788,78.344 284.290 L 75.882 285.507 70.469 285.615 C 67.492 285.674,65.059 285.819,65.062 285.937 C 65.065 286.055,68.342 289.992,72.344 294.686 C 86.355 311.119,85.990 310.664,85.990 311.742 L 85.990 312.734 79.009 312.647 L 72.028 312.560 70.072 310.295 C 68.996 309.049,65.435 304.863,62.158 300.992 C 58.881 297.121,55.098 292.687,53.751 291.140 C 52.405 289.592,50.821 287.726,50.233 286.994 L 49.162 285.662 35.129 285.745 L 21.095 285.829 21.011 299.275 L 20.927 312.721 15.133 312.721 L 9.340 312.721 9.340 274.872 L 9.340 237.022 42.432 237.110 L 75.523 237.198 77.999 238.380 M331.527 241.227 C 333.435 243.531,335.170 245.596,335.384 245.816 C 335.597 246.036,337.124 247.810,338.776 249.758 C 340.429 251.707,343.639 255.475,345.909 258.132 C 348.180 260.789,352.380 265.717,355.241 269.082 C 358.103 272.448,361.500 276.433,362.790 277.939 C 364.080 279.444,368.234 284.300,372.020 288.728 L 378.905 296.779 378.987 266.908 L 379.069 237.037 385.026 237.037 L 390.982 237.037 390.982 274.879 L 390.982 312.721 383.908 312.721 L 376.835 312.721 374.442 309.903 C 365.374 299.224,361.494 294.670,358.458 291.143 C 356.552 288.929,354.576 286.612,354.066 285.993 C 353.557 285.375,349.662 280.794,345.411 275.815 C 341.159 270.835,335.000 263.613,331.723 259.766 L 325.765 252.771 325.683 282.746 L 325.601 312.721 319.805 312.721 L 314.010 312.721 314.010 274.879 L 314.010 237.037 321.035 237.037 L 328.060 237.037 331.527 241.227 M22.239 249.088 C 21.011 249.773,20.981 250.066,20.957 261.551 C 20.935 272.033,20.955 272.404,21.601 273.225 L 22.269 274.074 47.608 274.069 C 61.544 274.066,73.106 273.958,73.301 273.828 C 74.301 273.160,74.396 272.072,74.396 261.248 C 74.396 250.962,74.360 250.268,73.781 249.553 L 73.165 248.792 48.096 248.720 C 27.402 248.660,22.890 248.724,22.239 249.088 M150.254 252.030 C 153.764 252.944,157.259 255.588,158.871 258.551 C 160.722 261.951,160.709 261.734,160.709 288.312 L 160.709 312.721 134.978 312.721 C 110.261 312.721,109.166 312.696,107.200 312.085 C 103.345 310.887,100.423 308.293,98.640 304.486 L 97.746 302.576 97.651 289.452 L 97.557 276.329 123.175 276.329 L 148.792 276.329 148.792 270.567 C 148.792 265.555,148.719 264.717,148.229 264.123 L 147.665 263.440 122.705 263.362 L 97.746 263.285 97.658 257.407 L 97.570 251.530 122.952 251.530 C 144.853 251.530,148.598 251.598,150.254 252.030 M233.333 257.488 L 233.333 263.285 208.307 263.446 C 183.754 263.604,183.271 263.619,182.794 264.251 C 181.910 265.421,182.059 299.141,182.953 300.277 L 183.619 301.123 208.637 301.206 L 233.655 301.288 233.743 307.012 L 233.831 312.736 207.334 312.648 L 180.837 312.560 178.672 311.535 C 175.663 310.109,173.520 308.006,172.053 305.038 L 170.853 302.610 170.853 282.136 L 170.853 261.661 171.925 259.484 C 173.718 255.842,177.485 252.767,181.241 251.878 C 181.905 251.721,193.897 251.615,207.890 251.642 L 233.333 251.691 233.333 257.488 M109.501 294.042 C 109.501 302.076,106.783 301.127,129.791 301.127 L 148.792 301.127 148.792 294.686 L 148.792 288.245 129.147 288.245 L 109.501 288.245 109.501 294.042  M -25 0 L -5 0 L -5 20 L -25 20 Z M 405 0 L 425 0 L 425 20 L 405 20 Z" stroke="none" fill="#fbfbfb" fill-rule="evenodd" transform="translate(490,0)"></path><path id="path2" d="M173.994 7.964 C 174.658 8.034,175.745 8.034,176.409 7.964 C 177.073 7.895,176.530 7.838,175.201 7.838 C 173.873 7.838,173.329 7.895,173.994 7.964 M204.831 12.506 C 205.097 12.670,205.676 12.901,206.119 13.020 C 206.679 13.170,206.777 13.144,206.441 12.937 C 206.176 12.773,205.596 12.541,205.153 12.423 C 204.593 12.273,204.495 12.299,204.831 12.506 M173.523 16.020 C 174.637 16.083,176.376 16.082,177.388 16.019 C 178.399 15.955,177.488 15.903,175.362 15.904 C 173.237 15.905,172.409 15.957,173.523 16.020 M167.395 16.331 C 167.796 16.408,168.375 16.405,168.683 16.324 C 168.991 16.244,168.663 16.181,167.955 16.184 C 167.246 16.188,166.994 16.254,167.395 16.331 M182.045 16.325 C 182.355 16.406,182.862 16.406,183.172 16.325 C 183.482 16.244,183.229 16.178,182.609 16.178 C 181.989 16.178,181.735 16.244,182.045 16.325 M135.829 24.980 C 134.634 25.594,133.655 26.168,133.655 26.256 C 133.655 26.400,138.132 24.257,138.459 23.956 C 138.900 23.551,137.711 24.014,135.829 24.980 M240.097 32.850 C 240.788 33.559,241.427 34.138,241.516 34.138 C 241.604 34.138,241.111 33.559,240.419 32.850 C 239.727 32.142,239.088 31.562,239.000 31.562 C 238.911 31.562,239.405 32.142,240.097 32.850 M109.179 33.655 C 108.396 34.452,107.829 35.105,107.917 35.105 C 108.006 35.105,108.719 34.452,109.501 33.655 C 110.283 32.858,110.851 32.206,110.762 32.206 C 110.674 32.206,109.961 32.858,109.179 33.655 M254.026 32.433 C 254.424 32.510,255.076 32.510,255.475 32.433 C 255.874 32.357,255.548 32.294,254.750 32.294 C 253.953 32.294,253.627 32.357,254.026 32.433 M265.302 32.434 C 265.702 32.511,266.282 32.508,266.590 32.427 C 266.898 32.347,266.570 32.284,265.862 32.287 C 265.153 32.291,264.901 32.357,265.302 32.434 M102.878 40.016 L 101.932 41.063 102.979 40.117 C 103.955 39.235,104.174 38.969,103.925 38.969 C 103.870 38.969,103.399 39.440,102.878 40.016 M111.910 42.271 L 109.018 45.250 111.997 42.358 C 114.764 39.672,115.122 39.291,114.889 39.291 C 114.841 39.291,113.500 40.632,111.910 42.271 M237.350 41.304 C 238.673 42.685,239.672 43.465,240.087 43.441 C 240.733 43.404,240.733 43.402,240.097 43.251 C 239.742 43.167,238.510 42.206,237.359 41.115 L 235.266 39.130 237.350 41.304 M254.187 40.480 C 254.497 40.561,255.004 40.561,255.314 40.480 C 255.624 40.399,255.370 40.332,254.750 40.332 C 254.130 40.332,253.877 40.399,254.187 40.480 M265.459 40.480 C 265.769 40.561,266.276 40.561,266.586 40.480 C 266.896 40.399,266.643 40.332,266.023 40.332 C 265.403 40.332,265.149 40.399,265.459 40.480 M309.179 50.725 C 309.780 51.345,310.344 51.852,310.432 51.852 C 310.521 51.852,310.102 51.345,309.501 50.725 C 308.900 50.105,308.336 49.597,308.247 49.597 C 308.159 49.597,308.578 50.105,309.179 50.725 M307.085 59.903 C 307.777 60.612,308.416 61.192,308.504 61.192 C 308.593 61.192,308.099 60.612,307.407 59.903 C 306.716 59.195,306.077 58.615,305.988 58.615 C 305.900 58.615,306.393 59.195,307.085 59.903 M87.907 61.867 C 87.537 62.593,87.289 63.242,87.356 63.309 C 87.424 63.377,87.794 62.783,88.180 61.990 C 89.058 60.183,88.820 60.076,87.907 61.867 M151.610 60.789 C 162.283 60.836,179.746 60.836,190.419 60.789 C 201.091 60.742,192.359 60.703,171.014 60.703 C 149.670 60.703,140.938 60.742,151.610 60.789 M309.179 62.259 C 309.179 62.314,309.650 62.785,310.225 63.305 L 311.272 64.251 310.326 63.205 C 309.444 62.229,309.179 62.010,309.179 62.259 M197.728 78.502 L 196.618 79.710 197.826 78.600 C 198.950 77.567,199.182 77.295,198.936 77.295 C 198.882 77.295,198.339 77.838,197.728 78.502 M52.801 87.520 L 51.691 88.728 52.899 87.618 C 54.023 86.585,54.254 86.312,54.008 86.312 C 53.955 86.312,53.411 86.856,52.801 87.520 M55.547 96.055 L 53.301 98.390 55.636 96.144 C 57.805 94.058,58.118 93.720,57.882 93.720 C 57.833 93.720,56.782 94.771,55.547 96.055 M325.926 101.752 C 325.926 102.273,326.041 102.770,326.181 102.857 C 326.321 102.944,326.377 102.517,326.306 101.910 C 326.148 100.556,325.926 100.464,325.926 101.752 M136.312 110.689 C 136.622 110.770,137.130 110.770,137.440 110.689 C 137.750 110.608,137.496 110.542,136.876 110.542 C 136.256 110.542,136.002 110.608,136.312 110.689 M132.931 111.016 C 133.329 111.093,133.981 111.093,134.380 111.016 C 134.779 110.940,134.452 110.877,133.655 110.877 C 132.858 110.877,132.532 110.940,132.931 111.016 M348.148 116.043 C 348.148 116.098,348.619 116.569,349.195 117.090 L 350.242 118.035 349.296 116.989 C 348.414 116.013,348.148 115.794,348.148 116.043 M31.315 129.791 C 31.315 130.411,31.381 130.664,31.462 130.354 C 31.543 130.044,31.543 129.537,31.462 129.227 C 31.381 128.917,31.315 129.171,31.315 129.791 M31.040 136.554 C 31.040 138.591,31.092 139.424,31.156 138.406 C 31.220 137.387,31.220 135.721,31.156 134.702 C 31.092 133.684,31.040 134.517,31.040 136.554 M39.080 136.393 C 39.081 137.810,39.138 138.350,39.206 137.592 C 39.274 136.835,39.273 135.675,39.204 135.016 C 39.134 134.356,39.079 134.976,39.080 136.393 M144.283 136.349 C 144.283 136.438,144.718 136.820,145.250 137.198 C 145.781 137.576,146.216 137.814,146.216 137.725 C 146.216 137.636,145.781 137.254,145.250 136.876 C 144.718 136.498,144.283 136.260,144.283 136.349 M368.887 147.987 C 368.888 150.467,368.938 151.439,368.999 150.147 C 369.061 148.855,369.060 146.826,368.999 145.638 C 368.937 144.450,368.887 145.507,368.887 147.987 M360.783 145.572 C 360.783 146.192,360.850 146.445,360.931 146.135 C 361.012 145.825,361.012 145.318,360.931 145.008 C 360.850 144.698,360.783 144.952,360.783 145.572 M360.783 150.081 C 360.783 150.700,360.850 150.954,360.931 150.644 C 361.012 150.334,361.012 149.827,360.931 149.517 C 360.850 149.207,360.783 149.461,360.783 150.081 M43.823 158.937 C 43.823 159.114,44.030 159.622,44.283 160.064 C 44.537 160.507,44.744 160.725,44.744 160.548 C 44.744 160.370,44.537 159.863,44.283 159.420 C 44.030 158.977,43.823 158.760,43.823 158.937 M167.311 175.201 L 132.206 175.367 167.391 175.445 C 190.686 175.497,202.576 175.415,202.576 175.201 C 202.576 175.024,202.540 174.914,202.496 174.958 C 202.452 175.001,186.618 175.110,167.311 175.201 M56.844 178.100 C 57.716 178.986,58.502 179.710,58.591 179.710 C 58.679 179.710,58.038 178.986,57.166 178.100 C 56.294 177.214,55.507 176.490,55.419 176.490 C 55.330 176.490,55.971 177.214,56.844 178.100 M51.369 184.219 C 52.061 184.928,52.699 185.507,52.788 185.507 C 52.876 185.507,52.383 184.928,51.691 184.219 C 50.999 183.510,50.360 182.931,50.272 182.931 C 50.183 182.931,50.677 183.510,51.369 184.219 M353.131 186.232 L 350.886 188.567 353.221 186.321 C 355.389 184.235,355.703 183.897,355.466 183.897 C 355.417 183.897,354.367 184.948,353.131 186.232 M90.258 194.425 C 90.568 194.506,91.075 194.506,91.385 194.425 C 91.695 194.344,91.441 194.278,90.821 194.278 C 90.201 194.278,89.948 194.344,90.258 194.425 M147.075 202.496 C 178.812 202.541,230.841 202.541,262.695 202.496 C 294.549 202.451,268.583 202.414,204.992 202.414 C 141.401 202.414,115.338 202.451,147.075 202.496 M244.279 272.303 C 244.279 294.622,244.317 303.705,244.364 292.487 C 244.411 281.270,244.411 263.009,244.364 251.907 C 244.317 240.806,244.278 249.984,244.279 272.303 M25.548 237.279 C 34.551 237.326,49.189 237.326,58.076 237.279 C 66.964 237.231,59.597 237.192,41.707 237.192 C 23.816 237.192,16.545 237.231,25.548 237.279 M379.145 266.958 L 379.066 297.040 378.341 296.439 L 377.617 295.837 378.332 296.612 C 378.726 297.039,379.125 297.310,379.220 297.216 C 379.314 297.122,379.354 283.507,379.308 266.960 L 379.224 236.876 379.145 266.958 M35.185 248.551 C 42.049 248.599,53.281 248.599,60.145 248.551 C 67.009 248.502,61.393 248.462,47.665 248.462 C 33.937 248.462,28.321 248.502,35.185 248.551 M97.718 257.488 C 97.718 260.676,97.766 261.937,97.825 260.290 C 97.883 258.642,97.883 256.034,97.824 254.493 C 97.765 252.952,97.717 254.300,97.718 257.488 M233.305 257.327 C 233.305 260.427,233.353 261.695,233.412 260.145 C 233.471 258.595,233.471 256.059,233.412 254.509 C 233.353 252.959,233.305 254.227,233.305 257.327 M290.650 253.865 L 288.728 255.878 290.741 253.955 C 291.848 252.898,292.754 251.992,292.754 251.942 C 292.754 251.704,292.436 251.995,290.650 253.865 M325.604 252.597 C 325.604 252.652,326.075 253.123,326.651 253.643 L 327.697 254.589 326.751 253.543 C 325.870 252.567,325.604 252.348,325.604 252.597 M302.093 257.810 C 301.311 258.607,300.744 259.259,300.832 259.259 C 300.921 259.259,301.633 258.607,302.415 257.810 C 303.198 257.013,303.765 256.361,303.677 256.361 C 303.588 256.361,302.876 257.013,302.093 257.810 M285.668 259.098 C 284.886 259.895,284.318 260.548,284.407 260.548 C 284.496 260.548,285.208 259.895,285.990 259.098 C 286.773 258.301,287.340 257.649,287.252 257.649 C 287.163 257.649,286.451 258.301,285.668 259.098 M298.375 261.916 L 297.101 263.285 298.470 262.012 C 299.743 260.828,299.987 260.548,299.743 260.548 C 299.691 260.548,299.075 261.163,298.375 261.916 M281.470 263.688 L 279.710 265.539 281.562 263.779 C 283.282 262.144,283.561 261.836,283.322 261.836 C 283.272 261.836,282.439 262.669,281.470 263.688 M335.266 263.869 C 335.266 263.924,335.737 264.395,336.312 264.916 L 337.359 265.862 336.413 264.815 C 335.531 263.839,335.266 263.620,335.266 263.869 M160.540 288.406 C 160.540 301.868,160.579 307.328,160.628 300.540 C 160.676 293.751,160.676 282.737,160.628 276.063 C 160.579 269.389,160.540 274.944,160.540 288.406 M148.865 270.449 L 148.792 276.325 123.269 276.407 L 97.746 276.490 97.740 288.889 L 97.734 301.288 97.824 288.969 L 97.914 276.651 123.363 276.651 C 143.797 276.651,148.844 276.569,148.971 276.237 C 149.059 276.009,149.087 273.292,149.034 270.198 L 148.937 264.573 148.865 270.449 M337.198 266.123 C 337.198 266.179,337.669 266.650,338.245 267.170 L 339.291 268.116 338.346 267.069 C 337.464 266.094,337.198 265.875,337.198 266.123 M277.122 268.357 L 275.523 270.048 277.214 268.450 C 278.144 267.571,278.905 266.810,278.905 266.759 C 278.905 266.519,278.607 266.786,277.122 268.357 M290.821 270.048 C 290.039 270.845,289.471 271.498,289.560 271.498 C 289.648 271.498,290.361 270.845,291.143 270.048 C 291.926 269.251,292.493 268.599,292.405 268.599 C 292.316 268.599,291.604 269.251,290.821 270.048 M272.464 273.269 C 271.681 274.066,271.114 274.718,271.202 274.718 C 271.291 274.718,272.004 274.066,272.786 273.269 C 273.568 272.472,274.136 271.820,274.047 271.820 C 273.959 271.820,273.246 272.472,272.464 273.269 M287.419 273.833 L 286.473 274.879 287.520 273.933 C 288.096 273.413,288.567 272.942,288.567 272.887 C 288.567 272.638,288.301 272.857,287.419 273.833 M259.000 276.569 C 260.894 276.625,264.083 276.626,266.085 276.569 C 268.088 276.512,266.538 276.466,262.641 276.466 C 258.744 276.466,257.105 276.512,259.000 276.569 M283.414 278.100 C 282.632 278.897,282.064 279.549,282.153 279.549 C 282.241 279.549,282.954 278.897,283.736 278.100 C 284.518 277.303,285.086 276.651,284.997 276.651 C 284.909 276.651,284.196 277.303,283.414 278.100 M280.820 281.079 L 279.710 282.287 280.918 281.177 C 282.042 280.144,282.274 279.871,282.028 279.871 C 281.974 279.871,281.430 280.415,280.820 281.079 M81.949 281.562 L 80.676 282.931 82.045 281.658 C 83.318 280.474,83.562 280.193,83.318 280.193 C 83.266 280.193,82.650 280.809,81.949 281.562 M281.643 284.380 C 282.515 285.266,283.301 285.990,283.390 285.990 C 283.478 285.990,282.837 285.266,281.965 284.380 C 281.092 283.494,280.306 282.770,280.217 282.770 C 280.129 282.770,280.770 283.494,281.643 284.380 M285.346 288.406 C 285.947 289.026,286.511 289.533,286.600 289.533 C 286.688 289.533,286.269 289.026,285.668 288.406 C 285.067 287.786,284.503 287.279,284.415 287.279 C 284.326 287.279,284.745 287.786,285.346 288.406 M109.389 287.842 C 109.254 288.061,123.834 288.058,141.707 287.835 C 145.515 287.787,139.835 287.715,129.085 287.675 C 118.335 287.634,109.472 287.709,109.389 287.842 M255.927 287.842 C 255.844 287.975,257.828 288.046,260.336 288.000 C 268.635 287.849,269.491 287.729,262.740 287.665 C 259.075 287.629,256.009 287.709,255.927 287.842 M148.724 294.686 C 148.673 298.406,148.740 301.450,148.873 301.450 C 149.006 301.449,149.114 298.406,149.114 294.686 C 149.114 290.966,149.047 287.923,148.966 287.923 C 148.884 287.923,148.775 290.966,148.724 294.686 M270.531 289.050 C 271.132 289.670,271.696 290.177,271.785 290.177 C 271.874 290.177,271.454 289.670,270.853 289.050 C 270.253 288.430,269.688 287.923,269.600 287.923 C 269.511 287.923,269.931 288.430,270.531 289.050 M289.197 292.512 C 289.987 293.353,290.676 294.042,290.727 294.042 C 290.969 294.042,290.713 293.753,289.291 292.418 L 287.762 290.982 289.197 292.512 M274.074 292.915 C 274.675 293.535,275.239 294.042,275.328 294.042 C 275.416 294.042,274.997 293.535,274.396 292.915 C 273.795 292.295,273.231 291.787,273.143 291.787 C 273.054 291.787,273.473 292.295,274.074 292.915 M292.432 296.135 C 293.032 296.755,293.597 297.262,293.685 297.262 C 293.774 297.262,293.355 296.755,292.754 296.135 C 292.153 295.515,291.589 295.008,291.500 295.008 C 291.411 295.008,291.831 295.515,292.432 296.135 M279.227 298.390 C 280.189 299.364,281.049 300.161,281.137 300.161 C 281.226 300.161,280.511 299.364,279.549 298.390 C 278.587 297.415,277.727 296.618,277.639 296.618 C 277.550 296.618,278.265 297.415,279.227 298.390 M59.903 298.329 C 59.903 298.385,60.374 298.856,60.950 299.376 L 61.997 300.322 61.051 299.275 C 60.169 298.300,59.903 298.081,59.903 298.329 M295.330 299.296 C 295.330 299.351,295.801 299.822,296.377 300.342 L 297.424 301.288 296.478 300.242 C 295.596 299.266,295.330 299.047,295.330 299.296 M283.414 302.899 C 284.015 303.519,284.579 304.026,284.667 304.026 C 284.756 304.026,284.337 303.519,283.736 302.899 C 283.135 302.279,282.571 301.771,282.482 301.771 C 282.394 301.771,282.813 302.279,283.414 302.899 M300.000 304.348 C 300.692 305.056,301.330 305.636,301.419 305.636 C 301.508 305.636,301.014 305.056,300.322 304.348 C 299.630 303.639,298.992 303.060,298.903 303.060 C 298.815 303.060,299.308 303.639,300.000 304.348 M99.810 306.548 C 99.984 306.873,100.379 307.344,100.688 307.595 C 101.036 307.877,100.958 307.653,100.484 307.005 C 99.638 305.849,99.321 305.635,99.810 306.548 M288.084 307.890 C 288.776 308.599,289.414 309.179,289.503 309.179 C 289.591 309.179,289.098 308.599,288.406 307.890 C 287.714 307.182,287.075 306.602,286.987 306.602 C 286.898 306.602,287.392 307.182,288.084 307.890 M303.368 307.971 C 304.158 308.812,304.846 309.501,304.898 309.501 C 305.140 309.501,304.884 309.212,303.462 307.877 L 301.932 306.441 303.368 307.971 M291.465 311.594 C 292.066 312.214,292.630 312.721,292.719 312.721 C 292.808 312.721,292.388 312.214,291.787 311.594 C 291.187 310.974,290.622 310.467,290.534 310.467 C 290.445 310.467,290.864 310.974,291.465 311.594  M -25 0 L -5 0 L -5 20 L -25 20 Z M 405 0 L 425 0 L 425 20 L 405 20 Z" stroke="none" fill="#8a807a" fill-rule="evenodd" transform="translate(950,0)"></path><path id="path3" d="M171.260 7.957 C 171.660 8.034,172.240 8.031,172.548 7.951 C 172.856 7.870,172.528 7.807,171.820 7.811 C 171.111 7.814,170.859 7.880,171.260 7.957 M178.019 7.957 C 178.418 8.034,179.070 8.034,179.469 7.957 C 179.867 7.880,179.541 7.817,178.744 7.817 C 177.947 7.817,177.621 7.880,178.019 7.957 M169.646 16.330 C 170.044 16.407,170.696 16.407,171.095 16.330 C 171.494 16.254,171.167 16.191,170.370 16.191 C 169.573 16.191,169.247 16.254,169.646 16.330 M179.630 16.330 C 180.028 16.407,180.680 16.407,181.079 16.330 C 181.477 16.254,181.151 16.191,180.354 16.191 C 179.557 16.191,179.231 16.254,179.630 16.330 M258.037 32.123 C 259.225 32.184,261.254 32.185,262.546 32.123 C 263.838 32.062,262.866 32.012,260.386 32.011 C 257.907 32.011,256.850 32.061,258.037 32.123 M267.391 32.428 C 267.701 32.509,268.209 32.509,268.519 32.428 C 268.829 32.347,268.575 32.281,267.955 32.281 C 267.335 32.281,267.081 32.347,267.391 32.428 M106.595 35.990 L 103.865 38.808 106.683 36.078 C 108.233 34.576,109.501 33.308,109.501 33.260 C 109.501 33.026,109.131 33.373,106.595 35.990 M233.816 38.104 C 233.816 38.159,234.287 38.630,234.863 39.151 L 235.910 40.097 234.964 39.050 C 234.082 38.074,233.816 37.855,233.816 38.104 M258.066 40.497 C 259.447 40.558,261.621 40.557,262.897 40.496 C 264.173 40.436,263.043 40.386,260.386 40.386 C 257.729 40.387,256.685 40.437,258.066 40.497 M143.559 42.374 C 142.355 43.027,142.428 43.299,143.639 42.673 C 144.171 42.398,144.605 42.105,144.605 42.021 C 144.605 41.813,144.571 41.825,143.559 42.374 M109.483 45.008 L 108.374 46.216 109.581 45.106 C 110.246 44.495,110.789 43.952,110.789 43.898 C 110.789 43.652,110.517 43.884,109.483 45.008 M311.755 52.979 C 313.253 54.485,314.551 55.717,314.640 55.717 C 314.728 55.717,313.575 54.485,312.077 52.979 C 310.579 51.473,309.282 50.242,309.193 50.242 C 309.104 50.242,310.257 51.473,311.755 52.979 M306.441 59.581 C 307.850 60.998,309.075 62.158,309.164 62.158 C 309.252 62.158,308.172 60.998,306.763 59.581 C 305.355 58.164,304.129 57.005,304.041 57.005 C 303.952 57.005,305.032 58.164,306.441 59.581 M120.088 61.755 C 119.686 62.267,119.698 62.278,120.214 61.873 C 120.755 61.448,120.778 62.469,120.697 83.854 C 120.650 96.188,120.721 106.280,120.853 106.280 C 120.986 106.280,121.095 96.135,121.095 83.736 C 121.095 71.018,120.972 61.192,120.812 61.192 C 120.657 61.192,120.331 61.445,120.088 61.755 M83.736 71.132 C 83.736 71.345,83.410 71.649,83.011 71.810 C 82.521 72.007,82.456 72.107,82.811 72.121 C 83.407 72.144,84.257 71.267,83.943 70.953 C 83.829 70.839,83.736 70.920,83.736 71.132 M292.915 72.464 C 293.607 73.172,294.245 73.752,294.334 73.752 C 294.422 73.752,293.929 73.172,293.237 72.464 C 292.545 71.755,291.906 71.176,291.818 71.176 C 291.729 71.176,292.223 71.755,292.915 72.464 M213.335 77.022 C 213.192 77.253,213.246 77.307,213.477 77.164 C 213.756 76.992,213.849 81.188,213.849 94.023 L 213.849 111.111 194.506 111.111 C 179.118 111.111,175.213 111.029,175.405 110.709 C 175.544 110.477,175.394 110.512,175.053 110.789 C 174.472 111.261,212.556 111.749,213.768 111.285 C 214.268 111.094,214.367 76.651,213.868 76.651 C 213.701 76.651,213.461 76.818,213.335 77.022 M196.135 80.354 C 195.353 81.151,194.785 81.804,194.874 81.804 C 194.963 81.804,195.675 81.151,196.457 80.354 C 197.240 79.557,197.807 78.905,197.719 78.905 C 197.630 78.905,196.918 79.557,196.135 80.354 M191.931 84.622 L 190.821 85.829 192.029 84.719 C 193.153 83.686,193.385 83.414,193.139 83.414 C 193.085 83.414,192.542 83.957,191.931 84.622 M205.621 86.715 L 204.348 88.084 205.717 86.811 C 206.990 85.627,207.233 85.346,206.990 85.346 C 206.937 85.346,206.321 85.962,205.621 86.715 M50.242 89.694 C 48.922 91.023,47.915 92.110,48.003 92.110 C 48.092 92.110,49.244 91.023,50.564 89.694 C 51.883 88.366,52.890 87.279,52.802 87.279 C 52.713 87.279,51.561 88.366,50.242 89.694 M279.871 88.345 C 279.871 88.420,280.487 88.887,281.240 89.384 C 281.993 89.880,282.439 90.081,282.231 89.829 C 281.831 89.346,279.871 88.112,279.871 88.345 M69.798 108.784 C 68.607 109.984,67.633 111.071,67.633 111.200 C 67.633 111.328,76.618 111.433,87.601 111.433 C 106.336 111.433,108.406 111.345,107.197 110.597 C 106.966 110.455,106.912 110.509,107.055 110.739 C 107.227 111.019,102.384 111.111,87.548 111.111 L 67.811 111.111 70.048 108.857 C 71.279 107.617,72.213 106.602,72.124 106.602 C 72.036 106.602,70.989 107.584,69.798 108.784 M293.205 110.738 C 293.377 111.016,284.937 111.129,259.358 111.192 L 225.282 111.275 259.501 111.354 C 291.728 111.429,294.590 111.365,293.348 110.597 C 293.118 110.455,293.064 110.509,293.205 110.738 M318.355 147.983 C 318.357 171.794,318.415 175.036,318.841 175.067 C 319.115 175.087,319.150 175.044,318.923 174.967 C 318.608 174.862,318.504 169.029,318.437 147.883 L 318.352 120.934 318.355 147.983 M60.758 122.625 C 60.676 122.758,71.465 122.866,84.733 122.866 C 98.001 122.866,108.857 122.758,108.857 122.625 C 108.857 122.309,60.953 122.309,60.758 122.625 M144.495 122.623 C 144.412 122.757,159.983 122.829,179.097 122.783 L 213.849 122.700 213.849 145.749 C 213.849 163.089,213.757 168.741,213.477 168.568 C 213.246 168.426,213.192 168.480,213.335 168.710 C 214.097 169.943,214.170 167.728,214.092 145.813 L 214.010 122.544 179.327 122.462 C 160.252 122.417,144.578 122.490,144.495 122.623 M237.842 122.621 C 270.913 122.842,295.008 122.843,295.008 122.625 C 295.008 122.492,279.320 122.418,260.145 122.460 C 240.970 122.502,230.934 122.574,237.842 122.621 M288.003 127.251 C 286.905 127.954,286.550 128.426,287.520 127.893 C 288.259 127.487,289.417 126.592,289.211 126.586 C 289.122 126.583,288.579 126.883,288.003 127.251 M119.970 128.821 C 119.857 129.004,119.987 129.057,120.277 128.946 C 120.732 128.771,120.773 131.030,120.697 152.138 C 120.650 165.000,120.721 175.523,120.853 175.523 C 120.986 175.523,121.095 164.944,121.095 152.013 C 121.095 128.023,121.049 127.075,119.970 128.821 M30.999 131.884 C 31.003 132.593,31.069 132.845,31.146 132.444 C 31.223 132.043,31.220 131.464,31.139 131.156 C 31.059 130.848,30.996 131.176,30.999 131.884 M338.325 134.622 C 338.600 135.153,338.897 135.588,338.986 135.588 C 339.075 135.588,338.922 135.153,338.647 134.622 C 338.373 134.090,338.075 133.655,337.987 133.655 C 337.898 133.655,338.050 134.090,338.325 134.622 M58.068 136.554 C 58.068 137.528,58.128 137.927,58.202 137.440 C 58.275 136.952,58.275 136.155,58.202 135.668 C 58.128 135.181,58.068 135.580,58.068 136.554 M293.237 137.387 L 292.271 138.217 293.317 137.525 C 293.893 137.144,294.364 136.770,294.364 136.693 C 294.364 136.452,294.228 136.536,293.237 137.387 M30.993 141.063 C 30.993 141.683,31.059 141.936,31.140 141.626 C 31.221 141.316,31.221 140.809,31.140 140.499 C 31.059 140.189,30.993 140.443,30.993 141.063 M341.815 147.826 C 341.815 149.155,341.872 149.698,341.942 149.034 C 342.011 148.370,342.011 147.283,341.942 146.618 C 341.872 145.954,341.815 146.498,341.815 147.826 M360.796 147.826 C 360.796 148.623,360.859 148.949,360.936 148.551 C 361.013 148.152,361.013 147.500,360.936 147.101 C 360.859 146.703,360.796 147.029,360.796 147.826 M78.663 156.237 C 77.566 156.940,77.210 157.412,78.180 156.879 C 78.919 156.473,80.077 155.577,79.871 155.571 C 79.783 155.569,79.239 155.868,78.663 156.237 M68.970 162.743 C 68.699 163.069,69.006 163.534,70.299 164.756 L 71.981 166.345 70.448 164.721 C 69.251 163.452,69.001 163.012,69.305 162.708 C 69.519 162.494,69.610 162.319,69.508 162.319 C 69.406 162.319,69.164 162.510,68.970 162.743 M333.644 167.391 L 331.884 169.243 333.736 167.483 C 335.456 165.847,335.735 165.539,335.496 165.539 C 335.446 165.539,334.613 166.373,333.644 167.391 M93.643 175.429 C 94.044 175.506,94.623 175.503,94.931 175.423 C 95.239 175.342,94.911 175.279,94.203 175.283 C 93.494 175.286,93.242 175.352,93.643 175.429 M101.691 175.442 C 105.101 175.495,110.680 175.495,114.090 175.442 C 117.500 175.390,114.710 175.348,107.890 175.348 C 101.071 175.348,98.281 175.390,101.691 175.442 M256.627 175.443 C 265.896 175.490,280.968 175.490,290.121 175.443 C 299.274 175.395,291.691 175.356,273.269 175.356 C 254.847 175.356,247.358 175.395,256.627 175.443 M347.493 180.274 L 345.733 182.126 347.585 180.365 C 349.305 178.730,349.584 178.422,349.345 178.422 C 349.295 178.422,348.461 179.255,347.493 180.274 M52.818 185.608 C 52.818 185.663,53.289 186.134,53.865 186.655 L 54.911 187.601 53.966 186.554 C 53.084 185.578,52.818 185.359,52.818 185.608 M88.969 194.103 C 89.279 194.184,89.787 194.184,90.097 194.103 C 90.407 194.022,90.153 193.956,89.533 193.956 C 88.913 193.956,88.659 194.022,88.969 194.103 M148.364 194.444 C 179.569 194.490,230.728 194.490,262.051 194.444 C 293.374 194.399,267.842 194.362,205.314 194.362 C 142.786 194.362,117.158 194.399,148.364 194.444 M87.520 202.482 C 87.919 202.558,88.571 202.558,88.969 202.482 C 89.368 202.405,89.042 202.342,88.245 202.342 C 87.448 202.342,87.122 202.405,87.520 202.482 M148.416 202.818 C 179.827 202.863,231.132 202.863,262.426 202.818 C 293.720 202.773,268.019 202.736,205.314 202.736 C 142.609 202.736,117.005 202.773,148.416 202.818 M249.917 231.800 L 255.712 231.899 255.798 254.114 L 255.884 276.329 255.881 254.026 L 255.878 231.723 250.000 231.712 L 244.122 231.701 249.917 231.800 M390.816 274.879 C 390.816 295.781,390.855 304.284,390.902 293.775 C 390.949 283.267,390.949 266.165,390.902 255.772 C 390.855 245.379,390.816 253.977,390.816 274.879 M81.965 241.224 C 82.656 241.932,83.295 242.512,83.384 242.512 C 83.472 242.512,82.979 241.932,82.287 241.224 C 81.595 240.515,80.956 239.936,80.868 239.936 C 80.779 239.936,81.273 240.515,81.965 241.224 M110.410 251.771 C 117.553 251.820,129.147 251.820,136.175 251.771 C 143.203 251.723,137.359 251.683,123.188 251.683 C 109.018 251.683,103.268 251.723,110.410 251.771 M194.928 251.771 C 201.969 251.820,213.490 251.820,220.531 251.771 C 227.572 251.723,221.812 251.683,207.729 251.683 C 193.647 251.683,187.886 251.723,194.928 251.771 M291.606 252.576 L 290.660 253.623 291.637 252.744 L 292.614 251.865 299.528 251.771 L 306.441 251.677 299.497 251.604 L 292.552 251.530 291.606 252.576 M156.508 255.797 C 157.843 257.219,158.132 257.475,158.132 257.233 C 158.132 257.181,157.444 256.493,156.602 255.703 L 155.072 254.267 156.508 255.797 M287.583 256.924 L 286.473 258.132 287.681 257.022 C 288.805 255.989,289.037 255.717,288.791 255.717 C 288.737 255.717,288.194 256.260,287.583 256.924 M300.788 259.501 L 299.678 260.709 300.886 259.599 C 301.550 258.988,302.093 258.445,302.093 258.391 C 302.093 258.145,301.821 258.377,300.788 259.501 M282.916 261.916 L 281.643 263.285 283.011 262.012 C 284.284 260.828,284.528 260.548,284.284 260.548 C 284.232 260.548,283.616 261.163,282.916 261.916 M296.923 263.688 L 295.813 264.895 297.021 263.785 C 298.145 262.752,298.377 262.480,298.131 262.480 C 298.077 262.480,297.534 263.023,296.923 263.688 M208.696 263.124 L 184.058 263.291 208.596 263.369 C 224.692 263.419,233.203 263.335,233.333 263.124 C 233.443 262.947,233.488 262.837,233.433 262.879 C 233.378 262.922,222.246 263.032,208.696 263.124 M110.249 263.365 C 117.126 263.414,128.286 263.414,135.048 263.365 C 141.810 263.317,136.184 263.277,122.544 263.277 C 108.905 263.277,103.372 263.317,110.249 263.365 M278.407 266.747 L 277.134 268.116 278.502 266.843 C 279.255 266.143,279.871 265.527,279.871 265.474 C 279.871 265.230,279.591 265.474,278.407 266.747 M293.216 267.713 L 292.271 268.760 293.317 267.814 C 293.893 267.294,294.364 266.823,294.364 266.767 C 294.364 266.519,294.098 266.738,293.216 267.713 M274.074 271.337 C 273.292 272.134,272.724 272.786,272.813 272.786 C 272.901 272.786,273.614 272.134,274.396 271.337 C 275.178 270.539,275.746 269.887,275.657 269.887 C 275.569 269.887,274.856 270.539,274.074 271.337 M289.855 271.337 C 289.073 272.134,288.505 272.786,288.594 272.786 C 288.682 272.786,289.395 272.134,290.177 271.337 C 290.959 270.539,291.527 269.887,291.438 269.887 C 291.350 269.887,290.637 270.539,289.855 271.337 M35.185 274.316 C 42.049 274.364,53.281 274.364,60.145 274.316 C 67.009 274.267,61.393 274.227,47.665 274.227 C 33.937 274.227,28.321 274.267,35.185 274.316 M285.809 275.765 L 284.863 276.812 285.910 275.866 C 286.486 275.345,286.957 274.874,286.957 274.819 C 286.957 274.570,286.691 274.789,285.809 275.765 M280.061 282.079 C 279.968 282.230,280.285 282.701,280.767 283.125 L 281.643 283.897 280.915 283.068 C 280.515 282.612,280.285 282.141,280.405 282.021 C 280.525 281.901,280.535 281.804,280.427 281.804 C 280.319 281.804,280.155 281.927,280.061 282.079 M283.414 286.091 C 283.414 286.147,283.885 286.618,284.461 287.138 L 285.507 288.084 284.561 287.037 C 283.680 286.061,283.414 285.842,283.414 286.091 M109.322 288.337 C 109.234 288.565,109.206 291.210,109.259 294.215 L 109.356 299.678 109.429 293.964 L 109.501 288.250 129.227 288.164 L 148.953 288.079 129.217 288.001 C 113.368 287.938,109.449 288.004,109.322 288.337 M255.864 288.326 C 255.778 288.548,255.748 294.164,255.797 300.806 L 255.886 312.882 255.962 300.564 L 256.039 288.245 262.712 288.245 L 269.386 288.245 271.327 290.097 L 273.269 291.948 271.347 289.936 L 269.424 287.923 262.721 287.923 C 257.646 287.923,255.981 288.021,255.864 288.326 M287.762 290.821 C 288.454 291.530,289.092 292.110,289.181 292.110 C 289.269 292.110,288.776 291.530,288.084 290.821 C 287.392 290.113,286.753 289.533,286.665 289.533 C 286.576 289.533,287.070 290.113,287.762 290.821 M290.821 294.143 C 290.821 294.198,291.292 294.669,291.868 295.189 L 292.915 296.135 291.969 295.089 C 291.087 294.113,290.821 293.894,290.821 294.143 M276.329 295.491 C 276.929 296.111,277.494 296.618,277.582 296.618 C 277.671 296.618,277.251 296.111,276.651 295.491 C 276.050 294.871,275.486 294.364,275.397 294.364 C 275.308 294.364,275.728 294.871,276.329 295.491 M280.515 300.000 C 281.477 300.974,282.337 301.771,282.426 301.771 C 282.514 301.771,281.799 300.974,280.837 300.000 C 279.875 299.026,279.016 298.229,278.927 298.229 C 278.838 298.229,279.553 299.026,280.515 300.000 M120.715 301.369 C 125.732 301.419,133.848 301.418,138.751 301.369 C 143.654 301.319,139.549 301.278,129.630 301.278 C 119.710 301.278,115.699 301.319,120.715 301.369 M196.884 301.369 C 203.406 301.417,213.986 301.417,220.394 301.369 C 226.802 301.320,221.465 301.280,208.535 301.280 C 195.604 301.280,190.361 301.320,196.884 301.369 M232.923 301.329 C 233.418 301.475,233.491 302.119,233.579 307.108 L 233.678 312.722 233.667 307.009 C 233.656 301.538,233.628 301.294,233.011 301.230 C 232.524 301.180,232.503 301.204,232.923 301.329 M298.537 302.496 C 299.327 303.337,300.015 304.026,300.067 304.026 C 300.309 304.026,300.053 303.737,298.631 302.402 L 297.101 300.966 298.537 302.496 M285.668 305.475 C 286.269 306.095,286.833 306.602,286.922 306.602 C 287.010 306.602,286.591 306.095,285.990 305.475 C 285.389 304.855,284.825 304.348,284.737 304.348 C 284.648 304.348,285.067 304.855,285.668 305.475 M101.449 308.696 C 102.050 309.316,102.614 309.823,102.703 309.823 C 102.791 309.823,102.372 309.316,101.771 308.696 C 101.170 308.076,100.606 307.568,100.518 307.568 C 100.429 307.568,100.848 308.076,101.449 308.696 M289.050 309.179 C 289.742 309.887,290.380 310.467,290.469 310.467 C 290.557 310.467,290.064 309.887,289.372 309.179 C 288.680 308.470,288.042 307.890,287.953 307.890 C 287.864 307.890,288.358 308.470,289.050 309.179  M -25 0 L -5 0 L -5 20 L -25 20 Z M 405 0 L 425 0 L 425 20 L 405 20 Z" stroke="none" fill="#95a9ca" fill-rule="evenodd" transform="translate(30,382)"></path><path id="path4" d="M170.773 35.335 C 171.260 35.409,172.057 35.409,172.544 35.335 C 173.031 35.262,172.633 35.201,171.659 35.201 C 170.684 35.201,170.286 35.262,170.773 35.335 M178.025 35.338 C 178.604 35.410,179.474 35.408,179.957 35.335 C 180.441 35.261,179.968 35.203,178.905 35.204 C 177.842 35.206,177.446 35.266,178.025 35.338 M196.162 38.444 C 196.236 38.510,197.601 39.039,199.195 39.621 C 200.789 40.203,203.434 41.300,205.072 42.060 C 208.360 43.584,209.117 43.701,206.200 42.234 C 202.931 40.591,195.358 37.731,196.162 38.444 M149.758 39.902 C 145.526 41.615,144.283 42.172,144.283 42.360 C 144.283 42.448,144.827 42.287,145.491 42.002 C 146.155 41.716,148.148 40.899,149.919 40.185 C 151.691 39.471,153.200 38.833,153.274 38.767 C 153.667 38.417,152.497 38.795,149.758 39.902 M140.499 44.307 C 139.392 44.935,138.486 45.523,138.486 45.614 C 138.486 45.792,141.987 43.886,142.496 43.430 C 143.063 42.923,142.523 43.160,140.499 44.307 M211.433 45.301 C 211.950 45.831,217.144 49.308,217.254 49.198 C 217.309 49.143,216.384 48.435,215.199 47.626 C 212.544 45.812,211.006 44.863,211.433 45.301 M134.138 48.498 L 133.172 49.329 134.219 48.636 C 134.795 48.255,135.266 47.881,135.266 47.804 C 135.266 47.563,135.129 47.647,134.138 48.498 M255.878 59.450 C 252.861 59.880,248.933 60.634,249.058 60.759 C 249.137 60.839,250.487 60.648,252.057 60.335 C 254.112 59.925,256.444 59.766,260.386 59.766 C 264.329 59.766,266.661 59.925,268.716 60.335 C 270.286 60.648,271.634 60.841,271.711 60.764 C 272.375 60.099,259.067 58.994,255.878 59.450 M247.182 61.192 C 246.776 61.366,246.716 61.468,247.021 61.468 C 247.287 61.468,247.794 61.344,248.148 61.192 C 248.554 61.017,248.614 60.915,248.309 60.915 C 248.043 60.915,247.536 61.039,247.182 61.192 M120.129 62.009 C 119.852 62.350,119.817 62.500,120.048 62.362 C 120.369 62.169,120.451 66.561,120.451 83.897 C 120.451 101.225,120.369 105.628,120.048 105.447 C 119.729 105.266,119.728 105.308,120.043 105.648 C 120.763 106.424,120.778 105.914,120.695 83.577 C 120.621 63.819,120.559 61.479,120.129 62.009 M243.237 62.490 C 242.167 62.920,242.326 63.231,244.283 64.531 C 246.510 66.009,246.588 65.825,244.412 64.227 L 242.769 63.022 243.687 62.616 C 244.732 62.154,244.343 62.045,243.237 62.490 M118.262 64.493 C 116.452 66.956,113.407 71.833,114.090 71.176 C 114.398 70.879,119.728 62.802,119.616 62.802 C 119.555 62.802,118.946 63.563,118.262 64.493 M280.220 63.888 C 280.551 64.185,282.448 65.056,282.448 64.912 C 282.448 64.726,280.662 63.768,280.317 63.768 C 280.190 63.768,280.146 63.822,280.220 63.888 M225.443 88.532 L 225.443 111.111 259.485 111.111 C 279.138 111.111,293.397 110.991,293.221 110.827 C 292.430 110.094,267.955 93.940,267.955 94.152 C 267.955 94.233,273.461 97.974,280.190 102.464 L 292.425 110.628 259.204 110.710 C 240.932 110.755,225.933 110.742,225.872 110.681 C 225.810 110.620,225.798 100.624,225.843 88.468 L 225.926 66.366 230.757 69.593 C 235.570 72.808,237.167 73.798,236.554 73.188 C 236.089 72.725,226.462 66.345,225.909 66.132 C 225.505 65.977,225.443 68.969,225.443 88.532 M284.702 66.111 C 284.702 66.181,286.001 67.209,287.589 68.394 C 289.177 69.580,291.750 71.722,293.306 73.154 C 295.981 75.615,295.959 75.584,292.893 72.581 C 290.246 69.988,284.702 65.609,284.702 66.111 M248.470 67.223 C 248.973 67.737,260.548 75.391,260.548 75.210 C 260.548 75.121,257.975 73.335,254.831 71.239 C 248.820 67.233,247.930 66.671,248.470 67.223 M240.902 76.155 C 240.902 76.243,242.605 77.452,244.686 78.840 C 248.780 81.571,249.631 82.096,249.114 81.570 C 248.610 81.058,240.902 75.974,240.902 76.155 M261.997 76.241 C 262.614 76.871,274.146 84.435,273.912 84.056 C 273.782 83.846,271.193 82.051,268.158 80.067 C 262.124 76.123,261.503 75.737,261.997 76.241 M298.446 79.450 C 299.627 81.187,301.434 84.348,302.461 86.473 C 304.446 90.581,304.917 91.226,303.476 87.863 C 301.931 84.257,297.597 77.095,296.581 76.467 C 296.426 76.371,297.265 77.713,298.446 79.450 M211.315 80.105 C 210.009 81.826,209.190 83.027,209.495 82.775 C 210.393 82.029,214.152 76.970,213.805 76.974 C 213.741 76.975,212.620 78.383,211.315 80.105 M108.369 84.110 C 107.188 87.757,105.613 94.595,105.673 95.813 C 105.691 96.167,105.840 95.805,106.004 95.008 C 106.991 90.221,108.076 85.884,108.889 83.479 C 109.401 81.965,109.759 80.666,109.685 80.593 C 109.612 80.519,109.019 82.102,108.369 84.110 M255.395 85.804 C 255.395 85.899,257.097 87.114,259.179 88.502 C 263.507 91.390,263.768 91.552,263.768 91.369 C 263.768 91.250,256.856 86.476,255.797 85.863 C 255.576 85.735,255.395 85.708,255.395 85.804 M276.812 86.157 C 277.166 86.446,277.746 86.824,278.100 86.998 L 278.744 87.314 278.100 86.790 C 277.746 86.501,277.166 86.123,276.812 85.949 L 276.167 85.633 276.812 86.157 M202.680 89.967 C 200.523 92.149,197.263 95.217,195.434 96.785 C 191.156 100.454,190.295 101.310,192.881 99.326 C 194.014 98.457,196.261 96.503,197.873 94.985 C 199.486 93.467,201.422 91.673,202.177 91.000 C 203.452 89.861,206.967 85.985,206.715 85.995 C 206.653 85.997,204.837 87.785,202.680 89.967 M281.804 89.334 C 281.804 89.423,283.289 90.491,285.105 91.709 C 288.968 94.300,289.211 94.450,289.211 94.253 C 289.211 94.171,287.725 93.100,285.910 91.873 C 282.113 89.306,281.804 89.115,281.804 89.334 M107.407 97.174 C 107.911 97.687,117.552 104.056,117.552 103.875 C 117.552 103.786,115.415 102.289,112.802 100.547 C 107.750 97.179,106.877 96.634,107.407 97.174 M294.364 97.738 C 294.364 97.824,296.320 99.205,298.712 100.805 C 303.017 103.687,304.482 104.474,301.530 102.320 C 299.409 100.773,294.364 97.547,294.364 97.738 M87.762 98.900 C 87.205 99.163,87.229 99.184,87.941 99.048 C 88.517 98.939,89.243 99.212,90.357 99.956 C 93.129 101.811,93.720 102.172,93.720 102.010 C 93.720 101.831,88.766 98.539,88.548 98.573 C 88.470 98.586,88.116 98.733,87.762 98.900 M85.507 99.517 C 85.101 99.691,85.042 99.794,85.346 99.794 C 85.612 99.794,86.119 99.669,86.473 99.517 C 86.879 99.342,86.939 99.240,86.634 99.240 C 86.369 99.240,85.862 99.365,85.507 99.517 M80.515 101.449 C 79.895 101.789,79.533 102.066,79.710 102.066 C 79.887 102.066,80.539 101.789,81.159 101.449 C 81.779 101.110,82.142 100.832,81.965 100.832 C 81.787 100.832,81.135 101.110,80.515 101.449 M306.677 101.771 C 306.677 102.391,306.743 102.645,306.824 102.335 C 306.905 102.025,306.905 101.518,306.824 101.208 C 306.743 100.898,306.677 101.151,306.677 101.771 M78.180 102.600 C 76.976 103.253,77.050 103.525,78.261 102.899 C 78.792 102.624,79.227 102.330,79.227 102.246 C 79.227 102.039,79.192 102.051,78.180 102.600 M186.151 104.129 C 185.354 104.708,183.325 106.037,181.643 107.081 C 178.015 109.332,177.168 110.024,179.871 108.529 C 183.006 106.795,188.433 103.009,187.700 103.068 C 187.645 103.072,186.948 103.550,186.151 104.129 M73.913 105.448 C 72.673 106.401,70.794 108.065,69.736 109.146 L 67.814 111.111 87.584 111.111 C 98.457 111.111,107.277 111.034,107.183 110.940 C 107.089 110.846,98.336 110.776,87.732 110.784 L 68.453 110.799 70.056 109.163 C 70.937 108.263,72.709 106.719,73.994 105.732 C 76.034 104.163,76.566 103.686,76.248 103.710 C 76.204 103.713,75.153 104.495,73.913 105.448 M96.940 104.174 C 96.940 104.263,98.643 105.471,100.725 106.860 C 104.818 109.590,105.670 110.115,105.153 109.590 C 104.649 109.077,96.940 103.994,96.940 104.174 M176.087 110.329 C 175.600 110.593,175.201 110.877,175.201 110.960 C 175.201 111.043,183.933 111.076,194.605 111.033 L 214.010 110.955 195.031 110.870 C 178.309 110.794,176.125 110.728,176.673 110.314 C 177.471 109.710,177.216 109.717,176.087 110.329 M318.519 147.826 L 318.519 174.879 319.404 174.835 C 320.164 174.798,320.187 174.772,319.565 174.652 L 318.841 174.512 318.841 147.831 C 318.841 126.786,318.926 121.114,319.243 120.986 C 319.484 120.889,319.419 120.814,319.082 120.798 C 318.550 120.774,318.519 122.266,318.519 147.826 M102.254 126.752 C 98.889 128.975,95.918 131.020,95.652 131.297 C 95.198 131.769,107.698 123.594,108.357 122.987 C 109.166 122.243,107.901 123.023,102.254 126.752 M225.521 145.652 C 225.478 158.362,225.519 168.760,225.612 168.760 C 225.834 168.760,235.493 162.334,235.910 161.909 C 236.440 161.368,235.567 161.914,230.517 165.280 L 225.769 168.445 225.684 145.495 L 225.600 122.544 225.521 145.652 M326.997 123.749 C 327.321 123.972,328.446 124.711,329.499 125.391 C 330.551 126.071,332.243 127.369,333.259 128.274 C 334.567 129.440,334.776 129.565,333.977 128.701 C 332.537 127.145,329.377 124.756,327.706 123.960 C 326.992 123.620,326.674 123.525,326.997 123.749 M59.936 125.169 C 58.537 130.403,58.471 130.929,58.486 136.715 C 58.502 142.859,58.943 145.408,60.869 150.505 C 61.996 153.489,61.872 152.482,60.671 148.899 C 58.233 141.625,58.010 133.429,60.046 125.941 C 60.309 124.975,60.466 124.127,60.396 124.057 C 60.325 123.986,60.119 124.487,59.936 125.169 M290.817 125.164 C 288.899 126.434,287.801 127.384,289.372 126.414 C 292.009 124.785,293.088 123.994,292.669 123.994 C 292.622 123.994,291.789 124.520,290.817 125.164 M151.208 127.125 C 151.757 127.682,158.546 132.132,158.340 131.800 C 158.234 131.627,156.730 130.551,154.999 129.408 C 151.489 127.091,150.716 126.626,151.208 127.125 M283.741 129.821 C 280.719 131.831,278.822 133.273,280.193 132.517 C 281.287 131.915,287.279 127.832,287.279 127.690 C 287.279 127.461,287.372 127.405,283.741 129.821 M118.514 129.995 C 116.758 131.158,115.612 132.085,116.586 131.554 C 116.852 131.410,117.649 130.906,118.357 130.435 C 119.066 129.964,119.829 129.471,120.053 129.341 C 120.379 129.150,120.443 133.682,120.375 152.283 C 120.328 165.031,120.399 175.395,120.531 175.313 C 120.850 175.116,120.846 128.824,120.527 128.824 C 120.392 128.824,119.486 129.351,118.514 129.995 M337.148 133.092 C 342.247 141.342,342.811 151.821,338.604 160.145 C 338.179 160.986,337.904 161.675,337.993 161.675 C 338.357 161.675,340.138 157.674,340.818 155.330 C 342.042 151.107,341.883 143.533,340.486 139.501 C 339.551 136.802,337.119 132.045,336.675 132.045 C 336.579 132.045,336.793 132.516,337.148 133.092 M297.341 134.787 C 295.349 136.118,293.720 137.277,293.720 137.364 C 293.720 137.540,298.907 134.208,300.354 133.102 C 302.231 131.667,300.874 132.426,297.341 134.787 M91.868 133.692 C 90.770 134.395,90.415 134.868,91.385 134.334 C 92.124 133.928,93.281 133.033,93.076 133.027 C 92.987 133.024,92.444 133.324,91.868 133.692 M109.899 135.715 C 106.334 138.128,104.668 139.365,105.958 138.641 C 107.131 137.982,114.010 133.305,114.010 133.166 C 114.010 132.928,114.086 132.880,109.899 135.715 M162.802 134.855 C 162.979 135.036,165.370 136.669,168.116 138.484 C 170.862 140.300,172.890 141.563,172.625 141.292 C 172.359 141.020,170.185 139.508,167.794 137.932 C 163.047 134.804,162.300 134.343,162.802 134.855 M83.575 139.170 C 80.120 141.480,78.160 142.946,79.549 142.179 C 80.663 141.564,87.601 136.850,87.601 136.709 C 87.601 136.472,87.683 136.422,83.575 139.170 M270.297 138.730 C 268.485 139.924,266.999 141.014,266.995 141.151 C 266.992 141.287,268.510 140.378,270.370 139.130 C 273.253 137.197,274.087 136.546,273.671 136.556 C 273.627 136.557,272.108 137.535,270.297 138.730 M289.044 140.303 C 287.401 141.392,286.822 141.967,288.105 141.235 C 289.235 140.591,290.742 139.470,290.493 139.460 C 290.402 139.456,289.750 139.835,289.044 140.303 M173.430 141.930 C 173.966 142.497,186.562 150.807,186.339 150.446 C 186.225 150.261,183.564 148.417,180.425 146.348 C 173.763 141.955,172.997 141.472,173.430 141.930 M280.915 145.703 C 275.682 149.222,273.600 150.714,275.040 149.916 C 277.666 148.460,287.639 141.572,286.895 141.728 C 286.840 141.739,284.149 143.528,280.915 145.703 M97.665 143.819 C 96.204 144.786,95.008 145.657,95.008 145.754 C 95.008 145.977,95.270 145.821,98.148 143.895 C 99.432 143.035,100.483 142.263,100.483 142.180 C 100.483 141.953,100.514 141.935,97.665 143.819 M258.372 146.702 C 255.317 148.740,252.818 150.481,252.818 150.571 C 252.818 150.730,263.306 143.834,263.913 143.277 C 264.744 142.513,263.462 143.305,258.372 146.702 M71.256 147.351 C 68.732 149.016,66.667 150.464,66.667 150.568 C 66.667 150.802,66.598 150.844,71.756 147.418 C 74.094 145.865,76.006 144.525,76.006 144.439 C 76.006 144.208,76.186 144.098,71.256 147.351 M82.609 153.823 C 79.201 156.154,77.381 157.596,79.388 156.373 C 82.139 154.698,86.838 151.272,86.232 151.384 C 86.188 151.392,84.557 152.489,82.609 153.823 M188.385 151.952 C 188.816 152.302,189.613 152.833,190.156 153.133 L 191.143 153.677 190.359 153.040 C 189.928 152.690,189.131 152.159,188.588 151.859 L 187.601 151.315 188.385 151.952 M260.627 159.228 C 250.432 166.053,247.168 168.311,248.953 167.302 C 250.253 166.567,272.464 151.665,272.464 151.528 C 272.464 151.291,273.119 150.865,260.627 159.228 M192.271 154.388 C 192.271 154.534,202.119 161.225,203.221 161.827 C 204.563 162.561,202.590 161.120,198.068 158.065 C 192.552 154.338,192.271 154.159,192.271 154.388 M242.091 157.506 C 240.205 158.756,238.569 159.931,238.454 160.117 C 238.262 160.427,244.857 156.152,245.556 155.513 C 246.364 154.774,245.218 155.433,242.091 157.506 M73.471 159.932 L 68.846 163.020 70.091 164.307 C 71.932 166.209,76.973 170.127,76.973 169.655 C 76.973 169.576,75.705 168.559,74.155 167.396 C 72.605 166.232,70.866 164.789,70.291 164.188 L 69.245 163.095 73.753 160.075 C 77.731 157.410,78.506 156.844,78.179 156.844 C 78.133 156.844,76.015 158.233,73.471 159.932 M336.434 163.729 C 335.284 165.399,332.452 168.275,330.113 170.148 C 329.011 171.030,329.018 171.029,330.462 170.088 C 332.107 169.015,336.397 164.571,337.297 163.008 C 338.198 161.441,337.754 161.813,336.434 163.729 M209.823 166.062 C 210.724 166.952,213.849 168.964,213.849 168.653 C 213.849 168.582,213.305 168.167,212.641 167.730 C 210.587 166.381,209.486 165.729,209.823 166.062 M77.295 169.886 C 77.295 170.101,81.199 172.049,81.343 171.905 C 81.408 171.840,80.523 171.324,79.378 170.759 C 78.232 170.195,77.295 169.801,77.295 169.886 M240.333 172.757 C 237.580 174.625,236.197 175.684,237.359 175.034 C 238.478 174.408,243.478 170.985,243.478 170.845 C 243.478 170.618,243.544 170.578,240.333 172.757 M327.778 171.521 C 326.574 172.174,326.647 172.446,327.858 171.820 C 328.390 171.545,328.824 171.251,328.824 171.167 C 328.824 170.960,328.790 170.972,327.778 171.521 M325.282 172.786 C 324.839 173.039,324.622 173.246,324.799 173.246 C 324.976 173.246,325.483 173.039,325.926 172.786 C 326.369 172.533,326.586 172.326,326.409 172.326 C 326.232 172.326,325.725 172.533,325.282 172.786 M322.705 173.752 C 322.085 173.991,321.795 174.191,322.061 174.196 C 322.327 174.202,322.979 174.007,323.510 173.764 C 324.754 173.194,324.176 173.186,322.705 173.752 M92.754 175.059 C 93.950 175.319,95.592 175.365,95.450 175.134 C 95.363 174.994,94.612 174.896,93.781 174.917 C 92.950 174.937,92.488 175.001,92.754 175.059  M -25 0 L -5 0 L -5 20 L -25 20 Z M 405 0 L 425 0 L 425 20 L 405 20 Z" stroke="none" fill="#6e94c1" fill-rule="evenodd" transform="translate(490,382)"></path></g></svg>