<?xml version="1.0" encoding="utf-8"?>
<!-- Generator: Adobe Illustrator 25.3.1, SVG Export Plug-In . SVG Version: 6.00 Build 0)  -->
<svg version="1.1" id="Layer_1" xmlns="http://www.w3.org/2000/svg" xmlns:xlink="http://www.w3.org/1999/xlink" x="0px" y="0px"
	 viewBox="0 0 87.09 70.77" style="enable-background:new 0 0 87.09 70.77;" xml:space="preserve">
<style type="text/css">
	.st0{fill:#FFFFFF;}
	.st1{fill:#0070AF;}
</style>
<g>
	<g>
		<path class="st0" d="M75.14,23.65l-0.41-0.14l-0.04-0.43c-0.75-8.6-8.11-15.34-16.75-15.34c-1.6,0-3.19,0.23-4.71,0.67l-0.37,0.11
			l-0.28-0.27C48.33,4,42.67,1.67,36.66,1.67c-9.73,0-18.37,6.22-21.51,15.47l-0.13,0.37l-0.39,0.06
			C7.47,18.79,2.26,24.95,2.26,32.23c0,7.78,6.7,14.86,14.07,14.86c0,0,55.38,0,55.91,0c2.38,0,5.8-1.59,7.78-3.61
			c2.21-2.26,3.43-5.24,3.43-8.4C83.45,29.86,80.11,25.27,75.14,23.65z"/>
		<g>
			<path d="M16.03,48.75c-8.04,0-15.43-7.92-15.43-16.52c0-7.89,5.51-14.61,13.17-16.19C17.29,6.42,26.42,0,36.66,0
				c6.25,0,12.15,2.36,16.68,6.65c1.5-0.38,3.04-0.58,4.6-0.58c4.65,0,9.09,1.74,12.51,4.89c3.24,2.99,5.29,6.98,5.83,11.32
				c5.3,2.01,8.83,7.07,8.83,12.79c0,3.6-1.38,6.99-3.9,9.57c-2.23,2.28-6.9,4.09-8.64,4.11C70.83,48.77,24.07,48.75,16.03,48.75z
				 M72.24,46.74c2.23,0,5.59-1.51,7.53-3.51c2.15-2.19,3.33-5.09,3.33-8.16c0-5.07-3.24-9.52-8.06-11.1l-0.63-0.21l-0.06-0.66
				c-0.73-8.42-7.94-15.02-16.4-15.02c-1.57,0-3.12,0.22-4.61,0.65l-0.57,0.16l-0.42-0.42c-4.2-4.17-9.77-6.47-15.68-6.47
				c-9.58,0-18.09,6.12-21.18,15.23l-0.2,0.57l-0.59,0.1c-7,1.18-12.08,7.2-12.08,14.31c0,7.6,6.56,14.52,13.72,14.51
				C23.49,46.73,70.01,46.74,72.24,46.74z"/>
		</g>
		<g>
			<path class="st1" d="M8.05,28.75C7.63,29.83,7.4,31,7.4,32.23c0,1.54,0.36,2.99,1,4.29l11.65-7.76H8.05z"/>
		</g>
		<g>
			<path class="st1" d="M23.05,13.33c-1.99,2.46-3.35,5.46-3.81,8.76l3.81,2.54V13.33z"/>
		</g>
		<g>
			<path class="st1" d="M9.77,25.87h9.97l-4.71-3.14C12.95,23.19,11.12,24.32,9.77,25.87z"/>
		</g>
		<g>
			<polygon class="st1" points="46.33,40.34 46.33,28.75 28.94,28.75 			"/>
		</g>
		<g>
			<path class="st1" d="M10.04,38.88c1.74,1.85,4.19,3.02,6.92,3.07h0.34c0.04,0,0.07,0,0.11,0c0,0,0,0,0.01,0h5.64V30.2
				L10.04,38.88z"/>
		</g>
		<g>
			<path class="st1" d="M46.33,17.22c-1.21,1.76-3.06,3.88-5.89,6.12c-1.3,1.03-2.63,1.86-3.95,2.53h9.85V17.22z"/>
		</g>
		<g>
			<polygon class="st1" points="69.6,30.2 51.98,41.95 69.6,41.95 			"/>
		</g>
		<g>
			<path class="st1" d="M47.21,10.36c-2.94-2.23-6.59-3.56-10.55-3.56c-3.96,0-7.61,1.32-10.55,3.56H47.21z"/>
		</g>
		<g>
			<path class="st1" d="M69.6,23.92c-0.33-6.16-5.42-11.04-11.66-11.04c-1.62,0-3.17,0.34-4.57,0.93L69.6,24.63V23.92z"/>
		</g>
		<g>
			<polygon class="st1" points="66.29,25.87 49.2,14.49 49.2,25.87 			"/>
		</g>
		<g>
			<polygon class="st1" points="49.2,28.75 49.2,40.34 66.59,28.75 			"/>
		</g>
		<g>
			<path class="st1" d="M78.3,35.07c0-3.44-2.53-6.29-5.83-6.8v13.59C75.78,41.36,78.3,38.51,78.3,35.07z"/>
		</g>
		<g>
			<path d="M25.93,25.84c2.5-0.17,7.96-0.98,12.72-4.75c4.19-3.32,5.94-6.25,6.64-7.85H25.93V25.84z"/>
		</g>
		<g>
			<polygon points="25.93,41.95 43.55,41.95 25.93,30.2 			"/>
		</g>
		<path d="M17.5,61.36c0,0.44-0.08,0.85-0.24,1.23c-0.16,0.38-0.39,0.71-0.68,1c-0.29,0.28-0.63,0.51-1.01,0.68
			c-0.38,0.17-0.79,0.25-1.23,0.25h-1.77l4.93,5.88v0.36h-3.11l-5.25-6.25H3.16c-0.1,0-0.19,0-0.28-0.01
			c-0.09-0.01-0.17-0.02-0.25-0.04v6.3H0V53.3h14.34c0.44,0,0.85,0.08,1.23,0.25c0.38,0.17,0.72,0.4,1.01,0.68
			c0.29,0.28,0.52,0.62,0.68,1c0.16,0.38,0.24,0.79,0.24,1.23V61.36z M14.34,61.9c0.15,0,0.27-0.05,0.38-0.16
			c0.1-0.1,0.16-0.23,0.16-0.38v-4.91c0-0.15-0.05-0.27-0.16-0.38c-0.11-0.11-0.23-0.16-0.38-0.16H3.16c-0.14,0-0.27,0.05-0.38,0.16
			c-0.11,0.11-0.16,0.23-0.16,0.38v4.91c0,0.15,0.05,0.27,0.16,0.38c0.1,0.11,0.23,0.16,0.38,0.16H14.34z"/>
		<path d="M31.36,56.67c0.44,0,0.85,0.08,1.23,0.24c0.38,0.16,0.72,0.39,1.01,0.68c0.29,0.29,0.52,0.63,0.68,1.01
			c0.16,0.38,0.24,0.79,0.24,1.23v10.94H23.34c-0.44,0-0.85-0.08-1.23-0.24c-0.38-0.16-0.72-0.39-1.01-0.68
			c-0.29-0.29-0.52-0.63-0.68-1.01c-0.16-0.38-0.24-0.79-0.24-1.23v-5.2h11.72v-2.58c0-0.15-0.05-0.27-0.16-0.38
			c-0.11-0.1-0.23-0.16-0.38-0.16H20.18v-2.62H31.36z M31.89,65.03H22.8v2.58c0,0.15,0.05,0.27,0.16,0.38
			c0.11,0.11,0.23,0.16,0.38,0.16h8.56V65.03z"/>
		<path d="M51.19,68.15v2.63H40.01c-0.44,0-0.85-0.08-1.23-0.24c-0.38-0.16-0.72-0.39-1.01-0.68c-0.29-0.29-0.52-0.63-0.68-1.01
			c-0.16-0.38-0.24-0.79-0.24-1.23v-7.78c0-0.44,0.08-0.85,0.24-1.23c0.16-0.38,0.39-0.72,0.68-1.01c0.29-0.29,0.63-0.52,1.01-0.68
			c0.38-0.16,0.79-0.24,1.23-0.24h11.13v2.62H40.01c-0.15,0-0.27,0.05-0.38,0.16c-0.11,0.11-0.16,0.23-0.16,0.38v7.78
			c0,0.15,0.05,0.27,0.16,0.38c0.11,0.11,0.23,0.16,0.38,0.16H51.19z"/>
		<path d="M67.82,56.67v0.36l-6.05,6.68l6.05,6.68v0.36h-3.11l-5.28-5.74h-3.16v5.74h-2.62V52.06h2.62v10.35h3.16l5.28-5.74H67.82z"
			/>
		<path d="M84.47,53.27h2.62v17.5h-3.11l-11.77-14v14h-2.62v-17.5h3.11l11.76,14V53.27z"/>
	</g>
</g>
</svg>
