<?xml version="1.0" encoding="utf-8"?>
<!-- Generator: Adobe Illustrator 23.0.3, SVG Export Plug-In . SVG Version: 6.00 Build 0)  -->
<svg version="1.1" id="Layer_1" xmlns="http://www.w3.org/2000/svg" xmlns:xlink="http://www.w3.org/1999/xlink" x="0px" y="0px"
	 viewBox="0 0 400 245" style="enable-background:new 0 0 400 245;" xml:space="preserve">
<style type="text/css">
	.st0{fill:#EE3A25;}
	.st1{fill:#B31E3B;}
	.st2{fill:#231F20;}
	.st3{fill:#53CAE5;}
	.st4{fill:#FFFFFF;}
	.st5{fill-rule:evenodd;clip-rule:evenodd;fill:#53CAE5;}
	.st6{fill:#231916;}
	.st7{fill:#3EB4B5;}
	.st8{fill:#171F1F;}
	.st9{fill:#0072BB;}
	.st10{fill:#464646;}
	.st11{fill:#8C8C8C;}
	.st12{fill:#1B1B1C;}
	.st13{opacity:0.4;fill:#4464FB;}
	.st14{opacity:0.8;fill:#4464FB;}
	.st15{opacity:0.6;fill:#4464FB;}
	.st16{opacity:0.5;fill:#4464FB;}
	.st17{opacity:0.9;fill:#4464FB;}
	.st18{opacity:0.7;fill:#4464FB;}
	.st19{opacity:0.3;fill:#4464FB;}
	.st20{fill:#4464FB;}
	.st21{fill:#212D56;}
</style>
<g>
	<g>
		<path class="st13" d="M24.32,111.45c1.79,0,3.36-0.59,4.5-1.73c1.68-1.68,2.16-4.29,1.33-7.17l-4.29-14.84
			c-1.64,0.83-3.22,1.77-4.74,2.82l3.9,13.5c0.32,1.1,0.19,1.74,0.02,1.91c-0.16,0.17-0.81,0.29-1.91-0.02l-13.3-3.84
			c-1.01,1.54-1.91,3.13-2.7,4.78l14.51,4.19C22.58,111.31,23.47,111.45,24.32,111.45z"/>
		<path class="st14" d="M60.51,141.4c-1.68,1.68-2.16,4.29-1.33,7.17l3.91,13.53c1.64-0.81,3.23-1.73,4.76-2.76l-3.54-12.25
			c-0.32-1.1-0.19-1.74-0.02-1.91c0.16-0.17,0.81-0.3,1.91,0.02l12.44,3.59c1.07-1.51,2.04-3.09,2.9-4.72l-13.86-4.01
			C64.8,139.24,62.18,139.72,60.51,141.4z"/>
		<path class="st15" d="M28.82,141.4c-1.68-1.68-4.29-2.17-7.17-1.33l-13.85,4c0.85,1.63,1.83,3.2,2.9,4.72l12.44-3.59
			c1.1-0.32,1.75-0.19,1.91-0.02c0.17,0.17,0.3,0.81-0.02,1.91l-3.54,12.25c1.53,1.03,3.12,1.95,4.76,2.76l3.91-13.53
			C30.99,145.69,30.5,143.08,28.82,141.4z"/>
		<path class="st16" d="M22.26,125.56c0-2.37-1.5-4.56-4.13-6.01L5,112.3c-0.55,1.76-0.98,3.55-1.3,5.38l11.85,6.54
			c1,0.55,1.37,1.1,1.37,1.34c0,0.23-0.36,0.78-1.37,1.33l-11.6,6.4c0.37,1.8,0.86,3.57,1.46,5.29l12.72-7.02
			C20.76,130.12,22.26,127.93,22.26,125.56z"/>
		<path class="st17" d="M73.77,126.89c-1-0.55-1.37-1.1-1.37-1.33c0-0.23,0.36-0.78,1.37-1.34l11.85-6.54
			c-0.31-1.83-0.74-3.63-1.3-5.38l-13.14,7.25c-2.62,1.45-4.13,3.64-4.13,6.01c0,2.37,1.5,4.56,4.13,6.01l12.72,7.02
			c0.6-1.72,1.09-3.49,1.46-5.29L73.77,126.89z"/>
		<path class="st18" d="M44.66,147.96c-2.37,0-4.56,1.51-6.01,4.13l-6.78,12.29c1.75,0.56,3.54,1.01,5.36,1.34l6.1-11.05
			c0.55-1,1.1-1.37,1.33-1.37c0.23,0,0.78,0.36,1.33,1.37l6.1,11.05c1.82-0.33,3.61-0.77,5.36-1.34l-6.78-12.29
			C49.23,149.47,47.04,147.96,44.66,147.96z"/>
		<path class="st19" d="M44.66,103.15C44.66,103.15,44.66,103.15,44.66,103.15c2.37,0,4.56-1.5,6.01-4.13l7.48-13.56
			c-1.73-0.59-3.5-1.08-5.31-1.44L46,96.45c-0.55,1-1.1,1.37-1.34,1.37c-0.23,0-0.78-0.36-1.33-1.37l-6.85-12.42
			c-1.81,0.36-3.57,0.84-5.31,1.44l7.48,13.56C40.1,101.65,42.29,103.15,44.66,103.15z"/>
		<path class="st20" d="M69.3,100.87c1.14,1.14,2.71,1.73,4.5,1.73c0.85,0,1.74-0.13,2.66-0.4l14.47-4.18
			c-0.82-1.64-1.74-3.23-2.78-4.75l-13.17,3.81c-1.1,0.32-1.74,0.19-1.91,0.02s-0.3-0.81,0.02-1.91l3.8-13.15
			c-1.53-1.03-3.12-1.95-4.76-2.76L67.97,93.7C67.14,96.58,67.63,99.19,69.3,100.87z"/>
	</g>
	<g>
		<path class="st21" d="M131.63,140.32h-3.74v-10.43c0-0.77-0.18-1.37-0.53-1.78c-0.36-0.42-0.98-0.62-1.87-0.62h-9.72v12.83h-3.74
			v-31.2h11.14c1.6,0,3,0.23,4.19,0.69c1.19,0.46,2.18,1.08,2.96,1.85c0.79,0.77,1.38,1.67,1.78,2.7c0.4,1.02,0.6,2.1,0.6,3.23v1.34
			c0,1.16-0.32,2.32-0.96,3.48c-0.64,1.16-1.63,2.05-2.96,2.67v0.53c0.89,0.15,1.59,0.51,2.09,1.07c0.51,0.56,0.76,1.37,0.76,2.41
			V140.32z M115.77,124.01h6.95c2.11,0,3.68-0.45,4.7-1.36c1.02-0.91,1.54-2.24,1.54-3.99v-0.8c0-1.57-0.51-2.84-1.54-3.81
			c-1.02-0.96-2.59-1.45-4.7-1.45h-6.95V124.01z"/>
		<path class="st21" d="M141.93,130.34c0.09,2.2,0.77,3.97,2.05,5.3c1.28,1.34,3.06,2.01,5.35,2.01c1.04,0,1.95-0.12,2.72-0.36
			c0.77-0.24,1.43-0.56,1.98-0.98c0.55-0.42,1-0.9,1.34-1.45c0.34-0.55,0.62-1.14,0.82-1.76l3.3,0.89
			c-0.62,2.05-1.78,3.72-3.45,5.01c-1.68,1.29-3.94,1.94-6.8,1.94c-1.58,0-3.02-0.28-4.34-0.82c-1.32-0.55-2.46-1.33-3.41-2.34
			s-1.69-2.21-2.23-3.61c-0.54-1.4-0.8-2.94-0.8-4.63v-1.07c0-1.54,0.27-2.99,0.82-4.32c0.55-1.34,1.31-2.49,2.29-3.45
			c0.98-0.97,2.13-1.72,3.45-2.27c1.32-0.55,2.75-0.82,4.3-0.82c1.81,0,3.38,0.33,4.7,1c1.32,0.67,2.41,1.49,3.25,2.47
			c0.85,0.98,1.47,2.05,1.87,3.21c0.4,1.16,0.6,2.23,0.6,3.21v2.85H141.93z M149.32,120.89c-0.98,0-1.89,0.16-2.74,0.47
			c-0.85,0.31-1.59,0.75-2.23,1.31c-0.64,0.56-1.16,1.23-1.56,1.98c-0.4,0.76-0.66,1.58-0.78,2.47h14.26
			c-0.06-0.95-0.29-1.81-0.69-2.58c-0.4-0.77-0.92-1.43-1.56-1.96c-0.64-0.54-1.37-0.95-2.18-1.25
			C151.02,121.04,150.18,120.89,149.32,120.89z"/>
		<path class="st21" d="M186.27,136.58h-0.53c-0.71,1.49-1.7,2.59-2.96,3.3c-1.26,0.71-2.59,1.07-3.99,1.07
			c-1.46,0-2.81-0.24-4.06-0.74c-1.25-0.49-2.34-1.22-3.28-2.18c-0.94-0.96-1.67-2.15-2.21-3.54c-0.54-1.4-0.8-3.01-0.8-4.86v-0.71
			c0-1.81,0.27-3.42,0.8-4.81c0.54-1.4,1.27-2.58,2.21-3.54c0.94-0.96,2.03-1.7,3.28-2.21c1.25-0.51,2.57-0.76,3.97-0.76
			c1.51,0,2.89,0.33,4.12,1c1.23,0.67,2.21,1.7,2.92,3.1h0.53v-3.48h3.48v17.56c0,0.89,0.4,1.34,1.2,1.34h1.11v3.21h-2.36
			c-1.01,0-1.83-0.33-2.47-0.98c-0.64-0.65-0.96-1.49-0.96-2.5V136.58z M179.14,137.65c1.04,0,2-0.19,2.87-0.58
			c0.88-0.39,1.63-0.94,2.25-1.65c0.62-0.71,1.12-1.57,1.47-2.56c0.36-1,0.53-2.1,0.53-3.32V129c0-1.19-0.18-2.28-0.53-3.28
			c-0.36-1-0.85-1.85-1.49-2.56c-0.64-0.71-1.4-1.27-2.27-1.67c-0.88-0.4-1.82-0.6-2.83-0.6c-1.04,0-1.99,0.19-2.85,0.58
			c-0.86,0.39-1.61,0.93-2.25,1.63c-0.64,0.7-1.14,1.54-1.49,2.54c-0.36,1-0.53,2.09-0.53,3.28v0.71c0,2.53,0.66,4.49,1.98,5.9
			C175.31,136.94,177.03,137.65,179.14,137.65z"/>
		<path class="st21" d="M201.06,137.11h8.02v-24.78h-7.75v-3.21h11.23v27.99h8.02v3.21h-19.52V137.11z"/>
		<path class="st21" d="M230.96,109.13h7.13l4.19,29.59h0.53l4.19-29.59h7.13v31.2h-3.48v-29.59h-0.53l-4.19,29.59h-6.77
			l-4.19-29.59h-0.53v29.59h-3.48V109.13z"/>
		<path class="st21" d="M280.56,136.58h-0.53c-0.71,1.49-1.7,2.59-2.96,3.3c-1.26,0.71-2.59,1.07-3.99,1.07
			c-1.46,0-2.81-0.24-4.06-0.74c-1.25-0.49-2.34-1.22-3.28-2.18c-0.94-0.96-1.67-2.15-2.21-3.54c-0.54-1.4-0.8-3.01-0.8-4.86v-0.71
			c0-1.81,0.27-3.42,0.8-4.81s1.27-2.58,2.21-3.54c0.94-0.96,2.03-1.7,3.28-2.21c1.25-0.51,2.57-0.76,3.97-0.76
			c1.51,0,2.89,0.33,4.12,1c1.23,0.67,2.21,1.7,2.92,3.1h0.53v-3.48h3.48v17.56c0,0.89,0.4,1.34,1.2,1.34h1.11v3.21H284
			c-1.01,0-1.83-0.33-2.47-0.98c-0.64-0.65-0.96-1.49-0.96-2.5V136.58z M273.43,137.65c1.04,0,2-0.19,2.87-0.58
			c0.88-0.39,1.63-0.94,2.25-1.65c0.62-0.71,1.12-1.57,1.47-2.56c0.36-1,0.53-2.1,0.53-3.32V129c0-1.19-0.18-2.28-0.53-3.28
			c-0.36-1-0.85-1.85-1.49-2.56c-0.64-0.71-1.4-1.27-2.27-1.67s-1.82-0.6-2.83-0.6c-1.04,0-1.99,0.19-2.85,0.58
			c-0.86,0.39-1.61,0.93-2.25,1.63c-0.64,0.7-1.14,1.54-1.49,2.54c-0.36,1-0.53,2.09-0.53,3.28v0.71c0,2.53,0.66,4.49,1.98,5.9
			C269.61,136.94,271.32,137.65,273.43,137.65z"/>
		<path class="st21" d="M295.9,118.22h8.02v2.94h0.54c0.56-1.22,1.37-2.12,2.41-2.7s2.23-0.87,3.57-0.87c2.23,0,4.03,0.73,5.39,2.18
			c1.37,1.46,2.09,3.58,2.18,6.37l-3.65,0.53c0-2.05-0.49-3.53-1.47-4.43s-2.18-1.36-3.61-1.36c-0.92,0-1.71,0.18-2.38,0.53
			s-1.23,0.85-1.67,1.47c-0.45,0.62-0.77,1.35-0.98,2.18c-0.21,0.83-0.31,1.72-0.31,2.67v9.36h5.62v3.21h-14.17v-3.21h5.08v-15.69
			h-4.54V118.22z"/>
		<path class="st21" d="M329.23,127.4h0.76l8.42-9.18h4.28v0.27l-9.18,10.12v0.8l10.25,10.65v0.27h-4.28l-9.4-9.72h-0.85v9.72h-3.48
			v-31.2h3.48V127.4z"/>
		<path class="st21" d="M353.34,130.34c0.09,2.2,0.77,3.97,2.05,5.3c1.28,1.34,3.06,2.01,5.35,2.01c1.04,0,1.95-0.12,2.72-0.36
			c0.77-0.24,1.43-0.56,1.98-0.98c0.55-0.42,1-0.9,1.34-1.45c0.34-0.55,0.62-1.14,0.82-1.76l3.3,0.89
			c-0.62,2.05-1.78,3.72-3.45,5.01c-1.68,1.29-3.94,1.94-6.8,1.94c-1.58,0-3.02-0.28-4.34-0.82c-1.32-0.55-2.46-1.33-3.41-2.34
			s-1.69-2.21-2.23-3.61c-0.54-1.4-0.8-2.94-0.8-4.63v-1.07c0-1.54,0.27-2.99,0.82-4.32c0.55-1.34,1.31-2.49,2.29-3.45
			s2.13-1.72,3.45-2.27c1.32-0.55,2.75-0.82,4.3-0.82c1.81,0,3.38,0.33,4.7,1c1.32,0.67,2.41,1.49,3.25,2.47
			c0.85,0.98,1.47,2.05,1.87,3.21c0.4,1.16,0.6,2.23,0.6,3.21v2.85H353.34z M360.74,120.89c-0.98,0-1.89,0.16-2.74,0.47
			c-0.85,0.31-1.59,0.75-2.23,1.31s-1.16,1.23-1.56,1.98c-0.4,0.76-0.66,1.58-0.78,2.47h14.26c-0.06-0.95-0.29-1.81-0.69-2.58
			c-0.4-0.77-0.92-1.43-1.56-1.96c-0.64-0.54-1.37-0.95-2.18-1.25C362.44,121.04,361.6,120.89,360.74,120.89z"/>
		<path class="st21" d="M377.31,118.22h6.95v-9.09h3.48v9.09h8.56v3.21h-8.56v14.35c0,0.89,0.4,1.34,1.2,1.34h6.28v3.21h-7.53
			c-1.01,0-1.83-0.33-2.47-0.98c-0.64-0.65-0.96-1.49-0.96-2.5v-15.42h-6.95V118.22z"/>
	</g>
</g>
</svg>
