<?xml version="1.0" encoding="utf-8"?>
<!-- Generator: Adobe Illustrator 23.0.2, SVG Export Plug-In . SVG Version: 6.00 Build 0)  -->
<svg version="1.1" id="Layer_1" xmlns="http://www.w3.org/2000/svg" xmlns:xlink="http://www.w3.org/1999/xlink" x="0px" y="0px"
	 viewBox="0 0 400 245" style="enable-background:new 0 0 400 245;" xml:space="preserve">
<style type="text/css">
	.st0{fill:#0094D9;}
	.st1{fill:#E5673E;}
	.st2{fill-rule:evenodd;clip-rule:evenodd;fill:#283B87;}
	.st3{fill:#87C440;}
	.st4{fill-rule:evenodd;clip-rule:evenodd;fill:#5C6FB4;}
	.st5{fill:#283B87;}
</style>
<g>
	<path class="st2" d="M188.22,124.28L135.5,71.57l37.79-37.79l-10.35-10.34l-48.2,48.2l52.66,52.66L188.22,124.28z M181.74,42.22
		l-29.35,29.35l64.72,64.71l-54.59,0.01L97.86,71.63l65.09-65.09l61.27,61.26l-8.45,8.44L181.74,42.22z"/>
	<path class="st3" d="M216.2,96.56l29.35-29.35L180.83,2.5l54.59-0.01l64.66,64.66l-65.08,65.08l-61.26-61.26l8.44-8.44L216.2,96.56
		z M209.72,14.5l52.72,52.72L224.65,105l10.35,10.34l48.19-48.19L230.53,14.5H209.72z"/>
	<polygon class="st4" points="70.98,217.94 62.98,217.94 62.98,242.81 59.52,242.81 59.52,217.94 51.52,217.94 51.52,215.01 
		70.98,215.01 	"/>
	<polygon class="st4" points="90.29,242.81 75.19,242.81 75.19,215.01 90.29,215.01 90.29,218.02 78.53,218.02 78.53,226.25 
		90.29,226.25 90.29,229.1 78.53,229.1 78.53,239.81 90.29,239.81 	"/>
	<path class="st4" d="M117.82,241.6c-1.3,0.56-2.62,0.98-3.96,1.29c-1.34,0.3-2.7,0.45-4.08,0.45c-1.93,0-3.77-0.31-5.52-0.94
		c-1.75-0.63-3.36-1.58-4.81-2.86c-2.96-3-4.43-6.55-4.43-10.63c0-2.66,0.58-4.94,1.75-6.84c1.16-1.9,2.3-3.36,3.42-4.38
		c1.11-1.01,2.18-1.73,3.19-2.14c1.01-0.41,1.84-0.7,2.48-0.85c0.64-0.15,1.29-0.26,1.95-0.34c0.66-0.07,1.31-0.11,1.93-0.11
		c0.93,0,1.9,0.08,2.93,0.24c1.03,0.16,2.05,0.39,3.08,0.69l2.07,0.94v3.68c-2.33-1.65-4.88-2.48-7.66-2.48
		c-1.88,0-3.63,0.38-5.26,1.15c-1.63,0.76-3.03,1.93-4.21,3.51c-0.68,1-1.2,2.09-1.56,3.27c-0.36,1.18-0.54,2.38-0.54,3.61
		c0,2.13,0.53,4.13,1.6,5.99c1.06,1.87,2.53,3.27,4.4,4.21c1.87,0.94,3.76,1.41,5.69,1.41c2.08,0,3.94-0.52,5.6-1.56l1.95-1.26
		V241.6z"/>
	<polygon class="st4" points="145.61,242.81 142.34,242.81 142.34,228.95 126.94,228.95 126.94,242.81 123.67,242.81 123.67,215.01 
		126.94,215.01 126.94,226.02 142.34,226.02 142.34,215.01 145.61,215.01 	"/>
	<polygon class="st4" points="176.06,243.41 175.39,243.41 155.1,221.1 155.1,242.81 151.98,242.81 151.98,214.34 152.76,214.34 
		172.87,236.68 172.87,215.01 176.06,215.01 	"/>
	<path class="st4" d="M208.99,228.65c0-3.18-1.15-5.87-3.46-8.08c-2.31-2.2-5.07-3.31-8.3-3.31c-3.18,0-5.87,1.15-8.08,3.46
		c-2.2,2.3-3.31,5.07-3.31,8.3c0,3.18,1.15,5.87,3.44,8.06c2.29,2.19,5.07,3.29,8.32,3.29c3.18,0,5.87-1.15,8.08-3.46
		C207.88,234.61,208.99,231.86,208.99,228.65z M212.44,228.73c0,4.11-1.45,7.61-4.34,10.5c-2.89,2.89-6.39,4.34-10.5,4.34
		c-4.16,0-7.73-1.4-10.73-4.19c-2.99-2.79-4.49-6.22-4.49-10.28c0-4.11,1.45-7.61,4.34-10.5c2.89-2.89,6.39-4.34,10.5-4.34
		c4.16,0,7.73,1.4,10.73,4.19C210.95,221.24,212.44,224.67,212.44,228.73z"/>
	<polygon class="st4" points="233.19,242.81 219.48,242.81 219.48,215.01 222.93,215.01 222.93,239.81 233.19,239.81 	"/>
	<path class="st4" d="M260.95,228.65c0-3.18-1.15-5.87-3.46-8.08c-2.3-2.2-5.07-3.31-8.3-3.31c-3.18,0-5.87,1.15-8.08,3.46
		c-2.21,2.3-3.31,5.07-3.31,8.3c0,3.18,1.15,5.87,3.44,8.06c2.29,2.19,5.07,3.29,8.32,3.29c3.18,0,5.87-1.15,8.08-3.46
		C259.85,234.61,260.95,231.86,260.95,228.65z M264.41,228.73c0,4.11-1.45,7.61-4.34,10.5c-2.89,2.89-6.39,4.34-10.5,4.34
		c-4.16,0-7.73-1.4-10.73-4.19c-2.99-2.79-4.49-6.22-4.49-10.28c0-4.11,1.45-7.61,4.34-10.5c2.89-2.89,6.39-4.34,10.5-4.34
		c4.16,0,7.73,1.4,10.73,4.19C262.91,221.24,264.41,224.67,264.41,228.73z"/>
	<path class="st4" d="M298.53,228.65c0,2.63-0.43,4.98-1.28,7.04c-0.85,2.07-2.24,3.85-4.17,5.35c-1.2,0.78-2.52,1.35-3.94,1.73
		c-1.43,0.38-2.89,0.56-4.4,0.56c-1.73,0-3.42-0.25-5.09-0.75c-1.67-0.5-3.17-1.23-4.53-2.18c-1.7-1.45-3-3.17-3.89-5.15
		c-0.89-1.98-1.33-4.1-1.33-6.35c0-0.6,0.01-1.07,0.04-1.39c0.03-0.33,0.2-1.42,0.53-3.27c0.33-1.85,1.63-3.88,3.91-6.07
		c2.28-2.19,4.98-3.48,8.11-3.85c3.23,0,6.04,0.42,8.43,1.26c2.39,0.84,4.25,2.42,5.58,4.75l-2.56,2.22
		c-1.15-1.72-2.55-3.04-4.21-3.97c-1.65-0.93-3.47-1.4-5.45-1.4c-0.9,0-1.83,0.11-2.78,0.34c-2.5,0.8-4.48,2.28-5.94,4.42
		c-1.45,2.14-2.18,4.51-2.18,7.09c0,2.63,0.66,4.82,1.99,6.55c1.33,1.73,2.78,2.97,4.36,3.71c1.58,0.74,3.26,1.11,5.03,1.11
		c1.4,0,2.72-0.23,3.94-0.69c1.23-0.46,2.3-1.14,3.21-2.03c0.91-0.89,1.61-1.85,2.1-2.89c0.49-1.04,0.81-2.14,0.96-3.29l-8.23-0.08
		v-2.78H298.53z"/>
	<rect x="304.74" y="215.01" class="st4" width="3.27" height="27.8"/>
	<polygon class="st4" points="330.23,242.81 315.13,242.81 315.13,215.01 330.23,215.01 330.23,218.02 318.47,218.02 318.47,226.25 
		330.23,226.25 330.23,229.1 318.47,229.1 318.47,239.81 330.23,239.81 	"/>
	<path class="st4" d="M351.16,219.86l-2.97,1.39c-0.27-1.15-0.94-2.09-1.99-2.8c-1.05-0.71-2.2-1.07-3.46-1.07
		c-0.93,0-1.74,0.18-2.44,0.54c-0.7,0.36-1.28,0.96-1.73,1.79c-0.3,0.68-0.45,1.37-0.45,2.07c0,1.68,0.79,2.94,2.37,3.8l7.14,2.63
		c1.3,0.73,2.3,1.71,2.99,2.95c0.69,1.24,1.03,2.56,1.03,3.96c0,1.2-0.24,2.35-0.73,3.46c-0.49,1.1-1.22,2.08-2.2,2.93
		c-1.75,1.23-3.72,1.84-5.9,1.84c-1.95,0-3.74-0.49-5.37-1.46c-0.88-0.65-1.55-1.38-2.01-2.2c-0.46-0.81-0.88-1.87-1.26-3.17
		l3.04-1.54c0,1.58,0.56,2.89,1.69,3.94c1.13,1.05,2.45,1.58,3.98,1.58c0.6,0,1.2-0.09,1.78-0.28c0.59-0.19,1.17-0.49,1.73-0.92
		c0.56-0.43,1.01-1,1.35-1.73c0.34-0.73,0.51-1.49,0.51-2.29c0-1.2-0.27-2.09-0.81-2.67c-0.54-0.58-0.96-0.97-1.28-1.17
		c-0.31-0.2-0.95-0.51-1.9-0.94l-4.81-1.69c-1.43-0.68-2.58-1.6-3.46-2.76c-0.88-1.16-1.32-2.49-1.32-3.96
		c0-0.38,0.09-1.06,0.28-2.05c0.19-0.99,0.78-2.03,1.79-3.14c1-1.1,2.1-1.77,3.29-2.01c1.19-0.24,2.25-0.36,3.17-0.36
		c0.4,0,0.71,0.01,0.94,0.04c0.23,0.02,0.81,0.13,1.75,0.32c0.94,0.19,1.94,0.73,3.01,1.63
		C349.98,217.42,350.73,218.53,351.16,219.86z"/>
	<path class="st5" d="M228.6,174.08c0-13.54,10.97-24.51,24.51-24.51h22.13c13.54,0,24.51,10.97,24.51,24.51v0.38
		c0,13.54-10.98,24.51-24.51,24.51h-22.13c-13.54,0-24.51-10.97-24.51-24.51V174.08z M243.32,172.57v3.39
		c0,6.02,4.88,10.89,10.9,10.89h19.94c6.02,0,10.9-4.88,10.9-10.89v-3.39c0-6.02-4.88-10.9-10.9-10.9h-19.94
		C248.2,161.68,243.32,166.55,243.32,172.57z"/>
	<polygon class="st5" points="112.6,186.44 154.15,186.44 145.02,198.93 112.6,198.93 97.7,198.93 97.7,186.44 97.7,161.94 
		97.7,149.45 112.6,149.45 154.15,149.45 145.02,161.94 112.6,161.94 112.6,168.67 150.89,168.67 143.1,178.99 112.6,178.99 	"/>
	<path class="st2" d="M337.13,182.16c-1.54,0-3.46-2.55-4.83-4.77c-3.13-5.12-17.36-27.72-17.36-27.72h-17.91
		c0,0,26.07,37.55,30.37,44.11c3.52,5.37,8.48,5.19,9.75,5.19c1.19,0,6.14,0,9.75-5.19c4.47-6.44,30.37-44.11,30.37-44.11h-17.91
		c0,0-14.24,22.66-17.37,27.72C340.61,179.6,338.67,182.16,337.13,182.16z"/>
	<path class="st5" d="M158.98,174.08c0-13.54,10.97-24.51,24.51-24.51h3.62l34.53,0l-8.83,12.37h-16.77l-11.45,0.08
		c-6.02,0-10.89,4.88-10.89,10.89v2.48c0,6.02,4.88,10.9,10.89,10.9h11.45l9.97,0.03v-6.95h-24.64l7.85-10.95h31.69v6.05v4.89v6.95
		v12.65h-14.89h-18.44h-4.07c-13.54,0-24.51-10.97-24.51-24.51V174.08z"/>
	<path class="st5" d="M76.84,182.81l15.34,16.12H72.6l-11.93-13.04H37.65v13.04H22.76v-24.5h1.47h13.43h7.99h19.45h0.33h1.7
		c3.91-0.22,6.96-2.87,6.96-6.22c0-3.5-3.37-6.15-7.53-6.15l-1.84,0H44.55l-21.81-0.13l9.13-12.49h33.76l0.83,0.13
		c12.64,0,22.88,5.64,22.88,17.57C89.35,177.43,84.26,179.9,76.84,182.81z"/>
</g>
</svg>
