<?xml version="1.0" encoding="utf-8"?>
<!-- Generator: Adobe Illustrator 23.0.2, SVG Export Plug-In . SVG Version: 6.00 Build 0)  -->
<svg version="1.1" id="Layer_1" xmlns="http://www.w3.org/2000/svg" xmlns:xlink="http://www.w3.org/1999/xlink" x="0px" y="0px"
	 viewBox="0 0 400 245" style="enable-background:new 0 0 400 245;" xml:space="preserve">
<style type="text/css">
	.st0{fill:#EDDB00;}
	.st1{clip-path:url(#SVGID_2_);fill:#0047BA;}
	.st2{fill:#005197;}
	.st3{fill:#009CE1;}
	.st4{fill:#8CD21E;}
	.st5{fill:#FFAA00;}
	.st6{fill:#002B49;}
	.st7{fill:#38D430;}
	.st8{fill:#FFFFFF;}
	.st9{fill:#EC1C24;}
	.st10{fill-rule:evenodd;clip-rule:evenodd;fill:#C50022;}
	.st11{fill:#231F20;}
	.st12{fill:#F1BB32;}
	.st13{fill:#EFBA2F;}
	.st14{fill:#0075A8;}
	.st15{fill:#404041;}
	.st16{fill:#59595B;}
	.st17{fill:#94A1B5;}
	.st18{fill:#288CF4;}
	.st19{fill:#B62411;}
	.st20{fill:#2882DB;}
	.st21{fill:#6526DD;}
	.st22{fill:#FAAB18;}
	.st23{fill:#323232;}
	.st24{fill:#434C55;}
	.st25{fill:url(#SVGID_3_);}
	.st26{fill:#203E79;}
	.st27{fill:#00ADDA;}
	.st28{fill-rule:evenodd;clip-rule:evenodd;fill:#203E79;}
	.st29{fill-rule:evenodd;clip-rule:evenodd;fill:#00ADDA;}
	.st30{fill-rule:evenodd;clip-rule:evenodd;fill:#0B4D84;}
	.st31{fill-rule:evenodd;clip-rule:evenodd;fill:url(#SVGID_4_);}
	.st32{fill-rule:evenodd;clip-rule:evenodd;fill:#FFFFFF;}
	.st33{fill:#0071BB;}
	.st34{fill-rule:evenodd;clip-rule:evenodd;fill:#007CB8;}
	.st35{fill-rule:evenodd;clip-rule:evenodd;fill:#D25C3D;}
</style>
<g id="Слой_2">
	<g id="Layer_1_1_">
		<path class="st20" d="M102.5,145.39V99.23h13.1v9.31c1.98-6.37,8.05-10.57,14.71-10.17v13.7h-0.68
			c-3.89-0.23-7.68,1.27-10.36,4.09c-2.72,3.46-4.05,7.81-3.75,12.2v17.04H102.5z"/>
		<path class="st20" d="M159.1,146.44c-6.43,0.27-12.69-2.09-17.34-6.53c-4.58-4.58-7.05-10.86-6.79-17.34
			c-0.15-6.3,2.16-12.42,6.45-17.04c4.18-4.6,10.15-7.15,16.36-6.98c6.4-0.39,12.61,2.3,16.7,7.24c3.94,5.09,5.98,11.39,5.78,17.83
			c0,0.7,0,1.85,0,3.45h-32.27c0.42,2.61,1.75,4.99,3.75,6.72c2.15,1.63,4.81,2.45,7.51,2.33c4.23-0.04,8.27-1.74,11.26-4.73
			l7.51,6.64C173.39,143.67,166.38,146.79,159.1,146.44z M147.84,118.71h19.7c-0.26-2.65-1.37-5.15-3.15-7.13
			c-1.72-1.79-4.12-2.76-6.6-2.66c-2.47-0.08-4.86,0.88-6.6,2.63c-1.85,1.98-3.03,4.48-3.38,7.17H147.84z"/>
		<path class="st20" d="M189.98,145.39V99.23h13.1v6.53c3.05-4.57,8.13-7.37,13.62-7.51c5.45-0.37,10.59,2.6,12.98,7.51
			c3.6-4.66,9.13-7.42,15.01-7.51c4.27-0.25,8.45,1.33,11.48,4.35c2.94,3.52,4.41,8.04,4.09,12.61v30.02h-12.91v-25.59
			c0-6.25-2.5-9.38-7.51-9.38c-2.2-0.09-4.32,0.79-5.82,2.4c-1.53,1.99-2.28,4.47-2.1,6.98v25.74h-13.25v-25.74
			c0-6.25-2.5-9.38-7.51-9.38c-2.2-0.09-4.32,0.79-5.82,2.4c-1.53,1.99-2.28,4.47-2.1,6.98v25.74L189.98,145.39z"/>
		<path class="st20" d="M271.79,145.39V99.23h13.1v6.53c3.05-4.57,8.13-7.37,13.62-7.51c5.45-0.37,10.59,2.6,12.98,7.51
			c3.6-4.66,9.13-7.42,15.01-7.51c4.27-0.25,8.45,1.33,11.48,4.35c2.94,3.52,4.41,8.04,4.09,12.61v30.02h-12.95v-25.59
			c0-6.25-2.5-9.38-7.51-9.38c-2.2-0.09-4.32,0.79-5.82,2.4c-1.53,1.99-2.28,4.47-2.1,6.98v25.74h-13.25v-25.74
			c0-6.25-2.5-9.38-7.51-9.38c-2.2-0.09-4.32,0.79-5.82,2.4c-1.58,1.97-2.38,4.46-2.25,6.98v25.74L271.79,145.39z"/>
		<path class="st20" d="M375.48,146.44c-6.41,0.26-12.66-2.1-17.3-6.53c-4.58-4.58-7.05-10.86-6.79-17.34
			c-0.15-6.3,2.16-12.42,6.45-17.04c4.18-4.6,10.15-7.15,16.36-6.98c6.4-0.39,12.61,2.3,16.7,7.24c3.94,5.09,5.98,11.39,5.78,17.83
			c0,0.7,0,1.85,0,3.45h-32.31c0.42,2.61,1.75,4.99,3.75,6.72c2.15,1.63,4.81,2.45,7.51,2.33c4.23-0.03,8.27-1.73,11.26-4.73
			l7.51,6.64C389.78,143.67,382.77,146.79,375.48,146.44z M364.23,118.71h19.7c-0.26-2.65-1.37-5.15-3.15-7.13
			c-1.72-1.79-4.12-2.76-6.6-2.66c-2.47-0.08-4.86,0.88-6.6,2.63c-1.85,1.98-3.03,4.48-3.38,7.17H364.23z"/>
		
			<rect x="15.94" y="161.42" transform="matrix(0.261 -0.9653 0.9653 0.261 -146.0011 145.8534)" class="st20" width="12.65" height="13.74"/>
		<path class="st21" d="M74.73,149.29l-3.3-12.2l-13.17,3.75l-4.92-18.2c12.9-10.81,14.6-30.03,3.79-42.93S27.1,65.12,14.2,75.93
			s-14.6,30.03-3.79,42.93c1.15,1.37,2.42,2.64,3.79,3.79l-9.19,34.3l12.2,3.3l2.78-10.28l13.17,3.75l3.3-12.2l-13.17-3.75
			l5.85-21.5c-9.48-2.64-15.03-12.47-12.39-21.96s12.47-15.03,21.96-12.39c9.48,2.64,15.03,12.47,12.39,21.96
			c-1.68,6.01-6.37,10.71-12.39,12.39l12.76,47.21l12.2-3.3l-1.99-7.28L74.73,149.29z"/>
	</g>
</g>
</svg>
