<?xml version="1.0" encoding="UTF-8" standalone="no"?>
<svg
   xmlns:dc="http://purl.org/dc/elements/1.1/"
   xmlns:cc="http://creativecommons.org/ns#"
   xmlns:rdf="http://www.w3.org/1999/02/22-rdf-syntax-ns#"
   xmlns:svg="http://www.w3.org/2000/svg"
   xmlns="http://www.w3.org/2000/svg"
   viewBox="0 0 617.33331 150.66667"
   height="150.66667"
   width="617.33331"
   xml:space="preserve"
   id="svg2"
   version="1.1"><metadata
     id="metadata8"><rdf:RDF><cc:Work
         rdf:about=""><dc:format>image/svg+xml</dc:format><dc:type
           rdf:resource="http://purl.org/dc/dcmitype/StillImage" /></cc:Work></rdf:RDF></metadata><defs
     id="defs6" /><g
     transform="matrix(1.3333333,0,0,-1.3333333,0,150.66667)"
     id="g10"><g
       transform="scale(0.1)"
       id="g12"><path
         id="path14"
         style="fill:#a3d1eb;fill-opacity:1;fill-rule:evenodd;stroke:none"
         d="M 848.98,381.02 475.512,4.48828 V 754.488 H 848.98 V 381.02" /><path
         id="path16"
         style="fill:#26336b;fill-opacity:1;fill-rule:evenodd;stroke:none"
         d="M 0,753.012 373.52,1130 V 380 H 0 v 373.012" /><path
         id="path18"
         style="fill:#424243;fill-opacity:1;fill-rule:nonzero;stroke:none"
         d="M 981.559,433.012 V 782.07 h 149.061 c 66.33,0 99.54,-27.929 99.54,-83.75 0,-45.308 -32.46,-78.91 -97.35,-100.781 l 119.85,-164.527 h -59.54 l -111.09,157.027 v 29.531 c 66.64,10.508 100,36.129 100,76.879 0,32.18 -18.55,48.281 -55.62,48.281 h -99.69 V 433.012 Z M 1500.66,548.32 h -172.65 c 0,-52.5 33.04,-78.75 99.22,-78.75 22.57,0 45.19,2.418 67.81,7.34 v -36.558 c -22.62,-4.922 -50.12,-7.34 -82.5,-7.34 -86.49,0 -129.69,43.668 -129.69,131.09 0,83.519 40.94,125.308 122.81,125.308 78.44,0 110.08,-47.031 95,-141.09 z m -172.65,37.5 h 131.4 c 2.27,44.879 -18.08,67.34 -61.09,67.34 -43.98,0 -67.42,-22.461 -70.31,-67.34 z" /><path
         id="path20"
         style="fill:#424243;fill-opacity:1;fill-rule:nonzero;stroke:none"
         d="m 1571.41,730.82 h 28.43 l 9.69,-41.41 h 59.53 v -36.711 h -52.5 V 505.512 c 0,-23.992 10.35,-35.942 31.1,-35.942 h 21.4 v -36.558 h -33.12 c -43.05,0 -64.53,23.008 -64.53,69.058 z" /><path
         id="path22"
         style="fill:#424243;fill-opacity:1;fill-rule:nonzero;stroke:none"
         d="M 1730.59,433.012 V 782.07 h 45.15 V 661.602 c 26.76,18.519 55.82,27.808 87.19,27.808 59.06,0 88.59,-31.832 88.59,-95.461 V 433.012 h -45.15 V 594.57 c 0,38.129 -18.99,57.192 -56.88,57.192 -25.86,0 -50.43,-10.864 -73.75,-32.5 v -186.25 z" /><path
         id="path24"
         style="fill:#424243;fill-opacity:1;fill-rule:nonzero;stroke:none"
         d="m 2069.69,745.512 h -45.1602 v 36.5586 h 45.1602 z m 0,-312.5 h -45.1602 V 689.41 h 45.1602 z" /><path
         id="path26"
         style="fill:#424243;fill-opacity:1;fill-rule:nonzero;stroke:none"
         d="M 2142.7,433.012 V 689.41 h 30.62 l 7.97,-32.808 c 31.13,21.878 62.38,32.808 93.75,32.808 59.06,0 88.59,-31.832 88.59,-95.461 V 433.012 h -45.15 V 594.57 c 0,38.129 -18.99,57.192 -56.88,57.192 -25.86,0 -50.43,-10.864 -73.75,-32.5 v -186.25 z" /><path
         id="path28"
         style="fill:#424243;fill-opacity:1;fill-rule:nonzero;stroke:none"
         d="M 2436.64,433.012 V 782.07 h 45.16 V 669.41 c 26.56,13.32 56.13,20 88.75,20 62.18,0 93.28,-24.68 93.28,-74.058 0,-35.864 -24.45,-60.582 -73.28,-74.223 l 82.03,-108.117 h -57.19 l -81.56,108.59 v 20.308 c 56.44,5 84.69,22.891 84.69,53.75 0,24.692 -17.9,37.039 -53.6,37.039 -28.24,0 -55.94,-7.66 -83.12,-22.969 V 433.012 Z" /><path
         id="path30"
         style="fill:#424243;fill-opacity:1;fill-rule:nonzero;stroke:none"
         d="M 2888.05,782.07 V 469.57 H 3070.7 V 433.012 H 2842.89 V 782.07 Z" /><path
         id="path32"
         style="fill:#424243;fill-opacity:1;fill-rule:nonzero;stroke:none"
         d="m 3337.58,548.32 h -172.66 c 0,-52.5 33.05,-78.75 99.22,-78.75 22.58,0 45.2,2.418 67.81,7.34 v -36.558 c -22.61,-4.922 -50.11,-7.34 -82.5,-7.34 -86.48,0 -129.68,43.668 -129.68,131.09 0,83.519 40.93,125.308 122.81,125.308 78.44,0 110.08,-47.031 95,-141.09 z m -172.66,37.5 h 131.41 c 2.26,44.879 -18.09,67.34 -61.1,67.34 -43.98,0 -67.42,-22.461 -70.31,-67.34 z" /><path
         id="path34"
         style="fill:#424243;fill-opacity:1;fill-rule:nonzero;stroke:none"
         d="m 3580.51,637.07 c -18.24,8.828 -39.06,13.282 -62.5,13.282 -51.56,0 -77.35,-27.461 -77.35,-82.34 0,-64.922 25.79,-97.352 77.35,-97.352 23.44,0 44.26,3.168 62.5,9.539 z m 45.15,-188.75 c -31.05,-10.23 -69.37,-15.308 -115,-15.308 -76.36,0 -114.53,44.41 -114.53,133.277 0,82.07 40.51,123.121 121.57,123.121 22.18,0 43.12,-4.058 62.81,-12.18 v 104.84 h 45.15 z" /><path
         id="path36"
         style="fill:#424243;fill-opacity:1;fill-rule:nonzero;stroke:none"
         d="m 3870.74,645.98 c -15.43,3.821 -34.53,5.782 -57.34,5.782 -54.49,0 -81.72,-29.532 -81.72,-88.602 0,-60.738 25.78,-91.09 77.34,-91.09 23.44,0 43.99,4.379 61.72,13.129 z m 45.16,-212.968 c 0,-61.883 -39.3,-92.813 -117.81,-92.813 -31.57,0 -59.61,4.063 -84.07,12.18 v 36.723 c 24.89,-8.122 53.05,-12.192 84.53,-12.192 48.13,0 72.19,18.711 72.19,56.102 v 12.187 c -19.18,-8.129 -39.84,-12.187 -62.03,-12.187 -81.05,0 -121.56,43.199 -121.56,129.687 0,84.449 42.73,126.711 128.28,126.711 34.57,0 68.05,-3.551 100.47,-10.621 z" /><path
         id="path38"
         style="fill:#424243;fill-opacity:1;fill-rule:nonzero;stroke:none"
         d="m 4195,548.32 h -172.66 c 0,-52.5 33.05,-78.75 99.22,-78.75 22.58,0 45.2,2.418 67.82,7.34 v -36.558 c -22.62,-4.922 -50.12,-7.34 -82.5,-7.34 -86.49,0 -129.69,43.668 -129.69,131.09 0,83.519 40.93,125.308 122.81,125.308 78.44,0 110.08,-47.031 95,-141.09 z m -172.66,37.5 h 131.41 c 2.27,44.879 -18.09,67.34 -61.09,67.34 -43.99,0 -67.43,-22.461 -70.32,-67.34 z" /><path
         id="path40"
         style="fill:#424243;fill-opacity:1;fill-rule:nonzero;stroke:none"
         d="M 4265.74,433.012 V 689.41 h 30.63 l 7.97,-32.808 c 22.5,21.878 49.53,32.808 81.09,32.808 v -37.648 c -30.63,0 -55.47,-10.864 -74.53,-32.5 v -186.25 z" /><path
         id="path42"
         style="fill:#424243;fill-opacity:1;fill-rule:nonzero;stroke:none"
         d="m 4430.78,445.199 v 39.063 c 28.52,-9.813 58.17,-14.692 88.91,-14.692 40.82,0 61.25,12.231 61.25,36.719 0,22.813 -13.4,34.223 -40.16,34.223 h -41.56 c -53.75,0 -80.63,25.187 -80.63,75.617 0,48.832 35.55,73.281 106.72,73.281 30.63,0 60.16,-4.058 88.6,-12.18 v -39.07 c -28.44,9.692 -57.97,14.539 -88.6,14.539 -42.61,0 -63.9,-12.187 -63.9,-36.57 0,-22.809 12.57,-34.219 37.81,-34.219 h 41.56 c 56.88,0 85.31,-25.23 85.31,-75.621 0,-48.867 -35.47,-73.277 -106.4,-73.277 -30.74,0 -60.39,4.058 -88.91,12.187 z" /></g></g></svg>