<svg xmlns="http://www.w3.org/2000/svg" width="130" height="34.476" viewBox="0 0 130 34.476">
  <defs>
    <style>
      .cls-1, .cls-2 {
        fill: #dc000c;
      }

      .cls-1 {
        fill-rule: evenodd;
      }
    </style>
  </defs>
  <g id="组_115" data-name="组 115" transform="translate(-2690 135)">
    <g id="组_114" data-name="组 114" transform="translate(2690 -135)">
      <g id="组_112" data-name="组 112" transform="translate(0 0)">
        <g id="组_110" data-name="组 110" transform="translate(0 1.327)">
          <path id="路径_159" data-name="路径 159" class="cls-1" d="M136.545,195.68a.339.339,0,0,0-.336-.342.332.332,0,0,0-.254.112,17.483,17.483,0,0,1-25.627-.13.326.326,0,0,0-.253-.119.341.341,0,0,0-.339.342.329.329,0,0,0,.083.219h0a16.619,16.619,0,0,0,26.643.14h0A.349.349,0,0,0,136.545,195.68Z" transform="translate(-106.566 -169.365)"/>
          <path id="路径_160" data-name="路径 160" class="cls-1" d="M135.164,152.019a.338.338,0,0,0-.127.461.35.35,0,0,0,.227.168,17.48,17.48,0,0,1,12.7,22.253.338.338,0,0,0,.489.407.354.354,0,0,0,.15-.185h0a16.616,16.616,0,0,0-13.2-23.139h0A.323.323,0,0,0,135.164,152.019Z" transform="translate(-116.737 -151.957)"/>
          <path id="路径_161" data-name="路径 161" class="cls-1" d="M105.9,175.135a.337.337,0,0,0,.493-.4,17.48,17.48,0,0,1,12.929-22.124.329.329,0,0,0,.228-.162.337.337,0,0,0-.357-.5h0a16.617,16.617,0,0,0-13.441,23h0A.321.321,0,0,0,105.9,175.135Z" transform="translate(-104.428 -151.945)"/>
        </g>
        <g id="组_111" data-name="组 111" transform="translate(1.087)">
          <path id="路径_162" data-name="路径 162" class="cls-1" d="M107.023,183.5l9.24-2.836a.073.073,0,0,0,.023-.007h0a.119.119,0,0,0,.044-.022.265.265,0,0,0-.1-.494v0l-1.321-.229h0a.2.2,0,0,1-.17-.2.207.207,0,0,1,.065-.151h0l5.5-6.335a1.875,1.875,0,0,1,.565-.505,1.852,1.852,0,0,1,1.607-.118l-2.11-6.117-13.949,16.073h0a.58.58,0,0,0-.085.69.573.573,0,0,0,.7.246Z" transform="translate(-106.248 -156.473)"/>
          <path id="路径_163" data-name="路径 163" class="cls-1" d="M143.495,187.993l-7.074-6.584-.018-.016h0a.223.223,0,0,0-.039-.028.268.268,0,0,0-.366.1.279.279,0,0,0-.012.242h0l.461,1.26h0a.2.2,0,0,1-.086.244.2.2,0,0,1-.161.021h0l-8.235-1.594a1.841,1.841,0,0,1-1.625-1.568l-4.241,4.886L142.989,189v0a.581.581,0,0,0,.639-.271.574.574,0,0,0-.135-.729Z" transform="translate(-112.63 -161.943)"/>
          <path id="路径_164" data-name="路径 164" class="cls-1" d="M127.69,159.621c0,.007,0,.016,0,.021v0h0a.171.171,0,0,0,0,.047.268.268,0,0,0,.483.158h0l.861-1.028h0a.2.2,0,0,1,.254-.047.192.192,0,0,1,.1.13h0l2.737,7.928a1.855,1.855,0,0,1-.547,2.194l6.353,1.228-6.946-20.116h0a.57.57,0,0,0-.552-.416.557.557,0,0,0-.552.478Z" transform="translate(-114.88 -149.723)"/>
        </g>
      </g>
      <g id="组_113" data-name="组 113" transform="translate(41.373 8.274)">
        <path id="路径_165" data-name="路径 165" class="cls-1" d="M188.306,170.016h-8.867a.7.7,0,1,1,0-1.4h13.923v-5.043H179.439a5.742,5.742,0,0,0,0,11.484h8.867a.7.7,0,0,1,0,1.4H174.382V181.5h13.924a5.742,5.742,0,0,0,0-11.483Z" transform="translate(-173.698 -163.576)"/>
        <path id="路径_166" data-name="路径 166" class="cls-1" d="M224.5,181.5h6.322l-8.364-17.924h-6.325L207.766,181.5h6.327l1.259-3h7.888Zm-7.2-7.627,2-4.758,2,4.758Z" transform="translate(-187.418 -163.576)"/>
        <path id="路径_167" data-name="路径 167" class="cls-2" d="M262.84,163.58v.006h-.1v10.637l-7.826-10.643h-6.141V181.5h5.258V170.854l7.826,10.652,6.141,0V163.58Z" transform="translate(-203.93 -163.578)"/>
        <path id="路径_168" data-name="路径 168" class="cls-2" d="M300.23,163.58l-5.31,7.22-5.307-7.22h-6.259l8.438,11.476V181.5h6.255v-6.445l8.438-11.476Z" transform="translate(-217.859 -163.578)"/>
      </g>
    </g>
  </g>
</svg>
