<svg id="AW" xmlns="http://www.w3.org/2000/svg" viewBox="0 0 283.46 50.68"><defs><style>.cls-1{fill:#fff;}</style></defs><title>Schroders_Logo_WHITE</title><path id="_Compound_Path_" data-name="&lt;Compound Path&gt;" class="cls-1" d="M161.73,50.63L160.85,58a11.69,11.69,0,0,0-3.94-.69,9.42,9.42,0,0,0-7.45,3.8v22h-7.73V50.86h5.33l1.8,3.5a11.42,11.42,0,0,1,8.88-4.31A13.07,13.07,0,0,1,161.73,50.63Zm118,3.73-1.8-3.5h-5.33V83.12h7.73v-22a9.42,9.42,0,0,1,7.45-3.8,11.69,11.69,0,0,1,3.94.69l0.88-7.39a13.07,13.07,0,0,0-4-.57A11.42,11.42,0,0,0,279.68,54.37ZM123.59,50.06A14.71,14.71,0,0,0,113.81,54V33.27l-7.73,1.83v48h7.73V61.58c1.91-2.29,4.66-4.2,7.69-4.2,4.78,0,7.53,2.92,7.53,10v15.7h7.71v-16C136.73,57.37,132.5,50.06,123.59,50.06ZM89.52,76.52c-4.92,0-9.06-4-9.06-9.61s4-9.46,8.91-9.46A9.84,9.84,0,0,1,97,61.61l5.75-4.91a16.2,16.2,0,0,0-13.26-6.65,16.95,16.95,0,1,0,0,33.9,17.87,17.87,0,0,0,13.6-6.3l-5.58-5C95.22,75.3,93,76.52,89.52,76.52ZM56.42,55.29c-0.74-.19-2.82-0.73-4.13-1-4.69-1.09-7.58-2.5-7.58-5.71,0-3,3-5.72,7.48-5.72,4,0,7.1,2,9.7,5.55L67.74,43c-2.9-3.77-7.39-7.89-15.42-7.89-8.73,0-16.08,6-16.08,14,0,6.33,4,10.76,12.51,12.82,1.24,0.3,3.07.73,4.35,1.06,5.24,1.36,7.33,3.74,7.33,6.7,0,3.75-3.63,6.33-7.62,6.33-3.55,0-7.79-1.26-10.54-6.83l-6.83,4.15C37.69,78.72,44,84,52.51,84c9.8,0,16.6-6.61,16.6-14.22C69.1,62.41,64.66,57.44,56.42,55.29Zm252.16,8.39c-4.4-1-7.1-2.06-7.1-4.11,0-1.89,2-3,4.88-3a8.6,8.6,0,0,1,6.9,3.86L318.21,56a14,14,0,0,0-11.79-6c-6,0-12.14,3.84-12.14,9.81,0,5.61,4.38,8.34,12.22,10.22,2.94,0.7,5.22,1.82,5.22,3.86,0,1.85-1.67,3.36-4.83,3.36a10.57,10.57,0,0,1-9-4.58L293,77.16c2.78,4.22,8.24,6.8,14.13,6.8,6.79,0,11.8-4.54,11.8-10.2C318.9,67.94,314.07,64.93,308.58,63.67ZM161.55,67A16.9,16.9,0,0,0,177.36,84V76.69a9.88,9.88,0,0,1,0-19.37V50.06A17,17,0,0,0,161.55,67Zm19-17v7.26a9.88,9.88,0,0,1,0,19.37V84A17,17,0,0,0,180.58,50.06Zm51.89,24.85,1.83,8.21h-7l-1.65-3.06a15.07,15.07,0,0,1-10,3.9c-9.07,0-15.86-7.45-15.86-16.94a16.52,16.52,0,0,1,16.45-17,14.29,14.29,0,0,1,8.54,3V35.1l7.73-1.83V74.91ZM224.75,60a11.57,11.57,0,0,0-7.78-2.9,9.52,9.52,0,0,0-9.39,9.73c0,6.27,4.46,10,9.24,10a11.42,11.42,0,0,0,7.93-3.39V60Zm43.84,7c0,0.9-.07,2.17-0.07,2.17H244.33a9,9,0,0,0,9.1,7.89,10.86,10.86,0,0,0,8.54-4l5.21,4.6a17.47,17.47,0,0,1-13.6,6.3,16.69,16.69,0,0,1-17-17.1,16.43,16.43,0,0,1,16.49-16.79C262.11,50.06,268.59,57.6,268.59,67Zm-8-3.6a7.92,7.92,0,0,0-7.9-6.47,8.54,8.54,0,0,0-8.13,6.47h16Z" transform="translate(-35.43 -33.27)"/></svg>