<?xml version="1.0" encoding="utf-8"?>
<!-- Generator: Adobe Illustrator 23.0.2, SVG Export Plug-In . SVG Version: 6.00 Build 0)  -->
<svg version="1.1" id="Layer_1" xmlns="http://www.w3.org/2000/svg" xmlns:xlink="http://www.w3.org/1999/xlink" x="0px" y="0px"
	 viewBox="0 0 400 245" style="enable-background:new 0 0 400 245;" xml:space="preserve">
<style type="text/css">
	.st0{fill:#4094D0;}
	.st1{fill:#EE4636;}
	.st2{fill:#FFC10E;}
	.st3{fill:#2FB355;}
	.st4{fill:none;}
	.st5{fill-rule:evenodd;clip-rule:evenodd;}
	.st6{fill-rule:evenodd;clip-rule:evenodd;fill:#E82D3C;}
	.st7{fill:#4F81C2;}
	.st8{fill:#F25022;}
	.st9{fill:#80BA01;}
	.st10{fill:#777777;}
	.st11{fill:#02A4EF;}
	.st12{fill:#FFB902;}
	.st13{fill:#263C8D;}
	.st14{fill:#1853A3;}
	.st15{fill:#54565A;}
	.st16{fill:#808080;}
	.st17{fill:#0085C3;}
	.st18{fill:#4666A9;}
	.st19{fill:#006BB6;}
	.st20{fill-rule:evenodd;clip-rule:evenodd;fill:#2C348A;}
	.st21{fill:#F58220;}
	.st22{fill:#0058A9;}
	.st23{fill-rule:evenodd;clip-rule:evenodd;fill:#EC1C24;}
	.st24{fill:#ED1A3B;}
</style>
<g>
	<g>
		<path d="M56.65,135.42c-1.01,1.3-2.14,2.46-3.4,3.47c-1.26,1.01-2.67,1.83-4.22,2.46c-1.55,0.63-3.3,0.94-5.23,0.94
			c-2.52,0-4.92-0.42-7.19-1.26c-2.27-0.84-4.5-1.8-6.69-2.9c-2.19-1.01-4.37-1.93-6.55-2.77c-2.19-0.84-4.5-1.26-6.94-1.26
			c-2.77,0-4.98,0.9-6.62,2.71s-2.96,3.8-3.97,5.99l-4.54-4.54c0.67-1.35,1.47-2.67,2.4-3.97c0.92-1.3,2.04-2.46,3.34-3.47
			c1.3-1.01,2.77-1.83,4.41-2.46c1.64-0.63,3.51-0.94,5.61-0.94c2.35,0,4.77,0.42,7.25,1.26c2.48,0.84,4.9,1.76,7.25,2.77
			c2.44,1.1,4.71,2.06,6.81,2.9c2.1,0.84,3.95,1.26,5.55,1.26c2.52,0,4.64-0.9,6.37-2.71c1.72-1.8,3.3-3.8,4.73-5.99l4.54,4.54
			C58.63,132.79,57.66,134.12,56.65,135.42z"/>
		<path d="M113.26,114.24c-0.92-1.8-2.16-3.3-3.72-4.47c-1.55-1.18-3.34-2.04-5.36-2.59c-2.02-0.54-4.16-0.82-6.43-0.82
			c-1.76,0-3.55,0.19-5.36,0.57c-1.81,0.38-3.47,1.01-4.98,1.89c-1.51,0.88-2.73,2.04-3.66,3.47c-0.93,1.43-1.39,3.19-1.39,5.3
			c0,1.76,0.44,3.26,1.32,4.47c0.88,1.22,1.99,2.25,3.34,3.09c1.35,0.84,2.82,1.53,4.41,2.08c1.6,0.55,3.07,0.99,4.41,1.32
			l10.59,2.4c2.27,0.34,4.52,0.95,6.75,1.83c2.22,0.88,4.2,2.04,5.92,3.47c1.72,1.43,3.13,3.19,4.22,5.3
			c1.09,2.1,1.64,4.58,1.64,7.44c0,3.53-0.8,6.54-2.4,9.01c-1.6,2.48-3.64,4.5-6.11,6.05c-2.48,1.55-5.28,2.67-8.38,3.34
			c-3.11,0.67-6.18,1.01-9.2,1.01c-7.65,0-13.85-1.81-18.6-5.42c-4.75-3.61-7.46-9.41-8.13-17.4h7.94
			c0.33,5.38,2.29,9.44,5.86,12.17c3.57,2.73,8.01,4.1,13.3,4.1c1.93,0,3.93-0.21,5.99-0.63c2.06-0.42,3.97-1.14,5.74-2.14
			c1.76-1.01,3.21-2.29,4.35-3.85c1.14-1.55,1.7-3.47,1.7-5.74c0-1.93-0.4-3.55-1.2-4.85c-0.8-1.3-1.87-2.4-3.21-3.28
			c-1.35-0.88-2.88-1.62-4.6-2.21c-1.72-0.59-3.47-1.09-5.23-1.51l-10.21-2.27c-2.61-0.67-5-1.45-7.19-2.33
			c-2.19-0.89-4.1-1.97-5.74-3.28c-1.64-1.3-2.92-2.9-3.85-4.79c-0.93-1.89-1.39-4.22-1.39-7c0-3.28,0.73-6.09,2.21-8.45
			c1.47-2.35,3.38-4.24,5.74-5.67c2.35-1.43,4.98-2.48,7.88-3.15c2.9-0.67,5.78-1.01,8.64-1.01c3.28,0,6.32,0.42,9.14,1.26
			c2.82,0.84,5.3,2.14,7.44,3.91c2.14,1.76,3.85,3.95,5.11,6.56c1.26,2.61,1.97,5.67,2.14,9.2h-7.94
			C114.69,118.17,114.19,116.05,113.26,114.24z"/>
		<path d="M142.32,145.13c0.8,3.07,2.08,5.82,3.84,8.26c1.77,2.44,3.99,4.46,6.69,6.05c2.69,1.6,5.92,2.4,9.71,2.4
			c5.8,0,10.34-1.51,13.62-4.54c3.28-3.03,5.55-7.06,6.81-12.11h7.95c-1.68,7.4-4.77,13.11-9.27,17.15
			c-4.5,4.04-10.87,6.05-19.1,6.05c-5.13,0-9.56-0.91-13.3-2.71c-3.74-1.8-6.79-4.29-9.14-7.44c-2.36-3.15-4.1-6.81-5.23-10.97
			c-1.14-4.16-1.7-8.55-1.7-13.17c0-4.29,0.57-8.49,1.7-12.61c1.13-4.12,2.88-7.79,5.23-11.03c2.35-3.23,5.4-5.84,9.14-7.82
			c3.74-1.97,8.18-2.96,13.3-2.96c5.21,0,9.67,1.05,13.36,3.15c3.7,2.1,6.7,4.85,9.02,8.26c2.31,3.4,3.97,7.31,4.98,11.72
			c1.01,4.41,1.43,8.89,1.26,13.43h-50.05C141.12,139.1,141.52,142.06,142.32,145.13z M181.66,120.86c-0.97-2.77-2.33-5.23-4.1-7.38
			c-1.76-2.14-3.91-3.86-6.43-5.17c-2.52-1.3-5.38-1.95-8.57-1.95c-3.28,0-6.18,0.65-8.7,1.95c-2.52,1.3-4.66,3.02-6.43,5.17
			c-1.77,2.15-3.18,4.62-4.22,7.44c-1.05,2.82-1.75,5.69-2.08,8.64h42.11C183.15,126.53,182.62,123.63,181.66,120.86z"/>
		<path d="M251.82,166.63v-12.36h-0.25c-0.84,2.1-2.08,4.04-3.72,5.8c-1.64,1.77-3.51,3.26-5.61,4.48c-2.1,1.22-4.35,2.16-6.74,2.84
			c-2.4,0.67-4.77,1.01-7.12,1.01c-4.96,0-9.27-0.91-12.92-2.71c-3.66-1.8-6.7-4.29-9.14-7.44c-2.44-3.15-4.24-6.81-5.42-10.97
			c-1.18-4.16-1.77-8.55-1.77-13.17c0-4.62,0.59-9.02,1.77-13.18c1.18-4.16,2.98-7.82,5.42-10.97c2.44-3.15,5.48-5.65,9.14-7.5
			c3.66-1.85,7.96-2.77,12.92-2.77c2.44,0,4.81,0.29,7.12,0.88c2.31,0.59,4.47,1.49,6.49,2.71c2.02,1.22,3.8,2.71,5.36,4.47
			s2.75,3.83,3.6,6.18h0.25V76.61h7.94v90.02H251.82z M208.26,144.12c0.8,3.32,2.06,6.29,3.78,8.89c1.72,2.61,3.93,4.73,6.62,6.37
			c2.69,1.64,5.92,2.46,9.71,2.46c4.2,0,7.75-0.82,10.65-2.46c2.9-1.64,5.25-3.76,7.06-6.37c1.81-2.6,3.11-5.57,3.91-8.89
			c0.8-3.32,1.2-6.66,1.2-10.02c0-3.36-0.4-6.7-1.2-10.02c-0.8-3.32-2.1-6.28-3.91-8.89c-1.81-2.61-4.16-4.73-7.06-6.37
			c-2.9-1.64-6.45-2.46-10.65-2.46c-3.78,0-7.02,0.82-9.71,2.46c-2.69,1.64-4.9,3.76-6.62,6.37c-1.72,2.61-2.98,5.57-3.78,8.89
			c-0.8,3.32-1.2,6.66-1.2,10.02C207.06,137.46,207.46,140.8,208.26,144.12z"/>
		<path d="M282.08,101.57v11.22h0.26c1.51-3.95,4.2-7.12,8.06-9.52c3.87-2.4,8.11-3.59,12.73-3.59c4.54,0,8.34,0.59,11.41,1.76
			c3.07,1.18,5.53,2.84,7.37,4.98c1.85,2.14,3.16,4.77,3.91,7.88c0.76,3.11,1.14,6.6,1.14,10.46v41.86h-7.95v-40.6
			c0-2.77-0.25-5.36-0.75-7.75c-0.51-2.4-1.39-4.47-2.65-6.24c-1.26-1.76-2.96-3.15-5.11-4.16c-2.14-1.01-4.81-1.51-8-1.51
			c-3.2,0-6.03,0.57-8.51,1.7c-2.48,1.14-4.58,2.69-6.31,4.67c-1.72,1.97-3.07,4.33-4.04,7.06c-0.97,2.73-1.49,5.69-1.57,8.89v37.95
			h-7.94v-65.06H282.08z"/>
		<path d="M343.6,111.65c1.35-2.77,3.17-5.04,5.49-6.81c2.31-1.76,5.02-3.07,8.13-3.91c3.11-0.84,6.56-1.26,10.34-1.26
			c2.86,0,5.72,0.27,8.57,0.82c2.86,0.55,5.42,1.57,7.69,3.09c2.27,1.51,4.12,3.64,5.55,6.37c1.43,2.73,2.14,6.28,2.14,10.65v34.55
			c0,3.19,1.55,4.79,4.66,4.79c0.93,0,1.77-0.17,2.52-0.5v6.68c-0.93,0.17-1.74,0.29-2.46,0.38c-0.72,0.08-1.62,0.13-2.71,0.13
			c-2.02,0-3.64-0.27-4.85-0.82c-1.22-0.55-2.17-1.32-2.84-2.33c-0.67-1.01-1.12-2.21-1.32-3.6c-0.21-1.39-0.32-2.92-0.32-4.6h-0.25
			c-1.43,2.1-2.88,3.97-4.35,5.61c-1.47,1.64-3.11,3-4.92,4.1c-1.81,1.1-3.87,1.93-6.18,2.52c-2.31,0.59-5.07,0.89-8.26,0.89
			c-3.02,0-5.86-0.36-8.51-1.07c-2.65-0.71-4.96-1.85-6.93-3.4c-1.98-1.55-3.53-3.53-4.67-5.92c-1.13-2.4-1.7-5.23-1.7-8.51
			c0-4.54,1.01-8.09,3.02-10.65c2.02-2.57,4.68-4.52,8.01-5.86c3.32-1.35,7.06-2.29,11.22-2.84c4.16-0.55,8.39-1.07,12.67-1.58
			c1.68-0.17,3.15-0.38,4.41-0.63c1.26-0.25,2.31-0.69,3.15-1.32c0.84-0.63,1.49-1.49,1.96-2.59c0.46-1.09,0.69-2.52,0.69-4.29
			c0-2.69-0.44-4.9-1.32-6.62c-0.88-1.72-2.1-3.09-3.66-4.1c-1.55-1.01-3.36-1.7-5.42-2.08c-2.06-0.38-4.27-0.57-6.62-0.57
			c-5.05,0-9.16,1.2-12.36,3.59c-3.2,2.4-4.88,6.24-5.04,11.53h-7.95C341.46,117.71,342.25,114.43,343.6,111.65z M383.31,131.07
			c-0.5,0.93-1.47,1.6-2.9,2.02c-1.43,0.42-2.69,0.72-3.78,0.88c-3.36,0.59-6.83,1.12-10.4,1.58s-6.83,1.16-9.77,2.08
			c-2.94,0.93-5.36,2.25-7.25,3.97c-1.89,1.72-2.84,4.18-2.84,7.38c0,2.01,0.4,3.8,1.2,5.36c0.8,1.56,1.87,2.9,3.22,4.04
			c1.34,1.14,2.9,2,4.66,2.59c1.76,0.59,3.57,0.88,5.42,0.88c3.02,0,5.92-0.46,8.7-1.39c2.77-0.92,5.19-2.27,7.25-4.03
			c2.06-1.77,3.7-3.91,4.92-6.43c1.22-2.52,1.83-5.38,1.83-8.57v-10.34H383.31z"/>
	</g>
</g>
</svg>
