<svg viewBox="0 0 863.45 369.82" xmlns="http://www.w3.org/2000/svg" xmlns:xlink="http://www.w3.org/1999/xlink"><clipPath id="a"><path d="m212.93 215.39v-60.96l-52.79-30.48-52.8 30.48v60.96l52.8 30.48z"/></clipPath><g fill="#0f1041"><path d="m294.6 179.5c-2.91-.93-5.92-1.71-8.82-2.46-1.55-.4-3.09-.79-4.63-1.22l-1.44-.38a40 40 0 0 1 -4.91-1.53 6.37 6.37 0 0 1 -4.39-6.33 6.91 6.91 0 0 1 4.55-6.74 14.39 14.39 0 0 1 7.49-.91c2.37.22 8.05 1.39 9.59 7.47.14.55.42 1.69.42 1.69l1.82-.45c4.4-1.17 9-2.39 13.45-3.53.54-.14 1.62-.46 1.62-.46s-.23-1.13-.37-1.73a23 23 0 0 0 -13.88-16.8 34.93 34.93 0 0 0 -27.31-.44 22.9 22.9 0 0 0 -13.28 12.39 26 26 0 0 0 -.12 19.53c2.6 6.29 7.42 10.63 14.32 12.9 3.3 1.08 6.73 1.92 10 2.73 1.87.45 3.8.93 5.77 1.46a26.84 26.84 0 0 1 5.35 1.86 6.59 6.59 0 0 1 2.91 8.78c-.91 1.95-2.64 3.23-5.28 3.92a21.52 21.52 0 0 1 -11.8-.24c-3.7-1.12-6.05-3.1-7.2-6.07-.18-.46-.32-.95-.47-1.46-.07-.26-.15-.51-.22-.77l-.27-.88-16.77 4.28.21.91c.07.31.13.59.19.87.13.62.25 1.19.41 1.75 2 7.27 6.81 12.59 14.24 15.81a38.59 38.59 0 0 0 15.42 3.24 41.69 41.69 0 0 0 12.49-2c10.21-3.19 16-9.92 17.26-20a22.55 22.55 0 0 0 -4.32-17.06 24 24 0 0 0 -12.03-8.13z"/><path d="m450 170.12h-10.19v-21.77h-16.81v21.76h-20.9v-21.76h-16.86v21.84h-10.1v14.47h10.12v40.45h16.84v-40.45h20.9v40.45h16.83v-40.47h10.15z"/><path d="m716.18 191.87a36.46 36.46 0 0 0 -.57-6.52c-1.37-7.3-5.28-12.33-11.64-14.93a27 27 0 0 0 -14.87-1.42 18.38 18.38 0 0 0 -10 4.68l-.34-3.42h-16.05l-.12 55h17.09s0-20.48 0-29.38a29.62 29.62 0 0 1 .13-3.09c.35-3.29 1.6-5.43 4-6.75a11.59 11.59 0 0 1 7.56-1.62c4.35.64 6.86 2.87 7.46 6.61a28.93 28.93 0 0 1 .35 4.67v29.56h17.09s-.06-27.54-.09-33.39z"/><path d="m747.88 170.11v-21.76h-16.93l.02 21.83h-10.09l-.03 14.48h10.12v40.44h16.99v-40.43h9.9v-14.56z"/><path d="m456.06 148.35h17.01v76.73h-17.01z"/><path d="m635.43 170.23h16.99v54.87h-16.99z"/><path d="m644 143.51a9.82 9.82 0 0 0 -7.12 16.69 9.92 9.92 0 0 0 7.06 2.92 9.86 9.86 0 0 0 6.87-16.77 9.55 9.55 0 0 0 -6.81-2.84z"/><path d="m606.44 148.35-22.15 54.74-22.05-54.74h-18.12v76.73h16.99v-38.29l14.95 38.38h16.35l15.21-38.85v38.76h17.49v-76.73z"/><path d="m354.06 207.87a10.28 10.28 0 0 1 -1.66 1.64c-4.21 3.16-11.87 3-16.06-.42a8.5 8.5 0 0 1 -3-5.25h38.65.4v-1.79c.07-4.28.14-8.72-.94-13.05-2-7.88-6.26-13.65-12.78-17.17-5.71-3.08-12.24-4-19.41-2.73-8.76 1.55-15.15 6.28-19 14.06-3.46 7-4.2 14.7-2.2 23a25.44 25.44 0 0 0 13.05 17.19 28 28 0 0 0 13.57 3.22c.82 0 1.65 0 2.5-.08a27.49 27.49 0 0 0 18.16-7.81 21.55 21.55 0 0 0 3.89-5.27zm-11.88-24.71c4-.61 7.06 0 9.52 2a8.91 8.91 0 0 1 3.18 6.25h-21.16a10 10 0 0 1 8.46-8.25z"/><path d="m518 207.87a9.89 9.89 0 0 1 -1.66 1.64c-4.21 3.16-11.87 3-16.06-.42a8.54 8.54 0 0 1 -3-5.25h38.65.41v-1.79c.06-4.28.13-8.72-.95-13.05-2-7.88-6.26-13.65-12.77-17.17a29.25 29.25 0 0 0 -19.42-2.73c-8.75 1.55-15.15 6.28-19 14.06-3.47 7-4.21 14.7-2.21 23a25.45 25.45 0 0 0 13.01 17.16 27.93 27.93 0 0 0 13.56 3.22c.82 0 1.65 0 2.5-.08a27.47 27.47 0 0 0 18.16-7.81 21.55 21.55 0 0 0 3.89-5.27zm-11.88-24.71c4-.61 7.07 0 9.52 2a8.91 8.91 0 0 1 3.18 6.25h-21.17a10 10 0 0 1 8.46-8.25z"/></g><g clip-path="url(#a)"><g fill="#a3e1c1"><path d="m107.34 123.95h105.59v121.92h-105.59z"/><path d="m218.05 218.48a64.35 64.35 0 0 1 -118.43-10.59h5.72v-49h-1.34a64.34 64.34 0 0 1 118.42 10.58h-7.5v49.06z"/><path d="m218 218.43a64.26 64.26 0 0 1 -118.29-10.57h5.63v-49h-1.25a64.25 64.25 0 0 1 118.25 10.56h-7.41v49z"/></g><g fill="#a2e1c1"><path d="m217.88 218.37a64.15 64.15 0 0 1 -118.07-10.55h5.53v-48.9h-1.16a64.15 64.15 0 0 1 118.07 10.55h-7.32v48.9z"/><path d="m217.79 218.32a64.06 64.06 0 0 1 -117.89-10.53h5.44v-48.79h-1.08a64.06 64.06 0 0 1 117.9 10.54h-7.23v48.83z"/><path d="m217.71 218.27a64 64 0 0 1 -117.71-10.52h5.35v-48.75h-1a64 64 0 0 1 117.72 10.52h-7.14v48.76z"/></g><path d="m217.62 218.22a63.87 63.87 0 0 1 -117.54-10.5h5.26v-48.72h-.91a63.86 63.86 0 0 1 117.57 10.54h-7v48.68z" fill="#a1e1c1"/><path d="m217.54 218.17a63.77 63.77 0 0 1 -117.37-10.49h5.17v-48.61h-.82a63.77 63.77 0 0 1 117.36 10.49h-6.95v48.61z" fill="#a1e0c1"/><path d="m217.45 218.12a63.67 63.67 0 0 1 -117.18-10.47h5.07v-48.54h-.74a63.68 63.68 0 0 1 117.19 10.47h-6.86v48.54z" fill="#a0e0c1"/><path d="m217.37 218.07a63.58 63.58 0 0 1 -117-10.46h5v-48.46h-.65a63.58 63.58 0 0 1 117 10.45h-6.77v48.47z" fill="#a0e0c1"/><path d="m217.28 218a63.48 63.48 0 0 1 -116.83-10.44h4.89v-48.37h-.56a63.48 63.48 0 0 1 116.83 10.44h-6.68v48.37z" fill="#9fe0c1"/><path d="m217.2 218a63.39 63.39 0 0 1 -116.66-10.43h4.8v-48.35h-.48a63.38 63.38 0 0 1 116.65 10.43h-6.58v48.35z" fill="#9ee0c1"/><path d="m217.11 217.92a63.29 63.29 0 0 1 -116.48-10.41h4.71v-48.25h-.34a63.28 63.28 0 0 1 116.47 10.41h-6.49v48.25z" fill="#9ee0c1"/><path d="m217 217.87a63.19 63.19 0 0 1 -116.3-10.4h4.61v-48.17h-.31a63.2 63.2 0 0 1 116.3 10.39h-6.4v48.18z" fill="#9de0c1"/><path d="m216.94 217.82a63.09 63.09 0 0 1 -116.12-10.38h4.52v-48.1h-.22a63.09 63.09 0 0 1 116.12 10.38h-6.31v48.1z" fill="#9ddfc1"/><path d="m216.85 217.77a63 63 0 0 1 -115.94-10.37h4.43v-48h-.14a63 63 0 0 1 116 10.36h-6.22v48z" fill="#9cdfc1"/><path d="m216.77 217.71a62.9 62.9 0 0 1 -115.77-10.34h4.34v-48a62.9 62.9 0 0 1 115.76 10.34h-6.12v48z" fill="#9bdfc1"/><path d="m216.68 217.66a62.8 62.8 0 1 1 4.32-47.87h-6v47.87z" fill="#9bdfc1"/><path d="m216.6 217.61a62.72 62.72 0 1 1 4.27-47.8h-5.94v47.8z" fill="#9adfc1"/><path d="m216.51 217.56a62.6 62.6 0 1 1 4.27-47.73h-5.85v47.73z" fill="#99dfc1"/><path d="m216.43 217.51a62.51 62.51 0 1 1 4.26-47.66h-5.76v47.66z" fill="#98dec1"/><path d="m216.34 217.46a62.43 62.43 0 1 1 4.25-47.58h-5.66v47.58z" fill="#98dec1"/><path d="m216.26 217.41a62.34 62.34 0 1 1 4.24-47.51h-5.57v47.51z" fill="#97dec1"/><path d="m216.17 217.36a62.22 62.22 0 1 1 4.24-47.44h-5.48v47.44z" fill="#96dec1"/><path d="m216.09 217.31a62.14 62.14 0 1 1 4.23-47.31h-5.39v47.36z" fill="#96dec1"/><path d="m216 217.26a62 62 0 1 1 4.23-47.26h-5.3v47.29z" fill="#95dec2"/><path d="m215.91 217.21a61.94 61.94 0 1 1 4.22-47.21h-5.2v47.22z" fill="#94ddc2"/><path d="m215.83 217.16a61.85 61.85 0 1 1 4.17-47.16h-5.11v47.15z" fill="#93ddc2"/><path d="m215.74 217.11a61.74 61.74 0 1 1 4.26-47.11h-5v47.07z" fill="#92ddc2"/><path d="m215.66 217.06a61.65 61.65 0 1 1 4.2-47h-4.93v47z" fill="#92ddc2"/><path d="m215.57 217a61.53 61.53 0 1 1 4.2-46.92h-4.84v46.92z" fill="#91ddc2"/><path d="m215.49 217a61.46 61.46 0 1 1 4.18-46.85h-4.74v46.85z" fill="#90dcc2"/><path d="m215.4 216.9a61.35 61.35 0 1 1 4.18-46.77h-4.65v46.77z" fill="#8fdcc2"/><path d="m215.32 216.85a61.28 61.28 0 1 1 4.17-46.7h-4.56v46.7z" fill="#8edcc2"/><path d="m215.23 216.8a61.16 61.16 0 1 1 4.17-46.63h-4.47v46.63z" fill="#8edcc2"/><path d="m215.15 216.75a61.08 61.08 0 1 1 4.16-46.55h-4.38v46.55z" fill="#8ddcc2"/><path d="m215.06 216.7a61 61 0 1 1 4.15-46.48h-4.28v46.48z" fill="#8cdbc2"/><path d="m215 216.65a60.88 60.88 0 1 1 4.15-46.41h-4.19v46.41z" fill="#8bdbc2"/><path d="m214.89 216.6a60.78 60.78 0 1 1 4.11-46.34 60.78 60.78 0 0 1 -4.11 46.34z" fill="#8adbc2"/><path d="m214.8 216.55a60.68 60.68 0 1 1 4.14-46.26 60.68 60.68 0 0 1 -4.14 46.26z" fill="#89dbc2"/><path d="m214.72 216.5a60.58 60.58 0 1 1 4.13-46.19 60.59 60.59 0 0 1 -4.13 46.19z" fill="#89dbc2"/><path d="m214.63 216.45a60.5 60.5 0 1 1 4.12-46.12 60.49 60.49 0 0 1 -4.12 46.12z" fill="#88dac2"/><path d="m214.55 216.4a60.41 60.41 0 1 1 4.11-46.05 60.41 60.41 0 0 1 -4.11 46.05z" fill="#87dac2"/><path d="m214.46 216.34a60.29 60.29 0 1 1 4.11-46 60.29 60.29 0 0 1 -4.11 46z" fill="#86dac2"/><path d="m214.38 216.29a60.2 60.2 0 1 1 4.1-45.89 60.2 60.2 0 0 1 -4.1 45.89z" fill="#85dac2"/><path d="m214.29 216.24a60.09 60.09 0 1 1 4.1-45.82 60.09 60.09 0 0 1 -4.1 45.82z" fill="#84d9c2"/><path d="m214.21 216.19a60 60 0 1 1 4.08-45.74 60 60 0 0 1 -4.08 45.74z" fill="#83d9c2"/><path d="m214.12 216.14a59.91 59.91 0 1 1 4.08-45.67 59.92 59.92 0 0 1 -4.08 45.67z" fill="#82d9c2"/><path d="m214 216.09a59.8 59.8 0 1 1 4.08-45.6 59.8 59.8 0 0 1 -4.08 45.6z" fill="#81d9c2"/><path d="m214 216a59.72 59.72 0 1 1 4-45.49 59.73 59.73 0 0 1 -4 45.49z" fill="#81d9c2"/><path d="m213.86 216a59.62 59.62 0 1 1 4.07-45.45 59.63 59.63 0 0 1 -4.07 45.45z" fill="#80d8c2"/><path d="m213.78 215.94a59.54 59.54 0 1 1 4.05-45.38 59.53 59.53 0 0 1 -4.05 45.38z" fill="#7fd8c2"/><circle cx="161.03" cy="188.35" fill="#7ed8c2" r="59.43"/><circle cx="161.03" cy="188.34" fill="#7dd8c2" r="59.33"/><circle cx="161.03" cy="188.34" fill="#7cd7c2" r="59.24"/><circle cx="161.03" cy="188.33" fill="#7bd7c2" r="59.14"/><circle cx="161.03" cy="188.32" fill="#7ad7c3" r="59.05"/><circle cx="161.03" cy="188.32" fill="#79d7c3" r="58.95"/><circle cx="161.03" cy="188.31" fill="#78d6c3" r="58.85"/><circle cx="161.03" cy="188.31" fill="#77d6c3" r="58.76"/><circle cx="161.03" cy="188.3" fill="#76d6c3" r="58.66"/><circle cx="161.03" cy="188.29" fill="#75d6c3" r="58.56"/><circle cx="161.03" cy="188.29" fill="#74d6c3" r="58.47"/><circle cx="161.03" cy="188.28" fill="#73d5c3" r="58.37"/><circle cx="161.03" cy="188.27" fill="#72d5c3" r="58.27"/><circle cx="161.03" cy="188.27" fill="#71d5c3" r="58.18"/><circle cx="161.03" cy="188.26" fill="#70d5c3" r="58.08"/><circle cx="161.03" cy="188.26" fill="#6fd4c3" r="57.98"/><circle cx="161.03" cy="188.25" fill="#6ed4c3" r="57.89"/><circle cx="161.03" cy="188.24" fill="#6dd4c3" r="57.79"/><circle cx="161.03" cy="188.24" fill="#6cd4c3" r="57.7"/><circle cx="161.03" cy="188.23" fill="#6bd3c3" r="57.6"/><circle cx="161.03" cy="188.23" fill="#6ad3c3" r="57.5"/><circle cx="161.03" cy="188.22" fill="#69d3c3" r="57.41"/><circle cx="161.03" cy="188.21" fill="#68d3c3" r="57.31"/><circle cx="161.03" cy="188.21" fill="#67d2c3" r="57.21"/><circle cx="161.03" cy="188.2" fill="#66d2c3" r="57.12"/><circle cx="161.03" cy="188.2" fill="#65d2c3" r="57.02"/><circle cx="161.03" cy="188.19" fill="#64d2c3" r="56.92"/><circle cx="161.03" cy="188.18" fill="#63d1c3" r="56.83"/><circle cx="161.03" cy="188.18" fill="#62d1c3" r="56.73"/><circle cx="161.03" cy="188.17" fill="#61d1c3" r="56.64"/><circle cx="161.03" cy="188.17" fill="#60d0c3" r="56.54"/><circle cx="161.03" cy="188.16" fill="#5fd0c4" r="56.44"/><circle cx="161.03" cy="188.15" fill="#5ed0c4" r="56.35"/><circle cx="161.03" cy="188.15" fill="#5dd0c4" r="56.25"/><circle cx="161.03" cy="188.14" fill="#5bcfc4" r="56.15"/><circle cx="161.03" cy="188.13" fill="#5acfc4" r="56.06"/><circle cx="161.03" cy="188.13" fill="#59cfc4" r="55.96"/><circle cx="161.03" cy="188.12" fill="#58cfc4" r="55.86"/><circle cx="161.03" cy="188.12" fill="#57cec4" r="55.77"/><circle cx="161.03" cy="188.11" fill="#56cec4" r="55.67"/><circle cx="161.03" cy="188.1" fill="#55cec4" r="55.57"/><circle cx="161.03" cy="188.1" fill="#54cec4" r="55.48"/><circle cx="161.03" cy="188.09" fill="#53cdc4" r="55.38"/><circle cx="161.03" cy="188.09" fill="#52cdc4" r="55.29"/><circle cx="161.03" cy="188.08" fill="#51cdc4" r="55.19"/><circle cx="161.03" cy="188.07" fill="#4fccc4" r="55.09"/><circle cx="161.03" cy="188.07" fill="#4eccc4" r="55"/><circle cx="161.03" cy="188.06" fill="#4dccc4" r="54.9"/><circle cx="161.03" cy="188.06" fill="#4cccc4" r="54.8"/><circle cx="161.03" cy="188.05" fill="#4bcbc4" r="54.71"/><circle cx="161.03" cy="188.04" fill="#4acbc4" r="54.61"/><circle cx="161.03" cy="188.04" fill="#49cbc4" r="54.51"/><circle cx="161.03" cy="188.03" fill="#48cbc4" r="54.42"/><circle cx="161.03" cy="188.03" fill="#46cac4" r="54.32"/><circle cx="161.03" cy="188.02" fill="#45cac4" r="54.22"/><circle cx="161.03" cy="188.01" fill="#44cac4" r="54.13"/><circle cx="161.03" cy="188.01" fill="#43c9c5" r="54.03"/><circle cx="161.03" cy="188" fill="#42c9c5" r="53.94"/><circle cx="161.03" cy="188" fill="#41c9c5" r="53.84"/><circle cx="161.03" cy="187.99" fill="#40c9c5" r="53.74"/><circle cx="161.03" cy="187.98" fill="#3ec8c5" r="53.65"/><circle cx="161.03" cy="187.98" fill="#3dc8c5" r="53.55"/><circle cx="161.03" cy="187.97" fill="#3cc8c5" r="53.45"/><circle cx="161.03" cy="187.96" fill="#3bc7c5" r="53.36"/><circle cx="161.03" cy="187.96" fill="#3ac7c5" r="53.26"/><circle cx="161.03" cy="187.95" fill="#39c7c5" r="53.16"/><circle cx="161.03" cy="187.95" fill="#37c7c5" r="53.07"/><circle cx="161.03" cy="187.94" fill="#36c6c5" r="52.97"/><circle cx="161.03" cy="187.93" fill="#35c6c5" r="52.87"/><circle cx="161.03" cy="187.93" fill="#34c6c5" r="52.78"/><circle cx="161.03" cy="187.92" fill="#33c5c5" r="52.68"/><circle cx="161.03" cy="187.92" fill="#32c5c5" r="52.59"/><circle cx="161.03" cy="187.91" fill="#30c5c5" r="52.49"/><circle cx="161.03" cy="187.9" fill="#2fc5c5" r="52.39"/><circle cx="161.03" cy="187.9" fill="#2ec4c5" r="52.3"/><circle cx="161.03" cy="187.89" fill="#2dc4c5" r="52.2"/><circle cx="161.03" cy="187.89" fill="#2cc4c5" r="52.1"/><circle cx="161.03" cy="187.88" fill="#2ac3c5" r="52.01"/><circle cx="161.03" cy="187.87" fill="#29c3c5" r="51.91"/><circle cx="161.03" cy="187.87" fill="#28c3c6" r="51.81"/><circle cx="161.03" cy="187.86" fill="#27c3c6" r="51.72"/><circle cx="161.03" cy="187.86" fill="#26c2c6" r="51.62"/><circle cx="161.03" cy="187.85" fill="#24c2c6" r="51.53"/><circle cx="161.03" cy="187.84" fill="#23c2c6" r="51.43"/><circle cx="161.03" cy="187.84" fill="#22c1c6" r="51.33"/><circle cx="161.03" cy="187.83" fill="#21c1c6" r="51.24"/><circle cx="161.03" cy="187.83" fill="#1fc1c6" r="51.14"/><circle cx="161.03" cy="187.82" fill="#1ec0c6" r="51.04"/><circle cx="161.03" cy="187.81" fill="#1dc0c6" r="50.95"/><circle cx="161.03" cy="187.81" fill="#1cc0c6" r="50.85"/><circle cx="161.03" cy="187.8" fill="#1ac0c6" r="50.75"/><circle cx="161.03" cy="187.79" fill="#19bfc6" r="50.66"/><circle cx="161.03" cy="187.79" fill="#18bfc6" r="50.56"/><circle cx="161.03" cy="187.78" fill="#17bfc6" r="50.46"/><circle cx="161.03" cy="187.78" fill="#16bec6" r="50.37"/><circle cx="161.03" cy="187.77" fill="#14bec6" r="50.27"/><circle cx="161.03" cy="187.76" fill="#13bec6" r="50.18"/><circle cx="161.03" cy="187.76" fill="#12bdc6" r="50.08"/><circle cx="161.03" cy="187.75" fill="#11bdc6" r="49.98"/><circle cx="161.03" cy="187.75" fill="#0fbdc6" r="49.89"/><circle cx="161.03" cy="187.74" fill="#0ebcc6" r="49.79"/><circle cx="161.03" cy="187.73" fill="#0dbcc7" r="49.69"/><circle cx="161.03" cy="187.73" fill="#0bbcc7" r="49.6"/><circle cx="161.03" cy="187.72" fill="#0abcc7" r="49.5"/><circle cx="161.03" cy="187.72" fill="#09bbc7" r="49.4"/><circle cx="161.03" cy="187.71" fill="#08bbc7" r="49.31"/><circle cx="161.03" cy="187.7" fill="#06bbc7" r="49.21"/><circle cx="161.03" cy="187.7" fill="#05bac7" r="49.11"/><circle cx="161.03" cy="187.69" fill="#04bac7" r="49.02"/><circle cx="161.03" cy="187.69" fill="#03bac7" r="48.92"/><circle cx="161.03" cy="187.68" fill="#01b9c7" r="48.83"/><circle cx="161.03" cy="187.67" fill="#00b9c7" r="48.73"/><circle cx="161.03" cy="187.67" fill="#00b9c7" r="48.63"/><circle cx="161.03" cy="187.66" fill="#00b9c8" r="48.37"/><circle cx="161.03" cy="187.64" fill="#00b8c8" r="48.11"/><circle cx="161.03" cy="187.62" fill="#00b7c9" r="47.85"/><circle cx="161.03" cy="187.61" fill="#00b7ca" r="47.59"/><circle cx="161.03" cy="187.59" fill="#00b6ca" r="47.33"/><circle cx="161.03" cy="187.57" fill="#00b5cb" r="47.06"/><circle cx="161.03" cy="187.56" fill="#00b4cc" r="46.8"/><circle cx="161.03" cy="187.54" fill="#00b4cd" r="46.54"/><circle cx="161.03" cy="187.52" fill="#00b3ce" r="46.28"/><circle cx="161.03" cy="187.51" fill="#00b2cf" r="46.02"/><circle cx="161.03" cy="187.49" fill="#00b1d0" r="45.76"/><circle cx="161.03" cy="187.47" fill="#00b0d0" r="45.5"/><circle cx="161.03" cy="187.46" fill="#00b0d1" r="45.23"/><circle cx="161.03" cy="187.44" fill="#00afd2" r="44.97"/><circle cx="161.03" cy="187.42" fill="#00aed3" r="44.71"/><circle cx="161.03" cy="187.41" fill="#00add4" r="44.45"/><circle cx="161.03" cy="187.39" fill="#01acd5" r="44.19"/><circle cx="161.03" cy="187.37" fill="#01abd6" r="43.93"/><circle cx="161.03" cy="187.36" fill="#01aad7" r="43.66"/><circle cx="161.03" cy="187.34" fill="#01a9d8" r="43.4"/><circle cx="161.03" cy="187.32" fill="#01a8d9" r="43.14"/><circle cx="161.03" cy="187.31" fill="#01a7da" r="42.88"/><circle cx="161.03" cy="187.29" fill="#01a7db" r="42.62"/><circle cx="161.03" cy="187.27" fill="#01a6dc" r="42.36"/><circle cx="161.03" cy="187.26" fill="#01a5dd" r="42.1"/><circle cx="161.03" cy="187.24" fill="#01a4de" r="41.83"/><circle cx="161.03" cy="187.22" fill="#01a3df" r="41.57"/><circle cx="161.03" cy="187.21" fill="#01a2e0" r="41.31"/><circle cx="161.03" cy="187.19" fill="#01a1e2" r="41.05"/><circle cx="161.03" cy="187.17" fill="#01a0e3" r="40.79"/><circle cx="161.03" cy="187.16" fill="#019fe4" r="40.53"/><circle cx="161.03" cy="187.14" fill="#019ee5" r="40.27"/><circle cx="161.02" cy="187.12" fill="#019de6" r="40"/><circle cx="161.02" cy="187.11" fill="#019ce7" r="39.74"/><circle cx="161.02" cy="187.09" fill="#019be8" r="39.48"/><circle cx="161.02" cy="187.07" fill="#019ae9" r="39.22"/><circle cx="161.02" cy="187.06" fill="#0199ea" r="38.96"/><circle cx="161.02" cy="187.04" fill="#0198eb" r="38.7"/><circle cx="161.02" cy="187.02" fill="#0197ed" r="38.44"/><circle cx="161.02" cy="187.01" fill="#0196ee" r="38.17"/><circle cx="161.02" cy="186.99" fill="#0195ef" r="37.91"/><circle cx="161.02" cy="186.97" fill="#0194f0" r="37.65"/><circle cx="161.02" cy="186.96" fill="#0293f1" r="37.39"/><circle cx="161.02" cy="186.94" fill="#0292f2" r="37.13"/><circle cx="161.02" cy="186.92" fill="#0291f3" r="36.87"/><circle cx="161.02" cy="186.91" fill="#0290f4" r="36.6"/><circle cx="161.02" cy="186.89" fill="#028ff6" r="36.34"/><circle cx="161.02" cy="186.87" fill="#028df7" r="36.08"/><circle cx="161.02" cy="186.86" fill="#028cf8" r="35.82"/><circle cx="161.02" cy="186.84" fill="#028bf9" r="35.56"/><circle cx="161.02" cy="186.82" fill="#028afa" r="35.3"/><circle cx="161.02" cy="186.81" fill="#0289fb" r="35.04"/><circle cx="161.02" cy="186.79" fill="#0288fd" r="34.77"/><circle cx="161.02" cy="186.77" fill="#0287fe" r="34.51"/><circle cx="161.02" cy="186.76" fill="#0286ff" r="34.25"/><circle cx="161.02" cy="186.76" fill="#0286ff" r="33.99"/><circle cx="161.02" cy="186.74" fill="#0285fe" r="33.8"/><circle cx="161.02" cy="186.73" fill="#0385fd" r="33.6"/><circle cx="161.02" cy="186.72" fill="#0384fd" r="33.41"/><circle cx="161.02" cy="186.71" fill="#0383fc" r="33.21"/><circle cx="161.02" cy="186.69" fill="#0483fb" r="33.02"/><circle cx="161.02" cy="186.68" fill="#0482fa" r="32.82"/><circle cx="161.02" cy="186.67" fill="#0481f9" r="32.63"/><circle cx="161.02" cy="186.66" fill="#0581f8" r="32.44"/><circle cx="161.02" cy="186.65" fill="#0580f7" r="32.24"/><circle cx="161.02" cy="186.63" fill="#057ff6" r="32.05"/><circle cx="161.02" cy="186.62" fill="#067ff5" r="31.85"/><circle cx="161.02" cy="186.61" fill="#067ef4" r="31.66"/><circle cx="161.02" cy="186.6" fill="#067df4" r="31.46"/><circle cx="161.02" cy="186.58" fill="#077df3" r="31.27"/><circle cx="161.02" cy="186.57" fill="#077cf2" r="31.08"/><circle cx="161.02" cy="186.56" fill="#077bf1" r="30.88"/><circle cx="161.02" cy="186.55" fill="#087af0" r="30.69"/><circle cx="161.02" cy="186.54" fill="#087aef" r="30.49"/><circle cx="161.02" cy="186.52" fill="#0879ee" r="30.3"/><circle cx="161.02" cy="186.51" fill="#0978ed" r="30.1"/><circle cx="161.02" cy="186.5" fill="#0977ec" r="29.91"/><circle cx="161.02" cy="186.49" fill="#0a77eb" r="29.72"/><circle cx="161.02" cy="186.47" fill="#0a76ea" r="29.52"/><circle cx="161.02" cy="186.46" fill="#0a75e9" r="29.33"/><circle cx="161.02" cy="186.45" fill="#0b75e8" r="29.13"/><circle cx="161.02" cy="186.44" fill="#0b74e7" r="28.94"/><circle cx="161.02" cy="186.43" fill="#0b73e6" r="28.74"/><circle cx="161.02" cy="186.41" fill="#0c72e5" r="28.55"/><circle cx="161.02" cy="186.4" fill="#0c72e4" r="28.36"/><circle cx="161.02" cy="186.39" fill="#0c71e3" r="28.16"/><circle cx="161.02" cy="186.38" fill="#0d70e2" r="27.97"/><circle cx="161.02" cy="186.36" fill="#0d6fe1" r="27.77"/><circle cx="161.02" cy="186.35" fill="#0e6fe0" r="27.58"/><circle cx="161.02" cy="186.34" fill="#0e6edf" r="27.38"/><circle cx="161.02" cy="186.33" fill="#0e6dde" r="27.19"/><circle cx="161.02" cy="186.31" fill="#0f6cdd" r="27"/><circle cx="161.02" cy="186.3" fill="#0f6cdc" r="26.8"/><circle cx="161.02" cy="186.29" fill="#0f6bdb" r="26.61"/><circle cx="161.02" cy="186.28" fill="#106ada" r="26.41"/><circle cx="161.02" cy="186.27" fill="#1069d9" r="26.22"/><circle cx="161.02" cy="186.25" fill="#1169d8" r="26.02"/><circle cx="161.02" cy="186.24" fill="#1168d7" r="25.83"/><circle cx="161.02" cy="186.23" fill="#1167d6" r="25.63"/><circle cx="161.02" cy="186.22" fill="#1266d5" r="25.44"/><circle cx="161.02" cy="186.2" fill="#1265d4" r="25.25"/><circle cx="161.02" cy="186.19" fill="#1265d3" r="25.05"/><circle cx="161.02" cy="186.18" fill="#1364d2" r="24.86"/><circle cx="161.02" cy="186.17" fill="#1363d1" r="24.66"/><circle cx="161.02" cy="186.16" fill="#1462d0" r="24.47"/><circle cx="161.02" cy="186.14" fill="#1462cf" r="24.27"/><circle cx="161.02" cy="186.13" fill="#1461ce" r="24.08"/><circle cx="161.02" cy="186.12" fill="#1560cd" r="23.89"/><circle cx="161.02" cy="186.11" fill="#155fcc" r="23.69"/><circle cx="161.02" cy="186.09" fill="#165fcb" r="23.5"/><circle cx="161.02" cy="186.08" fill="#165eca" r="23.3"/><circle cx="161.02" cy="186.07" fill="#165dc9" r="23.11"/><circle cx="161.02" cy="186.06" fill="#175cc8" r="22.91"/><circle cx="161.02" cy="186.04" fill="#175bc7" r="22.72"/><circle cx="161.02" cy="186.03" fill="#175bc6" r="22.53"/><circle cx="161.02" cy="186.02" fill="#185ac5" r="22.33"/><circle cx="161.02" cy="186.01" fill="#1859c4" r="22.14"/><circle cx="161.02" cy="186" fill="#1958c3" r="21.94"/><circle cx="161.02" cy="185.98" fill="#1958c2" r="21.75"/><circle cx="161.02" cy="185.97" fill="#1957c1" r="21.55"/><circle cx="161.02" cy="185.96" fill="#1a56c0" r="21.36"/><circle cx="161.02" cy="185.95" fill="#1a55bf" r="21.17"/><circle cx="161.02" cy="185.93" fill="#1b54be" r="20.97"/><circle cx="161.02" cy="185.92" fill="#1b54bd" r="20.78"/><circle cx="161.02" cy="185.91" fill="#1b53bc" r="20.58"/><circle cx="161.02" cy="185.9" fill="#1c52bb" r="20.39"/><circle cx="161.02" cy="185.89" fill="#1c51ba" r="20.19"/><circle cx="161.02" cy="185.87" fill="#1c51b9" r="20"/><circle cx="161.02" cy="185.86" fill="#1d50b8" r="19.81"/><circle cx="161.02" cy="185.85" fill="#1d4fb7" r="19.61"/><circle cx="161.02" cy="185.84" fill="#1e4eb6" r="19.42"/><circle cx="161.02" cy="185.82" fill="#1e4db5" r="19.22"/><circle cx="161.02" cy="185.81" fill="#1e4db4" r="19.03"/><circle cx="161.02" cy="185.8" fill="#1f4cb2" r="18.83"/><circle cx="161.02" cy="185.79" fill="#1f4bb1" r="18.64"/><circle cx="161.02" cy="185.77" fill="#204ab0" r="18.45"/><circle cx="161.02" cy="185.76" fill="#2049af" r="18.25"/><circle cx="161.02" cy="185.75" fill="#2049ae" r="18.06"/><circle cx="161.02" cy="185.74" fill="#2148ad" r="17.86"/><circle cx="161.02" cy="185.73" fill="#2147ac" r="17.67"/><circle cx="161.02" cy="185.71" fill="#2246ab" r="17.47"/><circle cx="161.02" cy="185.7" fill="#2246aa" r="17.28"/><circle cx="161.02" cy="185.69" fill="#2245a9" r="17.09"/><circle cx="161.02" cy="185.68" fill="#2344a8" r="16.89"/><circle cx="161.02" cy="185.66" fill="#2343a7" r="16.7"/><circle cx="161.02" cy="185.65" fill="#2342a6" r="16.5"/><circle cx="161.02" cy="185.64" fill="#2442a5" r="16.31"/><circle cx="161.02" cy="185.63" fill="#2441a4" r="16.11"/><circle cx="161.02" cy="185.62" fill="#2540a3" r="15.92"/><circle cx="161.02" cy="185.6" fill="#253fa2" r="15.73"/><circle cx="161.02" cy="185.59" fill="#253ea1" r="15.53"/><circle cx="161.02" cy="185.58" fill="#263ea0" r="15.34"/><circle cx="161.02" cy="185.57" fill="#263d9f" r="15.14"/><circle cx="161.02" cy="185.55" fill="#273c9e" r="14.95"/><circle cx="161.02" cy="185.54" fill="#273b9d" r="14.75"/><circle cx="161.02" cy="185.53" fill="#273a9b" r="14.56"/><circle cx="161.02" cy="185.52" fill="#283a9a" r="14.37"/><circle cx="161.02" cy="185.5" fill="#283999" r="14.17"/><circle cx="161.02" cy="185.49" fill="#293898" r="13.98"/><circle cx="161.02" cy="185.48" fill="#293797" r="13.78"/><circle cx="161.02" cy="185.47" fill="#293696" r="13.59"/><circle cx="161.02" cy="185.46" fill="#2a3695" r="13.39"/><circle cx="161.02" cy="185.44" fill="#2a3594" r="13.2"/><circle cx="161.02" cy="185.43" fill="#2b3493" r="13"/><circle cx="161.02" cy="185.42" fill="#2b3392" r="12.81"/><circle cx="161.02" cy="185.41" fill="#2b3291" r="12.62"/><circle cx="161.02" cy="185.39" fill="#2c3290" r="12.42"/><circle cx="161.02" cy="185.38" fill="#2c318f" r="12.23"/><circle cx="161.02" cy="185.37" fill="#2d308e" r="12.03"/><circle cx="161.02" cy="185.36" fill="#2d2f8d" r="11.84"/><circle cx="161.02" cy="185.35" fill="#2d2e8c" r="11.64"/><circle cx="161.02" cy="185.33" fill="#2e2d8b" r="11.45"/><circle cx="161.02" cy="185.32" fill="#2e2d89" r="11.26"/><circle cx="161.02" cy="185.31" fill="#2f2c88" r="11.06"/><circle cx="161.02" cy="185.3" fill="#2f2b87" r="10.87"/><circle cx="161.02" cy="185.28" fill="#2f2a86" r="10.67"/><circle cx="161.02" cy="185.27" fill="#302985" r="10.48"/><circle cx="161.02" cy="185.26" fill="#302984" r="10.28"/><circle cx="161.02" cy="185.25" fill="#312883" r="10.09"/><circle cx="161.02" cy="185.24" fill="#312782" r="9.9"/></g><g fill="#fff"><path d="m160.14 247.89-54.55-31.49v-63l54.55-31.49 54.54 31.49v63zm-51-33.51 51 29.47 51-29.47v-58.94l-51-29.47-51 29.47z"/><path d="m160.14 186.91-53.67-30.99 1.75-3.03 51.92 29.97 51.92-29.95 1.75 3.03z"/><path d="m158.39 184.89h3.5v60.99h-3.5z"/><path d="m189.69 229.82h-3.5v-59.97l-25.45-14.78 1.76-3.02 27.19 15.79z"/><path d="m160.16 216.66-53.67-30.23 1.72-3.05 51.93 29.25 26.93-15.54 1.75 3.03z"/><path d="m129.67 152.66h60.93v3.5h-60.93z" transform="matrix(.8660254 -.5 .5 .8660254 -55.75 100.75)"/></g></svg>