<svg clip-rule="evenodd" fill-rule="evenodd" stroke-linejoin="round" stroke-miterlimit="1.41421" viewBox="0 0 560 400" xmlns="http://www.w3.org/2000/svg"><g fill="#00cba0" transform="matrix(3.44828 0 0 3.44828 114.483 100)"><path d="m43 20c-2.209 0-4 1.744-4 3.895v29.21c0 2.151 1.791 3.895 4 3.895s4-1.744 4-3.895v-29.21c0-2.151-1.791-3.895-4-3.895"/><path d="m49 9.006c.056.05.113.097.166.151l-.155-.157c-.004.002-.008.004-.011.006"/><path d="m50 8.011.155.157c-.053-.054-.1-.112-.149-.168-.002.003-.004.007-.006.011"/><path d="m87.098 22.191c-5.449-3.425-12.277-3.776-18.018-1.072-.003-.005-.006-.008-.009-.013-3.048 1.375-6.715.889-9.321-1.447-.118-.106-.234-.212-.348-.327l-11.563-11.565c-.001-.001-.011-.006-.009-.009-.774-.867-1.096-1.981-.975-3.065-.002-.002-.007-.002-.009-.003.044-.238.069-.481.07-.732-.001-2.186-1.773-3.958-3.958-3.958-2.186 0-3.958 1.772-3.958 3.959 0 2.185 1.772 3.958 3.957 3.958.251 0 .495-.026.733-.071.001.003.003.005.004.008 1.085-.122 2.221.179 3.086.953.004-.002.009.009.01.01l11.617 11.619c.095.095.173.204.262.304 2.338 2.607 2.815 6.286 1.437 9.335.004.003.005.007.009.01-2.705 5.742-2.355 12.574 1.07 18.024.733 1.171 1.604 2.278 2.621 3.296 3.241 3.241 7.542 5.16 11.785 5.537 1.111.097 16.946.043 16.946.043.858 0 1.74-.425 2.348-1.032.607-.607 1.115-1.572 1.115-2.432 0 0-.001-14.573 0-15.339.002-.765-.165-1.865-.179-2.022-.376-4.244-2.184-8.105-5.425-11.347-1.017-1.016-2.128-1.888-3.298-2.622zm1.015 12.843c.445 2.187.466 3.149.466 3.295v7.77c0 .86-.382 1.867-.989 2.474s-1.615.99-2.474.99h-7.546c-.146 0-1.917-.021-3.546-.47-1.823-.503-3.541-1.49-4.971-2.921-4.437-4.436-4.436-11.668 0-16.105 4.437-4.437 11.686-4.44 16.123-.003 1.43 1.43 2.559 3.117 2.937 4.97z"/><path d="m1.532 53.567c-.899-.633-1.532-1.795-1.532-3.061 0-2.111 1.69-3.747 3.803-3.747 1.056 0 1.795.37 2.324.739 2.8 2.058 5.864 3.324 9.456 3.324 3.326 0 5.335-1.319 5.335-3.482v-.106c0-2.058-1.269-3.114-7.449-4.698-7.447-1.9-12.254-3.958-12.254-11.294v-.106c0-6.703 5.388-11.136 12.941-11.136 4.491 0 8.4 1.162 11.727 3.272.898.528 1.796 1.636 1.796 3.22 0 2.111-1.69 3.747-3.803 3.747-.792 0-1.426-.211-2.059-.581-2.695-1.583-5.23-2.48-7.766-2.48-3.117 0-4.755 1.425-4.755 3.22v.105c0 2.428 1.585 3.219 7.977 4.856 7.5 1.953 11.727 4.644 11.727 11.083v.105c0 7.337-5.599 11.453-13.575 11.453-4.861 0-9.773-1.477-13.893-4.433"/></g></svg>