<?xml version="1.0" encoding="utf-8"?>
<!-- Generator: Adobe Illustrator 23.0.2, SVG Export Plug-In . SVG Version: 6.00 Build 0)  -->
<svg version="1.1" id="Layer_1" xmlns="http://www.w3.org/2000/svg" xmlns:xlink="http://www.w3.org/1999/xlink" x="0px" y="0px"
	 viewBox="0 0 400 245" style="enable-background:new 0 0 400 245;" xml:space="preserve">
<style type="text/css">
	.st0{fill:#004B6C;}
	.st1{fill:#FFFFFF;}
	.st2{fill:url(#SVGID_1_);}
	.st3{fill:#0095DB;}
	.st4{fill:#FF7500;}
	.st5{fill:#2D3841;}
	.st6{fill:#8A8F93;}
	.st7{fill:#262261;}
	.st8{fill:#9290B0;}
	.st9{fill:#A2EEE3;}
	.st10{fill:#46DDC8;}
	.st11{clip-path:url(#SVGID_3_);}
	.st12{clip-path:url(#SVGID_5_);fill:#F69F39;}
	.st13{clip-path:url(#SVGID_7_);}
	.st14{clip-path:url(#SVGID_9_);fill:#F69F39;}
	.st15{clip-path:url(#SVGID_11_);}
	.st16{clip-path:url(#SVGID_13_);fill:#F69F39;}
	.st17{clip-path:url(#SVGID_15_);}
	.st18{clip-path:url(#SVGID_17_);fill:#F69F39;}
	.st19{clip-path:url(#SVGID_19_);}
	.st20{clip-path:url(#SVGID_21_);fill:#1A487F;}
	.st21{clip-path:url(#SVGID_23_);}
	.st22{clip-path:url(#SVGID_25_);fill:#E99B2E;}
	.st23{clip-path:url(#SVGID_27_);}
	.st24{clip-path:url(#SVGID_29_);fill:#1A487F;}
	.st25{clip-path:url(#SVGID_31_);}
	.st26{clip-path:url(#SVGID_33_);fill:#1A487F;}
	.st27{clip-path:url(#SVGID_35_);}
	.st28{clip-path:url(#SVGID_37_);fill:#1A487F;}
	.st29{clip-path:url(#SVGID_39_);}
	.st30{clip-path:url(#SVGID_41_);fill:#1A487F;}
	.st31{clip-path:url(#SVGID_43_);}
	.st32{clip-path:url(#SVGID_45_);fill:#1A487F;}
	.st33{clip-path:url(#SVGID_47_);}
	.st34{clip-path:url(#SVGID_49_);fill:#1A487F;}
	.st35{clip-path:url(#SVGID_51_);}
	.st36{clip-path:url(#SVGID_53_);fill:#1A487F;}
	.st37{clip-path:url(#SVGID_55_);}
	.st38{clip-path:url(#SVGID_57_);fill:#1A487F;}
	.st39{clip-path:url(#SVGID_59_);}
	.st40{clip-path:url(#SVGID_61_);fill:#1A487F;}
	.st41{clip-path:url(#SVGID_63_);}
	.st42{clip-path:url(#SVGID_65_);fill:#1A487F;}
	.st43{clip-path:url(#SVGID_67_);fill:#231F20;}
	.st44{fill:#14264B;}
	.st45{clip-path:url(#SVGID_69_);fill:#14264B;}
	.st46{fill:#DF5926;}
	.st47{clip-path:url(#SVGID_71_);}
	.st48{opacity:0.08;fill:#77C9E3;}
	.st49{opacity:0.0828;fill:#77C9E3;}
	.st50{opacity:0.0855;fill:#77C9E3;}
	.st51{opacity:0.0883;fill:#77C9E3;}
	.st52{opacity:0.091;fill:#77C9E3;}
	.st53{opacity:0.0938;fill:#77C9E3;}
	.st54{opacity:0.0965;fill:#77C9E3;}
	.st55{opacity:0.0993;fill:#77C9E3;}
	.st56{opacity:0.102;fill:#77C9E2;}
	.st57{opacity:0.1048;fill:#77C9E2;}
	.st58{opacity:0.1075;fill:#77C9E2;}
	.st59{opacity:0.1103;fill:#77C9E2;}
	.st60{opacity:0.1131;fill:#77C9E2;}
	.st61{opacity:0.1158;fill:#77C9E2;}
	.st62{opacity:0.1186;fill:#77C9E2;}
	.st63{opacity:0.1213;fill:#77C9E2;}
	.st64{opacity:0.1241;fill:#77C9E2;}
	.st65{opacity:0.1268;fill:#77C9E2;}
	.st66{opacity:0.1296;fill:#77C9E2;}
	.st67{opacity:0.1323;fill:#77C9E2;}
	.st68{opacity:0.1351;fill:#77C9E2;}
	.st69{opacity:0.1378;fill:#77C9E2;}
	.st70{opacity:0.1406;fill:#77C9E2;}
	.st71{opacity:0.1434;fill:#77C9E1;}
	.st72{opacity:0.1461;fill:#77C9E1;}
	.st73{opacity:0.1489;fill:#77C9E1;}
	.st74{opacity:0.1516;fill:#77C9E1;}
	.st75{opacity:0.1544;fill:#77C9E1;}
	.st76{opacity:0.1571;fill:#77C9E1;}
	.st77{opacity:0.1599;fill:#77C9E1;}
	.st78{opacity:0.1626;fill:#77C9E1;}
	.st79{opacity:0.1654;fill:#77C9E1;}
	.st80{opacity:0.1681;fill:#77C9E1;}
	.st81{opacity:0.1709;fill:#77C9E1;}
	.st82{opacity:0.1737;fill:#77C9E1;}
	.st83{opacity:0.1764;fill:#77C9E1;}
	.st84{opacity:0.1792;fill:#77C9E1;}
	.st85{opacity:0.1819;fill:#77C9E1;}
	.st86{opacity:0.1847;fill:#77C9E0;}
	.st87{opacity:0.1874;fill:#77C9E0;}
	.st88{opacity:0.1902;fill:#77C9E0;}
	.st89{opacity:0.1929;fill:#77C9E0;}
	.st90{opacity:0.1957;fill:#77C9E0;}
	.st91{opacity:0.1984;fill:#77C9E0;}
	.st92{opacity:0.2012;fill:#77C9E0;}
	.st93{opacity:0.204;fill:#77C9E0;}
	.st94{opacity:0.2067;fill:#77C9E0;}
	.st95{opacity:0.2095;fill:#77C9E0;}
	.st96{opacity:0.2122;fill:#77C9E0;}
	.st97{opacity:0.215;fill:#77C9E0;}
	.st98{opacity:0.2177;fill:#77C9E0;}
	.st99{opacity:0.2205;fill:#77C9E0;}
	.st100{opacity:0.2232;fill:#77C9E0;}
	.st101{opacity:0.226;fill:#77C9E0;}
	.st102{opacity:0.2287;fill:#77C9DF;}
	.st103{opacity:0.2315;fill:#77C9DF;}
	.st104{opacity:0.2343;fill:#77C9DF;}
	.st105{opacity:0.237;fill:#77C9DF;}
	.st106{opacity:0.2398;fill:#77C9DF;}
	.st107{opacity:0.2425;fill:#77C9DF;}
	.st108{opacity:0.2453;fill:#77C9DF;}
	.st109{opacity:0.248;fill:#77C9DF;}
	.st110{opacity:0.2508;fill:#77C9DF;}
	.st111{opacity:0.2535;fill:#77C9DF;}
	.st112{opacity:0.2563;fill:#77C9DF;}
	.st113{opacity:0.259;fill:#77C9DF;}
	.st114{opacity:0.2618;fill:#77C9DF;}
	.st115{opacity:0.2646;fill:#77C9DF;}
	.st116{opacity:0.2673;fill:#77C9DF;}
	.st117{opacity:0.2701;fill:#77C9DE;}
	.st118{opacity:0.2728;fill:#77C9DE;}
	.st119{opacity:0.2756;fill:#77C9DE;}
	.st120{opacity:0.2783;fill:#77C9DE;}
	.st121{opacity:0.2811;fill:#77C9DE;}
	.st122{opacity:0.2838;fill:#77C9DE;}
	.st123{opacity:0.2866;fill:#77C9DE;}
	.st124{opacity:0.2893;fill:#77C9DE;}
	.st125{opacity:0.2921;fill:#77C9DE;}
	.st126{opacity:0.2949;fill:#77C9DE;}
	.st127{opacity:0.2976;fill:#77C9DE;}
	.st128{opacity:0.3004;fill:#77C9DE;}
	.st129{opacity:0.3031;fill:#77C9DE;}
	.st130{opacity:0.3059;fill:#77C9DE;}
	.st131{opacity:0.3086;fill:#77C9DE;}
	.st132{opacity:0.3114;fill:#78C8DD;}
	.st133{opacity:0.3141;fill:#78C8DD;}
	.st134{opacity:0.3169;fill:#78C8DD;}
	.st135{opacity:0.3196;fill:#78C8DD;}
	.st136{opacity:0.3224;fill:#78C8DD;}
	.st137{opacity:0.3251;fill:#78C8DD;}
	.st138{opacity:0.3279;fill:#78C8DD;}
	.st139{opacity:0.3307;fill:#78C8DD;}
	.st140{opacity:0.3334;fill:#78C8DD;}
	.st141{opacity:0.3362;fill:#78C8DD;}
	.st142{opacity:0.3389;fill:#78C8DD;}
	.st143{opacity:0.3417;fill:#78C8DD;}
	.st144{opacity:0.3444;fill:#78C8DD;}
	.st145{opacity:0.3472;fill:#78C8DD;}
	.st146{opacity:0.3499;fill:#78C8DD;}
	.st147{opacity:0.3527;fill:#78C8DC;}
	.st148{opacity:0.3554;fill:#78C8DC;}
	.st149{opacity:0.3582;fill:#78C8DC;}
	.st150{opacity:0.361;fill:#78C8DC;}
	.st151{opacity:0.3637;fill:#78C8DC;}
	.st152{opacity:0.3665;fill:#78C8DC;}
	.st153{opacity:0.3692;fill:#78C8DC;}
	.st154{opacity:0.372;fill:#78C8DC;}
	.st155{opacity:0.3747;fill:#78C8DC;}
	.st156{opacity:0.3775;fill:#78C8DC;}
	.st157{opacity:0.3802;fill:#78C8DC;}
	.st158{opacity:0.383;fill:#78C8DC;}
	.st159{opacity:0.3857;fill:#78C8DC;}
	.st160{opacity:0.3885;fill:#78C8DC;}
	.st161{opacity:0.3913;fill:#78C8DC;}
	.st162{opacity:0.394;fill:#78C8DB;}
	.st163{opacity:0.3968;fill:#78C8DB;}
	.st164{opacity:0.3995;fill:#78C8DB;}
	.st165{opacity:0.4023;fill:#78C8DB;}
	.st166{opacity:0.405;fill:#78C8DB;}
	.st167{opacity:0.4078;fill:#78C8DB;}
	.st168{opacity:0.4105;fill:#78C8DB;}
	.st169{opacity:0.4133;fill:#78C8DB;}
	.st170{opacity:0.416;fill:#78C8DB;}
	.st171{opacity:0.4188;fill:#78C8DB;}
	.st172{opacity:0.4216;fill:#78C8DB;}
	.st173{opacity:0.4243;fill:#78C8DB;}
	.st174{opacity:0.4271;fill:#78C8DB;}
	.st175{opacity:0.4298;fill:#78C8DB;}
	.st176{opacity:0.4326;fill:#78C8DB;}
	.st177{opacity:0.4353;fill:#78C8DB;}
	.st178{opacity:0.4381;fill:#78C8DA;}
	.st179{opacity:0.4408;fill:#78C8DA;}
	.st180{opacity:0.4436;fill:#78C8DA;}
	.st181{opacity:0.4463;fill:#78C8DA;}
	.st182{opacity:0.4491;fill:#78C8DA;}
	.st183{opacity:0.4519;fill:#78C8DA;}
	.st184{opacity:0.4546;fill:#78C8DA;}
	.st185{opacity:0.4574;fill:#78C8DA;}
	.st186{opacity:0.4601;fill:#78C8DA;}
	.st187{opacity:0.4629;fill:#78C8DA;}
	.st188{opacity:0.4656;fill:#78C8DA;}
	.st189{opacity:0.4684;fill:#78C8DA;}
	.st190{opacity:0.4711;fill:#78C8DA;}
	.st191{opacity:0.4739;fill:#78C8DA;}
	.st192{opacity:0.4766;fill:#78C8DA;}
	.st193{opacity:0.4794;fill:#78C8D9;}
	.st194{opacity:0.4822;fill:#78C8D9;}
	.st195{opacity:0.4849;fill:#78C8D9;}
	.st196{opacity:0.4877;fill:#78C8D9;}
	.st197{opacity:0.4904;fill:#78C8D9;}
	.st198{opacity:0.4932;fill:#78C8D9;}
	.st199{opacity:0.4959;fill:#78C8D9;}
	.st200{opacity:0.4987;fill:#78C8D9;}
	.st201{opacity:0.5014;fill:#78C8D9;}
	.st202{opacity:0.5042;fill:#78C8D9;}
	.st203{opacity:0.5069;fill:#78C8D9;}
	.st204{opacity:0.5097;fill:#78C8D9;}
	.st205{opacity:0.5125;fill:#78C8D9;}
	.st206{opacity:0.5152;fill:#78C8D9;}
	.st207{opacity:0.518;fill:#78C8D9;}
	.st208{opacity:0.5207;fill:#78C8D8;}
	.st209{opacity:0.5235;fill:#78C8D8;}
	.st210{opacity:0.5262;fill:#78C8D8;}
	.st211{opacity:0.529;fill:#78C8D8;}
	.st212{opacity:0.5317;fill:#78C8D8;}
	.st213{opacity:0.5345;fill:#78C8D8;}
	.st214{opacity:0.5372;fill:#78C8D8;}
	.st215{opacity:0.54;fill:#78C8D8;}
	.st216{opacity:0.5428;fill:#78C8D8;}
	.st217{opacity:0.5455;fill:#78C8D8;}
	.st218{opacity:0.5483;fill:#78C8D8;}
	.st219{opacity:0.551;fill:#78C8D8;}
	.st220{opacity:0.5538;fill:#78C8D8;}
	.st221{opacity:0.5565;fill:#78C8D8;}
	.st222{opacity:0.5593;fill:#78C8D8;}
	.st223{opacity:0.562;fill:#78C8D7;}
	.st224{opacity:0.5648;fill:#78C8D7;}
	.st225{opacity:0.5675;fill:#78C8D7;}
	.st226{opacity:0.5703;fill:#78C8D7;}
	.st227{opacity:0.5731;fill:#78C8D7;}
	.st228{opacity:0.5758;fill:#78C8D7;}
	.st229{opacity:0.5786;fill:#78C8D7;}
	.st230{opacity:0.5813;fill:#78C8D7;}
	.st231{opacity:0.5841;fill:#78C8D7;}
	.st232{opacity:0.5868;fill:#78C8D7;}
	.st233{opacity:0.5896;fill:#78C8D7;}
	.st234{opacity:0.5923;fill:#78C8D7;}
	.st235{opacity:0.5951;fill:#78C8D7;}
	.st236{opacity:0.5978;fill:#78C8D7;}
	.st237{opacity:0.6006;fill:#78C8D7;}
	.st238{opacity:0.6034;fill:#78C8D6;}
	.st239{opacity:0.6061;fill:#78C8D6;}
	.st240{opacity:0.6089;fill:#78C8D6;}
	.st241{opacity:0.6116;fill:#78C8D6;}
	.st242{opacity:0.6144;fill:#78C8D6;}
	.st243{opacity:0.6171;fill:#78C8D6;}
	.st244{opacity:0.6199;fill:#78C8D6;}
	.st245{opacity:0.6226;fill:#78C8D6;}
	.st246{opacity:0.6254;fill:#78C8D6;}
	.st247{opacity:0.6281;fill:#78C8D6;}
	.st248{opacity:0.6309;fill:#78C8D6;}
	.st249{opacity:0.6337;fill:#78C8D6;}
	.st250{opacity:0.6364;fill:#78C8D6;}
	.st251{opacity:0.6392;fill:#78C8D6;}
	.st252{opacity:0.6419;fill:#78C8D6;}
	.st253{opacity:0.6447;fill:#78C8D5;}
	.st254{opacity:0.6474;fill:#78C8D5;}
	.st255{opacity:0.6502;fill:#78C8D5;}
	.st256{opacity:0.6529;fill:#78C8D5;}
	.st257{opacity:0.6557;fill:#78C8D5;}
	.st258{opacity:0.6584;fill:#78C8D5;}
	.st259{opacity:0.6612;fill:#78C8D5;}
	.st260{opacity:0.664;fill:#78C8D5;}
	.st261{opacity:0.6667;fill:#78C8D5;}
	.st262{opacity:0.6695;fill:#78C8D5;}
	.st263{opacity:0.6722;fill:#78C8D5;}
	.st264{opacity:0.675;fill:#78C8D5;}
	.st265{opacity:0.6777;fill:#78C8D5;}
	.st266{opacity:0.6805;fill:#78C8D5;}
	.st267{opacity:0.6832;fill:#78C8D5;}
	.st268{opacity:0.686;fill:#78C8D5;}
	.st269{opacity:0.6887;fill:#78C8D4;}
	.st270{opacity:0.6915;fill:#78C8D4;}
	.st271{opacity:0.6943;fill:#78C8D4;}
	.st272{opacity:0.697;fill:#78C8D4;}
	.st273{opacity:0.6998;fill:#78C8D4;}
	.st274{opacity:0.7025;fill:#78C8D4;}
	.st275{opacity:0.7053;fill:#78C8D4;}
	.st276{opacity:0.708;fill:#78C8D4;}
	.st277{opacity:0.7108;fill:#78C8D4;}
	.st278{opacity:0.7135;fill:#78C8D4;}
	.st279{opacity:0.7163;fill:#78C8D4;}
	.st280{opacity:0.719;fill:#78C8D4;}
	.st281{opacity:0.7218;fill:#78C8D4;}
	.st282{opacity:0.7246;fill:#78C8D4;}
	.st283{opacity:0.7273;fill:#78C8D4;}
	.st284{opacity:0.7301;fill:#78C8D3;}
	.st285{opacity:0.7328;fill:#78C8D3;}
	.st286{opacity:0.7356;fill:#78C8D3;}
	.st287{opacity:0.7383;fill:#78C8D3;}
	.st288{opacity:0.7411;fill:#78C8D3;}
	.st289{opacity:0.7438;fill:#78C8D3;}
	.st290{opacity:0.7466;fill:#78C8D3;}
	.st291{opacity:0.7493;fill:#78C8D3;}
	.st292{opacity:0.7521;fill:#78C8D3;}
	.st293{opacity:0.7549;fill:#78C8D3;}
	.st294{opacity:0.7576;fill:#78C8D3;}
	.st295{opacity:0.7604;fill:#78C8D3;}
	.st296{opacity:0.7631;fill:#78C8D3;}
	.st297{opacity:0.7659;fill:#78C8D3;}
	.st298{opacity:0.7686;fill:#78C8D3;}
	.st299{opacity:0.7714;fill:#79C7D2;}
	.st300{opacity:0.7741;fill:#79C7D2;}
	.st301{opacity:0.7769;fill:#79C7D2;}
	.st302{opacity:0.7796;fill:#79C7D2;}
	.st303{opacity:0.7824;fill:#79C7D2;}
	.st304{opacity:0.7851;fill:#79C7D2;}
	.st305{opacity:0.7879;fill:#79C7D2;}
	.st306{opacity:0.7907;fill:#79C7D2;}
	.st307{opacity:0.7934;fill:#79C7D2;}
	.st308{opacity:0.7962;fill:#79C7D2;}
	.st309{opacity:0.7989;fill:#79C7D2;}
	.st310{opacity:0.8017;fill:#79C7D2;}
	.st311{opacity:0.8044;fill:#79C7D2;}
	.st312{opacity:0.8072;fill:#79C7D2;}
	.st313{opacity:0.8099;fill:#79C7D2;}
	.st314{opacity:0.8127;fill:#79C7D1;}
	.st315{opacity:0.8154;fill:#79C7D1;}
	.st316{opacity:0.8182;fill:#79C7D1;}
	.st317{opacity:0.821;fill:#79C7D1;}
	.st318{opacity:0.8237;fill:#79C7D1;}
	.st319{opacity:0.8265;fill:#79C7D1;}
	.st320{opacity:0.8292;fill:#79C7D1;}
	.st321{opacity:0.832;fill:#79C7D1;}
	.st322{opacity:0.8347;fill:#79C7D1;}
	.st323{opacity:0.8375;fill:#79C7D1;}
	.st324{opacity:0.8402;fill:#79C7D1;}
	.st325{opacity:0.843;fill:#79C7D1;}
	.st326{opacity:0.8457;fill:#79C7D1;}
	.st327{opacity:0.8485;fill:#79C7D1;}
	.st328{opacity:0.8513;fill:#79C7D1;}
	.st329{opacity:0.854;fill:#79C7D0;}
	.st330{opacity:0.8568;fill:#79C7D0;}
	.st331{opacity:0.8595;fill:#79C7D0;}
	.st332{opacity:0.8623;fill:#79C7D0;}
	.st333{opacity:0.865;fill:#79C7D0;}
	.st334{opacity:0.8678;fill:#79C7D0;}
	.st335{opacity:0.8705;fill:#79C7D0;}
	.st336{opacity:0.8733;fill:#79C7D0;}
	.st337{opacity:0.876;fill:#79C7D0;}
	.st338{opacity:0.8788;fill:#79C7D0;}
	.st339{opacity:0.8816;fill:#79C7D0;}
	.st340{opacity:0.8843;fill:#79C7D0;}
	.st341{opacity:0.8871;fill:#79C7D0;}
	.st342{opacity:0.8898;fill:#79C7D0;}
	.st343{opacity:0.8926;fill:#79C7D0;}
	.st344{opacity:0.8953;fill:#79C7D0;}
	.st345{opacity:0.8981;fill:#79C7CF;}
	.st346{opacity:0.9008;fill:#79C7CF;}
	.st347{opacity:0.9036;fill:#79C7CF;}
	.st348{opacity:0.9063;fill:#79C7CF;}
	.st349{opacity:0.9091;fill:#79C7CF;}
	.st350{opacity:0.9119;fill:#79C7CF;}
	.st351{opacity:0.9146;fill:#79C7CF;}
	.st352{opacity:0.9174;fill:#79C7CF;}
	.st353{opacity:0.9201;fill:#79C7CF;}
	.st354{opacity:0.9229;fill:#79C7CF;}
	.st355{opacity:0.9256;fill:#79C7CF;}
	.st356{opacity:0.9284;fill:#79C7CF;}
	.st357{opacity:0.9311;fill:#79C7CF;}
	.st358{opacity:0.9339;fill:#79C7CF;}
	.st359{opacity:0.9366;fill:#79C7CF;}
	.st360{opacity:0.9394;fill:#79C7CE;}
	.st361{opacity:0.9422;fill:#79C7CE;}
	.st362{opacity:0.9449;fill:#79C7CE;}
	.st363{opacity:0.9477;fill:#79C7CE;}
	.st364{opacity:0.9504;fill:#79C7CE;}
	.st365{opacity:0.9532;fill:#79C7CE;}
	.st366{opacity:0.9559;fill:#79C7CE;}
	.st367{opacity:0.9587;fill:#79C7CE;}
	.st368{opacity:0.9614;fill:#79C7CE;}
	.st369{opacity:0.9642;fill:#79C7CE;}
	.st370{opacity:0.9669;fill:#79C7CE;}
	.st371{opacity:0.9697;fill:#79C7CE;}
	.st372{opacity:0.9725;fill:#79C7CE;}
	.st373{opacity:0.9752;fill:#79C7CE;}
	.st374{opacity:0.978;fill:#79C7CE;}
	.st375{opacity:0.9807;fill:#79C7CD;}
	.st376{opacity:0.9835;fill:#79C7CD;}
	.st377{opacity:0.9862;fill:#79C7CD;}
	.st378{opacity:0.989;fill:#79C7CD;}
	.st379{opacity:0.9917;fill:#79C7CD;}
	.st380{opacity:0.9945;fill:#79C7CD;}
	.st381{opacity:0.9972;fill:#79C7CD;}
	.st382{fill:#79C7CD;}
	.st383{opacity:0.08;fill:#FFFFFF;}
	.st384{fill:url(#SVGID_72_);}
	.st385{fill:#838080;}
</style>
<g>
	<rect x="0.7" y="171.79" class="st0" width="398.59" height="68.57"/>
	<g>
		<path class="st1" d="M368.38,186.42h-8.22v3.1l2.87,0.61v30.51h5.36V186.42z M368.62,208.04l7.94,12.6h6.39v-2.87l-2.54-0.42
			l-6.72-10.48l5.45-6.35l2.82-0.38v-3.29h-9.4v3.2l2.49,0.33L368.62,208.04z"/>
		<path class="st1" d="M349.72,220.64h8.18v-2.82l-2.87-0.38v-15.09c0-4.14-2.12-6.11-5.64-6.11c-2.87,0-5.26,1.32-7.43,3.38
			l-0.61-2.77h-7.33v3.29l2.87,0.61v19.88h5.36v-18.05c1.36-1.08,3.29-1.97,4.89-1.97c1.88,0,2.58,0.94,2.58,3.48V220.64z"/>
		<path class="st1" d="M331.53,217.72c-2.11,0.05-2.54-0.33-2.54-2.21v-11.8c0-5.41-2.63-7.47-7.71-7.47
			c-3.71,0-6.82,1.08-9.35,2.68l1.55,3.34c2.16-1.08,4.28-1.79,6.68-1.79c2.82,0,3.48,1.5,3.48,4.14v1.83h-1.6
			c-7.71,0-10.86,2.21-10.86,7.61c0,5.03,2.77,7.19,6.91,7.19c2.96,0,4.61-1.27,5.97-2.68c0.47,1.93,1.98,2.68,4.04,2.68
			c1.46,0,2.87-0.42,3.76-0.89L331.53,217.72z M323.63,215.8c-0.9,0.99-2.21,1.79-4.04,1.79c-2.02,0-3.01-1.03-3.01-3.85
			c0-3.43,1.5-4.33,5.5-4.33h1.55V215.8z"/>
		<path class="st1" d="M282.28,188.11v3.01l3.24,0.57v25.57l-3.24,0.52v2.87h14.43c6.01,0,10.2-2.58,10.2-9.03
			c0-5.12-2.82-7.57-6.25-8.22c3.1-0.89,4.8-3.15,4.8-6.63c0-4.98-2.44-8.65-9.64-8.65H282.28z M291.26,202.12v-10.48h3.71
			c3.67,0,4.65,1.97,4.65,5.36s-0.8,5.13-4.42,5.13H291.26z M291.26,217.16v-11.61h4.37c3.9,0,5.36,1.88,5.36,5.64
			c0,4.09-1.51,5.97-5.6,5.97H291.26z"/>
		<path class="st1" d="M268.83,200.43l-3.29,11c-0.61,2.12-1.08,4.14-1.31,5.92h-0.05c-0.24-1.83-0.71-4.04-1.22-5.92l-3.19-10.95
			l2.44-0.38v-3.24h-10.01v3.29l2.11,0.33l6.53,20.16h1.69c-1.03,3.29-2.96,5.12-7.47,5.78l1.27,3.95
			c5.08-1.03,8.04-2.82,10.25-9.78l6.49-20.07l2.11-0.38v-3.29h-8.93v3.24L268.83,200.43z"/>
		<path class="st1" d="M249.5,207.81c0-8.56-3.29-11.56-9.16-11.56c-6.06,0-9.87,3.62-9.87,12.46c0,8.93,3.62,12.55,10.39,12.55
			c3.62,0,6.06-0.94,8.41-2.82l-1.55-2.82c-1.88,1.18-3.43,1.93-6.11,1.93c-4.14,0-5.45-2.11-5.5-7.61h13.4V207.81z M236.11,206.63
			c0.28-5.41,1.55-7.14,4.18-7.14c3.1,0,3.81,1.88,3.81,7.14H236.11z"/>
		<path class="st1" d="M226.88,217.19c-0.5,0.16-1.07,0.27-1.52,0.27c-1.06,0-1.46-0.64-1.46-2.06v-28.98h-8.27v3.1l2.92,0.61v24.77
			c0,3.77,1.22,6.35,5.25,6.35c1.55,0,2.88-0.38,3.87-0.91L226.88,217.19z"/>
		<path class="st1" d="M214.01,217.19c-0.5,0.16-1.07,0.27-1.52,0.27c-1.06,0-1.46-0.64-1.46-2.06v-28.98h-8.27v3.1l2.92,0.61v24.77
			c0,3.77,1.22,6.35,5.25,6.35c1.55,0,2.88-0.38,3.87-0.91L214.01,217.19z"/>
		<path class="st1" d="M200.96,217.72c-2.11,0.05-2.54-0.33-2.54-2.21v-11.8c0-5.41-2.63-7.47-7.71-7.47
			c-3.71,0-6.82,1.08-9.35,2.68l1.55,3.34c2.16-1.08,4.28-1.79,6.67-1.79c2.82,0,3.48,1.5,3.48,4.14v1.83h-1.6
			c-7.71,0-10.86,2.21-10.86,7.61c0,5.03,2.77,7.19,6.91,7.19c2.96,0,4.61-1.27,5.97-2.68c0.47,1.93,1.98,2.68,4.04,2.68
			c1.46,0,2.87-0.42,3.76-0.89L200.96,217.72z M193.06,215.8c-0.89,0.99-2.21,1.79-4.04,1.79c-2.02,0-3.01-1.03-3.01-3.85
			c0-3.43,1.5-4.33,5.5-4.33h1.55V215.8z"/>
		<path class="st1" d="M178.2,191.59l2.63-0.47v-3.01h-10.25v3.01l3.2,0.47l-4.56,16.92c-1.03,3.81-1.22,4.98-1.46,6.72h-0.1
			c-0.28-1.79-0.47-2.91-1.46-6.67l-4.56-16.97l3.15-0.47v-3.01h-11.89v3.01l2.63,0.47l8.7,29.05h5.41L178.2,191.59z"/>
		<path class="st1" d="M141.21,220.64h8.18v-2.82l-2.87-0.38v-15.09c0-4.14-2.12-6.11-5.64-6.11c-2.87,0-5.26,1.32-7.43,3.38
			l-0.61-2.77h-7.33v3.29l2.87,0.61v19.88h5.36l0-18.05c1.36-1.08,3.29-1.97,4.89-1.97c1.88,0,2.59,0.94,2.59,3.48V220.64z"/>
		<path class="st1" d="M112.02,196.24c-6.16,0-10.15,3.48-10.15,12.41c0,8.98,4.04,12.6,10.2,12.6c6.2,0,10.2-3.57,10.2-12.5
			C122.27,199.82,118.22,196.24,112.02,196.24z M112.06,217.91c-3.39,0-4.47-2.49-4.47-9.21c0-6.67,1.04-9.07,4.42-9.07
			c3.43,0,4.51,2.45,4.51,9.07C116.53,215.42,115.5,217.91,112.06,217.91z"/>
		<path class="st1" d="M96.75,215.7c-1.5,0.99-3.24,1.83-5.36,1.83c-3.57,0-5.27-1.83-5.27-9.07c0-6.82,1.36-8.88,4.47-8.88
			c1.08,0,2.07,0.19,2.68,0.66l0.7,3.67h3.67v-5.41c-1.69-1.46-4.04-2.26-7.14-2.26c-5.83,0-10.11,3.34-10.11,12.46
			c0,8.74,3.9,12.55,9.92,12.55c3.57,0,6.06-1.08,8.04-2.77L96.75,215.7z"/>
		<polygon class="st1" points="75.01,196.85 66.78,196.85 66.78,200.14 69.65,200.76 69.65,220.64 75.01,220.64 		"/>
		<path class="st1" d="M64.02,217.19c-0.5,0.16-1.07,0.27-1.52,0.27c-1.06,0-1.46-0.64-1.46-2.06v-28.98h-8.27v3.1l2.91,0.61v24.77
			c0,3.77,1.22,6.35,5.25,6.35c1.55,0,2.88-0.38,3.87-0.91L64.02,217.19z"/>
		<polygon class="st1" points="49.39,196.85 41.16,196.85 41.16,200.14 44.03,200.76 44.03,220.64 49.39,220.64 		"/>
		<path class="st1" d="M29.08,201.09c-4.04-1.41-5.45-2.44-5.45-5.55c0-2.82,1.6-4.42,4.89-4.42c1.22,0,2.3,0.19,3.24,0.66
			l1.13,4.28h3.62v-6.86c-2.02-1.08-4.84-1.69-7.8-1.69c-6.11,0-10.11,2.92-10.11,8.89c0,5.4,2.3,7.99,8.41,10.1
			c3.67,1.27,5.59,2.49,5.59,5.88c0,2.96-1.46,5.31-5.69,5.31c-1.55,0-2.54-0.14-3.71-0.75l-1.18-4.65h-3.62v6.96
			c1.93,1.27,4.98,2.02,8.84,2.02c7.8,0,10.76-4.37,10.76-9.49C38.02,205.27,34.63,202.97,29.08,201.09z"/>
	</g>
	<linearGradient id="SVGID_1_" gradientUnits="userSpaceOnUse" x1="245.0021" y1="81.7838" x2="399.295" y2="81.7838">
		<stop  offset="0.18" style="stop-color:#0095DB"/>
		<stop  offset="1" style="stop-color:#004B6C"/>
	</linearGradient>
	<rect x="245" y="4.64" class="st2" width="154.29" height="154.29"/>
	<polygon class="st1" points="293.78,129.31 320.22,81.94 320.14,81.94 294.03,34.02 306.29,26.83 350.38,82.01 306.01,136.63 	"/>
	<rect x="0.7" y="4.64" class="st3" width="231.44" height="154.29"/>
	<g>
		<path class="st1" d="M178.07,61.18c-6.7,0-12.33,3.59-16.04,7.66V36.17h-20.82v7.9l7.18,1.55v77.67h10.29l1.68-6.1
			c3.71,4.07,9.45,7.66,16.28,7.66c12.81,0,21.78-6.46,21.78-32.67C198.42,67.76,189.32,61.18,178.07,61.18z M173.05,115.4
			c-4.31,0-8.38-2.39-11.01-4.91V76.38c3.23-2.99,6.94-4.91,11.61-4.91c7.9,0,10.29,5.98,10.29,21.42
			C183.94,109.05,181.3,115.4,173.05,115.4z"/>
		<path class="st1" d="M125.32,71.83l-7.9,26.81c-1.32,4.55-2.51,9.45-3.23,14.12h-0.12c-0.84-4.79-1.55-8.98-3.11-14l-8.26-26.81
			l5.99-0.96v-8.26H83.19v8.38l5.15,0.84l17.47,51.34h12.93l17.47-51.22l5.5-0.96v-8.38h-22.98V71L125.32,71.83z"/>
		<path class="st1" d="M61,86.2c-8.62-2.27-11.49-4.43-11.49-9.34c0-4.79,3.35-7.42,9.34-7.42c2.87,0,4.91,0.36,6.7,1.2l2.15,8.86
			h8.98V64.77c-4.43-2.27-10.17-3.59-17.95-3.59c-14,0-21.06,7.66-21.06,17.59c0,11.85,6.94,16.28,17.11,19.03
			c8.5,2.27,11.73,4.43,11.73,10.29c0,5.51-2.87,8.38-10.17,8.38c-3.83,0-5.27-0.36-7.78-1.56l-1.92-9.33H37.3v14.84
			c4.43,2.51,11.01,4.43,19.15,4.43c13.64,0,22.5-6.1,22.5-18.43C78.95,93.02,71.53,89.07,61,86.2z"/>
	</g>
</g>
</svg>
