<svg id="Layer_1" data-name="Layer 1" xmlns="http://www.w3.org/2000/svg" viewBox="0 0 278.59 90.16"><defs><style>.cls-1{fill:#212850;}.cls-2{fill:#29ade4;}</style></defs><title>SmartDubai_Logo</title><rect class="cls-1" x="215.16" y="44.96" width="3.55" height="3.29"/><rect class="cls-1" x="209.76" y="44.96" width="3.57" height="3.29"/><path class="cls-1" d="M257.85,37.55a4.74,4.74,0,0,0,3.92-1.74A5.73,5.73,0,0,0,263,32V24.6h-4v6.32c0,1.86-.69,2.8-2,2.8H228.15c-1.72,0-2.72-.43-3.41-1.74a6.76,6.76,0,0,0-6.4-3.95,15.16,15.16,0,0,0-1.75,0v3.48a3.25,3.25,0,0,1,.69-.08A2.57,2.57,0,0,1,219.94,34c0,2.66-2.95,4.6-6,4.6-4.07,0-6.33-2.57-6.33-6.4V29.12h-4v3.43c0,5.55,4.52,9.75,10.24,9.75,4.66,0,8.72-2.57,9.61-6.43a6,6,0,0,0,3.45,1.68h31Z"/><rect class="cls-1" x="259.26" y="38.98" width="3.54" height="3.32"/><path class="cls-1" d="M278.59,33.69c0-4.32-2-7.18-5.91-8.55a18.22,18.22,0,0,0-5.36-.54v3.34c5.09,0,7.27,1.78,7.27,5.78H264.2v3.83h14.39Z"/><rect class="cls-1" x="119.63" y="15.82" width="3.55" height="3.32"/><rect class="cls-1" x="114.25" y="15.82" width="3.54" height="3.32"/><rect class="cls-1" x="138.33" y="38.98" width="3.55" height="3.32"/><rect class="cls-1" x="132.95" y="38.98" width="3.55" height="3.32"/><path class="cls-1" d="M127.52,33.72a2.61,2.61,0,0,1-2.92-2.92v-9c-5.09,0-7.63,0-7.63,0-3.78,0-5.92,2.74-5.92,7,0,4,2.2,6.92,5.63,6.92,2,0,3.35-.6,4.06-1.71a4.88,4.88,0,0,0,4.81,3.51h38.78V36.07c0-6.73-2.84-10.93-8.3-11.5h-2.2l3.6-5.44h-4.75L147,28.26h7.21A6,6,0,0,1,160,33.72H141.82a8.59,8.59,0,0,0,.45-2.89V24.6h-4V31c0,1.84-.66,2.75-2,2.75h-8.72m-7-5.21c0,2.35-1,3.92-2.72,3.92S115,30.78,115,28.77c0-2.23,1.2-4,2.83-4h2.64Z"/><rect class="cls-1" x="170.47" y="19.13" width="3.58" height="3.29"/><path class="cls-1" d="M184.35,37.55h.91a4.81,4.81,0,0,0,4-1.74A5.78,5.78,0,0,0,190.47,32V19.13h-4V30.92c0,1.86-.77,2.77-2.12,2.77H180c0-4.32-2-7.15-5.92-8.55a18.14,18.14,0,0,0-5.35-.54v3.34c5.09,0,7.26,1.78,7.26,5.78H165.59v3.83h18.76Z"/><rect class="cls-1" x="191.72" y="19.1" width="4" height="18.45"/><path class="cls-1" d="M123.45,59.82a6.74,6.74,0,0,0-1.77-1,17.4,17.4,0,0,0-2.38-.8c-.74-.19-1.36-.37-1.85-.52a4.94,4.94,0,0,1-1.14-.46,1.44,1.44,0,0,1-.56-.53,1.54,1.54,0,0,1-.15-.7v0a1.22,1.22,0,0,1,.52-1,2.65,2.65,0,0,1,1.63-.42,5.78,5.78,0,0,1,2.21.45A12.64,12.64,0,0,1,122.24,56l.07.05,2.08-3,0,0a10.52,10.52,0,0,0-3-1.66,10.67,10.67,0,0,0-3.56-.58,7.82,7.82,0,0,0-2.48.38,5.61,5.61,0,0,0-1.95,1.09,5,5,0,0,0-1.28,1.69,5.27,5.27,0,0,0-.45,2.18v0a5.23,5.23,0,0,0,.42,2.2,4,4,0,0,0,1.19,1.49,6.69,6.69,0,0,0,1.84,1,24.94,24.94,0,0,0,2.41.73,17.16,17.16,0,0,1,1.78.52,4.77,4.77,0,0,1,1,.48,1.27,1.27,0,0,1,.5.51,1.49,1.49,0,0,1,.13.62v.05a1.31,1.31,0,0,1-.62,1.14,3.32,3.32,0,0,1-1.81.43,6.59,6.59,0,0,1-2.72-.57,11.54,11.54,0,0,1-2.44-1.54l-.06-.05L110.94,66,111,66a10.46,10.46,0,0,0,3.52,2.12,11.58,11.58,0,0,0,3.93.69,8.89,8.89,0,0,0,2.61-.37,6,6,0,0,0,2-1.06,4.78,4.78,0,0,0,1.34-1.73,5.54,5.54,0,0,0,.47-2.33v-.05a4.94,4.94,0,0,0-.37-2A4.15,4.15,0,0,0,123.45,59.82Z"/><polygon class="cls-1" points="135.64 58.27 131.13 51.01 131.1 50.97 126.84 50.97 126.84 68.58 130.79 68.58 130.79 57.46 135.5 64.6 135.52 64.64 135.71 64.64 140.49 57.39 140.49 68.58 144.45 68.58 144.45 50.97 140.19 50.97 135.64 58.27"/><path class="cls-1" d="M153.22,50.85l-7.54,17.73h4.09l1.6-3.91h7.26l1.6,3.91h4.19l-7.55-17.73Zm-.41,10.26L155,55.76l2.19,5.35Z"/><path class="cls-1" d="M179.32,60.36a5.56,5.56,0,0,0,1.05-3.5v0a5.49,5.49,0,0,0-1.52-4.05A7,7,0,0,0,173.71,51h-8.06V68.58h4V63h2.88l3.74,5.58H181l-4.29-6.27A6.24,6.24,0,0,0,179.32,60.36Zm-3-3.3a2.22,2.22,0,0,1-.73,1.73,3.15,3.15,0,0,1-2.13.65h-3.8V54.6h3.72a3.4,3.4,0,0,1,2.17.61,2.14,2.14,0,0,1,.77,1.8Z"/><polygon class="cls-1" points="181.18 54.67 186.48 54.67 186.48 68.58 190.49 68.58 190.49 54.67 195.79 54.67 195.79 50.97 181.18 50.97 181.18 54.67"/><path class="cls-1" d="M217.18,53.48a9,9,0,0,0-3-1.84,10.25,10.25,0,0,0-3.78-.67h-6.88V68.58h6.88a10.25,10.25,0,0,0,3.78-.68,9.08,9.08,0,0,0,3-1.86,8.36,8.36,0,0,0,1.93-2.79,9.1,9.1,0,0,0,.67-3.48v-.05a9,9,0,0,0-.67-3.46A8.53,8.53,0,0,0,217.18,53.48Zm-1.58,6.35a5.54,5.54,0,0,1-.37,2.08,5.11,5.11,0,0,1-1.06,1.62,4.54,4.54,0,0,1-1.63,1,5.91,5.91,0,0,1-2.11.37h-2.88V54.6h2.88a5.7,5.7,0,0,1,2.11.38,4.67,4.67,0,0,1,1.63,1.07,5,5,0,0,1,1.06,1.64,5.65,5.65,0,0,1,.37,2.08Z"/><path class="cls-1" d="M232.87,61a4.34,4.34,0,0,1-1,3.09,3.57,3.57,0,0,1-2.7,1,3.53,3.53,0,0,1-2.71-1,4.59,4.59,0,0,1-1-3.17V51h-4V61a7,7,0,0,0,7.63,7.83,9.75,9.75,0,0,0,3.19-.49,6.41,6.41,0,0,0,2.46-1.49,6.78,6.78,0,0,0,1.54-2.48,10.24,10.24,0,0,0,.54-3.49V51h-4Z"/><path class="cls-1" d="M251.2,59.36a4.7,4.7,0,0,0,.74-.52,4.76,4.76,0,0,0,.73-.82,4.34,4.34,0,0,0,.51-1.06,4.55,4.55,0,0,0,.18-1.35v0a4.12,4.12,0,0,0-1.21-3A6.28,6.28,0,0,0,247.54,51h-8.17V68.58h8.37a11.3,11.3,0,0,0,2.69-.3,6.45,6.45,0,0,0,2.09-.91,4.21,4.21,0,0,0,1.35-1.53,4.64,4.64,0,0,0,.47-2.13v-.05a4.07,4.07,0,0,0-.89-2.78A5.84,5.84,0,0,0,251.2,59.36Zm-7.93-4.86H247a3.12,3.12,0,0,1,1.82.45,1.44,1.44,0,0,1,.61,1.26v0a1.43,1.43,0,0,1-.7,1.34,4,4,0,0,1-2,.42h-3.46Zm7.12,8.74a1.49,1.49,0,0,1-.69,1.36,3.59,3.59,0,0,1-1.95.44h-4.48V61.37h4.36a3.52,3.52,0,0,1,2.11.5,1.57,1.57,0,0,1,.65,1.32Z"/><path class="cls-1" d="M262.12,50.85l-7.55,17.73h4.1l1.6-3.91h7.26l1.59,3.91h4.19l-7.54-17.73Zm-.42,10.26,2.19-5.35,2.2,5.35Z"/><rect class="cls-1" x="274.58" y="50.95" width="4" height="17.61"/><path class="cls-2" d="M45.08,90.16A45.08,45.08,0,1,1,90.17,45.08,45.13,45.13,0,0,1,45.08,90.16ZM45.08,9A36.14,36.14,0,1,0,81.22,45.08,36.17,36.17,0,0,0,45.08,9Z"/><path class="cls-2" d="M46,71.14c-16,0-27.57-14.89-28.06-15.52L25,50.18c.09.12,9.39,12,21,12h0c6.64,0,13.09-4.06,19.15-12l7.11,5.43C64.41,65.92,55.56,71.14,46,71.14Z"/></svg>