<?xml version="1.0" encoding="utf-8"?>
<!-- Generator: Adobe Illustrator 25.1.0, SVG Export Plug-In . SVG Version: 6.00 Build 0)  -->
<svg version="1.1" id="Layer_1" xmlns="http://www.w3.org/2000/svg" xmlns:xlink="http://www.w3.org/1999/xlink" x="0px" y="0px"
	 viewBox="0 0 857.8 321.3" style="enable-background:new 0 0 857.8 321.3;" xml:space="preserve">
<style type="text/css">
	.st0{fill:#D6A329;}
	.st1{fill:#CC5A28;}
	.st2{fill:#C86528;}
	.st3{fill:#EB6324;}
</style>
<g>
	<polygon class="st0" points="141.3,0 279.1,82.4 226.9,111.9 89.1,29.8 	"/>
	<polygon class="st1" points="279.2,82.2 280.1,142.9 227.6,174.5 226.7,112.3 	"/>
	<polygon class="st1" points="103.9,77.4 51.5,108.6 0,79.2 54.2,48.1 	"/>
	<polygon class="st0" points="0.6,79.6 52.1,108.5 52.1,270.4 0,239.6 	"/>
	<polygon class="st1" points="85,229.5 137.8,261.3 137.8,320.2 85,288.5 	"/>
	<polygon class="st0" points="137.8,261.6 281.1,178.6 282.6,241 137.8,321.3 	"/>
	<polygon class="st2" points="83.2,127.5 139,159.9 139,222.1 83.2,191 	"/>
	<polygon class="st3" points="139.3,96.6 194.5,130.6 139.3,160.6 83.5,127.9 	"/>
	<polygon class="st0" points="194.2,130.6 194.2,190.9 138.6,222.9 138.9,160.6 	"/>
	<g>
		<path d="M332.7,155.6l11.6-13.8c7.5,5.9,15.6,9,24.3,9c5.7,0,8.7-1.9,8.7-5.1v-0.2c0-3.2-2.5-4.8-12.7-7.3
			c-16-3.6-28.3-8.1-28.3-23.5v-0.2c0-13.9,11-24,29-24c12.7,0,22.7,3.4,30.9,10l-10.4,14.7c-6.9-4.9-14.4-7.4-21-7.4
			c-5,0-7.5,2-7.5,4.8v0.2c0,3.4,2.6,4.9,13.1,7.3c17.1,3.7,27.9,9.3,27.9,23.4v0.2c0,15.3-12.1,24.4-30.3,24.4
			C354.5,168,342,163.8,332.7,155.6z"/>
		<path d="M407.9,91.7h19.4l30.9,39.6V91.7h20.6v75h-18.1l-32.1-41.1v41.1h-20.6V91.7z"/>
		<path d="M516.6,91.2h20l31.9,75.5h-22.3l-5.4-13.5h-29l-5.4,13.5h-21.7L516.6,91.2z M534.8,137l-8.4-21.2L518,137H534.8z"/>
		<path d="M574.5,91.7h32.2c18.9,0,31.1,9.7,31.1,26.2v0.2c0,17.8-13.6,27.1-32.1,27.1h-10.4v21.4h-20.8V91.7z M605.3,129
			c7.3,0,11.9-4,11.9-9.9v-0.2c0-6.4-4.6-9.7-12-9.7h-9.9V129H605.3z"/>
		<path d="M645.4,91.7h32.2c18.9,0,31.1,9.7,31.1,26.2v0.2c0,17.8-13.6,27.1-32.1,27.1h-10.4v21.4h-20.8V91.7z M676.2,129
			c7.3,0,11.9-4,11.9-9.9v-0.2c0-6.4-4.6-9.7-12-9.7h-9.9V129H676.2z"/>
		<path d="M716.3,91.7h60.3v17.6h-39.7v11.5h36v16.4h-36V149h40.3v17.7h-60.9V91.7z"/>
		<path d="M788.8,91.7h35.5c11.5,0,19.4,3,24.4,8c4.4,4.4,6.6,10.1,6.6,17.5v0.2c0,11.6-6.1,19.2-15.4,23.1l17.9,26.1h-23.9
			L818.8,144h-9.2v22.7h-20.8V91.7z M823.4,127.7c7,0,11.1-3.4,11.1-8.9v-0.2c0-6-4.4-9-11.2-9h-13.7v18.1H823.4z"/>
	</g>
	<g>
		<path class="st3" d="M339,178.9h42.5v9.1h-32.5v15.6h28.8v9.1h-28.8V236h-10V178.9z"/>
		<path class="st3" d="M392.5,220.4V193h9.9v24.5c0,6.7,3.3,10.4,9.2,10.4c5.7,0,9.7-3.9,9.7-10.6V193h10V236h-10v-6.7
			c-2.8,4.1-6.8,7.6-13.5,7.6C398.2,236.9,392.5,230.4,392.5,220.4z"/>
		<path class="st3" d="M449.9,224.1v-22.7h-5.5V193h5.5v-11.8h9.9V193h11.6v8.5h-11.6v21.1c0,3.8,2,5.4,5.3,5.4
			c2.2,0,4.2-0.5,6.1-1.5v8.1c-2.4,1.4-5.1,2.2-8.9,2.2C455.1,236.8,449.9,233.6,449.9,224.1z"/>
		<path class="st3" d="M484.6,220.4V193h9.9v24.5c0,6.7,3.3,10.4,9.2,10.4c5.7,0,9.7-3.9,9.7-10.6V193h10V236h-10v-6.7
			c-2.8,4.1-6.8,7.6-13.5,7.6C490.2,236.9,484.6,230.4,484.6,220.4z"/>
		<path class="st3" d="M540,193h10v9.7c2.7-6.4,7.7-10.8,15.3-10.5v10.4h-0.6c-8.6,0-14.7,5.6-14.7,17V236h-10V193z"/>
		<path class="st3" d="M574.9,214.7v-0.2c0-12.3,8.7-22.4,21-22.4c13.7,0,20.6,10.8,20.6,23.2c0,0.9-0.1,1.8-0.2,2.8h-31.6
			c1.1,7,6,10.9,12.4,10.9c4.8,0,8.2-1.8,11.7-5.1l5.8,5.1c-4.1,4.9-9.7,8.1-17.6,8.1C584.5,237,574.9,228,574.9,214.7z
			 M606.8,211.5c-0.7-6.4-4.4-11.3-10.9-11.3c-6,0-10.3,4.6-11.2,11.3H606.8z"/>
		<path d="M677.5,188.2h-18.2v-9.3h46.4v9.3h-18.2V236h-10V188.2z"/>
		<path d="M708.8,214.7v-0.2c0-12.3,8.7-22.4,21-22.4c13.7,0,20.6,10.8,20.6,23.2c0,0.9-0.1,1.8-0.2,2.8h-31.6
			c1.1,7,6,10.9,12.4,10.9c4.8,0,8.2-1.8,11.7-5.1l5.8,5.1c-4.1,4.9-9.7,8.1-17.6,8.1C718.4,237,708.8,228,708.8,214.7z
			 M740.7,211.5c-0.7-6.4-4.4-11.3-10.9-11.3c-6,0-10.3,4.6-11.2,11.3H740.7z"/>
		<path d="M762.2,214.8v-0.2c0-12.2,9.5-22.5,22.4-22.5c8.1,0,13.1,3,17.2,7.4l-6.2,6.6c-3-3.1-6.2-5.4-11.1-5.4
			c-7.2,0-12.5,6.2-12.5,13.7v0.2c0,7.7,5.3,13.8,12.9,13.8c4.6,0,8-2.1,11.2-5.3l6,5.9c-4.2,4.7-9.2,8.1-17.6,8.1
			C771.7,237,762.2,227,762.2,214.8z"/>
		<path d="M814.9,176.5h10v23.1c2.8-4,6.8-7.5,13.5-7.5c9.7,0,15.3,6.5,15.3,16.5V236h-9.9v-24.5c0-6.7-3.3-10.5-9.2-10.5
			c-5.7,0-9.7,4-9.7,10.7V236h-10V176.5z"/>
	</g>
</g>
</svg>
