<?xml version="1.0" encoding="utf-8"?>
<!-- Generator: Adobe Illustrator 16.0.0, SVG Export Plug-In . SVG Version: 6.00 Build 0)  -->
<!DOCTYPE svg PUBLIC "-//W3C//DTD SVG 1.1//EN" "http://www.w3.org/Graphics/SVG/1.1/DTD/svg11.dtd">
<svg version="1.1" id="Layer_1" xmlns="http://www.w3.org/2000/svg" xmlns:xlink="http://www.w3.org/1999/xlink" x="0px" y="0px"
	 width="2942px" height="700px" viewBox="0 0 2942 700" enable-background="new 0 0 2942 700" xml:space="preserve">
<path fill="#FFFFFF" d="M1297.567,238.319c0,0-9.356,6.58-20.493,14.227c-8.842,6.095-18.791,12.867-26.075,17.62
	c-5.015-5.469-8.775-9.386-9.733-9.88c-1.674-0.852-15.182-4.177-34.726,3.349c-2.125-1.571-4.29-3.313-6.501-5.276
	c0.617-3.937,1.322-7.839,2.137-11.708c1.866-8.958,4.25-17.765,7.146-26.318c1.346-3.952,2.766-7.869,4.298-11.716
	c1.104-2.732,2.241-5.436,3.438-8.112c1.606,2.477,3.246,4.739,4.922,6.804c13.803,17.189,27.908,21.022,29.841,21.071
	c0.959,0.029,5.358-1.273,11.421-3.26c8.245-2.698,19.603-6.677,29.699-10.248C1295.515,227.68,1297.567,238.319,1297.567,238.319"
	/>
<path fill="#FFFFFF" d="M1197.734,279.545c-0.295,4.804-0.446,9.674-0.446,14.556c0,4.255,0.115,8.458,0.346,12.635l18.738-13.037
	L1197.734,279.545z"/>
<path fill="#FFFFFF" d="M1397.706,515.733c-1.568,2.125-3.294,4.296-5.272,6.514c-3.932-0.604-7.843-1.324-11.711-2.146
	c-8.97-1.858-17.744-4.249-26.313-7.146c-3.965-1.323-7.871-2.751-11.729-4.297c-2.722-1.089-5.424-2.233-8.109-3.433
	c2.484-1.612,4.738-3.278,6.805-4.925c17.2-13.807,21.033-27.917,21.087-29.843c0.025-0.963-1.271-5.357-3.266-11.417
	c-2.687-8.257-6.663-19.614-10.248-29.72c12.807-2.56,23.451-4.61,23.451-4.61s6.575,9.368,14.223,20.511
	c6.085,8.822,12.881,18.771,17.63,26.036c-5.473,5.023-9.385,8.813-9.88,9.754C1393.505,482.688,1390.18,496.2,1397.706,515.733"/>
<path fill="#FFFFFF" d="M1456.102,516.068c1.549,2.148,3.305,4.337,5.293,6.542c-2.884,0.438-5.774,0.799-8.68,1.111
	c-3.938,0.408-7.912,0.714-11.888,0.939c-4.19,0.227-8.421,0.34-12.66,0.34c-4.881,0-9.739-0.172-14.549-0.449h-0.013
	c-4.204-0.271-8.355-0.637-12.484-1.124c-1.352-2.65-2.462-5.228-3.417-7.694c13.044-17.771,13.08-32.401,12.635-34.265
	c-0.219-0.967-2.622-4.862-6.093-10.188c6.515-5.976,15.195-13.688,22.908-20.457c9.813-8.607,18.021-15.704,18.021-15.704
	s10.369,4.827,22.565,10.622c-5.698,8.542-12.089,18.253-16.832,25.687c-3.98,6.254-6.785,10.938-7.011,11.977
	C1443.492,485.241,1443.765,499.156,1456.102,516.068"/>
<path fill="#FFFFFF" d="M1397.706,515.733c-7.525-19.533-4.188-33.058-3.339-34.71c0.496-0.951,4.415-4.729,9.876-9.743
	c3.476,5.337,5.875,9.225,6.098,10.188C1410.786,483.332,1410.742,497.95,1397.706,515.733"/>
<path fill="#FFFFFF" d="M1512.596,501.28c-0.281,2.633-0.697,5.396-1.297,8.294c-15.867,6.131-32.578,10.549-49.916,13.062
	c-1.972-2.229-3.729-4.416-5.285-6.564c-12.327-16.923-12.598-30.827-12.205-32.654c0.234-1.063,3.039-5.721,7.024-11.978
	c4.734-7.442,11.136-17.153,16.823-25.687c9.69,4.612,20.544,9.84,28.294,13.748v0.027c5.684,2.87,9.705,5.044,10.371,5.757
	C1507.725,466.67,1515.014,479.369,1512.596,501.28"/>
<path fill="#FFFFFF" d="M1564.232,480.677c-3.195,2.343-6.482,4.624-9.813,6.796c-7.567,4.959-15.479,9.499-23.637,13.533
	c-3.74,1.859-7.51,3.62-11.336,5.261c-2.711,1.146-5.414,2.262-8.148,3.311c0.578-2.898,1.019-5.661,1.297-8.306
	c2.41-21.899-4.883-34.586-6.18-35.983c-0.68-0.713-4.697-2.887-10.381-5.774c-7.75-3.918-18.604-9.154-28.294-13.77
	c7.265-10.867,13.351-19.824,13.351-19.824s11.273,1.956,24.56,4.416c10.561,1.946,22.383,4.208,30.881,5.98
	c-0.313,7.395-0.422,12.854-0.098,13.884c0.577,1.771,7.772,13.699,26.905,22.188C1563.752,474.99,1564.055,477.73,1564.232,480.677
	"/>
<path fill="#FFFFFF" d="M1613.23,432.21c-1.746,2.331-3.537,4.644-5.357,6.892c-2.51,3.114-5.072,6.146-7.736,9.093
	c-6.051,6.747-12.494,13.143-19.33,19.151c-3.141,2.777-6.346,5.46-9.643,8.065c-2.789-0.951-5.396-1.956-7.824-3.026
	c-3.342-21.795-13.666-32.173-15.283-33.188c-0.834-0.501-5.274-1.589-11.524-2.881c0.385-8.823,1.088-20.429,1.733-30.648
	c0.851-13.051,1.636-23.869,1.636-23.869s10.754-3.926,23.5-8.438c2.006,10.058,4.326,21.441,6.246,30.06
	c1.604,7.234,2.907,12.532,3.51,13.436c1.004,1.572,11.033,11.19,31.723,14.451C1607.488,431.723,1610.289,432.027,1613.23,432.21"
	/>
<path fill="#FFFFFF" d="M1563.35,472.385c-19.143-8.485-26.35-20.415-26.916-22.188c-0.313-1.027-0.217-6.463,0.099-13.884
	c6.25,1.313,10.684,2.38,11.518,2.881C1549.688,440.212,1559.998,450.59,1563.35,472.385"/>
<path fill="#FFFFFF" d="M1639.32,387.699v0.01c-7.054,15.852-15.83,30.774-26.09,44.501c-2.941-0.173-5.742-0.471-8.354-0.908
	c-20.678-3.23-30.709-12.868-31.723-14.437c-0.595-0.918-1.904-6.205-3.5-13.45c-1.921-8.616-4.25-20.015-6.257-30.06
	c10.095-3.598,21.464-7.554,29.709-10.271c6.062-1.99,10.443-3.293,11.425-3.271c1.918,0.074,16.041,3.916,29.836,21.103
	C1636.023,382.968,1637.688,385.223,1639.32,387.699"/>
<path fill="#FFFFFF" d="M1656.303,329.851c-0.602,3.933-1.305,7.838-2.125,11.688c-1.856,8.982-4.248,17.784-7.146,26.342
	c-1.324,3.958-2.771,7.854-4.297,11.73c-1.101,2.715-2.232,5.406-3.431,8.076c-1.615-2.446-3.256-4.722-4.944-6.783
	c-13.767-17.176-27.896-21.03-29.826-21.079c-0.979-0.033-5.375,1.271-11.406,3.249c-8.271,2.703-19.621,6.688-29.729,10.283
	c-2.584-12.819-4.608-23.465-4.608-23.465s9.348-6.567,20.502-14.244c8.834-6.093,18.803-12.868,26.074-17.602
	c4.993,5.45,8.771,9.368,9.727,9.865c1.666,0.866,15.166,4.19,34.721-3.34C1651.943,326.129,1654.129,327.896,1656.303,329.851"/>
<path fill="#FFFFFF" d="M1659.07,294.11c0,4.893-0.156,9.758-0.449,14.556c-0.264,4.201-0.627,8.372-1.123,12.5
	c-2.646,1.335-5.229,2.458-7.688,3.412c-15.09-11.051-27.887-12.759-32.567-12.759c-0.851,0-1.428,0.054-1.691,0.113
	c-0.963,0.226-4.865,2.619-10.186,6.12c-5.979-6.529-13.688-15.21-20.465-22.917c-8.634-9.82-15.728-18.021-15.728-18.021
	s4.828-10.375,10.633-22.575c8.531,5.673,18.267,12.079,25.715,16.833c6.238,3.973,10.898,6.779,11.957,7.014
	c1.841,0.392,15.744,0.132,32.671-12.205c2.146-1.558,4.332-3.315,6.541-5.275c0.426,2.865,0.774,5.758,1.092,8.662
	c0.42,3.947,0.723,7.912,0.938,11.896C1658.963,285.651,1659.07,289.876,1659.07,294.11"/>
<path fill="#FFFFFF" d="M1649.797,324.578c-19.533,7.524-33.041,4.187-34.688,3.337c-0.974-0.493-4.748-4.411-9.763-9.874
	c5.337-3.49,9.238-5.884,10.201-6.109C1617.398,311.497,1632.018,311.546,1649.797,324.578"/>
<path fill="#FFFFFF" d="M1656.689,260.898c-2.209,1.974-4.396,3.72-6.541,5.277c-16.929,12.338-30.857,12.608-32.683,12.216
	c-1.049-0.235-5.709-3.041-11.947-7.02c-7.448-4.75-17.184-11.154-25.715-16.839c4.623-9.677,9.854-20.536,13.789-28.283
	c2.879-5.688,5.058-9.702,5.771-10.383c1.389-1.311,14.088-8.588,35.981-6.18c2.646,0.283,5.406,0.706,8.304,1.298
	C1649.781,226.857,1654.205,243.572,1656.689,260.898"/>
<path fill="#FFFFFF" d="M1643.65,210.985c-2.896-0.581-5.66-1.015-8.306-1.298c-21.924-2.417-34.596,4.882-35.998,6.18
	c-0.723,0.665-2.896,4.695-5.771,10.383c-3.938,7.747-9.148,18.6-13.771,28.283c-10.854-7.245-19.834-13.329-19.834-13.329
	s1.979-11.286,4.455-24.569c1.932-10.559,4.179-22.387,5.951-30.881c7.402,0.322,12.867,0.416,13.885,0.087
	c1.771-0.567,13.689-7.75,22.188-26.91c2.58-0.398,5.369-0.706,8.295-0.882c2.353,3.22,4.623,6.478,6.795,9.805
	c4.947,7.579,9.49,15.476,13.531,23.647c1.854,3.735,3.604,7.501,5.25,11.334C1641.504,205.546,1642.602,208.25,1643.65,210.985"/>
<path fill="#FFFFFF" d="M1609.467,151.102c-0.938,2.819-1.957,5.415-3.043,7.842c-21.774,3.338-32.156,13.659-33.164,15.275
	c-0.518,0.852-1.563,5.292-2.881,11.534c-8.813-0.397-20.436-1.073-30.646-1.743c-13.041-0.839-23.869-1.63-23.869-1.63
	s-3.91-10.756-8.455-23.491c10.061-1.997,21.457-4.347,30.086-6.253c7.244-1.604,12.521-2.917,13.438-3.495
	c1.567-1.014,11.217-11.053,14.465-31.719c0.395-2.639,0.707-5.409,0.883-8.383c2.328,1.757,4.631,3.536,6.9,5.366
	c3.073,2.512,6.133,5.093,9.077,7.737c6.773,6.055,13.158,12.519,19.173,19.31C1604.178,144.603,1606.881,147.82,1609.467,151.102"
	/>
<path fill="#FFFFFF" d="M1606.449,158.938c-8.496,19.151-20.402,26.345-22.188,26.913c-1.018,0.332-6.473,0.224-13.885-0.103
	c1.313-6.242,2.379-10.678,2.881-11.516C1574.277,172.597,1584.646,162.287,1606.449,158.938"/>
<path fill="#FFFFFF" d="M1566.277,109.045c-0.179,2.969-0.488,5.753-0.898,8.358c-3.256,20.694-12.879,30.72-14.447,31.733
	c-0.918,0.579-6.192,1.901-13.438,3.5c-8.629,1.915-20.016,4.25-30.076,6.253c-3.584-10.099-7.553-21.468-10.26-29.716
	c-1.99-6.058-3.287-10.445-3.269-11.437c0.05-1.912,3.882-16.03,21.089-29.829c2.065-1.666,4.313-3.313,6.786-4.932
	C1537.627,90.01,1552.539,98.789,1566.277,109.045"/>
<path fill="#FFFFFF" d="M1521.777,82.971c-2.474,1.63-4.736,3.276-6.806,4.93c-17.207,13.801-21.041,27.93-21.071,29.83
	c-0.037,0.989,1.26,5.376,3.25,11.443c2.702,8.248,6.688,19.606,10.26,29.721c-12.818,2.56-23.445,4.598-23.445,4.598
	s-6.58-9.361-14.247-20.495c-6.073-8.85-12.868-18.803-17.608-26.059c5.463-5.02,9.396-8.785,9.887-9.763
	c0.854-1.66,4.187-15.157-3.352-34.712c1.558-2.125,3.313-4.303,5.27-6.501c3.954,0.617,7.835,1.322,11.706,2.125
	c8.984,1.875,17.775,4.279,26.334,7.158c3.963,1.336,7.854,2.771,11.728,4.327C1516.402,80.646,1519.1,81.781,1521.777,82.971"/>
<path fill="#FFFFFF" d="M1446.016,106.739c0.221,0.954,2.606,4.858,6.094,10.194c-6.502,5.976-15.205,13.678-22.918,20.449
	c-9.806,8.615-18.014,15.71-18.014,15.71s-10.369-4.822-22.566-10.628c5.685-8.546,12.091-18.247,16.836-25.699
	c3.965-6.261,6.781-10.922,7.018-11.981c0.4-1.816,0.127-15.724-12.221-32.659c-1.547-2.125-3.304-4.322-5.259-6.539
	c2.875-0.423,5.753-0.779,8.655-1.073c3.939-0.436,7.911-0.744,11.893-0.955c4.177-0.235,8.406-0.354,12.632-0.354
	c4.92,0,9.768,0.157,14.59,0.458c4.188,0.259,8.354,0.626,12.479,1.111c1.341,2.667,2.476,5.228,3.416,7.701
	C1445.605,90.25,1445.571,104.863,1446.016,106.739"/>
<path fill="#FFFFFF" d="M1461.994,107.186c-0.496,0.959-4.417,4.744-9.881,9.748c-3.481-5.336-5.885-9.229-6.104-10.194
	c-0.436-1.865-0.397-16.489,12.646-34.265C1466.182,92.018,1462.844,105.526,1461.994,107.186"/>
<path fill="#FFFFFF" d="M1412.458,104.796c-0.224,1.048-3.041,5.722-7.021,11.97c-4.736,7.453-11.153,17.153-16.842,25.699
	c-9.674-4.612-20.524-9.843-28.279-13.762c-5.688-2.879-9.702-5.05-10.37-5.769c-1.324-1.401-8.59-14.095-6.192-35.999
	c0.285-2.63,0.717-5.4,1.309-8.304c15.861-6.134,32.563-10.558,49.902-13.045h0.013c1.971,2.227,3.72,4.414,5.267,6.55
	C1412.58,89.061,1412.849,102.969,1412.458,104.796"/>
<path fill="#FFFFFF" d="M1388.604,142.465c-7.255,10.863-13.351,19.841-13.351,19.841s-11.274-1.982-24.547-4.426
	c-10.556-1.957-22.388-4.206-30.892-5.982c0.333-7.404,0.43-12.856,0.098-13.881c-0.581-1.781-7.764-13.683-26.896-22.176
	c-0.409-2.595-0.717-5.376-0.882-8.31c3.193-2.35,6.466-4.612,9.791-6.775c7.597-4.965,15.487-9.503,23.649-13.562
	c3.735-1.841,7.503-3.598,11.347-5.239c2.698-1.176,5.404-2.275,8.148-3.325c-0.597,2.904-1.025,5.66-1.308,8.293
	c-2.404,21.915,4.867,34.604,6.179,35.996c0.676,0.732,4.692,2.892,10.37,5.776C1368.071,132.614,1378.924,137.854,1388.604,142.465
	"/>
<path fill="#FFFFFF" d="M1319.819,151.894c-0.373,8.823-1.078,20.449-1.743,30.68c-0.844,13.03-1.625,23.848-1.625,23.848
	s-10.737,3.917-23.497,8.442c-2.002-10.063-4.338-21.45-6.242-30.076c-1.604-7.23-2.927-12.523-3.524-13.423
	c-1-1.582-11.023-11.212-31.703-14.462c-2.619-0.421-5.401-0.73-8.366-0.892c1.752-2.336,3.543-4.636,5.358-6.912
	c2.497-3.09,5.082-6.115,7.743-9.083c6.056-6.75,12.507-13.153,19.32-19.157c3.138-2.771,6.351-5.458,9.64-8.053
	c2.809,0.941,5.414,1.968,7.834,3.041c3.338,21.785,13.659,32.142,15.294,33.157
	C1309.137,149.522,1313.586,150.583,1319.819,151.894"/>
<path fill="#FFFFFF" d="M1319.814,151.898c-6.229-1.308-10.68-2.37-11.513-2.889c-1.63-1.014-11.938-11.392-15.289-33.168
	c19.134,8.493,26.316,20.395,26.884,22.176C1320.235,139.042,1320.135,144.495,1319.814,151.898"/>
<path fill="#FFFFFF" d="M1292.955,214.872c-10.11,3.584-21.462,7.55-29.723,10.248c-6.054,1.992-10.438,3.29-11.416,3.265
	c-1.928-0.053-16.033-3.887-29.844-21.076c-1.651-2.065-3.313-4.328-4.933-6.804c7.034-15.854,15.809-30.763,26.08-44.5
	c2.96,0.173,5.741,0.481,8.358,0.892c20.683,3.255,30.707,12.881,31.723,14.461c0.577,0.906,1.897,6.194,3.495,13.425
	C1288.628,193.414,1290.953,204.808,1292.955,214.872"/>
<path fill="#FFFFFF" d="M1287.168,311.105c0,0-4.817,10.377-10.629,22.584c-8.542-5.694-18.247-12.112-25.702-16.845
	c-6.241-3.997-10.913-6.79-11.975-7.024c-1.827-0.396-15.725-0.121-32.639,12.203c-2.146,1.569-4.352,3.309-6.56,5.287
	c-0.438-2.879-0.779-5.769-1.082-8.677c-0.417-3.94-0.754-7.896-0.959-11.892c-0.225-4.19-0.352-8.391-0.352-12.632
	c0-4.896,0.162-9.767,0.457-14.56c0.272-4.206,0.638-8.371,1.11-12.512c2.662-1.333,5.234-2.458,7.69-3.398
	c17.786,13.031,32.397,13.08,34.274,12.631c0.954-0.221,4.849-2.619,10.188-6.105c5.972,6.517,13.673,15.216,20.457,22.917
	C1280.085,302.896,1287.168,311.105,1287.168,311.105"/>
<path fill="#FFFFFF" d="M1251.008,270.17c-5.345,3.482-9.234,5.885-10.188,6.11c-1.879,0.426-16.502,0.391-34.278-12.652
	c19.543-7.528,33.046-4.19,34.71-3.339C1242.22,260.785,1245.985,264.708,1251.008,270.17"/>
<path fill="#FFFFFF" d="M1380.732,520.11c-8.977-1.871-17.765-4.262-26.334-7.146l18.571-14.387L1380.732,520.11z"/>
<path fill="#FFFFFF" d="M1440.813,524.653c-4.181,0.255-8.396,0.351-12.637,0.351c-4.895,0-9.748-0.172-14.558-0.46l14.149-18.641
	L1440.813,524.653z"/>
<path fill="#FFFFFF" d="M1554.42,487.457c-7.58,4.964-15.479,9.489-23.646,13.549l2.944-23.272L1554.42,487.457z"/>
<path fill="#FFFFFF" d="M1600.137,448.201c-6.063,6.763-12.494,13.146-19.309,19.145l-3.162-23.199L1600.137,448.201z"/>
<path fill="#FFFFFF" d="M1654.178,341.552c-1.856,8.97-4.248,17.78-7.131,26.328l-14.391-18.564L1654.178,341.552z"/>
<path fill="#FFFFFF" d="M1659.07,294.11c0,4.893-0.156,9.753-0.449,14.562l-18.65-14.154l18.748-13.042
	C1658.963,285.651,1659.07,289.872,1659.07,294.11"/>
<path fill="#FFFFFF" d="M1635.084,191.505l-23.275-2.938l9.73-20.703C1626.486,175.438,1631.029,183.339,1635.084,191.505"/>
<path fill="#FFFFFF" d="M1601.43,141.457l-23.207,3.163l4.035-22.469C1589.016,128.208,1595.416,134.661,1601.43,141.457"/>
<path fill="#FFFFFF" d="M1501.951,75.245l-18.555,14.389l-7.773-21.531C1484.609,69.968,1493.398,72.366,1501.951,75.245"/>
<path fill="#FFFFFF" d="M1442.752,63.662l-14.168,18.643l-13.043-18.741c4.178-0.234,8.396-0.343,12.635-0.343
	C1433.069,63.221,1437.93,63.367,1442.752,63.662"/>
<path fill="#FFFFFF" d="M1325.58,87.195l-2.941,23.28l-20.709-9.729C1309.513,95.792,1317.406,91.253,1325.58,87.195"/>
<path fill="#FFFFFF" d="M1278.699,144.06l-22.483-4.039c6.053-6.755,12.511-13.151,19.32-19.163L1278.699,144.06z"/>
<path fill="#FFFFFF" d="M1223.705,238.893l-21.532,7.763c1.862-8.977,4.267-17.776,7.146-26.315L1223.705,238.893z"/>
<path fill="#FFFFFF" d="M1216.38,293.7l-18.742,13.042c-0.25-4.182-0.346-8.396-0.346-12.632c0-4.884,0.146-9.756,0.441-14.564
	L1216.38,293.7z"/>
<path fill="#FFFFFF" d="M1276.531,333.685c-4.604,9.688-9.837,20.528-13.754,28.28c-2.879,5.699-5.06,9.704-5.771,10.381
	c-1.4,1.303-14.082,8.598-35.998,6.18c-2.631-0.274-5.416-0.694-8.303-1.303c-6.135-15.861-10.557-32.571-13.044-49.902
	c2.228-1.982,4.412-3.739,6.561-5.296c16.927-12.338,30.819-12.59,32.646-12.197c1.052,0.234,5.722,3.03,11.97,7.007
	C1258.292,321.585,1267.991,327.999,1276.531,333.685"/>
<path fill="#FFFFFF" d="M1362.457,470.459c-0.049,1.909-3.882,16.046-21.087,29.843c-2.065,1.655-4.327,3.313-6.791,4.925
	c-15.856-7.021-30.778-15.782-44.497-26.07c0.157-2.958,0.483-5.748,0.886-8.354c3.254-20.679,12.881-30.708,14.462-31.725
	c0.906-0.578,6.193-1.895,13.424-3.497c8.634-1.92,20.018-4.25,30.075-6.256c3.601,10.117,7.57,21.463,10.261,29.72
	C1361.197,465.102,1362.48,469.496,1362.457,470.459"/>
<path fill="#FFFFFF" d="M1296.383,347.017c0,0-1.979,11.25-4.437,24.557c-1.954,10.563-4.2,22.382-5.968,30.881
	c-7.407-0.313-12.856-0.412-13.887-0.098c-1.792,0.575-13.691,7.771-22.188,26.92c-2.598,0.407-5.376,0.713-8.312,0.868
	c-2.35-3.199-4.609-6.474-6.786-9.805c-4.953-7.578-9.49-15.486-13.551-23.662c-1.84-3.702-3.598-7.48-5.238-11.319
	c-1.146-2.682-2.263-5.396-3.322-8.137c2.902,0.578,5.658,1.018,8.304,1.303c21.911,2.391,34.604-4.877,35.983-6.188
	c0.732-0.666,2.902-4.671,5.791-10.37c3.916-7.752,9.144-18.617,13.755-28.273C1287.408,340.924,1296.383,347.017,1296.383,347.017"
	/>
<path fill="#FFFFFF" d="M1244.555,399.653l-9.729,20.688c-4.966-7.578-9.494-15.478-13.563-23.636L1244.555,399.653z"/>
<path fill="#FFFFFF" d="M1348.938,429.322c-10.063,2.006-21.444,4.336-30.075,6.256c-7.241,1.616-12.521,2.919-13.438,3.497
	c-1.582,1.017-11.208,11.046-14.462,31.725c-0.392,2.624-0.72,5.406-0.887,8.364c-2.324-1.747-4.624-3.536-6.892-5.358
	c-3.103-2.509-6.144-5.093-9.096-7.733c-6.766-6.071-13.156-12.512-19.163-19.316c-2.771-3.136-5.463-6.374-8.044-9.655
	c0.929-2.813,1.954-5.424,3.027-7.819c21.78-3.346,32.166-13.653,33.163-15.31c0.505-0.831,1.572-5.266,2.896-11.493
	c8.835,0.361,20.435,1.064,30.668,1.717c13.024,0.869,23.84,1.632,23.84,1.632S1344.404,416.574,1348.938,429.322"/>
<path fill="#FFFFFF" d="M1278.131,443.59l-4.044,22.479c-6.746-6.063-13.149-12.513-19.146-19.316L1278.131,443.59z"/>
<path fill="#FFFFFF" d="M1285.972,402.463c-1.311,6.24-2.384,10.687-2.892,11.52c-1.013,1.629-11.388,11.938-33.179,15.296
	c8.494-19.146,20.405-26.329,22.188-26.92C1273.117,402.041,1278.566,402.14,1285.972,402.463"/>
<polygon fill="#FFFFFF" points="89.184,686.098 89.184,625.681 60,625.681 60,612.884 131.788,612.884 131.788,625.681 
	102.607,625.681 102.607,686.098 "/>
<path fill="#FFFFFF" d="M311.868,643.494h42.604v10.792h-42.604V643.494z M288.713,686.098v-73.214h68.633v12.797h-55.304v47.634
	h55.401v12.783H288.713z"/>
<path fill="#FFFFFF" d="M552.115,686.098c-5.366,0-10.313-0.953-14.859-2.856c-4.543-1.921-8.493-4.542-11.842-7.873
	c-3.349-3.319-5.958-7.244-7.823-11.827c-1.865-4.565-2.806-9.491-2.806-14.804c0-5.369,0.938-10.265,2.806-14.701
	c1.866-4.421,4.477-8.211,7.823-11.325c3.35-3.125,7.299-5.552,11.842-7.256c4.55-1.725,9.494-2.568,14.859-2.568h41.659v12.797
	h-41.659c-3.457,0-6.649,0.579-9.566,1.767c-2.929,1.177-5.449,2.8-7.563,4.888c-2.116,2.076-3.771,4.552-4.974,7.435
	c-1.194,2.896-1.795,6.089-1.795,9.572c0,3.431,0.601,6.618,1.795,9.562c1.2,2.957,2.855,5.491,4.974,7.604
	c2.112,2.126,4.635,3.792,7.563,4.997c2.917,1.201,6.109,1.813,9.566,1.813h41.659V686.1h-41.659V686.098z"/>
<path fill="#FFFFFF" d="M814.569,686.399v-31.822h-38.702v-11.385h38.702v-30.312h13.424v73.518L814.569,686.399L814.569,686.399z
	 M752.715,612.884h13.425V686.4h-13.425V612.884z"/>
<path fill="#FFFFFF" d="M1001.837,632.526v53.568h-12.796V619.63c0-2.354,0.616-4.213,1.854-5.591
	c1.228-1.372,2.903-2.064,5.022-2.064c0.983,0,1.937,0.205,2.854,0.616c0.911,0.4,1.865,1.064,2.854,2.006l54.235,51.259v-53.576
	h12.797v67.068c0,2.412-0.616,4.301-1.84,5.65c-1.238,1.323-2.847,2-4.822,2c-2.188,0-4.229-0.902-6.135-2.704L1001.837,632.526z"/>
<path fill="#FFFFFF" d="M1283.526,673.313c3.522,0,6.771-0.608,9.729-1.813c2.963-1.205,5.509-2.871,7.664-4.997
	c2.149-2.112,3.817-4.646,5.028-7.604c1.188-2.94,1.792-6.133,1.792-9.562c0-3.427-0.604-6.59-1.792-9.515
	c-1.213-2.919-2.881-5.416-5.028-7.492c-2.154-2.088-4.701-3.711-7.664-4.888c-2.96-1.188-6.206-1.767-9.729-1.767h-18.72
	c-3.457,0-6.649,0.579-9.564,1.767c-2.926,1.177-5.449,2.8-7.563,4.888c-2.111,2.076-3.771,4.552-4.975,7.433
	c-1.194,2.897-1.783,6.088-1.783,9.574c0,3.429,0.589,6.618,1.783,9.561c1.204,2.955,2.863,5.491,4.975,7.604
	c2.114,2.126,4.637,3.792,7.563,4.997c2.915,1.201,6.107,1.812,9.564,1.812L1283.526,673.313L1283.526,673.313z M1264.811,686.098
	c-5.357,0-10.31-0.953-14.854-2.856c-4.552-1.921-8.493-4.542-11.843-7.873c-3.351-3.319-5.957-7.244-7.828-11.827
	c-1.865-4.565-2.808-9.491-2.808-14.804c0-5.369,0.939-10.265,2.808-14.701c1.871-4.421,4.479-8.211,7.828-11.325
	c3.35-3.125,7.291-5.552,11.843-7.256c4.545-1.725,9.495-2.568,14.854-2.568h18.719c5.563,0,10.667,0.866,15.273,2.618
	c4.625,1.751,8.586,4.216,11.894,7.354c3.313,3.163,5.885,6.939,7.726,11.318c1.835,4.411,2.747,9.251,2.747,14.563
	c0,5.313-0.922,10.235-2.792,14.804c-1.865,4.583-4.487,8.508-7.823,11.827c-3.352,3.331-7.313,5.952-11.901,7.873
	c-4.573,1.906-9.621,2.856-15.119,2.856L1264.811,686.098L1264.811,686.098z"/>
<polygon fill="#FFFFFF" points="1480.102,686.098 1480.102,612.884 1493.521,612.884 1493.521,673.313 1545.234,673.313 
	1545.234,686.098 "/>
<path fill="#FFFFFF" d="M1756.715,673.313c3.523,0,6.773-0.608,9.73-1.813c2.969-1.205,5.504-2.871,7.666-4.997
	c2.146-2.112,3.82-4.646,5.031-7.604c1.194-2.94,1.784-6.133,1.784-9.562c0-3.427-0.59-6.59-1.784-9.515
	c-1.212-2.919-2.888-5.416-5.031-7.492c-2.162-2.088-4.697-3.711-7.666-4.888c-2.957-1.188-6.207-1.767-9.73-1.767h-18.713
	c-3.465,0-6.639,0.579-9.568,1.767c-2.938,1.177-5.44,2.8-7.567,4.888c-2.104,2.076-3.771,4.552-4.964,7.433
	c-1.192,2.897-1.801,6.088-1.801,9.574c0,3.429,0.605,6.618,1.801,9.561c1.193,2.955,2.859,5.491,4.964,7.604
	c2.127,2.126,4.633,3.792,7.567,4.997c2.933,1.201,6.104,1.812,9.568,1.812L1756.715,673.313L1756.715,673.313z M1738.002,686.098
	c-5.355,0-10.309-0.953-14.855-2.856c-4.551-1.921-8.483-4.542-11.846-7.873c-3.355-3.319-5.963-7.244-7.824-11.827
	c-1.867-4.565-2.809-9.491-2.809-14.804c0-5.369,0.939-10.265,2.809-14.701c1.861-4.421,4.47-8.211,7.824-11.325
	c3.359-3.125,7.295-5.552,11.846-7.256c4.549-1.725,9.5-2.568,14.855-2.568h18.713c5.58,0,10.672,0.866,15.283,2.618
	c4.613,1.751,8.596,4.216,11.889,7.354c3.32,3.163,5.895,6.939,7.729,11.318c1.823,4.411,2.75,9.251,2.75,14.563
	c0,5.313-0.927,10.235-2.813,14.804c-1.871,4.583-4.467,8.508-7.824,11.827c-3.34,3.331-7.313,5.952-11.896,7.873
	c-4.563,1.906-9.61,2.856-15.115,2.856L1738.002,686.098L1738.002,686.098z"/>
<path fill="#FFFFFF" d="M1988.393,686.098c-5.348,0-10.311-0.953-14.846-2.856c-4.553-1.921-8.498-4.542-11.857-7.873
	c-3.346-3.319-5.949-7.244-7.819-11.827c-1.859-4.565-2.801-9.491-2.801-14.804c0-5.369,0.938-10.265,2.801-14.701
	c1.87-4.421,4.477-8.211,7.819-11.325c3.359-3.125,7.308-5.552,11.857-7.256c4.535-1.725,9.498-2.568,14.846-2.568h41.672v12.797
	h-41.672c-3.438,0-6.639,0.579-9.557,1.767c-2.939,1.177-5.463,2.8-7.572,4.888c-2.109,2.076-3.768,4.552-4.961,7.435
	c-1.205,2.896-1.801,6.089-1.801,9.572c0,3.431,0.596,6.618,1.801,9.562c1.193,2.957,2.85,5.491,4.961,7.604
	c2.109,2.126,4.633,3.792,7.572,4.997c2.918,1.201,6.119,1.813,9.557,1.813h32.881v-19.025h-34.682V643.5h48.23v42.604h-46.432
	L1988.393,686.098L1988.393,686.098z"/>
<rect x="2195.975" y="612.884" fill="#FFFFFF" width="13.427" height="73.228"/>
<path fill="#FFFFFF" d="M2394.662,643.494h42.598v10.792h-42.598V643.494z M2371.498,686.098v-73.214h68.627v12.797h-55.303v47.634
	h55.41v12.783H2371.498z"/>
<path fill="#FFFFFF" d="M2599.795,686.098v-12.783h57.627c3.602,0,6.363-0.865,8.281-2.606c1.957-1.762,2.922-4.083,2.922-6.979
	c0-3.136-0.965-5.503-2.922-7.08c-1.918-1.586-4.68-2.356-8.281-2.356h-35.32c-3.594,0-6.854-0.529-9.779-1.568
	c-2.93-1.038-5.379-2.483-7.412-4.33c-2.002-1.849-3.547-4.043-4.657-6.604c-1.082-2.546-1.617-5.324-1.617-8.354
	c0-2.956,0.508-5.688,1.522-8.206c1.037-2.515,2.535-4.688,4.55-6.497c2.006-1.808,4.491-3.232,7.448-4.282
	c2.968-1.037,6.354-1.56,10.162-1.56h55.193v12.798h-55.193c-3.11,0-5.502,0.794-7.194,2.362c-1.688,1.568-2.535,3.779-2.535,6.589
	c0,2.829,0.861,5.017,2.586,6.563c1.74,1.526,4.082,2.302,7.027,2.302h35.223c7.824,0,13.769,1.752,17.82,5.24
	c4.043,3.502,6.067,8.79,6.067,15.911c0,3.091-0.487,5.938-1.469,8.558c-0.99,2.623-2.477,4.894-4.457,6.797
	c-1.955,1.918-4.443,3.417-7.449,4.492c-2.991,1.074-6.506,1.604-10.516,1.604h-57.627V686.098z"/>
<path fill="#FFFFFF" d="M155.968,317.9c-10.072,0-20.877-1.156-32.4-3.507c-11.535-2.335-21.998-6.862-31.422-13.584
	c-5.522-4.093-10.145-8.999-13.88-14.697c-3.744-5.699-6.822-11.83-9.262-18.409c-2.432-6.574-4.224-13.296-5.365-20.171
	c-1.133-6.858-1.689-13.659-1.689-20.384v-8.328c0-2.639,0.309-5.269,0.959-7.901c2.276-25.43,12.833-45.154,31.67-59.187
	c5.529-4.092,12.338-8.034,20.461-11.842c8.12-3.798,16.081-5.699,23.885-5.699h161.253c3.232,0,4.872,1.473,4.872,4.388v48.222
	c0,2.933-1.64,4.387-4.872,4.387H159.38c-4.553,0-8.691,1.828-12.421,5.494c-3.736,3.643-6.418,7.079-8.035,10.296
	c-1.635,2.927-2.613,5.841-2.933,8.776c-0.322,2.915-0.484,5.842-0.484,8.764c0,4.671,0.325,9.508,0.979,14.462
	c0.646,4.979,2.914,9.367,6.814,13.163c3.566,3.211,8.529,5.119,14.855,5.697c6.341,0.582,13.229,0.882,20.706,0.882h54.566
	c10.063,0,20.628,1.232,31.668,3.719c11.034,2.487,21.271,7.231,30.691,14.251c5.512,4.09,10.147,9.064,13.883,14.908
	c3.731,5.847,6.82,12.124,9.258,18.849c2.436,6.73,4.145,13.749,5.112,21.051c0.979,7.31,1.462,14.312,1.462,21.048v9.196
	c0,2.632-0.332,5.12-0.978,7.462c-2.598,26.608-12.989,47.066-31.176,61.384c-5.523,4.092-12.259,8.104-20.22,12.063
	c-7.961,3.937-15.511,5.914-22.645,5.914H73.146c-3.247,0-4.872-1.46-4.872-4.396v-48.215c0-2.92,1.625-4.392,4.872-4.392H230.01
	c4.883,0,9.102-2.112,12.676-6.354c3.565-4.248,6.161-8.125,7.798-11.611c1.617-3.223,2.595-6.299,2.915-9.225
	c0.318-2.908,0.494-5.984,0.494-9.195c0-4.686-0.333-9.573-0.978-14.688c-0.651-5.119-2.928-9.718-6.82-13.821
	c-3.251-3.211-7.877-5.477-13.881-6.785c-6.018-1.321-13.081-1.98-21.198-1.98h-55.048V317.9L155.968,317.9z"/>
<path fill="#FFFFFF" d="M563.246,188.783c-9.095,0.43-16.898,1.384-23.391,2.844c-11.69,2.631-19.973,7.823-24.844,15.573
	c-4.871,7.736-7.309,19.354-7.309,34.844V342.89c0,15.5,2.438,27.114,7.309,34.862c4.872,7.751,13.151,12.941,24.844,15.575
	c6.49,1.459,14.296,2.411,23.391,2.851c9.083,0.434,18.663,0.647,28.741,0.647c10.063,0,19.642-0.217,28.735-0.647
	c9.085-0.438,16.893-1.392,23.391-2.851c11.688-2.634,19.974-7.824,24.845-15.575c4.871-7.748,7.31-19.361,7.31-34.862V242.044
	c0-15.489-2.438-27.108-7.31-34.844c-4.872-7.75-13.154-12.942-24.845-15.573c-6.498-1.459-14.305-2.414-23.391-2.844
	c-9.096-0.446-18.673-0.657-28.735-0.657C581.909,188.126,572.329,188.337,563.246,188.783 M437.063,291.158
	c0-17.246,0.162-32.154,0.481-44.727c0.319-12.554,1.298-22.79,2.928-30.691c2.598-11.396,5.355-21.62,8.283-30.692
	c2.918-9.047,6.826-16.5,11.697-22.363c6.487-7.585,14.604-14.25,24.347-19.947c9.756-5.699,20.136-9.718,31.188-12.053
	c7.792-1.463,18.021-2.335,30.686-2.633c12.67-0.284,27.772-0.435,45.315-0.435c17.542,0,32.63,0.151,45.3,0.435
	c12.675,0.298,22.893,1.17,30.697,2.633c11.031,2.335,21.433,6.354,31.176,12.053c9.734,5.697,17.857,12.361,24.357,19.947
	c4.872,5.863,8.767,13.316,11.697,22.363c2.915,9.072,5.674,19.295,8.283,30.692c1.616,7.901,2.594,18.138,2.914,30.691
	c0.317,12.573,0.483,27.48,0.483,44.727v2.631c0,17.243-0.166,32.154-0.483,44.727c-0.32,12.572-1.298,22.794-2.914,30.689
	c-2.607,11.396-5.368,21.635-8.283,30.685c-2.933,9.079-6.825,16.528-11.697,22.356c-6.5,7.616-14.623,14.262-24.357,19.955
	c-9.744,5.698-20.146,9.721-31.176,12.063c-7.808,1.458-18.022,2.339-30.697,2.631c-12.67,0.287-27.759,0.436-45.3,0.436
	c-17.543,0-32.646-0.146-45.315-0.436c-12.662-0.292-22.894-1.173-30.686-2.631c-11.054-2.342-21.434-6.361-31.188-12.063
	c-9.742-5.693-17.859-12.339-24.347-19.955c-4.871-5.828-8.778-13.277-11.697-22.356c-2.928-9.05-5.688-19.288-8.283-30.685
	c-1.63-7.896-2.605-18.117-2.928-30.689c-0.319-12.572-0.481-27.483-0.481-44.727V291.158z"/>
<path fill="#FFFFFF" d="M861.872,192.944c0-9.937,1.781-18.555,5.35-25.87c3.57-7.298,8.534-13.375,14.869-18.197
	c6.334-4.825,13.8-8.469,22.399-10.956c8.604-2.482,17.951-3.731,28.024-3.731h170.513c3.239,0,4.871,1.473,4.871,4.388V186.8
	c0,2.933-1.632,4.387-4.871,4.387H955.891c-8.764,0-14.856,2.13-18.257,6.355c-3.408,4.238-5.116,10.31-5.116,18.198v41.653
	c0,3.23,1.616,4.822,4.87,4.822h149.562c3.233,0,4.871,1.474,4.871,4.387v48.238c0,2.917-1.638,4.371-4.871,4.371H937.388
	c-3.254,0-4.87,1.625-4.87,4.833v120.125c0,2.935-1.63,4.396-4.869,4.396h-60.902c-3.252,0-4.872-1.463-4.872-4.396L861.872,192.944
	L861.872,192.944z"/>
<path fill="#FFFFFF" d="M1754.061,231.969c0-12.558,1.941-24.401,5.847-35.514c1.952-6.428,4.608-11.907,8.038-16.44
	c3.398-4.539,6.877-8.704,10.478-12.5c10.06-10.521,22.063-18.701,36.045-24.562c13.953-5.835,28.902-8.764,44.81-8.764h129.121
	c3.229,0,4.862,1.473,4.862,4.388v48.222c0,2.933-1.633,4.387-4.862,4.387h-126.195c-12.65,2.349-22.09,8.269-28.246,17.763
	c-6.182,9.506-9.246,21.856-9.246,37.047v110.93c0.961,10.229,4.611,18.34,10.947,24.329c6.338,5.985,15.17,9.438,26.545,10.312
	h126.195c3.229,0,4.863,1.471,4.863,4.391v48.215c0,2.938-1.634,4.396-4.863,4.396H1863.67c-9.752,0-18.35-0.813-25.818-2.411
	c-7.475-1.604-13.965-3.436-19.495-5.482c-12.35-4.081-23.384-10.741-33.123-19.941c-9.744-9.206-17.697-20.229-23.875-33.1
	c-1.621-3.227-3.25-7.534-4.867-12.938c-1.633-5.408-2.426-12.063-2.426-19.969V231.969H1754.061z"/>
<path fill="#FFFFFF" d="M2337.189,395.954v48.229c0,2.908-1.629,4.382-4.877,4.382h-133.972h-7.307
	c-2.279,0-4.221-0.146-5.842-0.435c-26.957-2.056-46.121-9.143-57.498-21.271c-11.369-12.115-17.05-30.469-17.05-55.021V138.571
	c0-2.914,1.623-4.375,4.877-4.375h60.896c3.25,0,4.877,1.461,4.877,4.375v238.531c0,9.631,6.324,14.463,18.986,14.463h132.026
	C2335.561,391.564,2337.189,393.034,2337.189,395.954"/>
<path fill="#FFFFFF" d="M2438.033,201.272c0-19.877,6-36.022,18.014-48.444c12.023-12.421,29.404-18.638,52.123-18.638h165.164
	c4.227,0,6.324,1.473,6.324,4.388V186.8c0,2.933-1.615,4.387-4.865,4.387h-161.25c-3.25,0-4.865,1.606-4.865,4.822v59.626
	c0,2.934,1.615,4.39,4.865,4.39H2663.1c3.244,0,4.875,1.471,4.875,4.393v50.417c0,2.922-1.631,4.375-4.875,4.375h-149.557
	c-3.25,0-4.865,1.474-4.865,4.388v63.571c0,2.946,1.615,4.396,4.865,4.396h161.25c3.25,0,4.865,1.472,4.865,4.392v48.215
	c0,2.937-1.615,4.396-4.865,4.396h-188.547c-5.828,0-11.684-1.393-17.527-4.177c-5.838-2.757-11.057-6.352-15.58-10.729
	c-4.563-4.383-8.213-9.271-10.977-14.693c-2.762-5.396-4.129-10.889-4.129-16.438V201.272z"/>
<g>
	<path fill="#FFFFFF" d="M2748.223,101.9V47.239h24.237c4.872,0,8.576,0.491,11.11,1.473c2.535,0.981,4.562,2.716,6.078,5.201
		c1.516,2.486,2.272,5.233,2.272,8.241c0,3.877-1.256,7.146-3.765,9.807c-2.514,2.66-6.391,4.35-11.635,5.07
		c1.912,0.92,3.366,1.827,4.36,2.723c2.113,1.938,4.115,4.362,6.003,7.271l9.51,14.877h-9.101l-7.231-11.372
		c-2.112-3.282-3.854-5.792-5.221-7.532c-1.365-1.74-2.592-2.958-3.672-3.654c-1.082-0.696-2.182-1.181-3.302-1.454
		c-0.82-0.174-2.162-0.261-4.025-0.261h-8.391V101.9H2748.223z M2755.456,71.363h15.548c3.31,0,5.895-0.341,7.758-1.025
		c1.862-0.684,3.28-1.777,4.25-3.281c0.973-1.504,1.455-3.138,1.455-4.903c0-2.585-0.938-4.711-2.814-6.376
		c-1.877-1.666-4.842-2.499-8.893-2.499h-17.304V71.363L2755.456,71.363z"/>
</g>
<circle fill="none" stroke="#FFFFFF" stroke-width="7" stroke-miterlimit="10" cx="2768.995" cy="74.173" r="62.386"/>
</svg>
