<svg height="37" viewBox="0 0 170 37" width="170" xmlns="http://www.w3.org/2000/svg"><g fill="#f8a31a"><path d="m.31 16.188c.498-1.539 2.147-2.384 3.687-1.881 1.374.448 2.193 1.821 1.99 3.21l4.999 1.62c-.139.307-.244.634-.315.974l-5.004-1.624c-.657 1.226-2.113 1.843-3.481 1.399-1.536-.502-2.376-2.157-1.876-3.698zm0 9.71c-.5-1.54.34-3.195 1.876-3.696 1.381-.448 2.847.185 3.497 1.433l4.992-1.641c.07.34.177.666.317.974l-4.999 1.642c.181 1.376-.633 2.728-1.996 3.174-1.54.501-3.189-.347-3.687-1.886zm5.692 7.857c1.305.951 3.138.663 4.088-.648.841-1.162.71-2.733-.242-3.738l3.08-4.279c-.298-.17-.573-.37-.826-.599l-3.073 4.269c-1.255-.634-2.819-.28-3.674.898-.951 1.309-.66 3.143.647 4.097zm18.421-25.422c-1.304-.951-3.137-.664-4.085.649-.844 1.163-.712 2.734.241 3.739l-3.082 4.277c.299.171.574.372.827.6l3.073-4.269c1.257.633 2.821.28 3.675-.899.95-1.31.66-3.144-.649-4.097zm5.693 7.855c.501 1.541-.34 3.196-1.878 3.698-1.377.447-2.846-.185-3.495-1.43l-4.993 1.638c-.069-.34-.176-.667-.317-.974l5.002-1.642c-.183-1.374.632-2.728 1.995-3.171 1.537-.503 3.188.342 3.686 1.881zm0 9.71c-.498 1.539-2.149 2.387-3.686 1.886-1.377-.45-2.192-1.824-1.99-3.211l-5-1.62c.14-.31.245-.635.315-.975l5.006 1.624c.655-1.227 2.111-1.845 3.477-1.4 1.538.501 2.379 2.156 1.878 3.696zm-5.693 7.857c1.308-.954 1.599-2.788.649-4.097-.849-1.167-2.392-1.525-3.642-.917l-3.093-4.262c-.251.23-.527.433-.824.602l3.092 4.26c-.976 1.004-1.118 2.593-.269 3.766.95 1.311 2.783 1.599 4.087.648zm-9.21-28.423c1.616 0 2.925 1.312 2.925 2.934 0 1.448-1.041 2.645-2.415 2.887v5.272c-.167-.02-.338-.029-.511-.029s-.341.009-.51.029v-5.272c-1.373-.242-2.414-1.439-2.414-2.887 0-1.622 1.309-2.934 2.925-2.934zm.51 25.603c1.374.244 2.415 1.442 2.415 2.889 0 1.622-1.309 2.931-2.925 2.931s-2.925-1.309-2.925-2.931c0-1.447 1.041-2.645 2.414-2.889v-5.271c.169.019.337.028.51.028s.344-.009.511-.028zm-.51-12.825c-1.615 0-2.925 1.314-2.925 2.935 0 1.622 1.309 2.932 2.925 2.934 1.616-.002 2.924-1.312 2.924-2.934 0-1.621-1.309-2.935-2.924-2.935zm-9.21-9.777c-1.309.953-1.599 2.787-.648 4.097.846 1.169 2.39 1.525 3.64.917l3.095 4.262c.251-.229.526-.432.822-.602l-3.092-4.257c.977-1.004 1.119-2.595.269-3.768-.949-1.313-2.782-1.6-4.086-.649z"/><path d="m52.475 22.248c-1.831-.333-4.191-.892-5.674-1.972-1.905-1.119-2.981-2.777-2.981-5.012 0-2.278 1.133-4.051 2.946-5.388 1.888-1.302 4.124-1.777 6.388-1.777 1.068 0 2.118.18 3.134.507.785.255 1.64.555 2.364.952.73.401 1.458.858 2.188 1.321.413.31.689.743.788 1.248.102.505.026.997-.245 1.433-.28.45-.708.728-1.226.831-.502.104-1 .023-1.447-.257-.598-.41-1.214-.829-1.835-1.203-.499-.304-1.13-.539-1.679-.734-.656-.233-1.344-.382-2.042-.382-1.41 0-2.934.249-4.062 1.157-.66.533-1.367 1.286-1.367 2.192 0 .837.466 1.454 1.081 1.94 1.292.888 3.072 1.318 4.603 1.557h.099l.055.009c2.167.335 4.253 1.016 6.196 2.1 1.944 1.275 3.077 3.08 3.077 5.431 0 2.371-1.128 4.229-3.006 5.624-1.947 1.453-4.154 2.164-6.582 2.164-3.556-.036-6.702-1.437-9.466-3.66-.858-.759-.971-1.738-.259-2.605.321-.434.77-.682 1.307-.737.543-.053 1.028.11 1.414.448 1.866 1.369 4.232 2.689 6.611 2.689 1.596 0 3.298-.306 4.595-1.359.793-.538 1.52-1.28 1.505-2.301-.015-1.015-.599-1.788-1.365-2.403-1.249-1.004-3.359-1.486-4.904-1.741l-.108-.019zm16.72 7.897c-2.388-2.551-3.579-5.602-3.579-9.102 0-3.498 1.192-6.547 3.579-9.1 2.35-2.512 5.246-3.844 8.689-3.844 3.442 0 6.336 1.332 8.688 3.844 2.388 2.553 3.58 5.602 3.58 9.1 0 3.5-1.192 6.551-3.58 9.102-2.351 2.512-5.246 3.844-8.688 3.844-3.444 0-6.339-1.332-8.689-3.844zm35.979 2.381c-.077.328-.252.622-.469.88-.324.381-.759.583-1.256.583-.402 0-.789-.094-1.149-.275l-.108-.055-.085-.085c-.226-.228-.437-.492-.555-.785l-9.143-21.815c-.214-.489-.212-1.004.005-1.495.479-1.051 1.375-1.508 2.442-1.027.512.205.882.556 1.05 1.056l7.42 17.614 7.408-17.588c.172-.513.533-.87 1.029-1.08.492-.207 1.011-.212 1.499.003 1.085.468 1.425 1.419.98 2.507zm17.966-19.489c2.316-2.981 5.363-4.89 9.355-4.89.525 0 .995.193 1.363.565.372.373.567.843.567 1.369s-.195.997-.564 1.367c-.371.374-.841.566-1.366.566-2.754 0-4.847 1.591-6.473 3.693-1.237 1.656-2.146 3.533-2.823 5.481l-.015.045-.044.109v10.716c0 .526-.193.994-.564 1.369-.371.372-.841.562-1.365.562-.522 0-.993-.19-1.366-.564-.37-.373-.564-.841-.564-1.367v-21.977c0-.526.194-.996.564-1.371.373-.369.841-.563 1.366-.563.524 0 .994.194 1.367.565.369.373.562.843.562 1.369zm15.992 19.021v-22.028c0-.526.195-.996.564-1.368.373-.375.856-.563 1.388-.563s1.018.188 1.391.563c.368.372.563.847.563 1.368v22.028c0 .538-.213 1.02-.607 1.387-.38.354-.848.544-1.372.544-.522 0-.997-.193-1.365-.564-.367-.368-.562-.841-.562-1.367zm0-28.854v-1.144c0-.528.19-.998.562-1.37.37-.373.841-.564 1.365-.564s.99.188 1.372.544c.397.369.607.852.607 1.39v1.144c0 .55-.195 1.053-.589 1.443-.378.381-.852.59-1.39.59s-1.015-.213-1.382-.608c-.368-.394-.545-.885-.545-1.425zm9.681 29.842c-.156-.17-.183-.257-.185-.416l-.051-.101v-22.448c0-.526.193-.996.565-1.369.37-.371.839-.565 1.365-.565.527 0 .998.198 1.358.585.346.375.52.839.52 1.349v.524c1.81-1.599 3.989-2.458 6.545-2.458 3.004 0 5.643.991 7.777 3.133 2.069 2.071 3.125 4.588 3.125 7.521v13.257c0 .526-.192.996-.563 1.369-.372.372-.841.562-1.363.562-.528 0-.997-.19-1.367-.564-.372-.371-.565-.841-.565-1.367v-13.257c0-1.875-.659-3.456-1.975-4.788-1.317-1.337-2.895-1.999-4.769-1.999-1.872 0-3.45.651-4.774 1.976-1.336 1.341-2.011 2.938-2.071 4.818v13.54l-.022.087c-.233.937-.867 1.554-1.856 1.554h-.397l-.096-.025c-.523-.142-.935-.457-1.201-.918zm-70.929-21.132c-2.361 0-4.293.944-5.902 2.659-1.7 1.815-2.51 3.961-2.51 6.448 0 2.484.811 4.631 2.51 6.446 1.609 1.715 3.541 2.657 5.902 2.657 2.359 0 4.292-.942 5.9-2.657 1.7-1.815 2.51-3.962 2.51-6.446 0-2.487-.808-4.633-2.51-6.448-1.608-1.715-3.54-2.659-5.9-2.659z"/></g></svg>