<?xml version="1.0" encoding="utf-8"?>
<!-- Generator: Adobe Illustrator 24.0.1, SVG Export Plug-In . SVG Version: 6.00 Build 0)  -->
<svg version="1.1" id="Layer_1" xmlns="http://www.w3.org/2000/svg" xmlns:xlink="http://www.w3.org/1999/xlink" x="0px" y="0px"
	 viewBox="0 0 200 200" style="enable-background:new 0 0 200 200;" xml:space="preserve">
<style type="text/css">
	.st0{fill:none;}
	.st1{fill:#73B564;}
</style>
<rect class="st0" width="200" height="200"/>
<g>
	<g>
		<path class="st1" d="M173.91,55.66l-78.6,88.34l-0.37,0.24l-0.42-0.22l-29.35-21.27l-0.4-0.46l0.31-0.34L173.7,55.48l0.3-0.06
			L173.91,55.66z M41.84,140.77l-0.55,0.12l-0.24-0.54l-0.06-31.33l0.07-0.28l0.28-0.19l124.22-53.01l0.24,0l-0.08,0.18
			L60.96,119.86L41.84,140.77z M38.88,105.32l-0.19-0.06L15.87,89.43l-0.23-0.34l0.29-0.2l149.14-37.42l0.17,0.02l-0.13,0.12
			L39.06,105.28L38.88,105.32 M193,40.18h-0.25L7.21,86.8l-0.27,0.19l0.24,0.32l29.34,21.32l0.21,0.23l0.09,0.3v41.27l0.2,0.58
			l0.55-0.14l32.65-18.39l0.27-0.08l0.25,0.14l23.9,16.76l0.69,0.34l0.51-0.38L192.9,40.38L193,40.18"/>
	</g>
</g>
</svg>
