<?xml version="1.0" encoding="utf-8"?>
<!-- Generator: Adobe Illustrator 25.2.2, SVG Export Plug-In . SVG Version: 6.00 Build 0)  -->
<svg version="1.1" id="Layer_1" xmlns:serif="http://www.serif.com/"
	 xmlns="http://www.w3.org/2000/svg" xmlns:xlink="http://www.w3.org/1999/xlink" x="0px" y="0px" viewBox="0 0 1920 1080"
	 style="enable-background:new 0 0 1920 1080;" xml:space="preserve">
<style type="text/css">
	.st0{fill:#646363;}
	.st1{fill:#9D9D9C;}
</style>
<g>
	<path class="st0" d="M318.5,176.1h46.8l104,0.1l50,114.5h-53.6L436.5,221H300l-29.7,69.7h-51.9L345.3,0h46.8l-29.7,73.6
		L318.5,176.1z"/>
	<path class="st0" d="M882.9,145.3L1027.2,1h71.7L954.7,145.2l144.4,144.4h-71.7L918.9,181L882.9,145.3L882.9,145.3z M826.3,289.7V1
		H877v288.6h-50.7V289.7z"/>
	<path class="st0" d="M540.3,289.7v-45.3h216.1v45.3H540.3z M540.3,166.8v-45.3h216.1v45.3H540.3z M540.3,46.3V1h216.1v45.3H540.3z"
		/>
	<rect x="1173" y="1" class="st0" width="50.7" height="288.7"/>
	<path class="st0" d="M1668.3,289.7h49.9V84.4l159.2,205.3h42.5V1H1870v199.6L1715.2,1h-46.9L1668.3,289.7L1668.3,289.7z"/>
	<path class="st0" d="M91.7,289.7h51.1V48h91.6V1H0.2v47h91.6L91.7,289.7L91.7,289.7z"/>
	<path class="st1" d="M1436.7,299.3c-6.1,0-12.3,0-18.4,0c-24.9-5.2-47.6-16.6-66.4-32.4l35.4-35.4c14,10.8,30.9,18.1,49.3,20.4
		L1436.7,299.3L1436.7,299.3z M1333.5,248.4c-19.5-23.2-32.2-52.2-35.1-84.1h50.2c2.4,18.2,9.7,34.8,20.4,48.7L1333.5,248.4z"/>
	<path class="st1" d="M1462.8,299.3v-47.4c18.1-2.3,34.6-9.3,48.5-19.8l35.5,35.5c-18.6,15.5-41,26.6-65.5,31.7
		C1475.1,299.3,1469,299.3,1462.8,299.3L1462.8,299.3z M1565.4,249.2l-35.4-35.4c11.1-14,18.5-30.9,21-49.5h50.2
		C1598.2,196.5,1585.2,225.9,1565.4,249.2z"/>
	<path class="st1" d="M1545.2,114.3c-3.6-9.5-8.6-18.2-14.6-26.1l35.4-35.4c14.7,17.4,25.5,38.2,31.2,61
		C1579.7,114,1562.3,114.1,1545.2,114.3z M1512.1,69.7c-14-10.8-30.9-18.1-49.3-20.4V1.9c6.2,0,12.3,0,18.5,0
		c24.9,5.2,47.5,16.6,66.3,32.4C1547.6,34.3,1512.1,69.7,1512.1,69.7z"/>
	<path class="st1" d="M1301.4,117.5c5.3-23.9,16.3-45.7,31.4-64l35.5,35.5c-6.3,8.3-11.4,17.7-14.9,27.7
		C1335.7,117,1318.4,117.2,1301.4,117.5z M1386.6,70.4L1351.2,35c18.9-16.1,41.9-27.7,67.1-33c6.1,0,12.3,0,18.4,0v47.4
		C1417.9,51.7,1400.7,59.2,1386.6,70.4z"/>
</g>
</svg>
