<?xml version="1.0" encoding="UTF-8"?>
<!-- Generator: Adobe Illustrator 24.0.0, SVG Export Plug-In . SVG Version: 6.00 Build 0) -->
<svg xmlns="http://www.w3.org/2000/svg" xmlns:xlink="http://www.w3.org/1999/xlink" id="Layer_1" x="0px" y="0px" viewBox="0 0 400 245" style="enable-background:new 0 0 400 245;" xml:space="preserve"> <style type="text/css"> .st0{fill-rule:evenodd;clip-rule:evenodd;fill:#EC1C24;} .st1{fill-rule:evenodd;clip-rule:evenodd;fill:#3E4142;} .st2{fill:#262727;} .st3{fill:#FF9D00;} .st4{fill:#003245;} .st5{fill:#171E28;} .st6{fill:#28EB9B;} .st7{clip-path:url(#SVGID_5_);} .st8{clip-path:url(#SVGID_6_);} .st9{clip-path:url(#SVGID_9_);} .st10{clip-path:url(#SVGID_10_);} .st11{clip-path:url(#SVGID_13_);} .st12{clip-path:url(#SVGID_14_);} .st13{fill:#424242;} .st14{fill:#EF4423;} .st15{fill:none;stroke:#FFFFFF;stroke-width:7.1319;stroke-linejoin:round;stroke-miterlimit:10;} .st16{fill:#FFFFFF;} </style> <g> <path class="st0" d="M15.9,140.1c18.1-0.1,16-1.1,16,7v29.8l12.8,0l0-30.5c0-4.2-0.8-6.2,3.7-6.2c9.8,0,12.3-1.1,12.3,5.5l0,31.2 c3.4,0.1,9.8,0.3,12.8-0.1c-0.1-9.8,0-19.8,0-29.6c0-3.9,0.6-10.5-1.1-13.6c-1.9-3.6-4.7-4.6-10-4.6c-19.7,0-39.4,0-59.1,0 c-0.4,4.4-0.2,40-0.1,46.9l0,1.1l12.8,0L15.9,140.1L15.9,140.1z"/> <path class="st0" d="M296.3,142l0,26c-5.6,0.1-11.2,0-16.8,0c-4,0-4-0.6-3.9-4.5c0.1-14.9-1.2-12.5,12.6-12.7 C293.3,150.7,293.4,144.9,296.3,142L296.3,142z M296.3,141.7c-3.7-0.2-26.3-0.3-28.4,0.4c-3.8,1.3-5.2,4.2-5.2,9 c0,4.8,0,9.7,0,14.5c0,5.1-0.5,8.7,3.6,10.6c2.3,1.1,24.2,0.6,28.4,0.6c4.1,0,10.5,0.4,14.4,0l0-47.9l-12.7,0L296.3,141.7 L296.3,141.7z"/> <path class="st0" d="M127.7,176.8c0-7.5,0-15.1,0-22.6c0-7.7,0.2-12.5-10-12.5c-7.4,0-14.9,0-22.3,0c-4.4,0-6.8-0.7-8.8,2.4 c-0.8,1.3-4.2,5.7-4.4,6.7c8.4-0.1,16.9,0,25.4,0c5.1,0,7.6-0.5,7.6,5.2c0,4,0.2,8.3,0,12.4l-22.2,0c-0.5-6.4,0.1-5.4,5.8-5.4 c3.4,0,7.9,0.3,11.1-0.1c-0.1-7.1,1.4-7-5.8-7c-25.7,0-22.4-2.3-22.5,15.9c0,5.6,3.1,5.1,8,5.1L127.7,176.8L127.7,176.8z"/> <path class="st0" d="M396.9,176.8c0.1-7.6,0-15.1,0-22.6c0-7.6,0.1-12.5-10-12.5c-7.4,0-14.9,0-22.4,0c-4.5,0-6.6-0.7-8.8,2.4 c-0.8,1.1-4.2,5.9-4.4,6.7c8.5,0,17,0,25.4,0c5.1,0,7.6-0.5,7.5,5.1c0,4,0.1,8.3-0.1,12.4l-22.3,0l0.2-4.7c0.7-1.5,13-0.4,16.9-0.8 c-0.1-7.1,1.4-7-5.8-7c-25.7,0-22.4-2.3-22.5,15.9c0,5.4,2.8,5.1,7.7,5.1C371.1,176.8,384.6,176.6,396.9,176.8L396.9,176.8z"/> <path class="st1" d="M64.2,116.1h27.7c3.6,0,4.2-1.4,5.6-3.6c0.7-1.1,3.3-4.6,3.6-5.6c-8.3,0.2-16.9,0-25.3,0 c-4.8,0-7.6,0.5-7.6-4.9c0-4.2-0.1-8.5,0-12.7l22.2,0c0,4.9,0.5,5.5-2.7,5.5l-14.1,0l-0.1,3.9c0,4.2,1.9,3.2,5.8,3.2 c3.1,0,6.3,0,9.4,0c6,0,12.9,1.5,12.9-5.5c0-15.2,1.4-15.6-8.1-15.6l-38,0c0,7.2,0,14.5,0,21.7C55.7,108.2,54.6,116.1,64.2,116.1 L64.2,116.1z"/> <path class="st0" d="M148.6,150.7c3.5,0.3,7.7,0,11.3,0c3.7,0,7.8-0.6,8.2,3.4c0.3,2.8,0,18.2,0,22.6l12.8-0.1 c-0.1-6.4,0-12.9,0-19.2c0-6.5,1.1-12.2-4-14.9c-3-1.6-14-0.9-18.2-0.9c-4.8,0-4.2,0.6-6.2,3.5 C151.2,146.8,149.6,148.9,148.6,150.7c-0.3-1.8-0.1-18.7-0.1-21.9h-12.8l0,47.9h12.8L148.6,150.7L148.6,150.7z"/> <path class="st0" d="M223.4,150.8c3.7,0,7.5,0,11.2,0c3.8,0,6.9-0.3,7,3.9c0.3,7.2,0.1,14.9,0,22.1l12.8,0c0-6.6,0-13.2,0-19.9 c0-7,1-12.6-5-14.8c-2-0.7-34.7-0.7-38.9-0.4l0,35.1l12.9,0V150.8L223.4,150.8z"/> <path class="st1" d="M3.2,79.1l17.2,0l0,36.8c1.6,0.4,10.5,0.2,12.8,0.1l0-36.9h17.2l0.1-11l-47.2,0L3.2,79.1L3.2,79.1z"/> <path class="st1" d="M149.2,116l0-8.8c-1.5-0.3-17.1-0.1-20-0.1c-8.5,0-7.3-0.5-7.3-12.9c0-3.8,1.1-4.9,5-4.9c3.4,0,6.8,0,10.2,0 c8,0,8.8,1.6,11.9-8.3c-9.4-0.3-19.2,0-28.7,0c-12.9,0-11.1,5.4-11.1,17.6c0,12.3-1.8,17.5,11.1,17.5 C124.7,116.1,146.9,116.3,149.2,116L149.2,116z"/> <path class="st0" d="M330.5,176.7c0-4.7,0-9.5,0-14.2c0-5-1-10.7,2.5-11.6c3.6-1,10.2,1,12.9-1.1c0.8-0.6,5.5-7.2,5.9-8.2h-25.9 c-8,0-8.2,1.9-8.2,9.2l0,25.9L330.5,176.7L330.5,176.7z"/> <polygon class="st1" points="157,116 169.7,116.1 169.7,68.1 157.1,68.1 157,116 "/> <path class="st1" d="M169.8,90c3.5,0.3,7.9,0.1,11.5,0.1c9.9,0,8.2,0,8.2,14.6c0,3.8,0,7.6,0,11.4l12.7,0.1c0.1-6.3,0-12.7,0-19.1 c0-6.4,1.2-12.4-3.9-15.2c-3.1-1.7-13.9-0.9-18.2-0.9c-5.1,0-4.5,0.5-9.2,7.4L169.8,90L169.8,90z"/> <path class="st0" d="M202.1,142.1c-1.3,0.6-2.5,1.5-3.9,2.3c-4.5,2.7-8.7,4.4-8.9,8.7c-0.4,7.6,0,16,0,23.7h12.8L202.1,142.1 L202.1,142.1z"/> <path class="st0" d="M189.3,146c0.5-0.2,11.6-7.3,12.7-8.4l0.1-8.8l-12.7,0L189.3,146L189.3,146z"/> </g> </svg>