<?xml version="1.0" encoding="utf-8"?>
<!-- Generator: Adobe Illustrator 23.0.2, SVG Export Plug-In . SVG Version: 6.00 Build 0)  -->
<svg version="1.1" id="Layer_1" xmlns="http://www.w3.org/2000/svg" xmlns:xlink="http://www.w3.org/1999/xlink" x="0px" y="0px"
	 viewBox="0 0 400 245" style="enable-background:new 0 0 400 245;" xml:space="preserve">
<style type="text/css">
	.st0{fill:#F16522;}
	.st1{fill:#004975;}
	.st2{fill:#592C82;}
	.st3{fill:#FFD100;}
	.st4{fill:#636569;}
	.st5{fill:url(#SVGID_1_);}
	.st6{fill:#FF574D;}
	.st7{fill:#D70C18;}
	.st8{fill-rule:evenodd;clip-rule:evenodd;fill:#3F3F3F;}
	.st9{fill-rule:evenodd;clip-rule:evenodd;fill:#FF4080;}
	.st10{fill:#F89D20;}
	.st11{fill:#2F347C;}
	.st12{opacity:0.6;}
	.st13{fill:url(#path2_fill_2_);}
	.st14{opacity:0.2;}
	.st15{fill:url(#path3_fill_2_);}
	.st16{opacity:0.8;}
	.st17{fill:url(#path4_fill_2_);}
	.st18{fill:url(#path5_fill_2_);}
	.st19{fill:url(#path2_fill_3_);}
	.st20{fill:url(#path3_fill_3_);}
	.st21{fill:url(#path4_fill_3_);}
	.st22{fill:url(#path5_fill_3_);}
	.st23{fill-rule:evenodd;clip-rule:evenodd;fill:#1D6734;}
	.st24{fill-rule:evenodd;clip-rule:evenodd;fill:#2A9646;}
	.st25{filter:url(#Adobe_OpacityMaskFilter);}
	.st26{filter:url(#Adobe_OpacityMaskFilter_1_);}
	.st27{mask:url(#SVGID_2_);fill-rule:evenodd;clip-rule:evenodd;fill:url(#SVGID_3_);}
	.st28{filter:url(#Adobe_OpacityMaskFilter_2_);}
	.st29{filter:url(#Adobe_OpacityMaskFilter_3_);}
	.st30{mask:url(#SVGID_4_);fill-rule:evenodd;clip-rule:evenodd;fill:url(#SVGID_5_);}
	.st31{fill-rule:evenodd;clip-rule:evenodd;fill:url(#SVGID_6_);}
	.st32{filter:url(#Adobe_OpacityMaskFilter_4_);}
	.st33{filter:url(#Adobe_OpacityMaskFilter_5_);}
	.st34{mask:url(#SVGID_7_);fill-rule:evenodd;clip-rule:evenodd;fill:url(#SVGID_8_);}
	.st35{filter:url(#Adobe_OpacityMaskFilter_6_);}
	.st36{filter:url(#Adobe_OpacityMaskFilter_7_);}
	.st37{mask:url(#SVGID_9_);fill-rule:evenodd;clip-rule:evenodd;fill:url(#SVGID_10_);}
	.st38{fill-rule:evenodd;clip-rule:evenodd;fill:url(#SVGID_11_);}
	.st39{fill:#231F20;}
	.st40{fill:#EB2027;}
	.st41{fill:none;stroke:#9DA3AD;stroke-width:0.0694;}
	.st42{fill:none;stroke:#9EA4AE;stroke-width:0.0694;}
	.st43{fill:none;stroke:#9FA5AF;stroke-width:0.0694;}
	.st44{fill:none;stroke:#A0A6AF;stroke-width:0.0694;}
	.st45{fill:none;stroke:#A1A7B0;stroke-width:0.0694;}
	.st46{fill:none;stroke:#A2A7B1;stroke-width:0.0694;}
	.st47{fill:none;stroke:#A3A8B2;stroke-width:0.0694;}
	.st48{fill:none;stroke:#A4A9B2;stroke-width:0.0694;}
	.st49{fill:none;stroke:#A5AAB3;stroke-width:0.0694;}
	.st50{fill:none;stroke:#A6ABB4;stroke-width:0.0694;}
	.st51{fill:none;stroke:#A7ACB5;stroke-width:0.0694;}
	.st52{fill:none;stroke:#A8ADB6;stroke-width:0.0694;}
	.st53{fill:none;stroke:#A9AEB6;stroke-width:0.0694;}
	.st54{fill:none;stroke:#AAAFB7;stroke-width:0.0694;}
	.st55{fill:none;stroke:#ABAFB8;stroke-width:0.0694;}
	.st56{fill:none;stroke:#ACB0B9;stroke-width:0.0694;}
	.st57{fill:none;stroke:#ADB1B9;stroke-width:0.0694;}
	.st58{fill:none;stroke:#AEB2BA;stroke-width:0.0694;}
	.st59{fill:none;stroke:#AFB3BB;stroke-width:0.0694;}
	.st60{fill:none;stroke:#B0B4BC;stroke-width:0.0694;}
	.st61{fill:none;stroke:#B1B5BC;stroke-width:0.0694;}
	.st62{fill:none;stroke:#B2B6BD;stroke-width:0.0694;}
	.st63{fill:none;stroke:#B3B6BE;stroke-width:0.0694;}
	.st64{fill:none;stroke:#B3B7BF;stroke-width:0.0694;}
	.st65{fill:none;stroke:#B4B8C0;stroke-width:0.0694;}
	.st66{fill:none;stroke:#B5B9C0;stroke-width:0.0694;}
	.st67{fill:none;stroke:#B6BAC1;stroke-width:0.0694;}
	.st68{fill:none;stroke:#B7BBC2;stroke-width:0.0694;}
	.st69{fill:none;stroke:#B8BCC3;stroke-width:0.0694;}
	.st70{fill:none;stroke:#B9BDC3;stroke-width:0.0694;}
	.st71{fill:none;stroke:#BABEC4;stroke-width:0.0694;}
	.st72{fill:none;stroke:#BBBEC5;stroke-width:0.0694;}
	.st73{fill:none;stroke:#BCBFC6;stroke-width:0.0694;}
	.st74{fill:none;stroke:#BDC0C6;stroke-width:0.0694;}
	.st75{fill:none;stroke:#BEC1C7;stroke-width:0.0694;}
	.st76{fill:none;stroke:#BFC2C8;stroke-width:0.0694;}
	.st77{fill:none;stroke:#C0C3C9;stroke-width:0.0694;}
	.st78{fill:none;stroke:#C1C4CA;stroke-width:0.0694;}
	.st79{fill:none;stroke:#C2C5CA;stroke-width:0.0694;}
	.st80{fill:none;stroke:#C3C6CB;stroke-width:0.0694;}
	.st81{fill:none;stroke:#C4C6CC;stroke-width:0.0694;}
	.st82{fill:none;stroke:#C5C7CD;stroke-width:0.0694;}
	.st83{fill:none;stroke:#C6C8CD;stroke-width:0.0694;}
	.st84{fill:none;stroke:#C7C9CE;stroke-width:0.0694;}
	.st85{fill:none;stroke:#C8CACF;stroke-width:0.0694;}
	.st86{fill:url(#SVGID_12_);}
	.st87{fill:none;}
	.st88{fill:#FFFFFF;}
	.st89{fill:#B01117;}
	.st90{fill:#B11117;}
	.st91{fill:#B21117;}
	.st92{fill:#B31218;}
	.st93{fill:#B41218;}
	.st94{fill:#B51218;}
	.st95{fill:#B61218;}
	.st96{fill:#B71218;}
	.st97{fill:#B81219;}
	.st98{fill:#B91319;}
	.st99{fill:#BA1319;}
	.st100{fill:#BB1319;}
	.st101{fill:#BC131A;}
	.st102{fill:#BD131A;}
	.st103{fill:#BE141A;}
	.st104{fill:#BF141A;}
	.st105{fill:#C0141A;}
	.st106{fill:#C1141B;}
	.st107{fill:#C2141B;}
	.st108{fill:#C3151B;}
	.st109{fill:#C4151B;}
	.st110{fill:#C5151B;}
	.st111{fill:#C6151C;}
	.st112{fill:#C7151C;}
	.st113{fill:#C8151C;}
	.st114{fill:#C9161C;}
	.st115{fill:#CA161D;}
	.st116{fill:#CB161D;}
	.st117{fill:#CC161D;}
	.st118{fill:#CD161D;}
	.st119{fill:#CE171D;}
	.st120{fill:#CF171E;}
	.st121{fill:#D0171E;}
	.st122{fill:#D1171E;}
	.st123{fill:#D2171E;}
	.st124{fill:#D3171E;}
	.st125{fill:#D4181F;}
	.st126{fill:#D5181F;}
	.st127{fill:#D6181F;}
	.st128{fill:#D7181F;}
	.st129{fill:#D81820;}
	.st130{fill:#D91920;}
	.st131{fill:#DA1920;}
	.st132{fill:#DB1920;}
	.st133{fill:#DC1921;}
	.st134{fill:#DD1921;}
	.st135{fill:#DE1A21;}
	.st136{fill:#DF1A21;}
	.st137{fill:#E01A21;}
	.st138{fill:#E11A22;}
	.st139{fill:#E21A22;}
	.st140{fill:#E31B22;}
	.st141{fill:#E41B22;}
	.st142{fill:#E51B23;}
	.st143{fill:#E61B23;}
	.st144{fill:#E71B23;}
	.st145{fill:#E81C23;}
	.st146{fill:#E91C23;}
	.st147{fill:#EA1C24;}
	.st148{fill:#EB1C24;}
	.st149{fill:#EC1C24;}
	.st150{fill:#ED1C24;}
	.st151{fill:none;stroke:#FFFFFF;stroke-width:0.0138;stroke-linecap:round;}
	.st152{fill:none;stroke:#FEFEFE;stroke-width:0.0138;stroke-linecap:round;stroke-linejoin:round;}
	.st153{fill:none;stroke:#FDFDFD;stroke-width:0.0138;stroke-linecap:round;stroke-linejoin:round;}
	.st154{fill:none;stroke:#FCFCFD;stroke-width:0.0138;stroke-linecap:round;stroke-linejoin:round;}
	.st155{fill:none;stroke:#FBFCFC;stroke-width:0.0138;stroke-linecap:round;stroke-linejoin:round;}
	.st156{fill:none;stroke:#FAFBFB;stroke-width:0.0138;stroke-linecap:round;stroke-linejoin:round;}
	.st157{fill:none;stroke:#F9FAFA;stroke-width:0.0138;stroke-linecap:round;stroke-linejoin:round;}
	.st158{fill:none;stroke:#F8F9F9;stroke-width:0.0138;stroke-linecap:round;stroke-linejoin:round;}
	.st159{fill:none;stroke:#F7F8F9;stroke-width:0.0138;stroke-linecap:round;stroke-linejoin:round;}
	.st160{fill:none;stroke:#F6F7F8;stroke-width:0.0138;stroke-linecap:round;stroke-linejoin:round;}
	.st161{fill:none;stroke:#F5F6F7;stroke-width:0.0138;stroke-linecap:round;stroke-linejoin:round;}
	.st162{fill:none;stroke:#F4F5F6;stroke-width:0.0138;stroke-linecap:round;stroke-linejoin:round;}
	.st163{fill:none;stroke:#F3F5F6;stroke-width:0.0138;stroke-linecap:round;stroke-linejoin:round;}
	.st164{fill:none;stroke:#F2F4F5;stroke-width:0.0138;stroke-linecap:round;stroke-linejoin:round;}
	.st165{fill:none;stroke:#F1F3F4;stroke-width:0.0138;stroke-linecap:round;stroke-linejoin:round;}
	.st166{fill:none;stroke:#F0F2F3;stroke-width:0.0138;stroke-linecap:round;stroke-linejoin:round;}
	.st167{fill:none;stroke:#EFF1F2;stroke-width:0.0138;stroke-linecap:round;stroke-linejoin:round;}
	.st168{fill:none;stroke:#EEF0F2;stroke-width:0.0138;stroke-linecap:round;stroke-linejoin:round;}
	.st169{fill:none;stroke:#EDEFF1;stroke-width:0.0138;stroke-linecap:round;stroke-linejoin:round;}
	.st170{fill:none;stroke:#ECEEF0;stroke-width:0.0138;stroke-linecap:round;stroke-linejoin:round;}
	.st171{fill:none;stroke:#EBEEEF;stroke-width:0.0138;stroke-linecap:round;stroke-linejoin:round;}
	.st172{fill:none;stroke:#EAEDEE;stroke-width:0.0138;stroke-linecap:round;stroke-linejoin:round;}
	.st173{fill:none;stroke:#E9ECEE;stroke-width:0.0138;stroke-linecap:round;stroke-linejoin:round;}
	.st174{fill:none;stroke:#E8EBED;stroke-width:0.0138;stroke-linecap:round;stroke-linejoin:round;}
	.st175{fill:none;stroke:#E7EAEC;stroke-width:0.0138;stroke-linecap:round;stroke-linejoin:round;}
	.st176{fill:none;stroke:#E6E9EB;stroke-width:0.0138;stroke-linecap:round;stroke-linejoin:round;}
	.st177{fill:none;stroke:#E5E8EB;stroke-width:0.0138;stroke-linecap:round;stroke-linejoin:round;}
	.st178{fill:none;stroke:#E4E7EA;stroke-width:0.0138;stroke-linecap:round;stroke-linejoin:round;}
	.st179{fill:none;stroke:#E3E7E9;stroke-width:0.0138;stroke-linecap:round;stroke-linejoin:round;}
	.st180{fill:none;stroke:#E2E6E8;stroke-width:0.0138;stroke-linecap:round;stroke-linejoin:round;}
	.st181{fill:none;stroke:#E1E5E7;stroke-width:0.0138;stroke-linecap:round;stroke-linejoin:round;}
	.st182{fill:none;stroke:#E0E4E7;stroke-width:0.0138;stroke-linecap:round;stroke-linejoin:round;}
	.st183{fill:none;stroke:#DFE3E6;stroke-width:0.0138;stroke-linecap:round;stroke-linejoin:round;}
	.st184{fill:none;stroke:#DEE2E5;stroke-width:0.0138;stroke-linecap:round;stroke-linejoin:round;}
	.st185{fill:none;stroke:#DDE1E4;stroke-width:0.0138;stroke-linecap:round;stroke-linejoin:round;}
	.st186{fill:none;stroke:#DCE0E3;stroke-width:0.0138;stroke-linecap:round;stroke-linejoin:round;}
	.st187{fill:none;stroke:#DBE0E3;stroke-width:0.0138;stroke-linecap:round;stroke-linejoin:round;}
	.st188{fill:none;stroke:#DADFE2;stroke-width:0.0138;stroke-linecap:round;stroke-linejoin:round;}
	.st189{fill:none;stroke:#D9DEE1;stroke-width:0.0138;stroke-linecap:round;stroke-linejoin:round;}
	.st190{fill:none;stroke:#D8DDE0;stroke-width:0.0138;stroke-linecap:round;stroke-linejoin:round;}
	.st191{fill:none;stroke:#D7DCDF;stroke-width:0.0138;stroke-linecap:round;stroke-linejoin:round;}
	.st192{fill:none;stroke:#D6DBDF;stroke-width:0.0138;stroke-linecap:round;stroke-linejoin:round;}
	.st193{fill:none;stroke:#D5DADE;stroke-width:0.0138;stroke-linecap:round;stroke-linejoin:round;}
	.st194{fill:none;stroke:#D4D9DD;stroke-width:0.0138;stroke-linecap:round;stroke-linejoin:round;}
	.st195{fill:none;stroke:#D3D9DC;stroke-width:0.0138;stroke-linecap:round;stroke-linejoin:round;}
	.st196{fill:none;stroke:#D2D8DC;stroke-width:0.0138;stroke-linecap:round;stroke-linejoin:round;}
	.st197{fill:none;stroke:#D1D7DB;stroke-width:0.0138;stroke-linecap:round;stroke-linejoin:round;}
	.st198{fill:none;stroke:#D0D6DA;stroke-width:0.0138;stroke-linecap:round;stroke-linejoin:round;}
	.st199{fill:none;stroke:#CFD5D9;stroke-width:0.0138;stroke-linecap:round;stroke-linejoin:round;}
	.st200{fill:none;stroke:#CED4D8;stroke-width:0.0138;stroke-linecap:round;stroke-linejoin:round;}
	.st201{fill:none;stroke:#CDD3D8;stroke-width:0.0138;stroke-linecap:round;stroke-linejoin:round;}
	.st202{fill:none;stroke:#CCD2D7;stroke-width:0.0138;stroke-linecap:round;stroke-linejoin:round;}
	.st203{fill:none;stroke:#CBD2D6;stroke-width:0.0138;stroke-linecap:round;stroke-linejoin:round;}
	.st204{fill:none;stroke:#CAD1D5;stroke-width:0.0138;stroke-linecap:round;stroke-linejoin:round;}
	.st205{fill:none;stroke:#C9D0D4;stroke-width:0.0138;stroke-linecap:round;stroke-linejoin:round;}
	.st206{fill:none;stroke:#C8CFD4;stroke-width:0.0138;stroke-linecap:round;stroke-linejoin:round;}
	.st207{fill:none;stroke:#C7CED3;stroke-width:0.0138;stroke-linecap:round;stroke-linejoin:round;}
	.st208{fill:none;stroke:#C6CDD2;stroke-width:0.0138;stroke-linecap:round;stroke-linejoin:round;}
	.st209{fill:none;stroke:#C5CCD1;stroke-width:0.0138;stroke-linecap:round;stroke-linejoin:round;}
	.st210{fill:none;stroke:#C4CCD1;stroke-width:0.0138;stroke-linecap:round;stroke-linejoin:round;}
	.st211{fill:none;stroke:#C3CBD0;stroke-width:0.0138;stroke-linecap:round;stroke-linejoin:round;}
	.st212{fill:none;stroke:#C2CACF;stroke-width:0.0138;stroke-linecap:round;stroke-linejoin:round;}
	.st213{fill:none;stroke:#C1C9CE;stroke-width:0.0138;stroke-linecap:round;stroke-linejoin:round;}
	.st214{fill:none;stroke:#C0C8CD;stroke-width:0.0138;stroke-linecap:round;stroke-linejoin:round;}
	.st215{fill:none;stroke:#BFC7CD;stroke-width:0.0138;stroke-linecap:round;stroke-linejoin:round;}
	.st216{fill:none;stroke:#BEC6CC;stroke-width:0.0138;stroke-linecap:round;stroke-linejoin:round;}
	.st217{fill:none;stroke:#BDC5CB;stroke-width:0.0138;stroke-linecap:round;stroke-linejoin:round;}
	.st218{fill:none;stroke:#BCC5CA;stroke-width:0.0138;stroke-linecap:round;stroke-linejoin:round;}
	.st219{fill:none;stroke:#BBC4C9;stroke-width:0.0138;stroke-linecap:round;stroke-linejoin:round;}
	.st220{fill:none;stroke:#BAC3C9;stroke-width:0.0138;stroke-linecap:round;stroke-linejoin:round;}
	.st221{fill:none;stroke:#B9C2C8;stroke-width:0.0138;stroke-linecap:round;stroke-linejoin:round;}
	.st222{fill:none;stroke:#B8C1C7;stroke-width:0.0138;stroke-linecap:round;stroke-linejoin:round;}
	.st223{fill:none;stroke:#B7C0C6;stroke-width:0.0138;stroke-linecap:round;stroke-linejoin:round;}
	.st224{fill:none;stroke:#B6BFC5;stroke-width:0.0138;stroke-linecap:round;stroke-linejoin:round;}
	.st225{fill:none;stroke:#B5BEC5;stroke-width:0.0138;stroke-linecap:round;stroke-linejoin:round;}
	.st226{fill:none;stroke:#B4BEC4;stroke-width:0.0138;stroke-linecap:round;stroke-linejoin:round;}
	.st227{fill:none;stroke:#B3BDC3;stroke-width:0.0138;stroke-linecap:round;stroke-linejoin:round;}
	.st228{fill:none;stroke:#B2BCC2;stroke-width:0.0138;stroke-linecap:round;stroke-linejoin:round;}
	.st229{fill:none;stroke:#B1BBC2;stroke-width:0.0138;stroke-linecap:round;stroke-linejoin:round;}
	.st230{fill:none;stroke:#B0BAC1;stroke-width:0.0138;stroke-linecap:round;stroke-linejoin:round;}
	.st231{fill:none;stroke:#AFB9C0;stroke-width:0.0138;stroke-linecap:round;stroke-linejoin:round;}
	.st232{fill:none;stroke:#AEB8BF;stroke-width:0.0138;stroke-linecap:round;stroke-linejoin:round;}
	.st233{fill:none;stroke:#ADB7BE;stroke-width:0.0138;stroke-linecap:round;stroke-linejoin:round;}
	.st234{fill:none;stroke:#ACB7BE;stroke-width:0.0138;stroke-linecap:round;stroke-linejoin:round;}
	.st235{fill:none;stroke:#ABB6BD;stroke-width:0.0138;stroke-linecap:round;stroke-linejoin:round;}
	.st236{fill:none;stroke:#AAB5BC;stroke-width:0.0138;stroke-linecap:round;stroke-linejoin:round;}
	.st237{fill:none;stroke:#A9B4BB;stroke-width:0.0138;stroke-linecap:round;stroke-linejoin:round;}
	.st238{fill:none;stroke:#A8B3BA;stroke-width:0.0138;stroke-linecap:round;stroke-linejoin:round;}
	.st239{fill:none;stroke:#A7B2BA;stroke-width:0.0138;stroke-linecap:round;stroke-linejoin:round;}
	.st240{fill:none;stroke:#A6B1B9;stroke-width:0.0138;stroke-linecap:round;stroke-linejoin:round;}
	.st241{fill:none;stroke:#A5B0B8;stroke-width:0.0138;stroke-linecap:round;stroke-linejoin:round;}
	.st242{fill:none;stroke:#A4B0B7;stroke-width:0.0138;stroke-linecap:round;stroke-linejoin:round;}
	.st243{fill:none;stroke:#A3AFB7;stroke-width:0.0138;stroke-linecap:round;stroke-linejoin:round;}
	.st244{fill:none;stroke:#A2AEB6;stroke-width:0.0138;stroke-linecap:round;stroke-linejoin:round;}
	.st245{fill:none;stroke:#A1ADB5;stroke-width:0.0138;stroke-linecap:round;stroke-linejoin:round;}
	.st246{fill:none;stroke:#A0ACB4;stroke-width:0.0138;stroke-linecap:round;stroke-linejoin:round;}
	.st247{fill:none;stroke:#9FABB3;stroke-width:0.0138;stroke-linecap:round;stroke-linejoin:round;}
	.st248{fill:none;stroke:#9EAAB3;stroke-width:0.0138;stroke-linecap:round;stroke-linejoin:round;}
	.st249{fill:none;stroke:#9DA9B2;stroke-width:0.0138;stroke-linecap:round;stroke-linejoin:round;}
	.st250{fill:none;stroke:#9CA9B1;stroke-width:0.0138;stroke-linecap:round;stroke-linejoin:round;}
	.st251{fill:none;stroke:#9BA8B0;stroke-width:0.0138;stroke-linecap:round;stroke-linejoin:round;}
	.st252{fill:none;stroke:#9AA7AF;stroke-width:0.0138;stroke-linecap:round;stroke-linejoin:round;}
	.st253{fill:none;stroke:#99A6AF;stroke-width:0.0138;stroke-linecap:round;stroke-linejoin:round;}
	.st254{fill:none;stroke:#98A5AE;stroke-width:0.0138;stroke-linecap:round;stroke-linejoin:round;}
	.st255{fill:none;stroke:#97A4AD;stroke-width:0.0138;stroke-linecap:round;stroke-linejoin:round;}
	.st256{fill:none;stroke:#96A3AC;stroke-width:0.0138;stroke-linecap:round;stroke-linejoin:round;}
	.st257{fill:none;stroke:#95A2AB;stroke-width:0.0138;stroke-linecap:round;stroke-linejoin:round;}
	.st258{fill:none;stroke:#94A2AB;stroke-width:0.0138;stroke-linecap:round;stroke-linejoin:round;}
	.st259{fill:none;stroke:#93A1AA;stroke-width:0.0138;stroke-linecap:round;stroke-linejoin:round;}
	.st260{fill:none;stroke:#92A0A9;stroke-width:0.0138;stroke-linecap:round;stroke-linejoin:round;}
	.st261{fill:none;stroke:#919FA8;stroke-width:0.0138;stroke-linecap:round;stroke-linejoin:round;}
	.st262{fill:none;stroke:#909EA8;stroke-width:0.0138;stroke-linecap:round;stroke-linejoin:round;}
	.st263{fill:none;stroke:#8F9DA7;stroke-width:0.0138;stroke-linecap:round;stroke-linejoin:round;}
	.st264{fill:none;stroke:#8E9CA6;stroke-width:0.0138;stroke-linecap:round;stroke-linejoin:round;}
	.st265{fill:none;stroke:#8D9CA5;stroke-width:0.0138;stroke-linecap:round;stroke-linejoin:round;}
	.st266{fill:none;stroke:#8C9BA4;stroke-width:0.0138;stroke-linecap:round;stroke-linejoin:round;}
	.st267{fill:none;stroke:#8B9AA4;stroke-width:0.0138;stroke-linecap:round;stroke-linejoin:round;}
	.st268{fill:none;stroke:#8A99A3;stroke-width:0.0138;stroke-linecap:round;stroke-linejoin:round;}
	.st269{fill:none;stroke:#8998A2;stroke-width:0.0138;stroke-linecap:round;stroke-linejoin:round;}
	.st270{fill:none;stroke:#8897A1;stroke-width:0.0138;stroke-linecap:round;stroke-linejoin:round;}
	.st271{fill:none;stroke:#8796A0;stroke-width:0.0138;stroke-linecap:round;stroke-linejoin:round;}
	.st272{fill:none;stroke:#8695A0;stroke-width:0.0138;stroke-linecap:round;stroke-linejoin:round;}
	.st273{fill:none;stroke:#85959F;stroke-width:0.0138;stroke-linecap:round;stroke-linejoin:round;}
	.st274{fill:none;stroke:#84949E;stroke-width:0.0138;stroke-linecap:round;stroke-linejoin:round;}
	.st275{fill:none;stroke:#83939D;stroke-width:0.0138;stroke-linecap:round;stroke-linejoin:round;}
	.st276{fill:none;stroke:#82929D;stroke-width:0.0138;stroke-linecap:round;stroke-linejoin:round;}
	.st277{fill:none;stroke:#81919C;stroke-width:0.0138;stroke-linecap:round;stroke-linejoin:round;}
	.st278{fill:none;stroke:#80909B;stroke-width:0.0138;stroke-linecap:round;stroke-linejoin:round;}
	.st279{fill:none;stroke:#7F8F9A;stroke-width:0.0138;stroke-linecap:round;stroke-linejoin:round;}
	.st280{fill:none;stroke:#7E8E99;stroke-width:0.0138;stroke-linecap:round;stroke-linejoin:round;}
	.st281{fill:none;stroke:#7D8E99;stroke-width:0.0138;stroke-linecap:round;stroke-linejoin:round;}
	.st282{fill:none;stroke:#7C8D98;stroke-width:0.0138;stroke-linecap:round;stroke-linejoin:round;}
	.st283{fill:none;stroke:#7B8C97;stroke-width:0.0138;stroke-linecap:round;stroke-linejoin:round;}
	.st284{fill:none;stroke:#7A8B96;stroke-width:0.0138;stroke-linecap:round;stroke-linejoin:round;}
	.st285{fill:none;stroke:#798A95;stroke-width:0.0138;stroke-linecap:round;stroke-linejoin:round;}
	.st286{fill:none;stroke:#788995;stroke-width:0.0138;stroke-linecap:round;stroke-linejoin:round;}
	.st287{fill:none;stroke:#778894;stroke-width:0.0138;stroke-linecap:round;stroke-linejoin:round;}
	.st288{fill:none;stroke:#768793;stroke-width:0.0138;stroke-linecap:round;stroke-linejoin:round;}
	.st289{fill:none;stroke:#758792;stroke-width:0.0138;stroke-linecap:round;stroke-linejoin:round;}
	.st290{fill:none;stroke:#748691;stroke-width:0.0138;stroke-linecap:round;stroke-linejoin:round;}
	.st291{fill:none;stroke:#738591;stroke-width:0.0138;stroke-linecap:round;stroke-linejoin:round;}
	.st292{fill:none;stroke:#728490;stroke-width:0.0138;stroke-linecap:round;stroke-linejoin:round;}
	.st293{fill:none;stroke:#71838F;stroke-width:0.0138;stroke-linecap:round;stroke-linejoin:round;}
	.st294{fill:none;stroke:#70828E;stroke-width:0.0138;stroke-linecap:round;stroke-linejoin:round;}
	.st295{fill:none;stroke:#6F818E;stroke-width:0.0138;stroke-linecap:round;stroke-linejoin:round;}
	.st296{fill:none;stroke:#6E808D;stroke-width:0.0138;stroke-linecap:round;stroke-linejoin:round;}
	.st297{fill:none;stroke:#6D808C;stroke-width:0.0138;stroke-linecap:round;stroke-linejoin:round;}
	.st298{fill:none;stroke:#6C7F8B;stroke-width:0.0138;stroke-linecap:round;stroke-linejoin:round;}
	.st299{fill:none;stroke:#6B7E8A;stroke-width:0.0138;stroke-linecap:round;stroke-linejoin:round;}
	.st300{fill:none;stroke:#6A7D8A;stroke-width:0.0138;stroke-linecap:round;stroke-linejoin:round;}
	.st301{fill:none;stroke:#697C89;stroke-width:0.0138;stroke-linecap:round;stroke-linejoin:round;}
	.st302{fill:none;stroke:#687B88;stroke-width:0.0138;stroke-linecap:round;stroke-linejoin:round;}
	.st303{fill:none;stroke:#677A87;stroke-width:0.0138;stroke-linecap:round;stroke-linejoin:round;}
	.st304{fill:none;stroke:#667986;stroke-width:0.0138;stroke-linecap:round;stroke-linejoin:round;}
	.st305{fill:none;stroke:#657986;stroke-width:0.0138;stroke-linecap:round;stroke-linejoin:round;}
	.st306{fill:none;stroke:#647885;stroke-width:0.0138;stroke-linecap:round;stroke-linejoin:round;}
	.st307{fill:none;stroke:#637784;stroke-width:0.0138;stroke-linecap:round;stroke-linejoin:round;}
	.st308{fill:none;stroke:#627683;stroke-width:0.0138;stroke-linecap:round;stroke-linejoin:round;}
	.st309{fill:none;stroke:#617583;stroke-width:0.0138;stroke-linecap:round;stroke-linejoin:round;}
	.st310{fill:none;stroke:#607482;stroke-width:0.0138;stroke-linecap:round;stroke-linejoin:round;}
	.st311{fill:none;stroke:#5F7381;stroke-width:0.0138;stroke-linecap:round;stroke-linejoin:round;}
	.st312{fill:none;stroke:#5E7280;stroke-width:0.0138;stroke-linecap:round;stroke-linejoin:round;}
	.st313{fill:none;stroke:#5D727F;stroke-width:0.0138;stroke-linecap:round;stroke-linejoin:round;}
	.st314{fill:none;stroke:#5C717F;stroke-width:0.0138;stroke-linecap:round;stroke-linejoin:round;}
	.st315{fill:none;stroke:#5B707E;stroke-width:0.0138;stroke-linecap:round;stroke-linejoin:round;}
	.st316{fill:none;stroke:#5A6F7D;stroke-width:0.0138;stroke-linecap:round;stroke-linejoin:round;}
	.st317{fill:#34DAA6;}
	.st318{fill:#878E9C;}
	.st319{fill:#0C69AA;}
	.st320{fill:#41BBEC;}
	.st321{fill:#296BA2;}
	.st322{fill:#32B3E2;}
</style>
<g id="Wortmarke">
	<path class="st6" d="M214.95,0.86v123.14h15.37V80.36h0.33l22.8,43.65h16.1L246.2,79.23l20.65-36.97h-15.87l-20.32,34.99h-0.33
		V0.86H214.95z M82.68,0.86v123.14h15.51V65.94l0.03-0.77v-0.81l0.07-0.73l0.08-0.74l0.08-0.7l0.1-0.66l0.11-0.66l0.15-0.63
		l0.14-0.59l0.18-0.58l0.22-0.55l0.23-0.51l0.21-0.48l0.26-0.48l0.26-0.44l0.3-0.45l0.33-0.36l0.33-0.4l0.33-0.33l0.4-0.32l0.36-0.3
		l0.4-0.25l0.45-0.22l0.44-0.22l0.47-0.18l0.48-0.19l0.51-0.14l0.51-0.11l0.51-0.07l0.58-0.07l0.58-0.04h0.59h0.59l0.55,0.04
		l0.55,0.04l0.52,0.1l0.52,0.07l0.47,0.15l0.48,0.15l0.44,0.18l0.43,0.18l0.41,0.22l0.4,0.22l0.4,0.3l0.33,0.25l0.37,0.33l0.33,0.33
		l0.3,0.36l0.29,0.37l0.26,0.41l0.26,0.4l0.21,0.48l0.23,0.44l0.18,0.51L116.6,59l0.15,0.52l0.14,0.59L117,60.7l0.1,0.58l0.08,0.63
		l0.07,0.66l0.03,0.65l0.03,0.7v0.73v59.35h15.07V59.85l-0.04-1.14l-0.03-1.14l-0.08-1.06l-0.14-1.07l-0.15-0.99l-0.18-0.98
		l-0.22-0.92l-0.26-0.91l-0.29-0.85l-0.33-0.85l-0.34-0.77l-0.4-0.78l-0.44-0.69l-0.44-0.7l-0.48-0.62l-0.55-0.62l-0.55-0.55
		l-0.58-0.54l-0.63-0.48l-0.65-0.48l-0.7-0.4l-0.74-0.41l-0.77-0.33l-0.8-0.32l-0.84-0.26l-0.84-0.25l-0.92-0.19l-0.92-0.17
		l-0.99-0.11l-1-0.11l-1.02-0.07h-1.06l-1.1,0.03l-1.1,0.08l-1.1,0.18l-1.1,0.21l-1.06,0.26l-1.07,0.37l-1.06,0.4l-1.06,0.48
		l-1.03,0.51l-1.06,0.62l-1.03,0.67l-1.02,0.69l-1.02,0.81l-1,0.85l-0.98,0.91l-1.03,0.96V0.86H82.68z M146.96,8.9h-0.44l-0.4,0.04
		l-0.4,0.07l-0.4,0.04l-0.4,0.11l-0.41,0.12l-0.36,0.1l-0.37,0.15l-0.36,0.18l-0.37,0.17l-0.36,0.23l-0.34,0.21l-0.33,0.22
		l-0.33,0.3l-0.33,0.3l-0.33,0.29l-0.29,0.29l-0.29,0.33l-0.26,0.33l-0.21,0.32l-0.22,0.37l-0.21,0.33l-0.19,0.37l-0.15,0.37
		l-0.14,0.37l-0.1,0.4l-0.11,0.37l-0.11,0.4l-0.03,0.37l-0.07,0.41v0.45l-0.04,0.41l0.04,0.43v0.41l0.07,0.4l0.03,0.41l0.11,0.4
		l0.11,0.4l0.1,0.37l0.14,0.37l0.15,0.41l0.19,0.33l0.21,0.37l0.22,0.33l0.21,0.37l0.26,0.29l0.25,0.33l0.3,0.33l0.32,0.29l0.3,0.25
		l0.32,0.3l0.34,0.22l0.36,0.22l0.33,0.21l0.37,0.19l0.37,0.15l0.37,0.15l0.4,0.15l0.4,0.11l0.4,0.08l0.41,0.07l0.4,0.04l0.44,0.03
		h0.44h0.44l0.4-0.03l0.4-0.04l0.41-0.07l0.41-0.08l0.41-0.11l0.36-0.15l0.37-0.15l0.37-0.15l0.36-0.19l0.37-0.21l0.33-0.22
		l0.33-0.22l0.33-0.3l0.33-0.25l0.33-0.29l0.29-0.33l0.3-0.29l0.26-0.33l0.21-0.37l0.26-0.33l0.18-0.37l0.19-0.33l0.18-0.37
		l0.14-0.41l0.11-0.37l0.1-0.4l0.08-0.4l0.08-0.41l0.07-0.4v-0.41l0.04-0.43l-0.04-0.41v-0.45l-0.07-0.41l-0.08-0.37l-0.08-0.4
		l-0.1-0.37l-0.11-0.4l-0.14-0.37l-0.18-0.37l-0.19-0.37l-0.18-0.33l-0.26-0.37l-0.21-0.32l-0.26-0.33l-0.3-0.33l-0.29-0.29
		l-0.33-0.29l-0.33-0.3l-0.33-0.25l-0.33-0.27l-0.33-0.21l-0.37-0.23l-0.36-0.17l-0.37-0.18l-0.37-0.15l-0.36-0.1l-0.41-0.12
		l-0.41-0.11l-0.41-0.04l-0.4-0.07l-0.4-0.04H146.96z M192.18,40.87l-1.21,0.04l-1.21,0.11l-0.58,0.07l-0.59,0.08L188,41.31
		l-0.55,0.11l-0.55,0.14l-0.55,0.19l-0.55,0.18l-0.55,0.18l-0.51,0.23l-0.51,0.25l-0.51,0.26l-0.48,0.26l-0.51,0.29l-0.48,0.3
		l-0.48,0.33l-0.47,0.36l-0.45,0.33l-0.48,0.41l-0.44,0.4l-0.43,0.4l-0.85,0.89l-0.8,0.95l-0.78,0.99l-0.77,1.1h-0.37V42h-15.51v82
		h15.3V64.66l0.04-0.7l0.04-0.71l0.03-0.66l0.08-0.62l0.07-0.63l0.11-0.58l0.15-0.59l0.14-0.55l0.19-0.56l0.18-0.51l0.22-0.51
		l0.22-0.48l0.25-0.48l0.29-0.43l0.26-0.44l0.33-0.41l0.33-0.4l0.33-0.37l0.37-0.32l0.37-0.34l0.36-0.29l0.4-0.26l0.41-0.21
		l0.44-0.23l0.44-0.18l0.48-0.17l0.44-0.12l0.51-0.15l0.48-0.07l0.51-0.07l0.56-0.04h0.55h0.55l0.59,0.04l0.55,0.07l0.52,0.07
		l0.51,0.11l0.51,0.15l0.48,0.13l0.44,0.19l0.43,0.18l0.44,0.23l0.37,0.25l0.4,0.26l0.37,0.3l0.33,0.32l0.33,0.33l0.29,0.37
		l0.3,0.41l0.3,0.4l0.26,0.44l0.21,0.44l0.22,0.52l0.19,0.47l0.18,0.56l0.14,0.55l0.15,0.59l0.11,0.59l0.1,0.62l0.07,0.66l0.08,0.66
		l0.07,0.7v0.74l0.03,0.73v59.35h15.12V60.25l-0.04-1.2l-0.03-1.14l-0.07-1.1l-0.15-1.1l-0.14-1.02l-0.19-0.99l-0.21-0.99
		l-0.26-0.92l-0.3-0.88l-0.33-0.85l-0.37-0.84l-0.4-0.78L207,47.7l-0.48-0.7l-0.48-0.66l-0.55-0.62l-0.58-0.59l-0.58-0.56
		l-0.66-0.51L203,43.58l-0.69-0.43l-0.78-0.38l-0.77-0.37l-0.8-0.32l-0.84-0.29l-0.89-0.26l-0.91-0.17l-0.96-0.18l-0.99-0.15
		l-1.03-0.07l-1.07-0.08H192.18z M139.3,124.01h15.14V42.26H139.3V124.01z"/>
	<path class="st6" d="M96.47,190.18l0.1-2.64l0.04-1.21l0.11-1.21l0.08-1.14l0.11-1.1l0.14-1.02l0.14-1.03l0.15-0.95l0.19-0.88
		l0.19-0.88l0.18-0.81l0.22-0.77l0.26-0.7l0.26-0.7l0.26-0.62l0.33-0.59l0.36-0.56l0.37-0.47l0.44-0.48l0.43-0.4l0.48-0.36
		l0.52-0.33l0.55-0.26l0.58-0.26l0.59-0.18l0.66-0.15l0.66-0.1l0.73-0.07l0.73-0.04l0.62,0.04l0.63,0.07l0.59,0.07l0.54,0.14
		l0.52,0.18l0.52,0.22l0.47,0.29l0.48,0.29l0.44,0.38l0.4,0.37l0.36,0.43l0.37,0.48l0.33,0.51l0.3,0.55l0.29,0.59l0.26,0.66
		l0.21,0.7l0.25,0.74l0.18,0.81l0.19,0.84l0.19,0.88l0.14,0.96l0.15,1.03l0.15,1.06l0.11,1.11l0.11,1.17l0.06,1.26l0.08,1.28
		l0.07,2.72l0.03,2.93H96.43L96.47,190.18z M104.9,160.07l-1.57,0.15l-1.51,0.23l-1.47,0.29l-1.43,0.37l-1.36,0.48l-1.32,0.54
		L95,162.8l-1.21,0.74l-1.18,0.8l-1.09,0.88l-1.06,0.99l-1,1.07l-0.95,1.17l-0.92,1.25l-0.85,1.33l-0.76,1.39l-0.77,1.51l-0.7,1.58
		l-0.62,1.69l-0.59,1.76l-0.55,1.84l-0.47,1.91l-0.44,2.02l-0.41,2.09L81.1,189l-0.3,2.27l-0.21,2.36l-0.19,2.42l-0.1,2.54
		l-0.07,2.61l-0.04,2.72l0.04,2.46l0.07,2.42l0.1,2.31l0.19,2.24l0.21,2.16l0.26,2.05l0.33,2.02l0.36,1.9l0.44,1.88l0.44,1.76
		l0.55,1.68l0.55,1.62l0.62,1.56l0.67,1.41l0.72,1.41l0.78,1.28l0.8,1.2l0.89,1.15l0.91,1.06l0.96,0.98l1.03,0.88l1.06,0.85
		l1.14,0.73l1.17,0.65l1.21,0.6l1.24,0.51l1.32,0.44l1.36,0.37l1.43,0.26l1.46,0.21l1.5,0.12l1.58,0.03l1.46-0.03l1.4-0.08
		l1.35-0.15l1.33-0.18l1.28-0.27l1.24-0.32l1.17-0.37l1.14-0.41l1.1-0.47l1.07-0.56l1-0.59l0.95-0.62l0.91-0.7l0.89-0.77l0.84-0.81
		l0.76-0.89l0.74-0.91l0.69-0.99l0.62-1.03l0.63-1.1l0.55-1.13l0.5-1.21l0.48-1.25l0.41-1.33l0.36-1.36l0.33-1.43l0.3-1.5l0.25-1.55
		l0.18-1.58l0.15-1.65l0.11-1.72l0.06-1.76h-13.89l-0.07,2.01l-0.11,1.9l-0.15,1.77l-0.22,1.62l-0.15,0.73l-0.14,0.74l-0.15,0.66
		l-0.18,0.66l-0.19,0.59l-0.18,0.59l-0.22,0.55l-0.22,0.52l-0.26,0.48l-0.25,0.44l-0.3,0.4l-0.33,0.37l-0.37,0.37l-0.37,0.32
		l-0.4,0.3l-0.44,0.26l-0.44,0.22l-0.47,0.22l-0.51,0.14l-0.55,0.15l-0.56,0.1l-0.58,0.08l-0.62,0.04l-0.63,0.02l-0.84-0.02
		l-0.8-0.08l-0.74-0.15l-0.73-0.18l-0.67-0.22l-0.66-0.29l-0.59-0.33l-0.55-0.41l-0.55-0.44l-0.48-0.52l-0.43-0.56l-0.41-0.62
		l-0.36-0.65l-0.3-0.71l-0.3-0.76l-0.26-0.85l-0.22-0.84l-0.23-0.92l-0.18-0.99l-0.19-1.02l-0.14-1.07l-0.16-1.14l-0.14-1.17
		l-0.11-1.22l-0.22-2.64l-0.11-2.79l-0.1-3.01l-0.04-3.24h34.4v-5.91l-0.03-2.9l-0.08-2.79l-0.14-2.64l-0.19-2.53l-0.26-2.39
		l-0.29-2.28l-0.18-1.1l-0.18-1.06l-0.22-1.04l-0.23-0.98l-0.22-0.96l-0.25-0.91l-0.26-0.92l-0.26-0.84l-0.29-0.85l-0.29-0.8
		l-0.33-0.77l-0.33-0.74l-0.33-0.74l-0.36-0.66l-0.37-0.65l-0.37-0.62l-0.4-0.56l-0.4-0.59l-0.44-0.51l-0.43-0.47l-0.92-0.92
		l-0.92-0.88l-0.95-0.77l-0.95-0.77l-1.03-0.67l-1-0.62l-1.06-0.58l-1.03-0.48l-1.1-0.44l-1.1-0.4l-1.14-0.33l-1.14-0.25l-1.18-0.23
		l-1.21-0.14l-1.21-0.08l-1.25-0.03L104.9,160.07z"/>
	<polygon class="st6" points="159.8,159.86 158.59,159.9 157.38,160.01 156.22,160.19 155.03,160.41 153.89,160.74 152.75,161.15 
		151.66,161.59 150.59,162.13 149.54,162.72 148.46,163.43 147.44,164.16 146.46,164.96 145.46,165.88 144.47,166.84 143.52,167.87 
		142.6,168.96 142.16,169.52 141.72,170.14 141.29,170.76 140.88,171.42 140.48,172.12 140.11,172.85 139.74,173.59 139.37,174.4 
		139.04,175.21 138.71,176.01 138.41,176.9 138.14,177.78 137.83,178.69 137.58,179.65 137.32,180.6 137.07,181.63 136.84,182.66 
		136.66,183.72 136.44,184.78 136.25,185.93 135.96,188.24 135.71,190.66 135.49,193.19 135.34,195.83 135.27,198.62 135.23,201.48 
		135.27,204.2 135.34,206.81 135.44,209.35 135.6,211.8 135.77,214.12 136.03,216.39 136.33,218.55 136.66,220.6 137.07,222.59 
		137.47,224.46 137.95,226.26 138.49,227.98 138.75,228.79 139.04,229.57 139.34,230.33 139.66,231.11 139.96,231.8 140.29,232.53 
		140.66,233.2 141.02,233.86 141.4,234.48 141.75,235.11 142.16,235.69 142.57,236.28 142.97,236.83 143.41,237.35 143.85,237.86 
		144.32,238.34 144.8,238.82 145.27,239.29 145.79,239.7 146.3,240.13 146.82,240.51 147.36,240.87 147.91,241.24 148.51,241.57 
		149.05,241.87 149.68,242.16 150.26,242.44 150.89,242.71 151.52,242.92 152.18,243.14 152.83,243.32 153.49,243.48 154.19,243.66 
		154.88,243.77 155.58,243.87 156.31,243.98 157.05,244.03 157.82,244.1 158.55,244.14 159.36,244.14 160.13,244.1 160.95,244.06 
		161.74,243.98 162.55,243.92 163.36,243.77 164.21,243.62 165.04,243.43 165.93,243.22 166.8,243 167.69,242.71 168.56,242.41 
		169.45,242.09 170.36,241.72 171.28,241.35 172.23,240.94 173.15,240.51 173.15,227.85 171.71,228.54 170.36,229.12 169.08,229.64 
		167.86,230.04 166.73,230.33 165.7,230.6 165.19,230.67 164.72,230.71 164.23,230.75 163.8,230.75 163.06,230.75 162.37,230.63 
		161.67,230.52 160.97,230.33 160.35,230.08 159.73,229.79 159.1,229.42 158.55,229.02 157.97,228.57 157.45,228.06 156.94,227.47 
		156.46,226.85 156.02,226.19 155.58,225.45 155.13,224.65 154.78,223.8 154.41,222.92 154.08,221.97 153.75,220.98 153.46,219.91 
		153.16,218.81 152.94,217.64 152.73,216.43 152.5,215.14 152.32,213.83 152.18,212.43 152.07,210.99 151.95,209.49 151.88,207.95 
		151.81,206.33 151.78,204.68 151.78,202.99 151.78,201.09 151.81,199.29 151.88,197.52 151.95,195.83 152.07,194.18 152.18,192.64 
		152.32,191.14 152.5,189.7 152.73,188.31 152.94,186.99 153.16,185.74 153.46,184.56 153.75,183.47 154.04,182.4 154.41,181.41 
		154.74,180.49 155.13,179.6 155.55,178.81 155.99,178.07 156.46,177.34 156.98,176.71 157.49,176.12 158.08,175.61 158.66,175.13 
		159.25,174.69 159.91,174.32 160.57,174.02 161.3,173.77 162.03,173.59 162.77,173.45 163.57,173.37 164.38,173.33 165.22,173.37 
		166.11,173.48 167.06,173.66 168.13,173.96 169.23,174.29 170.4,174.72 171.65,175.21 172.97,175.79 172.97,162.76 170.95,162.1 
		169.04,161.52 167.21,161 165.52,160.6 163.94,160.27 162.44,160.05 161.74,159.98 161.08,159.9 160.42,159.86 	"/>
	<polygon class="st6" points="51.49,139.01 51.49,161.25 41.7,161.25 41.7,173.33 51.49,173.33 51.49,210.8 51.58,210.8 
		51.58,217.97 51.58,219.65 51.66,221.28 51.77,222.85 51.95,224.35 52.17,225.83 52.39,227.22 52.72,228.54 53.05,229.82 
		53.46,231.04 53.9,232.17 54.37,233.27 54.88,234.34 55.48,235.33 56.1,236.25 56.43,236.68 56.76,237.09 57.12,237.49 
		57.49,237.9 57.85,238.3 58.25,238.67 58.66,239.04 59.07,239.36 59.95,240.02 60.87,240.62 61.85,241.2 62.91,241.72 
		64.02,242.16 65.15,242.56 66.36,242.92 67.65,243.25 68.96,243.52 70.36,243.74 71.79,243.92 73.29,244.03 74.83,244.1 
		76.45,244.14 76.45,231.69 75.86,231.66 75.28,231.62 74.72,231.54 74.18,231.47 73.67,231.37 73.15,231.23 72.67,231.04 
		72.19,230.85 71.76,230.6 71.32,230.36 70.91,230.08 70.54,229.79 70.18,229.45 69.82,229.09 69.48,228.72 69.15,228.28 
		68.86,227.88 68.6,227.4 68.35,226.92 68.09,226.41 67.87,225.86 67.69,225.27 67.51,224.69 67.35,224.06 67.2,223.43 
		67.06,222.74 66.95,222.04 66.87,221.3 66.8,220.57 66.77,219.81 66.73,218.99 66.73,218.15 66.73,210.8 66.86,210.8 66.86,173.33 
		76.72,173.33 76.72,161.25 66.86,161.25 66.86,139.01 	"/>
	<polygon class="st6" points="187.89,139.01 187.89,161.25 178.09,161.25 178.09,173.33 187.89,173.33 187.89,244.14 203.26,244.14 
		203.26,173.33 213.12,173.33 213.12,161.25 203.26,161.25 203.26,139.01 	"/>
	<path class="st6" d="M323.92,189.93l0.03-3.52l0.11-1.87l0.18-1.9l0.11-0.96l0.15-0.92l0.14-0.91l0.19-0.92l0.25-0.88l0.27-0.84
		l0.29-0.84l0.33-0.81l0.36-0.73l0.44-0.73l0.44-0.66l0.52-0.63l0.59-0.54l0.58-0.48l0.7-0.44l0.69-0.37l0.81-0.3l0.85-0.22
		l0.88-0.11l0.98-0.07l0.63,0.04l0.62,0.07l0.59,0.07l0.56,0.14l0.54,0.18l0.48,0.26l0.51,0.26l0.44,0.29l0.45,0.38l0.4,0.37
		l0.37,0.43l0.37,0.48l0.32,0.51l0.3,0.55l0.29,0.62l0.26,0.62l0.22,0.7l0.22,0.74l0.21,0.81l0.19,0.84l0.18,0.88l0.15,0.96
		l0.15,1.03l0.15,1.06l0.11,1.11l0.11,1.17l0.07,1.26l0.08,1.28l0.08,2.72l0.03,2.93h-18.95V189.93z M332.38,160.07l-1.57,0.15
		l-1.51,0.23l-1.46,0.29l-1.43,0.37l-1.36,0.48l-1.33,0.54l-1.24,0.67l-1.21,0.74l-1.17,0.8l-1.1,0.88l-1.06,0.99l-1,1.07
		l-0.95,1.17l-0.92,1.25l-0.85,1.33l-0.77,1.39l-0.77,1.51l-0.7,1.58l-0.62,1.69l-0.58,1.76l-0.55,1.84l-0.48,1.91l-0.43,2.02
		l-0.4,2.09l-0.33,2.2l-0.29,2.27l-0.23,2.36l-0.18,2.42l-0.11,2.54l-0.07,2.61l-0.04,2.72v2.46l0.11,2.42l0.11,2.31l0.18,2.24
		l0.23,2.16l0.26,2.05l0.33,2.02l0.36,1.9l0.44,1.88l0.44,1.76l0.55,1.68l0.54,1.62l0.62,1.56l0.66,1.41l0.73,1.41l0.77,1.28
		l0.8,1.2l0.89,1.15l0.91,1.06l0.96,0.98l1.03,0.88l1.06,0.85l1.14,0.73l1.13,0.65l1.24,0.6l1.25,0.51l1.33,0.44l1.35,0.37
		l1.43,0.26l1.47,0.21l1.5,0.12l1.58,0.03l1.47-0.03l1.39-0.08l1.35-0.15l1.33-0.18l1.28-0.27l1.24-0.32l1.17-0.37l1.14-0.41
		l1.1-0.47l1.06-0.56l0.99-0.59l0.95-0.62l0.92-0.7l0.88-0.77l0.84-0.81l0.77-0.89l0.74-0.91l0.69-0.99l0.63-1.03l0.62-1.1
		l0.55-1.13l0.51-1.21l0.49-1.25l0.4-1.33l0.36-1.36l0.33-1.43l0.29-1.5l0.25-1.55l0.19-1.58l0.15-1.65l0.11-1.72l0.07-1.76h-13.89
		l-0.07,2.01l-0.11,1.9l-0.15,1.77l-0.22,1.62l-0.14,0.73l-0.15,0.74l-0.14,0.66l-0.19,0.66l-0.18,0.59l-0.18,0.59l-0.22,0.55
		l-0.22,0.52l-0.27,0.48l-0.25,0.44l-0.3,0.4l-0.33,0.37l-0.37,0.37l-0.37,0.32l-0.4,0.3l-0.43,0.26l-0.45,0.22l-0.48,0.22
		l-0.51,0.14l-0.56,0.15l-0.55,0.1l-0.58,0.08l-0.63,0.04l-0.62,0.02l-0.84-0.02l-0.81-0.08l-0.73-0.15l-0.74-0.18l-0.67-0.22
		l-0.65-0.29l-0.59-0.33l-0.55-0.41l-0.56-0.48l-0.48-0.47l-0.44-0.56l-0.41-0.62l-0.36-0.65l-0.34-0.71l-0.25-0.76l-0.25-0.85
		l-0.23-0.84l-0.22-0.92l-0.17-0.99l-0.19-1.02l-0.15-1.07l-0.15-1.14l-0.14-1.17l-0.12-1.22l-0.22-2.61l-0.1-2.82l-0.11-3.01
		l-0.03-3.24h34.39v-6.1l-0.03-2.71l-0.08-2.79l-0.15-2.64l-0.18-2.53l-0.25-2.39l-0.34-2.28l-0.14-1.1l-0.18-1.02l-0.22-1.03
		l-0.22-1.02l-0.22-0.96l-0.25-0.91l-0.27-0.92l-0.25-0.84l-0.28-0.85l-0.3-0.8l-0.33-0.77l-0.33-0.74l-0.34-0.74l-0.36-0.66
		l-0.37-0.65l-0.36-0.62l-0.4-0.56l-0.4-0.59l-0.44-0.51l-0.45-0.47l-0.9-0.92l-0.92-0.88l-0.96-0.77l-0.95-0.77l-1-0.67l-1.02-0.62
		l-1.06-0.58l-1.03-0.48l-1.1-0.44l-1.11-0.4l-1.13-0.33l-1.13-0.25l-1.17-0.23l-1.21-0.14l-1.21-0.08l-1.25-0.03L332.38,160.07z"/>
	<polygon class="st6" points="304.88,159.86 304.22,159.9 303.55,160.01 302.9,160.12 302.28,160.3 301.61,160.49 300.99,160.74 
		300.36,161 299.79,161.29 299.16,161.62 298.57,162.02 297.98,162.4 297.44,162.84 296.85,163.32 296.3,163.79 295.74,164.31 
		295.23,164.85 294.67,165.44 294.17,166.03 293.65,166.69 293.14,167.31 292.67,168.01 292.19,168.71 291.71,169.4 291.24,170.17 
		290.35,171.71 289.51,173.33 289.1,173.33 289.1,161.25 273.6,161.25 273.6,244.14 289.1,244.14 289.1,193.99 289.15,192.41 
		289.19,190.91 289.25,189.49 289.4,188.12 289.55,186.84 289.73,185.6 289.95,184.45 290.24,183.39 290.54,182.36 290.87,181.45 
		291.24,180.56 291.64,179.79 292.08,179.06 292.52,178.44 292.78,178.14 293.03,177.85 293.29,177.59 293.58,177.34 294.17,176.9 
		294.79,176.45 295.45,176.08 296.18,175.69 296.96,175.36 297.8,175.01 298.64,174.72 299.6,174.47 300.56,174.25 301.54,174.02 
		302.59,173.85 303.74,173.7 304.88,173.55 306.08,173.45 307.33,173.37 308.62,173.33 308.62,160.22 307.63,160.05 306.93,159.94 
		306.23,159.86 305.53,159.83 	"/>
	<polygon class="st6" points="252.36,161 252.36,216.75 252.33,218.7 252.22,220.46 252.14,221.31 252.07,222.12 251.96,222.92 
		251.85,223.65 251.7,224.35 251.56,225.02 251.37,225.64 251.19,226.23 250.97,226.78 250.75,227.28 250.53,227.81 250.27,228.24 
		249.98,228.65 249.68,229.05 249.36,229.42 249.03,229.75 248.66,230.04 248.26,230.34 247.85,230.6 247.41,230.82 246.94,231.04 
		246.46,231.18 245.94,231.33 245.39,231.47 244.85,231.54 244.25,231.62 243.63,231.66 243.01,231.69 242.42,231.66 241.84,231.62 
		241.28,231.54 240.74,231.47 240.22,231.37 239.71,231.23 239.24,231.04 238.75,230.85 238.32,230.6 237.88,230.36 237.47,230.08 
		237.11,229.79 236.74,229.45 236.37,229.09 236.05,228.72 235.71,228.27 235.42,227.87 235.16,227.4 234.91,226.92 234.64,226.41 
		234.43,225.86 234.24,225.27 234.06,224.69 233.91,224.06 233.77,223.43 233.63,222.74 233.52,222.04 233.44,221.31 233.36,220.57 
		233.33,219.81 233.29,218.99 233.29,218.15 233.29,161 218.15,161 218.15,217.96 218.15,219.65 218.22,221.27 218.34,222.85 
		218.51,224.35 218.74,225.83 218.96,227.22 219.29,228.54 219.62,229.82 220.02,231.04 220.46,232.17 220.93,233.27 221.44,234.34 
		222.04,235.33 222.66,236.25 222.99,236.68 223.32,237.09 223.68,237.49 224.06,237.9 224.42,238.3 224.82,238.67 225.22,239.04 
		225.63,239.36 226.51,240.02 227.42,240.61 228.41,241.2 229.48,241.72 230.58,242.16 231.72,242.56 232.93,242.92 234.21,243.25 
		235.53,243.52 236.93,243.74 238.35,243.92 239.86,244.03 241.4,244.1 243.01,244.14 244.63,244.1 246.16,244.03 247.67,243.92 
		249.09,243.74 250.45,243.52 251.77,243.25 253.06,242.92 254.23,242.56 255.4,242.11 256.47,241.67 257.5,241.12 258.48,240.58 
		258.96,240.28 259.4,239.96 259.84,239.62 260.25,239.29 260.65,238.92 261.05,238.56 261.46,238.2 261.82,237.82 262.15,237.42 
		262.49,236.98 262.81,236.58 263.14,236.14 263.73,235.18 264.28,234.15 264.79,233.09 265.28,231.95 265.67,230.77 266.08,229.5 
		266.41,228.17 266.7,226.81 266.92,225.35 267.14,223.84 267.29,222.26 267.4,220.65 267.47,218.96 267.47,217.2 267.47,161 	"/>
	<polygon class="st6" points="66.73,88.41 66.82,88.41 66.82,54.33 76.71,54.33 76.71,42.26 66.82,42.26 66.82,20.02 51.49,20.02 
		51.49,42.26 41.7,42.26 41.7,54.33 51.49,54.33 51.49,88.41 51.58,88.41 51.58,97.83 51.58,99.52 51.66,101.15 51.77,102.72 
		51.95,104.22 52.17,105.69 52.39,107.09 52.72,108.41 53.05,109.69 53.46,110.9 53.9,112.05 54.37,113.14 54.88,114.21 
		55.48,115.2 56.1,116.12 56.43,116.56 56.76,116.96 57.12,117.36 57.49,117.77 57.85,118.17 58.26,118.54 58.66,118.91 
		59.07,119.24 59.94,119.9 60.87,120.48 61.85,121.07 62.91,121.59 64.02,122.03 65.15,122.43 66.36,122.8 67.65,123.13 
		68.96,123.38 70.36,123.61 71.79,123.78 73.29,123.9 74.84,123.98 76.45,124.01 76.45,111.56 75.86,111.53 75.27,111.49 
		74.72,111.42 74.18,111.35 73.67,111.23 73.15,111.09 72.67,110.9 72.19,110.72 71.75,110.47 71.32,110.24 70.91,109.96 
		70.54,109.66 70.18,109.33 69.82,108.96 69.48,108.6 69.15,108.15 68.86,107.74 68.6,107.27 68.35,106.79 68.09,106.28 
		67.87,105.73 67.69,105.14 67.51,104.56 67.36,103.93 67.2,103.31 67.06,102.61 66.95,101.91 66.88,101.18 66.8,100.44 
		66.77,99.68 66.73,98.87 66.73,98.02 	"/>
</g>
</svg>
