<svg width="52" height="30" viewBox="0 0 52 30" fill="none" xmlns="http://www.w3.org/2000/svg">
<path d="M29.0011 1.69206L28.102 2.5817C28.3347 3.29891 28.1505 4.08175 27.6049 4.62161C26.8098 5.40936 25.5146 5.40838 24.7195 4.62161C23.9243 3.83485 23.9243 2.55329 24.7195 1.76652C25.2651 1.22666 26.0562 1.04442 26.7821 1.27467L27.6802 0.386009C27.2029 0.133225 26.6811 0.0078125 26.1622 0.0078125C25.3275 0.0078125 24.5026 0.327222 23.8837 0.939587C22.6272 2.18391 22.6272 4.20619 23.8837 5.45051C24.4927 6.0521 25.3017 6.38522 26.1632 6.38522C27.0247 6.38522 27.8336 6.05308 28.4426 5.45051C29.4447 4.45603 29.6685 2.92463 29.0011 1.69206Z" fill="#FFCB05"/>
<path d="M26.1483 2.38331C25.6958 2.38331 25.3294 2.74877 25.3294 3.20045C25.3294 3.65213 25.6958 4.01759 26.1483 4.01759C26.6008 4.01759 26.9672 3.65213 26.9672 3.20045C26.9672 3.11521 26.9543 3.03389 26.9305 2.9555L28.6357 1.25362C28.5634 1.16446 28.4851 1.07824 28.401 0.995938C28.3099 0.905798 28.2138 0.822517 28.1148 0.746094L26.4255 2.43132C26.3384 2.40095 26.2463 2.38331 26.1483 2.38331Z" fill="black"/>
<path d="M50.9953 30H48.0802C47.5514 30 47.1227 29.5758 47.1227 29.0525V0.948431C47.1227 0.424246 47.5524 0 48.0802 0H50.9953C51.5241 0 51.9529 0.424246 51.9529 0.948431V29.0525C51.9529 29.5758 51.5241 30 50.9953 30Z" fill="black"/>
<path d="M39.316 30H36.3999C35.8711 30 35.4424 29.5758 35.4424 29.0525V0.948431C35.4424 0.424246 35.8711 0 36.3999 0H39.315C39.8438 0 40.2725 0.424246 40.2725 0.948431V29.0525C40.2735 29.5758 39.8448 30 39.316 30Z" fill="black"/>
<path d="M27.6168 29.9991H24.7016C24.1728 29.9991 23.7441 29.5748 23.7441 29.0516V11.6242C23.7441 11.1 24.1728 10.6758 24.7016 10.6758H27.6168C28.1465 10.6758 28.5753 11.1 28.5753 11.6242V29.0516C28.5743 29.5748 28.1455 29.9991 27.6168 29.9991Z" fill="black"/>
<path d="M17.6216 0H0.958515C0.428757 0 0 0.424246 0 0.948431V3.83193C0 4.35612 0.428757 4.78036 0.958515 4.78036H6.90072V29.0525C6.90072 29.5758 7.32947 30 7.85824 30H10.7734C11.3032 30 11.7319 29.5758 11.7319 29.0525V4.78036H17.6226C18.1524 4.78036 18.5811 4.35612 18.5811 3.83193V0.948431C18.5801 0.424246 18.1514 0 17.6216 0Z" fill="black"/>
</svg>
