<?xml version="1.0" encoding="UTF-8"?>
<!DOCTYPE svg PUBLIC "-//W3C//DTD SVG 1.1//EN" "http://www.w3.org/Graphics/SVG/1.1/DTD/svg11.dtd">
<svg version="1.1" xmlns="http://www.w3.org/2000/svg" xmlns:xlink="http://www.w3.org/1999/xlink" x="0" y="0" width="283.464" height="36.191" viewBox="0, 0, 283.464, 36.191">
  <g id="Layer_1" transform="translate(-36.192, -36.618)">
    <path d="M36.192,39.319 C36.192,39.571 36.318,39.696 36.569,39.696 L49.139,39.696 L49.139,72.432 C49.139,72.683 49.265,72.809 49.516,72.809 L52.155,72.809 C52.406,72.809 52.532,72.683 52.532,72.432 L52.532,39.696 L65.076,39.696 C65.327,39.696 65.453,39.42 65.453,39.168 L65.453,36.995 C65.453,36.744 65.327,36.618 65.076,36.618 L36.569,36.618 C36.318,36.618 36.192,36.744 36.192,36.995 L36.192,39.319" fill="#101212"/>
    <path d="M208.114,36.995 C208.114,36.744 207.989,36.618 207.737,36.618 L205.099,36.618 C204.848,36.618 204.722,36.744 204.722,36.995 L204.722,72.432 C204.722,72.683 204.848,72.809 205.099,72.809 L224.828,72.809 C225.079,72.809 225.205,72.683 225.205,72.432 L225.205,70.107 C225.205,69.855 225.079,69.73 224.828,69.73 L208.114,69.73 L208.114,36.995" fill="#101212"/>
    <path d="M232.869,72.432 C232.869,72.683 232.995,72.809 233.246,72.809 L253.038,72.809 C253.289,72.809 253.415,72.683 253.415,72.432 L253.415,70.107 C253.415,69.855 253.289,69.729 253.038,69.729 L236.263,69.729 L236.263,57.792 L251.781,57.792 C252.033,57.792 252.158,57.666 252.158,57.415 L252.158,55.09 C252.158,54.839 252.033,54.713 251.781,54.713 L236.263,54.713 L236.263,42.775 L253.038,42.775 C253.289,42.775 253.415,42.649 253.415,42.398 L253.415,40.073 C253.415,39.822 253.289,39.696 253.038,39.696 L233.246,39.696 C232.995,39.696 232.869,39.822 232.869,40.073 L232.869,72.432" fill="#101212"/>
    <path d="M176.202,67.656 C176.202,67.405 176.076,67.279 175.825,67.279 L173.186,67.279 C172.935,67.279 172.809,67.405 172.809,67.656 L172.809,72.431 C172.809,72.683 172.935,72.809 173.186,72.809 L192.978,72.809 C193.229,72.809 193.355,72.683 193.355,72.431 L193.355,70.107 C193.355,69.855 193.229,69.73 192.978,69.73 L176.202,69.73 L176.202,67.656" fill="#101212"/>
    <path d="M172.809,63.824 C172.809,64.075 172.935,64.201 173.186,64.201 L175.825,64.201 C176.076,64.201 176.202,64.075 176.202,63.824 L176.202,57.792 L182.045,57.792 C182.296,57.792 182.422,57.666 182.422,57.415 L182.422,55.09 C182.422,54.838 182.296,54.713 182.045,54.713 L176.202,54.713 L176.202,48.618 C176.202,48.367 176.076,48.242 175.825,48.242 L173.186,48.242 C172.935,48.242 172.809,48.367 172.809,48.618 L172.809,54.713 L166.714,54.713 C166.463,54.713 166.337,54.838 166.337,55.09 L166.337,57.415 C166.337,57.666 166.463,57.792 166.714,57.792 L172.809,57.792 L172.809,63.824" fill="#E3672C"/>
    <path d="M172.809,44.786 C172.809,45.037 172.935,45.163 173.186,45.163 L175.825,45.163 C176.076,45.163 176.202,45.037 176.202,44.786 L176.202,42.775 L192.978,42.775 C193.23,42.775 193.355,42.649 193.355,42.398 L193.355,40.073 C193.355,39.822 193.23,39.696 192.978,39.696 L173.186,39.696 C172.935,39.696 172.809,39.822 172.809,40.073 L172.809,44.786" fill="#101212"/>
    <path d="M185.564,57.415 C185.564,57.667 185.689,57.792 185.941,57.792 L191.721,57.792 C191.973,57.792 192.098,57.667 192.098,57.415 L192.098,55.09 C192.098,54.839 191.973,54.713 191.721,54.713 L185.941,54.713 C185.689,54.713 185.564,54.839 185.564,55.09 L185.564,57.415" fill="#101212"/>
    <path d="M299.083,66.085 C298.957,65.96 298.706,65.96 298.58,66.085 L296.758,67.908 C296.633,68.033 296.633,68.285 296.758,68.41 L300.842,72.557 C300.968,72.683 301.219,72.809 301.471,72.809 L314.692,72.809 C314.943,72.809 315.195,72.683 315.321,72.557 L319.405,68.41 C319.53,68.285 319.656,68.033 319.656,67.782 L319.656,59.551 C319.656,59.3 319.53,59.048 319.405,58.923 L315.321,54.839 C315.195,54.713 314.943,54.587 314.692,54.587 L303.23,54.587 L300.402,51.823 L300.402,45.54 L303.167,42.775 L313.562,42.775 L317.144,46.419 C317.269,46.545 317.52,46.545 317.646,46.419 L319.468,44.597 C319.594,44.471 319.594,44.22 319.468,44.095 L315.384,39.947 C315.258,39.822 315.007,39.696 314.756,39.696 L301.974,39.696 C301.722,39.696 301.471,39.822 301.345,39.947 L297.261,44.095 C297.135,44.22 297.009,44.471 297.009,44.723 L297.009,52.702 C297.009,52.954 297.135,53.205 297.261,53.331 L301.345,57.415 C301.471,57.541 301.722,57.666 301.974,57.666 L313.437,57.666 L316.264,60.431 L316.264,66.965 L313.499,69.729 L302.664,69.729 L299.083,66.085" fill="#101212"/>
    <path d="M270.881,40.073 C270.818,39.822 270.63,39.696 270.379,39.696 L264.284,39.696 C264.033,39.696 263.907,39.822 263.907,40.073 L263.907,72.432 C263.907,72.683 264.033,72.809 264.284,72.809 L266.734,72.809 C266.985,72.809 267.111,72.683 267.111,72.432 L267.111,42.775 L268.368,42.775 L280.118,72.432 C280.181,72.683 280.369,72.809 280.62,72.809 L286.715,72.809 C286.967,72.809 287.092,72.683 287.092,72.432 L287.092,40.073 C287.092,39.822 286.967,39.696 286.715,39.696 L284.265,39.696 C284.013,39.696 283.888,39.822 283.888,40.073 L283.888,69.73 L282.568,69.73 L270.881,40.073" fill="#101212"/>
    <path d="M114.182,42.775 L116.003,42.775 L121.344,59.551 L108.778,59.551 L114.182,42.775 z M125.428,72.432 C125.491,72.683 125.68,72.809 125.931,72.809 L128.696,72.809 C128.947,72.809 129.009,72.683 128.947,72.432 L118.643,40.073 C118.58,39.822 118.391,39.696 118.14,39.696 L112.108,39.696 C111.857,39.696 111.668,39.822 111.606,40.073 L101.301,72.432 C101.238,72.683 101.301,72.809 101.552,72.809 L104.191,72.809 C104.442,72.809 104.631,72.683 104.694,72.432 L107.835,62.63 L122.287,62.63 L125.428,72.432" fill="#101212"/>
    <path d="M87.805,54.839 L75.05,54.839 L75.05,42.775 L87.868,42.775 L90.632,45.54 L90.632,52.074 L87.805,54.839 z M89.062,57.917 C89.313,57.917 89.564,57.792 89.689,57.666 L93.773,53.582 C93.899,53.457 94.025,53.206 94.025,52.954 L94.025,44.723 C94.025,44.471 93.899,44.22 93.773,44.095 L89.689,39.947 C89.564,39.822 89.313,39.696 89.062,39.696 L72.034,39.696 C71.782,39.696 71.657,39.822 71.657,40.073 L71.657,72.432 C71.657,72.683 71.782,72.809 72.034,72.809 L74.673,72.809 C74.924,72.809 75.05,72.683 75.05,72.432 L75.05,57.917 L81.459,57.917 L91.512,72.495 C91.638,72.683 91.826,72.809 92.077,72.809 L95.407,72.809 C95.658,72.809 95.721,72.683 95.596,72.495 L85.417,57.917 L89.062,57.917" fill="#101212"/>
    <path d="M155.097,72.809 C155.349,72.809 155.6,72.683 155.726,72.557 L159.81,68.473 C159.935,68.348 160.061,68.096 160.061,67.845 L160.061,44.723 C160.061,44.472 159.935,44.22 159.81,44.095 L155.726,39.948 C155.6,39.822 155.349,39.696 155.097,39.696 L137.504,39.696 C137.253,39.696 137.127,39.822 137.127,40.073 L137.127,72.431 C137.127,72.683 137.253,72.809 137.504,72.809 L155.097,72.809 z M153.84,69.73 L140.52,69.73 L140.52,42.775 L153.903,42.775 L156.668,45.54 L156.668,66.965 L153.84,69.73" fill="#101212"/>
  </g>
</svg>
