<?xml version="1.0" encoding="utf-8"?>
<!-- Generator: Adobe Illustrator 24.1.2, SVG Export Plug-In . SVG Version: 6.00 Build 0)  -->
<svg version="1.1" id="Layer_1" xmlns="http://www.w3.org/2000/svg" xmlns:xlink="http://www.w3.org/1999/xlink" x="0px" y="0px"
	 viewBox="0 0 830 325" style="enable-background:new 0 0 830 325;" xml:space="preserve">
<style type="text/css">
	.st0{fill:#16FFFB;}
	.st1{fill:#FFFFFF;}
	.st2{fill-rule:evenodd;clip-rule:evenodd;fill:#FFFFFF;}
</style>
<path class="st0" d="M410.5,165.5H403v38.3h7.5L410.5,165.5L410.5,165.5z M442.6,192.5c0-3.4-0.9-6.2-3-8.1c-1.6-1.5-3.8-2.5-7.3-3
	l-4.5-0.6c-1.3-0.1-2.5-0.7-3.5-1.5c-0.7-0.7-1.1-1.7-1.1-2.8c0-2.6,1.9-4.8,5.9-4.8c2.5,0,5.4,0.3,7.8,2.6l4.7-4.7
	c-3.3-3.2-7.1-4.5-12.4-4.5c-8.3,0-13.3,4.8-13.3,11.6c-0.2,2.8,0.8,5.5,2.7,7.5c1.7,1.7,4.1,2.7,7.4,3.2l4.6,0.6
	c1.2,0.1,2.4,0.5,3.4,1.4c0.8,0.9,1.3,2,1.2,3.2c0,3.1-2.4,4.7-6.8,4.7c-3.5,0-6.8-0.8-9.2-3.2l-4.8,4.8c3.8,3.8,8.2,5.1,14,5.1
	C436.4,204.1,442.6,199.9,442.6,192.5 M488.2,165.5h-8.1l-7,15.4l-7.1-15.4h-8.1l11.5,22.6v15.7h7.4v-15.7L488.2,165.5L488.2,165.5z
	 M516.4,184.6c0-6.6,0-11.4-3.8-15.3c-5.8-5.6-14.9-5.6-20.7,0c-3.9,3.9-3.8,8.7-3.8,15.3s-0.1,11.4,3.8,15.3
	c5.8,5.6,14.9,5.6,20.7,0C516.5,196,516.4,191.2,516.4,184.6 M508.9,184.6c0,7.4-0.4,9.1-1.9,10.8c-1.2,1.4-3,2.1-4.8,2
	c-1.8,0.1-3.6-0.7-4.8-2c-1.5-1.6-1.8-3.4-1.8-10.8s0.4-9.1,1.8-10.8c1.3-1.3,3-2.1,4.8-2c1.8-0.1,3.6,0.7,4.8,2
	C508.5,175.5,508.9,177.2,508.9,184.6 M550.1,190.6v-25.1h-7.4v24.9c0,4.4-2.6,7-6.7,7s-6.6-2.6-6.6-7v-24.9h-7.5v25.2
	c0,8.1,6.2,13.5,14.1,13.5S550.1,198.8,550.1,190.6 M584.6,203.8l-8.5-16.5c4.3-1.5,7.1-5.5,7-10.1c0-6.4-4.6-11.7-12.4-11.7h-15
	v38.3h7.5v-15.3h5.4l7.5,15.3H584.6z M575.6,177.2c0,3-2.2,5.1-5.4,5.1h-7v-10.1h7C573.4,172.2,575.6,174.3,575.6,177.2
	 M615.2,192.5c0-3.4-0.9-6.2-3-8.1c-1.6-1.5-3.8-2.5-7.3-3l-4.5-0.6c-1.3-0.1-2.5-0.7-3.5-1.5c-0.7-0.7-1.2-1.7-1.1-2.8
	c0-2.6,1.9-4.8,5.9-4.8c2.5,0,5.4,0.3,7.8,2.6l4.7-4.7c-3.3-3.2-7.1-4.5-12.4-4.5c-8.3,0-13.3,4.8-13.3,11.6
	c-0.2,2.8,0.8,5.5,2.8,7.5c1.7,1.7,4.1,2.7,7.4,3.2l4.6,0.6c1.2,0.1,2.4,0.5,3.4,1.4c0.8,0.9,1.3,2,1.2,3.2c0,3.1-2.4,4.7-6.8,4.7
	c-3.5,0-6.8-0.8-9.2-3.2l-4.8,4.9c3.8,3.8,8.2,5.1,14,5.1C609,204.1,615.2,199.9,615.2,192.5 M659.4,172.2v-6.7h-27.5v6.7h10v31.6
	h7.5v-31.6H659.4z M690.5,184.7c0-6.6,0-11.4-3.8-15.3c-5.8-5.6-14.9-5.6-20.7,0c-3.9,3.9-3.8,8.7-3.8,15.3s-0.1,11.4,3.8,15.3
	c5.8,5.6,14.9,5.6,20.7,0C690.5,196.1,690.5,191.3,690.5,184.7 M683,184.7c0,7.4-0.4,9.1-1.9,10.8c-1.2,1.4-3,2.1-4.8,2
	c-1.8,0-3.6-0.7-4.8-2c-1.5-1.6-1.8-3.4-1.8-10.8s0.4-9.1,1.8-10.8c1.2-1.3,3-2.1,4.8-2c1.8-0.1,3.6,0.7,4.8,2
	C682.5,175.5,683,177.3,683,184.7 M734.8,192.5c0-3.4-0.9-6.2-3-8.1c-1.6-1.5-3.8-2.5-7.3-3l-4.5-0.6c-1.3-0.1-2.5-0.7-3.5-1.5
	c-0.7-0.7-1.1-1.7-1.1-2.8c0-2.6,1.9-4.8,5.9-4.8c2.5,0,5.4,0.3,7.8,2.6l4.7-4.7c-3.3-3.2-7.1-4.5-12.4-4.5
	c-8.3,0-13.3,4.8-13.3,11.6c-0.2,2.8,0.8,5.5,2.7,7.5c1.7,1.7,4.1,2.7,7.4,3.2l4.6,0.6c1.2,0.1,2.4,0.5,3.4,1.4
	c0.8,0.9,1.3,2,1.2,3.2c0,3.1-2.4,4.7-6.8,4.7c-3.5,0-6.8-0.8-9.2-3.2l-4.8,4.8c3.8,3.8,8.2,5.1,14,5.1
	C728.6,204.1,734.8,199.9,734.8,192.5 M764.4,203.8v-6.7h-17.7v-9.3h15.1v-6.7h-15.1v-9h17.8v-6.7h-25.2v38.3L764.4,203.8z
	 M795.1,203.8v-6.7h-17.7v-9.3h15.1v-6.7h-15.1v-9h17.7v-6.7H770v38.3L795.1,203.8z"/>
<path class="st0" d="M420.5,127.6v-6.7H393v6.7h10v31.6h7.5v-31.6H420.5z M452.9,159.2v-38.3h-7.5v15.6h-13v-15.6H425v38.3h7.5v-16
	h13v16L452.9,159.2z M483.6,159.2v-6.7h-17.7v-9.3H481v-6.7h-15.1v-9h17.8v-6.7h-25.2v38.3L483.6,159.2z M528.6,127.6v-6.7h-25.2
	v38.3h7.5v-15.5H526V137h-15.1v-9.4L528.6,127.6z M562.3,146.1v-25.2h-7.4v24.9c0,4.4-2.6,7-6.7,7s-6.6-2.6-6.6-7v-24.9h-7.5v25.2
	c0,8.1,6.2,13.5,14.1,13.5S562.3,154.2,562.3,146.1 M595.3,127.6v-6.7h-27.5v6.7h10v31.6h7.5v-31.6L595.3,127.6z M629,146.1v-25.2
	h-7.4v24.9c0,4.4-2.6,7-6.7,7s-6.6-2.6-6.6-7v-24.9h-7.5v25.2c0,8.1,6.2,13.5,14.1,13.5S629,154.2,629,146.1 M663.5,159.2l-8.5-16.5
	c4.3-1.5,7.1-5.5,7-10c0-6.4-4.6-11.7-12.4-11.7h-15v38.3h7.5v-15.3h5.4l7.5,15.3H663.5z M654.5,132.6c0,3-2.2,5-5.4,5h-7v-10.1h7
	C652.4,127.6,654.5,129.7,654.5,132.6 M692.2,159.2v-6.7h-17.8v-9.3h15.1v-6.7h-15.1v-9h17.8v-6.7H667v38.3L692.2,159.2z"/>
<polygon class="st0" points="799.9,203.8 799.9,195.8 807.9,195.8 807.9,203.8 799.9,203.8 "/>
<polygon class="st1" points="34.3,213.3 62,207.1 62,124.1 92,124.1 92,111.8 2,111.8 5.1,124.1 34.3,124.1 34.3,213.3 "/>
<path class="st2" d="M183,111.8c-6.7,17.6-13.2,35.4-21.5,51.2c-7.3-17-13.9-34.6-21.5-51.2h-29.6v98.4h15.7V145l28.8,64.2
	l28.1-62.8v1.3l0,0v62.5h27.7v-98.4H183z"/>
<path class="st1" d="M363.8,84h-37c6.7-27.2,10.1-55,10.1-83l-23.2,9.3C309.4,159.9,202.9,284,61.5,315l-2.9,9
	c61.4-12.6,118-42.5,163-86.1h26.9l35.4-50.8l35.4,50.8h44.6l-59-76.9L363.8,84z"/>
<path class="st1" d="M274.1,136.2l-18.3-24.4H225l36.7,47.8C266.6,152.3,270.8,144.4,274.1,136.2"/>
<path class="st0" d="M808.5,174.3c0-5.4,4.4-9.7,9.7-9.7c5.4,0,9.7,4.4,9.7,9.7c0,5.4-4.4,9.7-9.7,9.7l0,0
	C812.9,184.1,808.5,179.7,808.5,174.3z M825.7,174.3c-0.1-4.1-3.5-7.4-7.6-7.3c-4.1,0.1-7.4,3.5-7.3,7.6c0.1,4.1,3.4,7.3,7.4,7.3
	c4,0.1,7.4-3.2,7.4-7.2C825.7,174.5,825.7,174.4,825.7,174.3z M814.7,169.1h4.2c1.8-0.1,3.3,1.3,3.4,3.1c0,0,0,0.1,0,0.1
	c0,1.2-0.8,2.3-1.9,2.7l2.2,4.4H820l-1.9-4H817v4h-2.3L814.7,169.1z M818.6,173.7c0.7,0.1,1.4-0.5,1.5-1.2s-0.5-1.4-1.2-1.5
	c-0.1,0-0.2,0-0.2,0H817v2.7H818.6z"/>
</svg>
