<?xml version="1.0" encoding="UTF-8"?><svg viewBox="0 0 200 200" width="200px" height="200px" xmlns="http://www.w3.org/2000/svg" version="1.2" baseProfile="tiny"><g fill="#ed4471"><rect x="87" y="61" width="1" height="1"/><rect y="63" width="1" height="1" x="109"/><rect x="61" y="74" width="1" height="1"/><rect x="98" y="78" width="1" height="1"/><rect x="109" y="95" width="1" height="1"/><rect x="42" y="97" width="1" height="1"/><rect x="43" y="99" width="1" height="1"/><rect x="96" y="100" width="1" height="1"/><rect x="120" y="112" width="1" height="1"/><rect width="1" height="1" x="126" y="122"/><rect x="160" y="125" width="1" height="1"/><rect height="1" x="96" y="137" width="1"/><rect height="1" x="130" y="141" width="1"/></g><g fill="#e70b45"><rect width="1" height="1" x="105" y="62"/><rect y="64" width="1" height="1" x="111"/><rect x="90" y="65" width="1" height="1"/><rect x="51" y="67" width="1" height="1"/><rect y="71" width="1" height="1" x="43"/><rect width="1" height="1" x="130" y="73"/><rect x="40" y="77" width="1" height="1"/><rect width="1" height="1" x="101" y="82"/><rect x="147" y="86" width="1" height="1"/><rect height="1" x="148" y="87" width="1"/><rect x="82" y="90" width="1" height="1"/><rect width="1" height="1" x="86" y="93"/><rect x="154" y="94" width="1" height="1"/><rect x="112" y="99" width="1" height="1"/><rect width="1" height="1" x="48" y="106"/><rect x="117" y="116" width="1" height="1"/><rect x="123" y="116" width="1" height="1"/><rect width="1" height="1" x="121" y="119"/><rect x="125" y="122" width="1" height="1"/><rect x="77" y="129" width="1" height="1"/><rect x="157" y="129" width="1" height="1"/><rect y="132" width="1" height="1" x="154"/><rect y="137" width="1" height="1" x="97"/><rect x="140" y="139" width="1" height="1"/></g><g fill="#ec3867"><rect x="89" y="64" width="1" height="1"/><rect y="67" width="1" height="1" x="119"/><rect x="127" y="71" width="1" height="1"/><rect x="42" y="72" width="1" height="1"/><rect x="138" y="78" width="1" height="1"/><rect x="69" y="80" width="1" height="1"/><rect x="100" y="81" width="1" height="1"/><rect x="143" y="82" width="1" height="1"/><rect y="83" width="1" height="1" x="73"/><rect x="39" y="87" width="1" height="1"/><rect height="1" x="152" y="91" width="1"/><rect y="98" width="1" height="1" x="111"/><rect x="157" y="98" width="1" height="1"/><rect x="104" y="106" width="1" height="1"/><rect x="161" y="107" width="1" height="1"/><rect y="109" width="1" height="1" x="108"/><rect x="51" y="110" width="1" height="1"/><rect y="115" width="1" height="1" x="56"/><rect x="122" y="115" width="1" height="1"/><rect x="71" y="126" width="1" height="1"/><rect x="85" y="133" width="1" height="1"/></g><g fill="#facbd8"><rect x="51" y="66" width="1" height="1"/><rect x="42" y="71" width="1" height="1"/><rect x="145" y="83" width="1" height="1"/><rect width="1" height="1" x="86" y="92"/><rect width="1" height="1" x="157" y="97"/><rect x="47" y="106" width="1" height="1"/><rect x="121" y="118" width="1" height="1"/><rect width="1" height="1" x="161" y="124"/><rect height="1" x="158" y="129" width="1"/><rect x="106" y="140" width="1" height="1"/></g><g fill="#eb2d5f"><rect x="91" y="67" width="1" height="1"/><rect x="132" y="74" width="1" height="1"/><rect x="102" y="84" width="1" height="1"/><rect x="77" y="86" width="1" height="1"/><rect height="1" x="81" y="89" width="1"/><rect x="155" y="95" width="1" height="1"/><rect x="113" y="101" width="1" height="1"/><rect height="1" x="52" y="111" width="1"/><rect x="53" y="112" width="1" height="1"/><rect y="112" width="1" height="1" x="112"/><rect x="162" y="112" width="1" height="1"/><rect y="113" width="1" height="1" x="54"/><rect y="114" width="1" height="1" x="55"/><rect y="115" width="1" height="1" x="116"/><rect x="124" y="118" width="1" height="1"/><rect x="162" y="118" width="1" height="1"/><rect x="100" y="138" width="1" height="1"/><rect height="1" x="118" y="141" width="1"/><rect x="129" y="141" width="1" height="1"/></g><g fill="#f48aa6"><rect height="1" x="56" y="70" width="1"/><rect x="91" y="96" width="1" height="1"/><rect y="106" width="1" height="1" x="161"/><rect y="141" width="1" height="1" x="114"/></g><g fill="#fac7d5"><rect x="91" y="58" width="1" height="1"/><rect height="1" x="91" y="68" width="1"/><rect x="55" y="69" width="1" height="1"/><rect x="146" y="84" width="1" height="1"/><rect x="102" y="85" width="1" height="1"/><rect x="90" y="95" width="1" height="1"/><rect width="1" height="1" x="41" y="96"/><rect x="113" y="102" width="1" height="1"/><rect x="124" y="119" width="1" height="1"/><rect y="126" width="1" height="1" x="70"/><rect x="160" y="126" width="1" height="1"/><rect x="112" y="141" width="1" height="1"/></g><g fill="#fcdbe3"><rect x="101" y="60" width="1" height="1"/><rect x="87" y="62" width="1" height="1"/><rect y="72" width="1" height="1" x="130"/><rect height="1" x="139" y="78" width="1"/><rect x="98" y="79" width="1" height="1"/><rect y="80" width="1" height="1" x="70"/><rect x="74" y="83" width="1" height="1"/><rect x="109" y="96" width="1" height="1"/><rect width="1" height="1" x="161" y="105"/><rect width="1" height="1" x="105" y="106"/><rect x="109" y="109" width="1" height="1"/><rect width="1" height="1" x="120" y="113"/><rect width="1" height="1" x="77" y="130"/><rect width="1" height="1" x="79" y="131"/><rect x="143" y="139" width="1" height="1"/></g><g fill="#fbd5df"><rect x="78" y="86" width="1" height="1"/><rect width="1" height="1" x="113" y="112"/></g><g fill="#fbd2dd"><rect x="89" y="65" width="1" height="1"/><rect x="100" y="82" width="1" height="1"/><rect x="82" y="89" width="1" height="1"/><rect x="151" y="89" width="1" height="1"/><rect y="94" width="1" height="1" x="155"/><rect x="111" y="99" width="1" height="1"/><rect height="1" x="43" y="100" width="1"/><rect y="115" width="1" height="1" x="117"/><rect x="122" y="116" width="1" height="1"/><rect x="86" y="134" width="1" height="1"/></g><g fill="#f7acc0"><rect x="104" y="61" width="1" height="1"/><rect x="48" y="65" width="1" height="1"/><rect height="1" x="120" y="67" width="1"/><rect x="95" y="74" width="1" height="1"/><rect x="40" y="75" width="1" height="1"/><rect y="78" width="1" height="1" x="39"/><rect width="1" height="1" x="71" y="81"/><rect height="1" x="106" y="91" width="1"/><rect x="45" y="103" width="1" height="1"/><rect y="103" width="1" height="1" x="160"/><rect x="106" y="107" width="1" height="1"/><rect y="108" width="1" height="1" x="117"/><rect y="109" width="1" height="1" x="162"/><rect x="110" y="110" width="1" height="1"/><rect x="102" y="139" width="1" height="1"/></g><g fill="#f48ea9"><rect x="88" y="63" width="1" height="1"/><rect height="1" x="43" y="70" width="1"/><rect x="99" y="80" width="1" height="1"/><rect x="39" y="89" width="1" height="1"/><rect x="110" y="97" width="1" height="1"/><rect y="114" width="1" height="1" x="121"/><rect width="1" height="1" x="142" y="139"/></g><g fill="#f27596"><rect x="47" y="66" width="1" height="1"/><rect y="79" width="1" height="1" x="39"/><rect height="1" x="68" y="79" width="1"/><rect height="1" x="156" y="96" width="1"/><rect x="103" y="105" width="1" height="1"/><rect x="49" y="108" width="1" height="1"/><rect width="1" height="1" x="149" y="136"/><rect x="147" y="137" width="1" height="1"/><rect x="99" y="138" width="1" height="1"/><rect x="103" y="139" width="1" height="1"/></g><g fill="#f8baca"><rect width="1" height="1" x="93" y="71"/><rect x="63" y="75" width="1" height="1"/><rect y="87" width="1" height="1" x="149"/><rect width="1" height="1" x="104" y="88"/><rect x="98" y="101" width="1" height="1"/><rect x="115" y="105" width="1" height="1"/><rect height="1" x="98" y="138" width="1"/><rect height="1" x="139" y="140" width="1"/><rect x="134" y="141" width="1" height="1"/></g><g fill="#ef5980"><rect x="85" y="58" width="1" height="1"/><rect x="88" y="58" width="1" height="1"/><rect height="1" x="99" y="60" width="1"/><rect x="84" y="91" width="1" height="1"/><rect y="117" width="1" height="1" x="119"/><rect y="141" width="1" height="1" x="116"/><rect x="131" y="141" width="1" height="1"/></g><g fill="#e91e54"><rect x="93" y="59" width="1" height="1"/><rect y="60" width="1" height="1" x="98"/><rect width="1" height="1" x="102" y="61"/><rect x="114" y="65" width="1" height="1"/><rect x="58" y="72" width="1" height="1"/><rect y="83" width="1" height="1" x="144"/><rect x="39" y="86" width="1" height="1"/><rect height="1" x="151" y="90" width="1"/><rect width="1" height="1" x="93" y="98"/><rect height="1" x="65" y="122" width="1"/><rect y="124" width="1" height="1" x="68"/><rect width="1" height="1" x="119" y="141"/><rect x="128" y="141" width="1" height="1"/></g><g fill="#f59cb4"><rect height="1" x="86" y="60" width="1"/><rect width="1" height="1" x="100" y="60"/><rect height="1" x="110" y="63" width="1"/><rect width="1" height="1" x="122" y="68"/><rect x="124" y="69" width="1" height="1"/><rect x="41" y="73" width="1" height="1"/><rect height="1" x="97" y="77" width="1"/><rect x="83" y="90" width="1" height="1"/><rect x="40" y="93" width="1" height="1"/><rect x="108" y="94" width="1" height="1"/><rect x="119" y="111" width="1" height="1"/><rect y="116" width="1" height="1" x="118"/><rect x="72" y="127" width="1" height="1"/><rect x="84" y="133" width="1" height="1"/><rect x="151" y="135" width="1" height="1"/><rect x="145" y="138" width="1" height="1"/></g><g fill="#fffcfd"><rect y="64" width="1" height="1" x="88"/><rect x="114" y="64" width="1" height="1"/><rect x="46" y="66" width="1" height="1"/><rect width="1" height="1" x="121" y="67"/><rect x="127" y="70" width="1" height="1"/><rect x="41" y="72" width="1" height="1"/><rect x="61" y="73" width="1" height="1"/><rect x="65" y="76" width="1" height="1"/><rect width="1" height="1" x="142" y="80"/><rect x="99" y="81" width="1" height="1"/><rect width="1" height="1" x="110" y="98"/><rect height="1" x="158" y="98" width="1"/><rect x="96" y="99" width="1" height="1"/><rect x="100" y="102" width="1" height="1"/><rect x="49" y="109" width="1" height="1"/><rect width="1" height="1" x="121" y="115"/><rect y="117" width="1" height="1" x="57"/><rect y="127" width="1" height="1" x="71"/></g><g fill="#ee537c"><rect width="1" height="1" x="112" y="64"/><rect x="117" y="66" width="1" height="1"/><rect width="1" height="1" x="46" y="67"/><rect x="45" y="68" width="1" height="1"/><rect y="68" width="1" height="1" x="53"/><rect x="129" y="72" width="1" height="1"/><rect x="96" y="75" width="1" height="1"/><rect x="40" y="92" width="1" height="1"/><rect x="107" y="92" width="1" height="1"/><rect x="88" y="94" width="1" height="1"/><rect x="118" y="109" width="1" height="1"/><rect y="111" width="1" height="1" x="162"/><rect width="1" height="1" x="162" y="119"/><rect x="123" y="120" width="1" height="1"/></g><g fill="#fef9fb"><rect width="1" height="1" x="45" y="67"/><rect x="90" y="67" width="1" height="1"/><rect x="44" y="68" width="1" height="1"/><rect height="1" x="123" y="68" width="1"/><rect x="125" y="69" width="1" height="1"/><rect y="73" width="1" height="1" x="132"/><rect width="1" height="1" x="40" y="74"/><rect x="138" y="77" width="1" height="1"/><rect x="69" y="79" width="1" height="1"/><rect width="1" height="1" x="73" y="82"/><rect height="1" x="101" y="84" width="1"/><rect height="1" x="77" y="85" width="1"/><rect x="39" y="91" width="1" height="1"/><rect x="153" y="91" width="1" height="1"/><rect x="156" y="95" width="1" height="1"/><rect x="159" y="100" width="1" height="1"/><rect x="112" y="101" width="1" height="1"/><rect height="1" x="160" y="102" width="1"/><rect y="105" width="1" height="1" x="104"/><rect x="108" y="108" width="1" height="1"/><rect x="112" y="111" width="1" height="1"/><rect x="123" y="118" width="1" height="1"/><rect y="121" width="1" height="1" x="62"/><rect x="162" y="122" width="1" height="1"/><rect x="83" y="133" width="1" height="1"/><rect x="105" y="140" width="1" height="1"/></g><g fill="#ec3e6b"><rect width="1" height="1" x="87" y="58"/><rect x="65" y="77" width="1" height="1"/><rect height="1" x="100" y="103" width="1"/><rect x="160" y="104" width="1" height="1"/><rect x="62" y="120" width="1" height="1"/><rect y="135" width="1" height="1" x="90"/><rect x="93" y="136" width="1" height="1"/><rect x="144" y="138" width="1" height="1"/><rect x="104" y="139" width="1" height="1"/><rect x="141" y="139" width="1" height="1"/><rect height="1" x="109" y="140" width="1"/><rect y="141" width="1" height="1" x="117"/></g><g fill="#f37f9d"><rect x="95" y="59" width="1" height="1"/><rect x="115" y="65" width="1" height="1"/><rect x="90" y="66" width="1" height="1"/><rect width="1" height="1" x="60" y="73"/><rect x="131" y="73" width="1" height="1"/><rect height="1" x="101" y="83" width="1"/><rect y="99" width="1" height="1" x="95"/><rect x="112" y="100" width="1" height="1"/><rect x="123" y="117" width="1" height="1"/><rect x="162" y="120" width="1" height="1"/><rect y="128" width="1" height="1" x="74"/><rect x="82" y="132" width="1" height="1"/><rect x="138" y="140" width="1" height="1"/></g><g fill="#e80f48"><rect x="88" y="62" width="1" height="1"/><rect x="99" y="79" width="1" height="1"/><rect x="39" y="85" width="1" height="1"/><rect x="146" y="85" width="1" height="1"/><rect x="78" y="87" width="1" height="1"/><rect height="1" x="149" y="88" width="1"/><rect x="41" y="94" width="1" height="1"/><rect x="110" y="96" width="1" height="1"/><rect y="113" width="1" height="1" x="113"/><rect x="121" y="113" width="1" height="1"/><rect x="75" y="128" width="1" height="1"/><rect x="81" y="131" width="1" height="1"/><rect height="1" x="148" y="136" width="1"/><rect y="139" width="1" height="1" x="105"/></g><g fill="#ea2257"><rect width="1" height="1" x="86" y="58"/><rect y="66" width="1" height="1" x="50"/><rect x="121" y="68" width="1" height="1"/><rect x="54" y="69" width="1" height="1"/><rect x="123" y="69" width="1" height="1"/><rect y="70" width="1" height="1" x="93"/><rect height="1" x="125" y="70" width="1"/><rect x="41" y="74" width="1" height="1"/><rect x="135" y="76" width="1" height="1"/><rect x="39" y="81" width="1" height="1"/><rect x="104" y="87" width="1" height="1"/><rect x="85" y="92" width="1" height="1"/><rect x="89" y="95" width="1" height="1"/><rect height="1" x="158" y="100" width="1"/><rect x="159" y="102" width="1" height="1"/><rect x="115" y="104" width="1" height="1"/><rect y="105" width="1" height="1" x="47"/><rect width="1" height="1" x="120" y="118"/><rect x="124" y="121" width="2" height="1"/><rect x="126" y="121" width="1" height="1"/><rect y="128" width="1" height="1" x="158"/></g><g fill="#f6a1b7"><rect y="58" width="1" height="1" x="90"/><rect x="126" y="70" width="1" height="1"/><rect x="75" y="84" width="1" height="1"/><rect x="79" y="87" width="1" height="1"/><rect x="158" y="99" width="1" height="1"/><rect x="48" y="107" width="1" height="1"/><rect x="114" y="113" width="1" height="1"/><rect height="1" x="157" y="130" width="1"/><rect x="155" y="132" width="1" height="1"/><rect y="135" width="1" height="1" x="89"/><rect x="113" y="141" width="1" height="1"/></g><g fill="#f06287"><rect x="103" y="61" width="1" height="1"/><rect x="49" y="65" width="1" height="1"/><rect width="1" height="1" x="44" y="69"/><rect x="94" y="72" width="1" height="1"/><rect x="134" y="75" width="1" height="1"/><rect x="76" y="85" width="1" height="1"/><rect x="39" y="88" width="1" height="1"/><rect x="80" y="88" width="1" height="1"/><rect x="105" y="89" width="1" height="1"/><rect x="153" y="92" width="1" height="1"/><rect x="41" y="95" width="1" height="1"/><rect width="1" height="1" x="46" y="104"/><rect x="116" y="106" width="1" height="1"/><rect x="111" y="111" width="1" height="1"/><rect x="115" y="114" width="1" height="1"/><rect x="66" y="123" width="1" height="1"/><rect y="123" width="1" height="1" x="161"/><rect x="159" y="127" width="1" height="1"/><rect y="130" width="1" height="1" x="78"/></g><g fill="#f27a9a"><rect height="1" x="89" y="58" width="1"/><rect x="64" y="76" width="1" height="1"/><rect y="77" width="1" height="1" x="137"/><rect x="141" y="80" width="1" height="1"/><rect x="99" y="102" width="1" height="1"/><rect y="110" width="1" height="1" x="162"/><rect x="63" y="121" width="1" height="1"/><rect x="132" y="141" width="1" height="1"/></g><g fill="#e8154c"><rect x="86" y="59" width="1" height="1"/><rect x="97" y="76" width="1" height="1"/><rect height="1" x="66" y="78" width="1"/><rect x="139" y="79" width="1" height="1"/><rect width="1" height="1" x="70" y="81"/><rect x="39" y="82" width="1" height="1"/><rect x="74" y="84" width="1" height="1"/><rect x="145" y="84" width="1" height="1"/><rect x="150" y="89" width="1" height="1"/><rect y="91" width="1" height="1" x="40"/><rect x="108" y="93" width="1" height="1"/><rect y="104" width="1" height="1" x="101"/><rect height="1" x="105" y="107" width="1"/><rect x="109" y="110" width="1" height="1"/><rect width="1" height="1" x="119" y="110"/><rect height="1" x="162" y="113" width="1"/><rect x="162" y="117" width="1" height="1"/><rect x="161" y="122" width="1" height="1"/><rect x="88" y="134" width="1" height="1"/><rect y="137" width="1" height="1" x="146"/><rect height="1" x="110" y="140" width="1"/><rect x="136" y="140" width="1" height="1"/><rect x="120" y="141" width="1" height="1"/><rect x="127" y="141" width="1" height="1"/></g><g fill="#f595ae"><rect x="107" y="62" width="1" height="1"/><rect x="52" y="67" width="1" height="1"/><rect x="87" y="93" width="1" height="1"/><rect height="1" x="154" y="93" width="1"/><rect width="1" height="1" x="159" y="101"/><rect width="1" height="1" x="59" y="118"/><rect x="122" y="119" width="1" height="1"/><rect width="1" height="1" x="156" y="131"/><rect x="92" y="136" width="1" height="1"/><rect height="1" x="95" y="137" width="1"/><rect x="107" y="140" width="1" height="1"/><rect x="133" y="141" width="1" height="1"/></g><g fill="#e70943"><rect x="108" y="63" width="1" height="1"/><rect x="116" y="66" width="1" height="1"/><rect width="1" height="1" x="92" y="68"/><rect x="55" y="70" width="1" height="1"/><rect x="63" y="76" width="1" height="1"/><rect x="136" y="77" width="1" height="1"/><rect x="39" y="83" width="1" height="1"/><rect y="85" width="1" height="1" x="103"/><rect width="1" height="1" x="90" y="96"/><rect x="156" y="97" width="1" height="1"/><rect x="98" y="102" width="1" height="1"/><rect x="114" y="102" width="1" height="1"/><rect x="161" y="108" width="1" height="1"/><rect x="60" y="118" width="1" height="1"/><rect width="1" height="1" x="125" y="119"/><rect x="64" y="121" width="1" height="1"/><rect x="70" y="125" width="1" height="1"/><rect y="130" width="1" height="1" x="79"/><rect x="91" y="135" width="1" height="1"/><rect x="94" y="136" width="1" height="1"/><rect width="1" height="1" x="121" y="141"/><rect x="126" y="141" width="1" height="1"/></g><g fill="#fef3f6"><rect height="1" x="92" y="70" width="1"/><rect x="143" y="81" width="1" height="1"/><rect y="87" width="1" height="1" x="103"/><rect height="1" x="81" y="88" width="1"/><rect x="114" y="104" width="1" height="1"/><rect x="50" y="110" width="1" height="1"/><rect x="116" y="114" width="1" height="1"/><rect x="56" y="116" width="1" height="1"/><rect x="88" y="135" width="1" height="1"/><rect width="1" height="1" x="97" y="138"/><rect x="146" y="138" width="1" height="1"/><rect width="1" height="1" x="140" y="140"/></g><g fill="#fde6ec"><rect height="1" x="85" y="59" width="1"/><rect y="59" width="1" height="1" x="97"/><rect x="108" y="62" width="1" height="1"/><rect y="65" width="1" height="1" x="116"/><rect x="62" y="74" width="1" height="1"/><rect x="96" y="76" width="1" height="1"/><rect x="66" y="77" width="1" height="1"/><rect width="1" height="1" x="144" y="82"/><rect x="152" y="90" width="1" height="1"/><rect height="1" x="107" y="93" width="1"/><rect x="97" y="100" width="1" height="1"/><rect x="101" y="103" width="1" height="1"/><rect x="118" y="110" width="1" height="1"/><rect x="52" y="112" width="1" height="1"/><rect x="53" y="113" width="1" height="1"/><rect width="1" height="1" x="54" y="114"/><rect x="61" y="120" width="1" height="1"/><rect y="129" width="1" height="1" x="75"/><rect x="153" y="134" width="1" height="1"/><rect x="91" y="136" width="1" height="1"/><rect x="94" y="137" width="1" height="1"/><rect x="148" y="137" width="1" height="1"/><rect width="1" height="1" x="101" y="139"/><rect width="1" height="1" x="135" y="141"/></g><g fill="#f7b1c3"><rect width="1" height="1" x="96" y="59"/><rect x="113" y="64" width="1" height="1"/><rect x="67" y="124" width="1" height="1"/></g><g fill="#e70641"><rect x="87" y="59" width="5" height="1"/><rect y="59" width="1" height="8" x="92"/><rect x="87" y="60" width="10" height="1"/><rect width="1" height="15" x="97" y="60"/><rect x="88" y="61" width="13" height="1"/><rect x="101" y="61" width="1" height="20"/><rect y="62" width="15" height="1" x="89"/><rect height="24" x="104" y="62" width="1"/><rect y="63" width="18" height="1" x="89"/><rect x="107" y="63" width="1" height="28"/><rect y="64" width="20" height="1" x="90"/><rect x="110" y="64" width="1" height="31"/><rect x="91" y="65" width="22" height="1"/><rect width="1" height="35" x="113" y="65"/><rect x="48" y="66" width="1" height="39"/><rect width="1" height="41" x="49" y="66"/><rect x="91" y="66" width="24" height="1"/><rect height="37" x="115" y="66" width="1"/><rect y="67" width="3" height="37" x="47"/><rect width="1" height="41" x="50" y="67"/><rect width="26" height="1" x="92" y="67"/><rect y="67" width="1" height="41" x="118"/><rect x="46" y="68" width="6" height="35"/><rect x="52" y="68" width="1" height="42"/><rect height="1" x="93" y="68" width="27"/><rect x="120" y="68" width="1" height="43"/><rect x="45" y="69" width="8" height="32"/><rect x="53" y="69" width="1" height="42"/><rect x="93" y="69" width="29" height="1"/><rect width="1" height="45" x="122" y="69"/><rect x="44" y="70" width="10" height="30"/><rect x="54" y="70" width="1" height="42"/><rect x="94" y="70" width="30" height="1"/><rect x="124" y="70" width="1" height="47"/><rect x="55" y="71" width="1" height="42"/><rect x="56" y="71" width="1" height="43"/><rect x="94" y="71" width="32" height="1"/><rect x="126" y="71" width="1" height="49"/><rect x="43" y="72" width="14" height="26"/><rect x="57" y="72" width="1" height="43"/><rect height="1" x="95" y="72" width="33"/><rect width="1" height="68" x="128" y="72"/><rect width="17" height="23" x="42" y="73"/><rect x="59" y="73" width="1" height="44"/><rect height="1" x="96" y="73" width="33"/><rect width="1" height="67" x="129" y="73"/><rect x="60" y="74" width="1" height="43"/><rect x="96" y="74" width="35" height="1"/><rect y="74" width="1" height="66" x="131"/><rect x="41" y="75" width="20" height="18"/><rect height="43" x="61" y="75" width="1"/><rect y="75" width="36" height="1" x="97"/><rect y="75" width="1" height="65" x="133"/><rect x="62" y="76" width="1" height="43"/><rect height="1" x="98" y="76" width="36"/><rect x="134" y="76" width="1" height="64"/><rect x="63" y="77" width="1" height="43"/><rect height="43" x="64" y="77" width="1"/><rect x="98" y="77" width="37" height="1"/><rect x="135" y="77" width="1" height="63"/><rect x="40" y="78" width="25" height="12"/><rect x="65" y="78" width="1" height="43"/><rect x="99" y="78" width="38" height="1"/><rect x="137" y="78" width="1" height="61"/><rect x="66" y="79" width="1" height="43"/><rect x="67" y="79" width="1" height="44"/><rect x="100" y="79" width="38" height="1"/><rect x="138" y="79" width="1" height="60"/><rect x="68" y="80" width="1" height="43"/><rect x="100" y="80" width="40" height="1"/><rect x="140" y="80" width="1" height="58"/><rect x="69" y="81" width="1" height="43"/><rect x="101" y="81" width="40" height="1"/><rect x="141" y="81" width="1" height="57"/><rect x="70" y="82" width="1" height="42"/><rect height="43" x="71" y="82" width="1"/><rect x="102" y="82" width="40" height="1"/><rect x="142" y="82" width="1" height="56"/><rect height="43" x="72" y="83" width="1"/><rect height="1" x="102" y="83" width="41"/><rect x="143" y="83" width="1" height="55"/><rect x="39" y="84" width="34" height="1"/><rect width="1" height="42" x="73" y="84"/><rect x="103" y="84" width="41" height="1"/><rect x="144" y="84" width="1" height="53"/><rect height="42" x="74" y="85" width="1"/><rect x="75" y="85" width="1" height="42"/><rect x="105" y="85" width="40" height="3"/><rect width="1" height="52" x="145" y="85"/><rect x="76" y="86" width="1" height="42"/><rect x="104" y="86" width="42" height="1"/><rect x="146" y="86" width="1" height="50"/><rect x="77" y="87" width="1" height="41"/><rect x="147" y="87" width="1" height="49"/><rect y="88" width="1" height="41" x="78"/><rect x="79" y="88" width="1" height="41"/><rect height="1" x="105" y="88" width="43"/><rect x="148" y="88" width="1" height="47"/><rect x="80" y="89" width="1" height="41"/><rect x="106" y="89" width="43" height="1"/><rect y="89" width="1" height="46" x="149"/><rect x="40" y="90" width="41" height="1"/><rect x="81" y="90" width="1" height="40"/><rect x="108" y="90" width="42" height="2"/><rect x="150" y="90" width="1" height="44"/><rect y="91" width="1" height="40" x="82"/><rect x="83" y="91" width="1" height="40"/><rect x="107" y="91" width="44" height="1"/><rect width="1" height="43" x="151" y="91"/><rect x="84" y="92" width="1" height="40"/><rect x="108" y="92" width="44" height="1"/><rect width="1" height="41" x="152" y="92"/><rect x="41" y="93" width="44" height="1"/><rect height="39" x="85" y="93" width="1"/><rect height="1" x="109" y="93" width="44"/><rect y="93" width="1" height="39" x="153"/><rect x="86" y="94" width="1" height="39"/><rect x="87" y="94" width="1" height="39"/><rect x="109" y="94" width="44" height="1"/><rect x="88" y="95" width="1" height="38"/><rect y="95" width="44" height="1" x="110"/><rect height="36" x="154" y="95" width="1"/><rect x="42" y="96" width="47" height="1"/><rect x="89" y="96" width="1" height="38"/><rect height="1" x="111" y="96" width="44"/><rect x="155" y="96" width="1" height="35"/><rect x="58" y="97" width="33" height="19"/><rect y="97" width="1" height="37" x="91"/><rect x="111" y="97" width="44" height="1"/><rect x="43" y="98" width="49" height="1"/><rect x="92" y="98" width="1" height="37"/><rect height="1" x="112" y="98" width="44"/><rect x="156" y="98" width="1" height="32"/><rect x="93" y="99" width="1" height="36"/><rect x="94" y="99" width="1" height="36"/><rect x="114" y="99" width="43" height="2"/><rect x="157" y="99" width="1" height="29"/><rect y="100" width="51" height="1" x="44"/><rect x="95" y="100" width="1" height="36"/><rect x="113" y="100" width="44" height="1"/><rect x="45" y="101" width="51" height="1"/><rect x="96" y="101" width="1" height="35"/><rect x="114" y="101" width="44" height="1"/><rect x="158" y="101" width="1" height="26"/><rect x="97" y="102" width="1" height="34"/><rect y="102" width="42" height="3" x="116"/><rect x="46" y="103" width="53" height="1"/><rect x="99" y="103" width="1" height="34"/><rect height="1" x="115" y="103" width="44"/><rect x="159" y="103" width="1" height="23"/><rect y="104" width="53" height="1" x="47"/><rect x="100" y="104" width="1" height="33"/><rect height="1" x="48" y="105" width="54"/><rect x="102" y="105" width="1" height="33"/><rect x="116" y="105" width="44" height="1"/><rect x="160" y="105" width="1" height="19"/><rect height="3" x="51" y="106" width="52"/><rect x="103" y="106" width="1" height="32"/><rect x="117" y="106" width="43" height="1"/><rect x="49" y="107" width="55" height="1"/><rect x="104" y="107" width="1" height="31"/><rect x="119" y="107" width="41" height="2"/><rect x="50" y="108" width="56" height="1"/><rect height="31" x="106" y="108" width="1"/><rect x="118" y="108" width="42" height="1"/><rect x="51" y="109" width="56" height="1"/><rect x="107" y="109" width="1" height="30"/><rect x="119" y="109" width="42" height="1"/><rect x="161" y="109" width="1" height="12"/><rect x="52" y="110" width="56" height="1"/><rect x="108" y="110" width="1" height="29"/><rect y="110" width="40" height="2" x="121"/><rect x="53" y="111" width="57" height="1"/><rect x="110" y="111" width="1" height="28"/><rect x="120" y="111" width="41" height="1"/><rect x="54" y="112" width="57" height="1"/><rect x="111" y="112" width="1" height="28"/><rect x="121" y="112" width="40" height="1"/><rect height="1" x="55" y="113" width="57"/><rect x="112" y="113" width="1" height="27"/><rect x="123" y="113" width="38" height="2"/><rect x="56" y="114" width="58" height="1"/><rect height="26" x="114" y="114" width="1"/><rect width="40" height="1" x="122" y="114"/><rect width="1" height="2" x="162" y="114"/><rect y="115" width="58" height="1" x="57"/><rect x="115" y="115" width="1" height="25"/><rect x="123" y="115" width="39" height="1"/><rect height="1" x="58" y="116" width="58"/><rect y="116" width="1" height="24" x="116"/><rect x="125" y="116" width="37" height="2"/><rect x="162" y="116" width="1" height="1"/><rect x="59" y="117" width="59" height="1"/><rect x="118" y="117" width="1" height="23"/><rect x="124" y="117" width="37" height="1"/><rect y="118" width="58" height="1" x="61"/><rect x="119" y="118" width="1" height="22"/><rect x="125" y="118" width="36" height="1"/><rect height="1" x="62" y="119" width="58"/><rect height="21" x="120" y="119" width="1"/><rect x="127" y="119" width="34" height="5"/><rect height="1" x="63" y="120" width="59"/><rect x="122" y="120" width="1" height="21"/><rect x="126" y="120" width="35" height="1"/><rect x="65" y="121" width="58" height="1"/><rect y="121" width="1" height="20" x="123"/><rect y="121" width="1" height="1" x="161"/><rect y="122" width="58" height="1" x="66"/><rect x="124" y="122" width="1" height="19"/><rect x="67" y="123" width="93" height="1"/><rect x="69" y="124" width="91" height="1"/><rect y="124" width="1" height="1" x="160"/><rect y="125" width="88" height="1" x="71"/><rect x="72" y="126" width="87" height="1"/><rect y="126" width="1" height="1" x="159"/><rect x="74" y="127" width="84" height="1"/><rect x="158" y="127" width="1" height="1"/><rect x="76" y="128" width="81" height="1"/><rect x="157" y="128" width="1" height="1"/><rect y="129" width="78" height="1" x="78"/><rect x="80" y="130" width="76" height="1"/><rect width="1" height="1" x="156" y="130"/><rect height="1" x="82" y="131" width="73"/><rect x="155" y="131" width="1" height="1"/><rect x="84" y="132" width="69" height="1"/><rect width="1" height="1" x="153" y="132"/><rect x="86" y="133" width="66" height="1"/><rect x="152" y="133" width="1" height="1"/><rect height="1" x="89" y="134" width="62"/><rect x="151" y="134" width="1" height="1"/><rect width="57" height="1" x="92" y="135"/><rect height="1" x="149" y="135" width="1"/><rect x="95" y="136" width="52" height="1"/><rect x="147" y="136" width="1" height="1"/><rect x="98" y="137" width="47" height="1"/><rect width="1" height="1" x="145" y="137"/><rect x="101" y="138" width="42" height="1"/><rect x="143" y="138" width="1" height="1"/><rect y="139" width="33" height="1" x="106"/><rect x="139" y="139" width="1" height="1"/><rect x="111" y="140" width="24" height="1"/><rect x="135" y="140" width="1" height="1"/><rect x="122" y="141" width="3" height="1"/><rect x="125" y="141" width="1" height="1"/></g><g fill="#ed4974"><rect width="1" height="1" x="94" y="59"/><rect x="106" y="62" width="1" height="1"/><rect height="1" x="57" y="71" width="1"/><rect x="40" y="76" width="1" height="1"/><rect x="39" y="80" width="1" height="1"/><rect x="142" y="81" width="1" height="1"/><rect x="92" y="97" width="1" height="1"/><rect height="1" x="50" y="109" width="1"/><rect x="57" y="116" width="1" height="1"/><rect x="152" y="134" width="1" height="1"/><rect x="137" y="140" width="1" height="1"/></g><g fill="#fdeaef"><rect x="111" y="63" width="1" height="1"/><rect x="54" y="68" width="1" height="1"/><rect x="58" y="71" width="1" height="1"/><rect x="94" y="73" width="1" height="1"/><rect x="105" y="90" width="1" height="1"/><rect x="89" y="94" width="1" height="1"/><rect height="1" x="93" y="97" width="1"/><rect x="116" y="107" width="1" height="1"/><rect x="162" y="108" width="1" height="1"/><rect x="51" y="111" width="1" height="1"/><rect x="55" y="115" width="1" height="1"/><rect x="124" y="120" width="1" height="1"/><rect x="81" y="132" width="1" height="1"/><rect x="150" y="136" width="1" height="1"/><rect x="111" y="141" width="1" height="1"/></g><g fill="#f9c0cf"><rect height="1" x="118" y="66" width="1"/><rect y="71" width="1" height="1" x="128"/><rect x="59" y="72" width="1" height="1"/><rect x="133" y="74" width="1" height="1"/><rect x="136" y="76" width="1" height="1"/><rect height="1" x="147" y="85" width="1"/><rect y="88" width="1" height="1" x="150"/><rect x="39" y="90" width="1" height="1"/><rect x="42" y="98" width="1" height="1"/><rect x="94" y="98" width="1" height="1"/><rect y="119" width="1" height="1" x="60"/><rect width="1" height="1" x="162" y="121"/><rect y="122" width="1" height="1" x="64"/><rect x="154" y="133" width="1" height="1"/></g><g fill="#f16e91"><rect x="92" y="69" width="1" height="1"/><rect height="1" x="72" y="82" width="1"/><rect x="103" y="86" width="1" height="1"/><rect width="1" height="1" x="44" y="101"/><rect x="114" y="103" width="1" height="1"/><rect x="107" y="108" width="1" height="1"/><rect x="58" y="117" width="1" height="1"/><rect x="125" y="120" width="1" height="1"/><rect x="69" y="125" width="1" height="1"/><rect y="129" width="1" height="1" x="76"/><rect x="80" y="131" width="1" height="1"/><rect y="134" width="1" height="1" x="87"/><rect x="108" y="140" width="1" height="1"/><rect x="115" y="141" width="1" height="1"/></g><g fill="#e91b51"><rect height="1" x="95" y="73" width="1"/><rect width="1" height="1" x="62" y="75"/><rect y="90" width="1" height="1" x="106"/><rect x="97" y="101" width="1" height="1"/><rect x="45" y="102" width="1" height="1"/><rect x="117" y="107" width="1" height="1"/><rect x="61" y="119" width="1" height="1"/><rect height="1" x="73" y="127" width="1"/><rect x="83" y="132" width="1" height="1"/><rect x="153" y="133" width="1" height="1"/><rect height="1" x="150" y="135" width="1"/></g><g fill="#fff"><rect width="199" height="57" fill="#fff"/><rect x="199" width="1" height="199" fill="#fff"/><rect y="57" width="199" height="1" fill="#fff"/><rect y="58" width="84" height="6" fill="#fff"/><rect y="58" width="1" height="32" fill="#fff" x="84"/><rect x="93" y="58" width="106" height="1" fill="#fff"/><rect x="98" y="59" width="101" height="1" fill="#fff"/><rect x="85" y="60" width="1" height="30" fill="#fff"/><rect x="102" y="60" width="97" height="1" fill="#fff"/><rect x="86" y="61" width="1" height="30" fill="#fff"/><rect x="106" y="61" width="93" height="1" fill="#fff"/><rect x="109" y="62" width="90" height="1" fill="#fff"/><rect y="63" width="1" height="29" fill="#fff" x="87"/><rect x="112" y="63" width="87" height="1" fill="#fff"/><rect y="64" width="87" height="1" fill="#fff"/><rect y="64" width="84" height="1" fill="#fff" x="115"/><rect fill="#fff" y="65" width="47" height="1"/><rect y="65" width="1" height="1" fill="#fff" x="47"/><rect x="51" y="65" width="37" height="1" fill="#fff"/><rect x="88" y="65" width="1" height="28" fill="#fff"/><rect height="1" fill="#fff" x="117" y="65" width="82"/><rect fill="#fff" y="66" width="45" height="1"/><rect x="45" y="66" width="1" height="1" fill="#fff"/><rect height="1" fill="#fff" x="52" y="66" width="37"/><rect x="89" y="66" width="1" height="27" fill="#fff"/><rect height="1" fill="#fff" x="119" y="66" width="80"/><rect height="2" fill="#fff" y="67" width="44"/><rect x="44" y="67" width="1" height="1" fill="#fff"/><rect x="53" y="67" width="36" height="1" fill="#fff"/><rect y="67" width="77" height="1" fill="#fff" x="122"/><rect x="55" y="68" width="35" height="1" fill="#fff"/><rect x="90" y="68" width="1" height="26" fill="#fff"/><rect x="124" y="68" width="75" height="1" fill="#fff"/><rect y="69" width="43" height="1" fill="#fff"/><rect x="43" y="69" width="1" height="1" fill="#fff"/><rect y="69" width="35" height="1" fill="#fff" x="56"/><rect fill="#fff" x="91" y="69" width="1" height="26"/><rect x="126" y="69" width="73" height="1" fill="#fff"/><rect fill="#fff" y="70" width="42" height="1"/><rect x="42" y="70" width="1" height="1" fill="#fff"/><rect height="1" fill="#fff" x="57" y="70" width="34"/><rect width="71" height="1" fill="#fff" x="128" y="70"/><rect fill="#fff" y="71" width="41" height="2"/><rect x="41" y="71" width="1" height="1" fill="#fff"/><rect x="59" y="71" width="33" height="1" fill="#fff"/><rect y="71" width="1" height="25" fill="#fff" x="92"/><rect x="129" y="71" width="70" height="1" fill="#fff"/><rect y="72" width="33" height="1" fill="#fff" x="60"/><rect y="72" width="1" height="24" fill="#fff" x="93"/><rect x="131" y="72" width="68" height="1" fill="#fff"/><rect y="73" width="40" height="3" fill="#fff"/><rect fill="#fff" x="40" y="73" width="1" height="1"/><rect x="62" y="73" width="31" height="1" fill="#fff"/><rect x="133" y="73" width="66" height="1" fill="#fff"/><rect y="74" width="31" height="1" fill="#fff" x="63"/><rect y="74" width="1" height="23" fill="#fff" x="94"/><rect x="134" y="74" width="65" height="1" fill="#fff"/><rect fill="#fff" x="64" y="75" width="31" height="1"/><rect x="95" y="75" width="1" height="23" fill="#fff"/><rect x="136" y="75" width="63" height="1" fill="#fff"/><rect fill="#fff" y="76" width="39" height="123"/><rect width="1" height="1" fill="#fff" x="39" y="76"/><rect fill="#fff" x="66" y="76" width="29" height="1"/><rect fill="#fff" x="137" y="76" width="62" height="1"/><rect fill="#fff" x="67" y="77" width="29" height="1"/><rect y="77" width="1" height="21" fill="#fff" x="96"/><rect height="1" fill="#fff" x="139" y="77" width="60"/><rect fill="#fff" x="68" y="78" width="29" height="1"/><rect x="97" y="78" width="1" height="21" fill="#fff"/><rect width="59" height="1" fill="#fff" x="140" y="78"/><rect x="70" y="79" width="27" height="1" fill="#fff"/><rect fill="#fff" x="141" y="79" width="58" height="1"/><rect x="71" y="80" width="27" height="1" fill="#fff"/><rect y="80" width="1" height="20" fill="#fff" x="98"/><rect fill="#fff" x="143" y="80" width="56" height="1"/><rect width="26" height="1" fill="#fff" x="72" y="81"/><rect x="144" y="81" width="55" height="1" fill="#fff"/><rect x="74" y="82" width="25" height="1" fill="#fff"/><rect x="99" y="82" width="1" height="19" fill="#fff"/><rect x="145" y="82" width="54" height="1" fill="#fff"/><rect fill="#fff" x="75" y="83" width="25" height="1"/><rect x="100" y="83" width="1" height="18" fill="#fff"/><rect x="146" y="83" width="53" height="1" fill="#fff"/><rect x="76" y="84" width="24" height="1" fill="#fff"/><rect y="84" width="52" height="1" fill="#fff" x="147"/><rect x="78" y="85" width="23" height="1" fill="#fff"/><rect width="1" height="17" fill="#fff" x="101" y="85"/><rect x="148" y="85" width="51" height="1" fill="#fff"/><rect x="79" y="86" width="23" height="1" fill="#fff"/><rect height="17" fill="#fff" x="102" y="86" width="1"/><rect y="86" width="50" height="1" fill="#fff" x="149"/><rect fill="#fff" x="80" y="87" width="22" height="1"/><rect height="1" fill="#fff" x="150" y="87" width="49"/><rect y="88" width="21" height="1" fill="#fff" x="82"/><rect x="103" y="88" width="1" height="16" fill="#fff"/><rect x="151" y="88" width="48" height="1" fill="#fff"/><rect x="83" y="89" width="21" height="1" fill="#fff"/><rect x="104" y="89" width="1" height="15" fill="#fff"/><rect x="152" y="89" width="47" height="1" fill="#fff"/><rect x="84" y="90" width="20" height="1" fill="#fff"/><rect x="153" y="90" width="46" height="1" fill="#fff"/><rect x="86" y="91" width="19" height="1" fill="#fff"/><rect x="105" y="91" width="1" height="14" fill="#fff"/><rect y="91" width="45" height="1" fill="#fff" x="154"/><rect y="92" width="1" height="107" fill="#fff" x="39"/><rect x="87" y="92" width="19" height="1" fill="#fff"/><rect x="106" y="92" width="1" height="14" fill="#fff"/><rect x="154" y="92" width="45" height="1" fill="#fff"/><rect fill="#fff" x="88" y="93" width="18" height="1"/><rect width="44" height="1" fill="#fff" x="155" y="93"/><rect x="90" y="94" width="17" height="1" fill="#fff"/><rect fill="#fff" x="107" y="94" width="1" height="13"/><rect x="156" y="94" width="43" height="1" fill="#fff"/><rect x="40" y="95" width="1" height="104" fill="#fff"/><rect height="1" fill="#fff" x="91" y="95" width="17"/><rect x="108" y="95" width="1" height="12" fill="#fff"/><rect x="157" y="95" width="42" height="1" fill="#fff"/><rect y="96" width="16" height="1" fill="#fff" x="92"/><rect height="1" fill="#fff" x="157" y="96" width="42"/><rect x="41" y="97" width="1" height="102" fill="#fff"/><rect x="94" y="97" width="15" height="1" fill="#fff"/><rect width="1" height="11" fill="#fff" x="109" y="97"/><rect x="158" y="97" width="41" height="1" fill="#fff"/><rect width="14" height="1" fill="#fff" x="95" y="98"/><rect x="159" y="98" width="40" height="1" fill="#fff"/><rect x="42" y="99" width="1" height="100" fill="#fff"/><rect width="13" height="1" fill="#fff" x="97" y="99"/><rect x="110" y="99" width="1" height="10" fill="#fff"/><rect height="1" fill="#fff" x="159" y="99" width="40"/><rect x="98" y="100" width="13" height="1" fill="#fff"/><rect x="111" y="100" width="1" height="10" fill="#fff"/><rect y="100" width="39" height="1" fill="#fff" x="160"/><rect y="101" width="1" height="98" fill="#fff" x="43"/><rect fill="#fff" x="99" y="101" width="12" height="1"/><rect y="101" width="39" height="1" fill="#fff" x="160"/><rect x="101" y="102" width="11" height="1" fill="#fff"/><rect x="112" y="102" width="1" height="8" fill="#fff"/><rect x="161" y="102" width="38" height="2" fill="#fff"/><rect x="44" y="103" width="1" height="96" fill="#fff"/><rect width="11" height="1" fill="#fff" x="102" y="103"/><rect width="1" height="8" fill="#fff" x="113" y="103"/><rect x="45" y="104" width="1" height="95" fill="#fff"/><rect height="1" fill="#fff" x="103" y="104" width="10"/><rect height="1" fill="#fff" x="161" y="104" width="38"/><rect height="1" fill="#fff" x="105" y="105" width="9"/><rect x="114" y="105" width="1" height="7" fill="#fff"/><rect fill="#fff" x="162" y="105" width="37" height="2"/><rect x="46" y="106" width="1" height="93" fill="#fff"/><rect x="106" y="106" width="9" height="1" fill="#fff"/><rect width="1" height="7" fill="#fff" x="115" y="106"/><rect height="92" fill="#fff" x="47" y="107" width="1"/><rect width="8" height="1" fill="#fff" x="107" y="107"/><rect x="162" y="107" width="37" height="1" fill="#fff"/><rect y="108" width="1" height="91" fill="#fff" x="48"/><rect y="108" width="7" height="1" fill="#fff" x="109"/><rect x="116" y="108" width="1" height="5" fill="#fff"/><rect width="36" height="91" fill="#fff" x="163" y="108"/><rect x="110" y="109" width="7" height="1" fill="#fff"/><rect x="117" y="109" width="1" height="5" fill="#fff"/><rect x="49" y="110" width="1" height="89" fill="#fff"/><rect x="111" y="110" width="6" height="1" fill="#fff"/><rect x="50" y="111" width="1" height="88" fill="#fff"/><rect width="5" height="1" fill="#fff" x="113" y="111"/><rect width="1" height="4" fill="#fff" x="118" y="111"/><rect y="112" width="1" height="87" fill="#fff" x="51"/><rect height="1" fill="#fff" x="114" y="112" width="5"/><rect width="1" height="4" fill="#fff" x="119" y="112"/><rect height="86" fill="#fff" x="52" y="113" width="1"/><rect height="1" fill="#fff" x="115" y="113" width="4"/><rect width="1" height="85" fill="#fff" x="53" y="114"/><rect x="117" y="114" width="3" height="1" fill="#fff"/><rect y="114" width="1" height="2" fill="#fff" x="120"/><rect x="54" y="115" width="1" height="84" fill="#fff"/><rect fill="#fff" x="118" y="115" width="2" height="1"/><rect width="1" height="83" fill="#fff" x="55" y="116"/><rect width="2" height="1" fill="#fff" x="119" y="116"/><rect x="121" y="116" width="1" height="1" fill="#fff"/><rect height="82" fill="#fff" x="56" y="117" width="1"/><rect width="1" height="1" fill="#fff" x="121" y="117"/><rect y="117" width="1" height="1" fill="#fff" x="122"/><rect width="1" height="81" fill="#fff" x="57" y="118"/><rect x="58" y="118" width="1" height="81" fill="#fff"/><rect x="122" y="118" width="1" height="1" fill="#fff"/><rect fill="#fff" x="59" y="119" width="1" height="80"/><rect width="1" height="1" fill="#fff" x="123" y="119"/><rect fill="#fff" x="60" y="120" width="1" height="79"/><rect x="61" y="121" width="1" height="78" fill="#fff"/><rect x="62" y="122" width="1" height="77" fill="#fff"/><rect x="63" y="122" width="1" height="77" fill="#fff"/><rect x="64" y="123" width="1" height="76" fill="#fff"/><rect fill="#fff" x="162" y="123" width="37" height="76"/><rect x="65" y="124" width="1" height="75" fill="#fff"/><rect x="66" y="124" width="1" height="75" fill="#fff"/><rect x="67" y="125" width="1" height="74" fill="#fff"/><rect x="161" y="125" width="38" height="74" fill="#fff"/><rect x="68" y="126" width="1" height="73" fill="#fff"/><rect x="69" y="126" width="1" height="73" fill="#fff"/><rect x="70" y="127" width="1" height="72" fill="#fff"/><rect x="160" y="127" width="39" height="72" fill="#fff"/><rect x="71" y="128" width="1" height="71" fill="#fff"/><rect x="72" y="128" width="1" height="71" fill="#fff"/><rect height="70" fill="#fff" x="73" y="129" width="1"/><rect x="74" y="129" width="1" height="70" fill="#fff"/><rect x="159" y="129" width="40" height="70" fill="#fff"/><rect width="1" height="69" fill="#fff" x="75" y="130"/><rect width="1" height="69" fill="#fff" x="76" y="130"/><rect width="41" height="69" fill="#fff" x="158" y="130"/><rect y="131" width="1" height="68" fill="#fff" x="77"/><rect y="131" width="1" height="68" fill="#fff" x="78"/><rect y="131" width="42" height="68" fill="#fff" x="157"/><rect y="132" width="1" height="67" fill="#fff" x="79"/><rect x="80" y="132" width="1" height="67" fill="#fff"/><rect x="156" y="132" width="43" height="67" fill="#fff"/><rect width="1" height="66" fill="#fff" x="81" y="133"/><rect fill="#fff" x="82" y="133" width="1" height="66"/><rect fill="#fff" x="155" y="133" width="44" height="66"/><rect width="2" height="65" fill="#fff" x="83" y="134"/><rect x="85" y="134" width="1" height="65" fill="#fff"/><rect fill="#fff" x="154" y="134" width="45" height="65"/><rect y="135" width="1" height="64" fill="#fff" x="86"/><rect x="87" y="135" width="1" height="64" fill="#fff"/><rect fill="#fff" x="152" y="135" width="47" height="64"/><rect x="88" y="136" width="2" height="63" fill="#fff"/><rect x="90" y="136" width="1" height="63" fill="#fff"/><rect width="48" height="63" fill="#fff" x="151" y="136"/><rect y="137" width="2" height="62" fill="#fff" x="91"/><rect x="93" y="137" width="1" height="62" fill="#fff"/><rect y="137" width="50" height="62" fill="#fff" x="149"/><rect x="94" y="138" width="2" height="61" fill="#fff"/><rect height="61" fill="#fff" x="96" y="138" width="1"/><rect x="147" y="138" width="52" height="61" fill="#fff"/><rect y="139" width="3" height="60" fill="#fff" x="97"/><rect fill="#fff" x="100" y="139" width="1" height="60"/><rect fill="#fff" x="144" y="139" width="55" height="60"/><rect y="140" width="3" height="59" fill="#fff" x="101"/><rect x="104" y="140" width="1" height="59" fill="#fff"/><rect x="141" y="140" width="58" height="59" fill="#fff"/><rect y="141" width="5" height="58" fill="#fff" x="105"/><rect x="110" y="141" width="1" height="58" fill="#fff"/><rect width="63" height="58" fill="#fff" x="136" y="141"/><rect x="111" y="142" width="88" height="57" fill="#fff"/><rect y="199" width="199" height="1" fill="#fff"/><rect x="199" y="199" width="1" height="1" fill="#fff"/></g><g fill="#fef1f5"><rect x="92" y="58" width="1" height="1"/><rect x="105" y="61" width="1" height="1"/><rect height="1" x="50" y="65" width="1"/><rect height="1" x="135" y="75" width="1"/><rect x="39" y="77" width="1" height="1"/><rect height="1" x="85" y="91" width="1"/><rect x="40" y="94" width="1" height="1"/><rect x="44" y="102" width="1" height="1"/><rect x="46" y="105" width="1" height="1"/><rect x="120" y="117" width="1" height="1"/><rect x="65" y="123" width="1" height="1"/><rect x="68" y="125" width="1" height="1"/><rect height="1" x="73" y="128" width="1"/><rect x="159" y="128" width="1" height="1"/></g><g fill="#f8b4c6"><rect width="1" height="1" x="67" y="78"/><rect x="140" y="79" width="1" height="1"/><rect height="1" x="148" y="86" width="1"/><rect x="102" y="104" width="1" height="1"/></g></svg>