<?xml version="1.0" encoding="iso-8859-1"?>
<!-- Generator: Adobe Illustrator 21.0.2, SVG Export Plug-In . SVG Version: 6.00 Build 0)  -->
<svg version="1.1" id="Layer_1" xmlns="http://www.w3.org/2000/svg" xmlns:xlink="http://www.w3.org/1999/xlink" x="0px" y="0px"
	 viewBox="0 0 234 196.5" style="enable-background:new 0 0 234 196.5;" xml:space="preserve">
<path style="fill:#00B6F1;" d="M133.922,43.691c9.045-4.699,20.196-1.164,24.901,7.891c4.696,9.061,1.165,20.217-7.9,24.915
	c-9.048,4.695-20.21,1.159-24.906-7.901C121.318,59.535,124.86,48.388,133.922,43.691"/>
<path style="fill:#9FCC3B;" d="M116.091,12.155c5.366-0.782,10.341,2.947,11.102,8.319c0.772,5.359-2.963,10.339-8.319,11.108
	c-5.366,0.764-10.354-2.957-11.108-8.329C106.99,17.886,110.724,12.915,116.091,12.155"/>
<path style="fill:#003046;" d="M211.983,103.28c-4.085-9.071-11.286-15.927-20.29-19.323c-9.004-3.381-18.725-2.892-27.376,1.376
	c-8.658,4.265-15.213,11.818-18.444,21.247c-1.645,4.803-2.035,12.387-2.06,16.864v62.784h4.635c2.752,0,4.085-1.636,4.085-4.26
	v-38.15c3.97,4.824,9.059,8.535,14.927,10.745c9.006,3.388,18.733,2.899,27.392-1.38c8.652-4.26,15.198-11.811,18.435-21.242
	C216.523,122.51,216.056,112.33,211.983,103.28 M205.982,129.19c-2.534,7.389-7.657,13.3-14.437,16.646
	c-6.788,3.349-14.406,3.738-21.455,1.076c-7.051-2.653-11.884-8.022-15.072-15.128c-3.202-7.095-3.572-15.071-1.034-22.453
	c2.533-7.389,6.856-13.301,13.638-16.644c6.779-3.349,14.393-3.73,21.448-1.078c7.048,2.657,12.693,8.029,15.895,15.133
	C208.159,113.834,208.515,121.803,205.982,129.19"/>
<path style="fill:#003046;" d="M89.911,102.363c0-7.311,8.008-11.21,14.249-11.262c6.945-0.062,10.286,1.789,14.129,6.607
	c1.395,1.742,3.036,2.448,5.131,1.101l4.408-2.746c-0.053-0.108-0.086-0.204-0.139-0.308c-2.015-4.004-4.867-6.954-8.371-9.08
	c-4.19-2.529-9.293-3.804-15.158-3.804c-11.048,0-22.968,6.551-22.968,20.256c0,26.793,39.839,13.238,39.839,32.58
	c0,8.063-7.856,12.939-15.418,12.939c-6.605,0-13.016-2.589-17.675-8.386c-1.755-2.024-3.459-1.982-5.542-0.545
	c-0.056,0.042-3.966,2.843-3.966,2.843c0.049,0.094,0.105,0.175,0.152,0.264c2.088,3.78,4.957,6.764,8.365,8.995
	c5.199,3.406,11.649,5.058,18.527,5.058c12.786,0,24.276-7.31,24.276-21.776C129.75,106.622,89.911,121.398,89.911,102.363"/>
<path style="fill:#003046;" d="M40.955,145.176l21.457-57.93c0.574-1.491,1.773-2.533,3.58-2.524h7.239L47.36,150.962l-0.408,1.038
	l-0.179,0.471c-0.58,1.428-1.984,2.571-3.54,2.571h-4.574c-1.565,0-2.968-1.163-3.538-2.571l-0.182-0.471l-0.408-1.038L8.66,84.721
	h7.239c1.807-0.009,3.006,1.033,3.581,2.524l21.457,57.93H40.955z"/>
<path style="fill:#003046;" d="M217.234,158.316c-3.813,0-6.898-3.085-6.898-6.894c0-3.789,3.085-6.874,6.898-6.874
	c3.809,0,6.898,3.085,6.898,6.874C224.132,155.231,221.042,158.316,217.234,158.316z M217.234,145.82
	c-3.051,0-5.527,2.515-5.527,5.602c0,3.107,2.475,5.622,5.527,5.622c3.045,0,5.522-2.516,5.522-5.622
	C222.756,148.335,220.278,145.82,217.234,145.82z M220.715,155.061h-1.632l-1.374-2.646h-1.853v2.628h-1.422v-7.582h3.633
	c1.604,0,2.609,0.968,2.609,2.478c0,1.081-0.625,1.964-1.574,2.304L220.715,155.061z M218.088,151.099
	c0.591,0,1.185-0.307,1.185-1.161c0-0.859-0.459-1.162-1.185-1.162h-2.231v2.323H218.088z"/>
</svg>
