<?xml version="1.0" encoding="UTF-8"?><svg xmlns="http://www.w3.org/2000/svg" version="1.2" baseProfile="tiny" viewBox="0 0 249 60" width="249px" height="60px"><g fill="#49525d"><rect width="1" height="1" x="155" y="12"/><rect x="85" y="19" width="1" height="1"/><rect width="1" height="1" x="106" y="23"/><rect height="1" x="113" y="23" width="1"/><rect x="132" y="23" width="1" height="1"/><rect x="172" y="27" width="1" height="1"/><rect width="1" height="1" x="108" y="33"/><rect width="1" height="1" x="217" y="41"/><rect x="191" y="42" width="1" height="1"/><rect x="105" y="43" width="1" height="1"/><rect x="171" y="43" width="1" height="1"/><rect x="196" y="43" width="1" height="1"/><rect y="47" width="1" height="1" x="109"/><rect x="132" y="47" width="1" height="1"/><rect x="138" y="47" width="1" height="1"/><rect x="209" y="47" width="1" height="1"/></g><g fill="#48505e"><rect y="13" width="1" height="33" x="150"/><rect height="3" x="76" y="15" width="1"/><rect x="76" y="18" width="1" height="1"/><rect height="1" x="167" y="18" width="1"/><rect width="7" height="1" x="77" y="19"/><rect y="19" width="1" height="1" x="84"/><rect x="92" y="19" width="7" height="1"/><rect x="99" y="19" width="1" height="1"/><rect x="159" y="23" width="2" height="1"/><rect height="1" x="161" y="23" width="1"/><rect width="3" height="1" x="168" y="23"/><rect x="171" y="23" width="1" height="1"/><rect y="27" width="1" height="1" x="107"/><rect x="112" y="27" width="1" height="1"/><rect x="144" y="27" width="1" height="1"/><rect x="189" y="27" width="1" height="1"/><rect x="214" y="27" width="1" height="1"/><rect x="182" y="28" width="1" height="1"/><rect y="28" width="1" height="1" x="241"/><rect width="1" height="1" x="191" y="29"/><rect y="30" width="1" height="1" x="140"/><rect x="248" y="30" width="1" height="1"/><rect height="1" x="197" y="31" width="1"/><rect y="33" width="1" height="2" x="146"/><rect height="3" x="200" y="34" width="1"/><rect x="146" y="35" width="1" height="1"/><rect y="37" width="1" height="1" x="200"/><rect x="219" y="38" width="3" height="1"/><rect x="222" y="38" width="1" height="1"/><rect x="175" y="40" width="1" height="1"/><rect x="124" y="41" width="1" height="1"/><rect x="201" y="41" width="1" height="1"/><rect width="1" height="1" x="176" y="42"/><rect x="126" y="44" width="1" height="1"/><rect x="144" y="44" width="1" height="1"/><rect y="44" width="1" height="1" x="203"/><rect x="100" y="45" width="1" height="1"/><rect height="1" x="101" y="46" width="1"/><rect x="129" y="46" width="1" height="1"/><rect x="150" y="46" width="1" height="1"/><rect y="46" width="1" height="1" x="193"/><rect x="206" y="46" width="1" height="1"/><rect x="218" y="46" width="1" height="1"/><rect width="4" height="1" x="86" y="47"/><rect x="90" y="47" width="1" height="1"/><rect x="115" y="47" width="3" height="1"/><rect width="1" height="1" x="118" y="47"/><rect height="1" x="151" y="47" width="3"/><rect width="1" height="1" x="154" y="47"/><rect x="166" y="47" width="1" height="1"/><rect width="3" height="1" x="228" y="47"/><rect x="231" y="47" width="1" height="1"/><rect x="244" y="47" width="3" height="1"/><rect y="47" width="1" height="1" x="247"/></g><g fill="#48525f"><rect x="232" y="13" width="1" height="13"/><rect x="167" y="19" width="1" height="3"/><rect x="167" y="22" width="1" height="1"/><rect x="232" y="26" width="1" height="1"/><rect x="132" y="27" width="1" height="1"/><rect width="1" height="12" x="167" y="28"/><rect width="1" height="1" x="105" y="29"/><rect x="119" y="30" width="1" height="16"/><rect x="206" y="31" width="1" height="1"/><rect x="248" y="31" width="1" height="15"/><rect x="232" y="33" width="1" height="13"/><rect width="1" height="1" x="180" y="38"/><rect x="167" y="40" width="1" height="1"/><rect x="197" y="41" width="1" height="1"/><rect x="145" y="42" width="1" height="1"/><rect x="119" y="46" width="1" height="1"/><rect x="232" y="46" width="1" height="1"/><rect x="248" y="46" width="1" height="1"/></g><g fill="#ff968c"><rect x="23" y="22" width="1" height="1"/><rect x="32" y="23" width="1" height="13"/><rect x="12" y="27" width="1" height="1"/><rect x="28" y="29" width="1" height="1"/><rect x="28" y="30" width="1" height="1"/><rect x="32" y="36" width="1" height="1"/></g><g fill="#4a5060"><rect y="29" width="1" height="1" x="113"/><rect x="112" y="46" width="1" height="1"/></g><rect x="216" y="42" width="1" height="1" fill="#4a525f"/><g fill="#49505c"><rect width="1" height="1" x="227" y="12"/><rect x="76" y="19" width="1" height="1"/><rect x="139" y="23" width="1" height="1"/><rect x="194" y="25" width="1" height="1"/><rect width="1" height="1" x="204" y="25"/><rect width="1" height="1" x="118" y="26"/><rect x="190" y="28" width="1" height="1"/><rect y="31" width="1" height="1" x="123"/><rect x="146" y="36" width="1" height="1"/><rect y="38" width="1" height="1" x="218"/><rect height="1" x="136" y="43" width="1"/><rect width="1" height="1" x="185" y="43"/><rect x="188" y="43" width="1" height="1"/><rect x="202" y="43" width="1" height="1"/><rect x="110" y="47" width="1" height="1"/><rect width="1" height="1" x="119" y="47"/><rect y="47" width="1" height="1" x="150"/><rect width="1" height="1" x="232" y="47"/><rect x="248" y="47" width="1" height="1"/></g><g fill="#49505d"><rect height="1" x="100" y="19" width="1"/><rect width="1" height="1" x="105" y="23"/><rect x="131" y="23" width="1" height="1"/><rect x="172" y="23" width="1" height="1"/><rect height="1" x="183" y="23" width="1"/><rect x="190" y="23" width="1" height="1"/><rect x="208" y="23" width="1" height="1"/><rect x="216" y="23" width="1" height="1"/><rect y="23" width="1" height="1" x="237"/><rect x="245" y="24" width="1" height="1"/><rect x="220" y="25" width="1" height="1"/><rect y="27" width="1" height="1" x="184"/><rect x="211" y="27" width="2" height="1"/><rect width="1" height="1" x="213" y="27"/><rect y="29" width="1" height="1" x="119"/><rect x="197" y="30" width="1" height="1"/><rect x="106" y="33" width="1" height="1"/><rect y="33" width="1" height="1" x="123"/><rect x="103" y="34" width="1" height="1"/><rect y="37" width="1" height="1" x="106"/><rect y="37" width="1" height="1" x="123"/><rect x="200" y="38" width="1" height="1"/><rect height="2" x="104" y="39" width="1"/><rect width="1" height="1" x="223" y="39"/><rect height="1" x="104" y="41" width="1"/><rect x="131" y="42" width="1" height="1"/><rect x="125" y="43" width="1" height="1"/><rect x="133" y="43" width="1" height="1"/><rect x="137" y="43" width="1" height="1"/><rect x="189" y="43" width="1" height="1"/><rect x="211" y="43" width="1" height="1"/><rect x="214" y="43" width="1" height="1"/><rect x="127" y="45" width="1" height="1"/><rect x="143" y="45" width="1" height="1"/><rect x="204" y="45" width="1" height="1"/><rect x="103" y="47" width="1" height="1"/><rect y="47" width="1" height="1" x="114"/><rect x="139" y="47" width="1" height="1"/><rect x="155" y="47" width="1" height="1"/><rect x="216" y="47" width="1" height="1"/><rect x="227" y="47" width="1" height="1"/><rect x="243" y="47" width="1" height="1"/></g><g fill="#fff"><rect x="19" y="22" width="2" height="2" fill="#fff"/><rect fill="#fff" x="21" y="22" width="1" height="2"/><rect width="7" height="1" fill="#fff" x="16" y="23"/><rect width="1" height="2" fill="#fff" x="23" y="23"/><rect x="33" y="23" width="13" height="2" fill="#fff"/><rect x="46" y="23" width="1" height="13" fill="#fff"/><rect x="15" y="24" width="9" height="1" fill="#fff"/><rect x="24" y="24" width="1" height="2" fill="#fff"/><rect width="3" height="1" fill="#fff" x="14" y="25"/><rect x="17" y="25" width="1" height="1" fill="#fff"/><rect x="22" y="25" width="3" height="1" fill="#fff"/><rect x="25" y="25" width="1" height="9" fill="#fff"/><rect height="1" fill="#fff" x="33" y="25" width="13"/><rect x="14" y="26" width="2" height="2" fill="#fff"/><rect x="16" y="26" width="1" height="1" fill="#fff"/><rect fill="#fff" x="24" y="26" width="2" height="1"/><rect width="1" height="7" fill="#fff" x="26" y="26"/><rect height="10" fill="#fff" x="33" y="26" width="2"/><rect fill="#fff" x="35" y="26" width="1" height="10"/><rect x="45" y="26" width="1" height="10" fill="#fff"/><rect x="13" y="27" width="2" height="5" fill="#fff"/><rect x="15" y="28" width="1" height="1" fill="#fff"/><rect x="27" y="28" width="1" height="3" fill="#fff"/><rect fill="#fff" x="15" y="31" width="1" height="4"/><rect height="1" fill="#fff" x="27" y="31" width="1"/><rect y="32" width="2" height="1" fill="#fff" x="13"/><rect x="14" y="33" width="2" height="1" fill="#fff"/><rect y="33" width="1" height="3" fill="#fff" x="16"/><rect x="24" y="33" width="2" height="1" fill="#fff"/><rect width="1" height="1" fill="#fff" x="26" y="33"/><rect x="14" y="34" width="3" height="1" fill="#fff"/><rect x="17" y="34" width="1" height="2" fill="#fff"/><rect width="3" height="1" fill="#fff" x="22" y="34"/><rect y="34" width="1" height="1" fill="#fff" x="25"/><rect x="36" y="34" width="10" height="2" fill="#fff"/><rect x="15" y="35" width="9" height="1" fill="#fff"/><rect y="35" width="1" height="1" fill="#fff" x="24"/><rect x="16" y="36" width="7" height="1" fill="#fff"/><rect x="23" y="36" width="1" height="1" fill="#fff"/><rect x="33" y="36" width="13" height="1" fill="#fff"/><rect height="1" fill="#fff" x="46" y="36" width="1"/><rect x="19" y="37" width="2" height="1" fill="#fff"/><rect x="21" y="37" width="1" height="1" fill="#fff"/></g><g fill="#4a5263"><rect width="1" height="1" x="248" y="28"/><rect x="206" y="37" width="1" height="1"/><rect x="129" y="38" width="1" height="1"/><rect x="173" y="43" width="1" height="3"/><rect x="173" y="46" width="1" height="1"/></g><rect height="1" fill="#ff8c80" x="24" y="29" width="1"/><rect height="1" fill="#ff8275" x="28" y="31" width="1"/><g fill="#fff5f4"><rect x="18" y="22" width="1" height="1"/><rect x="18" y="25" width="1" height="1"/><rect height="1" x="13" y="26" width="1"/><rect x="24" y="27" width="1" height="1"/><rect height="1" x="13" y="33" width="1"/><rect x="25" y="35" width="1" height="1"/></g><g fill="#ffcbc5"><rect x="47" y="22" width="1" height="1"/><rect x="12" y="28" width="1" height="1"/><rect height="1" x="12" y="31" width="1"/></g><g fill="#ff6d5e"><rect y="23" width="1" height="1" x="25"/><rect x="12" y="26" width="1" height="1"/><rect width="1" height="1" x="22" y="26"/><rect x="36" y="26" width="1" height="7"/><rect x="23" y="27" width="1" height="1"/><rect x="16" y="28" width="1" height="1"/><rect height="1" x="23" y="32" width="1"/><rect x="36" y="33" width="1" height="1"/><rect x="27" y="34" width="1" height="1"/><rect x="16" y="37" width="1" height="1"/><rect x="20" y="38" width="1" height="1"/></g><g fill="#ffc0ba"><rect x="14" y="24" width="1" height="1"/><rect x="19" y="25" width="1" height="1"/><rect x="16" y="27" width="1" height="1"/><rect x="24" y="31" width="1" height="1"/><rect x="27" y="33" width="1" height="1"/><rect x="14" y="35" width="1" height="1"/><rect height="1" x="17" y="37" width="1"/></g><g fill="#48535e"><rect height="1" x="221" y="26" width="1"/><rect x="130" y="41" width="1" height="1"/><rect x="168" y="42" width="1" height="1"/></g><rect x="19" y="34" width="1" height="1" fill="#ffcbc6"/><rect height="1" fill="#ffaca3" x="15" y="36" width="1"/><g fill="#49515d"><rect height="1" x="163" y="18" width="3"/><rect x="166" y="18" width="1" height="1"/><rect width="1" height="26" x="91" y="20"/><rect height="1" x="137" y="23" width="1"/><rect x="189" y="23" width="1" height="1"/><rect y="23" width="1" height="1" x="209"/><rect x="215" y="23" width="1" height="1"/><rect width="1" height="1" x="242" y="23"/><rect y="24" width="1" height="1" x="218"/><rect x="235" y="24" width="1" height="1"/><rect height="1" x="102" y="25" width="1"/><rect x="179" y="25" width="1" height="1"/><rect height="1" x="143" y="26" width="1"/><rect x="210" y="27" width="1" height="1"/><rect x="239" y="27" width="1" height="1"/><rect x="247" y="27" width="1" height="1"/><rect x="100" y="28" width="1" height="1"/><rect x="217" y="29" width="1" height="1"/><rect x="129" y="30" width="1" height="1"/><rect x="175" y="31" width="1" height="1"/><rect x="192" y="31" width="1" height="1"/><rect x="232" y="32" width="1" height="1"/><rect x="123" y="34" width="1" height="2"/><rect y="36" width="1" height="1" x="109"/><rect x="123" y="36" width="1" height="1"/><rect x="218" y="39" width="1" height="1"/><rect x="129" y="40" width="1" height="1"/><rect y="43" width="1" height="1" x="99"/><rect x="111" y="43" width="1" height="1"/><rect y="43" width="1" height="1" x="132"/><rect y="43" width="1" height="1" x="138"/><rect x="169" y="43" width="1" height="1"/><rect x="91" y="46" width="1" height="1"/><rect height="1" x="141" y="46" width="1"/><rect width="1" height="1" x="104" y="47"/><rect x="184" y="47" width="1" height="1"/><rect x="189" y="47" width="1" height="1"/></g><g fill="#ff6252"><rect x="19" y="21" width="1" height="1"/><rect x="27" y="25" width="1" height="1"/><rect height="1" x="18" y="26" width="1"/><rect x="28" y="27" width="1" height="1"/><rect x="16" y="31" width="1" height="1"/><rect y="33" width="1" height="1" x="12"/><rect x="24" y="37" width="1" height="1"/><rect width="1" height="1" x="19" y="38"/></g><g fill="#fff5f3"><rect x="25" y="24" width="1" height="1"/><rect x="26" y="25" width="1" height="1"/><rect x="27" y="27" width="1" height="1"/><rect x="27" y="32" width="1" height="1"/></g><g fill="#ff776a"><rect x="22" y="33" width="1" height="1"/><rect x="26" y="35" width="1" height="1"/><rect height="1" x="25" y="36" width="1"/><rect x="32" y="37" width="1" height="1"/></g><g fill="#49505e"><rect y="13" width="1" height="33" x="227"/><rect y="19" width="1" height="3" x="162"/><rect width="1" height="1" x="162" y="22"/><rect x="113" y="28" width="1" height="1"/><rect y="28" width="1" height="13" x="162"/><rect x="216" y="28" width="1" height="1"/><rect width="1" height="1" x="222" y="28"/><rect height="1" x="145" y="29" width="1"/><rect x="242" y="29" width="1" height="1"/><rect width="1" height="1" x="114" y="31"/><rect x="114" y="32" width="1" height="1"/><rect x="123" y="32" width="1" height="1"/><rect width="1" height="1" x="180" y="32"/><rect x="192" y="32" width="1" height="1"/><rect x="243" y="32" width="1" height="14"/><rect x="200" y="33" width="1" height="1"/><rect x="114" y="37" width="1" height="1"/><rect width="1" height="1" x="180" y="37"/><rect x="114" y="38" width="1" height="1"/><rect y="38" width="1" height="1" x="123"/><rect y="39" width="1" height="1" x="206"/><rect x="192" y="40" width="1" height="1"/><rect x="162" y="41" width="1" height="1"/><rect y="43" width="1" height="1" x="162"/><rect x="114" y="45" width="1" height="1"/><rect x="163" y="45" width="1" height="1"/><rect height="1" x="114" y="46" width="1"/><rect height="1" x="164" y="46" width="1"/><rect x="227" y="46" width="1" height="1"/><rect width="1" height="1" x="243" y="46"/><rect x="172" y="47" width="1" height="1"/><rect x="183" y="47" width="1" height="1"/><rect x="190" y="47" width="1" height="1"/></g><g fill="#48505c"><rect x="77" y="14" width="23" height="1"/><rect height="1" x="100" y="14" width="1"/><rect x="182" y="23" width="1" height="1"/><rect x="236" y="23" width="1" height="1"/><rect x="195" y="26" width="1" height="1"/><rect x="247" y="26" width="1" height="1"/><rect x="111" y="27" width="1" height="1"/><rect x="133" y="27" width="1" height="1"/><rect x="188" y="27" width="1" height="1"/><rect x="119" y="28" width="1" height="1"/><rect x="131" y="28" width="1" height="1"/><rect height="1" x="235" y="28" width="1"/><rect x="105" y="30" width="1" height="1"/><rect x="181" y="30" width="1" height="1"/><rect height="1" x="217" y="30" width="1"/><rect x="223" y="30" width="1" height="1"/><rect width="1" height="1" x="233" y="30"/><rect x="242" y="30" width="1" height="1"/><rect x="140" y="31" width="1" height="1"/><rect width="1" height="1" x="146" y="31"/><rect width="1" height="1" x="105" y="33"/><rect x="174" y="34" width="1" height="2"/><rect x="174" y="36" width="1" height="1"/><rect x="206" y="38" width="1" height="1"/><rect height="1" x="223" y="38" width="1"/><rect y="39" width="1" height="1" x="200"/><rect x="146" y="40" width="1" height="1"/><rect height="1" x="181" y="40" width="1"/><rect y="42" width="1" height="1" x="197"/><rect y="43" width="1" height="1" x="106"/><rect height="1" x="134" y="43" width="1"/><rect x="135" y="43" width="1" height="1"/><rect x="186" y="43" width="1" height="1"/><rect y="43" width="1" height="1" x="187"/><rect x="99" y="44" width="1" height="1"/><rect x="162" y="44" width="1" height="1"/><rect x="182" y="47" width="1" height="1"/><rect y="47" width="1" height="1" x="191"/></g><g fill="#ffd5d1"><rect width="1" height="1" x="22" y="22"/><rect x="33" y="22" width="13" height="1"/><rect width="1" height="1" x="46" y="22"/><rect x="21" y="25" width="1" height="1"/><rect height="7" x="44" y="26" width="1"/><rect y="33" width="1" height="1" x="44"/><rect width="1" height="1" x="21" y="34"/><rect y="37" width="1" height="1" x="22"/></g><g fill="#ffeae8"><rect width="1" height="1" x="24" y="23"/><rect height="13" x="47" y="23" width="1"/><rect x="23" y="26" width="1" height="1"/><rect x="15" y="29" width="1" height="1"/><rect y="30" width="1" height="1" x="12"/><rect x="15" y="30" width="1" height="1"/><rect x="24" y="32" width="1" height="1"/><rect width="1" height="1" x="23" y="33"/><rect x="18" y="34" width="1" height="1"/><rect y="34" width="1" height="1" x="26"/><rect width="1" height="1" x="24" y="36"/><rect height="1" x="47" y="36" width="1"/><rect x="18" y="37" width="1" height="1"/></g><g fill="#4b535e"><rect x="127" y="25" width="1" height="1"/><rect x="203" y="26" width="1" height="1"/><rect width="1" height="1" x="139" y="42"/></g><rect x="12" y="29" width="1" height="1" fill="#ffe0dd"/><g fill="#4a535e"><rect width="1" height="1" x="101" y="35"/><rect x="112" y="42" width="1" height="1"/></g><g fill="#49515e"><rect x="151" y="13" width="3" height="33"/><rect x="154" y="13" width="1" height="33"/><rect x="155" y="13" width="1" height="33"/><rect height="33" x="228" y="13" width="3"/><rect x="231" y="13" width="1" height="33"/><rect x="77" y="15" width="22" height="3"/><rect height="3" x="99" y="15" width="1"/><rect x="100" y="15" width="1" height="3"/><rect x="77" y="18" width="22" height="1"/><rect x="99" y="18" width="1" height="1"/><rect x="100" y="18" width="1" height="1"/><rect width="4" height="27" x="86" y="19"/><rect x="90" y="19" width="1" height="27"/><rect y="19" width="1" height="1" x="91"/><rect x="163" y="19" width="3" height="25"/><rect x="166" y="19" width="1" height="27"/><rect height="1" x="107" y="23" width="1"/><rect x="108" y="23" width="3" height="3"/><rect x="111" y="23" width="1" height="3"/><rect height="1" x="112" y="23" width="1"/><rect x="133" y="23" width="1" height="1"/><rect y="23" width="1" height="3" x="134"/><rect y="23" width="1" height="3" x="135"/><rect height="1" x="136" y="23" width="1"/><rect x="162" y="23" width="1" height="1"/><rect y="23" width="1" height="1" x="167"/><rect x="184" y="23" width="1" height="1"/><rect height="1" x="185" y="23" width="1"/><rect x="186" y="23" width="1" height="3"/><rect x="187" y="23" width="1" height="3"/><rect x="188" y="23" width="1" height="1"/><rect x="210" y="23" width="1" height="1"/><rect x="211" y="23" width="2" height="3"/><rect x="213" y="23" width="1" height="3"/><rect x="214" y="23" width="1" height="1"/><rect x="238" y="23" width="1" height="1"/><rect x="239" y="23" width="2" height="1"/><rect height="1" x="241" y="23" width="1"/><rect width="1" height="1" x="104" y="24"/><rect x="105" y="24" width="9" height="2"/><rect height="5" x="114" y="24" width="1"/><rect width="1" height="1" x="115" y="24"/><rect x="130" y="24" width="9" height="2"/><rect x="139" y="24" width="1" height="3"/><rect x="140" y="24" width="1" height="1"/><rect width="12" height="2" x="159" y="24"/><rect x="171" y="24" width="1" height="2"/><rect x="172" y="24" width="1" height="2"/><rect x="181" y="24" width="1" height="1"/><rect x="182" y="24" width="9" height="2"/><rect y="24" width="1" height="4" x="191"/><rect x="207" y="24" width="10" height="2"/><rect x="217" y="24" width="1" height="4"/><rect y="24" width="7" height="2" x="236"/><rect y="24" width="1" height="7" x="243"/><rect x="244" y="24" width="1" height="1"/><rect height="1" x="103" y="25" width="13"/><rect width="1" height="21" x="116" y="25"/><rect x="128" y="25" width="1" height="1"/><rect height="1" x="129" y="25" width="12"/><rect x="141" y="25" width="1" height="10"/><rect x="180" y="25" width="12" height="1"/><rect x="192" y="25" width="1" height="4"/><rect height="1" x="193" y="25" width="1"/><rect x="205" y="25" width="1" height="1"/><rect x="206" y="25" width="13" height="1"/><rect x="219" y="25" width="1" height="5"/><rect x="234" y="25" width="1" height="1"/><rect x="235" y="25" width="10" height="1"/><rect x="245" y="25" width="1" height="21"/><rect x="102" y="26" width="15" height="1"/><rect width="1" height="20" x="117" y="26"/><rect x="127" y="26" width="15" height="1"/><rect x="142" y="26" width="1" height="9"/><rect height="1" x="159" y="26" width="12"/><rect x="171" y="26" width="1" height="1"/><rect y="26" width="1" height="1" x="172"/><rect x="178" y="26" width="1" height="1"/><rect height="1" x="179" y="26" width="15"/><rect width="1" height="9" x="194" y="26"/><rect x="204" y="26" width="16" height="1"/><rect height="4" x="220" y="26" width="1"/><rect height="1" x="233" y="26" width="1"/><rect x="234" y="26" width="12" height="1"/><rect x="246" y="26" width="1" height="20"/><rect x="101" y="27" width="4" height="2"/><rect height="1" x="105" y="27" width="1"/><rect width="1" height="1" x="106" y="27"/><rect height="1" x="113" y="27" width="4"/><rect x="118" y="27" width="1" height="1"/><rect width="5" height="1" x="126" y="27"/><rect x="131" y="27" width="1" height="1"/><rect x="138" y="27" width="1" height="1"/><rect y="27" width="4" height="1" x="139"/><rect x="143" y="27" width="1" height="8"/><rect width="1" height="1" x="162" y="27"/><rect y="27" width="1" height="1" x="167"/><rect x="177" y="27" width="1" height="1"/><rect x="178" y="27" width="4" height="1"/><rect width="1" height="1" x="182" y="27"/><rect x="183" y="27" width="1" height="1"/><rect width="4" height="1" x="190" y="27"/><rect y="27" width="1" height="1" x="195"/><rect y="27" width="6" height="1" x="203"/><rect x="209" y="27" width="1" height="1"/><rect x="215" y="27" width="1" height="1"/><rect height="1" x="216" y="27" width="4"/><rect height="1" x="221" y="27" width="1"/><rect x="232" y="27" width="1" height="1"/><rect y="27" width="2" height="1" x="233"/><rect x="235" y="27" width="1" height="1"/><rect width="1" height="1" x="236" y="27"/><rect x="240" y="27" width="1" height="1"/><rect x="241" y="27" width="5" height="1"/><rect x="105" y="28" width="1" height="1"/><rect y="28" width="3" height="18" x="115"/><rect x="118" y="28" width="1" height="18"/><rect x="125" y="28" width="1" height="1"/><rect x="126" y="28" width="3" height="7"/><rect x="129" y="28" width="1" height="1"/><rect width="1" height="1" x="130" y="28"/><rect x="139" y="28" width="1" height="1"/><rect x="140" y="28" width="3" height="1"/><rect x="144" y="28" width="1" height="1"/><rect y="28" width="4" height="2" x="177"/><rect width="1" height="1" x="181" y="28"/><rect x="191" y="28" width="4" height="1"/><rect y="28" width="1" height="7" x="195"/><rect height="1" x="202" y="28" width="1"/><rect y="28" width="4" height="2" x="203"/><rect x="207" y="28" width="1" height="1"/><rect x="208" y="28" width="1" height="1"/><rect x="217" y="28" width="4" height="1"/><rect y="28" width="1" height="2" x="221"/><rect x="232" y="28" width="1" height="2"/><rect x="233" y="28" width="1" height="1"/><rect width="1" height="1" x="234" y="28"/><rect height="1" x="242" y="28" width="5"/><rect width="1" height="18" x="247" y="28"/><rect x="100" y="29" width="4" height="1"/><rect x="104" y="29" width="1" height="1"/><rect height="1" x="114" y="29" width="4"/><rect x="125" y="29" width="4" height="6"/><rect x="129" y="29" width="1" height="1"/><rect y="29" width="1" height="1" x="140"/><rect x="144" y="29" width="1" height="6"/><rect width="1" height="1" x="176" y="29"/><rect x="181" y="29" width="1" height="1"/><rect height="1" x="192" y="29" width="4"/><rect width="1" height="6" x="196" y="29"/><rect width="4" height="12" x="202" y="29"/><rect width="1" height="1" x="207" y="29"/><rect y="29" width="3" height="1" x="218"/><rect width="1" height="1" x="222" y="29"/><rect x="233" y="29" width="1" height="1"/><rect x="244" y="29" width="3" height="17"/><rect y="30" width="4" height="1" x="100"/><rect x="104" y="30" width="1" height="1"/><rect y="30" width="1" height="1" x="114"/><rect x="124" y="30" width="1" height="1"/><rect x="145" y="30" width="1" height="1"/><rect x="176" y="30" width="4" height="10"/><rect x="180" y="30" width="1" height="1"/><rect x="192" y="30" width="1" height="1"/><rect x="193" y="30" width="3" height="5"/><rect y="30" width="1" height="1" x="201"/><rect y="30" width="1" height="1" x="206"/><rect x="218" y="30" width="4" height="1"/><rect x="222" y="30" width="1" height="1"/><rect x="232" y="30" width="1" height="1"/><rect width="4" height="8" x="124" y="31"/><rect x="145" y="31" width="1" height="4"/><rect x="180" y="31" width="1" height="1"/><rect height="8" x="201" y="31" width="4"/><rect x="218" y="31" width="1" height="1"/><rect x="219" y="31" width="3" height="1"/><rect x="222" y="31" width="1" height="1"/><rect x="232" y="31" width="1" height="1"/><rect width="4" height="1" x="243" y="31"/><rect x="175" y="32" width="4" height="6"/><rect x="197" y="32" width="1" height="1"/><rect x="109" y="33" width="1" height="1"/><rect width="3" height="1" x="110" y="33"/><rect x="113" y="33" width="1" height="1"/><rect x="114" y="33" width="4" height="2"/><rect x="129" y="33" width="16" height="2"/><rect x="180" y="33" width="17" height="2"/><rect width="1" height="2" x="197" y="33"/><rect height="1" x="104" y="34" width="1"/><rect x="105" y="34" width="13" height="1"/><rect x="102" y="35" width="16" height="1"/><rect y="35" width="17" height="1" x="128"/><rect x="145" y="35" width="1" height="1"/><rect x="180" y="35" width="17" height="1"/><rect width="1" height="1" x="197" y="35"/><rect y="36" width="6" height="1" x="101"/><rect x="107" y="36" width="1" height="1"/><rect x="108" y="36" width="1" height="1"/><rect height="1" x="114" y="36" width="1"/><rect x="128" y="36" width="1" height="1"/><rect y="36" width="1" height="1" x="180"/><rect x="100" y="37" width="4" height="7"/><rect x="104" y="37" width="1" height="1"/><rect height="1" x="105" y="37" width="1"/><rect x="128" y="37" width="1" height="1"/><rect x="99" y="38" width="1" height="1"/><rect x="104" y="38" width="1" height="1"/><rect x="128" y="38" width="1" height="7"/><rect y="38" width="4" height="1" x="175"/><rect x="99" y="39" width="4" height="3"/><rect x="114" y="39" width="1" height="1"/><rect x="124" y="39" width="4" height="1"/><rect x="175" y="39" width="1" height="1"/><rect x="180" y="39" width="1" height="1"/><rect x="201" y="39" width="4" height="1"/><rect x="219" y="39" width="3" height="3"/><rect x="222" y="39" width="1" height="1"/><rect x="114" y="40" width="4" height="3"/><rect width="1" height="1" x="124" y="40"/><rect height="1" x="125" y="40" width="3"/><rect x="141" y="40" width="4" height="3"/><rect height="1" x="145" y="40" width="1"/><rect x="176" y="40" width="4" height="1"/><rect width="1" height="5" x="180" y="40"/><rect x="193" y="40" width="3" height="3"/><rect height="2" x="196" y="40" width="1"/><rect x="197" y="40" width="1" height="1"/><rect x="201" y="40" width="1" height="1"/><rect x="206" y="40" width="1" height="1"/><rect x="218" y="40" width="4" height="2"/><rect width="1" height="1" x="222" y="40"/><rect x="125" y="41" width="4" height="1"/><rect height="4" x="129" y="41" width="1"/><rect x="145" y="41" width="1" height="1"/><rect x="167" y="41" width="1" height="1"/><rect x="176" y="41" width="1" height="1"/><rect x="177" y="41" width="3" height="1"/><rect x="181" y="41" width="1" height="1"/><rect x="192" y="41" width="1" height="1"/><rect x="202" y="41" width="4" height="1"/><rect x="206" y="41" width="1" height="4"/><rect height="1" x="222" y="41" width="1"/><rect width="4" height="1" x="99" y="42"/><rect x="104" y="42" width="1" height="1"/><rect x="113" y="42" width="5" height="1"/><rect height="1" x="125" y="42" width="1"/><rect x="126" y="42" width="3" height="1"/><rect x="130" y="42" width="1" height="1"/><rect x="140" y="42" width="4" height="2"/><rect x="162" y="42" width="1" height="1"/><rect y="42" width="1" height="4" x="167"/><rect x="177" y="42" width="4" height="1"/><rect y="42" width="1" height="3" x="181"/><rect height="1" x="182" y="42" width="1"/><rect y="42" width="4" height="1" x="192"/><rect width="1" height="1" x="196" y="42"/><rect x="202" y="42" width="1" height="1"/><rect x="203" y="42" width="4" height="1"/><rect x="207" y="42" width="1" height="4"/><rect x="217" y="42" width="4" height="1"/><rect x="221" y="42" width="1" height="1"/><rect height="3" x="104" y="43" width="1"/><rect y="43" width="6" height="1" x="112"/><rect x="126" y="43" width="5" height="1"/><rect x="131" y="43" width="1" height="3"/><rect height="1" x="139" y="43" width="5"/><rect width="1" height="1" x="144" y="43"/><rect x="168" y="43" width="1" height="3"/><rect height="1" x="172" y="43" width="1"/><rect x="177" y="43" width="1" height="1"/><rect y="43" width="5" height="1" x="178"/><rect x="183" y="43" width="1" height="3"/><rect y="43" width="1" height="1" x="190"/><rect x="191" y="43" width="4" height="1"/><rect width="1" height="1" x="195" y="43"/><rect x="203" y="43" width="5" height="1"/><rect x="208" y="43" width="1" height="3"/><rect x="209" y="43" width="1" height="1"/><rect x="215" y="43" width="1" height="1"/><rect x="216" y="43" width="4" height="1"/><rect x="220" y="43" width="1" height="1"/><rect y="43" width="1" height="1" x="221"/><rect height="1" x="100" y="44" width="13"/><rect x="113" y="44" width="5" height="1"/><rect x="127" y="44" width="16" height="1"/><rect x="143" y="44" width="1" height="1"/><rect x="163" y="44" width="9" height="1"/><rect x="172" y="44" width="1" height="2"/><rect y="44" width="1" height="1" x="178"/><rect x="179" y="44" width="15" height="1"/><rect x="194" y="44" width="1" height="1"/><rect x="195" y="44" width="1" height="1"/><rect width="15" height="1" x="204" y="44"/><rect x="219" y="44" width="1" height="1"/><rect x="220" y="44" width="1" height="1"/><rect x="101" y="45" width="10" height="1"/><rect y="45" width="1" height="1" x="111"/><rect x="112" y="45" width="1" height="1"/><rect x="128" y="45" width="13" height="1"/><rect width="1" height="1" x="141" y="45"/><rect width="1" height="1" x="142" y="45"/><rect x="164" y="45" width="8" height="1"/><rect x="179" y="45" width="1" height="1"/><rect x="180" y="45" width="13" height="1"/><rect width="1" height="1" x="193" y="45"/><rect height="1" x="194" y="45" width="1"/><rect x="205" y="45" width="1" height="1"/><rect x="206" y="45" width="12" height="1"/><rect x="218" y="45" width="1" height="1"/><rect x="219" y="45" width="1" height="1"/><rect width="4" height="1" x="86" y="46"/><rect x="90" y="46" width="1" height="1"/><rect x="102" y="46" width="8" height="1"/><rect height="1" x="110" y="46" width="1"/><rect height="1" x="111" y="46" width="1"/><rect y="46" width="3" height="1" x="115"/><rect width="1" height="1" x="118" y="46"/><rect x="130" y="46" width="10" height="1"/><rect x="140" y="46" width="1" height="1"/><rect y="46" width="3" height="1" x="151"/><rect width="1" height="1" x="154" y="46"/><rect x="155" y="46" width="1" height="1"/><rect x="165" y="46" width="7" height="1"/><rect x="172" y="46" width="1" height="1"/><rect x="181" y="46" width="1" height="1"/><rect x="182" y="46" width="9" height="1"/><rect width="1" height="1" x="191" y="46"/><rect width="1" height="1" x="192" y="46"/><rect x="207" y="46" width="9" height="1"/><rect y="46" width="1" height="1" x="216"/><rect x="217" y="46" width="1" height="1"/><rect x="228" y="46" width="3" height="1"/><rect width="1" height="1" x="231" y="46"/><rect width="3" height="1" x="244" y="46"/><rect y="46" width="1" height="1" x="247"/><rect x="105" y="47" width="1" height="1"/><rect x="106" y="47" width="1" height="1"/><rect x="107" y="47" width="1" height="1"/><rect x="108" y="47" width="1" height="1"/><rect x="133" y="47" width="1" height="1"/><rect width="1" height="1" x="134" y="47"/><rect x="135" y="47" width="1" height="1"/><rect x="136" y="47" width="1" height="1"/><rect x="137" y="47" width="1" height="1"/><rect x="167" y="47" width="1" height="1"/><rect y="47" width="1" height="1" x="168"/><rect y="47" width="1" height="1" x="169"/><rect x="170" y="47" width="1" height="1"/><rect y="47" width="1" height="1" x="171"/><rect x="185" y="47" width="1" height="1"/><rect x="186" y="47" width="1" height="1"/><rect height="1" x="187" y="47" width="1"/><rect x="188" y="47" width="1" height="1"/><rect width="1" height="1" x="210" y="47"/><rect x="211" y="47" width="2" height="1"/><rect x="213" y="47" width="1" height="1"/><rect y="47" width="1" height="1" x="214"/></g><g fill="#ff8175"><rect width="1" height="1" x="16" y="22"/><rect width="1" height="1" x="32" y="22"/><rect x="24" y="30" width="1" height="1"/></g><g fill="#4a505d"><rect y="24" width="1" height="1" x="129"/><rect x="206" y="24" width="1" height="1"/><rect x="101" y="26" width="1" height="1"/></g><g fill="#ffaba3"><rect y="25" width="1" height="1" x="13"/><rect width="1" height="1" x="20" y="25"/><rect width="1" height="1" x="27" y="26"/><rect x="24" y="28" width="1" height="1"/><rect y="33" width="1" height="1" x="17"/><rect y="37" width="13" height="1" x="33"/><rect height="1" x="46" y="37" width="1"/></g><g fill="#4a505a"><rect x="136" y="27" width="1" height="1"/><rect x="200" y="31" width="1" height="1"/><rect x="174" y="33" width="1" height="1"/><rect x="174" y="37" width="1" height="1"/><rect x="85" y="47" width="1" height="1"/></g><g fill="#46505c"><rect x="223" y="31" width="1" height="1"/><rect y="32" width="1" height="1" x="206"/></g><g fill="#ffa198"><rect x="12" y="32" width="1" height="1"/><rect x="23" y="37" width="1" height="1"/></g><g fill="#485058"><rect x="76" y="14" width="1" height="1"/><rect x="115" y="23" width="1" height="1"/><rect x="191" y="23" width="1" height="1"/><rect x="217" y="23" width="1" height="1"/><rect height="1" x="244" y="23" width="1"/><rect x="128" y="24" width="1" height="1"/><rect width="1" height="1" x="193" y="24"/><rect x="219" y="24" width="1" height="1"/><rect width="1" height="1" x="233" y="25"/><rect x="177" y="26" width="1" height="1"/><rect x="108" y="27" width="2" height="1"/><rect x="110" y="27" width="1" height="1"/><rect y="27" width="1" height="1" x="134"/><rect y="27" width="2" height="1" x="185"/><rect x="187" y="27" width="1" height="1"/><rect x="202" y="27" width="1" height="1"/><rect y="27" width="1" height="1" x="222"/><rect x="124" y="28" width="1" height="1"/><rect x="145" y="28" width="1" height="1"/><rect x="175" y="29" width="1" height="1"/><rect width="1" height="1" x="102" y="34"/><rect height="1" x="113" y="40" width="1"/><rect y="40" width="1" height="1" x="140"/><rect x="217" y="40" width="1" height="1"/><rect x="183" y="42" width="1" height="1"/><rect height="1" x="209" y="42" width="1"/><rect width="1" height="1" x="109" y="43"/><rect x="140" y="47" width="1" height="1"/></g><g fill="#ffb6ae"><rect height="1" x="17" y="22" width="1"/><rect x="15" y="23" width="1" height="1"/><rect x="17" y="26" width="1" height="1"/><rect x="20" y="34" width="1" height="1"/></g><g fill="#405050"><rect x="104" y="23" width="1" height="1"/><rect x="130" y="23" width="1" height="1"/><rect x="207" y="23" width="1" height="1"/><rect x="205" y="24" width="1" height="1"/><rect x="234" y="24" width="1" height="1"/><rect x="101" y="25" width="1" height="1"/><rect x="178" y="25" width="1" height="1"/><rect height="1" x="104" y="33" width="1"/><rect x="191" y="41" width="1" height="1"/><rect height="1" x="190" y="42" width="1"/><rect x="215" y="42" width="1" height="1"/><rect x="107" y="43" width="1" height="1"/></g><g fill="#ff786a"><rect x="26" y="24" width="1" height="1"/><rect x="28" y="28" width="1" height="1"/></g><g fill="#485060"><rect x="158" y="24" width="1" height="2"/><rect width="1" height="1" x="158" y="26"/><rect y="28" width="1" height="1" x="106"/><rect width="1" height="1" x="209" y="28"/><rect x="215" y="28" width="1" height="1"/><rect y="29" width="1" height="1" x="234"/><rect x="99" y="30" width="1" height="1"/><rect x="207" y="30" width="1" height="1"/><rect x="140" y="32" width="1" height="1"/><rect x="105" y="38" width="1" height="1"/><rect y="40" width="1" height="1" x="98"/><rect x="98" y="41" width="1" height="1"/><rect width="1" height="1" x="145" y="43"/><rect x="177" y="44" width="1" height="1"/><rect width="1" height="1" x="196" y="44"/><rect x="221" y="44" width="1" height="1"/><rect x="178" y="45" width="1" height="1"/><rect width="1" height="1" x="195" y="45"/><rect x="220" y="45" width="1" height="1"/><rect x="128" y="46" width="1" height="1"/><rect x="142" y="46" width="1" height="1"/><rect x="205" y="46" width="1" height="1"/><rect x="102" y="47" width="1" height="1"/><rect x="130" y="47" width="1" height="1"/><rect height="1" x="165" y="47" width="1"/><rect width="1" height="1" x="207" y="47"/></g><rect width="1" height="1" fill="#ffb6af" x="16" y="32"/><g fill="#455060"><rect y="33" width="1" height="1" x="206"/><rect x="223" y="40" width="1" height="1"/></g><g fill="#ff5847"><rect width="59" height="20"/><rect width="1" height="59" x="59"/><rect y="20" width="59" height="1"/><rect y="21" width="18" height="1"/><rect x="18" y="21" width="1" height="1"/><rect x="21" y="21" width="38" height="1"/><rect y="22" width="15" height="1"/><rect height="1" x="15" y="22" width="1"/><rect x="24" y="22" width="7" height="1"/><rect x="31" y="22" width="1" height="37"/><rect height="37" x="48" y="22" width="11"/><rect y="23" width="14" height="1"/><rect x="14" y="23" width="1" height="1"/><rect height="1" x="26" y="23" width="5"/><rect height="1" y="24" width="13"/><rect x="13" y="24" width="1" height="1"/><rect height="1" x="27" y="24" width="4"/><rect y="25" width="12" height="34"/><rect x="12" y="25" width="1" height="1"/><rect height="1" x="28" y="25" width="3"/><rect height="7" x="19" y="26" width="2"/><rect x="21" y="26" width="1" height="7"/><rect x="28" y="26" width="3" height="1"/><rect x="37" y="26" width="6" height="7"/><rect x="43" y="26" width="1" height="7"/><rect x="17" y="27" width="5" height="5"/><rect x="22" y="27" width="1" height="5"/><rect y="27" width="2" height="32" x="29"/><rect x="23" y="28" width="1" height="3"/><rect x="16" y="29" width="7" height="1"/><rect height="1" x="16" y="30" width="7"/><rect x="23" y="31" width="1" height="1"/><rect width="5" height="1" x="17" y="32"/><rect x="22" y="32" width="1" height="1"/><rect x="28" y="32" width="3" height="27"/><rect y="33" width="3" height="1" x="18"/><rect x="21" y="33" width="1" height="1"/><rect x="37" y="33" width="6" height="1"/><rect x="43" y="33" width="1" height="1"/><rect x="12" y="34" width="1" height="25"/><rect x="13" y="35" width="1" height="24"/><rect x="27" y="35" width="4" height="24"/><rect width="1" height="23" x="14" y="36"/><rect height="23" x="26" y="36" width="5"/><rect height="22" x="15" y="37" width="1"/><rect y="37" width="6" height="22" x="25"/><rect x="16" y="38" width="2" height="21"/><rect x="18" y="38" width="1" height="21"/><rect x="21" y="38" width="38" height="21"/><rect width="40" height="20" x="19" y="39"/><rect y="59" width="59" height="1"/><rect x="59" y="59" width="1" height="1"/></g><g fill="#48505d"><rect x="150" y="12" width="1" height="1"/><rect x="232" y="12" width="1" height="1"/><rect x="85" y="20" width="1" height="26"/><rect x="114" y="23" width="1" height="1"/><rect height="1" x="243" y="23" width="1"/><rect width="1" height="1" x="116" y="24"/><rect x="141" y="24" width="1" height="1"/><rect x="180" y="24" width="1" height="1"/><rect x="100" y="27" width="1" height="1"/><rect x="125" y="27" width="1" height="1"/><rect x="137" y="27" width="1" height="1"/><rect x="130" y="29" width="1" height="1"/><rect x="201" y="29" width="1" height="1"/><rect x="248" y="29" width="1" height="1"/><rect width="1" height="1" x="175" y="30"/><rect x="129" y="31" width="1" height="1"/><rect height="1" x="146" y="32" width="1"/><rect x="200" y="32" width="1" height="1"/><rect height="1" x="99" y="37" width="1"/><rect x="123" y="39" width="1" height="1"/><rect x="129" y="39" width="1" height="1"/><rect y="42" width="1" height="1" x="222"/><rect width="1" height="1" x="110" y="43"/><rect x="212" y="43" width="1" height="1"/><rect x="213" y="43" width="1" height="1"/><rect x="113" y="45" width="1" height="1"/><rect x="85" y="46" width="1" height="1"/><rect x="180" y="46" width="1" height="1"/><rect height="1" x="91" y="47" width="1"/><rect y="47" width="1" height="1" x="131"/><rect x="208" y="47" width="1" height="1"/></g><g fill="#4a525d"><rect x="151" y="12" width="3" height="1"/><rect x="154" y="12" width="1" height="1"/><rect width="3" height="1" x="228" y="12"/><rect x="231" y="12" width="1" height="1"/><rect x="162" y="18" width="1" height="1"/><rect x="138" y="23" width="1" height="1"/><rect height="1" x="192" y="24" width="1"/><rect x="142" y="25" width="1" height="1"/><rect x="159" y="27" width="2" height="1"/><rect x="161" y="27" width="1" height="1"/><rect height="1" x="168" y="27" width="3"/><rect height="1" x="171" y="27" width="1"/><rect x="237" y="27" width="1" height="1"/><rect y="27" width="1" height="1" x="238"/><rect y="28" width="1" height="1" x="196"/><rect x="107" y="33" width="1" height="1"/><rect x="110" y="36" width="3" height="1"/><rect x="113" y="36" width="1" height="1"/><rect width="16" height="1" x="129" y="36"/><rect x="145" y="36" width="1" height="1"/><rect y="36" width="16" height="1" x="181"/><rect x="197" y="36" width="1" height="1"/><rect width="1" height="1" x="207" y="41"/><rect x="208" y="42" width="1" height="1"/><rect width="1" height="1" x="170" y="43"/><rect x="184" y="43" width="1" height="1"/><rect x="210" y="43" width="1" height="1"/><rect x="215" y="47" width="1" height="1"/></g><rect width="1" height="1" fill="#ff6c5e" x="20" y="21"/><g fill="#505060"><rect x="158" y="23" width="1" height="1"/><rect x="158" y="27" width="1" height="1"/><rect x="138" y="28" width="1" height="1"/><rect x="139" y="29" width="1" height="1"/><rect x="191" y="30" width="1" height="1"/><rect x="174" y="32" width="1" height="1"/><rect width="1" height="1" x="174" y="38"/><rect x="98" y="39" width="1" height="1"/><rect x="123" y="40" width="1" height="1"/><rect x="175" y="41" width="1" height="1"/><rect x="124" y="42" width="1" height="1"/><rect x="201" y="42" width="1" height="1"/><rect x="176" y="43" width="1" height="1"/></g><g fill="#4a525e"><rect x="103" y="24" width="1" height="1"/><rect x="117" y="25" width="1" height="1"/><rect x="246" y="25" width="1" height="1"/><rect x="126" y="26" width="1" height="1"/><rect x="176" y="28" width="1" height="1"/><rect width="1" height="1" x="124" y="29"/><rect x="100" y="36" width="1" height="1"/><rect width="1" height="1" x="113" y="41"/><rect x="140" y="41" width="1" height="1"/></g><g fill="#405060"><rect x="143" y="25" width="1" height="1"/><rect x="135" y="27" width="1" height="1"/><rect x="196" y="27" width="1" height="1"/><rect x="183" y="28" width="1" height="1"/><rect x="197" y="29" width="1" height="1"/><rect x="208" y="29" width="1" height="1"/><rect width="1" height="1" x="223" y="29"/><rect x="146" y="30" width="1" height="1"/><rect x="129" y="32" width="1" height="1"/><rect width="1" height="1" x="107" y="37"/><rect height="1" x="207" y="40" width="1"/><rect x="146" y="41" width="1" height="1"/><rect x="182" y="41" width="1" height="1"/><rect x="219" y="46" width="1" height="1"/><rect x="173" y="47" width="1" height="1"/><rect x="217" y="47" width="1" height="1"/></g><g fill="#ffa197"><rect width="1" height="1" x="13" y="34"/><rect x="47" y="37" width="1" height="1"/></g></svg>