<svg xmlns="http://www.w3.org/2000/svg" viewBox="0 0 464 120"><path fill="#001A8C" d="M116 60c0 30.928-25.072 56-56 56S4 90.928 4 60 29.072 4 60 4s56 25.072 56 56"/><path fill="#64E6E6" d="M249.902 69c4.543 0 8.098 3.556 8.098 8.1 0 4.347-3.555 7.9-8.098 7.9-4.346 0-7.902-3.553-7.902-7.9 0-4.544 3.556-8.1 7.902-8.1"/><path fill="#353535" d="M176.722 82.891c-.398 1.305-1.297 2.109-2.597 2.109-1.296 0-2.093-.804-2.495-2.109l-10.58-38.556-10.48 38.556c-.403 1.305-1.398 2.109-2.7 2.109-1.295 0-2.295-.804-2.694-2.109L133.2 38.711c-.102-.298-.199-.699-.199-1 0-1.607 1.097-2.711 2.496-2.711 1.194 0 2.194.6 2.495 1.704l10.083 39.16 10.08-38.555c.401-1.406 1.5-2.309 2.897-2.309 1.397 0 2.593.903 2.995 2.31l10.08 38.555 10.082-39.161c.3-1.104 1.2-1.704 2.398-1.704 1.398 0 2.394 1.104 2.394 2.71 0 .302-.097.703-.199 1.002l-12.08 44.178zM202.9 56.389h25.485v-3.115c0-7.931-4.605-14.059-12.742-14.059-8.138 0-12.743 6.128-12.743 14.059v3.115zm30.094 13.449C232.6 78.872 225.934 85 215.643 85 205.155 85 198 78.27 198 67.327V53.678C198 42.13 205.155 35 215.643 35c10.291 0 17.351 7.13 17.351 18.678v4.616c0 1.508-.982 2.51-2.454 2.51H202.9v6.924c0 7.33 4.605 13.053 12.743 13.053 8.428 0 12.547-5.123 12.742-10.943 0-1.407.882-2.413 2.254-2.413 1.373 0 2.45 1.006 2.355 2.413zm25.96-34.227h8.602V25.463c0-1.476.98-2.463 2.444-2.463s2.443.987 2.443 2.463v10.148h8.603c1.17 0 1.954.787 1.954 1.97 0 1.185-.784 2.168-1.954 2.168h-8.603v42.787c0 1.477-.98 2.464-2.443 2.464-1.465 0-2.444-.987-2.444-2.464V39.749h-8.602c-1.17 0-1.954-.787-1.954-1.97 0-1.185.784-2.168 1.954-2.168m38.549 6.844c3-4.773 7.899-7.455 13.997-7.455 1.6 0 2.5.991 2.5 2.484 0 1.292-.798 2.287-2 2.186-8.7-.498-14 4.965-14 12.82v30.026c0 1.489-.998 2.484-2.5 2.484-1.499 0-2.5-.995-2.5-2.484V37.484c0-1.29.603-1.987 1.901-1.987.9 0 1.702.397 1.901 1.987l.7 4.97zm53.564 24.63V52.912c0-7.578-4.828-13.484-12.912-13.484S325.93 44.942 325.93 51.93v16.14c0 6.99 4.141 12.499 12.225 12.499s12.912-5.903 12.912-13.484zm.494 10.927C348.603 82.44 343.674 85 337.858 85 327.506 85 321 78.405 321 67.678V52.323C321 41.596 327.506 35 337.858 35c5.916 0 10.745 2.46 13.703 6.888l.69-4.427c.197-1.575.988-1.968 1.875-1.968 1.28 0 1.874.69 1.874 1.968v45.08c0 1.277-.593 1.967-1.874 1.967-.887 0-1.678-.394-1.875-1.968l-.69-4.528zm48.505-11.161V52.493c0-7.677-4.828-13.66-12.912-13.66-8.083 0-12.225 5.586-12.225 12.666v16.35c0 7.08 4.142 12.661 12.225 12.661 8.084 0 12.912-5.979 12.912-13.659zM405 82.508c0 1.295-.594 1.993-1.874 1.993-.888 0-1.678-.398-1.876-1.993l-.69-4.587C397.604 82.406 392.674 85 386.859 85 376.506 85 370 78.318 370 67.452V51.896c0-10.867 6.506-17.548 16.858-17.548 5.522 0 10.255 2.293 13.208 6.478V18.492c0-1.493.988-2.492 2.465-2.492 1.482 0 2.469.999 2.469 2.492v64.016zm18.901-26.119h25.483v-3.115c0-7.931-4.605-14.059-12.742-14.059-8.136 0-12.74 6.128-12.74 14.059v3.115zm30.093 13.449C453.598 78.872 446.934 85 436.642 85 426.155 85 419 78.27 419 67.327V53.678C419 42.13 426.155 35 436.642 35c10.292 0 17.352 7.13 17.352 18.678v4.616c0 1.508-.982 2.51-2.454 2.51H423.9v6.924c0 7.33 4.605 13.053 12.741 13.053 8.429 0 12.547-5.123 12.742-10.943 0-1.407.883-2.413 2.255-2.413 1.373 0 2.45 1.006 2.355 2.413z"/><path fill="#C8DC00" d="M48.37 85a7.372 7.372 0 0 0 6.787-4.493l14.965-35.255a7.37 7.37 0 0 0-3.905-9.664 7.37 7.37 0 0 0-9.664 3.905L41.588 74.748a7.369 7.369 0 0 0 3.905 9.664A7.342 7.342 0 0 0 48.37 85"/><path fill="#FFF" d="M71.37 85a7.372 7.372 0 0 0 6.788-4.493l14.965-35.255a7.37 7.37 0 0 0-13.57-5.759L64.589 74.748A7.37 7.37 0 0 0 71.37 85"/><path fill="#C8DC00" d="M48.341 85a7.371 7.371 0 0 1-6.788-4.493L26.588 45.252a7.37 7.37 0 0 1 13.569-5.759l14.965 35.255a7.369 7.369 0 0 1-3.905 9.664 7.342 7.342 0 0 1-2.876.588"/><path fill="#64E6E6" d="M71.34 85a7.372 7.372 0 0 1-6.787-4.493L49.588 45.252a7.37 7.37 0 0 1 13.569-5.759l14.966 35.255A7.37 7.37 0 0 1 71.34 85"/><path fill="#01AEEA" d="M60.007 69.577l8.007-18.863-4.715-11.108A7.338 7.338 0 0 0 60.007 36a7.333 7.333 0 0 0-3.292 3.606L52 50.714l8.007 18.863z"/></svg>