<?xml version="1.0" encoding="utf-8"?>
<!-- Generator: Adobe Illustrator 23.0.2, SVG Export Plug-In . SVG Version: 6.00 Build 0)  -->
<svg version="1.1" id="Layer_1" xmlns="http://www.w3.org/2000/svg" xmlns:xlink="http://www.w3.org/1999/xlink" x="0px" y="0px"
	 viewBox="0 0 400 245" style="enable-background:new 0 0 400 245;" xml:space="preserve">
<style type="text/css">
	.st0{fill-rule:evenodd;clip-rule:evenodd;fill:#00378B;}
	.st1{clip-path:url(#SVGID_2_);fill-rule:evenodd;clip-rule:evenodd;fill:#00378B;}
	.st2{fill:#2A2676;}
	.st3{fill:#D1D700;}
	.st4{fill:#FFFFFF;}
	.st5{fill:#82CDE3;}
	.st6{fill:#2C2582;}
	.st7{fill:#44B4E4;}
	.st8{fill:#201F1E;}
	.st9{fill:#32324B;}
	.st10{fill:#00D2FF;}
	.st11{fill:#FF4B19;}
	.st12{fill:#00B26D;}
	.st13{fill:#0067A6;}
	.st14{fill:#231F20;}
	.st15{fill:#CC0000;}
	.st16{fill:#2F1157;}
	.st17{clip-path:url(#SVGID_4_);}
	.st18{clip-path:url(#SVGID_6_);}
	.st19{fill:#00AED6;}
	.st20{clip-path:url(#SVGID_10_);}
	.st21{clip-path:url(#SVGID_12_);fill:#004361;}
	.st22{clip-path:url(#SVGID_14_);}
	.st23{clip-path:url(#SVGID_16_);fill:#009BBA;}
	.st24{clip-path:url(#SVGID_18_);}
	.st25{clip-path:url(#SVGID_20_);fill:#52E2FF;}
	.st26{clip-path:url(#SVGID_22_);}
	.st27{clip-path:url(#SVGID_24_);fill:#004361;}
	.st28{clip-path:url(#SVGID_26_);}
	.st29{clip-path:url(#SVGID_28_);fill:#0D9CB9;}
	.st30{fill:none;}
	.st31{fill:#D6D8D6;}
	.st32{fill:#006DAA;}
	.st33{fill:#797E82;}
	.st34{fill:#626363;}
	.st35{fill:#F05928;}
	.st36{fill:#FF0033;}
	.st37{fill:#010101;}
	.st38{fill:#42A9D2;}
	.st39{fill:#737373;}
	.st40{fill:#868686;}
	.st41{fill:#008ED3;}
	.st42{fill:#3D3D3D;}
	.st43{fill:#F8BE34;}
	.st44{fill:#FECB33;stroke:#333333;stroke-width:2.7217;stroke-miterlimit:10;stroke-opacity:0;}
	.st45{fill:#EAA536;stroke:#333333;stroke-width:2.7217;stroke-miterlimit:10;stroke-opacity:0;}
	.st46{fill:#EF4136;}
	.st47{fill:#FFD100;}
	.st48{fill:none;stroke:#221F1F;stroke-width:0.3387;}
	.st49{fill:none;stroke:#221F1F;stroke-width:0.1129;}
	.st50{fill:#157715;}
	.st51{fill:#3D3E3F;}
	.st52{fill:none;stroke:#3D3E3F;stroke-width:0.2383;stroke-miterlimit:10;}
	.st53{fill:#363E49;}
	.st54{fill:#91C9E5;}
	.st55{fill:url(#SVGID_29_);}
	.st56{fill:url(#SVGID_30_);}
	.st57{fill:url(#SVGID_31_);}
	.st58{fill:url(#SVGID_32_);}
	.st59{fill:url(#SVGID_33_);}
	.st60{fill:url(#SVGID_34_);}
	.st61{fill:url(#SVGID_35_);}
	.st62{fill:url(#SVGID_36_);}
	.st63{fill:url(#SVGID_37_);}
	.st64{fill:url(#SVGID_38_);}
	.st65{fill:url(#SVGID_39_);}
	.st66{fill:url(#SVGID_40_);}
	.st67{fill:url(#SVGID_41_);}
	.st68{fill:url(#SVGID_42_);}
	.st69{fill:url(#SVGID_43_);}
	.st70{fill:url(#SVGID_44_);}
	.st71{fill:url(#SVGID_45_);}
	.st72{fill:url(#SVGID_46_);}
	.st73{fill:url(#SVGID_47_);}
	.st74{fill:url(#SVGID_48_);}
	.st75{fill:url(#SVGID_49_);}
	.st76{fill:url(#SVGID_50_);}
	.st77{fill:url(#SVGID_51_);}
</style>
<g>
	<g>
		<g>
			<path class="st19" d="M132.67,75.7L65.76,11.08c-2.43-2.34-2.49-6.21-0.15-8.64l0,0c2.34-2.43,6.21-2.49,8.64-0.15l66.92,64.62
				c2.43,2.34,2.49,6.21,0.15,8.64l0,0C138.97,77.98,135.1,78.05,132.67,75.7z"/>
		</g>
		<g>
			<path class="st19" d="M120.97,90.53L44.43,16.61c-2.43-2.34-2.49-6.21-0.15-8.64l0,0c2.34-2.43,6.21-2.49,8.64-0.15l76.54,73.91
				c2.43,2.34,2.49,6.21,0.15,8.64v0C127.26,92.8,123.4,92.87,120.97,90.53z"/>
		</g>
		<g>
			<path class="st19" d="M109.27,105.35L34.05,32.71c-2.43-2.34-2.49-6.21-0.15-8.64l0,0c2.34-2.43,6.21-2.49,8.64-0.15l75.22,72.64
				c2.43,2.34,2.49,6.21,0.15,8.64l0,0C115.56,107.63,111.69,107.69,109.27,105.35z"/>
		</g>
		<g>
			<path class="st19" d="M97.57,120.17L30.65,55.55c-2.43-2.34-2.49-6.21-0.15-8.64l0,0c2.34-2.43,6.21-2.49,8.64-0.15l66.92,64.62
				c2.43,2.34,2.49,6.21,0.15,8.64l0,0C103.86,122.45,99.99,122.52,97.57,120.17z"/>
		</g>
		<g>
			<path class="st19" d="M178.31,122.15c-1.48-1.43-2.2-3.57-1.72-5.73c3.12-13.99-1.16-28.27-11.45-38.22l-45.7-44.14
				c-2.43-2.34-2.49-6.21-0.15-8.64s6.21-2.49,8.64-0.15l45.7,44.14c13.38,12.92,18.95,31.49,14.89,49.67
				c-0.73,3.29-4,5.36-7.29,4.63C180.08,123.46,179.09,122.9,178.31,122.15z"/>
		</g>
		<g>
			<path class="st19" d="M212.38,155.94l-34.25-33.08c-2.43-2.34-2.49-6.21-0.15-8.64v0c2.34-2.43,6.21-2.49,8.64-0.15l34.25,33.08
				c2.43,2.34,2.49,6.21,0.15,8.64l0,0C218.68,158.22,214.81,158.29,212.38,155.94z"/>
		</g>
	</g>
	<g>
		<path class="st19" d="M269.19,75.7l66.92-64.62c2.43-2.34,2.49-6.21,0.15-8.64v0c-2.34-2.43-6.21-2.49-8.64-0.15L260.7,66.92
			c-2.43,2.34-2.49,6.21-0.15,8.64v0C262.89,77.98,266.76,78.05,269.19,75.7z"/>
		<path class="st19" d="M280.89,90.53l76.54-73.91c2.43-2.34,2.49-6.21,0.15-8.64v0c-2.34-2.43-6.21-2.49-8.64-0.15L272.4,81.74
			c-2.43,2.34-2.49,6.21-0.15,8.64v0C274.59,92.8,278.46,92.87,280.89,90.53z"/>
		<path class="st19" d="M292.59,105.35l75.22-72.64c2.43-2.34,2.49-6.21,0.15-8.64v0c-2.34-2.43-6.21-2.49-8.64-0.15l-75.22,72.64
			c-2.43,2.34-2.49,6.21-0.15,8.64v0C286.3,107.63,290.16,107.69,292.59,105.35z"/>
		<path class="st19" d="M304.29,120.17l66.92-64.62c2.43-2.34,2.49-6.21,0.15-8.64v0c-2.34-2.43-6.21-2.49-8.64-0.15l-66.92,64.62
			c-2.43,2.34-2.49,6.21-0.15,8.64v0C298,122.45,301.87,122.52,304.29,120.17z"/>
		<path class="st19" d="M223.55,122.15c1.48-1.43,2.2-3.57,1.72-5.73c-3.12-13.99,1.16-28.27,11.45-38.22l45.7-44.14
			c2.43-2.34,2.49-6.21,0.15-8.64s-6.21-2.49-8.64-0.15l-45.7,44.14c-13.38,12.92-18.95,31.49-14.89,49.67
			c0.73,3.29,4,5.36,7.29,4.63C221.78,123.46,222.77,122.9,223.55,122.15z"/>
		<path class="st19" d="M189.48,155.94l34.25-33.08c2.43-2.34,2.49-6.21,0.15-8.64l0,0c-2.34-2.43-6.21-2.49-8.64-0.15l-34.25,33.08
			c-2.43,2.34-2.49,6.21-0.15,8.64v0C183.18,158.22,187.05,158.29,189.48,155.94z"/>
	</g>
	<g>
		<path class="st19" d="M60.3,209.12h-4.03l-9.44,34.52h-8.78l-7.16-31.45l-7.7,31.45h-8.72l-9.02-34.52H1.42v-5.59H17v5.59h-4.51
			l6.68,26.52l6.55-26.52h-4.45v-5.59h20.15v5.59h-4.45l6.01,26.52l7.1-26.52h-4.51v-5.59H60.3V209.12z"/>
		<path class="st19" d="M94.48,238.04h4.81v5.59H82.46v-5.59h4.81v-28.92h-4.81v-5.59h19.3c5.71,0,8.84,0.66,11.49,2.41
			c2.77,1.8,4.33,4.81,4.33,8.36c0,4.69-2.04,7.46-6.92,9.2c3.79,1.32,4.81,3.13,4.87,8.18v6.37h5.23v5.59h-12.45v-8.72
			c-0.06-7.28-1.5-8.9-7.64-8.78h-6.19V238.04z M103.02,220.54c4.93,0,7.1-1.74,7.1-5.71c0-3.97-2.16-5.71-7.1-5.71h-8.54v11.42
			H103.02z"/>
		<path class="st19" d="M144.06,231.37l-2.59,6.68h5.23v5.59h-15.88v-5.59h4.03l11.79-28.92h-4.21v-5.59h20.45v5.59h-4.21
			l11.79,28.92h4.03v5.59h-16.84v-5.59h5.23l-2.65-6.68H144.06z M152.24,210.92l-5.83,14.55h11.55L152.24,210.92z"/>
		<path class="st19" d="M196.05,238.04h5.83v5.59h-17.86v-5.59h4.81v-28.92h-4.81v-5.59h20.75c5.47,0,8.24,0.84,10.82,3.19
			c2.35,2.16,3.67,5.29,3.67,8.66c0,3.37-1.26,6.37-3.67,8.54c-2.65,2.41-5.35,3.19-10.82,3.19h-8.72V238.04z M204.35,221.51
			c5.23,0,7.52-1.86,7.52-6.19c0-4.33-2.29-6.19-7.52-6.19h-8.3v12.39H204.35z"/>
		<path class="st19" d="M246.95,203.53v5.59h-4.81v28.92h4.81v5.59h-16.84v-5.59h4.81v-28.92h-4.81v-5.59H246.95z"/>
		<path class="st19" d="M293.52,207.86c4.57,4.09,6.92,9.5,6.92,16c0,5.89-2.47,11.49-6.92,15.45c-3.85,3.43-8.36,5.11-13.89,5.11
			c-11.85,0-20.75-8.96-20.75-20.87c0-11.85,8.96-20.81,20.75-20.81C285.22,202.74,289.61,204.37,293.52,207.86z M266.7,223.55
			c0,8.84,5.23,14.85,12.93,14.85c7.64,0,12.99-6.01,12.99-14.61c0-9.08-5.17-15.03-12.99-15.03
			C271.94,208.76,266.7,214.77,266.7,223.55z"/>
		<path class="st19" d="M353.63,209.12h-4.03v19.42c0,6.86-1.26,10.76-4.21,12.87c-2.59,1.92-7.22,3.01-12.63,3.01
			c-5.35,0-9.98-1.08-12.57-3.01c-2.95-2.11-4.21-6.01-4.21-12.87v-19.42h-4.03v-5.59h16.06v5.59h-4.81v19.84
			c0,4.15,0.42,5.77,1.92,7.16c1.56,1.56,4.15,2.29,8,2.29c3.85,0,6.49-0.72,8.12-2.29c1.5-1.38,1.92-3.01,1.92-7.16v-19.84h-4.81
			v-5.59h15.27V209.12z"/>
		<path class="st19" d="M396.89,216.58h-5.17v-3.43c-1.92-2.65-6.49-4.39-11.25-4.39c-4.99,0-8,2.04-8,5.47
			c0,2.89,1.8,4.09,7.88,5.29l5.59,1.14c9.26,1.86,12.63,4.75,12.63,10.82c0,8.48-5.23,12.93-15.15,12.93
			c-5.41,0-9.2-1.26-12.69-4.33v3.55h-5.17v-13.47h5.17v3.43c3.49,3.13,7.82,4.81,12.39,4.81c5.05,0,8.54-2.23,8.54-5.47
			c0-2.59-1.98-4.09-6.74-5.11l-5.83-1.26c-4.39-0.9-7.4-1.98-9.14-3.25c-2.47-1.8-4.09-5.23-4.09-8.78
			c0-7.22,5.65-11.79,14.61-11.79c4.69,0,7.88,1.08,11.25,3.91v-3.13h5.17V216.58z"/>
	</g>
</g>
<g>
	<g>
		<defs>
			<path id="SVGID_21_" d="M794.4,94.74c0-1.36-0.26-2.71-0.79-4.07c-0.53-1.36-1.3-2.58-2.32-3.67c-1.02-1.09-2.32-2-3.9-2.71
				c-1.58-0.72-3.39-1.07-5.43-1.07c-2.19,0-4.13,0.36-5.83,1.07c-1.7,0.72-3.11,1.62-4.24,2.71c-1.13,1.09-2,2.32-2.6,3.67
				c-0.6,1.36-0.9,2.71-0.9,4.07H794.4z M807.41,119.15l-1.87,1.86c-1.02,1.02-2.49,2.09-4.41,3.22c-1.92,1.13-4.37,2.15-7.35,3.05
				c-2.98,0.9-6.54,1.36-10.69,1.36c-4.22,0-8.07-0.72-11.54-2.15c-3.47-1.43-6.43-3.41-8.88-5.93c-2.45-2.52-4.34-5.56-5.66-9.1
				c-1.32-3.54-1.98-7.46-1.98-11.75c0-3.92,0.66-7.55,1.98-10.91c1.32-3.35,3.17-6.27,5.54-8.76s5.2-4.45,8.48-5.88
				c3.28-1.43,6.92-2.15,10.91-2.15c4.83,0,8.92,0.89,12.27,2.66c3.36,1.77,6.05,4.09,8.09,6.95c2.04,2.86,3.51,6.1,4.41,9.72
				c0.9,3.62,1.36,7.31,1.36,11.08v1.92H768.5c0,1.96,0.43,3.73,1.3,5.31c0.87,1.58,2,2.94,3.39,4.07c1.4,1.13,2.98,2,4.75,2.6
				c1.77,0.6,3.53,0.9,5.26,0.9c2.56,0,4.81-0.24,6.73-0.73c1.92-0.49,3.56-1.05,4.92-1.7c1.36-0.64,2.47-1.32,3.34-2.03
				c0.87-0.72,1.53-1.3,1.98-1.75L807.41,119.15z M729.55,85.36c-1.06-0.38-2.15-0.66-3.28-0.85c-1.13-0.19-2.9-0.28-5.32-0.28
				c-2.71,0-5.09,0.45-7.13,1.36c-2.04,0.9-3.77,2.11-5.2,3.62c-1.43,1.51-2.51,3.26-3.22,5.26c-0.72,2-1.07,4.09-1.07,6.27
				c0,4.07,1.02,7.5,3.05,10.28s5.32,4.18,9.84,4.18c4.07,0,7.14-0.87,9.22-2.6c2.07-1.73,3.11-4.48,3.11-8.25V85.36z
				 M701.84,135.42c2.11,1.43,4.39,2.47,6.84,3.11c2.45,0.64,5.33,0.96,8.65,0.96c3.47,0,6.37-1.05,8.71-3.16
				c2.34-2.11,3.51-5.05,3.51-8.82v-5.76c-1.81,1.51-3.79,2.73-5.94,3.67c-2.15,0.94-5,1.41-8.54,1.41c-3.85,0-7.26-0.64-10.24-1.92
				c-2.98-1.28-5.52-3.07-7.63-5.37c-2.11-2.3-3.71-5.01-4.81-8.14c-1.09-3.13-1.64-6.57-1.64-10.34c0-3.92,0.7-7.61,2.09-11.08
				c1.4-3.47,3.39-6.48,5.99-9.04c2.6-2.56,5.75-4.58,9.44-6.05c3.69-1.47,7.84-2.2,12.44-2.2s8.84,0.38,12.72,1.13
				c3.88,0.75,7.03,1.54,9.44,2.37v51.54c0,3.69-0.64,6.97-1.92,9.83c-1.28,2.86-3.05,5.27-5.32,7.23
				c-2.26,1.96-4.94,3.45-8.03,4.46c-3.09,1.02-6.45,1.53-10.07,1.53c-2.79,0-5.26-0.13-7.41-0.4c-2.15-0.26-4.07-0.62-5.77-1.07
				c-1.7-0.45-3.24-1.02-4.64-1.7c-1.4-0.68-2.7-1.47-3.9-2.37L701.84,135.42z M665.69,102.87c-1.36-0.08-2.68-0.15-3.96-0.23
				c-1.06-0.08-2.17-0.13-3.34-0.17c-1.17-0.04-2.17-0.06-3-0.06c-4.3,0-7.31,0.85-9.05,2.54s-2.6,3.64-2.6,5.82
				c0,2.26,0.81,4.03,2.43,5.31c1.62,1.28,4.02,1.92,7.18,1.92c1.58,0,3.11-0.26,4.58-0.79c1.47-0.53,2.77-1.24,3.9-2.15
				c1.13-0.9,2.05-1.96,2.77-3.16c0.72-1.21,1.07-2.49,1.07-3.84V102.87z M665.69,121.86c-1.43,1.73-3.62,3.28-6.56,4.63
				c-2.94,1.36-6.22,2.03-9.84,2.03c-2.19,0-4.35-0.34-6.5-1.02s-4.11-1.71-5.88-3.11c-1.77-1.39-3.2-3.18-4.3-5.37
				c-1.09-2.18-1.64-4.75-1.64-7.69c0-3.01,0.57-5.71,1.7-8.08c1.13-2.37,2.71-4.37,4.75-5.99c2.04-1.62,4.49-2.84,7.35-3.67
				c2.87-0.83,6.03-1.24,9.5-1.24c1.06,0,2.22,0.02,3.51,0.06c1.28,0.04,2.53,0.09,3.73,0.17c1.36,0.08,2.75,0.15,4.18,0.23v-1.24
				c0-2.64-1.06-4.71-3.17-6.22c-2.11-1.51-4.86-2.26-8.26-2.26c-3.77,0-6.79,0.49-9.05,1.47c-2.26,0.98-4.26,2.03-5.99,3.16
				l-6.11-9.04c1.06-0.75,2.26-1.53,3.62-2.32c1.36-0.79,2.94-1.51,4.75-2.15c1.81-0.64,3.9-1.17,6.28-1.58
				c2.38-0.41,5.15-0.62,8.31-0.62c3.39,0,6.47,0.47,9.22,1.41c2.75,0.94,5.11,2.26,7.07,3.96c1.96,1.7,3.47,3.73,4.52,6.1
				c1.06,2.37,1.58,4.95,1.58,7.74v35.6h-12.44L665.69,121.86z M586.62,100.05L567.4,73.83h16.85l10.63,15.37l10.75-15.37h15.04
				l-18.66,24.86l20.7,28.14h-16.85l-12.1-17.29l-12.22,17.29h-15.04L586.62,100.05z"/>
		</defs>
		<clipPath id="SVGID_2_">
			<use xlink:href="#SVGID_21_"  style="overflow:visible;"/>
		</clipPath>
		<g style="clip-path:url(#SVGID_2_);">
			<defs>
				<rect id="SVGID_23_" x="260.68" y="-270.12" width="1395.97" height="785.23"/>
			</defs>
			<clipPath id="SVGID_4_">
				<use xlink:href="#SVGID_23_"  style="overflow:visible;"/>
			</clipPath>
		</g>
	</g>
	<g>
		<defs>
			<path id="SVGID_25_" d="M793.48,185.04h-2.01v-8.5l-7.39-11.23h2.51l5.94,9.56l6-9.56h2.34l-7.39,11.23V185.04z M762.05,185.04
				h-2.01v-17.95h-6.61v-1.78h15.23v1.78h-6.61V185.04z M735.39,185.04h-2.01V165.3h2.01V185.04z M703.6,174.08h3.49
				c1.62,0,2.86-0.29,3.74-0.88c0.87-0.59,1.31-1.46,1.31-2.63c0-0.65-0.12-1.2-0.36-1.64c-0.24-0.45-0.58-0.81-1-1.09
				c-0.43-0.28-0.95-0.48-1.56-0.61c-0.61-0.13-1.29-0.2-2.04-0.2h-3.57V174.08z M703.6,185.04h-2.01V165.3h5.8
				c0.97,0,1.86,0.09,2.69,0.28s1.54,0.49,2.15,0.91c0.6,0.42,1.07,0.96,1.41,1.63c0.33,0.67,0.5,1.49,0.5,2.45
				c0,0.72-0.13,1.38-0.39,1.98c-0.26,0.59-0.61,1.11-1.06,1.55c-0.45,0.44-0.98,0.79-1.59,1.05c-0.61,0.26-1.28,0.43-2.01,0.5
				l5.78,9.39h-2.46l-5.47-9.23h-3.35V185.04z M673.98,185.54c-1.49,0-2.71-0.26-3.65-0.77c-0.95-0.51-1.7-1.16-2.26-1.94
				c-0.56-0.78-0.94-1.63-1.16-2.55c-0.21-0.92-0.32-1.79-0.32-2.61V165.3h2.01v12.15c0,0.8,0.09,1.58,0.28,2.33
				c0.19,0.75,0.49,1.42,0.91,2.01c0.42,0.59,0.97,1.06,1.66,1.42c0.69,0.36,1.53,0.54,2.54,0.54c1,0,1.85-0.18,2.54-0.54
				c0.69-0.36,1.24-0.84,1.66-1.42c0.42-0.59,0.72-1.25,0.91-2.01c0.19-0.75,0.28-1.53,0.28-2.33V165.3h2.01v12.38
				c0,0.82-0.11,1.69-0.32,2.61c-0.21,0.92-0.6,1.77-1.16,2.55c-0.56,0.78-1.32,1.43-2.27,1.94
				C676.66,185.28,675.45,185.54,673.98,185.54z M648.16,181.86c-0.33,0.5-0.74,0.98-1.21,1.42c-0.47,0.45-1.02,0.84-1.65,1.17
				s-1.31,0.6-2.06,0.79c-0.75,0.2-1.58,0.29-2.47,0.29c-1.49,0-2.86-0.26-4.13-0.78c-1.26-0.52-2.35-1.24-3.26-2.16
				c-0.91-0.92-1.62-2.01-2.13-3.28c-0.51-1.26-0.77-2.65-0.77-4.15s0.26-2.89,0.78-4.15c0.52-1.26,1.24-2.36,2.16-3.28
				c0.92-0.92,2.01-1.64,3.26-2.16c1.26-0.52,2.62-0.78,4.09-0.78c0.73,0,1.44,0.07,2.13,0.22c0.7,0.15,1.35,0.36,1.97,0.63
				c0.61,0.27,1.17,0.59,1.67,0.98c0.5,0.38,0.92,0.81,1.26,1.3l-1.67,1.23c-0.2-0.32-0.48-0.63-0.82-0.95
				c-0.34-0.32-0.75-0.59-1.21-0.84c-0.46-0.24-0.97-0.44-1.52-0.59c-0.55-0.15-1.14-0.22-1.77-0.22c-1.28,0-2.43,0.23-3.45,0.7
				c-1.01,0.46-1.87,1.09-2.58,1.88c-0.71,0.79-1.25,1.71-1.62,2.75c-0.37,1.04-0.56,2.14-0.56,3.29s0.19,2.25,0.57,3.29
				s0.93,1.96,1.63,2.75c0.71,0.79,1.57,1.42,2.58,1.88c1.01,0.46,2.15,0.7,3.42,0.7c1.13,0,2.21-0.23,3.24-0.7
				c1.02-0.46,1.88-1.21,2.57-2.23L648.16,181.86z M601.94,183.25h10.57v1.78h-12.58V165.3h12.25v1.78h-10.24v6.8h9.57v1.76h-9.57
				V183.25z M578.68,168.48c-0.43-0.59-0.98-1.07-1.65-1.44c-0.67-0.36-1.48-0.54-2.43-0.54c-0.48,0-0.98,0.07-1.48,0.22
				c-0.5,0.15-0.96,0.38-1.37,0.68c-0.41,0.31-0.74,0.69-0.99,1.16c-0.25,0.46-0.38,1.01-0.38,1.64s0.12,1.15,0.36,1.56
				s0.56,0.76,0.96,1.05c0.4,0.29,0.86,0.53,1.37,0.71c0.51,0.19,1.05,0.37,1.6,0.56c0.69,0.22,1.38,0.46,2.08,0.72
				c0.7,0.26,1.33,0.6,1.88,1.02c0.56,0.42,1.01,0.95,1.37,1.59s0.53,1.45,0.53,2.44c0,0.98-0.19,1.84-0.57,2.55
				c-0.38,0.72-0.87,1.31-1.48,1.77c-0.6,0.46-1.29,0.81-2.06,1.03c-0.77,0.22-1.55,0.33-2.33,0.33c-0.6,0-1.19-0.06-1.79-0.18
				s-1.16-0.3-1.7-0.54c-0.54-0.24-1.04-0.55-1.51-0.92c-0.47-0.37-0.87-0.8-1.23-1.28l1.73-1.28c0.43,0.71,1.03,1.3,1.8,1.77
				c0.77,0.47,1.68,0.71,2.72,0.71c0.5,0,1.01-0.08,1.53-0.24c0.52-0.16,0.99-0.4,1.41-0.72c0.42-0.33,0.76-0.72,1.03-1.2
				c0.27-0.47,0.4-1.03,0.4-1.66c0-0.69-0.13-1.26-0.4-1.71c-0.27-0.46-0.63-0.84-1.07-1.14c-0.45-0.31-0.96-0.56-1.53-0.77
				c-0.58-0.2-1.18-0.41-1.81-0.61c-0.65-0.2-1.29-0.44-1.93-0.7c-0.63-0.26-1.2-0.6-1.7-1.02s-0.91-0.93-1.21-1.55
				c-0.31-0.61-0.46-1.37-0.46-2.26c0-0.95,0.19-1.77,0.57-2.45c0.38-0.69,0.88-1.25,1.49-1.7c0.61-0.45,1.29-0.77,2.04-0.98
				s1.48-0.31,2.2-0.31c1.34,0,2.48,0.24,3.43,0.71s1.66,1.04,2.15,1.69L578.68,168.48z"/>
		</defs>
		<clipPath id="SVGID_6_">
			<use xlink:href="#SVGID_25_"  style="overflow:visible;"/>
		</clipPath>
		<g class="st18">
			<defs>
				<rect id="SVGID_27_" x="260.68" y="-270.12" width="1395.97" height="785.23"/>
			</defs>
			<clipPath id="SVGID_8_">
				<use xlink:href="#SVGID_27_"  style="overflow:visible;"/>
			</clipPath>
		</g>
	</g>
</g>
</svg>
