<?xml version="1.0" standalone="no"?>
<!DOCTYPE svg PUBLIC "-//W3C//DTD SVG 20010904//EN"
 "http://www.w3.org/TR/2001/REC-SVG-20010904/DTD/svg10.dtd">
<svg version="1.0" xmlns="http://www.w3.org/2000/svg"
 width="225.000000pt" height="225.000000pt" viewBox="0 0 225.000000 225.000000"
 preserveAspectRatio="xMidYMid meet">

<g transform="translate(0.000000,225.000000) scale(0.100000,-0.100000)"
fill="#000000" stroke="none">
<path d="M0 1125 l0 -1125 1125 0 1125 0 0 1125 0 1125 -1125 0 -1125 0 0
-1125z m1040 239 c0 -2 -7 -4 -15 -4 -8 0 -15 4 -15 10 0 5 7 7 15 4 8 -4 15
-8 15 -10z m107 -176 c-3 -7 -5 -2 -5 12 0 14 2 19 5 13 2 -7 2 -19 0 -25z
m-3 -67 c-4 -23 -9 -40 -11 -37 -3 3 -2 23 2 46 4 23 9 39 11 37 3 -2 2 -23
-2 -46z m-67 -3 c-3 -8 -6 -5 -6 6 -1 11 2 17 5 13 3 -3 4 -12 1 -19z m-54
-15 c-7 -2 -21 -2 -30 0 -10 3 -4 5 12 5 17 0 24 -2 18 -5z m35 -50 c2 -8 -5
-13 -17 -13 -12 0 -21 6 -21 16 0 18 31 15 38 -3z m147 -43 c4 -7 -3 -8 -22
-4 -38 9 -42 14 -10 14 14 0 29 -5 32 -10z m521 -19 c-19 -21 -122 -79 -112
-63 3 6 0 13 -6 16 -7 3 -3 3 9 1 23 -6 41 11 26 26 -5 5 -27 11 -50 14 -35 4
-41 2 -46 -15 -4 -15 0 -20 14 -20 10 0 19 -4 19 -10 0 -19 -39 -10 -45 11 -7
20 -7 19 -32 -6 -14 -14 -29 -23 -32 -19 -3 3 6 16 22 28 15 12 27 29 27 39 0
15 13 17 112 17 108 0 111 -1 94 -19z m-129 -77 c-3 -3 -12 -4 -19 -1 -8 3 -5
6 6 6 11 1 17 -2 13 -5z m-47 -28 c0 -2 -7 -7 -16 -10 -8 -3 -12 -2 -9 4 6 10
25 14 25 6z m185 -398 c27 -12 35 -45 10 -45 -8 0 -15 4 -15 9 0 5 -12 8 -27
6 -37 -4 -31 -21 9 -31 46 -12 60 -26 56 -56 -6 -51 -93 -64 -122 -18 -14 22
1 34 24 19 27 -17 60 -15 60 3 0 8 -12 17 -27 20 -44 10 -58 20 -61 48 -2 17
4 30 20 41 27 19 39 20 73 4z m-1221 -25 l23 -27 18 27 c11 17 26 27 42 27 24
0 24 0 -11 -44 -27 -32 -36 -53 -36 -80 0 -25 -4 -36 -15 -36 -11 0 -15 11
-15 36 0 26 -10 47 -36 80 -34 41 -35 44 -15 44 12 0 32 -12 45 -27z m265 1
c48 -62 8 -134 -74 -134 l-45 0 0 80 0 80 49 0 c42 0 53 -4 70 -26z m195 10
c20 -20 21 -58 1 -74 -13 -11 -12 -16 6 -41 l20 -29 -24 0 c-16 0 -28 8 -35
25 -6 14 -18 25 -27 25 -9 0 -15 -9 -15 -25 0 -18 -5 -25 -20 -25 -18 0 -20 7
-20 80 l0 80 49 0 c32 0 55 -6 65 -16z m186 1 c0 -10 -11 -15 -35 -15 -24 0
-35 -5 -35 -15 0 -10 10 -15 30 -15 20 0 30 -5 30 -15 0 -10 -10 -15 -30 -15
-23 0 -30 -4 -30 -20 0 -16 7 -20 35 -20 24 0 35 -5 35 -15 0 -12 -13 -15 -55
-15 l-55 0 0 80 0 80 55 0 c42 0 55 -3 55 -15z m173 -65 c30 -69 33 -80 18
-80 -9 0 -21 4 -26 9 -16 16 -69 17 -81 2 -6 -7 -18 -12 -26 -10 -14 3 -11 16
19 82 20 42 41 77 48 77 6 0 28 -36 48 -80z m132 43 l28 -36 34 36 c18 21 38
37 43 37 6 0 10 -34 10 -80 0 -73 -2 -80 -20 -80 -17 0 -20 7 -20 43 l-1 42
-20 -24 -20 -24 -24 23 -25 23 0 -41 c0 -31 -4 -42 -15 -42 -12 0 -15 16 -15
80 0 44 4 80 9 80 5 0 21 -16 36 -37z m-571 -231 c2 -4 -8 -8 -22 -7 -22 0
-27 -4 -27 -25 0 -18 6 -26 23 -28 12 -2 22 1 22 7 0 6 -4 11 -10 11 -5 0 -10
5 -10 10 0 13 27 13 35 0 11 -18 -17 -41 -44 -38 -27 3 -39 33 -27 64 6 15 51
20 60 6z m79 -65 c18 -4 17 -5 -5 -6 -27 -1 -28 1 -26 42 l1 42 4 -37 c3 -28
9 -38 26 -41z m112 33 c0 -30 -4 -35 -26 -38 -33 -4 -53 20 -45 53 6 22 11 26
39 23 29 -3 32 -6 32 -38z m100 0 c0 -31 -3 -35 -27 -38 -27 -3 -28 -1 -28 38
0 39 1 41 28 38 24 -3 27 -7 27 -38z m101 4 c8 -20 13 -39 10 -42 -3 -3 -6 0
-6 6 0 7 -11 12 -25 12 -14 0 -25 -4 -25 -10 0 -5 -5 -10 -10 -10 -6 0 -1 18
10 40 11 22 23 40 26 40 3 0 12 -16 20 -36z m87 -37 c18 -4 17 -5 -5 -6 -27
-1 -28 1 -26 42 l1 42 4 -37 c3 -28 9 -38 26 -41z"/>
<path d="M690 410 c0 -46 2 -50 23 -50 30 0 47 18 47 50 0 32 -17 50 -47 50
-21 0 -23 -4 -23 -50z"/>
<path d="M900 434 c0 -21 4 -25 23 -22 14 2 23 11 25 26 3 18 -1 22 -22 22
-21 0 -26 -5 -26 -26z"/>
<path d="M1276 415 c-9 -23 -8 -25 9 -25 17 0 19 9 6 28 -7 11 -10 10 -15 -3z"/>
<path d="M1024 206 c-10 -26 4 -48 28 -44 17 2 23 10 23 28 0 18 -6 26 -23 28
-13 2 -25 -3 -28 -12z"/>
<path d="M1140 210 c0 -5 6 -10 14 -10 8 0 18 5 21 10 3 6 -3 10 -14 10 -12 0
-21 -4 -21 -10z"/>
<path d="M1140 176 c0 -10 9 -16 21 -16 24 0 21 23 -4 28 -10 2 -17 -3 -17
-12z"/>
<path d="M1255 200 c-8 -13 -1 -24 14 -19 6 3 7 10 2 18 -6 10 -10 10 -16 1z"/>
</g>
</svg>
