<svg xmlns="http://www.w3.org/2000/svg" role="img" xmlns:xlink="http://www.w3.org/1999/xlink" viewBox="-2.73 -2.73 142.22 45.34"><defs><path id="a" d="M23.1149,0 L45.9929,40 L33.8999,40 L16.9569,10.647 L23.1149,0 Z M120.3957,0.0567 C129.0457,0.0567 136.0837,7.0947 136.0837,15.7457 C136.0837,20.8017 133.6787,25.3027 129.9547,28.1747 L129.9547,28.1747 L136.7847,39.9887 L124.6377,39.9887 L119.7467,31.4347 L113.6517,20.9527 L120.5777,20.9527 C123.3687,20.8557 125.6107,18.5607 125.6107,15.7457 C125.6107,12.8707 123.2707,10.5307 120.3957,10.5307 L120.3957,10.5307 L107.6457,10.5307 L101.5987,0.0567 Z M89.519,0.0578 L112.572,39.9878 L100.479,39.9878 L83.473,10.5308 L65.442,10.5308 L59.395,0.0578 L89.519,0.0578 Z M10.911,21.1027 L16.957,31.5757 L12.093,39.9877 L-3.55271368e-15,39.9877 L10.911,21.1027 Z M47.2906,0.0002 L64.2976,29.5032 L82.3316,29.5032 L88.3776,39.9762 L58.2506,39.9762 L35.1976,0.0002 L47.2906,0.0002 Z"/></defs><g fill="none" fill-rule="evenodd"><g><g><g><g><mask id="b" fill="#131729"><use xlink:href="#a"/></mask><use fill="#131316" xlink:href="#a"/><g fill="#F3F4F5" mask="url(#b)"><path d="M0 40L137 40 137 0 0 0z"/></g></g></g></g></g></g></svg>