<svg xmlns="http://www.w3.org/2000/svg" role="img" viewBox="-9.99 -9.99 519.48 202.48"><path d="M0 0h55.9v47.22a8.68 8.68 0 0 1-8.68 8.68H0V0zm0 63.53h47.22a8.68 8.68 0 0 1 8.68 8.68v38.53a8.68 8.68 0 0 1-8.68 8.68H0V63.53zm0 63.52h47.22a8.68 8.68 0 0 1 8.68 8.68v47.22H0v-55.9zM119.34 55.9H72.13a8.69 8.69 0 0 1-8.69-8.68V0a55.9 55.9 0 0 1 55.9 55.9zm0 63.52H72.13a8.68 8.68 0 0 1-8.69-8.68V72.21a8.68 8.68 0 0 1 8.69-8.68h47.21zM63.44 183v-47.27a8.69 8.69 0 0 1 8.69-8.68h47.21A55.9 55.9 0 0 1 63.44 183zM126.89 0h55.9v55.9h-55.9zm0 63.53h55.9v55.9h-55.9zm0 119.47v-55.9h55.9a55.9 55.9 0 0 1-55.9 55.9zm63.44-127.1V0h55.9a55.9 55.9 0 0 1-55.9 55.9zm0 7.63h55.9v55.9h-55.9zm119.34-7.63h-55.9V0a55.9 55.9 0 0 1 55.9 55.9zm-55.9 7.63h55.9v55.9h-55.9zm0 63.52h55.9v55.9h-55.9zM317.21 0h55.9v55.9h-55.9zm0 63.53h55.9v55.9h-55.9zM373.11 183a55.9 55.9 0 0 1-55.9-55.9h55.9zm54.76-127.1h-47.21A55.9 55.9 0 0 1 436.56 0v47.22a8.69 8.69 0 0 1-8.69 8.68zm8.69 63.52a55.89 55.89 0 0 1-55.9-55.89h47.21a8.68 8.68 0 0 1 8.69 8.68zm0 63.58h-55.9v-55.9h47.21a8.69 8.69 0 0 1 8.69 8.68zM444.1 0H500v55.9h-47.22a8.68 8.68 0 0 1-8.68-8.68V0zm0 63.53a55.89 55.89 0 0 1 55.9 55.89h-47.22a8.68 8.68 0 0 1-8.68-8.68zm8.68 63.52H500a55.9 55.9 0 0 1-55.9 55.9v-47.22a8.68 8.68 0 0 1 8.68-8.68z"/></svg>