<svg xmlns="http://www.w3.org/2000/svg" role="img" viewBox="60.20 194.45 379.34 111.09"><title>Accenture logo</title><style>svg {enable-background:new 0 0 500 500}</style><style>.st1{fill:#008fff}</style><path fill="#bd00ff" d="M280 212.6l21.1 8.2-21.1 7.9v11.2l36.1-14.6v-8.9L280 201.8z"/><path d="M86.9 254.2c-10.1 0-17.5 4.5-18.1 13.9H80v-.2c.2-3.1 3.1-5.4 6.3-5.1 4.3 0 6.3 2.5 6.3 6.7v2h-5.1c-11 0-19.9 3.4-19.9 13.9v.4c0 8.5 6.3 12.3 13.9 12.3 4.7.2 9-2 11.6-5.6v4.9h11.4v-28.2c-.3-10.8-7.7-15-17.6-15zm-2.4 35.6c-4 0-5.8-2-5.8-4.9v-.4c0-3.8 2.9-5.4 8.7-5.4h4.7v4c.2 4.4-3.6 6.7-7.6 6.7zm46.7-.5c-5.6 0-8.5-3.8-8.5-12.3v-1.3c0-8.3 3.4-12.3 8.5-12.3 4 0 6.3 2.7 6.9 6.7h11.2c-.9-11-9-15.9-18.4-15.9-11.2 0-20.1 7.6-20.1 21.9v.4c0 14.3 8.5 21.5 20.1 21.5 11.4 0 17.9-6.9 18.8-16.3H139c-.8 4.7-3.7 7.6-7.8 7.6zm43.7 0c-5.6 0-8.5-3.8-8.5-12.3v-1.3c0-8.3 3.4-12.3 8.5-12.3 4 0 6.3 2.7 6.9 6.7H193c-.9-11-9-15.9-18.4-15.9-11.2 0-20.1 7.6-20.1 21.9v.4c0 14.3 8.5 21.5 20.1 21.5 11.4 0 17.9-6.9 18.6-16.3h-10.5c-.7 4.7-3.8 7.6-7.8 7.6zm44.1.2c-5.1 0-8.3-2.9-8.7-10.5h27.3v-4.9c0-13.9-8.7-19.9-19.2-19.9-11.4 0-20.1 7.8-20.1 21.9v.9c0 14.1 8.3 21.3 20.4 21.3 11 0 17.7-6 18.8-14.1h-11c-.6 3.3-4 5.8-7.5 5.3zm-.7-27.3c4.7 0 7.6 2.7 7.8 9h-15.7c.9-6.7 4.3-8.7 7.9-9z"/><path d="M210.5 271.2h-.3z" class="st1"/><path d="M269.3 254.2c-5.4-.2-10.3 2.5-12.8 7.2v-6.3h-11.6v42.1h11.6v-25.7-1.1c.2-3.8 3.6-6.9 7.4-6.7 4.3 0 6.3 2.2 6.3 7.2v26.3h11.9V269c0-10.3-5.2-14.8-12.8-14.8zm34.7 29.5v-19.9h8.1v-8.7H304v-12.8l-11.6 4.9v7.8h-5.1v8.7h4.9V285c0 8.5 4.3 12.8 13.4 12.8 2.2 0 4.5-.2 6.7-.9v-9.2c-1.3.4-2.7.7-4 .7-2.7 0-4.3-1.5-4.3-4.7zm40.5-2.4v1.1c-.2 3.8-3.6 6.9-7.4 6.7-4.3 0-6-2.2-6-7.2V255h-11.9v28.4c0 9.8 5.6 14.5 13.2 14.5 5.1.2 9.8-2.5 12.3-7.2v6.3h11.9v-42.1h-11.9l-.2 26.4zm32.2-18.6v-7.8h-11.6V297h11.6v-21.8c0-6.9 4.7-9.4 12.8-9.4v-11.6c-5.8 0-11 3.3-12.8 8.5zm55.7 11.2c0-13.9-8.7-19.7-19.2-19.7-11.4 0-20.1 7.8-20.1 21.9v.9c0 14.1 8.3 21.3 20.4 21.3 11 0 17.5-6 18.8-14.1h-11c-.9 3.6-4.3 5.8-7.8 5.6-5.1 0-8.3-2.9-8.7-10.5h27.3v-5.4h.3zm-27.3-2.7c.9-6.9 4.3-9 8.1-9 4.7 0 7.6 2.7 7.8 9h-15.9z"/><path d="M405.1 271.2z" class="st1"/></svg>