<svg xmlns="http://www.w3.org/2000/svg" role="img" viewBox="-14.70 -14.70 764.40 170.90"><title>Bank of England (member) logo</title><defs><style>.cls-1{fill:#231f20}.cls-2{fill:#fff}</style></defs><path d="M185.61 52.75h10.31c8.08 0 11.69 4.59 11.69 9.57a8.37 8.37 0 0 1-4.76 7.91v.11a9.12 9.12 0 0 1 7.22 9.17c0 6-4.47 11-13.12 11h-11.34zm9.57 16c4.24 0 6.47-2.18 6.47-5.56 0-3.15-2-5.5-6.47-5.5h-3.55V68.8zm1.26 16.72c4.69 0 7.5-1.71 7.5-6 0-3.61-2.69-5.79-6.87-5.79h-5.44v11.84zm36.26-32.89h4.47l15 37.93h-6.41L242 80.83h-14l-3.61 9.68h-6.19zm7.45 23.32l-3-8.59c-1.09-3.1-1.61-4.82-2-6.08H235c-.41 1.32-1 3-2.07 6.08l-3.15 8.59zm22.12-23.15h5.9l16.55 21.43c1.95 2.52 3.44 4.58 4.65 6.42h.11c-.06-2-.11-4.13-.11-6.48V52.75h6v37.76h-5.33l-17.18-22.29c-1.89-2.4-3.32-4.47-4.64-6.24h-.11c.11 1.66.17 3.61.17 6.07v22.46h-6zm47.32 0h6v16.5h.12l13.4-16.5h7L320.82 71.2 337 90.51h-7.3l-14-16.79h-.12v16.79h-6zm49.77 19.03c0-11.46 7.85-19.37 18.85-19.37S397 60.43 397 71.78c0 11.68-8 19.3-18.79 19.3-10.94 0-18.85-7.67-18.85-19.3zm31.28 0c0-8.54-4.7-14.27-12.43-14.27-7.45 0-12.43 5.44-12.43 14.27s5 14.2 12.43 14.2 12.43-5.38 12.43-14.2zm18.91-19.03h21.82l-1.66 4.93h-14.15v11.06h13.92v4.93h-13.92v16.84h-6zm49.1 0h22.79l-1.66 4.93h-15.12v11.06h15v4.93h-15v11.91h17v4.93h-23zm35.74 0h5.9l16.56 21.43c1.95 2.52 3.44 4.58 4.64 6.42h.12c-.06-2-.12-4.13-.12-6.48V52.75h6v37.76h-5.33L505 68.22c-1.89-2.4-3.32-4.47-4.64-6.24h-.11c.11 1.66.17 3.61.17 6.07v22.46h-6zm78.26 35.35a30.22 30.22 0 0 1-13.23 3c-12 0-19.43-7.9-19.43-18.79 0-11.51 8.08-19.88 20.34-19.88a30.29 30.29 0 0 1 10.78 2V60a22.71 22.71 0 0 0-10.32-2.46c-9.34 0-14.38 5.9-14.38 14.32 0 8.6 5.1 14.15 13.47 14.15a16.47 16.47 0 0 0 6.76-1.26v-12.4h6zm13.81-35.35h6v32.83h13.58v4.93h-19.58zm40.67-.17h4.47l15 37.93h-6.42l-3.67-9.68h-14l-3.6 9.68h-6.19zm7.45 23.32l-3-8.59c-1.08-3.1-1.6-4.82-2-6.08h-.12c-.4 1.32-1 3-2.06 6.08l-3.15 8.59zm22.12-23.15h5.9l16.55 21.43c2 2.52 3.44 4.58 4.64 6.42h.12c-.06-2-.12-4.13-.12-6.48V52.75h6v37.76h-5.33L667.3 68.22c-1.89-2.4-3.33-4.47-4.65-6.24h-.11c.11 1.66.17 3.61.17 6.07v22.46h-6zm47.3 0h10.83c13.4 0 20.45 7.62 20.45 18.63 0 11.22-7.62 19.13-20.91 19.13H704zm10.43 32.83c10.59 0 14.43-6.59 14.43-14.15 0-8.13-4.75-13.75-14.55-13.75H710v27.9zM0 70.87A70.87 70.87 0 1 0 70.86 0 70.87 70.87 0 0 0 0 70.87" class="cls-1"/><path d="M3.39 70.86A67.48 67.48 0 1 0 70.86 3.38 67.48 67.48 0 0 0 3.39 70.86" class="cls-2"/><path d="M6 70.85A64.85 64.85 0 1 0 70.87 6 64.85 64.85 0 0 0 6 70.85" class="cls-1"/><path d="M85.36 111.22c-10.94 1.4-16.34-2.07-24.88-9.14.7 4.2 3.72 7.45 6.22 9.28 2.3 1.64 7.11 2.88 10.3 2.88s6.13-1.79 8.36-3.02zm-22.83 7.33c.56.08.91-.9.44-1.21-.83-.55-1.56-1.48-.82-3.72-.95.06-3.29-1.15-4.25-5.24-.54 3.96 1.87 9.76 4.63 10.17zm7.15-2.55c-.77-2.33-5.28-2.65-5.74-3.83-.39 1.34-1 1.4-1.1 3.61 2-1.62 3.94 1 4.75 2.16s2.83.27 2.09-1.94zm4.26 2.54c-.44-.73-1.4-.71-2.49-3.42a2.59 2.59 0 0 0 .22 3.64 1.67 1.67 0 0 0 2.27-.22z" class="cls-2"/><path d="M66.5 76.46c-11.66 0-13.45 17.13-13.45 23.82 0 1.22 0 3.48-.08 4.43L50.13 93.4c-.7 0-1.13 1.62-1 2.3l7.91 31.63c.3 1.08.47 1.87 1.22 1.71s.3-1.92.09-2.84l-3.21-12.8a20.47 20.47 0 0 0 1.7-5.35c-.74 0-2.28-.22-2.5-1.11 2.35-.07 2.71-.71 2.75-1.08.91-8.14-.09-18.14 3.32-23.48s10.75-4.53 13.47-4.82c-1.4-.89-5.08-1.1-7.38-1.1zm-25.65 44.07c3.87 1 10.1-1.2 11.93-4.11-.25-1.16-.47-1.94-.79-3.33a8.24 8.24 0 0 1-2.52 4.46c-2.76-1.82-3.54 2.21-8.62 2.98zm20.99-49.32c-6.92 1.1-8.93-.58-11.16-.28-3.26.44-4.88 2.61-4.27 4.71.11-.82 1.84-2.61 3.39-2.39-.77.81-1.27 1.49-1 2.32a1.38 1.38 0 0 0 1.54-.34c1.76-1.51 4.37-1.82 6.41-1.82 2.45 0 4.87-.39 5.85-1.23.4-.3-.44-1.02-.76-.97zm64.32-30.83c-4.07 3.61-5.41 1.84-8.54 2.83-.16 0-.07-.38-.24-.31 4.08-5.41 7.18-1.9 8.78-2.52z" class="cls-2"/><path d="M122.53 46.38c0-1.89-2.23-4.42-5.71-3.07 2.68 2.69 4.35 2.43 5.71 3.07zm-28.68 61.04c.18-.44.75-.75.18-1.18-2-1.51-.37-2.17-1-2.72-2-1.48-4.41.77-7.4-3.42 1.44.6 3.27 1.94 5.1 1.36-1.78-5.72-5.1-14.4-5.77-18-.23-1.16-.51-2.89-3.35-2.89a7.54 7.54 0 0 0-3.69.78c.23-.61 2.34-1.82 3.74-2-6.85-1.31-18.52-2-20.41 6.72-.42 2 2 4.77 8.58 2.47.95-.34 2.06.39.61 1.78s-6.3 4.75-10.54 1.79c.94 1.45 3.9 2.45 6.25 2.45s6.23-.41 8-5.43a6.58 6.58 0 0 0 5.36-3.1c-.63 4.21-2.07 5.64-3.54 6.74-1 2.17-3.29 6.93-10 6.93a6.19 6.19 0 0 1-4.16-1.07c3.33 4.28 18.34 16 30.68 9.61a6.16 6.16 0 0 1-3.2 2.76c-3.12 1.23-5.32 4.82-15 5.34.21 3.09 5.17 2.4 6.29 2-1.88-.28-2.86-.64-3-1.12a24.54 24.54 0 0 0 11.78-2.21c-.44 1-.7 1.69-1.69 2.13 5.85.48 7.81-4.35 9.19-4.84a22.2 22.2 0 0 0-3.01-4.88zm-26.6-41.13c-.54 1.38-3.2 3-2.65 5.19 0-.66 3.14-3.45 3.87-4.86 1.52-2.93.66-3.87.11-6.52a16.39 16.39 0 0 1-1.33 6.19zM47.81 94.35c.53.64.87 2 1.59 2-.15-.17.16-1.44-.3-2.07-.37-1.91-.2-2.8 0-2.94.88-.58.59 1.51 1.23 2a.52.52 0 0 0 .66.12 10.38 10.38 0 0 1 0-2.15 14 14 0 0 1-.66-2.77 10.22 10.22 0 0 0-2.61-3c-.45-.56-.91-1.44-1.5-2.3-1.2-1.74-3.37-7-5.28-11.18-1.29-2.85-2.72-4.28-2.28-5.08a15.81 15.81 0 0 0 1.24-2.49c-.5-2-2.08-8.06-2.94-11.48-2.63 4.73-2.5 11-3.12 13.16s.16 2.51.33 3.6c.54 3.5 3.6 8.45 5.61 10.55 1.15 1.19 4.6 4.85 4.6 6.35a11 11 0 0 1 .32 3c.18.57.49.48.83.83.16.17.2.76.57.94a3.47 3.47 0 0 1 .81.51c.28.24.57 2.05.9 2.4z" class="cls-2"/><path d="M74.05 72.92c-1 .73-4.08-1.09-6.19-.83-1.43.22-2.15 1.12-2.89 1.23-4.29-.84-9.1 2-11.46 5.57-.38.56-.91 1-1 1.76s.54 1 .1 2.1a16.9 16.9 0 0 0-.54 7.77c.81-2.87 3.24-12.74 12.52-14.62-2.32-.44-5.67.55-7.95 1.51 2.58-3 6.84-2.87 9.67-2.73.14 0-.58-.58-.83-1.14.59 0 1.23.69 3.2.59a33.44 33.44 0 0 0 4.14-.38 12 12 0 0 1-5.72 1.6c7.14 2.21 8.47-.44 12.22-1-.5-.99-2.79-1.65-5.27-1.43zM43.48 92.49C42 85.42 36.75 80.81 32.76 79.75a38.7 38.7 0 0 0-1.82 12.72 102.13 102.13 0 0 1 12.54.02zm-11.69 8.01a44.41 44.41 0 0 0 4.42 13.1c3.26-1.63 7.28-5.48 7.93-13.48a103.51 103.51 0 0 0-12.35.38zm-6.9-19.76c-3.35 1.92-6.76 6.36-7.13 13.74 1.44-.37 3.48-.87 5.41-1.16a37.26 37.26 0 0 1 1.72-12.58zm-6.18 21.37c2 7.27 6.76 10.55 9.54 11.65A41.71 41.71 0 0 1 24 101.31c-2.33.32-4 .58-5.29.8zM54 75.64c-5.31.7-5 4.94-4.53 5.9 1.08-2.41 1.65-3.39 4.53-5.9zM43.84 60.17c1.12-.78 1.12-2.69.95-3.58a4.66 4.66 0 0 0-.95 3.58zm74.4-20.78c-3.59.16-5.19 1.29-5.76 5.07 5.85-2.21 4.36-4.46 5.76-5.07z" class="cls-2"/><path d="M63.5 53.33c-.35 2.11-2.14 2.13-2.87 3.09-.28-.39.11-1.57.33-2.06a7 7 0 0 0-3.32 5.3c-.55-.92-1.51-4-4.23-5-.83-.29-.4.54 0 1.4a12.86 12.86 0 0 1 1.1 4.94 3.67 3.67 0 0 1-1.23 2.81c.57-4.36-2-9.44-2.6-9.44-1.1 0-2.72 6.7-.41 11.67-4.74-5.78-1.94-10.81-1.94-12.11a3.55 3.55 0 0 0-1.4-3.32c.59 4.35-1.29 6-2 9.59-.34 1.78-.33 3.19.26 4s1.65 1.81 2 2.31 2 2.65 3.2 2.65c1 0 1-1.5.54-2a1.88 1.88 0 0 1 1.6.45c.81.84.25 1.6.55 1.58 1.57-.11 3.67-5.69 4.15-7.42 1.67 4.44-1.53 8.2-1 8.19 1.39 0 4-3.24 4.79-4.49a1.57 1.57 0 0 1 0 .74c-.25 1-.47 2.21 0 2.21 1.33 0 2-4.22 2.17-5.86s2.36-2.5 2.2-5.18c-.06-1-1-3.05-.62-4 1 .55 1.73 1 2.37 1.3a24.34 24.34 0 0 0 3.77 1.38c2.39.62 5.71 1.52 6.57 1.75a7.73 7.73 0 0 0 2.09.55c3.69 0 9.13-2.93 9.67-3.35s2.11-1.24 3.11-1.85a17.18 17.18 0 0 1 3.76-2.07 1.53 1.53 0 0 1 1.31.09 8 8 0 0 0 3.21 1 33.93 33.93 0 0 0-3.68 5.27 3.71 3.71 0 0 0 .79.52 37.91 37.91 0 0 1 4.62-6.38c.11-.11-.63-.25-.52-.74.07-.08 1.52.74 2.48.44.06-.06.47 0 .42-.53.47-.16.6-.57.55-.66a17.09 17.09 0 0 0-2.44-.34c-.12 0-.51.22-.43.49-.22 0-.55.11-.57.33-2.15.89-4.4-1.59-6.18-1.06.6-1.16 3.5.08 4.84.11 1.85 0 2.16-.72 4.64.06 1.52.33 1.84-.35.72-.8-.87-.36-2.36-.64-3-1a8 8 0 0 1 3.6.4c.29 0 .22-.14.28-.22a30.76 30.76 0 0 1 10.9-4.93l.09-.59c-2.81.5-5.49 1.38-11.45 4.76a10.66 10.66 0 0 0-2.22-.54c-2.54.3-7.64.29-9 .83-6.51 2.71-11.49 3.1-14.36 4.75-1.63.95-3.73-.9-4.42-1.38a18.81 18.81 0 0 0-3.61-2c-.53-.23-3.06-1.69-3.57-1.79-2.63.43-5.11 4.05-5.61 6.15z" class="cls-2"/><path d="M48.42 50.45c1.45 1.68 4.2 3.35 7.18 2.36-4.31-.94-7.6-9.81-12.5-10.09-1-.07-2.58.3-4.13 2.36 5.53-2.14 8.09 3.81 9.45 5.37zm64.2-10.9c-.81 0-4.64 1.11-3.61 6.49 3.99-2.66 3.1-5.68 3.61-6.49zm-4.99 2.65c-3.42 1.83-2.49 3.69-2.56 5l.85.33c2.54-2.53 1.38-4.7 1.71-5.33zm-6.13 80.73c-2-.48-3.38.09-5.23-1.18a24.74 24.74 0 0 0-6.18-2.87 14.14 14.14 0 0 1-7.37.9c-2.28 1.23-4.88.83-7.13 0a3.82 3.82 0 0 1-4.87.13c-3.61 2.13-3.09-.94-5.53-1a7 7 0 0 1-8-.12c.33 1.4.78 3 1.16 4.6h43.54s.72-.2-.39-.46zm-1.09 2.24H58.84l.71 2.91c.34 1.67-.3 2.6-1.58 2.56s-1.71-.57-2.12-2.12l-.85-3.35H41.59a61.88 61.88 0 0 0 58.82 0zM33.79 50.74c-9.18 12.74-4.91 20.44-4.1 22.07-.44-1.92-1.25-5.64 0-8.88a5.35 5.35 0 0 0 1.55 3.61c-.29-3.24-1.69-6 3.79-17.33.39-.83-.48-.52-1.24.53zm15.88 52.78c-.31-1.36-1.34-5.51-1.86-7.48a6.89 6.89 0 0 0-2.35-2.33c.09.41.18.82.25 1.25a24.31 24.31 0 0 1 .22 6.42c-.68 7.07-4.33 14.35-12.06 15.51-8.37 1.25-17.41-8.63-17.21-20.89s7.51-17.9 13.09-18a12.83 12.83 0 0 1 7.9 2.56 26.59 26.59 0 0 1-2.89-6.42 13.82 13.82 0 0 0-4.93-.75C17 74.1 11.28 90.15 14.34 102.78a28.37 28.37 0 0 0 7.23 13.5c1.9 1.76 4.92 4.38 8.62 5 9.86 2.23 18.12-6.59 19.48-17.76z" class="cls-2"/><path d="M33.56 33.18c.18.52 11.28 45.22 11.54 46.26.2.78.61 1.52 1 1.44s.77-.57.47-1.63c0 0-4.64-18.23-4.8-19 1.38-2.21 1.69-5.45 3-7.12.78 1.07.87-.05.89-.89.14-5.58-2.91-6.46-3.56-6.5-2.7-.17-3.18 2.94-3.18 2.94L35 32.87a2.08 2.08 0 0 1 1.82.72c-.16-1.64-1.87-7.27-5-8.92a15.51 15.51 0 0 0 .2 10.21 2.1 2.1 0 0 1 1.54-1.7zm19.89 85.71c-3.39 2.36-9.12 3.69-12.32 3.8-1.66 0-1.71.52-1.62.73H54.6s-.86-3.42-1.15-4.53zm59.65-74.48c5.16-.13 5.83 2.46 5.75 3.65-.47-.44-4.42-.06-5.75-3.65zm-3.61 1.77c2.1 3.06 4.61 2.77 5.93 3.24a5 5 0 0 0-5.93-3.24zm.04 2.14c-.78-.39-2.45-.82-3.31-.33 0 0 .36 3.46 5.74 2.79a17.94 17.94 0 0 0-2.43-2.46zm-8.84 72.99a5.3 5.3 0 0 0 3.83-1 1.43 1.43 0 0 0 1.77-1 29.28 29.28 0 0 1-5.4-3.43c-1.27-1.13-1.92-2-3.07-2.39-1.55.74-3.91 4.13-5.08 4.34 2.72 1.17 4.66 3.47 7.95 3.48zm1.14-27.86c-.18.75-1.34 1.11-2.58.81s-2.09-1.16-1.91-1.91a4.57 4.57 0 0 0 2.58-.81 6.68 6.68 0 0 0 1.91 1.91zm.86 4.93a3.3 3.3 0 0 0 2.55-.07 2.6 2.6 0 0 1-1.09 2.41c-1.08.87-2.52 1-2.94.51a2.88 2.88 0 0 0 1.48-2.85zm-3.84 4.13c1.09.51 1.74 1.41 1.56 2.24-.25 1-1.73 1.61-3.32 1.25s-2.69-1.51-2.45-2.56a1.69 1.69 0 0 1 1.13-1.14 4.7 4.7 0 0 0 3.08.21zm-1.06-3.93h-.15c-1.48-.55-1.82-1.31-1.75-2.28-.77 0-2.37.13-2.23 1.36a2.35 2.35 0 0 0 2 1.65 1.23 1.23 0 0 0-.42.89c0 .88 1.17 1.58 2.59 1.56s2.56-.75 2.55-1.63-1.17-1.57-2.59-1.55zm9.21 8.32c-.6 1-2.19 1.09-3.56.25s-2-2.31-1.38-3.29 2.19-1.09 3.56-.25 1.99 2.31 1.38 3.29zm8.42 8.36a4.31 4.31 0 1 1-4.28-3.79 4.05 4.05 0 0 1 4.28 3.79zm2.04-15.26a2 2 0 0 1 1.27 1.41c.24 1.22-1 2.47-2.64 2.8s-3.26-.39-3.5-1.61a2 2 0 0 1 .58-1.71c.54.39 3.27.56 4.29-.89zm1.72 8.22a3 3 0 0 1-3.13-2.92 3.36 3.36 0 0 0 3.3-2.73 2.85 2.85 0 1 1-.17 5.65zm-10.86.18c4.12.37 5.17-1.42 5.54-3.09a5 5 0 0 1 .61.33 2.85 2.85 0 0 1 1.42 2.6c-.15 1.64-2 2.8-4.11 2.6a3.86 3.86 0 0 1-3.46-2.44z" class="cls-2"/><path d="M100.12 111.61a2.32 2.32 0 0 1 1.56-1.29c0 .8 1 3.62 5.26 2.91a1.31 1.31 0 0 0 .26 1.39c-.6 1.4-2.67 1.86-4.62 1s-3.06-2.62-2.46-4.01zm1.75-2.28c-.29 1-1.78 1.34-3.31.86s-2.53-1.64-2.24-2.6c.48.24 1.81.51 3.32-.85 1.53.47 2.53 1.64 2.23 2.59z" class="cls-2"/><path d="M108.58 111.77a6.48 6.48 0 0 1-1.81.26c-2.26 0-4.09-1.12-4.09-2.49a5.64 5.64 0 0 0 4.42-1.54 4.13 4.13 0 0 0 1.48 3.77zm2.94-19.49c-2 1.22-3.43 1.44-4 1 1.8-.48 3.07-1.61 2.83-2.52s-1.42-1.15-2.88-1c-.13.87-.44 2-3.61 2a1.06 1.06 0 0 0-.06.65c.18.66 1.08 1 2.25 1-.57 1.38-2.12 1.93-3.77 1.71 0 1.09 1.32 2 3.06 2.11s3.2-.73 3.25-1.82v-.11a5.74 5.74 0 0 0 1.06.16c1.76.1 3.24-.63 3.29-1.63.06-.57-.53-1.18-1.42-1.55zm-15.1 1.58c0-.9-1.48-1.62-3.31-1.62h-.29c-.28-3.89-.57-8.15-.52-10.61 0-1.33-.23-2.73-2-3.39-1.62-.6-7.46-2.83-9.3-3.25-2.29 0-4.3 1.33-6.09 2.59.53 0 .67-.09 1.13-.08a17.47 17.47 0 0 1 5.58.63 6.27 6.27 0 0 1 3.3 1.87c.49.89 2.25 2.34 3 2.34s1.74-.67 3.07-1.62a7.34 7.34 0 0 1-2 3.84c-.72.93-1.11 3-.59 5.38.44-1.1.47-3.45 2.36-4.49-.86 1.56-.89 6-.89 7.73s1.33 4.35 3.46 8.47c.21-.89 0-2.74-.21-6.17h.07c1.75-.01 3.23-.73 3.23-1.62zm14.89 8.77c-.66.89-1.27 2.47-3.58 2.92.59 1 2.2 1.23 3.73.57a3.91 3.91 0 0 0 .94-.54 4.65 4.65 0 0 1-1.09-2.95zm4.69-7.02c-1.62-.69-3.23-.56-3.59.29a1.79 1.79 0 0 0 .62 1.65 2 2 0 0 1-1.85-1.1 3.15 3.15 0 0 1-1.84.11 1.82 1.82 0 0 0 .2 1.48 3.18 3.18 0 0 0-2.83.46c-1.37.91-1.9 2.51-1.19 3.57s2.39 1.18 3.76.27a2.87 2.87 0 0 0 1.38-3.2 3.7 3.7 0 0 0 .83.38 2.83 2.83 0 0 0 3.36-.78c1.57.62 3.09.47 3.43-.34s-.64-2.1-2.28-2.79zM66.59 45.26c-2.18-1.59-2.23-3.21-3.28-2.69 1.33 2.88 1.07 4.94-3.13 7-.29-.77.78-1.21 1.62-2s1.29-2.31.74-4.49c-.11-.45-1-2.73-3.09-2.69 1.18 1.69 2.39 3.52 1.29 6.39 0-2.43-.52-3.2-2.18-5.17-.48.59-1.64 1.32-1.74 2.68-1.4-.73 1.91-4.43 1.22-6.07a3.42 3.42 0 0 1-1.51-2.73 7.67 7.67 0 0 0 4.3 2.1c.84.13 1.71 0 1.88-.55s-.13-.71-.1-1 0-.48.53-.46c.18-.51 0-.66-.3-.86a.76.76 0 0 0 .78-.48c-.11-.19-.24-.33-.12-.62.22-.54 1.37-.21 1.46-.8.05-.33-.18-.62-.33-1-.25-.56-.26-.56-.72-1.68-.23-.57.07-1.11.17-2a6.18 6.18 0 0 0-.36-2.14c1.47-1 1.31-2.42.69-2.64-1.55-.44-3.9-3.39-6.93-3.61-2.32-.17-5.36-.16-6.74 1.6-1 1.3-3.19 3.29-3.59 5.42-.44 2.32.11 4.76 1.66 5.87a12 12 0 0 1-.5-4.1c0-1.19.61-5.8 4.94-7.82 2.4-.63 5.5-.58 6.49 1.08a8.18 8.18 0 0 0-5.41.33 4.48 4.48 0 0 0-2.91 5.08A1.5 1.5 0 0 1 50 25.89c-.36.93-.87 3.87 1.39 5.4.52.35 1.22 0 1-.39-.93-1.5-.2-2.72.12-2.84a2.73 2.73 0 0 0 1.71-2.15 2.23 2.23 0 0 1-.44 2.93c2.38-.56 1.16-1.59 4.25-2-1.91 1.11-1.25 2.56-3.28 3.22 3.51 1.27 2.93-4.31 6.71-3.88-3.29.34-2.93 8.87-10.35 10.38-1 4.63-2.83 4.94-5.49 6.08 5.4 1.58 7.63 8.58 13.37 7.55a2.06 2.06 0 0 1-2.13 1c-.08 1.47.12 2.67 1.23 2.61 5-1.1 6.24-6.57 11-7.4-.29-.59-1.69-.48-2.5-1.14zm-6.08-20.18c1.66-.55 1.55-1.49.93-2.69 2.89 1.42 2.5 3.02-.93 2.69zm1.76 4.11c.11 0-.11-.82-1.44-.74 1.69-.91 2.91 0 2.88.19-.09.41-.55.61-.59.93 0 .13.29.22.37.35a4.93 4.93 0 0 0-.58.13c0 .13-.2.59-.34.61-.83 0-1.31-.92-1.85-1.08.12.05.65-.29 1.55-.39zm-13.75 4.23c-4.13 3-1.19 6.65-4.58 8.45 3.95-.13 2.88-5.8 4.58-8.45zM26.52 80a9.81 9.81 0 0 1 4.83-.48c-4.58 15.85.18 28.87 3.51 34.56a9.29 9.29 0 0 1-5 .16c-4.4-8.77-7.46-21.74-3.34-34.24z" class="cls-2"/><path d="M17.76 95.93a35.67 35.67 0 0 0 .59 4.79c5.82-1.07 13.17-1.84 25.87-2.09a20.68 20.68 0 0 0-.44-4.91c-7.78-.72-21.35.44-26.02 2.21zm106.97 13.46a52.9 52.9 0 0 1-4.5 5.25c-1.8-.44-3.07-1.5-3.07-2.72 0-1.63 2.24-3 5-3a7.67 7.67 0 0 1 2.57.47zM106.6 89.46c0 .69-1.41 1.18-3.09 1.11s-3-.69-3-1.38 1.49-1.19 3.11-1.11 3.01.69 2.98 1.38z" class="cls-2"/><path d="M101.67 87.68c-.21-.51-1.86-.31-3.7.45s-3.15 1.78-2.97 2.29 1.87.3 3.7-.45 3.18-1.78 2.97-2.29zm-.87 7.59a1.67 1.67 0 0 0 .28 2.18 4.28 4.28 0 0 1-1.88.4c-1.54 0-2.78-.69-2.78-1.53s1.24-1.53 2.78-1.53a2 2 0 0 0 1.6.48z" class="cls-2"/></svg>