<svg xmlns="http://www.w3.org/2000/svg" role="img" viewBox="34.81 135.31 529.88 128.88"><title>Blockdaemon logo</title><style>svg {enable-background:new 0 0 600 400}</style><style>.st0{fill:#010202}</style><path d="M500.2 182.4c7.6 0 14.6 5.7 14.6 13.7 0 8.6-6.1 14.7-14.6 14.7s-14.6-6.1-14.6-14.7c-.1-8.1 6.9-13.7 14.6-13.7zm-262.5 0c7.6 0 14.6 5.7 14.6 13.7 0 8.6-6.1 14.7-14.6 14.7s-14.6-6.1-14.6-14.7c0-8.1 7-13.7 14.6-13.7zm41 .1c2.2 0 4.3.5 6.3 1.3v8.3c-1.4-1.9-3.7-2.9-6-2.9-4.2 0-7.1 3.2-7.1 7.4s2.9 7.2 7.2 7.2c2.2 0 4.5-1.1 5.9-2.8v8.3c-2.3.7-3.9 1.2-6.1 1.2-3.7 0-7.2-1.4-9.9-3.9-2.9-2.6-4.3-6.1-4.3-10.1 0-3.6 1.4-7.1 3.9-9.7 2.7-2.6 6.4-4.3 10.1-4.3zm256.7.8l12.6 16.3h.1v-16.3h6.9v26.6h-6.9l-12.6-16.3h-.1v16.3h-6.9v-26.6h6.9zm-83.9 0l5.4 14.2 5.7-14.2h6.9l4 26.6h-6.9l-1.9-15.3h-.1l-6.4 15.3h-2.7l-6.1-15.3h-.1l-2.2 15.3h-6.9l4.5-26.6h6.8zm-24.5 0v5.9h-8.2v4.4h7.8v5.9h-7.8v4.6h8.2v5.9h-15.1v-26.6H427zm-37.7 0l10 26.6H392l-1.7-4.6h-9.5l-1.8 4.6h-7.3l10.2-26.6h7.4zm-42.6 0c7.4 0 13.5 5.8 13.5 13.3 0 7.5-6.1 13.3-13.5 13.3H337v-26.6h9.7zm-40 0v11h.1l8.3-11h8.5l-10.5 12.6 11.5 14h-8.9l-8.9-11.5h-.1v11.5h-6.9v-26.6h6.9zm-103.4 0V204h8.3v5.9h-15.1v-26.6h6.8zm-31.3 0c4.7 0 7.9 1.8 7.9 6.9 0 2.4-.8 4.3-2.9 5.4v.1c3.8.5 5.4 3.1 5.4 6.8 0 5.6-4.7 7.4-9.6 7.4h-10.6v-26.6h9.8zm3.4 18.5c0-3.2-3.4-2.9-5.7-2.9h-.7v5.7h1.5c2.1 0 4.9-.2 4.9-2.8zm324.8-12.7c-4.1 0-7.5 3.4-7.5 7 0 4.6 3.4 7.9 7.5 7.9s7.5-3.4 7.5-7.9c-.1-3.7-3.4-7-7.5-7zm-262.5 0c-4.1 0-7.5 3.4-7.5 7 0 4.6 3.4 7.9 7.5 7.9s7.5-3.4 7.5-7.9c0-3.7-3.4-7-7.5-7zm107.8 0h-1.6V204h1.5c4.1 0 7.6-2.3 7.6-7.5 0-4.7-3.1-7.4-7.5-7.4zm40 2.4l-2.9 8.5h5.7l-2.8-8.5zm-216-2.9h-.5v5.2h.8c1.8 0 3.7-.3 3.7-2.6 0-2.5-2.1-2.6-4-2.6z" class="st0"/><path d="M72.5 168.271l12.6-7.3 12.9 7.5 27.2-22.1v84.5l-40.1 23.3-40.1-23.4v-84.9l27.5 22.4zm-20.5 26.7v31.8l33.1 19.2 33.1-19.2v-31.3l-33.1 19.6-33.1-20.1zm1.4-7.4l31.8 19.3 32.2-19-32.2-18.7-31.8 18.4zm51.9-15.9l12.9 7.6v-18.2c-4.3 3.6-8.6 7.1-12.9 10.6zm-53.3 7.2l12.9-7.6-12.9-10.6v18.2z" class="st0"/></svg>