<svg xmlns="http://www.w3.org/2000/svg" role="img" viewBox="-4.59 2.41 446.94 86.94"><title>Blockchain Research Institute (Tapscott Group) logo</title><path fill="#c3c3c3" d="M239 59h1v1h-1z"/><path fill="#8b8b8b" d="M301 49h1v1h-1z"/><path d="M14 20h1v33h-1zm14 0h1v1h-1zm145 0h1v42h-1zm23 12h1v1h-1zm120 3h1v1h-1zm-186 1h1v1h-1zm107 2h1v1h-1zm-32 7h1v1h-1zM90 47h1v1h-1zm291 0h1v1h-1zm-144 1h1v1h-1zM14 53h1v1h-1zm74 0h1v1h-1zm291 0h1v1h-1zM38 58h1v1h-1zm222 1h1v1h-1zM80 61h1v1h-1zm126 0h1v1h-1zm165 0h1v1h-1zm-198 1h1v1h-1zm221 1h1v1h-1zm6 0h1v1h-1zm19 0h1v1h-1zm6 0h1v1h-1z" fill="#d3d3d3"/><path d="M34 25h1v1h-1zm21 32h1v1h-1zm291 0h1v1h-1z" fill="#eee"/><path fill="#777" d="M36 27h1v1h-1z"/><path d="M218 32h1v1h-1zM88 34h1v1h-1zm291 0h1v1h-1zM80 40h1v1h-1zm291 0h1v1h-1z" fill="#7f7f7f"/><path d="M74 33h1v1h-1zm43 0h1v1h-1zm125 0h1v1h-1zm84 0h1v1h-1zm39 0h1v1h-1zm-127 3h1v1h-1zm-19 1h1v1h-1zm-12 8h1v1h-1zm-13 3h1v1h-1zm94 0h1v1h-1zm-23 2h1v1h-1zM44 51h1v1h-1zm257 3h1v1h-1zm-90 3h1v1h-1zm126 0h1v1h-1zm-39 2h1v1h-1zM64 62h1v1h-1zm180 0h1v1h-1zm111 0h1v1h-1z" fill="#a1a1a1"/><path d="M35 14h1v1h-1zm6 4h1v1h-1zm239 8h1v1h-1zm12 0h1v1h-1zm-181 1h1v1h-1zm-29 1h1v1h-1zm27 0h1v1h-1zm264 0h1v1h-1zm-113 1h1v1h-1zM38 31h1v1h-1zm224 0h1v1h-1zM56 32h1v1h-1zm252 0h1v1h-1zm39 0h1v1h-1zm-76 3h1v1h-1zm-150 3h1v1h-1zm160 1h1v1h-1zm-76 1h1v1h-1zM52 41h1v1h-1zm252 0h1v1h-1zm39 0h1v1h-1zm-86 1h1v1h-1zm0 5h1v1h-1zM52 48h1v1h-1zm252 0h1v1h-1zm39 0h1v1h-1zM33 52h1v1h-1zm46 0h1v1h-1zm214 0h1v2h-1zm77 0h1v1h-1zm-95 2h1v1h-1zm18 0h1v1h-1zm36 0h1v1h-1zm-121 1h1v1h-1zm43 0h1v1h-1zm26 0h1v1h-1zm-78 2h1v1h-1zm90 0h1v1h-1z" fill="#343434"/><path d="M119 36h1v1h-1zm152 6h1v1h-1z" fill="#e4e4e4"/><path d="M280 38h1v1h-1zM52 50h1v1h-1zm291 0h1v1h-1z" fill="#555"/><path fill="#e0e0e0" d="M276 45h1v1h-1z"/><path fill="#f1f1f1" d="M220 53h1v1h-1z"/><path d="M32 22h1v1h-1zm237 37h1v1h-1z" fill="#a4a4a4"/><path fill="#a7a7a7" d="M339 34h1v1h-1z"/><path d="M272 42h1v1h-1zM56 57h1v1h-1zm291 0h1v1h-1z" fill="#6e6e6e"/><path d="M38 16h1v1h-1zm291 10h1v1h-1zM63 27h1v1h-1zm131 0h1v1h-1zm160 0h1v1h-1zM83 29h1v1h-1zm132 0h1v1h-1zm159 0h1v1h-1zm-267 1h1v1h-1zm166 1h1v1h-1zm-63 4h1v1h-1zM39 36h1v1h-1zm82 1h1v1h-1zm134 0h1v1h-1zM53 38h1v1h-1zm27 0h1v1h-1zm225 0h1v1h-1zm39 0h1v1h-1zm27 0h1v1h-1zm-160 1h1v1h-1zm46 2h1v1h-1zm-65 1h1v1h-1zM52 43h1v1h-1zm252 0h1v1h-1zm39 0h1v1h-1zM52 46h1v1h-1zm252 0h1v1h-1zm39 0h1v1h-1zm-132 1h1v1h-1zm46 1h1v1h-1zM36 49h1v1h-1zm256 1h1v1h-1zM53 51h1v1h-1zm27 0h1v1h-1zm225 0h1v1h-1zm39 0h1v1h-1zm27 0h1v1h-1zm-64 4h1v1h-1zm-36 1h1v1h-1zm8 0h1v1h-1zm4 1h1v1h-1z" fill="#202020"/><path d="M36 14h1v1h-1zm80 11h1v1h-1zm91 0h1v1h-1zm34 2h1v1h-1zm-134 2h1v1h-1zm-1 1h1v1h-1zm233 2h1v1h-1zm-34 4h1v1h-1zm-95 1h1v1h-1zm72 2h1v1h-1zm3 1h1v1h-1zM185 51h1v1h-1zm89 2h1v1h-1zm-54 1h1v1h-1zM74 55h1v1h-1zm218 0h1v1h-1zm34 0h1v1h-1zm39 0h1v1h-1zm-177 4h1v1h-1z" fill="#575757"/><path d="M209 34h1v1h-1zm45 2h1v1h-1z" fill="#3f3f3f"/><path fill="#cdcdcd" d="M254 37h1v1h-1z"/><path fill="#5e5e5e" d="M256 40h1v1h-1z"/><path fill="#999" d="M292 51h1v1h-1z"/><path d="M406 55h1v1h-1zm25 0h1v1h-1z" fill="#646464"/><path d="M28 12h1v1h-1zm12 5h1v1h-1zm3 3h1v1h-1zm22 6h1v1h-1zm291 0h1v1h-1zm-45 3h1v1h-1zm-101 7h1v1h-1zm61 4h1v1h-1zm33 0h1v1h-1zm-17 1h1v1h-1zM81 42h1v1h-1zm291 0h1v1h-1zM38 43h1v1h-1zm219 3h1v1h-1zM81 47h1v1h-1zm291 0h1v1h-1zm-67 5h1v1h-1zm101 2h1v1h-1zm25 0h1v1h-1zM75 55h1v1h-1zm252 0h1v1h-1zm39 0h1v1h-1zm37 0h1v1h-1zm25 0h1v1h-1zm-216 3h1v1h-1z" fill="#3e3e3e"/><path d="M208 34h1v1h-1zm44 1h1v1h-1zm1 1h1v1h-1zm-12 25h1v1h-1z" fill="#ededed"/><path fill="#a5a5a5" d="M209 36h1v1h-1z"/><path d="M29 20h1v1h-1zm18 11h1v1h-1zm57 0h1v1h-1zm187 1h1v1h-1zm-182 2h1v1h-1zm131 0h1v1h-1zM62 37h1v1h-1zm44 0h1v1h-1zm247 0h1v1h-1zm-40 2h1v1h-1zM47 42h1v1h-1zm14 6h1v1h-1zm291 0h1v1h-1zm-51 5h1v1h-1zM87 54h1v1h-1zm291 0h1v1h-1zm29 5h1v1h-1zm25 0h1v1h-1zM81 60h1v1h-1zm191 0h1v1h-1zm100 0h1v1h-1zm-130 1h1v1h-1zm50 1h1v1h-1z" fill="#848484"/><path d="M329 35h1v1h-1zm-37 17h1v1h-1zm17 6h1v1h-1z" fill="#8a8a8a"/><path d="M219 36h1v1h-1zm188 22h1v1h-1zm25 0h1v1h-1z" fill="#ababab"/><path d="M195 54h1v1h-1zm193 4h1v1h-1zm25 0h1v1h-1z" fill="#787878"/><path fill="#cacaca" d="M46 25h1v1h-1z"/><path d="M45 25h1v1h-1zm254 5h1v1h-1zm-17 1h1v1h-1zm6 0h1v1h-1zm-81 1h1v1h-1zm131 0h1v1h-1zM47 33h1v1h-1zm171 1h1v1h-1zm34 0h1v1h-1zm-147 4h1v1h-1zm160 1h1v1h-1zM47 40h1v1h-1zm163 6h1v1h-1zM45 48h1v1h-1zm246 1h1v1h-1zm-72 4h1v1h-1zm44 1h1v1h-1zM86 55h1v1h-1zm252 0h1v1h-1zm39 0h1v1h-1zm29 1h1v1h-1zm25 0h1v1h-1zm-170 1h1v1h-1zM37 58h1v1h-1zm172 0h1v1h-1zM82 59h1v1h-1zm177 0h1v1h-1zm114 0h1v1h-1zm34 1h1v1h-1zm25 0h1v1h-1zM62 61h1v1h-1zm291 0h1v1h-1zm52 0h1v1h-1zm25 0h1v1h-1zm-228 1h1v1h-1z" fill="#383838"/><path d="M96 26h1v36h-1zm132 0h1v52h-1zM80 27h1v1h-1zm46 0h1v1h-1zm116 0h1v1h-1zm129 0h1v1h-1zm-37 1h1v1h-1zM58 30h1v1h-1zm203 0h1v1h-1zm49 0h1v1h-1zm39 0h1v1h-1zm-113 1h1v1h-1zm70 4h1v1h-1zm-50 4h1v1h-1zM81 41h1v1h-1zm128 0h1v1h-1zm163 0h1v1h-1zm-182 2h1v1h-1zM81 48h1v1h-1zm291 0h1v1h-1zm-116 2h1v1h-1zm75 2h1v1h-1zM30 54h1v1h-1zm47 0h1v1h-1zm291 0h1v1h-1zm-130 3h1v1h-1zm151 2h1v1h-1zm25 0h1v1h-1zM96 62h1v1h-1zm132 16h1v1h-1z" fill="#2f2f2f"/><path d="M299 31h1v1h-1zm-180 4h1v1h-1zm11 2h1v25h-1zm-40 4h1v1h-1zm291 0h1v1h-1zm-115 1h1v3h-1zm-67 3h1v1h-1zm67 0h1v1h-1zM90 46h1v1h-1zm291 0h1v1h-1zM46 47h1v1h-1zm149 0h1v1h-1zm92 1h1v1h-1zm110 4h1v1h-1zm25 0h1v1h-1zm-159 3h1v1h-1zM85 57h1v1h-1zm137 0h1v5h-1zm154 0h1v1h-1zm-79 3h1v1h-1zm35 1h1v1h-1zM29 62h1v1h-1zm101 0h1v1h-1zm92 0h1v1h-1zM67 63h1v1h-1zm133 0h1v1h-1zm52 0h1v1h-1zm30 0h1v1h-1zm76 0h1v1h-1z" fill="#bbb"/><path d="M5 12h1v50H5zm32 3h1v1h-1zm5 4h1v1h-1zm122 2h1v41h-1zm80 5h1v1h-1zm13 1h1v1h-1zm-66 1h1v1h-1zM59 29h1v1h-1zm180 0h1v1h-1zm111 0h1v1h-1zm-112 1h1v1h-1zm-50 1h1v1h-1zm84 1h1v1h-1zm-83 1h1v1h-1zM54 35h1v1h-1zm291 0h1v1h-1zM53 37h1v1h-1zm252 0h1v1h-1zm39 0h1v1h-1zm-50 6h1v1h-1zM34 51h1v1h-1zm19 1h1v1h-1zm280 0h1v1h-1zm11 0h1v1h-1zM78 53h1v1h-1zm132 0h1v1h-1zm120 0h1v1h-1zm39 0h1v1h-1zM54 54h1v1h-1zm155 0h1v1h-1zm136 0h1v1h-1zM15 55h1v1h-1zm12 0h1v1h-1zm373 0h1v1h-1zm25 0h1v1h-1zm-228 1h1v1h-1zm73 1h1v1h-1zM5 62h1v1H5zm159 0h1v1h-1z" fill="#393939"/><path d="M75 25h1v1h-1zm171 0h1v1h-1zm120 0h1v1h-1zm32 0h1v1h-1zm25 0h1v1h-1zM79 26h1v1h-1zm33 0h1v1h-1zm182 0h1v1h-1zm76 0h1v1h-1zm-155 2h1v1h-1zm120 0h1v1h-1zm-63 3h1v1h-1zm-1 2h1v1h-1zM38 34h1v1h-1zm16 0h1v1h-1zm252 0h1v1h-1zm39 0h1v1h-1zM53 36h1v1h-1zm291 0h1v1h-1zM38 41h1v1h-1zm148 6h1v1h-1zM35 49h1v1h-1zm150 4h1v1h-1zm153 0h1v1h-1zm-62 1h1v1h-1zm123 0h1v1h-1zm25 0h1v1h-1zm-219 2h1v1h-1z" fill="#5c5c5c"/><path d="M4 11h1v51H4zm1 0h21v1H5zm21 0h1v1h-1zm1 0h1v1h-1zm1 0h1v1h-1zm1 0h1v1h-1zm118 0h41v1h-41zm41 0h1v1h-1zm1 0h1v1h-1zM31 12h1v1h-1zm1 0h1v1h-1zm1 0h1v1h-1zm114 0h1v6h-1zm240 0h1v12h-1zm1 0h8v1h-8zm8 0h1v1h-1zm1 0h1v1h-1zm15 0h1v12h-1zm1 0h8v1h-8zm8 0h1v1h-1zm1 0h1v1h-1zM35 13h1v1h-1zm2 1h1v1h-1zm110 4h1v1h-1zm0 1h1v1h-1zm16 3h1v40h-1zm-96 2h1v1h-1zm1 0h5v1h-5zm5 0h1v1h-1zm1 0h1v1h-1zm41 0h1v1h-1zm1 0h5v1h-5zm5 0h1v1h-1zm77 0h1v1h-1zm1 0h6v1h-6zm6 0h1v1h-1zm1 0h1v1h-1zm39 0h1v1h-1zm1 0h4v1h-4zm4 0h1v1h-1zm1 0h1v1h-1zm30 0h1v1h-1zm1 0h5v1h-5zm5 0h1v1h-1zm1 0h1v1h-1zm31 0h1v1h-1zm1 0h5v1h-5zm5 0h1v1h-1zm1 0h1v1h-1zm32 0h1v1h-1zm1 0h5v1h-5zm5 0h1v1h-1zm1 0h1v1h-1zm22 0h1v1h-1zm25 0h1v1h-1zM63 25h1v1h-1zm1 0h1v1h-1zm1 0h2v1h-2zm2 0h1v1h-1zm9 0h1v1h-1zm1 0h1v1h-1zm1 0h1v1h-1zm17 0h1v37h-1zm1 0h7v1h-7zm7 0h1v1h-1zm8 0h1v1h-1zm1 0h1v1h-1zm1 0h1v1h-1zm1 0h1v1h-1zm1 0h1v1h-1zm8 0h1v1h-1zm1 0h1v1h-1zm70 0h1v1h-1zm1 0h1v1h-1zm1 0h1v1h-1zm1 0h1v1h-1zm1 0h1v1h-1zm10 0h1v1h-1zm1 0h1v1h-1zm1 0h1v1h-1zm17 0h1v53h-1zm1 0h6v1h-6zm6 0h1v1h-1zm1 0h1v1h-1zm7 0h1v1h-1zm1 0h1v1h-1zm1 0h1v1h-1zm1 0h1v1h-1zm8 0h1v1h-1zm1 0h1v1h-1zm1 0h1v1h-1zm23 0h1v1h-1zm1 0h1v1h-1zm1 0h1v1h-1zm1 0h1v1h-1zm9 0h1v1h-1zm1 0h1v1h-1zm1 0h1v1h-1zm1 0h1v1h-1zm22 0h1v1h-1zm1 0h1v1h-1zm1 0h2v1h-2zm2 0h1v1h-1zm9 0h1v1h-1zm1 0h1v1h-1zm1 0h1v1h-1zm24 0h1v1h-1zm1 0h1v1h-1zm1 0h2v1h-2zm2 0h1v1h-1zm9 0h1v1h-1zm1 0h1v1h-1zm1 0h1v1h-1zm13 0h1v7h-1zm1 0h4v1h-4zm4 0h1v1h-1zm12 0h5v1h-5zm5 0h1v1h-1zm1 0h1v1h-1zm2 0h1v7h-1zm1 0h4v1h-4zm4 0h1v1h-1zm12 0h5v1h-5zm5 0h1v1h-1zm1 0h1v1h-1zM61 26h1v1h-1zm1 0h1v1h-1zm1 0h1v1h-1zm17 0h1v1h-1zm29 0h1v1h-1zm1 0h1v1h-1zm1 0h1v1h-1zm15 0h1v1h-1zm65 0h1v1h-1zm1 0h1v1h-1zm1 0h1v1h-1zm1 0h1v1h-1zm18 0h1v1h-1zm28 0h1v1h-1zm1 0h1v1h-1zm1 0h1v1h-1zm15 0h1v1h-1zm19 0h1v1h-1zm1 0h1v1h-1zm1 0h1v1h-1zm17 0h1v1h-1zm18 0h1v1h-1zm1 0h1v1h-1zm1 0h1v1h-1zm17 0h1v1h-1zm20 0h1v1h-1zm1 0h1v1h-1zm1 0h1v1h-1zm17 0h1v1h-1zM59 27h1v1h-1zm1 0h1v1h-1zm1 0h1v1h-1zm21 0h1v1h-1zm25 0h1v1h-1zm1 0h1v1h-1zm1 0h1v1h-1zm80 0h1v1h-1zm1 0h1v1h-1zm1 0h1v1h-1zm23 0h1v1h-1zm25 0h1v1h-1zm1 0h1v1h-1zm34 0h1v1h-1zm1 0h1v1h-1zm1 0h1v1h-1zm21 0h1v1h-1zm1 0h1v1h-1zm13 0h1v1h-1zm1 0h1v1h-1zm1 0h1v1h-1zm21 0h1v1h-1zm16 0h1v1h-1zm1 0h1v1h-1zm1 0h1v1h-1zm21 0h1v1h-1zM58 28h1v1h-1zm1 0h1v1h-1zm47 0h1v1h-1zm1 0h1v1h-1zm81 0h1v1h-1zm1 0h1v1h-1zm49 0h1v1h-1zm1 0h1v1h-1zm34 0h1v1h-1zm1 0h1v1h-1zm36 0h1v1h-1zm1 0h1v1h-1zm38 0h1v1h-1zm1 0h1v1h-1zM36 29h1v1h-1zm20 0h1v1h-1zm1 0h1v1h-1zm1 0h1v1h-1zm47 0h1v1h-1zm1 0h1v1h-1zm80 0h1v1h-1zm1 0h1v1h-1zm1 0h1v1h-1zm49 0h1v1h-1zm1 0h1v1h-1zm34 0h1v1h-1zm1 0h1v1h-1zm35 0h1v1h-1zm1 0h1v1h-1zm1 0h1v1h-1zm37 0h1v1h-1zm1 0h1v1h-1zm1 0h1v1h-1zM55 30h1v1h-1zm1 0h1v1h-1zm49 0h1v1h-1zm132 0h1v1h-1zm34 0h1v1h-1zm1 0h1v1h-1zm35 0h1v1h-1zm1 0h1v1h-1zm38 0h1v1h-1zm1 0h1v1h-1zM55 31h1v1h-1zm216 0h1v1h-1zm36 0h1v1h-1zm39 0h1v1h-1zM37 32h1v1h-1zm17 0h1v1h-1zm1 0h1v1h-1zm215 0h1v1h-1zm1 0h1v1h-1zm35 0h1v1h-1zm1 0h1v1h-1zm38 0h1v1h-1zm1 0h1v1h-1zm36 0h1v1h-1zm25 0h1v1h-1zM37 33h1v1h-1zm16 0h1v1h-1zm1 0h1v1h-1zm216 0h1v1h-1zm35 0h1v1h-1zm1 0h1v1h-1zm38 0h1v1h-1zm1 0h1v1h-1zM53 34h1v1h-1zm217 0h1v1h-1zm35 0h1v1h-1zm39 0h1v1h-1zM52 35h1v1h-1zm1 0h1v1h-1zm211 0h1v1h-1zm6 0h1v1h-1zm34 0h1v1h-1zm1 0h1v1h-1zm38 0h1v1h-1zm1 0h1v1h-1zm43 0h1v20h-1zm25 0h1v20h-1zM38 36h1v1h-1zm14 0h1v1h-1zm218 0h1v1h-1zm34 0h1v1h-1zm39 0h1v1h-1zM38 37h1v1h-1zm14 0h1v1h-1zm218 0h1v1h-1zm34 0h1v1h-1zm39 0h1v1h-1zM38 38h1v2h-1zm13 0h1v1h-1zm1 0h1v1h-1zm218 0h1v1h-1zm11 0h1v1h-1zm22 0h1v1h-1zm1 0h1v1h-1zm38 0h1v1h-1zm1 0h1v1h-1zM51 39h1v1h-1zm69 0h1v1h-1zm75 0h1v1h-1zm1 0h1v1h-1zm1 0h1v1h-1zm1 0h5v1h-5zm5 0h1v1h-1zm1 0h1v1h-1zm1 0h1v1h-1zm1 0h1v1h-1zm4 0h1v1h-1zm60 0h1v1h-1zm13 0h1v1h-1zm1 0h1v1h-1zm19 0h1v1h-1zm39 0h1v1h-1zM37 40h1v1h-1zm1 0h1v1h-1zm13 0h1v1h-1zm69 0h1v22h-1zm72 0h1v1h-1zm1 0h1v1h-1zm1 0h1v1h-1zm1 0h1v1h-1zm13 0h1v1h-1zm1 0h1v1h-1zm1 0h1v1h-1zm60 0h1v1h-1zm16 0h1v1h-1zm1 0h1v1h-1zm1 0h1v1h-1zm15 0h1v1h-1zm39 0h1v1h-1zM37 41h1v1h-1zm14 0h1v1h-1zm139 0h1v1h-1zm1 0h1v1h-1zm1 0h1v1h-1zm98 0h1v1h-1zm1 0h1v1h-1zm12 0h1v1h-1zm39 0h1v1h-1zM37 42h1v1h-1zm14 0h1v1h-1zm29 0h1v3h-1zm108 0h1v1h-1zm1 0h1v1h-1zm1 0h1v1h-1zm66 0h1v2h-1zm37 0h1v1h-1zm1 0h1v1h-1zm9 0h1v1h-1zm39 0h1v1h-1zm29 0h1v3h-1zM37 43h1v1h-1zm14 0h1v1h-1zm136 0h1v1h-1zm1 0h1v1h-1zm108 0h1v1h-1zm7 0h1v1h-1zm39 0h1v1h-1zM36 44h1v1h-1zm1 0h1v1h-1zm14 0h1v1h-1zm136 0h1v1h-1zm69 0h1v1h-1zm42 0h1v1h-1zm5 0h1v1h-1zm39 0h1v1h-1zM36 45h1v1h-1zm15 0h1v1h-1zm29 0h1v1h-1zm106 0h1v1h-1zm1 0h1v1h-1zm69 0h1v1h-1zm47 0h1v1h-1zm39 0h1v1h-1zm29 0h1v1h-1zM36 46h1v1h-1zm15 0h1v1h-1zm29 0h1v1h-1zm105 0h1v1h-1zm1 0h1v1h-1zm70 0h1v1h-1zm47 0h1v1h-1zm39 0h1v1h-1zm29 0h1v1h-1zM35 47h1v1h-1zm1 0h1v1h-1zm15 0h1v1h-1zm29 0h1v1h-1zm105 0h1v1h-1zm71 0h1v1h-1zm47 0h1v1h-1zm39 0h1v1h-1zm29 0h1v1h-1zM34 48h1v1h-1zm1 0h1v1h-1zm16 0h1v1h-1zm28 0h1v1h-1zm1 0h1v1h-1zm105 0h1v1h-1zm70 0h1v1h-1zm1 0h1v1h-1zm47 0h1v1h-1zm39 0h1v1h-1zm28 0h1v1h-1zm1 0h1v1h-1zM34 49h1v1h-1zm17 0h1v1h-1zm28 0h1v1h-1zm105 0h1v1h-1zm1 0h1v1h-1zm25 0h1v1h-1zm45 0h1v1h-1zm48 0h1v1h-1zm39 0h1v1h-1zm28 0h1v1h-1zM33 50h1v1h-1zm1 0h1v1h-1zm44 0h1v1h-1zm1 0h1v1h-1zm105 0h1v1h-1zm26 0h1v1h-1zm44 0h1v1h-1zm1 0h1v1h-1zm59 0h1v1h-1zm55 0h1v1h-1zm1 0h1v1h-1zM32 51h1v1h-1zm1 0h1v1h-1zm45 0h1v1h-1zm106 0h1v1h-1zm25 0h1v1h-1zm1 0h1v1h-1zm43 0h1v1h-1zm1 0h1v1h-1zm76 0h1v1h-1zm1 0h1v1h-1zm1 0h1v1h-1zm1 0h1v1h-1zm36 0h1v1h-1zM30 52h1v1h-1zm1 0h1v1h-1zm1 0h1v1h-1zm20 0h1v1h-1zm25 0h1v1h-1zm1 0h1v1h-1zm106 0h1v1h-1zm25 0h1v1h-1zm43 0h1v1h-1zm1 0h1v1h-1zm18 0h1v1h-1zm1 0h1v1h-1zm1 0h1v1h-1zm31 0h1v1h-1zm25 0h1v1h-1zm1 0h1v1h-1zm5 0h1v1h-1zm1 0h1v1h-1zm1 0h1v1h-1zm6 0h1v1h-1zm25 0h1v1h-1zm1 0h1v1h-1zM28 53h1v1h-1zm1 0h1v1h-1zm1 0h1v1h-1zm45 0h1v1h-1zm1 0h1v1h-1zm1 0h1v1h-1zm107 0h1v1h-1zm24 0h1v1h-1zm1 0h1v1h-1zm42 0h1v1h-1zm1 0h1v1h-1zm19 0h1v1h-1zm4 0h1v1h-1zm17 0h1v1h-1zm35 0h1v1h-1zm1 0h1v1h-1zm1 0h1v1h-1zm10 0h1v1h-1zm1 0h1v1h-1zm26 0h1v1h-1zm1 0h1v1h-1zm1 0h1v1h-1zm36 0h1v1h-1zm1 0h1v1h-1zm1 0h1v1h-1zm23 0h1v1h-1zm1 0h1v1h-1zm1 0h1v1h-1zM16 54h9v1h-9zm9 0h1v1h-1zm1 0h1v1h-1zm1 0h1v1h-1zm1 0h1v1h-1zm39 0h1v1h-1zm6 0h1v1h-1zm1 0h1v1h-1zm1 0h1v1h-1zm131 0h1v1h-1zm1 0h1v1h-1zm1 0h1v1h-1zm14 0h1v1h-1zm21 0h1v1h-1zm6 0h1v1h-1zm1 0h1v1h-1zm1 0h1v1h-1zm19 0h1v1h-1zm1 0h1v1h-1zm6 0h1v1h-1zm14 0h1v1h-1zm1 0h1v1h-1zm27 0h1v1h-1zm6 0h1v1h-1zm1 0h1v1h-1zm1 0h1v1h-1zm31 0h1v1h-1zm6 0h1v1h-1zm1 0h1v1h-1zm1 0h1v1h-1zm34 0h1v1h-1zm1 0h1v1h-1zm1 0h1v1h-1zm1 0h1v1h-1zm1 0h1v1h-1zm21 0h1v1h-1zm1 0h1v1h-1zm1 0h1v1h-1zm1 0h1v1h-1zm1 0h1v1h-1zM69 55h4v1h-4zm4 0h1v1h-1zm124 0h1v1h-1zm7 0h1v1h-1zm1 0h1v1h-1zm1 0h1v1h-1zm39 0h4v1h-4zm4 0h1v1h-1zm20 0h1v1h-1zm1 0h1v1h-1zm9 0h1v1h-1zm1 0h1v1h-1zm10 0h1v1h-1zm1 0h1v1h-1zm30 0h4v1h-4zm4 0h1v1h-1zm35 0h4v1h-4zm4 0h1v1h-1zm23 0h1v1h-1zm25 0h1v1h-1zm-227 1h1v1h-1zm14 0h3v1h-3zm3 0h1v1h-1zm1 0h1v1h-1zm1 0h1v1h-1zm65 0h1v1h-1zm13 0h1v1h-1zm1 0h4v1h-4zm4 0h1v1h-1zm1 0h1v1h-1zm1 0h1v1h-1zm1 0h1v1h-1zm97 0h1v1h-1zm25 0h1v1h-1zm-144 1h1v1h-1zm1 0h1v1h-1zm118 0h1v1h-1zm25 0h1v1h-1zm-144 1h1v1h-1zM4 62h1v1H4zm91 0h1v1h-1zm25 0h1v1h-1zm43 0h1v1h-1zm64 16h1v1h-1z" fill="#666"/><path d="M164 20h1v1h-1zm-40 6h1v1h-1zm171 1h1v1h-1zm37 0h1v1h-1zM37 28h1v1h-1zm177 0h1v1h-1zm-26 2h1v1h-1zM57 31h1v1h-1zm252 0h1v1h-1zm39 0h1v1h-1zm-77 5h1v1h-1zm0 3h1v1h-1zm-73 1h1v1h-1zm-4 1h1v1h-1zM52 42h1v1h-1zm291 0h1v1h-1zM38 44h1v1h-1zm151 0h1v1h-1zm-1 1h1v1h-1zm110 0h1v1h-1zM52 47h1v1h-1zm252 0h1v1h-1zm39 0h1v1h-1zm-157 2h1v1h-1zM35 50h1v1h-1zm219 3h1v1h-1zm19 0h1v1h-1zm63 0h1v1h-1zm-64 1h1v1h-1zm-86 1h1v1h-1zm35 0h1v1h-1zm-8 6h1v1h-1z" fill="#2a2a2a"/><path d="M255 38h1v1h-1zm46 10h1v1h-1z" fill="#878787"/><path fill="#b9b9b9" d="M255 39h1v1h-1z"/><path d="M163 19h1v1h-1zM31 21h1v1h-1zm167 10h1v1h-1zm6 0h1v1h-1zM47 32h1v1h-1zm82 1h1v1h-1zm121 0h1v1h-1zm81 3h1v1h-1zM89 38h1v1h-1zm176 0h1v1h-1zm115 0h1v1h-1zM47 41h1v1h-1zm234 5h1v1h-1zM89 49h1v1h-1zm148 0h1v1h-1zm28 0h1v1h-1zm115 0h1v1h-1zm-79 3h1v1h-1zm-39 4h1v1h-1zm-54 3h1v1h-1zm62 0h1v1h-1zm-12 1h1v1h-1zm54 0h1v1h-1zm21 0h1v1h-1zm-58 1h1v1h-1zm-21 1h1v1h-1z" fill="#626262"/><path d="M43 21h1v1h-1zm84 7h1v1h-1z" fill="#2c2c2c"/><path fill="gray" d="M46 27h1v1h-1z"/><path d="M128 29h1v1h-1zm-49 8h1v1h-1zm291 0h1v1h-1z" fill="#4a4a4a"/><path d="M54 55h1v1h-1zm291 0h1v1h-1z" fill="#aaa"/><path d="M34 13h1v1h-1zm4 2h1v1h-1zm161 10h1v1h-1zm83 0h1v1h-1zm-26 1h1v1h-1zm-129 1h1v1h-1zm65 0h1v1h-1zm66 0h1v1h-1zM83 28h1v1h-1zm25 0h1v1h-1zm82 0h1v1h-1zm109 0h1v1h-1zm75 0h1v1h-1zM57 30h1v1h-1zm130 0h1v1h-1zm122 0h1v1h-1zm39 0h1v1h-1zM56 31h1v1h-1zm49 0h1v1h-1zm203 0h1v1h-1zm39 0h1v1h-1zm-58 10h1v1h-1zm-100 2h1v1h-1zm-1 1h1v1h-1zM37 45h1v1h-1zm43 4h1v1h-1zm291 0h1v1h-1zm-186 1h1v1h-1zM79 51h1v1h-1zm291 0h1v1h-1zm-160 1h1v1h-1zm44 0h1v1h-1zm-1 1h1v1h-1zM76 54h1v1h-1zm145 0h1v1h-1zm107 0h1v1h-1zm39 0h1v1h-1zm-160 1h1v1h-1zm-9 1h1v1h-1zm72 0h1v1h-1z" fill="#616161"/><path d="M45 24h1v1h-1zm12 34h1v1h-1zm291 0h1v1h-1z" fill="#797979"/><path d="M37 30h1v1h-1zm267 21h1v1h-1zm84 8h1v1h-1zm25 0h1v1h-1z" fill="#838383"/><path fill="#757575" d="M210 47h1v1h-1z"/><path fill="#696969" d="M212 60h1v1h-1z"/><path d="M397 14h1v10h-1zm25 0h1v10h-1zm-25 10h1v1h-1zm25 0h1v1h-1zm-17 3h1v5h-1zm25 0h1v5h-1zm-130 3h1v1h-1zm105 2h1v1h-1zm25 0h1v1h-1zm-318 1h1v1h-1zm186 0h1v1h-1zm99 0h1v18h-1zm25 0h1v18h-1zm-143 2h1v1h-1zM48 36h1v2h-1zm0 2h1v1h-1zm14 0h1v1h-1zm252 0h1v1h-1zm39 0h1v1h-1zM90 39h1v1h-1zm291 0h1v1h-1zm-276 1h1v1h-1zM45 50h1v1h-1zm44 1h1v1h-1zm291 0h1v1h-1zm17 0h1v1h-1zm25 0h1v1h-1zM87 55h1v1h-1zm252 0h1v1h-1zm39 0h1v1h-1zm-141 2h1v1h-1zm25 0h1v1h-1zm-53 2h1v1h-1zM35 60h1v1h-1zm47 0h1v1h-1zm106 0h1v1h-1zm71 0h1v1h-1zm114 0h1v1h-1zM78 62h1v1h-1zm291 0h1v1h-1z" fill="#eaeaea"/><path d="M44 22h1v1h-1zm260 28h1v1h-1z" fill="#5f5f5f"/><path d="M47 28h1v1h-1zm245 5h1v1h-1zm2 1h1v1h-1zM191 62h1v1h-1z" fill="#ebebeb"/><path d="M291 50h1v1h-1zm100 12h1v1h-1zm25 0h1v1h-1z" fill="#e2e2e2"/><path d="M213 62h1v1h-1zm102 0h1v1h-1zm-100 1h1v1h-1z" fill="#d4d4d4"/><path d="M39 16h1v1h-1zm5 5h1v1h-1zm276 4h1v1h-1zM64 26h1v1h-1zm61 0h1v1h-1zm191 0h1v1h-1zm39 0h1v1h-1zm-22 1h1v1h-1zM60 28h1v1h-1zm291 0h1v1h-1zm-77 1h1v1h-1zm62 0h1v1h-1zm-63 1h1v1h-1zm-56 1h1v1h-1zM38 33h1v1h-1zm49 0h1v1h-1zm291 0h1v1h-1zm-74 6h1v1h-1zM38 42h1v1h-1zm254 0h1v1h-1zm3 1h1v1h-1zm6 4h1v1h-1zm-45 2h1v1h-1zm-1 2h1v1h-1zM64 52h1v1h-1zm291 0h1v1h-1zM29 54h1v1h-1zm359 3h1v1h-1zm25 0h1v1h-1zm-201 2h1v1h-1z" fill="#4d4d4d"/><path fill="#d7d7d7" d="M118 34h1v1h-1z"/><path fill="#e5e5e5" d="M130 35h1v1h-1z"/><path fill="#d6d6d6" d="M274 44h1v1h-1z"/><path d="M62 49h1v1h-1zm291 0h1v1h-1z" fill="#d9d9d9"/><path d="M398 53h1v1h-1zm25 0h1v1h-1zm-116 3h1v1h-1z" fill="#acacac"/><path d="M305 54h1v1h-1zm102 3h1v1h-1zm25 0h1v1h-1z" fill="#d2d2d2"/><path fill="#b3b3b3" d="M310 59h1v1h-1z"/><path d="M35 26h1v1h-1zm54 10h1v1h-1zm176 0h1v1h-1zm115 0h1v1h-1zm-114 5h1v1h-1z" fill="#c5c5c5"/><path fill="#bdbdbd" d="M313 61h1v1h-1z"/><path fill="#cfcfcf" d="M219 35h1v1h-1z"/><path d="M78 37h1v1h-1zm291 0h1v1h-1z" fill="#f2f2f2"/><path d="M80 41h1v1h-1zm291 0h1v1h-1zm-133 9h1v1h-1z" fill="#717171"/><path d="M390 61h1v1h-1zm25 0h1v1h-1z" fill="#b7b7b7"/><path d="M77 35h1v1h-1zm291 0h1v1h-1zM58 59h1v1h-1zm291 0h1v1h-1z" fill="#989898"/><path d="M208 33h1v1h-1zm45 2h1v1h-1z" fill="#515151"/><path d="M90 40h1v1h-1zm291 0h1v1h-1zM59 60h1v1h-1zm291 0h1v1h-1z" fill="#cbcbcb"/><path fill="#ececec" d="M207 33h1v1h-1z"/><path d="M38 35h1v1h-1zm172 3h1v1h-1zm-25 16h1v1h-1z" fill="#686868"/><path fill="#565656" d="M120 36h1v1h-1z"/><path fill="#5a5a5a" d="M315 51h1v1h-1z"/><path d="M222 56h1v1h-1zm-32 5h1v1h-1z" fill="#959595"/><path d="M218 33h1v1h-1zm38 8h1v1h-1zM62 50h1v1h-1zm291 0h1v1h-1z" fill="#7d7d7d"/><path d="M387 34h1v1h-1zm25 0h1v1h-1zM306 55h1v1h-1z" fill="#c1c1c1"/><path fill="#9f9f9f" d="M163 20h1v1h-1z"/><path d="M36 28h1v1h-1zm200 2h1v1h-1z" fill="#a3a3a3"/><path d="M104 30h1v1h-1zm-29 4h1v1h-1zm35 0h1v1h-1zm131 0h1v1h-1zm86 0h1v1h-1zm39 0h1v1h-1zm-176 1h1v1h-1zm-84 3h1v1h-1zm-45 4h1v1h-1zm291 0h1v1h-1zM47 45h1v1h-1zm-1 3h1v1h-1zm44 0h1v1h-1zm291 0h1v1h-1zM44 52h1v1h-1zm220 2h1v1h-1zm9 7h1v1h-1zm23 0h1v1h-1zm111 0h1v1h-1zm25 0h1v1h-1zm-238 2h1v1h-1zm52 0h1v1h-1z" fill="#f5f5f5"/><path d="M235 31h1v1h-1zM66 33h1v1h-1zm126 0h1v1h-1zm126 0h1v1h-1zm39 0h1v1h-1zm-56 18h1v1h-1zM43 52h1v1h-1zm221 0h1v1h-1zm133 1h1v1h-1zm25 0h1v1h-1zm-212 4h1v1h-1zM60 60h1v1h-1zm291 0h1v1h-1zm-37 1h1v1h-1zm17 0h1v1h-1zM76 62h1v1h-1zm138 0h1v1h-1zm65 0h1v1h-1zm88 0h1v1h-1zm35 0h1v1h-1zm25 0h1v1h-1z" fill="#4f4f4f"/><path fill="#595959" d="M339 33h1v1h-1z"/><path fill="#7c7c7c" d="M264 34h1v1h-1z"/><path d="M56 58h1v1h-1zm291 0h1v1h-1z" fill="#f3f3f3"/><path d="M189 13h1v5h-1zm0 5h1v1h-1zM14 19h1v1h-1zm12 0h1v1h-1zm147 0h1v1h-1zm-10 2h1v1h-1zm130 12h1v1h-1zm45 1h1v1h-1zm-59 3h1v1h-1zm35 0h1v1h-1zm-95 1h1v1h-1zm-23 8h1v1h-1zM45 49h1v1h-1zm149 4h1v1h-1zM14 54h1v1h-1zm27 1h1v1h-1zm-1 1h1v1h-1zm296 2h1v1h-1zM36 59h1v1h-1zm-2 1h1v1h-1zm173 0h1v1h-1zm88 1h1v1h-1zm97 1h1v1h-1zm25 0h1v1h-1z" fill="#939393"/><path d="M30 21h1v1h-1zm181 38h1v1h-1zm32 3h1v1h-1z" fill="#e1e1e1"/><path d="M35 25h1v1h-1zm295 11h1v1h-1z" fill="#5d5d5d"/><path d="M235 27h1v3h-1zm0 3h1v1h-1zM37 31h1v1h-1zm243 1h1v1h-1zm18 0h1v1h-1zm-19 1h1v1h-1zM76 34h1v1h-1zm219 0h1v1h-1zm33 0h1v1h-1zm39 0h1v1h-1zm-130 3h1v1h-1zm-117 1h1v1h-1zm-59 1h1v1h-1zm158 0h1v13h-1zm133 0h1v1h-1zm-77 5h1v1h-1zM46 46h1v1h-1zm239 1h1v1h-1zm28 1h1v1h-1zm-12 2h1v1h-1zM63 51h1v1h-1zm291 0h1v1h-1zM88 52h1v1h-1zm131 0h1v1h-1zm160 0h1v1h-1zm-194 3h1v1h-1zm52 1h1v1h-1zm63 0h1v1h-1zm-113 2h1v1h-1zM31 61h1v1h-1zm48 0h1v1h-1zm126 0h1v1h-1zm165 0h1v1h-1z" fill="#747474"/><path d="M63 62h1v1h-1zm291 0h1v1h-1z" fill="#c8c8c8"/><path d="M190 13h1v7h-1zm208 1h1v10h-1zm25 0h1v10h-1zM15 20h12v1H15zm12 0h1v1h-1zm121 0h14v1h-14zm14 0h1v1h-1zm12 0h15v1h-15zm15 0h1v1h-1zm1 0h1v1h-1zM15 21h1v1h-1zm1 0h10v1H16zm10 0h1v1h-1zm1 0h1v1h-1zm1 0h1v1h-1zm1 0h1v1h-1zm119 0h14v1h-14zm14 0h1v1h-1zm12 0h1v1h-1zm1 0h14v1h-14zm14 0h1v1h-1zm1 0h1v1h-1zM15 22h1v31h-1zm14 0h1v1h-1zm1 0h1v1h-1zm1 0h1v1h-1zm143 0h1v42h-1zM31 23h1v1h-1zm1 0h1v1h-1zm1 1h1v1h-1zm365 0h1v1h-1zm25 0h1v1h-1zM35 27h1v1h-1zm12 0h1v1h-1zm57 0h1v2h-1zm132 0h1v2h-1zm170 0h1v7h-1zm25 0h1v7h-1zm-327 2h1v1h-1zm132 0h1v1h-1zM48 30h1v1h-1zm0 1h1v1h-1zm252 0h1v1h-1zm1 0h1v1h-1zM48 32h1v1h-1zm149 0h8v1h-8zm8 0h1v1h-1zm77 0h7v1h-7zm7 0h1v1h-1zm10 0h1v1h-1zm1 0h1v1h-1zm1 0h1v1h-1zM48 33h1v1h-1zm20 0h4v1h-4zm4 0h1v1h-1zm41 0h3v1h-3zm3 0h1v1h-1zm14 0h1v1h-1zm64 0h4v1h-4zm4 0h1v1h-1zm1 0h1v1h-1zm1 0h4v1h-4zm4 0h1v1h-1zm1 0h1v1h-1zm1 0h1v1h-1zm38 0h4v1h-4zm4 0h1v1h-1zm32 0h2v1h-2zm2 0h1v1h-1zm1 0h1v1h-1zm1 0h4v1h-4zm4 0h1v1h-1zm1 0h1v1h-1zm1 0h1v1h-1zm1 0h1v1h-1zm8 0h1v1h-1zm1 0h1v1h-1zm20 0h4v1h-4zm4 0h1v1h-1zm35 0h4v1h-4zm4 0h1v1h-1zm20 0h1v1h-1zm1 0h2v1h-2zm2 0h1v1h-1zm12 0h7v1h-7zm7 0h1v1h-1zm3 0h1v1h-1zm1 0h2v1h-2zm2 0h1v1h-1zm12 0h7v1h-7zm7 0h1v1h-1zM48 34h1v1h-1zm18 0h8v1h-8zm8 0h1v1h-1zm37 0h6v1h-6zm6 0h1v1h-1zm13 0h1v1h-1zm62 0h3v1h-3zm3 0h1v1h-1zm1 0h1v1h-1zm1 0h1v1h-1zm10 0h1v1h-1zm12 0h1v1h-1zm23 0h8v1h-8zm8 0h1v1h-1zm30 0h1v1h-1zm1 0h1v1h-1zm1 0h1v1h-1zm9 0h1v1h-1zm1 0h1v1h-1zm1 0h1v1h-1zm5 0h1v1h-1zm1 0h1v1h-1zm19 0h8v1h-8zm8 0h1v1h-1zm14 0h1v1h-1zm17 0h8v1h-8zm8 0h1v1h-1zm18 0h1v1h-1zm1 0h2v1h-2zm2 0h1v1h-1zm12 0h7v1h-7zm7 0h1v1h-1zm1 0h1v1h-1zm2 0h1v1h-1zm1 0h2v1h-2zm2 0h1v1h-1zm12 0h7v1h-7zm7 0h1v1h-1zm1 0h1v1h-1zM65 35h1v1h-1zm1 0h1v1h-1zm1 0h1v1h-1zm1 0h1v1h-1zm6 0h1v1h-1zm1 0h1v1h-1zm1 0h1v1h-1zm33 0h2v1h-2zm2 0h1v1h-1zm1 0h1v1h-1zm1 0h1v1h-1zm5 0h1v1h-1zm73 0h1v1h-1zm1 0h1v1h-1zm1 0h1v1h-1zm1 0h1v1h-1zm14 0h1v1h-1zm32 0h2v1h-2zm2 0h1v1h-1zm1 0h1v1h-1zm1 0h1v1h-1zm6 0h1v1h-1zm1 0h1v1h-1zm29 0h1v1h-1zm13 0h1v1h-1zm1 0h1v1h-1zm1 0h3v1h-3zm3 0h1v1h-1zm1 0h1v1h-1zm18 0h1v1h-1zm1 0h1v1h-1zm1 0h1v1h-1zm1 0h1v1h-1zm6 0h1v1h-1zm1 0h1v1h-1zm1 0h1v1h-1zm9 0h2v1h-2zm2 0h1v1h-1zm1 0h1v1h-1zm16 0h1v1h-1zm1 0h1v1h-1zm1 0h1v1h-1zm1 0h1v1h-1zm6 0h1v1h-1zm1 0h1v1h-1zm1 0h1v1h-1zm31 0h1v17h-1zm25 0h1v17h-1zM64 36h1v1h-1zm1 0h1v1h-1zm1 0h1v1h-1zm10 0h1v1h-1zm1 0h1v1h-1zm31 0h1v1h-1zm1 0h1v1h-1zm1 0h1v1h-1zm1 0h1v1h-1zm79 0h1v1h-1zm1 0h1v1h-1zm1 0h1v1h-1zm47 0h1v1h-1zm1 0h1v1h-1zm1 0h1v1h-1zm1 0h1v1h-1zm10 0h1v1h-1zm28 0h1v1h-1zm15 0h1v1h-1zm1 0h1v1h-1zm1 0h1v1h-1zm1 0h1v1h-1zm18 0h1v1h-1zm1 0h1v1h-1zm1 0h1v1h-1zm10 0h1v1h-1zm1 0h1v1h-1zm5 0h4v1h-4zm4 0h1v1h-1zm1 0h1v1h-1zm1 0h1v1h-1zm15 0h1v1h-1zm1 0h1v1h-1zm1 0h1v1h-1zm10 0h1v1h-1zm1 0h1v1h-1zM49 37h1v3h-1zm14 0h1v1h-1zm1 0h1v1h-1zm1 0h1v1h-1zm42 0h1v1h-1zm1 0h1v1h-1zm1 0h1v1h-1zm22 0h1v1h-1zm59 0h1v1h-1zm1 0h1v1h-1zm29 0h1v1h-1zm18 0h1v1h-1zm1 0h1v1h-1zm1 0h1v1h-1zm13 0h1v1h-1zm27 0h1v1h-1zm17 0h1v1h-1zm18 0h1v1h-1zm1 0h1v1h-1zm1 0h1v1h-1zm13 0h1v1h-1zm1 0h4v1h-4zm4 0h1v1h-1zm1 0h1v1h-1zm1 0h1v1h-1zm17 0h1v1h-1zm1 0h1v1h-1zm1 0h1v1h-1zM63 38h1v1h-1zm1 0h1v1h-1zm26 0h1v1h-1zm17 0h1v1h-1zm1 0h1v1h-1zm23 0h1v1h-1zm89 0h1v1h-1zm18 0h1v1h-1zm1 0h1v1h-1zm15 0h1v1h-1zm12 0h1v1h-1zm49 0h1v1h-1zm1 0h1v1h-1zm15 0h1v1h-1zm1 0h1v1h-1zm1 0h1v1h-1zm1 0h1v1h-1zm20 0h1v1h-1zm1 0h1v1h-1zm26 0h1v1h-1zM48 39h1v2h-1zm14 0h1v1h-1zm1 0h1v1h-1zm43 0h1v1h-1zm1 0h1v1h-1zm24 0h1v25h-1zm89 0h1v1h-1zm17 0h1v8h-1zm1 0h1v1h-1zm28 0h1v1h-1zm48 0h1v1h-1zm1 0h1v1h-1zm38 0h1v1h-1zm1 0h1v1h-1zM49 40h1v1h-1zm13 0h1v1h-1zm1 0h1v1h-1zm43 0h1v1h-1zm1 0h1v1h-1zm113 0h1v1h-1zm18 0h1v1h-1zm76 0h1v1h-1zm1 0h1v1h-1zm38 0h1v1h-1zm1 0h1v1h-1zM48 41h1v1h-1zm14 0h1v1h-1zm29 0h1v1h-1zm14 0h1v23h-1zm1 0h1v1h-1zm114 0h1v11h-1zm94 0h1v1h-1zm39 0h1v1h-1zm29 0h1v1h-1zM48 42h1v1h-1zm14 0h1v1h-1zm29 0h1v1h-1zm15 0h1v1h-1zm161 0h1v1h-1zm46 0h1v3h-1zm1 0h1v1h-1zm39 0h1v1h-1zm29 0h1v1h-1zM48 43h1v1h-1zm13 0h1v2h-1zm1 0h1v1h-1zm29 0h1v1h-1zm176 0h1v1h-1zm5 0h1v1h-1zm42 0h1v1h-1zm38 0h1v2h-1zm1 0h1v1h-1zm29 0h1v1h-1zM48 44h1v1h-1zm14 0h1v1h-1zm29 0h1v3h-1zm176 0h1v3h-1zm5 0h1v1h-1zm1 0h1v1h-1zm80 0h1v1h-1zm29 0h1v3h-1zM48 45h1v1h-1zm13 0h1v1h-1zm139 0h4v1h-4zm4 0h1v1h-1zm70 0h1v1h-1zm1 0h1v1h-1zm38 0h1v1h-1zm39 0h1v1h-1zM47 46h1v1h-1zm1 0h1v1h-1zm149 0h11v1h-11zm11 0h1v1h-1zm67 0h1v1h-1zm1 0h1v1h-1zm1 0h1v1h-1zm1 0h1v1h-1zM47 47h1v1h-1zm1 0h1v1h-1zm43 0h1v1h-1zm105 0h2v1h-2zm2 0h1v1h-1zm1 0h1v1h-1zm1 0h1v1h-1zm6 0h1v1h-1zm1 0h1v1h-1zm1 0h1v1h-1zm1 0h1v1h-1zm28 0h1v1h-1zm30 0h1v1h-1zm10 0h1v1h-1zm1 0h1v1h-1zm1 0h3v1h-3zm3 0h1v1h-1zm100 0h1v1h-1zM47 48h1v1h-1zm15 0h1v1h-1zm29 0h1v1h-1zm104 0h1v1h-1zm1 0h1v1h-1zm1 0h1v1h-1zm69 0h1v2h-1zm1 0h1v1h-1zm13 0h1v1h-1zm1 0h1v1h-1zm1 0h1v1h-1zm1 0h3v1h-3zm3 0h1v1h-1zm28 0h1v1h-1zm39 0h1v1h-1zm29 0h1v1h-1zM46 49h1v1h-1zm1 0h1v1h-1zm43 0h1v1h-1zm1 0h1v1h-1zm104 0h1v1h-1zm1 0h1v1h-1zm71 0h1v1h-1zm17 0h1v1h-1zm1 0h1v1h-1zm1 0h1v1h-1zm1 0h2v1h-2zm2 0h1v1h-1zm13 0h1v1h-1zm79 0h1v1h-1zm1 0h1v1h-1zM46 50h1v1h-1zm1 0h1v1h-1zm43 0h1v1h-1zm1 0h1v1h-1zm103 0h1v1h-1zm1 0h1v1h-1zm71 0h1v1h-1zm22 0h1v1h-1zm1 0h1v1h-1zm1 0h1v1h-1zm12 0h1v1h-1zm79 0h1v1h-1zm1 0h1v1h-1zM45 51h1v1h-1zm1 0h1v1h-1zm44 0h1v1h-1zm104 0h1v1h-1zm1 0h1v1h-1zm71 0h1v1h-1zm25 0h1v1h-1zm11 0h1v1h-1zm79 0h1v1h-1zM45 52h1v1h-1zm1 0h1v1h-1zm43 0h1v1h-1zm1 0h1v1h-1zm130 0h1v1h-1zm45 0h1v1h-1zm1 0h1v1h-1zm36 0h1v1h-1zm78 0h1v1h-1zm1 0h1v1h-1zm17 0h1v1h-1zm25 0h1v1h-1zM15 53h1v1h-1zm29 0h1v1h-1zm1 0h1v1h-1zm44 0h1v1h-1zm1 0h1v1h-1zm175 0h1v1h-1zm1 0h1v1h-1zm36 0h1v1h-1zm78 0h1v1h-1zm1 0h1v1h-1zM43 54h1v1h-1zm1 0h1v1h-1zm1 0h1v1h-1zm43 0h1v1h-1zm1 0h1v1h-1zm176 0h1v1h-1zm37 0h1v1h-1zm77 0h1v1h-1zm1 0h1v1h-1zM42 55h1v1h-1zm1 0h1v1h-1zm1 0h1v1h-1zm44 0h1v1h-1zm1 0h1v1h-1zm175 0h1v1h-1zm1 0h1v1h-1zm37 0h1v1h-1zm38 0h1v1h-1zm1 0h1v1h-1zm38 0h1v1h-1zm1 0h1v1h-1zm27 0h1v1h-1zm25 0h1v1h-1zM41 56h1v1h-1zm1 0h1v1h-1zm1 0h1v1h-1zm11 0h1v1h-1zm33 0h1v1h-1zm1 0h1v1h-1zm135 0h1v1h-1zm40 0h1v1h-1zm1 0h1v1h-1zm1 0h1v1h-1zm36 0h1v1h-1zm1 0h1v1h-1zm4 0h1v1h-1zm33 0h1v1h-1zm1 0h1v1h-1zm5 0h1v1h-1zm33 0h1v1h-1zm1 0h1v1h-1zm28 0h1v1h-1zm25 0h1v1h-1zM40 57h1v1h-1zm1 0h1v1h-1zm1 0h1v1h-1zm44 0h1v1h-1zm1 0h1v1h-1zm1 0h1v1h-1zm135 0h1v7h-1zm40 0h1v1h-1zm1 0h1v1h-1zm37 0h1v1h-1zm1 0h1v1h-1zm5 0h1v1h-1zm31 0h1v1h-1zm1 0h1v1h-1zm1 0h1v1h-1zm37 0h1v1h-1zm1 0h1v1h-1zm1 0h1v1h-1zM39 58h1v1h-1zm1 0h1v1h-1zm1 0h1v1h-1zm44 0h1v1h-1zm1 0h1v1h-1zm1 0h1v1h-1zm99 0h1v1h-1zm51 0h1v22h-1zm25 0h1v1h-1zm1 0h1v1h-1zm37 0h1v1h-1zm1 0h1v1h-1zm7 0h1v1h-1zm29 0h1v1h-1zm1 0h1v1h-1zm1 0h1v1h-1zm37 0h1v1h-1zm1 0h1v1h-1zm1 0h1v1h-1zM37 59h2v1h-2zm2 0h1v1h-1zm1 0h1v1h-1zm16 0h1v1h-1zm1 0h1v1h-1zm27 0h1v1h-1zm1 0h1v1h-1zm1 0h1v1h-1zm124 0h1v1h-1zm28 0h1v1h-1zm23 0h1v1h-1zm1 0h1v1h-1zm1 0h1v1h-1zm36 0h1v1h-1zm1 0h1v1h-1zm1 0h1v1h-1zm8 0h1v1h-1zm27 0h1v1h-1zm1 0h1v1h-1zm1 0h1v1h-1zm9 0h1v1h-1zm1 0h1v1h-1zm27 0h1v1h-1zm1 0h1v1h-1zm1 0h1v1h-1zm31 0h1v1h-1zm25 0h1v1h-1zM36 60h1v1h-1zm1 0h1v1h-1zm1 0h1v1h-1zm1 0h1v1h-1zm18 0h1v1h-1zm1 0h1v1h-1zm25 0h1v1h-1zm1 0h1v1h-1zm1 0h1v1h-1zm123 0h1v1h-1zm1 0h1v1h-1zm1 0h1v1h-1zm1 0h1v1h-1zm28 0h1v1h-1zm21 0h1v1h-1zm1 0h1v1h-1zm1 0h1v1h-1zm7 0h1v1h-1zm1 0h1v1h-1zm28 0h1v1h-1zm1 0h1v1h-1zm1 0h1v1h-1zm10 0h1v1h-1zm25 0h1v1h-1zm1 0h1v1h-1zm1 0h1v1h-1zm11 0h1v1h-1zm1 0h1v1h-1zm25 0h1v1h-1zm1 0h1v1h-1zm1 0h1v1h-1zm32 0h1v1h-1zm25 0h1v1h-1zM33 61h3v1h-3zm3 0h1v1h-1zm1 0h1v1h-1zm22 0h1v1h-1zm1 0h1v1h-1zm21 0h1v1h-1zm1 0h1v1h-1zm1 0h1v1h-1zm1 0h1v1h-1zm104 0h1v1h-1zm1 0h1v1h-1zm18 0h1v1h-1zm1 0h1v1h-1zm1 0h1v1h-1zm1 0h1v1h-1zm30 0h1v1h-1zm18 0h1v1h-1zm1 0h1v1h-1zm1 0h1v1h-1zm1 0h1v1h-1zm9 0h1v1h-1zm1 0h1v1h-1zm1 0h1v1h-1zm25 0h1v1h-1zm1 0h1v1h-1zm1 0h1v1h-1zm12 0h1v1h-1zm1 0h1v1h-1zm21 0h2v1h-2zm2 0h1v1h-1zm1 0h1v1h-1zm14 0h1v1h-1zm1 0h1v1h-1zm21 0h1v1h-1zm1 0h1v1h-1zm1 0h1v1h-1zm1 0h1v1h-1zm14 0h1v1h-1zm19 0h1v1h-1zm6 0h1v1h-1zm19 0h1v1h-1zM30 62h4v1h-4zm4 0h1v1h-1zm1 0h1v1h-1zm1 0h1v1h-1zm24 0h1v1h-1zm1 0h1v1h-1zm1 0h1v1h-1zm17 0h2v1h-2zm2 0h1v1h-1zm1 0h1v1h-1zm1 0h1v1h-1zm106 0h1v1h-1zm1 0h1v1h-1zm15 0h2v1h-2zm2 0h1v1h-1zm1 0h1v1h-1zm33 0h1v1h-1zm1 0h1v1h-1zm14 0h2v1h-2zm2 0h1v1h-1zm1 0h1v1h-1zm1 0h1v1h-1zm12 0h1v1h-1zm1 0h1v1h-1zm1 0h2v1h-2zm2 0h1v1h-1zm18 0h3v1h-3zm3 0h1v1h-1zm1 0h1v1h-1zm14 0h1v1h-1zm1 0h1v1h-1zm1 0h1v1h-1zm17 0h2v1h-2zm2 0h1v1h-1zm1 0h1v1h-1zm1 0h1v1h-1zm16 0h1v1h-1zm1 0h1v1h-1zm1 0h1v1h-1zm17 0h2v1h-2zm2 0h1v1h-1zm1 0h1v1h-1zm1 0h1v1h-1zm16 0h1v1h-1zm15 0h2v1h-2zm2 0h1v1h-1zm1 0h1v1h-1zm7 0h1v1h-1zm15 0h2v1h-2zm2 0h1v1h-1zm1 0h1v1h-1zM5 63h1v1H5zm1 0h25v1H6zm25 0h1v1h-1zm1 0h1v1h-1zm1 0h1v1h-1zm29 0h1v1h-1zm1 0h1v1h-1zm1 0h2v1h-2zm2 0h1v1h-1zm9 0h4v1h-4zm4 0h1v1h-1zm1 0h1v1h-1zm1 0h1v1h-1zm15 0h1v1h-1zm1 0h8v1h-8zm24 0h1v1h-1zm1 0h8v1h-8zm8 0h1v1h-1zm34 0h1v1h-1zm1 0h8v1h-8zm8 0h1v1h-1zm18 0h1v1h-1zm1 0h1v1h-1zm1 0h1v1h-1zm8 0h4v1h-4zm4 0h1v1h-1zm1 0h1v1h-1zm1 0h1v1h-1zm6 0h1v1h-1zm1 0h1v1h-1zm7 0h1v1h-1zm1 0h1v1h-1zm20 0h1v1h-1zm1 0h1v1h-1zm1 0h1v1h-1zm1 0h1v1h-1zm8 0h4v1h-4zm4 0h1v1h-1zm1 0h1v1h-1zm16 0h1v1h-1zm1 0h1v1h-1zm1 0h1v1h-1zm1 0h4v1h-4zm4 0h1v1h-1zm9 0h5v1h-5zm5 0h1v1h-1zm1 0h1v1h-1zm1 0h1v1h-1zm17 0h1v1h-1zm1 0h1v1h-1zm1 0h2v1h-2zm2 0h1v1h-1zm9 0h4v1h-4zm4 0h1v1h-1zm1 0h1v1h-1zm1 0h1v1h-1zm20 0h1v1h-1zm1 0h1v1h-1zm1 0h2v1h-2zm2 0h1v1h-1zm9 0h4v1h-4zm4 0h1v1h-1zm1 0h1v1h-1zm1 0h1v1h-1zm19 0h1v1h-1zm1 0h1v1h-1zm1 0h1v1h-1zm8 0h4v1h-4zm4 0h1v1h-1zm1 0h1v1h-1zm1 0h1v1h-1zm1 0h1v1h-1zm8 0h1v1h-1zm1 0h1v1h-1zm1 0h1v1h-1zm8 0h4v1h-4zm4 0h1v1h-1zm1 0h1v1h-1zm1 0h1v1h-1zm1 0h1v1h-1zM5 64h1v1H5zm1 0h21v1H6zm21 0h1v1h-1zm1 0h1v1h-1zm1 0h1v1h-1zm1 0h1v1h-1zm34 0h1v1h-1zm1 0h1v1h-1zm1 0h10v1H66zm10 0h1v1h-1zm1 0h1v1h-1zm1 0h1v1h-1zm1 0h1v1h-1zm17 0h1v1h-1zm1 0h8v1h-8zm8 0h1v1h-1zm16 0h1v1h-1zm1 0h8v1h-8zm8 0h1v1h-1zm1 0h1v1h-1zm33 0h1v1h-1zm1 0h8v1h-8zm8 0h1v1h-1zm1 0h1v1h-1zm18 0h1v1h-1zm1 0h1v1h-1zm1 0h8v1h-8zm8 0h1v1h-1zm1 0h1v1h-1zm1 0h1v1h-1zm1 0h1v1h-1zm9 0h1v1h-1zm1 0h1v1h-1zm1 0h6v1h-6zm6 0h1v1h-1zm1 0h1v1h-1zm21 0h1v1h-1zm1 0h1v1h-1zm1 0h8v1h-8zm8 0h1v1h-1zm1 0h1v1h-1zm1 0h1v1h-1zm22 0h1v1h-1zm1 0h1v1h-1zm1 0h1v1h-1zm1 0h11v1h-11zm11 0h1v1h-1zm1 0h1v1h-1zm1 0h1v1h-1zm22 0h1v1h-1zm1 0h1v1h-1zm1 0h11v1h-11zm11 0h1v1h-1zm1 0h1v1h-1zm1 0h1v1h-1zm24 0h1v1h-1zm1 0h1v1h-1zm1 0h10v1h-10zm10 0h1v1h-1zm1 0h1v1h-1zm1 0h1v1h-1zm1 0h1v1h-1zm22 0h1v1h-1zm1 0h1v1h-1zm1 0h8v1h-8zm8 0h1v1h-1zm1 0h1v1h-1zm1 0h1v1h-1zm1 0h1v1h-1zm12 0h1v1h-1zm1 0h1v1h-1zm1 0h8v1h-8zm8 0h1v1h-1zm1 0h1v1h-1zm1 0h1v1h-1zm1 0h1v1h-1zM68 65h1v1h-1zm1 0h5v1h-5zm5 0h1v1h-1zm1 0h1v1h-1zm120 0h1v1h-1zm1 0h4v1h-4zm4 0h1v1h-1zm1 0h1v1h-1zm15 0h1v1h-1zm1 0h3v1h-3zm3 0h1v1h-1zm1 0h1v1h-1zm26 0h1v1h-1zm1 0h4v1h-4zm4 0h1v1h-1zm1 0h1v1h-1zm30 0h1v1h-1zm1 0h6v1h-6zm6 0h1v1h-1zm30 0h1v1h-1zm1 0h5v1h-5zm5 0h1v1h-1zm1 0h1v1h-1zm32 0h1v1h-1zm1 0h5v1h-5zm5 0h1v1h-1zm1 0h1v1h-1zm29 0h1v1h-1zm1 0h4v1h-4zm4 0h1v1h-1zm1 0h1v1h-1zm19 0h1v1h-1zm1 0h4v1h-4zm4 0h1v1h-1zm1 0h1v1h-1zM228 79h1v1h-1zm1 0h8v1h-8zm-1 1h1v1h-1zm1 0h8v1h-8zm8 0h1v1h-1z" fill="#fff"/><path d="M266 40h1v1h-1zm48 9h1v1h-1zm-3 11h1v1h-1z" fill="#d8d8d8"/><path fill="#9a9a9a" d="M129 32h1v1h-1z"/><path d="M78 36h1v1h-1zm291 0h1v1h-1z" fill="#8e8e8e"/><path fill="#919191" d="M305 53h1v1h-1z"/><path fill="#828282" d="M308 57h1v1h-1z"/><path d="M34 24h1v1h-1zm21 32h1v1h-1zm291 0h1v1h-1z" fill="#929292"/><path fill="#818181" d="M271 41h1v1h-1z"/><path d="M327 25h1v1h-1zm-132 1h1v1h-1zm16 0h1v1h-1zm32 0h1v1h-1zm88 0h1v1h-1zM81 27h1v1h-1zm29 0h1v1h-1zm262 0h1v1h-1zm-97 1h1v1h-1zm37 0h1v1h-1zM84 29h1v1h-1zm132 0h1v1h-1zm159 0h1v1h-1zm-158 1h1v1h-1zM87 32h1v1h-1zm291 0h1v1h-1zm-115 1h1v1h-1zM52 39h1v1h-1zm291 0h1v1h-1zm-222 2h1v21h-1zm178 4h1v1h-1zm-114 7h1v1h-1zm55 0h1v1h-1zM31 53h1v1h-1zm34 0h1v1h-1zm176 0h1v1h-1zm31 0h1v1h-1zm45 0h1v1h-1zm39 0h1v1h-1zm-104 1h1v1h-1zm153 0h1v1h-1zm25 0h1v1h-1zm-180 1h1v1h-1zm28 0h1v1h-1zm3 1h1v1h-1zm-12 2h1v1h-1zm-148 4h1v1h-1z" fill="#525252"/><path d="M129 31h1v1h-1zm58 0h1v1h-1zm-98 6h1v1h-1zm176 0h1v1h-1zm115 0h1v1h-1z" fill="#9e9e9e"/><path d="M251 34h1v1h-1zm-40 24h1v1h-1zm60 2h1v1h-1z" fill="#c9c9c9"/><path d="M88 35h1v1h-1zm291 0h1v1h-1z" fill="#606060"/><path d="M189 19h1v1h-1zm90 15h1v1h-1zM64 35h1v1h-1zm272 0h1v1h-1zm19 0h1v1h-1zm-40 1h1v1h-1zM47 44h1v1h-1zm219 2h1v1h-1zm17 1h1v1h-1zM43 53h1v1h-1zm43 3h1v1h-1zm291 0h1v1h-1zM83 59h1v1h-1zm291 0h1v1h-1zm-44 3h1v1h-1zm-11 1h1v1h-1zm7 0h1v1h-1z" fill="#c7c7c7"/><path d="M45 23h1v1h-1zm228 20h1v1h-1zM52 51h1v1h-1zm291 0h1v1h-1z" fill="#898989"/><path fill="#cecece" d="M240 60h1v1h-1z"/><path d="M33 23h1v1h-1zm14 6h1v1h-1zm141 4h1v1h-1zm1 2h1v1h-1zM53 54h1v1h-1zm291 0h1v1h-1z" fill="#b6b6b6"/><path fill="#868686" d="M15 54h1v1h-1z"/><g fill="#1b1b1b"><path d="M6 12h21v6H6zm21 0h1v7h-1zm121 0h40v6h-40zm40 0h1v6h-1zm1 0h1v1h-1zM28 13h3v6h-3zm3 0h1v7h-1zm358 0h7v45h-7zm7 0h1v49h-1zm1 0h1v1h-1zm17 0h7v45h-7zm7 0h1v49h-1zm1 0h1v1h-1zM32 14h2v7h-2zm2 0h1v9h-1zm1 1h1v9h-1zm1 0h1v10h-1zm1 1h1v11h-1zm1 1h1v13h-1zm1 0h1v18h-1z"/><path d="M6 18h34v1H6zm34 0h1v37h-1zm108 0h40v1h-40zm40 0h1v1h-1zM6 19h7v43H6zm7 0h1v43h-1z"/><path d="M27 19h14v1H27zm14 0h1v35h-1zm123 0h8v1h-8zm8 0h1v43h-1z"/><path d="M30 20h12v1H30zm12 0h1v33h-1zm123 0h7v42h-7zM32 21h10v1H32z"/><path d="M33 22h10v1H33zm10 0h1v29h-1z"/><path d="M34 23h10v1H34zm10 0h1v27h-1zm-9 1h9v1h-9zm1 1h8v1h-8zm361 0h1v7h-1zm25 0h1v7h-1zM45 26h1v21h-1zm21 0h10v6H66zm10 0h1v7h-1zm21 0h6v36h-6zm6 0h1v36h-1zm12 0h8v6h-8zm8 0h1v36h-1zm75 0h11v4h-11zm11 0h1v7h-1zm20 0h5v52h-5zm5 0h1v52h-1zm1 0h1v1h-1zm10 0h8v6h-8zm8 0h1v8h-1zm28 0h10v4h-10zm10 0h1v5h-1zm27 0h10v6h-10zm10 0h1v7h-1zm29 0h10v6h-10zm10 0h1v7h-1z"/><path d="M384 26h20v6h-20zm20 0h1v6h-1zm1 0h1v1h-1zm4 0h20v6h-20zm20 0h1v6h-1zm1 0h1v1h-1zM37 27h8v1h-8zm27 0h15v5H64zm15 0h1v9h-1zm33 0h13v5h-13zm13 0h1v35h-1zm70 0h16v3h-16zm16 0h1v11h-1zm32 0h13v5h-13zm13 0h1v11h-1zm22 0h16v3h-16zm16 0h1v6h-1zm22 0h15v5h-15zm15 0h1v8h-1zm24 0h15v5h-15zm15 0h1v9h-1zM46 28h1v17h-1z"/><path d="M62 28h19v4H62zm19 0h1v12h-1zm29 0h16v4h-16zm16 0h1v34h-1zm66 0h21v2h-21zm21 0h1v32h-1zm28 0h17v4h-17zm17 0h1v31h-1zm19 0h20v2h-20zm20 0h1v5h-1zm17 0h19v4h-19zm19 0h1v7h-1zm20 0h19v4h-19zm19 0h1v12h-1z"/><path d="M60 29h22v3H60zm22 0h1v29h-1zm27 0h18v3h-18zm18 0h1v33h-1zm63 0h24v1h-24zm24 0h1v32h-1zm26 0h19v3h-19zm19 0h1v29h-1zm16 0h24v1h-24zm24 0h1v1h-1zm13 0h23v3h-23zm23 0h1v5h-1zm16 0h22v3h-22zm22 0h1v29h-1zM38 30h8v1h-8z"/><path d="M59 30h25v2H59zm25 0h1v27h-1zm24 0h19v2h-19zm81 0h26v1h-26zm26 0h1v32h-1zm24 0h21v2h-21zm21 0h1v28h-1zm14 0h24v1h-24zm24 0h1v1h-1zm13 0h25v2h-25zm25 0h1v4h-1zm14 0h25v2h-25zm25 0h1v27h-1z"/><path d="M58 31h27v1H58zm27 0h1v25h-1zm22 0h21v1h-21zm21 0h1v31h-1zm61 0h8v1h-8zm8 0h1v1h-1zm8 0h11v1h-11zm11 0h1v31h-1zm22 0h23v1h-23zm23 0h1v25h-1zm13 0h7v1h-7zm7 0h1v1h-1zm8 0h9v1h-9zm9 0h1v1h-1zm12 0h27v1h-27zm27 0h1v3h-1zm12 0h27v1h-27zm27 0h1v25h-1zM57 32h28v1H57zm47 0h24v1h-24zm85 0h5v1h-5zm5 0h1v1h-1z"/><path d="M208 32h9v1h-9zm9 0h1v30h-1zm18 0h27v1h-27zm27 0h1v23h-1zm11 0h6v10h-6zm6 0h1v1h-1zm13 0h5v1h-5zm17 0h28v1h-28zm39 0h28v1h-28zm36 0h20v1h-20zm20 0h1v1h-1zm5 0h20v1h-20zm20 0h1v1h-1zM56 33h9v1h-9zm9 0h1v1h-1zm10 0h11v1H75zm11 0h1v21h-1zm18 0h6v1h-6zm6 0h1v1h-1zm8 0h10v1h-10zm72 0h1v1h-1zm1 0h1v1h-1zm18 0h8v1h-8zm26 0h6v1h-6zm6 0h1v1h-1zm10 0h11v1h-11z"/><path d="M272 33h6v8h-6zm22 0h3v1h-3zm3 0h1v1h-1zm11 0h9v1h-9zm9 0h1v1h-1zm10 0h11v1h-11zm11 0h1v1h-1zm9 0h9v1h-9zm9 0h1v1h-1zm10 0h11v1h-11zm11 0h1v21h-1zm11 0h8v1h-8zm25 0h8v1h-8zM47 34h1v5h-1zm8 0h9v1h-9zm9 0h1v1h-1zm13 0h10v1H77zm10 0h1v19h-1zm17 0h4v1h-4zm4 0h1v1h-1zm11 0h10v1h-10zm10 0h1v28h-1zm61 0h1v1h-1zm20 0h7v1h-7zm25 0h4v1h-4zm4 0h1v1h-1zm14 0h10v1h-10zm10 0h1v19h-1zm33 0h1v1h-1zm11 0h9v1h-9zm9 0h1v1h-1zm13 0h8v1h-8zm8 0h1v1h-1zm9 0h9v1h-9zm9 0h1v1h-1z"/><path d="M368 34h10v1h-10zm10 0h1v19h-1zM39 35h8v1h-8zm16 0h8v1h-8zm8 0h1v1h-1zm15 0h9v1h-9zm26 0h3v1h-3zm3 0h1v1h-1zm13 0h9v1h-9zm92 0h6v22h-6zm6 0h1v27h-1zm17 0h3v1h-3zm3 0h1v1h-1zm16 0h9v1h-9zm53 0h8v1h-8zm8 0h1v1h-1zm15 0h4v1h-4zm4 0h1v1h-1zm12 0h8v1h-8zm8 0h1v1h-1zm15 0h9v1h-9zM54 36h8v2h-8zm8 0h1v1h-1zm17 0h9v1h-9zm9 0h1v15h-1zm16 0h2v1h-2zm2 0h1v1h-1zm15 0h8v1h-8zm114 0h2v42h-2zm2 0h1v1h-1zm18 0h9v1h-9zm9 0h1v15h-1zm42 0h8v2h-8zm8 0h1v1h-1zm31 0h8v2h-8zm8 0h1v1h-1z"/><path d="M370 36h9v1h-9zm9 0h1v15h-1zM80 37h8v1h-8zm24 0h1v25h-1zm1 0h1v1h-1zm17 0h7v25h-7zm135 0h7v3h-7zm114 0h8v1h-8zM54 38h7v15h-7zm7 0h1v1h-1zm22 0h5v15h-5zm128 0h7v1h-7z"/><path d="M256 38h8v1h-8zm23 0h1v7h-1zm27 0h7v15h-7zm7 0h1v1h-1zm32 0h7v15h-7zm7 0h1v1h-1zm22 0h5v15h-5zM39 39h8v6h-8zm8 0h1v1h-1zm6 0h7v11h-7zm36 0h1v9h-1zm191 0h1v6h-1z"/><path d="M305 39h7v11h-7zm39 0h7v11h-7zm36 0h1v9h-1zM81 40h8v1h-8zm118 0h5v4h-5zm5 0h1v4h-1zm53 0h8v1h-8zm8 0h1v8h-1zm16 0h1v5h-1zm1 0h1v6h-1zm90 0h8v1h-8z"/><path d="M195 41h13v3h-13zm13 0h1v4h-1zm64 0h14v1h-14zm14 0h1v6h-1z"/><path d="M193 42h25v2h-25zm80 0h17v1h-17zm17 0h1v6h-1z"/><path d="M191 43h27v1h-27zm83 0h19v1h-19zm19 0h1v8h-1zM52 44h8v1h-8zm138 0h28v1h-28z"/><path d="M276 44h19v1h-19zm19 0h1v16h-1zm9 0h8v1h-8zm39 0h8v1h-8zM38 45h8v2h-8zm8 0h1v1h-1zm6 0h8v1h-8zm137 0h8v1h-8zm8 0h1v1h-1zm11 0h10v1h-10z"/><path d="M278 45h19v1h-19zm19 0h1v14h-1zm7 0h8v1h-8zm39 0h8v1h-8zm-155 1h7v1h-7zm7 0h1v1h-1zm16 0h7v1h-7z"/><path d="M282 46h17v1h-17zm17 0h1v11h-1zM38 47h7v3h-7zm7 0h1v1h-1zm142 0h7v10h-7zm7 0h1v1h-1zm92 0h13v1h-13z"/><path d="M37 48h7v3h-7zm52 0h1v1h-1zm176 0h1v1h-1zm24 0h11v1h-11zm11 0h1v7h-1zm80 0h1v1h-1zM61 49h1v11h-1zm20 0h7v4h-7zm176 0h7v4h-7zm35 0h8v1h-8zm21 0h1v11h-1zm39 0h1v11h-1zm20 0h7v4h-7z"/><path d="M36 50h8v1h-8zm8 0h1v1h-1zm9 0h8v1h-8zm133 0h7v4h-7zm51 0h1v5h-1zm57 0h6v7h-6zm11 0h8v1h-8zm39 0h8v1h-8zM35 51h8v2h-8zm8 0h1v1h-1zm19 0h1v9h-1zm26 0h1v1h-1zm150 0h1v5h-1zm18 0h8v2h-8zm8 0h1v1h-1z"/><path d="M293 51h7v1h-7zm21 0h1v9h-1zm39 0h1v9h-1zm26 0h1v1h-1zM34 52h8v2h-8zm29 0h1v9h-1zm17 0h7v2h-7zm131 0h7v4h-7zm28 0h1v6h-1zm76 0h1v9h-1zm17 0h1v8h-1zm22 0h1v9h-1zm17 0h7v2h-7z"/><path d="M33 53h9v1h-9zm9 0h1v1h-1zm12 0h10v1H54zm10 0h1v8h-1zm15 0h8v1h-8zm8 0h1v1h-1zm153 0h1v6h-1zm15 0h8v2h-8zm8 0h1v1h-1zm43 0h10v1h-10zm10 0h1v8h-1zm15 0h4v6h-4zm4 0h1v5h-1zm10 0h10v1h-10zm10 0h1v8h-1zm15 0h8v1h-8zm8 0h1v1h-1zM31 54h10v1H31zm10 0h1v1h-1z"/><path d="M55 54h10v1H55zm10 0h1v8h-1zm13 0h8v2h-8zm8 0h1v1h-1zm100 0h8v1h-8zm8 0h1v8h-1zm16 0h9v2h-9zm9 0h1v8h-1zm22 0h1v6h-1zm13 0h8v2h-8zm19 0h1v6h-1zm1 0h1v6h-1zm33 0h10v1h-10zm10 0h1v8h-1zm13 0h8v2h-8zm8 0h1v1h-1zm1 0h1v1h-1zm7 0h10v1h-10zm10 0h1v8h-1zm13 0h8v2h-8zm8 0h1v1h-1zm20 0h1v8h-1zm25 0h1v8h-1zM14 55h1v7h-1zm14 0h12v1H28zm12 0h1v1h-1z"/><path d="M55 55h11v1H55zm11 0h1v7h-1zm10 0h9v2h-9zm119 0h1v7h-1zm14 0h11v1h-11zm11 0h1v7h-1zm17 0h5v1h-5zm5 0h1v5h-1zm10 0h10v1h-10zm10 0h1v1h-1zm10 0h4v4h-4zm4 0h1v6h-1zm17 0h7v2h-7zm7 0h1v1h-1zm8 0h10v1h-10zm10 0h1v7h-1zm10 0h9v2h-9zm18 0h11v1h-11zm11 0h1v7h-1zm10 0h9v2h-9zm31 0h1v7h-1zm1 0h1v7h-1zm5 0h1v6h-1zm1 0h1v5h-1zm18 0h1v7h-1zm1 0h1v7h-1zm5 0h1v6h-1zm1 0h1v5h-1zM15 56h24v1H15zm24 0h1v1h-1z"/><path d="M56 56h29v1H56zm29 0h1v1h-1zm111 0h1v6h-1zm11 0h14v1h-14zm14 0h1v6h-1zm17 0h23v1h-23zm23 0h1v1h-1zm16 0h1v5h-1zm1 0h1v5h-1zm14 0h7v2h-7zm16 0h29v1h-29zm29 0h1v1h-1zm10 0h29v1h-29zm29 0h1v1h-1zm24 0h5v5h-5zm25 0h5v5h-5zM15 57h23v1H15zm23 0h1v1h-1zm19 0h27v1H57zm27 0h1v1h-1z"/><path d="M187 57h11v1h-11zm11 0h1v5h-1zm6 0h5v1h-5zm5 0h1v1h-1zm3 0h9v1h-9zm31 0h17v1h-17zm28 0h11v2h-11zm11 0h1v5h-1zm8 0h9v1h-9zm9 0h1v1h-1zm10 0h27v1h-27zm27 0h1v1h-1zm12 0h27v1h-27zm27 0h1v1h-1zm31 0h1v3h-1zm25 0h1v3h-1zM15 58h21v1H15zm21 0h1v1h-1zm22 0h25v1H58zm25 0h1v1h-1z"/><path d="M188 58h20v1h-20zm20 0h1v1h-1zm31 0h21v1h-21zm21 0h1v1h-1zm10 0h28v1h-28zm28 0h1v1h-1zm12 0h25v1h-25zm25 0h1v1h-1zm14 0h25v1h-25zm25 0h1v1h-1zm15 0h17v1h-17zm25 0h17v1h-17zM15 59h20v1H15zm20 0h1v1h-1zm24 0h22v1H59zm22 0h1v1h-1zm108 0h18v1h-18zm18 0h1v1h-1zm33 0h18v1h-18zm18 0h1v1h-1zm13 0h26v1h-26zm26 0h1v1h-1zm14 0h23v1h-23zm23 0h1v1h-1zm16 0h22v1h-22zm22 0h1v1h-1zm18 0h16v1h-16zm25 0h16v1h-16zM15 60h18v1H15zm18 0h1v1h-1zm28 0h19v1H61zm19 0h1v1h-1zm110 0h16v1h-16zm16 0h1v1h-1zm7 0h8v1h-8zm28 0h16v1h-16zm16 0h1v1h-1zm16 0h23v1h-23zm23 0h1v1h-1zm17 0h19v1h-19zm19 0h1v1h-1zm20 0h19v1h-19zm19 0h1v1h-1zm19 0h16v1h-16zm16 0h1v1h-1zm9 0h16v1h-16zm16 0h1v1h-1zM15 61h15v1H15zm15 0h1v1h-1zm33 0h15v1H63zm15 0h1v1h-1zm113 0h13v1h-13zm13 0h1v1h-1zm10 0h7v1h-7zm29 0h13v1h-13zm13 0h1v1h-1zm20 0h18v1h-18zm18 0h1v1h-1zm21 0h15v1h-15zm15 0h1v1h-1zm24 0h15v1h-15zm15 0h1v1h-1zm22 0h13v1h-13zm13 0h1v1h-1zm12 0h13v1h-13zm13 0h1v1h-1zM6 62h20v1H6zm20 0h1v1h-1zm39 0h10v1H65zm10 0h1v1h-1zm22 0h7v1h-7zm7 0h1v1h-1zm18 0h7v1h-7zm7 0h1v1h-1zm36 0h7v1h-7zm7 0h1v1h-1zm21 0h8v1h-8zm8 0h1v1h-1zm14 0h6v1h-6zm6 0h1v1h-1zm24 0h8v1h-8zm8 0h1v1h-1zm27 0h11v1h-11zm11 0h1v1h-1zm26 0h11v1h-11zm11 0h1v1h-1zm28 0h10v1h-10zm10 0h1v1h-1zm27 0h8v1h-8zm8 0h1v1h-1zm17 0h8v1h-8zm8 0h1v1h-1zM229 78h7v1h-7zm7 0h1v1h-1z"/></g><path fill="#474747" d="M128 30h1v1h-1z"/><path d="M32 13h1v1h-1zm4 13h1v1h-1zm41 0h1v1h-1zm37 0h1v1h-1zm83 0h1v1h-1zm57 0h1v1h-1zm114 0h1v1h-1zm-156 1h1v1h-1zm103 0h1v1h-1zM61 28h1v1h-1zm215 0h1v1h-1zm37 0h1v1h-1zm39 0h1v1h-1zm-244 1h1v1h-1zm108 1h1v1h-1zm-110 1h1v1h-1zm-67 6h1v1h-1zm232 0h1v1h-1zM39 38h1v1h-1zm232 0h1v1h-1zm-60 2h1v1h-1zm72 0h1v1h-1zm-72 1h1v1h-1zm93 1h1v1h-1zm-8 2h1v1h-1zM37 47h1v1h-1zm174 1h1v3h-1zm0 3h1v1h-1zm44 1h1v1h-1zM32 53h1v1h-1zm221 1h1v1h-1zm145 0h1v1h-1zm25 0h1v1h-1zM67 55h1v1h-1zm176 0h1v1h-1zm76 0h1v1h-1zm39 0h1v1h-1z" fill="#252525"/><path d="M79 38h1v1h-1zm291 0h1v1h-1zM61 61h1v1h-1zm291 0h1v1h-1z" fill="#b0b0b0"/><path fill="#6d6d6d" d="M210 48h1v1h-1z"/><path fill="#e3e3e3" d="M187 59h1v1h-1z"/><path d="M15 19h10v1H15zm10 0h1v1h-1zm123 0h14v1h-14zm14 0h1v1h-1zm12 0h14v1h-14zm14 0h1v1h-1zM47 30h1v1h-1zm152 1h4v1h-4zm4 0h1v1h-1zm80 0h4v1h-4zm4 0h1v1h-1zm-92 1h1v1h-1zm11 0h1v1h-1zm84 0h1v1h-1zM67 33h1v1h-1zm44 0h1v1h-1zm82 0h1v1h-1zm56 0h1v1h-1zm70 0h1v1h-1zm39 0h1v1h-1zm29 0h1v1h-1zm25 0h1v1h-1zM65 34h1v1h-1zm126 0h1v1h-1zm106 0h1v1h-1zm20 0h1v1h-1zm39 0h1v1h-1zm-248 1h1v1h-1zm101 0h1v1h-1zm30 0h1v1h-1zm96 0h1v1h-1zM63 36h1v1h-1zm44 0h1v1h-1zm225 0h1v1h-1zm22 0h1v1h-1zm-249 3h1v1h-1zm-44 1h1v1h-1zm252 0h1v1h-1zm39 0h1v1h-1zM90 42h1v3h-1zm291 0h1v3h-1zM47 43h1v1h-1zm43 2h1v1h-1zm108 0h1v1h-1zm8 0h1v1h-1zm71 0h1v1h-1zm104 0h1v1h-1zm-101 1h1v1h-1zM61 47h1v1h-1zm223 0h1v1h-1zm29 0h1v1h-1zm39 0h1v1h-1zm-62 2h1v1h-1zM89 50h1v1h-1zm291 0h1v1h-1zm-116 3h1v1h-1zM42 54h1v1h-1zm296 2h1v1h-1zM39 57h1v1h-1zm45 1h1v1h-1zm215 0h1v1h-1zm76 0h1v1h-1zm-40 1h1v1h-1zm54 1h1v1h-1zm25 0h1v1h-1zM32 61h1v1h-1zm225 0h1v1h-1zm17 0h1v1h-1zm132 0h1v1h-1zm25 0h1v1h-1zM27 62h1v1h-1zm1 0h1v1h-1zm49 0h1v1h-1zm115 0h1v1h-1zm11 0h1v1h-1zm52 0h1v1h-1zm22 0h1v1h-1zm1 0h1v1h-1zm15 0h1v1h-1zm23 0h1v1h-1zm13 0h1v1h-1zm39 0h1v1h-1zm35 0h1v1h-1zm25 0h1v1h-1zM68 63h5v1h-5zm5 0h1v1h-1zm122 0h4v1h-4zm4 0h1v1h-1zm17 0h3v1h-3zm3 0h1v1h-1zm28 0h4v1h-4zm4 0h1v1h-1zm32 0h6v1h-6zm6 0h1v1h-1zm31 0h5v1h-5zm5 0h1v1h-1zm34 0h5v1h-5zm5 0h1v1h-1zm31 0h4v1h-4zm4 0h1v1h-1zm21 0h4v1h-4zm4 0h1v1h-1z" fill="#aeaeae"/><path fill="#b4b4b4" d="M212 61h1v1h-1z"/><path fill="#e8e8e8" d="M48 35h1v1h-1z"/><path d="M86 32h1v1h-1zm291 0h1v1h-1z" fill="#282828"/><path d="M281 32h1v1h-1zM73 33h1v1h-1zm170 0h1v1h-1zm82 0h1v1h-1zm39 0h1v1h-1zm-85 3h1v1h-1zm54 0h1v1h-1zM61 41h1v1h-1zm252 0h1v1h-1zm39 0h1v1h-1zM61 46h1v1h-1zm148 0h1v1h-1zm70 0h1v1h-1zm34 0h1v1h-1zm39 0h1v1h-1zm-86 1h1v1h-1zm-72 2h1v1h-1zm71 2h1v1h-1zm-71 1h1v1h-1zm107 3h1v1h-1zm-1 2h1v1h-1zm-90 1h1v1h-1zm51 0h1v1h-1zm73 2h1v1h-1zm-130 2h1v1h-1zm200 0h1v1h-1zm25 0h1v1h-1zM74 63h1v1h-1zm146 0h1v1h-1zm145 0h1v1h-1z" fill="#dfdfdf"/><path fill="#888" d="M120 37h1v1h-1z"/><path d="M79 39h1v1h-1zm291 0h1v1h-1z" fill="#bababa"/><path fill="#545454" d="M189 60h1v1h-1z"/><path d="M29 12h1v1h-1zm1 0h1v1h-1zm3 1h1v1h-1zm355 0h1v12h-1zm25 0h1v12h-1zM69 25h5v1h-5zm5 0h1v1h-1zm43 0h5v1h-5zm5 0h1v1h-1zm78 0h6v1h-6zm6 0h1v1h-1zm41 0h4v1h-4zm4 0h1v1h-1zm32 0h5v1h-5zm5 0h1v1h-1zm33 0h5v1h-5zm5 0h1v1h-1zm34 0h5v1h-5zm5 0h1v1h-1zm23 0h1v1h-1zm25 0h1v1h-1zM78 26h1v1h-1zm35 0h1v1h-1zm83 0h1v1h-1zm14 0h1v1h-1zm45 0h1v1h-1zm24 0h1v1h-1zm14 0h1v1h-1zm24 0h1v1h-1zm13 0h1v1h-1zm39 0h1v1h-1zM62 27h1v1h-1zm131 0h1v1h-1zm84 0h1v1h-1zm19 0h1v1h-1zm57 0h1v1h-1zm-113 1h1v1h-1zm58 0h1v1h-1zm-109 1h1v1h-1zm111 0h1v1h-1zm37 1h1v1h-1zm-100 1h1v1h-1zm101 0h1v1h-1zM38 32h1v1h-1zm225 0h1v1h-1zM55 33h1v1h-1zm252 0h1v1h-1zm39 0h1v1h-1zm-75 1h1v1h-1zm117 0h1v22h-1zm25 0h1v22h-1zM80 39h1v1h-1zm41 0h1v1h-1zm250 0h1v1h-1zM52 40h1v1h-1zm144 0h1v1h-1zm1 0h1v1h-1zm9 0h1v1h-1zm1 0h1v1h-1zm77 0h1v1h-1zm59 0h1v1h-1zm-150 1h1v1h-1zm95 0h1v1h-1zm3 1h1v1h-1zm-34 1h1v2h-1zm0 2h1v1h-1zM37 46h1v1h-1zm150 0h1v1h-1zM36 48h1v1h-1zm150 0h1v1h-1zM52 49h1v1h-1zm252 0h1v1h-1zm39 0h1v1h-1zM80 50h1v1h-1zm291 0h1v1h-1zm-132 1h1v1h-1zm77 1h1v1h-1zm18 0h1v1h-1zm3 1h1v1h-1zM66 54h1v1h-1zm176 0h1v1h-1zm76 0h1v1h-1zm39 0h1v1h-1zM16 55h10v1H16zm10 0h1v1h-1zm42 0h1v1h-1zm154 0h1v1h-1zm22 0h1v1h-1zm27 0h1v1h-1zm49 0h1v1h-1zm39 0h1v1h-1zm42 0h1v1h-1zm1 0h1v1h-1zm24 0h1v1h-1zm1 0h1v1h-1zm-241 1h1v1h-1zm20 0h1v1h-1zm74 0h1v1h-1zm11 0h1v1h-1zm97 0h1v1h-1zm25 0h1v1h-1zm-213 1h3v1h-3zm3 0h1v1h-1zm81 0h4v1h-4zm4 0h1v1h-1z" fill="#434343"/><path d="M46 26h1v1h-1zm142 6h1v1h-1zm1 2h1v1h-1zM53 53h1v1h-1zm291 0h1v1h-1zm-158 4h1v1h-1z" fill="#969696"/><path fill="#353535" d="M300 47h1v1h-1z"/><path fill="#4e4e4e" d="M306 54h1v1h-1z"/><path fill="#bcbcbc" d="M238 58h1v1h-1z"/><path d="M68 25h1v1h-1zm184 0h1v1h-1zm37 0h1v1h-1zm70 0h1v1h-1zm24 1h1v6h-1zm25 0h1v6h-1zm-195 1h1v1h-1zm101 0h1v1h-1zm-55 1h1v1h-1zM37 29h1v1h-1zm48 1h1v1h-1zm291 0h1v1h-1zM86 31h1v1h-1zm291 0h1v1h-1zm6 1h1v1h-1zm25 0h1v1h-1zm-287 8h1v1h-1zm89 1h1v1h-1zm-19 1h1v1h-1zM81 43h1v3h-1zm291 0h1v3h-1zm-75 1h1v1h-1zM81 46h1v1h-1zm219 0h1v1h-1zm72 0h1v1h-1zm-176 9h1v1h-1z" fill="#484848"/></svg>