<svg xmlns="http://www.w3.org/2000/svg" role="img" viewBox="0.39 2.89 369.46 98.21"><title>Block.io logo</title><path d="M49.3 88.9c-3.3 3.3-8.5 5.2-14.4 5.2-6.4 0-11.2-1.6-15.6-7v6.3H7.7V10.6h11.9v29.8c4.3-5.1 9.2-6.6 15.5-6.6 5.9 0 11.1 2 14.3 5.2 5.9 5.9 6.6 15.9 6.6 24.9 0 9-.7 19.1-6.7 25zM31.9 44.4c-10.7 0-12.3 9.1-12.3 19.6 0 10.5 1.6 19.7 12.3 19.7 10.7 0 12.2-9.2 12.2-19.7 0-10.6-1.5-19.6-12.2-19.6zm50.5 49.1c-11.3 0-16.2-7.6-16.2-16.3V10.6h11.9v65.9c0 4.5 1.6 6.9 6.4 6.9h5.2v10.1h-7.3zm54.2-6.3c-3.8 4-9.7 7-17.7 7s-13.7-3-17.6-7c-5.6-5.8-7-13.3-7-23.3 0-9.9 1.4-17.3 7-23.2 3.8-4 9.5-7 17.6-7s13.9 3 17.7 7c5.6 5.8 7 13.3 7 23.2-.1 10-1.5 17.5-7 23.3zm-9-39.5c-2.2-2.2-5.2-3.4-8.7-3.4s-6.4 1.2-8.6 3.4c-3.6 3.6-4.1 9.8-4.1 16.2s.5 12.6 4.1 16.2c2.2 2.2 5.1 3.5 8.6 3.5s6.5-1.3 8.7-3.5c3.6-3.6 4.1-9.8 4.1-16.2s-.5-12.6-4.1-16.2zm50 46.5c-13.3 0-26.3-8.1-26.3-30.3 0-22.1 13-30.1 26.3-30.1 8.1 0 13.9 2.3 19.4 8.3l-8.1 7.9c-3.7-4.1-6.6-5.6-11.3-5.6-4.5 0-8.4 1.9-10.9 5.2-2.6 3.3-3.5 7.5-3.5 14.3s.9 11.2 3.5 14.4c2.6 3.4 6.4 5.2 10.9 5.2 4.7 0 7.6-1.5 11.3-5.6l8.1 7.8c-5.5 6-11.2 8.5-19.4 8.5zm64.7-.7l-16.5-27.2-8.7 9.9v17.3h-11.9V10.6H217v51.1l23-27.2h14.4l-20.5 23.2 23 35.9h-14.6zm22.2 0V79.3h14.2v14.2h-14.2zm26.7-70.7V10.2h12.6v12.6h-12.6zm.3 70.7v-59h11.9v59h-11.9zm64.3-6.3c-3.8 4-9.7 7-17.7 7s-13.7-3-17.6-7c-5.6-5.8-7-13.3-7-23.3 0-9.9 1.4-17.3 7-23.2 3.8-4 9.5-7 17.6-7s13.9 3 17.7 7c5.6 5.8 7 13.3 7 23.2-.1 10-1.5 17.5-7 23.3zm-9-39.5c-2.2-2.2-5.2-3.4-8.7-3.4s-6.4 1.2-8.6 3.4c-3.6 3.6-4.1 9.8-4.1 16.2s.5 12.6 4.1 16.2c2.2 2.2 5.1 3.5 8.6 3.5s6.5-1.3 8.7-3.5c3.6-3.6 4.1-9.8 4.1-16.2s-.5-12.6-4.1-16.2z"/></svg>