<svg xmlns="http://www.w3.org/2000/svg" role="img" viewBox="-5.62 -5.62 278.98 107.23"><title>Blockchain Research Institute (Tapscott Group) (member) logo</title><defs><style>.cls-1{fill:#fff}.cls-2{fill:#8a8c8e}.cls-3{fill:#ec2027}.cls-4{fill:#feda00}.cls-5{fill:#1183c6}</style></defs><path d="M61.54 71.43a4.27 4.27 0 0 1-2.15-.57l-17.25-10a4.33 4.33 0 0 1-2.15-3.68V37.26a4.33 4.33 0 0 1 2.15-3.72l17.25-10a4.32 4.32 0 0 1 4.29 0l17.26 10a4.32 4.32 0 0 1 2.14 3.72v19.92a4.32 4.32 0 0 1-2.14 3.72l-17.26 10a4.23 4.23 0 0 1-2.14.53z" class="cls-1"/><path d="M61.54 23.6a3.69 3.69 0 0 1 1.85.49l17.25 10a3.68 3.68 0 0 1 1.85 3.2v19.92a3.68 3.68 0 0 1-1.85 3.2l-17.25 10a3.74 3.74 0 0 1-3.7 0l-17.26-10a3.69 3.69 0 0 1-1.84-3.2V37.26a3.69 3.69 0 0 1 1.84-3.2l17.26-10a3.69 3.69 0 0 1 1.85-.49m0-1.19a4.85 4.85 0 0 0-2.44.66l-17.26 10a4.91 4.91 0 0 0-2.44 4.23v19.92a4.91 4.91 0 0 0 2.44 4.23l17.26 10a4.84 4.84 0 0 0 4.88 0l17.25-10a4.89 4.89 0 0 0 2.44-4.23V37.26a4.89 4.89 0 0 0-2.44-4.23l-17.24-9.92a4.88 4.88 0 0 0-2.44-.66z" class="cls-2"/><path d="M42.43 40.23v17.49a1.42 1.42 0 0 0 .7 1.22l15.15 8.74a1.39 1.39 0 0 0 2.09-1.21V48.98a1.39 1.39 0 0 0-.69-1.21l-15.15-8.75a1.4 1.4 0 0 0-2.1 1.21z" class="cls-3"/><path d="M77.39 34.51l-15.14-8.76a1.4 1.4 0 0 0-1.4 0l-15.16 8.72a1.41 1.41 0 0 0 0 2.43l15.14 8.76a1.4 1.4 0 0 0 1.4 0l15.15-8.73a1.39 1.39 0 0 0 .01-2.42z" class="cls-4"/><path d="M62.7 66.47V48.98a1.4 1.4 0 0 1 .7-1.21l15.15-8.75a1.4 1.4 0 0 1 2.1 1.21v17.49a1.42 1.42 0 0 1-.7 1.22L64.8 67.68a1.4 1.4 0 0 1-2.1-1.21z" class="cls-5"/><path d="M31.49 61.45L49.3 51.16a.92.92 0 0 1 .43-.11c1.18 0 2.52 2.22 2.78 2.66.88 1.52 1.56 3.5.6 4.05L35.3 68.05z" class="cls-2"/><path d="M49.73 51.6c.52 0 1.49 1 2.3 2.39.9 1.55 1.25 3 .8 3.29l-17.33 10-3.26-5.64 17.33-10a.42.42 0 0 1 .16 0m0-1.11a1.45 1.45 0 0 0-.71.19l-17.33 10-1 .55.55 1 3.26 5.64.55 1 1-.55 17.33-10c1.66-.95.12-3.92-.39-4.81s-1.85-2.94-3.26-2.94z" class="cls-1"/><path d="M91.21 61.45L73.4 51.16a.93.93 0 0 0-.44-.11c-1.18 0-2.51 2.22-2.77 2.66-.88 1.52-1.56 3.5-.6 4.05L87.4 68.05z" class="cls-2"/><path d="M72.99 51.6a.38.38 0 0 1 .16 0l17.33 10-3.25 5.64-17.33-10c-.46-.26-.1-1.74.8-3.29.8-1.4 1.77-2.39 2.29-2.39m0-1.11c-1.4 0-2.74 2.06-3.25 2.94s-2.06 3.86-.4 4.81l17.33 10 1 .55.56-1 3.25-5.64.56-1-1-.55-17.33-10a1.49 1.49 0 0 0-.72-.19zM22.14 95.63a4.31 4.31 0 0 1-2.15-.58L2.74 85.11A4.31 4.31 0 0 1 .59 81.4V61.45a4.31 4.31 0 0 1 2.15-3.71l17.25-10a4.31 4.31 0 0 1 2.15-.58 4.24 4.24 0 0 1 2.14.58l17.26 10a4.3 4.3 0 0 1 2.14 3.71v19.93a4.3 4.3 0 0 1-2.14 3.73l-17.26 10a4.24 4.24 0 0 1-2.14.52z" class="cls-1"/><path d="M22.14 47.79a3.7 3.7 0 0 1 1.85.5l17.25 10a3.68 3.68 0 0 1 1.85 3.2v19.93a3.68 3.68 0 0 1-1.85 3.2l-17.25 9.92a3.67 3.67 0 0 1-3.7 0l-17.3-9.96a3.69 3.69 0 0 1-1.84-3.2V61.45a3.69 3.69 0 0 1 1.84-3.2l17.26-10a3.7 3.7 0 0 1 1.85-.5m0-1.18a5 5 0 0 0-2.44.65l-17.26 10a4.88 4.88 0 0 0-2.41 4.23v19.93a4.88 4.88 0 0 0 2.44 4.22l17.26 10a4.9 4.9 0 0 0 4.88 0l17.26-10a4.88 4.88 0 0 0 2.44-4.22V61.45a4.88 4.88 0 0 0-2.44-4.22l-17.26-10a5 5 0 0 0-2.44-.65z" class="cls-2"/><path d="M2.99 64.18v17.49a1.4 1.4 0 0 0 .7 1.21l15.15 8.75a1.4 1.4 0 0 0 2.1-1.21V72.93a1.42 1.42 0 0 0-.7-1.22L5.09 62.97a1.4 1.4 0 0 0-2.1 1.21z" class="cls-3"/><path d="M37.99 58.45l-15.14-8.76a1.4 1.4 0 0 0-1.4 0L6.29 58.42a1.4 1.4 0 0 0 0 2.42l15.14 8.77a1.4 1.4 0 0 0 1.4 0l15.16-8.73a1.4 1.4 0 0 0 0-2.43z" class="cls-4"/><path d="M23.3 90.42V72.93a1.42 1.42 0 0 1 .7-1.22l15.15-8.74a1.4 1.4 0 0 1 2.1 1.21v17.49a1.4 1.4 0 0 1-.7 1.21L25.4 91.63a1.4 1.4 0 0 1-2.1-1.21z" class="cls-5"/><path d="M100.73 95.63a4.28 4.28 0 0 1-2.15-.58l-17.25-10a4.31 4.31 0 0 1-2.15-3.71V61.45a4.31 4.31 0 0 1 2.15-3.71l17.25-10a4.26 4.26 0 0 1 4.29 0l17.26 10a4.3 4.3 0 0 1 2.14 3.71v19.93a4.3 4.3 0 0 1-2.14 3.71l-17.26 10a4.24 4.24 0 0 1-2.14.54z" class="cls-1"/><path d="M100.73 47.79a3.7 3.7 0 0 1 1.85.5l17.25 10a3.68 3.68 0 0 1 1.85 3.2v19.93a3.68 3.68 0 0 1-1.85 3.2l-17.25 10a3.67 3.67 0 0 1-3.7 0l-17.26-10a3.69 3.69 0 0 1-1.84-3.2V61.45a3.69 3.69 0 0 1 1.84-3.2l17.26-10a3.7 3.7 0 0 1 1.85-.5m0-1.18a5 5 0 0 0-2.44.65l-17.26 10a4.88 4.88 0 0 0-2.44 4.22v19.93a4.88 4.88 0 0 0 2.44 4.22l17.26 10a4.9 4.9 0 0 0 4.88 0l17.25-10a4.86 4.86 0 0 0 2.44-4.22V61.45a4.86 4.86 0 0 0-2.44-4.22l-17.25-10a5 5 0 0 0-2.44-.65z" class="cls-2"/><path d="M81.62 64.18v17.49a1.4 1.4 0 0 0 .7 1.21l15.15 8.75a1.39 1.39 0 0 0 2.09-1.21V72.93a1.41 1.41 0 0 0-.69-1.22l-15.15-8.74a1.4 1.4 0 0 0-2.1 1.21z" class="cls-3"/><path d="M116.58 58.45l-15.14-8.76a1.4 1.4 0 0 0-1.4 0l-15.16 8.73a1.4 1.4 0 0 0 0 2.42l15.11 8.77a1.4 1.4 0 0 0 1.4 0l15.15-8.73a1.4 1.4 0 0 0 .04-2.43z" class="cls-4"/><path d="M101.89 90.42V72.93a1.42 1.42 0 0 1 .7-1.22l15.15-8.74a1.4 1.4 0 0 1 2.1 1.21v17.49a1.4 1.4 0 0 1-.7 1.21l-15.15 8.75a1.4 1.4 0 0 1-2.1-1.21z" class="cls-5"/><path d="M22.14 61.82c-1.91 0-3.83-.49-3.83-1.6V37.75h7.68v22.47c0 1.11-1.94 1.6-3.85 1.6z" class="cls-2"/><path d="M25.42 38.3v21.92c0 .58-1.47 1-3.28 1s-3.28-.47-3.28-1V38.3h6.56m1.11-1.11h-8.78v23c0 1.59 2.27 2.16 4.39 2.16s4.39-.57 4.39-2.16v-23z" class="cls-1"/><path d="M22.14 49.02a4.4 4.4 0 0 1-2.15-.57l-17.25-10a4.3 4.3 0 0 1-2.15-3.71v-19.9a4.31 4.31 0 0 1 2.15-3.73l17.25-10a4.31 4.31 0 0 1 2.15-.58 4.24 4.24 0 0 1 2.14.58l17.26 10a4.3 4.3 0 0 1 2.14 3.71v19.93a4.3 4.3 0 0 1-2.14 3.71l-17.26 10a4.34 4.34 0 0 1-2.14.56z" class="cls-1"/><path d="M22.14 1.18a3.7 3.7 0 0 1 1.85.5l17.25 10a3.68 3.68 0 0 1 1.85 3.2v19.93a3.68 3.68 0 0 1-1.85 3.2l-17.25 9.92a3.67 3.67 0 0 1-3.7 0l-17.3-9.96a3.69 3.69 0 0 1-1.84-3.2V14.84a3.69 3.69 0 0 1 1.84-3.2l17.26-10a3.7 3.7 0 0 1 1.85-.5m0-1.18a5 5 0 0 0-2.44.65l-17.26 10a4.88 4.88 0 0 0-2.41 4.23v19.93a4.88 4.88 0 0 0 2.44 4.22l17.26 10a4.9 4.9 0 0 0 4.88 0l17.26-10a4.88 4.88 0 0 0 2.44-4.22V14.84a4.88 4.88 0 0 0-2.44-4.22L24.57.62a5 5 0 0 0-2.44-.65z" class="cls-2"/><path d="M2.99 17.57v17.54a1.4 1.4 0 0 0 .7 1.21l15.15 8.75a1.4 1.4 0 0 0 2.15-1.26V26.32a1.42 1.42 0 0 0-.7-1.22L5.14 16.36a1.4 1.4 0 0 0-2.15 1.21z" class="cls-3"/><path d="M37.99 11.84L22.85 3.11a1.4 1.4 0 0 0-1.4 0l-15.16 8.7a1.4 1.4 0 0 0 0 2.42L21.43 23a1.4 1.4 0 0 0 1.4 0l15.16-8.73a1.4 1.4 0 0 0 0-2.43z" class="cls-4"/><path d="M23.3 43.81V26.32a1.42 1.42 0 0 1 .69-1.21l15.15-8.74a1.4 1.4 0 0 1 2.1 1.21v17.53a1.4 1.4 0 0 1-.7 1.21l-15.15 8.75a1.4 1.4 0 0 1-2.09-1.26z" class="cls-5"/><path d="M145.12 19.49h5.45a4.25 4.25 0 0 1 3.12 1.07 3.84 3.84 0 0 1 1.05 2.82 3.33 3.33 0 0 1-.41 1.71 2.72 2.72 0 0 1-.64.74 4.62 4.62 0 0 1-1 .67 2.82 2.82 0 0 1 1.74 1.25 4.12 4.12 0 0 1 .55 2.1 4 4 0 0 1-1.14 3 3.7 3.7 0 0 1-2.77 1.14h-5.93zm2.13 2v4.17h3.08a2.17 2.17 0 0 0 1.72-.63 2 2 0 0 0 .56-1.46 2.14 2.14 0 0 0-.56-1.49 2.35 2.35 0 0 0-1.72-.59zm0 6.13v4.37h3.29a2.18 2.18 0 0 0 1.74-.67 2.22 2.22 0 0 0 .55-1.52 2.06 2.06 0 0 0-2.29-2.18zm11.38-8.13h2.13v12.45h6.86v2.07h-9zm11.93 7.26a26.81 26.81 0 0 1 .14-3.4 4 4 0 0 1 .48-1.38 4.84 4.84 0 0 1 1.64-1.79 4.7 4.7 0 0 1 2.77-.81 4.8 4.8 0 0 1 4.39 2.61 3.35 3.35 0 0 1 .5 1.38 47.66 47.66 0 0 1 0 6.76 3.39 3.39 0 0 1-.5 1.4 4.69 4.69 0 0 1-1.6 1.78 4.85 4.85 0 0 1-2.79.83 5 5 0 0 1-4.41-2.61c-.11-.22-.2-.43-.28-.63a4.46 4.46 0 0 1-.2-.77 26.67 26.67 0 0 1-.14-3.37zm2.13 0a18.19 18.19 0 0 0 .15 2.91 2.8 2.8 0 0 0 1.44 1.95 2.49 2.49 0 0 0 1.3.33 2.6 2.6 0 0 0 1.33-.33 2.41 2.41 0 0 0 .85-.73 2.72 2.72 0 0 0 .57-1.22 20 20 0 0 0 .14-2.91 20.39 20.39 0 0 0-.14-2.93 3 3 0 0 0-1.42-2 2.93 2.93 0 0 0-1.33-.31 2.7 2.7 0 0 0-2.18 1.05 2.47 2.47 0 0 0-.56 1.21 18.58 18.58 0 0 0-.15 2.98zm21.35 3.2a5.48 5.48 0 0 1-1.77 3.11 4.89 4.89 0 0 1-3.18 1.05 4.81 4.81 0 0 1-2.77-.83 4.91 4.91 0 0 1-1.64-1.78l-.28-.63a4.55 4.55 0 0 1-.19-.77 40.87 40.87 0 0 1 0-6.76 4 4 0 0 1 .47-1.38 5.13 5.13 0 0 1 1.64-1.8 4.76 4.76 0 0 1 2.78-.81 4.67 4.67 0 0 1 3.32 1.24 5.58 5.58 0 0 1 1.62 3.05h-2.26a3.32 3.32 0 0 0-.95-1.49 2.69 2.69 0 0 0-1.74-.61 2.74 2.74 0 0 0-1.3.31 2.84 2.84 0 0 0-.89.74 2.55 2.55 0 0 0-.55 1.21 18.58 18.58 0 0 0-.15 2.93 18.19 18.19 0 0 0 .15 2.91 2.5 2.5 0 0 0 .55 1.22 2.55 2.55 0 0 0 .89.73 2.46 2.46 0 0 0 1.3.33 2.87 2.87 0 0 0 2.69-2zm2.95-10.46h2.13v7.48l5.79-7.48h2.53l-4.45 5.72 5 8.8h-2.6l-3.83-7.1-2.47 2.68v4.42h-2.1zm23.37 10.46a5.41 5.41 0 0 1-1.76 3.11 4.93 4.93 0 0 1-3.18 1.07 4.79 4.79 0 0 1-2.77-.83 4.91 4.91 0 0 1-1.64-1.78c-.1-.22-.2-.43-.28-.63a3.76 3.76 0 0 1-.19-.77 38.16 38.16 0 0 1 0-6.76 4 4 0 0 1 .47-1.38 5 5 0 0 1 1.64-1.8 4.73 4.73 0 0 1 2.77-.81 4.64 4.64 0 0 1 3.32 1.24 5.45 5.45 0 0 1 1.62 3.05h-2.26a3.16 3.16 0 0 0-.95-1.49 2.65 2.65 0 0 0-1.74-.61 2.73 2.73 0 0 0-1.29.31 2.84 2.84 0 0 0-.89.74 2.46 2.46 0 0 0-.55 1.21 18.21 18.21 0 0 0-.16 2.93 17.82 17.82 0 0 0 .16 2.91 2.42 2.42 0 0 0 .55 1.22 2.47 2.47 0 0 0 .89.73 2.44 2.44 0 0 0 1.3.33 2.86 2.86 0 0 0 2.68-2zm10.63-2.28h-5.59v6.34h-2.13V19.49h2.13v6.22h5.59v-6.22h2.13v14.52h-2.13zm13.79 3.09h-5.34l-1.08 3.25h-2.26l5.12-14.52h1.77l5.12 14.52h-2.25zm-.61-2l-2-6.35-2 6.35zm6.91-9.27h2.13v14.52h-2.13zm6.32 0h2l6.37 10.32V19.49h2.22v14.52h-2l-6.36-10.32v10.32h-2.13z" class="cls-2"/><path d="M145.13 41.11h5.5a4.28 4.28 0 0 1 2.87 1 3.94 3.94 0 0 1 1.39 3.1 4 4 0 0 1-2.72 4l3.26 6.45h-2.53l-2.91-6.25h-2.73v6.21h-2.13zm2.13 6.37h3.23a2.24 2.24 0 0 0 2.39-2.32 2 2 0 0 0-.71-1.65 2.38 2.38 0 0 0-1.56-.45h-3.35zm14.6-6.37h9v2.07h-6.87v4.16h5.86v1.95h-5.86v4.27h6.86v2.08h-9zm15.81 11a6 6 0 0 0 4 1.44c1.83 0 2.75-.7 2.78-2 0-1.08-.6-1.74-1.83-2l-1.87-.26a4.56 4.56 0 0 1-2.76-1.38 3.94 3.94 0 0 1-1-2.69 4.05 4.05 0 0 1 1.22-3.08 4.67 4.67 0 0 1 3.37-1.17 7.73 7.73 0 0 1 4.56 1.5l-1.15 1.81a6.34 6.34 0 0 0-3.49-1.12 2.61 2.61 0 0 0-1.64.51 1.89 1.89 0 0 0-.7 1.57 1.66 1.66 0 0 0 .47 1.14 2.65 2.65 0 0 0 1.52.72l1.58.23a4.3 4.3 0 0 1 2.92 1.46 4.2 4.2 0 0 1 .94 2.72q-.1 4.17-4.94 4.23a7.86 7.86 0 0 1-5.37-2zm15.82-11h9v2.07h-6.86v4.16h5.85v1.95h-5.85v4.27h6.86v2.08h-9zm22.85 11.26h-5.35l-1.08 3.25h-2.26l5.13-14.51h1.78l5.12 14.53h-2.25zm-.61-1.95l-2-6.36-2 6.36zm10.13-9.31h5.5a4.25 4.25 0 0 1 2.86 1 3.91 3.91 0 0 1 1.4 3.1 4 4 0 0 1-2.72 4l3.26 6.45h-2.53l-2.91-6.21h-2.73v6.21h-2.13zm2.13 6.37h3.23a2.24 2.24 0 0 0 2.39-2.32 2 2 0 0 0-.71-1.65 2.38 2.38 0 0 0-1.56-.45h-3.35zm24.09 4.08a5.49 5.49 0 0 1-1.77 3.1 5.1 5.1 0 0 1-5.94.24 4.75 4.75 0 0 1-1.64-1.78 6.64 6.64 0 0 1-.28-.62 4.86 4.86 0 0 1-.2-.78 26.56 26.56 0 0 1-.14-3.37 24.16 24.16 0 0 1 .15-3.39 4 4 0 0 1 .47-1.38 5 5 0 0 1 1.64-1.8 5.1 5.1 0 0 1 6.09.43 5.51 5.51 0 0 1 1.62 3.06h-2.26a3.22 3.22 0 0 0-.95-1.5 2.75 2.75 0 0 0-1.74-.61 2.86 2.86 0 0 0-1.29.31 2.64 2.64 0 0 0-.89.75 2.38 2.38 0 0 0-.55 1.21 26.63 26.63 0 0 0 0 5.83 2.49 2.49 0 0 0 .55 1.23 2.36 2.36 0 0 0 .89.72 2.43 2.43 0 0 0 1.29.33 2.87 2.87 0 0 0 2.69-2zm13.91-2.29h-5.58v6.35h-2.14V41.11h2.14v6.23h5.58v-6.23h2.13v14.53h-2.13z" class="cls-5"/><path d="M145.14 62.21h2.13v14.53h-2.13zm9.54 0h2l6.37 10.32V62.21h2.13v14.53h-2l-6.37-10.33v10.33h-2.13zm18.42 11.01a6.06 6.06 0 0 0 4 1.44c1.83 0 2.76-.7 2.78-2 0-1.08-.59-1.74-1.83-2l-1.86-.27a4.5 4.5 0 0 1-2.76-1.38 3.94 3.94 0 0 1-1-2.69 4.06 4.06 0 0 1 1.23-3.08 4.66 4.66 0 0 1 3.36-1.17 7.73 7.73 0 0 1 4.56 1.5l-1.19 1.81a6.29 6.29 0 0 0-3.48-1.12 2.57 2.57 0 0 0-1.64.51 1.88 1.88 0 0 0-.71 1.57 1.66 1.66 0 0 0 .47 1.14 2.74 2.74 0 0 0 1.52.72l1.58.23a4.32 4.32 0 0 1 2.93 1.46 4.25 4.25 0 0 1 .93 2.72c-.07 2.78-1.71 4.18-4.93 4.22a7.82 7.82 0 0 1-5.37-2zm18.21-9.06h-3.85v-2h9.84v2h-3.85v12.58h-2.14zm12.1-1.95h2.13v14.53h-2.13zm11.94 1.95h-3.86v-2h9.85v2h-3.86v12.58h-2.13zm11.84-1.95h2.13v9.37a3.06 3.06 0 0 0 .83 2.27 2.73 2.73 0 0 0 2 .81 2.8 2.8 0 0 0 2.06-.81 3.09 3.09 0 0 0 .81-2.27v-9.37h2.13v9.6a5 5 0 0 1-8.53 3.64 4.74 4.74 0 0 1-1.47-3.63zm19.8 1.95h-3.86v-2h9.86v2h-3.86v12.58h-2.14zm12.09-1.95h9v2.07h-6.86v4.16h5.86v1.95h-5.86v4.27h6.86v2.08h-9z" class="cls-2"/></svg>