<svg xmlns="http://www.w3.org/2000/svg" role="img" viewBox="-8.73 -8.48 441.22 79.72"><title>BondbloX logo</title><defs><style>.cls-2{fill:#0d7aff}</style></defs><path fill="#050505" d="M0 .07h28.83C39.44-.1 51.09 2.66 51.09 15.52c0 5.52-3.28 10-8.11 12.42 6.56 1.9 10.61 7.6 10.61 14.59 0 14.67-10.78 19.15-24 19.15H-.01zm16 24.25h12.43c2.76 0 6.56-1.47 6.56-5.87s-3.19-5.95-6.56-5.95H16.05zm0 24.51h12.95c5.09 0 8.63-1.82 8.63-6.91 0-5.43-3.8-7.25-8.63-7.25h-12.9zM78.62 15.6c13.89 0 23.64 10.27 23.64 23.73s-9.75 23.65-23.64 23.65S55.06 52.8 55.06 39.33 64.73 15.6 78.62 15.6zm0 36.16c6.82 0 9-6.73 9-12.43s-2.15-12.51-9-12.51-8.89 6.82-8.89 12.51 2.07 12.43 8.89 12.43zm27.87-34.86h14.24v6.12h.22c2.68-4.57 8.72-7.42 14.07-7.42 14.93 0 16.14 10.88 16.14 17.35v28.73h-14.72V40.02c0-6.12.69-12.34-7.34-12.34-5.52 0-7.94 4.66-7.94 9.58v24.42h-14.67zm93.72 44.78h-14v-5.17h-.17a14.31 14.31 0 0 1-12.34 6.47c-14.07 0-20-12.08-20-24.68 0-11.65 6.21-22.7 18.9-22.7 5.52 0 9.75 2.07 12.77 6.13h.17V.07h14.67zm-31.84-22.86c0 6.12 2.24 12.94 9 12.94 7.16 0 8.72-6.82 8.72-12.51 0-6.47-2.33-12.43-8.72-12.43-6.76 0-9 6.3-9 12z"/><path d="M206.34.07h14.67v21.75h.17c3-4.15 7.25-6.22 12.77-6.22 12.69 0 18.9 11.05 18.9 22.7 0 12.6-5.95 24.68-20 24.68a14.31 14.31 0 0 1-12.34-6.47h-.17v5.17h-14zm14.15 38.75c0 7.85 2.24 12.94 8.89 12.94s8.8-6.82 8.8-12.94c0-5.7-2.24-12-8.71-12-3.97 0-8.98 2.76-8.98 12zM257.34.07h14.67v61.61h-14.67zm42.11 15.53c13.89 0 23.65 10.27 23.65 23.73s-9.76 23.65-23.65 23.65-23.56-10.18-23.56-23.65 9.67-23.73 23.56-23.73zm0 36.16c6.82 0 9-6.73 9-12.43s-2.16-12.51-9-12.51-8.89 6.82-8.89 12.51 2.07 12.43 8.89 12.43z" class="cls-2"/><path d="M412.57 20.33H418v3.85h-5.43zM389.63.01h5.43v3.86h-5.43zm30.53 29.3h4.08v2.39h-4.08zm-24.14 29.76h4.08v2.38h-4.08zm-9.96-1.9h1.41v.97h-1.41zm-1.84-12.51h1.41v.97h-1.41zm-11.61-16.23h1.41v.98h-1.41zm11.04-6.63h1.41v.97h-1.41zm20.32-4.06h1.41v.97h-1.41zm6.89-3.72h1.41v.97h-1.41zm6.44 24.39h1.41v.97h-1.41zm-11.9 5.92h1.16v.81h-1.16zm-6.07-18.86h4.08v2.38h-4.08zm4.02-19.23h4.08v2.39h-4.08zM382.88 9.5h4.08v2.39h-4.08zm26.18 22.73h2.5v2.5h-2.5zm-19.4 17.49h2.5v2.5h-2.5zm-1.23-22.48h2.5v2.5h-2.5zm-12.3-9.85h2.5v2.5h-2.5zm17.71-2.47h2.5v2.5h-2.5zm.03 22.45h5.45v3.84h-5.45zm-17.48-1.92h5.45v3.84h-5.45zm26.27 14.43h5.45v3.84h-5.45z" class="cls-2"/><path d="M379.11 53.79v2h-5.44v-3.84h4.09l-15.81-21.49 4.43-6.26h-2.09v-3.85h4.82L383.51 0h-18.82l-13.25 19.21-13-19.21h-19l21.61 30.68-23.58 32h19.82l14.15-20.43 14.25 20.43h19.88zm-5.79-51.11h4.08v2.37h-4.08zm-10.23 5.58h2.49v2.51h-2.49zm-10.34 21.87h-2.51v-2.45h2.51zm6.88 7.73h-1.38v-1h1.38zm0-19.95h-1.43v-1h1.43zm5.43 34h-1.44v-1h1.44zm-.75-5.95v-2.4h4.1v2.4zm5.35 14.22h-2.49v-2.5h2.49zm9.33-.35v-1h1.42v1z" class="cls-2"/></svg>