<svg xmlns="http://www.w3.org/2000/svg" role="img" viewBox="-0.38 -0.38 26.00 16.25"><title>BSI PAS 19668 logo</title><path d="M5.07155 4.91026c-1.004 0-1.96779.32138-2.69063.78317V.13153H.13232v15.05903h1.32503l.3616-.80293c.88335.64241 1.90746 1.04387 3.2526 1.04387 2.93159 0 4.01567-1.96779 4.01567-5.26062 0-3.27272-1.08408-5.26062-4.01567-5.26062m-.5221 1.90747c1.96779 0 2.26906 1.50601 2.26906 3.35315 0 1.86725-.30127 3.35315-2.26907 3.35315-1.06398 0-1.7667-.36159-2.16852-.58243V7.40017c.40181-.22084 1.10454-.58244 2.16852-.58244m7.38294 1.22484c0-.90346.74295-1.24495 1.92757-1.24495 1.26506 0 2.20874.24095 3.072.56233V5.41226c-.78317-.34113-1.74696-.502-3.11221-.502-2.9517 0-4.076 1.46579-4.076 3.19264 0 1.72649.74295 2.67053 3.77472 2.93123 1.34515.12065 1.66653.502 1.66653 1.24495 0 .88336-.78317 1.24495-2.38937 1.24495-1.2647 0-2.32904-.32138-2.99155-.56232v1.92757c.68262.28117 1.92758.54222 3.31293.54222 3.21275 0 4.27673-1.506 4.27673-3.2325 0-1.8676-.78317-2.77107-3.79483-3.03212-1.30528-.1203-1.66652-.42157-1.66652-1.12431m9.02723 7.28839c.24094 0 .44167-.0399.44167-.0399v-1.82735c-.6424 0-.84314-.20073-.84314-.76306V5.15121H18.3092v7.56955c0 1.72685.82338 2.6102 2.65042 2.6102M17.9677 2.17976c0 .80292.66287 1.46544 1.46614 1.46544.80292 0 1.46544-.66252 1.46544-1.46544 0-.80327-.66252-1.46614-1.46544-1.46614-.80327 0-1.46614.66287-1.46614 1.46614"/><path fill="#e42313" d="M22.19828 13.96571c0 .80327.66252 1.46579 1.4658 1.46579.80291 0 1.46543-.66252 1.46543-1.46579s-.66252-1.46579-1.46544-1.46579c-.80327 0-1.46579.66252-1.46579 1.46579"/></svg>