<svg xmlns="http://www.w3.org/2000/svg" role="img" viewBox="107.50 107.50 3120.00 2142.50"><title>Chainkit logo</title><g transform="translate(168.54 168.54) scale(16.85393)"><rect xmlns="http://www.w3.org/2000/svg" width="178" height="120" rx="10" ry="10" fill="#2e8ad0"/><path d="M31.46593 71.10583h4.61538v9.95192q0 4.11058-1.91106 6.52644t-6.02163 2.41587-6.12981-2.48798-2.01923-6.59856V53.22121q0-4.11058 2.01923-6.67068t6.1298-2.5601 5.94953 2.52404 1.83894 6.63462v9.66346h-4.47115v-9.73557q0-3.96635-3.31731-3.96635-1.65866 0-2.48798 1.08173t-.82933 2.95673v27.76443q0 4.03846 3.3173 4.03846t3.31732-3.96634v-9.87981zm21.0577 18.2452V52.50004q0-1.94711-.64905-2.77644t-2.23557-.82933q-1.08173 0-2.16347.64904t-1.65865 2.09135v37.71635h-4.97596V30.00005h4.97596v17.23558q1.00962-1.44231 2.52404-2.34375t3.38942-.90144q3.02885 0 4.39904 1.94711t1.3702 6.27404v37.13943h-4.97597zm21.1298 0q-.28846-.9375-.28846-2.66828-1.80288 3.31731-5.33654 3.31731-3.02884 0-4.72355-1.65865t-1.69472-5.40866v-6.5625q0-3.2452.90145-5.44471t2.45192-3.71395 3.64183-2.5601 4.47115-2.05528v-9.73558q0-1.875-.6851-2.88462t-2.5601-1.00961q-1.9471 0-2.59615 1.00961t-.64903 2.88462v9.375h-4.39904v-9.44712q0-4.39904 1.83894-6.59856t5.94952-2.19951q7.86058 0 7.86058 8.79807v31.44232q0 1.58654.07211 2.95673t.28847 2.16346h-4.54327zm-.57692-22.78847q-2.16346.79326-3.4976 1.73076t-2.01923 2.1274-.90144 2.7404-.21635 3.5697v4.75962q0 3.67789 3.38943 3.67789 1.08173 0 1.98317-.64904t1.26202-2.16346V66.56256zm10.16827-27.54809v-9.01442h4.97597v9.01442h-4.97597zm0 50.33655V44.7116h4.97597v44.63943h-4.97597zm22.13943 0V52.50005q0-1.94711-.64904-2.77644t-2.23557-.82933q-1.08174 0-2.16347.64904t-1.65865 2.09135v37.71635h-4.97596V44.7116h4.18269q.21635 1.65865.21635 3.38942 1.00961-1.875 2.66827-2.99279t3.75-1.11778q3.02884 0 4.4351 1.94711t1.40624 6.27404v37.13943h-4.97596zm23.00481 0l-8.07692-22.9327v22.9327h-4.83173V30.00005h4.83173V63.9664l8.07692-19.25481h5.26443l-8.72597 19.75962 8.94231 24.87981h-5.48077zm8.8702-50.33655v-9.01442h4.97596v9.01442h-4.97596zm0 50.33655V44.7116h4.97596v44.63943h-4.97596zm20.76923.28846q-.36057.14423-1.04567.2524t-1.26202.10818q-3.96635 0-5.91346-2.45192t-1.94712-6.77885V49.11063h-2.09135v-4.39904h2.09135V30.57697h4.97596V44.7116h5.04808v4.39904h-5.04808v31.65866q0 2.74038.97356 3.85817t3.28125 1.1178h.46875l.46875-.07212v3.96634z" fill="#282416"/></g></svg>