<svg xmlns="http://www.w3.org/2000/svg" role="img" viewBox="-3.31 -5.81 406.38 256.38"><title>Chamber of Digital Commerce logo</title><style>svg {enable-background:new 0 0 400 245}</style><style>.st1{fill:#19355d}.st2{fill:#1269a8}.st3{fill:#4aafd9}</style><path fill="#1c1d18" d="M133.7 24.8h2.8v.9c0 3.3-.6 5.4-1.7 6.3-1.1.8-4 1.3-8.6 1.3-4.1 0-6.7-.7-7.8-2.2-1.1-1.5-1.7-4.9-1.7-10.4 0-4.3.1-6.9.4-8s1-2.1 2.2-2.9c1.4-1 4.4-1.5 9-1.5 3.1 0 5.2.5 6.3 1.5 1.1 1 1.6 2.8 1.6 5.6v.7h-2.8v-.8c0-2-.3-3.2-1-3.8-.6-.6-2.1-.8-4.3-.8-4 0-6.4.3-7.2 1-.9.7-1.3 2.5-1.3 5.5 0 6.9.3 10.9.9 12.1s2.6 1.8 6 1.8c3.3 0 5.3-.3 6.1-.8.8-.5 1.2-1.8 1.2-3.9l-.1-1.6zm33.1-16.4V33H164V21.6h-14.4V33h-2.8V8.4h2.8v10.8H164V8.4h2.8zm27.1 19.4h-12.4l-1.9 5.2h-2.9l9-24.6h3.9l9.2 24.6h-2.9l-2-5.2zm-.8-2.1l-5.5-15-5.4 15h10.9zm42.5-17.3V33h-2.8V10.4h-.1l-.2.6c-.1.3-.2.5-.2.6l-.5 1.2-8.3 20.2h-2.8l-8.4-20.1-.5-1.1-.2-.6c-.1-.1-.1-.3-.2-.6h-.1V33h-2.8V8.4h4.8l6.5 15.9 1 2.6.5 1.3.5 1.3h.1l.5-1.3c.3-.6.4-1 .5-1.3l1.1-2.6 6.5-15.9h5.1zm12 24.6V8.4h10.9c3 0 5 .4 5.9 1.2.9.8 1.4 2.6 1.4 5.3 0 2.7-1 4.4-3.1 5.2v.1c2.6.6 3.9 2.5 3.9 5.8 0 2.6-.5 4.4-1.5 5.5-1 1.1-2.8 1.6-5.4 1.6h-12.1zm2.8-13.8h7.3c2.3 0 3.8-.3 4.5-.8.7-.6 1-1.8 1-3.7 0-1.7-.3-2.7-.9-3.2-.6-.5-1.9-.7-3.8-.7h-8v8.4zm0 11.4h8.4c2.1 0 3.5-.3 4.1-.8.7-.5 1-1.7 1-3.5 0-2.2-.3-3.5-1-4s-2.5-.7-5.4-.7h-7.1v9zm29.1-19.8v8.4H292v2.3h-12.5v9.2h13V33h-15.8V8.4h15.8v2.3h-13zM303.4 33V8.4h11.7c2.6 0 4.5.5 5.6 1.6s1.6 2.9 1.6 5.4c0 2.3-.3 3.8-.9 4.7-.6.9-1.7 1.5-3.4 1.7v.2c2.6.2 3.9 1.8 3.9 4.7V33h-2.8v-5.6c0-2.9-1.2-4.3-3.7-4.3h-9.3V33h-2.7zm2.8-12.3h8c2.1 0 3.5-.3 4.3-1 .8-.6 1.2-1.9 1.2-3.6 0-2.2-.3-3.7-.9-4.3-.6-.7-1.8-1-3.7-1h-9v9.9zm53.1-12.5c4.6 0 7.5.7 8.7 2 1.2 1.4 1.7 4.7 1.7 10.2 0 5.8-.6 9.4-1.7 10.8-1.1 1.4-4 2.1-8.8 2.1-4.7 0-7.6-.7-8.8-2-1.1-1.4-1.7-4.9-1.7-10.5v-4.1c0-3.3.7-5.5 2.2-6.7 1.6-1.2 4.4-1.8 8.4-1.8zm0 2.3c-3.9 0-6.2.4-6.8 1.3-.7.9-1 3.8-1 8.9 0 5.1.3 8 1 8.9s2.9 1.3 6.8 1.3 6.2-.4 6.8-1.3 1-3.8 1-8.9v-3.9c0-2.7-.5-4.4-1.4-5.2s-3-1.1-6.4-1.1zm23.7.3v8.6h12v2.3h-12V33h-2.8V8.4h15.1v2.3H383zM118.3 86.7v-35h17.2c4.9 0 8.3 1.1 10.3 3.2s2.9 5.9 2.9 11.2c0 8.7-.8 14.3-2.4 16.8-1.6 2.5-5.1 3.7-10.6 3.7h-17.4zm6.7-5.6h9.5c3.2 0 5.2-.7 6.2-2.2.9-1.5 1.4-4.7 1.4-9.7 0-5.2-.4-8.4-1.3-9.8-.8-1.4-2.8-2.1-5.9-2.1H125v23.8zm51-29.4v35h-6.6v-35h6.6zm35.7 16.4h15.4l.1 7c0 5.1-1 8.3-2.9 9.8s-6.2 2.2-12.8 2.2c-6.1 0-10.1-1-12-2.9-2-1.9-2.9-5.9-2.9-11.9 0-7.7.4-12.5 1.2-14.5 1-2.5 2.5-4.1 4.4-5 2-.9 5.4-1.3 10.1-1.3 6.2 0 10.2.7 12.1 2 1.8 1.3 2.7 4.3 2.7 8.8h-6.7c-.1-2.3-.6-3.7-1.5-4.3-.9-.6-3.1-.8-6.6-.8-3.8 0-6.3.5-7.3 1.4-1 1-1.5 3.2-1.5 6.7v8c0 3.5.5 5.7 1.5 6.6 1 .9 3.4 1.4 7.1 1.4 3.6 0 5.9-.4 6.9-1.2 1-.8 1.5-2.7 1.5-5.7V73h-8.8v-4.9zm42.6-16.4v35h-6.6v-35h6.6zm35.9 5.9v29.1h-6.6V57.6h-10.1v-6h27.2v6h-10.5zM341 80h-15.1l-2.2 6.7h-7l11.6-35h10l11.8 35h-6.9L341 80zm-1.6-4.9l-6.1-18.2-5.9 18.2h12zm36.1-23.4v29.1h16.4v6h-23.1v-35h6.7zM133.7 123h2.8v.9c0 3.3-.6 5.4-1.7 6.3-1.1.8-4 1.3-8.6 1.3-4.1 0-6.7-.7-7.8-2.2-1.1-1.5-1.7-4.9-1.7-10.4 0-4.3.1-6.9.4-8s1-2.1 2.2-2.9c1.4-1 4.4-1.5 9-1.5 3.1 0 5.2.5 6.3 1.5 1.1 1 1.6 2.8 1.6 5.6v.7h-2.8v-.8c0-2-.3-3.2-1-3.8-.6-.6-2.1-.8-4.3-.8-4 0-6.4.3-7.2 1-.9.7-1.3 2.5-1.3 5.5 0 6.9.3 10.9.9 12.1.6 1.2 2.6 1.8 6 1.8 3.3 0 5.3-.3 6.1-.8.8-.5 1.2-1.8 1.2-3.9l-.1-1.6zm27-16.6c4.6 0 7.5.7 8.7 2 1.2 1.4 1.7 4.7 1.7 10.2 0 5.8-.6 9.4-1.7 10.8-1.1 1.4-4 2.1-8.8 2.1-4.7 0-7.6-.7-8.8-2-1.1-1.4-1.7-4.9-1.7-10.5v-4c0-3.3.7-5.5 2.2-6.7 1.6-1.3 4.4-1.9 8.4-1.9zm0 2.4c-3.9 0-6.2.4-6.8 1.3-.7.9-1 3.8-1 8.9 0 5.1.3 8 1 8.9.7.9 2.9 1.3 6.8 1.3s6.2-.4 6.8-1.3c.7-.9 1-3.8 1-8.9v-3.9c0-2.7-.5-4.4-1.4-5.2-.9-.8-3-1.1-6.4-1.1zm52.7-2.1v24.6h-2.8v-22.5h-.1l-.2.6c-.1.3-.2.5-.2.6l-.5 1.2-8.4 20.3h-2.8l-8.4-20.1-.5-1.1-.2-.6c-.1-.1-.1-.3-.2-.6h-.1v22.3h-2.8v-24.6h4.8l6.5 15.9 1 2.6.5 1.3.5 1.3h.1l.5-1.3c.3-.6.4-1 .5-1.3l1.1-2.6 6.5-15.9h5.2zm43.8 0v24.6h-2.8v-22.5h-.1l-.2.6c-.1.3-.2.5-.2.6l-.5 1.2-8.4 20.3h-2.8l-8.4-20.1-.5-1.1-.2-.6c-.1-.1-.1-.3-.2-.6h.1v22.3h-2.8v-24.6h4.8l6.5 15.9 1 2.6.5 1.3.5 1.3h.1l.5-1.3c.3-.6.4-1 .5-1.3l1.1-2.6 6.5-15.9h5zm18.6 2.3v8.4h12.5v2.3h-12.5v9.2h13v2.3H273v-24.6h15.8v2.3h-13zm28.7 22.2v-24.6h11.7c2.6 0 4.5.5 5.6 1.6s1.6 2.9 1.6 5.4c0 2.3-.3 3.8-.9 4.7-.6.9-1.7 1.5-3.4 1.7v.1c2.6.2 3.9 1.8 3.9 4.7v6.3h-2.8v-5.6c0-2.9-1.2-4.3-3.7-4.3h-9.3v9.9h-2.7zm2.8-12.2h8c2.1 0 3.5-.3 4.3-1 .8-.6 1.2-1.9 1.2-3.6 0-2.2-.3-3.7-.9-4.3-.6-.7-1.8-1-3.7-1h-9v9.9zm48.4 4h2.8v.9c0 3.3-.6 5.4-1.7 6.3-1.1.8-4 1.3-8.6 1.3-4.1 0-6.7-.7-7.8-2.2-1.1-1.5-1.7-4.9-1.7-10.4 0-4.3.1-6.9.4-8 .3-1.1 1-2.1 2.2-2.9 1.4-1 4.4-1.5 9-1.5 3.1 0 5.2.5 6.3 1.5 1.1 1 1.6 2.8 1.6 5.6v.7h-2.8v-.8c0-2-.3-3.2-1-3.8-.6-.6-2.1-.8-4.3-.8-4 0-6.4.3-7.2 1s-1.3 2.5-1.3 5.5c0 6.9.3 10.9.9 12.1.6 1.2 2.6 1.8 6 1.8 3.3 0 5.3-.3 6.1-.8.8-.5 1.2-1.8 1.2-3.9l-.1-1.6zm19.8-14v8.4H388v2.3h-12.5v9.2h13v2.3h-15.8v-24.6h15.8v2.3h-13z"/><path d="M216.6 243h43.6l-19.9-25.1h-35.9zm-42.2 0l-6.6-25.1h-35.7l-1.5 25.1zm-87.7 0l9.4-25.1H59.8L42 243z" class="st1"/><path d="M192.9 199.7h30.2l-13.8-13.5h-24.9zm-29.3 0l-4.6-13.5h-24.8l-1 13.5zm-60.8 0l6.5-13.5H84.1l-12.4 13.5z" class="st2"/><path d="M181.5 176.7h22.6l-10.3-8.3h-18.7zm-22 0l-3.4-8.3h-18.6l-.8 8.3zm-45.5 0l4.8-8.3H100l-9.3 8.3z" class="st3"/><path d="M4.7 176.7v43.5l25.1-19.9v-35.9zm0-42.2l25.1-6.7V92.1L4.7 90.6zm0-87.7l25.1 9.3V19.8L4.7 2z" class="st1"/><path d="M47.9 152.9v30.2l13.6-13.8v-24.9zm0-29.3l13.6-4.6V94.3l-13.6-1.1zm0-60.8l13.6 6.5V44.1L47.9 31.8z" class="st2"/><path d="M71 141.5v22.6l8.2-10.3v-18.7zm0-21.9l8.2-3.5V97.6l-8.2-.8zM71 74l8.2 4.9V60L71 50.8z" class="st3"/></svg>