<svg xmlns="http://www.w3.org/2000/svg" role="img" viewBox="13.50 251.00 624.00 148.50"><title>Chronicled logo</title><style>svg {enable-background:new 0 0 652 652}</style><path d="M219.4 304.7h7.7v17.6h20.1v-17.6h7.7v41.2h-7.7v-16.7h-20.1v16.7h-7.7v-41.2zm132 2.2c3.3 1.8 5.9 4.4 7.7 7.6 1.9 3.2 2.8 6.8 2.8 10.7 0 3.9-.9 7.5-2.8 10.7s-4.5 5.8-7.7 7.7c-3.3 1.9-6.9 2.8-10.9 2.8s-7.6-.9-10.9-2.8c-3.3-1.9-5.9-4.4-7.7-7.7s-2.8-6.8-2.8-10.7c0-3.9.9-7.5 2.8-10.7 1.9-3.2 4.5-5.7 7.7-7.6 3.3-1.8 6.9-2.8 10.9-2.8s7.6 1 10.9 2.8zm-17.7 6.2c-2.1 1.2-3.8 2.9-5 5.1-1.2 2.1-1.8 4.5-1.8 7.1 0 2.6.6 5 1.9 7.1 1.2 2.2 2.9 3.9 5 5.1 2.1 1.3 4.4 1.9 6.8 1.9 2.4 0 4.7-.6 6.7-1.9 2.1-1.3 3.7-3 4.9-5.1 1.2-2.2 1.8-4.5 1.8-7.1 0-2.6-.6-5-1.8-7.1-1.2-2.1-2.8-3.8-4.9-5.1-2.1-1.2-4.3-1.9-6.7-1.9-2.5 0-4.7.6-6.9 1.9zm71-8.4h7.5v41.2h-7.3l-20.7-28.4v28.4h-7.5v-41.2h7.3l20.8 28.4v-28.4zm25.2 0h7.7v41.2h-7.7v-41.2zm49.7 7.9c-1.9-.9-3.9-1.4-5.9-1.4-2.5 0-4.8.6-6.8 1.8-2.1 1.2-3.7 2.9-4.9 5-1.2 2.1-1.8 4.5-1.8 7s.6 4.9 1.8 7c1.2 2.1 2.8 3.8 4.9 5.1 2.1 1.2 4.4 1.9 6.8 1.9 1.9 0 3.8-.4 5.8-1.3 1.9-.9 3.7-2.1 5.1-3.6l4.5 5.2c-2.1 2.2-4.6 3.9-7.4 5.2-2.8 1.3-5.6 1.9-8.5 1.9-3.9 0-7.4-.9-10.6-2.8-3.2-1.9-5.8-4.4-7.6-7.7-1.8-3.2-2.8-6.8-2.8-10.7 0-3.9.9-7.5 2.8-10.7 1.9-3.2 4.4-5.7 7.7-7.6 3.2-1.8 6.8-2.8 10.8-2.8 2.9 0 5.7.6 8.4 1.8 2.8 1.2 5.1 2.8 7.1 4.9l-4.5 5.8c-1.3-1.7-3-3-4.9-4zm23.8-7.9h7.7v34.1h17.4v7.1h-25.1v-41.2zm39 0h30.2v6.9h-22.5v10.2h16.4v6.9h-16.4V339h22.5v6.9h-30.2v-41.2zm73.4 2.6c3.2 1.7 5.7 4.2 7.5 7.3 1.8 3.1 2.7 6.7 2.7 10.6 0 4-.9 7.5-2.7 10.6-1.8 3.1-4.3 5.6-7.6 7.3-3.2 1.8-6.9 2.6-11 2.6h-16.4v-41.2H605c4 .2 7.6 1 10.8 2.8zm-4 29.9c2-1.2 3.5-2.8 4.6-4.8 1.1-2.1 1.7-4.4 1.7-7 0-2.6-.6-5-1.7-7.1-1.2-2.1-2.7-3.7-4.7-4.9-2-1.2-4.3-1.7-6.8-1.7H596V339h9.2c2.4-.1 4.7-.7 6.6-1.8zm-416.2-24.6c-1.9-.9-3.9-1.4-5.9-1.4-2.5 0-4.8.6-6.8 1.8-2.1 1.2-3.7 2.9-4.9 5-1.2 2.1-1.8 4.5-1.8 7s.6 4.9 1.8 7c1.2 2.1 2.8 3.8 4.9 5.1 2.1 1.2 4.4 1.9 6.8 1.9 1.9 0 3.8-.4 5.8-1.3 1.9-.9 3.7-2.1 5.1-3.6l4.5 5.2c-2.1 2.2-4.6 3.9-7.4 5.2-2.8 1.3-5.6 1.9-8.5 1.9-3.9 0-7.4-.9-10.6-2.8-3.2-1.9-5.7-4.4-7.6-7.7s-2.8-6.8-2.8-10.7c0-3.9.9-7.5 2.8-10.7 1.9-3.2 4.4-5.7 7.7-7.6 3.2-1.8 6.8-2.8 10.8-2.8 2.9 0 5.7.6 8.5 1.8 2.8 1.2 5.1 2.8 7.1 4.9l-4.5 5.8c-1.4-1.7-3.1-3-5-4zm104 18.2c1 .4 1.8 1.1 2.6 1.9 1.6 1.7 2.4 4.2 2.4 7.3v6.3h-7.4v-5.7c0-2.2-1.9-6.6-8-6.8h-9V346h-7.7v-41.3H289c5 0 9 1.2 11.7 3.7 2.8 2.5 4.2 6 4.2 10.5 0 4.7-1.4 8.4-4.2 11-.4.3-.7.6-1.1.9zm-4.4-5.9c1.5-1.3 2.3-3.2 2.3-5.8 0-2.5-.8-4.4-2.3-5.7-1.5-1.3-3.8-1.9-6.7-1.9h-8.4v15.3h8.4c2.9 0 5.1-.6 6.7-1.9zm-231 33.6c6.5 4.6 14.4 7.4 22.9 7.4 9.6 0 18.4-3.5 25.3-9.4l5.1 5.2c-8.2 7.2-18.8 11.5-30.4 11.5-7.9 0-15.3-2-21.9-5.5l-5.3 5.4c8 4.8 17.3 7.5 27.2 7.5 13.6 0 26-5.1 35.5-13.6l5.1 5.2c-10.8 9.8-25 15.8-40.6 15.8-14.5 0-27.8-5.2-38.2-13.8l15.3-15.7zM46 366.7l-2.5 2.6C32.7 358 26 342.5 26 325.5 26 291 53.4 263 87.1 263c16.7 0 31.8 6.8 42.8 17.9l-5.1 5.2c-9.7-9.7-23-15.8-37.7-15.8-29.8 0-53.9 24.7-53.9 55.1 0 12.4 4 23.8 10.7 33l5.2-5.2c-5.5-7.8-8.7-17.4-8.7-27.8 0-26.4 20.9-47.8 46.7-47.8 12.7 0 24.2 5.2 32.6 13.6l-13.4 13.7-1.9 1.9-.7-.7c-4.4-4-10.3-6.5-16.7-6.5-13.9 0-25.2 11.5-25.2 25.7S73.1 351 87 351c5.7 0 10.9-1.9 15.1-5.1l5.1 5.2c-5.5 4.5-12.6 7.2-20.2 7.2-17.9 0-32.3-14.8-32.3-33.1s14.5-33.1 32.3-33.1c6.1 0 11.9 1.7 16.8 4.8l5.2-5.3c-6.3-4.3-13.9-6.8-22-6.8-21.8 0-39.5 18.1-39.5 40.4 0 11 4.3 20.9 11.2 28.2L46 366.7zm80.6-41.2c0-8.7-2.7-16.8-7.3-23.4l5.1-5.3c5.9 8 9.3 17.9 9.3 28.6 0 11.9-4.2 22.7-11.2 31.1l-5.1-5.2c5.8-7 9.2-16 9.2-25.8z"/></svg>