<svg xmlns="http://www.w3.org/2000/svg" role="img" viewBox="-20.84 -20.84 1083.68 209.68"><title>Chronicle logo</title><g fill="#161d2a" fill-opacity="1" fill-rule="nonzero" stroke="none" transform="matrix(1.33333 0 0 -1.33333 0 168.427) scale(.1)"><path d="M415.445 455.234c131.051 119.2 90.907 394.051 100.934 532.063l85.312 65.503V190.832c-29.89 6.68-201.132 93.934-269.043 189.098 27.946 24.828 55.176 50.175 82.797 75.304zm393.879-299.132c-44.609 0-88.129 4.789-130.133 13.867v903.101c77.786-24.24 158.602-51.58 235.801-77.523 12.875-4.473 19.313-2.52 27.988 6.333 52.68 54.85 108.19 106.62 159.94 162.29-618.756 53.8-160.932 272.69-777.596-188.693-8.988-6.93-24.379-13.946-24.336-24.559V420.527c-78.019 108.614-124.191 243.075-124.191 388.692 0 155.351 52.562 298.011 140.281 410.121C127.57 1106.52 0 895.207 0 653.113 0 292.414 283.195 0 632.531 0c198.883 0 376.289 94.8008 492.249 243-92.86-55.27-200.577-86.898-315.456-86.898"/><path d="M1209.09 34.332c96.11 1.7071 114.99 18.8789 114.99 60.0664V1119.02c0 51.49-17.16 82.39-121.86 84.09v20.6l386.17 20.59V650.469c72.08 101.258 187.07 168.203 296.92 168.203 152.74 0 219.67-90.965 219.67-255.734V94.3984c0-41.1875 17.17-58.3593 116.71-60.0664V13.7305h-466.82V34.332c60.06 1.7071 85.81 18.8789 85.81 60.0664V561.23c0 89.239-37.76 142.45-114.99 142.45-53.21 0-94.4-34.325-137.3-87.539V94.3984c0-41.1875 25.74-58.3593 85.81-60.0664V13.7305h-465.11V34.332"/><path d="M2261.14 34.332c97.82 1.7071 116.7 18.8789 116.7 60.0664V688.23c0 51.489-18.88 82.383-116.7 84.106v20.586l377.57 20.601V652.195c53.21 104.692 145.89 166.477 240.29 166.477 106.4 0 164.75-65.215 164.75-154.461 0-89.262-56.63-151.035-135.58-151.035-92.68 0-145.88 65.211-145.88 133.867 0 25.738 6.86 54.922 13.73 77.234-41.19-3.437-99.54-48.066-133.87-106.418V94.3984c0-41.1875 25.74-54.9179 157.89-60.0664V13.7305h-538.9V34.332"/><path d="M3670.17 413.625c0 231.695-37.75 375.867-154.46 375.867-114.99 0-139.03-144.172-139.03-375.867 0-231.695 37.77-379.293 154.48-379.293 113.27 0 139.01 147.598 139.01 379.293zm-573.24-3.43c0 255.723 164.76 413.621 427.35 413.621 269.46 0 425.64-151.035 425.64-406.757C3949.92 159.621 3785.16 0 3524.28 0c-272.88 0-427.35 152.75-427.35 410.195"/><path d="M4028.85 34.332c97.83 1.7071 116.71 18.8789 116.71 60.0664V688.23c0 51.489-18.88 82.383-116.71 84.106v20.586l377.59 20.601V650.469c72.08 101.258 187.07 168.203 296.91 168.203 152.75 0 217.97-90.965 217.97-255.734V94.3984c0-41.1875 17.16-58.3593 114.99-60.0664V13.7305h-466.83V34.332c60.07 1.7071 87.53 18.8789 87.53 60.0664V561.23c0 89.239-32.6 142.45-109.84 142.45-53.2 0-94.39-34.325-137.3-87.539V94.3984c0-41.1875 25.74-58.3593 84.1-60.0664V13.7305h-465.12V34.332"/><path d="M5177.01 1077.83c0 94.4 61.78 156.17 152.75 156.17 92.67 0 152.74-58.35 152.74-149.3 0-94.399-60.07-154.477-152.74-154.477-90.97 0-152.75 53.215-152.75 147.607zM5077.46 34.332c97.84 1.7071 123.58 18.8789 123.58 60.0664V688.23c0 51.489-25.74 82.383-123.58 84.106v20.586l387.88 20.601V94.3984c0-41.1875 15.45-58.3593 115-60.0664V13.7305h-502.88V34.332"/><path d="M5643.82 399.902c0 269.453 185.36 423.914 437.66 423.914 245.43 0 334.67-106.414 334.67-195.652 0-82.383-48.05-139.023-133.87-139.023-96.11 0-142.45 61.785-142.45 130.441 0 56.629 34.32 99.539 66.93 114.988-15.44 29.18-54.92 58.352-116.7 58.352-106.41 0-166.48-151.027-166.48-375.863 0-175.059 66.93-344.9692 233.42-344.9692 87.52 0 187.07 51.4802 250.57 139.0122l18.88-12.012C6345.78 73.8086 6234.22 0 6066.03 0c-262.59 0-422.21 145.891-422.21 399.902"/><path d="M6472.76 34.332c96.11 1.7071 114.99 18.8789 114.99 60.0664V1119.02c0 51.49-17.17 82.39-121.86 84.09v20.6l386.16 20.59V94.3984c0-41.1875 17.16-58.3593 114.99-60.0664V13.7305h-494.28V34.332"/><path d="M7306.84 461.68h243.72c22.3 199.09-17.17 327.812-111.56 327.812-89.25 0-125.3-125.281-132.16-327.812zm-278.03-61.778c0 269.453 187.07 423.914 420.48 423.914 245.43 0 377.59-159.605 365.58-396.464h-508.03v-27.45c0-216.261 87.54-326.0934 252.29-326.0934 101.26 0 169.92 49.7614 233.42 137.2934l18.88-12.012C7730.76 73.8086 7619.2 0 7451.01 0c-250.58 0-422.2 139.02-422.2 399.902"/></g></svg>