<svg xmlns="http://www.w3.org/2000/svg" role="img" viewBox="-5.91 43.84 411.32 157.07"><title>Cloud Security Alliance logo</title><style>svg {enable-background:new 0 0 400 245}</style><style>.st2{fill:#e98300}</style><path d="M172.15 65.94c-1.7-1.53-3.36-2.38-6.07-2.38-4.19 0-7.92 3.33-8.83 9.22-.9 5.8 1.34 9.54 6.09 9.54 2.61 0 4.49-.95 6.57-2.52l1.96 2.16c-2.56 2.02-5.36 3.28-9.14 3.28-5.87 0-10.68-3.96-9.41-12.19 1.35-8.73 7.84-12.41 13.46-12.41 3.63 0 6.2 1.17 8.05 2.79l-2.68 2.51zm6.25 18.8l4.77-30.9 4.12-1.89-5.06 32.79h-3.83zm21.48.49c-6.54 0-10.88-4.27-9.65-12.28 1.24-8.01 7.11-12.32 13.65-12.32s10.9 4.14 9.67 12.14c-1.24 8.01-7.14 12.46-13.67 12.46zm3.45-21.68c-4.65 0-8.24 3.1-9.2 9.31-.96 6.21 1.66 9.45 6.3 9.45s8.31-3.24 9.27-9.45c.96-6.2-1.73-9.31-6.37-9.31zm30.95 21.19l.44-2.88c-1.84 1.98-4.56 3.37-7.93 3.37-5.67 0-8.95-2.92-7.9-9.72l2.22-14.39h3.83l-2.13 13.81c-.78 5.08.91 7.38 5.2 7.38 3.73 0 6.98-2.2 7.78-7.38l2.13-13.81h3.83l-3.64 23.62h-3.83zm27.43 0l.44-2.88c-2.17 1.8-4.96 3.37-8.59 3.37-5.36 0-9.05-3.6-7.76-11.92 1.29-8.37 6.46-12.68 12.07-12.68 3.37 0 5.48 1.26 7.07 3.15l1.53-9.94 4.12-1.89-5.06 32.79h-3.82zm2.72-17.64c-1.18-1.98-3.54-3.55-6.7-3.55-4.44 0-7.16 3.37-8.14 9.72-.92 5.94 1.16 9.04 5.4 9.04 2.86 0 5.42-1.35 7.63-3.42l1.81-11.79z" class="st2"/><path d="M195.85 192.56l.44-2.88c-2.17 1.8-5.06 3.37-8.9 3.37-4.19 0-8.3-1.84-7.41-7.56.82-5.31 6.12-7.56 11.43-7.56 2.71 0 5.02.59 6.48 1.35l.43-2.79c.54-3.51-1.08-5.22-5.02-5.22-2.81 0-5.21.67-7.58 1.8l-1.01-2.74c2.52-1.12 5.81-1.89 9.28-1.89 5.77 0 9.07 2.16 8.22 7.64l-2.54 16.46h-3.82zm1.63-10.57c-1.61-.85-3.42-1.35-6.69-1.35-3.93 0-6.54 1.66-7 4.63-.54 3.51 1.42 5.04 4.69 5.04 3.47 0 6.32-1.58 8.26-3.56l.74-4.76zm10.68 10.57l4.77-30.9 4.12-1.89-5.06 32.79h-3.83zm12.72 0l4.77-30.9 4.12-1.89-5.06 32.79h-3.83zm12.72 0l3.65-23.62h3.83l-3.65 23.62h-3.83zm6.29-27.84c-1.58 0-2.64-1.08-2.44-2.38.21-1.35 1.6-2.43 3.19-2.43 1.43 0 2.49 1.08 2.28 2.43-.21 1.3-1.6 2.38-3.03 2.38zm21.55 27.84l.44-2.88c-2.17 1.8-5.06 3.37-8.89 3.37-4.19 0-8.3-1.84-7.42-7.56.82-5.31 6.12-7.56 11.43-7.56 2.71 0 5.02.59 6.48 1.35l.43-2.79c.54-3.51-1.08-5.22-5.02-5.22-2.81 0-5.21.67-7.58 1.8l-1.01-2.74c2.52-1.12 5.81-1.89 9.28-1.89 5.77 0 9.07 2.16 8.22 7.64l-2.54 16.46h-3.82zm1.63-10.57c-1.61-.85-3.42-1.35-6.69-1.35-3.93 0-6.54 1.66-7 4.63-.54 3.51 1.42 5.04 4.69 5.04 3.47 0 6.32-1.58 8.26-3.56l.74-4.76zm27.23 10.57l2.13-13.81c.79-5.08-.9-7.38-5.2-7.38-3.73 0-6.98 2.2-7.78 7.38l-2.13 13.81h-3.83l3.65-23.62h3.83l-.45 2.88c1.84-1.98 4.56-3.37 7.93-3.37 5.67 0 8.95 2.92 7.9 9.72l-2.22 14.39h-3.83zm31.25-18.8c-1.7-1.53-3.36-2.38-6.07-2.38-4.19 0-7.92 3.33-8.83 9.22-.9 5.8 1.33 9.54 6.09 9.54 2.61 0 4.49-.95 6.57-2.52l1.96 2.16c-2.56 2.02-5.36 3.28-9.14 3.28-5.87 0-10.68-3.96-9.41-12.19 1.35-8.73 7.84-12.41 13.46-12.41 3.62 0 6.21 1.17 8.05 2.79l-2.68 2.51zm27.04 8.14h-17.88c-.42 5.04 1.79 8.23 6.19 8.23 3.12 0 5.08-.81 7.75-2.25l1.41 2.43c-3.49 1.8-5.99 2.74-10.02 2.74-4.9 0-10.4-3.15-8.96-12.41 1.16-7.51 6.58-12.19 12.97-12.19 7 0 10.03 4.86 8.98 11.6-.12.81-.25 1.31-.44 1.85zm-9.05-10.53c-3.98 0-7.13 2.52-8.4 7.78h14.46c.4-4.58-1.36-7.78-6.06-7.78z" class="st2"/><path d="M225.61 136.21c-3.68 0-6.71-1.22-8.98-3.01l2.63-2.47c1.89 1.66 4.25 2.61 6.9 2.61 3.68 0 5.62-1.35 5.98-3.64.3-1.94-1.12-3.01-5.59-4.81-5.05-2.02-7.07-3.46-6.49-7.24.56-3.6 4.45-6.03 9.31-6.03 3.68 0 6.38 1.03 8.19 2.52l-2.53 2.48c-1.87-1.44-3.5-2.11-6.36-2.11-2.81 0-4.63 1.21-4.9 2.92-.31 1.98.95 2.79 5.22 4.59 4.74 2.02 7.51 3.33 6.85 7.56-.72 4.61-5.58 6.63-10.23 6.63zm37.84-11.15h-17.88c-.42 5.04 1.79 8.23 6.19 8.23 3.12 0 5.08-.81 7.75-2.25l1.41 2.43c-3.5 1.8-5.99 2.74-10.03 2.74-4.9 0-10.39-3.15-8.96-12.42 1.16-7.51 6.58-12.19 12.97-12.19 7 0 10.03 4.86 8.99 11.61-.13.81-.26 1.31-.44 1.85zm-9.05-10.53c-3.98 0-7.13 2.52-8.4 7.78h14.46c.39-4.58-1.37-7.78-6.06-7.78zm33.8 2.38c-1.7-1.53-3.36-2.38-6.07-2.38-4.19 0-7.92 3.33-8.83 9.22-.9 5.8 1.33 9.53 6.09 9.53 2.61 0 4.49-.95 6.57-2.52l1.96 2.16c-2.56 2.02-5.36 3.28-9.14 3.28-5.87 0-10.68-3.96-9.41-12.19 1.35-8.72 7.84-12.41 13.46-12.41 3.63 0 6.21 1.17 8.05 2.79l-2.68 2.52zm21.62 18.81l.44-2.88c-1.84 1.98-4.56 3.37-7.93 3.37-5.67 0-8.95-2.93-7.9-9.72l2.22-14.39h3.83l-2.13 13.81c-.78 5.08.91 7.38 5.2 7.38 3.73 0 6.98-2.2 7.78-7.38l2.13-13.81h3.83l-3.64 23.61h-3.83zm29-20.11c-.99-.54-2.11-.9-3.9-.9-3.73 0-6.23 2.65-6.93 7.15l-2.14 13.85h-3.83l3.65-23.61h3.83l-.45 2.92c1.52-1.89 4.31-3.42 7.17-3.42 1.99 0 3.23.23 4.1.58l-1.5 3.43zm4.15 20.11l3.65-23.61h3.83l-3.65 23.61h-3.83zm6.29-27.85c-1.59 0-2.64-1.08-2.44-2.38.21-1.35 1.6-2.43 3.19-2.43 1.43 0 2.49 1.08 2.28 2.43-.21 1.3-1.6 2.38-3.03 2.38zm14.29 7.06l-2.37 15.38c-.32 2.11.23 2.83 2.27 2.83 1.53 0 2.59-.23 3.88-.67l-.71 2.92c-1.56.54-3.04.81-5.08.81-3.32 0-4.89-1.44-4.28-5.35l2.46-15.92h-3.32l.44-2.83h3.32l1.12-7.29 4.12-1.89-1.41 9.18h6.64l-.44 2.83h-6.64zm15.99 29.11h-3.83l5-8.59-5.95-23.34h4.03l3.89 17.14.55 2.43 1.29-2.38 9.24-17.18h4.03l-18.25 31.92z" class="st2"/><path fill="#00549f" d="M23.42 126.3c-.2.92-.37 1.87-.51 2.85-1.5 10.15.7 18.21 9.05 18.21 6.06 0 9.1-3.13 13.81-9.39l15.08 8.26c-5.96 8.73-14.95 17.17-31.45 17.17-20.67 0-29.56-14.61-26.66-34.25.14-.98.28-1.9.47-2.84l20.21-.01zm-18.04-7.42c5.79-15.15 18.74-23.98 34.2-23.98 17.1 0 22.82 7.02 25.75 19.55L46.87 121c-1.58-6.17-3.39-10.06-9.75-10.06-5.07 0-8.78 3.05-11.22 7.95H5.38zm111.28 7.42c5.31 3.52 7.32 8.31 6.24 15.66-2.23 15.18-15.18 21.44-31.88 21.44-11.23 0-21.55-3.51-28.14-8.06l11.47-14.43c4.58 3.32 12.93 6.64 19.4 6.64 6.86 0 9.21-1.14 9.67-4.27.36-2.47-1.9-3.99-10.93-6.07-10.96-2.5-17.84-5.25-20.6-10.88l44.77-.03zm-46.17-7.43c.04-.95.13-1.95.29-3.01 1.84-12.52 13.73-20.97 30.52-20.97 11.83 0 19.97 2.75 26.6 7.69L116.43 117c-5.58-3.98-11.4-6.26-18.46-6.26-5.77 0-7.41 1.71-7.76 4.08-.26 1.78.87 2.87 4.75 4.08l-24.47-.03zm70.7.02l10.88-22.95h16.75l4.12 22.94m-23.47 17.15h9.92l-1.07-9.75h15.95l6.48 36.08h-17.94l-1.53-11.67h-17.95l-4.97 11.67h-17.78l17.1-36.07h15.9"/><path d="M358.52 169.16c0-2.41.86-4.47 2.57-6.18s3.77-2.56 6.19-2.56 4.47.85 6.18 2.56 2.56 3.77 2.56 6.18c0 2.41-.85 4.48-2.56 6.19s-3.77 2.57-6.18 2.57-4.48-.86-6.19-2.57c-1.71-1.72-2.57-3.78-2.57-6.19zm16.08 0c0-2.03-.71-3.75-2.14-5.18-1.43-1.43-3.15-2.14-5.18-2.14-2.02 0-3.75.71-5.18 2.14-1.43 1.43-2.15 3.15-2.15 5.18 0 2.02.72 3.75 2.15 5.19 1.43 1.43 3.16 2.15 5.18 2.15 2.03 0 3.75-.72 5.18-2.15 1.43-1.44 2.14-3.17 2.14-5.19zm-4.59 5.28l-2.74-4.63h-1.56v4.63h-1.54v-10.78h2.76c2.6 0 3.89.99 3.89 2.98 0 1.38-.7 2.36-2.09 2.93l2.95 4.87h-1.67zm-4.3-9.46v3.58c.13.02.47.03 1.01.03 1 0 1.68-.13 2.02-.38.35-.26.52-.74.52-1.46 0-1.19-.78-1.78-2.34-1.78h-.61l-.6.01z" class="st2"/></svg>