<svg xmlns="http://www.w3.org/2000/svg" role="img" viewBox="-19.66 -19.66 1022.32 320.32"><title>ConsenSys Quorum logo</title><path fill="#2C56DD" d="M306.76 62.77v-.39c0-10.53 7.25-17.88 17-17.88 8.03 0 14.25 4.02 15.04 12.25h-6.61c-.74-4.65-3.33-7.05-8.38-7.05-6.17 0-10.19 4.8-10.19 12.64v.39c0 7.89 3.77 12.54 10.24 12.54 4.85 0 8.28-2.45 8.96-7.4h6.37c-1.03 8.43-7.01 12.69-15.33 12.69-10.98-.01-17.1-7.02-17.1-17.79zm38.98 0v-.39c0-10.24 7.35-17.83 17.73-17.83 10.43 0 17.64 7.4 17.64 17.68v.39c0 10.24-7.01 17.93-17.64 17.93-10.73 0-17.73-7.69-17.73-17.78zm28.61-.1v-.39c0-7.2-4.02-12.54-10.88-12.54-6.86 0-10.92 5.04-10.92 12.59v.39c0 7.64 4.65 12.59 11.02 12.59 6.61 0 10.78-5.05 10.78-12.64zM388.893 45h7.79l14.75 25.32V45h5.92v35.02h-6.76l-15.77-26.84v26.84h-5.93V45zm36.78 24.14h6.27c.44 3.53 1.86 6.47 7.79 6.47 3.87 0 6.61-2.15 6.61-5.39 0-3.23-1.62-4.46-7.3-5.39-8.38-1.13-12.34-3.67-12.34-10.24 0-5.73 4.9-10.04 12.2-10.04 7.54 0 12.05 3.43 12.73 10.14h-5.97c-.64-3.67-2.75-5.24-6.76-5.24-3.97 0-6.02 1.91-6.02 4.61 0 2.84 1.17 4.26 7.25 5.14 8.23 1.13 12.49 3.48 12.49 10.48 0 6.08-5.14 10.83-12.88 10.83-9.56 0-13.58-4.75-14.07-11.37zM461.133 45h21.9v5.14h-15.38v9.6h12.35v4.9h-12.35v10.24h16.21v5.14h-22.73V45zm31.04 0h7.79l14.75 25.32V45h5.92v35.02h-6.76l-15.77-26.84v26.84h-5.93V45zm36.79 24.14h6.27c.44 3.53 1.86 6.47 7.79 6.47 3.87 0 6.61-2.15 6.61-5.39 0-3.23-1.62-4.46-7.3-5.39-8.38-1.13-12.34-3.67-12.34-10.24 0-5.73 4.9-10.04 12.2-10.04 7.54 0 12.05 3.43 12.73 10.14h-5.97c-.64-3.67-2.74-5.24-6.76-5.24-3.97 0-6.02 1.91-6.02 4.61 0 2.84 1.17 4.26 7.25 5.14 8.23 1.13 12.49 3.48 12.49 10.48 0 6.08-5.14 10.83-12.88 10.83-9.57 0-13.58-4.75-14.07-11.37zm42.17-4.31l-11.61-19.84h7.2l7.89 14.5 7.69-14.5h6.37l-10.97 19.89v15.14h-6.56V64.83h-.01zm21.2 4.31h6.27c.44 3.53 1.86 6.47 7.79 6.47 3.87 0 6.61-2.15 6.61-5.39 0-3.23-1.62-4.46-7.3-5.39-8.38-1.13-12.34-3.67-12.34-10.24 0-5.73 4.9-10.04 12.2-10.04 7.54 0 12.05 3.43 12.73 10.14h-5.97c-.64-3.67-2.74-5.24-6.76-5.24-3.97 0-6.02 1.91-6.02 4.61 0 2.84 1.17 4.26 7.25 5.14 8.23 1.13 12.49 3.48 12.49 10.48 0 6.08-5.14 10.83-12.88 10.83-9.57 0-13.58-4.75-14.07-11.37zM395.93 231.91c-7.63 2.42-16 3.91-25.11 3.91-41.67 0-68.26-28.64-68.26-67.71v-1.49c0-39.62 29.02-67.7098 68.45-67.7098 39.99 0 68.45 27.1598 68.45 66.9598v1.49c0 21.58-8 39.99-21.95 52.27l12.25 13.09c.74.79.72 2.03-.05 2.79l-14.27 14.12c-.8.79-2.09.77-2.86-.05l-16.65-17.67zm-18.23-19.72l-11.31-12.31c-.74-.81-.7-2.06.11-2.81l14.57-13.64c.81-.76 2.08-.71 2.83.1l15 16.2c5.77-7.81 9.11-18.6 9.11-31.99v-1.49c0-25.85-13.76-43.53-37.01-43.53-23.07 0-37.02 16.74-37.02 43.71v1.49c0 28.09 15.44 44.64 37.39 44.64 2.24 0 4.29-.18 6.33-.37zm72.91-13.02v-60.68c0-1.1.9-2 2-2h22.79c1.1 0 2 .9 2 2v56.96c0 13.21 5.39 19.53 16.93 19.53 11.35 0 20.27-7.07 20.27-21.39v-55.1c0-1.1.9-2 2-2h22.78c1.1 0 2 .9 2 2v93.28c0 1.1-.9 2-2 2H516.6c-1.1 0-2-.9-2-2v-13.25c-5.02 9.86-14.88 17.3-30.88 17.3-18.97-.01-33.11-11.17-33.11-36.65zm100.07-13.02v-1.49c0-30.5 22.13-50.41 51.34-50.41 29.2 0 51.15 19.53 51.15 49.85v1.49c0 30.69-22.13 50.22-51.34 50.22-29.02 0-51.15-19.34-51.15-49.66zm75.15-.37v-1.3c0-18.6-8.74-29.76-23.81-29.76-14.88 0-23.81 10.79-23.81 29.39v1.49c0 18.6 8.56 29.76 23.81 29.76 15.06-.01 23.81-11.17 23.81-29.58zm38.45-49.29h22.97c1.1 0 2 .9 2 2v16.6c5.86-12.43 14.77-19.26 29.31-20.02 1.15-.06 2.12.85 2.12 2v21.05c0 1.09-.87 1.98-1.95 2-18.7.26-29.48 6.94-29.48 24.92v46.73c0 1.1-.9 2-2 2h-22.97c-1.1 0-2-.9-2-2v-93.28c0-1.11.89-2 2-2zm65.7 62.68v-60.68c0-1.1.9-2 2-2h22.79c1.1 0 2 .9 2 2v56.96c0 13.21 5.39 19.53 16.93 19.53 11.35 0 20.27-7.07 20.27-21.39v-55.1c0-1.1.9-2 2-2h22.79c1.1 0 2 .9 2 2v93.28c0 1.1-.9 2-2 2h-22.79c-1.1 0-2-.9-2-2v-13.25c-5.02 9.86-14.88 17.3-30.88 17.3-18.97-.01-33.11-11.17-33.11-36.65zm107.28-62.68h22.97c1.1 0 2 .9 2 2v12.88c4.84-9.11 15.25-17.11 29.76-17.11 12.83 0 22.51 5.39 27.16 16.93 7.81-11.72 20.46-16.93 32.74-16.93 18.04 0 31.99 11.35 31.99 37.2v60.31c0 1.1-.9 2-2 2h-22.79c-1.1 0-2-.9-2-2v-57.34c0-12.46-5.58-18.04-15.25-18.04-10.42 0-18.79 6.7-18.79 19.9v55.48c0 1.1-.9 2-2 2h-22.78c-1.1 0-2-.9-2-2v-57.34c0-12.46-5.77-18.04-15.25-18.04-10.42 0-18.79 6.7-18.79 19.9v55.48c0 1.1-.9 2-2 2h-22.97c-1.1 0-2-.9-2-2v-93.28c0-1.11.89-2 2-2z"/><path fill="#2C56DD" fill-rule="evenodd" d="M.12 141C.12 63.4 63.02.5 140.62.5s140.5 62.9 140.5 140.5-62.9 140.5-140.5 140.5S.12 218.6.12 141zm206.632 28.684c-.036-7.319 5.928-13.274 13.32-13.321h.036c7.393.059 13.345 6.037 13.285 13.345.024 7.296-5.928 13.25-13.321 13.297-7.392-.035-13.356-5.99-13.32-13.297v-.024zm9.572-28.581c6.366-3.675 8.562-11.824 4.886-18.188-3.676-6.364-11.828-8.56-18.193-4.884-6.343 3.651-8.539 11.741-4.933 18.105l.082.118c3.676 6.352 11.792 8.524 18.146 4.849 0 .006.003.009.006.009s.006-.003.006-.009zM60.472 122.942c3.69-6.366 11.8457-8.527 18.2152-4.839 6.346 3.676 8.5083 11.804 4.8418 18.158v.047c-3.6901 6.365-11.8458 8.526-18.2153 4.838-6.3695-3.687-8.5318-11.838-4.8417-18.204zm40.043-8.516c7.366-.012 13.331-5.991 13.319-13.345 0-2.3023-.6-4.5578-1.741-6.5548-3.612-6.3786-11.731-8.634-18.1312-5.016-.003 0-.0052.0008-.0071.0019l-.0021.0015-.0026.0025c-.0029.003-.0059.0059-.0117.0059l-.2236.1292c-6.3299 3.7591-8.4124 11.9348-4.6474 18.2548 2.4002 4.029 6.7417 6.508 11.4477 6.52zm26.669-24.1851c0-7.3536 5.968-13.321 13.321-13.321 7.354 0 13.321 5.9674 13.321 13.321s-5.967 13.3211-13.321 13.3211c-7.353 0-13.321-5.9675-13.321-13.3211zM98.0085 156.373c-7.3535 0-13.321 5.967-13.321 13.321 0 7.353 5.9675 13.321 13.321 13.321 7.3535 0 13.3215-5.968 13.3215-13.321 0-7.354-5.968-13.321-13.3215-13.321zm51.4465-23.035c0-7.354 5.968-13.321 13.321-13.321 7.354 0 13.321 5.967 13.321 13.321 0 7.353-5.967 13.321-13.321 13.321-7.353 0-13.321-5.968-13.321-13.321zm24.453-20.213l.171.096c6.864 3.411 15.238.711 18.713-6.025 3.204-6.217 1.129-13.809-4.826-17.6168-6.839-3.4584-15.237-.8315-18.761 5.8804-3.266 6.2054-1.24 13.8214 4.703 17.6654zM47.8464 169.442c.1532-7.352 6.2306-13.197 13.5801-13.079 7.2318.142 13.0384 6.045 13.0619 13.279.0236 7.364-5.9244 13.338-13.2856 13.362-7.3613.023-13.3328-5.927-13.3564-13.291v-.271zm134.7016-13.109c-7.354 0-13.321 5.968-13.321 13.321 0 7.354 5.967 13.321 13.321 13.321 7.353 0 13.321-5.967 13.321-13.321 0-7.353-5.968-13.321-13.321-13.321zm-52.62-30.364c4.058 6.125 2.393 14.386-3.73 18.446-.47.317-.962.61-1.478.857-6.581 3.262-14.569.575-17.83-6.008-3.26-6.583-.574-14.574 6.006-17.837l.082-.047c5.994-2.945 13.255-.985 16.95 4.589z" clip-rule="evenodd"/></svg>