<svg xmlns="http://www.w3.org/2000/svg" role="img" viewBox="-20.46 -15.46 1063.92 222.92"><title>Cosmos logo</title><path d="M113.778 138.81l-14.0438-14.222c-5.3343 4.977-10.7263 8.919-16.1806 11.824-5.4495 2.902-11.9688 4.353-19.553 4.353-5.9268 0-11.4075-1.154-16.4445-3.466-5.0369-2.312-9.3927-5.48-13.0673-9.512-3.6746-4.029-6.5169-8.739-8.5341-14.131-2.0147-5.392-3.0197-11.172-3.0197-17.331 0-6.1639 1.005-11.9129 3.0197-17.2469 2.0172-5.3317 4.8595-9.9822 8.5341-13.954 3.6746-3.9693 8.0304-7.1088 13.0673-9.4209 5.037-2.3097 10.5177-3.4657 16.4445-3.4657 7.1093 0 13.4511 1.4222 19.0205 4.2668 5.5719 2.8421 10.8463 6.5764 15.8209 11.1981l14.046-16.1748c-2.962-2.8445-6.102-5.4516-9.422-7.8236-3.317-2.3697-6.9314-4.4155-10.8435-6.1328-3.912-1.7196-8.2078-3.0507-12.8898-3.9981-4.682-.9498-9.8676-1.4247-15.5546-1.4247-9.4815 0-18.1331 1.6909-25.9548 5.0679-7.824 3.3769-14.5784 7.9987-20.2677 13.8652C12.2662 56.948 7.85286 63.7906 4.71076 71.6142 1.56865 79.4354 0 87.7915 0 96.68c0 9.006 1.59983 17.42 4.79951 25.243 3.19967 7.819 7.61539 14.604 13.24479 20.353 5.6294 5.747 12.295 10.28 19.9992 13.599 7.7041 3.319 16.1206 4.977 25.2447 4.977 5.8093 0 11.1125-.504 15.912-1.511 4.7995-1.008 9.2153-2.487 13.2448-4.442 4.0296-1.957 7.793-4.269 11.29-6.934 3.495-2.667 6.843-5.72 10.043-9.155zm282.091-71.4256c0-4.1397 1.768-7.6573 5.306-10.5527 3.535-2.9002 8.487-4.3479 14.852-4.3479 5.658 0 11.257 1.0959 16.796 3.283 5.542 2.1872 11.14 5.3506 16.796 9.4879l11.67-16.4943c-6.362-5.085-13.17-8.9567-20.42-11.6152-7.252-2.6609-15.412-3.9914-24.489-3.9914-6.129 0-11.787.8567-16.944 2.5724-5.187 1.7133-9.604 4.1661-13.29 7.3582-3.683 3.1945-6.572 7.0064-8.693 11.4405-2.092 4.4341-3.153 9.3707-3.153 14.8098 0 5.7932.913 10.7011 2.74 14.7212 1.828 4.02 4.509 7.4491 7.987 10.2871 3.476 2.838 7.808 5.2022 12.934 7.095 5.158 1.893 11.024 3.604 17.653 5.142 5.778 1.419 10.46 2.779 14.086 4.078 3.595 1.302 6.425 2.692 8.517 4.168 2.061 1.479 3.478 3.104 4.243 4.877.766 1.776 1.148 3.783 1.148 6.03 0 4.851-1.973 8.694-5.921 11.529-3.95 2.841-9.284 4.257-16.002 4.257-7.779 0-14.735-1.39-20.863-4.168-6.131-2.778-12.2-6.767-18.214-11.972l-13.082 15.609c7.426 6.738 15.501 11.735 24.223 14.987 8.723 3.252 17.857 4.877 27.404 4.877 6.484 0 12.438-.828 17.86-2.482 5.392-1.658 10.048-4.082 13.879-7.274 3.86-3.192 6.866-7.093 9.046-11.704 2.152-4.611 3.242-9.873 3.242-15.786 0-5.202-.854-9.725-2.564-13.568-1.711-3.843-4.244-7.21-7.543-10.11-3.302-2.8954-7.486-5.3505-12.496-7.3606-5.007-2.0076-10.785-3.8406-17.268-5.4965-5.923-1.419-10.785-2.7805-14.645-4.0799-3.831-1.2993-6.837-2.7183-9.048-4.257-2.18-1.5362-3.681-3.1921-4.509-4.9653-.823-1.7755-1.238-3.9028-1.238-6.3843zm242.036 1.757v88.6936h21.604V34.1593h-23.2l-37.718 58.4815-37.718-58.4815h-23.197V157.835h21.603V69.4942l38.779 57.9528h.71l39.137-58.3056zM841.016 96.68c0 6.044-1.035 11.762-3.105 17.156-2.069 5.391-4.937 10.071-8.607 14.04-3.665 3.969-8.073 7.111-13.218 9.423-5.147 2.313-10.795 3.466-16.945 3.466-6.153 0-11.831-1.185-17.036-3.554-5.205-2.372-9.672-5.572-13.397-9.599-3.726-4.031-6.625-8.742-8.696-14.134-2.068-5.391-3.105-11.111-3.105-17.1529 0-6.0464 1.037-11.7642 3.105-17.1558 2.071-5.3941 4.939-10.0733 8.607-14.0451 3.668-3.9694 8.075-7.1089 13.22-9.421 5.145-2.3096 10.795-3.4657 16.945-3.4657 6.153 0 11.832 1.1849 17.036 3.5569 5.203 2.3696 9.67 5.5691 13.395 9.5984 3.728 4.0269 6.627 8.7398 8.696 14.1314 2.07 5.3916 3.105 11.1118 3.105 17.1558zm22.89-.355c0-8.771-1.597-17.0671-4.791-24.8907-3.191-7.8188-7.63-14.635-13.306-20.4416-5.679-5.8089-12.481-10.3995-20.41-13.7764-7.924-3.377-16.677-5.0679-26.258-5.0679-9.583 0-18.336 1.7197-26.263 5.1566-7.927 3.4369-14.788 8.0874-20.584 13.9539-5.799 5.8665-10.29 12.7116-13.486 20.5328-3.194 7.8212-4.79 16.1173-4.79 24.8883 0 8.769 1.596 17.062 4.79 24.886 3.196 7.823 7.63 14.637 13.309 20.444 5.676 5.806 12.48 10.399 20.407 13.776 7.924 3.377 16.677 5.066 26.26 5.066 9.581 0 18.337-1.72 26.261-5.154 7.929-3.437 14.788-8.088 20.587-13.957 5.796-5.864 10.292-12.709 13.483-20.53 3.194-7.821 4.791-16.117 4.791-24.886zm90.783-28.9406c0-4.1397 1.768-7.6573 5.303-10.5527 3.538-2.9002 8.488-4.3479 14.855-4.3479 5.656 0 11.257 1.0959 16.796 3.283 5.539 2.1872 11.137 5.3506 16.797 9.4879l11.67-16.4943c-6.37-5.085-13.17-8.9567-20.423-11.6152-7.247-2.6609-15.41-3.9914-24.487-3.9914-6.129 0-11.787.8567-16.944 2.5724-5.186 1.7133-9.604 4.1661-13.29 7.3582-3.683 3.1945-6.57 7.0064-8.695 11.4405-2.09 4.4341-3.151 9.3707-3.151 14.8098 0 5.7932.913 10.7011 2.741 14.7212 1.827 4.02 4.508 7.4491 7.984 10.2871 3.478 2.838 7.81 5.2022 12.939 7.095 5.155 1.893 11.021 3.604 17.65 5.142 5.775 1.419 10.461 2.779 14.086 4.078 3.593 1.302 6.425 2.692 8.517 4.168 2.061 1.479 3.473 3.104 4.243 4.877.77 1.776 1.15 3.783 1.15 6.03 0 4.851-1.98 8.694-5.923 11.529-3.95 2.841-9.284 4.257-16.004 4.257-7.779 0-14.735-1.39-20.861-4.168-6.129-2.778-12.2-6.767-18.214-11.972l-13.082 15.609c7.424 6.738 15.499 11.735 24.223 14.987 8.721 3.252 17.855 4.877 27.404 4.877 6.484 0 12.436-.828 17.86-2.482 5.387-1.658 10.047-4.082 13.877-7.274 3.86-3.192 6.87-7.093 9.05-11.704 2.15-4.611 3.24-9.873 3.24-15.786 0-5.202-.86-9.725-2.56-13.568-1.71-3.843-4.25-7.21-7.55-10.11-3.3-2.8954-7.48-5.3505-12.49-7.3606-5.012-2.0076-10.79-3.8406-17.271-5.4965-5.923-1.419-10.785-2.7805-14.645-4.0799-3.831-1.2993-6.837-2.7183-9.048-4.257-2.18-1.5362-3.683-3.1921-4.509-4.9653-.823-1.7755-1.238-3.9028-1.238-6.3843zM261.973 58.918l-59.194 59.115c-.763-1.479-1.452-3.02-2.069-4.619-2.067-5.371-3.101-11.07-3.101-17.0884 0-6.0235 1.034-11.7197 3.101-17.091 2.069-5.3736 4.936-10.0352 8.601-13.992 3.666-3.9544 8.071-7.082 13.212-9.3853 5.145-2.301 10.789-3.4526 16.936-3.4526 6.149 0 11.824 1.1803 17.023 3.5434 1.934.8769 3.764 1.866 5.491 2.9699zm-5.223 78.227c-5.144 2.303-10.788 3.453-16.935 3.453-6.149 0-11.824-1.181-17.026-3.541-1.931-.88-3.761-1.869-5.486-2.975l59.191-59.1101c.764 1.4766 1.453 3.0154 2.07 4.6162 2.067 5.3713 3.101 11.0699 3.101 17.091 0 6.0209-1.034 11.7169-3.101 17.0909-2.07 5.371-4.936 10.033-8.602 13.987-3.665 3.955-8.068 7.085-13.212 9.388zm8.956 18.329c7.922-3.424 14.779-8.057 20.572-13.904 5.792-5.842 10.283-12.661 13.475-20.453 3.194-7.791 4.79-16.056 4.79-24.7914 0-8.7379-1.596-17.0026-4.79-24.7966-1.892-4.621-4.223-8.8884-6.989-12.8046l38.5-38.4469L315.966 5l-38.617 38.564c-3.467-2.3606-7.231-4.4011-11.289-6.1238-7.922-3.3642-16.67-5.0487-26.245-5.0487-9.578 0-18.325 1.7131-26.247 5.1371-7.922 3.4239-14.78 8.0568-20.572 13.9012-5.793 5.8443-10.286 12.6635-13.478 20.4552-3.192 7.7916-4.788 16.0564-4.788 24.7942 0 8.7358 1.596 16.9978 4.788 24.7918 1.895 4.623 4.225 8.891 6.991 12.809l-38.497 38.443L163.31 188l38.615-38.562c3.467 2.361 7.231 4.402 11.289 6.124 7.922 3.364 16.669 5.047 26.245 5.047 9.577 0 18.325-1.714 26.247-5.135z" fill-rule="evenodd" clip-rule="evenodd"/></svg>