<svg xmlns="http://www.w3.org/2000/svg" role="img" viewBox="3.77 43.77 402.22 157.22"><title>CPQD (HCSP) logo</title><style>svg {enable-background:new 0 0 400 245}</style><linearGradient id="SVGID_1_" x1=".072" x2="394.359" y1="115.233" y2="115.233" gradientUnits="userSpaceOnUse"><stop offset=".029" stop-color="#f6d136" stop-opacity="0"/><stop offset=".254" stop-color="#f6d136"/><stop offset=".589" stop-color="#9bdb6b"/><stop offset="1" stop-color="#0cd6b1"/></linearGradient><path fill="url(#SVGID_1_)" d="M317.7 74.4c-5.4 2.9-10.4 6.8-14.6 11.3-4.4 4.8-7.8 10.3-10.3 16.2-2.8 6.9-4.1 14.2-4.1 21.6 0 5.1-1.3 9.9-3 14.7l-.2.8c-.3 7.8 0 15.7-.2 23.5 3-2.8 5.6-5.8 7.9-9.2 3.4-5.2 6.1-10.8 7.7-16.9 1-3.7 1.3-7.6 1.9-11.4-.4-6.3.6-12.5 3.1-18.3 1.9-4.4 4.5-8.5 7.9-12.1 3.6-3.9 7.9-7 12.8-9.3 12.5-5.8 27.4-4.8 39.1 2.6 0-5.2-.1-10.4.1-15.7-15.5-6.4-33.4-5.7-48.1 2.2z"/><linearGradient id="SVGID_2_" x1=".072" x2="394.359" y1="101.229" y2="101.229" gradientUnits="userSpaceOnUse"><stop offset=".029" stop-color="#f6d136" stop-opacity="0"/><stop offset=".254" stop-color="#f6d136"/><stop offset=".589" stop-color="#9bdb6b"/><stop offset="1" stop-color="#0cd6b1"/></linearGradient><path fill="url(#SVGID_2_)" d="M395 103.3c-3-7.9-7.8-14.9-13.9-20.7.2 7.8 0 15.6.1 23.4l.9 2.7c1.3 3.6 2.1 7.3 2.4 11.1 1.2-2.3 2.6-4.2 5.3-4.9 3.2-.9 5.6.6 7.8 2.8l.5.4c0-4.9-1.5-10.1-3.1-14.8z"/><linearGradient id="SVGID_3_" x1=".072" x2="394.359" y1="122.647" y2="122.647" gradientUnits="userSpaceOnUse"><stop offset=".029" stop-color="#f6d136" stop-opacity="0"/><stop offset=".254" stop-color="#f6d136"/><stop offset=".589" stop-color="#9bdb6b"/><stop offset="1" stop-color="#0cd6b1"/></linearGradient><path fill="url(#SVGID_3_)" d="M269.8 157.2c-4.6 2.8-9.4 4.6-14.7 5.8-7.7 1.1-15.4.5-22.6-2.4-5-2-9.5-5-13.4-8.7-3.1-3.1-5.7-6.5-7.7-10.3-3.5-6.7-5-14.1-4.6-21.6-.8-7.5-2.3-14.7-5.7-21.4-2.3-4.7-5.3-9-8.8-12.8-3.9-4.2-8.3-7.7-13.3-10.6-14-8-31.5-9.4-46.6-3.6-8.2 3.1-15.6 8.2-21.4 14.7-2.6 3-5.2 6.2-6.8 9.8-4.4-7.2-9.8-13.6-16.8-18.3-2.6-1.8-5.3-3.3-8.1-4.6-3.2-1.5-6.5-2.7-9.9-3.5-6.6-1.7-13.4-1.9-20.1-1.2-4 .3-8.1 1.5-11.9 2.8-7.1 2.5-13.6 6.7-19.1 11.8-3.1 2.8-5.8 6.3-8.2 9.7-2.6 3.8-4.4 7.9-6 12.2-1 2.8-1.7 5.9-2.2 8.8-.6 3.4-.6 6.8-.4 10.2 4.1-.7 13.2-.1 13.8 2.2-.1-3.5 0-7 .5-10.4.4-2.2 1-4.4 1.7-6.5 1.4-3.8 3.2-7.4 5.6-10.7 1.5-2 3.1-3.9 4.9-5.6 4.3-4.1 9.5-7.2 15.1-9.1 4.8-1.6 9.7-2.3 14.7-2.1 1 .1 2 .2 2.9.3 2.2.2 4.3.7 6.5 1.3 2.5.7 4.9 1.7 7.2 2.8 2 1 4 2.2 5.9 3.6 5.7 4.2 10.2 9.8 13.1 16.3l.5 1.3c1 2.7 1.7 6 4.1 7.8 3.8 3.2 9.9 2.7 13-1.3 1.6-2.3 2.2-5.3 3.4-7.8 2.4-5.5 6.1-10.2 10.5-14.3 4.3-3.4 8.8-6.3 14.1-7.9 11.2-3.7 23.9-2.3 33.9 3.8 3.2 2 6.2 4.4 8.8 7.1 2.9 3.2 5.4 6.7 7.2 10.6 2.9 6.2 4.2 13.1 3.8 20 .8 8 2.6 15.7 6.4 22.8 2.6 4.9 6 9.4 9.9 13.4 4.1 4.1 8.9 7.5 14.1 10.1 8.4 4.2 18 6.2 27.4 5.7 6.6-.4 12.9-1.9 19.1-4.5.1-5.3.2-10.5.2-15.7z"/><g><path d="M365.8 51.7h14.9l.2.5c.3 10.1-.1 20.3.2 30.5.2 7.8 0 15.6.1 23.4-5.1 1.5-10.3 2.7-15.4 4.1-3.7-5.7-8.8-10-15.4-11.8-9.7-2.8-20.4.8-26.6 8.7-5.4 6.6-6.9 16-4 24 3.6 10.3 14 17.4 25 16.8 8.8-.3 16.6-5.4 21-12.9 5 1.3 10.1 2.6 15.1 3.9-2.4 6.7-7.7 12.7-13.4 16.9-8.3 6-18.9 8.7-29.1 7.3-10.4-1.3-20.2-6.8-26.7-15.1-5.2-6.5-8.2-14.5-8.8-22.8-.4-6.3.6-12.5 3.1-18.3 1.9-4.4 4.5-8.5 7.9-12.1 3.6-3.9 7.9-7 12.8-9.3 12.5-5.8 27.4-4.8 39.1 2.6 0-5.2-.1-10.4.1-15.7 0-6.9-.3-13.8-.1-20.7zM58 81.8c1 .1 2 .2 2.9.3 2.2.2 4.3.7 6.5 1.3 2.5.7 4.9 1.7 7.2 2.8 2 1 4 2.2 5.9 3.6 5.7 4.2 10.2 9.8 13.1 16.3-5 1.6-10.2 2.8-15.4 4.1-3.6-5.9-9.3-10.4-16.1-12-8.9-2.2-18.4.8-24.6 7.5-6.9 7.4-8.7 18.7-4.2 27.8 4.5 9.7 15.2 15.6 25.8 14.2 8.1-.9 14.9-5.8 19.1-12.7 5.1 1.2 10.2 2.5 15.3 4-3.2 7.5-8.9 14-15.9 18.3-8 5-17.7 7-27 5.7-9.4-1.2-18.2-5.9-24.6-12.8-6.1-6.6-9.7-15.1-10.7-24-.1-3.5 0-7 .5-10.4.4-2.2 1-4.4 1.7-6.5 1.4-3.8 3.2-7.4 5.6-10.7 1.5-2 3.1-3.9 4.9-5.6 4.3-4.1 9.5-7.2 15.1-9.1 5-1.6 9.8-2.3 14.9-2.1zm115.1 5.8c3.2 2 6.2 4.4 8.8 7.1 2.9 3.2 5.4 6.7 7.2 10.6 2.9 6.2 4.2 13.1 3.8 20-.9 7.1-2.8 13.8-6.8 19.8-6.4 9.7-16.9 16.4-28.4 17.9-9.6 1.4-19.6-.9-27.8-6.1-.2 12.1 0 24.3-.1 36.4h-15.1c-.2-2.1-.2-4.4-.2-6.5V139c4.8-1.4 9.6-2.6 14.4-3.8 1.1-.5 1.5.9 2.1 1.5 3 4.6 7.6 8 12.7 9.8 9 3.1 19.3.8 26-6 7.1-6.9 9.4-17.9 5.7-27.1-3.8-9.6-13.7-16.4-24-16-9.1.1-16.8 5.2-21.6 12.7-5.1-1.4-10.3-2.5-15.3-4.2 2.4-5.5 6.1-10.2 10.5-14.3 4.3-3.4 8.8-6.3 14.1-7.9 11.3-3.6 24-2.2 34 3.9zm93.8-1c7.9 4.2 14.7 11.2 18.1 19.6-5 1.5-10.1 2.7-15.2 4-3.4-5.4-8.2-9.6-14.4-11.5-9.8-3.2-20.8.1-27.3 8.1-6.8 8.1-7.6 20.3-1.9 29.2 5.3 8.5 15.5 13.3 25.4 11.6 7.7-1.2 14.2-5.9 18.2-12.6 5.2 1.3 10.4 2.6 15.6 4.1-.3 7.8 0 15.7-.2 23.5-.2 10.3.1 20.5-.1 30.8H270c-.5-6.8 0-13.7-.2-20.5-.1-5.2 0-10.4 0-15.6-4.6 2.8-9.4 4.6-14.7 5.8-7.7 1.1-15.4.5-22.6-2.4-5-2-9.5-5-13.4-8.7-3.1-3.1-5.7-6.5-7.7-10.3-3.5-6.7-5-14.1-4.6-21.6.6-4.5 1.5-8.9 3.3-13.1 4.5-10.6 13.6-19.1 24.5-22.7 10.6-3.8 22.6-2.9 32.3 2.3zM389.8 115c3.2-.9 5.6.6 7.8 2.8.4.9.6 1.8.9 2.8v2.2c-.7 2.2-1.6 4-3.7 5.1-3.1 1.7-7.2.6-9.1-2.4-1.2-1.8-1-3.6-1.1-5.6 1.1-2.4 2.5-4.3 5.2-4.9z"/></g></svg>