<svg xmlns="http://www.w3.org/2000/svg" role="img" viewBox="-6.78 5.72 508.56 202.06"><title>Cryptowerk logo</title><style>svg {enable-background:new 0 0 500 200}</style><path fill="none" stroke="#5928b1" stroke-linejoin="round" stroke-miterlimit="2" stroke-width="8" d="M211.598 132.265h0c-2.1 0-3.9-.7-5.3-2.2h0c-1.4-1.4-2.2-3.2-2.2-5.3h0v-97.6h0c0-2.2.7-4 2.2-5.4h0c1.4-1.4 3.2-2.1 5.3-2.1h26.1c10.9 0 20.5 2.4 29 7.2h0c8.5 4.8 15 11.5 19.8 20h0c4.7 8.5 7.1 18.2 7.1 29h0c0 10.9-2.4 20.6-7.1 29.1h0c-4.7 8.6-11.3 15.2-19.8 20h0c-8.5 4.8-18.1 7.2-29 7.2h0-26.1zm7.5-13.3h18.6c8 0 15.1-1.8 21.4-5.5h0c6.3-3.7 11.2-8.8 14.7-15.4h0c3.5-6.6 5.3-14 5.3-22.3h0c0-8.3-1.8-15.7-5.3-22.2h0c-3.5-6.5-8.4-11.6-14.7-15.3h0c-6.3-3.5-13.4-5.3-21.4-5.3h0-18.6v86zm105.2 13.3h0c-2.1 0-3.9-.7-5.3-2.2h0c-1.4-1.4-2.1-3.2-2.1-5.3h0v-97.6h0c0-2.1.7-3.9 2.2-5.3h0c1.4-1.4 3.2-2.2 5.2-2.2h0c2.1 0 3.9.7 5.3 2.2h0c1.4 1.4 2.2 3.2 2.2 5.3h0v90.1h52.2c2.1 0 3.9.7 5.3 2.2h0c1.4 1.4 2.2 3.2 2.2 5.3h0c0 2.1-.7 3.9-2.2 5.3h0c-1.4 1.4-3.2 2.2-5.3 2.2h0-59.7zm157-112.6h0c2 0 3.7.6 5 1.9h0c1.3 1.3 2 2.9 2 5h0c0 2-.6 3.7-2 5h0c-1.3 1.3-2.9 1.9-5 1.9h0-31v91.2h0c0 2.1-.7 3.9-2.2 5.3h0c-1.4 1.4-3.2 2.2-5.3 2.2h0c-2.1 0-3.9-.7-5.3-2.2h0c-1.4-1.4-2.2-3.2-2.2-5.3h0v-91.1h-31.1 0c-2 0-3.7-.7-5-1.9h0c-1.3-1.3-1.9-3-1.9-5h0c0-2 .6-3.7 1.9-5h0c1.3-1.3 2.9-1.9 5-1.9h77.1z"/><path fill="#764bc4" d="M211.598 132.265c-2.1 0-3.9-.7-5.3-2.2-1.4-1.4-2.2-3.2-2.2-5.3v-97.6c0-2.2.7-4 2.2-5.4 1.4-1.4 3.2-2.1 5.3-2.1h26.1c10.9 0 20.5 2.4 29 7.2 8.5 4.8 15 11.5 19.8 20 4.7 8.5 7.1 18.2 7.1 29 0 10.9-2.4 20.6-7.1 29.1-4.7 8.6-11.3 15.2-19.8 20-8.5 4.8-18.1 7.2-29 7.2h-26.1zm7.5-13.3h18.6c8 0 15.1-1.8 21.4-5.5 6.3-3.7 11.2-8.8 14.7-15.4s5.3-14 5.3-22.3-1.8-15.7-5.3-22.2-8.4-11.6-14.7-15.3c-6.3-3.5-13.4-5.3-21.4-5.3h-18.6v86zm105.2 13.3c-2.1 0-3.9-.7-5.3-2.2-1.4-1.4-2.1-3.2-2.1-5.3v-97.6c0-2.1.7-3.9 2.2-5.3 1.4-1.4 3.2-2.2 5.2-2.2 2.1 0 3.9.7 5.3 2.2 1.4 1.4 2.2 3.2 2.2 5.3v90.1h52.2c2.1 0 3.9.7 5.3 2.2 1.4 1.4 2.2 3.2 2.2 5.3 0 2.1-.7 3.9-2.2 5.3-1.4 1.4-3.2 2.2-5.3 2.2h-59.7zm157-112.6c2 0 3.7.6 5 1.9 1.3 1.3 2 2.9 2 5 0 2-.6 3.7-2 5-1.3 1.3-2.9 1.9-5 1.9h-31v91.2c0 2.1-.7 3.9-2.2 5.3-1.4 1.4-3.2 2.2-5.3 2.2-2.1 0-3.9-.7-5.3-2.2-1.4-1.4-2.2-3.2-2.2-5.3v-91.1h-31.1c-2 0-3.7-.7-5-1.9-1.3-1.3-1.9-3-1.9-5s.6-3.7 1.9-5c1.3-1.3 2.9-1.9 5-1.9h77.1z"/><path fill="#5928b1" d="M134.473 187.162c-.5 0-1-.2-1.3-.5-.4-.4-.6-.8-.6-1.3v-33.9c0-.5.2-.9.6-1.3.4-.4.8-.5 1.3-.5s1 .2 1.3.5c.4.4.5.8.5 1.3v32.1h18.8c.5 0 1 .2 1.3.5.4.3.5.8.5 1.3s-.2.9-.5 1.3c-.4.3-.8.5-1.3.5h-20.6zm49.6-26.6c2.5 0 4.8.6 6.8 1.8 2 1.2 3.6 2.8 4.8 4.8 1.2 2 1.8 4.3 1.8 6.8v11.3c0 .5-.2.9-.5 1.3-.4.4-.8.5-1.3.5s-1-.2-1.3-.5c-.4-.3-.5-.8-.5-1.3v-2.9c-1.1 1.5-2.5 2.8-4.3 3.6-1.9 1-3.8 1.4-5.9 1.4-2.4 0-4.6-.6-6.6-1.8-2-1.2-3.5-2.8-4.7-4.8-1.1-2-1.7-4.3-1.7-6.8s.6-4.8 1.8-6.8c1.2-2.1 2.8-3.7 4.8-4.8 2.1-1.2 4.3-1.8 6.8-1.8zm0 23.4c1.8 0 3.5-.4 4.9-1.3 1.5-.9 2.6-2.1 3.5-3.6.9-1.5 1.3-3.2 1.3-5.1 0-1.9-.4-3.6-1.3-5.1-.8-1.5-2-2.7-3.5-3.6-1.5-.9-3.1-1.3-4.9-1.3-1.8 0-3.5.4-5 1.3s-2.7 2.1-3.5 3.6c-.9 1.5-1.3 3.2-1.3 5.1 0 1.9.4 3.6 1.3 5.1.8 1.5 2 2.7 3.5 3.6 1.5.9 3.2 1.3 5 1.3zm42.6-23.4c2.3 0 4.3.5 6.1 1.4 1.8 1 3.2 2.4 4.2 4.2 1 1.8 1.5 4.1 1.5 6.6v12.5c0 .5-.2.9-.5 1.3-.4.4-.8.5-1.3.5s-1-.2-1.3-.5c-.4-.4-.5-.8-.5-1.3v-12.5c0-2.9-.8-5-2.4-6.5-1.6-1.5-3.7-2.2-6.2-2.2-1.6 0-3 .3-4.2.9-1.3.6-2.3 1.4-3 2.5-.7 1.1-1.1 2.3-1.1 3.6v14.2c0 .5-.2 1-.5 1.3-.3.3-.8.5-1.3.5s-1-.2-1.3-.5c-.4-.3-.5-.8-.5-1.3v-22.5c0-.5.2-1 .5-1.4.3-.4.8-.5 1.3-.5s1 .2 1.3.5c.3.4.5.8.5 1.4v1.6c1.1-1.2 2.3-2.1 3.8-2.8 1.5-.7 3.2-1 4.9-1zm55 1.7V173.962c0 2.5-.6 4.8-1.8 6.8-1.2 2-2.8 3.7-4.8 4.8-2 1.2-4.3 1.8-6.8 1.8s-4.8-.6-6.8-1.8c-2-1.2-3.6-2.8-4.8-4.8-1.2-2.1-1.8-4.3-1.8-6.8s.6-4.8 1.7-6.8 2.7-3.6 4.7-4.8c2-1.2 4.2-1.8 6.6-1.8 2.1 0 4 .4 5.7 1.3 1.7.9 3.2 2.1 4.3 3.6v-14c0-.5.2-1 .5-1.3.4-.4.8-.5 1.3-.5s1 .2 1.3.5c.3.4.5.8.5 1.3v10.8zm-13.3 21.7c1.8 0 3.5-.4 4.9-1.3 1.5-.9 2.6-2.1 3.5-3.6.8-1.5 1.3-3.2 1.3-5.1 0-.5 0-.9-.1-1.2v-.2c-.3-2.5-1.4-4.6-3.1-6.2-1.8-1.6-3.9-2.4-6.5-2.4-1.8 0-3.5.4-5 1.3s-2.7 2.1-3.5 3.6c-.8 1.5-1.3 3.2-1.3 5.1 0 1.9.4 3.6 1.3 5.1.9 1.5 2 2.7 3.5 3.6 1.5.9 3.2 1.3 5 1.3zm40.8 3.4c-2 0-3.9-.3-5.7-1-1.8-.7-3.3-1.6-4.4-2.8-.3-.4-.5-.8-.5-1.1 0-.5.3-1 .8-1.4.4-.3.8-.4 1.2-.4.5 0 1 .2 1.4.7.8.9 1.8 1.6 3.1 2.1s2.7.7 4.2.7c2.2 0 3.9-.4 5.1-1.2 1.1-.8 1.7-1.8 1.7-3s-.6-2.1-1.7-2.9c-1.1-.8-2.9-1.3-5.3-1.7-3.1-.5-5.5-1.4-7-2.7-1.6-1.3-2.3-2.8-2.3-4.6 0-2.3.9-4.1 2.7-5.4 1.8-1.3 4.1-1.9 6.8-1.9 2.1 0 4 .4 5.5 1.1 1.6.7 2.8 1.7 3.8 3 .3.4.4.8.4 1.1 0 .5-.3 1-.8 1.3-.2.2-.5.2-.9.2-.7 0-1.2-.2-1.7-.7-1.6-1.8-3.7-2.7-6.4-2.7-1.8 0-3.2.4-4.2 1.1-1.1.7-1.6 1.6-1.6 2.7 0 1.2.5 2.1 1.5 2.8 1 .7 2.8 1.2 5.3 1.7 3.4.6 5.9 1.5 7.4 2.8 1.5 1.3 2.2 2.9 2.2 4.8 0 1.5-.4 2.8-1.3 3.9-.9 1.2-2.1 2.1-3.7 2.7-1.8.5-3.6.8-5.6.8zm38.1 0c-2.5 0-4.7-.6-6.7-1.8-2-1.2-3.5-2.8-4.7-4.8-1.1-2-1.7-4.3-1.7-6.8 0-2.6.5-4.9 1.6-6.9s2.6-3.6 4.5-4.8c1.9-1.2 4.1-1.7 6.5-1.7 4 0 7.3 1.5 9.8 4.6.3.3.4.6.4 1 0 .5-.3 1-.8 1.3-.3.2-.6.3-.9.3-.5 0-.9-.2-1.4-.7-1-1.1-2-1.9-3.2-2.4-1.2-.5-2.4-.8-3.9-.8-1.8 0-3.3.4-4.7 1.3-1.4.8-2.4 2-3.2 3.6-.8 1.5-1.1 3.3-1.1 5.2 0 1.9.4 3.6 1.2 5.1.8 1.5 1.9 2.7 3.4 3.6 1.4.9 3.1 1.3 5 1.3 2.6 0 4.6-.7 6.2-2.1.4-.4.8-.5 1.3-.5.4 0 .7.1 1 .4.5.4.7.8.7 1.3 0 .4-.2.8-.5 1.1-2.4 2.1-5.3 3.2-8.8 3.2zm38.5-26.8c2.5 0 4.8.6 6.8 1.8 2 1.2 3.6 2.8 4.8 4.8 1.2 2 1.8 4.3 1.8 6.8v11.3c0 .5-.2.9-.5 1.3-.4.4-.8.5-1.3.5s-1-.2-1.4-.5c-.4-.3-.5-.8-.5-1.3v-2.9c-1.1 1.5-2.5 2.8-4.3 3.6-1.7.9-3.6 1.3-5.7 1.3-2.4 0-4.6-.6-6.6-1.8-2-1.2-3.5-2.8-4.7-4.8-1.1-2-1.7-4.3-1.7-6.8s.6-4.8 1.8-6.8c1.2-2.1 2.8-3.7 4.8-4.8 1.9-1.1 4.1-1.7 6.7-1.7zm0 23.4c1.8 0 3.5-.4 4.9-1.3 1.5-.9 2.6-2.1 3.5-3.6.8-1.5 1.3-3.2 1.3-5.1 0-1.9-.4-3.6-1.3-5.1-.9-1.5-2-2.7-3.5-3.6-1.5-.9-3.1-1.3-4.9-1.3-1.8 0-3.5.4-5 1.3s-2.7 2.1-3.5 3.6c-.8 1.5-1.3 3.2-1.3 5.1 0 1.9.4 3.6 1.3 5.1.8 1.5 2 2.7 3.5 3.6 1.5.9 3.1 1.3 5 1.3zm43.5-23.4c2.5 0 4.8.6 6.8 1.8 2 1.2 3.6 2.8 4.8 4.8 1.2 2 1.8 4.3 1.8 6.8s-.6 4.8-1.7 6.8-2.7 3.6-4.7 4.8c-2 1.2-4.2 1.8-6.6 1.8-2.1 0-4-.4-5.7-1.3-1.7-.9-3.1-2.1-4.3-3.6v14.1c0 .5-.2 1-.5 1.3-.4.3-.8.5-1.4.5-.5 0-1-.2-1.3-.5-.3-.4-.5-.8-.5-1.3v-10.8-11.8c0-2.5.6-4.8 1.8-6.8 1.2-2.1 2.8-3.7 4.8-4.8 1.9-1.2 4.2-1.8 6.7-1.8zm0 23.4c1.8 0 3.5-.4 5-1.3s2.7-2.1 3.5-3.6c.8-1.5 1.3-3.2 1.3-5.1 0-1.9-.4-3.6-1.3-5.1-.8-1.5-2-2.7-3.5-3.6-1.5-.9-3.1-1.3-5-1.3-1.8 0-3.5.4-4.9 1.3-1.5.9-2.6 2.1-3.5 3.6-.9 1.5-1.3 3.2-1.3 5.1v1.2c0 .1.1.1.1.2.3 2.5 1.4 4.6 3.1 6.2 1.8 1.6 4 2.4 6.5 2.4zm41.4-23.4c2.4 0 4.5.6 6.3 1.7 1.8 1.1 3.2 2.6 4.2 4.6 1 2 1.5 4.2 1.5 6.7 0 .5-.2.9-.5 1.2-.3.3-.7.5-1.2.5h-19.4c.3 2.6 1.3 4.8 3.1 6.4 1.8 1.6 4 2.5 6.7 2.5 1.2 0 2.3-.2 3.5-.6 1.2-.4 2.1-.9 2.8-1.5.4-.3.8-.5 1.3-.5.4 0 .7.1 1.1.4.4.4.6.8.6 1.3 0 .4-.2.8-.5 1.1-1.1.9-2.4 1.6-4 2.2-1.6.6-3.2.9-4.7.9-2.6 0-4.9-.6-6.9-1.7s-3.6-2.7-4.7-4.8c-1.1-2-1.7-4.3-1.7-6.9 0-2.6.5-4.9 1.6-6.9s2.6-3.6 4.5-4.8c1.8-1.2 4-1.8 6.4-1.8zm0 3.4c-2.4 0-4.5.8-6.1 2.3-1.6 1.5-2.6 3.5-2.9 6h17.6c-.3-2.5-1.1-4.5-2.7-6-1.5-1.6-3.5-2.3-5.9-2.3z"/><g><path fill="#3b3b3b" d="M97.47263 45.58173c0-5.44477 4.43647-9.88125 9.88124-9.88125s9.88124 4.43648 9.88124 9.88125-4.43647 9.88124-9.88124 9.88124-9.88124-4.43648-9.88124-9.88124zM32.94207 91.7614c0-5.44477 4.43647-9.88124 9.88124-9.88124s9.88124 4.43647 9.88124 9.88124-4.43647 9.88124-9.88124 9.88124-9.88124-4.43648-9.88124-9.88124zm44.76807 45.37305c0-5.44477 4.43648-9.88124 9.88125-9.88124 5.44476 0 9.88124 4.43647 9.88124 9.88124 0 5.44476-4.43648 9.88124-9.88124 9.88124-5.44477 0-9.88125-4.43648-9.88125-9.88124zM11.76798 172.4246c0-5.44477 4.43647-9.88124 9.88124-9.88124s9.88124 4.43647 9.88124 9.88124-4.43647 9.88124-9.88124 9.88124-9.88124-4.23482-9.88124-9.88124zM149.9037 57.27789c0-5.44477 4.43647-9.88124 9.88124-9.88124s9.88124 4.43647 9.88124 9.88124-4.43647 9.88124-9.88124 9.88124-9.88124-4.43647-9.88124-9.88124zM81.7433 185.53238c0-5.44477 4.43647-9.88124 9.88124-9.88124 5.44476 0 9.88124 4.43647 9.88124 9.88124s-4.43648 9.88124-9.88124 9.88124c-5.44477 0-9.88125-4.43648-9.88125-9.88124zM21.64921 174.8445c-.20166 0-.60497 0-.80663-.20165-.20166 0-.40332-.20166-.60498-.40332-.20165-.20166-.60497-.60497-.80663-1.00829 0 0 0-.20166-.20166-.20166L3.5 118.98524c-.20166-1.0083 0-2.01658.80663-2.62156l103.2489-73.4035c1.00829-.60498 2.21824-.60498 3.02487.20165.80663.80663 1.00829 2.01658.20166 3.02487L28.9089 165.97155l57.67419-30.85367c.40331-.20166.80663-.20166 1.00829-.20166H181.564l-23.79564-76.02507-43.96144-38.91999c-1.0083-.80663-1.0083-2.21824-.20166-3.22653.80663-1.00829 2.21824-1.00829 3.22653-.20166l44.56641 39.32331c.40332.20166.60498.60498.60498 1.0083l25.00559 79.6549c.20166.60498 0 1.41161-.40332 2.01658-.40331.60498-1.20994 1.0083-1.81492 1.0083H88.19636l-65.53885 35.08849c-.20166 0-.20166.20165-.40332.20165-.20165 0-.20165 0-.40331.20166 0-.20166-.20166-.20166-.20166-.20166zM8.54145 119.1869l13.9144 47.9946L99.89252 54.25302 8.54145 119.1869zm79.04994 20.36745h-.40332c-.40332-.20165-.80663-.40331-1.00829-.60497l-69.1687-69.1687-8.87295 49.0029c-.20165 1.20995-1.4116 2.01658-2.62155 1.81492-1.20995-.20166-2.01658-1.4116-1.81492-2.62155l9.67958-53.23771c.20166-.80664.80663-1.61327 1.61327-1.81493.80663-.20165 1.81492 0 2.4199.60498l69.16869 69.1687 19.76248-86.10797-57.47253-14.51938c-1.00829-.20166-1.81492-1.20995-1.81492-2.4199s.80663-2.01658 1.81492-2.21823L114.81522 15.938c.80663-.20166 1.61326.20166 2.01658.60497.60497.60498.80663 1.41161.60497 2.21824l-5.64642 24.40062 48.39792 12.30114c.80663.20166 1.4116.80663 1.61326 1.61326.20166.80663 0 1.61327-.40332 2.21824l-71.9919 79.45325-.40332.40332c-.60497.20166-1.00829.40331-1.4116.40331zm23.19067-91.75439L91.8262 129.06814l63.52227-69.97533-44.56641-11.29285zM60.5692 30.25572l46.78466 11.89782 4.8398-20.97243-51.62446 9.0746zm31.05534 157.4949h-.40332L21.2459 174.8445c-1.20994-.20165-2.01658-1.4116-1.81492-2.62155.20166-1.20995 1.4116-2.01658 2.62156-1.81492l66.95045 12.5028-3.62984-44.96974L47.25979 30.65903c-.40332-1.20994.20165-2.62155 1.4116-3.02487 1.20995-.40331 2.62156.20166 3.02487 1.41161l38.31502 107.28206c0 .20165.20166.40331.20166.60497l4.03316 48.39792c0 .80663-.20166 1.4116-.80663 1.81492-.80663.40332-1.20995.60498-1.81492.60498zm0 0c-.40332 0-.80664 0-1.0083-.20166-1.20994-.60498-1.61326-2.01658-1.00828-3.22653l68.1604-127.85117c.60497-1.20995 2.01658-1.61327 3.22653-1.0083 1.20995.60498 1.61326 2.01659 1.00829 3.22654L93.64113 186.54067c-.40332.80663-1.20995 1.20995-2.01658 1.20995z"/></g></svg>