<svg xmlns="http://www.w3.org/2000/svg" role="img" viewBox="-13.16 -13.16 684.32 174.32"><title>Daml logo</title><style>.st0{fill:#233040;} .st1{fill:#4E80F9;}</style><style>.st0{fill:#233040}</style><style>.st0{fill:#233040}</style><style>.st0{fill:#233040}</style><style>.st0{fill:#233040}</style><style>.st0{fill:#233040}</style><path d="M0 146.23l16.28-51.72h32.47l-16.28 51.72zm74.79-51.72L62.18 54.45l-.41-1.29L78 1.6l16.64 52.85 12.62 40.06 16.28 51.72H91.07z" class="st0"/><path fill="#4e80f9" d="M61.36 54.45H28.9L45.54 1.6H78L61.77 53.16z"/><path d="M278.28 146.23h-25.74v-8.03c-7.96 6.73-17.23 10.09-27.8 10.09-15.38 0-27.94-5.63-37.69-16.89-8.51-9.89-12.77-21.55-12.77-35.01 0-14.69 4.77-27.05 14.31-37.07s21.11-15.04 34.7-15.04c10.98 0 20.39 3.09 28.21 9.27V0h26.77v146.23zm-26.78-35.01V81.36C245.32 73.12 237.08 69 226.79 69c-7.55 0-13.73 2.71-18.54 8.13-4.81 5.43-7.21 11.84-7.21 19.26 0 7.82 2.5 14.31 7.52 19.46 5.01 5.15 11.29 7.72 18.84 7.72 10.3.01 18.34-4.11 24.1-12.35zm153.43-64.87v99.88h-25.74v-8.03c-7.96 6.73-17.23 10.09-27.8 10.09-15.38 0-27.94-5.63-37.69-16.89-8.51-9.89-12.77-21.55-12.77-35.01 0-14.69 4.77-27.05 14.31-37.07s21.11-15.04 34.7-15.04c11.26 0 21.01 3.37 29.24 10.09v-8.03h25.75zm-26.77 64.87V81.36C371.98 73.12 363.74 69 353.45 69c-7.55 0-13.73 2.71-18.54 8.13-4.81 5.43-7.21 11.84-7.21 19.26 0 7.82 2.5 14.31 7.52 19.46 5.01 5.15 11.29 7.72 18.84 7.72 10.3.01 18.33-4.11 24.1-12.35zm84.43 35.01h-26.77V46.35h25.74v8.03c7.55-6.72 16.54-10.09 26.98-10.09 13.73 0 24.92 5.22 33.57 15.65 9.89-10.43 21.69-15.65 35.42-15.65 6.86 0 13.42 1.44 19.67 4.33 6.25 2.88 11.36 6.8 15.34 11.74 6.73 8.24 10.09 19.22 10.09 32.95v52.93h-26.77V92.28c0-7.69-1.65-13.39-4.94-17.09-3.71-4.12-8.72-6.18-15.03-6.18-5.22 0-9.99 1.37-14.31 4.12-4.33 2.75-7.59 5.77-9.78 9.06.55 4.39.82 8.1.82 11.12v52.93h-26.77V92.28c0-7.69-1.65-13.39-4.94-17.09-3.71-4.12-8.72-6.18-15.03-6.18-9.06 0-16.82 4.12-23.27 12.36v64.86zM658.24.01v146.22h-26.77V.01z" class="st0"/></svg>