<svg xmlns="http://www.w3.org/2000/svg" role="img" viewBox="-6.23 -6.23 323.70 127.70"><title>Decentralized Identity Foundation (member) logo</title><style>svg {enable-background:new 0 0 311.4 115.6}</style><path fill="#3a3f44" d="M140.4 57.6V20.7c0-1.1.1-1.6 1.4-1.6 12.1.1 24.2 0 36.4.2 7.3.1 14.2 1.8 20.4 5.9 5.7 3.8 9.4 9.1 11.2 15.6 3.1 10.8 3.3 21.7.4 32.5-3.3 12.3-11.6 19-23.7 21.7-4.1.9-8.2 1.1-12.3 1.1H142c-1.2 0-1.6-.3-1.6-1.6V57.6zm22.5.1v19.8c0 .6-.3 1.4.9 1.4 4.3-.1 8.7.2 13-.4 5.4-.7 9.3-3.5 10.9-8.9 2.3-7.8 2.1-15.6.2-23.4-1.4-5.4-4.9-8.5-10.5-9.4-4.3-.7-8.7-.3-13-.5-1.2 0-1.4.4-1.4 1.5-.1 6.7-.1 13.3-.1 19.9zm90.7-.2V21c0-1.3.2-1.8 1.7-1.8 18.1.1 36.3.1 54.4 0 1.3 0 1.7.3 1.7 1.7-.1 4.6-.1 9.1 0 13.7 0 1.2-.3 1.5-1.5 1.5-10.7 0-21.5 0-32.2-.1-1.3 0-1.6.3-1.6 1.6.1 3.4.1 6.8 0 10.1 0 1.3.4 1.5 1.5 1.5 9.2 0 18.5 0 27.7-.1 1.2 0 1.6.2 1.5 1.5-.1 4.7-.1 9.3 0 14 0 1.2-.3 1.6-1.6 1.6-9.2-.1-18.4 0-27.5-.1-1.4 0-1.7.4-1.7 1.7.1 8.9 0 17.7.1 26.6 0 1.2-.2 1.6-1.6 1.6-6.5-.1-13-.1-19.5 0-1.2 0-1.5-.3-1.5-1.5.2-12.3.1-24.6.1-37zm-33.1.1V20.7c0-1.3.4-1.6 1.6-1.6 6.4.1 12.9.1 19.3 0 1.2 0 1.6.2 1.6 1.6v73.7c0 1.3-.4 1.6-1.6 1.6-6.4-.1-12.9-.1-19.3 0-1.2 0-1.6-.3-1.6-1.6V57.6z"/><path fill="#3d7bbe" d="M46.8 57.7c0-6.4 5-11.4 11.4-11.4s11.5 5.1 11.5 11.5c0 6.1-5.3 11.3-11.4 11.4-6.3 0-11.5-5.2-11.5-11.5zm-14 9.9c-5.5 0-10-4.6-10-10.1.1-5.5 4.6-10 10.1-9.9 5.4.1 9.9 4.6 9.9 10 .1 5.5-4.5 10-10 10zm41.5-9.7c0-5.5 4.4-9.9 9.9-9.9 5.6 0 10 4.4 10 10 0 5.4-4.5 9.9-9.9 10-5.5-.1-10.1-4.6-10-10.1zm-5.8 25.8c0 5.5-4.4 9.9-9.9 10-5.5.1-10.1-4.5-10.1-10 0-5.4 4.4-9.9 9.9-9.9 5.7-.1 10.1 4.2 10.1 9.9zM68.2 32c0 5.5-4.4 9.9-9.9 10-5.5.1-10.1-4.5-10.1-10s4.7-10.1 10.1-10c5.6.1 9.9 4.5 9.9 10z"/><path fill="#4287c7" d="M84.3 23.9c4.7.1 8.6 4.1 8.5 8.7-.1 4.7-4 8.5-8.7 8.5-4.6 0-8.6-4.1-8.5-8.7.1-4.7 4.1-8.6 8.7-8.5zM32.8 91.8c-4.8 0-8.5-3.7-8.5-8.6 0-4.8 3.8-8.6 8.6-8.6 4.7 0 8.5 3.8 8.5 8.6 0 4.9-3.7 8.6-8.6 8.6zm51.4.3c-4.7 0-8.6-3.9-8.6-8.6 0-4.7 4-8.5 8.7-8.5 4.6 0 8.5 3.9 8.5 8.5 0 4.8-3.9 8.7-8.6 8.6zM41.4 32.3c0 4.6-3.9 8.5-8.5 8.5-4.7 0-8.6-3.9-8.6-8.6 0-4.8 3.8-8.6 8.6-8.6 4.7.1 8.5 3.9 8.5 8.7zm24.8 75.4c0 4.4-3.5 7.9-7.8 7.8-4.3 0-7.9-3.6-7.9-7.9 0-4.3 3.6-7.9 7.9-7.9 4.4.1 7.8 3.6 7.8 8zM15.7 57.8c0 4.4-3.4 7.9-7.8 7.9C3.6 65.6 0 62 0 57.8c0-4.3 3.6-7.9 7.9-7.9 4.4 0 7.8 3.5 7.8 7.9zm92.4 7.8c-4.3 0-7.8-3.6-7.8-7.9 0-4.3 3.6-7.8 7.9-7.8 4.3 0 7.8 3.6 7.8 7.9 0 4.4-3.5 7.9-7.9 7.8zM65.9 7.9c0 4.3-3.6 7.9-7.9 7.9-4.2-.1-7.8-3.7-7.8-7.8 0-4.4 3.6-8 7.9-8 4.4 0 7.8 3.4 7.8 7.9z"/><path fill="#5799d2" d="M40 8.2c0 3.9-3.3 7.2-7.1 7.2-3.9 0-7.2-3.3-7.2-7.2C25.7 4.4 29 1 32.9 1 36.7 1 40 4.4 40 8.2zm44.2 106.5c-4 0-7.1-3.1-7.1-7.1 0-3.9 3.1-7 7-7.1 4.1 0 7.2 3 7.2 7.1 0 4-3 7.1-7.1 7.1zM15.4 32.3c0 4-3.1 7.1-7.2 7.1-4 0-7.1-3.2-7-7.2.1-3.8 3.3-7 7.2-7 4-.1 7 3 7 7.1zM107.9 76c4 0 7.2 3.2 7.2 7.1 0 4-3.1 7.1-7.2 7.1-4 0-7-3-7.1-7 .1-4.1 3.1-7.2 7.1-7.2zM83.8 15.5c-4 0-7.3-3.2-7.2-7.1 0-3.9 3.3-7.2 7.2-7.2 3.8 0 7.1 3.3 7.1 7.1 0 4-3.2 7.2-7.1 7.2zM8.1 90.2c-3.8 0-7.2-3.3-7.2-7 0-4 3.3-7.2 7.3-7.2 3.9 0 7 3.2 7 7.1.1 3.9-3.2 7.1-7.1 7.1zm32.3 17.2c0 3.9-3.3 7.2-7.2 7.2-3.9-.1-7.1-3.4-7-7.3 0-3.8 3.3-7.1 7.1-7.1 3.9 0 7.2 3.2 7.1 7.2zm67.8-82.3c4 0 7.3 3.3 7.2 7.3-.1 3.8-3.4 7-7.2 6.9-3.9 0-7.1-3.2-7.1-7-.1-3.9 3.1-7.2 7.1-7.2z"/><path fill="#70aedf" d="M102.3 107.8c0-3.1 2.7-5.7 5.8-5.7 3 0 5.7 2.9 5.6 5.9-.1 3.1-2.9 5.7-5.9 5.6-3-.1-5.6-2.8-5.5-5.8zM8.7 2.3c3.1 0 5.7 2.7 5.7 5.8 0 3-2.8 5.7-5.9 5.6-3-.1-5.7-2.8-5.6-5.7 0-3.2 2.7-5.8 5.8-5.7zm5 105.6c0 3.2-2.7 5.8-5.8 5.7-3.1-.1-5.6-2.7-5.6-5.9 0-3 2.7-5.6 5.7-5.6 3.3.1 5.8 2.6 5.7 5.8zm89.2-99.4c0-3.2 2.4-5.7 5.5-5.7 3.2-.1 5.9 2.6 5.8 5.8 0 3.1-2.7 5.7-5.8 5.7-3-.2-5.5-2.7-5.5-5.8z"/></svg>