<svg xmlns="http://www.w3.org/2000/svg" role="img" viewBox="11.50 261.00 624.00 120.00"><title>dfinity logo</title><style>svg {enable-background:new 0 0 652 652}</style><path fill="#3f4043" d="M621.3 301.9c1 0 1.7.4 2.1 1.1.2.4.5 1.2-.3 2.3l-11.3 17.3v11.8c0 1.6-1 2.6-2.5 2.6h-1.6c-1.6 0-2.5-1-2.5-2.6v-11.8l-11.4-17.3c-.7-1.2-.5-2-.3-2.4.3-.7 1.1-1.1 2.1-1.1h2.1c1.3 0 2.1.5 2.7 1.6l8.1 13.1 8.2-13.1c.6-1 1.5-1.5 2.7-1.5h1.9zm-275.1 0h-17.8c-1.6 0-2.5 1-2.5 2.6v30c0 1.6 1 2.6 2.5 2.6h1.6c1.6 0 2.5-1 2.5-2.6v-11.8h11.6c1.6 0 2.5-1.1 2.5-2.6v-.7c0-1.6-1-2.6-2.5-2.6h-11.6v-9.2h13.7c1.6 0 2.5-1 2.5-2.6v-.7c.1-1.5-.9-2.4-2.5-2.4zm-68.9 0h-9.1c-1.6 0-2.5 1-2.5 2.6v30c0 1.6 1 2.6 2.5 2.6h9.2c10.6 0 17.9-7.2 17.9-17.5-.1-10.5-7.4-17.7-18-17.7zm11.1 17.5c0 6.9-4.6 11.7-11.2 11.7h-4.9v-23.5h4.9c6.6.1 11.2 4.9 11.2 11.8zM389 301.9h1.6c1.6 0 2.5 1 2.5 2.6v30c0 1.6-1 2.6-2.5 2.6H389c-1.6 0-2.5-1-2.5-2.6v-30c-.1-1.7.9-2.6 2.5-2.6zm67 0h-1.6c-1.6 0-2.5 1-2.5 2.6v20l-15.5-21.1c-.7-1-1.6-1.4-2.7-1.4h-.7c-1.6 0-2.5 1-2.5 2.6v30c0 1.6 1 2.6 2.5 2.6h1.6c1.6 0 2.5-1 2.5-2.6v-20.1l15.5 21.2c.7 1 1.6 1.4 2.7 1.4h.7c1.6 0 2.5-1 2.5-2.6v-30c0-1.7-1-2.6-2.5-2.6zm42.3 0h1.6c1.5 0 2.5 1 2.5 2.6v30c0 1.6-1 2.6-2.5 2.6h-1.6c-1.6 0-2.5-1-2.5-2.6v-30c0-1.7.9-2.6 2.5-2.6zm64.8 0h-23.5c-1.5 0-2.5 1-2.5 2.6v.7c0 1.5 1 2.6 2.5 2.6h8.4v26.7c0 1.6 1 2.6 2.5 2.6h1.6c1.6 0 2.5-1 2.5-2.6v-26.7h8.4c1.6 0 2.5-1 2.5-2.6v-.7c.2-1.7-.8-2.6-2.4-2.6z"/><linearGradient id="SVGID_1_" x1="146.673" x2="212.431" y1="371.535" y2="303.787" gradientTransform="matrix(1 0 0 -1 0 652)" gradientUnits="userSpaceOnUse"><stop offset=".21" stop-color="#f15a24"/><stop offset=".684" stop-color="#fbb03b"/></linearGradient><path fill="url(#SVGID_1_)" d="M171.7 273.4c-10.9 0-22.8 5.8-35.4 17.3-6 5.4-11.2 11.2-15 15.9 0 0 6.1 6.9 12.8 14.3 3.6-4.5 8.9-10.6 14.9-16.1 11.2-10.2 18.5-12.3 22.7-12.3 15.7 0 28.5 12.9 28.5 28.9 0 15.8-12.7 28.7-28.5 28.9-.7 0-1.7-.1-2.7-.3 4.6 2.1 9.5 3.6 14.2 3.6 28.8 0 34.4-19.5 34.8-20.9.8-3.6 1.3-7.3 1.3-11.2-.2-26.6-21.4-48.1-47.6-48.1z"/><linearGradient id="SVGID_2_" x1="96.118" x2="30.36" y1="289.79" y2="357.537" gradientTransform="matrix(1 0 0 -1 0 652)" gradientUnits="userSpaceOnUse"><stop offset=".21" stop-color="#ed1e79"/><stop offset=".893" stop-color="#522785"/></linearGradient><path fill="url(#SVGID_2_)" d="M71.1 369.3c10.9 0 22.8-5.8 35.4-17.3 6-5.4 11.2-11.2 15-15.9 0 0-6.1-6.9-12.8-14.3-3.6 4.5-8.9 10.6-14.9 16.1-11.2 10.2-18.5 12.3-22.7 12.3-15.7 0-28.5-12.9-28.5-28.9 0-15.8 12.7-28.7 28.5-28.9.7 0 1.7.1 2.7.3-4.6-2.1-9.5-3.6-14.2-3.6-28.8 0-34.4 19.5-34.8 20.9-.8 3.6-1.3 7.3-1.3 11.2.1 26.5 21.4 48.1 47.6 48.1z"/><path fill="#29abe2" d="M93 305.2c-3.1-3-18.5-15.2-33.3-15.6-26.3-.6-34 18-34.6 20.5 5-21 23.8-36.6 46.1-36.7 18.2 0 36.5 17.4 50.1 33.2 0 0 0-.1.1-.1 0 0 6.1 6.9 12.8 14.3 0 0 7.6 8.8 15.7 16.6 3.1 3 18.5 15.1 33.2 15.5 27 .7 34.4-19 34.9-20.5-5 21.1-23.8 36.8-46.1 36.9-18.2 0-36.5-17.5-50.2-33.2l-.1.1s-6.1-6.9-12.8-14.3c-.1-.1-7.7-8.9-15.8-16.7zm-68 5v-.2c.1.1.1.2 0 .2z"/></svg>