<svg xmlns="http://www.w3.org/2000/svg" role="img" viewBox="-11.03 -11.03 573.56 100.56"><title>Elliptic logo</title><path fill="#141B1F" fill-rule="evenodd" d="M7.6373 0h57.3039v15.5842l-7.6373 7.6511H30.1513v4.6471h27.8319v15.5841l-7.6373 7.6511H30.1513v4.6471h34.7899v15.5842L57.3039 79H0V7.65113L7.6373 0zM2.79968 8.13235H56.8235V20.4305l5.7983-5.8088V2.32353H8.598L2.79968 8.13235zM27.8319 23.0029h-5.7983v13.0118h27.8319v12.2982l5.7984-5.8088V30.2059h-27.832v-7.203zm0 27.9598h-5.7983v12.9344h34.7899v12.2982l5.7983-5.8089V58.0882H27.8319v-7.1255zM106.689 0H84.1751l-7.6373 7.65113V79h57.3042l7.637-7.6511V55.7647h-34.79V0zM79.3375 8.13235l5.7983-5.80882H104.37V58.0882h34.79v12.2982l-5.799 5.8089V63.8971H98.5714V8.13235H79.3375zM183.227 0h-22.514l-7.637 7.65113V79h57.304l7.637-7.6511V55.7647h-34.79V0zm-8.118 8.13235h-19.234l5.799-5.80882h19.234V58.0882h34.789v12.2982l-5.798 5.8088V63.8971h-34.79V8.13235zM237.251 0h22.514v71.3489L252.127 79h-22.514V7.65113L237.251 0zm-4.838 8.13235h19.234V76.1953l5.798-5.8089V2.32353h-19.234l-5.798 5.80882zM343.26 0h-64.261l-7.638 7.65113V79h22.514l7.638-7.6511V51.1176h34.11l7.637-7.6511V0zm-69.099 8.13235l5.798-5.80882h60.982V42.5041l-5.798 5.8088V8.13235h-60.982zm19.234 68.06295l5.798-5.8089V50.8853h-5.798v25.31zm8.118-48.3129v-5.8089h19.714v5.8089h-19.714zm19.714 2.3235h-20.394l-5.798 5.8088h26.192v-5.8088zm-27.832 4.1658l5.798-5.8088v-6.4894h-5.798v12.2982zM362.494 0h71.22v15.5842l-7.637 7.6511h-.48v.0774h-19.715v48.0362L398.245 79h-22.514V23.2353h-20.874V7.65113L362.494 0zm68.901 14.6217l-5.798 5.8088V8.13235h-67.94l5.798-5.80882h67.94V14.6217zm-27.832 55.7647l-5.798 5.8088V23.3127h5.798v47.0737zM552 0h-57.304l-7.637 7.65113V79h57.304L552 71.3489V55.7647h-34.79V23.2353h27.153L552 15.5842V0zm-62.141 8.13235l5.798-5.80882h54.024V14.6217l-5.799 5.8088V8.13235h-54.023zm54.023 68.06285l5.799-5.8088V58.0882h-34.79V23.0804h-5.799v40.8167h34.79v12.2981zM452.948 0h22.514v71.3489L467.825 79h-22.514V7.65113L452.948 0zm.961 2.32353l-5.798 5.80882h19.234V76.1952l5.798-5.8088V2.32353h-19.234z" clip-rule="evenodd"/></svg>