<svg xmlns="http://www.w3.org/2000/svg" role="img" viewBox="-3.20 -2.45 283.66 78.16"><title>Epidaurus Health logo</title><style>svg {enable-background:new 0 0 277 71.3}</style><style>.st0{fill:#00437a}</style><path d="M57.9 14.2H71v2.6H60.8v5.7h10V25h-10v6.1H71v2.6H57.9V14.2zM74.5 39V19.6h2.6v2c1-1.4 2.7-2.4 4.6-2.4 3.7 0 6.3 2.8 6.3 7.4S85.5 34 81.8 34c-1.8 0-3.5-.8-4.6-2.4V39h-2.7zm6.6-17.4c-1.6 0-3.2.9-3.9 2.1v6c.7 1.1 2.3 2.1 3.9 2.1 2.6 0 4.2-2.1 4.2-5.1 0-3-1.6-5.1-4.2-5.1zm9.9-6.1c0-.9.8-1.7 1.7-1.7.9 0 1.7.8 1.7 1.7s-.8 1.7-1.7 1.7c-.9 0-1.7-.7-1.7-1.7zm.4 4.1H94v14.1h-2.6V19.6zm16.8 12.1c-1.1 1.4-2.7 2.4-4.6 2.4-3.7 0-6.3-2.8-6.3-7.4 0-4.5 2.6-7.4 6.3-7.4 1.8 0 3.5.9 4.6 2.4v-7.4h2.6v19.5h-2.6v-2.1zm0-8.1c-.7-1.1-2.3-2.1-3.9-2.1-2.6 0-4.3 2.1-4.3 5.1 0 2.9 1.6 5.1 4.3 5.1 1.6 0 3.2-.9 3.9-2v-6.1zm15.6 8.5c-1.1 1.2-2.7 1.9-4.6 1.9-2.3 0-4.9-1.6-4.9-4.7 0-3.2 2.5-4.6 4.9-4.6 1.9 0 3.5.6 4.6 1.9v-2.3c0-1.8-1.4-2.8-3.4-2.8-1.6 0-3 .6-4.2 1.9l-1.1-1.8c1.6-1.5 3.5-2.3 5.8-2.3 3.1 0 5.7 1.3 5.7 4.9v9.5H124v-1.6zm0-3.9c-.8-1.1-2.2-1.6-3.6-1.6-1.9 0-3.2 1.1-3.2 2.8 0 1.7 1.3 2.8 3.2 2.8 1.5 0 2.8-.6 3.6-1.6v-2.4zm16.3 3.5c-1.1 1.2-2.9 2.3-5 2.3-3 0-4.5-1.5-4.5-4.5v-10h2.6v9.1c0 2.3 1.2 3 3 3 1.6 0 3.1-.9 3.9-2v-10h2.6v14.1h-2.6v-2zm6.8-12.1h2.6v2.2c1.1-1.4 2.7-2.5 4.6-2.5V22c-.3-.1-.6-.1-.9-.1-1.3 0-3.1 1-3.7 2v9.8h-2.6V19.6zm19.4 12.1c-1.1 1.2-2.9 2.3-5 2.3-3 0-4.5-1.5-4.5-4.5v-10h2.6v9.1c0 2.3 1.2 3 3 3 1.6 0 3.1-.9 3.9-2v-10h2.6v14.1h-2.6v-2zm6.8-1.8c1 1.1 2.8 2 4.7 2 2 0 3-.8 3-2 0-1.4-1.6-1.9-3.4-2.3-2.4-.6-5.2-1.2-5.2-4.2 0-2.2 1.9-4.2 5.4-4.2 2.4 0 4.2.9 5.4 2l-1.2 1.8c-.8-1-2.4-1.7-4.2-1.7-1.8 0-2.9.7-2.9 1.8 0 1.2 1.5 1.6 3.3 2 2.5.6 5.4 1.2 5.4 4.5 0 2.4-2 4.3-5.7 4.3-2.4 0-4.4-.7-5.9-2.2l1.3-1.8zm35-4.9h-10.8v8.7h-2.9V14.2h2.9v8.2h10.8v-8.2h2.9v19.5h-2.9V25zm13.3-5.8c4.2 0 6.9 3.3 6.9 7.6v.6h-11.2c.2 2.4 2 4.4 4.8 4.4 1.5 0 3.1-.6 4.2-1.7l1.2 1.7c-1.4 1.4-3.4 2.1-5.7 2.1-4.2 0-7.3-3-7.3-7.4.1-4 3-7.3 7.1-7.3zm-4.3 6.4h8.6c-.1-1.9-1.3-4.2-4.3-4.2-2.8 0-4.1 2.3-4.3 4.2zm23.2 6.5c-1.1 1.2-2.7 1.9-4.6 1.9-2.3 0-4.9-1.6-4.9-4.7 0-3.2 2.5-4.6 4.9-4.6 1.9 0 3.5.6 4.6 1.9v-2.3c0-1.8-1.4-2.8-3.4-2.8-1.6 0-3 .6-4.2 1.9l-1.1-1.8c1.6-1.5 3.5-2.3 5.8-2.3 3.1 0 5.7 1.3 5.7 4.9v9.5h-2.6v-1.6zm0-3.9c-.8-1.1-2.2-1.6-3.6-1.6-1.9 0-3.2 1.1-3.2 2.8 0 1.7 1.3 2.8 3.2 2.8 1.5 0 2.8-.6 3.6-1.6v-2.4zm6.8-14h2.6v19.5h-2.6V14.2zm7.4 16.4v-8.7h-2.3v-2.3h2.3v-3.9h2.6v3.9h2.9v2.3h-2.9V30c0 1 .5 1.7 1.4 1.7.6 0 1.2-.3 1.4-.6l.7 2c-.6.5-1.4.9-2.7.9-2.3 0-3.4-1.2-3.4-3.4zm17.9-6c0-2.3-1.2-3-3-3-1.6 0-3.1 1-3.9 2v10.1h-2.6V14.2h2.6v7.4c.9-1.1 2.8-2.3 5-2.3 3 0 4.5 1.5 4.5 4.5v10h-2.6v-9.2z" class="st0"/><path d="M57.9 47c0-2.9 2.1-4.9 4.8-4.9 1.7 0 2.9.8 3.6 1.9l-1 .5c-.5-.8-1.5-1.4-2.6-1.4-2 0-3.6 1.6-3.6 3.8 0 2.2 1.6 3.8 3.6 3.8 1.1 0 2.1-.6 2.6-1.4l1 .5c-.8 1.1-1.9 1.9-3.6 1.9-2.7.1-4.8-1.8-4.8-4.7zm9.3 1.2c0-2 1.3-3.6 3.4-3.6 2.1 0 3.4 1.6 3.4 3.6s-1.3 3.6-3.4 3.6c-2.1 0-3.4-1.6-3.4-3.6zm5.6 0c0-1.4-.8-2.6-2.3-2.6-1.4 0-2.3 1.2-2.3 2.6 0 1.4.8 2.6 2.3 2.6 1.5.1 2.3-1.2 2.3-2.6zm2.3 0c0-2 1.3-3.6 3.4-3.6 2.1 0 3.4 1.6 3.4 3.6s-1.3 3.6-3.4 3.6c-2.1 0-3.4-1.6-3.4-3.6zm5.6 0c0-1.4-.8-2.6-2.3-2.6-1.4 0-2.3 1.2-2.3 2.6 0 1.4.8 2.6 2.3 2.6 1.5.1 2.3-1.2 2.3-2.6zm2.7-3.3h1.1V46c.5-.7 1.3-1.2 2.3-1.2v1.1h-.4c-.6 0-1.5.5-1.8 1.1v4.8h-1.1v-6.9zm9.3 5.7c-.5.7-1.3 1.2-2.3 1.2-1.8 0-3-1.4-3-3.6s1.2-3.6 3-3.6c.9 0 1.7.5 2.3 1.2v-3.6h1.1v9.4h-1.1v-1zm0-3.9c-.4-.6-1.2-1.1-2-1.1-1.4 0-2.2 1.1-2.2 2.6s.8 2.6 2.2 2.6c.8 0 1.7-.5 2-1.1v-3zm2.8-3.7c0-.4.3-.7.7-.7.4 0 .7.3.7.7 0 .4-.3.7-.7.7-.4 0-.7-.3-.7-.7zm.2 1.9h1.1v6.8h-1.1v-6.8zm7.5 2.3c0-1.2-.6-1.6-1.5-1.6-.8 0-1.6.5-2 1.1v5h-1.1v-6.8h1.1v1c.5-.6 1.4-1.2 2.4-1.2 1.4 0 2.2.7 2.2 2.2v4.8h-1.1v-4.5zm7.2 3.7c-.6.6-1.3.9-2.3.9-1.2 0-2.4-.8-2.4-2.3 0-1.5 1.2-2.2 2.4-2.2.9 0 1.7.3 2.3.9V47c0-.9-.7-1.4-1.7-1.4-.8 0-1.5.3-2.1.9l-.5-.7c.7-.8 1.6-1.1 2.7-1.1 1.4 0 2.6.6 2.6 2.3v4.7h-1.1v-.8zm0-2c-.4-.6-1.1-.8-1.9-.8-1 0-1.7.6-1.7 1.5s.7 1.5 1.7 1.5c.7 0 1.5-.3 1.9-.8v-1.4zm3.2 1.3v-4.4h-1.1v-.9h1.1V43h1.1v1.9h1.4v.9h-1.4V50c0 .5.2.9.7.9.3 0 .6-.1.7-.3l.3.8c-.3.3-.6.4-1.3.4-1 0-1.5-.6-1.5-1.6zm6.5-5.5c2.1 0 3.3 1.6 3.3 3.6v.3h-5.5c.1 1.3 1 2.3 2.4 2.3.8 0 1.6-.3 2.1-.9l.5.7c-.7.7-1.6 1-2.7 1-2 0-3.5-1.4-3.5-3.6.1-1.8 1.5-3.4 3.4-3.4zm-2.2 3.1h4.5c0-1-.7-2.3-2.2-2.3-1.5.1-2.3 1.3-2.3 2.3zm12 2.8c-.5.7-1.3 1.2-2.3 1.2-1.8 0-3-1.4-3-3.6s1.2-3.6 3-3.6c.9 0 1.7.5 2.3 1.2v-3.6h1.1v9.4h-1.1v-1zm0-3.9c-.4-.6-1.2-1.1-2-1.1-1.4 0-2.2 1.1-2.2 2.6s.8 2.6 2.2 2.6c.8 0 1.7-.5 2-1.1v-3zm6.4.3c0-2.9 2.1-4.9 4.8-4.9 1.7 0 2.9.8 3.6 1.9l-1 .5c-.5-.8-1.5-1.4-2.6-1.4-2 0-3.6 1.6-3.6 3.8 0 2.2 1.6 3.8 3.6 3.8 1.1 0 2.1-.6 2.6-1.4l1 .5c-.8 1.1-1.9 1.9-3.6 1.9-2.7.1-4.8-1.8-4.8-4.7zm14.1 3.9c-.6.6-1.3.9-2.3.9-1.2 0-2.4-.8-2.4-2.3 0-1.5 1.2-2.2 2.4-2.2.9 0 1.7.3 2.3.9V47c0-.9-.7-1.4-1.7-1.4-.8 0-1.5.3-2.1.9l-.5-.7c.7-.8 1.6-1.1 2.7-1.1 1.4 0 2.6.6 2.6 2.3v4.7h-1.1v-.8zm0-2c-.4-.6-1.1-.8-1.9-.8-1 0-1.7.6-1.7 1.5s.7 1.5 1.7 1.5c.7 0 1.5-.3 1.9-.8v-1.4zm3-4h1.1V46c.5-.7 1.3-1.2 2.3-1.2v1.1h-.4c-.6 0-1.5.5-1.8 1.1v4.8h-1.1v-6.9zm7.3-.2c2.1 0 3.3 1.6 3.3 3.6v.3h-5.5c.1 1.3 1 2.3 2.4 2.3.8 0 1.6-.3 2.1-.9l.5.7c-.7.7-1.6 1-2.7 1-2 0-3.5-1.4-3.5-3.6 0-1.8 1.4-3.4 3.4-3.4zm-2.3 3.1h4.5c0-1-.7-2.3-2.2-2.3-1.5.1-2.2 1.3-2.3 2.3zM165 53c.5-.3.9-.8.9-1.3h-.2c-.4 0-.7-.3-.7-.7 0-.4.3-.8.7-.8.5 0 .9.4.9 1.1 0 .9-.5 1.7-1.2 2.1l-.4-.4zm7.3-3.6c.6.7 1.6 1.3 3 1.3 1.7 0 2.2-.9 2.2-1.6 0-1.1-1.1-1.4-2.4-1.8-1.5-.4-3.2-.8-3.2-2.7 0-1.5 1.4-2.6 3.2-2.6 1.4 0 2.5.5 3.3 1.3l-.7.9c-.7-.8-1.7-1.1-2.7-1.1-1.1 0-1.9.6-1.9 1.5s1.1 1.2 2.3 1.5c1.5.4 3.3.9 3.3 2.9 0 1.4-.9 2.8-3.5 2.8-1.6 0-2.8-.6-3.6-1.5l.7-.9zm12.5 1.3c-.5.6-1.4 1.1-2.4 1.1-1.4 0-2.2-.7-2.2-2.2v-4.8h1.1v4.5c0 1.2.6 1.5 1.5 1.5.8 0 1.6-.5 2-1v-5h1.1v6.8h-1.1v-.9zm3 3.5v-9.4h1.1v1c.5-.7 1.3-1.2 2.3-1.2 1.8 0 3 1.4 3 3.6s-1.2 3.6-3 3.6c-.9 0-1.7-.4-2.3-1.2v3.6h-1.1zm3.1-8.6c-.8 0-1.7.5-2 1.1v3.1c.4.6 1.2 1.1 2 1.1 1.4 0 2.2-1.1 2.2-2.6-.1-1.6-.9-2.7-2.2-2.7zm7.8-.9c2.1 0 3.3 1.6 3.3 3.6v.3h-5.5c.1 1.3 1 2.3 2.4 2.3.8 0 1.6-.3 2.1-.9l.5.7c-.7.7-1.6 1-2.7 1-2 0-3.5-1.4-3.5-3.6 0-1.8 1.4-3.4 3.4-3.4zm-2.3 3.1h4.5c0-1-.7-2.3-2.2-2.3-1.5.1-2.2 1.3-2.3 2.3zm7.1-2.9h1.1V46c.5-.7 1.3-1.2 2.3-1.2v1.1h-.4c-.6 0-1.5.5-1.8 1.1v4.8h-1.1v-6.9zm4.2-1.9c0-.4.3-.7.7-.7.4 0 .7.3.7.7 0 .4-.3.7-.7.7-.3 0-.7-.3-.7-.7zm.2 1.9h1.1v6.8h-1.1v-6.8zm2.6 3.3c0-2 1.3-3.6 3.4-3.6 2.1 0 3.4 1.6 3.4 3.6s-1.3 3.6-3.4 3.6c-2.1 0-3.4-1.6-3.4-3.6zm5.6 0c0-1.4-.8-2.6-2.3-2.6-1.4 0-2.3 1.2-2.3 2.6 0 1.4.8 2.6 2.3 2.6 1.5.1 2.3-1.2 2.3-2.6zm2.6-3.3h1.1V46c.5-.7 1.3-1.2 2.3-1.2v1.1h-.4c-.6 0-1.5.5-1.8 1.1v4.8h-1.1v-6.9zm8.5 4.5c.6.7 1.6 1.3 3 1.3 1.7 0 2.2-.9 2.2-1.6 0-1.1-1.1-1.4-2.4-1.8-1.5-.4-3.2-.8-3.2-2.7 0-1.5 1.4-2.6 3.2-2.6 1.4 0 2.5.5 3.3 1.3l-.7.9c-.7-.8-1.7-1.1-2.7-1.1-1.1 0-1.9.6-1.9 1.5s1.1 1.2 2.3 1.5c1.5.4 3.3.9 3.3 2.9 0 1.4-.9 2.8-3.5 2.8-1.6 0-2.8-.6-3.6-1.5l.7-.9zm10.9-4.7c2.1 0 3.3 1.6 3.3 3.6v.3h-5.5c.1 1.3 1 2.3 2.4 2.3.8 0 1.6-.3 2.1-.9l.5.7c-.7.7-1.6 1-2.7 1-2 0-3.5-1.4-3.5-3.6 0-1.8 1.4-3.4 3.4-3.4zm-2.3 3.1h4.5c0-1-.7-2.3-2.2-2.3-1.5.1-2.2 1.3-2.3 2.3zm10.1-3.1c1.2 0 2 .5 2.5 1.2l-.7.6c-.5-.6-1-.9-1.7-.9-1.4 0-2.3 1.1-2.3 2.6s.9 2.6 2.3 2.6c.7 0 1.3-.3 1.7-.9l.7.6c-.5.7-1.3 1.2-2.5 1.2-2 0-3.4-1.5-3.4-3.6 0-1.9 1.4-3.4 3.4-3.4zm8.3 6c-.5.6-1.4 1.1-2.4 1.1-1.4 0-2.2-.7-2.2-2.2v-4.8h1.1v4.5c0 1.2.6 1.5 1.5 1.5.8 0 1.6-.5 2-1v-5h1.1v6.8h-1.1v-.9zm3-5.8h1.1V46c.5-.7 1.3-1.2 2.3-1.2v1.1h-.4c-.6 0-1.5.5-1.8 1.1v4.8h-1.1v-6.9zm4.3-1.9c0-.4.3-.7.7-.7.4 0 .7.3.7.7 0 .4-.3.7-.7.7-.4 0-.7-.3-.7-.7zm.1 1.9h1.1v6.8h-1.1v-6.8zm3.3 5.3v-4.4h-1.1v-.9h1.1V43h1.1v1.9h1.4v.9H266V50c0 .5.2.9.7.9.3 0 .6-.1.7-.3l.3.8c-.3.3-.6.4-1.3.4-1 0-1.5-.6-1.5-1.6zm4.6 3.3c.5 0 .8-.2 1-.7l.5-1-2.8-6.9h1.1l2.3 5.6 2.3-5.6h1.2l-3.4 8.2c-.4 1-1.1 1.4-2 1.4-.2 0-.6 0-.8-.1l.2-1c-.1 0 .2.1.4.1z" class="st0"/><path d="M36.4 19.4c2.5 0 4.9.6 7 1.6l3.4-7.1c-3.2-1.5-6.7-2.3-10.4-2.4v7.9zm-14 6.4c1.5-1.8 3.4-3.4 5.6-4.5l-3.4-7.1c-3.2 1.6-6.1 3.9-8.3 6.7l6.1 4.9z" class="st0"/><path fill="#00437a" d="M22.4 48.5l-6.1 4.9c2.3 2.8 5.1 5 8.3 6.6l3.4-7.1c-2.1-1.1-4-2.6-5.6-4.4z" opacity=".45"/><path fill="#00437a" d="M18.3 37.1c0-1.2.1-2.4.4-3.6l-7.6-1.7c-.4 1.7-.6 3.5-.6 5.3 0 1.8.2 3.6.6 5.3l7.6-1.7c-.2-1.1-.4-2.3-.4-3.6z" opacity=".75"/><path fill="#00437a" d="M43.4 53.2c-2.1 1-4.5 1.6-7 1.6v7.8c3.7-.1 7.3-.9 10.4-2.4l-3.4-7z" opacity=".15"/><path fill="#00437a" d="M18.9 32.9c.6-2.4 1.7-4.6 3.1-6.5l-6.1-4.9c-2.2 2.8-3.8 6.1-4.6 9.6l7.6 1.8z" opacity=".9"/><path d="M28.7 21c2.1-1 4.5-1.6 7-1.6v-7.8c-3.7.1-7.3.9-10.4 2.4l3.4 7z" class="st0"/><path fill="#00437a" d="M35.7 54.8c-2.5 0-4.9-.6-7-1.6l-3.4 7.1c3.2 1.5 6.7 2.3 10.4 2.4v-7.9z" opacity=".3"/><path fill="#00437a" d="M22 47.9c-1.4-1.9-2.5-4.1-3.1-6.5l-7.6 1.7c.9 3.5 2.5 6.8 4.6 9.6l6.1-4.8z" opacity=".6"/><path d="M36 64C20.9 64 8.7 51.7 8.7 36.6S20.9 9.3 36 9.3V3C17.5 3 2.4 18.1 2.4 36.6S17.5 70.3 36 70.3V64z" class="st0"/><path d="M36.1 22.8c-7.9 0-14.3 6.4-14.3 14.3s6.4 14.3 14.3 14.3S50.4 45 50.4 37.1 44 22.8 36.1 22.8zm0 26.8c-6.9 0-12.4-5.6-12.4-12.4s5.6-12.4 12.4-12.4 12.4 5.6 12.4 12.4S43 49.6 36.1 49.6z" class="st0"/><path d="M36 46.5l-.1 1.9c-.1.2-.3.3-.6.2l-.1-1.8c.2-.1.5-.1.8-.3zm-.1-6.9c-.2.1-.5.3-.7.4V45.4h.1c.2-.1.5-.2.7-.4v-5.5l-.1.1zm.2-10c-.4 0-.7.1-1 .2v8h.1c.3-.2.6-.3.9-.5v-.6l.1-5.3-.1-1.8zm-1-3.4V27.9c.3-.1.7-.1 1.1-.1h.1V26c0-.1-.1-.1-.1-.1-.1.1-1.1.3-1.1.3z" class="st0"/><path d="M37.5 44.8c-.2.6-1.2 1-1.9 1.4-.6.4-1 .5-1.3.7-.4.2-.6-.1-.2-.4.5-.3 1.8-1 2.2-1.4.5-.4.5-1.1 0-1.5-.1 0 0-.9 0-1.1.3.1.5.3.7.4.5.5.7 1.3.5 1.9zm-1-11.6s-.1 0-.1-.1V35c0 .1.1.1.1.2.5.6.4 1.5-.2 2.1-.4.4-1 .6-1.5.9-.9.5-1.6 1.3-1.6 2.4 0 1.1.7 2 1.7 2.4v-.7-.4c0-.2-.2-.2-.3-.4-.3-.5-.2-1.1.1-1.6.4-.5 2.3-1.4 2.8-1.7.4-.3.7-.8.8-1.2.3-.9.1-2-.5-2.8-.3-.4-.8-.7-1.3-1zm1.7-5c-.2-.1-.5 0-.9.1-.9-.2-1.8-.2-2.6 0-.1 0-.3.1-.4.1-.1 0-.3.1-.4.2-.3.1-.5.3-.7.5-.4.3-.8.8-.9 1.3-.3.9-.1 2.1.5 2.8.5.6 1.3.9 2 1.2V33v-.3c0-.1-.2-.1-.3-.2-.4-.2-.6-.4-.8-.8-.1-.4-.1-.8 0-1.2.2-.4.6-.7 1-.8.6-.3 1.3-.3 2-.2.1.2.3.4.8.5.6.2 1.7.4 2.2.3.2-.1.4-.5.4-.6 0-.4-1.3-1.3-1.9-1.5zm.6.8c0 .1-.3.1-.4 0-.2-.1-.3-.3-.2-.4 0-.1.2 0 .4.1.1.1.3.2.2.3z" class="st0"/></svg>