<svg xmlns="http://www.w3.org/2000/svg" role="img" viewBox="-6.45 -6.45 335.66 168.91"><title>Equinix logo</title><style>svg {enable-background:new 0 0 323 156.1}</style><path d="M0 120.7v32.9h29.4v-4.2H4.8v-10.8h15.9v-4.3H4.8V125h23.8v-4.3zm130.5 19.8c0 5.9-3.9 9.8-9.7 9.8-5.6 0-9.1-3.9-9.1-9.8v-19.7h-4.8v20c0 9 6.5 13.9 13.9 13.9 10.9 0 14.4-7.4 14.4-13.9v-20h-4.7v19.7zm31.2-19.8h4.7v32.9h-4.7zm61.2 0v25.8l-23.4-25.8h-4.7v32.9h4.8v-26l23.4 26h4.6v-32.9zm33.4 0h4.7v32.9h-4.7zm58.6-.1L304 132.5l-10.6-11.9h-6.2l13.3 15.2-16.6 17.8h6l13.6-14.6 13 14.6h6.5l-16-17.9 13.7-15.1zm-249.6-1.3c-9.8.1-17.4 7.5-17.4 17.9v.1c0 10.3 7.8 17.6 17.5 17.5 2.5 0 5.5-.7 7.7-1.8l2.7 3.1h5.5l-4.7-5.4c3.8-2.9 6.3-7.8 6.3-13.7v-.1c0-10.3-7.8-17.6-17.6-17.6M78 137.1c0 4.7-1.5 7.7-4.3 10.3l-2.6-3h-5.5l4.5 5.2c-1.1.5-3.1 1-4.6 1-7.1 0-12.7-5.6-12.7-13.4v-.1c0-7.9 5.3-13.5 12.3-13.5 7.1-.1 12.7 5.6 12.7 13.4v.1z"/><path fill="#ed1c24" d="M164.1 0l-13.5 4.7v70.4l-8.9-3.1V7.8l-26.8 9.4v45.4l-9-3.1V20.3L97 23.4v42.4l26.8 9.4V23.5l8.9-3.1v57.9l26.9 9.4V11l4.5-1.5 4.4 1.5v76.7l26.9-9.4V20.4l8.9 3.1v51.7l26.9-9.4V23.4l-9-3.1v39.2l-8.9 3.1V17.2l-26.9-9.4V72l-8.9 3.1V4.7zm84.2 62.9c4.5 0 8.1-3.7 8.1-8.1v-.1c0-4.4-3.5-8.1-8.1-8.1-4.5 0-8.1 3.7-8.1 8.1 0 4.5 3.6 8.2 8.1 8.2m0-.9c-4.1 0-7.1-3.2-7.1-7.2 0-3.9 3.1-7.2 7.1-7.2 4.1 0 7.1 3.2 7.1 7.2v.1c0 3.8-3.1 7.1-7.1 7.1m-3.3-3.2h2v-2.6h1.3l1.8 2.6h2.5l-2.1-3c1.1-.4 1.9-1.2 1.9-2.6 0-1.9-1.4-2.8-3.4-2.8h-4v8.4zm2-4.3v-2.3h1.8c.9 0 1.4.4 1.4 1.2 0 .7-.5 1.2-1.4 1.2H247z"/></svg>