<svg xmlns="http://www.w3.org/2000/svg" role="img" viewBox="-9.33 -9.33 485.16 126.16"><title>Federal Reserve Bank of Boston (member) logo</title><style>svg {enable-background:new 0 0 467 108}</style><path fill="#0b3c5f" d="M176.7 44.6h-3.4V15.7h16.1v3h-12.7v10.6h12v3h-12v12.3zm26.2.4c-3.2 0-5.7-1-7.6-2.9-1.8-1.9-2.8-4.7-2.8-8.1 0-3.5.9-6.3 2.6-8.3 1.7-2.1 4-3.1 6.9-3.1 2.7 0 4.9.9 6.4 2.7 1.6 1.8 2.4 4.1 2.4 7.1v2.1h-14.9c.1 2.5.7 4.5 1.9 5.8s2.9 2 5.1 2c2.3 0 4.6-.5 6.9-1.5v2.9c-1.2.5-2.3.9-3.3 1.1-.9.1-2.1.2-3.6.2zm-.9-19.7c-1.7 0-3.1.6-4.2 1.7s-1.6 2.7-1.8 4.7h11.3c0-2.1-.5-3.6-1.4-4.7-.9-1.2-2.2-1.7-3.9-1.7zm29.2 16.4h-.2c-1.5 2.2-3.8 3.3-6.8 3.3-2.8 0-5-1-6.6-2.9-1.6-1.9-2.4-4.7-2.4-8.2s.8-6.3 2.4-8.3 3.8-3 6.6-3c2.9 0 5.2 1.1 6.7 3.2h.3l-.1-1.6-.1-1.5v-8.8h3.3v30.7h-2.7l-.4-2.9zm-6.6.5c2.2 0 3.9-.6 4.9-1.8 1-1.2 1.5-3.2 1.5-5.9v-.7c0-3.1-.5-5.3-1.5-6.6-1-1.3-2.6-2-4.9-2-1.9 0-3.4.7-4.4 2.2s-1.5 3.6-1.5 6.3c0 2.8.5 4.8 1.5 6.3s2.4 2.2 4.4 2.2zm25.7 2.8c-3.2 0-5.7-1-7.6-2.9-1.8-1.9-2.8-4.7-2.8-8.1 0-3.5.9-6.3 2.6-8.3 1.7-2.1 4-3.1 6.9-3.1 2.7 0 4.9.9 6.4 2.7 1.6 1.8 2.4 4.1 2.4 7.1v2.1h-14.9c.1 2.5.7 4.5 1.9 5.8s2.9 2 5.1 2c2.3 0 4.6-.5 6.9-1.5v2.9c-1.2.5-2.3.9-3.3 1.1-.9.1-2.1.2-3.6.2zm-.9-19.7c-1.7 0-3.1.6-4.2 1.7s-1.6 2.7-1.8 4.7h11.3c0-2.1-.5-3.6-1.4-4.7-.8-1.2-2.1-1.7-3.9-1.7zm24.3-2.8c1 0 1.8.1 2.6.2l-.5 3c-.9-.2-1.7-.3-2.4-.3-1.8 0-3.2.7-4.5 2.1s-1.9 3.2-1.9 5.3v11.6h-3.3V22.9h2.7l.4 4h.2c.8-1.4 1.8-2.5 2.9-3.3 1.2-.7 2.5-1.1 3.8-1.1zm20 22.1l-.7-3.1h-.2c-1.1 1.4-2.2 2.3-3.2 2.8-1.1.5-2.4.7-4 .7-2.1 0-3.8-.6-5-1.7-1.2-1.1-1.8-2.7-1.8-4.7 0-4.4 3.5-6.7 10.5-6.9l3.7-.1v-1.3c0-1.7-.4-3-1.1-3.8-.7-.8-1.9-1.2-3.5-1.2-1.8 0-3.8.6-6.1 1.7l-1-2.5c1.1-.6 2.2-1 3.5-1.4 1.3-.3 2.5-.5 3.8-.5 2.6 0 4.5.6 5.7 1.7 1.2 1.1 1.9 3 1.9 5.5v14.8h-2.5zm-7.4-2.3c2 0 3.6-.6 4.8-1.7s1.7-2.7 1.7-4.7v-2l-3.3.1c-2.6.1-4.5.5-5.6 1.2s-1.7 1.8-1.7 3.3c0 1.2.4 2.1 1.1 2.7.7.8 1.7 1.1 3 1.1zm19.8 2.3h-3.3V13.9h3.3v30.7zm21.3-12v12H324V15.7h7.9c3.5 0 6.2.7 7.8 2 1.7 1.4 2.5 3.4 2.5 6.1 0 3.8-1.9 6.4-5.8 7.7l7.8 13h-4l-7-12h-5.8zm0-2.9h4.6c2.4 0 4.1-.5 5.2-1.4 1.1-.9 1.7-2.4 1.7-4.2 0-1.9-.6-3.3-1.7-4.1s-2.9-1.3-5.4-1.3h-4.4v11zM357.7 45c-3.2 0-5.7-1-7.6-2.9-1.8-1.9-2.8-4.7-2.8-8.1 0-3.5.9-6.3 2.6-8.3 1.7-2.1 4-3.1 6.9-3.1 2.7 0 4.9.9 6.4 2.7 1.6 1.8 2.4 4.1 2.4 7.1v2.1h-14.9c.1 2.5.7 4.5 1.9 5.8s2.9 2 5.1 2c2.3 0 4.6-.5 6.9-1.5v2.9c-1.2.5-2.3.9-3.3 1.1-.9.1-2.1.2-3.6.2zm-.9-19.7c-1.7 0-3.1.6-4.2 1.7s-1.6 2.7-1.8 4.7h11.3c0-2.1-.5-3.6-1.4-4.7-.9-1.2-2.2-1.7-3.9-1.7zm28.4 13.4c0 2-.7 3.6-2.2 4.7s-3.6 1.6-6.3 1.6c-2.9 0-5.1-.5-6.7-1.4v-3c1 .5 2.2.9 3.3 1.2s2.3.5 3.4.5c1.7 0 3-.3 3.9-.8s1.4-1.4 1.4-2.5c0-.8-.4-1.6-1.1-2.2-.7-.6-2.2-1.3-4.3-2.1-2-.8-3.4-1.4-4.3-2-.8-.6-1.5-1.2-1.9-1.9-.4-.7-.6-1.6-.6-2.5 0-1.8.7-3.2 2.2-4.2 1.4-1 3.4-1.5 5.9-1.5 2.3 0 4.6.5 6.8 1.4l-1.2 2.7c-2.2-.9-4.1-1.3-5.9-1.3-1.6 0-2.7.2-3.5.7-.8.5-1.2 1.2-1.2 2 0 .6.1 1.1.4 1.5.3.4.8.8 1.4 1.2s1.9.9 3.8 1.6c2.6.9 4.3 1.9 5.2 2.8s1.5 2 1.5 3.5zm14.5 6.3c-3.2 0-5.7-1-7.6-2.9-1.8-1.9-2.8-4.7-2.8-8.1 0-3.5.9-6.3 2.6-8.3 1.7-2.1 4-3.1 6.9-3.1 2.7 0 4.9.9 6.4 2.7 1.6 1.8 2.4 4.1 2.4 7.1v2.1h-14.9c.1 2.5.7 4.5 1.9 5.8s2.9 2 5.1 2c2.3 0 4.6-.5 6.9-1.5v2.9c-1.2.5-2.3.9-3.3 1.1-.9.1-2.2.2-3.6.2zm-.9-19.7c-1.7 0-3.1.6-4.2 1.7s-1.6 2.7-1.8 4.7h11.3c0-2.1-.5-3.6-1.4-4.7-.9-1.2-2.2-1.7-3.9-1.7zm24.3-2.8c1 0 1.8.1 2.6.2l-.5 3c-.9-.2-1.7-.3-2.4-.3-1.8 0-3.2.7-4.5 2.1s-1.9 3.2-1.9 5.3v11.6h-3.3V22.9h2.7l.4 4h.2c.8-1.4 1.8-2.5 2.9-3.3 1.2-.7 2.4-1.1 3.8-1.1zm11.3 22.1L426.2 23h3.5l4.7 12.8c1.1 3 1.7 4.9 1.9 5.8h.2c.1-.7.6-2.1 1.4-4.3s2.5-7 5.2-14.3h3.5l-8.2 21.6h-4zm24.7.4c-3.2 0-5.7-1-7.6-2.9-1.8-1.9-2.8-4.7-2.8-8.1 0-3.5.9-6.3 2.6-8.3 1.7-2.1 4-3.1 6.9-3.1 2.7 0 4.9.9 6.4 2.7 1.6 1.8 2.4 4.1 2.4 7.1v2.1h-14.9c.1 2.5.7 4.5 1.9 5.8s2.9 2 5.1 2c2.3 0 4.6-.5 6.9-1.5v2.9c-1.2.5-2.3.9-3.3 1.1-.9.1-2.2.2-3.6.2zm-.9-19.7c-1.7 0-3.1.6-4.2 1.7s-1.6 2.7-1.8 4.7h11.3c0-2.1-.5-3.6-1.4-4.7-.9-1.2-2.2-1.7-3.9-1.7zM173.4 64.2h8.2c3.8 0 6.6.6 8.3 1.7s2.6 3 2.6 5.4c0 1.7-.5 3.1-1.4 4.2-1 1.1-2.3 1.8-4.2 2.2v.3c4.4.8 6.6 3.1 6.6 6.9 0 2.6-.9 4.6-2.6 6s-4.2 2.2-7.3 2.2h-10.1V64.2zm3.3 12.4h5.5c2.4 0 4.1-.4 5.1-1.1s1.6-2 1.6-3.8c0-1.6-.6-2.8-1.7-3.5-1.2-.7-3-1.1-5.5-1.1h-4.9v9.5zm0 2.8v10.8h6c2.3 0 4.1-.5 5.3-1.4 1.2-.9 1.8-2.3 1.8-4.2 0-1.8-.6-3.1-1.8-3.9-1.2-.8-3-1.3-5.5-1.3h-5.8zm35.7 13.7l-.7-3.1h-.2c-1.1 1.4-2.2 2.3-3.2 2.8-1.1.5-2.4.7-4 .7-2.1 0-3.8-.6-5-1.7-1.2-1.1-1.8-2.7-1.8-4.7 0-4.4 3.5-6.7 10.5-6.9l3.7-.1v-1.3c0-1.7-.4-3-1.1-3.8-.7-.8-1.9-1.2-3.5-1.2-1.8 0-3.8.6-6.1 1.7l-1-2.5c1.1-.6 2.2-1 3.5-1.4 1.3-.3 2.5-.5 3.8-.5 2.6 0 4.5.6 5.7 1.7 1.2 1.1 1.9 3 1.9 5.5v14.8h-2.5zm-7.4-2.3c2 0 3.6-.6 4.8-1.7s1.7-2.7 1.7-4.7v-2l-3.3.1c-2.6.1-4.5.5-5.6 1.2s-1.7 1.8-1.7 3.3c0 1.2.4 2.1 1.1 2.7.7.8 1.7 1.1 3 1.1zm31.4 2.3v-14c0-1.8-.4-3.1-1.2-3.9-.8-.9-2.1-1.3-3.8-1.3-2.3 0-3.9.6-5 1.8s-1.6 3.2-1.6 6.1v11.3h-3.3V71.4h2.7l.5 3h.2c.7-1.1 1.6-1.9 2.8-2.5 1.2-.6 2.6-.9 4-.9 2.6 0 4.6.6 5.9 1.9s2 3.3 2 6V93h-3.2zM249.6 82c.6-.8 1.4-1.9 2.6-3.2l7-7.4h3.9l-8.8 9.2 9.4 12.4h-4l-7.6-10.2-2.5 2.1V93h-3.2V62.4h3.2v16.3c0 .7-.1 1.8-.2 3.4h.2zm43.1.2c0 3.5-.9 6.3-2.7 8.3s-4.2 3-7.4 3c-1.9 0-3.7-.5-5.2-1.4-1.5-.9-2.7-2.2-3.5-3.9-.8-1.7-1.2-3.7-1.2-6 0-3.5.9-6.3 2.6-8.2 1.8-2 4.2-3 7.3-3 3 0 5.4 1 7.2 3 2 2.1 2.9 4.8 2.9 8.2zm-16.5 0c0 2.8.6 4.9 1.7 6.3 1.1 1.4 2.7 2.2 4.9 2.2s3.8-.7 4.9-2.2c1.1-1.4 1.7-3.5 1.7-6.3 0-2.7-.6-4.8-1.7-6.3-1.1-1.4-2.8-2.1-4.9-2.1-2.1 0-3.8.7-4.9 2.1-1.1 1.4-1.7 3.5-1.7 6.3zm32-8.2h-5.5v19.1h-3.3V74h-3.9v-1.5l3.9-1.2v-1.2c0-5.3 2.3-8 7-8 1.1 0 2.5.2 4 .7l-.8 2.6c-1.3-.4-2.3-.6-3.2-.6-1.2 0-2.2.4-2.7 1.2s-.9 2.1-.9 4v1.4h5.5V74zm14.9-9.8h8.2c3.8 0 6.6.6 8.3 1.7s2.6 3 2.6 5.4c0 1.7-.5 3.1-1.4 4.2-1 1.1-2.3 1.8-4.2 2.2v.3c4.4.8 6.6 3.1 6.6 6.9 0 2.6-.9 4.6-2.6 6s-4.2 2.2-7.3 2.2h-10.1V64.2zm3.4 12.4h5.5c2.4 0 4.1-.4 5.1-1.1s1.6-2 1.6-3.8c0-1.6-.6-2.8-1.7-3.5-1.2-.7-3-1.1-5.5-1.1h-4.9v9.5zm0 2.8v10.8h6c2.3 0 4.1-.5 5.3-1.4 1.2-.9 1.8-2.3 1.8-4.2 0-1.8-.6-3.1-1.8-3.9-1.2-.8-3-1.3-5.5-1.3h-5.8zm41 2.8c0 3.5-.9 6.3-2.7 8.3s-4.2 3-7.4 3c-1.9 0-3.7-.5-5.2-1.4-1.5-.9-2.7-2.2-3.5-3.9-.8-1.7-1.2-3.7-1.2-6 0-3.5.9-6.3 2.6-8.2 1.8-2 4.2-3 7.3-3 3 0 5.4 1 7.2 3 2 2.1 2.9 4.8 2.9 8.2zm-16.5 0c0 2.8.6 4.9 1.7 6.3 1.1 1.4 2.7 2.2 4.9 2.2s3.8-.7 4.9-2.2c1.1-1.4 1.7-3.5 1.7-6.3 0-2.7-.6-4.8-1.7-6.3-1.1-1.4-2.8-2.1-4.9-2.1-2.1 0-3.8.7-4.9 2.1-1.1 1.4-1.7 3.5-1.7 6.3zm36.2 5c0 2-.7 3.6-2.2 4.7s-3.6 1.6-6.3 1.6c-2.9 0-5.1-.5-6.7-1.4v-3c1 .5 2.2.9 3.3 1.2s2.3.5 3.4.5c1.7 0 3-.3 3.9-.8s1.4-1.4 1.4-2.5c0-.8-.4-1.6-1.1-2.2-.7-.6-2.2-1.3-4.3-2.1-2-.8-3.4-1.4-4.3-2-.8-.6-1.5-1.2-1.9-1.9-.4-.7-.6-1.6-.6-2.5 0-1.8.7-3.2 2.2-4.2 1.4-1 3.4-1.5 5.9-1.5 2.3 0 4.6.5 6.8 1.4l-1.2 2.7c-2.2-.9-4.1-1.3-5.9-1.3-1.6 0-2.7.2-3.5.7-.8.5-1.2 1.2-1.2 2 0 .6.1 1.1.4 1.5.3.4.8.8 1.4 1.2s1.9.9 3.8 1.6c2.6.9 4.3 1.9 5.2 2.8s1.5 2 1.5 3.5zm12.3 3.6c.6 0 1.1 0 1.7-.1.5-.1 1-.2 1.3-.3v2.5c-.4.2-.9.3-1.6.4-.7.1-1.3.2-1.9.2-4.2 0-6.3-2.2-6.3-6.6V74h-3.1v-1.6l3.1-1.4 1.4-4.6h1.9v5h6.3V74H396v12.7c0 1.3.3 2.3.9 3 .7.7 1.5 1.1 2.6 1.1zm26-8.6c0 3.5-.9 6.3-2.7 8.3s-4.2 3-7.4 3c-1.9 0-3.7-.5-5.2-1.4-1.5-.9-2.7-2.2-3.5-3.9-.8-1.7-1.2-3.7-1.2-6 0-3.5.9-6.3 2.6-8.2 1.8-2 4.2-3 7.3-3 3 0 5.4 1 7.2 3 2 2.1 2.9 4.8 2.9 8.2zm-16.5 0c0 2.8.6 4.9 1.7 6.3 1.1 1.4 2.7 2.2 4.9 2.2s3.8-.7 4.9-2.2c1.1-1.4 1.7-3.5 1.7-6.3 0-2.7-.6-4.8-1.7-6.3-1.1-1.4-2.8-2.1-4.9-2.1-2.1 0-3.8.7-4.9 2.1-1.2 1.4-1.7 3.5-1.7 6.3zm37 10.9v-14c0-1.8-.4-3.1-1.2-3.9-.8-.9-2.1-1.3-3.8-1.3-2.3 0-3.9.6-5 1.8s-1.6 3.2-1.6 6.1v11.3h-3.3V71.4h2.7l.5 3h.2c.7-1.1 1.6-1.9 2.8-2.5 1.2-.6 2.6-.9 4-.9 2.6 0 4.6.6 5.9 1.9s2 3.3 2 6V93H446zm4.2-26.3c0-1.1.3-2.2.9-3.2s1.4-1.8 2.3-2.4c1-.6 2.1-.9 3.2-.9s2.2.3 3.2.9 1.8 1.4 2.4 2.3c.6 1 .9 2.1.9 3.2s-.3 2.2-.8 3.2c-.6 1-1.3 1.8-2.3 2.4-1 .6-2.1.9-3.3.9-1.2 0-2.3-.3-3.3-.9-1-.6-1.8-1.4-2.3-2.4-.7-.9-.9-1.9-.9-3.1zm.9 0c0 1 .2 1.9.7 2.8.5.9 1.2 1.5 2 2 .9.5 1.8.7 2.8.7 1 0 1.9-.2 2.8-.7.8-.5 1.5-1.2 2-2s.7-1.8.7-2.8c0-1-.2-1.9-.7-2.8s-1.2-1.5-2-2-1.8-.7-2.8-.7c-1 0-1.9.2-2.8.7s-1.5 1.2-2 2c-.5.9-.7 1.8-.7 2.8zm8.1-1.5c0 .5-.1.9-.4 1.2-.2.4-.6.6-1 .8l2 3.4h-1.4l-1.8-3h-1.2v3h-1.3V63h2.2c.9 0 1.6.2 2.1.6s.8.9.8 1.7zm-3.7 1.3h.9c.5 0 .8-.1 1.1-.4.3-.2.4-.5.4-.9s-.1-.7-.4-.9c-.2-.2-.6-.3-1.2-.3h-.9v2.5zm-314 27H10.3L0 108h131.2zm0-93.6H10.3L0 14.4h131.2zm0 31.2H10.3L0 45.6h131.2zm0 31.2H10.3L0 76.8h131.2z"/></svg>