<svg xmlns="http://www.w3.org/2000/svg" role="img" viewBox="25.33 25.83 294.84 54.84"><title>Fetch.AI logo</title><style>svg {enable-background:new 0 0 345.83 107.72}</style><style>.st0{fill:#1e2844}</style><path d="M251.35 72.53c0-1.46 1.11-2.63 2.63-2.63 1.46 0 2.63 1.17 2.63 2.63s-1.17 2.63-2.63 2.63c-1.52 0-2.63-1.17-2.63-2.63zm58.04-38.37c0-1.38 1.18-2.57 2.63-2.57s2.63 1.18 2.63 2.57c0 1.45-1.18 2.63-2.63 2.63s-2.63-1.18-2.63-2.63zM96.27 42.77v1.5h9v3.02h-9v27.19h-3.08V47.3h-5.2v-3.02h5.2v-1.5c0-7.43 4.17-11.72 12.09-11.12v2.9c-6.17-.49-9.01 2.35-9.01 8.21zm44.64 16.73c0 .48-.06.97-.06 1.45h-27.38c.72 6.83 5.92 11.3 12.81 11.3 4.95 0 8.7-2.3 10.45-5.5l2.66 1.57c-2.48 4.11-7.19 6.83-13.18 6.83-9.31 0-15.89-6.65-15.89-15.77 0-8.88 6.41-15.77 15.65-15.77 9.2 0 14.94 7.61 14.94 15.89zm-27.43-1.51h24.29c-.66-7.37-5.86-11.48-11.79-11.48-6.88 0-11.9 4.78-12.5 11.48zM158 47.3v19.91c0 5.32 2.84 5.44 9 4.9v2.72c-7.92 1.21-12.09-.72-12.09-7.61V47.3h-6.65v-3.02h6.65v-9.57L158 31.6v12.68h9v3.02h-9zm16.84 12.08c0-8.94 6.77-15.77 15.89-15.77 5.92 0 11 3.02 13.18 7.74l-2.48 1.45c-1.75-3.81-5.86-6.29-10.7-6.29-7.31 0-12.81 5.68-12.81 12.87s5.5 12.87 12.81 12.87c4.9 0 8.88-2.54 10.88-6.29l2.54 1.51c-2.42 4.65-7.49 7.67-13.42 7.67-9.12.02-15.89-6.81-15.89-15.76zm65.97-3.68v18.79h-3.08V55.7c0-5.56-3.2-9.19-8.88-9.19-5.92 0-10.58 3.87-10.58 12.03v15.95h-3.02V34.71l3.02-3.11v18.42c2.3-4.47 6.16-6.41 10.82-6.41 7.19 0 11.72 4.77 11.72 12.09zm55.94-11.42V74.5h-3.08v-6.83c-2.54 4.53-7.19 7.49-12.99 7.49-8.58 0-15.65-6.83-15.65-15.77s7.07-15.77 15.65-15.77c5.8 0 10.46 2.96 12.99 7.49v-6.83h3.08zm-3.09 15.1c0-7.19-5.56-12.87-12.75-12.87s-12.81 5.68-12.81 12.87 5.62 12.87 12.81 12.87c7.19.01 12.75-5.68 12.75-12.87zm16.84-15.1h3.02V74.5h-3.02z" class="st0"/><path d="M31.18 31.6h5.2v5.2h-5.2zm13 0h5.2v5.2h-5.2zm13 0h5.2v5.2h-5.2zm-26 13h5.2v5.2h-5.2zm13 0h5.2v5.2h-5.2zm-13 12.99h5.2v5.2h-5.2z" class="st0"/><circle cx="72.78" cy="34.2" r="1.3" class="st0"/><circle cx="72.78" cy="47.2" r="1.3" class="st0"/><circle cx="72.78" cy="60.19" r="1.3" class="st0"/><circle cx="72.78" cy="73.19" r="1.3" class="st0"/><circle cx="59.78" cy="47.2" r="1.3" class="st0"/><circle cx="59.78" cy="60.19" r="1.3" class="st0"/><circle cx="59.78" cy="73.19" r="1.3" class="st0"/><circle cx="46.78" cy="60.19" r="1.3" class="st0"/><circle cx="46.78" cy="73.19" r="1.3" class="st0"/><circle cx="33.78" cy="73.19" r="1.3" class="st0"/></svg>