<svg xmlns="http://www.w3.org/2000/svg" role="img" viewBox="-0.60 51.90 3021.20 693.70"><title>Filebase logo</title><g transform="translate(59.829 59.829) scale(5.0164)"><path fill="orange" d="M89.8 10h-77C5.7 10 0 15.7 0 22.8v89.8c0 7.1 5.7 12.8 12.8 12.8h89.8c7.1 0 12.8-5.7 12.8-12.8v-77L89.8 10zM38.5 22.8H77v19.3H38.5V22.8zm64.2 89.9H12.8V22.8h12.8v32.1h64.2V28.2L102.7 41v71.7zm-77-44.9h64.2v12.8H25.7V67.8zm0 19.2h64.2v12.8H25.7V87z" class="st0"/><path d="M240.5 23.6v91.2c0 1.4-.7 2-2 2h-11c-1.4 0-2-.7-2-2V23.6c0-1.4.7-2 2-2h11c1.3-.1 2 .6 2 2zM177.6 18h-8.3c-14.3 0-22.1 7.6-22.1 22.9v7.9H140c-1.4 0-2 .7-2 2v9.5c0 1.4.7 2 2 2h7.2v52.4c0 1.4.7 2 2 2h11c1.4 0 2-.7 2-2V62.4h13.9c1.4 0 2-.7 2-2v-9.5c0-1.4-.7-2-2-2h-13.9v-8c0-6 2.6-8.7 6.9-8.7h8.3c1.4 0 2-.7 2-2V20c.3-1.3-.4-2-1.8-2zm28.1 30.8h-11c-1.4 0-2 .7-2 2v64c0 1.4.7 2 2 2h11c1.4 0 2-.7 2-2v-64c0-1.4-.7-2-2-2zm0-27.3h-11c-1.4 0-2 .7-2 2v10.8c0 1.4.7 2 2 2h11c1.4 0 2-.7 2-2V23.6c0-1.4-.7-2.1-2-2.1zm241.2 94.1c.1.5.3 1.2-.4 1.2H434c-1.5 0-2.5-1.4-2.5-3.3v-4.6c-3.1 4.8-7.6 8.6-14.6 8.6h-4.2c-12.7 0-21.9-7.6-21.9-21.2s7.5-19.7 21.6-19.7h19.1V71c0-7.2-2.6-9.1-9.7-9.1h-3.7c-6.9 0-12.1 1.8-15 3-2.2.8-3.7.8-4.5-1.1l-2.9-6.7c-.5-1.4-.7-2.5.7-3.3 5.7-3.5 14.2-5.6 21.6-5.6h3.7c16.9 0 24.8 7.5 24.8 23.4v41.9c.1.7.2 1.6.4 2.1zm-15.4-27.2h-18.8c-4.1 0-6.9 1.8-6.9 7.8 0 5.7 2.9 7.8 6.9 7.8h7.2c7.4 0 9.9-3 11.6-6.5v-9.1zM486 75.6c-9.3-1.1-10.3-3.8-10.3-7.8 0-3.8 2.9-6 8-6h4.5c5.6 0 7.2 2.5 8.4 5.6.7 1.9 1.9 2.5 3.5 2.5h9.8c1.5 0 1.9-.8 1.9-2.2 0-12.1-9.7-19.3-23.4-19.3h-4.8c-14 0-23.1 5.9-23.1 19.7 0 14 6.5 19.3 25.5 20.8 10.6 1 12 2.5 12 8.3 0 4.5-2.6 6.8-8.4 6.8h-5.9c-5.2 0-6.8-1.8-8.3-4.8-.4-1.1-1.2-1.5-3.3-1.5h-9.9c-1.4 0-2.2.8-2 2 1.4 11.6 9.4 17.7 24 17.7h4.8c15.4 0 24.2-6.1 24.2-20.3-.2-15.7-9-19.7-27.2-21.5zM308.8 73v11.7c0 2.6-1.4 4.1-4.1 4.1h-34.4v6c0 6.3 3.5 9.1 8.8 9.1h6.7c7.6 0 9.4-1.5 12.3-4.8.8-1 1.6-1 3 0l5.6 3.7c1.4 1 1.5 1.9.7 3-4.9 6-9.4 11.7-21.5 11.7h-6.7c-15 0-24.4-11.2-24.4-25.6V73c0-14.7 9.4-24.8 24.4-24.8h6.7c12.7 0 22.9 9.4 22.9 24.8zm-15.1-2c0-6.5-3.1-9.1-7.9-9.1h-6.7c-5.3 0-8.8 2.6-8.8 9.3v5.9h23.4V71zm246.4 17.8v6c0 6.3 3.5 9.1 8.8 9.1h6.7c7.6 0 9.4-1.5 12.3-4.8.8-1 1.6-1 3 0l5.6 3.7c1.4 1 1.5 1.9.7 3-4.9 6-9.4 11.7-21.5 11.7H549c-15 0-24.4-11.2-24.4-25.6V73c0-14.7 9.4-24.8 24.4-24.8h6.7c12.8 0 23 9.4 23 24.8v11.7c0 2.6-1.4 4.1-4.1 4.1h-34.5zm0-11.9h23.4v-6c0-6.5-3.1-9.1-7.9-9.1H549c-5.3 0-8.8 2.6-8.8 9.3v5.8zm-160.9-4v20.3c0 14.4-9 24.4-24 24.4h-3.4c-6.9 0-11.2-3.1-13.6-7.4v4.6c0 1.4-1 2-1.9 2h-11.2c-1.4 0-2-.7-2-2V23.6c0-1.4.7-2 2-2h11.2c1 0 1.9.7 1.9 2V55c2.5-3.9 6.7-6.8 13.6-6.8h3.4c15 0 24 10.1 24 24.7zM364.1 71c0-6.5-3.5-9.1-9-9.1h-8c-5.3 0-8.8 2.6-8.8 9.1v23.8c0 6.3 3.5 9.1 8.8 9.1h8c5.4 0 9-2.9 9-9.1V71z"/></g></svg>