<svg xmlns="http://www.w3.org/2000/svg" role="img" viewBox="-66.35 -66.35 3450.20 3075.20"><title>Fluree logo</title><defs><style>.cls-1{fill:#091133;fill-rule:evenodd}</style></defs><g id="Layer_2" data-name="Layer 2"><g id="Layer_1-2" data-name="Layer 1"><g id="Layer_1-3" data-name="Layer 1"><path d="M1679.67 0c-558.38 0-1011 452.65-1011 1011a1006.76 1006.76 0 0 0 109.13 457.36c20-109.39 67-313 110.34-403 36.57-75.9 72-143.35 105.73-203.17 22.73-40.38-93.9 54.41-73 20.73 130.6-210.53 359.66-426.8 358.56-446.91-2.18-40.2-73.84-92.11-37.24-220.21 29.13-102 93.56 172.28 160 193.41 7.89 2.5 130.18 1.26 149.35 1.26 13.73 0 9.94-20.59-19.43-55.64-31-37 118.19 54.32 125.87 54.38 2.93 0 64.39-53.09 105.64-81.7 47.05-32.63 73-39.48 47.14-5.8-62.83 81.76-44.13 87.5-36.12 87.5 1.86 0 32.22-.19 32.22-.19s135.94-.15 141.5-1.75c93.66-27 155.5-300.5 172.21-168.5 18.08 143-32.45 162.39-33.21 197.24-.89 40.87 319.44 387.79 402.51 584.86 2.15 5.1-8.78-.22-15.53-5.46-7.24-5.64-83.67-71.08-75.11-54.55 16.12 31.16 49.8 80.07 66.38 114.91 51.74 108.69 103.08 281.16 121 382.4A1006.75 1006.75 0 0 0 2690.7 1011C2690.7 452.65 2238 0 1679.67 0zM1152.8 1561.88c-62.76 0-76.8 153.84-79.15 258.48a1015.39 1015.39 0 0 0 85.34 57.43 835.25 835.25 0 0 1 5-159.71c19.23-152.59 33.09-156.2-11.19-156.2zm1097.12 0c-47.81 0-30.18 0-22.05 184.79 2.09 47.56-.59 86.21-5.62 117.6q42-26.79 81.16-57.5c3.59-100.09-.14-244.89-53.49-244.89z" class="cls-1"/><path fill="#091133" fill-rule="evenodd" stroke="#091133" stroke-linecap="round" stroke-linejoin="round" stroke-width="20" d="M1426.15 908.93l507 .73"/><path d="M1515.16 900.78s32.66-69.73 40.59-69.73c7.53 0 40.29 69.1 40.29 69.1zm243.26 0s32.65-69.73 40.58-69.73c7.53 0 40.29 69.1 40.29 69.1z" class="cls-1"/></g><path fill="#091133" d="M128.3 2453H0v-156h128.3v-111.28a504 504 0 0 1 9.06-97.72q9.07-45.93 35-80.89t74.5-55Q295.43 1932 374.48 1932q29.79 0 58.3 2.6a395.46 395.46 0 0 1 55.74 9l-9.08 164.4a230.52 230.52 0 0 0-31.17-9.71 148.15 148.15 0 0 0-32.47-3.29q-46.77 0-70.13 20.08t-23.37 82.22v99.7h143.86v156H322.3v474h-194zm415-505.78h194V2927h-194zM1431.92 2927h-186v-85h-3a215.76 215.76 0 0 1-26.54 36.28 174.61 174.61 0 0 1-39.5 32.37 230.48 230.48 0 0 1-53.1 23.33Q1094 2943 1059 2943q-73.83 0-119.79-22.7T868 2857.42q-25.26-40.22-33.67-94.7t-8.41-118V2297h194v308.88q0 27.28 1.94 56.47a177.84 177.84 0 0 0 11.69 53.86 92.93 92.93 0 0 0 29.84 40.23q20.11 15.57 57.75 15.56t61-13.62a92.84 92.84 0 0 0 35.68-36.33q12.33-22.71 16.22-51.27a441 441 0 0 0 3.89-59.7V2297h194zm86.08-630h194v101.6h2.6q31.08-58.29 73.86-87.44T1896 2282q16.82 0 33.68 1.21a181.41 181.41 0 0 1 31.11 4.79v178a292.37 292.37 0 0 0-40.83-9.69 264.31 264.31 0 0 0-42.12-3.24q-55.74 0-88.13 15.55t-49.88 43.38q-17.5 27.84-22.68 66.7a648.27 648.27 0 0 0-5.18 85.47V2927H1518zm1072.11 521.41q-46.65 59.72-117.93 92.17T2324.44 2943q-72.58 0-136.68-23.32T2076.43 2853q-47.2-43.41-74.36-104.33t-27.16-136.1q0-75.17 27.24-136.07t74.59-104.35q47.34-43.41 111.55-66.75t136.86-23.4q67.44 0 122.57 23.32t93.41 66.67q38.25 43.38 59 104.23t20.76 135.94V2673h-452q11.67 55.83 50.55 88.91t95.9 33.09q48 0 81-21.37t57.68-55.1zM2426.91 2541q1.29-49.14-32.58-84.07T2307 2422q-32.58 0-57.35 10.36t-42.34 26.52a116.25 116.25 0 0 0-27.38 37.5 122.71 122.71 0 0 0-11.06 44.62zm860.44 277.41q-46.67 59.72-117.94 92.17T3021.68 2943q-72.58 0-136.69-23.32T2773.66 2853q-47.2-43.41-74.36-104.33t-27.15-136.1q0-75.17 27.23-136.07t74.62-104.39q47.36-43.41 111.55-66.75t136.83-23.36q67.45 0 122.58 23.32t93.41 66.67q38.25 43.38 59 104.23t20.77 135.94V2673h-452q11.67 55.83 50.54 88.91t95.92 33.09q48 0 81-21.37t57.67-55.1zM3124.15 2541q1.29-49.14-32.58-84.07t-87.3-34.93q-32.58 0-57.34 10.36t-42.35 26.52a116.22 116.22 0 0 0-27.37 37.5 122.5 122.5 0 0 0-11.06 44.62z"/></g></g></svg>