<svg xmlns="http://www.w3.org/2000/svg" role="img" viewBox="-17.99 -17.99 935.48 362.48"><title>GFT logo</title><defs><clipPath id="a"><path d="M486.614 749.339h67.531v24.52h-67.531v-24.52z"/></clipPath></defs><path fill="#fff" d="M.00076 326.78232h899.99915V.01265H.00076v326.76967z"/><path fill="#1f4fa3" d="M.00076 326.78232h899.99915V-.00068H.00076v326.783z"/><g clip-path="url(#a)" transform="matrix(13.3272 0 0 -13.3272 -6485.202 10313.374)"><path fill="#fff" d="M500.505 760.763v1.533h5.893v-6.128c-1.987-.81-4.02-1.214-6.098-1.214-2.342 0-4.175.615-5.499 1.846-1.325 1.231-1.987 2.821-1.987 4.769 0 1.96.633 3.553 1.901 4.777 1.273 1.226 3.072 1.838 5.396 1.838 1.713 0 3.118-.273 4.214-.82 1.097-.547 1.742-1.459 1.936-2.735h-1.936c-.194.724-.636 1.256-1.327 1.598-.691.342-1.619.513-2.784.513-1.685 0-3.018-.482-4-1.445-.976-.963-1.465-2.204-1.465-3.726 0-1.499.497-2.735 1.491-3.709.999-.974 2.395-1.462 4.188-1.462 1.479 0 2.861.265 4.146.795v3.57h-4.069"/><path fill="#fff" d="M509.63 755.279v12.581h8.95v-1.546h-7.126v-4.016h6.73v-1.535h-6.73v-5.484h-1.824z"/><path fill="#fff" d="M520.506 767.86h12.515v-1.546h-5.345v-11.035h-1.825v11.035h-5.345v1.546z"/><path fill="#bdbcbc" d="M535.554 767.855h12.572v-12.571h-12.572v12.571z"/></g></svg>