<svg xmlns="http://www.w3.org/2000/svg" role="img" viewBox="-5.03 -6.03 339.82 104.82"><title>Hyperledger Aries logo</title><style>svg {enable-background:new 0 0 329.54 93.07}</style><style>.st0{fill:#35813f}</style><path d="M75.92 36.89c1.35-1.74 1.41-4.06 1.8-6.14.19 2.1-.05 4.56 1.53 6.22 1.86 1.84 4.69 1.54 7.1 1.68-2.33.36-4.91.34-6.85 1.82-1.89 1.7-1.63 4.47-1.79 6.78-.39-2.27-.36-4.86-2-6.65-1.64-1.42-3.93-1.45-5.94-1.89 2.11-.23 4.62-.09 6.15-1.82z" class="st0"/><path d="M103.45 11.9c-.69-1.87-1.81-3.66-3.25-5.11-1.43-1.46-3.1-2.61-4.84-3.47-1.74-.85-3.53-1.44-5.31-1.85-1.78-.4-3.54-.62-5.29-.74-1.88-.11-3.84.01-5.72.35-3.78.66-7.32 2.16-10.38 4.07-3.09 1.9-5.78 4.18-8.18 6.61-2.43 2.42-4.52 5.05-6.46 7.73-1.24 1.73-2.4 3.5-3.49 5.3-1.18-1.68-2.47-3.3-3.89-4.82-4.72-5-10.65-9.01-17.29-11.22-1.66-.56-3.35-1.01-5.14-1.31-.44-.08-.91-.14-1.38-.2l-.76-.08-.45-.03-.34-.01c-.9-.04-1.84-.04-2.77.02-1.87.12-3.79.45-5.68 1.1-1.89.64-3.77 1.62-5.36 2.99-1.61 1.34-2.9 3.04-3.82 4.81-.91 1.78-1.44 3.62-1.74 5.41-.31 1.79-.38 3.54-.3 5.23.08 1.7.23 3.31.6 5.04.37 1.69.91 3.4 1.77 4.99.84 1.59 2.02 3.07 3.45 4.18 1.43 1.12 3.08 1.87 4.74 2.24 1.68.34 3.31.42 4.98.09l-.1-1.26c-1.38-.2-2.81-.64-3.99-1.31-1.2-.65-2.24-1.48-2.99-2.49-1.52-2.01-2.08-4.52-2.11-7.16.01-1.3.07-2.74.24-4.08.17-1.35.44-2.64.82-3.81.78-2.37 2.03-4.14 3.65-5.12 1.6-1.01 3.71-1.45 6.07-1.34.59.02 1.17.07 1.79.15l.23.03c.12.01.02.01.11.03l.37.09c.27.07.56.14.86.23 1.18.36 2.4.8 3.59 1.32 4.75 2.13 9.07 5.28 12.58 9.24 2.33 2.61 4.4 5.49 6.3 8.57-.02.05-.05.1-.07.15-2.58 5.87-4.64 11.91-6.27 18.08-.8 3.09-1.51 6.21-2.08 9.4-.56 3.2-1.02 6.41-1.14 9.97-.08 1.84.1 3.71.45 5.6.36 1.89.95 3.82 1.94 5.7.98 1.87 2.38 3.71 4.35 5.12.99.69 2.1 1.28 3.3 1.64 1.21.36 2.49.5 3.72.38 2.48-.22 4.59-1.39 6.04-2.81 1.48-1.42 2.45-3.04 3.18-4.65 1.43-3.25 1.93-6.51 2.27-9.74.18-1.62.29-3.25.25-4.77 0-1.55.09-3.11.03-4.66.01-3.12-.1-6.25-.27-9.41-.34-5.3-1.07-10.68-2.53-15.98 2.13-4.68 4.48-9.23 7.14-13.44 2.98-4.68 6.4-8.99 10.34-12.02 1.97-1.51 4.04-2.65 6.2-3.33 1.09-.33 2.18-.55 3.34-.66 1.3-.1 2.58-.12 3.81-.04 4.95.31 8.79 2.3 9.79 7.19.48 2.37.29 5.15-.56 7.8-.8 2.68-2.21 5.27-4.1 7.59l.83.96c2.72-1.67 5.06-4.04 6.84-6.87 1.73-2.84 3-6.18 3.07-9.9-.01-1.89-.29-3.83-.99-5.71zM47.72 83.62c-.3-.64-.54-1.45-.72-2.39-.17-.94-.27-2-.28-3.13-.02-1.14.1-2.33.19-3.52.26-2.52.82-5.33 1.5-8.09.69-2.77 1.48-5.56 2.38-8.31.51-1.59 1.05-3.17 1.62-4.75.01.02.01.05.02.07.42 1.56 6.46 24.22.64 30.31-.53.5-1.1.91-1.67 1.16-.97.4-1.87.38-2.45.06-.58-.3-.91-.79-1.23-1.41z" class="st0"/><path fill="#24272a" d="M121.73 20.34l8.7-.04.05 8.78 4.48-.03-.11-20.31-4.48.02.04 7.58-8.7.04-.04-7.57-4.48.02.11 20.32 4.48-.03zm24.08 8.79l4.48-.02-.05-8.67 7.58-11.69-5.31.03-4.53 7.63-4.35-7.58-5.57.03 7.7 11.61zm19.73-.03l-.04-7.92 3.27-.02c1.07-.01 2.07-.11 2.99-.32.92-.2 1.71-.55 2.38-1.03.67-.48 1.19-1.13 1.57-1.93.38-.81.56-1.8.56-2.99-.01-1.2-.22-2.2-.63-3-.42-.79-.97-1.42-1.67-1.89-.7-.46-1.52-.79-2.46-.97-.94-.19-1.93-.28-2.99-.27l-7.55.04.11 20.31 4.46-.01zm2.21-16.54c.42 0 .86.02 1.32.06.46.05.88.15 1.25.32.38.17.68.41.92.73.24.31.36.73.36 1.25 0 .48-.09.88-.27 1.19-.18.32-.42.57-.71.75-.3.18-.63.32-1 .39-.38.08-.76.12-1.16.12l-2.99.02-.03-4.82 2.31-.01zm26.05 16.5l-.02-4.13-9.85.05-.02-4.13 8.82-.05-.02-4.13-8.82.05-.02-3.79 9.33-.05-.02-4.13-13.81.07.11 20.32zm14.15 0l5.37-.03-5.22-8.55c1.44-.28 2.53-.91 3.26-1.92.74-1.01 1.11-2.23 1.1-3.67-.01-1.18-.22-2.17-.63-2.97-.41-.79-.97-1.42-1.67-1.89-.7-.46-1.52-.8-2.45-.99-.93-.2-1.91-.29-2.94-.29l-7.87.04.1 20.31 4.48-.02-.04-8.12 2.21-.01 4.3 8.11zm-6.52-11.87l-.02-4.62 2.93-.01c.4 0 .81.02 1.23.08.42.06.8.16 1.12.32.33.16.6.39.81.7.21.3.32.72.32 1.23 0 .55-.12.98-.35 1.29-.24.31-.54.53-.9.68-.36.15-.77.23-1.22.26-.45.03-.88.05-1.28.05l-2.64.02zm27.78 11.84l-.03-4.13-8.3.04-.08-16.18-4.48.02.11 20.32zm17.54.02l-.02-4.13-9.85.05-.03-4.13 8.82-.05-.02-4.13-8.81.04-.03-3.78 9.34-.05-.03-4.13-13.81.07.11 20.31zm18.5-2.61c1.05-.85 1.88-1.91 2.49-3.17.62-1.25.92-2.71.91-4.35-.01-1.86-.34-3.43-.98-4.73-.65-1.3-1.52-2.35-2.62-3.16-1.09-.81-2.38-1.39-3.84-1.75-1.47-.35-3.01-.53-4.64-.52l-6.72.03.11 20.31 7.32-.04c1.51-.01 2.96-.23 4.33-.68 1.38-.43 2.59-1.08 3.64-1.94zm-8.5-1.49l-2.33.01-.06-12.05 2.64-.01c.94 0 1.84.11 2.69.35.85.23 1.6.59 2.23 1.06.63.48 1.14 1.08 1.52 1.81.38.74.57 1.6.57 2.59.01 1.15-.18 2.12-.55 2.91-.37.8-.88 1.44-1.53 1.93s-1.42.84-2.31 1.06c-.88.23-1.84.33-2.87.34zm26.55-7.9l.02 4.13 3.65-.02.02 3.3c-.42.23-.98.46-1.69.68-.71.22-1.55.34-2.53.34-.96 0-1.83-.15-2.6-.47-.78-.32-1.44-.77-2-1.35-.56-.58-.99-1.27-1.29-2.06-.3-.79-.45-1.66-.46-2.62-.01-.94.14-1.81.43-2.61.29-.81.72-1.5 1.27-2.09.55-.59 1.22-1.04 1.99-1.37.77-.33 1.64-.5 2.6-.5 1.15-.01 2.11.15 2.87.47.77.32 1.46.8 2.08 1.43l3.14-3.46c-1.04-.95-2.24-1.62-3.61-2.01-1.37-.39-2.87-.57-4.5-.56-1.59.01-3.05.26-4.39.77-1.34.5-2.49 1.22-3.46 2.15-.97.93-1.73 2.06-2.27 3.38-.54 1.32-.8 2.8-.79 4.42.01 1.63.29 3.1.84 4.42.55 1.32 1.32 2.44 2.3 3.36.98.92 2.14 1.63 3.48 2.12 1.34.49 2.81.73 4.4.72 1.49-.01 2.96-.17 4.39-.48 1.43-.31 2.81-.82 4.13-1.51L291.25 17l-7.95.05zm25.55 11.53l-.02-4.13-9.85.05-.02-4.13 8.81-.05-.02-4.13-8.82.05-.02-3.79 9.34-.05-.02-4.13-13.82.07.11 20.32zm7.69.04l-.04-8.12 2.21-.01 4.29 8.1 5.37-.03-5.21-8.56c1.44-.28 2.52-.92 3.26-1.92.74-1.01 1.11-2.23 1.1-3.67-.01-1.18-.22-2.17-.63-2.97-.42-.79-.97-1.42-1.68-1.89-.7-.46-1.52-.8-2.45-.99-.93-.2-1.91-.29-2.94-.29l-7.87.04.11 20.31h4.48zm2.84-16.55c.4 0 .81.02 1.24.08.42.05.8.16 1.12.32.33.16.6.39.81.7.21.3.32.72.32 1.23 0 .55-.12.98-.35 1.29-.24.31-.54.53-.9.68-.36.15-.77.23-1.22.27-.45.03-.88.05-1.28.05l-2.64.01-.02-4.62 2.92-.01z"/><path d="M146.38 85.91l-3.63-9.17h-20.43l-3.63 9.17h-5.85l16.55-41.05h6.34l16.49 41.05h-5.84zM132.54 50.1l-8.68 22.15h17.42l-8.74-22.15zm48.8 35.81l-10.4-16.31h-8.25v16.31h-5.11V44.87h16.49c7.51 0 12.92 4.8 12.92 12.37 0 7.38-5.11 11.45-10.71 11.94l11.08 16.74h-6.02zm.37-28.67c0-4.68-3.39-7.82-8.25-7.82h-10.77v15.69h10.77c4.86 0 8.25-3.26 8.25-7.87zm13.36 28.67V44.87h5.11v41.05h-5.11zm14.7 0V44.87h26.89v4.55h-21.78v13.23h21.35v4.55h-21.35v14.15h21.78v4.55h-26.89zm32.56-5.78l3.08-3.94c2.65 3.08 7.08 5.91 12.86 5.91 7.32 0 9.66-3.94 9.66-7.14 0-10.58-24.31-4.68-24.31-19.32 0-6.77 6.03-11.45 14.15-11.45 6.21 0 11.08 2.15 14.52 5.78l-3.08 3.75c-3.08-3.45-7.38-4.92-11.88-4.92-4.86 0-8.43 2.65-8.43 6.52 0 9.23 24.31 3.94 24.31 19.26 0 5.91-4.06 12.06-15.14 12.06-7.06.01-12.36-2.7-15.74-6.51z" class="st0"/></svg>