<svg xmlns="http://www.w3.org/2000/svg" role="img" viewBox="-8.91 -8.66 450.32 110.32"><title>Hyperledger Sawtooth logo</title><style>svg {enable-background:new 0 0 433 93.1}</style><style>.st2{fill:#54c8e8}</style><path fill="#24272a" d="M114.8 9h4.5v7.5h8.7l-.1-7.5 4.5-.1.1 20.3H128v-8.7h-8.7l.1 8.7-4.5.1zm28.5 11.6L135.6 9h5.5l4.4 7.6L150 9l5.3-.1-7.6 11.7.1 8.6-4.5.1zM158.4 9h7.5c1 0 2 .1 3 .3.9.2 1.8.5 2.5 1s1.3 1.1 1.7 1.9c.4.8.6 1.8.6 3s-.2 2.2-.6 3c-.4.8-.9 1.4-1.6 1.9-.7.5-1.5.8-2.4 1-.9.2-1.9.3-3 .3h-3.3v7.9h-4.5l.1-20.3zm4.5 8.6h3c.4 0 .8 0 1.2-.1.4-.1.7-.2 1-.4.3-.2.5-.4.7-.7.2-.3.3-.7.3-1.2s-.1-.9-.4-1.2c-.2-.3-.5-.6-.9-.7-.4-.2-.8-.3-1.2-.3-.5 0-.9-.1-1.3-.1H163l-.1 4.7zM176.8 9l13.7-.1.1 4.2h-9.3v3.8l8.8-.1V21h-8.8v4.1h9.8l.1 4.1-14.3.1zm17.5 0h7.8c1 0 2 .1 2.9.3.9.2 1.7.5 2.4 1s1.3 1.1 1.7 1.9c.4.8.6 1.8.6 3 0 1.4-.4 2.6-1.1 3.7-.7 1-1.8 1.6-3.3 1.9l5.2 8.5h-5.4l-4.3-8.1h-2.2v8.1h-4.5l.2-20.3zm4.5 8.4H202.7c.4 0 .9-.1 1.2-.3.4-.1.7-.4.9-.7.2-.3.4-.7.4-1.3 0-.5-.1-.9-.3-1.2-.2-.3-.5-.5-.8-.7-.3-.2-.7-.3-1.1-.3-.4-.1-.8-.1-1.2-.1h-2.9l-.1 4.6zM213.6 9h4.5l.1 16.1 8.2-.1v4.2h-12.7zm15.9 0l13.8-.1V13l-9.3.1.1 3.8 8.7-.1.1 4.1-8.8.1v4.1h9.8v4.1l-14.3.1zM247 9h6.7c1.6 0 3.2.2 4.6.5 1.5.4 2.7.9 3.8 1.7 1.1.8 2 1.9 2.6 3.1.6 1.3 1 2.9 1 4.7 0 1.6-.3 3.1-.9 4.3-.6 1.3-1.4 2.3-2.5 3.2-1 .9-2.3 1.5-3.6 1.9-1.4.4-2.8.7-4.3.7h-7.3L247 9zm4.6 16.1h2.3c1 0 2-.1 2.9-.3.9-.2 1.7-.6 2.3-1.1.6-.5 1.2-1.1 1.5-1.9.4-.8.5-1.8.5-2.9 0-1-.2-1.9-.6-2.6-.4-.7-.9-1.3-1.5-1.8s-1.4-.8-2.2-1.1c-.9-.2-1.7-.3-2.7-.3h-2.6l.1 12zm36.7 2.7c-1.3.7-2.7 1.2-4.1 1.5-1.4.3-2.9.5-4.4.5-1.6 0-3-.2-4.4-.7-1.3-.5-2.5-1.2-3.5-2.1-1-.9-1.7-2-2.3-3.3-.6-1.3-.8-2.8-.8-4.4 0-1.6.3-3.1.8-4.4.5-1.3 1.3-2.4 2.3-3.4 1-.9 2.1-1.6 3.5-2.1 1.3-.5 2.8-.8 4.4-.8 1.6 0 3.1.2 4.5.6 1.4.4 2.6 1.1 3.6 2l-3.1 3.4c-.6-.6-1.3-1.1-2.1-1.4-.8-.3-1.7-.5-2.9-.5-1 0-1.8.2-2.6.5s-1.4.8-2 1.4c-.5.6-1 1.3-1.3 2.1-.3.8-.4 1.7-.4 2.6 0 1 .2 1.8.5 2.6s.7 1.5 1.3 2.1c.6.6 1.2 1 2 1.4.8.3 1.6.5 2.6.5s1.8-.1 2.5-.3c.7-.2 1.3-.4 1.7-.7v-3.3h-3.6v-4.1h7.9l-.1 10.3zm3.1-19.3h13.8v4.1h-9.3l.1 3.8h8.7l.1 4.1H296v4.1h9.8v4.1l-14.2.1zm17.5 0h7.8c1 0 2 .1 2.9.3.9.2 1.7.5 2.4 1s1.3 1.1 1.7 1.9c.4.8.6 1.8.6 3 0 1.4-.4 2.6-1.1 3.7-.7 1-1.8 1.6-3.3 1.9l5.2 8.5h-5.4l-4.3-8.1h-2.2v8.1h-4.5l.2-20.3zm4.5 8.4H317.3c.4 0 .9-.1 1.2-.3.4-.1.7-.4.9-.7.2-.3.4-.7.4-1.3 0-.5-.1-.9-.3-1.2-.2-.3-.5-.5-.8-.7-.3-.2-.7-.3-1.1-.3-.4-.1-.8-.1-1.2-.1h-2.9l-.1 4.6z"/><path fill="#0075c9" d="M93 44L66 63.7V35.2L27 63.7V35.2L.7 54.4c3.7 22 22.8 38.7 45.9 38.7 25.7 0 46.5-20.8 46.5-46.5 0-.9-.1-1.8-.1-2.6z"/><path d="M92.3 38c-4-21.6-23-38-45.8-38C20.8 0 0 20.8 0 46.5v1.9L32.1 25v28.5l39-28.5v28.5L92.3 38z" class="st2"/><path d="M118.9 76.7c1 1.5 2.3 2.7 3.9 3.4 1.6.7 3.2 1.1 4.9 1.1.9 0 1.9-.1 2.9-.4 1-.3 1.9-.7 2.7-1.3.8-.6 1.5-1.3 2-2.2.5-.9.8-1.9.8-3 0-1.6-.5-2.8-1.5-3.7-1-.8-2.3-1.5-3.8-2.1-1.5-.6-3.2-1.1-4.9-1.6-1.8-.5-3.4-1.3-4.9-2.2-1.5-.9-2.8-2.2-3.8-3.8-1-1.6-1.5-3.7-1.5-6.4 0-1.2.3-2.5.8-3.9s1.4-2.6 2.5-3.8c1.1-1.1 2.6-2.1 4.4-2.9 1.8-.8 3.9-1.1 6.4-1.1 2.3 0 4.4.3 6.5.9 2.1.6 3.9 1.9 5.5 3.8l-4.6 4.2c-.7-1.1-1.7-2-3-2.6-1.3-.7-2.8-1-4.4-1-1.6 0-2.9.2-3.9.6-1 .4-1.9.9-2.5 1.6-.6.6-1.1 1.3-1.3 2.1-.3.7-.4 1.4-.4 2.1 0 1.8.5 3.1 1.5 4.1 1 .9 2.3 1.7 3.8 2.3 1.5.6 3.2 1.1 4.9 1.6 1.8.5 3.4 1.1 4.9 2 1.5.8 2.8 2 3.8 3.4s1.5 3.4 1.5 5.9c0 2-.4 3.8-1.1 5.4-.8 1.6-1.8 3-3.1 4.1-1.3 1.1-2.8 1.9-4.6 2.5s-3.6.9-5.6.9c-2.7 0-5.2-.5-7.6-1.4-2.4-.9-4.3-2.4-5.7-4.4l4.5-4.2zM162 43.8h5.1l17.8 41.6h-6.6l-4.2-10.3h-19.8l-4.1 10.3h-6.6L162 43.8zm10.1 26.4l-7.8-19.1h-.1l-7.9 19.1h15.8zm8.6-26.4h5.9l9.2 33.3h.1l9.8-33.3h6.5l9.8 33.3h.1l9.2-33.3h5.9l-12.1 41.6h-6l-10.1-34h-.1l-10 34h-6l-12.2-41.6zm72.3 5.3h-13.4v-5.3H272v5.3h-13.4v36.3H253V49.1zm40.4 37.4c-3.2 0-6.1-.6-8.8-1.7s-4.9-2.7-6.8-4.6c-1.9-2-3.4-4.3-4.5-6.9-1.1-2.7-1.6-5.5-1.6-8.6 0-3.1.5-6 1.6-8.6 1.1-2.7 2.6-5 4.5-6.9 1.9-2 4.2-3.5 6.8-4.6s5.6-1.7 8.8-1.7c3.2 0 6.1.6 8.8 1.7s4.9 2.7 6.9 4.6c1.9 2 3.4 4.3 4.5 6.9 1.1 2.7 1.6 5.5 1.6 8.6 0 3.1-.5 6-1.6 8.6-1.1 2.7-2.6 5-4.5 6.9-1.9 2-4.2 3.5-6.9 4.6s-5.6 1.7-8.8 1.7zm0-5.3c2.4 0 4.5-.4 6.5-1.3 1.9-.9 3.6-2.1 4.9-3.6 1.4-1.5 2.4-3.2 3.2-5.3.7-2 1.1-4.2 1.1-6.4 0-2.3-.4-4.4-1.1-6.4-.7-2-1.8-3.8-3.2-5.3-1.4-1.5-3-2.7-4.9-3.6-1.9-.9-4.1-1.3-6.5-1.3-2.4 0-4.5.4-6.5 1.3-1.9.9-3.6 2.1-4.9 3.6-1.4 1.5-2.4 3.2-3.2 5.3-.7 2-1.1 4.2-1.1 6.4 0 2.3.4 4.4 1.1 6.4.7 2 1.8 3.8 3.2 5.3 1.4 1.5 3 2.7 4.9 3.6 2 .9 4.1 1.3 6.5 1.3zm48 5.3c-3.2 0-6.1-.6-8.8-1.7s-4.9-2.7-6.8-4.6c-1.9-2-3.4-4.3-4.5-6.9-1.1-2.7-1.6-5.5-1.6-8.6 0-3.1.5-6 1.6-8.6 1.1-2.7 2.6-5 4.5-6.9 1.9-2 4.2-3.5 6.8-4.6s5.6-1.7 8.8-1.7c3.2 0 6.1.6 8.8 1.7s4.9 2.7 6.9 4.6c1.9 2 3.4 4.3 4.5 6.9 1.1 2.7 1.6 5.5 1.6 8.6 0 3.1-.5 6-1.6 8.6-1.1 2.7-2.6 5-4.5 6.9-1.9 2-4.2 3.5-6.9 4.6s-5.6 1.7-8.8 1.7zm0-5.3c2.4 0 4.5-.4 6.5-1.3 1.9-.9 3.6-2.1 4.9-3.6 1.4-1.5 2.4-3.2 3.2-5.3.7-2 1.1-4.2 1.1-6.4 0-2.3-.4-4.4-1.1-6.4-.7-2-1.8-3.8-3.2-5.3-1.4-1.5-3-2.7-4.9-3.6-1.9-.9-4.1-1.3-6.5-1.3-2.4 0-4.5.4-6.5 1.3-1.9.9-3.6 2.1-4.9 3.6-1.4 1.5-2.4 3.2-3.2 5.3-.7 2-1.1 4.2-1.1 6.4 0 2.3.4 4.4 1.1 6.4.7 2 1.8 3.8 3.2 5.3 1.4 1.5 3 2.7 4.9 3.6 2 .9 4.1 1.3 6.5 1.3zm34.8-32.1h-13.4v-5.3h32.5v5.3h-13.4v36.3h-5.6V49.1zm23.9-5.3h5.6v17.3h21.6V43.8h5.6v41.6h-5.6v-19h-21.6v19.1h-5.6V43.8z" class="st2"/></svg>