<svg xmlns="http://www.w3.org/2000/svg" role="img" viewBox="-6.11 -6.36 356.46 112.21"><title>Hyperledger Caliper logo</title><style>svg {enable-background:new 0 0 344.6 99.5}</style><style>.st0{fill:#f99f44}</style><path d="M15.8 36.2v12.1h8.3l17.5 28.9v-29H59v28.9l17.5-28.9h8.3v-12H61.2V1.7C57.7.9 54.1.5 50.3.5S43 .9 39.5 1.7v34.5H15.8z" class="st0"/><path d="M64.8 2.6v29.9h23.7v19.3h-9.9L55.4 90V51.8H45.2V90L22.1 51.8h-9.9V32.6h23.7v-30C15.7 8.8 1 27.6 1 49.8 1 77 23.1 99.1 50.3 99.1S99.6 77 99.6 49.8c0-22.2-14.6-41-34.8-47.2z" class="st0"/><path fill="#24272a" d="M124.6 23.6l8.7-.1v8.8h4.5l-.1-20.3h-4.5l.1 7.6h-8.7l-.1-7.6-4.5.1.2 20.3h4.4zm24.1 8.8l4.4-.1v-8.6l7.6-11.7h-5.3l-4.6 7.6-4.3-7.5h-5.6l7.7 11.6zm19.7-.1v-7.9h3.3c1.1 0 2.1-.1 3-.3.9-.2 1.7-.5 2.4-1s1.2-1.1 1.6-1.9c.4-.8.6-1.8.6-3s-.2-2.2-.6-3c-.4-.8-1-1.4-1.7-1.9s-1.5-.8-2.5-1c-.9-.2-1.9-.3-3-.3h-7.6l.1 20.3h4.4zm2.2-16.5c.4 0 .9 0 1.3.1.5 0 .9.2 1.3.3.4.2.7.4.9.7.2.3.4.7.4 1.2s-.1.9-.3 1.2c-.2.3-.4.6-.7.8-.3.2-.6.3-1 .4-.4.1-.8.1-1.2.1h-3v-4.8h2.3zm26.1 16.5l-.1-4.1h-9.8v-4.1l8.8-.1v-4.1h-8.9v-3.7l9.4-.1-.1-4.1-13.8.1.1 20.3zm14.1 0h5.4l-5.2-8.6c1.4-.3 2.5-.9 3.3-1.9.7-1 1.1-2.2 1.1-3.7 0-1.2-.2-2.2-.6-3-.4-.8-1-1.4-1.7-1.9s-1.5-.8-2.4-1c-.9-.2-1.9-.3-2.9-.3h-7.9l.1 20.3h4.5v-8.1h2.2l4.1 8.2zm-6.5-11.9v-4.6h2.9c.4 0 .8 0 1.2.1.4.1.8.2 1.1.3.3.2.6.4.8.7.2.3.3.7.3 1.2 0 .6-.1 1-.4 1.3-.2.3-.5.5-.9.7l-1.2.3h-3.8zm27.8 11.9l-.1-4.2-8.3.1V12h-4.5l.1 20.3zm17.5 0v-4.2l-9.9.1v-4.1l8.8-.1v-4.1h-8.8v-3.8h9.3V12h-13.8l.1 20.4zm18.5-2.6c1-.9 1.9-1.9 2.5-3.2.6-1.3.9-2.7.9-4.4 0-1.9-.3-3.4-1-4.7-.6-1.3-1.5-2.3-2.6-3.2-1.1-.8-2.4-1.4-3.8-1.7-1.5-.4-3-.5-4.6-.5h-6.7l.1 20.3h7.3c1.5 0 3-.2 4.3-.7 1.3-.4 2.6-1.1 3.6-1.9zm-8.5-1.5h-2.3l-.1-12.1h2.6c.9 0 1.8.1 2.7.3.8.2 1.6.6 2.2 1.1.6.5 1.1 1.1 1.5 1.8.4.7.6 1.6.6 2.6 0 1.1-.2 2.1-.5 2.9-.4.8-.9 1.4-1.5 1.9s-1.4.8-2.3 1.1c-.9.3-1.9.4-2.9.4zm26.6-7.9v4.1h3.6v3.3c-.4.2-1 .5-1.7.7-.7.2-1.5.3-2.5.3s-1.8-.2-2.6-.5-1.4-.8-2-1.4c-.6-.6-1-1.3-1.3-2.1-.3-.8-.5-1.7-.5-2.6 0-.9.1-1.8.4-2.6.3-.8.7-1.5 1.3-2.1.6-.6 1.2-1 2-1.4.8-.3 1.6-.5 2.6-.5 1.1 0 2.1.2 2.9.5.8.3 1.5.8 2.1 1.4l3.1-3.5c-1-1-2.2-1.6-3.6-2-1.4-.4-2.9-.6-4.5-.6s-3.1.3-4.4.8c-1.3.5-2.5 1.2-3.5 2.2-1 .9-1.7 2.1-2.3 3.4-.5 1.3-.8 2.8-.8 4.4 0 1.6.3 3.1.8 4.4.6 1.3 1.3 2.4 2.3 3.4 1 .9 2.1 1.6 3.5 2.1 1.3.5 2.8.7 4.4.7 1.5 0 3-.2 4.4-.5 1.4-.3 2.8-.8 4.1-1.5l-.1-10.6-7.7.2zm25.5 11.5v-4.1h-9.9v-4.1h8.8v-4.2l-8.8.1v-3.8l9.3-.1v-4.1l-13.8.1.1 20.3zm7.7 0v-8.1h2.2l4.3 8.1h5.4l-5.2-8.6c1.4-.3 2.5-.9 3.3-1.9.7-1 1.1-2.2 1.1-3.7 0-1.2-.2-2.2-.6-3-.4-.8-1-1.4-1.7-1.9s-1.5-.8-2.4-1c-.9-.2-1.9-.3-2.9-.3H315l.1 20.3 4.3.1zm2.8-16.5c.4 0 .8 0 1.2.1.4.1.8.2 1.1.3.3.2.6.4.8.7.2.3.3.7.3 1.2 0 .6-.1 1-.4 1.3-.2.3-.5.5-.9.7l-1.2.3H319.2v-4.6h3z"/><g><path fill="#9d9fa2" d="M149.2 56.5c-1.2-1.5-2.7-2.7-4.5-3.5s-3.7-1.2-5.6-1.2c-2.3 0-4.5.4-6.4 1.3s-3.5 2.1-4.9 3.6c-1.3 1.5-2.4 3.3-3.1 5.4-.7 2.1-1.1 4.3-1.1 6.6 0 2.2.4 4.3 1.1 6.2.7 2 1.7 3.7 3.1 5.2 1.3 1.5 3 2.7 4.9 3.5 1.9.9 4.1 1.3 6.5 1.3 2.4 0 4.5-.5 6.3-1.5 1.8-1 3.3-2.3 4.6-4.1l4.8 3.6c-.3.4-.9 1-1.6 1.8-.8.8-1.8 1.6-3.1 2.4-1.3.8-2.8 1.5-4.7 2.1-1.8.6-3.9.9-6.3.9-3.3 0-6.2-.6-8.9-1.9-2.6-1.3-4.9-2.9-6.7-4.9-1.9-2-3.3-4.3-4.3-6.9-1-2.6-1.5-5.2-1.5-7.8 0-3.2.5-6.2 1.6-8.9s2.5-5.1 4.4-7c1.9-2 4.2-3.5 6.8-4.6 2.7-1.1 5.6-1.6 8.8-1.6 2.7 0 5.4.5 8.1 1.6 2.6 1.1 4.8 2.7 6.5 4.9l-4.8 3.5zm25.4-9h5.1L197.5 89h-6.6l-4.2-10.3H167L162.9 89h-6.6l18.3-41.5zm10.1 26.4L177 54.8h-.1L169 73.9h15.7zm17.4-26.4h5.6v36.3h19.1v5.3h-24.7V47.5zm29.4 0h5.6V89h-5.6V47.5zm15.1 0h14.6c2.7 0 4.8.4 6.6 1.1 1.7.7 3.1 1.6 4.1 2.8 1 1.1 1.7 2.4 2.1 3.8.4 1.4.6 2.7.6 4s-.2 2.6-.6 4c-.4 1.4-1.1 2.6-2.1 3.8-1 1.1-2.4 2-4.1 2.8-1.7.7-3.9 1.1-6.6 1.1h-9v18.3h-5.6V47.5zm5.6 18.3h7.4c1.1 0 2.2-.1 3.3-.3 1.1-.2 2-.5 2.9-1 .8-.5 1.5-1.1 2-2 .5-.9.8-2 .8-3.4s-.3-2.6-.8-3.4c-.5-.9-1.2-1.6-2-2-.8-.5-1.8-.8-2.9-1-1.1-.2-2.2-.3-3.3-.3h-7.4v13.4zm27.6-18.3h26.8v5.3h-21.2v12.4h19.7v5.3h-19.7v13.3h22.2v5.3h-27.9V47.5zm34.3 0h14.6c2.7 0 4.8.4 6.6 1.1 1.7.7 3.1 1.6 4.1 2.8 1 1.1 1.7 2.4 2.1 3.8.4 1.4.6 2.7.6 4 0 1.3-.2 2.6-.7 3.8-.5 1.2-1.1 2.3-2 3.3-.9 1-2 1.8-3.2 2.5-1.3.7-2.7 1.1-4.3 1.3L343.7 89h-7L326 70.8h-6.3v18.3h-5.6V47.5zm5.6 18.3h7.4c1.1 0 2.2-.1 3.3-.3 1.1-.2 2-.5 2.9-1 .8-.5 1.5-1.1 2-2 .5-.9.8-2 .8-3.4s-.3-2.6-.8-3.4c-.5-.9-1.2-1.6-2-2-.8-.5-1.8-.8-2.9-1-1.1-.2-2.2-.3-3.3-.3h-7.4v13.4z"/></g></svg>