<svg xmlns="http://www.w3.org/2000/svg" role="img" viewBox="-6.05 -1.55 340.86 94.61"><title>Hyperledger Ursa logo</title><style>svg {enable-background:new 0 0 329.8 93.1}</style><style>.st1{fill:#9a2e5b}</style><path fill="#24272a" d="M121.7 20.1l8.7-.1v8.8h4.5l-.1-20.3h-4.5l.1 7.6h-8.7l-.1-7.6-4.4.1.1 20.3h4.4zm24.1 8.8l4.4-.1v-8.6l7.6-11.7h-5.3l-4.6 7.6-4.3-7.5H138l7.7 11.6zm19.7-.1v-7.9h3.3c1.1 0 2.1-.1 3-.3.9-.2 1.7-.5 2.4-1s1.2-1.1 1.6-1.9c.4-.8.6-1.8.6-3s-.2-2.2-.6-3c-.4-.8-1-1.4-1.7-1.9s-1.5-.8-2.5-1c-.9-.2-1.9-.3-3-.3H161l.1 20.3h4.4zm2.2-16.5c.4 0 .9 0 1.3.1.5 0 .9.2 1.3.3.4.2.7.4.9.7.2.3.4.7.4 1.2s-.1.9-.3 1.2c-.2.3-.4.6-.7.8-.3.2-.6.3-1 .4-.4.1-.8.1-1.2.1h-3v-4.8h2.3zm26.1 16.5l-.1-4.1h-9.8v-4.1l8.8-.1v-4.1h-8.8l-.1-3.7 9.4-.1-.1-4.1-13.8.1.1 20.3zm14.1 0h5.4l-5.2-8.6c1.4-.3 2.5-.9 3.3-1.9.7-1 1.1-2.2 1.1-3.7 0-1.2-.2-2.2-.6-3-.4-.8-1-1.4-1.7-1.9s-1.5-.8-2.4-1c-.9-.2-1.9-.3-2.9-.3H197l.1 20.3h4.5v-8.1h2.2l4.1 8.2zm-6.5-11.9v-4.6h2.9c.4 0 .8 0 1.2.1.4.1.8.2 1.1.3.3.2.6.4.8.7.2.3.3.7.3 1.2 0 .6-.1 1-.4 1.3-.2.3-.5.5-.9.7l-1.2.3h-3.8zm27.8 11.9l-.1-4.2-8.3.1V8.5h-4.5l.1 20.3zm17.5 0v-4.2l-9.9.1v-4.1l8.8-.1v-4.1h-8.8v-3.8h9.3V8.5h-13.8l.1 20.4zm18.5-2.6c1-.9 1.9-1.9 2.5-3.2.6-1.3.9-2.7.9-4.4 0-1.9-.3-3.4-1-4.7-.6-1.3-1.5-2.3-2.6-3.2-1.1-.8-2.4-1.4-3.8-1.7-1.5-.4-3-.5-4.6-.5h-6.7l.1 20.3h7.3c1.5 0 3-.2 4.3-.7 1.4-.4 2.6-1.1 3.6-1.9zm-8.5-1.5h-2.3l-.1-12.1h2.6c.9 0 1.8.1 2.7.3.8.2 1.6.6 2.2 1.1.6.5 1.1 1.1 1.5 1.8.4.7.6 1.6.6 2.6 0 1.1-.2 2.1-.5 2.9-.4.8-.9 1.4-1.5 1.9s-1.4.8-2.3 1.1c-.9.3-1.9.4-2.9.4zm26.6-7.9v4.1h3.6v3.3c-.4.2-1 .5-1.7.7-.7.2-1.5.3-2.5.3s-1.8-.2-2.6-.5-1.4-.8-2-1.4c-.6-.6-1-1.3-1.3-2.1-.3-.8-.5-1.7-.5-2.6 0-.9.1-1.8.4-2.6.3-.8.7-1.5 1.3-2.1.6-.6 1.2-1 2-1.4.8-.3 1.6-.5 2.6-.5 1.1 0 2.1.2 2.9.5.8.3 1.5.8 2.1 1.4l3.1-3.5c-1-1-2.2-1.6-3.6-2-1.4-.4-2.9-.6-4.5-.6s-3.1.3-4.4.8c-1.3.5-2.5 1.2-3.5 2.2-1 .9-1.7 2.1-2.3 3.4-.5 1.3-.8 2.8-.8 4.4 0 1.6.3 3.1.8 4.4.6 1.3 1.3 2.4 2.3 3.4 1 .9 2.1 1.6 3.5 2.1 1.3.5 2.8.7 4.4.7 1.5 0 3-.2 4.4-.5 1.4-.3 2.8-.8 4.1-1.5l-.1-10.6-7.7.2zm25.5 11.5v-4.1h-9.9v-4.1l8.8-.1v-4.1l-8.8.1v-3.8l9.3-.1V8l-13.8.1.1 20.3zm7.7 0v-8.1h2.2l4.3 8.1h5.4l-5.2-8.6c1.4-.3 2.5-.9 3.3-1.9.7-1 1.1-2.2 1.1-3.7 0-1.2-.2-2.2-.6-3-.4-.8-1-1.4-1.7-1.9s-1.5-.8-2.4-1c-.9-.2-1.9-.3-2.9-.3h-7.9l.1 20.3 4.3.1zm2.8-16.5c.4 0 .8 0 1.2.1.4.1.8.2 1.1.3.3.2.6.4.8.7.2.3.3.7.3 1.2 0 .6-.1 1-.4 1.3-.2.3-.5.5-.9.7l-1.2.3H316.3v-4.6h3z"/><path d="M117.1 69.7V44.6h5.2v25c0 7.5 4 12.2 11.6 12.2s11.6-4.7 11.6-12.2v-25h5.2v25c0 10.2-5.7 16.7-16.8 16.7-11.2.1-16.8-6.5-16.8-16.6zm66.8 15.9l-10.4-16.3h-8.2v16.3h-5.1v-41h16.5c7.5 0 12.9 4.8 12.9 12.4 0 7.4-5.1 11.4-10.7 11.9L190 85.6h-6.1zm.4-28.6c0-4.7-3.4-7.8-8.2-7.8h-10.8v15.7h10.8c4.8-.1 8.2-3.3 8.2-7.9zm10.9 22.9l3.1-3.9c2.6 3.1 7.1 5.9 12.9 5.9 7.3 0 9.7-3.9 9.7-7.1 0-10.6-24.3-4.7-24.3-19.3 0-6.8 6-11.4 14.2-11.4 6.2 0 11.1 2.2 14.5 5.8l-3.1 3.8c-3.1-3.4-7.4-4.9-11.9-4.9-4.9 0-8.4 2.6-8.4 6.5 0 9.2 24.3 3.9 24.3 19.3 0 5.9-4.1 12.1-15.1 12.1-7.2-.3-12.5-3-15.9-6.8zm67.2 5.7l-3.6-9.2h-20.4l-3.6 9.2H229l16.6-41h6.3l16.5 41h-6zm-13.8-35.8L239.9 72h17.4l-8.7-22.2z" class="st1"/><path d="M68.5 11.1C69.9 9.4 69.9 7 70.3 5c.2 2.1-.1 4.6 1.5 6.2 1.9 1.8 4.7 1.5 7.1 1.7-2.3.4-4.9.3-6.8 1.8-1.9 1.7-1.6 4.5-1.8 6.8-.4-2.3-.4-4.9-2-6.6-1.6-1.4-3.9-1.5-5.9-1.9 2-.3 4.5-.1 6.1-1.9z" class="st1"/><path d="M34.2 20.1c3.5.8 6.8-.9 10.1-1.5.6 2.7 1.2 5.7 0 8.3-1.8 2.4-4.6 4.2-5.2 7.3-1.1 3.9 1 7.6 3 10.8-.8-3.2-1.2-6.5-.8-9.8 6.3.8 11.9 4.6 15.1 10.1-.7-2.7-1.8-5.2-3.2-7.6 6.4-.6 13.3-.2 18.9 3.3 6.1 3.6 9.8 10.7 9.5 17.8-.1 6.1 1.9 12.4 6.3 16.8 0 3.2 0 6.4.3 9.6 3.6.1 7.3.1 10.9.4-5.8.5-11.6-.1-17.4 0-27.1 0-54.1.1-81.2 0 3.8-.2 7.6-.4 11.5-.8 1.9-2.7 5.7-3 7.1-6 2.5-4.1 3.4-9 3.6-13.8 2.6 1.8 5.5 3.1 8.5 4-5.1-4-10-8.6-12.2-14.9-3.9-9.3-1.9-20.3 4.2-28.2-.9-1-3-2-1.8-3.5 1.4-2.2 4-.9 5.8 0 2.2-1.1 4.4-2.9 7-2.3zm15.7 50.3c.2 4.6-.1 9.2-1.3 13.7 1.9 0 3.9.1 5.8-.1 1.5-.8 2.8-2 4.2-2.9-1.8-2.8-4.1-5.3-5.5-8.3 3.1-.7 6.1-1.5 9-2.7-4.1 0-8.1.5-12.2.3zm16.3 13.8c3.2.1 6.4.1 9.6.2 1.3-1.3 2.6-2.4 4-3.6-2.9-4.4-8.7-5.4-11.8-9.6-3.3 3.6-1.9 8.7-1.8 13zm-30.6-12c-2.3 4.7-5.6 8.8-9.5 12.3 3.3-.1 6.7-.1 10-.2 1.4-1.3 2.8-2.4 4.4-3.5-1-3.3-2.7-6.1-4.9-8.6z" class="st1"/></svg>