<?xml version="1.0" encoding="utf-8"?>
<svg viewBox="-25.36 -2.36 1942.72 488.72" width="1942.72" height="488.72" xmlns="http://www.w3.org/2000/svg">
  <defs>
    <style>svg {enable-background:new 0 0 1900 500}</style>
    <style>.st1{fill:#005cd6}.st274{fill:#fefefe}.st276{fill:#9bebe4}.st280{fill:#005cd5}.st281{fill:#1d9bcf}.st282{fill:#23a7ce}.st284{fill:#1a95d0}.st285{fill:#20a2cf}.st288{fill:#39d7ca}.st290{fill:#188fd0}.st291{fill:#1283d2}.st293{fill:#1487d1}.st294{fill:#1f9fcf}.st296{fill:#37d2ca}.st299{fill:#0669d4}.st300{fill:#168bd1}.st303{fill:#2ab6cd}.st304{fill:#2cbacd}.st305{fill:#32c7cb}.st306{fill:#2ebecc}.st307{fill:#2ebfcc}.st308{fill:#107ed2}.st310{fill:#0b73d3}.st311{fill:#20a0cf}.st314{fill:#1d9acf}.st315{fill:#1b96d0}.st317{fill:#1991d0}.st320{fill:#28b1cd}.st323{fill:#2cbbcc}.st326{fill:#34cdcb}.st327{fill:#30c3cc}.st329{fill:#0e79d2}.st335{fill:#43ecc8}.st336{fill:#1180d2}.st337{fill:#1486d1}.st338{fill:#0f7bd2}.st341{fill:#40e5c9}.st345{fill:#1a94d0}.st350{fill:#27b1cd}.st352{fill:#25acce}.st357{fill:#2fc2cc}.st360{fill:#34cccb}.st363{fill:#31c6cb}.st365{fill:#27b0cd}.st367{fill:#24aace}.st376{fill:#29b5cd}</style>
  </defs>
  <path d="M572.392 428.665l-26.3-161.5h19.4l22.8 149h3.2l29.8-149h34.6l29.5 149h3.2l23-149h19.4l-26.4 161.5h-34.6l-29.8-149.9h-3.2l-29.7 149.9h-34.9z" class="st1"/>
  <path d="M757.947 428.665v-161.5h99.4v17.5h-80v54h73.6v17.5h-73.6v54.9h81.2v17.5h-100.6z" class="st1"/>
  <path d="M880.186 428.665v-17.3h22.6v-126.9h-22.6v-17.3h81c9.4 0 17.7 1.7 25 5.1 7.3 3.4 13 8.1 17.1 14.2 4.1 6.1 6.1 13.2 6.1 21.3v1.8c0 7.5-1.5 13.7-4.4 18.6-2.9 4.8-6.4 8.6-10.4 11.3-4 2.7-7.9 4.7-11.7 5.9v3.2c3.8.9 7.8 2.7 12 5.4s7.7 6.5 10.5 11.4c2.9 4.9 4.3 11.1 4.3 18.7v2.3c0 8.8-2.1 16.3-6.4 22.7-4.2 6.4-10 11.2-17.3 14.5-7.3 3.3-15.6 5-25 5h-80.8zm42-17.6h36.7c10.2 0 17.9-2.4 23.3-7.2 5.4-4.8 8.1-11.2 8.1-19.4v-2.1c0-8.2-2.7-14.6-8.1-19.4-5.4-4.8-13.2-7.2-23.3-7.2h-36.7v55.3zm0-72.6h37.4c9.2 0 16.6-2.3 22.1-7s8.3-10.9 8.3-18.6v-2.3c0-7.8-2.7-14.1-8.2-18.8-5.5-4.7-12.9-7-22.2-7h-37.4v53.7z" class="st1"/>
  <path d="M1091.735 431.865c-11.4 0-21.6-2.2-30.6-6.5s-16.1-10.5-21.2-18.7c-5.2-8.2-7.7-18-7.7-29.5v-4.4h18.7v4.2c0 11.8 3.8 21.1 11.3 27.9 7.5 6.8 17.4 10.2 29.5 10.2 12.3 0 21.9-3.2 28.7-9.6 6.8-6.4 10.3-14.4 10.3-24.1v-1.8c0-7.1-1.7-12.8-5.1-17.2-3.4-4.4-8-7.6-13.7-9.7-5.8-2.1-12.1-3.1-19-3.1h-26.4v-23.4l61.6-39.4v-2.8h-92v-16.8h111.9v26.1l-60.2 38.8v2.8h11.5c9.1 0 17.4 1.7 25 5 7.6 3.3 13.7 8.2 18.2 14.8 4.5 6.5 6.8 14.7 6.8 24.5v2.5c0 10.2-2.4 19-7.2 26.5-4.8 7.5-11.5 13.4-20.1 17.5-8.5 4.1-18.6 6.2-30.3 6.2z" class="st1"/>
  <path d="M1221.787 431.865c-15.8 0-28.3-4.5-37.5-13.4s-13.7-21.7-13.7-38.3v-12.5h19.1v12.5c0 10 2.6 18.2 8 24.5 5.3 6.3 13.3 9.5 23.9 9.5 10.8 0 18.4-3.1 22.8-9.3 4.5-6.2 6.7-14.4 6.7-24.6v-95.5h-28.4v-17.6h65.3v17.5h-17.5v95.5c0 16.8-4.2 29.6-12.5 38.4-8.3 8.9-20.3 13.3-36.2 13.3z" class="st1"/>
  <path fill="#003b45" d="M1367.9 171.3c.1-.7.1-1.4.2-2.1v-.1h-18.5l-.1.5c-.5 4.2-3.2 7.2-7.1 8.1-1.5.3-3.1.5-4.6.5h-53.1c-1.5 0-3.1-.2-4.6-.5-3.5-.8-5.8-2.9-6.8-6-.4-1.2-.6-2.6-.6-4-.1-2-.1-4.1 0-6.1V157.4l95.6.2v-6.7-15.4c0-2.4-.2-4.5-.5-6.5-.8-5.3-3.2-9.8-7.3-13.3-5.4-4.8-12.1-7.2-19.8-7.3-8.4 0-16.9-.1-25.4-.1h-33.5c-1.7 0-3.6.2-5.6.5-3.4.6-6.5 1.7-9.4 3.3-4.3 2.4-7.6 5.6-9.8 9.6-2 3.6-3 7.5-3 12v33.9c0 1.3.1 2.7.3 4.1 1 7.2 4.9 12.9 11.5 16.9 4.9 2.9 10.5 4.4 16.6 4.4H1340c5 0 9.7-1 13.9-3 8.3-3.8 12.8-10 14-18.7zm-95.3-38.7c.2-4.6 3-7.9 7.6-8.9 1.5-.3 3.1-.5 4.7-.5h52.6c1.6 0 3.8.1 5.9.8 3.7 1.3 5.8 4 6.1 7.8.2 2.2.1 4.5.1 6.7v4.1h-77V141v-2.5c0-1.9-.1-3.9 0-5.9zm500.4-3.5c-.8-5.3-3.2-9.8-7.3-13.3-5.4-4.8-12.1-7.2-19.8-7.3-8.4 0-16.9-.1-25.4-.1H1687c-1.7 0-3.6.2-5.6.5-3.4.6-6.5 1.7-9.4 3.3-4.3 2.4-7.6 5.6-9.8 9.6-2 3.6-3 7.5-3 12v33.9c0 1.3.1 2.7.3 4.1 1 7.2 4.9 12.9 11.5 16.9 4.9 2.9 10.5 4.4 16.6 4.4H1745.2c5 0 9.7-1 13.9-3 8.3-4 12.9-10.2 14-18.8.1-.7.1-1.4.2-2.1v-.1h-18.5l-.1.5c-.5 4.2-3.2 7.2-7.1 8.1-1.5.3-3.1.5-4.6.5h-53.1c-1.5 0-3.1-.2-4.6-.5-3.5-.8-5.8-2.9-6.8-6-.4-1.2-.6-2.6-.6-4-.1-2-.1-4.1 0-6.1V157.4l95.6.2v-6.7-15.4c0-2.3-.2-4.5-.5-6.4zm-18.1 9.4v4.1h-77V141v-2.5c0-1.9 0-4 .1-5.9.2-4.6 3-7.9 7.6-8.9 1.5-.3 3.1-.5 4.7-.5h52.6c1.6 0 3.8.1 5.9.8 3.7 1.3 5.8 4 6.1 7.8.1 2.3.1 4.5 0 6.7zm-670.2-9.4c-.8-5.3-3.2-9.8-7.3-13.3-5.4-4.8-12.1-7.2-19.8-7.3-8.4 0-16.9-.1-25.4-.1h-33.4c-1.7 0-3.6.2-5.6.5-3.4.6-6.5 1.7-9.4 3.3-4.3 2.4-7.6 5.6-9.8 9.6-2 3.6-3 7.5-3 12v34c0 1.3.1 2.7.3 4.1 1 7.2 4.9 12.9 11.5 16.9 4.9 2.9 10.5 4.4 16.6 4.4H1057c5 0 9.7-1 13.9-3 8.3-4 12.9-10.2 14-18.8.1-.7.1-1.4.2-2.1v-.1h-18.5l-.1.5c-.5 4.2-3.2 7.2-7.1 8.1-1.5.3-3.1.5-4.6.5h-53.1c-1.5 0-3.1-.2-4.6-.5-3.5-.8-5.8-2.9-6.8-6-.4-1.2-.6-2.6-.6-4-.1-2-.1-4.1 0-6.1v-1.9c0-.3 0-.5.1-.8l.2-1.3h95.3V151v-15.4c-.1-2.4-.3-4.6-.6-6.5zm-18.1 9.5v2.8c0 .3-.1.5-.2.6l-.2.6-.7.1h-75.7l-.1-1.1c0-.2-.1-.4-.1-.6v-2.5c0-1.9 0-4 .1-5.9.2-4.6 3-7.9 7.6-8.9 1.5-.3 3.1-.5 4.7-.5h52.6c1.6 0 3.8.1 5.9.8 3.7 1.3 5.8 4 6.1 7.8v6.8zm-493.3-7.8V65.3h-18.7v127.8h5.9c3 0 6.5 0 12.7-.1v-14.4c.1-12.8 0-9.9 0-22.7v-25.1zm1304.6-9.1c-2.2-4.2-5.4-7.4-9.5-9.7-4.1-2.3-8.8-3.4-14.4-3.5-7.5-.1-14.3-.1-20.7 0-4.3.1-8.6 1-12.3 2.6-2.5 1.1-4.7 2.8-6.7 4.7l-.1.1v-7.2h-18.7s.4 84.7.1 84.5h18.5l.3-57.3c0-1.7.1-3.2.3-4.5.4-3.3 2.2-5.7 5.3-7 2.2-.9 4.4-1.1 6.3-1.1h24.2c1.3 0 2.6.2 3.9.4 4.7.7 7.7 4.1 8 9.1h18.6c-.4-4.5-1.4-8.1-3.1-11.1zm-687.2 0c-2.2-4.2-5.4-7.4-9.5-9.7-4.1-2.3-8.8-3.4-14.4-3.5-7.5-.1-14.3-.1-20.7 0-4.3.1-8.6 1-12.3 2.6-2.5 1.1-4.7 2.8-6.7 4.7l-.1.1v-7.2h-18.7s.4 84.7.1 84.5h18.5l.3-57.3c0-1.7.1-3.2.3-4.5.4-3.3 2.2-5.7 5.3-7 2.2-.9 4.4-1.1 6.3-1.1h24.2c1.3 0 2.6.2 3.9.4 4.7.7 7.7 4.1 8 9.1h18.6c-.4-4.5-1.4-8.1-3.1-11.1zm-269.5 71.5c1 0 2-.1 3-.2h.2c5.3-.6 10.2-2.5 14.3-5.4 3.6-2.6 6.2-5.7 7.9-9.6 1.3-3.1 2-6.4 2-10.2v-34.1c0-1.8-.1-4.1-.6-6.3-1.4-5.6-4.5-10.1-9.2-13.4-5.3-3.8-11.5-5.7-18.4-5.7h-44.6c-1.8 0-3.6.2-5.4.5-4.1.7-8 2.2-11.6 4.6-.2.2-1.5 1-2.5 1.7v-6.4h-18.6v107.4h18.6v-50.8-30.6c0-1 0-2 .1-3.1.5-3.8 2.5-6.4 5.9-7.5 1.6-.6 3.3-.9 4.9-.9 6.5-.1 12.9 0 19.4 0H919.2c1.5 0 3.2.3 4.9.9 3.6 1.3 5.9 4.5 5.9 8.5v36.3c0 4.7-2.8 8.1-7.3 9.1-1.5.3-3 .5-4.6.5H874.7l-13.9 14.8h59.1l1.3-.1zm582.3-.4V68.1l-18.6.1v98.7c0 1 0 2-.1 3.1-.5 3.8-2.5 6.4-5.9 7.5-1.6.6-3.3.9-4.9.9h-51.9c-1.5 0-3.2-.3-4.9-.9-3.6-1.3-5.9-4.5-5.9-8.5v-36.3c0-4.7 2.8-8.1 7.3-9.1 1.5-.3 3-.5 4.6-.5h43.3l13.9-14.8h-60.6c-1 0-2 .1-3 .2h-.2c-5.4.6-10.2 2.5-14.3 5.4-3.6 2.6-6.2 5.8-7.9 9.6-1.3 3.1-2 6.4-2 10.2v34.1c0 1.8.1 4.1.6 6.3 1.4 5.6 4.5 10.1 9.2 13.4 5.3 3.8 11.5 5.7 18.4 5.7h44.6c1.8 0 3.6-.2 5.4-.5 4.1-.7 8-2.2 11.6-4.6.2-.2 1.2-.8 2.5-1.5v6.2h18.8zM1212.2 66.2v127h18.7v-127zm-550.1 0V124h-76.6l-12.2 14.8h88.8v54.3h18.7v-127h-18.7zm976.2 42.6v-.6h-18.5l-.1 6.6s-7.5-6.8-20.1-6.8h-43.7c-2.2 0-4 .1-5.6.4-4.4.7-8.3 2.2-11.7 4.3-4.9 3.1-8.2 7.2-9.9 12.1-.9 2.6-1.4 5.5-1.4 8.8V167.2c0 2 .1 3.8.4 5.4.8 4.4 2.6 8.3 5.6 11.4 5.5 5.9 12.5 8.9 20.7 9 13.7.2 29.7.1 45.2.1h1.8l13.9-14.8h-57.3c-1.5 0-3.1-.2-4.9-.7-3.9-1.1-6.4-4.1-6.7-8.4v-35.4c0-1.5.1-3.1.7-4.6 1-2.7 2.9-4.5 5.5-5.3 1.7-.6 3.4-.8 4.9-.9 6.5-.1 12.9 0 19.4 0h32.6c1.5 0 3.1.3 4.7.9 2.8.9 4.7 3 5.5 5.9.3 1.2.5 2.4.5 3.5l.1 68.7v3.3c0 .8-.2 1.8-.6 2.7-1 2.2-2.7 3.8-5.2 4.7-1.7.6-3.6 1-5.6.9H1557l-12.2 14.8c13.4.1 36.9 0 54.2 0h12.2c1.3 0 2.6-.1 3.8-.3 4.2-.5 8.3-1.8 12-4.1 4.5-2.8 7.7-6.3 9.6-10.8 1.3-3 1.9-6.3 1.9-10.4V139l-.2-30.2zm-824.2.1v-.4h-18.6v58.7c0 1.3-.1 2.6-.4 3.9-.6 2.8-2.3 4.9-4.9 6.1-1.9.9-4 1.3-6.7 1.3h-49.7c-1.6 0-3.1-.2-4.6-.5-3.5-.8-5.9-2.9-7-6.1-.5-1.5-.5-3-.5-4.4v-58.2-.6H703v58.5c0 1.7.1 3.4.3 5.2.6 4.4 2.4 8.4 5.4 11.7 5.5 6 12.5 9.1 20.9 9.2l48.5.1c5.7 0 10.8-1.4 14.9-4.1.2-.2 1.4-.9 2.4-2.1V205c0 2.8-1.4 5.1-3.9 6.8-2 1.3-4.4 1.9-7.3 1.9h-51.8l-12.2 14.8h66.3c1.1 0 2.4-.1 3.9-.3 5.1-.6 9.8-2.4 13.9-5.4 6.4-4.7 9.6-10.9 9.7-18.4.1-23.5.1-47.4 0-70.5l.1-25z"/>
  <path fill="#4085df" d="M292.5 448.8c0 .3 0 .6-.1.9h-72c.1-.3.1-.6.1-.9.5-1.5 1.7-1.8 3.1-1.7 20.5.1 40.9 0 61.4.1 2.5-.1 5.3-.6 7.5 1.6z"/>
  <path d="M292.4 35.9c0 .3.1.6.1.9-1.5 1.7-3.6 1.6-5.6 1.6-20.3.1-40.6.1-60.9 0-1.3 0-2.7-.2-3.9-.5-.6-.2-1.2-.6-1.6-1.1v-1c23.9.1 47.9.1 71.9.1z" class="st276"/>
  <path fill="#a1f5e3" d="M191.4 35.9c-.1.4-.2.8-.2 1.2-1.3 1.2-3 1.4-4.7 1.4-21.1.1-42.2.2-63.4 0-.7 0-1.3-.2-2-.3-.6-.2-1.2-.5-1.7-1 0-.4 0-.8-.1-1.1 24.1-.2 48.1-.2 72.1-.2z"/>
  <path fill="#4a9bdd" d="M191.1 448.6c.1.4.2.7.3 1.1h-72c.1-.3.1-.6.1-1 .4-.5 1-.9 1.6-1.1 1.8-.6 3.6-.5 5.4-.5h57.4c2.5 0 5.1-.4 7.2 1.5z"/>
  <path d="M322.3 36.7c0-.3 0-.5.1-.8h71v1c-1.4 1.5-3.3 1.6-5.1 1.6-20.2.1-40.4.1-60.6 0-2 0-4 0-5.4-1.8z" class="st276"/>
  <path fill="#4084df" d="M322.4 449.7c-.1-.3-.1-.6 0-.9 1.8-1.9 4.3-1.7 6.6-1.7 19.3-.1 38.5-.1 57.8 0 2.3 0 4.7-.2 6.6 1.6v1h-71z"/>
  <path d="M393.4 448.7c-23.7 0-47.3 0-71 .1h-.1c-.4-2.9 1.1-5.2 2.4-7.4 6-10.3 10.8-21.4 16.8-31.7 1.3-2.3 2.4-4.8 5.5-5.2 20.8-.6 41.5-.2 62.3-.1 2.2 0 5.9-.8 5.2 3.8-6.6 13.6-13.7 27.1-21.1 40.5z" class="st280"/>
  <path d="M467.3 178.8c3.2 5.1 5.9 10.4 8.3 15.9-2.1 2.2-4.9 1.6-7.5 1.6-17.1.1-34.1 0-51.2 0-3.2 0-6.3.1-9.4.8-.6.1-1.3.2-1.9-.1-2.9-1.4-9.2-13.7-8.7-16.9.1-.7.6-1.1 1.2-1.5 2.2-1.4 4.7-1.4 7.2-1.4h55.3c2.4.1 4.8-.1 6.7 1.6z" class="st281"/>
  <path d="M451.6 148.7c2.8 5.4 5.7 10.7 8.5 16.1-2.2 2.1-5 1.5-7.6 1.5-17.2.1-34.4 0-51.7 0-3.1 0-6.3 0-9.4.7-.3.1-.7.2-1 .1-4.1-1.7-9.3-13.1-8.1-17.6 2-1.5 4.4-1.3 6.7-1.3 19.7-.2 39.4.3 59.1-.3 1.4.1 2.5.3 3.5.8z" class="st282"/>
  <path fill="#26aece" d="M451.6 148.7c-2.9.9-5.8 1.1-8.8 1.1-18.4-.1-36.7-.1-55.1 0-1.9 0-4-.8-5.5 1.3-5.5-3.1-6.6-8.9-8.3-14.1-.3-1 .7-1.7 1.7-2.1 1.4-.5 2.9-.6 4.4-.6 20.5-.2 40.9.2 61.4-.2 1 0 2 .1 2.8.8 3 4.3 5.3 9 7.4 13.8z"/>
  <path d="M406.2 197.1c1.8-2.6 4.5-2.3 7.2-2.3 20.7 0 41.5-.1 62.2-.1 2.5 4.7 4.9 9.4 7.4 14.1-2.2 2.1-5 1.5-7.6 1.5-17.1.1-34.2 0-51.3 0-3.2 0-6.3.1-9.4.8-1 .1-2.2.3-2.7-.6-2.7-4-6.1-7.9-5.8-13.4z" class="st284"/>
  <path d="M390.4 166.9c1.2-2.6 3.6-2 5.6-2h64.1c2.4 4.7 4.8 9.3 7.2 14h-61.8c-2.9 0-5.6.3-8.3 1.1-4.4-3.3-6.5-7.8-6.8-13.1z" class="st285"/>
  <path d="M487.3 268.5c-1.9 4.6-4 9.1-6.9 13.3-1.3.4-2.6.6-3.9.6-20.2-.1-40.4 0-60.6-.1-1.5 0-3-.1-4.4-.6-1.5-.6-2.1-1.9-1.5-3.2 2.2-4.7 3.7-9.9 8.5-12.8 3.6-.9 7.3-.5 10.9-.5 16.9 0 33.8-.1 50.7.1 2.6 0 6.2-1 7.2 3.2z" class="st284"/>
  <path fill="#0f7dd2" d="M457.5 325.8c-2.3 5.3-4.8 10.4-8 15.3-9.6-1.4-19.2-.6-28.9-.7-10.8-.1-21.6 0-32.4 0-2.3 0-4.7.2-6.9-.6-.6-.3-1.2-.7-1.4-1.3-.7-3.8 4.5-12.7 8.5-14.4 20.3.5 40.7.1 61 .2 2.8-.1 5.7-.7 8.1 1.5z"/>
  <path d="M487.3 268.5c-1.4-2.4-3.8-1.7-5.9-1.7h-63.9c.6-6 2.5-11.3 8.3-14.3 21.4-.6 42.7-.3 64.1-.2 1.8 0 4.2-.2 4.5 2.6-2.1 4.7-4 9.5-7.1 13.6z" class="st281"/>
  <path fill="#35cdcb" d="M405.1 59.9c2.4 4.3 5.2 8.4 7 13-2.3 3-5.6 2.5-8.7 2.5-20 .1-39.9 0-59.9.1-.6.1-1.2.1-1.8 0-4.6-3.2-5.4-8.4-6.9-13.2-.3-1 .5-1.8 1.5-2.3 2.3-.8 4.6-.6 6.9-.6 19.3-.1 38.6.2 58-.1 1.4-.1 2.8-.2 3.9.6z"/>
  <path d="M322.3 36.7c23.7.1 47.4.1 71.1.2 2.3 4.3 4.5 8.7 6.8 13-2.2 2.1-5 1.5-7.6 1.5-20.5.2-41-.3-61.5.3-6.1-3-7.4-8.8-8.7-14.7l-.1-.3z" class="st288"/>
  <path fill="#0d78d3" d="M380 338.6c21.4 0 42.9.1 64.3.2 1.9 0 4.6-1 5.2 2.3-1.6 4.1-3.6 8-6.1 11.7-1.4.5-2.9.6-4.4.6-19.2-.1-38.5 0-57.7 0-2.3 0-4.7 0-6.8-1.2-1.3-.7-1.9-1.9-1.3-3.3 1.7-3.9 2.9-8 6.8-10.3z"/>
  <path d="M410.3 280.8h63.8c2.2 0 4.3-.2 6.3 1-2.7 4.2-3.7 9.3-6.9 13.3-21.4.7-42.8.2-64.3.2-1.5 0-3-.3-4.3-1.2-1.8-4.2.7-10.6 5.4-13.3z" class="st290"/>
  <path d="M457.5 325.8h-63.9c-2.2 0-4.3.2-6.3-1-.4-6 2.8-9.9 7.3-13.1 6.8-.9 13.6-.4 20.4-.4 13.8-.1 27.6-.1 41.4 0 2.6 0 5.9-.7 6.8 3.2-1.9 3.7-3.1 7.9-5.7 11.3z" class="st291"/>
  <path fill="#0a72d3" d="M373.7 350.7c2.2.8 4.5 1 6.8 1 19.2-.1 38.5 0 57.7 0 1.7 0 3.7-.7 5.1 1-1.9 4.6-4.2 9-6.9 13.3-15.2-1.5-30.5-.3-45.7-.7-7.4-.2-14.9.7-22.3-.6-1.2-.5-2.1-1.4-1.6-2.6 1.6-4.2 2.4-8.9 6.9-11.4z"/>
  <path d="M494.4 230.8c2.4 3.8 4.8 7.6 6.1 12-1.5 1.3-3.3 1.5-5.1 1.6-20.6.1-41.2.1-61.9 0-1 0-2-.1-3-.4-5-3.3-7.3-8.7-5.8-13.1 2.1-1.7 4.7-1.5 7.2-1.5h55.9c2.3-.2 4.6-.3 6.6 1.4z" class="st293"/>
  <path d="M413.3 210.9c1.8-2.3 4.4-2 6.9-2h62.9c2.1 4 4.1 8 6.2 12-2.2 2.1-5 1.5-7.6 1.6-20.3.1-40.6 0-61 .1-4.9-1.6-7.9-6.4-7.4-11.7z" class="st290"/>
  <path d="M429.6 242.8h70.9c-1.1 4.5-3.6 8.3-6 12.1-1.6-1.9-3.7-1.1-5.6-1.1-21.5-.1-43.1-.1-64.6-.1-.8-4.8 2.4-7.8 5.3-10.9z" class="st294"/>
  <path fill="#0261d5" d="M414.5 408c-.6-3.3-3.2-2.3-5.1-2.3-21.4-.1-42.8-.1-64.3-.1 0-5.2 2.1-9.3 6.7-12 6.6-.9 13.3-.4 19.9-.4 14.3-.1 28.6-.2 42.9.1 2.3 0 6.1-1.2 5.9 3.6-2.3 3.5-3.3 7.8-6 11.1z"/>
  <path d="M329.6 50.9c2.4-.8 4.8-1 7.3-1 21.1.1 42.2 0 63.2 0 1.9 3.2 3.9 6.4 5 10-2.4.8-4.8 1-7.3 1h-62.6c-.5.2-.9.2-1.4 0-2.3-2.9-4.2-6.1-4.2-10z" class="st296"/>
  <path fill="#28b3cd" d="M444.2 134.9c-2.4.8-4.8 1-7.3 1h-62.7c-4-2.5-5.9-5.9-4.8-10.6 1.8-1.9 4.1-2 6.4-2 19.1-.1 38.1 0 57.2 0 2.2 0 4.3.2 6.1 1.6 1.9 3.2 4.2 6.3 5.1 10z"/>
  <path fill="#086dd3" d="M367 363.6c21.2 0 42.3.1 63.5.1 2.3 0 4.8-.6 6 2.3-2.1 3-2.5 6.9-5.1 9.7-2 .4-3.9.6-5.9.6h-51.4c-3.8 0-7.7-.1-11.3-1.4-1.5-.5-2.1-1.6-1.5-3.1 1.3-3.1 2.3-6.5 5.7-8.2z"/>
  <path d="M361.7 373.7c21.5 2.1 43 .5 64.6 1 1.7 0 3.7-.7 5.1 1-2 3.7-3.9 7.5-5.9 11.2-20.1-1.5-40.3-.3-60.4-.7-2.8-.1-5.7.3-8.4-.5-3-1.4-1.2-3.3-.5-5 2-2.2 2.1-5.9 5.5-7z" class="st299"/>
  <path d="M419.2 222.1c1.5-2 3.6-1.3 5.5-1.3 21.5-.1 43 0 64.5 0 2.1 3.1 3.9 6.4 5.2 10h-63.8c-2.2 0-4.3-.2-6.3 1-3.9-2.1-5.3-5.5-5.1-9.7z" class="st300"/>
  <path fill="#30c2cc" d="M418.2 85.9c2.9 2.8 4.3 6.5 5.9 10-2.5 2.9-6 2.5-9.2 2.5-19.7.1-39.5 0-59.2.1-.6.1-1.2.1-1.8 0-3.4-3.1-5.4-7-5.8-11.6.4-.5.9-.8 1.5-1 2.3-.7 4.6-.5 6.9-.5h56.2c1.9-.1 3.8-.1 5.5.5z"/>
  <path d="M463.3 314.5c-1.4-2.4-3.8-1.7-5.9-1.7h-63.9c-.1-4.9 1.8-8.7 6.3-11.1 7.8-.9 15.6-.4 23.3-.4 12.9-.1 25.8-.1 38.8.1 2.6 0 6-.6 6.5 3.5-1.7 3.1-3.4 6.4-5.1 9.6z" class="st293"/>
  <path fill="#0464d4" d="M355.5 384.7h62.8c2.6 0 5.4-.3 7.2 2.3-1.6 3.3-2.7 6.9-5.1 9.8-.6-3.1-3.1-2-4.8-2-21.6-.1-43.3 0-64.9 0 .2-4.1 1.2-7.7 4.8-10.1z"/>
  <path d="M468.4 304.8c-1.2-2.6-3.5-2-5.6-2h-64.1c-.5-4.6 1.6-7.8 5.4-10.1 2.1 1.2 4.4 1.1 6.8 1.1h57.2c1.9 0 4-.8 5.5 1.2-1.8 3.3-3.5 6.5-5.2 9.8z" class="st300"/>
  <path d="M439.2 124.9H375c-2.1 0-4.4-.6-5.7 1.9-4.5-2.4-6.3-6.9-4.5-11.2 2.2-1.5 4.8-1.4 7.2-1.4h54.9c2.5 0 5 0 7.2 1.6 1.8 3.1 3.5 6.1 5.1 9.1z" class="st303"/>
  <path d="M434.2 115.9h-63.6c-2.1 0-4.3-.2-6.3 1-4.7-2.8-6.4-7.4-3.9-10.9 2.4-.8 4.9-.6 7.4-.6 19.2-.2 38.4.3 57.6-.3 1.4 0 2.6.1 3.8.9 1 3.6 3.7 6.4 5 9.9z" class="st304"/>
  <path d="M418.2 85.9c-1.8 1.2-3.8 1-5.8 1h-64c-3.1-2.4-5.7-4.9-3.4-9.2 2.1-1.4 4.4-1.3 6.8-1.3 19-.1 37.9 0 56.9 0 2 0 4 .1 5.6 1.5 1.8 2.4 2.9 5.2 3.9 8z" class="st305"/>
  <path d="M429.2 105.9c-7.5 1.8-15.2.9-22.8 1-15.8.1-31.6.1-47.4.1-1.3.1-2.1-.6-2.7-1.6-.8-1.7-1.1-3.3.6-4.8 2.1-1.4 4.4-1.3 6.8-1.3 18.6-.1 37.3.1 55.9 0 2.3 0 4.7-.2 6.6 1.5 1.1 1.8 2.1 3.4 3 5.1z" class="st306"/>
  <path d="M426.3 100.9h-63.6c-2.1 0-4.3-.2-6.3 1-1.8-.8-2.7-2-2-4 1.4-1.7 3.4-1 5.1-1h51.8c4.3 0 8.6.2 12.8-1 1 1.6 2.2 3 2.2 5z" class="st307"/>
  <path d="M414.3 77.9h-63.7c-2.1 0-4.3-.2-6.3 1-1.8-.7-2.6-2-2-3.9 1.4-1.7 3.4-1 5.1-1 19.1 0 38.2-.1 57.3 0 2.5 0 5-.2 7.3-1 .4 1.8 2.6 2.8 2.3 4.9z" class="st305"/>
  <path d="M119.4 37.1c.2.1.5.1.7 0 1.6.8 2.3 2.3 3.1 3.8 7.8 15.8 16.2 31.2 24.5 46.8.7 2.7 4.2 5.3.3 8.2-4.3 1-8.6.5-12.9.6-13.1.1-26.2.2-39.3-.1-2.1 0-5.8 1.3-5.5-3.3 9.8-18.7 19.5-37.4 29.1-56z" class="st280"/>
  <path d="M36.3 196.7c1.8-4.5 4-8.9 6.8-13 2.2-1.6 4.7-1.5 7.2-1.5h55.2c2.5 0 5-.2 7.2 1.3.5.4 1.2 1 1 1.6-1.6 5.6-2.8 11.4-8.6 14.5-20.6-.5-41.1 0-61.7-.3-2.5 0-5.8 1.3-7.1-2.6z" class="st300"/>
  <path d="M50.4 169.8c1.7-4.6 4.3-8.8 6.8-13.1 2-1.5 4.3-1.5 6.7-1.5h56.3c2.3 0 4.7-.1 6.7 1.4.6.6 1.4 1.4 1.1 2.1-2 5-3.1 10.6-8.6 13.3-12.1.8-24.3.2-36.4.4-8.7.1-17.3.1-26 0-2.5-.1-5.2.2-6.6-2.6z" class="st308"/>
  <path fill="#1385d1" d="M50.4 169.8c2 1.2 4.1 1 6.3 1h63.8c.1 5.9-2.8 10.4-7.2 14-1.9-1.3-4.1-1-6.3-1-21.3 0-42.6-.1-63.9-.1 1.9-4.9 4.5-9.4 7.3-13.9z"/>
  <path d="M64.4 142.9c1-4.3 3.8-7.6 5.9-11.2 23 1.3 46.1.2 69.1.6 1.2.2 1.8 1.3 1.4 2.2-2.2 4.6-3.1 10.1-8.6 12.6-17.1.8-34.1.2-51.2.4-4.1 0-8.3.3-12.4-.2-2.3-.3-5.1-.7-4.2-4.4z" class="st310"/>
  <path d="M12.5 242.8c1.6-4.8 4-9.1 6.8-13.3 6.4-.8 12.9-.3 19.4-.3 13.9-.1 27.9-.1 41.8 0 2.6 0 5.3-.3 7.6 1.5 1.5 4.4-.8 9.7-5.7 13.1-2.3.7-4.6.5-6.9.5H20.2c-2.7.1-5.5.5-7.7-1.5" class="st311"/>
  <path fill="#0d78d2" d="M64.4 142.9c.5 3.8 3.5 2.9 5.8 2.9 21.1.1 42.2.1 63.3.1.3 5.2-2.3 8.9-6.2 11.9-1.9-1.3-4.1-1-6.3-1-21.3 0-42.6-.1-63.9-.1 1.8-4.9 4.6-9.3 7.3-13.8z"/>
  <path fill="#1282d2" d="M12.5 242.8h70.8c3.8 1.9 4.5 5.7 5.6 9.2.4 1.2-.3 2.2-1.5 2.7-2.4.8-4.9.6-7.4.6-16.3 0-32.6.1-49 0-4.2 0-8.3.8-12.4.5-2.1-4-4.3-8-6.4-12"/>
  <path d="M88.7 231.9c-2.1-1.2-4.4-1.1-6.8-1.1H24.7c-1.9 0-4 .8-5.5-1.2 1.3-3.5 2.9-6.7 5.1-9.8 1.5-1.3 3.3-1.5 5.1-1.5 20.6 0 41.2-.1 61.8 0 .8 0 1.7.1 2.5.4 1.4.4 2.4 1.3 1.8 2.9-1.5 3.8-2.7 8-6.8 10.3z" class="st314"/>
  <path d="M95.1 219.8H24.3c1.3-4 3.6-7.5 5.7-11.1 2.2-1.5 4.7-1.5 7.2-1.5h55.1c2.5 0 5-.2 7.2 1.2 1.8 3.9.1 8.2-4.4 11.4z" class="st315"/>
  <path fill="#096ed3" d="M140.3 132.9c-1.8 1.2-3.8 1-5.8 1H77.1c-2.5 0-5.1.2-6.8-2.2 1.5-4.2 3.6-8.1 6.1-11.7 3 1.2 6.1 1.4 9.3 1.4h51.2c2.5 0 5-.2 7.4.6 2.6 3.4 1.1 7.6-4 10.9z"/>
  <path d="M100.2 209.8c-1.9-1.3-4.2-1-6.3-1-21.3-.1-42.6-.1-63.9-.1 1.8-4.1 3.8-8.2 6.3-11.9 1.6 1.8 3.7 1 5.6 1 19.1.1 38.2.1 57.3 0 2.4 0 4.6.3 6.8 1 .6 5-2.4 8.1-5.8 11z" class="st317"/>
  <path d="M145.5 122.9c-21.4 0-42.8 0-64.2-.1-2.1 0-5.1 1.1-4.9-2.9.7-2.7 2.2-4.9 3.7-7.2 2.2-1.6 4.7-1.5 7.2-1.5H150c1.3.2 2.4 1 1.8 2.3-1.6 3.4-2.2 7.6-6.3 9.4z" class="st299"/>
  <path fill="#0362d5" d="M90.4 93c.6 2.8 2.8 1.8 4.4 1.8h54.7c3.8 1.5 3.6 5.4 5 8.3.3 1.4-.2 2.3-1.5 2.8-1.6.6-3.3.6-4.9.6H90.8c-2.3 0-4.7.3-6.6-1.6 1.4-4.4 3.9-8.1 6.2-11.9z"/>
  <path fill="#0465d4" d="M84.3 104.9h70.1c.4.4.6.8.7 1.3-.1 2.7-1 4.8-3.8 5.7-1.5.9-3.1 1-4.8 1-22.1-.1-44.3-.1-66.4-.1 1-2.9 2.2-5.6 4.2-7.9z"/>
  <path d="M72.6 358.7c-2.3-4.3-4.6-8.7-6.8-13 2.2-2.1 5-1.5 7.6-1.5 17.3-.1 34.6 0 51.9 0 3 0 6-.1 8.9-.7.8-.2 1.8-.3 2.3.3 3.1 4.3 6.6 8.5 5.8 14.4-1.5 1.9-3.7 2-5.9 2-19.4.1-38.8.1-58.2 0-2 .1-3.9-.2-5.6-1.5z" class="st320"/>
  <path fill="#25abce" d="M135.4 343.6c-1.2 2.9-3.8 2.2-6 2.2H65.7c-2.4-3.4-4.2-7-5.6-10.9 1.9-3.3 5.1-2.6 8-2.6 17-.1 34 0 51 0 3 0 6 0 9-.4 1.7-.7 2.9 0 3.7 1.4 1.8 3.1 3.9 6.3 3.6 10.3z"/>
  <path d="M34.5 285.8c-1.9-3.7-3.9-7.3-5.8-11 2.5-2.9 6-2.5 9.3-2.5 19.8-.1 39.7 0 59.5-.1 4.8 2 8.2 8.8 6.8 13.8-2 1.5-4.4 1.3-6.7 1.3H41.7c-2.5.1-5 .1-7.2-1.5z" class="st317"/>
  <path d="M98.4 272.7c-1.4 1.7-3.4 1-5.1 1H41c-4.1 0-8.3-.2-12.3 1-2.1-4-4.1-8-6.2-12 2-2 4.7-1.5 7.1-1.5 20.5-.1 41 0 61.5-.1 4.7 1.3 7.8 6.1 7.3 11.6z" class="st300"/>
  <path fill="#2ab7cd" d="M72.6 358.7h63.8c2.1 0 4.4.6 5.9-1.6 4.5 1.8 7.2 8.6 5.1 12.8-2.4 1.5-5.1 1.4-7.7 1.4H85.5c-2.5 0-5 .2-7.1-1.6-2.4-3.4-4.2-7.1-5.8-11z"/>
  <path d="M54.3 323.8c-1.9-3.7-3.8-7.4-5.7-11 2.2-2.1 5-1.5 7.6-1.5 17.4-.1 34.9 0 52.3 0 3 0 6 .1 8.9-.5 4.8 1.1 8.2 8.3 6.4 13.3-2.2 1.6-4.7 1.4-7.2 1.4H61.4c-2.5-.2-5 0-7.1-1.7z" class="st285"/>
  <path d="M34.5 285.8H99c1.9 0 4.1.8 5.5-1.3 4.6 2.5 7 8.1 5.5 12.8-2.3 1.4-4.8 1.1-7.3 1.1H47.9c-2.6 0-5.4.3-7.6-1.6-2.3-3.4-4.1-7.2-5.8-11z" class="st315"/>
  <path d="M54.3 323.8h64c2.2 0 4.3.1 6.3-1 4 1.9 4.7 5.5 4.8 9.4-1 2.8-3.4 1.6-5.1 1.6-19.1.1-38.2.1-57.3.1-2.3 0-4.7-.2-6.8 1.1-2-3.8-4-7.5-5.9-11.2z" class="st282"/>
  <path d="M78.4 369.7c20.9 0 41.8 0 62.8.1 2.5 0 4.9-.5 7.3-1.1 4.2 2 4.7 5.6 4.3 9.6-1.7 2.1-4.1 2-6.4 2-19.1.1-38.1.1-57.2 0-2.2 0-4.3-.2-6.2-1.5-1.7-2.9-3.6-5.8-4.6-9.1z" class="st323"/>
  <path d="M97.3 405.8c-2-3.7-4-7.3-6-11 1.5-2.3 3.9-2.5 6.2-2.5 14.8-.2 29.6-.1 44.4 0 1.7 0 3.3.2 4.8 1.2.5.4.9.8 1.1 1.4-.1 3.9-2 7.1-3.8 10.3-.7 1.3-1.8 2.3-3.5 1.9-12.6-1.6-25.2-.4-37.8-.7-1.9-.2-3.7.2-5.4-.6z" class="st305"/>
  <path d="M40.4 296.8h64.4c1.9 0 4 .8 5.6-1 4.1 2.4 5.1 5 3.8 9.4-2.2 1.5-4.8 1.3-7.2 1.3H52.1c-2.7 0-5.4.1-7.7-1.6-1.7-2.6-3.1-5.2-4-8.1z" class="st314"/>
  <path fill="#1e9dcf" d="M44.4 304.7h65.1c1.7 0 3.7.6 5-1.3 3.4 1.5 4 4.4 3.9 7.7-1 2.7-3.4 1.6-5.1 1.6-21.5.1-43.1 0-64.6 0-1.5-2.6-2.9-5.3-4.3-8z"/>
  <path fill="#2ec0cc" d="M83 378.8c21.4 0 42.9-.1 64.3-.2 1.9 0 4.6 1.1 5.2-2.3 2.2.1 3.1 1.9 4.2 3.4-.1 2.6-1.9 4.5-2.9 6.7-.9 1.3-2.1 1.9-3.7 1.8-18.4-.1-36.8 0-55.2 0-2.6 0-5.4.3-7.6-1.5-1.9-2.3-3-5.1-4.3-7.9z"/>
  <path d="M97.3 405.8c1.6-1 3.4-1.1 5.3-1.1h33.7c2 0 4.1-.3 5.1 2 .3.5.4 1 .3 1.5-1.7 4.2-2.2 9.2-7.7 10.8-8.6.6-17.3.2-25.9.2-1.7 0-3.3-.3-4.6-1.5-2.5-3.8-4.7-7.7-6.2-11.9z" class="st326"/>
  <path d="M87.3 386.7h59.4c1.6 0 3.4-.6 4.7 1 .9 3.6-.8 5.7-3.9 7-1.8-1.1-3.8-1-5.8-1-14.5 0-29.1.1-43.6 0-2.4 0-4.6.6-6.8 1.1-1.9-2.4-2.9-5.3-4-8.1z" class="st327"/>
  <path d="M18.6 255.8c1.9-1.9 4.3-2 6.9-2h63.1c3.2 1.3 3.4 3.3 1.5 5.9-2.1 1.6-4.6 1.6-7.1 1.6H27.3c-2.2 0-4.3-.1-6.2-1.4-1.5-1-2-2.6-2.5-4.1z" class="st293"/>
  <path d="M103.4 417.7h32.1c1.3 2.2-.5 3.9-1.1 5.7-1.8 2.5-1.8 6.5-6 6.8h-14c-1.9 0-3.7-.2-5.2-1.4-2.3-3.5-4.3-7.2-5.8-11.1z" class="st296"/>
  <path d="M109.3 428.7c6.7.5 13.5-1.3 20.1 1 .4 2.8-1.5 4.9-2.1 7.3-2.4 3.8-3.7 8.2-6.9 11.6-.3 0-.6 0-.9.1-3.5-6.6-7.4-13-10.2-20z" class="st288"/>
  <path d="M21 259.9c20.3 0 40.6-.1 60.9-.1 3 0 6-.2 8.8-1.2 1.5.3 1.9 1.4 1.8 2.8-1.4 2.1-3.6 1.3-5.5 1.3-21.5.1-43 0-64.5 0-.5-.9-1-1.8-1.5-2.8z" class="st293"/>
  <path fill="#42ebc8" d="M146.6 87.9c-9.1-16.8-18.1-33.6-26.4-50.8h71c4 7.7 8 15.5 12.1 23.2.7 1.4 1.1 3.2 2.8 3.9 2.5 2.7 3.7 6.3 5.5 9.4 1.6 3.5 3.7 6.9 5.2 10.5.4 1.2.4 2.3-.3 3.3-1.6 1.8-3.8 2-5.9 2-19.4.1-38.8.1-58.2 0-2.2.1-4.2-.3-5.8-1.5z"/>
  <path d="M210.5 73.9c-1.5-3.2-4.1-6-4.5-9.7.3-.5.6-.9.9-1.4 4.1-1.4 8.2-.1 12.3-.3 4.8-.2 9.6 0 14.4-.3 4.7 2.1 6 6 5.7 10.8-.5.5-1 .9-1.7 1-9 .6-18 1-27.1-.1z" class="st329"/>
  <path fill="#0c75d3" d="M234.5 62.9c-9.2 1.7-18.3 1.6-27.5-.1 1.4-3.5 3.2-6.9 5.3-10.1 5.4-.6 10.9 0 16.4-.3 4.7 1.2 4.8 5.6 6.2 9 0 .6-.1 1-.4 1.5z"/>
  <path fill="#0b70d4" d="M229.4 52.9c-5.7 1.5-11.4 1.8-17.1-.2 2.7-5.3 5.4-10.5 8.1-15.8.3 0 .7 0 1 .1 3.4 2.2 4.4 5.9 6 9.2.8 1.8 1.5 3.6 2.3 5.3.1.5 0 1-.3 1.4z"/>
  <path fill="#39d6ca" d="M229.4 51.9c-3.9-4.3-4.6-10.3-8-14.9 23.7-.1 47.4-.1 71-.2 2.3 4.4 4.5 8.7 6.8 13.1-1 2.3-3.1 2.4-5.1 2.5-20.6.2-41.3.1-61.9.1-.9 0-1.8-.5-2.8-.6z"/>
  <path d="M234.5 62.9c0-.3-.1-.7-.1-1 1.6-1.6 3.6-1.5 5.6-1.6 20.7-.2 41.5.1 62.2-.2 1 0 2 .2 2.8.8 1.1.9.9 3.1 3 2.9 1.8 2.1 2.4 4.7 3.5 7.1.7 1.7.6 3.3-1.2 4.3-1.8 1-3.8 1.2-5.8 1.2-19.5.1-39 .1-58.4 0-1.2 0-2.3-.1-3.5-.4-2.1-.5-2.8-2.2-3.3-4-1.7-3-2.5-6.5-4.8-9.1z" class="st326"/>
  <path fill="#36d1ca" d="M305.1 60.9c-2.2.7-4.5 1-6.8 1-21.3-.1-42.6 0-63.8 0-2-2.8-2.6-6.4-5-9V52c1.5-1.7 3.4-1 5.2-1h58.4c2.1 0 4.4.3 6.3-1 1.8 3.6 3.7 7.3 5.7 10.9z"/>
  <path d="M311.5 73.9c-.5-3.6-4.2-6-3.4-10 .4-.7.8-1.3 1.1-2 1.8-1.4 3.9-1.5 6.1-1.5 6.4.2 12.8-.6 19.1.5.3 0 .6.1.8.1 2.1 4.6 4.1 9.3 6.2 13.9-1.9 1.9-4.3 1.5-6.6 1.5-6.8.1-13.7-.2-20.5.4-1.7-.2-2.8-1-2.8-2.9z" class="st329"/>
  <path fill="#0b74d3" d="M334.4 60.9c-3.4 2.2-7.1.8-10.7 1-4.8.3-9.7 0-14.5 0 4-8.5 8-17 13.1-24.8l7.2 13.8c1.7 3.3 3.3 6.7 4.9 10z"/>
  <path d="M222.2 447.6c-.6.4-1.1.8-1.7 1.1-4.2-7.8-8.4-15.7-12.7-23.5-.7-1.3-1.5-2.5-2.3-3.7-1.9-4-4.3-7.8-6.2-11.8-2.2-4.3-4.5-8.6-6.7-13-1.4-4.3-5.3-7.4-6.1-12 0-.9.3-1.7 1-2.4 1.6-1.2 3.4-1.3 5.2-1.3 19.4-.1 38.8-.1 58.2 0 1 0 2 .1 2.9.4.6.2 1.1.4 1.5.8 1.2 4.1-1.9 6.9-3.1 10.3-2 3.9-4.6 7.4-6.2 11.4-6.1 12.6-13.2 24.7-19.2 37.3-1.1 2.6-2 5.2-4.6 6.4z" class="st335"/>
  <path d="M126.4 436.7c.5-2.6 1.4-4.9 3-7 1.4-2.3 2.7-4.7 4.1-7 1.7-1.2 3.6-1.6 5.7-1.6 19.4 0 38.9-.1 58.3.1 2.4 0 5.2-.2 5.9 3.2-2 4.6-3.8 9.3-6.8 13.4-1.2.6-2.4.9-3.8.9-19.7-.7-39.5-.1-59.2-.4-2.5-.1-5.1.4-7.2-1.6z" class="st336"/>
  <path d="M203.3 424.4c-1.5-2.3-3.8-1.6-5.9-1.7h-63.9c.7-1.7 1.3-3.3 2-5 3.4-2.5 2.9-7.3 5.9-10 4.3-1 8.6-.5 12.9-.5 12.8-.1 25.6-.1 38.4 0 2.8 0 5.8-.3 7.6 2.6 1.7 4 5.6 7 5.2 11.9-.7.8-1.5 1.7-2.2 2.7z" class="st337"/>
  <path d="M126.4 436.7h55.3c5 0 9.9-.2 14.8 1.1-1.8 3.6-3.6 7.2-5.4 10.9h-70.7c1.3-4.4 3.6-8.3 6-12z" class="st338"/>
  <path d="M222.2 447.6c7.7-14.7 15.4-29.3 23.2-44 1.8-1.5 4-1.6 6.1-1.6 19.1 0 38.2-.1 57.2 0 2 0 4 .1 5.8 1.1 1.4 1 2 2.4 1.2 3.9-2.7 4.8-4.3 10.3-8.4 14.4-4.9 9.1-9.9 18.2-14.8 27.3-21.6 0-43.1 0-64.7-.1-1.9 0-4 .7-5.6-1z" class="st280"/>
  <path d="M307.3 421.5l8.1-16.8c.3-3.9 3-6.8 4.2-10.3 1.9-3 2.5-6.8 4.9-9.6 1.9-1.9 2.1-5.5 5.7-5.8 8.6.2 17.2 1.1 25.8-.6 1.5 0 2.2.7 1.5 2.2-.7 1.4-1.3 2.8-2 4.2-1.6 3.3-3.3 6.7-4.9 10-1.9 3.6-3.7 7.3-5.6 10.9-7.6 14.4-15.2 28.7-22.8 43.1-4.9-9.2-9.9-18.2-14.9-27.3z" class="st335"/>
  <path d="M357.5 380.6c-.4-.6-.8-1.2-1.1-1.8-.8-.2-1.5-.8-1.9-1.5-4.1-8.1-8.7-16-11.9-24.5.3-3.6 1.8-6.7 3.8-9.6 3.1-3.4 3.5-8.3 6.2-11.8 2.7-4.1 4.3-8.9 7-13.1 2.8-4.4 4.7-9.2 7-13.9 2-2.9 3-6.4 4.9-9.3 3.3-4.1 4.3-9.3 7.1-13.7 2.7-4.1 4.3-8.9 7-13 3-4.3 4.2-9.4 6.9-13.8 2.4-4 5.8-7.5 5.8-12.6-1.8-3.7-4-7.1-5.9-10.7-1.1-3.5-3.2-6.5-4.9-9.8-.6-1.9-1.6-3.7-2.9-5.2-1.1-1.5-1.9-3.1-2.5-4.9-1.2-3.2-2.9-6.2-4.5-9.3-1.4-3.4-3.7-6.4-5.4-9.7-2.1-4.4-4.4-8.8-6.6-13.1-1-2.1-2-4.2-3.1-6.2-1.4-3.5-4.5-6-5.5-9.6-1.5-3.9-3.6-7.5-5.5-11.3-1.6-3.9-4.2-7.3-6.1-11.1-1.1-2.9-3.5-5.4-2.9-8.9 3.6-7.9 7.5-15.6 11.9-23.1.7-1.2 1.3-2.6 2.8-3.2.6.4 1.2.9 1.7 1.3 1.4 3.5 2.9 6.9 5.3 9.9 1.1 3.6 3.1 6.8 5 9.9 1.2 3.2 2.8 6.3 4.8 9.1 1.9 5.5 4.9 10.4 8 15.2 2.2 5.5 5 10.7 8.1 15.7 1.9 4.5 4.1 8.9 6.8 13 2.5 6 5.5 11.8 9 17.3 1.8 4.9 4.4 9.4 7.1 13.7 1.5 4 3.5 7.7 5.9 11.2 1.1 3.5 3 6.7 5.1 9.7.7 4.1 3.8 7.2 5.3 11-1.8 3.7-3.6 7.3-5.4 11-2.2 4.3-4.5 8.7-6.7 13-2.6 4.6-5.3 9-7.2 14-2.6 3.7-4.5 7.7-6.3 11.9-1.8 3.4-3.6 6.7-5.4 10.1-1.7 3.3-3.4 6.7-5.2 10-2.3 3.9-4.6 7.8-6.2 12-2.4 4.6-4.9 9.2-7.3 13.9-2.1 4-4.2 8.1-6.3 12.1l-6.6 12.9c-1.8 3.4-3.6 6.7-5.4 10.1-1 2.1-2.4 4.4-3.8 6.7z" class="st274"/>
  <path d="M313.4 75.9c9.3-2.1 18.7-.5 28.1-1 .3 0 .6 0 .9.1.7 1.3 1.4 2.6 2 3.9 1.4 2.7 2.7 5.3 4.1 8v1c-1 2.2-3.1 2.4-5.1 2.4-7.3.1-14.6.4-21.9-.2-1.5-.3-2.6-1.1-3.6-2.3-2.4-3.6-5.3-7.1-4.5-11.9z" class="st336"/>
  <path fill="#1386d1" d="M320.3 88.9h22.3c2 0 4 .1 5.8-1 2.2 3 4 6.3 5 10 .7 3.8-2.4 3.4-4.4 3.4-7.1.2-14.2.4-21.3-.1-.6-.1-1.2-.2-1.7-.4-3.6-3.1-6.3-6.7-5.7-11.9z"/>
  <path fill="#168ad1" d="M326.3 99.9c7.6 0 15.2 0 22.8-.1 1.7 0 3.9.7 4.3-2 .3 0 .6.1 1 .1.7 1.3 1.4 2.6 2 4 .3 1.3.6 2.5 1 3.8-.7 1.1-1.3 2.1-2 3.2-1.2 2-3.1 1.5-4.9 1.5-6.1 0-12.3-.2-18.4.3-4.4-2.4-6.4-5.9-5.8-10.8z"/>
  <path d="M146.6 87.9h64.1c2.1 0 4.4.6 5.7-1.9 3.1 0 3 2.9 4.2 4.6 1.1 1.8 2 3.7 2.9 5.6.7 1.7 1.2 3.3.2 5-1.5 2-3.7 2.2-5.8 2.2-20.4.1-40.9.1-61.3.1-1 0-2-.3-2.9-.6-1.6-2.5-1.8-5.8-4-8-1.1-2.4-2.1-4.7-3.1-7z" class="st341"/>
  <path d="M92.5 261.5c-.6-.9-1.2-1.9-1.8-2.8-.1-1.9-.9-3.5-2.2-4.9-1.8-3.6-3.5-7.3-5.3-10.9 1.8-3.6 3.6-7.3 5.4-10.9 2.1-4 4.3-8.1 6.4-12.1 1.7-3.3 3.4-6.7 5.2-10 1.9-3.7 3.9-7.3 5.8-11 2.4-4.7 4.8-9.3 7.2-14 2.8-4.5 5.3-9.1 7.2-14 2.6-4.2 5-8.5 6.8-13 2.4-3.8 4.6-7.7 6.2-11.9 2.6-4.2 5-8.4 6.8-13 2.1-3.1 3.9-6.4 5.2-9.9 2.3-3.5 4.2-7.2 5.8-11 1.1-2 2.3-4.1 3.4-6.1 2.5-.8 2.9 1.4 3.8 2.7 1 1.6 1.8 3.4 2.7 5.1 1.6 3.5 3.3 6.8 5.1 10.2 1.3 3.4 4.5 6 4.1 10-1.7 5.3-4.8 10-7.1 15.1-1.7 3.1-3.3 6.2-5.1 9.2-2.2 3.9-4 7.9-6 11.9-1.7 3-3 6.3-5 9.3-2.7 4.4-4.8 9.1-7 13.7-2.2 4.4-4.7 8.7-7 13-2.8 5.2-5.3 10.5-7.9 15.8-1.8 3-3.7 5.9-5.1 9.1-1.8 3.7-4 7.2-5.3 11.2.8 5.6 4.5 9.9 6.6 15 1.7 3.6 3.3 7.2 5.6 10.4 2.4 4.8 4.9 9.6 7.3 14.5 1 2.3 2.3 4.5 3.8 6.6 2.8 5.5 5.5 10.9 8.3 16.4 1.2 3 3.2 5.7 4.8 8.5 2 4.2 4.2 8.4 6.3 12.6 2.1 5 5.2 9.5 7.7 14.3 1.6 3.8 4 7.1 5.1 11.1.1.7.1 1.5 0 2.2-2.6 7.5-7.5 14-10.7 21.2-1 1.6-1.4 3.6-3.3 4.5-2.7.8-2.1-2.5-3.7-3.1-1.3-2.6-2-5.5-4-7.7-1.9-3.9-3.3-8.2-6.2-11.6-2.1-4.6-3.9-9.4-6.9-13.5-2.2-3.7-3.2-8.1-6.1-11.5-1.4-3.2-2.6-6.6-4.8-9.4-1.9-3.9-3.3-8.2-6.2-11.6-1.5-2.5-1.8-5.5-3.9-7.7-1.1-2.8-2.2-5.5-4.1-7.8-1.8-3.8-3.2-7.9-5.9-11.2-1.5-4.2-3.6-8.1-6.1-11.8-1.5-4-3.4-7.8-5.9-11.2z" class="st274"/>
  <path fill="#3de0c9" d="M160.2 113.9c-2.4-2.3-2.4-6.4-5.5-8.2l-.3-.9c-.3-.7-.6-1.4-.8-2.1 2-1.3 4.2-.9 6.3-.9h57.9c2.1 0 4.5.5 5.6-2.1 4 1.3 3.9 5.6 6 8.3.6 1.4 1.1 2.7.8 4.3-.9 2.9-3.4 3-5.7 3-19.7.2-39.4.1-59.2 0-1.8.1-3.5-.2-5.1-1.4z"/>
  <path fill="#168cd1" d="M200.3 409.7c-2-1.2-4.2-1-6.3-1h-47.5c-1.7 0-3.7.7-5.2-1v-1c3.1-3 3.2-7.8 6-11 6.8-1.3 13.6-.4 20.4-.6 6.3-.1 12.7-.1 19 0 2.3 0 4.7-.1 6.7 1.5 2.8 4.2 5 8.6 6.9 13.1z"/>
  <path fill="#1890d0" d="M193.5 396.7h-41.4c-1.6 0-3.4.6-4.7-.9v-1c1.6-2.2 3.2-4.3 3.9-7 .6-.7 1.3-1.3 1.9-2 4.8-2.3 29.3-2.3 34 0 2.6 3.3 5.1 6.7 6.3 10.9z"/>
  <path d="M187.3 385.7h-34c.1-2.5 2.2-4 2.9-6.2l2.4-4.8c3.8-2.6 8-1.3 12.1-1.5 3.5-.1 7-.3 10.4.4 4.3 2 5.2 6.1 6.2 10.1v2z" class="st345"/>
  <path d="M222.2 96c-2-3.3-3.9-6.7-5.9-10-.2-.7-.5-1.4-.7-2.1 1.6-2.5 4.2-2.4 6.6-2.4 7.1-.1 14.1 0 21.2-.1 4 .2 4.1 4 5.9 6.4.9 2.1 2.3 4.1 1.7 6.5-.9 1.8-2.5 2.7-4.4 2.8-7.2.6-14.5.5-21.7.1-1-.1-1.9-.7-2.7-1.2z" class="st291"/>
  <path d="M244.4 81.8c-1.6 1.8-3.7.9-5.6 1-7.7.5-15.5-1-23.1 1-1.7-3.3-3.4-6.7-5.1-10 7.5-2 15.1-.5 22.6-1 2.1-.1 4.3.8 6.2-.8 1.3.5 1.4 1.9 2.1 2.9 1.7 2 3.5 4 2.9 6.9z" class="st308"/>
  <path d="M244.4 81.8c-1-2.3-2.7-4.3-3-6.9h61.8c2.8 0 5.6-.2 8.3-1.1.6.7 1.2 1.4 1.9 2 1.4 3.8 2.8 7.6 5 11-1.5 1.6-3.6 1.6-5.6 1.6-20.5.2-41.1-.2-61.6.2-1 0-2-.2-2.8-.8-1.4-1.9-2.7-3.9-4-6z" class="st305"/>
  <path fill="#0362d4" d="M320.5 394.9c-1.3 3.5-2.8 6.8-5.1 9.8-2-1.2-4.1-1-6.3-1h-63.8c1.2-4.1 3.6-7.5 5.8-11.1 1.8-1.4 4-1.5 6.2-1.5 18.6 0 37.1-.1 55.7.1 2.9 0 6.6-.7 7.5 3.7z"/>
  <path fill="#41e7c8" d="M187.4 383.7l-5.1-9c-.2-.6-.1-1.2.3-1.8 2.3-2.2 5.3-1.8 8-1.8 17-.1 34 0 51 0 2.8 0 5.7 0 8.5-.4 2.3-1 3.4.6 4.3 2.2 1.1 1.9 2.2 3.7 3.3 5.5.1 1.8.3 3.7-2.2 4.2h-63.4c-1.6.1-3.4-.4-4.7 1.1z"/>
  <path d="M255.5 382.7c.6-1.3 1.2-2.5 1.8-3.8-.4-1 .1-1.8.7-2.5 2-3.7 4.9-4.5 9.1-4.4 18.6.5 37.3.1 56 .2 2.5 0 5-.3 7.4.7 2.8 2.8.4 4.7-1.2 6.8-1.8 1.6-1.7 4.4-3.8 5.8-20.8-.2-41.6 0-62.4-.1-2.6 0-5.4.5-7.6-1.6-.1-.4 0-.7 0-1.1z" class="st299"/>
  <path fill="#0566d4" d="M255.3 383.7c21.6 0 43.3 0 64.9.1 1.7 0 4.2-1.2 5.1 1.7-2.4 2.8-2.2 6.9-4.8 9.5-1.9-2.5-4.6-2.2-7.2-2.2-20.7 0-41.4-.1-62.1-.1 1.3-3.1 2.7-6 4.1-9z"/>
  <path d="M329.2 379.6c.2-2.2 1.3-4 2.3-5.9.3-3.6 1.8-6.7 3.9-9.7 2.9-3.3 3.8-7.8 6.5-11.2.4-.3.8-.4 1.3-.1 4.4 8.7 8.8 17.4 13.2 26-.6.6-1.1 1.6-1.7 1.6-8.6.1-17.1 1.6-25.5-.7z" class="st341"/>
  <path d="M386.4 268.8c-2 4.5-4.1 8.9-6.9 13-2.4 1.4-5 1.5-7.7 1.5-19.8-.2-39.5.5-59.3-.4-1 0-2 .2-3 .2-.6 0-1.2-.2-1.5-.7-.3-6.1 4.8-14.8 9.7-16.6 20.5.8 41 .1 61.6.4 2.5.1 5.8-1.1 7.1 2.6z" class="st345"/>
  <path d="M386.4 268.8c-1.5-1.7-3.4-1-5.2-1-18.8 0-37.6-.1-56.3 0-3 0-5.9-.2-8.8-1.1-.4-4.9 2.5-8.4 5.5-11.7 1.9-2.3 4.5-2.7 7.2-2.7 19.5-.1 38.9-.1 58.4 0 2.4 0 5.1-.2 6.5 2.6-2.6 4.6-4.2 9.6-7.3 13.9z" class="st281"/>
  <path d="M360.3 318.7c-1.9 4.6-4.2 9-6.9 13.2-5.6.9-11.3.4-16.9.4-14.9.1-29.9 0-44.8 0-2.5 0-5 .2-7.4-.7-1.8-.9-1.7-2.3-1.1-3.9 1.6-2.9 3-5.9 4.6-8.8.9-1.6 2.1-3 4-3.5 8.6-.9 17.2-.3 25.8-.4 12.4-.1 24.8-.2 37.2.1 2.2.2 5.9-1.1 5.5 3.6z" class="st336"/>
  <path d="M360.3 318.7c-.7-3-3.2-1.9-4.9-1.9-21.7-.1-43.3 0-65 0-.8-1.3-.1-2.5.3-3.7 1.3-3 3.1-5.7 4.4-8.7.7-1.7 1.6-3.3 3.9-3 3.1.7 6.3.8 9.4.8 17.5 0 35-.1 52.5.1 2.4 0 5.5-1 6.5 2.7-2 4.7-4.1 9.4-7.1 13.7z" class="st293"/>
  <path d="M308.4 282.8c1-.7 1.6-2.1 3.2-2 22.6 2.2 45.3.3 67.9 1-2.5 4.5-3.8 9.5-7.2 13.6-20.1-.1-40.1 0-60.2-.1-2.8 0-5.7.3-8.2-1.3-2.4-2.4-.9-4.7.2-7 1.3-1.6 2-3.7 4.3-4.2z" class="st290"/>
  <path fill="#1e9ccf" d="M366.4 178.8c2.8 4.1 4.9 8.5 6.9 13-2.4 2.2-5.3 1.5-8.1 1.6-20.2.2-40.4-.3-60.7.3-2 0-3.4-1.1-4.3-2.9-1.1-2.5-2.4-5-3.5-7.5-.7-1.6-1.6-3.5 1-4.4 2.3-.7 4.6-.5 6.9-.5 19.1 0 38.2.1 57.3-.1 1.6-.1 3.1-.2 4.5.5z"/>
  <path d="M343.4 131.9c-.4 3.5 2.6 5.8 3.2 8.9-2 2.1-4.6 1.5-7.1 1.5-17.5.1-35 0-52.5 0-7.1 0-7.1 0-5.3 6.6.2.8.3 1.6 0 2.4-1.8 1.7-2.6-.1-3.3-1.2-1.8-2.7-3.8-5.3-4.5-8.5.1-3.6-2-6.2-3.9-9-.4-1.1-.3-2.2.5-3.1 2.4-1.6 5.1-1.3 7.7-1.3 20.3-.1 40.5.2 60.8-.2 2.6.1 3.9 1.5 4.4 3.9z" class="st350"/>
  <path d="M393.6 254.9c-1.8-1-3.8-1.1-5.8-1.1-19.9 0-39.8.1-59.7-.1-3.1 0-4.8 1.5-6.8 3.1.1-6.6 3-11.5 8.4-15.1 6.8-.9 13.6-.4 20.4-.4 14.3-.1 28.6 0 42.8 0 2.2 0 4.3-.2 6.4.6.1 5.1-3.4 8.8-5.7 13z" class="st294"/>
  <path d="M399.4 241.8c-1.7 1.7-3.8.9-5.7.9-21.9.1-43.8.1-65.7.2-3.6-2.2-4.6-5.7-4.5-9.6 1.5-3.7 4.9-3 7.7-3 17.8-.1 35.6-.1 53.4 0 2.9 0 6-1.1 8.8.6 2.5 3.2 4.4 7 6 10.9z" class="st337"/>
  <path d="M393.3 230.8c-2.6.8-5.1 1-7.8 1-18.8-.1-37.5 0-56.3 0-2.2 0-5-.8-4.8 3.1-4.6-3.1-6.5-7.6-6.5-13 .3-.6.7-1 1.2-1.4 2.3-1.4 4.8-1.3 7.3-1.3h54.8c2.5 0 5-.3 7.1 1.6 2 3.1 4.2 6.2 5 10z" class="st300"/>
  <path fill="#23a8ce" d="M352.3 151.9c2.4 3.4 4.2 7.2 5.8 11-2.4 2.2-5.3 1.5-8.1 1.6-20.1.2-40.2-.3-60.4.3-.6 0-1.2-.1-1.8-.2-3.2-3.7-6.5-7.4-5.4-13 2.1-1.4 4.4-1.2 6.7-1.2 19.4-.1 38.8.1 58.2-.1 2-.1 3.9-.4 5 1.6z"/>
  <path d="M352.3 151.9c-22.6 0-45.2 0-67.8.1-.7 0-1.5.6-2.2.9-.3.4-.7.5-1.2.5-.7-.3-1.1-.7-.8-1.5 1.6-3.4-1.4-5.4-2.6-7.8-1.2-2.5-.4-3 1.7-3.1 1.3-.1 2.7 0 4 0 21.1 0 42.1 0 63.2-.1 2.3 3.4 4.3 7 5.7 11z" class="st352"/>
  <path fill="#1a93d0" d="M318.4 221.8c-.1.5-.1.9-.2 1.4-1.7-.1-2.6-1.3-3.3-2.6-2.3-4.3-4.5-8.7-6.6-13.2-.8-1.7-1.1-3.4.1-5.1 2-2 4.5-1.9 7-2 19-.1 37.9 0 56.9 0 2.2 0 4.4 0 6.1 1.6 2.1 2.7 3.4 5.9 4.8 9-2.6 2.8-6 2.5-9.3 2.5-17.4.1-34.8 0-52.2.1-1.7 0-4.7-1.6-4.7 2.3.5 2 2.1 3.7 1.4 6z"/>
  <path d="M283.3 330.7c21.5 0 43.1 0 64.6.1 1.9 0 4-.8 5.6 1.1-2.4 3.6-3.2 8.1-6.1 11.5-2.8-1.2-5.8-1.1-8.8-1.1h-51.7c-2.5 0-5 .2-7.4-.6-2.5-3.5-1-8 3.8-11z" class="st338"/>
  <path fill="#1b97d0" d="M378.4 201.8h-64.2c-2.3 0-4.8-.6-6 2.3-.8 0-1.4-.5-1.8-1.2-.9-3.4-4.5-6-3.1-10.1 2-1.2 4.1-1 6.3-1h63.6c2.1 3.2 4 6.4 5.2 10z"/>
  <path d="M303.3 292.8c1.9 1.2 4.1 1 6.3 1 19.2 0 38.4 0 57.6.1 1.8 0 4.1-1.2 5.1 1.6-1.6 3.2-2.4 6.8-4.9 9.5-1.5-1.9-3.7-1.1-5.6-1.1-19.2-.1-38.3-.1-57.5 0-2.6 0-5-.2-6.9-2-.8-1.6.6-2.5 1.3-3.7 1.7-1.8 1.5-5.1 4.6-5.4z" class="st300"/>
  <path fill="#0d77d3" d="M278.3 340.7c21.5 0 42.9 0 64.4.1 1.9 0 4.7-1 4.7 2.6-1.4 3.1-2.8 6.2-4.3 9.3h-.8c-20-1-40-.2-60.1-.5-2.6 0-5.3.2-7.9-.6-2.4-3.3-.7-8.1 4-10.9z"/>
  <path fill="#21a3cf" d="M288.4 163.8c2-1.2 4.2-1 6.3-1h63.5c1.3 3.6 4.3 6.2 5.2 10-1.1.6-2.2.6-3.4.6-22.2-.1-44.4.1-66.6-.1-4.6-1.6-5.1-5.4-5-9.5z"/>
  <path d="M292.4 172.8c1.3-1.5 3.1-1 4.7-1h61c1.8 0 3.7 0 5.3 1 1.4 1.8 2.6 3.7 3.1 6-2 1.2-4.1 1-6.3 1h-63.7c-1.2-.2-2-1-2.7-2-.8-1.5-2.3-2.9-1.4-5z" class="st311"/>
  <path d="M316.4 216.8c-1.3-1.1-1.9-2.6-2.3-4.3 1.2-1.3 2.8-.6 4.2-.6 17.1-.1 34.1 0 51.2 0 4.6 0 9.3.3 13.8-1 .8 1.5 1.5 3.1 2.3 4.6-.8 3.7-4 2.9-6.3 2.9-12.8.2-25.5.1-38.3.1h-17.9c-2.4-.1-4.8 0-6.7-1.7zm27-84.9l-3-3c-4.1-3.4-5.1-8.6-7.8-12.8-.6-2-2.7-3.7-1.3-6.2 7-2 14.1-.8 21.2-.8 1 0 1.9.2 2.9-.2-3.7 7.9-7.6 15.5-12 23z" class="st290"/>
  <path d="M316.4 216.8h63.7c1.9 0 4.1.8 5.5-1.3 1.4 1.5 2.4 3.3 2.7 5.3h-63.5c-2.1 0-4.3-.2-6.3 1-.8-1.7-1.5-3.3-2.1-5z" class="st290"/>
  <path d="M248.4 87.9c2.7-.9 5.5-1 8.3-1 20.6.1 41.1 0 61.7 0 .6.7 1.3 1.3 1.9 2 1 4 3.5 7.3 5 11 1 2.5-.9 2.8-2.5 3.2-2.1.5-4.3.3-6.5.4-19.5.2-39-.4-58.5.4-5.9-1.3-5.9-6.7-7.6-10.9-.5-1.8-1.2-3.4-1.8-5.1z" class="st357"/>
  <path d="M256.3 102.9c2.7-.9 5.5-1.1 8.3-1 18.6.1 37.2.1 55.8 0 1.7 0 4.2 1.1 4.9-1.9h.9c1.1 3.6 2.8 6.9 5 10l2.1 6c-1.2 3.5-4.3 2.5-6.6 2.5-17.4.1-34.8.1-52.2.1-3 0-6 0-8.8 1.3-2.5 1.1-3.6-.7-4.5-2.4-2-3.8-4-7.5-5.6-11.4-.1-1.3-.2-2.3.7-3.2z" class="st323"/>
  <path fill="#1589d1" d="M256.3 102.9c0 1.1.1 2.2.1 3.2 0 1.5-.8 2.3-2.1 2.8-7.4 1-14.9.4-22.3.4-1.4 0-2.6-.5-3.7-1.4-1.6-2.7-3.3-5.4-4.9-8.1l-1.2-3.9c7.4 0 14.8 0 22.2-.1 2.4 0 5.1.3 5.9-3 2.1 3.4 4 6.8 6 10.1z"/>
  <path fill="#2dbdcc" d="M124 221.8c2.6-5.4 5.1-10.9 8.4-15.9 1-.6 2.1-.9 3.3-.8 20.8.6 41.6.1 62.4.3 1.5 0 3 .1 4.4.6 1.4.7 1.9 2 1.3 3.3-2.2 4.6-3.7 9.8-8.5 12.7-3.8.9-7.6.5-11.5.5-18.5.1-37-.1-55.5.1-1.5-.1-3 .2-4.3-.8z"/>
  <path d="M203.3 206.8h-58.7c-4.1 0-8.2.3-12.1-1 1.4-4.8 4.4-8.8 6.8-13.1 1.4-1.8 3.4-1.7 5.4-1.6 15.5.3 31.1.1 46.6.2 2.3 0 4.6-.3 6.9-.8 4.2-.5 4.8 3.1 6.3 5.6 1 2.2 2.2 4.2 2 6.7-.3 1.9-1 3.6-3.2 4z" class="st303"/>
  <path d="M156.6 326.7c-2.3-4.1-4.8-8.1-6.3-12.6-.7-1.5-.1-2.6 1.3-3.2 1.1-.5 2.2-.7 3.4-.7 21.4 0 42.8-.5 64.1.2 2.7.5 3.9 2.6 5.1 4.8 1 2.2 2.2 4.3 3 6.5.6 1.5 1.1 3.1-1.1 4-2.4.8-4.9.6-7.4.6-15.9 0-31.8.1-47.7 0-4.8 0-9.6.3-14.4.4z" class="st360"/>
  <path d="M169.6 351.7c-1.8-3.5-3.5-7.1-5.3-10.6-1.3-5.2-1-5.8 4.8-5.9 15.2-.2 30.5-.1 45.7 0 5.8 0 11.6 0 17.4-.3 4.9 2.8 8.4 10.1 6.9 14.8-2.4 1.9-5.4 1.5-8.2 1.6-15.6 0-31.3.1-46.9 0-4.8 0-9.6.2-14.4.4z" class="st288"/>
  <path fill="#37d1ca" d="M233.3 335.7c-2.6.8-5.1 1-7.8 1-18.9-.1-37.9.1-56.8-.1-3.5 0-5.3.5-4.4 4.4-3-4.5-5.4-9.4-7.7-14.4 1.4-2.2 3.6-2 5.7-2h65c1.5.4 2.1 1.7 2.9 2.8 1.4 2.8 3.9 5 3.1 8.3z"/>
  <path fill="#3cdec9" d="M169.6 351.7c1.3-2.3 3.6-1.9 5.7-1.9h57.8c2.2 0 4.3.2 6.3-1 1.9-.2 2.7 1.1 3.7 2.3 1.1 2.3 2.3 4.6 3.2 7 .7 1.7 1.3 3.5-1 4.6-2.4.9-4.9.6-7.4.6h-50.5c-2.8 0-5.7-.1-8.3 1.2-2.7 1.4-3.8-.4-4.9-2.3-1.6-2.8-2.7-5.9-4.7-8.5.1-.7.1-1.4.1-2z"/>
  <path d="M133.6 282.7c-2.6-4.8-5.4-9.4-7.4-14.5-1-2.6.5-3.7 2.6-4.5 1.4-.5 3-.5 4.5-.5 20.3 0 40.7-.1 61 0 4.6 1.6 7.8 7.8 6.9 13.4-2.2 2-5 1.6-7.6 1.6h-49.9c-4.1.1-8.4-.6-10.1 4.5z" class="st303"/>
  <path d="M120.6 257.7c-2.3-5.3-6.8-9.7-7-15.9 1.7-.7 3.6-.6 5.4-.6h57.7c2.8 0 5.7-.2 8.3 1.2 3.2 3.1 5.2 6.6 4.6 11.3-2.2 2.1-5 1.6-7.6 1.6-16.8.1-33.7.1-50.5 0-3.9-.1-7.6.3-10.9 2.4z" class="st352"/>
  <path d="M120.6 257.7c-.1-3.6 1.9-4 5-4 19.5.1 38.9.1 58.4 0 1.9 0 4.1.8 5.5-1.3 4.8 2.3 5.5 6.7 5.9 11.3-1.6 1.8-3.8 1-5.7 1-19.3.1-38.7 0-58 0-2.6 0-5.2-.2-5.5 3.4-2.7-2.9-3.7-6.9-5.6-10.4z" class="st350"/>
  <path d="M185.2 243.8c-1.9-1.4-4.1-1-6.3-1h-59.1c-2.1 0-4.3.4-6.3-1 1.6-3.9 3.4-7.6 5.8-11.1 23.4-.7 46.8-1.3 70.1.3 2.1.9 1.7 2.7.9 4.1-1.6 3-2.6 6.3-5.1 8.7z" class="st305"/>
  <path d="M190.3 231.8c-22.9 0-45.9 0-68.8-.1-.7 0-1.4-.6-2.2-1 1-3.3 2.8-6.1 4.6-9 2.2-.9 4.5-1 6.8-1h65.4c.2 4.9-1.7 8.5-5.8 11.1z" class="st357"/>
  <path d="M220.4 311.8h-65c-2 0-4.6-1-5.1 2.3-2.1-2.5-3.3-5.5-4.6-8.4.7-2-3.8-4.4.5-6.1 7.3-.9 14.6-.4 21.9-.4 15-.1 29.9 0 44.9-.1 3.2.1 3.8 2.9 5.3 4.9.8 2.5 3.6 4.5 2.1 7.8z" class="st363"/>
  <path fill="#3ad8ca" d="M169.7 133.8c-.4-3.8-3.6-6.3-4.3-10 1.3-3.4 4.3-2.4 6.7-2.4 17.2-.1 34.4-.1 51.7-.1 3.1 0 6.3 0 9.4-.7.9-.3 1.8-.2 2.6.4 2.2 3.8 6.1 7 4.4 12.3-2.4 1.5-5.1 1.2-7.7 1.2-16.1 0-32.1.1-48.2 0-4.3 0-8.6.8-12.9.5-.8-.3-1.3-.7-1.7-1.2z"/>
  <path d="M199.4 190.8c-1.5 1.9-3.6 2-5.8 2-15.7 0-31.4-.1-47.1.1-2.4 0-4.8-1.6-7.2-.1 2-4.8 4.4-9.5 7.2-13.9 12.6.9 25.2.3 37.8.5 2.7 0 5.3 0 7.9-.8.5-.2 1.1-.3 1.6-.2 3.4 2 3.8 5.9 5.7 8.9.3 1.1.9 2.3-.1 3.5z" class="st365"/>
  <path fill="#3bdcc9" d="M234.4 120.8c-1.2 2.6-3.5 2.1-5.6 2.1h-58.2c-1.7 0-3.7-.7-5.2.9-2.2-3.1-4.2-6.2-5.2-9.9 21.4 0 42.8 0 64.2-.1 2.1 0 5.1 1 4.9-2.9 4.3 2 5.3 5.7 5.1 9.9z"/>
  <path d="M144.4 300.8c.3 1.7 2.7 2.8 1.2 4.9-2.8-5.5-5.6-11-8.4-16.4-.4-.9-.5-1.9-.1-2.8 1.6-2.2 4-2.1 6.3-2.1h57.9c1.8 0 3.7.1 5.3 1 2.2 1.4 3.7 3.3 4.3 5.9 0 1-.2 1.8-1.1 2.3-2.4 1.1-4.9.8-7.3.8h-51.2c-6.7-.1-6.7-.1-6.9 6.4z" class="st307"/>
  <path d="M193.4 178.8c-.9 2.1-2.8 2-4.7 2h-36.9c-2.1 0-4-.3-5.4-2 1.3-3.2 2.8-6.3 4.8-9.1 2.3-1.8 5-1.4 7.7-1.5 9.1-.4 18.3.8 27.4-.8 4.3.9 6.8 4.9 7.1 11.4z" class="st367"/>
  <path d="M137.4 286.8c0 .8-.1 1.7-.1 2.5-1.8-1.9-2.6-4.3-3.6-6.5-.2-5.9-.2-5.9 6.8-5.9h54.4c2.3 0 4.7.1 6.8-1.1 3 1.1 4.1 3.1 2.9 6.2-2.3 2.6-5.4 2.3-8.3 2.3h-53.8c-2.1 0-4.7-.8-5.1 2.5z" class="st323"/>
  <path fill="#22a5ce" d="M187.4 167.8c-.9 2.1-2.8 2-4.6 2-10.5 0-21.1-.1-31.6-.1 1.3-4.4 3.9-8.1 6.2-11.9 8-1 16.1-.1 24.1-.6 4.7.8 4.7 5.3 6.5 8.3.1.9 0 1.7-.6 2.3z"/>
  <path fill="#1d99d0" d="M169.6 353.6c1.9-1 2.1.8 2.7 1.8 1.8 3 2.8 6.6 5.2 9.3 2.8 2.4 4.5 5.4 4.9 9 0 .3 0 .7-.1 1h-23.6c3.6-7 7.2-14 10.9-21.1z"/>
  <path fill="#20a1cf" d="M182.4 157.8c-8.3 1.7-16.7 1.7-25 0 1.2-3.3 2.8-6.4 4.9-9.2 2.3-1.1 4.8-1.1 7.2-1.1 2.4.1 4.6-.3 6.4-1.8.5-.2.9-.3 1.4-.2 2.6 2.4 3.4 5.8 5.1 8.8.4 1.2 1 2.4 0 3.5z"/>
  <path fill="#1f9cd0" d="M176.4 145.9c-.1 2-1.2 3-3.2 3-3.7 0-7.3-.1-11-.2 2.5-5 5-9.9 7.4-14.9.2.1.5.1.7.1 3.7 3.2 5.8 7.1 6.1 12z"/>
  <path d="M234.4 120.8c-1.6-3.3-2.5-7.1-5-9.9-.4-1-.7-2-1.1-3h26.9c-.3 6.5-3.6 11.4-8.4 15.5-3.8-.3-7.7.7-11.2-1.5-.5-.4-.8-.7-1.2-1.1z" class="st290"/>
  <path d="M246.5 361.7c-.8-3.9-4.3-6.7-4.4-10.9 0-4.7 3.1-8.3 5.1-12.2 2-4 4.2-7.9 6.2-11.9.8-1.3 1.4-2.6 2.9-3.3.8 0 1.4.4 1.8 1.1 4.8 8.9 9.8 17.8 13.8 27.1-.8 4.2-3.3 7.5-5 11.3-3.1 4.8-5.6 10-8.9 14.7-.3.4-.6.9-.9 1.3-3.9-1.2-3.2-5.9-5.9-7.9-3.3-2.1-4.1-5.7-4.7-9.3z" class="st274"/>
  <path fill="#3fe3c9" d="M246.5 361.7c2.3 2.8 3.4 6.1 4.8 9.3-.9 2.8-3.3 1.6-5.1 1.6-19.2.1-38.4.1-57.7.1-2.2 0-4.3-.2-6.3 1-2-2.8-3.8-5.7-4.9-9 1-3.5 3.9-3 6.5-3h62.7z"/>
  <path fill="#086ed3" d="M258.2 377.7c2.1-5.3 4.9-10.2 7.8-15.1 2.1-1.3 4.4-1.5 6.7-1.5h57c1.8 0 3.7 0 5.4.7 1.1.5 2.1 1.1 1.3 2.6-2.2 2.8-2.2 6.7-4.8 9.3-20.6 0-41.2 0-61.7-.1-4.5 0-9.1-.8-11.7 4.1z"/>
  <path d="M336.3 364.5c-.9-2.9-3.3-1.7-5.1-1.7-21.8-.1-43.5-.1-65.3-.2 1.8-3.6 3.6-7.2 5.4-10.7.3-.8.8-1.4 1.8-1.2 21.5 0 42.9 0 64.4.1 1.8 0 4.2-1 4.9 2-1.4 4.2-3.3 8.1-6.1 11.7z" class="st310"/>
  <path d="M307.3 202.9l.9 1.2c2.7 6.7 6.3 12.9 10 19 1.6 4.2 3.6 8.1 6.1 11.7 1.2 2.7 2.4 5.4 3.6 8-2.2 4.6-4.4 9.2-6.7 13.9-2.3 3-3.9 6.4-5.3 9.9-2.6 4.9-5.2 9.9-7.8 14.8-.7 2.1-2 1.7-3.3.7-1.3-1.2-1.9-2.7-2.8-4.2-2.8-7.7-7.5-14.5-10.6-22-.1-3.2 1.9-5.5 3-8.2.8-1.9 2.4-3.7 1.7-6-1.2-3.9-3.9-7-4.8-11 .2-4.4 3.4-7.3 5.1-11 1.4-3.1 3.1-6.1 4.4-9.3 1-3 3.1-5.4 5.1-7.8.7-.1 1.1-.1 1.4.3z" class="st274"/>
  <path fill="#2dbbcc" d="M305.6 281.7c.9 1.2 1.8.7 2.6-.2.1.4.1.9.2 1.3-1 1.3-2 2.7-3 4-1.3.7-2.6 1.4-4.2 1.4-8.6 0-17.2.5-25.8-.2-1.7-2.9-4.1-3.8-7.4-3.8-17.8.1-35.5.1-53.3 0-2.8 0-5.2.6-7.3 2.5-1.6-1-3.5-1-5.3-1h-59.4c-1.8 0-3.7 0-5.3 1-3.6-4-.7-4 2.4-4h57.7c2.5 0 5 .2 6.9-1.9 2.7-.5 3.6-4.6 7.1-3.8 19.9.4 39.8.1 59.7.2 2.6 0 5.3-.3 7.9.8 2.8 2.7 6.2 3.3 10 3.4 5.4.1 11-1 16.5.3z"/>
  <path d="M257.4 324.8c-.3-.2-.7-.5-1-.7-.9-4 2.1-6.6 3.4-9.8.9-1.2 1.9-2.2 3.1-2.9 8.6-2 17.3-1 26-.7 1.6.1 3.4.8 2.4 3.2l-.9 3c-2.2 3.5-3.4 7.7-6.1 10.9-6.8-.8-13.6-.3-20.3-.5-2.4-.1-5 .1-6.6-2.5z" class="st360"/>
  <path fill="#38d3ca" d="M257.4 324.8c7.3 2.1 14.7.4 22.1 1 1.8.1 4.2-1.1 4.8 1.9-.4 1-.7 2-1.1 3-2.1 3.1-3.9 6.4-5 10-2.3 3-3.8 6.4-5.1 9.9l-1.8 1.2c-4.6-9-9.2-18-13.9-27z"/>
  <path d="M291.4 313.8c-.2-.8-.5-1.9-1.3-1.9-9.2.2-18.5-1.3-27.7.8-1.4-4 2.2-6.4 3.2-9.6 1.8-2.3 2.1-5.9 6-6.1 7.1.4 14.2.1 21.3.3 2.3 0 4.7-.3 6.5 1.5-.6 1-1.3 2-1.9 3-1.6 4.2-3.3 8.4-6.1 12z" class="st363"/>
  <path d="M299.4 298.8h-23.3c-2 0-4 .1-5.8-1-1.6-3.1 1.1-5 2-7.3.9-1 .9-3 3-2.6 4.1-1.9 8.5-.8 12.7-.9 5.8-.2 11.6 0 17.3 0l-2.1 6c-1.2 1.8-2.5 3.8-3.8 5.8z" class="st307"/>
  <path d="M294.4 177.8l2 2c1.7 3.3 3.3 6.7 5 10-.6 3.1-2.7 4.4-5.7 4.4-7.4 0-14.9.6-22.3-.3-2.8-.9-3.6-3.5-4.9-5.7-.6-2.7-4.1-4.9-1.4-8.2 5.4-1.3 10.9-.5 16.4-.6 3.8 0 7.4-.3 10.9-1.6z" class="st365"/>
  <path d="M272.4 192.8c7.4 0 14.9-.1 22.3.1 2.9.1 5.2-.5 6.7-3.1 0 1.4.7 2.4 2 3 1.3 3.4 2.7 6.7 4 10.1-.3 0-.6-.1-.9-.1-1.2 1.8-3.1 2.4-5.2 2.4-6.3.1-12.6.1-18.8 0-2.4 0-4.6-.7-6.1-2.7-1.4-1.9-2.5-4-3.6-6.2-.5-1-1.1-2.2-.4-3.5z" class="st303"/>
  <path d="M264.3 120c1-3.5 3.9-3.1 6.5-3.1h57.4c1.7 0 3.7.7 5.2-1 3 4 4.8 8.6 7 13-2 1.2-4.1 1-6.3 1h-58.4c-1.9 0-4.1-.8-5.5 1.3-4-2.7-6.3-6.2-5.9-11.2z" class="st376"/>
  <path d="M264.3 120c1.5 4 3.5 7.7 5.9 11.2.2.6.5 1.2.7 1.8 1.6.8.7 2.1.6 3.3-4 7.1-7.7 14.4-11.3 21.8-1.1 1.5-1.4 3.7-3.7 4.2-3.2-1.8-3.5-5.6-5.8-8-1.8-2.8-3.6-5.6-4.7-8.8-1.2-2.9-2.5-5.7-4.2-8.2-.9-1.2-1.6-2.5-1-4 2.1-3.4 2.9-7.7 6.4-10.2 2.6-5 5.3-10 7.9-15 .4-.6.9-1.2 1.3-1.7 2.7 4.4 5.3 9 7.9 13.6z" class="st274"/>
  <path d="M259.2 157.6c3.3-7.5 7.2-14.6 11.2-21.8 3.6-.2 3.3 2.8 3.9 5 2 3.7 4 7.3 6 11l1 1c1 1.6 2.1 3.1 1.7 5.1-.2.3-.2.8-.5.8-7.5 2.8-15.1 2.1-22.7.5-.6 0-.7-.9-.6-1.6z" class="st311"/>
  <path d="M274.4 140.9c-1.3-1.7-1.1-4.5-3.9-5 .2-1 .3-1.9.5-2.9 2.2 2.1 4.4 4.3 3.4 7.9z" class="st376"/>
  <path d="M294.4 177.8c-.7 3.1-3.2 3-5.5 3h-22.5c-2.3-.9-2.7-3.3-4.1-4.9-1-1.8-2.3-3.5-1-5.7 1.8-2 4.2-1.7 6.5-1.7 4.8-.1 9.7-.2 14.5 0 3.5.2 4.4-1.3 3.8-4.4.3-.6.7-.7 1.3-.3h1c1.3 3 2.7 6 4 9 .6 1.7 1.3 3.4 2 5z" class="st367"/>
  <path d="M287.4 163.8h-1c-3.1-1.3-3-4.5-4-7-.3-1.3-.7-2.7-1-4h1c1.5 3.8 4 7 5 11z" class="st304"/>
  <path d="M209.2 277.7c-.6 1.1-1.3 2.2-1.8 3.3-1.2 2.6-2.1.8-3-.2-.4-2-1.5-3.6-2.7-5.2-2.4-3.8-3.3-8.4-6.3-12-2.1-3.7-3-8-5.9-11.3-1.4-2.9-2.9-5.8-4.3-8.7.4-4.5 4.2-7.7 5.1-12 2.4-3.4 4.2-7.2 5.8-11 2.6-4.6 5.4-9 7.1-14 .7-1.3 2.1-2.2 2.2-3.9 1.1-.7 1.8 0 2.5.7 1.3 1.9 2.1 4.1 3.3 6.1 1.6 3.3 3.1 6.6 5.1 9.7 1.9 3.3 3.9 6.6 5 10.2.5 2.5-1.2 4.3-2.1 6.4-1.1 2.5-3.2 4.7-2.7 7.7 1.1 3.6 3.3 6.6 4.6 10.1.3 1 .3 1.9 0 2.9-1.7 3.9-3.8 7.7-5.6 11.6-1.9 3.5-3.2 7.1-6.3 9.6z" class="st274"/>
  <path d="M272.4 192.8c.3 1 .7 2 1 3-1.3 2.6-3.8 2.5-6 2.5-19.4.1-38.9.1-58.3 0-2 0-3.9-.5-5.7-1.6-1.3-2-1.6-4.7-4-6-.3-1-.7-2-1-3 1.9-1.9 4.3-1.6 6.6-1.6 19.3-.1 38.5 0 57.8 0 2.3 0 4.7-.1 6.6 1.6 1.6 1.4 2 3.5 3 5.1z" class="st306"/>
  <path d="M203.4 196.8h63.7c2.1 0 4.3.2 6.3-1 1.6 1.3 2 3.3 3 5-1.5 4.2-5.3 3.5-8.3 3.5-13.9.2-27.9.2-41.8.1-6.3 0-12.6.6-18.9-.4-.6-.3-1.2-.7-1.9-1 .1-2.4-1.2-4.2-2.1-6.2z" class="st304"/>
  <path d="M266.4 303.8c-.6 3.3-3.6 5.6-4 9l-2 2c-.9.7-2 1.3-3.2 1.4-11.3.1-22.6.8-33.9-.4-1-1.3-2-2.7-3-4-.3-2.6-2.1-4.6-3-7-1.1-2.9 1.3-3 2.9-3.3 2.6-.6 5.3-.3 8-.3 10.6 0 21.3-.1 31.9.1 2.4-.1 5.2-.7 6.3 2.5z" class="st320"/>
  <path fill="#26adce" d="M223.4 315.8c1.5-1.6 3.4-1 5.2-1 10.6-.1 21.2 0 31.9 0l-3.9 9.3-2.1 2.7c-8.4-.5-16.8-2-25 1-.7-1-1.4-2-2-3-1.3-3.1-3.5-5.7-4.1-9z"/>
  <path fill="#24a8ce" d="M229.4 327.7c.1-1.7 1-2.9 2.7-2.9 6.6-.1 13.1-.1 19.7 0 1.3 0 2.1.9 2.6 2-3.5 8.3-8.1 16-12.3 24-1.4 0-1.7-1.5-2.7-2.1-1.4-4.6-4.1-8.6-6.1-13-1.3-2.6-2.6-5.3-3.9-8z"/>
  <path d="M266.4 303.8c-1.3-1.5-3.1-1-4.7-1-13.1 0-26.3-.1-39.4 0-1.8 0-4.2-1.1-4.9 2-1.6-1.3-2-3.3-3-5-2.6-1.6-3.7-4.1-4-7v-2c1.3-2.6 3.8-2.5 6-2.5 17-.1 33.9-.1 50.9 0 2.3 0 4.8-.1 6 2.5-1 2.4-2.7 4.4-3 7l-3.9 6z" class="st303"/>
  <path d="M210.4 292.8c2 1.9 2.6 4.7 4 7-2 1.2-4.1 1-6.3 1h-63.7c-4-8-4-8 5.2-8h60.8z" class="st357"/>
  <path fill="#37d3ca" d="M241.4 133c.8 4.5 4.7 7.5 5.7 11.9-1.4 1.5-3.3 1.5-5.1 1.5-20.6.2-41.2-.1-61.8.1-1 0-2-.2-2.9-.6h-.9l-6-12c21.4-2.2 42.9-.5 64.3-1.1 1.9-.1 4 .7 5.7-1 .9-.1 1.4.1 1 1.2z"/>
  <path fill="#1c95d0" d="M241.4 133c-.3-.4-.7-.7-1-1.1-1.6-3.3-3.3-6.7-4.9-10 3.9.4 8-.9 11.8 1-1.7 3.5-2.9 7.3-5.9 10.1z"/>
  <path d="M261.4 170.9c.7 1.7 1.3 3.3 2 5 1 2.1-.5 2.6-2 3.1-1.6.5-3.3.5-4.9.5-19.4.1-38.8-.1-58.2.1-1.3 0-2.7 0-3.9-.7h-1c-2.5-3.4-2.4-8.2-6-11v-2c2.2-2.1 5-1.6 7.6-1.6 14.6-.1 29.1-.1 43.7 0 5.8 0 11.6-.1 17.3-.6 3.9.8 5 3.6 5.4 7.2z" class="st363"/>
  <path fill="#2fc1cc" d="M194.4 178.8c2-1.2 4.1-1 6.3-1h57.8c1.8 0 4.2 1.1 4.9-1.9 1.6 1.3 2 3.3 3 5 .9 2.4 2.7 4.4 3 7h-71c-1.3-3.1-3.4-5.7-4-9.1z"/>
  <path d="M273.4 290.8c-1.5-.9-3.1-1-4.8-1h-53.4c-1.7 0-3.3.2-4.8 1-1-1.3-2-2.7-3-4-.4-2.9.8-4.1 3.9-4.1 19.9.1 39.8.1 59.6.1 3.4 0 6.1.5 4.5 5-.7 1-1.4 2-2 3z" class="st323"/>
  <path d="M257.4 164.8c-23.3 2.2-46.7.4-70 1-1.7-2.7-3.3-5.3-5-8-.3-1-.7-2-1-3 1.3-2.6 3.7-2.5 6-2.5 19.5-.1 39.1-.1 58.6 0 2 0 4 .3 5.7 1.5 1.6 2.7 3.1 5.3 4.7 8 .8.8 1.7 1.7 1 3z" class="st360"/>
  <path fill="#36cfcb" d="M251.7 153.7c-21.4 0-42.7.1-64.1.1-2.1 0-4.3-.2-6.3 1-1.3-3-3.4-5.7-4.1-8.9 1.9-1.2 4.1-1 6.3-1h63.6c1.6 2.9 3.1 5.9 4.6 8.8z"/>
  <path d="M220.4 253.8c-2.2-3-3.8-6.4-5.2-9.8.6-3.6 3.5-2.2 5.5-2.4 2.9-.2 3.4-1.2 2.3-3.8-1.2-2.6-3.7-5.1-.8-8.1 1.8-1.2 3.7-1.4 5.7-1.4 19.6-.1 39.2-.1 58.9 0 1.2 0 2.3.1 3.4.5 1 .3 1.6 1 2 2l5.4 10.8c-1 3.7-4.1 2.7-6.5 2.7-17.5.1-35 .1-52.5.1-1.7 0-3.3.1-5 0-3.5-.2-5.9 1.3-7.8 4.3-1.2 2.1-2 5.1-5.4 5.1z" class="st352"/>
  <path fill="#33c9cb" d="M220.4 253.8c.6-.6 1.5-1 1.7-1.7 2.8-8.4 8.7-9.8 16.9-9.5 17.6.7 35.3.2 52.9.2 1.9 0 4.1.7 5.6-1.2 1.9 2.5-.8 3.9-1.4 5.7-1 3-3.3 5.4-3.9 8.5-.4 1-1 1.7-2 2-2.1.7-4.3.6-6.4.6h-55.9c-2.6 0-5.4.5-7.6-1.6.1-1 .1-2 .1-3z"/>
  <path d="M207.3 204c1.6-1.9 3.7-1.1 5.6-1.1 18.5-.1 37 0 55.5 0 2.8 0 5.6-.1 8-2 1.5 2.5 3.7 3.3 6.6 3 7.8-.6 15.7 1.1 23.5-1-1.4 2.7-2.8 5.3-4.2 8-6.5 2.9-13.2 1.4-19.9 1.1-4.4-2.2-9.2-2.6-14.1-2.6-14.8.1-29.7.1-44.5 0-4.5 0-9 .2-13.5.5-1.5-1.7-2.4-3.7-3-5.9z" class="st304"/>
  <path fill="#2bb7cd" d="M291.4 256.8c.3-.3.6-.7.9-1 4 7.1 8 14.3 11 22-7.1 2.6-14.3 2.2-21.5.2-2.8-3.5.6-6.1 1.5-9 2.6-4.2 4-9.1 8.1-12.2z"/>
  <path fill="#2dbccc" d="M282.4 210.8h19.9c-3.3 6.7-6.7 13.3-10 20-.3-.3-.6-.6-.8-1-3.9-2.9-4.7-7.7-7.1-11.5-.8-2.5-3.6-4.5-2-7.5z"/>
  <path d="M281.4 276.8c7.2 2.1 14.6.5 21.9 1 .8 1.3 1.6 2.6 2.3 3.9-7.5 2.1-15.2.9-22.7 1-2.1 0-3.8-1.3-3.5-3.9-.3-1.7.3-2.3 2-2z" class="st323"/>
  <path d="M281.4 276.8c-1 .4-1.6 1-2 2h-63.9c-2.2 0-4.3.1-6.3-1.1 1.8-3.3 3.5-6.6 5.3-9.9 1.8-.7 3.6-.7 5.4-.7h56.9c2.6 0 5.4-.5 7.6 1.6l-3 8.1z" class="st307"/>
  <path fill="#23a6ce" d="M257.4 164.8c-.3-1.1-.6-2.1-1-3.2.9-1.4 1.9-2.7 2.8-4.1 5.8 2.6 11.9.7 17.8 1.1 1.8.1 4.5 1.3 5.3-1.9 2 2 2.6 4.7 4 7 3 6 3 5.8-3.5 6.1-7.2.3-14.4-1.2-21.5 1l-3.9-6z"/>
  <path d="M284.4 268.8h-63.6c-2.1 0-4.3.3-6.3-1 1.6-3.9 3.4-7.6 5.8-11h71l-6.9 12z" class="st327"/>
  <path d="M285.4 217.8l6 12h-62.1c-2.7 0-5.3.2-7.8 1-.4-.2-.7-.5-.9-1-1.7-3.4-3.4-6.7-5.2-10.1-1-1.8.3-2.4 1.5-2.9 1.7-.7 3.6-.6 5.4-.6h55.9c2.5 0 5 .1 7.2 1.6z" class="st320"/>
  <path d="M285.4 217.8h-65.1c-1.7 0-4.2-1.1-4.9 1.9-2-3.1-3.9-6.3-5.1-9.9 1-2.4 3.1-2.1 5.1-2.1 19.6 0 39.2.1 58.8-.1 3.3 0 5.7 1.3 8.2 3.1.3 2.7 2 4.8 3 7.1z" class="st303"/>
  <path fill="#35c9cc" d="M220.6 229.8c.3.3.6.6.9 1 .1 2.2 1.5 4 2.4 5.8 3 6.1 3 6.1-3.6 6.2-1.7 0-3.7-.6-5 1.1-1.2-3.1 1.7-4.9 2.5-7.4.7-2.3 2.6-4.1 2.8-6.7z"/>
</svg>