<svg xmlns="http://www.w3.org/2000/svg" role="img" viewBox="-8.68 -8.68 451.36 142.11"><title>Hyperledger Quilt logo</title><g><g><path fill="#fff" d="M650.934 612.688h-38.243v36.429h38.243v-36.429M325.629 287.84H288.16v36.433h37.469V287.84M325.629 612.219H288.16v36.429h37.469v-36.429M650.629 287.84H613.16v36.433h37.469V287.84" transform="matrix(.13333 0 0 -.13333 0 124.933)"/><path fill="#232325" d="M1151.81 844.355l44.65.243.41-75.5 86.74.445-.41 75.516 44.66.226 1.05-202.504-44.63-.215-.47 87.512-86.74-.461.47-87.519-44.66-.243-1.07 202.5M1436.64 728.383l-76.77 115.726 55.53.293 43.34-75.574 45.11 76.035 52.95.262-75.52-116.52.44-86.367-44.63-.238-.45 86.383M1633.17 759.059l29.76.156c4.03.012 7.86.422 11.6 1.203 3.71.762 7.03 2.094 10 3.914 2.95 1.844 5.31 4.32 7.1 7.481 1.81 3.144 2.67 7.105 2.66 11.871-.04 5.136-1.24 9.293-3.63 12.425-2.43 3.141-5.48 5.551-9.21 7.262-3.7 1.664-7.88 2.758-12.47 3.207-4.58.445-8.98.672-13.18.633l-22.89-.109zm-45.12 85.57l75.29.387c10.49.062 20.43-.828 29.78-2.703 9.35-1.856 17.54-5.098 24.55-9.719 6.97-4.664 12.54-10.914 16.68-18.793 4.16-7.887 6.25-17.852 6.33-29.86.05-11.836-1.81-21.746-5.57-29.8-3.79-8.012-9-14.418-15.64-19.243-6.68-4.8-14.57-8.21-23.72-10.253-9.17-2.059-19.07-3.114-29.75-3.18l-32.64-.16.41-78.946-44.64-.226-1.08 202.496M1771.63 844.449l137.67.719.22-41.191-93.03-.493.21-37.746 87.87.469.22-41.191-87.89-.469.21-41.192 98.2.5.2-41.167-142.82-.739-1.06 202.5M1991.56 761.066l26.33.133c4 .016 8.26.184 12.74.496 4.48.317 8.52 1.168 12.14 2.637 3.62 1.441 6.61 3.707 8.99 6.77 2.35 3.066 3.52 7.343 3.51 12.875-.04 5.156-1.12 9.257-3.23 12.285-2.11 3.043-4.79 5.363-8.03 6.972-3.26 1.621-7.01 2.676-11.2 3.231-4.19.555-8.29.816-12.3.777l-29.2-.144zm-45.09 83.543l78.43.426c10.29.059 20.09-.887 29.32-2.851 9.28-1.95 17.38-5.25 24.41-9.871 6.97-4.641 12.53-10.915 16.68-18.797 4.15-7.899 6.25-17.758 6.32-29.555.07-14.313-3.6-26.481-10.99-36.551-7.36-10.058-18.22-16.437-32.53-19.18l51.98-85.265-53.53-.277-42.77 80.734-22.06-.121.42-80.946-44.66-.238-1.02 202.492M2139.96 844.832l44.64.223.85-161.313 82.74.434.22-41.192-127.39-.652-1.06 202.5M2299.37 844.582l137.67.723.22-41.192-93.03-.5.22-37.738 87.86.441.22-41.168-87.89-.464.23-41.192 98.18.492.21-41.164-142.83-.738-1.06 202.5M2519.72 683.551l23.19.133c10.3.054 19.9 1.148 28.74 3.277 8.87 2.172 16.54 5.676 22.99 10.582 6.46 4.875 11.53 11.297 15.22 19.242 3.67 7.918 5.48 17.606 5.43 29.051-.05 9.914-1.97 18.535-5.73 25.863-3.75 7.332-8.8 13.344-15.11 18.094-6.32 4.734-13.76 8.27-22.24 10.59-8.5 2.359-17.44 3.492-26.79 3.453l-26.34-.148zm-45.51 161.09l66.98.347c16.21.09 31.65-1.648 46.26-5.172 14.61-3.546 27.4-9.371 38.31-17.406 10.92-8.047 19.6-18.512 26.09-31.465 6.44-12.949 9.73-28.648 9.81-47.148.09-16.402-2.93-30.875-9.07-43.379-6.13-12.527-14.42-23.063-24.86-31.582-10.47-8.555-22.54-15.043-36.26-19.496-13.73-4.477-28.13-6.742-43.19-6.809l-72.99-.39-1.08 202.5M2887.43 657.066c-13.12-6.937-26.84-11.98-41.13-15.097-14.31-3.145-28.89-4.731-43.77-4.809-15.84-.07-30.46 2.32-43.84 7.195-13.38 4.903-24.95 11.93-34.73 21.133-9.81 9.196-17.44 20.352-22.96 33.477-5.51 13.156-8.29 27.812-8.38 44.031-.1 16.211 2.56 30.891 7.92 44.086 5.39 13.168 12.89 24.414 22.6 33.731 9.67 9.296 21.17 16.453 34.54 21.464 13.29 5.047 27.88 7.614 43.72 7.68 16.22.094 31.17-1.777 44.83-5.613 13.66-3.848 25.68-10.504 36.03-19.989l-31.3-34.492c-6.14 6.266-13.05 11.008-20.69 14.211-7.64 3.192-17.19 4.77-28.65 4.696-9.54-.032-18.16-1.711-25.88-4.993-7.7-3.3-14.3-7.832-19.84-13.672-5.49-5.867-9.68-12.804-12.62-20.839-2.91-8.012-4.33-16.7-4.28-26.032.06-9.55 1.57-18.257 4.57-26.144 3-7.902 7.27-14.75 12.83-20.52 5.58-5.8 12.25-10.293 19.97-13.504 7.74-3.195 16.41-4.753 25.94-4.714 9.74.054 18.12 1.187 25.18 3.414 7.02 2.226 12.65 4.488 16.84 6.804l-.18 32.903-36.35-.188-.2 41.192 79.28.429.55-105.84M2918.39 849.238l137.68.723.19-41.168-93.02-.504.2-37.738 87.89.445.22-41.176-87.9-.465.23-41.203 98.17.516.23-41.164-142.82-.766-1.07 202.5M3138.31 765.828l26.34.145c4 0 8.24.187 12.74.484 4.46.316 8.51 1.172 12.13 2.652 3.61 1.426 6.61 3.692 8.98 6.758 2.37 3.059 3.54 7.344 3.52 12.871-.04 5.16-1.11 9.262-3.21 12.285-2.12 3.04-4.79 5.36-8.07 6.973-3.24 1.621-7 2.695-11.17 3.234-4.21.575-8.29.813-12.32.797l-29.18-.172zm-45.08 83.563l78.42.41c10.3.054 20.07-.867 29.35-2.856 9.27-1.945 17.38-5.25 24.38-9.875 7.01-4.617 12.54-10.886 16.7-18.793 4.13-7.886 6.24-17.757 6.31-29.554.07-14.305-3.6-26.481-10.97-36.551-7.38-10.035-18.23-16.422-32.54-19.184l51.97-85.242-53.53-.277-42.79 80.711-22.04-.117.43-80.946-44.64-.215-1.05 202.489" transform="matrix(.13333 0 0 -.13333 0 124.933)"/><path fill="#7e4977" d="M1367.78 133.094c22.73 0 43.6 4.207 62.62 12.636 19.02 8.438 35.29 20 48.81 34.696 13.52 14.699 24.01 32.043 31.46 52.043 7.44 19.988 11.17 41.347 11.17 64.082 0 21.953-3.82 42.539-11.47 61.746-7.64 19.199-18.33 35.871-32.05 49.98-13.72 14.114-29.98 25.286-48.8 33.516-18.81 8.234-39.4 12.355-61.74 12.355-21.96 0-42.24-4.121-60.86-12.355-18.62-8.23-34.79-19.402-48.5-33.516-13.73-14.109-24.51-30.672-32.35-49.687-7.84-19.012-11.76-39.305-11.76-60.86 0-22.742 3.72-44.089 11.18-64.089 7.44-19.993 17.93-37.442 31.46-52.325 13.52-14.902 29.69-26.671 48.5-35.293 18.82-8.625 39.59-12.929 62.33-12.929zm242.26-52.9221h-239.91c-29.4 0-57.23 5.2929-83.49 15.8711-26.27 10.586-49.2 25.293-68.8 44.102-19.61 18.828-35.08 41.25-46.45 67.324-11.37 26.074-17.05 54.59-17.05 85.566 0 30.567 5.48 58.887 16.46 84.961 10.97 26.063 26.17 48.699 45.57 67.91 19.4 19.203 42.13 34.199 68.21 44.985 26.07 10.777 54.39 16.172 84.96 16.172 29.41 0 56.95-5.293 82.62-15.879 25.66-10.582 48.12-25.192 67.32-43.805 19.2-18.621 34.4-40.574 45.57-65.859 11.17-25.282 16.76-52.821 16.76-82.606 0-17.648-2.05-34.992-6.17-52.043-4.11-17.051-10.2-33.035-18.23-47.918-8.03-14.902-18.03-28.223-29.99-39.98-11.96-11.77-25.57-21.172-40.86-28.235v-1.179h123.48V80.1719M1707.35 496.477V241.285c0-12.937 1.75-26.367 5.29-40.281 3.52-13.918 9.4-26.75 17.64-38.516 8.23-11.758 19.01-21.367 32.34-28.808 13.32-7.453 29.78-11.172 49.38-11.172 19.6 0 36.07 3.719 49.4 11.172 13.32 7.441 24.11 17.05 32.34 28.808 8.24 11.766 14.11 24.598 17.64 38.516 3.52 13.914 5.29 27.344 5.29 40.281v255.192h56.45V232.469c0-24.317-4.11-46.367-12.35-66.153-8.23-19.804-19.61-36.953-34.1-51.445-14.51-14.512-31.56-25.6835-51.16-33.5155-19.61-7.8438-40.77-11.7696-63.51-11.7696-22.73 0-43.9 3.9258-63.49 11.7696-19.61 7.832-36.66 19.0035-51.16 33.5155-14.51 14.492-25.87 31.641-34.11 51.445-8.23 19.786-12.35 41.836-12.35 66.153v264.008h56.46M2063.96 496.477h56.44V80.1719h-56.44V496.477M2215.26 496.477h56.44V133.094h191.11V80.1719H2215.26V496.477M2550.17 443.563h-134.06v52.914h324.58V443.563H2606.62V80.1719h-56.45V443.563" transform="matrix(.13333 0 0 -.13333 0 124.933)"/><path fill="#f36857" d="M 938.172,648.719 V 937.004 H 650.223 V 648.719 h 287.949" transform="matrix(.13333 0 0 -.13333 0 124.933)"/><path fill="#f8b377" d="M 650.223,324.441 H 938.508 V 612.555 H 650.223 V 324.441" transform="matrix(.13333 0 0 -.13333 0 124.933)"/><path fill="#64cabe" d="M 325.281,288.289 V -0.00390625 H 613.563 V 288.289 H 325.281" transform="matrix(.13333 0 0 -.13333 0 124.933)"/><path fill="#7e4977" d="M 288.285,937.004 H 0.00390625 V 648.719 H 288.285 v 288.285" transform="matrix(.13333 0 0 -.13333 0 124.933)"/><path fill="#9384a5" d="M 288.285,612.555 H 0.00390625 V 324.273 H 288.285 v 288.282" transform="matrix(.13333 0 0 -.13333 0 124.933)"/><path fill="#91d8bb" d="M 288.285,288.289 V -0.00390625 h 36.996 V 288.289 h -36.996" transform="matrix(.13333 0 0 -.13333 0 124.933)"/><path fill="#bf8abf" d="M 288.285,648.719 H 0.335938 V 612.555 H 288.285 v 36.164" transform="matrix(.13333 0 0 -.13333 0 124.933)"/><path fill="#bee8d7" d="m 288.285,288.289 v 35.984 H 0.00390625 V 288.289 H 287.945 h 0.34" transform="matrix(.13333 0 0 -.13333 0 124.933)"/><path fill="#fcd9cf" d="m 325.613,612.555 h 287.114 v 36.164 H 325.445 v -36.164 h 0.168" transform="matrix(.13333 0 0 -.13333 0 124.933)"/><path fill="#f57c94" d="m 612.727,648.719 h 0.168 V 937.004 H 325.613 V 648.719 h 287.114" transform="matrix(.13333 0 0 -.13333 0 124.933)"/><path fill="#f4a5bc" d="m 324.945,648.719 h 0.668 V 937.004 H 288.285 V 648.719 h 36.66" transform="matrix(.13333 0 0 -.13333 0 124.933)"/><path fill="#fac0ad" d="m 613.227,648.719 h 36.996 V 937.004 H 612.895 V 648.719 h 0.332" transform="matrix(.13333 0 0 -.13333 0 124.933)"/><path fill="#4d777b" d="M 287.945,288.289 H 0.00390625 V -0.00390625 H 288.285 V 288.289 h -0.34" transform="matrix(.13333 0 0 -.13333 0 124.933)"/><path fill="#7ed07f" d="M 650.223,-0.00390625 H 938.508 V 288.289 H 650.223 V -0.00390625" transform="matrix(.13333 0 0 -.13333 0 124.933)"/><path fill="#efd7da" d="m 325.281,324.441 h 0.332 V 612.555 H 288.285 V 324.273 h 36.996 v 0.168" transform="matrix(.13333 0 0 -.13333 0 124.933)"/><path fill="#bee8d7" d="M 613.563,288.289 V -0.00390625 h 36.66 V 288.289 h -36.66" transform="matrix(.13333 0 0 -.13333 0 124.933)"/><path fill="#f8dfb8" d="M 938.172,648.719 H 650.223 v -36.164 h 288.285 v 36.164 h -0.336" transform="matrix(.13333 0 0 -.13333 0 124.933)"/><path fill="#efdd96" d="m 650.223,324 v -35.711 h 288.285 v 36.152 H 650.223 V 324" transform="matrix(.13333 0 0 -.13333 0 124.933)"/><path fill="#fcd9cf" d="m 612.895,324.441 h 0.668 V 324 h 36.66 v 0.441 288.114 0.273 H 612.895 V 324.441" transform="matrix(.13333 0 0 -.13333 0 124.933)"/><path fill="#e8f1d1" d="M 613.563,324.441 H 325.281 V 288.289 H 613.563 V 324 v 0.441" transform="matrix(.13333 0 0 -.13333 0 124.933)"/></g></g></svg>