<svg xmlns="http://www.w3.org/2000/svg" role="img" viewBox="-4.20 -4.20 335.40 99.90"><title>Hyperledger Cello logo</title><style>svg {enable-background:new 0 0 327.7 93.1}</style><style>.st1{fill:#f1564a}</style><path fill="#24272a" d="M114.3 9.2l4.5-.1v7.6h8.7V9.1h4.5l.1 20.3h-4.5v-8.8l-8.7.1v8.7h-4.5zm28.5 11.6l-7.6-11.6h5.5l4.4 7.5 4.5-7.6h5.3l-7.6 11.7.1 8.6h-4.5zM158 9.1h7.5c1 0 2 .1 3 .3.9.2 1.8.5 2.5 1s1.3 1.1 1.7 1.9c.4.8.6 1.8.6 3s-.2 2.2-.6 3c-.4.8-.9 1.4-1.6 1.9-.7.5-1.5.8-2.4 1-.9.2-1.9.3-3 .3h-3.3v7.9h-4.5l.1-20.3zm4.5 8.6h3c.4 0 .8 0 1.2-.1.4-.1.7-.2 1-.4.3-.2.5-.4.7-.7.2-.3.3-.7.3-1.2s-.1-.9-.4-1.2c-.2-.3-.5-.6-.9-.7-.4-.2-.8-.3-1.2-.3-.5 0-.9-.1-1.3-.1h-2.3l-.1 4.7zm13.9-8.5l13.8-.1v4.1l-9.3.1V17h8.8v4.1l-8.8.1v4.1l9.9-.1v4.2h-14.3zm17.5-.1h7.9c1 0 2 .1 2.9.3.9.2 1.7.5 2.4 1s1.3 1.1 1.7 1.9c.4.8.6 1.8.6 3 0 1.4-.4 2.7-1.1 3.7-.7 1-1.8 1.6-3.3 1.9l5.2 8.5h-5.4l-4.3-8.1h-2.2v8.1h-4.5l.1-20.3zm4.5 8.4H202.3c.4 0 .9-.1 1.2-.3.4-.1.7-.4.9-.7.2-.3.4-.7.4-1.3 0-.5-.1-.9-.3-1.2-.2-.3-.5-.5-.8-.7-.3-.2-.7-.3-1.1-.3-.4-.1-.8-.1-1.2-.1h-2.9l-.1 4.6zm14.9-8.4h4.4l.1 16.2 8.3-.1v4.1l-12.7.1zm15.9 0H243v4.1l-9.3.1V17h8.8v4.1l-8.8.1.1 4.1 9.8-.1v4.1l-14.3.1zm17.5 0h6.7c1.6 0 3.2.2 4.6.5 1.5.4 2.7.9 3.8 1.7 1.1.8 2 1.9 2.6 3.2.6 1.3 1 2.9 1 4.7 0 1.6-.3 3.1-.9 4.3-.6 1.3-1.4 2.3-2.5 3.2-1 .9-2.3 1.5-3.6 2-1.4.4-2.8.7-4.3.7h-7.3l-.1-20.3zm4.6 16.2h2.3c1 0 2-.1 2.9-.3.9-.2 1.7-.6 2.3-1.1.6-.5 1.2-1.1 1.5-1.9.4-.8.5-1.8.5-2.9 0-1-.2-1.9-.6-2.6-.4-.7-.9-1.3-1.5-1.8s-1.4-.8-2.2-1.1c-.9-.2-1.7-.3-2.7-.3h-2.6l.1 12zm36.8 2.6c-1.3.7-2.7 1.2-4.1 1.5-1.4.3-2.9.5-4.4.5-1.6 0-3-.2-4.4-.7-1.3-.5-2.5-1.2-3.5-2.1-1-.9-1.7-2-2.3-3.4-.6-1.3-.8-2.8-.8-4.4 0-1.6.3-3.1.8-4.4.5-1.3 1.3-2.4 2.3-3.4 1-.9 2.1-1.6 3.5-2.1 1.3-.5 2.8-.8 4.4-.8 1.6 0 3.1.2 4.5.6 1.4.4 2.6 1.1 3.6 2l-3.1 3.5c-.6-.6-1.3-1.1-2.1-1.4-.8-.3-1.7-.5-2.9-.5-1 0-1.8.2-2.6.5s-1.4.8-2 1.4c-.5.6-1 1.3-1.3 2.1-.3.8-.4 1.7-.4 2.6 0 1 .2 1.8.5 2.6s.7 1.5 1.3 2.1c.6.6 1.2 1 2 1.4.8.3 1.6.5 2.6.5s1.8-.1 2.5-.3c.7-.2 1.3-.4 1.7-.7v-3.3h-3.6v-4.1h7.9l-.1 10.3zm3.1-19.2l13.8-.1v4.1l-9.3.1v3.8l8.8-.1v4.1l-8.8.1v4.1h9.9v4.1l-14.3.1zm17.5 0h7.9c1 0 2 .1 2.9.3.9.2 1.7.5 2.4 1s1.3 1.1 1.7 1.9c.4.8.6 1.8.6 3 0 1.4-.4 2.7-1.1 3.7-.7 1-1.8 1.6-3.3 1.9L325 29h-5.4l-4.3-8.1h-2.2V29h-4.5l.1-20.3zm4.5 8.3H317.1c.4 0 .9-.1 1.2-.3.4-.1.7-.4.9-.7.2-.3.4-.7.4-1.3 0-.5-.1-.9-.3-1.2-.2-.3-.5-.5-.8-.7-.3-.2-.7-.3-1.1-.3-.4-.1-.8-.1-1.2-.1h-2.9l-.1 4.6z"/><path d="M143.5 53.1c-1.2-1.5-2.7-2.7-4.5-3.5-1.8-.8-3.7-1.2-5.6-1.2-2.3 0-4.5.4-6.4 1.3-1.9.9-3.5 2.1-4.9 3.6-1.4 1.5-2.4 3.3-3.1 5.4-.7 2.1-1.1 4.3-1.1 6.6 0 2.2.4 4.3 1.1 6.2.7 2 1.7 3.7 3.1 5.2 1.3 1.5 3 2.7 4.9 3.5 1.9.9 4.1 1.3 6.5 1.3 2.4 0 4.5-.5 6.3-1.5 1.8-1 3.3-2.3 4.6-4.1l4.8 3.6c-.3.4-.9 1-1.6 1.9-.8.8-1.8 1.6-3.1 2.4-1.3.8-2.8 1.5-4.7 2.1-1.8.6-3.9.9-6.3.9-3.3 0-6.3-.6-8.9-1.9-2.6-1.3-4.9-2.9-6.8-4.9-1.9-2-3.3-4.3-4.3-6.9-1-2.6-1.5-5.2-1.5-7.8 0-3.2.5-6.2 1.6-8.9s2.5-5.1 4.4-7c1.9-2 4.2-3.5 6.8-4.6 2.7-1.1 5.6-1.6 8.8-1.6 2.7 0 5.4.5 8.1 1.6 2.6 1.1 4.8 2.7 6.5 4.9l-4.7 3.4zm10.5-9h26.8v5.3h-21.2v12.4h19.7v5.3h-19.7v13.3h22.3v5.3H154V44.1zm34.1 0h5.6v36.3h19.1v5.3h-24.7V44.1zm29.2 0h5.6v36.3H242v5.3h-24.7V44.1zM264 86.8c-3.2 0-6.1-.6-8.8-1.7-2.7-1.1-4.9-2.7-6.8-4.6-1.9-2-3.4-4.3-4.5-6.9-1.1-2.7-1.6-5.5-1.6-8.6 0-3.1.5-6 1.6-8.6 1.1-2.7 2.6-5 4.5-6.9 1.9-2 4.2-3.5 6.8-4.6 2.7-1.1 5.6-1.7 8.8-1.7 3.2 0 6.1.6 8.8 1.7 2.7 1.1 4.9 2.7 6.8 4.6 1.9 2 3.4 4.3 4.5 6.9 1.1 2.7 1.6 5.5 1.6 8.6 0 3.1-.5 6-1.6 8.6-1.1 2.7-2.6 5-4.5 6.9-1.9 2-4.2 3.5-6.8 4.6-2.8 1.1-5.7 1.7-8.8 1.7zm0-5.3c2.4 0 4.5-.4 6.5-1.3 1.9-.9 3.6-2.1 4.9-3.6 1.4-1.5 2.4-3.2 3.2-5.3.7-2 1.1-4.2 1.1-6.4 0-2.3-.4-4.4-1.1-6.4-.7-2-1.8-3.8-3.2-5.3-1.4-1.5-3-2.7-4.9-3.6-1.9-.9-4.1-1.3-6.5-1.3-2.4 0-4.5.4-6.5 1.3-1.9.9-3.6 2.1-4.9 3.6-1.4 1.5-2.4 3.2-3.2 5.3-.7 2-1.1 4.2-1.1 6.4 0 2.3.4 4.4 1.1 6.4.7 2 1.8 3.8 3.2 5.3 1.4 1.5 3 2.7 4.9 3.6 1.9.8 4.1 1.3 6.5 1.3z" class="st1"/><path fill="#d9d9d9" d="M43.4 38C29.6 23 24.6 12.4 29.1 7.9c1.4-1.4 2.9-2 4.5-1.8-1.2 1.7-1 4 .5 5.6 1.7 1.7 4.4 1.7 6.1 0 1.7-1.7 1.7-4.4 0-6.1l-.2-.2c-.2-.2-3.1-3-7-3.1-2.4 0-4.6 1-6.6 3-3.7 3.7-3.7 9.2 0 16.4 2.9 5.6 8 12.4 15.4 20.3-22.3-.6-34.5-4.6-34.5-11.4 0-2 .6-3.5 1.9-4.5.4 2 2.1 3.6 4.3 3.6 2.4 0 4.3-1.9 4.3-4.3s-1.9-4.3-4.3-4.3h-.2c-.3 0-4.3 0-7.1 2.8-1.7 1.7-2.6 4-2.6 6.8 0 5.2 3.9 9.1 11.6 11.6 6.3 2.1 15.4 3.2 27.1 3.5l1-1.4c-.1-2.3 0-4.4.1-6.4zm34.8 9.5c-5.7-3-13.7-4.8-23.7-5.3 14.3-12.9 24.4-17.5 28.8-13 1.4 1.4 2 2.9 1.8 4.5-1.7-1.2-4-1-5.6.5-1.7 1.7-1.7 4.4 0 6.1 1.7 1.7 4.4 1.7 6.1 0l.2-.2c.2-.2 3-3.1 3.1-7 0-2.4-1-4.6-3-6.6-3.7-3.7-9.2-3.7-16.4 0-5 2.5-10.8 6.8-17.6 12.9-.1 1.5-.1 3.1-.2 4.7l1 .7 1.7 1.2c15 .9 29.6 5 29.6 14.3 0 2.2-.7 3.6-1.6 4.6-.5-1.9-2.2-3.3-4.2-3.3-2.4 0-4.3 1.9-4.3 4.3s1.9 4.3 4.3 4.3h.3c.1 0 9.3-.2 9.3-9.9-.1-3-1.3-8.5-9.6-12.8zm-36.1 2.7l-.8-.5C29.7 60.4 15.1 69.4 8.2 62.4c-1.6-1.6-2.1-3.1-2.1-4.3 1.7 1 3.9.8 5.3-.6 1.7-1.7 1.7-4.4 0-6.1-1.7-1.7-4.4-1.7-6.1 0l-.2.2c-.1-.1-6.5 6.5.4 13.4 2.1 2.1 6.9 5.1 15.7 2.3C27.7 65.2 35 60.5 43 53.1c0-.8.1-1.5.1-2.3l-1-.6zm9.7 2.1c9.7 11.1 17.1 24.3 10.6 30.8-1.6 1.6-3.1 2.1-4.3 2.1 1-1.7.8-3.9-.6-5.3-1.7-1.7-4.4-1.7-6.1 0-1.7 1.7-1.7 4.4 0 6.1l.2.2c.1.1 6.7 6.5 13.6-.5 2.1-2.1 5.1-6.9 2.3-15.7-2-6.5-6.7-13.7-14-21.6l-1.6 2.2c-.1.6-.1 1.2-.1 1.7z"/><path d="M49.4 45.4c.4-23.5 4.4-36.3 11.4-36.3 2 0 3.5.6 4.5 1.9-2 .4-3.6 2.1-3.6 4.3 0 2.4 1.9 4.3 4.3 4.3s4.3-1.9 4.3-4.3v-.2c0-.3 0-4.3-2.8-7.1-1.7-1.7-4-2.6-6.8-2.6-5.2 0-9.1 3.9-11.6 11.6-2.1 6.5-3.3 16-3.5 28.2l-2.1 3 2.1 1.4c-.1 16.8-3.9 36.1-14.5 36.1-2.2 0-3.6-.7-4.6-1.6 1.9-.5 3.3-2.2 3.3-4.2 0-2.4-1.9-4.3-4.3-4.3s-4.3 1.9-4.3 4.3v.3c0 .1.2 9.3 9.9 9.3 2.9 0 8.5-1.2 12.8-9.5 3.6-6.9 5.4-17 5.5-30.1l2.1-3-2.1-1.5z" class="st1"/></svg>