<svg xmlns="http://www.w3.org/2000/svg" role="img" viewBox="-12.05 -11.55 600.60 147.10"><title>Hyperledger Sawtooth logo</title><path fill="#232325" d="M153.0455 12.0338l5.9532-.03173.05466 10.06535 11.56504-.0588-.05466-10.06908 5.95451-.03014.14 26.99973-5.95052.02973-.06266-11.6689-11.56505.0624.06133 11.66797-5.95318.03226-.14266-26.99879m37.97638 15.46268l-10.23708-15.42935 7.40515-.03906 5.77852 10.07575 6.01319-10.13828 7.06115-.03374-10.06908 15.53442.05867 11.51584-5.95052.0324-.06-11.51798m26.20335-4.09056l3.9679-.02027c.53598-.00107 1.04797-.05573 1.54662-.16093.49466-.10053.93731-.27866 1.3333-.52185.39333-.2448.70665-.57612.94665-.99691.24133-.41972.35599-.94731.35466-1.5833-.00534-.68438-.16533-1.23903-.484-1.65622-.32398-.41919-.73064-.74051-1.22796-.9681-.49466-.2224-1.05064-.36827-1.66263-.42813-.61065-.05893-1.1973-.08853-1.75729-.08333l-3.05192.014zm-6.01585-11.40852l10.03841-.05213c1.39863-.00827 2.72393.1104 3.97057.3604 1.24663.24745 2.3386.6797 3.27325 1.29636.92931.62132 1.67196 1.45516 2.22395 2.50514.55465 1.0521.8333 2.3806.84264 3.98163.008 1.5781-.24 2.89993-.74131 3.97283-.50532 1.06824-1.2013 1.92236-2.08662 2.56554-.89064.64012-1.94128 1.09477-3.16125 1.36717-1.22264.27559-2.5426.41612-3.96657.42399l-4.3519.02186.05467 10.52574-5.95185.03026-.144-26.99879m24.47673.02387l18.35554-.09627.02933 5.492-12.40369.06667.028 5.0316 11.7157-.06186.02934 5.492-11.71837.062.028 5.49199 13.09167-.06667.028 5.48947-19.0422.09786-.14132-26.9988m29.32193 11.11746l3.51191-.0172c.53332-.00253 1.09998-.02493 1.69863-.06666.59732-.04213 1.13597-.15626 1.6173-.35146.48398-.1928.88264-.49425 1.19996-.90318.31333-.40772.46799-.97917.46666-1.71609-.004-.68798-.148-1.2349-.42933-1.63796-.28132-.40519-.63865-.71451-1.07197-.9297-.43332-.21613-.93331-.3568-1.49196-.4312-.55999-.074-1.1053-.10893-1.63996-.1036l-3.89324.0192zm-6.01052-11.13932l10.45574-.05666c1.3733-.00734 2.67994.1192 3.91057.38065 1.2373.25933 2.31728.69999 3.25325 1.31664.93065.61825 1.67196 1.4541 2.22395 2.50514.55332 1.05357.83331 2.3682.84398 3.9411.00933 1.90768-.47999 3.53058-1.4653 4.87374-.9813 1.34117-2.42927 2.19115-4.33722 2.55727l6.93049 11.36745-7.13716.03693-5.70252-10.7632-2.94126.0156.056 10.7924-5.95452.03227-.136-26.99933m25.79803-.02866l5.95185-.03014.11333 21.50773 11.03039-.05773.03067 5.492-16.98491.08653-.14133-26.9984m21.25413.03294l18.35554-.0964.02934 5.492-12.4037.06666.028 5.03174 11.71571-.05946.02933 5.48893-11.71837.06253.02933 5.492 13.09168-.06614.028 5.4884-19.04353.09853-.14133-26.9988m29.37927 21.47027l3.09192-.01773c1.37197-.0068 2.65193-.15266 3.8319-.43746 1.18264-.28959 2.20395-.75678 3.06526-1.41036.85998-.65052 1.5373-1.50676 2.02795-2.56514.49065-1.05624.73198-2.3478.72398-3.87377-.00533-1.3213-.26132-2.4718-.76265-3.44898-.49998-.97757-1.1733-1.77849-2.01595-2.41127-.8413-.63185-1.83462-1.1037-2.96392-1.41303-1.1333-.31453-2.32528-.46559-3.57191-.46039l-3.51191.02027zM329.3611 11.9958l8.93044-.04693c2.16128-.01187 4.2199.21986 6.16785.69012 1.94795.47292 3.6519 1.24943 5.10787 2.32034 1.45596 1.07384 2.61327 2.4686 3.47858 4.1951.85865 1.72755 1.2973 3.8203 1.30797 6.28637.012 2.18741-.39066 4.1171-1.2093 5.78372-.81732 1.67023-1.92396 3.0754-3.31459 4.21083-1.39596 1.1405-3.00526 2.00675-4.83455 2.59993-1.83062.59679-3.75057.89892-5.75852.90772l-9.73309.0516-.14266-26.9988m55.09462 25.00871c-1.74929.92558-3.57858 1.59743-5.48386 2.01355-1.90795.41866-3.8519.63065-5.83586.64105-2.11194.00947-4.06123-.3088-5.84518-.9593-1.78396-.6536-3.32659-1.59064-4.63055-2.8182-1.30797-1.22544-2.32661-2.7134-3.06126-4.46283-.73465-1.75409-1.1053-3.7083-1.1173-5.87118-.01334-2.16048.34132-4.11817 1.05597-5.87746.71865-1.75569 1.71862-3.25511 3.01326-4.49735 1.28796-1.2401 2.8226-2.19421 4.60521-2.86246 1.77196-.67292 3.71724-1.01398 5.8292-1.02331 2.1626-.01253 4.15589.2364 5.97718.74891 1.81995.51293 3.42391 1.39944 4.80388 2.66447l-4.17323 4.59882c-.81865-.83585-1.73996-1.46756-2.75993-1.89475-1.01731-.426-2.29061-.63585-3.81858-.62652-1.27196.0052-2.42127.22813-3.45058.66558-1.02664.4412-1.90662 1.04424-2.64526 1.8229-.73198.78224-1.29064 1.70781-1.68263 2.77859-.38799 1.06877-.57732 2.22648-.57198 3.47071.008 1.27397.21066 2.43434.61065 3.48645.39999 1.05304.9693 1.96661 1.71062 2.73526.74265.77452 1.63196 1.37237 2.6626 1.80102 1.03198.4256 2.18661.63385 3.45858.62865 1.29864-.00786 2.41594-.15786 3.35725-.45465.93598-.29693 1.68663-.59892 2.24528-.90838l-.024-4.38682-4.84788.02506-.02533-5.49212 10.5704-.0568.07333 14.11111m4.1279-25.62176l18.35687-.09626.02534 5.48893-12.40236.06666.02667 5.03268 11.71837-.0604.028 5.48986-11.71838.06253.03067 5.49413 13.089-.06973.03067 5.48946-19.04352.10093-.14133-26.99879m29.32193 11.12066l3.51191-.01934c.532 0 1.09864-.02493 1.6973-.064.59598-.04226 1.13597-.15626 1.61862-.35425.48132-.19.87998-.49159 1.1973-.89998.316-.40826.472-.97904.46933-1.71716-.00534-.68745-.148-1.23423-.428-1.63796-.28265-.40519-.63998-.71398-1.07597-.92957-.43199-.21613-.9333-.3584-1.4893-.4308-.56131-.07706-1.1053-.10879-1.64262-.10679l-3.89057.02293zm-6.01185-11.14092l10.45707-.05467c1.37197-.00733 2.67594.11613 3.91324.38012 1.23464.26 2.31728.70052 3.25059 1.31664.9333.61612 1.67195 1.45156 2.2266 2.50567.55066 1.05157.83199 2.36767.84132 3.94057.00933 1.90835-.47999 3.5307-1.46263 4.8744-.98398 1.33797-2.4306 2.18849-4.3399 2.55714l6.9305 11.36545-7.13715.03747-5.7052-10.76227-2.93859.0156.05733 10.79253-5.95185.0296-.14133-26.99826"/><path fill="#1574c2" d="M123.9969 58.64517l-36.0631 26.3264V46.97254L35.87977 84.97158V46.97253L.88435 72.51976c4.97748 29.27953 30.4638 51.57324 61.16103 51.57324 34.26675 0 62.04525-27.77904 62.04525-62.04538 0-1.1421-.03333-2.27595-.09373-3.40245"/><path fill="#6bcfe9" d="M123.05732 50.72763C117.73612 21.8669 92.44556.00237 62.04538.00237 27.77904.00237 0 27.78087 0 62.04762c0 .82918.02083 1.65369.05364 2.475L42.8292 33.29687v37.99852l52.05283-37.99852v37.99852l28.1753-20.56776m35.42004 51.59138c1.35863 2.03848 3.09726 3.54165 5.21454 4.50882 2.11594.96718 4.29856 1.4505 6.5465 1.4505 1.2533 0 2.5346-.1964 3.84124-.58852 1.3053-.39226 2.4946-.98024 3.56658-1.76409 1.07064-.78385 1.94661-1.75049 2.6266-2.901.67865-1.1489 1.01864-2.48166 1.01864-3.99776 0-2.14261-.67865-3.77537-2.03862-4.90041-1.35863-1.1229-3.04392-2.06342-5.05587-2.8218-2.01195-.75731-4.2079-1.48956-6.58517-2.19528-2.37994-.70518-4.57455-1.68582-6.58517-2.94006-2.01328-1.2541-3.69857-2.93939-5.0572-5.05654-1.35997-2.1166-2.03862-4.97854-2.03862-8.58471 0-1.61876.35332-3.34419 1.05864-5.1744.70531-1.82863 1.81595-3.50099 3.33192-5.01708 1.51462-1.51503 3.46124-2.78327 5.84118-3.8019 2.37728-1.01985 5.23854-1.5297 8.58379-1.5297 3.03059 0 5.93185.41932 8.70245 1.25463 2.76926.83651 5.19987 2.53594 7.29048 5.09628l-6.11451 5.56652c-.94131-1.46303-2.27328-2.63846-3.99857-3.52804-1.72396-.88851-3.6839-1.3333-5.87985-1.3333-2.09062 0-3.82924.27452-5.2132.82344-1.3853.54892-2.49728 1.25464-3.33192 2.11662-.83731.8625-1.42397 1.79102-1.76396 2.78326-.33999.99318-.50932 1.90875-.50932 2.74367 0 2.35247.67865 4.1551 2.03862 5.40973 1.35863 1.2541 3.04392 2.2734 5.05587 3.05779 2.01195.78384 4.20656 1.48956 6.5865 2.11661 2.37728.62705 4.57189 1.50303 6.58517 2.62594 2.01062 1.1245 3.69724 2.64006 5.05588 4.54722 1.35863 1.90835 2.03728 4.53482 2.03728 7.879 0 2.66513-.50799 5.07027-1.52796 7.21288-1.01865 2.14368-2.39061 3.9463-4.1159 5.40923-1.72396 1.46403-3.76257 2.58692-6.11452 3.37076-2.35194.78383-4.85987 1.17653-7.52647 1.17653-3.55458 0-6.92516-.62759-10.11308-1.88225-3.18926-1.2536-5.72253-3.18639-7.60515-5.80086l6.19318-5.33173m70.95023-8.70125L219.07986 68.1376h-.15733l-10.50507 25.48016zm-13.48367-35.20125h6.81983l23.75408 55.5059h-8.77978l-5.56653-13.71948h-26.41934l-5.48786 13.71948h-8.78112l24.46072-55.5059m25.00738 0h7.8398l12.2677 44.37342h.15866l13.05434-44.37342h8.62245l13.05167 44.37342h.15867l12.27036-44.37342h7.8398l-16.1516 55.5059h-7.9958l-13.405-45.31402h-.15732l-13.329 45.31402h-7.9958l-16.22893-55.5059m96.32692 7.05609h-17.87422v-7.0561h43.27626v7.0561h-17.87422v48.44981h-7.52782V65.4726m53.93866 42.80573c3.18658 0 6.06118-.58852 8.62245-1.76462 2.55993-1.17544 4.75588-2.7562 6.5865-4.74255 1.82795-1.98635 3.23858-4.32483 4.23323-7.01703.99197-2.691 1.4893-5.55292 1.4893-8.58472 0-3.03059-.49733-5.89198-1.4893-8.58458-.99465-2.69113-2.40528-5.0296-4.23323-7.0165-1.83062-1.98594-4.02657-3.5671-6.5865-4.7432-2.56127-1.17544-5.43587-1.76396-8.62245-1.76396-3.18926 0-6.06385.58852-8.62379 1.76395-2.5626 1.1761-4.75721 2.75727-6.5865 4.74322-1.83062 1.98688-3.23992 4.32536-4.23323 7.01649-.99464 2.6926-1.49063 5.554-1.49063 8.58458 0 3.0318.49599 5.89372 1.49063 8.58472.99331 2.6922 2.4026 5.03068 4.23323 7.01703 1.82929 1.98635 4.0239 3.5671 6.5865 4.74255 2.55994 1.1761 5.43453 1.76462 8.62379 1.76462zm0 7.05552c-4.23456 0-8.1278-.74479-11.68238-2.23432-3.55458-1.48955-6.5985-3.54003-9.1331-6.1545-2.53594-2.613-4.52122-5.69626-5.95852-9.25084-1.43863-3.5535-2.15595-7.39568-2.15595-11.52478 0-4.12843.71732-7.96953 2.15595-11.52464 1.4373-3.55311 3.42258-6.63637 5.95852-9.2503 2.5346-2.61354 5.57852-4.66549 9.1331-6.15452 3.55458-1.4901 7.44782-2.23487 11.68238-2.23487 4.23189 0 8.12513.74478 11.6797 2.23487 3.55458 1.48903 6.5985 3.54098 9.13444 6.15452 2.53327 2.61393 4.51989 5.69719 5.95852 9.2503 1.4373 3.55511 2.15595 7.39621 2.15595 11.52464 0 4.1291-.71865 7.97127-2.15595 11.52478-1.43863 3.55458-3.42525 6.63784-5.95852 9.25084-2.53593 2.61447-5.57986 4.66495-9.13444 6.1545-3.55457 1.48953-7.44781 2.23432-11.6797 2.23432m64.0104-7.05552c3.18792 0 6.06251-.58852 8.62378-1.76462 2.55994-1.17544 4.75588-2.7562 6.5865-4.74255 1.82796-1.98635 3.23859-4.32483 4.2319-7.01703.99197-2.691 1.49063-5.55292 1.49063-8.58472 0-3.03059-.49866-5.89198-1.49063-8.58458-.99331-2.69113-2.40394-5.0296-4.2319-7.0165-1.83062-1.98594-4.02656-3.5671-6.5865-4.7432-2.56127-1.17544-5.43586-1.76396-8.62378-1.76396s-6.06385.58852-8.62246 1.76395c-2.5626 1.1761-4.75721 2.75727-6.5865 4.74322-1.83062 1.98688-3.24125 4.32536-4.23456 7.01649-.9933 2.6926-1.4893 5.554-1.4893 8.58458 0 3.0318.496 5.89372 1.4893 8.58472.99331 2.6922 2.40394 5.03068 4.23456 7.01703 1.82929 1.98635 4.0239 3.5671 6.5865 4.74255 2.5586 1.1761 5.43454 1.76462 8.62246 1.76462zm0 7.05552c-4.23323 0-8.12647-.74479-11.68105-2.23432-3.55457-1.48955-6.59983-3.54003-9.1331-6.1545-2.53594-2.613-4.52255-5.69626-5.95852-9.25084-1.43863-3.5535-2.15594-7.39568-2.15594-11.52478 0-4.12843.71731-7.96953 2.15594-11.52464 1.43597-3.55311 3.42258-6.63637 5.95852-9.2503 2.53327-2.61354 5.57853-4.66549 9.1331-6.15452 3.55458-1.4901 7.44782-2.23487 11.68105-2.23487 4.23322 0 8.12646.74478 11.68104 2.23487 3.55457 1.48903 6.59717 3.54098 9.13444 6.15452 2.53327 2.61393 4.51855 5.69719 5.95718 9.2503 1.43863 3.55511 2.15728 7.39621 2.15728 11.52464 0 4.1291-.71865 7.97127-2.15728 11.52478-1.43863 3.55458-3.42391 6.63784-5.95718 9.25084-2.53727 2.61447-5.57987 4.66495-9.13444 6.1545-3.55458 1.48953-7.44782 2.23432-11.68104 2.23432m46.4095-49.86125h-17.87422v-7.0561h43.27625v7.0561h-17.87555v48.44981h-7.52648V65.4726m31.84587-7.0561h7.52515v23.0489h28.77261V58.4165h7.52648v55.50591h-7.52648V88.5215h-28.77261v25.40092h-7.52515v-55.5059"/></svg>