<svg xmlns="http://www.w3.org/2000/svg" role="img" viewBox="-8.55 -8.30 431.86 138.86"><title>Hyperledger Indy logo</title><style>svg {enable-background:new 0 0 415.3 122.3}</style><style>.st0{fill:#00538b}</style><g id="g3476" transform="translate(-29.375 -164.193) scale(.79543)"><g id="g-39"><g id="g-40"><path id="path3480" d="M136.4 349.3l-18.8 10.9-18.8-10.9v-21.9l18.8-10.9 18.8 10.9v21.9z" class="st0"/></g></g></g><g id="g3482" transform="translate(-22.142 -214.498) scale(.47731)"><g id="g-11"><g id="g-12"><path id="path3486" d="M138.1 482.2l-18.8 10.9-18.8-10.9v-21.9l18.8-10.9 18.8 10.9v21.9z" class="st0"/></g></g></g><g id="g3488" transform="translate(197.926 -14.885) scale(.3125)"><g id="g-1"><g id="g-2"><path id="path3492" d="M-249.2 251.1L-268 262l-18.8-10.9v-21.9l18.8-10.9 18.8 10.9v21.9z" class="st0"/></g></g></g><g id="g3494" transform="translate(118.668 47.206) scale(.40374)"><g id="g-15"><g id="g-16"><path id="path3498" d="M-55.1 161.8l-18.8 10.9-18.8-10.9v-21.9l18.8-10.9 18.8 10.9v21.9z" class="st0"/></g></g></g><g id="g3500" transform="translate(-306.016 -798.513) scale(1.7972)"><g id="g-31"><g id="g-32"><path id="path3504" d="M214.5 486.3l-18.8 10.9-18.8-10.9v-21.9l18.8-10.9 18.8 10.9v21.9z" class="st0"/></g></g></g><g id="g3506" transform="translate(35.37 -283.143) scale(.94327)"><g id="g-3"><g id="g-4"><path id="path3510" d="M95.4 402.9l-18.8 10.9-18.8-10.9V381l18.8-10.9L95.4 381v21.9z" class="st0"/></g></g></g><g id="g3512" transform="translate(246.032 38.642) scale(.1733)"><g id="g-25"><g id="g-26"><path id="path3516" d="M-702.9 87.3l-18.8 10.9-18.8-10.9V65.4l18.8-10.9 18.8 10.9v21.9z" class="st0"/></g></g></g><g id="g3518" transform="translate(-110.123 -108.146) scale(.62891)"><g id="g-5"><g id="g-6"><path id="path3522" d="M212.7 328.4l-18.8 10.9-18.8-10.9v-21.9l18.8-10.9 18.8 10.9v21.9z" class="st0"/></g></g></g><g id="g3524" transform="translate(.765 -82.911) scale(.23412)"><g id="g-7"><g id="g-8"><path id="path3528" d="M100.6 418.8l-18.8 10.9L63 418.8v-21.9L81.8 386l18.8 10.9v21.9z" class="st0"/></g></g></g><g id="g3530" transform="translate(280.539 83.104) scale(.08473)"><g id="g-9"><g id="g-10"><path id="path3534" d="M-1793.4-366.3l-18.8 10.9-18.8-10.9v-21.9l18.8-10.9 18.8 10.9v21.9z" class="st0"/></g></g></g><g id="g3536" transform="translate(25.877 7.821) scale(.08473)"><g id="g-13"><g id="g-14"><path id="path3540" d="M-102.3 133.6l-18.8 10.9-18.8-10.9v-21.9l18.8-10.9 18.8 10.9v21.9z" class="st0"/></g></g></g><g id="g3542" transform="translate(143.412 -29.113) scale(.2068)"><g id="g-17"><g id="g-18"><path id="path3546" d="M-290.2 296.2l-18.8 10.9-18.8-10.9v-21.9l18.8-10.9 18.8 10.9v21.9z" class="st0"/></g></g></g><g id="g3548" transform="translate(131.63 -117.613) scale(.3799)"><g id="g-19"><g id="g-20"><path id="path3552" d="M-85.3 401.1l-18.8 10.9-18.8-10.9v-21.9l18.8-10.9 18.8 10.9v21.9z" class="st0"/></g></g></g><g id="g3554" transform="translate(86.558 205.884) scale(.11657)"><g id="g-21"><g id="g-22"><path id="path3558" d="M-334.2-793.7l-18.8 10.9-18.8-10.9v-21.9l18.8-10.9 18.8 10.9v21.9z" class="st0"/></g></g></g><g><path fill="#8c9091" d="M153.2 58h7.1v52.5h-7.1zm20.7 0h9.3l28.9 43.2h.2V58h7.1v52.6h-9.1l-29.2-43.2h-.1v43.2h-7.1zm57.8 0H250c22.2 0 27.6 16.5 27.6 26.3 0 13.4-10 26.3-28.8 26.3h-17.1V58zm7.1 45.9h9c12 0 22.3-6.6 22.3-19.6 0-6.7-3.5-19.6-20.5-19.6h-10.7v39.2zm61.5-15.7L280.4 58h9.1l14.3 23.1L318.6 58h8.7l-19.9 30.2v22.4h-7.1z"/><path fill="#2f3134" d="M152.5 14.6h5.8v9.7h11.2v-9.8h5.7l.2 26.1-5.8.1V29.4h-11.2v11.3h-5.7zm34.2 15l-9.9-14.9 7.1-.1 5.6 9.8 5.8-9.8 6.9-.1-9.8 15.1.1 11.1h-5.8zm17-15h9.7c1.4 0 2.6.1 3.8.3 1.2.2 2.3.7 3.2 1.3.9.6 1.6 1.4 2.2 2.4.5 1 .8 2.3.8 3.9 0 1.5-.2 2.8-.7 3.8-.5 1-1.2 1.9-2 2.5-.9.6-1.9 1.1-3.1 1.3-1.2.3-2.5.4-3.8.4h-4.2l.1 10.2h-5.8l-.2-26.1zm5.8 11h3.8c.5 0 1-.1 1.5-.2s.9-.3 1.3-.5.7-.6.9-1c.2-.4.3-.9.3-1.5 0-.7-.2-1.2-.5-1.6-.3-.4-.7-.7-1.2-.9-.5-.2-1-.4-1.6-.4-.6-.1-1.2-.1-1.7-.1h-3l.2 6.2zm17.3-11l17.8-.1v5.3l-12 .1v4.9l11.4-.1V30l-11.3.1v5.3l12.7-.1v5.3l-18.4.1zm22.7 0l10.1-.1c1.3 0 2.6.1 3.8.4 1.2.3 2.2.7 3.1 1.3.9.6 1.6 1.4 2.1 2.4s.8 2.3.8 3.8c0 1.8-.5 3.4-1.4 4.7-.9 1.3-2.3 2.1-4.2 2.5l6.7 11h-6.9l-5.5-10.4h-2.8l.1 10.4h-5.8l-.1-26zm5.8 10.8h3.4c.5 0 1.1 0 1.6-.1.6 0 1.1-.2 1.6-.3.5-.2.9-.5 1.2-.9.3-.4.5-.9.5-1.7 0-.7-.1-1.2-.4-1.6-.3-.4-.6-.7-1-.9-.4-.2-.9-.3-1.4-.4-.5-.1-1.1-.1-1.6-.1h-3.8l-.1 6zm18-10.8h5.7l.1 20.8 10.7-.1v5.3l-16.4.1zm19.4 0l17.8-.1v5.3l-12 .1v4.9l11.3-.1.1 5.3-11.4.1.1 5.3 12.6-.1.1 5.3-18.5.1zm22.7 0h8.6c2.1 0 4.1.2 6 .7 1.9.5 3.5 1.2 4.9 2.2 1.4 1 2.5 2.4 3.4 4.1.8 1.7 1.3 3.7 1.3 6.1 0 2.1-.4 4-1.2 5.6-.8 1.6-1.9 3-3.2 4.1-1.3 1.1-2.9 1.9-4.7 2.5-1.8.6-3.6.9-5.6.9l-9.4.1-.1-26.3zm5.8 20.8h3c1.3 0 2.6-.1 3.7-.4 1.1-.3 2.1-.7 3-1.4.8-.6 1.5-1.5 2-2.5s.7-2.3.7-3.7c0-1.3-.3-2.4-.7-3.3-.5-.9-1.1-1.7-1.9-2.3-.8-.6-1.8-1.1-2.9-1.4-1.1-.3-2.2-.5-3.5-.4h-3.4v15.4zm45.6 3.4c-1.7.9-3.5 1.5-5.3 1.9-1.8.4-3.7.6-5.6.6-2 0-3.9-.3-5.7-.9-1.7-.6-3.2-1.5-4.5-2.7-1.3-1.2-2.2-2.6-3-4.3-.7-1.7-1.1-3.6-1.1-5.7s.3-4 1-5.7c.7-1.7 1.7-3.1 2.9-4.3 1.2-1.2 2.7-2.1 4.5-2.8 1.7-.7 3.6-1 5.6-1 2.1 0 4 .2 5.8.7 1.8.5 3.3 1.4 4.6 2.6l-4 4.4c-.8-.8-1.7-1.4-2.7-1.8-1-.4-2.2-.6-3.7-.6-1.2 0-2.3.2-3.3.6-1 .4-1.8 1-2.6 1.8-.7.8-1.2 1.7-1.6 2.7-.4 1-.6 2.2-.6 3.4 0 1.2.2 2.4.6 3.4.4 1 .9 1.9 1.7 2.6.7.7 1.6 1.3 2.6 1.7 1 .4 2.1.6 3.3.6 1.3 0 2.3-.2 3.2-.4.9-.3 1.6-.6 2.2-.9v-4.2h-4.7v-5.3l10.2-.1.2 13.7zm4.8-24.2l17.7-.1v5.3l-11.9.1v4.9l11.3-.1V30l-11.3.1v5.3l12.7-.1v5.3l-18.4.1zm22.6 0l10.1-.1c1.3 0 2.6.1 3.8.4 1.2.3 2.2.7 3.1 1.3.9.6 1.6 1.4 2.2 2.4.5 1 .8 2.3.8 3.8 0 1.8-.5 3.4-1.4 4.7-1 1.3-2.4 2.1-4.2 2.5l6.7 11h-6.9l-5.5-10.4h-2.8l.1 10.4h-5.8l-.2-26zm5.8 10.8h3.4c.5 0 1.1 0 1.6-.1.6 0 1.1-.2 1.6-.3.5-.2.9-.5 1.2-.9.3-.4.5-.9.5-1.7 0-.7-.1-1.2-.4-1.6-.3-.4-.6-.7-1-.9-.4-.2-.9-.3-1.4-.4-.5-.1-1.1-.1-1.6-.1h-3.8l-.1 6z"/></g></svg>