<svg xmlns="http://www.w3.org/2000/svg" role="img" viewBox="-16.10 -16.10 1045.20 331.20"><title>Hyperledger Bevel logo</title><style>svg {enable-background:new 0 0 1015 300}</style><style>.st0{fill:#24272a}.st1{fill:#aa57a2}</style><path d="M367.477 68.217l27.034-.145.145 27.276 13.911-.067-.329-63.114-13.918.07.128 23.537-27.034.137-.128-23.529-13.914.075.332 63.111 13.918-.075zm74.804 27.308l13.912-.075-.138-26.918 23.536-36.314-16.505.08-14.058 23.698-13.507-23.553-17.308.092 23.928 36.067zm61.29822-.11292l-.12802-24.60489 10.17172-.05087c3.3307-.01896 6.41736-.3479 9.27466-.9911 2.85211-.63543 5.3081-1.69894 7.3894-3.19528 2.07148-1.50367 3.6958-3.50009 4.87531-5.997 1.17261-2.50942 1.75244-5.59823 1.7356-9.28713-.02411-3.74193-.67682-6.84798-1.9723-9.3061-1.2907-2.45596-3.0263-4.4041-5.19945-5.85689-2.18525-1.44073-4.73517-2.45122-7.65064-3.0289-2.91254-.58499-6.01123-.86262-9.27942-.84322l-23.46634.12071.33625 63.1105 13.91323-.06983zm6.8674-51.37776c1.30753-.01207 2.67795.0582 4.1066.19572 1.42871.1401 2.73145.4811 3.88465 1.001 1.16528.53155 2.11755 1.28338 2.87152 2.2624.7445.97644 1.11914 2.27189 1.13122 3.87212.00476 1.48643-.26599 2.71936-.82641 3.70097-.56086.98377-1.2959 1.75715-2.21454 2.33008-.9256.5682-1.9602.98377-3.11554 1.22044-1.16528.24443-2.36157.37247-3.61603.37506l-9.27508.04828-.08191-14.97244 7.13552-.03363zM591.389 95.309l-.066-12.83-30.601.154-.068-12.837 27.391-.145-.067-12.838-27.387.145-.065-11.762 28.994-.155-.067-12.837-42.908.224.328 63.111zm43.95817.00004l16.68347-.08708-16.2024-26.5724c4.46448-.8553 7.84602-2.84223 10.1399-5.9776 2.30377-3.13969 3.44702-6.93248 3.42505-11.39219-.02155-3.6764-.6764-6.74883-1.9723-9.21169-1.28808-2.45639-3.02367-4.41141-5.19683-5.85731-2.18787-1.4403-4.71625-2.4702-7.60455-3.07675-2.8789-.61172-5.93451-.9066-9.14191-.88978l-24.44275.1332.3216 63.11051 13.91796-.075-.13275-25.22827 6.87683-.0362 13.32868 25.16056zM615.086 58.4153l-.07501-14.34606 9.10095-.04613c1.24975-.01207 2.52576.07027 3.83374.24185 1.30536.17416 2.47491.50266 3.48797 1.00833 1.01264.50267 1.849 1.22518 2.50428 2.17274.6574.9428.99322 2.22144 1.0053 3.829.00477 1.72353-.35998 3.05778-1.0924 4.01266-.74194.95444-1.67267 1.66058-2.8017 2.11022-1.12646.45653-2.3883.72252-3.78503.82167-1.39502.09657-2.72455.15002-3.96912.15476l-8.20898.04096zm86.288 36.8017l-.072-12.837-25.785.135-.266-50.276-13.911.07.329 63.111zm54.492.051l-.065-12.831-30.601.155-.071-12.838 27.395-.145-.071-12.83-27.384.137-.065-11.762L753.996 45l-.068-12.838-42.908.224.331 63.111zm57.49075-8.10842c3.25354-2.65427 5.83966-5.93923 7.74945-9.84282 1.9145-3.89669 2.85468-8.40726 2.828-13.51964-.02417-5.76507-1.04889-10.65716-3.05993-14.69396-2.01844-4.0368-4.72571-7.29761-8.12921-9.8066-3.40094-2.50424-7.38684-4.3196-11.93885-5.42407-4.55365-1.10016-9.36645-1.64162-14.41845-1.6123l-20.87506.10863.3363 63.11094 22.7481-.12114c4.69422-.02155 9.18067-.7277 13.4615-2.1223 4.27343-1.38726 8.03735-3.41083 11.29815-6.07674zm-26.43231-4.62654l-7.2273.04096-.1983-37.44254 8.20636-.0457c2.91504-.01206 5.70209.34057 8.35162 1.0756 2.63965.72294 4.95978 1.82483 6.92731 3.30177 1.9701 1.47953 3.54364 3.35264 4.71149 5.63703 1.17212 2.28438 1.76922 4.97228 1.786 8.06152.01728 3.56776-.54876 6.58674-1.6942 9.05477-1.14588 2.47493-2.72925 4.47651-4.7425 5.997-2.01105 1.52737-4.39935 2.6202-7.16485 3.29702-2.75556.66476-5.7478 1.00533-8.95563 1.02257zm82.49267-24.5579l.0625 12.83766 11.32966-.0582.05566 10.25408c-1.30542.72252-3.0578 1.42822-5.2478 2.1223-2.1999.69363-4.81275 1.04627-7.84894 1.0635-2.9707.01208-5.67066-.47376-8.08313-1.47003-2.4098-1.00058-4.48859-2.39992-6.22418-4.20794-1.73297-1.79854-3.0625-3.9329-4.00055-6.3962-.93549-2.4581-1.40412-5.17058-1.42353-8.14817-.0172-2.90818.43024-5.61547 1.33643-8.11239.91394-2.50424 2.22144-4.66749 3.93292-6.49491 1.72351-1.8201 3.7807-3.23194 6.18323-4.2614 2.40509-1.02256 5.09296-1.54462 8.06622-1.5567 3.56781-.02198 6.54584.46904 8.92676 1.46488 2.38355.99799 4.53473 2.47493 6.44922 4.42823l9.75317-10.74941c-3.2246-2.95647-6.97345-5.03005-11.22796-6.22936-4.25666-1.1963-8.91681-1.7787-13.97144-1.74983-4.93823.02199-9.48498.81952-13.62787 2.39302-4.1648 1.56144-7.74981 3.7928-10.76403 6.69064-3.02375 2.90344-5.36371 6.40826-7.0437 10.51274-1.67011 4.1118-2.49695 8.68747-2.46802 13.73907.0293 5.05462.8971 9.62296 2.61328 13.7227 1.71838 4.08982 4.0993 7.56834 7.1549 10.43255 3.04792 2.86939 6.65442 5.05936 10.82404 6.58717 4.16956 1.52005 8.72626 2.26456 13.66449 2.243 4.63861-.02414 9.1828-.5199 13.64032-1.49892 4.4524-.9717 8.72845-2.54262 12.82086-4.7063l-.1742-32.98498-24.7083.1332zM948.79 93.809l-.07-12.831-30.595.162-.07-12.842 27.392-.146-.068-12.832-27.391.14-.061-11.762 28.989-.157-.063-12.831-42.907.225.331 63.11zm23.88572.11967l-.13281-25.22825 6.86957-.03621 13.336 25.15582 16.68347-.08708-16.19806-26.56767c4.46014-.86004 7.84167-2.84955 10.14288-5.9776 2.29645-3.13968 3.4397-6.93247 3.41772-11.39217-.02154-3.6764-.67681-6.75358-1.96496-9.2117-1.29584-2.46328-3.02411-4.41659-5.20422-5.85731-2.18305-1.4403-4.71357-2.47019-7.5998-3.07675-2.89093-.61905-5.9392-.9066-9.1466-.88978l-24.44275.12803.32849 63.10835 13.91107-.06768zm8.83014-51.39673c1.25708-.00517 2.52838.06984 3.84112.24875 1.30018.16942 2.47016.50266 3.48066 1.00833 1.01996.50266 1.85632 1.22519 2.5163 2.17274.6527.9428.98852 2.22144 1.0006 3.829.0047 1.72353-.35998 3.05778-1.09973 4.01266-.73974.95445-1.67267 1.66058-2.79657 2.10505-1.12903.4617-2.3908.72769-3.78326.82684-1.39935.09183-2.72412.15002-3.9687.15002l-8.20898.0457-.075-14.34606 9.09356-.05303z" class="st0"/><path d="M354.70688 271.92386V145.10362h56.47174c22.05597 0 35.55652 13.30944 35.55652 32.32245 0 15.9701-10.64874 26.61884-22.2471 29.09142 13.49753 2.09031 24.71664 15.97009 24.71664 31.18171 0 20.3449-13.50055 34.22466-36.69723 34.22466h-57.80057zm75.6759-92.21634c0-11.40721-7.6058-20.53601-21.86786-20.53601H370.4889v40.88087h38.02603c14.26206 0 21.86786-8.74653 21.86786-20.34486zm2.46955 56.2806c0-11.59833-7.98505-21.86785-23.38477-21.86785h-38.97867v43.7327h38.97867c14.64127 0 23.38477-8.36733 23.38477-21.86484zm40.09512 35.93574V145.10362h83.09057v14.06789h-67.30859v40.88087h65.9737v14.06789h-65.9737v43.7327h67.3086v14.07089h-83.09058zm146.98913 0L568.7862 145.10362h18.06342l42.78308 109.5183 42.77704-109.5183h18.06348l-50.95624 126.82024h-19.58039zm85.47516 0V145.10362h83.09064v14.06789h-67.3086v40.88087h65.9737v14.06789h-65.9737v43.7327h67.3086v14.07089h-83.09064zm104.67939 0V145.10362h15.78198v112.74935h58.94128v14.07089h-74.72326z" class="st1"/><path d="M37.662 4.684v239.703L277.365 4.684z" class="st1"/><path d="M244.01 55.612L4.307 295.315H244.01z" class="st0"/></svg>