<svg xmlns="http://www.w3.org/2000/svg" role="img" viewBox="-4.51 -6.51 338.52 105.77"><title>Hyperledger Grid logo</title><style>svg {enable-background:new 0 0 329.8 93.1}</style><style>.st0{fill:#24272a}.st1{fill:#f37321}</style><path d="M120.6 19.8h8.7l.1 8.8h4.4l-.1-20.4h-4.4v7.6l-8.7.1-.1-7.6H116l.2 20.4 4.4-.1zm24.1 8.9l4.5-.1v-8.7l7.6-11.7-5.4.1-4.5 7.6-4.4-7.6H137l7.7 11.7zm19.8-.1v-7.9h3.3c1.1 0 2.1-.1 3-.3.9-.2 1.7-.5 2.4-1s1.2-1.1 1.6-1.9c.4-.8.6-1.8.6-3s-.2-2.2-.6-3c-.4-.8-1-1.4-1.7-1.9s-1.5-.8-2.5-1c-.9-.2-1.9-.3-3-.3H160l.1 20.4 4.4-.1zm2.2-16.6c.4 0 .9 0 1.3.1s.9.2 1.3.3c.4.2.7.4.9.7.2.3.4.7.4 1.2s-.1.9-.3 1.2c-.2.3-.4.6-.7.7-.3.2-.6.3-1 .4-.4.1-.8.1-1.2.1h-3v-4.8l2.3.1zm26.1 16.6v-4.2l-9.9.1v-4.1l8.8-.1v-4.1h-8.8v-3.8h9.3V8.2l-13.8.1.1 20.4zm14.2 0h5.4l-5.2-8.6c1.4-.3 2.5-.9 3.3-1.9.7-1 1.1-2.2 1.1-3.7 0-1.2-.2-2.2-.6-3-.4-.8-1-1.4-1.7-1.9s-1.5-.8-2.5-1c-.9-.2-1.9-.3-2.9-.3H196l.1 20.4h4.5v-8.1h2.2l4.2 8.1zm-6.5-11.9v-4.6h2.9c.4 0 .8 0 1.2.1s.8.2 1.1.3c.3.2.6.4.8.7.2.3.3.7.3 1.2 0 .6-.1 1-.4 1.3-.2.3-.5.5-.9.7l-1.2.3h-3.8zm27.8 11.9v-4.2l-8.3.1-.1-16.3-4.5.1.1 20.3zm17.6 0v-4.2l-9.9.1v-4.2h8.8v-4.1h-8.9v-3.8h9.4V8.2l-13.9.1.1 20.3zm18.5-2.6c1-.9 1.9-1.9 2.5-3.2.6-1.3.9-2.7.9-4.4 0-1.9-.3-3.4-1-4.7s-1.5-2.4-2.6-3.2c-1.1-.8-2.4-1.4-3.9-1.7-1.5-.4-3-.5-4.7-.5h-6.7l.1 20.4h7.3c1.5 0 3-.2 4.3-.7 1.6-.5 2.8-1.2 3.8-2zm-8.5-1.5h-2.3l-.1-12.1h2.6c.9 0 1.8.1 2.7.3.8.2 1.6.6 2.2 1.1.6.5 1.1 1.1 1.5 1.8s.6 1.6.6 2.6c0 1.1-.2 2.1-.5 2.9-.4.8-.9 1.4-1.5 1.9s-1.4.8-2.3 1.1c-.9.2-1.9.4-2.9.4zm26.6-8v4.1h3.7v3.3c-.4.2-1 .5-1.7.7-.7.2-1.6.3-2.5.3-1 0-1.8-.2-2.6-.5s-1.4-.8-2-1.4c-.6-.6-1-1.3-1.3-2.1-.3-.8-.5-1.7-.5-2.6 0-.9.1-1.8.4-2.6.3-.8.7-1.5 1.3-2.1.6-.6 1.2-1 2-1.4.8-.3 1.6-.5 2.6-.5 1.1 0 2.1.1 2.9.5.8.3 1.5.8 2.1 1.4l3.1-3.5c-1-1-2.2-1.6-3.6-2-1.4-.4-2.9-.6-4.5-.6s-3.1.3-4.4.8c-1.3.5-2.5 1.2-3.5 2.2-1 .9-1.7 2.1-2.3 3.4-.5 1.3-.8 2.8-.8 4.4 0 1.6.3 3.1.8 4.4.6 1.3 1.3 2.4 2.3 3.4 1 .9 2.1 1.6 3.5 2.1 1.3.5 2.8.7 4.4.7 1.5 0 3-.2 4.4-.5 1.4-.3 2.8-.8 4.1-1.5l-.1-10.6-7.8.2zm25.6 11.6V24h-9.9v-4.1l8.8-.1v-4.1h-8.8v-3.8h9.3V7.7l-13.8.1.1 20.4zm7.7 0V20h2.2l4.3 8.1h5.4l-5.2-8.6c1.4-.3 2.5-.9 3.3-1.9.7-1 1.1-2.2 1.1-3.7 0-1.2-.2-2.2-.6-3-.4-.8-1-1.4-1.7-1.9s-1.5-.8-2.5-1c-.9-.2-1.9-.3-3-.3h-7.9l.1 20.4h4.5zm2.9-16.5c.4 0 .8 0 1.2.1s.8.2 1.1.3c.3.2.6.4.8.7s.3.7.3 1.2c0 .6-.1 1-.4 1.3-.2.3-.5.5-.9.7l-1.2.3H315.7v-4.6h3z" class="st0"/><path d="M114.3 65c0-12.8 9.4-21.3 21.2-21.3 7.3 0 12.4 3.2 16 7.6l-4.1 2.6c-2.6-3.3-7-5.7-11.9-5.7-9 0-15.8 6.8-15.8 16.7 0 9.7 6.8 16.7 15.8 16.7 4.9 0 9-2.3 11.1-4.4V69h-14.2v-4.6h19.2v14.8c-3.8 4.3-9.4 7.2-16.2 7.2-11.7 0-21.1-8.6-21.1-21.4zm69.4 20.6l-10.4-16.3H165v16.3h-5.1V44.4h16.5c7.5 0 13 4.8 13 12.4 0 7.4-5.1 11.5-10.7 12l11.1 16.8h-6.1zm.4-28.8c0-4.7-3.4-7.8-8.3-7.8H165v15.7h10.8c4.9 0 8.3-3.3 8.3-7.9zm13.4 28.8V44.4h5.1v41.1h-5.1zm14.7 0V44.4h14.1c12.8 0 21.1 8.9 21.1 20.6 0 11.7-8.3 20.5-21.1 20.5h-14.1zM242.1 65c0-8.9-5.6-16-15.8-16h-8.9v32h8.9c10 0 15.8-7.2 15.8-16z" class="st1"/><path d="M50.9 10.9h14.2v14.7H50.9zm19.2 0H84v14.7H70.1zM12.7 30.6h14.4v13.8H12.7zm38.2 0h14.2v13.8H50.9zm-18.8 38h13.8v13.6H32.1zm0-57.7h13.8v14.7H32.1zm38 19.7H84v13.8H70.1zm-38 0h13.8v13.8H32.1zm0 18.8h13.8v14.2H32.1z" class="st0"/><path d="M50.9 49.4h14.2v14.2H50.9zM12.7 10.9h14.4v14.7H12.7z" class="st1"/><path d="M12.7 68.6h14.4v13.6H12.7zm0-19.2h14.4v14.2H12.7z" class="st0"/><path d="M89.7 5.2v82.7H7V5.2h82.7m5-5H2v92.7h92.7V.2z" class="st1"/></svg>