<svg xmlns="http://www.w3.org/2000/svg" role="img" viewBox="-11.07 -11.07 575.64 185.14"><title>Hyperledger Indy logo</title><path fill="#20518d" d="M105.51456 151.4855L85.5708 163.08l-19.94323-11.5945v-23.19103l19.94323-11.59504 19.94377 11.59504v23.19103M58.35067 20.87556L46.38324 27.8327l-11.96743-6.95715V6.9599L46.38324.00141l11.96743 6.9585v13.91565m101.7 63.92253l-7.8358 4.55562-7.83581-4.55562v-9.1107l7.8358-4.55562 7.8358 4.55561v9.11071m-31.4788 65.24734l-10.12269 5.88683-10.12321-5.88683v-11.77001l10.12321-5.88479 10.12268 5.88479v11.77001m-22.5625-49.49667l-45.06034 26.19881-45.0598-26.1988v-52.3951L60.949 21.95553l45.06034 26.19814v52.3951m61.13447 28.64408l-23.65007 13.74912-23.65035-13.74912v-27.50092l23.65035-13.74965 23.65007 13.74965v27.50092m-1.52663-57.50123l-4.34522 2.52607-4.34523-2.52607v-5.05294l4.34523-2.52594 4.34522 2.52594v5.05294M31.53668 131.15106L15.7684 140.3191 0 131.15106v-18.3354l15.7684-9.16804 15.76828 9.16804v18.3354m.89224-110.97282l-5.86972 3.41325-5.87012-3.41325v-6.82516l5.87012-3.41325 5.86972 3.41325v6.82516m139.0028 49.2405l-2.12529 1.2349-2.12394-1.2349V66.948l2.12394-1.2349 2.12528 1.2349v2.47074M22.94263 25.52211l-2.12382 1.23596-2.12554-1.23596v-2.46928l2.12554-1.23597 2.12382 1.23597v2.46928m88.24939 17.3281l-5.18587 3.01499-5.18414-3.015v-6.02904l5.18414-3.01393 5.18587 3.01393v6.02905m21.08587 3.5015l-9.52523 5.5384-9.5243-5.5384V35.2764l9.5243-5.5384 9.52523 5.5384v11.07532M63.46721 151.14437l-2.92232 1.69995-2.9234-1.69995v-3.39892l2.9234-1.69996 2.92232 1.69996v3.39892"/><path fill="#888c8d" d="M204.30023 77.38788h9.49576v70.02318h-9.49576V77.38788m27.49664-.00054h12.46236l38.57103 57.56163h.19733V77.38734h9.49576v70.02372h-12.0677L241.48997 89.8501h-.19866v57.56096h-9.49443V77.38734m86.63917 61.12247h11.96903c16.02227 0 29.66993-8.80298 29.66993-26.10974 0-8.90191-4.64655-26.11295-27.39532-26.11295h-14.24364zm-9.49443-61.12247H333.373c29.56993 0 36.79108 22.05465 36.79108 35.01273 0 17.90048-13.35167 35.01099-38.37504 35.01099H308.9416V77.38734m91.38971 40.15473l-26.506-40.15526h12.16503l19.08886 30.75963 19.68217-30.75963h11.57038l-26.506 40.15526v29.86899h-9.49444v-29.86899"/><path fill="#2b2b2f" d="M203.37492 19.51426l7.67447-.04134.07067 12.97861 14.91162-.07613-.07066-12.98247 7.67714-.03867.18133 34.81286-7.67314.03694-.08-15.04496-14.91163.08026.08 15.04496-7.67714.04107-.18266-34.81113m45.52552 19.9371l-13.19833-19.89444 9.54643-.05066 7.45048 12.99207 7.75447-13.07207 9.10377-.04267-12.98234 20.02924.076 14.8475-7.67314.04172-.07734-14.8507m30.48058-5.2728l5.11453-.02653c.69199-.00106 1.35197-.07146 1.99462-.20626.63732-.1308 1.20797-.35986 1.71862-.67398.50666-.3156.91198-.74212 1.2213-1.2849.30933-.54106.45866-1.2213.456-2.04102-.00534-.8825-.21333-1.5985-.62399-2.13581-.41599-.54132-.9413-.95464-1.58396-1.24797-.63598-.288-1.35463-.47466-2.14261-.55199-.78798-.07733-1.54263-.11466-2.26528-.108l-3.9359.01867zm-7.75848-14.70963l12.94368-.06666c1.80262-.01067 3.51191.14266 5.11854.46399 1.60796.31999 3.01459.8773 4.2199 1.67196 1.19863.8013 2.15594 1.87595 2.86792 3.23058.71465 1.35463 1.07464 3.06926 1.08797 5.1328.00934 2.03436-.31066 3.73898-.9573 5.12281-.65066 1.37703-1.54663 2.47847-2.68794 3.30765-1.1493.82505-2.50394 1.41143-4.07723 1.7625-1.57596.35465-3.27859.53584-5.11587.54678l-5.61053.02813.07067 13.57113-7.67448.03906-.18533-34.81073m30.80723.02667l23.66741-.124.03733 7.08116-15.99293.08533.03467 6.48784 15.10628-.08013.03867 7.08102-15.10896.08026.03734 7.08103 16.87957-.08547.03467 7.07743-24.55405.12666-.18-34.81113m37.96305 14.33817l4.52789-.02293c.68665-.00266 1.41996-.03173 2.18928-.08546.77065-.05467 1.46663-.20093 2.08795-.45306.62398-.24786 1.13597-.63692 1.5453-1.1641.40531-.52652.6053-1.26184.60264-2.21341-.00666-.88611-.19066-1.59143-.55465-2.11142-.36-.52265-.82265-.9213-1.3813-1.19863-.55865-.27866-1.20264-.46-1.92262-.55599-.72131-.09466-1.42663-.14-2.11461-.13333l-5.0212.02533zm-7.75047-14.36217l13.48233-.07333c1.76929-.00933 3.45458.15333 5.04254.49065 1.59463.33466 2.98926.90265 4.19456 1.6973 1.19864.7973 2.15595 1.87595 2.8666 3.23058.71465 1.35863 1.07597 3.05326 1.0893 5.08054.01067 2.46047-.61998 4.55202-1.88928 6.28478-1.26664 1.72862-3.13192 2.82446-5.59453 3.29685l8.93711 14.65683-9.20244.04853-7.35181-13.87885-3.7919.02027.072 13.91578-7.67582.04067-.17866-34.8106m31.68587-.01733l7.67315-.03867.148 27.7309 14.2223-.07506.03867 7.08156-21.90079.112-.18133-34.81073m25.93136.04133l23.6674-.124.03734 7.08116-15.9916.08533.03466 6.48784 15.10496-.07653.04 7.07742-15.1103.08026.03867 7.08103 16.87958-.08547.03467 7.07743-24.55405.12666-.18133-34.81113m38.03371 27.66277l3.98657-.0228c1.76929-.00946 3.41991-.19746 4.93988-.56411 1.5253-.37293 2.8426-.97545 3.9519-1.81823 1.11064-.83904 1.98395-1.94261 2.61593-3.30818.63199-1.3609.94398-3.02592.93464-4.99414-.00933-1.70462-.33865-3.18699-.9853-4.44682-.64399-1.26037-1.51197-2.29275-2.5986-3.10873-1.08531-.81597-2.36528-1.42263-3.82124-1.82128-1.4613-.40666-2.9986-.59999-4.60522-.59332l-4.52789.02533zm-7.8238-27.69344l11.51438-.06c2.7866-.016 5.4412.284 7.95313.89065 2.5106.60932 4.70922 1.6093 6.58517 2.99192 1.87729 1.38397 3.37058 3.18126 4.48389 5.4092 1.1093 2.22621 1.67462 4.92455 1.68796 8.1042.016 2.8202-.504 5.30813-1.55997 7.45755-1.0533 2.15314-2.4786 3.9651-4.27456 5.42906-1.79862 1.47076-3.87456 2.58647-6.23184 3.35205-2.36127.76972-4.83588 1.15877-7.42515 1.17077l-12.54635.06613-.18666-34.81153m68.57162 32.24333c-2.25861 1.1933-4.61589 2.05995-7.07183 2.59634-2.45993.53958-4.96654.81304-7.52514.82598-2.72393.01253-5.23587-.3984-7.53581-1.2369-2.30128-.84212-4.29056-2.05049-5.97185-3.63325-1.68396-1.58023-2.9986-3.49885-3.94657-5.75452-.94531-2.26195-1.4253-4.78122-1.4413-7.56968-.01467-2.78633.43999-5.31027 1.36263-7.57821.92531-2.26394 2.21728-4.19723 3.88524-5.79852 1.66262-1.59863 3.63858-2.82926 5.93585-3.69058 2.28661-.86797 4.79455-1.30796 7.51848-1.31996 2.78793-.016 5.3572.30532 7.70514.9653 2.34794.66132 4.41589 1.8053 6.19451 3.43592l-5.3812 5.92919c-1.05597-1.07731-2.24127-1.89196-3.55724-2.44261-1.3133-.54799-2.9546-.81998-4.92388-.80798-1.63862.00667-3.12259.29466-4.44922.85864-1.32397.568-2.45994 1.34664-3.40925 2.35061-.94397 1.00838-1.66529 2.20155-2.16928 3.58271-.49998 1.37704-.74664 2.87073-.73731 4.47496.01066 1.64209.26932 3.13845.78531 4.49469.51599 1.35823 1.2493 2.53527 2.20661 3.5275.95731.99732 2.10262 1.76916 3.43192 2.32128 1.33063.54892 2.81993.81772 4.45989.81092 1.67462-.00987 3.11592-.20413 4.32922-.58692 1.20664-.3824 2.17461-.77198 2.8946-1.1709l-.032-5.6556-6.24785.0324-.03466-7.08169 13.62766-.07346.09733 18.19434m6.37584-32.21133l23.6674-.124.03467 7.07716-15.99027.08667.032 6.4877 15.10896-.0776.03867 7.0789-15.10896.07972.03867 7.08423 16.87557-.0896.03867 7.07742-24.55405.13013-.18133-34.81073m37.96038 14.33898l4.52789-.0256c.68798 0 1.4173-.03173 2.19061-.0828.76798-.05466 1.46263-.20106 2.08528-.45572.62132-.24533 1.13597-.63492 1.54263-1.16144.40932-.52652.60932-1.2625.60665-2.21341-.00667-.88691-.19066-1.59223-.55198-2.11221-.36266-.52132-.82532-.92131-1.38797-1.19864-.55732-.27866-1.2013-.46266-1.91862-.55599-.72398-.09733-1.42663-.14-2.11861-.13733l-5.01721.02934zm-7.75047-14.36564l13.48233-.07067c1.76929-.00933 3.45058.15067 5.0452.49066 1.5933.33465 2.98926.90264 4.1919 1.69729 1.20264.79598 2.15595 1.87195 2.8706 3.23192.71198 1.35463 1.07197 3.05192 1.0853 5.08.012 2.46034-.61998 4.55202-1.88528 6.28425-1.2693 1.72542-3.13593 2.82233-5.59586 3.29671l8.93577 14.65497-9.20377.04787-7.35448-13.87566-3.78924.01974.07333 13.91578-7.67314.03747-.18266-34.81033"/></svg>