<svg xmlns="http://www.w3.org/2000/svg" role="img" viewBox="-13.68 -17.68 1023.36 334.36"><title>Hyperledger Solang logo</title><defs><style>.cls-1{fill:none}.cls-2{fill:#80c88e}.cls-3{fill:#24282a}.cls-4{fill:#2775bb}</style></defs><path d="M679.119 226.349h48.61l-24.39-61.837-24.22 61.837zm71.17574-162.8359c-1.77735-1.33422-3.8733-2.32964-6.25781-2.98278-2.39356-.664-4.91162-.98254-7.54493-.97168l-7.41357.04132.1792 33.8252 6.52905-.037c2.89795-.01562 5.60108-.32323 8.09033-.92376 2.4983-.61145 4.65601-1.5987 6.47266-2.97851 1.81885-1.3736 3.24927-3.18183 4.28442-5.41767 1.03467-2.22955 1.54615-4.9569 1.53052-8.18-.01514-2.79076-.55444-5.21898-1.61352-7.28264-1.05494-2.06373-2.47657-3.75586-4.25635-5.09247zm-158.74365 7.91053c1.26172-.0896 2.40185-.3299 3.41943-.74231 1.02002-.40619 1.86084-1.04413 2.531-1.90637.66163-.86261.99097-2.06793.98682-3.625-.01098-1.45221-.3142-2.60736-.9082-3.45905-.59204-.85602-1.34741-1.50873-2.2622-1.96283-.9153-.45684-1.97193-.7536-3.15113-.91095-1.18164-.15496-2.33447-.22937-3.46338-.21844l-8.22168.04162.06787 12.96015 7.41577-.03705c1.12427-.00427 2.32544-.05255 3.5857-.13977zm-97.0171 89.30902c-25.76293 0-42.0813 19.75519-42.0813 46.55133 0 26.62348 16.31837 46.54865 42.0813 46.54865 25.59278 0 42.25391-19.92517 42.25391-46.54865 0-26.79614-16.66113-46.55133-42.2539-46.55133zm416.3042-90.5144c1.12427 0 2.32105-.05255 3.58521-.1355 1.25806-.0896 2.39795-.3299 3.41797-.74695 1.01514-.40155 1.85791-1.03949 2.52612-1.90173.66846-.86261.99805-2.06794.99366-3.62494-.011-1.45227-.31446-2.60736-.90381-3.4591-.59644-.85603-1.35205-1.50874-2.27344-1.96284-.91284-.45685-1.96973-.75787-3.14429-.91095-1.18579-.16162-2.33423-.22937-3.46997-.22467l-8.21509.04791.06763 12.96009 7.41602-.04132zm-422.812 1.90326c1.1333-.00232 2.2141-.11799 3.2666-.33881 1.04394-.2138 1.97851-.58923 2.8147-1.10254.82983-.51758 1.49389-1.21625 2.00048-2.10498.50635-.88678.75098-2.00061.74658-3.34344-.01098-1.44562-.34936-2.61591-1.02173-3.498-.68115-.88445-1.5415-1.56365-2.59423-2.04381-1.04175-.46973-2.21875-.77777-3.50928-.90436-1.29077-.1242-2.5288-.18768-3.70996-.17676l-6.4463.03033.07423 13.526 8.3789-.04363z" class="cls-1"/><path d="M356.993 105.096l-.131-24.641 24.422-.131.131 24.641 12.567-.061-.297-57.016-12.573.064.116 21.262-24.423.124-.115-21.256-12.57.068.299 57.014 12.574-.068zm101.152-57.162l-14.911.072-12.7 21.409-12.202-21.278-15.635.083 21.616 32.583.127 24.322 12.567-.068-.125-24.317 21.263-32.806zm21.6705 57.08893l-.11573-22.22778 9.18896-.04596c3.00904-.01715 5.79737-.31427 8.37866-.89538 2.57667-.57404 4.79542-1.5348 6.67554-2.8866 1.87134-1.3584 3.33887-3.16193 4.4043-5.4176 1.05933-2.26697 1.58325-5.05738 1.56787-8.3899-.02173-3.38043-.61133-6.1864-1.78174-8.40704-1.16601-2.21869-2.73388-3.97864-4.69702-5.29108-1.97412-1.30151-4.27783-2.21435-6.91162-2.73626-2.6311-.52845-5.43042-.77924-8.38281-.76172l-21.19922.109.3037 57.01343 12.5691-.0631zm6.20385-46.41412c1.18115-.01092 2.41919.05255 3.70996.17676 1.29053.12659 2.46753.43463 3.50928.90436 1.05273.48016 1.91308 1.15936 2.59423 2.04382.67237.88208 1.01075 2.05237 1.02173 3.49799.0044 1.34283-.24023 2.45666-.74658 3.34344-.5066.88873-1.17065 1.5874-2.00049 2.10498-.83618.5133-1.77075.88873-2.8147 1.10254-1.05248.22082-2.1333.33649-3.2666.3388l-8.3789.04365-.07422-13.526 6.44629-.03034zM531.437 93.479l-.061-11.597 24.745-.131-.061-11.598-24.741.131-.058-10.626 26.193-.139-.062-11.598-38.762.203.297 57.014 40.214-.208-.058-11.591-27.646.14zm49.16291-11.24623l6.2124-.03271 12.04102 22.7298 15.07154-.07868-14.63697-24.00525c4.0332-.77264 7.0879-2.56762 9.16016-5.40008 2.0813-2.83637 3.11426-6.26276 3.09424-10.29157-.01953-3.32123-.61109-6.09686-1.78174-8.32178-1.16358-2.21905-2.73145-3.98522-4.69483-5.29144-1.97656-1.30115-4.2605-2.23157-6.86987-2.77948-2.60083-.55261-5.36108-.81903-8.25854-.80383l-22.08155.12036.29053 57.01337 12.57349-.06775-.11988-22.79096zm-.11816-23.59247l8.22168-.04162c1.1289-.01093 2.28174.06348 3.46338.21844 1.1792.15735 2.23584.4541 3.15112.91095.9148.4541 1.67017 1.10681 2.2622 1.96283.594.85169.89723 2.00684.90821 3.45905.00415 1.55707-.3252 2.76239-.98681 3.625-.67017.86224-1.51099 1.50018-2.53101 1.90637-1.01758.41241-2.15771.65271-3.41943.74231-1.26026.08722-2.46143.1355-3.5857.13977l-7.41577.03705-.06787-12.96015zM658.501 104.847l-.065-11.598-23.294.122-.24-45.418-12.567.064.297 57.013 35.869-.183zm49.228.046l-.059-11.591-27.645.14-.064-11.598 24.748-.131-.063-11.591-24.739.124-.059-10.625 26.191-.14-.061-11.598-38.762.203.299 57.014 40.214-.207zm51.38361-50.56428c-3.07227-2.26227-6.6731-3.90228-10.78516-4.90002-4.11377-.9939-8.46167-1.48304-13.02563-1.45655l-18.85816.09815.30372 57.0138 20.55029-.10944c4.24072-.01948 8.2937-.65741 12.16113-1.91724 3.86035-1.2533 7.26074-3.08136 10.20654-5.48969 2.93921-2.39782 5.2754-5.36547 7.00074-8.8919 1.72949-3.52027 2.57885-7.59503 2.55493-12.2135-.02197-5.20813-.94776-9.62763-2.7644-13.27442-1.8235-3.64679-4.2693-6.59259-7.344-8.85919zm-4.47852 29.7395c-1.03515 2.23584-2.46557 4.04407-4.28442 5.41767-1.81665 1.37982-3.97436 2.36706-6.47266 2.97851-2.48925.60053-5.19238.90814-8.09033.92377l-6.52905.03699-.1792-33.8252 7.41357-.04132c2.6333-.01086 5.15137.30768 7.54493.97168 2.38452.65314 4.48047 1.64856 6.2578 2.98279 1.7798 1.3366 3.20143 3.02875 4.25636 5.09247 1.05908 2.06366 1.59839 4.49188 1.61352 7.28265.01563 3.22308-.49585 5.95044-1.53052 8.18zm32.12696 14.44116c2.75317 2.59223 6.01147 4.57062 9.77807 5.95081 3.76685 1.37317 7.8833 2.04578 12.34449 2.0263 4.19043-.02178 8.29565-.46966 12.3225-1.35412 4.02222-.8778 7.88526-2.29694 11.58228-4.25159l-.15747-29.79834-22.32129.12036.05664 11.59742 10.2351-.05262.0503 9.26343c-1.17944.65277-2.76245 1.29029-4.74096 1.9173-1.9873.62659-4.34766.94519-7.09058.96075-2.68384.01093-5.1228-.42797-7.30225-1.328-2.177-.90393-4.05493-2.16809-5.6228-3.80145-1.56567-1.62476-2.7666-3.55292-3.61401-5.77826-.84522-2.22058-1.26856-4.67102-1.28614-7.36096-.01562-2.6272.38868-5.07294 1.20728-7.32862.82568-2.26233 2.00684-4.21661 3.55298-5.86749 1.55713-1.64422 3.41553-2.91968 5.58594-3.84967 2.17285-.92377 4.60107-1.39538 7.28686-1.40631 3.22315-.01984 5.91333.4237 8.06445 1.32336 2.15308.90155 4.09644 2.23584 5.82618 4.00043l8.81079-9.71094c-2.91309-2.67083-6.2998-4.54406-10.14307-5.62756-3.84546-1.08069-8.05542-1.60681-12.62183-1.58075-4.46118.01984-8.5686.74036-12.31128 2.16187-3.76245 1.41058-7.00097 3.42633-9.72412 6.04419-2.73144 2.62298-4.84546 5.78918-6.36328 9.49713-1.50854 3.7146-2.25561 7.8482-2.22949 12.41174.02637 4.56628.81055 8.6933 2.36084 12.39697 1.55225 3.6947 3.70337 6.83716 6.46387 9.42462zM854.312 92.13l-.063-11.602 24.745-.131-.061-11.593-24.745.127-.055-10.626 26.189-.142-.057-11.591-38.762.203.299 57.013 40.212-.213-.063-11.592-27.639.147zm49.28059 11.55285l-.12012-22.79096 6.20606-.03271 12.04736 22.72552 15.07178-.07867-14.63306-24.00098c4.02905-.77692 7.08399-2.57422 9.16284-5.40008 2.07471-2.83637 3.10743-6.26276 3.08765-10.29157-.01953-3.32123-.61157-6.10113-1.77515-8.32178-1.17065-2.22528-2.73193-3.98987-4.70141-5.29144-1.97217-1.30115-4.2583-2.2315-6.86548-2.77948-2.61182-.55926-5.36548-.81903-8.26318-.80383l-22.0813.11566.29687 57.01147 12.56714-.06115zm7.97705-46.43128c1.13574-.0047 2.28418.06305 3.46997.22467 1.17456.15308 2.23145.4541 3.14429.91095.92139.4541 1.677 1.10681 2.27344 1.96283.58935.85175.89282 2.00684.9038 3.4591.0044 1.55701-.32519 2.76234-.99365 3.62495-.66821.86224-1.51098 1.50018-2.52612 1.90173-1.02002.41705-2.15991.65735-3.41797.74695-1.26416.08295-2.46094.1355-3.5852.1355l-7.41602.04132-.06763-12.96009 8.2151-.0479z" class="cls-3"/><path d="M356.8338 179.11198c0-10.82037 9.96265-18.20666 23.53198-18.20666 12.53882 0 24.5625 4.12207 33.1521 13.742l8.58667-10.47778c-9.61743-10.13525-23.18676-16.14569-40.5354-16.14569-22.67431 0-39.50781 13.05414-39.50781 31.94873 0 40.8808 67.84961 24.38977 67.84961 53.93488 0 8.93206-6.52832 19.92517-26.96875 19.92517-16.14575 0-28.51196-7.90155-35.8982-16.49103l-8.58935 10.9931c9.44727 10.65053 24.21973 18.20674 43.97217 18.20674 30.91821 0 42.2566-17.1762 42.2566-33.66443 0-42.7719-67.84962-27.99939-67.84962-53.76501v-.00002zm137.7002-31.08813c-33.83716 0-56.854 25.42029-56.854 59.26013 0 33.8371 23.01684 59.25746 56.854 59.25746 33.83984 0 57.02636-25.42035 57.02636-59.25744 0-33.83985-23.18652-59.26014-57.02636-59.26014v-.00001zm0 105.80878c-25.76294 0-42.0813-19.92517-42.0813-46.54865 0-26.79614 16.31836-46.55133 42.0813-46.55133 25.59277 0 42.2539 19.75519 42.2539 46.55133 0 26.62348-16.66113 46.54865-42.2539 46.54865zm90.74-103.92063h-14.257V264.48h67.504v-12.708h-53.247v-101.86zm109.3059.00022L648.37383 264.4804h16.31836l10.13525-25.59302h57.02637l10.13257 25.59302h16.31836L712.2713 149.91223h-17.6914v-.00001zm-15.46045 76.43634l24.21997-61.83643 24.38989 61.83643h-48.60986zM852.356 239.403l-65.959-89.491h-14.602V264.48h14.257v-91.378l66.819 91.378h13.739V149.912h-14.254v89.491zm84.8091-33.83746v12.71154h39.50757v23.18659c-5.84033 5.84051-17.17896 12.36896-30.91821 12.36896-25.07764 0-44.14502-19.40992-44.14502-46.54865 0-27.48407 19.06738-46.55133 44.14502-46.55133 13.73925 0 25.93554 6.52844 33.14917 15.80304l11.33837-7.21356c-9.9624-12.36621-24.04711-21.29828-44.48754-21.29828-32.63648 0-58.91748 23.53192-58.91748 59.26013 0 35.55554 26.281 59.43007 58.91748 59.43007 18.72192 0 34.35229-7.90149 45.00293-19.9251v-41.2234H937.1651v-.00001z" class="cls-4"/><path d="M156.51497 77.42393c-6.9751 0-12.64966 5.67469-12.64966 12.64954 0 6.9748 5.67456 12.64948 12.64966 12.64948s12.64941-5.67469 12.64941-12.64948c0-6.97485-5.67431-12.64954-12.64941-12.64954zm0 21.22974c-4.73877 0-8.58032-3.8415-8.58032-8.5802 0-3.30225 1.88623-6.1355 4.62133-7.57025-.08007.31927-.1355.6482-.1355.99176 0 2.25769 1.83692 4.094 4.094 4.094 2.25684 0 4.094-1.83631 4.094-4.094 0-.34393-.05543-.6728-.13575-.99213 2.73511 1.43445 4.62232 4.2677 4.62232 7.57062 0 4.73871-3.84156 8.5802-8.58008 8.5802z" class="cls-1"/><path d="M95.89485 245.34972c-5.5708-3.94287-10.77661-8.24274-15.61633-12.84375-2.72669-2.5921-5.31873-5.29102-7.8059-8.06842C34.0721 181.56358 24.44123 117.65038 53.1689 63.95805c4.6798-8.74572 10.15857-16.78772 16.28332-24.10376C50.8387 52.2976 34.91634 69.34972 23.61555 90.4705-5.47087 144.83226 4.75045 209.68211 44.3558 252.55443c2.52795 2.73694 5.18884 5.37117 7.95386 7.92036 7.46777 6.88373 15.76757 13.06989 24.89477 18.35712l18.69043-33.48218v-.00001z" class="cls-4"/><path d="M183.6761 49.43285l-23.79248-32.91657-6.24853-8.64392c-.27735 2.29364-.47876 5.1341-.41993 8.2342.24756 13.086 5.32325 30.92126 30.46094 33.32629z" class="cls-2"/><path d="M206.61995 46.99596l7.84936-14.06165-8.07739-4.16522-51.7461-26.68518 10.8733 15.04321 9.11645 12.61218 14.44898 19.99024h-.00025l-3.78564 1.94793L69.63728 111.1898h101.1482l35.83447-64.19384zm-50.10498 55.72699c-6.9751 0-12.64966-5.67469-12.64966-12.64948 0-6.97485 5.67456-12.64954 12.64966-12.64954s12.64941 5.67469 12.64941 12.64954c0 6.9748-5.67431 12.64948-12.64941 12.64948z" class="cls-4"/><path d="M160.47273 82.50285c.08032.31934.13574.6482.13574.99213 0 2.25769-1.83715 4.094-4.09399 4.094-2.25708 0-4.094-1.83631-4.094-4.094 0-.34357.05543-.67249.1355-.99176-2.7351 1.43475-4.62133 4.268-4.62133 7.57025 0 4.73871 3.84155 8.5802 8.58032 8.5802 4.73852 0 8.58008-3.84149 8.58008-8.5802 0-3.30292-1.88721-6.13617-4.62232-7.57062z" class="cls-3"/><path d="M242.32137 128.41118c-3.37867-11.16437-8.67652-21.50208-15.52662-30.61536l-26.74707 20.96045c4.14112 5.63904 7.39502 11.96704 9.54273 18.78394l32.73096-9.12903zM107.81599 251.58867c-2.84985-1.2121-5.62963-2.55713-8.34155-4.01245l-.08056.14422-18.53602 33.20534c.18091.09973.35425.20728.5365.30457 2.43103 1.30084 4.88819 2.50232 7.35816 3.6469.7777.36005 1.56225.6883 2.34326 1.03364 1.7229.7605 3.4519 1.49365 5.19043 2.18024.89233.35284 1.78686.69238 2.6831 1.02502 1.70826.63483 3.42383 1.22955 5.1443 1.79382.84423.2768 1.687.56421 2.53393.82428 2.10815.64746 4.22485 1.23743 6.34692 1.78144.3623.09253.72217.20385 1.08447.29364.07325.01812.146.04144.21924.05926.18775.04627.3772.07605.56543.12195 2.198.531 4.40283 1.0014 6.61133 1.42316.17114.03283.3418.0788.51343.11096.52173.09729 1.04468.16925 1.56665.26074.20141.03528.40356.0661.60547.1007 1.56787.26826 3.13818.50257 4.70923.71638l4.59692-37.89887c-8.96948-1.26898-17.57568-3.68011-25.65064-7.11493v-.00001zm30.33277 3.45434c3.219.3186 6.4812.48816 9.78271.48816 8.44116 0 16.63599-1.06958 24.4607-3.07403l-9.13526-32.75421c-4.91577 1.20044-10.04516 1.85138-15.32544 1.85138-1.91821 0-3.81274-.10035-5.68872-.26484l-4.094 33.75354zm27.6753-78.70257l20.97948 26.77148c4.96631-4.18646 9.21094-9.17663 12.6211-14.73895l-29.57105-16.67328c-1.15307 1.70612-2.52075 3.24915-4.02954 4.64075zm11.75097 79.02594l10.23315 36.69057c1.5525-.45838 3.1045-.91608 4.64063-1.42792.62964-.21002 1.26489-.40393 1.8916-.6228 2.61352-.91169 5.20141-1.89661 7.75928-2.9607.5515-.22955 1.09301-.48376 1.64086-.72015a142.29841 142.29841 0 0 0 6.11207-2.80786c.73242-.35834 1.4641-.71875 2.19043-1.08942 2.20776-1.1261 4.39086-2.30432 6.54077-3.54791.2898-.16785.58789-.31995.87695-.48993 2.4043-1.41419 4.76-2.91882 7.0835-4.4787.63794-.42822 1.26416-.8753 1.896-1.31451 1.60693-1.1175 3.18505-2.28162 4.74853-3.46906l-23.53418-30.03162c-9.54346 7.18622-20.37598 12.73896-32.0796 16.27002v-.00001zm-20.54053-73.64655l9.14648 32.79352c6.2776-1.9942 12.08008-5.02612 17.2876-8.83197l-20.94311-26.72491c-1.70044 1.12988-3.54639 2.0473-5.49097 2.76336zm14.86768-13.6975l29.61914 16.70062c2.96069-5.68287 5.00732-11.89478 6.0332-18.45026l-33.7063-4.0885c-.41455 2.04565-1.08813 3.99292-1.94604 5.83813zm36.45166-11.09998c0-4.89014-.6477-9.62134-1.74976-14.1778l-32.72363 9.12659c.31787 1.6369.49634 3.32318.49634 5.0512 0 .36518-.04004.7201-.0547 1.08125l33.76905 4.096c.14649-1.7102.2627-3.42932.2627-5.17724zm-38.05616-14.0476c.97632 1.54845 1.79029 3.20385 2.43164 4.94628l32.79346-9.14648c-1.9939-6.27765-5.02588-12.08051-8.83203-17.28785l-24.46704 19.17414-1.08545.85034-1.17188.91882c.06543.09833.12012.20416.18458.30353.05078.0788.09667.16168.14672.24121zm42.6665 93.61931l23.53931 30.03707c1.85743-1.50122 3.70777-3.0141 5.49439-4.61572.30151-.27033.58935-.55982.88867-.8332 1.81714-1.65777 3.59107-3.3728 5.32813-5.1344.58715-.59613 1.1682-1.20043 1.7456-1.80822 1.60889-1.69135 3.17969-3.42865 4.71143-5.21045.38037-.44232.77466-.86817 1.1499-1.31592 1.8452-2.20148 3.62523-4.4746 5.34813-6.80798.42602-.57758.83252-1.17542 1.25073-1.76093 1.33203-1.86297 2.62354-3.76575 3.87402-5.70929.45557-.70746.91333-1.41247 1.35743-2.13055.66235-1.07099 1.27173-2.1919 1.90893-3.28614l-33.1565-18.69458c-6.17553 10.40656-14.12255 19.64081-23.44018 27.27033l.00002-.00002zm-65.0327-53.1264c-.29737 0-.58619-.0346-.88111-.0445-.06763-.00207-.13403-.00756-.20117-.0103l-.05542.45666-4.04053 33.31262c1.71094.1463 3.43042.26239 5.17822.26239 4.89087 0 9.6228-.64746 14.17969-1.74957l-9.1267-32.72406c-1.63746.3186-3.32398.49676-5.05299.49676zm98.44433-56.08704l36.64134-10.21948c-.531-1.7959-1.07861-3.58697-1.68017-5.3609a141.42562 141.42562 0 0 0-4.85181-12.36072c-1.49512-3.3399-3.15308-6.60925-4.90723-9.83069-.76806-1.4104-1.56079-2.80645-2.37744-4.19158-2.76685-4.6911-5.8003-9.23969-9.11719-13.6084l-29.9768 23.49151c7.18628 9.54358 12.73852 20.37665 16.26928 32.08026h.00002zm-7.88672 78.28595l33.18602 18.71137c.15283-.28162.32837-.54266.47974-.82568 2.25293-4.21045 4.27002-8.48395 6.05566-12.80536 4.67847-11.31922 7.74121-22.96735 9.33081-34.67237l-37.82861-4.58831c-1.72705 12.20758-5.59009 23.7351-11.22364 34.18035h.00002zm48.98387-68.05853c-.7771-5.5315-1.9187-10.9972-3.33984-16.3872l-36.6084 10.21057c2.104 8.1845 3.22534 16.7589 3.22534 25.59094 0 3.47247-.17773 6.90387-.51587 10.28906l37.82105 4.58765c.97436-9.2555 1.03662-18.52637.18847-27.67939-.20483-2.21142-.46264-4.41601-.77075-6.61163zm-41.93822 33.37146l-33.72387-4.09051c-1.0957 7.12146-3.3711 13.8551-6.59815 20.01556l29.60791 16.69379c5.36743-9.97351 9.05616-20.97205 10.71411-32.61884zm-12.79565 36.27704l-29.58691-16.68182c-3.68628 6.04474-8.34229 11.43298-13.74146 15.96374l20.9585 26.74408c8.8855-7.2879 16.46753-16.1001 22.36987-26.026zm-84.80762 52.58443c-3.4729 0-6.90478-.17816-10.29004-.51593l-4.59448 37.88104c1.3567.14319 2.71314.26514 4.07007.36829.19629.0147.39258.03906.58838.0531.30762.02227.61523.0418.92236.06164.5874.0384 1.17505.08704 1.7622.11786 1.94117.10211 3.88087.1535 5.81886.17474.6394.0072 1.27978.03632 1.9182.03424 2.7964-.00683 5.5862-.10723 8.36793-.2802.70459-.0439 1.406-.11207 2.10937-.16651 2.17603-.1679 4.34595-.38544 6.50806-.65369.77905-.09662 1.5586-.18841 2.33545-.29803 2.76343-.38953 5.51782-.8346 8.24976-1.38617.11425-.02295.22705-.05377.34155-.0774 2.59375-.52996 5.16528-1.1549 7.72363-1.8291l-10.23852-36.7094c-8.18506 2.10455-16.76026 3.22552-25.59278 3.22552zm-46.40478-15.84182c2.72876 1.46186 5.53125 2.80274 8.40552 4.008 7.58154 3.17822 15.64428 5.42291 24.04101 6.61816l4.09058-33.724c-3.78296-.58172-7.45142-1.51013-10.99-2.7202-3.09448-1.05842-6.08325-2.34278-8.94726-3.83833l-9.36401 16.69403-7.23584 12.96234zm105.53296-8.11425l-20.9607-26.74683c-5.63916 4.14124-11.96704 7.3952-18.78369 9.5429l9.12915 32.73121c11.1643-3.37897 21.50171-8.67682 30.61524-15.52728zm39.4807-78.86255c.00001-8.44013-1.06957-16.63489-3.0742-24.45899l-32.75367 9.1352c1.1997 4.91552 1.85083 10.04412 1.85083 15.32379 0 1.91784-.1001 3.81164-.26465 5.68768l33.75342 4.094c.3186-3.21833.48828-6.48047.48828-9.78168zM129.22152 214.3441c3.01953.9867 6.15235 1.69928 9.35889 2.20087l2.84155-23.42884 1.24658-10.2774c-2.04492-.41455-3.9912-1.0874-5.83593-1.94525l-.0315.0556-16.60132 29.59717c2.88257 1.49713 5.89283 2.77582 9.02173 3.79785zm50.16016-108.91467l-3.24756 5.76037-12.39258 21.97895-1.03296 1.83148c1.70606 1.1535 3.24927 2.52112 4.64136 4.03058l9.38281-7.35333 17.38867-13.62629c-1.85205-2.19738-3.88354-4.23028-6.02612-6.14404-.54468-.48614-1.05835-1.00586-1.61987-1.47247-1.86646-1.54987-3.84863-2.95587-5.89356-4.27552-.39306-.25354-.80078-.4851-1.2002-.72973zm23.4121-41.52277l-2.56127 4.54273c.04394.02606.08911.05072.13305.07678 3.15967 1.88147 6.21924 3.91376 9.14917 6.11249 2.41944 1.81543 4.74903 3.74249 6.99708 5.75964a103.66665 103.66665 0 0 1 7.93774 7.93652c1.04346 1.16272 2.06396 2.34638 3.05395 3.55573l29.97045-23.4864c-.77979-.96538-1.54004-1.94384-2.34693-2.89007-1.20068-1.40802-2.45092-2.78045-3.71118-4.14538-2.52832-2.73657-5.18896-5.3711-7.95434-7.91998-4.64014-4.27765-9.60132-8.2832-14.8894-11.96882-2.1006-1.46356-4.25611-2.8709-6.45606-4.23236-1.0581-.65503-2.11524-1.31146-3.1958-1.94183l-3.45362 6.12488-12.67285 22.47607h.00002zm10.73585 19.47394c-1.97583-1.76434-4.02002-3.453-6.13355-5.05566-2.87768-2.18299-5.87842-4.20972-8.99023-6.07142-.07935-.0476-.1609-.09112-.24048-.13836l-16.68189 29.58655c.365.22235.71778.46215 1.07813.6917 2.41138 1.53687 4.71802 3.22272 6.89844 5.05665.27002.2268.5332.46075.79931.69201 2.563 2.22687 4.95288 4.64557 7.13868 7.24445.01635.01917.03344.0384.05004.05756l26.7439-20.95838c-.88354-1.07782-1.79712-2.12958-2.72485-3.16827-2.49439-2.79352-5.14405-5.44245-7.9375-7.93683z" class="cls-2"/><path d="M100.77132 196.13878l-17.35706-17.3567c-8.01599 8.0163-8.01599 21.01289 0 29.02918.97327.97327 2.02234 1.82294 3.12439 2.56018 3.75 2.50672 8.1394 3.62806 12.47412 3.40021 4.88574-.25726 9.69849-2.22857 13.43067-5.96039l-3.73487-3.73529-7.93725-7.9372zm29.30517-37.51923c4.6831 0 8.9856-1.5855 12.4397-4.22552 1.45337-1.11103 2.75024-2.40808 3.86157-3.8617 2.63965-3.45404 4.22559-7.75628 4.22559-12.43951h-41.05347c0 11.33667 9.19043 20.52673 20.52661 20.52673z" class="cls-4"/><path d="M257.47394 68.40416c.88281 1.09326 1.76172 2.18817 2.60937 3.30469m-41.48118-36.59632c.10522.06537.2107.13037.31811.19318" class="cls-1"/><path d="M138.90169 177.22331c1.36084.60742 2.78955 1.08496 4.2771 1.41077 1.35107.29565 2.74829.45807 4.17798.49506.19287.00482.38037.02874.5747.02874.52588 0 1.04102-.04248 1.55786-.0788.7981-.05547 1.58399-.14965 2.35694-.28771 1.40259-.2508 2.7561-.63385 4.05493-1.13501 1.4126-.5451 2.75537-1.22412 4.01245-2.0326 1.18604-.76263 2.29272-1.63348 3.31006-2.601 1.08838-1.03394 2.0752-2.17097 2.9375-3.40498.80151-1.14734 1.49365-2.37384 2.07056-3.66473.60766-1.36109 1.08593-2.7904 1.41137-4.279.29566-1.35046.45825-2.74822.49488-4.17785.00463-.19257.02905-.37994.02905-.57385 0-1.33716-.1394-2.64038-.36646-3.91309-.25049-1.40259-.63354-2.75616-1.13476-4.05493-.24195-.62695-.51148-1.2381-.80762-1.8363-.23926-.48511-.4939-.9599-.76733-1.4245-.14893-.25281-.29859-.50562-.45728-.75196-.76294-1.1864-1.63379-2.29296-2.60132-3.31115-1.03467-1.08808-2.17138-2.07544-3.40552-2.93738-.02978-.02087-.05859-.04303-.08715-.06525l-21.64624 38.59143c.00293.00135.00561.00281.0083.0041z" class="cls-2"/></svg>