<svg xmlns="http://www.w3.org/2000/svg" role="img" viewBox="-23.74 -16.74 1546.48 332.48"><title>Hyperledger AnonCreds logo</title><defs><style>.cls-1{fill:#80c88e}.cls-2{fill:#24272a}.cls-3{fill:#37813f}</style></defs><path d="M434.742 74.663l26.637-.143.143 26.875 13.707-.066-.324-62.187-13.714.07.126 23.19-26.637.136-.126-23.184-13.709.074.327 62.184 13.713-.074-.143-26.875zm73.706 26.906l13.707-.074-.136-26.522 23.19-35.78-16.262.078-13.852 23.35-13.309-23.207-17.053.091 23.577 35.537.138 26.527zm60.3971-.11078l-.12616-24.2434 10.0223-.05012c3.28173-.01869 6.32304-.34278 9.13837-.97653 2.81024-.6261 5.23012-1.674 7.28088-3.14835 2.04099-1.48158 3.6415-3.44866 4.80365-5.90889 1.15536-2.47255 1.72667-5.51598 1.7101-9.15069-.02378-3.68695-.66688-6.74737-1.9433-9.16938-1.27173-2.41988-2.98183-4.33938-5.12307-5.77084-2.15313-1.41956-4.6656-2.4152-7.53828-2.98439-2.8697-.5764-5.92291-.84995-9.14305-.83084l-23.1216.11894.33132 62.1833 13.70883-.0688zm6.76648-50.62293c1.28831-.0119 2.63863.05734 4.0463.19284 1.40767.13805 2.6913.47404 3.82755.9863 1.14814.52374 2.08644 1.26453 2.82935 2.22916.73357.9621 1.10269 2.23851 1.11458 3.81523.00467 1.46459-.26208 2.67941-.81427 3.6466-.55262.96931-1.27684 1.73134-2.18201 2.29585-.91197.55984-1.9314.96931-3.06977 1.2025-1.14814.24085-2.32686.367-3.56292.36955l-9.1388.04757-.0807-14.75247 7.0307-.03313zM655.364 101.357l-.064-12.642-30.152.152-.067-12.649 26.989-.142-.066-12.65-26.985.143-.064-11.589 28.568-.152-.066-12.65-42.278.222.324 62.184 43.861-.227zm43.31315-.0003l16.43836-.0858-15.96433-26.18202c4.39886-.84273 7.7307-2.80047 9.99088-5.88977 2.26993-3.09356 3.3964-6.83063 3.37475-11.22481-.02124-3.6224-.66646-6.64968-1.9433-9.07636-1.2692-2.4203-2.9793-4.3466-5.12053-5.77127-2.15567-1.41913-4.64692-2.4339-7.49283-3.03154-2.83658-.60274-5.8473-.89328-9.00755-.8767l-24.08368.13124.31687 62.18331 13.7135-.0739-.13083-24.85761 6.77584-.03568 13.13285 24.79092zM678.71367 65.005l-.0739-14.1353 8.96718-.04545c1.2314-.01189 2.4887.06924 3.77743.2383 1.28618.1716 2.43857.49527 3.43676.99352.99777.49527 1.82181 1.20718 2.46746 2.14081.64776.92896.97865 2.1888.99054 3.77275.00468 1.6982-.35467 3.01285-1.07635 3.9537-.73102.94043-1.64808 1.6362-2.76054 2.07922-1.1099.44983-2.35319.7119-3.72942.8096-1.37454.09515-2.68451.14782-3.9108.1525l-8.08836.04035zM763.734 101.266l-.071-12.649-25.406.133-.262-49.537-13.707.07.324 62.183 39.122-.2zm53.692.05l-.064-12.642-30.153.153-.069-12.649 26.992-.144-.069-12.641-26.982.135-.064-11.589 28.565-.153-.066-12.649-42.277.222.326 62.183 43.861-.226zm56.6455-7.98903c3.2057-2.61527 5.75385-5.85197 7.63556-9.69821 1.88637-3.83944 2.81278-8.28375 2.78645-13.32102-.02379-5.68037-1.03345-10.50059-3.01497-14.47808-1.98875-3.97749-4.65627-7.1904-8.00978-9.66253-3.35096-2.46745-7.27833-4.25613-11.7634-5.34438-4.48679-1.084-9.22885-1.6175-14.20666-1.58861l-20.56834.10704.33131 62.18373 22.41394-.11936c4.62526-.02123 9.04578-.717 13.26368-2.0911 4.21069-1.3669 7.9193-3.36074 11.13221-5.98748zm-26.04397-4.55857l-7.12117.04036-.19539-36.89245 8.0858-.04502c2.87226-.0119 5.61836.33556 8.22896 1.05978 2.60083.71233 4.8869 1.79803 6.82553 3.25327 1.94117 1.45779 3.49156 3.30339 4.64224 5.55421 1.15494 2.25083 1.74323 4.89923 1.7598 7.94309.017 3.51534-.54072 6.48996-1.66932 8.92174-1.12902 2.43857-2.68918 4.41075-4.67283 5.90889-1.98152 1.50494-4.33472 2.58171-7.05958 3.2486-2.71509.65498-5.66337.99054-8.82404 1.00753zm81.2807-24.1971l.06158 12.64905 11.16322-.05735.0548 10.10344c-1.28619.7119-3.01285 1.40724-5.17065 2.09111-2.16757.68345-4.74207 1.0309-7.73368 1.0479-2.92705.01189-5.58734-.46682-7.96432-1.44845-2.37443-.98588-4.42264-2.36466-6.13274-4.14612-1.70755-1.77212-3.01753-3.87512-3.94181-6.30222-.92174-2.422-1.38346-5.09462-1.40257-8.02847-.017-2.86545.42391-5.53297 1.31677-7.9932.9005-2.46746 2.1888-4.59892 3.87512-6.3995 1.6982-1.79335 3.72518-3.18445 6.09239-4.19879 2.36975-1.00754 5.01816-1.52193 7.94775-1.53382 3.51535-.02166 6.44962.46214 8.79559 1.44335 2.34852.98333 4.46809 2.43857 6.35447 4.36317l9.60985-10.59148c-3.17723-2.91304-6.87098-4.95615-11.06297-6.13784-4.19412-1.17872-8.78582-1.75258-13.76617-1.72412-4.86567.02166-9.34566.80748-13.42764 2.35786-4.10364 1.5385-7.63598 3.73708-10.60593 6.59234-2.9793 2.86079-5.28491 6.31412-6.94022 10.3583-1.64553 4.05139-2.46023 8.55983-2.43177 13.53722.02888 4.98035.88393 9.48158 2.57492 13.52108 1.6931 4.02974 4.03908 7.45716 7.0498 10.27929 3.00309 2.82723 6.55666 4.98503 10.66498 6.49039 4.10831 1.49772 8.59807 2.23128 13.46374 2.21005 4.57046-.02379 9.0479-.51227 13.43995-1.4769 4.38696-.95743 8.6002-2.50526 12.63248-4.63715l-.1716-32.50039-24.34535.13125zM1007.515 99.879l-.069-12.643-30.145.16-.069-12.654 26.989-.143-.067-12.644-26.989.138-.06-11.589 28.564-.155-.062-12.642-42.277.221.326 62.184 43.859-.233zm23.5348.11761l-.13083-24.8576 6.7686-.03569 13.14008 24.78625 16.43836-.0858-15.96008-26.17735c4.39461-.8474 7.72646-2.80769 9.99385-5.88978 2.26272-3.09355 3.38919-6.83062 3.36753-11.2248-.02124-3.6224-.66688-6.65436-1.93608-9.07636-1.27684-2.4271-2.97972-4.3517-5.12775-5.77127-2.151-1.41913-4.64436-2.4339-7.48816-3.03154-2.84847-.60996-5.85197-.89328-9.01221-.87671l-24.0837.12615.32368 62.18119 13.7067-.06669zm8.70043-50.64162c1.23861-.0051 2.49124.0688 3.78465.24509 1.28109.16693 2.4339.49527 3.42954.99352 1.005.49527 1.82904 1.20718 2.47935 2.1408.6431.92897.97398 2.18882.98588 3.77276.00467 1.6982-.35468 3.01285-1.08358 3.9537-.7289.94043-1.64808 1.6362-2.75544 2.07413-1.11246.45492-2.35574.717-3.72773.8147-1.37878.09047-2.68408.14781-3.91037.14781l-8.08836.04502-.0739-14.13529 8.95996-.05224z" class="cls-2"/><path d="M511.32793 275.37274l-11.05273-27.91211h-62.19434l-11.05273 27.91211h-17.79688l50.39258-124.9502h19.2959l50.2041 124.9502h-17.7959zM469.17754 166.3454l-26.41309 67.43945h53.01465l-26.60156-67.43945zm162.50977 109.02734l-72.87207-99.66113v99.66113h-15.54786v-124.9502h15.92286l71.93554 97.59961v-97.5996h15.54883v124.95019h-14.9873zm36.4541-62.38184c0-36.9043 25.10254-64.6289 62.00683-64.6289s62.19434 27.7246 62.19434 64.6289-25.29004 64.62989-62.19434 64.62989-62.00683-27.72559-62.00683-64.62989zm108.09082 0c0-29.22363-18.1709-50.7666-46.08399-50.7666-28.0996 0-45.89648 21.54297-45.89648 50.7666 0 29.03711 17.79687 50.76758 45.89648 50.76758 27.91309 0 46.08399-21.73047 46.08399-50.76758zm126.1123 62.38184l-72.87207-99.66113v99.66113h-15.54785v-124.9502h15.92285l71.93555 97.59961v-97.5996h15.54883v124.95019h-14.9873z" class="cls-1"/><path d="M938.79961 212.9909c0-38.40332 28.28711-64.6289 64.25488-64.6289 22.10547 0 37.4668 10.49023 47.39551 24.72754l-12.92578 7.30566c-7.11914-10.67773-20.23242-18.1709-34.46973-18.1709-27.35058 0-48.14453 20.79395-48.14453 50.7666 0 29.59864 20.79395 50.76758 48.14453 50.76758 14.2373 0 27.35059-7.68066 34.46973-18.17187l13.11328 7.11914c-10.49121 14.4248-25.47754 24.91504-47.583 24.91504-35.96778 0-64.25489-26.22657-64.25489-64.62989zm200.96973 62.38184l-31.65918-49.64258h-25.10254v49.64258h-15.54785v-124.9502h50.20507c22.8545 0 39.33887 14.61133 39.33887 37.65332 0 22.4795-15.54785 34.84375-32.5957 36.34278l33.71973 50.9541h-18.3584zm1.12402-87.29688c0-14.2373-10.30273-23.79101-25.10254-23.79101h-32.7832v47.76953h32.7832c14.7998 0 25.10254-9.92871 25.10254-23.97852zm37.87793 87.29688v-124.9502h81.86328v13.8623h-66.31543v40.27638h65.00488v13.8623h-65.00488v43.08692h66.31543v13.8623h-81.86328zm103.48047 0v-124.9502h42.71094c38.96582 0 64.06836 27.16309 64.06836 62.56836 0 35.59375-25.10254 62.38184-64.06836 62.38184h-42.71094zm90.66797-62.38184c0-26.97558-17.04688-48.70605-47.95703-48.70605h-27.16309v97.22558h27.16309c30.34863 0 47.95703-21.73046 47.95703-48.51953zm26.78808 44.77246l9.3672-11.98925c8.05468 9.36718 21.54296 17.98437 39.15233 17.98437 22.292 0 29.41114-11.98926 29.41114-21.73047 0-32.22168-73.9961-14.2373-73.9961-58.82226 0-20.60742 18.3584-34.84375 43.08594-34.84375 18.9209 0 33.71973 6.55664 44.21094 17.6084l-9.36719 11.42773c-9.36621-10.49023-22.4795-14.98633-36.1543-14.98633-14.7998 0-25.66503 8.05469-25.66503 19.85645 0 28.10058 73.99609 11.98926 73.99609 58.63574 0 17.9834-12.36328 36.7168-46.08399 36.7168-21.54296 0-37.65332-8.24317-47.95703-19.85743z" class="cls-3"/><path d="M257.664 264.938H27.678V34.952h229.986v82.668h21.427V13.525H6.251v272.84h272.84V182.271h-21.427v82.667z" class="cls-2"/><path d="M71.4 76.915h141.94v21.423H71.4zm0 124.637h141.94v21.423H71.4z" class="cls-1"/><path d="M322.397 182.271v25.396l69.112-57.722-69.112-57.722V139.231H71.4v21.423h250.997V182.271z" class="cls-3"/></svg>