<svg xmlns="http://www.w3.org/2000/svg" role="img" viewBox="-8.66 -8.66 450.58 138.58"><title>Hyperledger Fabric logo</title><path fill="#232325" d="M158.02405 26.3583l11.60238-.06146.06266 11.70598 5.96919-.02867-.14133-27.08732-5.97319.03026.056 10.10122-11.60238.05893-.056-10.09775-5.97051.03187.14133 27.08572 5.97318-.03173-.06133-11.70704m32.10453 11.7201l5.97052-.03186-.06-11.55278 10.10108-15.58454-7.08382.03386-6.03319 10.17055-5.79718-10.10802-7.42782.0396 10.27041 15.47868.06 11.55451m29.25527-22.09851c.55998-.0052 1.14797.0256 1.76129.08386.61332.0604 1.1733.20733 1.66796.42973.49998.22866.90797.55105 1.23197.9713.31999.4188.47998.97452.48532 1.66143.00266.63799-.11333 1.16717-.35466 1.5885-.24.42238-.55599.75464-.95064.99997-.396.24426-.83998.42239-1.3373.52399-.5.1052-1.01331.15986-1.55197.16093l-3.9799.0208-.03466-6.42531zm-2.94793 22.04998l-.05466-10.5596 4.36522-.02187c1.4293-.00786 2.75327-.14893 3.9799-.42505 1.22397-.2728 2.27728-.72905 3.17059-1.3713.88931-.64572 1.58796-1.5025 2.09328-2.5738.50399-1.07718.75198-2.40261.74531-3.9859-.01066-1.60623-.29199-2.93953-.84797-3.99417-.55332-1.05358-1.2973-1.88955-2.22928-2.51354-.93864-.61812-2.03328-1.05197-3.28392-1.29997-1.25063-.25146-2.58127-.37025-3.9839-.36185l-10.07041.052.144 27.08532 5.97184-.03027m37.68573-.0432l-.028-5.5072-13.13434.06614-.028-5.5092 11.7557-.062-.02933-5.51026-11.75437.06253-.02667-5.04827 12.4437-.06613-.03067-5.50986-18.4142.0964.14132 27.08572 19.10486-.09787m10.1704-15.83453l-.03199-6.15705 3.90524-.01987c.53732-.0052 1.08397.03027 1.64529.10373.56132.07494 1.06264.21613 1.4973.4328.43465.21612.79464.52598 1.07597.93224.27999.40519.42532.95357.43065 1.64369.00134.73958-.15466 1.31197-.46932 1.72182-.31866.40986-.71865.71305-1.20264.90571-.48265.1964-1.0253.30986-1.62395.35306-.59866.0412-1.1693.06467-1.70396.06613zm8.6958 15.83347l7.15981-.03694-6.95316-11.40384c1.91462-.3672 3.36659-1.22037 4.3519-2.56567.98797-1.34784 1.47862-2.9754 1.4693-4.88935-.00934-1.5781-.29067-2.89633-.84665-3.95363-.55332-1.0541-1.2973-1.89315-2.22928-2.5134-.93998-.6188-2.02528-1.06091-3.26525-1.32037-1.23464-.26293-2.5466-.3896-3.92257-.38226l-10.4904.05733.13732 27.0852 5.97452-.03174-.05733-10.82733 2.95192-.0156 5.71986 10.7976m28.33796-.03907l-.032-5.5092-11.06639.05787-.11466-21.5772-5.96919.03027.14 27.08573 17.04224-.08747m23.38608.02187l-.028-5.50653-13.133.06666-.03067-5.50986 11.7557-.0624-.02932-5.50666-11.75171.05933-.02933-5.04774 12.44235-.06666-.028-5.50987-18.41554.0964.14267 27.08626 19.10485-.09893m13.329-5.46547l-3.10125.01774-.08533-16.06947 3.52257-.01973c1.25064-.0052 2.4466.14586 3.58391.46145 1.1333.3104 2.12795.78332 2.97326 1.41664.84398.63598 1.51997 1.43903 2.02129 2.41967.50265.98024.75998 2.13381.76664 3.45991.00667 1.53116-.23466 2.827-.72665 3.8863-.49332 1.06144-1.17197 1.92076-2.03594 2.5734-.86265.65572-1.88796 1.12491-3.07593 1.41504-1.1813.28546-2.46527.43172-3.84257.43905zm11.34372 1.98542c1.39596-1.13904 2.5066-2.54847 3.32658-4.22443.82131-1.67236 1.2253-3.60764 1.2133-5.80185-.01066-2.47447-.44932-4.57389-1.3133-6.30664-.86664-1.73223-2.02794-3.1318-3.48924-4.20883-1.45997-1.0749-3.17059-1.85409-5.12387-2.32808-1.95329-.47185-4.01857-.70411-6.18785-.69211l-8.95844.04693.144 27.08572 9.76375-.0516c2.01328-.00933 3.9399-.31239 5.77719-.9109 1.83329-.59586 3.44925-1.46397 4.84788-2.6082m24.0594-12.52476l.028 5.50933 4.8612-.02507.02534 4.40096c-.56132.30986-1.31197.61305-2.25328.91037-.94397.29786-2.06394.44946-3.36791.4568-1.27464.0052-2.43327-.2032-3.46925-.63133-1.03464-.42852-1.92662-1.02957-2.6706-1.80568-.74398-.77238-1.31597-1.68796-1.71729-2.74473-.40132-1.05518-.60398-2.21915-.61065-3.49725-.008-1.24784.184-2.41034.57199-3.48165.39332-1.07504.95464-2.00315 1.68929-2.78793.73998-.78024 1.62262-1.3865 2.65326-1.82862 1.03198-.43852 2.18662-.66251 3.46258-.66771 1.53063-.00987 2.80793.20106 3.83057.62865 1.02265.42865 1.94662 1.06197 2.76794 1.90048l4.18656-4.61348c-1.38397-1.26877-2.99326-2.15875-4.81988-2.6734-1.82662-.51399-3.82657-.76398-5.99585-.75145-2.11995.00987-4.07057.352-5.84786 1.02757-1.78795.66972-3.32791 1.62756-4.61988 2.87127-1.29863 1.24623-2.30261 2.74993-3.02393 4.51188-.71731 1.76503-1.07197 3.72844-1.05997 5.89612.01333 2.16928.38533 4.13017 1.12264 5.88999.73731 1.75515 1.75862 3.24778 3.07059 4.47695 1.30797 1.2317 2.8546 2.17128 4.64522 2.82753 1.78929.65212 3.74524.97131 5.86518.96198 1.99062-.0104 3.94124-.2224 5.8532-.64319 1.91194-.41665 3.74656-1.09117 5.50252-2.01928l-.07466-14.15631-10.60507.0572M407.5098 37.3419l-.02933-5.50613-13.13167.06933-.02933-5.51133 11.7557-.06253-.028-5.50773-11.75704.06053-.02533-5.04894 12.44102-.06666-.02666-5.50653-18.41554.09626.14266 27.08533 19.10352-.1016m14.04098-22.00678c.54-.00147 1.08531.03026 1.6493.1068.55732.07292 1.05997.21559 1.4933.43332.43731.21506.7973.52505 1.07863.93224.28.40479.42532.95318.43066 1.6433.00266.73944-.15466 1.31236-.47199 1.72182-.31733.40985-.71865.71291-1.19997.90357-.48399.1984-1.02664.31253-1.62396.35466-.59998.0396-1.1693.06467-1.70262.06467l-3.52392.0192-.032-6.15665zm-3.78923 22.05838l-.05734-10.82733 2.94793-.0156 5.72386 10.79653 7.15982-.038-6.95183-11.40185c1.91329-.36919 3.36525-1.22237 4.35323-2.56553.9853-1.34677 1.47596-2.9754 1.46663-4.88948-.00934-1.57703-.29066-2.89833-.84398-3.95297-.55599-1.0573-1.29597-1.89582-2.23328-2.51407-.93731-.61758-2.02262-1.05984-3.26125-1.32023-1.23997-.2656-2.54927-.3896-3.92524-.38226l-10.4904.0552.14133 27.08479 5.97052-.0292"/><path fill="#f03d41" d="M152.24953 57.48726h34.9178v7.06236h-27.386v17.42036h25.50337v7.0613h-25.50336v24.01186h-7.53181V57.48726m71.25155 35.23245L213.144 67.2177h-.15732L202.47094 92.7197zm-13.49566-35.23245h6.8265l23.7754 55.55588h-8.78778l-5.57186-13.73199h-26.44334l-5.4932 13.73199h-8.78778l24.48206-55.55588m42.21894 48.96438h11.06506c4.55055 0 12.00503-1.5693 12.00503-9.4159 0-6.59157-4.62922-9.88722-11.92637-9.88722h-11.14372zm0-25.89469h10.27974c5.72786 0 10.35841-2.2754 10.35841-8.31752 0-4.39416-2.7466-8.16073-8.78911-8.16073h-11.84904zm-7.53181-23.06969h19.30352c9.65176 0 16.87024 4.47282 16.87024 13.88925 0 6.35558-3.9239 10.35748-9.5731 12.24077v.15733c6.66917.47025 12.00504 6.35557 12.00504 13.81005 0 9.96588-8.70911 15.45848-19.53818 15.45848h-19.06752V57.48726m55.40395 24.48272h9.88642c5.96251 0 11.9277-1.41303 11.9277-8.94617 0-7.53261-5.96519-8.94511-11.9277-8.94511h-9.88642zm-7.53448-24.48272h19.53951c14.20231 0 17.81289 8.55339 17.81289 15.53655 0 7.06235-5.2572 13.73245-13.65433 14.67363l15.77294 25.3457h-9.4171L308.4923 88.56089h-8.3958v24.48225h-7.53447V57.48726m47.94813 0h7.53448v55.55588h-7.53448V57.48726m57.3639 12.00544c-3.13859-4.07964-8.31846-6.35558-13.41833-6.35558-12.47702 0-20.71548 9.96535-20.71548 22.5989 0 11.69184 7.7678 21.65773 20.71548 21.65773 6.35584 0 11.22105-2.82486 14.51697-7.45502l6.35451 4.78695c-1.64663 2.27541-8.31713 9.73045-21.0288 9.73045-17.65557 0-28.5633-14.75219-28.5633-28.7201 0-17.26318 11.85038-29.66127 28.95662-29.66127 7.29715 0 14.98629 2.74634 19.4595 8.63152l-6.27717 4.78642M19.42978 89.5922c-.52919 1.1093-1.87035 1.58382-2.97966 1.05463l-15.1788-7.24302C.16145 82.87463-.31249 81.53346.21666 80.42416l2.63744-5.5264c.52915-1.10984 1.86974-1.5849 2.97909-1.05464l15.17935 7.24249c1.1093.52918 1.58383 1.87022 1.05464 2.97965zm49.18304 23.46865c-.52906 1.10936-1.86969 1.58381-2.97953 1.05466l-24.82804-11.84763c-1.1093-.5292-1.58436-1.87022-1.05464-2.97966l2.63686-5.5264c.52972-1.1093 1.87076-1.58383 2.9802-1.05464l24.8279 11.84717c1.10945.52959 1.58384 1.87076 1.05478 2.98006l-2.63753 5.52644m10.61227-85.5099c-.52972 1.10943-1.87022 1.58435-2.97966 1.05477l-24.69259-11.7821c-1.1093-.52906-1.58382-1.87023-1.05464-2.97953l2.6374-5.52747c.5292-1.10943 1.87036-1.58382 2.97966-1.05464l24.69205 11.78304c1.10998.52906 1.58436 1.87022 1.05464 2.97953zm39.55794 18.87619c-.52919 1.1093-1.87035 1.58383-2.97966 1.05464l-15.20282-7.25449c-1.1093-.52918-1.58423-1.87035-1.05464-2.97966l2.637-5.52639c.52959-1.1093 1.87076-1.58436 2.98006-1.05464l15.20282 7.25395c1.1093.52972 1.58383 1.87075 1.05464 2.98006l-2.6374 5.52653m-75.88517-6.01812c-.52919 1.10984-1.86969 1.58383-2.97952 1.05464L24.7395 34.22118c-1.10943-.52972-1.58382-1.87076-1.05464-2.9802l2.6374-5.52639c.5292-1.1093 1.87023-1.58383 2.97966-1.05464l15.1787 7.24249c1.10943.52972 1.58382 1.87075 1.05463 2.98019l-2.6374 5.5264M92.0821 63.87776c-.52972 1.1093-1.87076 1.5837-2.9802 1.05464L64.27387 53.08524c-1.1093-.52959-1.5837-1.86969-1.05464-2.98006l2.63753-5.52653c.52906-1.1093 1.86969-1.5837 2.97953-1.05464l24.82805 11.8477c1.1093.52906 1.58436 1.87023 1.05464 2.97953l-2.63687 5.52653m3.26192 31.74814c-.52919 1.1093-1.87036 1.58383-2.97966 1.05357l-15.23349-7.26862c-1.1093-.52905-1.58383-1.86968-1.0541-2.97899l2.63686-5.52693c.52972-1.10944 1.87036-1.58436 2.97966-1.05477l15.23349 7.26862c1.1093.52918 1.58382 1.87022 1.05464 2.97966l-2.6374 5.52746M55.75594 76.73465c-.52919 1.11037-1.87035 1.5849-2.97966 1.05464L28.00717 65.97092c-1.10944-.52919-1.58383-1.87036-1.05478-2.97966l2.63754-5.52693c.52905-1.10984 1.87022-1.58436 2.97952-1.05464l24.76925 11.8189c1.1093.52919 1.58383 1.87036 1.05464 2.97966l-2.6374 5.5264"/><path fill="#9bddd4" d="M16.90891 70.04575c-.52905 1.10944-1.86915 1.58383-2.979 1.05464l-5.52908-2.63794c-1.10935-.52958-1.58381-1.87075-1.05465-2.98005l11.84654-24.82605c.52972-1.1093 1.86982-1.5837 2.9802-1.05464l5.52852 2.63793c1.1093.52919 1.58383 1.87036 1.05464 2.97966L16.90891 70.04575M40.3782 20.86258c-.52972 1.10944-1.87075 1.58382-2.9802 1.05477l-5.52852-2.63807c-1.10877-.52905-1.58383-1.87022-1.05464-2.97952l7.16809-15.02203C38.5121.1683 39.85314-.30609 40.96258.2231l5.5284 2.63847c1.10943.52959 1.58382 1.86969 1.05476 2.98006L40.3782 20.86258m43.25039 99.1731c-.52906 1.10935-1.87022 1.58433-2.97953 1.05466l-5.52853-2.63848c-1.1093-.52915-1.58383-1.86974-1.05464-2.97909l7.16809-15.02152c.52905-1.1093 1.87022-1.58436 2.97952-1.05464l5.52853 2.63794c1.1093.52919 1.58383 1.87022 1.05464 2.97966l-7.16808 15.02147m18.79073-39.3782c-.52972 1.1093-1.87022 1.58383-2.97966 1.05464l-5.52893-2.63793c-1.10944-.52972-1.58383-1.87075-1.05464-2.98006l11.8465-24.82658c.52972-1.1093 1.87022-1.58423 2.97966-1.05464l5.52893 2.63793c1.10944.5292 1.58436 1.87036 1.05477 2.97966l-11.84663 24.82698M89.56176 44.33132c-.52959 1.10984-1.86969 1.5849-2.97952 1.05464l-5.52853-2.63793c-1.10984-.52919-1.58436-1.87022-1.05464-2.97966l7.16755-15.02096c.52905-1.1093 1.87022-1.58436 2.97953-1.05464l5.52852 2.63794c1.10984.52918 1.5849 1.87022 1.05465 2.97966l-7.16756 15.02095M66.09368 93.5145c-.52972 1.10931-1.87075 1.58383-2.9802 1.05465l-5.52852-2.63794c-1.10984-.52919-1.58423-1.87035-1.05464-2.97966L68.37696 64.1251c.52918-1.1093 1.87022-1.58383 2.97966-1.05464l5.5284 2.63846c1.10943.52972 1.58382 1.86969 1.05476 2.97913l-11.8461 24.82644m-31.6476 3.05246c-.53026 1.10944-1.8709 1.58383-2.97967 1.05464l-5.5296-2.63847c-1.1093-.52905-1.58382-1.86968-1.05463-2.97899l7.16809-15.02202c.52958-1.10944 1.87022-1.58383 2.97952-1.05464l5.52906 2.63793c1.10944.52959 1.58383 1.87022 1.05464 2.98006l-7.16742 15.0215M53.2356 57.18833c-.52905 1.1093-1.87022 1.58422-2.97952 1.05464l-5.52853-2.63794c-1.1093-.52918-1.58383-1.87035-1.05464-2.97966L55.5194 27.7984c.52972-1.1093 1.87036-1.58382 2.9802-1.05464l5.52799 2.63794c1.1093.52972 1.58436 1.87075 1.05517 2.98019L53.2356 57.18834"/></svg>