<svg xmlns="http://www.w3.org/2000/svg" role="img" viewBox="-5.59 -5.59 316.68 107.18"><title>Hyperledger Besu logo</title><style>svg {enable-background:new 0 0 305.7 96.5}</style><style>.st0{fill:#19a1a1}</style><path d="M98.5 22.1l8.7-.1v8.8h4.5l-.1-20.3h-4.5l.1 7.6h-8.7l-.1-7.6H94l.1 20.4 4.4-.1zm24.1 8.7h4.5l-.1-8.6 7.6-11.7h-5.3l-4.6 7.6-4.3-7.6-5.6.1 7.7 11.6zm19.7 0v-7.9h3.3c1.1 0 2.1-.1 3-.3.9-.2 1.7-.5 2.4-1s1.2-1.1 1.6-1.9c.4-.8.6-1.8.6-3s-.2-2.2-.6-3c-.4-.8-1-1.4-1.7-1.9s-1.5-.8-2.5-1c-.9-.2-1.9-.3-3-.3h-7.6l.1 20.3h4.4zm2.2-16.5c.4 0 .9 0 1.3.1.5 0 .9.2 1.3.3.4.2.7.4.9.7.2.3.4.7.4 1.2s-.1.9-.3 1.2c-.2.3-.4.6-.7.8-.3.2-.6.3-1 .4-.4.1-.8.1-1.2.1h-3v-4.8h2.3zm26.1 16.5v-4.2l-9.9.1v-4.1l8.8-.1v-4.1h-8.8l-.1-3.8h9.4v-4.1h-13.9l.1 20.4zm14.1 0h5.4l-5.2-8.6c1.4-.3 2.5-.9 3.3-1.9.7-1 1.1-2.2 1.1-3.7 0-1.2-.2-2.2-.6-3-.4-.8-1-1.4-1.7-1.9s-1.5-.8-2.4-1c-.9-.2-1.9-.3-2.9-.3h-7.9l.1 20.3h4.5v-8.1h2.2l4.1 8.2zm-6.5-11.9v-4.6h2.9c.4 0 .8 0 1.2.1.4.1.8.2 1.1.3.3.2.6.4.8.7.2.3.3.7.3 1.2 0 .6-.1 1-.4 1.3-.2.3-.5.5-.9.7l-1.2.3h-3.8zM206 30.8v-4.2l-8.3.1-.1-16.2h-4.5l.1 20.3zm17.5 0v-4.2l-9.9.1v-4.1l8.8-.1v-4.1h-8.8v-3.8h9.3v-4.1h-13.8l.1 20.3zm18.5-2.6c1-.9 1.9-1.9 2.5-3.2.6-1.3.9-2.7.9-4.4 0-1.9-.3-3.4-1-4.7-.6-1.3-1.5-2.3-2.6-3.2-1.1-.8-2.4-1.4-3.8-1.7-1.5-.4-3-.5-4.6-.5h-6.7l.1 20.3h7.3c1.5 0 3-.2 4.3-.7 1.4-.4 2.6-1.1 3.6-1.9zm-8.5-1.5h-2.3l-.1-12.1h2.6c.9 0 1.8.1 2.7.3.8.2 1.6.6 2.2 1.1.6.5 1.1 1.1 1.5 1.8.4.7.6 1.6.6 2.6 0 1.1-.2 2.1-.5 2.9-.4.8-.9 1.4-1.5 1.9s-1.4.8-2.3 1.1c-.9.3-1.9.4-2.9.4zm26.6-7.9v4.1h3.6v3.3c-.4.2-1 .5-1.7.7-.7.2-1.5.3-2.5.3s-1.8-.2-2.6-.5-1.4-.8-2-1.4c-.6-.6-1-1.3-1.3-2.1-.3-.8-.5-1.7-.5-2.6 0-.9.1-1.8.4-2.6.3-.8.7-1.5 1.3-2.1.6-.6 1.2-1 2-1.4.8-.3 1.6-.5 2.6-.5 1.1 0 2.1.2 2.9.5.8.3 1.5.8 2.1 1.4l3.1-3.5c-1-1-2.2-1.6-3.6-2-1.4-.4-2.9-.6-4.5-.6s-3.1.3-4.4.8c-1.3.5-2.5 1.2-3.5 2.2-1 .9-1.7 2.1-2.3 3.4-.5 1.3-.8 2.8-.8 4.4 0 1.6.3 3.1.8 4.4.6 1.3 1.3 2.4 2.3 3.4 1 .9 2.1 1.6 3.5 2.1 1.3.5 2.8.7 4.4.7 1.5 0 3-.2 4.4-.5 1.4-.3 2.8-.8 4.1-1.5l.1-10.5-7.9.1zm25.5 11.5v-4.1h-9.9v-4.1l8.8-.1v-4.1l-8.8.1v-3.8l9.3-.1V10l-13.8.1.1 20.3zm7.7 0v-8.1h2.2l4.3 8.1h5.4l-5.2-8.6c1.4-.3 2.5-.9 3.3-1.9.7-1 1.1-2.2 1.1-3.7 0-1.2-.2-2.2-.6-3-.4-.8-1-1.4-1.7-1.9s-1.5-.8-2.4-1c-.9-.2-1.9-.3-2.9-.3h-7.9l.1 20.3 4.3.1zm2.8-16.5c.4 0 .8 0 1.2.1.4.1.8.2 1.1.3.3.2.6.4.8.7.2.3.3.7.3 1.2 0 .6-.1 1-.4 1.3-.2.3-.5.5-.9.7l-1.2.3H293.1v-4.6h3z"/><path d="M94.4 46.3h18.3c7.1 0 11.5 4.3 11.5 10.5 0 5.2-3.4 8.6-7.2 9.4 4.4.7 8 5.2 8 10.1 0 6.6-4.4 11.1-11.9 11.1H94.4V46.3zM111.8 64c4.6 0 7.1-2.8 7.1-6.6 0-3.7-2.5-6.6-7.1-6.6H99.5V64h12.3zm.3 18.7c4.8 0 7.6-2.7 7.6-7.1 0-3.8-2.6-7.1-7.6-7.1H99.5v14.1h12.6zm19.8-36.4h26.9v4.5H137V64h21.3v4.5H137v14.1h21.8v4.5h-26.9V46.3zm34.3 31.3c2.7 3 7.1 5.8 12.9 5.8 7.3 0 9.7-3.9 9.7-7.1 0-4.9-5-6.3-10.4-7.7-6.6-1.7-13.9-3.6-13.9-11.6 0-6.8 6-11.4 14.1-11.4 6.3 0 11.1 2.1 14.6 5.7l-3.1 3.8c-3.1-3.4-7.4-4.9-11.9-4.9-4.9 0-8.4 2.6-8.4 6.5 0 4.1 4.7 5.3 10 6.8 6.7 1.8 14.3 3.9 14.3 12.5 0 6-4.1 12-15.1 12-7.1 0-12.4-2.7-15.7-6.5l2.9-3.9zm34.2-31.3h5.1v25c0 7.5 4.1 12.2 11.6 12.2 7.6 0 11.6-4.7 11.6-12.2v-25h5.1v25c0 10.2-5.6 16.7-16.7 16.7s-16.7-6.6-16.7-16.7v-25z" class="st0"/><path d="M69.2 39.9v-.2c0-2.5-2-4.5-4.5-4.5h-.2c-1 0-1.9.3-2.6.8L39.5 23.1v-.5c0-2.5-2-4.5-4.5-4.5h-.2c-2.5 0-4.5 2-4.5 4.5v.5L7.9 36c-.3-.2-.5-.3-.8-.5v-26c1.6-.7 2.7-2.3 2.7-4.2C9.8 2.7 7.7.7 5.2.7S.6 2.7.6 5.3c0 1.9 1.1 3.5 2.7 4.2v26.1c-1.6.7-2.7 2.3-2.7 4.1v.2c0 1.8 1.1 3.4 2.7 4.1v25.8c-1.6.7-2.7 2.3-2.7 4.1v.2c0 2.5 2 4.5 4.5 4.5h.2c1 0 1.9-.3 2.6-.8l22.4 12.9v.5c0 2.5 2 4.5 4.5 4.5h.2c2.5 0 4.5-2 4.5-4.5V91v-.3l22.4-12.9c.7.5 1.6.8 2.6.8h.2c2.5 0 4.5-2 4.5-4.5V74c0-1.8-1.1-3.4-2.7-4.1V44.1c1.6-.7 2.7-2.3 2.7-4.2zm-6.5 29.2c-2.1-3.5-5.7-7.3-10.2-11-1 .8-2.1 1.6-3.1 2.4 5.7 4.6 9.3 9 10.8 12-.1.5-.2 1-.2 1.5v.5l-22.4 13c-.6-.4-1.2-.7-2-.8-2.8-4.7-5.5-15.3-5.5-29.7 0-2.2.1-4.4.2-6.4-1.3-.6-2.5-1.2-3.7-1.8-.2 2.7-.3 5.4-.3 8.2 0 11.6 1.8 23.3 5.2 30.1L10.9 75.2c3.8 0 8.9-1.2 14.5-3.4-.2-1.3-.3-2.6-.5-3.9-7.4 3-13 3.9-16.1 3.3-.5-.6-1.1-1.1-1.8-1.4V44.1c.7-.3 1.3-.8 1.8-1.4 4.6-.9 15.4 1.7 29 9.8 1.8 1.1 3.5 2.2 5.1 3.3l3.3-2.4c-2.1-1.4-4.2-2.8-6.4-4.2-11.2-6.7-21.9-10.5-28.9-10.6l20.6-11.9c-1.8 3.6-3.2 8.5-4 14.1 1.2.5 2.4 1 3.6 1.6 1-7.1 2.8-12.3 4.5-15.2.7-.1 1.4-.4 2-.8l22.4 13v.5c0 .5.1 1 .2 1.4-2.3 4.8-10 12.6-22.3 20-1.9 1.2-3.8 2.2-5.6 3.1.1 1.4.2 2.8.4 4.1 2.4-1.2 4.8-2.5 7.2-3.9 9.9-5.9 18.9-13.4 22.9-19.9v24.4z" class="st0"/></svg>