<svg xmlns="http://www.w3.org/2000/svg" role="img" viewBox="-6.50 -6.25 338.00 104.00"><title>Hyperledger Fabric logo</title><style>svg {enable-background:new 0 0 326.5 91}</style><style>.st1{fill:#f1564a}</style><path fill="#24272a" d="M118.5 20.2l8.7-.1.1 8.8h4.4l-.1-20.3h-4.4v7.6h-8.7V8.6l-4.5.1.1 20.3 4.5-.1zm24.1 8.8l4.5-.1-.1-8.6 7.6-11.7h-5.3l-4.5 7.6-4.4-7.5h-5.5l7.7 11.6zm19.7-.1V21h3.3c1.1 0 2.1-.1 3-.3.9-.2 1.7-.5 2.4-1s1.2-1.1 1.6-1.9c.4-.8.6-1.8.6-3s-.2-2.2-.6-3c-.4-.8-1-1.4-1.7-1.9s-1.5-.8-2.5-1c-.9-.2-1.9-.3-3-.3h-7.6l.1 20.3h4.4zm2.2-16.5c.4 0 .9 0 1.3.1.5 0 .9.2 1.3.3.4.2.7.4.9.7.2.3.4.7.4 1.2s-.1.9-.3 1.2c-.2.3-.4.6-.7.8-.3.2-.6.3-1 .4-.4.1-.8.1-1.2.1h-3v-4.8h2.3zm26.1 16.5v-4.1h-9.9v-4.1l8.8-.1v-4.1h-8.8v-3.7l9.3-.1V8.6h-13.8l.1 20.4zm14.1 0h5.4l-5.2-8.6c1.4-.3 2.5-.9 3.3-1.9.7-1 1.1-2.2 1.1-3.7 0-1.2-.2-2.2-.6-3-.4-.8-1-1.4-1.7-1.9s-1.5-.8-2.4-1c-.9-.2-1.9-.3-2.9-.3h-7.9l.1 20.3h4.5v-8.1h2.2l4.1 8.2zM198.2 17v-4.6h2.9c.4 0 .8 0 1.2.1.4.1.8.2 1.1.3.3.2.6.4.8.7.2.3.3.7.3 1.2 0 .6-.1 1-.4 1.3-.2.3-.5.5-.9.7l-1.2.3h-3.8zM226 28.9v-4.2l-8.3.1-.1-16.2h-4.5l.1 20.3zm17.5 0v-4.2l-9.8.1-.1-4.1 8.9-.1-.1-4.1h-8.8v-3.8h9.3V8.6h-13.8l.1 20.4zm18.5-2.6c1-.9 1.9-1.9 2.5-3.2.6-1.3.9-2.7.9-4.4 0-1.9-.3-3.4-1-4.7-.6-1.3-1.5-2.3-2.6-3.2-1.1-.8-2.4-1.4-3.8-1.7-1.5-.4-3-.5-4.6-.5h-6.7l.1 20.3h7.3c1.5 0 3-.2 4.3-.7 1.4-.4 2.6-1.1 3.6-1.9zm-8.5-1.5h-2.3l-.1-12.1h2.6c.9 0 1.8.1 2.7.3.8.2 1.6.6 2.2 1.1.6.5 1.1 1.1 1.5 1.8.4.7.6 1.6.6 2.6 0 1.1-.2 2.1-.5 2.9-.4.8-.9 1.4-1.5 1.9s-1.4.8-2.3 1.1c-.9.3-1.8.4-2.9.4zm26.6-7.9V21h3.6v3.3c-.4.2-1 .5-1.7.7-.7.2-1.5.3-2.5.3s-1.8-.2-2.6-.5-1.4-.8-2-1.4c-.6-.6-1-1.3-1.3-2.1-.3-.8-.5-1.7-.5-2.6 0-.9.1-1.8.4-2.6.3-.8.7-1.5 1.3-2.1.6-.6 1.2-1 2-1.4.8-.3 1.6-.5 2.6-.5 1.1 0 2.1.2 2.9.5.8.3 1.5.8 2.1 1.4l3.1-3.5c-1-1-2.2-1.6-3.6-2-1.4-.4-2.9-.6-4.5-.6s-3.1.3-4.4.8c-1.3.5-2.5 1.2-3.5 2.2-1 .9-1.7 2.1-2.3 3.4-.5 1.3-.8 2.8-.8 4.4 0 1.6.3 3.1.8 4.4.6 1.3 1.3 2.4 2.3 3.4 1 .9 2.1 1.6 3.5 2.1 1.3.5 2.8.7 4.4.7 1.5 0 3-.2 4.4-.5 1.4-.3 2.8-.8 4.1-1.5l.1-10.5-7.9.1zm25.5 11.5v-4.1h-9.8l-.1-4.1 8.9-.1-.1-4.1-8.8.1v-3.8l9.3-.1V8.1l-13.8.1.1 20.3zm7.7 0v-8.1h2.2l4.3 8.1h5.4l-5.2-8.6c1.4-.3 2.5-.9 3.3-1.9.7-1 1.1-2.2 1.1-3.7 0-1.2-.2-2.2-.6-3-.4-.8-1-1.4-1.7-1.9s-1.5-.8-2.4-1c-.9-.2-1.9-.3-2.9-.3h-7.9l.1 20.3 4.3.1zm2.9-16.5c.4 0 .8 0 1.2.1.4.1.8.2 1.1.3.3.2.6.4.8.7.2.3.3.7.3 1.2 0 .6-.1 1-.4 1.3-.2.3-.5.5-.9.7l-1.2.3H313.2v-4.6h3z"/><path d="M114.2 43.5h26.2v5.3h-20.5v13.1H139v5.3h-19.1v18h-5.6V43.5zm43.3 0h5.1l17.8 41.7h-6.6l-4.2-10.3h-19.8l-4.1 10.3h-6.6l18.4-41.7zm10.1 26.4l-7.8-19.1h-.1l-7.9 19.1h15.8zm15.9-26.4H198c7.2 0 12.7 3.4 12.7 10.4 0 4.8-2.9 7.8-7.2 9.2v.1c5 .4 9 4.8 9 10.4 0 7.5-6.5 11.6-14.7 11.6h-14.3V43.5zm5.7 17.3h7.7c4.3 0 7.8-1.7 7.8-6.2 0-3.3-2.1-6.1-6.6-6.1h-8.9v12.3zm0 19.4h8.3c3.4 0 9-1.2 9-7.1 0-4.9-3.5-7.4-8.9-7.4h-8.4v14.5zm30.2-36.7h14.7c10.7 0 13.4 6.4 13.4 11.7 0 5.3-3.9 10.3-10.2 11l11.8 19H242l-10.6-18.4h-6.3v18.4h-5.7V43.5zm5.7 18.4h7.4c4.5 0 8.9-1.1 8.9-6.7s-4.5-6.7-8.9-6.7h-7.4v13.4zm30.3-18.4h5.7v41.7h-5.7V43.5zm43 9c-2.4-3.1-6.2-4.8-10.1-4.8-9.4 0-15.5 7.5-15.5 16.9 0 8.8 5.8 16.2 15.5 16.2 4.8 0 8.4-2.1 10.9-5.6l4.8 3.6c-1.2 1.7-6.2 7.3-15.8 7.3-13.2 0-21.4-11.1-21.4-21.5 0-12.9 8.9-22.2 21.7-22.2 5.5 0 11.2 2.1 14.6 6.5l-4.7 3.6z" class="st1"/><path d="M51.5 85.2c-.4.8-1.4 1.2-2.2.8l-18.6-8.9c-.8-.4-1.2-1.4-.8-2.2l2-4.1c.4-.8 1.4-1.2 2.2-.8l18.6 8.9c.8.4 1.2 1.4.8 2.2l-2 4.1zM14.6 67.6c-.4.8-1.4 1.2-2.2.8L1 63c-.8-.4-1.2-1.4-.8-2.2l2-4.1c.4-.8 1.4-1.2 2.2-.8l11.4 5.4c.8.4 1.2 1.4.8 2.2l-2 4.1zm74.5-32.4c-.4.8-1.4 1.2-2.2.8l-11.4-5.4c-.8-.4-1.2-1.4-.8-2.2l2-4.1c.4-.8 1.4-1.2 2.2-.8l11.4 5.4c.8.4 1.2 1.4.8 2.2l-2 4.1zM59.4 21.1c-.4.8-1.4 1.2-2.2.8L38.7 13c-.8-.4-1.2-1.4-.8-2.2l2-4.1c.4-.8 1.4-1.2 2.2-.8l18.5 8.8c.8.4 1.2 1.4.8 2.2l-2 4.2zm-27.2 9.6c-.4.8-1.4 1.2-2.2.8l-11.4-5.4c-.8-.4-1.2-1.4-.8-2.2l2-4.1c.4-.8 1.4-1.2 2.2-.8l11.4 5.4c.8.4 1.2 1.4.8 2.2l-2 4.1zm36.9 17.6c-.4.8-1.4 1.2-2.2.8l-18.6-8.9c-.8-.4-1.2-1.4-.8-2.2l2-4.1c.4-.8 1.4-1.2 2.2-.8L70.3 42c.8.4 1.2 1.4.8 2.2l-2 4.1zm2.4 23.8c-.4.8-1.4 1.2-2.2.8l-11.4-5.5c-.8-.4-1.2-1.4-.8-2.2l2-4.1c.4-.8 1.4-1.2 2.2-.8l11.4 5.5c.8.4 1.2 1.4.8 2.2l-2 4.1zM41.8 58c-.4.8-1.4 1.2-2.2.8L21 49.9c-.8-.4-1.2-1.4-.8-2.2l2-4.1c.4-.8 1.4-1.2 2.2-.8L43 51.6c.8.4 1.2 1.4.8 2.2l-2 4.2z" class="st1"/><path fill="#97d6d7" d="M12.7 52.9c-.4.8-1.4 1.2-2.2.8l-4.1-2c-.8-.4-1.2-1.4-.8-2.2l8.9-18.6c.4-.8 1.4-1.2 2.2-.8l4.1 2c.8.4 1.2 1.4.8 2.2l-8.9 18.6zM30.3 16c-.4.8-1.4 1.2-2.2.8l-4.1-2c-.8-.4-1.2-1.4-.8-2.2l5.4-11.3C29 .5 30 .1 30.8.5l4.1 2c.8.4 1.2 1.4.8 2.2L30.3 16zm32.4 74.4c-.4.8-1.4 1.2-2.2.8l-4.1-2c-.8-.4-1.2-1.4-.8-2.2L61 75.7c.4-.8 1.4-1.2 2.2-.8l4.1 2c.8.4 1.2 1.4.8 2.2l-5.4 11.3zm14.1-29.5c-.4.8-1.4 1.2-2.2.8l-4.1-2c-.8-.4-1.2-1.4-.8-2.2l8.9-18.6c.4-.8 1.4-1.2 2.2-.8l4.1 2c.8.4 1.2 1.4.8 2.2l-8.9 18.6zm-9.6-27.3c-.4.8-1.4 1.2-2.2.8l-4.1-2c-.8-.4-1.2-1.4-.8-2.2L65.4 19c.4-.8 1.4-1.2 2.2-.8l4.1 2c.8.4 1.2 1.4.8 2.2l-5.3 11.2zM49.6 70.5c-.4.8-1.4 1.2-2.2.8l-4.1-2c-.8-.4-1.2-1.4-.8-2.2l8.9-18.6c.4-.8 1.4-1.2 2.2-.8l4.1 2c.8.4 1.2 1.4.8 2.2l-8.9 18.6zm-23.8 2.3c-.4.8-1.4 1.2-2.2.8l-4.1-2c-.8-.4-1.2-1.4-.8-2.2L24 58.1c.4-.8 1.4-1.2 2.2-.8l4.1 2c.8.4 1.2 1.4.8 2.2l-5.3 11.3zm14.1-29.5c-.4.8-1.4 1.2-2.2.8l-4.1-2c-.8-.4-1.2-1.4-.8-2.2l8.9-18.6c.4-.8 1.4-1.2 2.2-.8l4.1 2c.8.4 1.2 1.4.8 2.2l-8.9 18.6z"/></svg>