<svg xmlns="http://www.w3.org/2000/svg" role="img" viewBox="-14.85 -14.85 772.20 232.70"><title>Hyperledger Iroha logo</title><style>svg {enable-background:new 0 0 743 203.4}</style><style>.st0{fill:#e3262d}.st1,.st3{fill:none;stroke:#fff;stroke-width:1.4384;stroke-miterlimit:10}.st3{fill:#fff}</style><path d="M213.8 84.7l-18.5-4 12.5-14.5c-10.9-10.8-34.2-13.6-58.2-5.8-3.5 1.1-6.8 2.4-10 3.9.4-3.4.6-7 .6-10.6 0-25.2-9.9-46.6-23.5-53.6l-10 16.4L97.1 0C83.5 7 73.6 28.3 73.6 53.5c0 3.6.2 7.2.6 10.6-3.2-1.5-6.5-2.8-10-3.9-24-7.8-47.3-5-58.2 5.8l12.5 14.5L0 84.7c2.5 15.1 19.7 31.1 43.7 38.9 3.4 1.1 6.9 2 10.2 2.7-2.3 2.5-4.6 5.3-6.7 8.2-14.8 20.4-19.4 43.5-12.5 57.2l17.7-7.4-1.9 18.8c15.1 2.3 35.7-9.1 50.5-29.5 2.2-3 4.1-6.1 5.9-9.1 1.7 3.1 3.7 6.1 5.9 9.1 14.8 20.4 35.3 31.8 50.5 29.5l-1.9-18.8 17.7 7.4c6.9-13.7 2.4-36.8-12.5-57.2-2.1-2.9-4.4-5.7-6.7-8.2 3.4-.7 6.8-1.6 10.2-2.7 24-7.8 41.3-23.8 43.7-38.9z" class="st0"/><path d="M159.8 127l-52.9 38.3L54 127l20.3-61.9h65.3z" class="st1"/><path fill="none" stroke="#fff" stroke-miterlimit="10" stroke-width="1.445" d="M106.6 132.7l31.4-2.8m-62.8 0l31.4 2.8"/><path d="M138 129.9L106.6 148l-31.4-18.1V93.7l31.4-18.1L138 93.7zm0-36.3l-31.4-2.8m-31.4 2.9l31.4-2.9m31.4 2.9l-13.3 28.5M106.6 148l18.1-25.8M75.2 93.7l13.3 28.5m18.1 25.8l-18.1-25.8" class="st1"/><path d="M124.7 122.2l-18.1-31.4-18.1 31.4z" class="st1"/><path d="M88.5 101.1l18.1 31.3 18.1-31.3zm-13.3-7.4l13.3 7.4m36.2 0l13.3-7.4m-31.4 38.7V148" class="st1"/><circle cx="106.6" cy="148" r="2.2" class="st3"/><circle cx="75.2" cy="93.7" r="2.2" class="st3"/><circle cx="88.5" cy="122.2" r="2.2" class="st3"/><circle cx="124.7" cy="122.2" r="2.2" class="st3"/><circle cx="106.6" cy="90.8" r="2.2" class="st3"/><circle cx="138" cy="93.7" r="2.2" class="st3"/><path d="M138 129.9l-13.3-28.8m-18.1-25.5l18.1 25.5m-49.5 28.8l13.3-28.8m18.1-25.5l-18.1 25.5" class="st1"/><path d="M106.6 148l-26.1-2m52.3.4l-26.2 1.6M64.1 96.3l11.1-2.6m74.6 2.6L138 93.7m-62.8 36.2L54 127m84 2.9l21.8-2.9M74.3 65l32.3 10.6m33-10.6l-33 10.6" class="st1"/><path d="M106.9 65.1l-.2-48.7M64.1 96.3L18.5 80.7m34 103.6l28-38.3m80.9 38.3l-28.6-37.9m62.6-65.7l-45.6 15.6m10 30.7l35.6-46.3m-55.8-15.6l55.8 15.6M74.3 65.1l32.4-48.7m32.9 48.7l-32.9-48.7M53.9 126.3L18.5 80.7m55.8-15.6L18.5 80.7m35.4 45.6l-1.4 58m54.4-19l-54.4 19M159.8 127l1.6 57.3m-54.5-19l54.5 19" class="st1"/><g><path fill="#2f3134" d="M262.3 16.4l10.5-.1.1 17.8 20.5-.1-.1-17.8 10.5-.1.3 47.8-10.6.1-.1-20.6H273l.1 20.6-10.5.1-.3-47.7zm62.4 27l-18.1-27.3 13.1-.1L330 33.9 340.6 16l12.5-.1-17.8 27.5.1 20.4-10.5.1-.2-20.5zm31.2-27.5l17.8-.1c2.5 0 4.8.2 7 .6 2.2.4 4.1 1.2 5.8 2.3 1.6 1.1 3 2.6 3.9 4.4 1 1.9 1.5 4.2 1.5 7s-.4 5.1-1.3 7c-.9 1.9-2.1 3.4-3.7 4.5s-3.4 1.9-5.6 2.4c-2.2.5-4.5.7-7 .7h-7.7l.1 18.6-10.5.1-.3-47.5zM366.6 36h7c.9 0 1.9-.1 2.7-.3.9-.2 1.7-.5 2.4-.9s1.3-1 1.7-1.8c.4-.7.6-1.7.6-2.8 0-1.2-.3-2.2-.9-2.9-.6-.7-1.3-1.3-2.2-1.7-.9-.4-1.9-.7-2.9-.8-1.1-.1-2.1-.2-3.1-.1h-5.4l.1 11.3zm31.6-20.4l32.5-.2.1 9.7-21.9.1v8.9l20.7-.1.1 9.7-20.7.1.1 9.7 23.2-.1.1 9.7-33.7.2-.5-47.7zm41.4-.2l18.5-.1c2.4 0 4.7.2 6.9.7 2.2.5 4.1 1.2 5.8 2.3 1.6 1.1 3 2.6 3.9 4.4 1 1.9 1.5 4.2 1.5 7 0 3.4-.8 6.2-2.6 8.6-1.7 2.4-4.3 3.9-7.7 4.5L478.2 63h-12.6l-10.1-19h-5.2l.1 19.1-10.5.1-.3-47.8zm10.7 19.7h6.2c.9 0 1.9 0 3-.1s2-.3 2.9-.6c.9-.3 1.6-.9 2.1-1.6.6-.7.8-1.7.8-3 0-1.2-.3-2.2-.8-2.9s-1.1-1.3-1.9-1.6c-.8-.4-1.6-.6-2.6-.8-1-.1-2-.2-2.9-.2h-6.9l.1 10.8zm32.8-19.9l10.5-.1.2 38.1 19.5-.1.1 9.7-30 .2-.3-47.8zm35.6-.2l32.5-.2.1 9.7-21.9.1v8.9l20.7-.1.1 9.7-20.7.1.1 9.7 23.2-.1.1 9.7-33.9.3-.3-47.8zm41.5-.2l15.8-.1c3.8 0 7.5.4 10.9 1.2 3.4.8 6.5 2.2 9 4.1 2.6 1.9 4.6 4.4 6.2 7.4 1.5 3.1 2.3 6.8 2.3 11.1 0 3.9-.7 7.3-2.1 10.2-1.4 3-3.4 5.4-5.9 7.5-2.5 2-5.3 3.5-8.5 4.6-3.2 1.1-6.6 1.6-10.2 1.6l-17.2.1-.3-47.7zm10.7 38h5.5c2.4 0 4.7-.3 6.8-.8 2.1-.5 3.9-1.3 5.4-2.5 1.5-1.2 2.7-2.7 3.6-4.5.9-1.9 1.3-4.2 1.3-6.9 0-2.3-.5-4.4-1.4-6.1-.9-1.7-2.1-3.1-3.6-4.3-1.5-1.1-3.2-2-5.2-2.5-2-.6-4.1-.8-6.3-.8h-6.2l.1 28.4zm83.3 5.9c-3.1 1.6-6.3 2.8-9.7 3.6-3.4.7-6.8 1.1-10.3 1.1-3.7 0-7.2-.5-10.3-1.7-3.2-1.2-5.9-2.8-8.2-5-2.3-2.2-4.1-4.8-5.4-7.9-1.3-3.1-2-6.6-2-10.4 0-3.8.6-7.3 1.9-10.4 1.3-3.1 3-5.8 5.3-8s5-3.9 8.1-5.1c3.1-1.2 6.6-1.8 10.3-1.8 3.8 0 7.4.4 10.6 1.3 3.2.9 6.1 2.5 8.5 4.7l-7.4 8.1c-1.4-1.5-3.1-2.6-4.9-3.4-1.8-.8-4.1-1.1-6.8-1.1-2.3 0-4.3.4-6.1 1.2-1.8.8-3.4 1.8-4.7 3.2-1.3 1.4-2.3 3-3 4.9-.7 1.9-1 3.9-1 6.1 0 2.3.4 4.3 1.1 6.2.7 1.9 1.7 3.5 3 4.8 1.3 1.4 2.9 2.4 4.7 3.2 1.8.8 3.9 1.1 6.1 1.1 2.3 0 4.3-.3 5.9-.8 1.7-.5 3-1.1 4-1.6v-7.8h-8.6l-.1-9.7 18.7-.1.3 25.3zm8.8-44.5l32.5-.2.1 9.7-21.9.1v8.9l20.7-.1.1 9.7-20.7.1.1 9.7 23.2-.1.1 9.7-34 .3-.2-47.8zm41.4-.2l18.5-.1c2.4 0 4.7.2 6.9.7 2.2.5 4.1 1.2 5.8 2.3 1.6 1.1 3 2.6 3.9 4.4 1 1.9 1.5 4.2 1.5 7 0 3.4-.8 6.2-2.6 8.6-1.7 2.4-4.3 3.9-7.7 4.5L743 61.6l-12.6.1-10.1-19h-5.2l.1 19.1-10.5.1-.3-47.9zm10.7 19.7h6.2c.9 0 1.9 0 3-.1s2-.3 2.9-.6c.9-.3 1.6-.9 2.1-1.6.6-.7.8-1.7.8-3 0-1.2-.3-2.2-.8-2.9-.5-.7-1.1-1.3-1.9-1.6-.8-.4-1.6-.6-2.6-.8-1-.1-2-.2-2.9-.2H715l.1 10.8z"/></g><g><path d="M262.3 90.6H275V184h-12.7V90.6zm33.1 0h32.8c23.9 0 29.9 14.4 29.9 26.1 0 11.9-8.8 23.1-22.9 24.7l26.5 42.6h-15.8l-23.7-41.1h-14.1V184h-12.7V90.6zm12.7 41.1h16.6c10 0 20-2.4 20-15 0-12.7-10-15-20-15h-16.6v30zm58.6 5.5c0-27.7 20.2-49.1 48.7-49.1 28.5 0 48.7 21.4 48.7 49.1s-20.2 49.1-48.7 49.1c-28.5 0-48.7-21.4-48.7-49.1zm83.9 0c0-20.4-13.8-37.2-35.2-37.2-21.4 0-35.2 16.7-35.2 37.2s13.8 37.2 35.2 37.2c21.3 0 35.2-16.7 35.2-37.2zm28.7-46.6H492v38.8h48.4V90.6H553V184h-12.7v-42.7h-48.4V184h-12.7V90.6zm124.5 0h11.5l40 93.4h-14.8l-9.4-23.1h-44.4l-9.2 23.1h-14.8l41.1-93.4zm22.7 59.2l-17.4-42.9h-.3l-17.7 42.9h35.4z" class="st0"/></g></svg>