<svg xmlns="http://www.w3.org/2000/svg" role="img" viewBox="-1.49 -1.49 77.48 77.48"><title>Iagon logo</title><style>svg {enable-background:new 0 0 74.6 74.6}</style><g><circle cx="37.3" cy="37.3" r="37.3" fill="#fff"/><g><linearGradient id="SVGID_1_" x1="25.407" x2="25.407" y1="35.32" y2="27.914" gradientTransform="matrix(1 0 0 -1 0 68.54)" gradientUnits="userSpaceOnUse"><stop offset="0" stop-color="#369ee4"/><stop offset="1" stop-color="#7f4ceb"/></linearGradient><path fill="url(#SVGID_1_)" d="M34,37.1c-4.6,2.6-10.2,1.9-13.9-1.9l-1.4-1.4c-1.2,0-2.5-0.1-3.6-0.6l3.4,3.4c4.6,4.6,11.6,5.2,17,1.9 c-0.2-0.2-0.3-0.3-0.5-0.5L34,37.1z"/><linearGradient id="SVGID_2_" x1="33.925" x2="33.925" y1="49.206" y2="27.783" gradientTransform="matrix(1 0 0 -1 0 68.54)" gradientUnits="userSpaceOnUse"><stop offset="0" stop-color="#369ee4"/><stop offset="1" stop-color="#7f4ceb"/></linearGradient><path fill="url(#SVGID_2_)" d="M54.2,35.2c-3.8,3.8-9.4,4.4-13.9,1.9c-0.6-0.3-1.1-0.6-1.8-1.2l1.5-1.5l4.5-4.5c0,0-0.2-0.5-0.5-0.7 l-0.9-0.9L38.6,33l-1.4,1.3l-1.4-1.4l-4.4-4.4l-1.6-1.6l1.4-1.4l4.6-4.6l-1.5-1.5L29.5,24L28,25.6c-0.3-0.2-1-0.8-1.6-1.2 c-2.1-1.3-4.5-1.9-6.9-2c-1.1,0-2.3,0-3.4,0.2c-2.4,0.6-4.8,1.7-6.7,3.6l-0.6,0.6l0.9,0.9c1.9,1.9,4.2,3.1,6.6,3.7 c1.1,0.2,2.2,0.4,3.3,0.4c2.4-0.1,4.8-0.7,7-2.1l-0.5-0.5c-0.4-0.4-0.8-0.6-1.3-0.9c-2.3,1.3-5,1.7-7.6,1.3 c-1.9-0.3-3.8-1.1-5.4-2.5c1.6-1.3,3.5-2.1,5.4-2.5c2.6-0.4,5.2,0,7.5,1.2c0.6,0.3,1.4,0.7,1.9,1.2c0.3,0.2,0.6,0.4,0.9,0.6 l0.7,0.7l1.5,1.5l4.5,4.5l1.5,1.5l0.7,0.7c0.2,0.2,0.4,0.6,0.6,0.8c0.6,0.5,1,0.9,1.6,1.2c5.3,3.3,12.3,2.6,16.9-2l3.4-3.4 c-1,0.4-2.3,0.5-3.6,0.6L54.2,35.2z"/><linearGradient id="SVGID_3_" x1="40.384" x2="40.384" y1="55.265" y2="36.612" gradientTransform="matrix(1 0 0 -1 0 68.54)" gradientUnits="userSpaceOnUse"><stop offset="0" stop-color="#369ee4"/><stop offset="1" stop-color="#7f4ceb"/></linearGradient><path fill="url(#SVGID_3_)" d="M65,26.2c-1.9-1.9-4.3-3.1-6.8-3.6c-1.1-0.2-2.3-0.3-3.4-0.3c-2.4,0.1-4.8,0.6-6.9,1.9 c-0.6,0.4-1.3,1-1.7,1.2l-1.5-1.5l-4.5-4.5l-1.5-1.5c0.3-0.2,1.1-0.9,1.8-1.2c4.5-2.3,10.3-1.7,14,2.1l1.4,1.4 c0.9,0.3,2.2,0.4,3.6,0.6l-3.4-3.4c-4.7-4.7-11.8-5.2-17.1-1.9c-0.6,0.4-1.2,0.8-1.8,1.3c-0.6-0.5-1.2-1-1.8-1.3 c-5.3-3.3-12.4-2.7-17,1.9L15,20.6c1.3-0.1,2.6-0.2,3.5-0.5l1.4-1.4c3.5-3.5,8.6-4.3,12.9-2.4c2.3,1.1,3.3,1.9,5.5,4l0.6,0.6 l4.5,4.5l1.5,1.5l0.7,0.7c0.2,0.2,0.4,0.6,0.7,0.8c0.6,0.5,1.1,0.9,1.7,1.3c2.1,1.3,4.5,2,6.9,2c1.1,0,2.2-0.2,3.2-0.4 c2.4-0.6,4.7-1.9,6.6-3.7l0.9-0.9L65,26.2z M57.1,29.6c-2.6,0.4-5.2,0-7.6-1.2c-0.6-0.3-1.3-0.7-1.9-1.2c0.6-0.5,1.2-0.9,1.9-1.2 c2.3-1.3,5-1.7,7.6-1.2c1.9,0.3,3.8,1.1,5.4,2.5C60.9,28.5,59.1,29.3,57.1,29.6z"/><path fill="#262628" d="M16.3,47.5v8.1l1.1,0.1v1.5h-4.6v-1.5l0.6-0.1c0.4-0.1,0.6-0.3,0.6-0.6v-5.4c0-0.2-0.1-0.3-0.1-0.4 c-0.1-0.1-0.2-0.1-0.4-0.1L12.8,49v-1.5H16.3z M13.8,45.8c-0.3-0.3-0.4-0.6-0.4-1c0-0.4,0.1-0.8,0.4-1c0.3-0.3,0.6-0.4,1.1-0.4 c0.4,0,0.8,0.1,1.1,0.4c0.3,0.3,0.4,0.6,0.4,1c0,0.4-0.1,0.8-0.4,1c-0.2,0.2-0.6,0.3-1,0.3C14.5,46.1,14.1,46,13.8,45.8z M27.3,47.8V55c0,0.2,0,0.3,0.1,0.4c0.1,0.1,0.2,0.1,0.4,0.1l0.6,0.1v1.5h-3.1V56h-0.1c-0.6,0.9-1.5,1.4-2.7,1.4 c-1.3,0-2.3-0.4-2.9-1.3s-1-2-1-3.4c0-1.7,0.4-3.1,1.3-4.1c0.8-1,2.1-1.5,3.9-1.5C24.9,47.1,26,47.4,27.3,47.8z M25,54.1v-5 c-0.4-0.1-0.8-0.3-1.5-0.3c-0.8,0-1.5,0.3-1.9,1c-0.4,0.7-0.6,1.6-0.6,2.8c0,2.1,0.7,3.1,2,3.1c0.6,0,1.1-0.1,1.4-0.5 S25,54.5,25,54.1z M38.2,57.2c-0.1,1.5-0.6,2.5-1.3,3.1c-0.7,0.7-1.8,1-3.4,1s-2.7-0.2-3.6-0.6v-2.7l1.8-0.1v0.9 c0,0.3,0.1,0.6,0.5,0.7c0.4,0.1,0.8,0.2,1.3,0.2c0.8,0,1.4-0.3,1.8-0.8c0.4-0.5,0.5-1.2,0.5-2.1v-1c-0.6,0.7-1.5,1.1-2.6,1.1 c-0.7,0-1.3-0.1-1.8-0.4c-0.5-0.3-0.9-0.6-1.2-1c-0.6-0.9-0.8-1.9-0.8-3.1c0-1.7,0.5-2.9,1.4-3.8c0.9-0.9,2.2-1.3,3.6-1.3 c1.3,0,2.5,0.2,3.6,0.7v7.3C38.2,56.1,38.2,56.8,38.2,57.2z M36,53.2V49c-0.4-0.1-1-0.2-1.5-0.2c-0.8,0-1.4,0.3-1.8,0.8 C32.2,50.2,32,51,32,52c0,2,0.7,3.1,2,3.1c0.6,0,1.1-0.1,1.4-0.5C35.8,54.2,36,53.8,36,53.2z M44.4,55.8c1.4,0,2.1-1.1,2.1-3.4 c0-1.1-0.1-2-0.5-2.6c-0.3-0.6-0.8-0.9-1.6-0.9c-0.8,0-1.3,0.3-1.6,0.8c-0.4,0.6-0.5,1.3-0.5,2.3c0,1.8,0.4,2.9,1,3.4 C43.7,55.6,44,55.8,44.4,55.8z M39.9,52.3c0-1,0.1-1.7,0.4-2.4c0.3-0.7,0.7-1.3,1.1-1.6c0.9-0.7,2-1,3.1-1c0.8,0,1.4,0.1,2,0.4 c0.6,0.3,1,0.6,1.3,0.8c0.3,0.3,0.6,0.8,0.8,1.5c0.2,0.6,0.4,1.3,0.4,2.2c0,1.7-0.4,3.1-1.3,4c-0.8,0.9-2,1.4-3.4,1.4 c-1.3,0-2.4-0.4-3.2-1.3C40.4,55.3,39.9,54,39.9,52.3z M50.1,49v-1.5h3.3v1.3c0.4-0.5,0.8-0.8,1.3-1.1c0.6-0.3,1.2-0.4,1.8-0.4 c1,0,1.8,0.3,2.2,0.8c0.6,0.6,0.8,1.4,0.8,2.5v5l1.1,0.1v1.5h-4.6v-1.5l0.6-0.1c0.2,0,0.4-0.1,0.4-0.1c0.1-0.1,0.1-0.3,0.1-0.5v-4 c0-0.7-0.1-1.3-0.4-1.5c-0.2-0.3-0.6-0.5-1.3-0.5s-1.1,0.2-1.5,0.6c-0.4,0.4-0.6,0.8-0.6,1.4v4.7l1.1,0.1v1.5h-4.6v-1.5l0.6-0.1 c0.2,0,0.4-0.1,0.4-0.1c0.1-0.1,0.1-0.3,0.1-0.5v-5.4c0-0.4-0.1-0.6-0.5-0.6H50.1z"/></g></g></svg>