<svg xmlns="http://www.w3.org/2000/svg" role="img" viewBox="-5.66 41.34 411.06 162.06"><title>IBM (HCSP) logo</title><style>svg {enable-background:new 0 0 400 245}</style><style>.st7{fill:#4f81c2}</style><path d="M388.17 178.08c2.25 0 4.18.78 5.76 2.38 1.59 1.58 2.38 3.5 2.38 5.74 0 2.26-.79 4.18-2.38 5.78-1.58 1.6-3.49 2.39-5.76 2.39-2.25 0-4.18-.79-5.75-2.39-1.58-1.59-2.37-3.52-2.37-5.78 0-2.24.78-4.15 2.38-5.74 1.58-1.59 3.5-2.38 5.74-2.38zm9.46 8.1c0-2.59-.92-4.82-2.76-6.65-1.84-1.84-4.08-2.75-6.69-2.75-2.6 0-4.82.92-6.65 2.75-1.85 1.84-2.76 4.06-2.76 6.65 0 2.63.91 4.86 2.73 6.7 1.84 1.84 4.07 2.78 6.68 2.78 2.62 0 4.85-.93 6.69-2.78 1.84-1.85 2.76-4.09 2.76-6.7zm-6.94-2.03c0 .78-.36 1.32-1.08 1.6-.39.15-.97.22-1.75.22h-1.66v-3.7h1.57c1.02 0 1.76.13 2.23.38.47.26.69.76.69 1.5zm-6.32-3.16v10.35h1.83v-4.06h1.45c.97 0 1.65.11 2.04.33.65.4.98 1.18.98 2.38v.81l.03.33c.02.05.02.09.03.12 0 .03.02.07.03.1h1.71l-.06-.13c-.05-.09-.08-.27-.09-.54-.02-.27-.02-.53-.02-.78v-.75c0-.54-.19-1.06-.56-1.61-.38-.55-.96-.89-1.76-1.02.64-.1 1.14-.27 1.5-.5.66-.44 1-1.12 1-2.04 0-1.31-.54-2.18-1.61-2.63-.6-.24-1.55-.37-2.83-.37h-3.67z" class="st7"/><path d="M2.37 49.34h71.76v9.34H2.37v-9.34zm0 19.62h71.76v9.3H2.37v-9.3zm20.49 19.55h30.78v9.34H22.86v-9.34zm0 19.59h30.78v9.29H22.86v-9.29zm0 19.53h30.78v9.33H22.86v-9.33zm0 19.56h30.78v9.38H22.86v-9.38zM2.37 166.78h71.76v9.33H2.37v-9.33zm0 19.58h71.76v9.3H2.37v-9.3zm81.97-117.4h110.59c.95 1.69 2.77 7.07 3.19 9.3H84.34v-9.3zm20.55 19.55h30.7v9.34h-30.7v-9.34zm61.46 0h32.79c.1 2.17-.79 7.24-1.41 9.34h-31.39v-9.34h.01zm-61.46 39.12h78.98c2.47 1.7 6.53 6.59 8.53 9.33h-87.51v-9.33zm0 19.56h30.7v9.38h-30.7v-9.38zm61.46 0h31.2c.68 1.44 1.68 7.34 1.78 9.38h-32.98v-9.38zm-82.01 19.59h113.69c-.16 2.34-1.92 7.57-2.87 9.33H84.34v-9.33zm0 19.58h102.8c-9.11 7.64-17.16 9.3-31.27 9.3H84.34v-9.3zM207.37 49.34h58.6l3.09 9.34h-61.69v-9.34zm0 19.62h65.08l3.07 9.3h-68.15v-9.3zm20.48 19.55h51.11l3.08 9.34h-54.19v-9.34zm65.45 19.59h57.55v9.29H320.1v-8.2l-2.82 8.2h-27.06l3.08-9.29zm-4.77 9.29h-27.11l-2.81-8.24v8.24h-30.76v-9.29h57.59l3.09 9.29zm-60.68 10.24h30.76v9.33h-30.76v-9.33zm0 19.56h30.76v9.38h-30.76v-9.38zm-20.48 19.59h51.24v9.33h-51.24v-9.33zm0 19.58h51.24v9.3h-51.24v-9.3zM312.81 49.34h58.53v9.34h-61.67l3.14-9.34zm-6.51 19.62h65.04v9.3h-68.13l3.09-9.3zm-6.51 19.55h51.06v9.34H296.7l3.09-9.34zm20.31 39.12h30.75v9.33H320.1v-9.33zm0 19.56h30.75v9.38H320.1v-9.38zm0 19.59h51.24v9.33H320.1v-9.33zm0 19.58h51.24v9.3H320.1v-9.3zm-55.21-58.73h48.97l-3.18 9.33h-42.6l-3.19-9.33zm6.63 19.56h35.7l-3.17 9.38h-29.36l-3.17-9.38zm6.62 19.59h22.44l-3.17 9.33h-16.08l-3.19-9.33zm6.65 19.58h9.19l-3.19 9.3h-2.84l-3.16-9.3zm-179.9-68.95h78.98c2.58-1.78 7.29-6.7 9.2-9.31h-88.18v9.31zM84.34 58.68h102.8c-9.11-7.63-17.16-9.3-31.27-9.3H84.34v9.3z" class="st7"/></svg>