<svg xmlns="http://www.w3.org/2000/svg" role="img" viewBox="32.19 161.19 926.12 696.62"><title>INATBA logo</title><defs><style>.cls-1{fill:#03afd8}.cls-3{fill:#174082}</style></defs><path d="M640.88 453.99h-274.7V179.3h274.7v274.69z" class="cls-3"/><path fill="#fff" d="M412.41 208.67h5.46v33.56h-5.46zm106.36.01v33.56h-5.03l-19.85-24.41v24.41h-5.46v-33.56h5.03l19.85 24.44v-24.44h5.46zm-5.65 116.26H493.8l-2.58 5.61h-6l15.58-33.56h5.32l15.58 33.56h-5.99l-2.59-5.61zm-16.78-5.46h14.23l-7.14-15.34-7.1 15.34zm98.19-17.03v28.1h-5.47v-28.1h-12.7v-5.46h30.82v5.46h-12.65zM417.38 385.3c1.43 0 2.74.23 3.93.69 1.18.46 2.2 1.11 3.05 1.94.84.83 1.51 1.82 1.99 2.97.48 1.15.72 2.42.72 3.79 0 1.67-.38 3.14-1.13 4.41-.75 1.28-1.75 2.27-3 2.97 1.27.7 2.28 1.69 3.02 2.97.74 1.27 1.1 2.75 1.1 4.41 0 1.38-.24 2.64-.72 3.79s-1.14 2.15-1.99 2.97c-.84.83-1.86 1.48-3.05 1.94-1.19.46-2.49.69-3.93.69h-14.15v-33.56h14.15zm4.22 9.63c0-1.25-.39-2.25-1.18-3.02-.78-.77-1.81-1.15-3.09-1.15h-8.62v8.58h8.77c1.21 0 2.2-.4 2.97-1.22s1.15-1.88 1.15-3.19m0 14.29c0-1.31-.39-2.37-1.15-3.19-.77-.82-1.75-1.23-2.97-1.23h-8.77v8.59h8.62c1.28 0 2.32-.38 3.09-1.13.78-.75 1.18-1.77 1.18-3.05m91.85 9.64H493.6l-2.66 5.76h-6.16l16.01-34.47h5.47l16 34.47h-6.16l-2.66-5.76zm-17.24-5.61h14.63l-7.34-15.77-7.29 15.77z"/><path d="M608.49 210.81l-31.22 31.22-1.94-1.93 31.23-31.22 1.93 1.93zM393.07 312.4h44.16v2.73h-44.16z" class="cls-1"/><path d="M577.23226 392.3313l1.98697-1.98697 32.07437 32.07437-1.98697 1.98697z" class="cls-1"/><path d="M160.79 556.4h26.42v114.17h-26.42V556.4zm166.85 0v114.17h-21.69l-56.92-69.32v69.32h-26.1V556.4h21.86l56.76 69.32V556.4h26.1zm110.9 89.7h-53.01l-10.11 24.46h-27.07l50.89-114.17h26.1l51.05 114.17h-27.73l-10.11-24.46zm-8.32-20.06l-18.1-43.71-18.1 43.71h36.21zm90.36-48.11h-36.53V556.4h99.49v21.53h-36.53v92.64h-26.42v-92.64zm190.49 61.49c0 19.74-15.66 31.15-45.67 31.15h-59.04V556.4h55.78c28.54 0 43.22 11.91 43.22 29.68 0 11.42-5.87 20.22-15.17 25.12 12.72 4.08 20.88 13.86 20.88 28.22zm-78.45-63.12v26.91h26.26c12.88 0 19.9-4.57 19.9-13.54s-7.01-13.37-19.9-13.37h-26.26zm51.87 60.35c0-9.62-7.34-14.19-21.04-14.19h-30.83v28.22h30.83c13.7 0 21.04-4.24 21.04-14.03zm130.48 9.45h-53.01l-10.11 24.46h-27.08l50.89-114.17h26.1l51.05 114.17h-27.73l-10.11-24.46zm-8.32-20.06l-18.1-43.71-18.1 43.71h36.21z" class="cls-3"/><g><path d="M106.05 718.93h5.45v38.12h-5.45v-38.12zm43.9 21.51v16.61h-5.23v-16.01c0-5.66-2.83-8.44-7.79-8.44-5.56 0-9.15 3.32-9.15 9.58v14.87h-5.23v-28.86h5.01v4.36c2.12-2.94 5.83-4.63 10.4-4.63 7.02 0 11.98 4.03 11.98 12.53zm26.3 14.92c-1.58 1.36-3.98 2.02-6.32 2.02-5.83 0-9.15-3.21-9.15-9.04v-15.85h-4.9v-4.3h4.9v-6.32h5.23v6.32h8.28v4.3h-8.28v15.63c0 3.1 1.63 4.85 4.52 4.85 1.52 0 3-.49 4.08-1.36l1.63 3.76zm32.67-11H185.5c.65 5.06 4.74 8.44 10.46 8.44 3.38 0 6.21-1.14 8.33-3.49l2.89 3.38c-2.61 3.05-6.59 4.68-11.38 4.68-9.31 0-15.52-6.15-15.52-14.76s6.15-14.7 14.49-14.7 14.27 5.99 14.27 14.87c0 .44-.05 1.09-.11 1.58zm-23.42-3.76h18.52c-.54-4.85-4.19-8.28-9.26-8.28s-8.71 3.38-9.26 8.28zm46.67-12.69v5.07c-.44-.05-.82-.05-1.2-.05-5.61 0-9.09 3.43-9.09 9.75v14.38h-5.23V728.2h5.01v4.85c1.85-3.38 5.45-5.12 10.51-5.12zm34.58 12.53v16.61h-5.23v-16.01c0-5.66-2.83-8.44-7.79-8.44-5.56 0-9.15 3.32-9.15 9.58v14.87h-5.23v-28.86h5.01v4.36c2.12-2.94 5.83-4.63 10.4-4.63 7.02 0 11.98 4.03 11.98 12.53zm32.94-.82v17.43h-4.96v-3.81c-1.74 2.61-4.96 4.14-9.48 4.14-6.54 0-10.67-3.49-10.67-8.5 0-4.63 3-8.44 11.6-8.44h8.28v-1.03c0-4.41-2.56-6.97-7.73-6.97-3.43 0-6.92 1.2-9.15 3.1l-2.18-3.92c3-2.4 7.3-3.7 11.93-3.7 7.9 0 12.36 3.81 12.36 11.71zm-5.23 8.6v-4.03h-8.06c-5.17 0-6.64 2.02-6.64 4.47 0 2.89 2.4 4.68 6.37 4.68s7.03-1.8 8.33-5.12zm31.53 7.14c-1.58 1.36-3.98 2.02-6.32 2.02-5.83 0-9.15-3.21-9.15-9.04v-15.85h-4.9v-4.3h4.9v-6.32h5.23v6.32h8.28v4.3h-8.28v15.63c0 3.1 1.63 4.85 4.52 4.85 1.52 0 3-.49 4.08-1.36l1.63 3.76zm5.77-36.11c0-1.91 1.52-3.43 3.54-3.43s3.54 1.47 3.54 3.32c0 1.96-1.47 3.49-3.54 3.49s-3.54-1.47-3.54-3.38zm.93 8.93h5.23v28.86h-5.23v-28.86zm12.9 14.44c0-8.6 6.37-14.7 15.03-14.7s14.98 6.1 14.98 14.7-6.32 14.76-14.98 14.76-15.03-6.15-15.03-14.76zm24.72 0c0-6.15-4.14-10.13-9.69-10.13s-9.75 3.98-9.75 10.13 4.19 10.18 9.75 10.18 9.69-4.03 9.69-10.18zm40.3-2.18v16.61h-5.23v-16.01c0-5.66-2.83-8.44-7.79-8.44-5.56 0-9.15 3.32-9.15 9.58v14.87h-5.23v-28.86h5.01v4.36c2.12-2.94 5.83-4.63 10.4-4.63 7.02 0 11.98 4.03 11.98 12.53zm32.95-.82v17.43h-4.96v-3.81c-1.74 2.61-4.96 4.14-9.48 4.14-6.54 0-10.67-3.49-10.67-8.5 0-4.63 3-8.44 11.6-8.44h8.28v-1.03c0-4.41-2.56-6.97-7.73-6.97-3.43 0-6.92 1.2-9.15 3.1l-2.18-3.92c3-2.4 7.3-3.7 11.93-3.7 7.9 0 12.36 3.81 12.36 11.71zm-5.23 8.6v-4.03h-8.06c-5.17 0-6.64 2.02-6.64 4.47 0 2.89 2.4 4.68 6.37 4.68s7.03-1.8 8.33-5.12zm15.3-31.58h5.23v40.41h-5.23v-40.41zm55.65 30.88h-20.26l-4.19 9.53h-5.61l17.26-38.12h5.39l17.32 38.12h-5.72l-4.19-9.53zm-1.91-4.36l-8.22-18.68-8.22 18.68h16.45zM520.82 754l2.18-4.14c2.45 1.74 6.37 3 10.13 3 4.85 0 6.86-1.47 6.86-3.92 0-6.48-18.24-.87-18.24-12.36 0-5.17 4.63-8.66 12.04-8.66 3.76 0 8.01.98 10.51 2.61l-2.23 4.14c-2.61-1.69-5.5-2.29-8.33-2.29-4.57 0-6.81 1.69-6.81 3.98 0 6.81 18.3 1.25 18.3 12.47 0 5.23-4.79 8.55-12.47 8.55-4.79 0-9.53-1.47-11.93-3.38zm27.66 0l2.18-4.14c2.45 1.74 6.37 3 10.13 3 4.85 0 6.86-1.47 6.86-3.92 0-6.48-18.24-.87-18.24-12.36 0-5.17 4.63-8.66 12.04-8.66 3.76 0 8.01.98 10.51 2.61l-2.23 4.14c-2.61-1.69-5.5-2.29-8.33-2.29-4.57 0-6.81 1.69-6.81 3.98 0 6.81 18.3 1.25 18.3 12.47 0 5.23-4.79 8.55-12.47 8.55-4.79 0-9.53-1.47-11.93-3.38zm28.65-11.38c0-8.6 6.37-14.7 15.03-14.7s14.98 6.1 14.98 14.7-6.32 14.76-14.98 14.76-15.03-6.15-15.03-14.76zm24.72 0c0-6.15-4.14-10.13-9.69-10.13s-9.75 3.98-9.75 10.13 4.19 10.18 9.75 10.18 9.69-4.03 9.69-10.18zm10.23 0c0-8.6 6.37-14.7 15.25-14.7 5.17 0 9.48 2.12 11.76 6.15l-3.98 2.56c-1.85-2.83-4.68-4.14-7.84-4.14-5.66 0-9.91 3.98-9.91 10.13s4.25 10.18 9.91 10.18c3.16 0 5.99-1.31 7.84-4.14l3.98 2.5c-2.29 4.03-6.59 6.21-11.76 6.21-8.88 0-15.25-6.15-15.25-14.76zm33.22-23.37c0-1.91 1.52-3.43 3.54-3.43s3.54 1.47 3.54 3.32c0 1.96-1.47 3.49-3.54 3.49s-3.54-1.47-3.54-3.38zm.93 8.93h5.23v28.86h-5.23v-28.86zm38.44 11.44v17.43h-4.96v-3.81c-1.74 2.61-4.96 4.14-9.48 4.14-6.54 0-10.67-3.49-10.67-8.5 0-4.63 3-8.44 11.6-8.44h8.28v-1.03c0-4.41-2.56-6.97-7.73-6.97-3.43 0-6.92 1.2-9.15 3.1l-2.18-3.92c3-2.4 7.3-3.7 11.93-3.7 7.9 0 12.36 3.81 12.36 11.71zm-5.23 8.6v-4.03h-8.06c-5.17 0-6.64 2.02-6.64 4.47 0 2.89 2.4 4.68 6.37 4.68s7.03-1.8 8.33-5.12zm31.53 7.14c-1.58 1.36-3.98 2.02-6.32 2.02-5.83 0-9.15-3.21-9.15-9.04v-15.85h-4.9v-4.3h4.9v-6.32h5.23v6.32h8.28v4.3h-8.28v15.63c0 3.1 1.63 4.85 4.52 4.85 1.52 0 3-.49 4.08-1.36l1.63 3.76zm5.77-36.11c0-1.91 1.52-3.43 3.54-3.43s3.54 1.47 3.54 3.32c0 1.96-1.47 3.49-3.54 3.49s-3.54-1.47-3.54-3.38zm.93 8.93h5.23v28.86h-5.23v-28.86zm12.9 14.44c0-8.6 6.37-14.7 15.03-14.7s14.98 6.1 14.98 14.7-6.32 14.76-14.98 14.76-15.03-6.15-15.03-14.76zm24.72 0c0-6.15-4.14-10.13-9.69-10.13s-9.75 3.98-9.75 10.13 4.19 10.18 9.75 10.18 9.69-4.03 9.69-10.18zm40.3-2.18v16.61h-5.23v-16.01c0-5.66-2.83-8.44-7.79-8.44-5.56 0-9.15 3.32-9.15 9.58v14.87h-5.23v-28.86h5.01v4.36c2.12-2.94 5.83-4.63 10.4-4.63 7.02 0 11.98 4.03 11.98 12.53zm30.99-14.76v2.5h8.39v4.3h-8.28v24.56h-5.23v-24.56h-4.9v-4.3h4.9v-2.56c0-5.61 3.38-9.31 9.53-9.31 2.23 0 4.41.54 5.88 1.69l-1.58 3.98c-1.09-.82-2.51-1.36-4.03-1.36-3.1 0-4.68 1.74-4.68 5.06zm10.61 16.94c0-8.6 6.37-14.7 15.03-14.7s14.98 6.1 14.98 14.7-6.32 14.76-14.98 14.76-15.03-6.15-15.03-14.76zm24.72 0c0-6.15-4.14-10.13-9.69-10.13s-9.75 3.98-9.75 10.13 4.19 10.18 9.75 10.18 9.69-4.03 9.69-10.18zm28-14.71v5.07c-.44-.05-.82-.05-1.2-.05-5.61 0-9.09 3.43-9.09 9.75v14.38h-5.23V728.2h5.01v4.85c1.85-3.38 5.45-5.12 10.51-5.12zM63.04 796.27H49.97v-4.74H81.5v4.74H68.43v33.38h-5.39v-33.38zm39.1 4.25v5.07c-.44-.05-.82-.05-1.2-.05-5.61 0-9.09 3.43-9.09 9.75v14.38h-5.23v-28.86h5.01v4.85c1.85-3.38 5.45-5.12 10.51-5.12zm33.65.27v28.86h-4.96v-4.36c-2.12 3-5.72 4.68-9.8 4.68-7.46 0-12.42-4.08-12.42-12.58v-16.61h5.23v16.01c0 5.66 2.83 8.5 7.79 8.5 5.45 0 8.93-3.38 8.93-9.58v-14.92h5.23zm6.26 25.81l2.18-4.14c2.45 1.74 6.37 3 10.13 3 4.85 0 6.86-1.47 6.86-3.92 0-6.48-18.24-.87-18.24-12.36 0-5.17 4.63-8.66 12.04-8.66 3.76 0 8.01.98 10.51 2.61l-2.23 4.14c-2.61-1.69-5.5-2.29-8.33-2.29-4.57 0-6.81 1.69-6.81 3.98 0 6.81 18.3 1.25 18.3 12.47 0 5.23-4.79 8.55-12.47 8.55-4.79 0-9.53-1.47-11.93-3.38zm47.1 1.36c-1.58 1.36-3.98 2.02-6.32 2.02-5.83 0-9.15-3.21-9.15-9.04v-15.85h-4.9v-4.3h4.9v-6.32h5.23v6.32h8.28v4.3h-8.28v15.63c0 3.1 1.63 4.85 4.52 4.85 1.52 0 3-.49 4.08-1.36l1.63 3.76zm32.24-11h-23.42c.65 5.06 4.74 8.44 10.46 8.44 3.38 0 6.21-1.14 8.33-3.49l2.89 3.38c-2.61 3.05-6.59 4.68-11.38 4.68-9.31 0-15.52-6.15-15.52-14.76s6.15-14.7 14.49-14.7 14.27 5.99 14.27 14.87c0 .44-.05 1.09-.11 1.58zm-23.42-3.76h18.52c-.54-4.85-4.19-8.28-9.26-8.28s-8.71 3.38-9.26 8.28zm57.94-23.96v40.41h-5.01v-4.57c-2.34 3.27-6.04 4.9-10.29 4.9-8.44 0-14.6-5.94-14.6-14.76s6.15-14.7 14.6-14.7c4.08 0 7.68 1.53 10.07 4.63v-15.9h5.23zm-5.17 25.98c0-6.15-4.19-10.13-9.69-10.13s-9.75 3.98-9.75 10.13 4.19 10.18 9.75 10.18 9.69-4.03 9.69-10.18zm63.16 4.14c0 6.54-4.96 10.29-14.6 10.29h-18.19v-38.12h17.1c8.77 0 13.67 3.7 13.67 9.86 0 4.14-2.12 7.02-5.12 8.5 4.3 1.2 7.13 4.41 7.13 9.48zm-27.34-23.42v12.2h11.16c5.55 0 8.71-2.07 8.71-6.1s-3.16-6.1-8.71-6.1h-11.16zm21.84 22.98c0-4.41-3.27-6.37-9.31-6.37h-12.53v12.69h12.53c6.04 0 9.31-1.91 9.31-6.32zm13.12-29.68h5.23v40.41h-5.23v-40.41zm12.47 25.98c0-8.6 6.37-14.7 15.03-14.7s14.98 6.1 14.98 14.7-6.32 14.76-14.98 14.76-15.03-6.15-15.03-14.76zm24.72 0c0-6.15-4.14-10.13-9.69-10.13s-9.75 3.98-9.75 10.13 4.19 10.18 9.75 10.18 9.69-4.03 9.69-10.18zm9.81 0c0-8.6 6.37-14.7 15.25-14.7 5.17 0 9.48 2.12 11.76 6.15l-3.98 2.56c-1.85-2.83-4.68-4.14-7.84-4.14-5.66 0-9.91 3.98-9.91 10.13s4.25 10.18 9.91 10.18c3.16 0 5.99-1.31 7.84-4.14l3.98 2.5c-2.29 4.03-6.59 6.21-11.76 6.21-8.88 0-15.25-6.15-15.25-14.76zm44.92.98l-5.99 5.55v7.9h-5.23v-40.41h5.23v25.92l15.74-14.38h6.32l-12.14 11.93 13.34 16.94h-6.43l-10.84-13.45zm19.6-.98c0-8.6 6.37-14.7 15.25-14.7 5.17 0 9.48 2.12 11.76 6.15l-3.98 2.56c-1.85-2.83-4.68-4.14-7.84-4.14-5.66 0-9.91 3.98-9.91 10.13s4.25 10.18 9.91 10.18c3.16 0 5.99-1.31 7.84-4.14l3.98 2.5c-2.29 4.03-6.59 6.21-11.76 6.21-8.88 0-15.25-6.15-15.25-14.76zm61.1-2.18v16.61h-5.23v-16.01c0-5.66-2.83-8.44-7.79-8.44-5.56 0-9.15 3.32-9.15 9.58v14.87h-5.23v-40.41h5.23v15.63c2.18-2.78 5.77-4.36 10.18-4.36 7.02 0 11.98 4.03 11.98 12.53zm32.51-.81v17.43h-4.96v-3.81c-1.74 2.61-4.96 4.14-9.48 4.14-6.54 0-10.67-3.49-10.67-8.5 0-4.63 3-8.44 11.6-8.44h8.28v-1.03c0-4.41-2.56-6.97-7.73-6.97-3.43 0-6.92 1.2-9.15 3.1l-2.18-3.92c3-2.4 7.3-3.7 11.93-3.7 7.9 0 12.36 3.81 12.36 11.71zm-5.23 8.6v-4.03h-8.06c-5.17 0-6.64 2.02-6.64 4.47 0 2.89 2.4 4.68 6.37 4.68s7.03-1.8 8.33-5.12zm13.94-28.97c0-1.91 1.52-3.43 3.54-3.43s3.54 1.47 3.54 3.32c0 1.96-1.47 3.49-3.54 3.49s-3.54-1.47-3.54-3.38zm.93 8.93h5.23v28.86h-5.23v-28.86zm42.53 12.25v16.61h-5.23v-16.01c0-5.66-2.83-8.44-7.79-8.44-5.56 0-9.15 3.32-9.15 9.58v14.87h-5.23v-28.86h5.01v4.36c2.12-2.94 5.83-4.63 10.4-4.63 7.02 0 11.98 4.03 11.98 12.53zm49.28 7.08h-20.26l-4.19 9.53h-5.61l17.26-38.12h5.39l17.32 38.12h-5.72l-4.19-9.53zm-1.91-4.36l-8.22-18.68-8.22 18.68h16.45zm46.56-.54c0 8.88-6.15 14.76-14.59 14.76-4.08 0-7.68-1.58-10.08-4.68v14.92h-5.23v-39.43h5.01v4.58c2.34-3.21 6.04-4.85 10.29-4.85 8.44 0 14.59 5.88 14.59 14.7zm-5.28 0c0-6.1-4.19-10.13-9.75-10.13s-9.69 4.03-9.69 10.13 4.19 10.18 9.69 10.18 9.75-4.03 9.75-10.18zm42.36 0c0 8.88-6.15 14.76-14.59 14.76-4.08 0-7.68-1.58-10.08-4.68v14.92h-5.23v-39.43h5.01v4.58c2.34-3.21 6.04-4.85 10.29-4.85 8.44 0 14.59 5.88 14.59 14.7zm-5.28 0c0-6.1-4.19-10.13-9.75-10.13s-9.69 4.03-9.69 10.13 4.19 10.18 9.69 10.18 9.75-4.03 9.75-10.18zm12.47-25.98h5.23v40.41h-5.23v-40.41zm14.21 2.62c0-1.91 1.52-3.43 3.54-3.43s3.54 1.47 3.54 3.32c0 1.96-1.47 3.49-3.54 3.49s-3.54-1.47-3.54-3.38zm.93 8.93h5.23v28.86h-5.23v-28.86zm12.46 14.43c0-8.6 6.37-14.7 15.25-14.7 5.17 0 9.48 2.12 11.76 6.15l-3.98 2.56c-1.85-2.83-4.68-4.14-7.84-4.14-5.66 0-9.91 3.98-9.91 10.13s4.25 10.18 9.91 10.18c3.16 0 5.99-1.31 7.84-4.14l3.98 2.5c-2.29 4.03-6.59 6.21-11.76 6.21-8.88 0-15.25-6.15-15.25-14.76zm56.58-2.99v17.43h-4.96v-3.81c-1.74 2.61-4.96 4.14-9.47 4.14-6.54 0-10.67-3.49-10.67-8.5 0-4.63 3-8.44 11.6-8.44h8.28v-1.03c0-4.41-2.56-6.97-7.73-6.97-3.43 0-6.92 1.2-9.15 3.1l-2.18-3.92c3-2.4 7.3-3.7 11.93-3.7 7.9 0 12.36 3.81 12.36 11.71zm-5.23 8.6v-4.03h-8.06c-5.17 0-6.64 2.02-6.64 4.47 0 2.89 2.4 4.68 6.37 4.68s7.03-1.8 8.33-5.12zm31.1 7.13c-1.58 1.36-3.97 2.02-6.32 2.02-5.83 0-9.15-3.21-9.15-9.04v-15.85h-4.9v-4.3h4.9v-6.32h5.23v6.32h8.28v4.3h-8.28v15.63c0 3.1 1.63 4.85 4.52 4.85 1.52 0 3-.49 4.08-1.36l1.63 3.76zm5.33-36.1c0-1.91 1.53-3.43 3.54-3.43s3.54 1.47 3.54 3.32c0 1.96-1.47 3.49-3.54 3.49s-3.54-1.47-3.54-3.38zm.93 8.93h5.23v28.86h-5.23v-28.86zm12.47 14.43c0-8.6 6.37-14.7 15.03-14.7s14.98 6.1 14.98 14.7-6.32 14.76-14.98 14.76-15.03-6.15-15.03-14.76zm24.72 0c0-6.15-4.14-10.13-9.69-10.13s-9.75 3.98-9.75 10.13 4.19 10.18 9.75 10.18 9.69-4.03 9.69-10.18zm39.86-2.18v16.61h-5.23v-16.01c0-5.66-2.83-8.44-7.79-8.44-5.55 0-9.15 3.32-9.15 9.58v14.87h-5.23v-28.86h5.01v4.36c2.12-2.94 5.83-4.63 10.4-4.63 7.02 0 11.98 4.03 11.98 12.53zm5.99 13.56l2.18-4.14c2.45 1.74 6.37 3 10.13 3 4.85 0 6.86-1.47 6.86-3.92 0-6.48-18.24-.87-18.24-12.36 0-5.17 4.63-8.66 12.04-8.66 3.76 0 8.01.98 10.51 2.61l-2.23 4.14c-2.61-1.69-5.5-2.29-8.33-2.29-4.58 0-6.81 1.69-6.81 3.98 0 6.81 18.3 1.25 18.3 12.47 0 5.23-4.79 8.55-12.47 8.55-4.79 0-9.53-1.47-11.93-3.38z" class="cls-3"/></g></svg>