<svg xmlns="http://www.w3.org/2000/svg" role="img" viewBox="-4.56 -4.31 224.12 169.12"><title>Initiative for CryptoCurrencies and Contracts (IC3) logo</title><style>svg {enable-background:new 0 0 215.5 160.5}</style><style>.st0{fill:#9d282c}.st1{fill:#373334}</style><path d="M6.1 17c.8.3 1.7.4 2.6.4h49.1c1.2 0 2.4.1 3.6-.2 2.3-.6 4.2-2.3 5.1-4.5.7-1.7.5-3.7.5-5.6-.1-3-2.1-5.7-4.9-6.7C60.6-.1 59 0 57.5 0H10.2C8.5 0 6.9 0 5.3.7 3 1.8 1.3 4.2 1.1 6.8v3.8c.2 2.9 2.2 5.5 5 6.4zM4.2 6.9C4.4 4.7 6.3 3 8.5 3h51.1c1.7 0 3.4 1.1 4 2.7.4 1 .3 1.9.3 2.9v1.8c-.2 1.7-1.4 3.2-3 3.7-.8.3-1.8.2-2.6.2H8.6c-2.2 0-4.1-1.7-4.3-3.9-.2-1-.2-2.3-.1-3.5zm207.7 62.3c.5-1.2.6-2.5.6-3.8-.1-8.3 0-16.6 0-24.9.1-2.4.1-4.7 0-7.1V8.1c.1-2.2-.7-4.4-2.3-5.9-1.1-1.1-2.6-1.8-4.2-2-1-.2-2-.2-3.1-.2h-48.4c-1.4 0-2.8.2-4 .9-2.2 1.2-3.7 3.5-3.8 6v3.6c.1 2.9 2.1 5.5 4.8 6.4 1.3.5 2.6.5 4 .5H205c1.6 0 3.1-.5 4.4-1.4v13.5c-1.3-.9-2.7-1.4-4.2-1.4h-51.1c-1.6 0-3.2.5-4.4 1.4-1.9 1.4-3 3.7-3 6 0 1.4-.1 3 .2 4.4.8 3.1 3.6 5.5 6.8 5.5h51.7c1.5 0 2.8-.5 4-1.3v13.4c-1.2-.8-2.5-1.3-4-1.3h-51.8c-2.9.1-5.5 2-6.5 4.7-.4 1-.5 2.1-.5 3.2 0 1.4-.1 2.6.2 4 .5 2 2 3.8 3.8 4.7 1.4.8 2.9.7 4.5.9h48.5c1.4-.2 2.4 0 3.7-.5 2.1-.6 3.8-2.1 4.6-4zm-2.5-58.5c-.2 1.5-1.3 2.9-2.8 3.4-.9.4-2 .2-2.9.2H154c-2.1 0-4-1.8-4.2-3.9-.1-1.1-.1-2.2 0-3.3.1-1.7 1.2-3.2 2.8-3.8 1-.4 2.1-.3 3.2-.3h49.3c1.8 0 3.4 1 4.1 2.7.5 1 .3 1.9.3 3-.1.7-.1 1.4-.1 2zm-.3 29c-.7 1.7-2.3 2.8-4.2 2.8h-49.3c-1.1 0-2.2.1-3.3-.3-1.5-.6-2.6-2.1-2.7-3.7-.1-1.1-.1-2.3 0-3.3.2-2.1 2-3.9 4.2-3.9h51.8c1.5.2 2.8 1.3 3.3 2.7.4.9.3 2 .3 3 .2.9.3 1.8-.1 2.7zm-4.4 31h-50.2c-.8 0-1.6-.1-2.4-.5-1.4-.7-2.4-2.2-2.4-3.8 0-1.2-.1-2.5.1-3.7.4-2 2.3-3.5 4.3-3.4h49.5c.9 0 1.8-.1 2.6.2 1.4.4 2.5 1.4 2.9 2.8.3.8.2 1.8.2 2.7 0 1.1.1 2.1-.4 3.2-.6 1.5-2.3 2.5-4.2 2.5z" class="st0"/><path d="M132.6.8H82.4c-.8 0-1.7-.1-2.4.1-2.3.4-4.3 2.2-5 4.4-.5 1.5-.3 3-.4 4.6 0 1.4.3 2.8 1.2 4 1.1 1.6 2.9 2.7 4.8 2.9H131c1.1 0 2 .1 3.1-.2 2.5-.7 4.5-2.9 4.8-5.5.1-1.4.1-3 0-4.4-.4-3.3-3.2-5.9-6.3-5.9zm4.8 9c0 1.7-.7 3.3-2.1 4.3-1 .8-2.2 1-3.4 1H81.3c-2 0-3.9-1.2-4.7-3.1-.5-1.1-.4-2.2-.4-3.4 0-.9-.1-1.8.2-2.7C77 4 78.9 2.4 81 2.3h51.3c2 0 4 1.3 4.7 3.2.6 1.3.4 3 .4 4.3z" class="st1"/><path d="M139.6 68.8c.7-1.7.4-3.7.4-5.5-.1-3.1-2.3-5.9-5.3-6.8-1.2-.4-2.3-.3-3.5-.3h-50c-1.5 0-2.8.6-4 1.4V44.1c1.2.8 2.5 1.3 4 1.4h51.7c3.8-.1 6.9-3.3 7-7 0-1.9.2-3.9-.5-5.7-1.1-2.8-3.8-4.7-6.8-4.7H81.3c-1.6 0-3.2.6-4.5 1.6-1.6 1.3-2.6 3.3-2.8 5.4v26.7c0 2-.2 4 .1 6 .6 3 3.1 5.4 6.2 5.8.8 0 1.6.1 2.4.2H131c1.6-.1 3-.1 4.4-.8 2.1-.8 3.6-2.3 4.2-4.2zM77.3 35.1c.2-2.1 2-3.9 4.2-3.9h51.7c1.6.2 2.9 1.2 3.5 2.7.4 1 .3 2 .3 3 0 1.1.1 2.1-.4 3.1-.8 1.5-2.3 2.5-4 2.5H81.7c-2.1 0-4-1.5-4.3-3.6-.2-1.2-.1-2.5-.1-3.8zm55.1 35.6H82c-1.6 0-3.2-.7-4-2.2-.8-1.3-.6-3-.6-4.5 0-1.2.3-2.3 1.1-3.2.8-1 2.1-1.6 3.4-1.6h49.5c.8 0 1.7-.1 2.4.1 1.6.4 2.9 1.7 3.3 3.3.1.7.1 1.5.1 2.2 0 1.1.1 2.1-.4 3.2-.9 1.7-2.6 2.7-4.4 2.7z" class="st0"/><path d="M5.3 44c1 .5 2 .8 3.1.8h51.3c2.8 0 5.4-2.1 6.2-4.8.3-1 .2-2 .2-3.1 0-1 .1-2.1-.2-3.1-.5-2.1-2.2-3.9-4.3-4.6-1.2-.4-2.6-.4-3.9-.4H10.2c-1.5 0-2.9-.1-4.4.6-2.3 1-3.9 3.2-4 5.7v3.6C2 40.9 3.4 43 5.3 44zM3.7 33.9c.7-2 2.6-3.5 4.8-3.5h49.7c1 0 1.9-.1 2.9.3 1.9.6 3.3 2.3 3.5 4.2.1 1.2.1 2.4 0 3.6-.1 2.5-2.3 4.7-4.8 4.8H8.5c-1.9 0-3.7-1.2-4.6-2.9-.6-1.1-.5-2.2-.5-3.4 0-1.1-.1-2.1.3-3.1zm62.2 27.8c-.7-2.2-2.5-4-4.8-4.5C60 56.9 59 57 58 57H10c-1.1 0-2.1-.1-3.1.2-2 .5-3.7 2-4.5 3.9-.4 1-.5 2.1-.5 3.2 0 1.5-.1 2.9.4 4.4.8 2 2.5 3.6 4.7 4.1 1.1.2 2.2.2 3.3.2h47.5c1.3 0 2.6.1 3.9-.4 2.1-.7 3.8-2.5 4.3-4.6.3-1 .2-2.1.2-3.1-.1-1.1 0-2.1-.3-3.2zm-1.3 5c-.1 2.1-1.6 3.9-3.6 4.5-1 .3-2 .2-3 .2H10c-.9 0-2 .1-2.9-.2-1.6-.5-3-1.8-3.5-3.5-.3-.9-.2-1.9-.2-2.8 0-.9-.1-1.8.2-2.7.5-1.7 1.8-3 3.5-3.5.9-.3 1.8-.2 2.7-.2h50c2.6 0 4.7 2.2 4.9 4.8-.1 1.1 0 2.3-.1 3.4z" class="st1"/><path d="M84.3 94.2c1-.6 1.2-2.1.4-2.9-.5-.6-1.5-.6-2.2-.4-1.2.5-1.4 2.2-.5 3 .6.6 1.6.6 2.3.3zm52.3 0c1.1-.5 1.2-2.1.4-2.9-.5-.6-1.5-.6-2.2-.4-1.1.4-1.4 1.9-.7 2.8.5.8 1.7.9 2.5.5zm-33.6-.1c1-.6 1.1-2.2.2-2.9-.6-.5-1.7-.5-2.3-.1-.8.5-1 1.7-.5 2.5.5.9 1.8 1 2.6.5zm-41.4-3.3h-2.9v17h2.9v-17zm28.9 13.5c0 1.1.4 2.4 1.4 3 1.3.8 3.1.5 4.5.5v-2.5c-.8 0-1.6.1-2.4 0-.5-.2-.7-.7-.7-1.2v-6h3.1v-2.5h-3.1v-3.7h-2.8c-.1 1.2 0 2.4 0 3.6h-2.2V98h2.1c.1 2.2.1 4.3.1 6.3zm33.6-.2c0 1.1.3 2.4 1.3 3.1 1.3.9 3.2.5 4.7.6v-2.5c-.8 0-1.6.1-2.4-.1-.6-.2-.7-.8-.8-1.4V98h3.2v-2.5h-3.2v-3.7h-2.8v3.7h-2.2V98h2.1c.1 2.2.1 4.1.1 6.1z" class="st0"/><path d="M175 107.8h1.5v-8.6h2.4v-1.3h-2.4c0-.7 0-1.7.5-2.3.6-.6 1.4-.4 2.1-.5v-1.3c-1.1 0-2.4 0-3.2.9-.9.9-.8 2-.9 3.2h-1.7v1.3h1.7v8.6zm-153.9 0h1.5V95.3H27V94H16.7v1.3h4.4v12.5zm10.3-5.6c0-1.3.8-2.6 2.1-3 .7-.1 1.6-.2 2.3 0 .9.3 1.2 1.2 1.2 2.1v6.6h1.5v-6.6c0-1.1-.3-2.2-1.2-2.9-.9-.7-2.3-.6-3.4-.6-1 .1-1.8.6-2.5 1.4V94h-1.5v13.8h1.5v-5.6z" class="st1"/><path d="M68.9 101.1c0-1.1.6-2.2 1.5-2.8.7-.4 1.8-.3 2.6-.3.6 0 1 .2 1.3.7.4.5.3 1.1.3 1.7v7.4h2.8v-7.9c0-1.2-.3-2.4-1.2-3.3-.8-.8-1.8-1.1-2.9-1.1-1 0-2.1-.1-3 .3-.7.3-1.2.8-1.7 1.3v-1.5h-2.7v12.1h2.8c.2-2.1.2-4.4.2-6.6zm31.7 6.7h2.8V95.7h-2.8v12.1zm14.2-12.3h-2.9c-1.4 0-2.9.7-3.6 1.9-.3.6-.4 1.2-.5 1.8h2.7c.2-.7.5-1.1 1.2-1.3.9-.1 1.9-.1 2.8-.1.7 0 1.4.5 1.5 1.1.1.6 0 1.3.1 1.9-1.6-.7-3.3-.7-5.1-.6-1.1.1-2.4.6-3 1.6-.6.8-.5 2-.5 3 .1 1.1.7 2 1.6 2.5 1.2.7 2.7.6 4 .6 1.3 0 2.2-.7 3.1-1.6v1.4h2.7v-8.1c0-1-.2-1.9-.8-2.7-.8-.9-2-1.3-3.3-1.4zm.1 9.9c-.9.6-2 .5-3 .4-.6 0-1.3-.2-1.5-.9-.1-.5-.1-1 0-1.5.2-.6.8-.9 1.3-.9 1.6-.1 3.1-.1 4.5.7 0 1-.5 1.7-1.3 2.2zm39.4-2.8c0 1.1 0 2.2.6 3.2.7 1.4 2.2 2.1 3.7 2.2 1.1.1 2.2.1 3.3 0 1.5-.1 3-.7 3.8-2.1.4-.6.5-1.3.6-2.1h-2.8c-.1.5-.2.9-.5 1.2-.7.6-1.6.5-2.5.6-.9 0-1.8.1-2.5-.6s-.6-1.5-.6-2.4h9v-3.2c-.1-1.6-1.3-3.1-2.8-3.7-1.2-.5-2.6-.3-3.9-.3-1 0-2 .2-2.9.7-1.2.7-2 2-2.1 3.3-.4 1.1-.3 2.2-.4 3.2zm3.6-4.2c.7-.6 1.5-.5 2.4-.6.8 0 1.7-.1 2.4.6.6.6.7 1.3.7 2.1h-6.3c.1-.8.2-1.5.8-2.1zm-76 9.4h2.8V95.7h-2.8v12.1zm52.3 0h2.8V95.7h-2.8v12.1zm11.5 0c.6.1 1.3 0 2 0 1.6-4.1 3.2-8.1 4.8-12.1h-3c-1.1 3-2.1 5.9-3.2 8.9-1-3-2.1-5.9-3.1-8.9h-3c1.4 3.5 2.8 7.1 4.2 10.6.2.7.5 1.3 1.3 1.5z" class="st0"/><path d="M41.7 103.7c0 1 0 2 .6 2.9.7 1 1.9 1.5 3.1 1.4 1.4 0 2.7.2 3.9-.7.9-.6 1.2-1.6 1.3-2.6h-1.4c-.1.6-.2 1.1-.8 1.5-.8.6-1.8.4-2.8.5-.8 0-1.5-.2-2-.8-.6-.7-.5-1.7-.5-2.6h7.4c0-1.1.2-2.5-.3-3.5-.5-1.1-1.5-1.8-2.6-1.9-1-.1-2.1-.1-3.1 0-1.3.2-2.4 1.3-2.7 2.6-.2 1-.1 2.1-.1 3.2zm2-3.7c.5-.6 1.2-.9 1.9-.9.9 0 2.1-.1 2.8.5.7.7.7 1.5.7 2.4h-6c.1-.8.1-1.4.6-2zm143.1 8c1.2 0 2.3-.6 2.9-1.6.6-1 .5-2.2.6-3.3 0-.9 0-1.8-.2-2.7-.3-1.3-1.5-2.4-2.9-2.5-1.1-.1-2.2-.1-3.3 0-1.3.2-2.4 1.3-2.7 2.6-.2.9-.1 2-.1 3 0 .9 0 1.9.5 2.8.5 1 1.6 1.7 2.8 1.7h2.4zm-2-1.3c-1.1 0-1.9-.7-2.1-1.7-.2-1.2-.1-2.5-.1-3.7.1-1.2 1-2.2 2.2-2.2 1 0 2.5-.2 3.3.6.8.9.7 1.9.7 3.1 0 1.1.2 2.4-.7 3.2-.8.9-2.2.7-3.3.7zm11.8-8.5c-.6.2-1.1.7-1.5 1.1v-1.4h-1.5v9.9h1.5v-5.7c0-.9.3-1.8 1.1-2.4.8-.6 1.6-.5 2.6-.5v-1.3c-.8 0-1.5 0-2.2.3z" class="st1"/><g><path d="M183.2 117.2c-1.3.4-1.5 2.2-.6 3 .6.5 1.5.6 2.2.3 1.1-.5 1.3-2.2.4-3-.5-.5-1.3-.5-2-.3zM11.8 127.9c-.1 1.3-.4 2.5-1.4 3.3-1 .8-2.6.5-3.9.6-1.1.1-2.1-.3-2.8-1.2-1-1.4-.8-3.1-.8-4.8 0-1.3-.1-2.8.2-4 .4-1.2 1.4-2.3 2.7-2.3h3.1c1.1 0 2 .7 2.5 1.7.3.6.3 1.1.4 1.8h2.8c-.1-1.9-.6-3.6-2.2-4.8C10.8 117 9 117 7.1 117c-1.5 0-2.9 0-4.2.8-1.6.9-2.7 2.6-2.9 4.4-.2 1.6-.1 3.2-.1 4.8 0 1.6 0 3.1.9 4.6.7 1.3 2 2.3 3.5 2.7 1.1.3 2.4.1 3.5.2 1.4.1 2.6 0 3.8-.7 2.1-1.1 3-3.4 3-5.7-.9-.2-1.8-.2-2.8-.2zm81.6 6.4c1.8-.1 3.5-1.1 4.5-2.7.7-1.1.8-2.4.9-3.6H96c-.1 1.2-.4 2.4-1.4 3.2-1 .9-2.5.6-3.8.6-1.1 0-2.1-.1-2.8-1-1.1-1.2-1-2.8-1-4.3 0-1.4-.1-2.9.2-4.3.3-1.3 1.2-2.4 2.5-2.6 1-.1 2.1 0 3.1-.1 1 0 1.9.4 2.5 1.2.5.7.6 1.4.7 2.2h2.8c-.1-1.4-.3-2.7-1.2-3.9-1.1-1.4-2.8-2.1-4.6-2.1-2 0-4.1-.2-5.9.8-1.8 1-2.8 3-2.9 5v5.3c0 1.7.5 3.5 1.7 4.7 1 1.1 2.5 1.6 4 1.6h3.5zm-32-.8c1.3.8 3.2.5 4.6.6v-2.5c-.8 0-1.6.1-2.4-.1-.7-.2-.8-.8-.8-1.4v-5.7H66v-2.5h-3.2v-3.7h-2.7v3.7h-2.2v2.5H60v6c0 1.2.3 2.4 1.4 3.1zm-36.1-11.6c-1.1 0-2.1-.1-3.1.3-.7.3-1.2.7-1.7 1.3V122h-2.6v12.1h2.8v-6.8c0-1.1.6-2.2 1.6-2.6.9-.4 2-.3 2.9-.3.1-.9.1-1.7.1-2.5zm11.2.1v6.9c-.1 1.3-1.4 2.8-2.8 2.7-.6 0-1.2 0-1.7-.1-.8-.2-1.1-1-1.1-1.8v-7.8h-2.8v8c0 1.8 1.1 3.5 2.9 3.9 1 .2 2 .2 3 .1 1.1-.1 1.9-.8 2.6-1.6-.1 1.2.3 2.7-.7 3.6-.7.7-1.5.5-2.4.5-.6 0-1.3.1-1.8-.2-.4-.3-.5-.7-.7-1.1h-2.8c.1.8.3 1.5.7 2.1.9 1.2 2.2 1.7 3.7 1.7 1.6 0 3.2.2 4.7-.7 1.5-.9 2.1-2.5 2.1-4.2v-12.2c-1 .2-2 .2-2.9.2zm6.9 0v17h2.8v-5.8c.8.6 1.6 1.2 2.7 1.1 1 0 2.1.1 3.1-.2 1.4-.4 2.5-1.5 2.9-2.8.5-1.2.3-2.5.3-3.8 0-1.2.1-2.4-.5-3.4-.7-1.3-2-2.1-3.4-2.3-.9-.1-1.9-.1-2.9 0-1 .2-1.7.7-2.4 1.4v-1.3c-.8.1-1.7.1-2.6.1zm3.2 3.8c.5-.9 1.3-1.6 2.4-1.6 1 0 2.2-.2 2.9.7.8.9.6 2 .6 3.1 0 .8.1 1.7-.2 2.4-.3.8-1.1 1.5-2 1.5-1 0-2.3.2-3.1-.6-.8-.8-1-1.8-.9-2.8 0-.9-.2-2 .3-2.7zm34.3 3.7c0-1.4.1-2.9-.1-4.3-.3-1.4-1.3-2.5-2.6-3-1.1-.5-2.4-.5-3.6-.5-1.3 0-2.6.1-3.7.8-1.2.7-2 2.1-2.1 3.5v3.5c0 .8.1 1.7.5 2.4.7 1.2 1.9 2.1 3.3 2.3.7.1 1.5.1 2.2.1 1.3 0 2.5.1 3.7-.6 1.6-.8 2.4-2.5 2.4-4.2zm-3.5 1.7c-.7.8-1.6.6-2.6.7-.9 0-1.8.1-2.5-.6-.9-.9-.8-2.2-.8-3.3 0-1.1-.1-2.3.7-3.2.7-.7 1.6-.6 2.5-.6 1 0 1.9-.1 2.6.7.8.9.6 2 .6 3.1.1 1.1.3 2.3-.5 3.2zm35.9 2.9V122h-2.8v6.9c0 1.4-1.3 3.1-2.8 2.9-.6 0-1.4.1-1.9-.1-.6-.3-.9-1-.9-1.7v-8h-2.8v8.2c0 1.6 1 3.3 2.5 3.8.8.3 1.6.2 2.5.3.7 0 1.3 0 1.9-.3.7-.3 1.3-.9 1.8-1.5v1.6h2.5zm8.3-11.8c-.7.3-1.1.7-1.6 1.3V122h-2.6v12.1h2.8v-6.8c0-1.1.6-2.2 1.7-2.7.9-.4 1.9-.3 2.8-.3v-2.5c-1 .1-2 0-3.1.5zm10.1 2.6c.9-.6 2.2-.5 3.2-.5v-2.5c-1 0-2.1-.1-3 .3-.7.3-1.2.7-1.7 1.2v-1.5h-2.6V134h2.8v-6.6c0-.9.4-1.9 1.3-2.5zm6.1 7.7c.9 1.1 2.4 1.7 3.8 1.7h2.9c1.5-.1 3.1-.9 3.8-2.2.3-.6.4-1.2.4-1.9h-2.8c-.2.8-.5 1.3-1.2 1.6-1 .3-2.1.2-3.1.1-.8 0-1.6-.7-1.8-1.5-.1-.5-.1-1-.1-1.4h9c-.1-1.7.3-3.6-.6-5.1-.9-1.4-2.4-2.1-4.1-2.1-1.7 0-3.6-.2-5 .8-1.3.8-2 2.2-2.1 3.7v3.5c-.1 1 .2 2 .9 2.8zm3.3-8.3c1-.2 2-.1 3-.1 1.3.2 1.8 1.4 1.7 2.6h-6.3c.2-1.1.5-2.1 1.6-2.5zm19.3-2.5c-1-.1-2.1-.2-3.1 0s-1.8.8-2.5 1.6v-1.5h-2.6V134h2.8v-7c0-1.2.9-2.5 2.1-2.8.8-.1 1.6-.1 2.4 0 .9.1 1.3 1.1 1.3 1.9v7.9h2.8v-7.2c0-.9 0-1.9-.4-2.7-.4-1.1-1.5-2.1-2.8-2.3zm14.2 9.9c-.9.2-1.8.1-2.7.1-1.1 0-1.9-1-2-2.1v-3.5c.1-1 .9-2 1.9-2 .9 0 1.9-.1 2.8.1.8.3 1 1 1.2 1.8h2.8c-.1-.9-.2-1.7-.7-2.5-.8-1.3-2.3-1.9-3.8-1.9-1.6 0-3.5-.2-4.9.7-1.4.8-2.1 2.2-2.1 3.8v4c.1 1.7 1.3 3.2 2.9 3.8 1.2.4 2.6.2 3.9.3 1.1 0 2.1-.2 3-.8 1.3-.9 1.8-2.4 1.8-3.9h-2.8c0 .9-.3 1.8-1.3 2.1zm26.2-7.4c-.6-1.4-2-2.3-3.5-2.5-1.2-.1-2.5-.1-3.7 0-1.5.1-2.9 1-3.6 2.3-.6 1.1-.6 2.4-.6 3.6 0 1.1-.1 2.2.2 3.2.3 1.4 1.4 2.5 2.7 2.9 1.2.5 2.6.3 4 .3 1.6 0 3.3-.4 4.3-1.8.5-.7.6-1.5.7-2.3h-2.8c-.2 1.1-.9 1.6-2 1.7-1.1 0-2.6.2-3.5-.4-.8-.6-.7-1.5-.8-2.5h9c0-1.3.3-3.2-.4-4.5zm-8.6 2.5c.1-.8.2-1.5.8-2.1.7-.7 1.5-.5 2.4-.6.8 0 1.7-.1 2.3.5.7.6.8 1.4.9 2.2h-6.4zm21.1.7c-1.8-.5-3.7-.6-5.4-1.1-.8-.2-.8-1.2-.5-1.7.5-.6 1.5-.5 2.2-.5.7 0 1.6-.1 2.2.3.4.3.5.7.7 1.2h2.8c-.1-.9-.2-1.7-.9-2.4-.9-1.1-2.3-1.4-3.7-1.4-1.5 0-3.2-.1-4.6.6-.8.4-1.5 1.1-1.6 2-.1.8-.2 1.6.1 2.3.4 1.1 1.5 1.7 2.6 2 1.5.3 3 .5 4.5.8.4.1.8.3 1 .7.1.5.1 1.1-.4 1.4-.6.4-1.6.3-2.3.4-.8 0-1.8.1-2.4-.4-.5-.3-.5-.8-.7-1.3h-2.8c.1.7.1 1.4.5 2.1.8 1.4 2.3 2 3.8 2 1.2 0 2.5.1 3.7-.1 1.5-.2 3-1.1 3.3-2.7v-1.8c-.1-1.3-1-2.1-2.1-2.4zm-30.8 6.6h2.8V122h-2.8v12.1z" class="st0"/></g><g><path d="M79.4 157.4c-.9.8-2.3.6-3.4.6-1.2 0-2.2 0-3.1-.9-1.2-1.3-1.1-3-1.1-4.6 0-1.4-.1-2.9.2-4.2.3-1.3 1.3-2.4 2.7-2.5 1-.1 2.1 0 3.1 0s2 .6 2.5 1.4c.4.6.4 1.3.5 2h2.8c-.1-2.1-.8-4-2.6-5.1-1.8-1.1-3.6-.8-5.6-.9-1.6 0-3.2.4-4.4 1.5-1.3 1.2-2 2.9-2 4.6v5.3c0 1.9.8 3.9 2.4 5 1.2.8 2.5 1.1 3.9 1.1 1.6-.1 3.1.2 4.6-.4 1.5-.6 2.6-1.7 3.1-3.2.4-.9.4-1.8.5-2.8h-2.8c-.1 1.1-.3 2.3-1.3 3.1zm43 .4c-.7-.2-.8-.8-.8-1.5v-5.7h3.2v-2.5h-3.2v-3.7h-2.7v3.7h-2.2v2.5h2.1v6.4c.1 1.1.5 2.3 1.5 2.8 1.3.7 3.1.5 4.5.5v-2.5c-.9.1-1.7.2-2.4 0zm52.3-9.6h-3.2v-3.7h-2.7v3.7h-2.2v2.5h2.1v6.2c0 1.2.4 2.4 1.5 3 1.3.7 3.1.5 4.5.5v-2.5c-.8 0-1.7.1-2.5-.1-.7-.3-.7-.9-.7-1.6v-5.5h3.2v-2.5z" class="st0"/><path d="M58 146.5v4.9c-.6-.6-1.3-1-2.1-1.1-1.2 0-2.6-.2-3.6.5-1.2.8-1.7 2.2-1.6 3.6.1 1.3-.2 3 .4 4.2.5 1 1.4 1.7 2.5 1.8.8.1 1.7.1 2.5 0 .9-.2 1.4-.8 2-1.4v1.3h1.5v-13.9c-.6.1-1.1.1-1.6.1zm-.4 11.2c-.4.7-1.2 1.5-2.1 1.4-.9 0-2 .2-2.6-.5-.9-.9-.7-1.9-.7-3.1 0-.9-.1-2 .4-2.8.3-.6.9-1.1 1.7-1.1.7 0 1.4-.1 2.1.1 1.2.3 1.8 1.6 1.7 2.8-.2 1 0 2.3-.5 3.2z" class="st1"/><path d="M98.2 151c-.5-1.4-1.6-2.4-3-2.8-1.1-.3-2.3-.2-3.5-.2-1.1 0-2.1.1-3 .6-1.2.6-2.1 1.9-2.3 3.2-.2 1.1-.1 2.2-.1 3.3 0 1.2.1 2.3.7 3.3.9 1.5 2.5 2.1 4.2 2.1 1.4 0 2.9.2 4.2-.3 1.2-.4 2.3-1.4 2.7-2.6.4-1.1.3-2.3.3-3.4.1-1.1.2-2.1-.2-3.2zm-3.2 6.5c-.7.7-1.5.6-2.4.6-1 0-1.9.2-2.6-.5-.9-.9-.7-2.2-.8-3.3 0-1.1-.1-2.4.8-3.3.8-.7 1.8-.5 2.8-.5.8 0 1.6 0 2.2.7.8.9.6 2 .6 3.1s.3 2.2-.6 3.2zm15.9-9.3c-.9-.3-2-.2-3-.2-1.3 0-2.3.7-3.1 1.6v-1.4h-2.6v12.1h2.8v-7c0-1 .5-1.9 1.3-2.5.6-.5 1.5-.4 2.2-.4.5 0 1.1 0 1.5.3.4.4.7.9.7 1.5v8.1h2.8V152c0-1.6-1-3.2-2.6-3.8zm21.7.3c-.6.3-1.1.7-1.6 1.2v-1.5h-2.6v12.1h2.8v-6.8c0-1 .5-2 1.3-2.5.9-.6 2.1-.4 3.2-.5V148c-1.1.2-2.1 0-3.1.5zm16.6 3.4c0-1.3-.6-2.5-1.8-3.2-1.4-.9-2.9-.7-4.5-.7-1.5 0-2.9.2-4 1.4-.7.7-.8 1.5-.9 2.4h2.7c.2-.5.3-.9.7-1.1.9-.4 2-.2 3-.3.8 0 1.6.4 1.8 1.2.1.6 0 1.2 0 1.9-1.7-.7-3.4-.7-5.2-.6-1.2.1-2.3.6-3 1.6-.6.9-.5 2.2-.4 3.2.2 1.7 2 2.7 3.6 2.8 1.1 0 2.5.2 3.5-.4.6-.3 1.1-.7 1.6-1.2v1.4h2.7c.2-2.8.2-5.6.2-8.4zm-4.3 6.1c-.8.5-1.9.3-2.9.3-.6 0-1.2-.3-1.5-.9-.1-.4-.1-.9 0-1.4.1-.6.7-.9 1.3-.9 1.6 0 3.1-.2 4.6.7-.1 1-.6 1.7-1.5 2.2zm15.1 0c-.9.1-1.8.1-2.7 0-1.1-.1-1.7-1-1.8-2v-3.3c0-1 .8-2.1 1.8-2.2.9 0 1.8-.1 2.6 0 1 .2 1.3 1 1.4 1.9h2.8c0-1.1-.3-2.1-1-2.9-.9-1.1-2.2-1.5-3.6-1.5-1.7 0-3.2-.2-4.7.7-1.5.9-2.3 2.5-2.2 4.3.1 1.7-.3 3.8.5 5.3s2.5 2.3 4.2 2.3c1.7-.1 3.3.3 4.8-.6 1.5-.9 2.2-2.5 2.1-4.2h-2.8c.1.9-.3 2-1.4 2.2zm26-4.4c-1.4-.3-2.9-.5-4.3-.8-.4-.1-.8-.2-1-.6-.2-.6-.1-1.3.6-1.6 1-.3 2.2-.2 3.2-.2.9.1 1.2.6 1.4 1.4h2.8c-.1-.9-.3-1.8-1-2.5-.9-1-2.1-1.3-3.4-1.3-1.5 0-3.1-.1-4.5.4-.9.4-1.7 1.1-1.9 2.1-.1.8-.2 1.6.1 2.4.4 1.1 1.5 1.7 2.6 2 1.5.3 2.9.5 4.4.8.4.1 1 .3 1.1.8.1.5.1 1-.4 1.4-.7.4-1.7.3-2.5.3-.7 0-1.6.1-2.2-.4-.5-.3-.5-.8-.7-1.3h-2.8c.1.9.2 1.8.9 2.6.9 1.1 2.3 1.5 3.7 1.5 1.5 0 3.3.2 4.8-.4 1.1-.5 2-1.4 2-2.6 0-.7.1-1.4-.1-2.1-.5-1.1-1.7-1.7-2.8-1.9z" class="st0"/><path d="M35.1 153.4c0-1.1-.5-2-1.4-2.6-1-.7-2.3-.4-3.5-.5-1.1 0-2.2.3-2.9 1.2-.3.5-.4.9-.5 1.5h1.4c.2-.6.4-1 1-1.3.9-.3 1.9-.2 2.7-.2.8 0 1.6.7 1.6 1.6v1.8c-1.4-.7-2.9-.8-4.5-.6-1 .1-2 .7-2.4 1.7-.2.7-.2 1.5-.1 2.1.1 1.1 1 1.9 2 2.2.9.2 2 .2 2.9.1.9-.2 1.6-.7 2.1-1.4v1.3h1.4c.2-2.3.2-4.6.2-6.9zm-4 5.8c-.8 0-2 .2-2.6-.4-.5-.5-.5-1.3-.4-1.9.1-.7.6-1.1 1.3-1.2 1.5-.1 3-.1 4.3.7.1 1.5-1.1 2.7-2.6 2.8zm14.7-8.5c-.8-.6-1.9-.4-2.9-.4-1.2 0-2 .6-2.7 1.5v-1.3h-1.4v9.9h1.4v-5.7c0-1.3.8-2.6 2.1-3 .7-.1 1.4-.1 2.1 0 .9.1 1.4 1.1 1.3 1.9v6.8h1.5v-6.8c.1-1.2-.4-2.3-1.4-2.9z" class="st1"/></g></svg>