<svg xmlns="http://www.w3.org/2000/svg" role="img" viewBox="18.63 14.63 227.24 70.74"><title>Innominds logo</title><g data-name="Group 3" transform="translate(-588 -1229)"><g data-name="Group 2" transform="translate(-.66 -1.108)"><g fill-rule="evenodd" data-name="Group 1" transform="translate(611.69 1249.108)"><path fill="#e8432a" d="M.001 0h7.93v38.762H.001z" data-name="Path 1"/><path fill="#e8432a" d="M35.202 38.762h-7.647V21.768c0-2.686.276-5.585-1.983-6.029a3.117 3.117 0 0 0-1.942.324c-1.794.926-1.781 2.839-1.781 5.584v17.115h-7.606c0-8.938.348-18.491-.243-27.029l7.647.041.2 2.67.041-.081c1.035-1.045 1.435-2.059 2.954-2.711 3.5-1.5 7.836-.092 9.306 2.266 1.22 1.956 1.052 5.2 1.052 8.416z" data-name="Path 2"/><path fill="#e8432a" d="M61.664 38.762h-7.607V21.768c0-2.65.245-5.591-1.983-6.029a3.361 3.361 0 0 0-1.7.2c-2.043.769-2.064 2.871-2.063 5.7v17.123h-7.607V20.676c0-2.6.361-6.783-.243-8.9l.04-.041h7.607l.243 2.752v-.081c.956-1.127 1.6-2.171 3.075-2.792 3.624-1.522 7.86.073 9.306 2.468 1.141 1.89.931 5.126.931 8.173z" data-name="Path 3"/><path fill="#f8c100" d="M133.281 0h7.607l-.04 6.433h-7.566z" data-name="Path 4"/><path fill="#f8c100" d="M217.482 19.179h-5.184c-.51 0-1.6.159-1.942-.081a3.1 3.1 0 0 0-1.78-3.925c-1.821-.5-4.15.781-3.6 2.671.48 1.651 2.554 2.59 3.925 3.4 3.778 2.227 10.958 4.712 9.468 11.572a7.74 7.74 0 0 1-.89 2.387c-1.32 2.147-3.775 3.1-6.676 3.682l-2.387.2a13.11 13.11 0 0 1-4.613-.243c-3.813-.955-6.762-3.87-6.029-9.023h7.364c-.045 2.234.428 4.314 2.1 4.815 2.112.631 4.784-1.281 3.925-3.439-1.013-2.545-4.762-3.786-7.081-5.139a40.578 40.578 0 0 1-3.6-2.306 6.052 6.052 0 0 1-2.59-6.312l.566-1.9c1.787-4.046 8.594-5.67 14.121-3.925 3.319 1.045 4.959 3.212 4.903 7.566z" data-name="Path 5"/><path fill="#f8c100" d="M128.021 38.762h-7.607V21.727c0-2.613.262-5.56-1.942-5.988a3.273 3.273 0 0 0-1.78.243c-1.984.834-2.023 2.865-2.023 5.7v17.08h-7.607V21.768c0-2.66.259-5.594-1.983-6.029a3.278 3.278 0 0 0-1.78.243c-1.962.824-1.983 2.9-1.983 5.705v17.075h-7.607c0-8.961.1-18.4-.2-27.029h7.607l.2 2.752.081-.04c.938-2.816 5.756-4.227 9.306-2.832 2.022.794 2.529 1.845 3.6 3.561h.041c1.489-4.513 9.521-5.654 12.422-1.578 1.4 1.961 1.255 5.152 1.254 8.578z" data-name="Path 6"/><path fill="#f8c100" d="M167.188 38.762h-7.65V21.768c0-2.681.276-5.591-1.983-6.029a3.126 3.126 0 0 0-1.942.324c-1.8.926-1.781 2.837-1.78 5.584v17.115h-7.607c0-8.959.184-18.462-.243-27.029l7.647.041a10.452 10.452 0 0 0 .243 2.67v-.081c1.037-1.048 1.431-2.057 2.954-2.711 3.495-1.5 7.835-.086 9.306 2.266 1.222 1.953 1.052 5.206 1.052 8.416z" data-name="Path 7"/><path fill="#f8c100" d="M133.281 11.734l7.607.041v26.988h-7.607z" data-name="Path 8"/><path fill="#f8c100" d="M193.286 34.635V0h-7.4v13.919h-.04c-1.018-2.189-5.815-3.717-9.023-2.468-2.111.822-3.239 2.568-3.925 4.815-1.285 4.209-1.394 15.009.243 18.855a6.487 6.487 0 0 0 2.59 3.075 8.7 8.7 0 0 0 7.324.566 7.534 7.534 0 0 0 2.751-2.509v-.081q.142 1.275.283 2.549h7.4zm-7.445-9.549q-.021 1.719-.041 3.439c-.276 1.888.041 3.66-.728 4.977a2.694 2.694 0 0 1-1.942 1.295c-3.618.642-3.109-2.926-3.52-5.624q-.041-1.8-.081-3.6c0-3.111-.221-7.022 1.173-8.821.432-.558.972-.553 1.7-.85a2.675 2.675 0 0 1 2.225.85c1.393 1.783 1.214 5.156 1.214 8.334z" data-name="Path 9"/><path fill="#e8432a" d="M74.323 24.542c0 3.447-.4 9.8 3.286 10.04 3.841.252 3.642-5.482 3.742-8.77.1-3.133.428-9.272-2.9-9.827-4.369-.728-4.126 5.012-4.126 8.558m.289-13.186c-7.934 1.547-8.556 8.889-7.875 17.327.3 3.7 1.191 7.29 3.714 8.987 3.425 2.3 14.9 3.851 17.493-4.014 1.554-4.715 2.173-17.188-2.68-20.637-2.583-1.839-6.888-2.4-10.654-1.668z" data-name="Path 10"/></g><path fill="#1a1818" d="M611.66 1296.225h5.164a3.5 3.5 0 0 1 2.469.864 3.133 3.133 0 0 1 .938 2.426 3.527 3.527 0 0 1-.838 2.339 3.167 3.167 0 0 1-2.57 1h-3.608v4.848h-1.555zm7 3.3a1.727 1.727 0 0 0-.937-1.723 3.385 3.385 0 0 0-1.414-.242h-3.094v3.977h3.094a2.957 2.957 0 0 0 1.7-.445 1.765 1.765 0 0 0 .651-1.57zm8.256 7.271a1.939 1.939 0 0 0 1.918-1.059 5.274 5.274 0 0 0 .52-2.355 4.194 4.194 0 0 0-.375-1.906 2.11 2.11 0 0 0-2.047-1.156 2.018 2.018 0 0 0-1.875.984 4.563 4.563 0 0 0-.586 2.375 3.969 3.969 0 0 0 .586 2.223 2.064 2.064 0 0 0 1.859.894zm.055-7.7a3.789 3.789 0 0 1 2.734 1.078 4.21 4.21 0 0 1 1.118 3.169 5.442 5.442 0 0 1-.984 3.344 3.561 3.561 0 0 1-3.055 1.315 3.449 3.449 0 0 1-2.743-1.163 4.613 4.613 0 0 1-1.015-3.137 4.991 4.991 0 0 1 1.067-3.359 3.592 3.592 0 0 1 2.878-1.25zm7.772.242l1.609 6.594 1.633-6.594h1.578l1.641 6.555 1.711-6.555h1.406l-2.428 8.364h-1.462l-1.7-6.477-1.652 6.477h-1.461l-2.414-8.367zm15.991-.187a3.817 3.817 0 0 1 1.727.418 3.184 3.184 0 0 1 1.273 1.082 3.733 3.733 0 0 1 .559 1.473 9.661 9.661 0 0 1 .125 1.844h-6.125a3.579 3.579 0 0 0 .6 2.043 2.014 2.014 0 0 0 1.742.77 2.252 2.252 0 0 0 1.758-.727 2.449 2.449 0 0 0 .531-.977h1.383a2.912 2.912 0 0 1-.366 1.025 3.654 3.654 0 0 1-.691.926 3.277 3.277 0 0 1-1.587.846 4.818 4.818 0 0 1-1.148.128 3.524 3.524 0 0 1-2.649-1.14 4.423 4.423 0 0 1-1.086-3.184 4.809 4.809 0 0 1 1.094-3.276 3.608 3.608 0 0 1 2.86-1.255zm2.242 3.7a3.643 3.643 0 0 0-.4-1.461 2.042 2.042 0 0 0-1.93-1.016 2.139 2.139 0 0 0-1.625.7 2.641 2.641 0 0 0-.7 1.777zm4.811-3.516h1.336v1.445a3.193 3.193 0 0 1 .8-1.027 2.086 2.086 0 0 1 1.477-.605q.039 0 .133.008l.32.031v1.484a2.1 2.1 0 0 0-.23-.031q-.105-.008-.23-.008a2.007 2.007 0 0 0-1.633.684 2.386 2.386 0 0 0-.57 1.574v4.812h-1.403zm6.889.039h1.43v8.328h-1.43zm0-3.148h1.43v1.594h-1.43zm5.155 3.109h1.336v1.187a3.747 3.747 0 0 1 1.258-1.055 3.354 3.354 0 0 1 1.477-.32 2.435 2.435 0 0 1 2.406 1.242 4.411 4.411 0 0 1 .344 1.945v5.368h-1.43v-5.273a2.856 2.856 0 0 0-.229-1.235 1.374 1.374 0 0 0-1.359-.781 2.768 2.768 0 0 0-.82.1 2.113 2.113 0 0 0-1.016.688 2.07 2.07 0 0 0-.457.855 5.758 5.758 0 0 0-.105 1.262v4.384h-1.406zm13.452-.148a3.05 3.05 0 0 1 1.719.484 3.86 3.86 0 0 1 .813.8v-1.058h1.3v7.609a5.611 5.611 0 0 1-.469 2.516 3.366 3.366 0 0 1-3.3 1.7 4.054 4.054 0 0 1-2.273-.605 2.361 2.361 0 0 1-1.031-1.895h1.43a1.591 1.591 0 0 0 .406.867 2.071 2.071 0 0 0 1.5.469 2.064 2.064 0 0 0 2.117-1.141 6.424 6.424 0 0 0 .273-2.4 2.759 2.759 0 0 1-1.016.953 3.379 3.379 0 0 1-1.579.316 3.352 3.352 0 0 1-2.38-.963 4.243 4.243 0 0 1-1.02-3.191 4.833 4.833 0 0 1 1.027-3.281 3.177 3.177 0 0 1 2.482-1.181zm2.531 4.3a3.488 3.488 0 0 0-.641-2.3 2.052 2.052 0 0 0-1.633-.75 2.016 2.016 0 0 0-2.031 1.391 5.453 5.453 0 0 0-.289 1.945 3.453 3.453 0 0 0 .573 2.144 1.854 1.854 0 0 0 1.543.738 2.166 2.166 0 0 0 2.133-1.367 4.41 4.41 0 0 0 .344-1.805zm11.34-6.485h1.422v2.336h1.336v1.148h-1.336v5.461a.591.591 0 0 0 .3.586 1.262 1.262 0 0 0 .547.086h.219q.119 0 .273-.02v1.103a3.139 3.139 0 0 1-.5.1 4.791 4.791 0 0 1-.566.031 1.527 1.527 0 0 1-1.336-.5 2.239 2.239 0 0 1-.352-1.309v-5.541h-1.14v-1.148h1.133zm5.764-.812h1.406v4.281a4.06 4.06 0 0 1 .9-.891 3.031 3.031 0 0 1 1.7-.445 2.507 2.507 0 0 1 2.463 1.267 4.343 4.343 0 0 1 .352 1.93v5.37h-1.446v-5.273a2.949 2.949 0 0 0-.234-1.352 1.5 1.5 0 0 0-1.437-.687 2.4 2.4 0 0 0-1.586.6 2.892 2.892 0 0 0-.711 2.273v4.439h-1.407zm13.983 2.961a3.817 3.817 0 0 1 1.727.418 3.184 3.184 0 0 1 1.273 1.082 3.733 3.733 0 0 1 .563 1.477 9.66 9.66 0 0 1 .125 1.844h-6.133a3.579 3.579 0 0 0 .6 2.043 2.014 2.014 0 0 0 1.742.77 2.252 2.252 0 0 0 1.758-.727 2.449 2.449 0 0 0 .531-.977h1.383a2.912 2.912 0 0 1-.363 1.027 3.654 3.654 0 0 1-.691.926 3.277 3.277 0 0 1-1.586.844 4.818 4.818 0 0 1-1.148.124 3.524 3.524 0 0 1-2.648-1.14 4.423 4.423 0 0 1-1.086-3.184 4.809 4.809 0 0 1 1.093-3.276 3.608 3.608 0 0 1 2.86-1.255zm2.242 3.7a3.643 3.643 0 0 0-.4-1.461 2.042 2.042 0 0 0-1.93-1.016 2.139 2.139 0 0 0-1.625.7 2.641 2.641 0 0 0-.7 1.777zm15.411 3.523a4.3 4.3 0 0 0 1.3-.164 2.852 2.852 0 0 0 1.484-1.172 4.8 4.8 0 0 0 .664-1.781 6.794 6.794 0 0 0 .117-1.2 5.6 5.6 0 0 0-.848-3.312 3.131 3.131 0 0 0-2.73-1.18h-2.758v8.813zm-4.336-10.148h4.648a4.381 4.381 0 0 1 3.672 1.68 6.193 6.193 0 0 1 1.164 3.883 7.736 7.736 0 0 1-.687 3.3 4.242 4.242 0 0 1-4.164 2.613h-4.633zm12.9 3.148h1.43v8.328h-1.43zm0-3.148h1.43v1.594h-1.43zm8.108 2.961a3.05 3.05 0 0 1 1.719.484 3.861 3.861 0 0 1 .813.8v-1.058h1.3v7.609a5.611 5.611 0 0 1-.469 2.516 3.366 3.366 0 0 1-3.3 1.7 4.054 4.054 0 0 1-2.273-.605 2.361 2.361 0 0 1-1.031-1.895h1.43a1.591 1.591 0 0 0 .406.867 2.071 2.071 0 0 0 1.5.469 2.064 2.064 0 0 0 2.117-1.141 6.424 6.424 0 0 0 .273-2.4 2.759 2.759 0 0 1-1.016.953 3.379 3.379 0 0 1-1.582.316 3.352 3.352 0 0 1-2.379-.965 4.243 4.243 0 0 1-1.02-3.191 4.833 4.833 0 0 1 1.027-3.281 3.177 3.177 0 0 1 2.482-1.179zm2.531 4.3a3.488 3.488 0 0 0-.641-2.3 2.052 2.052 0 0 0-1.633-.75 2.016 2.016 0 0 0-2.031 1.391 5.453 5.453 0 0 0-.289 1.945 3.453 3.453 0 0 0 .574 2.152 1.854 1.854 0 0 0 1.543.738 2.166 2.166 0 0 0 2.133-1.367 4.41 4.41 0 0 0 .341-1.813zm5.014-4.109h1.43v8.324h-1.43zm0-3.148h1.43v1.594h-1.43zm5.436.773h1.422v2.336h1.336v1.148h-1.336v5.461a.591.591 0 0 0 .3.586 1.262 1.262 0 0 0 .547.086h.219q.119 0 .273-.02v1.102a3.139 3.139 0 0 1-.5.1 4.791 4.791 0 0 1-.566.031 1.527 1.527 0 0 1-1.336-.5 2.239 2.239 0 0 1-.352-1.309v-5.541h-1.133v-1.148h1.133zm6.842 8.477a1.158 1.158 0 0 0 .445.961 1.651 1.651 0 0 0 1.055.352 3.207 3.207 0 0 0 1.438-.344 1.935 1.935 0 0 0 1.172-1.867v-1.138a2.406 2.406 0 0 1-.664.273 5.658 5.658 0 0 1-.8.156l-.852.109a3.257 3.257 0 0 0-1.148.32 1.248 1.248 0 0 0-.649 1.173zm3.406-2.844a.764.764 0 0 0 .648-.406 1.236 1.236 0 0 0 .094-.539 1.142 1.142 0 0 0-.512-1.043 2.745 2.745 0 0 0-1.465-.324 1.861 1.861 0 0 0-1.562.594 1.953 1.953 0 0 0-.336.977h-1.312a2.416 2.416 0 0 1 1-2.152 4.122 4.122 0 0 1 2.238-.605 4.554 4.554 0 0 1 2.4.563 1.908 1.908 0 0 1 .914 1.75v4.82a.617.617 0 0 0 .09.352.433.433 0 0 0 .379.133q.094 0 .211-.012t.251-.042v1.039a3.917 3.917 0 0 1-.5.117 3.654 3.654 0 0 1-.469.023 1.157 1.157 0 0 1-1.055-.516 1.99 1.99 0 0 1-.242-.773 3.578 3.578 0 0 1-1.234.977 3.818 3.818 0 0 1-1.773.414 2.637 2.637 0 0 1-1.9-.707 2.349 2.349 0 0 1-.738-1.77 2.279 2.279 0 0 1 .727-1.8 3.457 3.457 0 0 1 1.906-.789zm6.053-6.406h1.406v11.472h-1.406zm11.348 0h1.837l5.8 9.3v-9.3h1.477v11.472h-1.742l-5.883-9.289v9.289h-1.484zm16.452 2.922a3.817 3.817 0 0 1 1.727.418 3.184 3.184 0 0 1 1.273 1.082 3.733 3.733 0 0 1 .563 1.477 9.661 9.661 0 0 1 .125 1.844h-6.133a3.579 3.579 0 0 0 .6 2.043 2.014 2.014 0 0 0 1.742.77 2.252 2.252 0 0 0 1.758-.727 2.449 2.449 0 0 0 .531-.977h1.383a2.912 2.912 0 0 1-.364 1.02 3.654 3.654 0 0 1-.691.926 3.277 3.277 0 0 1-1.586.844 4.818 4.818 0 0 1-1.149.13 3.524 3.524 0 0 1-2.649-1.14 4.423 4.423 0 0 1-1.086-3.184 4.809 4.809 0 0 1 1.094-3.276 3.608 3.608 0 0 1 2.859-1.255zm2.242 3.7a3.643 3.643 0 0 0-.4-1.461 2.042 2.042 0 0 0-1.93-1.016 2.139 2.139 0 0 0-1.625.7 2.641 2.641 0 0 0-.7 1.777zm3.975-3.516h1.82l1.922 2.945 1.945-2.945 1.711.039-2.82 4.039 2.943 4.288h-1.8l-2.078-3.141-2.012 3.141h-1.781l2.945-4.289zm10.676-2.334h1.422v2.336h1.336v1.148h-1.336v5.461a.591.591 0 0 0 .3.586 1.262 1.262 0 0 0 .547.086h.219q.119 0 .273-.02v1.103a3.139 3.139 0 0 1-.5.1 4.791 4.791 0 0 1-.566.031 1.527 1.527 0 0 1-1.336-.5 2.239 2.239 0 0 1-.352-1.309v-5.541h-1.133v-1.148h1.133z" data-name="Path 11"/></g><path fill="none" d="M588 1229h265v101H588z" data-name="Rectangle 1"/></g></svg>