<svg xmlns="http://www.w3.org/2000/svg" role="img" viewBox="-20.22 -20.22 1051.44 257.44"><title>Interledger logo</title><g data-name="Layer 2"><g data-name="Layer 1"><path d="M311.1 120.39V12.88h12v107.51zm47.9 0h-11.7V42.71h11.5v5.44q12.57-7 24.08-7 15.53 0 20.89 8.39t5.36 29.83v41h-11.49V79.69q0-16.15-3.19-22.14t-13.59-6A40.75 40.75 0 0 0 370.37 53a53.12 53.12 0 0 0-8.47 2.88l-2.9 1.44zm111.5-67.58h-24.7v37.13q0 13.36 1.94 17.56t9.25 4.19l13.82-.93.78 9.63a106.18 106.18 0 0 1-15.85 1.71q-12.12 0-16.78-5.9t-4.66-22.53V52.81h-11v-10.1h11V18.94h11.5v23.77h24.7zm67.12 57.95l4.51-.46.31 9.16a222.73 222.73 0 0 1-30.3 2.49q-16.78 0-23.77-9.71t-7-30.22q0-40.86 32.47-40.86 15.69 0 23.46 8.77t7.77 27.58l-.62 8.86h-51.26q0 12.9 4.66 19.11t16.23 6.21q11.58 0 23.54-.93zm-4.19-33.71q0-14.3-4.59-20.2T513.93 51q-10.33 0-15.54 6.21T493 77.05zm29.82 43.34V42.71h11.5v10.57A75.63 75.63 0 0 1 603.18 41v11.81a83.77 83.77 0 0 0-13.59 3.88 90.64 90.64 0 0 0-10.8 4.67l-3.88 2v57zm54.69 0V8.84h11.66v111.55zm87.78-9.63l4.51-.46.31 9.16a222.73 222.73 0 0 1-30.3 2.49q-16.77 0-23.77-9.71t-7-30.22q0-40.86 32.47-40.86 15.69 0 23.46 8.77t7.77 27.58l-.62 8.86h-51.26q0 12.9 4.66 19.11t16.24 6.21q11.56 0 23.53-.93zm-4.19-33.71q0-14.3-4.58-20.2T682 51q-10.34 0-15.54 6.21T661.1 77.1zM791 8.84v111.55h-11.5v-5.28q-12 6.84-23.61 6.84a34.31 34.31 0 0 1-10.89-1.56 22.23 22.23 0 0 1-8.7-5.59q-8.39-8.39-8.39-31t7.53-32.62q7.54-10 24.94-10a97.29 97.29 0 0 1 19.11 2V8.84zm-40.4 101.61a20.12 20.12 0 0 0 7.23 1.09 38.62 38.62 0 0 0 9.94-1.48 58.78 58.78 0 0 0 8.62-2.87l3.11-1.4V53.12a101 101 0 0 0-18.5-1.87q-11.81 0-16.47 7.54t-4.63 23.39q0 18 5.44 24.23a13.37 13.37 0 0 0 5.28 4.04zm92.93 46.46q-18.64 0-26-5.06t-7.38-18.4q0-6.37 2.79-10.34t9.48-8.93q-4.35-3-4.35-10.72 0-2.64 3.88-9.79l1.4-2.48q-12.27-5.59-12.27-23.46 0-26.58 29.05-26.57a58.63 58.63 0 0 1 13.83 1.55l2.33.47 23-.63v10l-14.76-.31q5.13 5.13 5.13 15.54 0 14.59-7.22 20.43T839.65 94a43.2 43.2 0 0 1-7.62-.62q-2.79 6.84-2.79 8.86 0 4.82 3 6t17.87 1.16q14.91 0 21.44 4.66T878 132.2q0 24.7-34.47 24.71zm-21.91-24.4q0 8.24 4.59 11.42t16.93 3.19q12.36 0 17.71-3.42t5.36-11.42q0-8-3.88-10.33t-15.23-2.33l-16.78-.78q-5.12 3.73-6.91 6.53a13 13 0 0 0-1.79 7.14zm1.09-64.78q0 9.17 4.12 13t13.59 3.88q9.48 0 13.52-3.88t4-13.13q0-9.24-4-13.13t-13.52-3.89q-9.48 0-13.59 4t-4.12 13.15zm123.52 43.03l4.5-.46.31 9.16a222.47 222.47 0 0 1-30.29 2.54Q904 122 897 112.24T890 82q0-40.86 32.48-40.86 15.69 0 23.46 8.77t7.76 27.58l-.62 8.86h-51.29q0 12.9 4.66 19.11t16.24 6.21q11.56.02 23.54-.91zM942 77.05q0-14.3-4.58-20.2T922.53 51Q912.2 51 907 57.16t-5.36 19.89zm29.86 43.34V42.71h11.5v10.57A75.63 75.63 0 0 1 1011.79 41v11.81a83.77 83.77 0 0 0-13.59 3.88 89.91 89.91 0 0 0-10.8 4.67l-3.89 2v57zM340 170.8h-24.35v12.71h22.19v7.4h-22.19v14.6H307v-42.17h33zm28.89 35.45c-15 0-24.27-8.44-24.27-21.82s9.29-21.82 24.33-21.82 24.33 8.43 24.33 21.82-9.35 21.82-24.39 21.82zm.06-36.07c-9.41 0-15.52 5.44-15.52 14.19s6.11 14.11 15.58 14.11 15.4-5.44 15.4-14.11-6.05-14.19-15.41-14.19zm75.36 14.37c0 13.38-6.66 21.7-21.58 21.7s-21.08-7.52-21.08-21.7v-21.21h8.62v21.21c0 9.35 4.15 13.93 13 13.93 8.43 0 12.59-4.7 12.59-13.93v-21.21h8.43zm52.56 20.96h-8.68l-24.63-29.09h-.12v29.09h-8.62v-42.17h8.68l24.63 29.09h.12v-29.09h8.62zm29.28 0h-18.52v-42.17h18.52c18.46 0 26.89 6.91 26.89 20.78-.04 13.27-8.31 21.39-26.89 21.39zm-.49-34.71h-9.41v27.13h9.41c13.2 0 18.52-5 18.52-13.75s-5.07-13.38-18.52-13.38zm77.01 34.71h-9.41l-4.89-11.43H569.3l-4.77 11.43h-9.23l19-42.17h9.41zm-23.78-34.1h-.12l-6.91 16.5h14.06zm64.97-.61H626v34.71h-8.6V170.8h-17.79v-7.46h44.25zm15.71 34.71H651v-42.17h8.62zm33.43.74c-15 0-24.26-8.44-24.26-21.82s9.29-21.82 24.32-21.82 24.33 8.43 24.33 21.82S708 206.25 693 206.25zm.06-36.07c-9.41 0-15.52 5.44-15.52 14.19s6.11 14.11 15.58 14.11 15.41-5.44 15.41-14.11-6.05-14.19-15.47-14.19zm75 35.33h-8.68l-24.63-29.09h-.13v29.09H726v-42.17h8.67l24.64 29.09h.12v-29.09h8.62z"/><path fill="#8c528c" d="M73.05 186.43l-.07-.09a86.35 86.35 0 0 1-37.84-35.55A82.94 82.94 0 0 1 4.3 109.48 82.83 82.83 0 0 0 110.81 213a82.92 82.92 0 0 1-37.76-26.57z"/><path fill="#8775bd" d="M148.3 186v-.07l-.11.06a86.23 86.23 0 0 1-75.12.42l-.14-.07.07.09A82.92 82.92 0 0 0 110.81 213a83 83 0 0 0 37.49-27z"/><path fill="#adc8e6" d="M73.12 186.41a86.23 86.23 0 0 0 75.12-.42 148.4 148.4 0 0 1-37.61-14.07 148 148 0 0 1-37.51 14.49z"/><path fill="#56c1bf" d="M185.81 150a86.36 86.36 0 0 1-37.45 36v.07a83 83 0 0 1-37.49 27 82.83 82.83 0 0 0 105.31-104.75A82.86 82.86 0 0 1 185.81 150z"/><path fill="#2ea690" d="M185.64 67.21a86.18 86.18 0 0 1 .17 82.73 82.86 82.86 0 0 0 30.37-41.64 83 83 0 0 0-30.54-41.09z"/><path fill="#81dec8" d="M185.81 150a86.18 86.18 0 0 0-.17-82.73 148.66 148.66 0 0 1-13.87 41.47A148.46 148.46 0 0 1 185.81 150z"/><path fill="#a2ebda" d="M171.77 108.69q-3.26 6.39-7.08 12.41A150.39 150.39 0 0 1 123 164.32q-6 4.08-12.32 7.6A148.4 148.4 0 0 0 148.24 186l.11-.06a86.36 86.36 0 0 0 37.45-36 148.46 148.46 0 0 0-14.03-41.25z"/><path fill="#ff7a7f" d="M34.4 68a.75.75 0 0 0 .07-.12 86.49 86.49 0 0 1 38-36.53 83 83 0 0 1 37.14-26.6A82.83 82.83 0 0 0 4.3 109.48 82.93 82.93 0 0 1 34.4 68z"/><path fill="#f2666d" d="M35.13 150.79A86.15 86.15 0 0 1 34.4 68a82.93 82.93 0 0 0-30.1 41.48 82.94 82.94 0 0 0 30.83 41.31z"/><path fill="#ffb0bc" d="M34.48 68v-.06a.75.75 0 0 1-.07.12 86.15 86.15 0 0 0 .73 82.74 148.08 148.08 0 0 1 13.64-41.51A148.14 148.14 0 0 1 34.48 68z"/><path fill="#ffdbdb" d="M98.21 164.44A150.2 150.2 0 0 1 56 121.57q-3.87-6-7.18-12.3a148.08 148.08 0 0 0-13.64 41.51A86.35 86.35 0 0 0 73 186.34l.14.07a148 148 0 0 0 37.51-14.49q-6.41-3.45-12.44-7.48z"/><path fill="#68cb88" d="M147.11 31a86.42 86.42 0 0 1 38.49 36.23 83 83 0 0 1 30.54 41.11A82.83 82.83 0 0 0 109.67 4.77 82.93 82.93 0 0 1 147.11 31z"/><path fill="#ffa252" d="M72.53 31.37a86.28 86.28 0 0 1 74.58-.37 82.93 82.93 0 0 0-37.44-26.23 83 83 0 0 0-37.14 26.6z"/><path fill="#ffc38f" d="M109.9 45.53A147.69 147.69 0 0 1 147.12 31a86.28 86.28 0 0 0-74.58.41 148.39 148.39 0 0 1 37.36 14.12z"/><path fill="#cfedab" d="M109.9 45.53a147.5 147.5 0 0 1 12.76 7.76 150.23 150.23 0 0 1 41.88 42.89q3.9 6.06 7.23 12.51a148.66 148.66 0 0 0 13.87-41.47A86.42 86.42 0 0 0 147.14 31a147.69 147.69 0 0 0-37.24 14.53z"/><path fill="#f9d4b2" d="M48.77 109.27q3.23-6.42 7-12.49a150.1 150.1 0 0 1 41.45-43.35 147.55 147.55 0 0 1 12.68-7.9 148.39 148.39 0 0 0-37.39-14.14 86.49 86.49 0 0 0-38 36.53V68a148.14 148.14 0 0 0 14.26 41.27z"/><path fill="#fff" d="M122.66 53.29a147.5 147.5 0 0 0-12.76-7.76 147.55 147.55 0 0 0-12.68 7.9 150.1 150.1 0 0 0-41.41 43.35q-3.81 6.06-7 12.49 3.3 6.33 7.18 12.3a150.2 150.2 0 0 0 42.26 42.87q6 4 12.42 7.48 6.36-3.51 12.32-7.6a150.39 150.39 0 0 0 41.74-43.22q3.83-6 7.08-12.41-3.32-6.43-7.23-12.51a150.23 150.23 0 0 0-41.92-42.89z"/></g></g></svg>