<svg xmlns="http://www.w3.org/2000/svg" role="img" viewBox="-9.01 -9.01 468.52 407.52"><title>IntellectEU Catalyst Blockchain Platform logo</title><g fill="none" fill-rule="evenodd"><path fill="#67B0EC" d="M9.5367 340.3574l31.28586 8.07922c5.92327 1.51056 10.58871-5.5845 10.58871-15.81514v-58.08803c0-10.23063-4.64257-19.11092-10.56584-19.70599l-31.44595-3.15845c-5.21431-.5264-9.28513 6.72888-9.28513 16.0898v53.14436c0 9.36092 4.20804 18.10387 9.42235 19.45422zm63.1892 16.11267l39.63334 10.04754c7.4098 1.89964 14.01918-5.88205 14.01918-17.3486v-65.06866c0-11.46655-6.67798-21.4683-14.11066-22.2007L72.9546 257.9859c-6.44927-.64084-11.70932 7.32395-11.70932 17.7148v58.93485c.02287 10.39085 5.03135 20.18662 11.48063 21.83451zm78.37475 20.16373l50.24491 12.79402c9.55957 2.44894 17.76982-6.1567 17.76982-19.20247v-73.97183c0-13.02289-8.11877-24.48943-17.67834-25.4507l-50.29065-4.98944c-8.14164-.80106-14.9111 8.07923-14.9111 19.72887v66.14437c.02287 11.67253 6.72372 22.86444 14.86536 24.94718zM9.5367 239.35563l31.28586 2.47183c5.92327.45775 10.58871-7.52992 10.58871-17.76056v-58.08803c0-10.23063-4.64257-18.2183-10.56584-17.76056l-31.44595 2.47183c-5.21431.41197-9.28513 8.39965-9.28513 17.76056v53.14437c0 9.3838 4.20804 17.37148 9.42235 17.76056z"/><path fill="#113765" d="M72.7259 244.2993l39.63334 3.0669c7.4098.57218 14.01918-8.3081 14.01918-19.77465V162.5c0-11.46655-6.67798-20.36972-14.11066-19.79754l-39.31316 3.0669c-6.44927.50353-11.70932 9.4067-11.70932 19.77465v58.93486c.02287 10.41374 5.03135 19.3169 11.48063 19.82043z"/><path fill="#67B0EC" d="M151.10065 250.4331l50.24491 3.91373c9.55957.7324 17.76982-9.29225 17.76982-22.31514v-73.97183c0-13.02289-8.11877-23.07042-17.67834-22.31514l-50.29065 3.91373c-8.14164.64085-14.9111 10.68838-14.9111 22.31514v66.14437c.02287 11.64965 6.72372 21.69718 14.86536 22.31514zM9.5367 138.39965l31.28586-3.15845c5.92327-.59507 10.58871-9.45247 10.58871-19.6831V57.47007c0-10.23063-4.64257-17.3486-10.56584-15.83803L9.39948 49.71127C4.18517 51.06162.11435 59.78169.11435 69.1426v53.14436c0 9.3838 4.20804 16.6162 9.42235 16.11268zm63.1892-6.29402l39.63334-3.91373c7.4098-.7324 14.01918-10.73415 14.01918-22.2007V40.92254c0-11.46655-6.67798-19.24824-14.11066-17.37148L72.9546 33.59859c-6.44927 1.64789-11.70932 11.46655-11.70932 21.8574v58.93485c.02287 10.36796 5.03135 18.35564 11.48063 17.7148zm78.37475-7.87324l50.24491-4.98943c9.55957-.96127 17.76982-12.40493 17.76982-25.4507V19.82041c0-13.02288-8.11877-21.6514-17.67834-19.20246L151.1464 13.41197c-8.14164 2.08275-14.9111 13.29754-14.9111 24.94718v66.12148c.02287 11.69543 6.72372 20.5757 14.86536 19.75176z"/><path fill="#1A3762" d="M435.39491 263.82218c7.43268-1.09859 14.36223 4.00529 15.57432 11.39789v-7.43838c0-9.36092-4.04795-16.6162-9.28513-16.08979l-31.44595 3.15845c-5.92327.59507-10.56584 9.45247-10.56584 19.70599v1.02993l25.11102-3.68486c1.85246-4.21127 5.74032-7.3926 10.61158-8.07923zm3.97934 27.2817c-4.84839.7095-9.49096-1.21303-12.46403-4.6919l-27.2379 4.00527v42.20423c0 10.23063 4.64256 17.3257 10.5887 15.81514l31.28586-8.07923c5.21431-1.32746 9.44522-10.07042 9.44522-19.43133v-41.1743c-.9834 5.74472-5.53448 10.4595-11.61785 11.35211zm-49.58168-14.07571v-1.32747c0-10.39084-5.26005-18.35563-11.70933-17.71479l-39.31316 3.91374c-7.43268.7324-14.11065 10.73415-14.11065 22.2007v41.1743l62.4345-47.8574 2.69864-.38908zm-65.11027 64.54225v7.62148c0 11.46655 6.60936 19.24824 14.01917 17.3486l39.63334-10.04754c6.44927-1.64789 11.45776-11.46655 11.45776-21.8574v-40.7852l-61.17667 46.89612-3.9336.82394zm-76.24786 22.17782c-7.45555 1.53345-14.72814-3.29577-16.26041-10.75704-.09148-.50352-.18296-1.02993-.2287-1.53345v18.79049c0 13.02289 8.21025 21.6514 17.76982 19.20246l50.24491-12.8169c8.14164-2.08274 14.86536-13.27465 14.86536-24.9243v-8.125l-56.25966 11.51233c-1.62376 4.25704-5.32866 7.66726-10.13132 8.6514zm-5.51162-27.02993c4.80266-.98415 9.5367.68662 12.7156 3.9824l59.20987-12.1074v-43.05106c0-11.64964-6.76945-20.52993-14.93397-19.72887l-50.26778 4.98944c-9.55957.96127-17.67834 12.40493-17.67834 25.4507v52.68662c.526-5.88204 4.8484-10.96303 10.95462-12.22183zM437.1559 181.33627c7.6385 0 13.7676 6.20246 13.67612 13.82394-.0686 7.62148-6.31206 13.77817-13.90482 13.77817-4.917 0-9.19366-2.58627-11.61785-6.45423l-25.6599-.02288v21.6514c0 10.23064 4.64257 18.21832 10.58871 17.76057l31.28586-2.47183c5.21431-.41197 9.44522-8.39965 9.44522-17.76056v-53.14437c0-9.36092-4.04795-17.3486-9.28513-17.76056l-31.44595-2.47183c-5.92327-.45775-10.56584 7.50704-10.56584 17.76056v21.76584l25.77425.02289c2.46993-3.89084 6.79232-6.47711 11.70933-6.47711zm-47.36332-15.76937c0-10.36796-5.26005-19.29401-11.70933-19.77465l-39.31316-3.0669c-7.43268-.57218-14.11065 8.3081-14.11065 19.79754v25.19894l65.11027.04578v-22.2007h.02287zm-65.11027 62.00176c0 11.46655 6.60936 20.36972 14.01917 19.77465l39.63334-3.0669c6.44927-.50352 11.45776-9.4067 11.45776-19.79754v-22.08626l-65.11027-.04578v25.22183zm-79.19806-46.3926c4.917 0 9.2394 2.58626 11.70933 6.4771l57.63185.04578V161.9736c0-11.64965-6.76945-21.69718-14.93397-22.31514l-50.26778-3.91373c-9.55957-.75528-17.67834 9.29225-17.67834 22.31514v34.6743c1.02914-6.56867 6.67798-11.581 13.53891-11.5581zm.16009 27.57922c-6.90668 0-12.66986-5.12676-13.699-11.76408v35.04049c0 13.02289 8.21025 23.07042 17.76982 22.31514l50.24491-3.91373c8.14164-.64085 14.86536-10.68838 14.86536-22.33803v-25.74824l-57.56324-.04577c-2.40133 3.86795-6.70085 6.45422-11.61785 6.45422zM439.2599 97.36268c6.1291.84683 10.7488 5.63028 11.70932 11.44366V69.16549c0-9.36091-4.04795-18.10387-9.28513-19.43134l-31.44595-8.07922c-5.92327-1.51056-10.56584 5.5845-10.56584 15.83803v40.94542l27.1693 3.7764c2.92733-3.54753 7.54703-5.51584 12.4183-4.8521zm-3.77352 27.32746c-4.87126-.66373-8.782-3.82218-10.65732-7.98767l-25.15676-3.47888v2.3345c0 10.23064 4.64257 19.08804 10.58871 19.6831l31.28586 3.15846c5.21431.5264 9.44522-6.72888 9.44522-16.0898v-9.13203c-1.18923 7.41549-8.07303 12.54225-15.5057 11.51232zM324.6823 64.24472v41.72359c0 11.46655 6.60937 21.46831 14.01918 22.2007l39.63334 3.91374c6.44927.64084 11.45776-7.34683 11.45776-17.7148v-2.54048l-2.85873-.38909-62.25154-47.19366zm65.11028 30.96655V55.45599c0-10.39085-5.26005-20.20951-11.70933-21.8574l-39.31316-10.04753c-7.43268-1.89965-14.11065 5.90493-14.11065 17.37148v6.95774l3.61342.7095 61.51972 46.62149zm-141.4496-68.89085c4.82552.93838 8.5533 4.30282 10.19992 8.58275l56.28253 11.05458v-7.55282c0-11.64965-6.76945-22.86444-14.93397-24.94718L249.62367.66373c-9.55957-2.44894-17.67834 6.1567-17.67834 19.20247v19.17957c.04574-.59507.09148-1.21302.2287-1.8081 1.46366-7.50704 8.69052-12.38204 16.16893-10.91725zm-5.3058 27.05282c-6.31206-1.23592-10.72592-6.59155-11.09184-12.70247v53.12148c0 13.0229 8.21025 24.48944 17.76982 25.4507l50.24491 4.98944c8.14164.82395 14.86536-8.07922 14.86536-19.72887V60.88028l-59.11839-11.60387c-3.13316 3.34155-7.84433 5.0581-12.66986 4.09683z"/></g></svg>