<svg xmlns="http://www.w3.org/2000/svg" role="img" xmlns:xlink="http://www.w3.org/1999/xlink" viewBox="-44.00 -44.00 2085.50 2288.00"><title>Kadena logo</title><defs><linearGradient id="a" x1="891.39" x2="1398.68" y1="1049.95" y2="1776.61" gradientUnits="userSpaceOnUse"><stop stop-color="#ea078c"/><stop offset="1" stop-color="#69009a"/></linearGradient><linearGradient id="b" x1="454.65" x2="1486.38" y1="1042.69" y2="408.57" xlink:href="#a"/></defs><path fill="url(#a)" d="M1047.38 809.84l57 74s343 503.76 514.82 755.34q177.69 261.82 355.69 523.4a421.1 421.1 0 0 1 25.11 38.92c-211.16.87-422.38.41-633.54.2-210.18-312-627.52-938.12-627.52-938.12l-36-65.55"/><path fill="url(#b)" d="M554.05 1455.2c-7.76 6.23-7.2 16.51-7.2 25.46l-8.48 28.43-41.13-660.69 50.33-53.83C560.48 785.78 1060 257.8 1300.34 6.32c5.66-8 16-5.6 24.42-6.32 209.16.67 627.53.46 627.53.46S614.93 1390.58 554.05 1455.2z"/><path fill="#69009a" d="M0 .72h547.37v2200.06H0z"/></svg>