<svg xmlns="http://www.w3.org/2000/svg" role="img" viewBox="5.50 226.50 624.00 180.00"><title>Kaleido logo</title><style>svg {enable-background:new 0 0 652 652}</style><style>.st0{fill:#462de0}</style><path id="Fill-9" d="M241.9 359.4L216 328.5v30.9h-13.7v-93H216v57.4l23.9-29.3h17.7l-27 30.9 29 34h-17.7zm49-29c-3.4 0-14.6.7-14.6 10 0 1.8.8 7.9 11.6 7.9 1.6 0 15.6-.2 20.7-8.7v-5.3l-.2-.1c-6.3-2.7-13.4-3.8-17.5-3.8zm-3.5 30.4c-15.2 0-24.7-7.8-24.7-20.5 0-13.2 10.2-20.8 27.9-20.8 5.9 0 11.9 1.4 17.8 4.2l.4.2v-3.4c0-9.1-6.6-15-16.8-15-7 0-14.4 3.5-18.5 8.8l-7.9-8.4c8-11.2 20.6-12.9 27.4-12.9 19.1 0 29.6 9.8 29.6 27.5v38.8h-13.7v-7.7l-.5.6c-5.9 7.5-15.7 8.6-21 8.6zm50.8-1.4h13.9v-93h-13.9v93zm59.9-54.3c-10.5 0-18.3 6.4-19.6 16.4v.3h38.7v-.3c-1.5-10.1-8.8-16.4-19.1-16.4zm0 55.7c-19.3 0-33.4-14.3-33.4-34.1 0-9.9 3.4-18.4 9.7-24.6 6.1-5.9 14.5-9.1 23.6-9.1 19.2 0 32.5 13.8 32.5 33.7 0 1.5 0 3.6-.1 5h-52.1v.3c1.4 10.1 9.4 16.7 20.3 16.7 7.6 0 14.6-3.6 17.9-9.3 2.2 1 4.6 2.1 7 3.1 1.5.6 2.9 1.3 4.3 1.9-5.1 10.3-16.2 16.4-29.7 16.4zm44.5-1.4h13.7v-64.9h-13.7v64.9zm60-52.9c-11.5 0-19.9 8.5-19.9 20.2 0 12 8.4 20.6 19.9 20.6 10.1 0 20.3-7.1 20.3-20.6 0-13.1-10.5-20.2-20.3-20.2zm-1.9 54.3c-18.5 0-32.4-14.5-32.4-33.8 0-19.7 13.6-33.9 32.4-33.9 9.8 0 18.2 4.1 21.9 10.7l.5.9v-38.3h13.7v93h-13.7v-10.3l-.5.9c-3.7 6.6-12.3 10.8-21.9 10.8zm83-54.1c-11.6 0-20.1 8.4-20.1 20.1 0 12 8.4 20.6 20.1 20.6 11.7 0 20.2-8.7 20.2-20.6 0-11.7-8.5-20.1-20.2-20.1zm0 54.1c-9.1 0-17.6-3.3-23.8-9.3-6.5-6.2-10-15-10-24.8 0-19.5 14.2-33.7 33.8-33.7 19.7 0 34.1 14.2 34.1 33.7 0 9.7-3.6 18.5-10.1 24.8-6.3 6-14.8 9.3-24 9.3zm-134.2-78.6c-5.2 0-9.4-4-9.4-8.8 0-4.9 4.2-8.8 9.4-8.8s9.3 3.9 9.3 8.8c-.1 4.9-4.1 8.8-9.3 8.8z" class="st0"/><path id="Fill-11" d="M149 290.3v17.1l-49.4-28.5 21.9-12.7 20.4 11.8c4.4 2.5 7.1 7.2 7.1 12.3zM29 326.1l49.4 28.5-21.9 12.7-20.4-11.8c-4.4-2.5-7.1-7.3-7.1-12.3v-17.1zm32.5 6.5V307l49.7 28.7L89 348.5l-27.5-15.9zM89 285l27.5 15.9v25.7l-49.7-28.7L89 285zm0-35.4c2.5 0 5 .7 7.1 1.9l14.8 8.5-49.4 28.5-.1-25.3 20.4-11.8c2.2-1.1 4.7-1.8 7.2-1.8zM36.1 278l14.8-8.6v57.1L29 313.9v-23.6c0-5.1 2.7-9.8 7.1-12.3zm80.5 92.1l-20.4 11.8c-2.2 1.2-4.6 1.9-7.1 1.9s-5-.7-7.1-1.9l-14.8-8.5 49.4-28.5v25.2zm25.3-14.6l-14.8 8.5v-57l21.9 12.6v23.6c0 5-2.7 9.8-7.1 12.3zm5.6-87.2l-45.8-26.4c-3.8-2.2-8.2-3.4-12.7-3.4s-8.9 1.2-12.7 3.4l-45.8 26.4c-7.8 4.5-12.7 13-12.7 22v52.9c0 9 4.9 17.5 12.7 22l45.8 26.4c3.8 2.2 8.2 3.4 12.7 3.4s8.9-1.2 12.7-3.4l45.8-26.4c7.8-4.5 12.7-13 12.7-22v-52.9c0-9.1-4.9-17.5-12.7-22z" class="st0"/></svg>