<svg xmlns="http://www.w3.org/2000/svg" role="img" viewBox="-33.72 -33.72 1753.44 674.44"><title>KrypC Corp (HCSP) logo</title><style>svg {enable-background:new 0 0 1687.1 608}</style><style>.st0{fill:#6a2b82}.st10{fill:#002060}</style><path d="M298.9 303.8l-147-151.9L298.9 0z" class="st0"/><path fill="#81b350" d="M151.9 151.9l147 151.9-147 151.9z"/><path fill="#2180aa" d="M298.9 607.8L446 455.9 298.9 304z"/><path fill="#2f619b" d="M298.9 304l-147 151.9 147 151.9z"/><path fill="#2a4899" d="M151.9 152.1L4.8 304l147.1 151.9z"/><path fill="#522d84" d="M4.8 304l147.1-151.9L4.8.2z"/><path fill="#21476f" d="M151.9 455.9l147-151.9-147-151.9z"/><path d="M4.8 607.5l147.1-151.9L4.8 303.7z" class="st0"/><path fill="#9b2378" d="M298.9 304c49.3-51.1 98.6-102.3 147.9-153.4C397.5 100.4 348.2 50.3 298.9.2V304z"/><path fill="#35b08b" d="M298.9 607.7c48.9-50.5 97.9-101 146.8-151.5l157 151.5H298.9z"/><path fill="#bc1e6b" d="M598 1c-50.9 50.3-101.7 100.6-152.6 150.9C396.2 101.6 347.1 51.3 297.9 1H598"/><path d="M679.4 316.6l-36.6 38v101h-39.4v-299h39.4v147.9l132.9-147.9h47.6l-117.7 132 126.9 167h-47.2l-105.9-139zm289.2-49.1c-5.8-1-12-1.4-18.7-1.4-24.9 0-41.8 10.6-50.7 31.8v157.7h-38V233.4h37l.6 25.7c12.5-19.8 30.1-29.8 53-29.8 7.4 0 13 1 16.8 2.9v35.3zm111 132.5l51.8-166.5h40.7L1082.8 490c-13.8 37-35.8 55.4-65.9 55.4l-7.2-.6-14.2-2.7v-30.8l10.3.8c12.9 0 22.9-2.6 30.1-7.8 7.2-5.2 13.1-14.7 17.8-28.5l8.4-22.6-79.3-219.7h41.5l55.3 166.5zm313.9-53c0 33.8-7.7 61.1-23.2 81.7-15.5 20.7-36.4 31-62.8 31-27 0-48.2-8.6-63.7-25.7v107h-38V233.4h34.7l1.8 24.6c15.5-19.2 37-28.7 64.5-28.7 26.7 0 47.8 10.1 63.4 30.2 15.5 20.1 23.3 48.1 23.3 84v3.5zm-37.9-4.3c0-25.1-5.3-44.8-16-59.3s-25.3-21.8-43.9-21.8c-23 0-40.3 10.2-51.8 30.6v106.2c11.4 20.3 28.8 30.4 52.2 30.4 18.2 0 32.7-7.2 43.4-21.7 10.7-14.5 16.1-36 16.1-64.4z" class="st10"/><path d="M1687.1 362.4c-3.4 31.5-14.7 55.6-33.8 72.3-19.1 16.7-44.5 25.1-76.3 25.1-22.2 0-41.8-5.5-58.8-16.6-17-11.1-30.2-26.8-39.5-47.1s-14-43.6-14.2-69.7v-38.8c0-26.6 4.7-50.1 14-70.6 9.3-20.5 22.7-36.4 40.1-47.5 17.5-11.2 37.5-16.7 60.3-16.7 32 0 57.3 8.6 75.9 25.9 18.5 17.2 29.3 41.1 32.3 71.7h-25.5c-6.3-50.8-33.9-76.2-82.8-76.2-27.1 0-48.7 10.1-64.8 30.4-16.1 20.3-24.1 48.3-24.1 84.1v36.6c0 34.5 7.8 62.1 23.5 82.6 15.7 20.6 36.9 30.8 63.6 30.8 26.4 0 46.3-6.3 59.8-19 13.4-12.7 21.7-31.7 24.8-57h25.5z" class="st10"/><g opacity=".16"><path d="M294.1 304l-147-151.9 147-152z"/><path d="M147.1 152.1l147 151.9-147 151.9zm147 455.9l147.1-151.9-147.1-152zm0-303.9l-147 152 147 151.9zm-147-151.9L0 304.1l147.1 152z"/><path d="M0 304.1l147.1-151.9L0 .3zm147.1 152l147-152-147-151.9z"/><path d="M0 607.7l147.1-151.9L0 303.8zm294.1-303.6C343.4 253 392.7 201.9 442 150.7 392.7 100.6 343.4 50.5 294.1.3v303.8zm0 303.8c48.9-50.5 97.9-101 146.8-151.5l157 151.5H294.1z"/><path d="M593.2 1.1C542.3 51.4 491.4 101.7 440.6 152 391.4 101.7 342.3 51.4 293.1 1.1h300.1"/></g></svg>