<svg xmlns="http://www.w3.org/2000/svg" role="img" viewBox="-3.24 -2.49 168.35 31.98"><title>MediLedger logo</title><g transform="translate(-46 -15) translate(46 15)" fill="none" fill-rule="evenodd" stroke="none" stroke-width="1"><path fill="#011F42" d="M29.8419 15.95886l.0008.08109h-.00405c0 .5854-.17676 1.16432-.52946 1.69216-.27.40297-.64216.77432-1.11568 1.09054l-.22054.14676c-1.56648 1.04918-3.1354 2.09918-4.69946 3.14756l-2.45756 1.64676c-.81892.54973-1.63946 1.09865-2.4592 1.64676-.96486.6454-2.21107.96973-3.43945.96973s-2.47379-.32352-3.43784-.96973l-1.8827-1.26081c-1.0119-.67703-2.0246-1.35487-3.03406-2.0327-.97216-.65271-1.94756-1.30541-2.92135-1.9573l-1.9954-1.33703c-.47109-.3146-.84163-.68433-1.11081-1.08649C.17838 17.20427 0 16.62373 0 16.03995h.00405l.00081-.07379c.29595.32595.63406.61379 1.00136.85865l.5546.37054c.19783.26595.4508.48892.72486.67216l1.9954 1.33703c.97378.6527 1.94838 1.3046 2.92135 1.9573 1.01108.67784 2.02216 1.35648 3.03325 2.03351l1.8835 1.26c.8019.53757 1.84055.77595 2.79812.77595.95838 0 1.99784-.23838 2.80054-.77595.81973-.5473 1.63946-1.09703 2.45838-1.64594l2.45756-1.64757c1.56649-1.05 3.13298-2.09838 4.70027-3.14757l.22054-.14676c.27487-.18405.52865-.40783.72811-.6746l.33-.22053.21973-.14757c.37054-.24649.7119-.53595 1.00946-.86595zm-.00082-2.95816l.00162.08595h-.00405c0 .58703-.17676 1.16513-.52946 1.69216-.27.40297-.64216.77433-1.11568 1.09135l-.22054.14757c-1.56648 1.04838-3.1354 2.09757-4.69946 3.14676l-2.45756 1.64756c-.81892.54892-1.63946 1.09865-2.4592 1.64595-.96486.64622-2.21107.96892-3.43945.96892s-2.47379-.3227-3.43784-.96892l-1.8827-1.26162c-1.0119-.67703-2.0246-1.35487-3.03406-2.0319-.97216-.65189-1.94756-1.3054-2.92135-1.9581l-1.9954-1.33622c-.47109-.3154-.84163-.68513-1.11081-1.08567C.17838 14.25179 0 13.67205 0 13.08746h.00405l.00081-.08027c.29595.32676.63406.61297 1.00136.85946l.54486.36405c.19946.27081.45568.49865.7346.68433l1.9954 1.33702c.97378.6519 1.94838 1.3046 2.92135 1.95811 1.01108.67784 2.02216 1.35487 3.03325 2.0319l1.8835 1.2608c.8019.53676 1.84055.77433 2.79812.77433.95838 0 1.99784-.23838 2.80054-.77514.81973-.5473 1.63946-1.09621 2.45838-1.64513l2.45756-1.64676a5930.70192 5930.70192 0 0 1 4.70027-3.14757l.22054-.14837c.27892-.18568.53757-.41433.73784-.68595l.54-.36162c.36973-.2473.71108-.53676 1.00865-.86595zM18.43216.8109l.5546.37134c1.42865.95757 2.85973 1.91676 4.28675 2.8719 1.00217.67054 2.00757 1.3435 3.01217 2.01486l1.90783 1.2754c.47352.31703.84649.68838 1.11568 1.09055.35595.5327.53351 1.1108.53351 1.69297h-.00405c0 .58622-.17676 1.16513-.52946 1.69216-.27.40297-.64216.77433-1.11568 1.09135l-.22054.14757c-1.56648 1.04838-3.1354 2.09757-4.69946 3.14676l-2.45756 1.64594a1623.9751 1623.9751 0 0 1-2.4592 1.64757c-.96486.64622-2.21107.96892-3.43945.96892s-2.47379-.3227-3.43784-.96892l-1.8827-1.26081c-1.0119-.67784-2.0246-1.35568-3.03406-2.0327-.97216-.6527-1.94756-1.3054-2.92135-1.95811l-1.9954-1.33622c-.47109-.3154-.84163-.68513-1.11081-1.08648C.17838 11.29305 0 10.71332 0 10.12873h.00405c0-.58865.17676-1.16919.53109-1.69784.26918-.40054.63972-.77108 1.1108-1.08648.98109-.65838 1.96784-1.31757 2.95298-1.97676L6.5627 4.05414c1.60216-1.0727 3.21406-2.1527 4.81784-3.22784l.02351-.0154h7.02811zm-.61621 2.11945l.03305.02254-.66305.44368c-.54365.3634-1.26594.56393-2.01732.6004l-.25133.00608c-.75673 0-1.49901-.16353-2.07967-.49118l-.18736-.1153-.66324-.44433-2.12798 1.42622-2.12554 1.42378-1.96378 1.31352c-.98514.65919-1.9719 1.31838-2.95297 1.97675-.23676.15811-.41433.33163-.53352.5092-.09405.14075-.15074.2841-.16966.4234l-.0071.10362c.00406.17432.06163.35432.17676.5254.09535.1427.22807.28178.39856.41265l.13496.09654 1.9954 1.33622c.97379.6527 1.9492 1.3054 2.92135 1.9581l1.51612 1.01606 1.51794 1.01665 1.8827 1.26c.60324.4046 1.42622.6073 2.26703.6073.84 0 1.6646-.2027 2.26865-.6073l1.2299-.82196 1.22929-.82317 2.45756-1.64757 2.34882-1.57368 2.35064-1.57308.22054-.14757c.23838-.15973.41838-.33405.53838-.51324.09276-.13946.14919-.28151.16805-.41952l.00709-.10264c-.00406-.17351-.06163-.3519-.17514-.52216-.096-.14335-.22988-.2836-.40206-.41574l-.13632-.0975-1.90784-1.27541c-1.00459-.67216-2.01-1.34433-3.01216-2.01487-1.42702-.95513-2.8581-1.91432-4.28675-2.87189zm4.7528 5.96368c.48406.32351.96487.64621 1.44893.9681-1.58676 1.06298-3.17352 2.12595-4.75784 3.18568a24468.08737 24468.08737 0 0 1-4.75379 3.18162c-.48324-.32108-.96486-.6446-1.4481-.9673 1.5827-1.06054 3.16946-2.12189 4.75378-3.18243 1.58513-1.06054 3.17108-2.12351 4.75703-3.18567zm-2.8954-1.93946l1.44811.96973c-1.58514 1.06378-3.1719 2.12594-4.75622 3.18567-1.58432 1.06054-3.17027 2.12352-4.75297 3.18325-.48405-.32352-.9673-.64622-1.44892-.96892 1.58351-1.06054 3.16946-2.12352 4.75379-3.18406 1.58432-1.05973 3.17108-2.12189 4.75621-3.18567zm-8.2727 1.66378l1.4481.96892-1.79594 1.20243-2.33676 1.56568c-.48324-.32352-.96567-.64622-1.4481-.96973.77837-.52135 1.55837-1.04433 2.33675-1.56487l1.79595-1.20243zm2.46997-3.53149c.39162.2619.45649.6673.2092 1.00946.4735.04703.94945.09487 1.4254.1419-.05108-.21-.09973-.42-.15081-.63081l1.08243-.72406.24162 1.26162c.67135.0519 1.34108.10217 2.01243.15162-.38351.25946-.76865.5173-1.15297.77433-.35027-.0373-.70216-.07297-1.05487-.11108.05676.23432.1127.46946.17027.7046-.36243.24161-.72405.48161-1.08324.72324-.08676-.4492-.17351-.9-.25865-1.35-.73216-.07379-1.4627-.14676-2.19324-.22136a33.42056 33.42056 0 0 1-.17676.1192c.43946.2935.87811.58783 1.31514.88053-.36162.24081-.72325.48325-1.08487.72487-.43702-.29433-.87567-.58622-1.31513-.88054-.61054-.40865-1.22108-.8173-1.83-1.22676a420.8541 420.8541 0 0 1 1.08486-.72486c.28054-.18892.56352-.37784.84487-.56595.55054-.3681 1.4108-.39243 1.91432-.05595zm-.96243.64379c-.17108-.11595-.46703-.1054-.65514.02027-.22054.14676-.44027.29351-.66.4419l.62676.42a93.64581 93.64581 0 0 1 .66081-.4419c.18811-.12568.20108-.32514.02757-.44027z"/><path fill="#011F42" fill-rule="nonzero" d="M45.69914 9.9203l-4.1445 6.28691h-.07502l-4.107-6.2488v9.52562h-2.26917V6.14816h2.4567l3.99448 6.30596 3.99448-6.30596h2.4567v13.33587h-2.30667V9.9203zM61.1365 6.14816v2.09563h-7.42636v3.46733h6.58246v2.09564h-6.58246v3.58163h7.52013v2.09564h-9.8268V6.14816h9.73303zm14.72473 6.64888c0 .93987-.16877 1.8194-.50634 2.6386-.33756.8192-.81577 1.52727-1.43464 2.12421-.61886.59694-1.3565 1.06687-2.2129 1.4098-.85641.34292-1.7972.51438-2.8224.51438h-4.89464V6.14816h4.89465c1.02519 0 1.96598.16828 2.82239.50485.8564.33658 1.59404.80333 2.2129 1.40027.61887.59694 1.09708 1.30183 1.43464 2.11469.33757.81286.50634 1.6892.50634 2.62907zm-2.41919.0381c0-.66044-.1094-1.2669-.32818-1.8194-.2188-.55248-.5251-1.03193-.91892-1.43836-.39383-.40643-.87203-.72395-1.43464-.95256-.5626-.22862-1.18771-.34293-1.87534-.34293h-2.58798v9.0684h2.58798c.68762 0 1.31273-.11113 1.87534-.3334.5626-.22226 1.04081-.53343 1.43464-.9335.39382-.40009.70012-.87636.91892-1.42885.21879-.5525.32818-1.15895.32818-1.8194zm5.36677-6.68698h2.30667v13.33587h-2.30667V6.14816zm5.8356 13.33587V6.14816h2.30667v11.20213h6.90127v2.13374H84.6444zm21.36345-13.33587v2.09563H98.5815v3.46733h6.58245v2.09564H98.5815v3.58163h7.52012v2.09564h-9.8268V6.14816h9.73304zm14.72473 6.64888c0 .93987-.16878 1.8194-.50634 2.6386-.33757.8192-.81578 1.52727-1.43464 2.12421-.61887.59694-1.3565 1.06687-2.2129 1.4098-.85642.34292-1.7972.51438-2.8224.51438h-4.89465V6.14816h4.89465c1.0252 0 1.96598.16828 2.8224.50485.8564.33658 1.59403.80333 2.2129 1.40027.61886.59694 1.09707 1.30183 1.43464 2.11469.33756.81286.50634 1.6892.50634 2.62907zm-2.4192.0381c0-.66044-.10939-1.2669-.32818-1.8194-.2188-.55248-.5251-1.03193-.91892-1.43836-.39382-.40643-.87203-.72395-1.43464-.95256-.5626-.22862-1.18771-.34293-1.87534-.34293h-2.58798v9.0684h2.58798c.68763 0 1.31274-.11113 1.87534-.3334.5626-.22226 1.04082-.53343 1.43464-.9335.39383-.40009.70013-.87636.91892-1.42885.2188-.5525.32819-1.15895.32819-1.8194zm16.93764 4.80092c-.32506.27942-.6845.54613-1.07832.80015-.39382.25402-.8189.47628-1.27523.6668-.45634.1905-.94705.33974-1.47215.4477-.5251.10796-1.0752.16193-1.6503.16193-1.0252 0-1.9566-.17463-2.79426-.5239-.83766-.34928-1.55341-.8319-2.14727-1.4479-.59386-.616-1.05332-1.3431-1.37838-2.18137-.32506-.83826-.48759-1.74636-.48759-2.72433 0-.93986.16565-1.82891.49697-2.66717.3313-.83826.79701-1.57173 1.39713-2.20042.60011-.6287 1.31586-1.1272 2.14727-1.49552.8314-.36833 1.74093-.55249 2.72862-.55249.57511 0 1.09708.04128 1.56591.12383.46884.08256.9033.20004 1.30337.35245.40007.15241.77826.33975 1.13458.56201.35632.22227.70325.47946 1.04082.77158l-1.46277 1.77176c-.25005-.21591-.50634-.41277-.7689-.59058-.26254-.17782-.53759-.32705-.82514-.4477-.28756-.12067-.60324-.21592-.94705-.28578-.34382-.06985-.722-.10478-1.13459-.10478-.6001 0-1.15958.12383-1.67843.3715s-.96892.58741-1.35025 1.01924c-.38132.43183-.68137.93351-.90016 1.50505-.2188.57154-.32819 1.18117-.32819 1.82892 0 .68585.10627 1.32088.31881 1.90513.21254.58424.51572 1.08909.90954 1.51457.39383.42548.86266.75887 1.40651 1.00019.54385.24132 1.15333.36197 1.82846.36197.62512 0 1.2096-.09208 1.75345-.27624s1.0158-.42865 1.41588-.73347v-2.49572h-3.35686V12.035h5.58852v5.60107zm12.75562-11.4879v2.09563h-7.42636v3.46733h6.58246v2.09564h-6.58246v3.58163h7.52013v2.09564h-9.8268V6.14816h9.73303zM162 19.48403h-2.71925l-3.22559-4.6485h-2.88803v4.6485h-2.30667V6.14816h5.85107c.75014 0 1.42838.09843 2.03475.29529.60636.19686 1.11895.47628 1.53778.83825.41883.36198.74076.8065.9658 1.3336.22504.52708.33756 1.11449.33756 1.76223 0 .55884-.07813 1.05734-.23441 1.49553-.15628.43818-.37195.82555-.647 1.16212-.27505.33657-.60323.62234-.98455.8573-.38133.23497-.80327.41596-1.26586.54297L162 19.48403zm-2.75675-8.97314c0-.73665-.23755-1.2923-.71264-1.66698-.47509-.37468-1.14395-.56202-2.00661-.56202h-3.35687v4.47705h3.37562c.82515 0 1.48152-.20321 1.96911-.60964.4876-.40643.73138-.95256.73138-1.6384z"/></g></svg>