<svg xmlns="http://www.w3.org/2000/svg" role="img" viewBox="-3.84 -3.84 199.42 95.67"><title>Metrika logo</title><g fill-opacity="1" fill-rule="evenodd" stroke="none" transform="matrix(1.33333 0 0 -1.33333 0 88.16) scale(.1)"><path fill="#161a25" d="M1373.61 72.9023l-34.54 78.3477-34.55-78.3477zm-82.15-29.6484L1272.42 0h-34.27l83.78 190.148h34.28L1439.99 0h-34.28l-19.04 43.2539h-95.21zM1042.94 190.148h32.1V97.3828l87.04 92.7652h40.81l-76.44-83.242L1203.98 0h-38.09l-63.1 83.2422-27.75-29.9219V0h-32.1v190.148zm-114.956 0h32.098V0h-32.098v190.148zM771.949 93.0273c18.133 0 30.469 2.8125 37 8.4377 6.535 5.625 9.797 14.648 9.797 27.07 0 12.414-3.359 20.949-10.07 25.567-6.707 4.628-18.68 6.933-35.906 6.933h-40.801V93.0273h39.98zm79.707 35.3707c0-31.3746-13.691-51.1402-41.074-59.3042L860.367 0h-40.812l-45.43 63.9258h-42.156V0h-32.106v190.148h70.727c29.023 0 49.785-4.894 62.297-14.687 12.519-9.797 18.769-25.481 18.769-47.063zm-274.367 32.375V0h-32.094v160.773h-57.672v29.375h147.438v-29.375h-57.672zm-146.238 29.375v-30.195H329.586v-50.324h91.129V81.0664h-91.129V30.1953h104.73V0H297.484v190.148h133.567zM32.0977 0H0v190.148h50.0547L107.449 70.7344l57.395 119.4136h49.785V0h-32.102v148.527L116.156 16.5938H98.2031L32.0977 148.527V0"/><path fill="#f1443d" d="M1016.39 364.844c0 61.367-53.554 47.972-53.554 110.074 0 64.625 53.554 51.664 53.554 113.262 0 40.347-32.714 73.066-73.066 73.066-40.34 0-73.066-32.719-73.066-73.066 0-46.782-5.692-51.168-52.391-97.871-46.699-46.704-51.027-52.399-97.871-52.399-40.348 0-73.066-32.719-73.066-73.066 0-40.352 32.718-73.067 73.066-73.067 40.352 0 73.067 32.715 73.067 73.067 0 45.594 5.691 51.168 52.402 97.871 35.066 35.086 78.348 87.258 78.348 12.203 0-62.102-53.555-48.707-53.555-110.074 0-40.352 32.726-73.067 73.066-73.067 40.352 0 73.066 32.715 73.066 73.067zM719.996 661.246c40.352 0 73.067-32.719 73.067-73.066 0-40.348-32.715-73.067-73.067-73.067-47.812 0-51.164-5.691-97.867-52.398s-52.395-52.277-52.395-97.871c0-40.352-32.718-73.067-73.062-73.067-40.348 0-73.07 32.715-73.07 73.067 0 40.347 32.722 73.066 73.07 73.066 46.848 0 51.164 5.692 97.871 52.399 46.703 46.703 52.387 51.089 52.387 97.871 0 40.347 32.718 73.066 73.066 73.066"/></g></svg>