<svg xmlns="http://www.w3.org/2000/svg" role="img" viewBox="-4.88 53.63 409.50 137.50"><title>Mindtree (HCSP) logo</title><style>svg {enable-background:new 0 0 400 245}</style><style>.st0{fill:#626062}</style><linearGradient id="SVGID_1_" x1="200" x2="200.707" y1="122.5" y2="121.793" gradientUnits="userSpaceOnUse"><stop offset="0" stop-color="#2fa84c"/><stop offset=".983" stop-color="#19361b"/></linearGradient><g><g><g><g><path d="M317.5,109.4c0,1.3-0.9,2.2-2.2,2.2h-17.8v0.9c0,5.3,2.1,9.4,7.4,9.4c3.2,0,5.3-0.5,8.2-1.8 c0.3-0.1,0.6-0.2,1-0.2c1.4,0,2.3,1.3,2.3,2.6c0,1-0.5,1.6-1.3,2.1c-2.8,1.7-7.1,2.4-10.3,2.4c-8.7,0-12.9-6.1-12.9-14.4v-5 c0-8.2,4.3-14.4,12.9-14.4c8.7,0,12.8,5.4,12.8,13.7V109.4z M311.9,106c0-4.9-1.7-8.3-7.1-8.3c-5,0-7.3,3.9-7.3,8.8v0.6h14.5 V106z M349.5,109.4c0,1.3-0.9,2.2-2.2,2.2h-17.8v0.9c0,5.3,2.1,9.4,7.4,9.4c3.2,0,5.3-0.5,8.2-1.8c0.3-0.1,0.6-0.2,1-0.2 c1.4,0,2.3,1.3,2.3,2.6c0,1-0.5,1.6-1.3,2.1c-2.8,1.7-7.1,2.4-10.3,2.4c-8.7,0-12.9-6.1-12.9-14.4v-5c0-8.2,4.3-14.4,12.9-14.4 c8.7,0,12.8,5.4,12.8,13.7V109.4z M343.9,106c0-4.9-1.7-8.3-7.1-8.3c-5,0-7.3,3.9-7.3,8.8v0.6h14.4V106z M151.6,80.7 c0-1.6-1.3-2.7-2.8-2.7c-1.2,0-2.2,0.5-2.7,1.6l-14.6,30.7l-14.6-30.6c-0.6-1.2-1.5-1.8-2.9-1.8c-1.6,0-2.8,1.1-2.8,2.7v43.4 c0,1.5,1.2,2.7,2.7,2.7c1.5,0,2.7-1.2,2.7-2.7v-33l12.1,25.7c0.5,1.1,1.5,1.7,2.7,1.7c1.2,0,2.2-0.6,2.7-1.7l12.1-25.8v33 c0,1.5,1.2,2.7,2.7,2.7c1.5,0,2.7-1.2,2.7-2.7V80.7z M167.8,82.6c0-1.9-1.6-3.3-3.4-3.3c-1.8,0-3.3,1.5-3.3,3.3 c0,1.8,1.5,3.3,3.3,3.3C166.3,85.9,167.8,84.5,167.8,82.6z M167.3,123.9V95.9c0-1.6-1.3-2.9-2.9-2.9c-1.6,0-2.8,1.3-2.8,2.9 v28.1c0,1.6,1.2,2.9,2.8,2.9C166.1,126.8,167.3,125.6,167.3,123.9z M203.1,123.9v-19c0-7.3-2.8-12-10.7-12 c-3.8,0-7.5,1-10.2,3.9c-0.8-2-2.7-3.5-5-3.5c-1.6,0-2.7,0.8-2.8,2.1c-0.1,1.4,0.5,1.9,1.7,2.7c0.9,0.6,1.4,1.9,1.4,3.7v22 c0,1.6,1.3,2.9,2.9,2.9c1.6,0,2.9-1.3,2.9-2.9v-21.4c1.7-2.9,4.7-4.1,7.9-4.1c4.8,0,6.2,2.6,6.2,7.1v18.4c0,1.6,1.2,2.9,2.8,2.9 C201.8,126.8,203.1,125.6,203.1,123.9z M236.6,126.8c-1.9,0-3.8-1.3-4.7-2.9c-2.4,1.9-5.5,2.9-8.6,2.9c-8.7,0-12.1-5-12.1-13.2 v-6c0-8,2.6-14.6,11.7-14.6c2.8,0,5.6,0.9,7.8,2.6V81.9c0-1.6,1.3-2.8,2.9-2.8c1.6,0,2.8,1.2,2.8,2.8v36.4c0,5.3,2.9,3.2,2.9,6 C239.4,126,238.1,126.8,236.6,126.8z M230.7,101c-1.7-1.8-4.3-3-6.8-3c-5.5,0-7,4-7,8.8v7.1c0,5.1,1.8,7.9,7.1,7.9 c2.4,0,4.9-1.2,6.7-2.7V101z M261.3,126.4c1.4,0,2.6-1.2,2.6-2.6c0-1.4-1.2-2.6-2.6-2.6H260c-6.1,0-6.3-3.9-6.3-9V98.3h7.7 c1.3,0,2.5-1.1,2.5-2.4c0-1.4-1.1-2.5-2.5-2.5h-7.7v-6.7c0-1.6-1.2-2.9-2.8-2.9c-1.6,0-2.9,1.3-2.9,2.9v6.7h-2.7 c-1.4,0-2.5,1.1-2.5,2.5c0,1.3,1.2,2.4,2.5,2.4h2.7v14c0,8.1,2.1,14.1,11.4,14.1H261.3z M270.4,93.4c-1.6,0-2.7,0.8-2.8,2.1 c-0.1,1.4,0.5,1.9,1.7,2.7c0.9,0.6,1.4,1.9,1.4,3.7v22c0,1.6,1.3,2.9,2.9,2.9c1.6,0,2.9-1.3,2.9-2.9c0-6.5,0-13,0-19.5 c0-0.3,0.4-1.4,0.5-1.8c1.2-3,3.6-4.2,6.7-4.2c1.1,0,2.2,0.1,3.3,0.4c0.3,0.1,0.5,0.1,0.8,0.1c1.6,0,2.7-1.4,2.7-2.9 c0-2.8-3.6-3.1-5.7-3.1c-3.7,0-6.8,1.4-9,4.5C274.8,95.3,272.9,93.4,270.4,93.4z" class="st0"/></g><radialGradient id="SVGID_2_" cx="68.73" cy="68.004" r="82.152" gradientUnits="userSpaceOnUse"><stop offset="0" stop-color="#e96f23"/><stop offset=".55" stop-color="#cb227e"/><stop offset="1" stop-color="#661d75"/></radialGradient><path fill="url(#SVGID_2_)" d="M45.1,91.5c0,1.8-3.4,3.9-5,3.9c-0.7,0-1.4-0.3-1.4-1.1c0-1.7,3.4-3.9,4.9-3.9 C44.4,90.5,45.1,90.7,45.1,91.5z M27.8,65.6c-0.2-0.3-0.6-0.6-1.3-0.5c-1.6,0.2-3.2,1.2-3.6,2.3c-0.1,0.2-0.1,0.7,0.1,1 c0.2,0.3,0.5,0.4,0.8,0.4c1.3,0.1,3.2-0.9,3.8-2.1C27.9,66.4,28,66,27.8,65.6z M86.7,102.1c0-11.6-5.1-24.1-16.4-33 c-0.3-0.2-0.7-0.5-1-0.5c-0.1,0-0.2,0-0.3,0.1c-0.1,0.1-0.1,0.2,0,0.3c9.9,11,5.8,26.9-1.3,35.2c-6.3,7.3-14.4,12.4-21.8,16.4 c-0.5,0.3-1.4,0.7-1.8,1.1c-0.7,0.7-0.9,1.3-0.6,2c0.3,0.6,0.9,0.9,1.9,0.8c0.6-0.1,1.8-0.5,2.6-0.9c6.9-3.5,14.1-8.3,19.6-14.5 c6.8-7.6,11.1-17.2,9.4-28.8c0.1,0.2,0.2,0.3,0.3,0.4c3.7,9.2,0.6,20.8-7.6,31c-5.8,7.2-14.2,13.8-24.5,18.4 c-0.8,0.4-2,1-2.4,1.9c-0.2,0.4-0.2,1,0,1.4c0.2,0.3,0.5,0.6,1,0.6c1.3,0.1,2.6-0.6,3.8-1.2C64,124.5,82,109.6,81,87.5 c0.1,0.3,0.2,0.4,0.2,0.6c1.8,9.1-0.2,17.1-4,23.8c-3.2,5.8-7.7,10.6-12.2,14.3c-2.4,2-3.4,3.1-2.8,4.2c0.6,1,2.1,0.5,3.1,0 c1.8-1.1,3.4-2.7,4.7-3.9c7.4-7.5,12.9-15.6,14.2-29c0.1,0.6,0.2,1.4,0.2,1.8c0.3,6.8-1.1,13-3.6,18.4 c-3.8,8.1-10.2,14.5-17.8,18.6c-1.6,0.9-2.2,1.8-1.8,2.7c0.2,0.5,0.7,0.8,1.3,0.8c0.7,0.1,1.3-0.1,1.9-0.5 C78.1,132,86.7,118,86.7,102.1z M48.5,61.7c-1.5-0.2-4.7,0.8-4.5,2.2c0.1,0.6,0.6,0.9,1.2,0.9c1.3,0.1,4.6-0.7,4.5-2.2 C49.6,62,49,61.7,48.5,61.7z M61.4,64.5c-1.1-0.1-3.5,0.6-3.6,1.9c-0.1,0.7,0.9,1,1.4,1c1.1,0.1,3.5-0.5,3.6-1.9 C62.9,64.8,62,64.5,61.4,64.5z M47.9,77.9c-1.7-0.1-5.3,2-5.4,3.9c0,0.7,0.6,1,1.2,1c1.7,0.1,5.3-2,5.4-3.9 C49.1,78.2,48.5,77.9,47.9,77.9z M55.1,74.2c-1.4-0.1-4.4,1.2-4.5,2.8c-0.1,0.6,0.5,1,1.1,1c1.4,0.1,4.4-1.2,4.5-2.8 C56.2,74.6,55.6,74.3,55.1,74.2z M66.6,93c-1.2,0-2.4,1.5-2.4,2.6c0,0.6,0.4,1.1,1,1.1c1.2,0,2.4-1.5,2.4-2.6 C67.6,93.5,67.2,93,66.6,93z M61.7,71.5c-1.1-0.1-3.1,0.8-3.2,2c-0.1,0.6,0.5,0.8,1,0.9c1.1,0.1,3.1-0.8,3.2-2 C62.7,71.8,62.2,71.5,61.7,71.5z M65.5,79.3c-1.1,0-2.3,1.7-2.3,2.7c0,0.5,0.3,0.9,0.8,0.9c1.1,0,2.3-1.7,2.3-2.7 C66.3,79.7,66,79.3,65.5,79.3z M61.4,98.4c-0.6,0.3-1.3,0.8-1.9,1.4c-0.6,0.6-1,1.3-1.2,2c-0.1,0.5-0.1,1.1,0.2,1.4 c0.3,0.4,0.9,0.4,1.3,0.4c0.7-0.1,1.6-0.7,2.3-1.4c0.7-0.7,1.2-1.6,1.4-2.4c0.1-0.7-0.1-1.1-0.3-1.3 C62.7,98.1,62.2,98.1,61.4,98.4z M60.2,85.7c-0.3,0.4-0.6,0.8-0.9,1.2c-0.2,0.4-0.4,0.8-0.4,1.2c0,0.6,0.3,1.1,0.9,1.1 c0.4,0,0.8-0.2,1.2-0.4c0.4-0.3,0.8-0.6,1.2-1c0.4-0.4,0.7-0.8,0.9-1.3c0.2-0.4,0.4-0.9,0.4-1.2c0-0.6-0.4-0.9-1-0.9 C61.7,84.4,60.8,85,60.2,85.7z M39.1,133.5c-1-0.1-3.5,0.7-4.5,1.6c-0.5,0.4-0.7,1-0.6,1.4c0.2,0.6,0.7,0.7,1.2,0.8 c1,0.1,3.4-0.5,4.6-1.6c0.4-0.3,0.6-0.9,0.5-1.3C40.2,133.8,39.6,133.5,39.1,133.5z M40.2,123.9c-1.1,0-3.6,0.9-4.7,1.9 c-0.5,0.5-0.7,1.1-0.5,1.5c0.3,0.7,0.8,0.7,1.3,0.7c1.1,0,3.5-0.7,4.7-1.9c0.4-0.4,0.6-0.9,0.5-1.4 C41.4,124.1,40.8,123.9,40.2,123.9z M58.4,131.9c-1,0.1-3.3,1.3-4.2,2.4c-0.4,0.5-0.6,1.1-0.3,1.5c0.3,0.6,0.8,0.6,1.3,0.5 c1-0.1,3.3-1.2,4.2-2.4c0.3-0.4,0.4-1,0.3-1.4C59.6,132,58.9,131.8,58.4,131.9z M49.7,136.9c-0.9,0-3.1,0.8-4,1.6 c-0.4,0.4-0.6,0.9-0.5,1.3c0.2,0.6,0.7,0.6,1.1,0.6c0.9,0,3.1-0.6,4.1-1.7c0.3-0.3,0.5-0.8,0.4-1.2 C50.7,137.1,50.1,136.9,49.7,136.9z M29.7,136.7c-0.5,0-1.5,0.1-2.4,0.7c-0.4,0.2-0.7,0.6-0.7,1.1c0,0.6,0.5,0.8,1.1,0.8 c0.8,0.1,1.8-0.1,2.6-0.5c0.4-0.2,0.8-0.7,0.8-1.2C31,136.9,30.4,136.7,29.7,136.7z M40.1,140.5c-0.5,0-1.4,0.2-2.2,0.7 c-0.4,0.2-0.7,0.6-0.6,1.1c0.1,0.6,0.5,0.7,1.1,0.8c0.8,0,1.7-0.1,2.4-0.6c0.4-0.2,0.7-0.7,0.6-1.2 C41.3,140.7,40.7,140.5,40.1,140.5z M49.1,87.4c-0.4,0-0.7,0.1-1,0.2h0c-0.7,0.3-1.7,1.1-1.7,2c0,0.6,0.5,0.8,1,0.8 c1.1,0,2.7-1,2.7-2.2C50.1,87.6,49.6,87.4,49.1,87.4z M56.9,139.7c-0.7,0-2,0.3-2.8,0.8c-0.6,0.4-0.9,1-0.8,1.5 c0.1,0.6,0.7,0.9,1.4,0.9c0.9,0,2.1-0.4,2.8-0.9c0.5-0.4,0.9-0.9,0.7-1.4C58,139.9,57.4,139.7,56.9,139.7z M20.2,136.2 c0.5,0.4,1.4,0.9,2.2,1.2c0.1,0.1,0.3,0,0.3-0.1c0.1-0.1,0.1-0.2,0-0.4c-0.5-0.6-0.9-1.1-1.1-1.6c-0.1-0.4,0-1.1,0-1.3 c1-4.7,5.7-7.8,10.6-11.3c3-2.1,16.1-9.2,22.1-14c1.9-1.6,2.7-2.5,2.8-3.3c0-0.4-0.1-0.9-0.4-1.1c-0.2-0.2-0.4-0.3-0.7-0.3 c-1-0.1-2.1,0.3-3.5,1.3c-6.8,5.5-17.1,10.9-24.4,16.6c-4.2,3.3-7.4,6.8-8.3,10.4c-0.1-0.1-0.2-0.1-0.2-0.2 c1.1-13.5,19-22.3,28.2-30c2.3-1.9,9.3-7.3,10.3-9.8c0.4-0.8,0.2-1.6-0.3-1.9c-0.4-0.2-0.9-0.4-1.4-0.2c-1.1,0.2-2.4,1.3-3.8,2.6 c-11.4,10.8-20.9,15.6-27.4,22.5c-3.6,3.8-6.3,8.3-7.9,14.9c0,0-0.2-0.2-0.2-0.2c0.6-9.9,6.9-19.5,14.5-26.3 c2.7-2.4,4.4-3.8,5.5-4.8c0.7-0.6,1.1-1.5,0.6-2.3c-0.4-0.6-1.1-0.7-1.8-0.6c-1.1,0.2-1.8,0.7-2.6,1.4 c-5.3,4.2-9.8,9.4-13.1,15.3c-2.6,4.7-4.4,9.7-5.3,15.1c0,0-0.2-0.2-0.2-0.3c0.6-15,7.5-26,17.1-34.7c2.3-2.1,4.4-3.5,6.8-5.4 c1.9-1.5,2.3-2.8,1.8-3.6c-0.5-0.7-1.3-0.7-2.3-0.4c-2,0.6-4.1,2.5-6.7,4.8c-6,5.4-10.9,11.1-14.2,18.1 c-2.5,5.3-4.1,11.4-4.5,18.5c0,0-0.2-0.2-0.2-0.3c-0.2-1.8-0.1-4.2,0-5.9c0.5-7,1.6-21.7,21.6-38c3.6-2.9,9.5-6.3,13.7-8.5 c1.3-0.7,2.5-1.2,3.7-2c0.7-0.5,1.1-1.2,0.9-1.9c-0.2-0.7-0.9-0.8-1.5-0.8c-1.4,0-2.5,0.6-3.6,1.2C38.1,73.1,27.5,80,20,90.3 c-5.7,7.8-9.6,17.7-9.7,30.1c-0.1-0.2-0.1-0.2-0.2-0.4c-0.5-3-0.6-6.1-0.6-8.2c0.4-19.4,11.9-33,27.7-42.3 c1.3-0.8,2.7-1.6,2.7-2.8c0-0.8-0.6-1.2-1.3-1.2c-0.7,0-1.4,0.2-2.4,0.8c-9.6,5.1-17.6,12.3-22.7,21.1c-4.3,7.4-6.5,16-6.2,25.4 c0-0.1-0.1-0.3-0.2-0.6c-0.8-3.1-1.3-6.4-1.3-9.6c0-4.4,0.9-8.7,2.4-12.8c2-5.2,5-10,8.8-14.1c1.2-1.4,3.8-3.5,4.5-4.2 c0.5-0.6,0.8-1.3,0.5-1.9c-0.2-0.4-0.6-0.6-1.1-0.6c-2.1,0-5.3,3.2-6.7,4.7C7.1,81.5,3,91.6,3,102.1 C3,114.4,8.2,127.3,20.2,136.2z M33.1,63.1c-0.1-0.2-0.4-0.4-0.9-0.4c-1.1,0-2.4,0.6-2.7,1.3c-0.1,0.2-0.2,0.5,0,0.7 c0.1,0.2,0.3,0.3,0.6,0.4c0.9,0.2,2.4-0.4,2.9-1.2C33.1,63.7,33.2,63.4,33.1,63.1z"/></g></g><path d="M111,151.8c0.3,0,0.6-0.1,1-0.1c0.4,0,0.7,0,1.1,0c0.5,0,0.9,0,1.4,0.1l0.4,19.3l7.8-19.3 c0.3,0,0.6-0.1,0.9-0.1c0.3,0,0.7,0,0.9,0c0.2,0,0.5,0,0.8,0c0.3,0,0.6,0,0.8,0.1l1.3,19.5l7-19.5c0.5-0.1,1.1-0.1,1.7-0.1 c0.3,0,0.6,0,0.9,0c0.3,0,0.6,0,0.8,0.1l-9.3,23.6c-0.3,0-0.6,0.1-0.9,0.1c-0.4,0-0.7,0-1,0c-0.3,0-0.6,0-1,0c-0.4,0-0.7,0-1-0.1 l-1.3-18.1l-7.5,18.1c-0.3,0-0.6,0.1-1,0.1c-0.4,0-0.7,0-1,0c-0.3,0-0.6,0-0.9,0c-0.3,0-0.6,0-0.9-0.1L111,151.8z M139.7,168.7 c0.1,1.5,0.4,2.6,1.1,3.3c0.7,0.7,1.7,1.1,3.2,1.1c0.9,0,1.7-0.1,2.5-0.3c0.8-0.2,1.5-0.4,2.1-0.7c0.2,0.3,0.3,0.7,0.4,1.2 c0.1,0.5,0.1,0.9,0.1,1.4c-0.3,0.2-0.7,0.3-1.2,0.4c-0.5,0.1-1,0.2-1.5,0.3c-0.5,0.1-1,0.2-1.6,0.2c-0.5,0.1-1,0.1-1.4,0.1 c-1.3,0-2.4-0.2-3.3-0.5c-0.9-0.3-1.6-0.8-2.2-1.4c-0.6-0.6-1-1.3-1.2-2.1c-0.3-0.8-0.4-1.7-0.4-2.7c0-1.3,0.2-2.7,0.7-4 c0.4-1.3,1.1-2.5,1.9-3.5c0.8-1,1.9-1.9,3-2.5c1.2-0.6,2.5-1,3.9-1c1.4,0,2.6,0.4,3.4,1.1c0.8,0.7,1.3,1.7,1.3,2.8 c0,1-0.2,1.8-0.7,2.5c-0.5,0.7-1.1,1.3-2,1.8c-0.8,0.5-1.8,0.9-2.9,1.2c-1.1,0.3-2.4,0.6-3.7,0.8L139.7,168.7z M141.8,166 c1.1-0.2,2-0.4,2.8-0.7c0.7-0.3,1.3-0.5,1.8-0.8c0.4-0.3,0.7-0.6,0.9-0.9c0.2-0.3,0.3-0.7,0.3-1.1c0-0.5-0.2-0.9-0.5-1.2 c-0.3-0.3-0.9-0.5-1.5-0.5c-0.7,0-1.3,0.2-1.9,0.5c-0.6,0.3-1.1,0.7-1.6,1.2c-0.5,0.5-0.9,1.1-1.2,1.8c-0.3,0.7-0.6,1.4-0.8,2.1 L141.8,166z M155.7,158.1c0.2-1.2,0.4-2.3,0.5-3.2c0.1-0.9,0.2-1.7,0.2-2.4c0-0.3,0-0.5,0-0.6c0-0.2,0-0.3,0-0.6 c0.2,0,0.5-0.1,0.9-0.1c0.3,0,0.6,0,0.9,0c0.2,0,0.5,0,0.7,0c0.3,0,0.5,0.1,0.8,0.1c0,0.2,0.1,0.4,0.1,0.6c0,0.2,0,0.4,0,0.6 c0,0.2,0,0.5,0,0.9c0,0.3-0.1,0.7-0.1,1.1c0,0.4-0.1,0.8-0.2,1.1c-0.1,0.4-0.1,0.8-0.2,1.1l-2.6,13.9c-0.1,0.4-0.1,0.7-0.1,0.9 c0,0.3,0,0.6,0.1,0.8c0.1,0.2,0.2,0.4,0.4,0.5c0.2,0.1,0.3,0.2,0.5,0.2c0.2,0,0.4,0,0.5,0c0.2,0,0.4,0,0.7-0.1 c0.3,0,0.5-0.1,0.6-0.1c0.2,0.6,0.3,1.2,0.3,2c0,0.1,0,0.2,0,0.2c0,0.1,0,0.1,0,0.2c-0.3,0.1-0.7,0.2-1.2,0.2 c-0.5,0.1-0.9,0.1-1.4,0.1c-0.6,0-1.1-0.1-1.6-0.2c-0.5-0.1-0.9-0.3-1.2-0.6c-0.3-0.3-0.6-0.7-0.8-1.1c-0.2-0.5-0.3-1.1-0.3-1.8 c0-0.4,0-0.9,0.1-1.3c0.1-0.5,0.2-0.9,0.3-1.3L155.7,158.1z M173.4,172.5c0.2,0.3,0.3,0.7,0.4,1.1c0.1,0.4,0.1,0.9,0.1,1.5 c-0.6,0.3-1.4,0.5-2.2,0.6c-0.8,0.1-1.6,0.2-2.3,0.2c-2.4,0-4.2-0.6-5.3-1.8c-1.1-1.2-1.7-2.8-1.7-5c0-1.3,0.2-2.6,0.6-3.9 c0.4-1.3,1.1-2.5,1.9-3.5c0.8-1,1.9-1.9,3.1-2.5c1.2-0.6,2.6-1,4.2-1c0.7,0,1.4,0.1,2.1,0.2c0.7,0.1,1.2,0.3,1.7,0.5 c0,0.4-0.1,0.9-0.3,1.4c-0.2,0.5-0.3,0.9-0.6,1.3c-0.4-0.2-0.9-0.3-1.4-0.4c-0.5-0.1-1.1-0.2-1.6-0.2c-1.1,0-2,0.2-2.8,0.7 c-0.8,0.5-1.4,1.1-2,1.8c-0.5,0.8-0.9,1.6-1.2,2.5c-0.3,0.9-0.4,1.9-0.4,2.8c0,1.5,0.4,2.6,1.1,3.3c0.7,0.7,1.7,1.1,3,1.1 c0.6,0,1.1-0.1,1.7-0.1C172.2,172.9,172.8,172.7,173.4,172.5z M183.2,175.8c-2,0-3.6-0.6-4.6-1.7c-1-1.1-1.5-2.7-1.5-4.8 c0-1.2,0.2-2.5,0.6-3.8c0.4-1.3,0.9-2.5,1.7-3.6c0.8-1.1,1.8-2,2.9-2.7c1.2-0.7,2.6-1.1,4.2-1.1c2.1,0,3.6,0.6,4.6,1.7 c1,1.1,1.5,2.7,1.5,4.8c0,1.2-0.2,2.5-0.6,3.8c-0.4,1.3-0.9,2.5-1.7,3.6c-0.8,1.1-1.7,2-2.9,2.7 C186.2,175.5,184.8,175.8,183.2,175.8z M183.5,173.2c1,0,1.9-0.3,2.6-0.8c0.7-0.6,1.3-1.3,1.8-2.1c0.5-0.9,0.8-1.8,1-2.8 c0.2-1,0.3-1.9,0.3-2.8c0-1.3-0.3-2.2-0.8-2.9c-0.6-0.7-1.4-1-2.4-1c-1,0-1.9,0.3-2.6,0.9c-0.7,0.6-1.3,1.3-1.8,2.1 c-0.5,0.9-0.8,1.8-1,2.8c-0.2,1-0.3,1.9-0.3,2.8c0,1.2,0.3,2.2,0.8,2.9C181.7,172.9,182.5,173.2,183.5,173.2z M196.5,165.7 c0.2-1.3,0.4-2.4,0.6-3.4c0.1-0.9,0.2-1.8,0.2-2.5c0-0.3,0-0.5,0-0.7c0-0.2,0-0.4-0.1-0.6c0.2,0,0.5-0.1,0.8-0.1c0.3,0,0.5,0,0.8,0 c0.2,0,0.5,0,0.7,0c0.3,0,0.5,0.1,0.8,0.1c0,0.2,0.1,0.4,0.1,0.6c0,0.2,0,0.5,0,0.9c0,0.3,0,0.5,0,0.8c0,0.2-0.1,0.5-0.1,0.8 c0.6-0.9,1.3-1.7,2.3-2.3c1-0.6,2.1-1,3.3-1c1.2,0,2.1,0.3,2.7,0.9c0.6,0.6,1,1.4,1.1,2.5c0.7-1,1.5-1.8,2.5-2.5c1-0.6,2.1-1,3.3-1 c2.6,0,3.9,1.4,3.9,4.3c0,0.3,0,0.7-0.1,1.1c0,0.4-0.1,0.8-0.2,1.2l-1.9,10.7c-0.2,0-0.5,0.1-0.8,0.1c-0.3,0-0.6,0-0.8,0 c-0.2,0-0.5,0-0.8,0c-0.3,0-0.6-0.1-0.8-0.1l1.8-10.1c0.1-0.4,0.1-0.7,0.1-1c0-0.3,0-0.6,0-0.9c0-0.8-0.2-1.4-0.5-1.8 c-0.3-0.4-0.9-0.6-1.6-0.6c-0.5,0-0.9,0.1-1.4,0.3c-0.5,0.2-1,0.6-1.4,1.1c-0.4,0.5-0.9,1.2-1.2,2.1c-0.4,0.9-0.7,1.9-0.9,3.2 l-1.3,7.7c-0.3,0-0.5,0.1-0.9,0.1c-0.3,0-0.6,0-0.8,0c-0.2,0-0.5,0-0.8,0c-0.3,0-0.6-0.1-0.8-0.1l1.8-10.1c0.1-0.4,0.1-0.7,0.1-1 c0-0.3,0-0.6,0-0.9c0-0.8-0.2-1.4-0.5-1.8c-0.3-0.4-0.9-0.6-1.6-0.6c-0.5,0-0.9,0.1-1.4,0.3c-0.5,0.2-1,0.6-1.4,1.1 c-0.4,0.5-0.9,1.3-1.2,2.2c-0.4,0.9-0.7,2.1-0.9,3.4l-1.3,7.3c-0.3,0-0.5,0.1-0.9,0.1c-0.3,0-0.6,0-0.8,0c-0.2,0-0.5,0-0.8,0 c-0.3,0-0.5-0.1-0.8-0.1L196.5,165.7z M225.5,168.7c0.1,1.5,0.4,2.6,1.1,3.3c0.7,0.7,1.7,1.1,3.2,1.1c0.9,0,1.7-0.1,2.5-0.3 c0.8-0.2,1.5-0.4,2.1-0.7c0.2,0.3,0.3,0.7,0.4,1.2c0.1,0.5,0.1,0.9,0.1,1.4c-0.3,0.2-0.7,0.3-1.2,0.4c-0.5,0.1-1,0.2-1.5,0.3 c-0.5,0.1-1,0.2-1.6,0.2c-0.5,0.1-1,0.1-1.4,0.1c-1.3,0-2.4-0.2-3.3-0.5c-0.9-0.3-1.6-0.8-2.2-1.4c-0.6-0.6-1-1.3-1.2-2.1 c-0.3-0.8-0.4-1.7-0.4-2.7c0-1.3,0.2-2.7,0.7-4c0.4-1.3,1.1-2.5,1.9-3.5c0.8-1,1.9-1.9,3-2.5c1.2-0.6,2.5-1,3.9-1 c1.4,0,2.6,0.4,3.4,1.1c0.8,0.7,1.3,1.7,1.3,2.8c0,1-0.2,1.8-0.7,2.5c-0.5,0.7-1.1,1.3-2,1.8c-0.8,0.5-1.8,0.9-2.9,1.2 c-1.1,0.3-2.4,0.6-3.7,0.8L225.5,168.7z M227.6,166c1.1-0.2,2-0.4,2.8-0.7c0.7-0.3,1.3-0.5,1.8-0.8c0.4-0.3,0.7-0.6,0.9-0.9 c0.2-0.3,0.3-0.7,0.3-1.1c0-0.5-0.2-0.9-0.5-1.2c-0.4-0.3-0.9-0.5-1.5-0.5c-0.7,0-1.3,0.2-1.9,0.5c-0.6,0.3-1.1,0.7-1.6,1.2 c-0.5,0.5-0.9,1.1-1.2,1.8c-0.3,0.7-0.6,1.4-0.8,2.1L227.6,166z M249.1,161.2h-2.7c0-0.4,0-0.9,0.1-1.3c0.1-0.4,0.2-0.8,0.4-1.3 h2.6c0.1-0.6,0.2-1.2,0.3-1.7c0.1-0.6,0.1-1.2,0.1-1.8v-0.5c0.4-0.2,1-0.4,1.6-0.5c0.6-0.1,1.1-0.2,1.6-0.2c0,0.2,0,0.4,0,0.6 c0,0.2,0,0.4,0,0.6c0,0.7-0.1,1.5-0.3,2.5l-0.2,1h4.2c0,0.5,0,0.9-0.1,1.3c-0.1,0.4-0.2,0.8-0.3,1.3h-4.2l-1.3,7.1 c-0.1,0.5-0.2,1-0.3,1.6c-0.1,0.5-0.1,1-0.1,1.5c0,0.7,0.2,1.1,0.5,1.4c0.3,0.3,0.8,0.4,1.4,0.4c0.4,0,0.7,0,1-0.1 c0.3-0.1,0.6-0.1,0.9-0.2c0.1,0.2,0.1,0.5,0.2,0.7c0,0.3,0.1,0.5,0.1,0.9c0,0.2,0,0.3,0,0.5c0,0.2,0,0.3,0,0.5 c-0.3,0.1-0.7,0.2-1.1,0.2c-0.5,0.1-1,0.1-1.5,0.1c-0.7,0-1.3,0-1.9-0.1c-0.6-0.1-1.1-0.3-1.5-0.6c-0.4-0.3-0.7-0.6-1-1.1 c-0.2-0.5-0.3-1.1-0.3-1.9c0-0.4,0-0.9,0.1-1.3c0.1-0.5,0.2-1,0.2-1.5L249.1,161.2z M263.8,175.8c-2,0-3.6-0.6-4.6-1.7 c-1-1.1-1.5-2.7-1.5-4.8c0-1.2,0.2-2.5,0.6-3.8c0.4-1.3,0.9-2.5,1.7-3.6c0.8-1.1,1.8-2,2.9-2.7c1.2-0.7,2.6-1.1,4.2-1.1 c2.1,0,3.6,0.6,4.6,1.7c1,1.1,1.5,2.7,1.5,4.8c0,1.2-0.2,2.5-0.6,3.8c-0.4,1.3-0.9,2.5-1.7,3.6c-0.8,1.1-1.7,2-2.9,2.7 C266.8,175.5,265.4,175.8,263.8,175.8z M264.1,173.2c1,0,1.9-0.3,2.6-0.8c0.7-0.6,1.3-1.3,1.8-2.1c0.5-0.9,0.8-1.8,1-2.8 c0.2-1,0.3-1.9,0.3-2.8c0-1.3-0.3-2.2-0.8-2.9c-0.6-0.7-1.4-1-2.4-1c-1,0-1.9,0.3-2.6,0.9c-0.7,0.6-1.3,1.3-1.8,2.1 c-0.5,0.9-0.8,1.8-1,2.8c-0.2,1-0.3,1.9-0.3,2.8c0,1.2,0.3,2.2,0.8,2.9C262.3,172.9,263.1,173.2,264.1,173.2z M282.4,165.7 c0.2-1.3,0.4-2.4,0.6-3.4c0.1-0.9,0.2-1.8,0.2-2.5c0-0.3,0-0.5,0-0.7c0-0.2,0-0.4,0-0.6c0.2,0,0.5-0.1,0.8-0.1c0.3,0,0.5,0,0.8,0 c0.2,0,0.5,0,0.7,0c0.3,0,0.5,0.1,0.8,0.1c0,0.2,0.1,0.4,0.1,0.6c0,0.2,0,0.5,0,0.9c0,0.3,0,0.5,0,0.7c0,0.2-0.1,0.4-0.1,0.7 c0.6-0.9,1.4-1.7,2.3-2.3c0.9-0.6,2.1-0.9,3.4-0.9c1.5,0,2.7,0.5,3.6,1.6c0.9,1.1,1.3,2.6,1.3,4.5c0,1.6-0.2,3-0.7,4.4 c-0.5,1.4-1.2,2.6-2.1,3.7c-0.9,1.1-2.1,1.9-3.5,2.5c-1.4,0.6-3,0.9-4.9,0.9c-0.4,0-0.7,0-0.9,0c-0.3,0-0.5-0.1-0.8-0.1l-1.3,7.5 c-0.3,0-0.5,0.1-0.9,0.1c-0.3,0-0.6,0-0.8,0c-0.2,0-0.5,0-0.8,0c-0.3,0-0.6-0.1-0.8-0.1L282.4,165.7z M284.4,172.9 c0.2,0.1,0.5,0.1,0.9,0.2c0.3,0,0.7,0,1,0c1,0,1.9-0.2,2.8-0.6c0.9-0.4,1.6-1,2.2-1.7c0.6-0.7,1.1-1.6,1.5-2.6 c0.4-1,0.5-2.1,0.5-3.3c0-1.2-0.3-2.1-0.8-2.8c-0.5-0.7-1.2-1-2.2-1c-0.6,0-1.1,0.1-1.6,0.4c-0.5,0.2-1,0.6-1.5,1.1 c-0.4,0.5-0.8,1.2-1.2,2.1c-0.3,0.8-0.6,1.9-0.8,3.1L284.4,172.9z M305.5,175.8c-2,0-3.6-0.6-4.6-1.7c-1-1.1-1.5-2.7-1.5-4.8 c0-1.2,0.2-2.5,0.6-3.8c0.4-1.3,0.9-2.5,1.7-3.6c0.8-1.1,1.8-2,2.9-2.7c1.2-0.7,2.6-1.1,4.2-1.1c2.1,0,3.6,0.6,4.6,1.7 c1,1.1,1.5,2.7,1.5,4.8c0,1.2-0.2,2.5-0.6,3.8c-0.4,1.3-0.9,2.5-1.7,3.6c-0.8,1.1-1.7,2-2.9,2.7 C308.5,175.5,307.1,175.8,305.5,175.8z M305.8,173.2c1,0,1.9-0.3,2.6-0.8c0.7-0.6,1.3-1.3,1.8-2.1c0.5-0.9,0.8-1.8,1-2.8 c0.2-1,0.3-1.9,0.3-2.8c0-1.3-0.3-2.2-0.8-2.9c-0.6-0.7-1.4-1-2.4-1c-1,0-1.9,0.3-2.6,0.9c-0.7,0.6-1.3,1.3-1.8,2.1 c-0.5,0.9-0.8,1.8-1,2.8c-0.2,1-0.3,1.9-0.3,2.8c0,1.2,0.3,2.2,0.8,2.9C304,172.9,304.8,173.2,305.8,173.2z M321.6,167.5 c-0.3-0.1-0.7-0.3-1.1-0.5c-0.4-0.2-0.7-0.5-1-0.8c-0.3-0.3-0.6-0.7-0.8-1.2c-0.2-0.5-0.3-1-0.3-1.7c0-0.8,0.2-1.5,0.5-2.2 c0.3-0.6,0.8-1.2,1.4-1.6c0.6-0.5,1.3-0.8,2.1-1c0.8-0.2,1.7-0.4,2.7-0.4c0.9,0,1.8,0.1,2.6,0.3c0.8,0.2,1.4,0.4,1.9,0.7 c-0.2,0.9-0.5,1.7-1,2.5c-0.4-0.2-0.9-0.4-1.5-0.5c-0.7-0.2-1.4-0.3-2.1-0.3c-0.9,0-1.7,0.2-2.4,0.5c-0.6,0.3-0.9,0.9-0.9,1.7 c0,0.5,0.1,0.9,0.4,1.3c0.3,0.3,0.8,0.7,1.6,1l0.7,0.3c0.4,0.2,0.8,0.4,1.3,0.6c0.5,0.2,0.9,0.5,1.2,0.8c0.4,0.3,0.7,0.7,0.9,1.2 c0.2,0.4,0.3,1,0.3,1.7c0,1.1-0.2,2-0.6,2.7c-0.4,0.8-0.9,1.4-1.6,1.9c-0.7,0.5-1.5,0.9-2.4,1.1c-0.9,0.2-1.9,0.4-2.9,0.4 c-0.9,0-1.7-0.1-2.6-0.2c-0.8-0.2-1.5-0.3-2.1-0.6c0-0.5,0.1-0.9,0.2-1.4c0.1-0.4,0.3-0.9,0.5-1.2c0.6,0.2,1.2,0.4,2,0.6 c0.8,0.1,1.5,0.2,2.1,0.2c0.5,0,1.1-0.1,1.5-0.2c0.5-0.1,0.9-0.3,1.2-0.5c0.3-0.2,0.6-0.5,0.8-0.8c0.2-0.4,0.3-0.8,0.3-1.3 c0-0.7-0.2-1.2-0.6-1.5c-0.4-0.3-1-0.7-1.7-0.9L321.6,167.5z M335.9,167.5c-0.3-0.1-0.7-0.3-1-0.5c-0.4-0.2-0.7-0.5-1-0.8 c-0.3-0.3-0.6-0.7-0.8-1.2c-0.2-0.5-0.3-1-0.3-1.7c0-0.8,0.2-1.5,0.5-2.2c0.3-0.6,0.8-1.2,1.4-1.6c0.6-0.5,1.3-0.8,2.1-1 c0.8-0.2,1.7-0.4,2.7-0.4c0.9,0,1.8,0.1,2.6,0.3c0.8,0.2,1.4,0.4,1.9,0.7c-0.2,0.9-0.5,1.7-1,2.5c-0.4-0.2-0.9-0.4-1.5-0.5 c-0.7-0.2-1.4-0.3-2.1-0.3c-0.9,0-1.7,0.2-2.3,0.5c-0.6,0.3-0.9,0.9-0.9,1.7c0,0.5,0.2,0.9,0.4,1.3c0.3,0.3,0.8,0.7,1.6,1l0.7,0.3 c0.4,0.2,0.8,0.4,1.3,0.6c0.5,0.2,0.9,0.5,1.2,0.8c0.4,0.3,0.7,0.7,0.9,1.2c0.2,0.4,0.3,1,0.3,1.7c0,1.1-0.2,2-0.6,2.7 c-0.4,0.8-0.9,1.4-1.6,1.9c-0.7,0.5-1.5,0.9-2.4,1.1c-0.9,0.2-1.9,0.4-2.9,0.4c-0.9,0-1.7-0.1-2.6-0.2c-0.8-0.2-1.5-0.3-2.1-0.6 c0-0.5,0.1-0.9,0.2-1.4c0.1-0.4,0.3-0.9,0.5-1.2c0.6,0.2,1.2,0.4,2,0.6c0.8,0.1,1.5,0.2,2.1,0.2c0.5,0,1.1-0.1,1.5-0.2 c0.5-0.1,0.9-0.3,1.2-0.5c0.4-0.2,0.6-0.5,0.8-0.8c0.2-0.4,0.3-0.8,0.3-1.3c0-0.7-0.2-1.2-0.6-1.5c-0.4-0.3-1-0.7-1.7-0.9 L335.9,167.5z M349.1,161.2h-2c0-0.4,0-0.9,0.1-1.3c0.1-0.4,0.2-0.9,0.3-1.3h5.3l-3,16.9c-0.2,0-0.5,0.1-0.8,0.1 c-0.3,0-0.6,0-0.8,0c-0.2,0-0.5,0-0.8,0c-0.3,0-0.5,0-0.8-0.1L349.1,161.2z M349,155.1c0-0.6,0.1-1.2,0.2-1.8 c0.1-0.6,0.2-1.1,0.4-1.7c0.3,0,0.6-0.1,1-0.1c0.3,0,0.7,0,0.9,0c0.3,0,0.6,0,0.9,0c0.3,0,0.7,0.1,0.9,0.1c0,0.6-0.1,1.2-0.2,1.8 c-0.1,0.6-0.3,1.2-0.4,1.7c-0.3,0-0.6,0.1-1,0.1c-0.4,0-0.7,0-0.9,0c-0.2,0-0.5,0-0.9,0C349.6,155.2,349.3,155.1,349,155.1z M358.3,158.1c0.2-1.2,0.4-2.2,0.5-3.1c0.1-0.9,0.2-1.7,0.2-2.4c0-0.3,0-0.5,0-0.7c0-0.2,0-0.3,0-0.6c0.2,0,0.5-0.1,0.9-0.1 c0.3,0,0.6,0,0.9,0c0.2,0,0.5,0,0.7,0c0.3,0,0.5,0,0.8,0.1c0,0.2,0,0.4,0,0.6c0,0.2,0,0.4,0,0.6c0,0.5-0.1,1.2-0.2,2 c-0.1,0.8-0.2,1.6-0.4,2.3l-0.8,4.3c0.3-0.4,0.6-0.8,0.9-1.1c0.3-0.3,0.7-0.7,1.2-0.9c0.4-0.3,0.9-0.5,1.5-0.6 c0.5-0.2,1.2-0.2,1.9-0.2c1.5,0,2.7,0.5,3.6,1.6c0.9,1.1,1.3,2.6,1.3,4.5c0,1.6-0.2,3-0.7,4.4c-0.5,1.4-1.2,2.6-2.1,3.7 c-1,1.1-2.1,1.9-3.6,2.5c-1.4,0.6-3.1,0.9-5,0.9c-0.8,0-1.7-0.1-2.5-0.2c-0.8-0.2-1.5-0.3-2.1-0.6L358.3,158.1z M358.9,172.9 c0.2,0.1,0.5,0.1,0.9,0.2c0.3,0,0.7,0.1,1,0.1c1,0,1.9-0.2,2.8-0.6c0.9-0.4,1.6-1,2.2-1.7c0.6-0.7,1.1-1.6,1.5-2.6 c0.4-1,0.5-2.1,0.5-3.3c0-1.2-0.2-2.1-0.7-2.8c-0.5-0.7-1.2-1-2.2-1c-0.6,0-1.1,0.1-1.6,0.4c-0.5,0.2-1,0.6-1.5,1.1 c-0.4,0.5-0.8,1.2-1.2,2.1c-0.3,0.8-0.6,1.9-0.8,3.1L358.9,172.9z M376.2,158.1c0.2-1.2,0.4-2.3,0.5-3.2c0.1-0.9,0.2-1.7,0.2-2.4 c0-0.3,0-0.5,0-0.6c0-0.2,0-0.3,0-0.6c0.2,0,0.5-0.1,0.9-0.1c0.3,0,0.6,0,0.9,0c0.2,0,0.5,0,0.7,0c0.3,0,0.5,0.1,0.8,0.1 c0,0.2,0.1,0.4,0.1,0.6c0,0.2,0,0.4,0,0.6c0,0.2,0,0.5-0.1,0.9c0,0.3-0.1,0.7-0.1,1.1c0,0.4-0.1,0.8-0.2,1.1 c-0.1,0.4-0.1,0.8-0.2,1.1l-2.6,13.9c-0.1,0.4-0.1,0.7-0.1,0.9c0,0.3,0,0.6,0.1,0.8c0.1,0.2,0.2,0.4,0.4,0.5 c0.2,0.1,0.3,0.2,0.5,0.2c0.2,0,0.4,0,0.5,0c0.2,0,0.4,0,0.7-0.1c0.3,0,0.5-0.1,0.6-0.1c0.2,0.6,0.3,1.2,0.3,2c0,0.1,0,0.2,0,0.2 c0,0.1,0,0.1,0,0.2c-0.3,0.1-0.7,0.2-1.2,0.2c-0.5,0.1-0.9,0.1-1.4,0.1c-0.6,0-1.1-0.1-1.6-0.2c-0.5-0.1-0.9-0.3-1.2-0.6 c-0.3-0.3-0.6-0.7-0.8-1.1c-0.2-0.5-0.3-1.1-0.3-1.8c0-0.4,0-0.9,0.1-1.3c0.1-0.5,0.2-0.9,0.3-1.3L376.2,158.1z M386,168.7 c0.1,1.5,0.4,2.6,1.1,3.3c0.7,0.7,1.7,1.1,3.2,1.1c0.9,0,1.7-0.1,2.5-0.3c0.8-0.2,1.5-0.4,2.1-0.7c0.2,0.3,0.3,0.7,0.4,1.2 c0.1,0.5,0.1,0.9,0.1,1.4c-0.3,0.2-0.7,0.3-1.2,0.4c-0.5,0.1-1,0.2-1.5,0.3c-0.5,0.1-1,0.2-1.6,0.2c-0.5,0.1-1,0.1-1.4,0.1 c-1.3,0-2.4-0.2-3.3-0.5c-0.9-0.3-1.6-0.8-2.2-1.4c-0.6-0.6-1-1.3-1.2-2.1c-0.3-0.8-0.4-1.7-0.4-2.7c0-1.3,0.2-2.7,0.7-4 c0.4-1.3,1.1-2.5,1.9-3.5c0.8-1,1.9-1.9,3-2.5c1.2-0.6,2.5-1,3.9-1c1.4,0,2.6,0.4,3.4,1.1c0.8,0.7,1.3,1.7,1.3,2.8 c0,1-0.2,1.8-0.7,2.5c-0.5,0.7-1.1,1.3-2,1.8c-0.8,0.5-1.8,0.9-2.9,1.2c-1.1,0.3-2.4,0.6-3.7,0.8L386,168.7z M388.1,166 c1.1-0.2,2-0.4,2.8-0.7c0.7-0.3,1.3-0.5,1.8-0.8c0.4-0.3,0.7-0.6,0.9-0.9c0.2-0.3,0.3-0.7,0.3-1.1c0-0.5-0.2-0.9-0.5-1.2 c-0.4-0.3-0.9-0.5-1.5-0.5c-0.7,0-1.3,0.2-1.9,0.5c-0.6,0.3-1.1,0.7-1.6,1.2c-0.5,0.5-0.9,1.1-1.2,1.8c-0.3,0.7-0.6,1.4-0.8,2.1 L388.1,166z" class="st0"/></g></svg>