<svg xmlns="http://www.w3.org/2000/svg" role="img" viewBox="264.01 163.51 701.48 204.48"><title>Modex logo</title><defs><style>.cls-1{fill:#4d32b6}</style></defs><path d="M300.49 354.8H277.9V224.36l74.56 43.05-22.6 13.04-29.37-16.96v91.31zM277.9 200.88V177.4l135.56 78.27v23.48L277.9 200.88zm185.26-23.48l-72.29 41.74 20.42 11.8 51.87-30.06V177.4zm-22.59 60.01l22.59-13.05V354.8h-22.59V237.41zm130.26 33.97q-14.46-14.13-35.2-14.13t-35 14a45.8 45.8 0 0 0-14.36 34q0 21.24 14.08 35.26 14.07 14.22 34.92 14.22 21 0 35.48-13.93t14.37-34.8q-.02-20.49-14.29-34.62zm-15.13 56.31q-7.51 8.06-20.07 8.06t-20.08-8.15q-7.42-8.07-7.42-21.9 0-12.9 7.61-21.05t19.89-8.15q12.45 0 20.07 8.15t7.52 21.52q0 13.47-7.52 21.52zm121.21-126.81v69.64q-12.85-13.27-29.12-13.27a39.83 39.83 0 0 0-31.11 13.93Q604.22 285 604.21 305.7q0 21.15 12.47 35.26 12.55 13.85 31.59 13.84 16 0 28.64-12.32v12.27h21.5V200.88zm-6 126.72q-7.33 8.14-19.22 8.15a23.41 23.41 0 0 1-18.46-8.44q-7.12-8.34-7.13-21.61 0-12.42 7.33-20.86a23.69 23.69 0 0 1 18.45-8.34q11.7 0 19 8.24 7.32 8.44 7.33 21.44t-7.3 21.42zm139.3-21.6q0-22.85-11.8-35.74t-32.34-13q-20.27 0-32.54 13.37-12.18 13.56-12.18 35.45 0 22.1 12.56 35.46t33.3 13.27a56.25 56.25 0 0 0 13.41-1.51 40.46 40.46 0 0 0 11.52-4.79 47.12 47.12 0 0 0 10-8.34 35.78 35.78 0 0 0 7.92-13.4l-17.15-8.83q-6.57 10.23-11.71 14t-13.2 3.81q-10.28 0-16.84-6.64T743.71 311h66.41zm-65.07-12.42a24.78 24.78 0 0 1 3-7.11 21.6 21.6 0 0 1 4.8-5.35 20.84 20.84 0 0 1 6.24-3.42 22.2 22.2 0 0 1 7.32-1.18q17.13 0 21.6 17.06zm137.29 8.44l34.25-44.77h-26.26l-21.03 28.45-20.64-28.45h-25.5l33.3 44.77-41.2 52.78h26.17l27.87-36.45 27.21 36.45h25.5l-39.67-52.78zm56.75-48.66a13 13 0 1 1 13.13-12.91 13 13 0 0 1-13.13 12.91zm.2-23.67a10.65 10.65 0 1 0 10.56 10.74 10.66 10.66 0 0 0-10.56-10.74z" class="cls-1"/><path d="M942.11 246.08l-2.41-3.54h-3.16v3.5h-2.22l.14-12 4.93.05a6.81 6.81 0 0 1 2.71.55 4 4 0 0 1 1.75 1.49 4.18 4.18 0 0 1 .59 2.29 4 4 0 0 1-.69 2.32 3.92 3.92 0 0 1-1.9 1.43l2.71 4zm-.69-9.49a3.42 3.42 0 0 0-2.21-.64h-2.6l-.05 4.77h2.6a3.37 3.37 0 0 0 2.21-.6 2.44 2.44 0 0 0 0-3.53z" class="cls-1"/></svg>