<svg xmlns="http://www.w3.org/2000/svg" role="img" viewBox="14.01 257.01 623.48 138.98"><title>Monax logo</title><style>svg {enable-background:new 0 0 652 652}</style><path fill="#001c43" d="M39.1 293.5c-.6.9 0 1.8 0 2.8v81.3c0 4.6-1.2 5.6-5.5 5.7-5.5 0-7.5-1.4-7.5-5.8V275.1c-.3-2.1.7-4.1 2.5-5.1 3.1-1 6.6-.4 9.2 1.6 5 5.5 9.9 11.2 14.7 16.8 8 9.2 16.1 18.4 24.1 27.6 1.6 1.8 2.4 1.9 4.1 0 12.7-14.7 25.5-29.4 38.3-44.1 2.9-2.4 6.8-3 10.3-1.6 1 .6 1.7 1.6 1.8 2.8v103.5c.8 5.6-5.4 9.5-10.1 6.4-1.8-.8-2.8-2.7-2.6-4.6v-81.5-1.4c0-.5.4-1.5-.5-1.7-.9-.2-1.2.5-1.6 1l-16.2 18.4c-6.1 6.9-12.2 13.8-18.4 20.7-1.5 2.5-5.2 2.5-6.7 0-11-12.6-22.4-25.7-33.8-38.5-.5-1.1-1-1.9-2.1-1.9zm265.1.6v83.4c0 4.3-1.5 5.6-6.7 5.5-5.2 0-6.2-1.3-6.2-5.5v-103c0-3.9 1.3-4.6 5.1-5.3 5.1-.8 7.3 2.5 9.8 5.8 12.2 16.5 24.5 33 36.7 49.4 7.9 10.5 15.9 21 23.8 31.5.5.6.6 1.9 1.7 1.5 1.1-.4.5-1.5.5-2.3v-78.9c0-6.7 0-7 6.8-6.9 4.6 0 5.5.8 5.5 5.5v101.9c0 2.3.4 4.6-2.5 5.7-3.1 1.1-6.7.5-9.2-1.7-5.4-7.1-10.7-14.2-16.1-21.3-7.6-10.4-15.2-20.8-23-31.2-7.7-10.4-15.7-21-24-31.6-.5-.9-1.3-1.8-2.2-2.5zM211 383.4c-23-.1-43.7-14.1-52.4-35.5-8.7-21.3-3.7-45.8 12.7-62 16.4-16.2 40.9-20.9 62.2-12 21.2 9 35 29.8 34.8 52.9-.3 31.3-25.9 56.6-57.3 56.6zm0-12.9c24.5.1 44.5-19.7 44.7-44.2 0-24.5-19.9-44.4-44.5-44.4-24.5 0-44.5 19.9-44.5 44.4.2 24.4 19.9 44.1 44.3 44.2zm327.3-101.1c3.1-.7 5.2 1.2 7.3 4 10.2 13.8 20.6 27 30.9 40.6 1.3 1.7 2.2 1.9 3.5 0l21.5-28.1 11-14.8c.8-1 2.1-1.7 3.4-1.6h5.7c1.7.1 3.3 1.1 3.9 2.7.9 1.7-.3 2.5-1 3.4-9.6 12.7-19.3 25.4-28.9 38.1-2.7 3.5-5.3 6.9-8 10.3-1.2 1.1-1.2 3 0 4.1 6.5 8.3 12.9 16.8 19.3 25.1l17.5 23.5c2.4 2.6.4 6.7-3.1 6.5-1.8.1-3.6.1-5.4 0-1.6-.1-3-.9-3.9-2.2l-32-42.3c-1.3-1.7-2.1-2.2-3.8 0-10.6 14.1-21.3 28.1-32.2 42.2-3.4 2.8-8.1 3.4-12.2 1.7-1.8-1.5-2-4.1-.4-5.8l28.3-36.7 9.2-11.7c.9-.9.9-2.4 0-3.3L532.2 277c-1.3-1.3-1.7-3.3-1.1-5 .9-1.9 2.6-2.1 4.4-2.1l2.8-.5zm0 0"/><path fill="#36c" d="M456.1 292.3c-4.6 11.2-9.2 21.9-13.8 32.6-4.6 10.6-8.8 20.6-13.2 31-3.2 7.6-6.4 15.1-9.5 23-1.6 3.9-2.8 4.8-6.9 4.8h-.9c-7.2 0-8.6-2.5-5.6-9.2 3.4-7.4 6.5-14.9 9.6-22.4 3.1-7.5 7-15.8 10.3-23.9 3.8-9.2 8.1-18.4 11.7-27.9 3.7-9.6 7.9-18.2 11.7-27.3 1.8-4.6 5.2-4 8.7-3.8 2.8 0 3.6 2.2 4.6 4.6 2.7 5.7 4.9 11.7 7.4 17.5 3.6 8.1 6.9 16.3 10.4 24.5s7 15.8 10.4 23.8c3.4 8 7.2 17.3 10.9 25.9 1.5 3.7 3.1 7.3 4.6 10.9 2.1 4.6.3 7.4-4.6 7.4-8.3 0-7 .5-10.2-7-3.3-7.4-6.4-15.4-9.6-23-4.2-9.9-8.5-19.8-12.7-29.7-4.2-9.9-7.8-18.6-11.7-27.9-.3-1.3-.8-2.1-1.6-3.9zm0 0"/></svg>