<svg xmlns="http://www.w3.org/2000/svg" role="img" viewBox="-18.04 -20.04 1094.08 1022.08"><title>Monetary Authority of Singapore (member) logo</title><style>svg {enable-background:new 0 0 1063 986}</style><style>.st1{fill:#b3945e}</style><g><path fill="#254470" d="M836.1,622.2c0-206.9,0-413.8,0-620.6c-206.9,0-413.7,0-620.6,0c0,206.9-0.1,413.8,0,620.6 C422.4,622.2,629.2,622.2,836.1,622.2z M312.7,245.8c10-31.7,27.2-61,49.9-85.2c15.9-17,34.7-31.6,55.1-42.9 C468,89.5,529,82.2,584.7,97.4c31.3,8.4,60.6,23.8,85.3,44.6c25.5,21.5,46.2,48.6,60,79c12.9,28.5,19.8,59.8,19.8,91 c0.6,45.5-13.5,91-39.4,128.4c-18.9,27.4-44,50.5-72.9,67.1c-29.7,17.1-63.4,27.3-97.6,29.2c-8.9,0.8-18,0.8-27,0.1 c-40.6-2.1-80.4-15.9-113.8-39c-28.4-19.6-52.2-45.8-69-76c-17.4-31.3-27-66.9-27.9-102.8C301.7,294.3,305.2,269.4,312.7,245.8z"/><path d="M330.2,421.8c16.7,30.2,40.5,56.4,69,76c33.5,23.1,73.2,36.8,113.8,39c8.9,0.7,18,0.7,27-0.1 c34.2-1.9,67.9-12.1,97.6-29.2c28.9-16.6,54-39.7,72.9-67.1c26-37.4,40-82.9,39.4-128.4c0-31.2-6.9-62.5-19.8-91 c-13.8-30.4-34.5-57.5-60-79c-24.8-20.9-54.1-36.2-85.3-44.6c-55.6-15.2-116.7-7.9-167,20.3c-20.4,11.3-39.1,25.9-55.1,42.9 c-22.7,24.3-39.9,53.5-49.9,85.2c-7.4,23.6-11,48.5-10.3,73.2C303.2,354.8,312.8,390.4,330.2,421.8z M368.5,234.6 c-4.7,0-9.4,0-14,0c0-2.6,0-5.3,0.1-7.9c13.2,0,26.3-0.1,39.5,0.1c12.3,44.9,24.8,89.8,37.2,134.6c12.8-44.8,25-89.8,37.6-134.6 c12.9,0,25.7,0,38.6,0c0,2.6,0,5.2,0,7.8c-5.2,0.1-10.5,0.1-15.7,0.1c0,51.2-0.1,102.5,0,153.8c7.6,0,15.2-0.1,22.8,0 c13.9-52.4,27.6-105,41.4-157.4c0.7-2.1,0.9-5.4,2.3-7c4.3-0.3,8.7,0,13-0.1c3.8,16.8,7.8,33.6,11.7,50.4 c9,38,17.6,76.2,26.7,114.2c4.7-0.1,9.3-0.1,14-0.1c0.1-14.4,0-28.8,0.1-43.2c1.9,0,3.8,0,5.6,0c0.6,7.6,2,15.2,4.4,22.3 c3,8.1,7.4,15.4,14.7,20.2c6.9,4.5,15.1,5.7,23.3,4.7c8.2-1.3,15.2-6.8,18.8-14.2c3.9-7.9,4.6-17.5,3.1-26.1 c-1.6-8.3-6.5-15.4-13.3-20.4c-10.1-7.6-23.1-12.3-33.8-19.2c-7.1-4.5-13.3-10.1-17.5-17.5c-4.6-8-6.2-17-6.4-26 c0-9.5,1.9-19.2,7.1-27.4c7.8-12.2,22.1-18.6,36.4-18c12.1,0.7,24.1,4.1,34.8,9.6c0.4,12.5,0.3,25.1,0,37.6c-1.8,0-3.6,0-5.4-0.1 c-1.5-9.5-3.5-18.4-8.7-26.6c-3.3-5.3-7.8-9.8-13.5-12.5c-7-3.1-15.1-3.3-21.7,0.7c-12.1,7.1-17.1,22.5-13.7,35.8 c2,8.7,8.4,14.7,15.7,19.3c11.7,7.1,24.8,11.5,35.7,20.2c8.3,6.5,14.3,15.6,17,25.8c2.6,9.9,2.9,20.4,1.6,30.5 c-1.5,10.4-5.7,20.2-14.2,26.7c-9.1,6.8-20.5,8.4-31.6,7.8c-13.2-0.8-26.7-3.8-38.5-9.9c0,2.5,0,5,0.1,7.6 c-6.5,0.4-13,0.1-19.6,0.2c-11.3-0.1-22.8,0.2-34.1-0.1c-1.1-1.4-0.3-5.8-0.5-7.8c6.1-0.1,12.2,0,18.3,0 c-3.9-16.8-7.7-33.5-11.6-50.2c-13.4-0.1-26.9,0-40.3,0c-3,11.2-5.8,22.6-8.8,33.9c-1.3,5.5-3,10.8-4,16.4 c6.1,0.1,12.1-0.1,18.2,0.1c0,2.6,0,5.2,0,7.8c-29.2,0.1-58.3,0-87.5,0.1c-0.2-2.7-0.2-5.3-0.1-8c6.2-0.1,12.4,0,18.6,0 c-0.1-19.4,0-38.9-0.3-58.3c-0.1-29,0.1-58-0.4-86.9c-14.2,50.6-28.3,101.3-42.4,152c-0.4,1.4-0.9,2.8-1.5,4.2c-1.7,0-3.5,0-5.2,0 c-1.7-5-3-10.2-4.4-15.2c-13.9-48.9-27.8-97.7-41.6-146.6c-0.2,4.2-0.2,8.4-0.2,12.7c0,46.1,0,92.2,0,138.3c6.2,0.1,12.3,0,18.5,0 c0,2.6,0,5.2,0,7.9c-13.4,0.2-26.7-0.1-40.1,0.1c-0.2-2.7-0.2-5.3-0.2-8c4.7,0,9.3,0,14,0C368.6,337.1,368.5,285.8,368.5,234.6z" class="st1"/><path d="M574.3 329.8c-5.8-24.2-11.1-48.5-17.1-72.6-6.4 24.2-12.8 48.4-19.2 72.6C550.2 329.8 562.2 329.9 574.3 329.8zM572.8 806.4c-4.3 0-8.7 0-13-.1 3-10.9 6-21.8 9.1-32.7 7.7.1 15.4-.1 23.1.1 2.9 10.9 6.4 21.7 9.1 32.7-4.2 0-8.3 0-12.5 0 0 1.1-.1 2.3-.1 3.4 6.2.5 12.3.2 18.6.3 6.9-.1 13.8.2 20.8-.2 0-1.2 0-2.4 0-3.6-3.7 0-7.4 0-11.1 0-10-33.4-19.8-66.9-29.6-100.3-1 .3-3.6-.5-3.6 1-9.5 33-18.9 66.3-28.3 99.3-3.4 0-6.8 0-10.2 0-.1 1.1-.1 2.3-.2 3.5 9.3.5 18.7.3 28 .1C572.7 808.8 572.7 807.6 572.8 806.4zM576.8 744.8c1.3-4.7 2.1-9.6 3.7-14.2 2.9 13.2 6.7 26.2 10.3 39.2-7 .1-14.1.1-21.1 0C572 761.5 574.5 753.1 576.8 744.8zM100.5 806.4c-.1-31.6 0-63.3 0-94.9 3.7 0 7.4 0 11.2-.1 0-1.2 0-2.5 0-3.7-9-.1-18.1.1-27.1-.1-1.9 4.3-3.1 8.8-4.6 13.2-7.4 22.6-15.2 45.1-22.2 67.9-2.1-6.2-3.7-12.5-5.8-18.7-6.9-20.8-13.8-41.5-20.7-62.3-9.3 0-18.7 0-28 0 0 1.2 0 2.5 0 3.7 3.8 0 7.5 0 11.3 0 0 31.7.1 63.3 0 95-3.8 0-7.5 0-11.3 0 0 1.2 0 2.4 0 3.5 9.5.4 19.1.1 28.6.2 0-1.2 0-2.5 0-3.7-4.4 0-8.7 0-13.1 0 0-25.5 0-50.9 0-76.4 0-5.2-.1-10.4.2-15.6 1.4 3.3 2.5 6.7 3.6 10.1 9.6 29.1 19.2 58.2 28.9 87.2.9 0 1.7 0 2.6 0 11.1-32.6 21.6-65.4 32.7-98.1 0 30.9.2 61.9-.1 92.8-4.5-.1-8.9-.1-13.4 0 0 1.2 0 2.4 0 3.5 12.8.3 25.7.2 38.5.1 0-1.2 0-2.4 0-3.6C108 806.4 104.2 806.4 100.5 806.4zM772.1 806.4c0 1.2 0 2.4.1 3.6 10.5 0 21.1.3 31.6-.2 0-1.2 0-2.3 0-3.5-3.2 0-6.3 0-9.5 0 0-16.1 0-32.3 0-48.4-.1-5-.7-10.3-3.9-14.4-2.2-2.8-5.4-4.3-8.8-5-6.2-1-12.4-.4-17.7 3.2-4.2 2.8-6.6 6.9-8.7 11.4 0-12.7-.1-25.5 0-38.2 0-2.5-.1-4.9-.3-7.3-7.6 0-15.1 0-22.7.1 0 1.2 0 2.5 0 3.7 3.5 0 7 0 10.5 0 0 31.7.1 63.3 0 95-3.5 0-7 0-10.4 0 0 1.2 0 2.4 0 3.6 10.8.1 21.7.3 32.5-.1 0-1.2 0-2.3 0-3.5-3.1 0-6.3 0-9.4 0-.1-12.5 0-24.9 0-37.4-.1-7 1.6-15.1 6.3-20.6 3.6-4.4 10.7-6.6 15.8-3.6 3.7 2.5 4.4 8.1 4.4 12.2 0 16.5.1 33-.1 49.4C778.4 806.4 775.3 806.4 772.1 806.4zM941.8 725.8c6.3-2.3 6.8-12.5 1.2-15.8-1.9-1.1-4.5-1.1-6.6-.5-4.4 1.5-5.6 7.4-4.2 11.4C933.4 724.7 938 727.4 941.8 725.8zM323.8 796c.1 4.1.8 9.3 4.1 12.1 3.6 3.2 9.7 3 14.1 2.4 6.3-1.1 10.7-6.4 12.1-12.5-1.1-.2-2.2-.5-3.2-.7-1.5 2.8-2.9 6.1-5.9 7.8-2.4 1.1-5.8.8-7.3-1.7-1.5-2.6-1.4-6.4-1.5-9.4 0-16.8 0-33.7 0-50.5 4.5 0 9 0 13.4 0 0-1.2.1-2.4.1-3.5-4.5-.1-9-.1-13.5-.1 0-6.3 0-12.7 0-19-4.1 0-8.2 0-12.3 0-.1 6.3 0 12.7 0 19-3.3 0-6.6 0-9.9 0 0 1.2 0 2.4-.1 3.6 3.3 0 6.6 0 10 0C323.8 761 323.7 778.5 323.8 796z" class="st1"/><path d="M702.7 795c.2 4.8.6 10.4 4.8 13.6 3.8 2.8 9.7 2.5 14.1 1.8 6.2-1.4 9.8-6.3 11.5-12.1-1.1-.4-2.1-.8-3.2-1.2-1.7 3.1-3.1 6.8-6.6 8.2-2.2.6-4.7.6-6.2-1.4-2-2.5-1.8-6.8-1.9-9.9 0-16.8 0-33.7 0-50.5 4.5 0 9 0 13.4 0 0-1.2 0-2.4 0-3.6-4.5 0-9 0-13.4 0 0-6.3 0-12.7 0-19-4.2 0-8.3 0-12.5 0 0 6.3 0 12.7 0 19-3.3 0-6.6 0-9.8 0 0 1.2 0 2.4 0 3.6 3.3 0 6.6.1 9.8.1C702.7 760.6 702.7 777.8 702.7 795zM1031.3 739.8c0 1.2 0 2.3 0 3.5 3.8.1 7.7.1 11.6.1-5.1 16.6-11 33-15.7 49.7-1.7-10.1-5.6-19.9-8.5-29.8-1.9-6.6-4.5-13.1-5.8-19.9 3.7 0 7.3 0 10.9-.2-.1-1-.2-2-.4-3-.8-.9-3.3-.3-4.4-.5-13 0-25.9 0-38.8.1-.4-6.3.1-12.7-.3-19-4.1 0-8.2 0-12.2 0-.1 6.3 0 12.7 0 19-3.3 0-6.6 0-9.9 0 0 1.2 0 2.4 0 3.6 3.3 0 6.6 0 10 0 0 17.5 0 35 0 52.5.2 4.1.6 8.6 3.7 11.7 2.9 2.9 6.8 3.2 10.7 3.2 3.8 0 7.4-1 10.4-3.5 2.8-2.5 4.4-5.6 5.6-9.1-1.1-.4-2.2-.8-3.3-1.2-1.5 2.7-3 6.3-5.9 7.9-2.1 1-5.3.9-6.9-1-1.8-2.6-1.8-6-1.9-9 0-13 0-26 0-39 0-4.2-.4-8.4 0-12.6 6.1.1 12.2 0 18.3-.1 6.8 20.6 13.8 41.1 20.7 61.6.7 2.4 2 4.6 1.2 7.1-1.7 6.3-3.1 13.2-6.2 18.9-1.3 2.5-3.3 5.2-6 6.2-1.9.5-3.5-.3-4.3-2-1.2-3.2-.5-7-1.6-10.2-1.7-3.7-7.3-3.5-9 0-2.7 5.7-.6 13.8 5.4 16.4 5.8 2.4 12.7.3 16.4-4.6 5.7-7.2 7.2-17.6 9.8-26.1 7.4-22.5 15-45 22.5-67.5 2.9 0 5.8 0 8.7 0 0-1.2 0-2.4 0-3.6C1047.7 739.7 1039.5 739.7 1031.3 739.8zM157.4 740.6c-5-2.5-10.5-2.8-16-2.1-8.6 1.3-15.2 7.3-18.9 15-6.6 13.7-6.4 30.8.7 44.3 3.6 6.8 9.8 12.1 17.5 13.5 5.2.9 11 .6 15.9-1.6 6.6-2.9 11.2-8.6 13.9-15.1 5.1-12.1 5.2-26.3.3-38.5C168.3 749.7 163.8 743.6 157.4 740.6zM158.3 798.3c-1.2 3.7-3.5 7.3-7.1 8.9-4.1 1.7-9.2 1.2-12.7-1.6-3.1-2.7-4.6-6.7-5.4-10.6-1.3-6.5-1.4-13.4-1.3-20 0-7.3 0-15.2 1.9-22.2 1.3-4.5 3.8-8.9 8.6-10.2 3.4-.8 7.9-.8 10.8 1.4 2.9 2 4.5 5.3 5.5 8.6 2.1 7.3 1.9 15 1.9 22.5C160.5 782.7 160.7 790.8 158.3 798.3zM179.3 806.4c0 1.2 0 2.4 0 3.5 10.8.2 21.7.3 32.5-.1 0-1.2 0-2.3 0-3.5-3.2 0-6.4 0-9.6 0 0-12.5 0-24.9 0-37.4 0-6.9 1.7-15 6.3-20.5 3.6-4.3 9.9-6.5 15.1-4.1 4.4 2.5 5 8.1 5.1 12.6.1 16.5 0 32.9 0 49.4-3.2 0-6.3 0-9.4 0 0 1.2 0 2.3 0 3.5 10.5.4 21.4.4 31.9 0-.1-1.1-.2-2.3-.3-3.4-3.2 0-6.3 0-9.5 0-.1-16.1 0-32.3 0-48.4-.1-4.9-.8-10.6-4-14.5-2.4-3-5.9-4.5-9.6-5-5.5-.7-10.9-.3-15.8 2.7-4.8 2.9-7.6 7.3-9.8 12.3 0-4.6-.1-9.1 0-13.7-7.7 0-15.3-.1-23 0 0 1.2 0 2.5.1 3.8 3.5 0 7 0 10.5 0 0 20.9.1 41.9 0 62.8C186.3 806.4 182.8 806.4 179.3 806.4zM310.4 770.5c-.2-8.9-1.9-18-8.2-24.7-8.6-9.5-24.6-9.9-34.1-1.7-8.2 7-11.9 18.4-12.3 28.9-.3 9.2 1 19.4 5.7 27.5 3.5 6.1 9.7 10.2 16.7 11.1 6.9.6 14.4.1 20.1-4.2 5.3-4.1 8.4-11 10.2-17.3-1.2-.2-2.5-.5-3.7-.8-2.3 6.2-5.2 13-11.4 16.2-7.1 3.6-17.5 2-20.8-6-3.6-8.7-2.8-19.6-3-28.9C283.3 770.5 296.9 770.7 310.4 770.5zM269.7 766.4c.4-6.8 1.3-15.4 5.9-20.9 4.2-5.3 13.3-4.4 16.6 1.3 3.5 5.5 3.4 13.2 3.6 19.5C287.1 766.6 278.4 766.4 269.7 766.4zM413.5 810.1c0-1.2 0-2.4.1-3.6-2.9-.3-7.2.9-8.8-2.3-.9-2.5-.9-5.5-1-8.1 0-12.7 0-25.3 0-38 0-4.9-.9-9.8-4.2-13.7-3.7-4.1-9.4-5.7-14.7-6-7.4-.5-15.1 0-21.5 4.3-4.8 3.2-7.1 9.3-5.9 14.9 1.1 3.6 7 3.6 9.5 1.6 3-3.3.9-9.5 3.7-13.2 2.5-3.6 7.2-4.2 11.2-4 3.1.3 5.8 2 7.2 4.8 2.6 5.1 2.1 11.9 2.1 17.5-8.1 2.8-16.2 4-23.9 7.3-4.4 2-8.5 4.7-11 9-3.1 5.4-2.9 11.7-2.1 17.7.8 4.5 2.8 9.2 7 11.4 5.1 2.8 12 2.5 17.4 1.2 5.3-1.4 8.4-5 11.9-9 1.6 3.4 2.8 6.5 6.8 7.6C402.6 810.5 408.2 810 413.5 810.1zM391.3 787c-.5 6.3-3 14.2-8.5 17.8-3.4 2.3-9.4 3.2-12-.6-2.7-3.8-2.9-9.7-2.9-14.2.1-5.8 1.2-12.3 6.4-15.8 5-3.1 11.5-4.1 17.1-6C391.3 774.5 391.5 780.8 391.3 787zM485.1 835.2c-1.9 2.1-4.9 3.3-7 .6-1.9-3.3-.4-8.2-2.4-11.5-2.4-3.2-7.6-2.3-9 1.5-1.4 4.5-.8 10.3 2.8 13.7 3.5 3.4 8.8 3.7 13.1 2.1 4.2-1.6 7-5 9-8.9 4.1-7.9 4.9-15.9 7.8-24.2 7.2-21.8 14.5-43.5 21.8-65.2 3 0 5.9 0 8.9 0 0-1.2 0-2.4 0-3.6-8.2 0-16.5 0-24.7 0 0 1.2 0 2.4 0 3.5 3.8 0 7.7 0 11.5 0-5 16.5-10.8 32.8-15.7 49.4-3.7-16.7-10-32.9-14.6-49.4 3.7 0 7.3 0 11 0 0-1.2 0-2.4 0-3.6-10.2 0-20.5 0-30.7 0-1.7-.1-3.1.5-4.6 1.1-4.8-3.3-11-3.6-15.8-.2-5 3.7-7.2 9.2-9.2 14.8 0-5.2 0-10.4 0-15.6-7.7-.1-15.3-.1-23 0 0 1.2 0 2.4 0 3.7 3.5 0 7 0 10.5 0 0 21 .1 42 0 62.9-3.5 0-7 0-10.5 0 .1 1.2.1 2.5.2 3.8 11-.1 22 0 33 0 0-1.2.1-2.5.1-3.7-3.3-.1-6.7-.1-10 0-.4-10.1 0-20.3-.2-30.5-.1-8.8 1.3-17.4 5.5-25.2 1.4-2.4 3.3-5.1 6-6.3 1.5-.6 3.8-.6 4.6 1.1.8 3.6-.3 7.7.8 11.2 1.3 4.1 8.3 4.1 10.1.5 2.4-4 1.6-9.9 0-14.1 2.7 0 5.5 0 8.2 0 7.3 21.5 14.5 43 21.7 64.5 1.1 2.8-.3 5.6-.9 8.4C491.6 822.5 489.7 830.3 485.1 835.2zM850.9 742.1c-5.8-3.9-12.7-4.6-19.5-3.5-7.4 1.4-13.4 6.3-17 12.8-4.6 8.2-6.4 18.2-5.7 27.6.8 8.9 3.7 18.6 10 25.3 8.7 9.5 25.5 10.1 34.9 1.4 6.7-6 9.9-15 11.2-23.6 1.2-7.4.3-14.9-1.7-22.1C860.9 752.8 857.2 746.4 850.9 742.1zM848.7 799.5c-2.1 5.9-7.3 9.4-13.7 8.4-5.4-.6-8.8-4.9-10.3-9.8-2.4-8.1-2.1-16.9-2.1-25.2 0-7.2.1-15.2 2.5-22 1.5-4.3 4.5-8 9.2-8.7 4.7-.7 9.3.2 12.3 4.3 4.2 5.7 4.5 14.6 4.8 21.5C851.3 778.2 852 789.8 848.7 799.5zM904.4 739.3c-6.2 3.2-9.1 9.7-11.2 16-.1-5.2 0-10.4-.3-15.7-7.6 0-15.1 0-22.7 0 0 1.2 0 2.5 0 3.7 3.5 0 7 0 10.5 0 0 21 0 41.9 0 62.9-3.5 0-7 0-10.5 0 0 1.2 0 2.4.1 3.6 11 0 22.1.4 33.1-.2 0-1.1 0-2.3-.1-3.4-3.4 0-6.7 0-10.1 0 0-10.5 0-20.9 0-31.4-.1-8.5 1.6-17.6 6-25 1.5-2.4 4-5.5 7-5.9 1.6-.2 3 .6 3.3 2.3.5 3.4-.3 7.2.6 10.5 1.4 4.1 8.5 4 10.2.2 2.2-4.2 1.8-9.9-.4-13.9C916.9 737.9 909.5 737 904.4 739.3zM680.8 806.4c-.1-22.2 0-44.4-.1-66.5-7.8-.1-15.6 0-23.4 0 0 1.2-.1 2.4-.1 3.6 3.1.3 8.3-.6 10.9.5.2 12.3 0 24.7.1 37.1 0 7.2-1.8 15.9-7 21.2-3.6 3.9-9.8 5.7-14.7 3.2-4.2-2.5-4.7-8-4.9-12.4-.1-17.7 0-35.4-.1-53.1-7.3 0-14.8-.4-22.1.2-.1 1.1-.1 2.2-.1 3.3 3.3 0 6.6 0 9.8.1 0 16.2 0 32.3 0 48.5 0 5 .6 10 3.6 14.1 2.3 3.1 5.8 4.7 9.6 5.3 6.4.9 12.8.1 18-4 3.5-2.7 5.5-6.3 7.7-10 .1 4.2.1 8.4.1 12.5 7.6.2 15.4.3 23-.1 0-1.1.1-2.2.1-3.4C687.8 806.3 684.3 806.3 680.8 806.4zM945.5 806.4c-.1-22.2.2-44.5-.1-66.8-7.6.1-15.2 0-22.9.1 0 1.2 0 2.5 0 3.7 3.5 0 7 0 10.5 0 .2 21 .1 41.9.1 62.9-3.6 0-7.1 0-10.7.1 0 1.1 0 2.3 0 3.4 11 .5 22.2.3 33.3.1 0-1.2 0-2.4 0-3.6C952.4 806.4 949 806.4 945.5 806.4zM285.6 846.5c-5.3-1.3-11.3-1.4-16.5.6-4.9 1.9-8.4 6.2-9.5 11.3-1.5 6.7-.5 14-.9 20.9-3.4 0-6.8 0-10.2 0 0 1.1 0 2.3 0 3.4 3.4 0 6.8.1 10.2.3 0 20.9 0 41.8 0 62.7-3.4 0-6.8.1-10.3.3 0 1.1 0 2.3-.1 3.4 10.9.2 21.7.1 32.6.1.1-1.1.1-2.3.2-3.4-3.3-.2-6.6-.3-9.9-.3 0-20.9 0-41.9 0-62.8 3.8-.2 7.7-.2 11.5-.2 0-1.2-.1-2.3-.1-3.5-3.8 0-7.6 0-11.3 0-.1-5.5-.1-10.9-.1-16.4 0-3.3 0-7.2 1.3-10.2 1.7-4.2 9.2-4.9 11.2-.6 1.7 3.2.8 7.7 2 10.9 2.3 3.6 6 2.8 9.3 1.1.9-2.7 1.6-5.2.7-8.1C294.7 850.9 290.4 847.9 285.6 846.5zM344 884c-4.5-2.6-8.4-6-9.9-11.1-2.1-8.1 1.6-16.7 8.7-21 7.1-4.4 16.6-2.9 22.3 3 5.6 5.6 6.8 12.3 8.4 19.6 1.2-.1 2.5-.1 3.7-.2-.6-7.5-.5-15-.8-22.6-6.6-3.4-14-5.4-21.4-5.9-9.3-.5-19.2 2.6-25.3 9.9-5.6 6.6-7 16-5.6 24.4 1 6 4.1 11.3 8.8 15.1 9 7.8 22.4 10.3 31.2 17.8 9 7.2 8.2 22.8-.1 30.1-9.2 7.9-25.5 5.2-32.5-4.4-4.4-5.8-5.9-12.6-6.4-19.8-1.2 0-2.5 0-3.7 0 .2 8.8.3 17.6.9 26.3 6.5 3.1 13.6 4.8 20.7 5.5 8.4 1.2 18.3.6 25.8-3.8 6.5-3.8 10.1-10.5 11.3-17.7 1.4-9.9.5-20-6.3-27.8C366.1 892.4 353.9 889.5 344 884zM400.3 849.3c-3.4 1.7-4.4 5.2-4.2 8.7.1 4.5 4.1 8.6 8.8 7.7 5.4-.9 7.8-7.6 5.7-12.3C409 849.4 404.2 847.3 400.3 849.3zM230.5 882.5c-6.1-4.7-14.7-5.8-22-3.9-6.8 1.7-12.1 6.4-15.5 12.4-5.5 9.6-6.8 20.7-5.3 31.6 1.3 8.2 4.4 16.5 10.5 22.3 9 8.6 24.8 8.8 34 .4 5.1-4.6 8-10.7 9.8-17.2 2.8-10.3 2.3-21.5-1.5-31.5C238.3 891 235.2 886.1 230.5 882.5zM229.7 923c-.2 6.5-.8 14.6-4.7 20-4.5 6.5-15.4 6.2-19.6-.5-4-6.2-4.2-15.4-4.3-22.6-.3-5.8 0-11.6.2-17.5.3-5.3 1.2-11.6 4.2-16 3.9-5.8 12.9-6.6 18-2 3.3 3 4.7 8.2 5.4 12.5C230.2 905.5 229.7 914.4 229.7 923zM483.7 898c0-4.3-.5-8.4-2.3-12.3-1.7-3.5-5-6.1-8.8-7.1-7.1-1.8-15.3-.8-21 4-3.3 2.8-5 6.2-7.1 9.9 0-4.4 0-8.7 0-13.1-7.7-.1-15.3-.1-23 0 0 1.2-.1 2.4-.1 3.7 3.5.2 7 .2 10.5.1.5 20.9.2 41.8.2 62.6-3.5 0-7 .1-10.5.1 0 1.2-.1 2.4-.2 3.7 10.8.1 21.7 0 32.5.1 0-1.2.1-2.4.1-3.5-3.2-.2-6.3-.3-9.5-.3 0-13.2-.1-26.5.1-39.7.4-7.6 2.9-16.6 9.6-21 4.3-2.8 12.1-3.3 14.9 1.9 1.9 3.5 2 8.1 2.1 12 0 15.6 0 31.2 0 46.8-3.2 0-6.5.1-9.7.4 0 1.2.1 2.3.1 3.5 10.5-.1 21.1 0 31.6 0 0-1.2.1-2.3.1-3.5-3.2-.2-6.4-.3-9.7-.3C483.6 929.9 483.6 914 483.7 898zM550.9 878.1c-5.1-1.3-8.2 1.6-11.2 5.2-6.2-5.6-16.8-7.1-24.4-4-5.7 2.4-9.9 7.6-11.4 13.6-1.6 7.4-.9 14.9 3.1 21.5-2.4 1.4-4.7 2.8-6.6 4.9-5.9 6.6-5.3 18 1.1 24 1.9 1.9 4.2 2.8 6.6 3.8-4.3 1.5-8.2 3.5-10.2 7.8-3.1 6.9-.6 16 5.7 20.4 5.9 4.3 14.2 5.6 21.4 5.8 8.3-.1 17.5-2.5 23.3-8.8 6.5-6.7 7.3-17.8 4.8-26.4-1.6-5.3-5.6-9.4-10.8-11.2-5.4-1.8-11.6-1.2-17.3-1.3-5.7-.1-11.4.2-17.1-.2-3.1-.4-6.5-1.5-6.6-5.2-.4-5.3 3.8-8.6 8.5-9.9 4.3 2.7 9 4.6 14.2 4.5 7.4.3 14.7-3.9 18.1-10.5 3.7-7.1 3.7-16.4.5-23.7-1.5-2.4 1.5-6.2 4.1-5.1 1.2 2.4 1.4 5.4 2 8 2.3 1.1 4.3 1.9 6.5-.2C558.1 886.5 556.5 879.7 550.9 878.1zM515.5 948.6c6-1.3 12.4-1.1 18.5-1.1 3.6.2 8 .4 11.1 2.3 3.7 2.3 4.7 7.1 4.1 11.2-.8 5.3-4.2 9.8-8.7 12.5-7.3 4.4-16.2 4.5-24.3 2.3-4.3-1.2-8.1-3.9-9.7-8.3-1.2-4-1.3-8.8.3-12.7C508.5 951.3 511.8 949.5 515.5 948.6zM530.8 914.8c-2.2 4.5-8.9 5.5-12.2 1.7-2.7-3.2-3.1-7.5-3.5-11.5-.4-5.3-.5-10.8.6-16 .6-2.8 1.9-5.4 4.6-6.7 3.4-1.5 8.1-1.1 10.2 2.3 2.3 3.4 2.4 8.5 2.7 12.5C533.2 902.7 533.4 909.6 530.8 914.8zM610.2 938c-.1-13.4 0-26.7 0-40-.1-5.4-.8-10.5-4.7-14.5-4.4-4.7-11.4-5.5-17.5-5.8-6.4 0-14 1-19.1 5.2-4.2 3.3-6 8.9-5 14.1 1 3.8 7.3 3.9 9.7 1.5 2.9-3.2.8-8.9 3.3-12.6 2.7-4.2 7.6-4.8 12.2-4.3 3.2.3 5.7 2.6 6.9 5.5 2.2 5.2 1.6 11.1 1.6 16.6-8.8 3-18.9 4.4-27 8.9-5.6 3-9.5 8.2-10.2 14.6-.5 5.9-.3 12.5 2.7 17.7 2.4 3.9 6.4 5.8 10.8 6.4 5.8.7 12.6-.3 17.3-3.9 2.4-1.7 3.7-4.1 5.7-6.1 1.5 3.3 2.4 6.3 6.2 7.6 5.2 1.6 11.2.6 16.6.9 0-1.1 0-2.3 0-3.4-2.4-.1-5-.1-7.3-.8C610.4 943.9 610.3 940.4 610.2 938zM597.5 927.8c-.7 5.7-2.9 12.4-7.6 16-3.1 2.4-8.5 3.8-11.8 1.1-2.6-2.3-3.5-6.6-3.7-9.9-.3-5.2-.4-11.1 1.7-15.9 1.5-3.4 4.5-5.8 8-7.1 4.4-1.6 9-2.9 13.6-4.1C597.6 914.5 597.8 921.2 597.5 927.8zM672.5 880.5c-6.2-3.4-14.3-3.7-20.7-.6-3.7 2-5.8 5.2-7.6 8.9-.2-3.1-.4-6.2-.4-9.4-7.5.1-15 0-22.5.1 0 1.3 0 2.5 0 3.8 3.4 0 6.8 0 10.1 0 0 31.4 0 62.8 0 94.2-3.6 0-7.2 0-10.9.1 0 1.2 0 2.4.1 3.7 11.3 0 22.5 0 33.8 0 0-1.2 0-2.4 0-3.6-3.5-.1-7-.1-10.5-.1-.1-11.7 0-23.5 0-35.2 2.2 3.2 4.4 6.2 8.2 7.7 8.4 3.3 19 .9 25.2-5.6 5.2-5.5 8-13.4 9-20.8 1-8.7.8-17.9-1.6-26.3C682.5 890.3 678.9 884.1 672.5 880.5zM671.8 929.5c-1 5-2.9 11-6.7 14.6-5.1 4.7-13.9 3.1-17.3-2.9-4.8-7.9-4.2-19.3-4.2-28.2 0-6.4-.2-12.5 1.7-18.8 1.3-4 3.2-7.8 6.8-10.1 4.2-2.7 10-2.2 13.6 1.3 3.8 3.7 5.5 9.6 6.3 14.7C673.4 909.8 673.5 919.7 671.8 929.5zM739.2 882.8c-5.9-4.6-13.8-6-21-4.5-6.9 1.3-12.7 5.7-16.3 11.7-5.7 9.1-7.4 20.7-6.1 31.3 1.2 8.7 4.4 17.9 11.1 23.9 9.4 8.6 25.5 8.3 34.5-.8 6.3-6.3 9.5-15.7 10.4-24.4.9-7.2-.1-14.6-2.3-21.6C747.6 892.6 744.2 886.6 739.2 882.8zM738 923c-.3 6.4-.8 14.1-4.4 19.6-4.2 6.6-15.1 6.8-19.6.3-4.3-6.3-4.5-15.6-4.7-23 0-8.6-.5-17.7 1.4-26.1 1.2-4.8 3.4-9.9 8.5-11.7 4.2-1.5 9.7-.8 12.9 2.5 3.6 3.6 4.7 9.2 5.3 14C738.3 906.8 738.2 915 738 923zM788.5 880.6c-4.5 3.6-6.3 8.7-8.6 13.8-.2-5-.1-10-.1-14.9-7.7 0-15.3 0-23 0 0 1.1 0 2.3 0 3.4 3.5 0 7.1.1 10.6.3 0 20.9 0 41.8 0 62.7-3.6 0-7.1.1-10.7.3 0 1.1.1 2.3.1 3.4 11 .1 22 0 33.1 0 0-1.2-.1-2.5-.1-3.8-3.4 0-6.7 0-10-.1 0-10.3 0-20.5 0-30.8 0-8.3 1.5-17.2 5.6-24.6 1.7-2.9 4-6.2 7.6-6.7 1.4-.2 2.8.9 3.2 2.2.4 3.4-.3 7 .4 10.4 1.6 4.6 8.9 4.4 10.6 0 2.1-4.7 1.4-11.5-2.1-15.4C800.8 876.5 793.2 876.9 788.5 880.6zM864.8 910.2c0-8.8-1.9-18.2-8.1-24.8-8.4-9.2-23.9-9.9-33.5-2.2-7.5 5.9-11.4 15.6-12.6 24.8-.8 7.3-.4 14.9 1.3 22 1.6 6.3 4.4 12.3 9.6 16.5 4.7 3.8 10.6 5.1 16.5 4.9 5.2-.3 10.6-1.2 14.8-4.6 5.3-4.1 8.1-10.8 10.1-17-1.1-.4-2.2-.8-3.4-1.2-2.6 5.7-4.5 11.3-9.7 15.3-4.1 3.3-10 3.6-14.9 2.3-4.8-1.3-7.7-5.5-9-10.2-2.2-8.1-1.7-17.4-1.8-25.8C837.7 910.2 851.2 910.2 864.8 910.2zM824.2 906.1c.1-7 1.3-15.5 5.8-21.1 4.1-5.1 12.5-4.4 16.2.8 3.9 5.4 3.8 13.7 4 20C841.5 906.4 832.8 906 824.2 906.1zM409.8 945.8c0-22.1 0-44.3 0-66.4-7.7 0-15.3 0-23 0 0 1.1 0 2.3 0 3.5 3.6 0 7.1.1 10.6.3 0 20.9 0 41.8 0 62.7-3.6 0-7.1 0-10.7.2 0 1.2.1 2.3.1 3.5 11.1.1 22.2-.1 33.4.1 0-1.3.1-2.5.1-3.8C416.8 946.1 413.3 946.1 409.8 945.8z" class="st1"/></g></svg>