<svg xmlns="http://www.w3.org/2000/svg" role="img" viewBox="-6.44 57.81 412.62 129.37"><title>NEC Corporation (HCSP) logo</title><style>svg {enable-background:new 0 0 400 245}</style><style>.st2{fill:#eb6e00}</style><path fill="#1414a0" d="M111.5 133H126c3.3 0 7.2 3.1 8.9 4.8l25.3 28V133h8.6v44.8h-15c-2.7-.1-5.3-.6-8.4-3.7L120.2 146v31.7h-8.6V133zm179.1 45.1c-10.3 1.4-20.7 1.6-31.1.7-6.1-.5-12.1-1.8-17.6-4.6-6.9-3.6-9.1-11.6-9-19 .1-6.7 2.1-13.9 8.1-17.9 3.9-2.6 8.2-3.4 12.6-4.3 12.2-2.2 24.5-1.7 36.4-.4v6.4c-14.1-2.7-28.9-2.1-34 4.4-3.1 4-3.6 8-3.6 11.4 0 6.1 2.1 15.3 14.4 17.1 8 1.2 16 .3 23.8-1.1v7.3zm-88-7c1.2 0 20.6.1 27.2 0v6.7c-13.4.5-26.3.7-39.8.2-11.5-.5-13.5-6.3-13.7-11.8V133h52.8v6.4H195v11.4h31.2v6.2H195c0 3.4.1 7.2.1 7.9.2 4.3 2.2 5.9 7.5 6.2"/><path fill="#002b62" d="M21 91.7c-.4-1.3-.6-2.4-.6-5.7 0-3.3.1-4.4.6-5.7 1.1-3.3 3.7-5 7.3-5 3.6 0 6.3 1.7 7.4 5 .4 1.3.5 2.4.5 5.7 0 3.3-.1 4.4-.5 5.7-1.1 3.3-3.8 5-7.4 5-3.5 0-6.2-1.7-7.3-5zm11.3-.9c.2-.8.4-1.8.4-4.8 0-2.9-.1-4-.4-4.8-.6-1.7-1.8-2.7-3.9-2.7-2 0-3.3 1-3.8 2.7-.3.8-.4 1.8-.4 4.8 0 2.9.1 4 .4 4.8.6 1.7 1.8 2.7 3.8 2.7 2.1 0 3.3-1.1 3.9-2.7zm7.6 5.6c-.2 0-.3-.1-.3-.3V82c0-.2.1-.3.3-.3h2.8c.2 0 .3.1.3.3v1.2c.7-1.1 1.9-1.9 3.8-1.9 1.2 0 2.3.5 3.1 1.2.1.1.2.3 0 .4l-1.6 2c-.1.1-.3.2-.4.1-.7-.4-1.4-.7-2.2-.7-1.9 0-2.8 1.4-2.8 3.7v8c0 .2-.1.3-.3.3h-2.7zm11-3.7c-.3-.9-.5-2.1-.5-3.7s.2-2.7.5-3.6c.8-2.6 3.1-4.1 6.1-4.1 2.2 0 3.9.9 5.1 2.3.1.1.1.3 0 .4l-1.9 1.7c-.2.1-.3.1-.4 0-.7-.8-1.5-1.3-2.7-1.3-1.3 0-2.3.6-2.7 1.9-.2.7-.3 1.6-.3 2.7s.1 2 .3 2.8c.4 1.3 1.4 1.9 2.7 1.9 1.2 0 2-.5 2.7-1.3.1-.2.3-.2.4 0l1.9 1.7c.2.1.1.3 0 .4-1.2 1.4-2.9 2.3-5.1 2.3-3-.1-5.3-1.5-6.1-4.1zm23.4 3.7c-.2 0-.3-.1-.3-.3v-8.5c0-1.9-.9-3.2-2.8-3.2-1.8 0-2.8 1.3-2.8 3.2v8.5c0 .2-.1.3-.3.3h-2.8c-.2 0-.3-.1-.3-.3V75.9c0-.2.1-.3.3-.3h2.8c.2 0 .3.1.3.3V83c.7-.9 1.9-1.7 3.9-1.7 3.1 0 5.1 2.3 5.1 5.5v9.3c0 .2-.1.3-.3.3h-2.8zm6.4-3.8c-.3-.9-.5-2.1-.5-3.6s.2-2.7.5-3.6c.8-2.6 3.1-4.1 6-4.1 3 0 5.2 1.6 6.1 4.1.3 1 .5 2.1.5 4.4 0 .2-.1.3-.3.3h-9.1c-.1 0-.2.1-.2.2 0 .4.1.8.2 1.1.5 1.4 1.6 2.2 3.3 2.2 1.7 0 2.7-.6 3.5-1.4.1-.1.3-.2.5-.1l1.8 1.6c.1.1.1.3 0 .4-1.3 1.5-3.3 2.5-6.1 2.5-3.2.1-5.4-1.4-6.2-4zm8.9-6.5c-.4-1.2-1.5-1.9-2.9-1.9s-2.5.7-2.9 1.9c-.1.4-.2.8-.2 1.3 0 .1.1.2.2.2h5.8c.1 0 .2-.1.2-.2 0-.5-.1-.9-.2-1.3zm5.6 8.3c-.1-.1-.1-.3 0-.4l1.8-1.8c.1-.1.3-.1.4 0 1.1 1 2.8 1.7 4.3 1.7 1.8 0 2.7-.7 2.7-1.7 0-.9-.5-1.4-2.5-1.6l-1.6-.2c-3-.3-4.5-1.8-4.5-4.3 0-2.9 2.1-4.7 5.7-4.7 2.3 0 4.2.8 5.5 1.8.2.1.2.3.1.4l-1.5 1.8c-.1.2-.3.2-.4.1-.9-.6-2.4-1.2-3.9-1.2s-2.2.6-2.2 1.5.5 1.4 2.4 1.6l1.6.2c3.1.3 4.5 1.9 4.5 4.3 0 2.9-2.1 5-6.2 5-2.8-.2-4.9-1.4-6.2-2.5zm19.7 2.2c-3 0-4.1-1.4-4.1-4.3v-7.8c0-.1-.1-.2-.2-.2h-1c-.2 0-.3-.1-.3-.3v-2c0-.2.1-.3.3-.3h1c.1 0 .2-.1.2-.2v-4c0-.2.1-.3.3-.3h2.8c.2 0 .3.1.3.3v4c0 .1.1.2.2.2h2c.2 0 .3.1.3.3v2c0 .2-.1.3-.3.3h-2c-.1 0-.2.1-.2.2v7.6c0 1.1.4 1.4 1.4 1.4h.8c.2 0 .3.1.3.3v2.4c0 .2-.1.3-.3.3h-1.5zm5.2-.2c-.2 0-.3-.1-.3-.3V82c0-.2.1-.3.3-.3h2.8c.2 0 .3.1.3.3v1.2c.7-1.1 2-1.9 3.8-1.9 1.2 0 2.3.5 3.1 1.2.1.1.2.3.1.4l-1.6 2c-.1.1-.3.2-.4.1-.7-.4-1.4-.7-2.2-.7-1.9 0-2.8 1.4-2.8 3.7v8c0 .2-.1.3-.3.3h-2.8zm20 0c-.2 0-.3-.1-.3-.3V95c-.7 1-2.1 1.7-4.2 1.7-2.7 0-4.9-1.4-4.9-4.5 0-3.2 2.3-4.7 5.9-4.7h3c.1 0 .2-.1.2-.2v-.7c0-1.7-.8-2.5-3.3-2.5-1.6 0-2.7.5-3.4 1-.1.1-.3.1-.4-.1l-1.2-2c-.1-.2 0-.3.1-.4 1.2-.8 2.8-1.4 5.2-1.4 4.5 0 6.1 1.5 6.1 5.1V96c0 .2-.1.3-.3.3h-2.5zm-.4-5v-1.1c0-.1 0-.2-.2-.2h-2.4c-2.2 0-3.2.6-3.2 2 0 1.2.9 1.8 2.5 1.8 2.1.1 3.3-.8 3.3-2.5zm11.3 5.2c-3 0-4.1-1.4-4.1-4.3v-7.8c0-.1-.1-.2-.2-.2h-1c-.2 0-.3-.1-.3-.3v-2c0-.2.2-.3.3-.3h1c.1 0 .2-.1.2-.2v-4c0-.2.1-.3.3-.3h2.8c.2 0 .3.1.3.3v4c0 .1 0 .2.2.2h2c.2 0 .3.1.3.3v2c0 .2-.1.3-.3.3h-2c-.1 0-.2.1-.2.2v7.6c0 1.1.4 1.4 1.4 1.4h.8c.2 0 .3.1.3.3v2.4c0 .2-.1.3-.3.3H151zm5.2-17.7c-.2 0-.3-.1-.3-.3V76c0-.2.1-.3.3-.3h2.8c.2 0 .3.1.3.3v2.6c0 .2-.1.3-.3.3h-2.8zm0 17.5c-.2 0-.3-.1-.3-.3V82c0-.2.1-.3.3-.3h2.8c.2 0 .3.1.3.3v14.1c0 .2-.1.3-.3.3h-2.8zm16.3 0c-.2 0-.3-.1-.3-.3v-8.5c0-1.9-.9-3.2-2.8-3.2-1.8 0-2.8 1.3-2.8 3.2v8.5c0 .2-.1.3-.3.3h-2.8c-.2 0-.3-.1-.3-.3V82c0-.2.1-.3.3-.3h2.8c.2 0 .3.1.3.3v1c.6-.9 1.9-1.7 3.9-1.7 3.1 0 5.1 2.3 5.1 5.5v9.3c0 .2-.1.3-.3.3h-2.8zm6.3 3.6c-.1-.2-.1-.3 0-.4l1.8-1.8c.2-.1.3-.1.5 0 .9.9 2 1.4 3.2 1.4 2.3 0 3.3-1.2 3.3-3.5v-1.4c-.7 1.1-1.9 1.7-3.8 1.7-2.5 0-4.3-1.3-5-3.6-.4-1.1-.5-2.1-.5-3.8 0-1.6.1-2.6.5-3.7.7-2.4 2.5-3.6 5-3.6 1.9 0 3.2.7 3.8 1.7v-1c0-.2.1-.3.3-.3h2.8c.2 0 .3.1.3.3v13.5c0 4.2-2.4 6.8-6.9 6.8-2-.1-4.2-.9-5.3-2.3zm8.5-8.9c.2-.7.3-1.4.3-2.4s-.1-1.7-.3-2.4c-.4-1.2-1.2-1.9-2.7-1.9-1.4 0-2.2.7-2.6 1.9-.2.7-.4 1.4-.4 2.4s.1 1.7.4 2.4c.4 1.2 1.2 1.9 2.6 1.9 1.5 0 2.3-.7 2.7-1.9z"/><path d="M207.2 81.3c-2 0-3.7.5-4.8 1.4-.3.2-.4.5-.2.9l.5.8c.2.3.6.3.9.1.8-.7 1.9-1 3.4-1 2.9 0 3.4.9 3.4 2.9v1.3H207c-4.8 0-5.8 2.4-5.8 4.5 0 2.8 1.9 4.5 5.2 4.5 1.8 0 3.2-.5 4.1-1.4v.5c0 .4.3.6.6.6h1c.4 0 .6-.3.6-.6v-9.4c.1-3.7-1.5-5.1-5.5-5.1zm3.3 8.4v2c0 1.7-1.5 2.8-3.8 2.8-1.5 0-3.2-.4-3.2-2.4 0-1.2.4-2.4 3.7-2.4h3.3zm20.1-8.4c-1.8 0-3.1.5-4.1 1.6v-6.7c0-.4-.3-.6-.6-.6h-1c-.4 0-.6.3-.6.6v19.5c0 .4.3.6.6.6h1c.4 0 .6-.3.6-.6v-.6c.9 1.1 2.3 1.6 4.1 1.6 2.6 0 4.4-1.2 5.2-3.6.4-1.2.5-2.4.5-4 0-1.7-.2-2.9-.5-4.1-.8-2.5-2.6-3.7-5.2-3.7zm-.4 2.3c1.7 0 2.8.7 3.3 2.2.3.7.4 1.8.4 3.2 0 1.4-.1 2.5-.4 3.2-.5 1.5-1.6 2.2-3.3 2.2-1.7 0-2.9-.8-3.4-2.2-.2-.7-.4-1.7-.4-3.2 0-1.5.1-2.5.4-3.2.6-1.5 1.7-2.2 3.4-2.2zm18.5-1.2c-.8-.7-1.9-1.1-3.1-1.1-1.5 0-2.7.5-3.5 1.5v-.6c0-.4-.3-.6-.7-.6h-1c-.4 0-.7.3-.7.6v13.5c0 .4.3.6.7.6h1c.4 0 .7-.3.7-.6V88c0-1.6.4-4.4 3.1-4.4.7 0 1.4.2 2.1.7.1.1.3.1.4.1.1 0 .3-.1.5-.3l.6-.8c.1-.1.2-.3.1-.5 0-.2-.1-.3-.2-.4zm4.3-6.8h-1.3c-.4 0-.6.3-.6.6v1.7c0 .4.3.6.6.6h1.3c.4 0 .6-.3.6-.6v-1.7c0-.4-.3-.6-.6-.6zm-.2 6h-1c-.4 0-.7.3-.7.6v13.5c0 .4.3.6.7.6h1c.4 0 .6-.3.6-.6V82.3c.1-.4-.2-.7-.6-.7zm15.4 0h-1c-.4 0-.6.3-.6.6v.6c-.9-1-2.2-1.5-3.9-1.5-2.5 0-4.3 1.3-5.1 3.6-.3 1.1-.5 2.2-.5 3.9 0 1.7.2 2.9.5 3.9.8 2.3 2.6 3.6 5.1 3.6 1.7 0 3.1-.5 3.9-1.5v.9c0 2.7-1.2 3.9-3.7 3.9-1.4 0-2.5-.5-3.3-1.4-.2-.3-.6-.3-.9-.1l-.7.6c-.3.2-.3.5-.1.9.9 1.3 2.7 2.2 4.8 2.2 3.9 0 6.3-2.2 6.3-6.2V82.3c-.2-.4-.5-.7-.8-.7zm-5.3 12.7c-1.6 0-2.7-.7-3.2-2.2-.3-.7-.4-1.7-.4-3.1 0-1.4.1-2.4.4-3.1.5-1.5 1.6-2.2 3.2-2.2 1.7 0 2.8.7 3.3 2.2.3.7.3 1.6.3 3.1s-.1 2.4-.3 3.1c-.5 1.4-1.6 2.2-3.3 2.2zm16.7-13c-1.7 0-3 .6-3.9 1.6v-6.7c0-.4-.3-.6-.7-.6h-1c-.4 0-.6.3-.6.6v19.5c0 .4.3.6.6.6h1c.4 0 .7-.3.7-.6v-8.6c0-2.1 1.4-3.6 3.5-3.6 2.3 0 3.4 1.3 3.4 3.9v8.3c0 .4.3.6.7.6h1c.4 0 .6-.3.6-.6V87c0-3.6-1.9-5.7-5.3-5.7zm14.8.3h-2.5v-3.9c0-.4-.3-.6-.6-.6h-1c-.4 0-.6.3-.6.6v3.9h-1.3c-.4 0-.6.3-.6.6v.8c0 .4.3.6.6.6h1.3v8.6c0 3 1.2 4.2 4.1 4.2h.8c.4 0 .7-.3.7-.6v-.9c0-.4-.3-.6-.7-.6h-.6c-1.5 0-2-.3-2-2v-8.5h2.5c.4 0 .7-.3.7-.6v-.8c-.1-.5-.4-.8-.8-.8zm9.2-.3c-2.8 0-4.8 1.4-5.7 3.9-.3 1-.5 2.1-.5 3.8 0 1.7.2 2.8.5 3.7.9 2.6 2.9 4 5.8 4 2.3 0 4.3-.9 5.5-2.5.2-.3.2-.7-.1-.9l-.7-.6c-.3-.2-.7-.2-.9.1-.9 1.1-2.2 1.7-3.7 1.7-1.9 0-3.1-.8-3.7-2.5-.2-.6-.3-1.2-.3-2.2h9.2c.4 0 .7-.3.7-.6 0-1.9-.1-2.9-.4-3.9-.9-2.5-2.9-4-5.7-4zm0 2.2c1.8 0 3 .8 3.5 2.4.2.5.2 1.1.3 1.8h-7.5c0-.7.1-1.3.3-1.8.4-1.6 1.6-2.4 3.4-2.4zm18.6-1.1c-.8-.7-1.9-1.1-3.1-1.1-1.5 0-2.7.5-3.5 1.5v-.6c0-.4-.3-.6-.7-.6h-1c-.4 0-.6.3-.6.6v13.5c0 .4.3.6.6.6h1c.4 0 .7-.3.7-.6V88c0-1.6.4-4.4 3.1-4.4.7 0 1.4.2 2.1.7.1.1.3.1.4.1.1 0 .3-.1.5-.3l.6-.8c.1-.1.2-.3.1-.5 0-.2-.1-.3-.2-.4zm28-.8h-1.1c-.4 0-.6.3-.7.5l-3.3 10.3-3.5-10.3c-.1-.3-.4-.5-.7-.5h-.9c-.2 0-.5.1-.7.5L336 92.4l-3.4-10.3c-.1-.2-.3-.5-.7-.5h-1.1c-.3 0-.4.1-.5.2-.1.1-.2.3-.1.5l4.5 13.5c.1.4.4.5.7.5h.9c.4 0 .6-.2.7-.5l3.5-10.3 3.4 10.3c.1.3.4.5.7.5h.9c.4 0 .6-.2.7-.5l4.5-13.5c.1-.3 0-.5 0-.5-.1-.1-.2-.2-.5-.2zm8.5-.3c-2.8 0-4.9 1.4-5.7 3.9-.3 1.1-.5 2.2-.5 3.8 0 1.6.2 2.7.5 3.8.8 2.5 2.9 3.9 5.7 3.9 2.8 0 4.9-1.4 5.7-3.9.4-1.1.5-2.2.5-3.8 0-1.6-.1-2.7-.5-3.8-.8-2.4-2.8-3.9-5.7-3.9zm0 13.2c-1.7 0-2.9-.8-3.5-2.4-.2-.8-.4-1.7-.4-3.1 0-1.4.1-2.3.4-3.1.5-1.5 1.8-2.4 3.5-2.4s3 .9 3.5 2.4c.3.8.4 1.7.4 3.1 0 1.4-.1 2.3-.4 3.1-.5 1.5-1.7 2.4-3.5 2.4zm18.6-12.1c-.8-.7-1.9-1.1-3.1-1.1-1.5 0-2.7.5-3.5 1.5v-.6c0-.4-.3-.6-.6-.6h-1c-.4 0-.6.3-.6.6v13.5c0 .4.3.6.6.6h1c.4 0 .6-.3.6-.6V88c0-1.6.4-4.4 3.1-4.4.7 0 1.4.2 2.1.7.1.1.3.1.4.1.2 0 .3-.1.5-.3l.6-.8c.1-.1.2-.3.2-.5s-.1-.3-.3-.4zm6.5 11.9h-.5c-.8 0-1.2-.2-1.2-1.5V76.2c0-.4-.3-.6-.7-.6h-1c-.4 0-.6.3-.6.6v16.6c0 2.5 1 3.6 3.3 3.6h.7c.4 0 .6-.3.6-.6v-.9c.1-.4-.2-.6-.6-.6zm14.1-18.7h-1c-.4 0-.6.3-.6.6v6.7c-.9-1-2.3-1.6-4.1-1.6-2.7 0-4.5 1.2-5.2 3.6-.4 1.1-.5 2.3-.5 4.1 0 1.7.1 3 .5 4 .8 2.4 2.5 3.6 5.2 3.6 1.8 0 3.1-.5 4.1-1.6v.6c0 .4.3.6.6.6h1c.4 0 .6-.3.6-.6V76.2c0-.4-.3-.6-.6-.6zm-5.5 18.9c-1.7 0-2.8-.8-3.3-2.2-.2-.7-.4-1.8-.4-3.2 0-1.4.1-2.5.4-3.2.5-1.5 1.6-2.2 3.3-2.2 1.7 0 2.9.8 3.3 2.2.3.7.4 1.7.4 3.2 0 1.5-.1 2.5-.4 3.2-.4 1.4-1.5 2.2-3.3 2.2z" class="st2"/><path d="M16.5 99.4c.8-.4 1.2-1.3.8-2.1L2.8 66.1c-.1-.3-.5-.5-.9-.3-.3.2-.5.5-.3.9l12.9 32c.2.7 1.2 1.1 2 .7z" class="st2"/></svg>