<svg xmlns="http://www.w3.org/2000/svg" role="img" viewBox="-18.46 -18.96 959.92 171.42"><title>NTT DATA logo</title><style>svg {enable-background:new 0 0 923.1 134.5}</style><path fill="#6486c2" d="M140.1 1.1v27.8h42.2v103.9h29.9V28.9h42.2V1.1H140.1zm492.2 0H557v28h73.3c10.8 0 15 4.9 15 17.5v4.7h-60.8c-23.1 0-34.6 11.5-34.6 37.7v6.2c0 26.8 11.9 37.6 35.9 37.6h89.1V46.3c0-33.2-11-45.2-42.6-45.2m-43.4 103.6c-4.5 0-9.6-2.3-9.6-13.6s5-13.3 9.6-13.3h56.4v26.9h-56.4zM880.6 1.1h-75.3v28h73.3c10.7 0 14.9 4.9 14.9 17.5v4.7h-60.7c-23.1 0-34.7 11.5-34.7 37.7v6.2c0 26.8 11.9 37.6 35.9 37.6h89.1V46.3c.1-33.2-10.9-45.2-42.5-45.2m-43.4 103.6c-4.5 0-9.6-2.3-9.6-13.6s5-13.3 9.6-13.3h56.4v26.9h-56.4zM263.9 1.1v27.8h42.2v103.9h30V28.9h42.2V1.1H263.9zm417 0v27.8h42.2v103.9H753V28.9h42.2V1.1H680.9zM538.3 86.7V47.3c0-34.4-13.3-46.1-43.5-46.1h-80.1v131.6h81.5c32 0 42.1-15.9 42.1-46.1m-30.5.6c0 12.5-4.2 17.5-15 17.5h-48.2V29.2h48.2c10.7 0 15 4.9 15 17.6v40.5zm-410 14.1c-.6-1.2-40.5-79-45.5-86.7-5.6-8.8-12.5-15-25.6-15C14.6-.3.1 5.1.1 34.4v98.4h29.5v-82c0-5.9-.3-14.6-.4-16.4-.1-1.5 0-2.8.7-3.2.8-.5 1.6.3 2.3 1.4.6 1.1 37.6 74.4 45.5 86.8 5.6 8.9 12.5 15 25.6 15 12.2 0 26.6-5.4 26.6-34.7V1.1h-29.5v82.1c0 5.9.3 14.6.4 16.4 0 1.4 0 2.8-.7 3.2-.8.6-1.6-.2-2.3-1.4"/></svg>