<svg xmlns="http://www.w3.org/2000/svg" role="img" viewBox="-1.79 66.21 405.08 111.83"><title>NTT DATA logo</title><path fill="none" d="M0 0h400v245H0z" pointer-events="none"/><path fill="#5784cc" d="M65.3043 74.72944v11.68491h17.82008v43.84942h12.62047V86.41435h17.82284v-11.6849h-48.2634m207.70415 0h-31.77375v11.78369h30.93423c4.5397 0 6.31078 2.06361 6.31078 7.3858.00413.02404.00413 1.51346.00413 1.96166H252.8436c-9.7499 0-14.60012 4.8766-14.60012 15.89388v2.62448c0 11.34306 5.02884 15.87396 15.12911 15.87396h37.59127v-36.5032c0-13.99226-4.62351-19.02028-17.95543-19.02028m-18.31955 43.66311c-1.9126 0-4.0533-.97733-4.0533-5.73315 0-4.77685 2.12009-5.60015 4.0533-5.60015h23.79081v11.3333h-23.7908m123.07742-43.6631h-31.76276v11.78369h30.9466c4.52733 0 6.30804 2.06361 6.30804 7.3858v1.96166h-25.64022c-9.7499 0-14.6015 4.8766-14.6015 15.89388v2.62448c0 11.34306 5.03434 15.87396 15.12637 15.87396h37.58577v-36.5032c0-13.99226-4.5974-19.02028-17.9623-19.02028m-18.30993 43.66311c-1.90848 0-4.05604-.97733-4.05604-5.73315 0-4.77685 2.1242-5.60015 4.05604-5.60015h23.8018v11.3333h-23.8018m-241.87483-43.6631v11.6849h17.81528v43.84942h12.62706V86.41435h17.81803v-11.6849h-48.26037m175.91871 0v11.6849h17.82628v43.84942h12.6147V86.41435h17.83451v-11.6849h-48.27549m-60.15234 36.0782V94.19354c0-14.5655-5.64714-19.46409-18.37176-19.46409h-33.78803v55.52348h34.37336c13.5229 0 17.78643-6.70622 17.78643-19.44526m-12.884.2432c0 5.33496-1.7862 7.3884-6.3259 7.3884h-20.3297v-31.8816h20.3297c4.5397 0 6.3259 2.0647 6.3259 7.39226v17.10094m-172.95129 5.98487c-.2689-.49533-17.13433-33.35866-19.19849-36.59457-2.37716-3.7399-5.27163-6.32892-10.81654-6.32892-5.15085 0-11.25017 2.27617-11.25017 14.64437v41.5205h12.44115V95.65078c0-2.48557-.15718-6.16747-.18356-6.906-.0257-.6172 0-1.19909.3119-1.3762.35792-.2087.71118.1374.95754.59687.23289.46056 15.8745 31.37598 19.19134 36.60102 2.38197 3.72217 5.27492 6.34555 10.81544 6.34555 5.15044 0 11.25663-2.30406 11.25663-14.668v-41.5312H48.58931v34.63661c0 2.48612.15608 6.18135.18617 6.91452.0327.6161 0 1.17546-.3119 1.37826-.34982.19703-.71269-.14922-.95094-.60648"/><path fill="#231f20" d="M101.91438 153.55197h2.41742v3.02335c.23234-.50618.70527-1.15663 1.46633-1.90532.80393-.73963 1.7142-1.11803 2.70184-1.11803.05097 0 .12723.00907.23935.01608.11321.01498.33704.0349.60373.05908v2.74951c-.14427-.0338-.28222-.05152-.42388-.06334-.14234-.0026-.2851-.00426-.43047-.00426-1.2983 0-2.26765.40313-2.98103 1.24416-.67354.84419-1.05139 2.29719-1.05139 3.38663v9.4071h-2.5419zm60.78521 7.0379c-.11129-1.18067-.3696-2.09905-.75157-2.77369-.7351-1.30049-1.96208-1.94723-3.66858-1.94723-1.22286 0-2.24512.4471-3.08189 1.3391-.82852.87386-1.2737 2.00893-1.32041 3.38183zm-.95767-6.24194c1.04836.511 1.85627 1.198 2.40862 2.04493.52761.80873.89997 1.72382 1.07584 2.80433.1484.73262.23908 1.88224.23908 3.4978H153.8208c.04809 1.61444.42456 2.91054 1.14042 3.88855.71035.9607 1.81368 1.45548 3.30584 1.45548 1.39461 0 2.51167-.46263 3.3292-1.37606.46441-.55551.80517-1.17065.9934-1.85765h2.65457c-.07969.56416-.31052 1.21297-.69936 1.94558-.39846.70473-.83402 1.29143-1.3218 1.76477-.79691.7836-1.82054 1.31602-3.01317 1.58972-.63204.15732-1.36988.23784-2.18054.23784-1.9717 0-3.65896-.73262-5.03709-2.17106-1.37125-1.42127-2.06374-3.44036-2.06374-6.02197 0-2.55481.69524-4.62818 2.08023-6.21254 1.38774-1.58436 3.20692-2.39378 5.43692-2.39378 1.13905 0 2.22588.27109 3.29623.80406zm-17.59545-6.28289h2.58862v5.48693h2.43473v2.1297h-2.43473v11.16911c0 .52872.18137.90011.5551 1.06746.18823.10635.51112.15898.9879.15898.12503 0 .26243-.00536.40533-.00701.14152-.00371.30228-.02144.4864-.05098v2.07873c-.28717.08683-.58258.15127-.91784.19318-.32838.03064-.65814.05579-1.02637.05579-1.20225 0-2.02116-.31506-2.45672-.93061-.40807-.63933-.62242-1.439-.62242-2.42498v-11.30967h-2.08298v-2.1297h2.08298zm25.9631 13.67721c0-1.66762.34625-3.04423 1.02638-4.1558.69387-1.08518 1.72163-1.62297 3.0654-1.62297 1.1679 0 2.20252.43309 3.08325 1.34556.88486.87854 1.32042 2.38183 1.32042 4.43321 0 1.49752-.17587 2.69867-.54136 3.62819-.67051 1.74168-1.94009 2.61554-3.78812 2.61554-1.39048 0-2.44572-.57062-3.13959-1.71544-.68013-1.15127-1.02637-2.66212-1.02637-4.52829zm-2.64357-.12448c0 2.50384.58532 4.57926 1.7601 6.23342 1.183 1.66282 2.80158 2.49574 4.88182 2.49574 1.16515 0 2.15855-.29459 2.95547-.87964.4438-.31396.90821-.8174 1.4001-1.48996v2.3696h2.50206v-22.28189h-2.50205v7.85379c-.55922-.75667-1.22424-1.34982-2.01566-1.74595-.7873-.39653-1.63369-.60648-2.55564-.60648-1.903 0-3.45561.68054-4.64 2.03201-1.19813 1.36438-1.7862 3.36204-1.7862 6.01936zm-37.47585 3.17998c.07832.88032.30503 1.5566.68425 2.0272.68563.86686 1.88925 1.26944 3.59988 1.26944 1.02088 0 1.90711-.20665 2.6793-.63602.77631-.42031 1.16653-1.07887 1.16653-1.98585 0-.6565-.31465-1.1738-.93295-1.54314-.39434-.21901-1.17065-.45891-2.33717-.73962l-2.16817-.52707c-1.39324-.33814-2.41275-.71214-3.07502-1.12173-1.17202-.7219-1.76009-1.69332-1.76009-2.97182 0-1.48832.54685-2.70775 1.65567-3.63616 1.10744-.92058 2.58724-1.381 4.4655-1.381 2.4416 0 4.20444.70032 5.28578 2.0959.676.88018 1.00577 1.8248.97966 2.86066h-2.54053c-.04671-.5834-.2693-1.14427-.64852-1.62626-.63891-.68962-1.73124-1.04287-3.2921-1.04287-1.047 0-1.83155.19483-2.36741.56952-.53723.37675-.80516.88664-.80516 1.52267 0 .68315.35311 1.22904 1.05385 1.63327.40946.26134 1.00715.45287 1.80544.63163l1.80818.4552c1.97032.43845 3.28936.89462 3.96537 1.33375 1.04012.67724 1.56224 1.72492 1.56224 3.18108 0 1.41701-.54548 2.62998-1.63919 3.6389-1.0882 1.0305-2.76174 1.5415-4.9986 1.5415-2.4155 0-4.12476-.53243-5.12915-1.60154-1.00165-1.05193-1.54025-2.37922-1.61033-3.94764zm-15.12953-11.24578v10.85405c0 .82756.12765 1.51566.37566 2.04163.4684.95974 1.33539 1.4508 2.6132 1.4508 1.82056 0 3.06677-.84528 3.72217-2.56017.36274-.89475.53724-2.13615.53724-3.72587v-8.06044h2.69441v16.29908h-2.54602l.03435-2.38897c-.34488.6172-.76807 1.15443-1.27782 1.55536-1.00852.84694-2.23275 1.29349-3.66996 1.29349-2.24333 0-3.76173-.77714-4.57116-2.32289-.44655-.8314-.66707-1.94393-.66707-3.32714v-11.10893zm-13.63695-5.45958v2.65525h-7.40352v19.59929h-3.00027v-19.59929h-7.40297v-2.65525zm114.7143 19.82585c-.36823-.1738-.56334-.53874-.56334-1.07282v-18.7911h-2.58037v18.92795c0 .99135.21847 1.79472.63891 2.42869.43281.61184 1.25171.93597 2.44847.93597.21297 0 .41907-.00907.6128-.02515V168.061c-.23907-.02734-.42182-.06966-.55647-.14276zm54.18644 0c-.3696-.1738-.57296-.53874-.57296-1.07282v-18.7911h-2.57213v18.92795c0 .99135.21297 1.79472.64166 2.42869.43281.61184 1.24485.93597 2.44023.93597.21984 0 .42456-.00907.61692-.02515V168.061c-.2377-.02734-.42594-.06966-.55372-.14276zm-25.42312-1.65512c-.68975 1.14688-1.73399 1.72286-3.12448 1.72286-1.85902 0-3.11623-.88183-3.80048-2.63052-.36274-.9188-.5441-2.12214-.5441-3.62558 0-2.04973.44654-3.54711 1.32728-4.4343.88898-.90176 1.9126-1.34446 3.08325-1.34446 1.35065 0 2.36878.53943 3.05853 1.63162.6925 1.10992 1.04836 2.48227 1.04836 4.14714 0 1.87854-.35587 3.38939-1.04836 4.53324zm1.90161-10.66897c-1.194-1.35682-2.74525-2.03847-4.6551-2.03847-.91784 0-1.76697.21531-2.5529.60979-.77768.39983-1.4537.9912-2.01154 1.74374v-7.85488h-2.50205v22.2926h2.50205v-2.37331c.48777.67353.9618 1.1727 1.39461 1.49367.80792.58065 1.79445.87964 2.96097.87964 2.07474 0 3.71393-.83292 4.8777-2.49945 1.17752-1.65951 1.76285-3.73288 1.76285-6.24043 0-2.6514-.59082-4.65236-1.77659-6.0129zm141.68826-2.05028h2.4251v3.0217c.21298-.5055.70762-1.15018 1.49355-1.89722.75707-.74333 1.64605-1.12448 2.69578-1.12448.04672 0 .11267.00165.2171.01717.11404.00701.31876.02954.60593.06073v2.7469c-.169-.03009-.3009-.05262-.44655-.05633-.11954-.0044-.25694-.00536-.38747-.00536-1.31629 0-2.29733.39984-2.99944 1.24251-.698.84638-1.03462 2.3009-1.03462 3.38128v9.41616h-2.56938zm-6.49215 12.51631c.62792-1.32302.9357-2.79361.9357-4.43596 0-1.47444-.2226-2.66377-.68289-3.5757-.71585-1.46674-1.9442-2.18713-3.68781-2.18713-1.55262 0-2.6848.61033-3.39103 1.85655-.7035 1.23344-1.05936 2.73783-1.05936 4.46976 0 1.67628.35587 3.07172 1.05936 4.1918.70623 1.12448 1.82879 1.6789 3.36492 1.6789 1.6749 0 2.83044-.66818 3.4611-1.99822zm1.58972-10.48911c1.35201 1.36108 2.03077 3.35613 2.03077 5.98871 0 2.5441-.59632 4.63354-1.77796 6.29141-1.19263 1.66818-3.05165 2.49903-5.54821 2.49903-2.09398 0-3.74552-.74237-4.97525-2.2076-1.22561-1.45452-1.84116-3.44036-1.84116-5.9082 0-2.64605.64303-4.76448 1.93596-6.32205 1.29843-1.5731 3.03792-2.3685 5.22258-2.3685 1.95382 0 3.60262.687 4.95327 2.0272zm-18.54626-7.51674h2.60373v5.48954h2.43885v2.12805h-2.43885v11.1735c0 .53408.17313.89901.53724 1.07282.20472.10635.53174.15898.9989.15898.12778 0 .25556-.0044.4012-.00701.14427-.00275.31053-.02144.50151-.05098v2.07172c-.29266.09288-.6018.15719-.9247.2002-.31327.03599-.66364.05578-1.036.05578-1.19537 0-2.01016-.32413-2.44022-.93597-.42594-.63397-.64166-1.43734-.64166-2.42869v-11.31035h-2.0665v-2.12805h2.0665zm-29.37612 5.51001l4.4284 13.65509 4.6029-13.65509h2.96647l-6.23109 16.78259h-2.81258l-6.1088-16.78259zm-32.90592-.02047h2.4416v3.00562c.72135-.90436 1.48392-1.55482 2.29458-1.94393.80516-.39077 1.70788-.59742 2.69716-.59742 2.16954 0 3.63285.76587 4.39817 2.3042.41083.84638.62792 2.02816.62792 3.60881v10.42578h-2.61197v-10.2668c0-.93831-.14153-1.70473-.41907-2.2656-.44793-.97416-1.28057-1.46097-2.48282-1.46097-.60731 0-1.10882.06183-1.49354.19057-.70486.20404-1.32728.63974-1.85765 1.28978-.42594.48296-.70623 1.01978-.83264 1.55921-.1319.54466-.19923 1.33045-.19923 2.3358v8.618h-2.56251zm-15.9123 0h2.4416v3.00562c.72135-.90436 1.48667-1.55482 2.29458-1.94393.80791-.39077 1.70788-.59742 2.69854-.59742 2.17504 0 3.63698.76587 4.3968 2.3042.41907.84638.62654 2.02816.62654 3.60881v10.42578h-2.6106v-10.2668c0-.93831-.14152-1.70473-.41495-2.2656-.45342-.97416-1.28331-1.46097-2.48419-1.46097-.61143 0-1.11019.06183-1.49903.19057-.698.20404-1.31904.63974-1.8494 1.28978-.43007.48296-.70899 1.01978-.8354 1.55921-.1319.54466-.1951 1.33045-.1951 2.3358v8.618h-2.56939zm-6.45093-5.48954h2.56251v22.2926h-2.5625zm71.24465 19.3745c.53998.43734 1.18164.66116 1.93185.66116.90271 0 1.77383-.21736 2.62021-.64234 1.42896-.7193 2.1407-1.91618 2.1407-3.5489v-2.15114c-.31053.20404-.71586.3865-1.20775.53036-.49327.13356-.97691.23606-1.45232.28813l-1.554.20294c-.93019.12984-1.62956.3435-2.09809.61665-.80242.45947-1.194 1.20005-1.194 2.21297 0 .77548.27067 1.38471.8134 1.83016zm5.40944-7.23494c.59082-.07516.98104-.31945 1.18714-.76065.11266-.23605.169-.57955.169-1.03476 0-.91673-.3119-1.56553-.9357-1.98309-.61555-.40258-1.50727-.62366-2.66968-.62366-1.33827 0-2.2877.38912-2.84967 1.14042-.31053.41605-.5125 1.05413-.61006 1.86727h-2.39213c.04396-1.96276.65265-3.33511 1.82604-4.10263 1.17477-.76642 2.5364-1.15553 4.08353-1.15553 1.79857 0 3.25363.35682 4.37344 1.07227 1.11706.71764 1.67353 1.81519 1.67353 3.3358v9.14396c0 .2862.05222.51525.16214.67739.10854.15993.33663.2447.69661.2447.10992 0 .23633-.00686.38198-.01868.14427-.01237.2954-.03655.45754-.07145v1.98048c-.39846.11707-.70761.19319-.91646.22919-.20747.02308-.49464.04355-.856.04355-.88623 0-1.52926-.33718-1.92772-.97952-.20885-.35752-.35175-.83787-.44518-1.47224-.52075.7138-1.27232 1.32137-2.25061 1.85064-.97966.53132-2.06375.79802-3.23715.79802-1.41796 0-2.579-.45892-3.47759-1.35889-.8986-.89159-1.3479-2.01167-1.3479-3.35613 0-1.46633.44243-2.60744 1.33004-3.41618.87936-.80516 2.04176-1.31876 3.4776-1.50013zm-103.10633 7.23493c.54273.43735 1.17889.66117 1.93047.66117.89722 0 1.77108-.21736 2.61884-.64234 1.42621-.7193 2.14481-1.91618 2.14481-3.5489v-2.15114c-.31464.20404-.7186.3865-1.21324.53036-.48777.13356-.97966.23606-1.45232.28813l-1.5485.20294c-.93431.12984-1.63505.3435-2.09947.61665-.79692.45947-1.19675 1.20005-1.19675 2.21297 0 .77548.27617 1.38471.81616 1.83016zm5.40531-7.23493c.59494-.07516.98653-.31945 1.19126-.76065.10855-.23605.17312-.57955.17312-1.03476 0-.91673-.31327-1.56553-.93706-1.98309-.62105-.40258-1.5169-.62366-2.6738-.62366-1.34103 0-2.28497.38912-2.84556 1.14042-.31327.41605-.5235 1.05413-.61418 1.86727h-2.399c.04671-1.96276.65814-3.33511 1.83154-4.10263 1.17477-.76642 2.53228-1.15553 4.08215-1.15553 1.7972 0 3.25776.35682 4.38169 1.07227 1.10744.71764 1.66529 1.81519 1.66529 3.3358v9.14396c0 .2862.0522.51525.16762.67739.1113.15993.338.2447.687.2447.11817 0 .2432-.00686.38335-.01868.14152-.01237.28991-.03655.45617-.07145v1.98048c-.40258.11707-.70486.19319-.91509.22919-.19923.02308-.48914.04355-.85325.04355-.87936 0-1.52377-.33718-1.92772-.97952-.19786-.35752-.35175-.83787-.43968-1.47224-.51937.7138-1.27233 1.32137-2.26023 1.85064-.97417.53132-2.05825.79802-3.23028.79802-1.41796 0-2.57762-.45892-3.47896-1.35889-.90272-.89159-1.35202-2.01167-1.35202-3.35613 0-1.46633.44518-2.60744 1.33278-3.41618.8821-.80516 2.04314-1.31876 3.48584-1.50013zm68.9858 5.8663c.61967-1.32564.93706-2.79637.93706-4.43597 0-1.47444-.22946-2.66748-.68288-3.5772-.7131-1.46524-1.9442-2.18563-3.69056-2.18563-1.55537 0-2.68617.61033-3.39378 1.85655-.69524 1.23234-1.05386 2.73509-1.05386 4.46976 0 1.67092.35862 3.06306 1.05386 4.18919.70761 1.11899 1.82605 1.67875 3.36218 1.67875 1.68727 0 2.83593-.66982 3.46797-1.99546zm1.58696-10.48912c1.35614 1.36108 2.03215 3.35613 2.03215 5.98336 0 2.5467-.59494 4.63354-1.78757 6.29305-1.19126 1.66653-3.0338 2.49945-5.54272 2.49945-2.0871 0-3.74415-.73908-4.97388-2.20967-1.2256-1.45452-1.83704-3.44036-1.83704-5.9049 0-2.64495.64303-4.76504 1.93872-6.32 1.29293-1.57308 3.02554-2.3685 5.2157-2.3685 1.9552 0 3.60675.6844 4.95464 2.0272zm-101.17998 10.48911c.61967-1.32563.93707-2.79636.93707-4.43596 0-1.47444-.22809-2.66748-.67876-3.5772-.71448-1.46524-1.94558-2.18563-3.70018-2.18563-1.554 0-2.68068.61033-3.38554 1.85655-.70486 1.23234-1.0566 2.73509-1.0566 4.46976 0 1.67092.35174 3.06306 1.0566 4.18919.70486 1.11899 1.8288 1.67875 3.36355 1.67875 1.68728 0 2.84281-.66982 3.46386-1.99546zm1.59521-10.48911c1.3479 1.36108 2.02253 3.35613 2.02253 5.98336 0 2.5467-.5922 4.63354-1.77933 6.29305-1.194 1.66653-3.04204 2.49945-5.54134 2.49945-2.09123 0-3.7524-.73908-4.97938-2.20967-1.2311-1.45452-1.84116-3.44036-1.84116-5.9049 0-2.64495.64166-4.76504 1.94696-6.32 1.28057-1.57308 3.0338-2.3685 5.21158-2.3685 1.95658 0 3.60538.6844 4.96014 2.0272zm-25.40388-6.3505c2.05825 1.0992 3.3031 3.0228 3.77163 5.81972h-2.81533c-.33388-1.55276-1.02913-2.6782-2.08024-3.38567-1.04698-.7219-2.38114-1.06966-3.97773-1.06966-1.91398 0-3.50782.73152-4.80625 2.20115-1.30392 1.48928-1.94696 3.68287-1.94696 6.5989 0 2.53174.53174 4.59645 1.61033 6.15992 1.07447 1.59673 2.81808 2.38678 5.23494 2.38678 1.86315 0 3.39653-.55125 4.6139-1.66859 1.2201-1.11005 1.83154-2.90257 1.87-5.40641h-6.56496v-2.38032h9.20854v11.87054h-1.83154l-.6925-3.23591c-.93431 1.06279-1.77108 1.80612-2.50754 2.2355-1.22561.71228-2.78373 1.0665-4.67435 1.0665-2.43748 0-4.5452-.81589-6.2998-2.44751-1.9181-2.04053-2.88951-4.83854-2.88951-8.413 0-3.54877.94393-6.38814 2.81944-8.47648 1.78758-1.97183 4.09452-3.0217 6.91672-3.0217 1.95108 0 3.62736.3854 5.0412 1.16625"/></svg>