<svg xmlns="http://www.w3.org/2000/svg" role="img" viewBox="-12.67 -12.67 684.84 164.84"><title>OpenLaw logo</title><g fill="none" fill-rule="evenodd"><g fill-rule="nonzero"><path fill="#444" d="M180.638969,46.2340384 C186.728342,40.2400719 194.976017,36.9525372 203.518969,37.1140384 C212.046302,36.9084853 220.285764,40.2042697 226.318969,46.2340384 C232.42764,52.0677215 235.820954,60.1884737 235.678969,68.6340384 C235.876833,77.1297092 232.443064,85.306735 226.238969,91.1140384 C220.078969,97.1140384 212.318969,100.114038 203.118969,100.114038 C195.334648,100.245019 187.779248,97.4794574 181.918969,92.3540384 C174.798969,86.1940384 171.198969,78.1940384 171.198969,68.1940384 C171.065625,59.8619097 174.500997,51.8703012 180.638969,46.2340384 L180.638969,46.2340384 Z M189.118969,83.3540384 C192.814004,87.3198804 198.019376,89.5299823 203.438969,89.4340384 C208.80863,89.5122781 213.957788,87.3013404 217.598969,83.3540384 C221.457514,79.4339404 223.588973,74.1340968 223.518969,68.6340384 C223.633473,63.1257532 221.495319,57.8092627 217.598969,53.9140384 C213.896294,50.0305906 208.76469,47.833034 203.398969,47.833034 C198.033247,47.833034 192.901643,50.0305906 189.198969,53.9140384 C185.359963,57.7490473 183.226269,62.9679456 183.278969,68.3940384 C183.147806,73.960839 185.250974,79.3484063 189.118969,83.3540384 L189.118969,83.3540384 Z M271.038969,78.3940384 L271.038969,96.7940384 C271.038969,97.8986079 270.143538,98.7940384 269.038969,98.7940384 L261.278969,98.7940384 C260.174399,98.7940384 259.278969,97.8986079 259.278969,96.7940384 L259.278969,40.4740384 C259.278969,39.3694689 260.174399,38.4740384 261.278969,38.4740384 L276.868969,38.4740384 C280.359519,38.3734326 283.843652,38.832582 287.188969,39.8340384 C289.782887,40.7193815 292.118489,42.230653 293.988969,44.2340384 C297.327584,47.8689403 299.120768,52.6603287 298.988969,57.5940384 C299.141664,62.0298136 297.756851,66.3820834 295.068969,69.9140384 C291.708969,74.2340384 286.268969,76.3940384 278.668969,76.3940384 L273.068969,76.3940384 C272.533357,76.3860033 272.016908,76.5931645 271.635322,76.9691117 C271.253735,77.3450589 271.038908,77.8583665 271.038969,78.3940384 L271.038969,78.3940384 Z M271.038969,64.2340384 C271.038969,65.3386079 271.934399,66.2340384 273.038969,66.2340384 L275.868969,66.2340384 C283.201969,66.2340384 286.868969,63.3540384 286.868969,57.5940384 C286.868969,51.4340384 283.188969,48.7140384 275.108969,48.7140384 L273.028969,48.7140384 C271.924399,48.7140384 271.028969,49.6094689 271.028969,50.7140384 L271.038969,64.2340384 L271.038969,64.2340384 Z M351.868969,48.7140384 L334.268969,48.7140384 C333.164399,48.7140384 332.268969,49.6094689 332.268969,50.7140384 L332.268969,60.0740384 C332.268969,61.1786079 333.164399,62.0740384 334.268969,62.0740384 L351.068969,62.0740384 C352.173538,62.0740384 353.068969,62.9694689 353.068969,64.0740384 L353.068969,70.2340384 C353.068969,71.3386079 352.173538,72.2340384 351.068969,72.2340384 L334.268969,72.2340384 C333.164399,72.2340384 332.268969,73.1294689 332.268969,74.2340384 L332.268969,86.6340384 C332.268969,87.7386079 333.164399,88.6340384 334.268969,88.6340384 L351.868969,88.6340384 C352.973538,88.6340384 353.868969,89.5294689 353.868969,90.6340384 L353.868969,96.7940384 C353.868969,97.8986079 352.973538,98.7940384 351.868969,98.7940384 L322.478969,98.7940384 C321.374399,98.7940384 320.478969,97.8986079 320.478969,96.7940384 L320.478969,40.4740384 C320.478969,39.3694689 321.374399,38.4740384 322.478969,38.4740384 L351.868969,38.4740384 C352.973538,38.4740384 353.868969,39.3694689 353.868969,40.4740384 L353.868969,46.7140384 C353.868969,47.8186079 352.973538,48.7140384 351.868969,48.7140384 Z M378.078969,96.7940384 L378.078969,39.1140384 C378.078969,38.0094689 378.974399,37.1140384 380.078969,37.1140384 L385.248969,37.1140384 C385.823423,37.1147659 386.369829,37.3624699 386.748969,37.7940384 L419.448969,75.1140384 C419.997238,75.7453326 420.880359,75.9689316 421.662987,75.67461 C422.445615,75.3802884 422.962552,74.6301717 422.958969,73.7940384 L422.958969,40.4740384 C422.958969,39.3694689 423.854399,38.4740384 424.958969,38.4740384 L432.718969,38.4740384 C433.823538,38.4740384 434.718969,39.3694689 434.718969,40.4740384 L434.718969,97.9740384 C434.718969,99.0786079 433.823538,99.9740524 432.718969,99.9740524 L427.468969,99.9740524 C426.891027,99.9761932 426.340409,99.7282327 425.958969,99.2940384 L393.338969,61.9740384 C392.78914,61.3505892 391.910993,61.1322379 391.133205,61.425575 C390.355417,61.7189122 389.840163,62.4627748 389.838969,63.2940384 L389.838969,96.7640384 C389.838969,97.8686079 388.943538,98.7640384 387.838969,98.7640384 L380.078969,98.7640384 C378.98601,98.7641614 378.095363,97.8868745 378.078969,96.7940384 Z M473.118969,40.4740384 L473.118969,86.6340384 C473.118969,87.7386079 474.014399,88.6340384 475.118969,88.6340384 L489.678969,88.6340384 C490.783538,88.6340384 491.678969,89.5294689 491.678969,90.6340384 L491.678969,96.7940384 C491.678969,97.8986079 490.783538,98.7940384 489.678969,98.7940384 L463.358969,98.7940384 C462.254399,98.7940384 461.358969,97.8986079 461.358969,96.7940384 L461.358969,40.4740384 C461.358969,39.3694689 462.254399,38.4740384 463.358969,38.4740384 L471.118969,38.4740384 C472.223538,38.4740384 473.118969,39.3694689 473.118969,40.4740384 Z M550.238969,86.0740384 L528.238969,86.0740384 C527.441196,86.0712604 526.718075,86.5428609 526.398969,87.2740384 L521.928969,97.5940384 C521.609862,98.3252159 520.886742,98.7968165 520.088969,98.7940506 L511.948969,98.7940506 C511.278481,98.7940506 510.652876,98.4570094 510.282815,97.8978956 C509.912754,97.3387818 509.847478,96.6314331 510.108969,96.0140384 L534.568969,38.4140384 C534.881967,37.6750285 535.606408,37.1946925 536.408969,37.1940384 L542.548969,37.1940384 C543.360017,37.1940384 544.09077,37.6838299 544.398969,38.4340384 L568.178969,96.0340384 C568.431744,96.6493154 568.362081,97.3500023 567.993106,97.9034636 C567.624132,98.4569249 567.004138,98.7907249 566.338969,98.7940506 L558.038969,98.7940506 C557.221828,98.7964681 556.485394,98.3015525 556.178969,97.5440384 L552.068969,87.3240384 C551.766683,86.5766004 551.045161,86.0837571 550.238969,86.0740384 L550.238969,86.0740384 Z M546.868969,73.8240384 L541.278969,59.5440384 C540.973967,58.7872933 540.239866,58.2916847 539.423969,58.2916847 C538.608071,58.2916847 537.87397,58.7872933 537.568969,59.5440384 L531.768969,73.8240384 C531.519851,74.4398689 531.59277,75.1392039 531.963572,75.6903959 C532.334374,76.2415879 532.954661,76.5726939 533.618969,76.5740473 L545.008969,76.5740473 C545.675046,76.5760213 546.298401,76.2462755 546.671572,75.6945445 C547.044742,75.1428134 547.118752,74.4415106 546.868969,73.8240384 L546.868969,73.8240384 Z M584.058969,39.8440384 L595.288969,73.9740384 C595.563358,74.7871093 596.325846,75.3345269 597.183969,75.3345269 C598.042091,75.3345269 598.804579,74.7871093 599.078969,73.9740384 L611.368969,39.1440384 C611.65315,38.3447423 612.41066,37.8116797 613.258969,37.8140306 L616.868969,37.8140306 C617.725122,37.8161091 618.485001,38.3629003 618.758969,39.1740384 L630.468969,73.9740384 C630.743358,74.7871093 631.505846,75.3345269 632.363969,75.3345269 C633.222091,75.3345269 633.984579,74.7871093 634.258969,73.9740384 L646.328969,39.7540384 C646.609768,38.9507964 647.36806,38.4131714 648.218969,38.4140384 L656.328969,38.4140384 C656.983113,38.4131241 657.59636,38.7321623 657.971086,39.2683391 C658.345812,39.804516 658.434649,40.4900568 658.208969,41.1040384 L636.968969,98.6140384 C636.676041,99.3980522 635.925914,99.9167571 635.088969,99.9140384 L629.678969,99.9140384 C628.821772,99.9177097 628.057552,99.3747116 627.778969,98.5640384 L616.658969,65.9140384 C616.380161,65.1084837 615.621407,64.5681791 614.768969,64.5681791 C613.91653,64.5681791 613.157776,65.1084837 612.878969,65.9140384 L601.278969,98.6040384 C600.994787,99.4033345 600.237277,99.9363972 599.388969,99.9340462 L593.978969,99.9340462 C593.131734,99.9306633 592.378552,99.3938207 592.098969,98.5940384 L572.048969,41.1540384 C571.835002,40.5419782 571.931022,39.8641715 572.306569,39.3356231 C572.682117,38.8070747 573.290587,38.4933776 573.938969,38.4940384 L582.158969,38.4940384 C583.016165,38.4903672 583.780385,39.0333653 584.058969,39.8440384 L584.058969,39.8440384 Z" transform="translate(.805 .895)"/><g><path fill="#00CDE6" d="M30.6952262,91.5049722 C28.494426,91.5074611 26.4732552,90.2909087 25.4452262,88.3449684 C13.0952262,64.9909684 17.4132262,36.3149684 36.0932262,17.6329684 C54.7752262,-1.04703164 83.4512262,-5.36503164 106.805226,6.98496836 C108.70829,7.95946038 109.939426,9.88294477 110.027405,12.0191907 C110.115384,14.1554366 109.046582,16.1736414 107.230094,17.3013193 C105.413606,18.4289971 103.130718,18.4915244 101.255226,17.4649684 C82.5032262,7.54896836 59.4772262,11.0169684 44.4772262,26.0169684 C29.4772262,41.0169684 26.0092262,64.0429684 35.9252262,82.7949684 C37.4480927,85.6840732 36.3482845,89.2606854 33.4652262,90.7949684 C32.6126074,91.251418 31.6622866,91.495002 30.6952262,91.5049722 Z" transform="translate(.805 .895)"/><path fill="#066BD1" d="M78.7552262,120.444968 C68.9061432,120.43679 59.209442,118.012615 50.5152262,113.384968 C47.6433552,111.839852 46.5565186,108.266773 48.081608,105.384217 C49.6066973,102.501661 53.1721244,101.38998 56.0652262,102.894968 C74.8152262,112.821968 97.8472262,109.358968 112.850226,94.3589684 C127.853226,79.3579684 131.319226,56.3269684 121.395226,37.5749684 C120.386108,35.6993452 120.459588,33.4267669 121.587762,31.6202493 C122.715935,29.8137316 124.725741,28.7503927 126.853953,28.8340374 C128.982165,28.917682 130.902316,30.1354793 131.885226,32.0249684 C141.727415,50.6822772 141.102807,73.1266896 130.238222,91.2077473 C119.373637,109.288805 99.849282,120.376697 78.7552262,120.444968 L78.7552262,120.444968 Z" transform="translate(.805 .895)"/><path fill="#FFDD3C" d="M48.3552262,79.9449738 C46.7822511,79.9474734 45.3377927,79.0769465 44.6052262,77.6849684 C36.7672262,62.8789684 39.5012262,44.6929684 51.3472262,32.8469684 C63.1932262,21.0009684 81.3792262,18.2669684 96.1852262,26.1049684 C98.2179888,27.2271857 98.9722928,29.7741468 97.8784707,31.8223286 C96.7846486,33.8705104 94.2484306,34.6601833 92.1852262,33.5949684 C80.6713221,27.5007967 66.5293367,29.6270911 57.3165407,38.8375908 C48.1037446,48.0480906 45.9739249,62.1895454 52.0652262,73.7049684 C52.5935802,74.6962568 52.7049124,75.8572888 52.3745647,76.9309187 C52.0442171,78.0045486 51.2994541,78.9021667 50.3052262,79.4249684 C49.7077614,79.7557316 49.0380549,79.93432 48.3552262,79.9449738 L48.3552262,79.9449738 Z" transform="translate(.805 .895)"/><path fill="#FFBE78" d="M79.2452262,138.584968 C51.4266232,138.488831 25.6807669,123.862416 11.3548995,100.01596 C-2.97096799,76.169505 -3.79376704,46.5704484 9.18522619,21.9649684 C9.8875975,20.6045522 11.2679715,19.7276172 12.7979137,19.6698714 C14.3278558,19.6121256 15.770406,20.3825129 16.5733273,21.6861137 C17.3762486,22.9897144 17.4151832,24.6246247 16.6752262,25.9649684 C2.12022619,53.4749684 7.20522619,87.2609684 29.2122262,109.267968 C51.2192262,131.275968 85.0052262,136.359968 112.515226,121.804968 C114.578431,120.739753 117.114649,121.529426 118.208471,123.577608 C119.302293,125.62579 118.547989,128.172751 116.515226,129.294968 C105.036928,135.388685 92.2407894,138.578278 79.2452262,138.584968 L79.2452262,138.584968 Z" transform="translate(.805 .895)"/></g></g></g></svg>