<svg xmlns="http://www.w3.org/2000/svg" role="img" viewBox="-2.50 -2.50 130.00 26.88"><title>Ping Identity/Shocard logo</title><g fill="none" fill-rule="evenodd"><path fill="#B8232F" d="M0 20.263h20.263V0H0z"/><path fill="#263746" d="M103.3927 6.05888l1.69707-.2839v11.56687h-1.69706V6.05888zm6.65704 1.3065v7.29402c0 1.25016.3149 1.6824 1.34168 1.6824.46185 0 .34001.00526.6343-.15434l.23129 1.13674c-.52558.29405-.71901.3793-1.45302.3793-.54507 0-.9638-.11229-1.36304-.31696-.73289-.38605-1.00542-1.11308-1.00542-2.2502V7.36536h-1.36305V6.02508h1.36305V1.73684h1.67794v4.28824h2.62113l-.50308 1.3403h-2.18178zm13.44379 9.63737c-.65191 0-1.17861-.55918-1.17861-1.3324 0-.77398.5267-1.3324 1.1786-1.3324.65229 0 1.17936.55842 1.17936 1.3324 0 .77322-.52707 1.3324-1.17936 1.3324zm0-2.98626c-.85847 0-1.55911.74243-1.55911 1.65386 0 .91067.70064 1.65235 1.5591 1.65235.85997 0 1.55911-.74168 1.55911-1.65236 0-.91142-.69914-1.65385-1.5591-1.65385zm-.27142 1.5119v-.53626h.29278c.16907 0 .35913.03605.35913.25611 0 .25199-.16832.28015-.36288.28015h-.28902zm.9803-.2516c0-.39432-.22942-.55017-.65303-.55017h-.65566v1.8743h.3284v-.80702h.19793l.45772.80702h.33702l-.47422-.82017c.28903-.02891.46184-.18401.46184-.50397zm-1.41215-9.2517l-3.58531 11.72422c-.71301 2.27387-1.55236 3.773-3.37575 4.25069l-.48247-1.20434c1.02079-.34662 1.55611-.8506 2.00184-2.08197-.16757-.89303-.26242-1.28133-.26242-1.28133-.12483-.72704-.69164-2.93256-1.04777-4.0678l-2.24513-7.08937 1.61646-.59222 2.13904 7.33985c.31377 1.06952.62792 2.81802.62792 2.81802h.04273s.39737-1.4537.65004-2.38503l2.05394-7.43073h1.86688zM72.29304 14.4551s-.18931.4773-.62942.81867c-.67177.52162-1.15424.72666-2.01195.72666-.96493 0-1.61571-.38605-2.09743-1.31813-.33626-.65831-.41949-1.6362-.41949-2.95434 0-1.5904.16682-2.40793.67066-3.27167.44048-.77247 1.13212-1.18143 1.95122-1.18143 1.23522 0 2.0127.38718 2.53641 1.18143v5.99881zm1.65657-12.71827h-1.63595v3.76663c0 .81679.02062 1.74887.02062 1.74887-.62792-.9088-1.65695-1.43117-2.82956-1.43117-.75575 0-1.34243.20391-2.01383.70413-1.42603 1.0669-2.15891 2.8398-2.15891 5.24811 0 3.61228 1.5516 5.7258 4.25483 5.7258 1.21685 0 2.01459-.38493 2.76846-1.31626.02062.58884.23092 1.1589.23092 1.1589h1.67795c-.23205-.66019-.31453-1.7053-.31453-3.65771V1.73684zM98.91444 6.048h2.69723l-.50233 1.34029h-2.25788v7.29403c0 1.25053.31415 1.68315 1.34168 1.68315.46185 0 .34001.00526.6343-.1551l.2313 1.13713c-.52559.29442-.71902.37966-1.4534.37966-.5447 0-.96343-.11266-1.36267-.31695-.73289-.38642-1.00617-1.11384-1.00617-2.25058V7.38828h-1.3623V6.04799h1.3623V1.7605h1.67794V6.048zm-4.76016 1.38573c.16756.40933.25191.86298.25191 1.3185v8.59039h-1.65732V9.68355c0-1.20509-.08397-1.49913-.3775-1.88631-.2298-.2948-.6714-.4773-1.15312-.4773-.8401 0-2.13829.7289-2.89329 1.59114v8.43153h-1.5936V8.61628c0-1.61405-.39736-2.38653-.39736-2.38653l1.5921-.47768s.379.83932.379 1.7729c1.08826-1.18143 2.17802-1.75 3.29065-1.75 1.1325 0 2.13941.65982 2.55853 1.65875zm-16.19275 3.20332c.08247-2.3411.92182-3.52177 2.41008-3.52177.79773 0 1.53061.38717 1.88674.99967.3149.54528.46185 1.2956.48247 2.5221h-4.77929zm2.49405-4.90825c-1.25883 0-2.28562.50096-3.12421 1.56823-.88021 1.13825-1.25696 2.36363-1.25696 4.27285 0 3.7501 1.73867 6.02134 4.63308 6.02134 1.34243 0 2.60089-.49946 3.52196-1.40826l-.62942-1.13787c-.73288.72816-1.5501 1.06802-2.55777 1.06802-1.0489 0-2.01308-.4082-2.59976-1.38535-.35688-.58922-.48097-1.40863-.48097-2.4759v-.27377h6.51909v-.2501c-.0405-2.70274-.2939-3.77114-1.19323-4.77232-.71414-.79388-1.69969-1.22687-2.83181-1.22687zM61.36842 17.34185h1.67794V1.753h-1.67794v15.58886zM59.60727 5.5181l1.1822 1.90111c-.61318.60369-1.2033.85002-1.98434.85002-.27472 0-.57145-.04374-.74038-.06606.4224.53489.63535 1.11685.63535 1.87727 0 1.96733-1.69066 3.39993-3.99223 3.39993-.12719 0-.21173 0-.42224-.02294-.7173.35872-1.11846.62677-1.11846.93917 0 .15658.16802.26896.46414.26896l1.52112.02233c1.64604.02202 2.51148.29007 3.27234 1.02907.63276.62571.92949 1.40845.92949 2.43783 0 .9615-.27502 1.69898-.86711 2.36933C57.53793 21.59845 55.91056 22 54.22173 22c-1.5401 0-3.1245-.26775-4.09528-1.22985-.59148-.58075-.88669-1.25308-.88669-2.034 0-.62631.14692-.94053.25302-1.16333h2.61862c-.10624.26866-.12794.42402-.12794.73673 0 .91775.71958 1.4086 2.02866 1.4086.71746 0 1.33034-.08779 1.77308-.37953.42209-.26805.6962-.69238.6962-1.16242 0-1.02786-.86483-1.34177-1.98526-1.3641l-1.20314-.02263c-1.26644-.02323-2.08938-.1335-2.59693-.3581-.50754-.20063-.82324-.7144-.82324-1.49745 0-.73748.21021-1.43214 1.98465-1.92299-1.56286-.42554-2.32251-1.47663-2.32251-3.1756 0-2.34823 1.79523-3.8686 4.56048-3.8686.61242 0 1.16125.0893 1.94321.28976.58997.15597.97078.24664 1.33004.24664.78105 0 1.5835-.3578 2.23857-.98503zm-17.9508.35887c.25423.47004.4019.96119.4019 1.43062.42195-.31377.7812-.58212 1.2461-.84987.56978-.3124 1.30955-.491 1.94216-.491 1.2039 0 2.25967.66975 2.59723 1.65478.14768.42448.21142.91609.21142 1.63185v8.36412h-2.78816V10.1702c0-1.29652-.21037-1.67635-.94983-1.67635-.56886 0-1.30772.40276-1.96219 1.02756v8.09606H39.5243V9.32002c0-.98396-.12689-1.92313-.3796-2.68355l2.51178-.7595zm-4.43466.0208v11.7197h-2.82869V6.36751l2.8287-.46974zm-10.2004-3.82273c2.49129 0 3.25185.26775 4.07646.76011 1.37086.80537 2.1091 2.23614 2.1091 4.02624 0 2.05663-.92797 3.71172-2.53226 4.51648-.67587.33548-1.31.51469-2.93524.51469h-1.62524v5.72491h-2.95634V2.07504zM54.07405 8.1573c-1.07641 0-1.68914.62723-1.68914 1.70004 0 1.16318.67587 1.632 1.66834 1.632 1.11967 0 1.73195-.5809 1.73195-1.632 0-1.07281-.63277-1.70004-1.71115-1.70004zM27.99188 4.60126h-1.87765V9.3428h1.54116c1.2033 0 1.5627-.15673 1.96264-.80522.25484-.42372.3591-.87174.3591-1.61044 0-1.4534-.73855-2.3259-1.98525-2.3259zm7.8574-3.44337c.95029 0 1.71115.8277 1.71115 1.85586 0 1.02847-.78226 1.85677-1.75365 1.85677-.94937 0-1.73103-.8283-1.73103-1.85677 0-1.02816.8026-1.85586 1.77353-1.85586z"/></g></svg>