<svg xmlns="http://www.w3.org/2000/svg" role="img" viewBox="-3.61 -4.11 369.72 108.97"><title>ProvenDB logo</title><style>svg {enable-background:new 0 0 363 100}</style><style>.st0{fill:#303740}.st1{fill:#35b3d4}</style><path d="M3.6 4h31.2c16 0 26.9 9 26.9 23.3 0 16.4-12.4 23.9-27.3 23.9H20v28.1H3.6V4zM20 38.2h12.4c7.5 0 12.9-2.9 12.9-10.6 0-7.8-5.6-10.7-12.5-10.7H20v21.3zm46.5-1.1c0-5.8 0-10.9-.1-15.7h15.8c.2 1.3.4 7.1.4 10.2 2.6-6.6 8.7-11.5 18.6-11.5v15.3C89.5 35 82.6 38.1 82.6 54v25.3H66.5V37.1zm201.3 19.1c.4-1.9.6-3.8.6-5.8 0-16.5-13.4-29.8-30-29.8s-30 13.4-30 29.8 13.4 29.8 30 29.8c12 0 22.3-6.9 27.1-17h-19.3c-2.3 1.4-5 2.2-7.8 2.2-6.3 0-11.7-3.8-13.9-9.2h43.3zM224.3 45c2.2-5.6 7.7-9.6 14.1-9.6 6.4 0 11.9 4 14.1 9.6h-28.2zm-76.6 9.5l-.1-.2c-1.8 6.2-7.6 10.8-14.5 10.8-8.3 0-15.1-6.7-15.1-15s6.8-15 15.1-15c7.9 0 14.3 6 15 13.6l12.9-9.5c-4.4-11.1-15.2-18.9-27.9-18.9-16.6 0-30 13.4-30 29.8s13.4 29.8 30 29.8c9.9 0 18.7-4.8 24.1-12.1l-9.5-13.3zm125.5-17.8c0-4.9 0-10.3-.1-14.6h15.5c.3 1.5.5 5.5.6 7.4 2-3.6 6.7-8.7 16.8-8.7 11.6 0 19.2 7.9 19.2 22.4V80h-16V45c0-6.5-2.2-11.2-9.2-11.2-6.8 0-10.7 3.8-10.7 14V80h-16V36.7z" class="st0"/><path d="M193.8 20.5l-16.4 42.3L163.2 42l-12.9 9.5L170.7 80h16.9l23.1-59.5z" class="st1"/><path d="M345.9 22.4h7.5c3.6 0 5.2 1.8 5.2 3.9 0 1.6-.8 2.7-2 3.2 1.1.4 2.5 1.5 2.5 3.4 0 2.5-1.8 4.5-5.6 4.5H346v-15zm6.7 5.8c1.2 0 1.7-.6 1.7-1.4 0-.9-.7-1.4-1.7-1.4h-2.4v2.8h2.4zm-2.4 6.2h2.2c1.4 0 2.1-.6 2.1-1.7 0-.9-.6-1.6-2-1.6h-2.3v3.3zm-20.2-12h6.4c4.8 0 7.5 3 7.5 7.3s-2.7 7.7-7.6 7.7H330v-15zm4.4 11.8h1.7c2.4 0 3.4-1.7 3.4-4.5 0-2.5-.9-4.1-3.3-4.1h-1.7v8.6z" class="st0"/><path d="M141 16.9c.5-4.7 4.4-8.3 9.2-8.3h60.5c5.1 0 9.2 4.1 9.2 9.2v3.5c1.9-1.2 3.9-2.2 6-3v-1.5C226 9.2 219.8 3 212.2 3h-63.5c-7.4 0-13.4 5.8-13.7 13.1 2.1.1 4.1.3 6 .8zm79 62.2v4.1c0 5.1-4.1 9.2-9.2 9.2h-60.5c-5 0-9.1-4-9.2-9-1.9.4-4 .7-6 .8 0 7.6 6.2 13.7 13.8 13.7h63.5c7.6 0 13.8-6.2 13.8-13.8v-2.2c-2.3-.6-4.3-1.6-6.2-2.8z" class="st1"/></svg>