<svg xmlns="http://www.w3.org/2000/svg" role="img" viewBox="14.00 212.50 624.00 209.50"><title>R3 Corda logo</title><style>svg {enable-background:new 0 0 652 652}</style><path fill="#e0081c" d="M586.5 397.4c-23.6 22.5-80 17.7-80-26.6 0-46.7 49-50.3 79.7-47.5v-.2c-1.1-24.4-41.8-18.4-58-5.4-5.1-7.3-13.7-20.3-17.2-26.2 18.7-14.4 64.3-24.9 87.6-11.7 23.4 13.3 27.9 36.5 27.9 48.3V419.5v-12.2h-39l-1-9.9zm-153.3-1.1c-41.5 32.9-84 1.7-89.3-40.7-6.6-52.7 35.2-94.6 88.9-76.3v-54.8h41v182.9h-39.5l-1.1-11.1zm-.4-44.4v-36.6c-17.8-8.1-45.2-8.4-47.7 28.4-2.5 37.6 44.5 41.4 47.7 8.2zm-157.3-60.7c12-14.7 29.1-18.9 51.2-12.7-3.3 18.3-5.6 30.7-6.9 37.2-31.9-5.6-43.6 4-43.8 31.9V407.4h-41V278h39.5l1 13.2zm-143.2-3.1c-11.2 8.2-19.7 19.9-24.1 33.5-4.2-3.1-9.4-5-15.1-5-14.1 0-25.6 11.6-25.6 25.9 0 14.3 11.5 25.9 25.6 25.9 5.6 0 10.8-1.8 15.1-5 4.4 13.6 12.9 25.3 24.1 33.5-11 8.1-24.5 12.9-39.2 12.9-36.8 0-66.6-30.1-66.6-67.3 0-37.2 29.8-67.3 66.6-67.3 14.7.1 28.2 4.8 39.2 12.9zM586 350.9c-12.2.1-39.8-4.3-39.2 16.1.6 20.4 39.2 16.8 39.2-6.7v-9.4zm-414.5 17.6c-14.1 0-25.6-11.6-25.6-25.9 0-14.3 11.5-25.9 25.6-25.9s25.6 11.6 25.6 25.9c0 14.3-11.4 25.9-25.6 25.9z"/></svg>