<svg xmlns="http://www.w3.org/2000/svg" role="img" viewBox="-1.74 -1.74 90.48 74.23"><title>RackN logo</title><style>svg {enable-background:new 0 0 87.09 70.77}</style><style>.st1{fill:#0070af}</style><path fill="#fff" d="M75.14 23.65l-.41-.14-.04-.43c-.75-8.6-8.11-15.34-16.75-15.34-1.6 0-3.19.23-4.71.67l-.37.11-.28-.27C48.33 4 42.67 1.67 36.66 1.67c-9.73 0-18.37 6.22-21.51 15.47l-.13.37-.39.06C7.47 18.79 2.26 24.95 2.26 32.23c0 7.78 6.7 14.86 14.07 14.86h55.91c2.38 0 5.8-1.59 7.78-3.61 2.21-2.26 3.43-5.24 3.43-8.4 0-5.22-3.34-9.81-8.31-11.43z"/><path d="M16.03 48.75C7.99 48.75.6 40.83.6 32.23c0-7.89 5.51-14.61 13.17-16.19C17.29 6.42 26.42 0 36.66 0c6.25 0 12.15 2.36 16.68 6.65 1.5-.38 3.04-.58 4.6-.58 4.65 0 9.09 1.74 12.51 4.89 3.24 2.99 5.29 6.98 5.83 11.32 5.3 2.01 8.83 7.07 8.83 12.79 0 3.6-1.38 6.99-3.9 9.57-2.23 2.28-6.9 4.09-8.64 4.11-1.74.02-48.5 0-56.54 0zm56.21-2.01c2.23 0 5.59-1.51 7.53-3.51 2.15-2.19 3.33-5.09 3.33-8.16 0-5.07-3.24-9.52-8.06-11.1l-.63-.21-.06-.66c-.73-8.42-7.94-15.02-16.4-15.02-1.57 0-3.12.22-4.61.65l-.57.16-.42-.42C48.15 4.3 42.58 2 36.67 2c-9.58 0-18.09 6.12-21.18 15.23l-.2.57-.59.1c-7 1.18-12.08 7.2-12.08 14.31 0 7.6 6.56 14.52 13.72 14.51 7.15.01 53.67.02 55.9.02z"/><path d="M8.05 28.75c-.42 1.08-.65 2.25-.65 3.48 0 1.54.36 2.99 1 4.29l11.65-7.76h-12z" class="st1"/><path d="M23.05 13.33c-1.99 2.46-3.35 5.46-3.81 8.76l3.81 2.54v-11.3z" class="st1"/><path d="M9.77 25.87h9.97l-4.71-3.14c-2.08.46-3.91 1.59-5.26 3.14z" class="st1"/><path d="M46.33 40.34V28.75H28.94z" class="st1"/><path d="M10.04 38.88c1.74 1.85 4.19 3.02 6.92 3.07h6.1V30.2l-13.02 8.68z" class="st1"/><path d="M46.33 17.22c-1.21 1.76-3.06 3.88-5.89 6.12-1.3 1.03-2.63 1.86-3.95 2.53h9.85v-8.65z" class="st1"/><path d="M69.6 30.2L51.98 41.95H69.6z" class="st1"/><path d="M47.21 10.36C44.27 8.13 40.62 6.8 36.66 6.8c-3.96 0-7.61 1.32-10.55 3.56h21.1z" class="st1"/><path d="M69.6 23.92c-.33-6.16-5.42-11.04-11.66-11.04-1.62 0-3.17.34-4.57.93L69.6 24.63v-.71z" class="st1"/><path d="M66.29 25.87L49.2 14.49v11.38z" class="st1"/><path d="M49.2 28.75v11.59l17.39-11.59z" class="st1"/><path d="M78.3 35.07c0-3.44-2.53-6.29-5.83-6.8v13.59c3.31-.5 5.83-3.35 5.83-6.79z" class="st1"/><path d="M25.93 25.84c2.5-.17 7.96-.98 12.72-4.75 4.19-3.32 5.94-6.25 6.64-7.85H25.93v12.6z"/><path d="M25.93 41.95h17.62L25.93 30.2z"/><path d="M17.5 61.36c0 .44-.08.85-.24 1.23-.16.38-.39.71-.68 1-.29.28-.63.51-1.01.68-.38.17-.79.25-1.23.25h-1.77l4.93 5.88v.36h-3.11l-5.25-6.25H3.16c-.1 0-.19 0-.28-.01-.09-.01-.17-.02-.25-.04v6.3H0V53.3h14.34c.44 0 .85.08 1.23.25.38.17.72.4 1.01.68.29.28.52.62.68 1 .16.38.24.79.24 1.23v4.9zm-3.16.54c.15 0 .27-.05.38-.16.1-.1.16-.23.16-.38v-4.91c0-.15-.05-.27-.16-.38-.11-.11-.23-.16-.38-.16H3.16c-.14 0-.27.05-.38.16-.11.11-.16.23-.16.38v4.91c0 .15.05.27.16.38.1.11.23.16.38.16h11.18zm17.02-5.23c.44 0 .85.08 1.23.24.38.16.72.39 1.01.68.29.29.52.63.68 1.01.16.38.24.79.24 1.23v10.94H23.34c-.44 0-.85-.08-1.23-.24-.38-.16-.72-.39-1.01-.68-.29-.29-.52-.63-.68-1.01-.16-.38-.24-.79-.24-1.23v-5.2H31.9v-2.58c0-.15-.05-.27-.16-.38-.11-.1-.23-.16-.38-.16H20.18v-2.62h11.18zm.53 8.36H22.8v2.58c0 .15.05.27.16.38.11.11.23.16.38.16h8.56v-3.12zm19.3 3.12v2.63H40.01c-.44 0-.85-.08-1.23-.24-.38-.16-.72-.39-1.01-.68-.29-.29-.52-.63-.68-1.01-.16-.38-.24-.79-.24-1.23v-7.78c0-.44.08-.85.24-1.23.16-.38.39-.72.68-1.01.29-.29.63-.52 1.01-.68.38-.16.79-.24 1.23-.24h11.13v2.62H40.01c-.15 0-.27.05-.38.16-.11.11-.16.23-.16.38v7.78c0 .15.05.27.16.38.11.11.23.16.38.16h11.18zm16.63-11.48v.36l-6.05 6.68 6.05 6.68v.36h-3.11l-5.28-5.74h-3.16v5.74h-2.62V52.06h2.62v10.35h3.16l5.28-5.74h3.11zm16.65-3.4h2.62v17.5h-3.11l-11.77-14v14h-2.62v-17.5h3.11l11.76 14v-14z"/></svg>