<svg xmlns="http://www.w3.org/2000/svg" role="img" viewBox="-12.84 -12.34 641.68 174.68"><title>Rethink Ledgers logo</title><g fill-opacity="1" stroke="none" transform="matrix(1.33333 0 0 -1.33333 0 150.667) scale(.1)"><path fill="#a3d1eb" fill-rule="evenodd" d="M848.98 381.02L475.512 4.48828V754.488H848.98V381.02"/><path fill="#26336b" fill-rule="evenodd" d="M0 753.012L373.52 1130V380H0v373.012"/><path fill="#424243" fill-rule="nonzero" d="M981.559 433.012V782.07h149.061c66.33 0 99.54-27.929 99.54-83.75 0-45.308-32.46-78.91-97.35-100.781l119.85-164.527h-59.54l-111.09 157.027v29.531c66.64 10.508 100 36.129 100 76.879 0 32.18-18.55 48.281-55.62 48.281h-99.69V433.012zM1500.66 548.32h-172.65c0-52.5 33.04-78.75 99.22-78.75 22.57 0 45.19 2.418 67.81 7.34v-36.558c-22.62-4.922-50.12-7.34-82.5-7.34-86.49 0-129.69 43.668-129.69 131.09 0 83.519 40.94 125.308 122.81 125.308 78.44 0 110.08-47.031 95-141.09zm-172.65 37.5h131.4c2.27 44.879-18.08 67.34-61.09 67.34-43.98 0-67.42-22.461-70.31-67.34z"/><path fill="#424243" fill-rule="nonzero" d="M1571.41 730.82h28.43l9.69-41.41h59.53v-36.711h-52.5V505.512c0-23.992 10.35-35.942 31.1-35.942h21.4v-36.558h-33.12c-43.05 0-64.53 23.008-64.53 69.058z"/><path fill="#424243" fill-rule="nonzero" d="M1730.59 433.012V782.07h45.15V661.602c26.76 18.519 55.82 27.808 87.19 27.808 59.06 0 88.59-31.832 88.59-95.461V433.012h-45.15V594.57c0 38.129-18.99 57.192-56.88 57.192-25.86 0-50.43-10.864-73.75-32.5v-186.25z"/><path fill="#424243" fill-rule="nonzero" d="M2069.69 745.512h-45.1602v36.5586h45.1602zm0-312.5h-45.1602V689.41h45.1602z"/><path fill="#424243" fill-rule="nonzero" d="M2142.7 433.012V689.41h30.62l7.97-32.808c31.13 21.878 62.38 32.808 93.75 32.808 59.06 0 88.59-31.832 88.59-95.461V433.012h-45.15V594.57c0 38.129-18.99 57.192-56.88 57.192-25.86 0-50.43-10.864-73.75-32.5v-186.25z"/><path fill="#424243" fill-rule="nonzero" d="M2436.64 433.012V782.07h45.16V669.41c26.56 13.32 56.13 20 88.75 20 62.18 0 93.28-24.68 93.28-74.058 0-35.864-24.45-60.582-73.28-74.223l82.03-108.117h-57.19l-81.56 108.59v20.308c56.44 5 84.69 22.891 84.69 53.75 0 24.692-17.9 37.039-53.6 37.039-28.24 0-55.94-7.66-83.12-22.969V433.012z"/><path fill="#424243" fill-rule="nonzero" d="M2888.05 782.07v-312.5h182.65v-36.558h-227.81V782.07z"/><path fill="#424243" fill-rule="nonzero" d="M3337.58 548.32h-172.66c0-52.5 33.05-78.75 99.22-78.75 22.58 0 45.2 2.418 67.81 7.34v-36.558c-22.61-4.922-50.11-7.34-82.5-7.34-86.48 0-129.68 43.668-129.68 131.09 0 83.519 40.93 125.308 122.81 125.308 78.44 0 110.08-47.031 95-141.09zm-172.66 37.5h131.41c2.26 44.879-18.09 67.34-61.1 67.34-43.98 0-67.42-22.461-70.31-67.34z"/><path fill="#424243" fill-rule="nonzero" d="M3580.51 637.07c-18.24 8.828-39.06 13.282-62.5 13.282-51.56 0-77.35-27.461-77.35-82.34 0-64.922 25.79-97.352 77.35-97.352 23.44 0 44.26 3.168 62.5 9.539zm45.15-188.75c-31.05-10.23-69.37-15.308-115-15.308-76.36 0-114.53 44.41-114.53 133.277 0 82.07 40.51 123.121 121.57 123.121 22.18 0 43.12-4.058 62.81-12.18v104.84h45.15z"/><path fill="#424243" fill-rule="nonzero" d="M3870.74 645.98c-15.43 3.821-34.53 5.782-57.34 5.782-54.49 0-81.72-29.532-81.72-88.602 0-60.738 25.78-91.09 77.34-91.09 23.44 0 43.99 4.379 61.72 13.129zm45.16-212.968c0-61.883-39.3-92.813-117.81-92.813-31.57 0-59.61 4.063-84.07 12.18v36.723c24.89-8.122 53.05-12.192 84.53-12.192 48.13 0 72.19 18.711 72.19 56.102v12.187c-19.18-8.129-39.84-12.187-62.03-12.187-81.05 0-121.56 43.199-121.56 129.687 0 84.449 42.73 126.711 128.28 126.711 34.57 0 68.05-3.551 100.47-10.621z"/><path fill="#424243" fill-rule="nonzero" d="M4195 548.32h-172.66c0-52.5 33.05-78.75 99.22-78.75 22.58 0 45.2 2.418 67.82 7.34v-36.558c-22.62-4.922-50.12-7.34-82.5-7.34-86.49 0-129.69 43.668-129.69 131.09 0 83.519 40.93 125.308 122.81 125.308 78.44 0 110.08-47.031 95-141.09zm-172.66 37.5h131.41c2.27 44.879-18.09 67.34-61.09 67.34-43.99 0-67.43-22.461-70.32-67.34z"/><path fill="#424243" fill-rule="nonzero" d="M4265.74 433.012V689.41h30.63l7.97-32.808c22.5 21.878 49.53 32.808 81.09 32.808v-37.648c-30.63 0-55.47-10.864-74.53-32.5v-186.25z"/><path fill="#424243" fill-rule="nonzero" d="M4430.78 445.199v39.063c28.52-9.813 58.17-14.692 88.91-14.692 40.82 0 61.25 12.231 61.25 36.719 0 22.813-13.4 34.223-40.16 34.223h-41.56c-53.75 0-80.63 25.187-80.63 75.617 0 48.832 35.55 73.281 106.72 73.281 30.63 0 60.16-4.058 88.6-12.18v-39.07c-28.44 9.692-57.97 14.539-88.6 14.539-42.61 0-63.9-12.187-63.9-36.57 0-22.809 12.57-34.219 37.81-34.219h41.56c56.88 0 85.31-25.23 85.31-75.621 0-48.867-35.47-73.277-106.4-73.277-30.74 0-60.39 4.058-88.91 12.187z"/></g></svg>