<svg xmlns="http://www.w3.org/2000/svg" role="img" viewBox="-2.37 -2.37 123.37 40.12"><title>Ridge logo</title><path fill-rule="evenodd" d="M41.653 11.8028l-5.95-5.90189-5.951 5.90189-5.95-5.90189L17.851 0l-5.95 5.90091L5.95 11.8028 0 17.7037l5.95 5.9009 5.951 5.9019 5.95-5.9019 5.951 5.9019 5.95 5.902 5.951-5.902 5.95-5.9019 5.95-5.9009-5.95-5.9009z" clip-rule="evenodd"/><mask id="a" style="mask-type:alpha" width="12" height="13" x="59" y="11" maskUnits="userSpaceOnUse"><path fill="#fff" fill-rule="evenodd" d="M59.2812 11.7986v11.8107h2.732v-3.8807h1.978l3.134 3.8807h3.029v-.2023l-3.361-3.9154c2.346-.8083 2.818-2.1759 2.836-3.7111 0-2.0758-1.576-3.9819-4.535-3.9819h-5.813zm2.7321 2.2612h3.081c1.278 0 1.821.9778 1.839 1.7871 0 .7428-.544 1.6542-1.804 1.6542h-3.116v-3.4413z" clip-rule="evenodd"/></mask><g mask="url(#a)"><path fill-rule="evenodd" d="M56.6953 26.176h16.05V9.23096h-16.05V26.176z" clip-rule="evenodd"/></g><mask id="b" style="mask-type:alpha" width="12" height="13" x="94" y="11" maskUnits="userSpaceOnUse"><path fill="#fff" fill-rule="evenodd" d="M94.1562 17.7293c0 3.0268 1.6881 6.1359 6.1548 6.1359 2.135 0 3.724-.7309 4.717-2.162v-5.0708h-4.998v2.161h2.763v1.8625c-.893.6823-1.655.8152-2.466.8152-2.7287 0-3.6397-2.0797-3.6397-3.7418 0-2.5439 1.44-3.8094 3.6397-3.8094.927 0 2.004.3491 2.715 1.0325l1.605-1.6126c-1.324-1.3657-2.747-1.7971-4.32-1.7971-4.2517 0-6.1708 2.9098-6.1708 6.1866z" clip-rule="evenodd"/></mask><g mask="url(#b)"><path fill-rule="evenodd" d="M91.5703 26.4339H107.62V8.9751H91.5703v17.4588z" clip-rule="evenodd"/></g><path fill-rule="evenodd" d="M73.4609 23.6093h2.589V11.7986h-2.589v11.8107zm35.8751-11.8105v11.8108h9.319v-2.4308h-6.643v-2.3782h6.032v-2.3118h-6.032v-2.277h6.4v-2.413h-9.076z" clip-rule="evenodd"/><mask id="c" style="mask-type:alpha" width="12" height="13" x="80" y="11" maskUnits="userSpaceOnUse"><path fill="#fff" fill-rule="evenodd" d="M80.7422 11.7986v11.8107h4.916c4.194 0 5.957-2.9018 5.957-5.9891 0-3.0884-1.831-5.8216-5.957-5.8216h-4.916zm2.637 2.3792h2.279c2.499 0 3.32 1.7048 3.32 3.4086 0 1.7029-.719 3.5922-3.32 3.5922h-2.279v-7.0008z" clip-rule="evenodd"/></mask><g mask="url(#c)"><path fill-rule="evenodd" d="M78.1562 26.176h16.0501V9.23096H78.1562V26.176z" clip-rule="evenodd"/></g></svg>