<svg xmlns="http://www.w3.org/2000/svg" role="img" xmlns:xlink="http://www.w3.org/1999/xlink" viewBox="-9.25 -9.25 481.00 147.50"><title>Scilla logo</title><defs><linearGradient id="a" x1="102.17" x2="641.69" y1="63.99" y2="52.55" gradientTransform="matrix(1 0 0 -1 0 130.89)" gradientUnits="userSpaceOnUse"><stop offset="0" stop-color="#05707e"/><stop offset=".52" stop-color="#2b9297"/><stop offset="1" stop-color="#4dbbba"/></linearGradient><linearGradient id="b" x1="102.18" x2="641.71" y1="64.78" y2="53.33" xlink:href="#a"/><linearGradient id="c" x1="102.19" x2="641.72" y1="65.29" y2="53.85" xlink:href="#a"/><linearGradient id="d" x1="102.21" x2="641.74" y1="66.05" y2="54.6" xlink:href="#a"/><linearGradient id="e" x1="102.23" x2="641.75" y1="66.79" y2="55.35" xlink:href="#a"/><linearGradient id="f" x1="102.25" x2="641.77" y1="67.83" y2="56.39" xlink:href="#a"/><linearGradient id="g" x1="102.31" x2="641.84" y1="70.8" y2="59.35" xlink:href="#a"/><linearGradient id="h" x1="73.08" x2="12.14" y1=".68" y2="103.35" xlink:href="#a"/><linearGradient id="i" x1="3.65" x2="90.51" y1="124.93" y2="93.79" xlink:href="#a"/><linearGradient id="j" x1="73.03" x2="92.32" y1="82.64" y2="82.64" xlink:href="#a"/><linearGradient id="k" x1="82.44" x2="82.89" y1="71.92" y2="1.6" xlink:href="#a"/></defs><g data-name="Layer 2"><g data-name="Layer 1"><g data-name="Layer 2"><g data-name="Layer 1-2"><path fill="url(#a)" d="M180.4 90.42h29.09V99h-44.13l29.76-52h-24.89v-8.6h39.93z"/><path fill="url(#b)" d="M229.29 38.4V99h-9.14V38.4z"/><path fill="url(#c)" d="M253 38.4v52h17.83V99h-27V38.4z"/><path fill="url(#d)" d="M288.67 38.4v52h17.82V99h-27V38.4z"/><path fill="url(#e)" d="M324.29 38.4V99h-9.14V38.4z"/><path fill="url(#f)" d="M400.55 100.12h-11.5l-4.76-4.87a30.6 30.6 0 0 1-16.88 4.87A31.62 31.62 0 0 1 346 92a29.28 29.28 0 0 1-10.17-23 30.21 30.21 0 0 1 9.62-22.85A31.66 31.66 0 0 1 388.21 45q11 9.34 11 24.38 0 11.78-8.67 20.92zM375.39 75l8.79 8.76a20.77 20.77 0 0 0 5.81-15 22.44 22.44 0 0 0-6.48-16.29 21.63 21.63 0 0 0-16.09-6.6 21.17 21.17 0 0 0-16 6.6q-6.32 6.55-6.32 16.6 0 9.83 6.52 16.06a21.89 21.89 0 0 0 15.5 6.44 21.37 21.37 0 0 0 10.72-2.71l-14.25-13.79z"/><path fill="url(#g)" d="M446.29 84.3h-25.92L413.62 99h-9.85l30-64.42L462.7 99h-10zm-3.73-8.6l-9-20.61-9.42 20.61z"/><path fill="url(#h)" d="M73.03 61.9l-50.1 24.65 50.1 23.76v19.16L.04 94.86 0 76l50.79-24.97L.04 26.97V7.81l72.99 34.61V61.9z"/><path fill="url(#i)" d="M.04 7.81L19.33 0l72.99 34.6-19.29 7.82L.04 7.81z"/><path fill="url(#j)" d="M73.03 61.9l19.29-7.82V34.6l-19.29 7.82V61.9z"/><path fill="url(#k)" d="M73.03 110.31v-38.3l19.29-8.87v58.51l-19.29 7.82v-19.16z"/></g></g></g></g></svg>