<svg xmlns="http://www.w3.org/2000/svg" role="img" viewBox="92.46 108.46 678.08 152.08"><title>SettleMint logo</title><clipPath id="a"><path d="M212.93 215.39v-60.96l-52.79-30.48-52.8 30.48v60.96l52.8 30.48z"/></clipPath><path d="M294.6 179.5c-2.91-.93-5.92-1.71-8.82-2.46-1.55-.4-3.09-.79-4.63-1.22l-1.44-.38a40 40 0 0 1-4.91-1.53 6.37 6.37 0 0 1-4.39-6.33 6.91 6.91 0 0 1 4.55-6.74 14.39 14.39 0 0 1 7.49-.91c2.37.22 8.05 1.39 9.59 7.47.14.55.42 1.69.42 1.69l1.82-.45c4.4-1.17 9-2.39 13.45-3.53.54-.14 1.62-.46 1.62-.46s-.23-1.13-.37-1.73a23 23 0 0 0-13.88-16.8 34.93 34.93 0 0 0-27.31-.44 22.9 22.9 0 0 0-13.28 12.39 26 26 0 0 0-.12 19.53c2.6 6.29 7.42 10.63 14.32 12.9 3.3 1.08 6.73 1.92 10 2.73 1.87.45 3.8.93 5.77 1.46a26.84 26.84 0 0 1 5.35 1.86 6.59 6.59 0 0 1 2.91 8.78c-.91 1.95-2.64 3.23-5.28 3.92a21.52 21.52 0 0 1-11.8-.24c-3.7-1.12-6.05-3.1-7.2-6.07-.18-.46-.32-.95-.47-1.46-.07-.26-.15-.51-.22-.77l-.27-.88-16.77 4.28.21.91c.07.31.13.59.19.87.13.62.25 1.19.41 1.75 2 7.27 6.81 12.59 14.24 15.81a38.59 38.59 0 0 0 15.42 3.24 41.69 41.69 0 0 0 12.49-2c10.21-3.19 16-9.92 17.26-20a22.55 22.55 0 0 0-4.32-17.06 24 24 0 0 0-12.03-8.13zm155.4-9.38h-10.19v-21.77H423v21.76h-20.9v-21.76h-16.86v21.84h-10.1v14.47h10.12v40.45h16.84v-40.45H423v40.45h16.83v-40.47h10.15zm266.18 21.75a36.46 36.46 0 0 0-.57-6.52c-1.37-7.3-5.28-12.33-11.64-14.93A27 27 0 0 0 689.1 169a18.38 18.38 0 0 0-10 4.68l-.34-3.42h-16.05l-.12 55h17.09v-29.38a29.62 29.62 0 0 1 .13-3.09c.35-3.29 1.6-5.43 4-6.75a11.59 11.59 0 0 1 7.56-1.62c4.35.64 6.86 2.87 7.46 6.61a28.93 28.93 0 0 1 .35 4.67v29.56h17.09s-.06-27.54-.09-33.39zm31.7-21.76v-21.76h-16.93l.02 21.83h-10.09l-.03 14.48h10.12v40.44h16.99v-40.43h9.9v-14.56zm-291.82-21.76h17.01v76.73h-17.01zm179.37 21.88h16.99v54.87h-16.99zm8.57-26.72a9.82 9.82 0 0 0-7.12 16.69 9.92 9.92 0 0 0 7.06 2.92 9.86 9.86 0 0 0 6.87-16.77 9.55 9.55 0 0 0-6.81-2.84zm-37.56 4.84l-22.15 54.74-22.05-54.74h-18.12v76.73h16.99v-38.29l14.95 38.38h16.35l15.21-38.85v38.76h17.49v-76.73zm-252.38 59.52a10.28 10.28 0 0 1-1.66 1.64c-4.21 3.16-11.87 3-16.06-.42a8.5 8.5 0 0 1-3-5.25h39.05v-1.79c.07-4.28.14-8.72-.94-13.05-2-7.88-6.26-13.65-12.78-17.17-5.71-3.08-12.24-4-19.41-2.73-8.76 1.55-15.15 6.28-19 14.06-3.46 7-4.2 14.7-2.2 23a25.44 25.44 0 0 0 13.05 17.19 28 28 0 0 0 13.57 3.22c.82 0 1.65 0 2.5-.08a27.49 27.49 0 0 0 18.16-7.81 21.55 21.55 0 0 0 3.89-5.27zm-11.88-24.71c4-.61 7.06 0 9.52 2a8.91 8.91 0 0 1 3.18 6.25h-21.16a10 10 0 0 1 8.46-8.25zM518 207.87a9.89 9.89 0 0 1-1.66 1.64c-4.21 3.16-11.87 3-16.06-.42a8.54 8.54 0 0 1-3-5.25H536.34v-1.79c.06-4.28.13-8.72-.95-13.05-2-7.88-6.26-13.65-12.77-17.17a29.25 29.25 0 0 0-19.42-2.73c-8.75 1.55-15.15 6.28-19 14.06-3.47 7-4.21 14.7-2.21 23A25.45 25.45 0 0 0 495 223.32a27.93 27.93 0 0 0 13.56 3.22c.82 0 1.65 0 2.5-.08a27.47 27.47 0 0 0 18.16-7.81 21.55 21.55 0 0 0 3.89-5.27zm-11.88-24.71c4-.61 7.07 0 9.52 2a8.91 8.91 0 0 1 3.18 6.25h-21.17a10 10 0 0 1 8.46-8.25z" fill="#0f1041"/><g clip-path="url(#a)"><g fill="#a3e1c1"><path d="M107.34 123.95h105.59v121.92H107.34z"/><path d="M218.05 218.48a64.35 64.35 0 0 1-118.43-10.59h5.72v-49H104a64.34 64.34 0 0 1 118.42 10.58h-7.5v49.06z"/><path d="M218 218.43a64.26 64.26 0 0 1-118.29-10.57h5.63v-49h-1.25a64.25 64.25 0 0 1 118.25 10.56h-7.41v49z"/></g><g fill="#a2e1c1"><path d="M217.88 218.37a64.15 64.15 0 0 1-118.07-10.55h5.53v-48.9h-1.16a64.15 64.15 0 0 1 118.07 10.55h-7.32v48.9z"/><path d="M217.79 218.32A64.06 64.06 0 0 1 99.9 207.79h5.44V159h-1.08a64.06 64.06 0 0 1 117.9 10.54h-7.23v48.83z"/><path d="M217.71 218.27A64 64 0 0 1 100 207.75h5.35V159h-1a64 64 0 0 1 117.72 10.52h-7.14v48.76z"/></g><path fill="#a1e1c1" d="M217.62 218.22a63.87 63.87 0 0 1-117.54-10.5h5.26V159h-.91A63.86 63.86 0 0 1 222 169.54h-7v48.68z"/><path fill="#a1e0c1" d="M217.54 218.17a63.77 63.77 0 0 1-117.37-10.49h5.17v-48.61h-.82a63.77 63.77 0 0 1 117.36 10.49h-6.95v48.61z"/><path fill="#a0e0c1" d="M217.45 218.12a63.67 63.67 0 0 1-117.18-10.47h5.07v-48.54h-.74a63.68 63.68 0 0 1 117.19 10.47h-6.86v48.54z"/><path fill="#a0e0c1" d="M217.37 218.07a63.58 63.58 0 0 1-117-10.46h5v-48.46h-.65a63.58 63.58 0 0 1 117 10.45h-6.77v48.47z"/><path fill="#9fe0c1" d="M217.28 218a63.48 63.48 0 0 1-116.83-10.44h4.89v-48.37h-.56a63.48 63.48 0 0 1 116.83 10.44h-6.68V218z"/><path fill="#9ee0c1" d="M217.2 218a63.39 63.39 0 0 1-116.66-10.43h4.8v-48.35h-.48a63.38 63.38 0 0 1 116.65 10.43h-6.58V218z"/><path fill="#9ee0c1" d="M217.11 217.92a63.29 63.29 0 0 1-116.48-10.41h4.71v-48.25H105a63.28 63.28 0 0 1 116.47 10.41h-6.49v48.25z"/><path fill="#9de0c1" d="M217 217.87a63.19 63.19 0 0 1-116.3-10.4h4.61V159.3H105a63.2 63.2 0 0 1 116.3 10.39h-6.4v48.18z"/><path fill="#9ddfc1" d="M216.94 217.82a63.09 63.09 0 0 1-116.12-10.38h4.52v-48.1h-.22a63.09 63.09 0 0 1 116.12 10.38h-6.31v48.1z"/><path fill="#9cdfc1" d="M216.85 217.77a63 63 0 0 1-115.94-10.37h4.43v-48h-.14a63 63 0 0 1 116 10.36h-6.22v48z"/><path fill="#9bdfc1" d="M216.77 217.71A62.9 62.9 0 0 1 101 207.37h4.34v-48a62.9 62.9 0 0 1 115.76 10.34h-6.12v48z"/><path fill="#9bdfc1" d="M216.68 217.66a62.8 62.8 0 1 1 4.32-47.87h-6v47.87z"/><path fill="#9adfc1" d="M216.6 217.61a62.72 62.72 0 1 1 4.27-47.8h-5.94v47.8z"/><path fill="#99dfc1" d="M216.51 217.56a62.6 62.6 0 1 1 4.27-47.73h-5.85v47.73z"/><path fill="#98dec1" d="M216.43 217.51a62.51 62.51 0 1 1 4.26-47.66h-5.76v47.66z"/><path fill="#98dec1" d="M216.34 217.46a62.43 62.43 0 1 1 4.25-47.58h-5.66v47.58z"/><path fill="#97dec1" d="M216.26 217.41a62.34 62.34 0 1 1 4.24-47.51h-5.57v47.51z"/><path fill="#96dec1" d="M216.17 217.36a62.22 62.22 0 1 1 4.24-47.44h-5.48v47.44z"/><path fill="#96dec1" d="M216.09 217.31a62.14 62.14 0 1 1 4.23-47.31h-5.39v47.36z"/><path fill="#95dec2" d="M216 217.26a62 62 0 1 1 4.23-47.26h-5.3v47.29z"/><path fill="#94ddc2" d="M215.91 217.21a61.94 61.94 0 1 1 4.22-47.21h-5.2v47.22z"/><path fill="#93ddc2" d="M215.83 217.16A61.85 61.85 0 1 1 220 170h-5.11v47.15z"/><path fill="#92ddc2" d="M215.74 217.11A61.74 61.74 0 1 1 220 170h-5v47.07z"/><path fill="#92ddc2" d="M215.66 217.06a61.65 61.65 0 1 1 4.2-47h-4.93v47z"/><path fill="#91ddc2" d="M215.57 217a61.53 61.53 0 1 1 4.2-46.92h-4.84V217z"/><path fill="#90dcc2" d="M215.49 217a61.46 61.46 0 1 1 4.18-46.85h-4.74V217z"/><path fill="#8fdcc2" d="M215.4 216.9a61.35 61.35 0 1 1 4.18-46.77h-4.65v46.77z"/><path fill="#8edcc2" d="M215.32 216.85a61.28 61.28 0 1 1 4.17-46.7h-4.56v46.7z"/><path fill="#8edcc2" d="M215.23 216.8a61.16 61.16 0 1 1 4.17-46.63h-4.47v46.63z"/><path fill="#8ddcc2" d="M215.15 216.75a61.08 61.08 0 1 1 4.16-46.55h-4.38v46.55z"/><path fill="#8cdbc2" d="M215.06 216.7a61 61 0 1 1 4.15-46.48h-4.28v46.48z"/><path fill="#8bdbc2" d="M215 216.65a60.88 60.88 0 1 1 4.15-46.41h-4.19v46.41z"/><path fill="#8adbc2" d="M214.89 216.6a60.78 60.78 0 1 1 4.11-46.34 60.78 60.78 0 0 1-4.11 46.34z"/><path fill="#89dbc2" d="M214.8 216.55a60.68 60.68 0 1 1 4.14-46.26 60.68 60.68 0 0 1-4.14 46.26z"/><path fill="#89dbc2" d="M214.72 216.5a60.58 60.58 0 1 1 4.13-46.19 60.59 60.59 0 0 1-4.13 46.19z"/><path fill="#88dac2" d="M214.63 216.45a60.5 60.5 0 1 1 4.12-46.12 60.49 60.49 0 0 1-4.12 46.12z"/><path fill="#87dac2" d="M214.55 216.4a60.41 60.41 0 1 1 4.11-46.05 60.41 60.41 0 0 1-4.11 46.05z"/><path fill="#86dac2" d="M214.46 216.34a60.29 60.29 0 1 1 4.11-46 60.29 60.29 0 0 1-4.11 46z"/><path fill="#85dac2" d="M214.38 216.29a60.2 60.2 0 1 1 4.1-45.89 60.2 60.2 0 0 1-4.1 45.89z"/><path fill="#84d9c2" d="M214.29 216.24a60.09 60.09 0 1 1 4.1-45.82 60.09 60.09 0 0 1-4.1 45.82z"/><path fill="#83d9c2" d="M214.21 216.19a60 60 0 1 1 4.08-45.74 60 60 0 0 1-4.08 45.74z"/><path fill="#82d9c2" d="M214.12 216.14a59.91 59.91 0 1 1 4.08-45.67 59.92 59.92 0 0 1-4.08 45.67z"/><path fill="#81d9c2" d="M214 216.09a59.8 59.8 0 1 1 4.08-45.6 59.8 59.8 0 0 1-4.08 45.6z"/><path fill="#81d9c2" d="M214 216a59.72 59.72 0 1 1 4-45.49 59.73 59.73 0 0 1-4 45.49z"/><path fill="#80d8c2" d="M213.86 216a59.62 59.62 0 1 1 4.07-45.45 59.63 59.63 0 0 1-4.07 45.45z"/><path fill="#7fd8c2" d="M213.78 215.94a59.54 59.54 0 1 1 4.05-45.38 59.53 59.53 0 0 1-4.05 45.38z"/><circle cx="161.03" cy="188.35" r="59.43" fill="#7ed8c2"/><circle cx="161.03" cy="188.34" r="59.33" fill="#7dd8c2"/><circle cx="161.03" cy="188.34" r="59.24" fill="#7cd7c2"/><circle cx="161.03" cy="188.33" r="59.14" fill="#7bd7c2"/><circle cx="161.03" cy="188.32" r="59.05" fill="#7ad7c3"/><circle cx="161.03" cy="188.32" r="58.95" fill="#79d7c3"/><circle cx="161.03" cy="188.31" r="58.85" fill="#78d6c3"/><circle cx="161.03" cy="188.31" r="58.76" fill="#77d6c3"/><circle cx="161.03" cy="188.3" r="58.66" fill="#76d6c3"/><circle cx="161.03" cy="188.29" r="58.56" fill="#75d6c3"/><circle cx="161.03" cy="188.29" r="58.47" fill="#74d6c3"/><circle cx="161.03" cy="188.28" r="58.37" fill="#73d5c3"/><circle cx="161.03" cy="188.27" r="58.27" fill="#72d5c3"/><circle cx="161.03" cy="188.27" r="58.18" fill="#71d5c3"/><circle cx="161.03" cy="188.26" r="58.08" fill="#70d5c3"/><circle cx="161.03" cy="188.26" r="57.98" fill="#6fd4c3"/><circle cx="161.03" cy="188.25" r="57.89" fill="#6ed4c3"/><circle cx="161.03" cy="188.24" r="57.79" fill="#6dd4c3"/><circle cx="161.03" cy="188.24" r="57.7" fill="#6cd4c3"/><circle cx="161.03" cy="188.23" r="57.6" fill="#6bd3c3"/><circle cx="161.03" cy="188.23" r="57.5" fill="#6ad3c3"/><circle cx="161.03" cy="188.22" r="57.41" fill="#69d3c3"/><circle cx="161.03" cy="188.21" r="57.31" fill="#68d3c3"/><circle cx="161.03" cy="188.21" r="57.21" fill="#67d2c3"/><circle cx="161.03" cy="188.2" r="57.12" fill="#66d2c3"/><circle cx="161.03" cy="188.2" r="57.02" fill="#65d2c3"/><circle cx="161.03" cy="188.19" r="56.92" fill="#64d2c3"/><circle cx="161.03" cy="188.18" r="56.83" fill="#63d1c3"/><circle cx="161.03" cy="188.18" r="56.73" fill="#62d1c3"/><circle cx="161.03" cy="188.17" r="56.64" fill="#61d1c3"/><circle cx="161.03" cy="188.17" r="56.54" fill="#60d0c3"/><circle cx="161.03" cy="188.16" r="56.44" fill="#5fd0c4"/><circle cx="161.03" cy="188.15" r="56.35" fill="#5ed0c4"/><circle cx="161.03" cy="188.15" r="56.25" fill="#5dd0c4"/><circle cx="161.03" cy="188.14" r="56.15" fill="#5bcfc4"/><circle cx="161.03" cy="188.13" r="56.06" fill="#5acfc4"/><circle cx="161.03" cy="188.13" r="55.96" fill="#59cfc4"/><circle cx="161.03" cy="188.12" r="55.86" fill="#58cfc4"/><circle cx="161.03" cy="188.12" r="55.77" fill="#57cec4"/><circle cx="161.03" cy="188.11" r="55.67" fill="#56cec4"/><circle cx="161.03" cy="188.1" r="55.57" fill="#55cec4"/><circle cx="161.03" cy="188.1" r="55.48" fill="#54cec4"/><circle cx="161.03" cy="188.09" r="55.38" fill="#53cdc4"/><circle cx="161.03" cy="188.09" r="55.29" fill="#52cdc4"/><circle cx="161.03" cy="188.08" r="55.19" fill="#51cdc4"/><circle cx="161.03" cy="188.07" r="55.09" fill="#4fccc4"/><circle cx="161.03" cy="188.07" r="55" fill="#4eccc4"/><circle cx="161.03" cy="188.06" r="54.9" fill="#4dccc4"/><circle cx="161.03" cy="188.06" r="54.8" fill="#4cccc4"/><circle cx="161.03" cy="188.05" r="54.71" fill="#4bcbc4"/><circle cx="161.03" cy="188.04" r="54.61" fill="#4acbc4"/><circle cx="161.03" cy="188.04" r="54.51" fill="#49cbc4"/><circle cx="161.03" cy="188.03" r="54.42" fill="#48cbc4"/><circle cx="161.03" cy="188.03" r="54.32" fill="#46cac4"/><circle cx="161.03" cy="188.02" r="54.22" fill="#45cac4"/><circle cx="161.03" cy="188.01" r="54.13" fill="#44cac4"/><circle cx="161.03" cy="188.01" r="54.03" fill="#43c9c5"/><circle cx="161.03" cy="188" r="53.94" fill="#42c9c5"/><circle cx="161.03" cy="188" r="53.84" fill="#41c9c5"/><circle cx="161.03" cy="187.99" r="53.74" fill="#40c9c5"/><circle cx="161.03" cy="187.98" r="53.65" fill="#3ec8c5"/><circle cx="161.03" cy="187.98" r="53.55" fill="#3dc8c5"/><circle cx="161.03" cy="187.97" r="53.45" fill="#3cc8c5"/><circle cx="161.03" cy="187.96" r="53.36" fill="#3bc7c5"/><circle cx="161.03" cy="187.96" r="53.26" fill="#3ac7c5"/><circle cx="161.03" cy="187.95" r="53.16" fill="#39c7c5"/><circle cx="161.03" cy="187.95" r="53.07" fill="#37c7c5"/><circle cx="161.03" cy="187.94" r="52.97" fill="#36c6c5"/><circle cx="161.03" cy="187.93" r="52.87" fill="#35c6c5"/><circle cx="161.03" cy="187.93" r="52.78" fill="#34c6c5"/><circle cx="161.03" cy="187.92" r="52.68" fill="#33c5c5"/><circle cx="161.03" cy="187.92" r="52.59" fill="#32c5c5"/><circle cx="161.03" cy="187.91" r="52.49" fill="#30c5c5"/><circle cx="161.03" cy="187.9" r="52.39" fill="#2fc5c5"/><circle cx="161.03" cy="187.9" r="52.3" fill="#2ec4c5"/><circle cx="161.03" cy="187.89" r="52.2" fill="#2dc4c5"/><circle cx="161.03" cy="187.89" r="52.1" fill="#2cc4c5"/><circle cx="161.03" cy="187.88" r="52.01" fill="#2ac3c5"/><circle cx="161.03" cy="187.87" r="51.91" fill="#29c3c5"/><circle cx="161.03" cy="187.87" r="51.81" fill="#28c3c6"/><circle cx="161.03" cy="187.86" r="51.72" fill="#27c3c6"/><circle cx="161.03" cy="187.86" r="51.62" fill="#26c2c6"/><circle cx="161.03" cy="187.85" r="51.53" fill="#24c2c6"/><circle cx="161.03" cy="187.84" r="51.43" fill="#23c2c6"/><circle cx="161.03" cy="187.84" r="51.33" fill="#22c1c6"/><circle cx="161.03" cy="187.83" r="51.24" fill="#21c1c6"/><circle cx="161.03" cy="187.83" r="51.14" fill="#1fc1c6"/><circle cx="161.03" cy="187.82" r="51.04" fill="#1ec0c6"/><circle cx="161.03" cy="187.81" r="50.95" fill="#1dc0c6"/><circle cx="161.03" cy="187.81" r="50.85" fill="#1cc0c6"/><circle cx="161.03" cy="187.8" r="50.75" fill="#1ac0c6"/><circle cx="161.03" cy="187.79" r="50.66" fill="#19bfc6"/><circle cx="161.03" cy="187.79" r="50.56" fill="#18bfc6"/><circle cx="161.03" cy="187.78" r="50.46" fill="#17bfc6"/><circle cx="161.03" cy="187.78" r="50.37" fill="#16bec6"/><circle cx="161.03" cy="187.77" r="50.27" fill="#14bec6"/><circle cx="161.03" cy="187.76" r="50.18" fill="#13bec6"/><circle cx="161.03" cy="187.76" r="50.08" fill="#12bdc6"/><circle cx="161.03" cy="187.75" r="49.98" fill="#11bdc6"/><circle cx="161.03" cy="187.75" r="49.89" fill="#0fbdc6"/><circle cx="161.03" cy="187.74" r="49.79" fill="#0ebcc6"/><circle cx="161.03" cy="187.73" r="49.69" fill="#0dbcc7"/><circle cx="161.03" cy="187.73" r="49.6" fill="#0bbcc7"/><circle cx="161.03" cy="187.72" r="49.5" fill="#0abcc7"/><circle cx="161.03" cy="187.72" r="49.4" fill="#09bbc7"/><circle cx="161.03" cy="187.71" r="49.31" fill="#08bbc7"/><circle cx="161.03" cy="187.7" r="49.21" fill="#06bbc7"/><circle cx="161.03" cy="187.7" r="49.11" fill="#05bac7"/><circle cx="161.03" cy="187.69" r="49.02" fill="#04bac7"/><circle cx="161.03" cy="187.69" r="48.92" fill="#03bac7"/><circle cx="161.03" cy="187.68" r="48.83" fill="#01b9c7"/><circle cx="161.03" cy="187.67" r="48.73" fill="#00b9c7"/><circle cx="161.03" cy="187.67" r="48.63" fill="#00b9c7"/><circle cx="161.03" cy="187.66" r="48.37" fill="#00b9c8"/><circle cx="161.03" cy="187.64" r="48.11" fill="#00b8c8"/><circle cx="161.03" cy="187.62" r="47.85" fill="#00b7c9"/><circle cx="161.03" cy="187.61" r="47.59" fill="#00b7ca"/><circle cx="161.03" cy="187.59" r="47.33" fill="#00b6ca"/><circle cx="161.03" cy="187.57" r="47.06" fill="#00b5cb"/><circle cx="161.03" cy="187.56" r="46.8" fill="#00b4cc"/><circle cx="161.03" cy="187.54" r="46.54" fill="#00b4cd"/><circle cx="161.03" cy="187.52" r="46.28" fill="#00b3ce"/><circle cx="161.03" cy="187.51" r="46.02" fill="#00b2cf"/><circle cx="161.03" cy="187.49" r="45.76" fill="#00b1d0"/><circle cx="161.03" cy="187.47" r="45.5" fill="#00b0d0"/><circle cx="161.03" cy="187.46" r="45.23" fill="#00b0d1"/><circle cx="161.03" cy="187.44" r="44.97" fill="#00afd2"/><circle cx="161.03" cy="187.42" r="44.71" fill="#00aed3"/><circle cx="161.03" cy="187.41" r="44.45" fill="#00add4"/><circle cx="161.03" cy="187.39" r="44.19" fill="#01acd5"/><circle cx="161.03" cy="187.37" r="43.93" fill="#01abd6"/><circle cx="161.03" cy="187.36" r="43.66" fill="#01aad7"/><circle cx="161.03" cy="187.34" r="43.4" fill="#01a9d8"/><circle cx="161.03" cy="187.32" r="43.14" fill="#01a8d9"/><circle cx="161.03" cy="187.31" r="42.88" fill="#01a7da"/><circle cx="161.03" cy="187.29" r="42.62" fill="#01a7db"/><circle cx="161.03" cy="187.27" r="42.36" fill="#01a6dc"/><circle cx="161.03" cy="187.26" r="42.1" fill="#01a5dd"/><circle cx="161.03" cy="187.24" r="41.83" fill="#01a4de"/><circle cx="161.03" cy="187.22" r="41.57" fill="#01a3df"/><circle cx="161.03" cy="187.21" r="41.31" fill="#01a2e0"/><circle cx="161.03" cy="187.19" r="41.05" fill="#01a1e2"/><circle cx="161.03" cy="187.17" r="40.79" fill="#01a0e3"/><circle cx="161.03" cy="187.16" r="40.53" fill="#019fe4"/><circle cx="161.03" cy="187.14" r="40.27" fill="#019ee5"/><circle cx="161.02" cy="187.12" r="40" fill="#019de6"/><circle cx="161.02" cy="187.11" r="39.74" fill="#019ce7"/><circle cx="161.02" cy="187.09" r="39.48" fill="#019be8"/><circle cx="161.02" cy="187.07" r="39.22" fill="#019ae9"/><circle cx="161.02" cy="187.06" r="38.96" fill="#0199ea"/><circle cx="161.02" cy="187.04" r="38.7" fill="#0198eb"/><circle cx="161.02" cy="187.02" r="38.44" fill="#0197ed"/><circle cx="161.02" cy="187.01" r="38.17" fill="#0196ee"/><circle cx="161.02" cy="186.99" r="37.91" fill="#0195ef"/><circle cx="161.02" cy="186.97" r="37.65" fill="#0194f0"/><circle cx="161.02" cy="186.96" r="37.39" fill="#0293f1"/><circle cx="161.02" cy="186.94" r="37.13" fill="#0292f2"/><circle cx="161.02" cy="186.92" r="36.87" fill="#0291f3"/><circle cx="161.02" cy="186.91" r="36.6" fill="#0290f4"/><circle cx="161.02" cy="186.89" r="36.34" fill="#028ff6"/><circle cx="161.02" cy="186.87" r="36.08" fill="#028df7"/><circle cx="161.02" cy="186.86" r="35.82" fill="#028cf8"/><circle cx="161.02" cy="186.84" r="35.56" fill="#028bf9"/><circle cx="161.02" cy="186.82" r="35.3" fill="#028afa"/><circle cx="161.02" cy="186.81" r="35.04" fill="#0289fb"/><circle cx="161.02" cy="186.79" r="34.77" fill="#0288fd"/><circle cx="161.02" cy="186.77" r="34.51" fill="#0287fe"/><circle cx="161.02" cy="186.76" r="34.25" fill="#0286ff"/><circle cx="161.02" cy="186.76" r="33.99" fill="#0286ff"/><circle cx="161.02" cy="186.74" r="33.8" fill="#0285fe"/><circle cx="161.02" cy="186.73" r="33.6" fill="#0385fd"/><circle cx="161.02" cy="186.72" r="33.41" fill="#0384fd"/><circle cx="161.02" cy="186.71" r="33.21" fill="#0383fc"/><circle cx="161.02" cy="186.69" r="33.02" fill="#0483fb"/><circle cx="161.02" cy="186.68" r="32.82" fill="#0482fa"/><circle cx="161.02" cy="186.67" r="32.63" fill="#0481f9"/><circle cx="161.02" cy="186.66" r="32.44" fill="#0581f8"/><circle cx="161.02" cy="186.65" r="32.24" fill="#0580f7"/><circle cx="161.02" cy="186.63" r="32.05" fill="#057ff6"/><circle cx="161.02" cy="186.62" r="31.85" fill="#067ff5"/><circle cx="161.02" cy="186.61" r="31.66" fill="#067ef4"/><circle cx="161.02" cy="186.6" r="31.46" fill="#067df4"/><circle cx="161.02" cy="186.58" r="31.27" fill="#077df3"/><circle cx="161.02" cy="186.57" r="31.08" fill="#077cf2"/><circle cx="161.02" cy="186.56" r="30.88" fill="#077bf1"/><circle cx="161.02" cy="186.55" r="30.69" fill="#087af0"/><circle cx="161.02" cy="186.54" r="30.49" fill="#087aef"/><circle cx="161.02" cy="186.52" r="30.3" fill="#0879ee"/><circle cx="161.02" cy="186.51" r="30.1" fill="#0978ed"/><circle cx="161.02" cy="186.5" r="29.91" fill="#0977ec"/><circle cx="161.02" cy="186.49" r="29.72" fill="#0a77eb"/><circle cx="161.02" cy="186.47" r="29.52" fill="#0a76ea"/><circle cx="161.02" cy="186.46" r="29.33" fill="#0a75e9"/><circle cx="161.02" cy="186.45" r="29.13" fill="#0b75e8"/><circle cx="161.02" cy="186.44" r="28.94" fill="#0b74e7"/><circle cx="161.02" cy="186.43" r="28.74" fill="#0b73e6"/><circle cx="161.02" cy="186.41" r="28.55" fill="#0c72e5"/><circle cx="161.02" cy="186.4" r="28.36" fill="#0c72e4"/><circle cx="161.02" cy="186.39" r="28.16" fill="#0c71e3"/><circle cx="161.02" cy="186.38" r="27.97" fill="#0d70e2"/><circle cx="161.02" cy="186.36" r="27.77" fill="#0d6fe1"/><circle cx="161.02" cy="186.35" r="27.58" fill="#0e6fe0"/><circle cx="161.02" cy="186.34" r="27.38" fill="#0e6edf"/><circle cx="161.02" cy="186.33" r="27.19" fill="#0e6dde"/><circle cx="161.02" cy="186.31" r="27" fill="#0f6cdd"/><circle cx="161.02" cy="186.3" r="26.8" fill="#0f6cdc"/><circle cx="161.02" cy="186.29" r="26.61" fill="#0f6bdb"/><circle cx="161.02" cy="186.28" r="26.41" fill="#106ada"/><circle cx="161.02" cy="186.27" r="26.22" fill="#1069d9"/><circle cx="161.02" cy="186.25" r="26.02" fill="#1169d8"/><circle cx="161.02" cy="186.24" r="25.83" fill="#1168d7"/><circle cx="161.02" cy="186.23" r="25.63" fill="#1167d6"/><circle cx="161.02" cy="186.22" r="25.44" fill="#1266d5"/><circle cx="161.02" cy="186.2" r="25.25" fill="#1265d4"/><circle cx="161.02" cy="186.19" r="25.05" fill="#1265d3"/><circle cx="161.02" cy="186.18" r="24.86" fill="#1364d2"/><circle cx="161.02" cy="186.17" r="24.66" fill="#1363d1"/><circle cx="161.02" cy="186.16" r="24.47" fill="#1462d0"/><circle cx="161.02" cy="186.14" r="24.27" fill="#1462cf"/><circle cx="161.02" cy="186.13" r="24.08" fill="#1461ce"/><circle cx="161.02" cy="186.12" r="23.89" fill="#1560cd"/><circle cx="161.02" cy="186.11" r="23.69" fill="#155fcc"/><circle cx="161.02" cy="186.09" r="23.5" fill="#165fcb"/><circle cx="161.02" cy="186.08" r="23.3" fill="#165eca"/><circle cx="161.02" cy="186.07" r="23.11" fill="#165dc9"/><circle cx="161.02" cy="186.06" r="22.91" fill="#175cc8"/><circle cx="161.02" cy="186.04" r="22.72" fill="#175bc7"/><circle cx="161.02" cy="186.03" r="22.53" fill="#175bc6"/><circle cx="161.02" cy="186.02" r="22.33" fill="#185ac5"/><circle cx="161.02" cy="186.01" r="22.14" fill="#1859c4"/><circle cx="161.02" cy="186" r="21.94" fill="#1958c3"/><circle cx="161.02" cy="185.98" r="21.75" fill="#1958c2"/><circle cx="161.02" cy="185.97" r="21.55" fill="#1957c1"/><circle cx="161.02" cy="185.96" r="21.36" fill="#1a56c0"/><circle cx="161.02" cy="185.95" r="21.17" fill="#1a55bf"/><circle cx="161.02" cy="185.93" r="20.97" fill="#1b54be"/><circle cx="161.02" cy="185.92" r="20.78" fill="#1b54bd"/><circle cx="161.02" cy="185.91" r="20.58" fill="#1b53bc"/><circle cx="161.02" cy="185.9" r="20.39" fill="#1c52bb"/><circle cx="161.02" cy="185.89" r="20.19" fill="#1c51ba"/><circle cx="161.02" cy="185.87" r="20" fill="#1c51b9"/><circle cx="161.02" cy="185.86" r="19.81" fill="#1d50b8"/><circle cx="161.02" cy="185.85" r="19.61" fill="#1d4fb7"/><circle cx="161.02" cy="185.84" r="19.42" fill="#1e4eb6"/><circle cx="161.02" cy="185.82" r="19.22" fill="#1e4db5"/><circle cx="161.02" cy="185.81" r="19.03" fill="#1e4db4"/><circle cx="161.02" cy="185.8" r="18.83" fill="#1f4cb2"/><circle cx="161.02" cy="185.79" r="18.64" fill="#1f4bb1"/><circle cx="161.02" cy="185.77" r="18.45" fill="#204ab0"/><circle cx="161.02" cy="185.76" r="18.25" fill="#2049af"/><circle cx="161.02" cy="185.75" r="18.06" fill="#2049ae"/><circle cx="161.02" cy="185.74" r="17.86" fill="#2148ad"/><circle cx="161.02" cy="185.73" r="17.67" fill="#2147ac"/><circle cx="161.02" cy="185.71" r="17.47" fill="#2246ab"/><circle cx="161.02" cy="185.7" r="17.28" fill="#2246aa"/><circle cx="161.02" cy="185.69" r="17.09" fill="#2245a9"/><circle cx="161.02" cy="185.68" r="16.89" fill="#2344a8"/><circle cx="161.02" cy="185.66" r="16.7" fill="#2343a7"/><circle cx="161.02" cy="185.65" r="16.5" fill="#2342a6"/><circle cx="161.02" cy="185.64" r="16.31" fill="#2442a5"/><circle cx="161.02" cy="185.63" r="16.11" fill="#2441a4"/><circle cx="161.02" cy="185.62" r="15.92" fill="#2540a3"/><circle cx="161.02" cy="185.6" r="15.73" fill="#253fa2"/><circle cx="161.02" cy="185.59" r="15.53" fill="#253ea1"/><circle cx="161.02" cy="185.58" r="15.34" fill="#263ea0"/><circle cx="161.02" cy="185.57" r="15.14" fill="#263d9f"/><circle cx="161.02" cy="185.55" r="14.95" fill="#273c9e"/><circle cx="161.02" cy="185.54" r="14.75" fill="#273b9d"/><circle cx="161.02" cy="185.53" r="14.56" fill="#273a9b"/><circle cx="161.02" cy="185.52" r="14.37" fill="#283a9a"/><circle cx="161.02" cy="185.5" r="14.17" fill="#283999"/><circle cx="161.02" cy="185.49" r="13.98" fill="#293898"/><circle cx="161.02" cy="185.48" r="13.78" fill="#293797"/><circle cx="161.02" cy="185.47" r="13.59" fill="#293696"/><circle cx="161.02" cy="185.46" r="13.39" fill="#2a3695"/><circle cx="161.02" cy="185.44" r="13.2" fill="#2a3594"/><circle cx="161.02" cy="185.43" r="13" fill="#2b3493"/><circle cx="161.02" cy="185.42" r="12.81" fill="#2b3392"/><circle cx="161.02" cy="185.41" r="12.62" fill="#2b3291"/><circle cx="161.02" cy="185.39" r="12.42" fill="#2c3290"/><circle cx="161.02" cy="185.38" r="12.23" fill="#2c318f"/><circle cx="161.02" cy="185.37" r="12.03" fill="#2d308e"/><circle cx="161.02" cy="185.36" r="11.84" fill="#2d2f8d"/><circle cx="161.02" cy="185.35" r="11.64" fill="#2d2e8c"/><circle cx="161.02" cy="185.33" r="11.45" fill="#2e2d8b"/><circle cx="161.02" cy="185.32" r="11.26" fill="#2e2d89"/><circle cx="161.02" cy="185.31" r="11.06" fill="#2f2c88"/><circle cx="161.02" cy="185.3" r="10.87" fill="#2f2b87"/><circle cx="161.02" cy="185.28" r="10.67" fill="#2f2a86"/><circle cx="161.02" cy="185.27" r="10.48" fill="#302985"/><circle cx="161.02" cy="185.26" r="10.28" fill="#302984"/><circle cx="161.02" cy="185.25" r="10.09" fill="#312883"/><circle cx="161.02" cy="185.24" r="9.9" fill="#312782"/></g><g fill="#fff"><path d="M160.14 247.89l-54.55-31.49v-63l54.55-31.49 54.54 31.49v63zm-51-33.51l51 29.47 51-29.47v-58.94l-51-29.47-51 29.47z"/><path d="M160.14 186.91l-53.67-30.99 1.75-3.03 51.92 29.97 51.92-29.95 1.75 3.03z"/><path d="M158.39 184.89h3.5v60.99h-3.5zm31.3 44.93h-3.5v-59.97l-25.45-14.78 1.76-3.02 27.19 15.79z"/><path d="M160.16 216.66l-53.67-30.23 1.72-3.05 51.93 29.25 26.93-15.54 1.75 3.03z"/><path d="M132.87746 168.12242l52.76693-30.465 1.75 3.03109-52.76693 30.465z"/></g></svg>