<svg xmlns="http://www.w3.org/2000/svg" role="img" viewBox="-5.57 -5.57 289.64 101.14"><title>Smart Dubai Government Est. logo</title><defs><style>.cls-2{fill:#29ade4}</style></defs><path fill="#212850" d="M215.16 44.96h3.55v3.29h-3.55zm-5.4 0h3.57v3.29h-3.57zm48.09-7.41a4.74 4.74 0 0 0 3.92-1.74A5.73 5.73 0 0 0 263 32v-7.4h-4v6.32c0 1.86-.69 2.8-2 2.8h-28.85c-1.72 0-2.72-.43-3.41-1.74a6.76 6.76 0 0 0-6.4-3.95 15.16 15.16 0 0 0-1.75 0v3.48a3.25 3.25 0 0 1 .69-.08 2.57 2.57 0 0 1 2.66 2.57c0 2.66-2.95 4.6-6 4.6-4.07 0-6.33-2.57-6.33-6.4v-3.08h-4v3.43c0 5.55 4.52 9.75 10.24 9.75 4.66 0 8.72-2.57 9.61-6.43a6 6 0 0 0 3.45 1.68h31zm1.41 1.43h3.54v3.32h-3.54zm19.33-5.29c0-4.32-2-7.18-5.91-8.55a18.22 18.22 0 0 0-5.36-.54v3.34c5.09 0 7.27 1.78 7.27 5.78H264.2v3.83h14.39zM119.63 15.82h3.55v3.32h-3.55zm-5.38 0h3.54v3.32h-3.54zm24.08 23.16h3.55v3.32h-3.55zm-5.38 0h3.55v3.32h-3.55zm-5.43-5.26a2.61 2.61 0 0 1-2.92-2.92v-9h-7.63c-3.78 0-5.92 2.74-5.92 7 0 4 2.2 6.92 5.63 6.92 2 0 3.35-.6 4.06-1.71a4.88 4.88 0 0 0 4.81 3.51h38.78v-1.45c0-6.73-2.84-10.93-8.3-11.5h-2.2l3.6-5.44h-4.75L147 28.26h7.21a6 6 0 0 1 5.79 5.46h-18.18a8.59 8.59 0 0 0 .45-2.89V24.6h-4V31c0 1.84-.66 2.75-2 2.75h-8.72m-7-5.21c0 2.35-1 3.92-2.72 3.92S115 30.78 115 28.77c0-2.23 1.2-4 2.83-4h2.64zm49.92-9.41h3.58v3.29h-3.58zm13.88 18.42h.91a4.81 4.81 0 0 0 4-1.74 5.78 5.78 0 0 0 1.21-3.81V19.13h-4v11.79c0 1.86-.77 2.77-2.12 2.77H180c0-4.32-2-7.15-5.92-8.55a18.14 18.14 0 0 0-5.35-.54v3.34c5.09 0 7.26 1.78 7.26 5.78h-10.4v3.83h18.76zm7.37-18.45h4v18.45h-4zm-68.27 40.72a6.74 6.74 0 0 0-1.77-1 17.4 17.4 0 0 0-2.38-.8c-.74-.19-1.36-.37-1.85-.52a4.94 4.94 0 0 1-1.14-.46 1.44 1.44 0 0 1-.56-.53 1.54 1.54 0 0 1-.15-.7 1.22 1.22 0 0 1 .52-1 2.65 2.65 0 0 1 1.63-.42 5.78 5.78 0 0 1 2.21.45 12.64 12.64 0 0 1 2.28 1.16l.07.05 2.08-3a10.52 10.52 0 0 0-3-1.66 10.67 10.67 0 0 0-3.56-.58 7.82 7.82 0 0 0-2.48.38 5.61 5.61 0 0 0-1.95 1.09 5 5 0 0 0-1.28 1.69 5.27 5.27 0 0 0-.45 2.18 5.23 5.23 0 0 0 .42 2.2 4 4 0 0 0 1.19 1.49 6.69 6.69 0 0 0 1.84 1 24.94 24.94 0 0 0 2.41.73 17.16 17.16 0 0 1 1.78.52 4.77 4.77 0 0 1 1 .48 1.27 1.27 0 0 1 .5.51 1.49 1.49 0 0 1 .13.62v.05a1.31 1.31 0 0 1-.62 1.14 3.32 3.32 0 0 1-1.81.43 6.59 6.59 0 0 1-2.72-.57 11.54 11.54 0 0 1-2.44-1.54l-.06-.05-2.35 2.84h.06a10.46 10.46 0 0 0 3.52 2.12 11.58 11.58 0 0 0 3.93.69 8.89 8.89 0 0 0 2.61-.37 6 6 0 0 0 2-1.06 4.78 4.78 0 0 0 1.34-1.73 5.54 5.54 0 0 0 .47-2.33v-.05a4.94 4.94 0 0 0-.37-2 4.15 4.15 0 0 0-1.05-1.45zm12.19-1.55l-4.51-7.26-.03-.04h-4.26v17.61h3.95V57.46l4.71 7.14.02.04h.19l4.78-7.25v11.19h3.96V50.97h-4.26l-4.55 7.3zm17.58-7.42l-7.54 17.73h4.09l1.6-3.91h7.26l1.6 3.91h4.19l-7.55-17.73zm-.41 10.26l2.19-5.35 2.19 5.35zm26.51-.75a5.56 5.56 0 0 0 1.05-3.5 5.49 5.49 0 0 0-1.52-4.05 7 7 0 0 0-5.14-1.81h-8.06v17.58h4V63h2.88l3.74 5.58H181l-4.29-6.27a6.24 6.24 0 0 0 2.61-1.95zm-3-3.3a2.22 2.22 0 0 1-.73 1.73 3.15 3.15 0 0 1-2.13.65h-3.8V54.6h3.72a3.4 3.4 0 0 1 2.17.61 2.14 2.14 0 0 1 .77 1.8zm4.86-2.39h5.3v13.91h4.01V54.67h5.3v-3.7h-14.61v3.7zm36-1.19a9 9 0 0 0-3-1.84 10.25 10.25 0 0 0-3.78-.67h-6.88v17.61h6.88a10.25 10.25 0 0 0 3.78-.68 9.08 9.08 0 0 0 3-1.86 8.36 8.36 0 0 0 1.93-2.79 9.1 9.1 0 0 0 .67-3.48v-.05a9 9 0 0 0-.67-3.46 8.53 8.53 0 0 0-1.93-2.78zm-1.58 6.35a5.54 5.54 0 0 1-.37 2.08 5.11 5.11 0 0 1-1.06 1.62 4.54 4.54 0 0 1-1.63 1 5.91 5.91 0 0 1-2.11.37h-2.88V54.6h2.88a5.7 5.7 0 0 1 2.11.38 4.67 4.67 0 0 1 1.63 1.07 5 5 0 0 1 1.06 1.64 5.65 5.65 0 0 1 .37 2.08zM232.87 61a4.34 4.34 0 0 1-1 3.09 3.57 3.57 0 0 1-2.7 1 3.53 3.53 0 0 1-2.71-1 4.59 4.59 0 0 1-1-3.17V51h-4v10a7 7 0 0 0 7.63 7.83 9.75 9.75 0 0 0 3.19-.49 6.41 6.41 0 0 0 2.46-1.49 6.78 6.78 0 0 0 1.54-2.48 10.24 10.24 0 0 0 .54-3.49V51h-4zm18.33-1.64a4.7 4.7 0 0 0 .74-.52 4.76 4.76 0 0 0 .73-.82 4.34 4.34 0 0 0 .51-1.06 4.55 4.55 0 0 0 .18-1.35 4.12 4.12 0 0 0-1.21-3 6.28 6.28 0 0 0-4.61-1.61h-8.17v17.58h8.37a11.3 11.3 0 0 0 2.69-.3 6.45 6.45 0 0 0 2.09-.91 4.21 4.21 0 0 0 1.35-1.53 4.64 4.64 0 0 0 .47-2.13v-.05a4.07 4.07 0 0 0-.89-2.78 5.84 5.84 0 0 0-2.25-1.52zm-7.93-4.86H247a3.12 3.12 0 0 1 1.82.45 1.44 1.44 0 0 1 .61 1.26 1.43 1.43 0 0 1-.7 1.34 4 4 0 0 1-2 .42h-3.46zm7.12 8.74a1.49 1.49 0 0 1-.69 1.36 3.59 3.59 0 0 1-1.95.44h-4.48v-3.67h4.36a3.52 3.52 0 0 1 2.11.5 1.57 1.57 0 0 1 .65 1.32zm11.73-12.39l-7.55 17.73h4.1l1.6-3.91h7.26l1.59 3.91h4.19l-7.54-17.73zm-.42 10.26l2.19-5.35 2.2 5.35zm12.88-10.16h4v17.61h-4z"/><path d="M45.08 90.16a45.08 45.08 0 1 1 45.09-45.08 45.13 45.13 0 0 1-45.09 45.08zm0-81.16a36.14 36.14 0 1 0 36.14 36.08A36.17 36.17 0 0 0 45.08 9z" class="cls-2"/><path d="M46 71.14c-16 0-27.57-14.89-28.06-15.52L25 50.18c.09.12 9.39 12 21 12 6.64 0 13.09-4.06 19.15-12l7.11 5.43C64.41 65.92 55.56 71.14 46 71.14z" class="cls-2"/></svg>