<svg xmlns="http://www.w3.org/2000/svg" role="img" xmlns:xlink="http://www.w3.org/1999/xlink" viewBox="-10.39 -9.39 540.28 540.28"><title>Smart Filter logo</title><style>svg {enable-background:new 0 0 520 520}</style><style>.st0{fill:#fff;stroke:#fff;stroke-width:2;stroke-miterlimit:10}</style><g id="Layer_3"><path d="M260,521L260,521C116.4,521,0,404.6,0,261v0C0,117.4,116.4,1,260,1h0c143.6,0,260,116.4,260,260v0 C520,404.6,403.6,521,260,521z"/></g><g><g><path id="SVGID_3_" d="M432.6,260c0,10.6,9.2,19.1,20.1,17.9c8.3-0.9,14.9-7.6,15.8-15.8c1.2-10.9-7.3-20-17.9-20 C440.6,242,432.6,250.1,432.6,260L432.6,260z" class="st0"/></g><g><defs><path id="SVGID_1_" d="M432.6,260c0,10.6,9.2,19.1,20.1,17.9c8.3-0.9,14.9-7.6,15.8-15.8c1.2-10.9-7.3-20-17.9-20 C440.6,242,432.6,250.1,432.6,260"/></defs><use fill="#fff" overflow="visible" xlink:href="#SVGID_1_"/><clipPath id="SVGID_2_"><use overflow="visible" xlink:href="#SVGID_1_"/></clipPath><use fill="none" stroke="#fff" stroke-miterlimit="10" stroke-width="2" overflow="visible" xlink:href="#SVGID_1_"/></g></g><g><g><path id="SVGID_5_" d="M399.6,245.8l-21,1.6c-6.2,0.5-11.3,5.4-11.7,11.7c-0.5,7,4.7,13.1,11.7,13.6l21,1.6 c0.7,0,1.4,0.1,2.1,0c7.9-0.6,13.8-7.4,13.2-15.3c-0.6-7.5-6.8-13.2-14.2-13.2C400.3,245.7,399.9,245.7,399.6,245.8L399.6,245.8z" class="st0"/></g><g><defs><path id="SVGID_4_" d="M399.6,245.8l-21,1.6c-6.2,0.5-11.3,5.4-11.7,11.7c-0.5,7,4.7,13.1,11.7,13.6l21,1.6c0.7,0,1.4,0.1,2.1,0 c7.9-0.6,13.8-7.4,13.2-15.3c-0.6-7.5-6.8-13.2-14.2-13.2C400.3,245.7,399.9,245.7,399.6,245.8"/></defs><use fill="#fff" overflow="visible" xlink:href="#SVGID_4_"/><clipPath id="SVGID_6_"><use overflow="visible" xlink:href="#SVGID_4_"/></clipPath><use fill="none" stroke="#fff" stroke-miterlimit="10" stroke-width="2" overflow="visible" xlink:href="#SVGID_4_"/></g></g><g><g><path id="SVGID_7_" d="M339.6,250.2l-54,4c-2.8,0.2-5.2,2.5-5.4,5.4c-0.2,3.2,2.2,6,5.4,6.2l54,4c0.5,0,1,0,1.4,0 c5.4-0.4,9.5-5.1,9.1-10.5c-0.4-5.2-4.7-9.1-9.8-9.1C340.1,250.2,339.8,250.2,339.6,250.2L339.6,250.2z" class="st0"/></g><g><defs><path id="SVGID_8_" d="M339.6,250.2l-54,4c-2.8,0.2-5.2,2.5-5.4,5.4c-0.2,3.2,2.2,6,5.4,6.2l54,4c0.5,0,1,0,1.4,0 c5.4-0.4,9.5-5.1,9.1-10.5c-0.4-5.2-4.7-9.1-9.8-9.1C340.1,250.2,339.8,250.2,339.6,250.2"/></defs><use fill="#fff" overflow="visible" xlink:href="#SVGID_8_"/><clipPath id="SVGID_10_"><use overflow="visible" xlink:href="#SVGID_8_"/></clipPath><use fill="none" stroke="#fff" stroke-miterlimit="10" stroke-width="2" overflow="visible" xlink:href="#SVGID_8_"/></g></g><g><g><path id="SVGID_9_" d="M51.4,260c0,10.6,9.2,19.1,20,17.9c8.3-0.9,14.9-7.6,15.8-15.8c1.2-10.9-7.3-20-17.9-20 C59.5,242,51.4,250.1,51.4,260L51.4,260z" class="st0"/></g><g><defs><path id="SVGID_12_" d="M51.4,260c0,10.6,9.2,19.1,20,17.9c8.3-0.9,14.9-7.6,15.8-15.8c1.2-10.9-7.3-20-17.9-20 C59.5,242,51.4,250.1,51.4,260"/></defs><use fill="#fff" overflow="visible" xlink:href="#SVGID_12_"/><clipPath id="SVGID_14_"><use overflow="visible" xlink:href="#SVGID_12_"/></clipPath><use fill="none" stroke="#fff" stroke-miterlimit="10" stroke-width="2" overflow="visible" xlink:href="#SVGID_12_"/></g></g><g><g><path id="SVGID_11_" d="M118.3,245.8c-7.9,0.6-13.8,7.4-13.2,15.3c0.6,7.9,7.4,13.8,15.3,13.2l21-1.6 c6.2-0.5,11.3-5.4,11.7-11.7c0.5-7-4.7-13.1-11.7-13.6l-21-1.6c-0.3,0-0.7,0-1.1,0C119,245.7,118.7,245.8,118.3,245.8L118.3,245.8 z" class="st0"/></g><g><defs><path id="SVGID_16_" d="M118.3,245.8c-7.9,0.6-13.8,7.4-13.2,15.3c0.6,7.9,7.4,13.8,15.3,13.2l21-1.6c6.2-0.5,11.3-5.4,11.7-11.7 c0.5-7-4.7-13.1-11.7-13.6l-21-1.6c-0.3,0-0.7,0-1.1,0C119,245.7,118.7,245.8,118.3,245.8"/></defs><use fill="#fff" overflow="visible" xlink:href="#SVGID_16_"/><clipPath id="SVGID_18_"><use overflow="visible" xlink:href="#SVGID_16_"/></clipPath><use fill="none" stroke="#fff" stroke-miterlimit="10" stroke-width="2" overflow="visible" xlink:href="#SVGID_16_"/></g></g><g><g><path id="SVGID_13_" d="M179,250.2c-5.4,0.4-9.5,5.1-9.1,10.5c0.4,5.4,5.1,9.5,10.5,9.1l54-4c2.8-0.2,5.2-2.5,5.4-5.4 c0.2-3.2-2.2-6-5.4-6.2l-54-4c-0.2,0-0.5,0-0.7,0C179.4,250.2,179.2,250.2,179,250.2L179,250.2z" class="st0"/></g><g><defs><path id="SVGID_20_" d="M179,250.2c-5.4,0.4-9.5,5.1-9.1,10.5c0.4,5.4,5.1,9.5,10.5,9.1l54-4c2.8-0.2,5.2-2.5,5.4-5.4 c0.2-3.2-2.2-6-5.4-6.2l-54-4c-0.2,0-0.5,0-0.7,0C179.4,250.2,179.2,250.2,179,250.2"/></defs><use fill="#fff" overflow="visible" xlink:href="#SVGID_20_"/><clipPath id="SVGID_22_"><use overflow="visible" xlink:href="#SVGID_20_"/></clipPath><use fill="none" stroke="#fff" stroke-miterlimit="10" stroke-width="2" overflow="visible" xlink:href="#SVGID_20_"/></g></g><g><g><path id="SVGID_15_" d="M337.3,425c0,10.6,9.2,19.1,20.1,17.9c8.3-0.9,14.9-7.6,15.8-15.8c1.2-10.9-7.3-20-17.9-20 C345.3,407,337.3,415.1,337.3,425L337.3,425z" class="st0"/></g><g><defs><path id="SVGID_23_" d="M337.3,425c0,10.6,9.2,19.1,20.1,17.9c8.3-0.9,14.9-7.6,15.8-15.8c1.2-10.9-7.3-20-17.9-20 C345.3,407,337.3,415.1,337.3,425"/></defs><use fill="#fff" overflow="visible" xlink:href="#SVGID_23_"/><clipPath id="SVGID_24_"><use overflow="visible" xlink:href="#SVGID_23_"/></clipPath><use fill="none" stroke="#fff" stroke-miterlimit="10" stroke-width="2" overflow="visible" xlink:href="#SVGID_23_"/></g></g><g><g><path id="SVGID_17_" d="M314.2,352c-6.3,3.1-9,10.6-5.9,17l9.2,19c0.3,0.6,0.7,1.3,1.1,1.8c4.4,6.5,13.3,8.2,19.8,3.8 c6.5-4.4,8.2-13.3,3.8-19.8l-11.8-17.4c-2.4-3.5-6.4-5.6-10.5-5.6C317.9,350.8,316,351.2,314.2,352L314.2,352z" class="st0"/></g><g><defs><path id="SVGID_26_" d="M314.2,352c-6.3,3.1-9,10.6-5.9,17l9.2,19c0.3,0.6,0.7,1.3,1.1,1.8c4.4,6.5,13.3,8.2,19.8,3.8 c6.5-4.4,8.2-13.3,3.8-19.8l-11.8-17.4c-2.4-3.5-6.4-5.6-10.5-5.6C317.9,350.8,316,351.2,314.2,352"/></defs><use fill="#fff" overflow="visible" xlink:href="#SVGID_26_"/><clipPath id="SVGID_28_"><use overflow="visible" xlink:href="#SVGID_26_"/></clipPath><use fill="none" stroke="#fff" stroke-miterlimit="10" stroke-width="2" overflow="visible" xlink:href="#SVGID_26_"/></g></g><g><g><path id="SVGID_19_" d="M270.5,277.3c-2.9,1.4-4.1,4.9-2.7,7.8l23.5,48.8c0.2,0.4,0.5,0.9,0.7,1.3 c3,4.5,9.2,5.6,13.6,2.6c4.5-3,5.6-9.2,2.6-13.6l-30.5-44.8c-1.1-1.6-2.9-2.5-4.8-2.5C272.1,276.7,271.3,276.9,270.5,277.3 L270.5,277.3z" class="st0"/></g><g><defs><path id="SVGID_30_" d="M270.5,277.3c-2.9,1.4-4.1,4.9-2.7,7.8l23.5,48.8c0.2,0.4,0.5,0.9,0.7,1.3c3,4.5,9.2,5.6,13.6,2.6 c4.5-3,5.6-9.2,2.6-13.6l-30.5-44.8c-1.1-1.6-2.9-2.5-4.8-2.5C272.1,276.7,271.3,276.9,270.5,277.3"/></defs><use fill="#fff" overflow="visible" xlink:href="#SVGID_30_"/><clipPath id="SVGID_32_"><use overflow="visible" xlink:href="#SVGID_30_"/></clipPath><use fill="none" stroke="#fff" stroke-miterlimit="10" stroke-width="2" overflow="visible" xlink:href="#SVGID_30_"/></g></g><g><g><path id="SVGID_21_" d="M146.7,95c0,10.6,9.2,19.1,20,17.9c8.3-0.9,14.9-7.6,15.8-15.8c1.2-10.9-7.3-20.1-17.9-20.1 C154.8,77,146.7,85,146.7,95L146.7,95z" class="st0"/></g><g><defs><path id="SVGID_34_" d="M146.7,95c0,10.6,9.2,19.1,20,17.9c8.3-0.9,14.9-7.6,15.8-15.8c1.2-10.9-7.3-20.1-17.9-20.1 C154.8,77,146.7,85,146.7,95"/></defs><use fill="#fff" overflow="visible" xlink:href="#SVGID_34_"/><clipPath id="SVGID_36_"><use overflow="visible" xlink:href="#SVGID_34_"/></clipPath><use fill="none" stroke="#fff" stroke-miterlimit="10" stroke-width="2" overflow="visible" xlink:href="#SVGID_34_"/></g></g><g><g><path d="M207.3,167c-6,4-13.8,2.2-17.6-3.4l-11.8-17.4c-4.4-6.5-2.7-15.4,3.8-19.8c2.4-1.6,5.2-2.4,7.9-2.5 c4.6,0,9,2.1,11.8,6.2c0.4,0.5,0.8,1.2,1.1,1.8l9,18.7C214.3,156.4,212.6,163.5,207.3,167z" class="st0"/></g><g><defs><path id="SVGID_38_" d="M181.7,126.4c-6.5,4.4-8.2,13.3-3.8,19.8l11.8,17.4c3.8,5.6,11.6,7.4,17.6,3.4c5.3-3.5,7-10.6,4.2-16.4 l-9-18.7c-0.3-0.6-0.7-1.3-1.1-1.8c-2.8-4.1-7.2-6.2-11.8-6.2C186.9,124,184.1,124.8,181.7,126.4"/></defs><use fill="#fff" overflow="visible" xlink:href="#SVGID_38_"/><clipPath id="SVGID_39_"><use overflow="visible" xlink:href="#SVGID_38_"/></clipPath><use fill="none" stroke="#fff" stroke-miterlimit="10" stroke-width="2" overflow="visible" xlink:href="#SVGID_38_"/></g></g><g><g><path id="SVGID_25_" d="M214.3,182.4c-4.5,3-5.6,9.2-2.6,13.6l30.5,44.8c1.6,2.3,4.7,3.2,7.3,2 c2.9-1.4,4.1-4.9,2.7-7.8l-23.5-48.8c-0.2-0.4-0.5-0.9-0.7-1.3c-1.9-2.8-5-4.3-8.1-4.3C217.9,180.7,216,181.2,214.3,182.4 L214.3,182.4z" class="st0"/></g><g><defs><path id="SVGID_40_" d="M214.3,182.4c-4.5,3-5.6,9.2-2.6,13.6l30.5,44.8c1.6,2.3,4.7,3.2,7.3,2c2.9-1.4,4.1-4.9,2.7-7.8 l-23.5-48.8c-0.2-0.4-0.5-0.9-0.7-1.3c-1.9-2.8-5-4.3-8.1-4.3C217.9,180.7,216,181.2,214.3,182.4"/></defs><use fill="#fff" overflow="visible" xlink:href="#SVGID_40_"/><clipPath id="SVGID_41_"><use overflow="visible" xlink:href="#SVGID_40_"/></clipPath><use fill="none" stroke="#fff" stroke-miterlimit="10" stroke-width="2" overflow="visible" xlink:href="#SVGID_40_"/></g></g><g><g><path id="SVGID_27_" d="M337.3,95c0,10.6,9.2,19.1,20.1,17.9c8.3-0.9,14.9-7.6,15.8-15.8c1.2-10.9-7.3-20-17.9-20 C345.3,77,337.3,85,337.3,95L337.3,95z" class="st0"/></g><g><defs><path id="SVGID_42_" d="M337.3,95c0,10.6,9.2,19.1,20.1,17.9c8.3-0.9,14.9-7.6,15.8-15.8c1.2-10.9-7.3-20-17.9-20 C345.3,77,337.3,85,337.3,95"/></defs><use fill="#fff" overflow="visible" xlink:href="#SVGID_42_"/><clipPath id="SVGID_43_"><use overflow="visible" xlink:href="#SVGID_42_"/></clipPath><use fill="none" stroke="#fff" stroke-miterlimit="10" stroke-width="2" overflow="visible" xlink:href="#SVGID_42_"/></g></g><g><g><path id="SVGID_29_" d="M317.5,132l-9.2,19c-3,6.1-0.6,13.7,5.9,17c5.7,2.8,12.7,0.7,16.3-4.5l11.7-17.1 c0.4-0.6,0.8-1.2,1.1-1.8c3.4-7.1,0.4-15.6-6.6-19.1c-2-1-4.1-1.4-6.2-1.4C325,124,319.9,126.9,317.5,132L317.5,132z" class="st0"/></g><g><defs><path id="SVGID_44_" d="M317.5,132l-9.2,19c-3,6.1-0.6,13.7,5.9,17c5.7,2.8,12.7,0.7,16.3-4.5l11.7-17.1c0.4-0.6,0.8-1.2,1.1-1.8 c3.4-7.1,0.4-15.6-6.6-19.1c-2-1-4.1-1.4-6.2-1.4C325,124,319.9,126.9,317.5,132"/></defs><use fill="#fff" overflow="visible" xlink:href="#SVGID_44_"/><clipPath id="SVGID_45_"><use overflow="visible" xlink:href="#SVGID_44_"/></clipPath><use fill="none" stroke="#fff" stroke-miterlimit="10" stroke-width="2" overflow="visible" xlink:href="#SVGID_44_"/></g></g><g><g><path id="SVGID_31_" d="M291.3,186.2L267.8,235c-1.2,2.6-0.4,5.7,2,7.3c2.7,1.8,6.3,1.1,8.1-1.5l30.5-44.8 c0.3-0.4,0.5-0.8,0.7-1.3c2.4-4.9,0.3-10.8-4.6-13.1c-1.4-0.7-2.8-1-4.3-1C296.5,180.6,293,182.7,291.3,186.2L291.3,186.2z" class="st0"/></g><g><defs><path id="SVGID_46_" d="M291.3,186.2L267.8,235c-1.2,2.6-0.4,5.7,2,7.3c2.7,1.8,6.3,1.1,8.1-1.5l30.5-44.8 c0.3-0.4,0.5-0.8,0.7-1.3c2.4-4.9,0.3-10.8-4.6-13.1c-1.4-0.7-2.8-1-4.3-1C296.5,180.6,293,182.7,291.3,186.2"/></defs><use fill="#fff" overflow="visible" xlink:href="#SVGID_46_"/><clipPath id="SVGID_47_"><use overflow="visible" xlink:href="#SVGID_46_"/></clipPath><use fill="none" stroke="#fff" stroke-miterlimit="10" stroke-width="2" overflow="visible" xlink:href="#SVGID_46_"/></g></g><g><g><path id="SVGID_33_" d="M146.7,425c0,10.6,9.2,19.1,20.1,17.9c8.3-0.9,14.9-7.6,15.8-15.8c1.2-10.9-7.3-20-17.9-20 C154.8,407,146.7,415.1,146.7,425L146.7,425z" class="st0"/></g><g><defs><path id="SVGID_48_" d="M146.7,425c0,10.6,9.2,19.1,20.1,17.9c8.3-0.9,14.9-7.6,15.8-15.8c1.2-10.9-7.3-20-17.9-20 C154.8,407,146.7,415.1,146.7,425"/></defs><use fill="#fff" overflow="visible" xlink:href="#SVGID_48_"/><clipPath id="SVGID_49_"><use overflow="visible" xlink:href="#SVGID_48_"/></clipPath><use fill="none" stroke="#fff" stroke-miterlimit="10" stroke-width="2" overflow="visible" xlink:href="#SVGID_48_"/></g></g><g><g><path id="SVGID_35_" d="M189.7,356.3l-11.8,17.4c-0.4,0.6-0.8,1.2-1.1,1.8c-3.4,7.1-0.5,15.6,6.6,19.1 c7.1,3.4,15.6,0.5,19-6.6l9.2-19c2.7-5.6,1-12.4-4.3-16c-2.2-1.5-4.7-2.2-7.1-2.2C196.2,350.8,192.2,352.7,189.7,356.3 L189.7,356.3z" class="st0"/></g><g><defs><path id="SVGID_50_" d="M189.7,356.3l-11.8,17.4c-0.4,0.6-0.8,1.2-1.1,1.8c-3.4,7.1-0.5,15.6,6.6,19.1c7.1,3.4,15.6,0.5,19-6.6 l9.2-19c2.7-5.6,1-12.4-4.3-16c-2.2-1.5-4.7-2.2-7.1-2.2C196.2,350.8,192.2,352.7,189.7,356.3"/></defs><use fill="#fff" overflow="visible" xlink:href="#SVGID_50_"/><clipPath id="SVGID_51_"><use overflow="visible" xlink:href="#SVGID_50_"/></clipPath><use fill="none" stroke="#fff" stroke-miterlimit="10" stroke-width="2" overflow="visible" xlink:href="#SVGID_50_"/></g></g><g><g><path id="SVGID_37_" d="M242.2,279.2L211.7,324c-0.3,0.4-0.5,0.8-0.7,1.3c-2.4,4.9-0.3,10.8,4.6,13.1 c4.9,2.4,10.7,0.3,13.1-4.6l23.5-48.8c1.2-2.6,0.4-5.7-2-7.3c-1-0.7-2.1-1-3.3-1C245.1,276.7,243.3,277.6,242.2,279.2L242.2,279.2 z" class="st0"/></g><g><defs><path id="SVGID_52_" d="M242.2,279.2L211.7,324c-0.3,0.4-0.5,0.8-0.7,1.3c-2.4,4.9-0.3,10.8,4.6,13.1c4.9,2.4,10.7,0.3,13.1-4.6 l23.5-48.8c1.2-2.6,0.4-5.7-2-7.3c-1-0.7-2.1-1-3.3-1C245.1,276.7,243.3,277.6,242.2,279.2"/></defs><use fill="#fff" overflow="visible" xlink:href="#SVGID_52_"/><clipPath id="SVGID_53_"><use overflow="visible" xlink:href="#SVGID_52_"/></clipPath><use fill="none" stroke="#fff" stroke-miterlimit="10" stroke-width="2" overflow="visible" xlink:href="#SVGID_52_"/></g></g></svg>