<svg xmlns="http://www.w3.org/2000/svg" role="img" viewBox="-17.15 -17.15 891.80 355.30"><title>Snapper Future Tech (HCSP) logo</title><style>svg {enable-background:new 0 0 857.8 321.3}</style><style>.st0{fill:#d6a329}.st1{fill:#cc5a28}.st3{fill:#eb6324}</style><path d="M141.3 0l137.8 82.4-52.2 29.5L89.1 29.8z" class="st0"/><path d="M279.2 82.2l.9 60.7-52.5 31.6-.9-62.2zm-175.3-4.8l-52.4 31.2L0 79.2l54.2-31.1z" class="st1"/><path d="M.6 79.6l51.5 28.9v161.9L0 239.6z" class="st0"/><path d="M85 229.5l52.8 31.8v58.9L85 288.5z" class="st1"/><path d="M137.8 261.6l143.3-83 1.5 62.4-144.8 80.3z" class="st0"/><path fill="#c86528" d="M83.2 127.5l55.8 32.4v62.2L83.2 191z"/><path d="M139.3 96.6l55.2 34-55.2 30-55.8-32.7z" class="st3"/><path d="M194.2 130.6v60.3l-55.6 32 .3-62.3z" class="st0"/><path d="M332.7 155.6l11.6-13.8c7.5 5.9 15.6 9 24.3 9 5.7 0 8.7-1.9 8.7-5.1v-.2c0-3.2-2.5-4.8-12.7-7.3-16-3.6-28.3-8.1-28.3-23.5v-.2c0-13.9 11-24 29-24 12.7 0 22.7 3.4 30.9 10l-10.4 14.7c-6.9-4.9-14.4-7.4-21-7.4-5 0-7.5 2-7.5 4.8v.2c0 3.4 2.6 4.9 13.1 7.3 17.1 3.7 27.9 9.3 27.9 23.4v.2c0 15.3-12.1 24.4-30.3 24.4-13.5-.1-26-4.3-35.3-12.5zm75.2-63.9h19.4l30.9 39.6V91.7h20.6v75h-18.1l-32.1-41.1v41.1H408v-75zm108.7-.5h20l31.9 75.5h-22.3l-5.4-13.5h-29l-5.4 13.5h-21.7l31.9-75.5zm18.2 45.8l-8.4-21.2L518 137h16.8zm39.7-45.3h32.2c18.9 0 31.1 9.7 31.1 26.2v.2c0 17.8-13.6 27.1-32.1 27.1h-10.4v21.4h-20.8V91.7zm30.8 37.3c7.3 0 11.9-4 11.9-9.9v-.2c0-6.4-4.6-9.7-12-9.7h-9.9V129h10zm40.1-37.3h32.2c18.9 0 31.1 9.7 31.1 26.2v.2c0 17.8-13.6 27.1-32.1 27.1h-10.4v21.4h-20.8V91.7zm30.8 37.3c7.3 0 11.9-4 11.9-9.9v-.2c0-6.4-4.6-9.7-12-9.7h-9.9V129h10zm40.1-37.3h60.3v17.6h-39.7v11.5h36v16.4h-36V149h40.3v17.7h-60.9v-75zm72.5 0h35.5c11.5 0 19.4 3 24.4 8 4.4 4.4 6.6 10.1 6.6 17.5v.2c0 11.6-6.1 19.2-15.4 23.1l17.9 26.1h-23.9L818.8 144h-9.2v22.7h-20.8v-75zm34.6 36c7 0 11.1-3.4 11.1-8.9v-.2c0-6-4.4-9-11.2-9h-13.7v18.1h13.8z"/><path d="M339 178.9h42.5v9.1H349v15.6h28.8v9.1H349V236h-10v-57.1zm53.5 41.5V193h9.9v24.5c0 6.7 3.3 10.4 9.2 10.4 5.7 0 9.7-3.9 9.7-10.6V193h10v43h-10v-6.7c-2.8 4.1-6.8 7.6-13.5 7.6-9.6 0-15.3-6.5-15.3-16.5zm57.4 3.7v-22.7h-5.5V193h5.5v-11.8h9.9V193h11.6v8.5h-11.6v21.1c0 3.8 2 5.4 5.3 5.4 2.2 0 4.2-.5 6.1-1.5v8.1c-2.4 1.4-5.1 2.2-8.9 2.2-7.2 0-12.4-3.2-12.4-12.7zm34.7-3.7V193h9.9v24.5c0 6.7 3.3 10.4 9.2 10.4 5.7 0 9.7-3.9 9.7-10.6V193h10v43h-10v-6.7c-2.8 4.1-6.8 7.6-13.5 7.6-9.7 0-15.3-6.5-15.3-16.5zM540 193h10v9.7c2.7-6.4 7.7-10.8 15.3-10.5v10.4h-.6c-8.6 0-14.7 5.6-14.7 17V236h-10v-43zm34.9 21.7v-.2c0-12.3 8.7-22.4 21-22.4 13.7 0 20.6 10.8 20.6 23.2 0 .9-.1 1.8-.2 2.8h-31.6c1.1 7 6 10.9 12.4 10.9 4.8 0 8.2-1.8 11.7-5.1l5.8 5.1c-4.1 4.9-9.7 8.1-17.6 8.1-12.5-.1-22.1-9.1-22.1-22.4zm31.9-3.2c-.7-6.4-4.4-11.3-10.9-11.3-6 0-10.3 4.6-11.2 11.3h22.1z" class="st3"/><path d="M677.5 188.2h-18.2v-9.3h46.4v9.3h-18.2V236h-10v-47.8zm31.3 26.5v-.2c0-12.3 8.7-22.4 21-22.4 13.7 0 20.6 10.8 20.6 23.2 0 .9-.1 1.8-.2 2.8h-31.6c1.1 7 6 10.9 12.4 10.9 4.8 0 8.2-1.8 11.7-5.1l5.8 5.1c-4.1 4.9-9.7 8.1-17.6 8.1-12.5-.1-22.1-9.1-22.1-22.4zm31.9-3.2c-.7-6.4-4.4-11.3-10.9-11.3-6 0-10.3 4.6-11.2 11.3h22.1zm21.5 3.3v-.2c0-12.2 9.5-22.5 22.4-22.5 8.1 0 13.1 3 17.2 7.4l-6.2 6.6c-3-3.1-6.2-5.4-11.1-5.4-7.2 0-12.5 6.2-12.5 13.7v.2c0 7.7 5.3 13.8 12.9 13.8 4.6 0 8-2.1 11.2-5.3l6 5.9c-4.2 4.7-9.2 8.1-17.6 8.1-12.8-.1-22.3-10.1-22.3-22.3zm52.7-38.3h10v23.1c2.8-4 6.8-7.5 13.5-7.5 9.7 0 15.3 6.5 15.3 16.5V236h-9.9v-24.5c0-6.7-3.3-10.5-9.2-10.5-5.7 0-9.7 4-9.7 10.7V236h-10v-59.5z"/></svg>