<svg xmlns="http://www.w3.org/2000/svg" role="img" xmlns:xlink="http://www.w3.org/1999/xlink" viewBox="147.14 94.89 265.46 209.96"><title>Solana logo</title><linearGradient id="a"><stop offset="0" stop-color="#00ffa3"/><stop offset="1" stop-color="#dc1fff"/></linearGradient><linearGradient id="b" x1="0" x2="1" y1="0" y2="0" gradientTransform="rotate(117.568 191.851 90.605) scale(474.64)" gradientUnits="userSpaceOnUse" xlink:href="#a"/><linearGradient id="c" x1="0" x2="1" y1="0" y2="0" gradientTransform="rotate(117.568 159.061 36.53) scale(474.64)" gradientUnits="userSpaceOnUse" xlink:href="#a"/><linearGradient id="d" x1="0" x2="1" y1="0" y2="0" gradientTransform="rotate(117.568 175.456 63.28) scale(474.64)" gradientUnits="userSpaceOnUse" xlink:href="#a"/><path fill="url(#b)" d="M64.6 237.9c2.4-2.4 5.7-3.8 9.2-3.8h317.4c5.8 0 8.7 7 4.6 11.1l-62.7 62.7c-2.4 2.4-5.7 3.8-9.2 3.8H6.5c-5.8 0-8.7-7-4.6-11.1z" transform="translate(152.409 100) scale(.64164)"/><path fill="url(#c)" d="M64.6 3.8C67.1 1.4 70.4 0 73.8 0h317.4c5.8 0 8.7 7 4.6 11.1l-62.7 62.7c-2.4 2.4-5.7 3.8-9.2 3.8H6.5c-5.8 0-8.7-7-4.6-11.1z" transform="translate(152.409 100) scale(.64164)"/><path fill="url(#d)" d="M333.1 120.1c-2.4-2.4-5.7-3.8-9.2-3.8H6.5c-5.8 0-8.7 7-4.6 11.1l62.7 62.7c2.4 2.4 5.7 3.8 9.2 3.8h317.4c5.8 0 8.7-7 4.6-11.1z" transform="translate(152.409 100) scale(.64164)"/></svg>