<svg xmlns="http://www.w3.org/2000/svg" role="img" viewBox="365.24 236.74 556.52 845.52"><title>Solidity logo</title><g><g><g><path d="M371.772,135.308L241.068,367.61H-20.158l130.614-232.302 H371.772" opacity=".45" transform="translate(402 118)"/><path d="M241.068,367.61h261.318L371.772,135.308H110.456 L241.068,367.61z" opacity=".6" transform="translate(402 118)"/><path d="M110.456,599.822L241.068,367.61L110.456,135.308 L-20.158,367.61L110.456,599.822z" opacity=".8" transform="translate(402 118)"/><path d="M111.721,948.275l130.704-232.303h261.318L373.038,948.275 H111.721" opacity=".45" transform="translate(402 118)"/><path d="M242.424,715.973H-18.893l130.613,232.303h261.317 L242.424,715.973z" opacity=".6" transform="translate(402 118)"/><path d="M373.038,483.761L242.424,715.973l130.614,232.303 l130.704-232.303L373.038,483.761z" opacity=".8" transform="translate(402 118)"/></g></g></g></svg>