<svg xmlns="http://www.w3.org/2000/svg" role="img" viewBox="-99.90 -99.90 5194.80 1444.80"><title>Stellar logo</title><style>svg {shape-rendering:geometricPrecision;text-rendering:geometricPrecision;image-rendering:optimizeQuality;fill-rule:evenodd;clip-rule:evenodd}</style><path fill-rule="nonzero" d="M3834 185h111v880h-111V185zm-221 0h110v880h-110V185zm855 607c0 154-99 201-202 201-79 0-126-41-126-103 0-90 128-120 328-139v41zm100 28l1-152c2-185-76-269-259-269-126 0-253 79-262 220h114c5-81 57-130 149-130 83 0 148 39 148 159v16c-267 29-442 75-442 229 0 120 102 188 225 188 116 0 183-37 223-105 1 30 4 60 9 89h111c-14-62-18-136-17-246v1zm399-411c-86 3-151 43-184 117V412h-108v653h110V722c0-145 51-200 153-200 21 1 41 2 62 6V410c-11-1-22-1-33-1zM2779 249h-111v163h-103v89h103v400c0 136 29 164 154 164h81v-93h-56c-63 0-68-17-68-84V501h124v-89h-124V249zm-533 312l-102-23c-83-19-144-57-144-135 0-99 119-129 187-129 88 0 190 35 219 136h120c-35-169-175-240-333-240-142 0-318 71-318 240 0 146 120 214 241 240l110 23c111 26 189 62 189 156 0 87-74 148-205 148-137 0-220-63-243-185h-121c23 175 154 289 361 289 175 0 335-92 335-264 0-177-162-228-296-257v1zm791 120c10-132 100-185 197-185 118 0 184 92 188 185h-385zm197-280c-178 0-317 132-317 339 0 193 114 341 320 341 159 0 264-93 292-205h-112c-28 64-82 108-179 108s-198-68-201-208h502c14-208-104-374-304-374l-1-1zm-1757-88L311 907l-102 51L0 1065v128l208-106 178-91 860-438c37 280-160 537-440 574-22 3-45 5-68 5-87 0-173-23-250-66l-6 4-110 55c279 203 670 141 873-139 77-106 119-234 119-366 0-16 0-32-2-48-3-46 21-89 62-110l53-28V313zm-208-149l-178 90-859 438c-37-280 161-537 441-574 109-14 220 7 316 61l102-52 15-8C827-84 436-21 233 258c-78 107-119 235-119 367 0 16 0 32 1 48 4 45-20 89-61 110L0 810v128l158-81 51-26 51-25 905-462 102-52 210-107V57l-208 107z"/></svg>