<svg xmlns="http://www.w3.org/2000/svg" role="img" viewBox="-38.38 -38.38 1995.76 375.76"><title>Taekion logo</title><style>svg {enable-background:new 0 0 1920 1080}</style><path fill="#646363" d="M318.5 176.1h46.8l104 .1 50 114.5h-53.6L436.5 221H300l-29.7 69.7h-51.9L345.3 0h46.8l-29.7 73.6-43.9 102.5zm564.4-30.8L1027.2 1h71.7L954.7 145.2l144.4 144.4h-71.7L918.9 181l-36-35.7zm-56.6 144.4V1H877v288.6h-50.7v.1zm-286 0v-45.3h216.1v45.3H540.3zm0-122.9v-45.3h216.1v45.3H540.3zm0-120.5V1h216.1v45.3H540.3zM1173 1h50.7v288.7H1173zm495.3 288.7h49.9V84.4l159.2 205.3h42.5V1H1870v199.6L1715.2 1h-46.9v288.7zm-1576.6 0h51.1V48h91.6V1H.2v47h91.6l-.1 241.7z"/><path fill="#9d9d9c" d="M1436.7 299.3h-18.4c-24.9-5.2-47.6-16.6-66.4-32.4l35.4-35.4c14 10.8 30.9 18.1 49.3 20.4l.1 47.4zm-103.2-50.9c-19.5-23.2-32.2-52.2-35.1-84.1h50.2c2.4 18.2 9.7 34.8 20.4 48.7l-35.5 35.4zm129.3 50.9v-47.4c18.1-2.3 34.6-9.3 48.5-19.8l35.5 35.5c-18.6 15.5-41 26.6-65.5 31.7h-18.5zm102.6-50.1l-35.4-35.4c11.1-14 18.5-30.9 21-49.5h50.2c-3 32.2-16 61.6-35.8 84.9zm-20.2-134.9c-3.6-9.5-8.6-18.2-14.6-26.1l35.4-35.4c14.7 17.4 25.5 38.2 31.2 61-17.5.2-34.9.3-52 .5zm-33.1-44.6c-14-10.8-30.9-18.1-49.3-20.4V1.9h18.5c24.9 5.2 47.5 16.6 66.3 32.4l-35.5 35.4zm-210.7 47.8c5.3-23.9 16.3-45.7 31.4-64l35.5 35.5c-6.3 8.3-11.4 17.7-14.9 27.7-17.7.3-35 .5-52 .8zm85.2-47.1L1351.2 35c18.9-16.1 41.9-27.7 67.1-33h18.4v47.4c-18.8 2.3-36 9.8-50.1 21z"/></svg>