<svg xmlns="http://www.w3.org/2000/svg" role="img" viewBox="-5.66 -5.66 294.58 47.33"><title>TradeLens logo</title><path fill="#101212" d="M0 2.701c0 .252.126.377.377.377h12.57v32.736c0 .251.126.377.377.377h2.639c.251 0 .377-.126.377-.377V3.078h12.544c.251 0 .377-.276.377-.528V.377c0-.251-.126-.377-.377-.377H.377C.126 0 0 .126 0 .377v2.324M171.922.377c0-.251-.125-.377-.377-.377h-2.638c-.251 0-.377.126-.377.377v35.437c0 .251.126.377.377.377h19.729c.251 0 .377-.126.377-.377v-2.325c0-.252-.126-.377-.377-.377h-16.714V.377m24.755 35.437c0 .251.126.377.377.377h19.792c.251 0 .377-.126.377-.377v-2.325c0-.252-.126-.378-.377-.378h-16.775V21.174h15.518c.252 0 .377-.126.377-.377v-2.325c0-.251-.125-.377-.377-.377h-15.518V6.157h16.775c.251 0 .377-.126.377-.377V3.455c0-.251-.126-.377-.377-.377h-19.792c-.251 0-.377.126-.377.377v32.359m-56.667-4.776c0-.251-.126-.377-.377-.377h-2.639c-.251 0-.377.126-.377.377v4.775c0 .252.126.378.377.378h19.792c.251 0 .377-.126.377-.378v-2.324c0-.252-.126-.377-.377-.377H140.01v-2.074"/><path fill="#E3672C" d="M136.617 27.206c0 .251.126.377.377.377h2.639c.251 0 .377-.126.377-.377v-6.032h5.843c.251 0 .377-.126.377-.377v-2.325c0-.252-.126-.377-.377-.377h-5.843V12c0-.251-.126-.376-.377-.376h-2.639c-.251 0-.377.125-.377.376v6.095h-6.095c-.251 0-.377.125-.377.377v2.325c0 .251.126.377.377.377h6.095v6.032"/><path fill="#101212" d="M136.617 8.168c0 .251.126.377.377.377h2.639c.251 0 .377-.126.377-.377V6.157h16.776c.252 0 .377-.126.377-.377V3.455c0-.251-.125-.377-.377-.377h-19.792c-.251 0-.377.126-.377.377v4.713m12.755 12.629c0 .252.125.377.377.377h5.78c.252 0 .377-.125.377-.377v-2.325c0-.251-.125-.377-.377-.377h-5.78c-.252 0-.377.126-.377.377v2.325m113.519 8.67c-.126-.125-.377-.125-.503 0l-1.822 1.823c-.125.125-.125.377 0 .502l4.084 4.147c.126.126.377.252.629.252H278.5c.251 0 .503-.126.629-.252l4.084-4.147c.125-.125.251-.377.251-.628v-8.231c0-.251-.126-.503-.251-.628l-4.084-4.084c-.126-.126-.378-.252-.629-.252h-11.462l-2.828-2.764V8.922l2.765-2.765h10.395l3.582 3.644c.125.126.376.126.502 0l1.822-1.822c.126-.126.126-.377 0-.502l-4.084-4.148c-.126-.125-.377-.251-.628-.251h-12.782c-.252 0-.503.126-.629.251l-4.084 4.148c-.126.125-.252.376-.252.628v7.979c0 .252.126.503.252.629l4.084 4.084c.126.126.377.251.629.251h11.463l2.827 2.765v6.534l-2.765 2.764h-10.835l-3.581-3.644M234.689 3.455c-.063-.251-.251-.377-.502-.377h-6.095c-.251 0-.377.126-.377.377v32.359c0 .251.126.377.377.377h2.45c.251 0 .377-.126.377-.377V6.157h1.257l11.75 29.657c.063.251.251.377.502.377h6.095c.252 0 .377-.126.377-.377V3.455c0-.251-.125-.377-.377-.377h-2.45c-.252 0-.377.126-.377.377v29.657h-1.32L234.689 3.455M77.99 6.157h1.821l5.341 16.776H72.586L77.99 6.157zm11.246 29.657c.063.251.252.377.503.377h2.765c.251 0 .313-.126.251-.377L82.451 3.455c-.063-.251-.252-.377-.503-.377h-6.032c-.251 0-.44.126-.502.377L65.109 35.814c-.063.251 0 .377.251.377h2.639c.251 0 .44-.126.503-.377l3.141-9.802h14.452l3.141 9.802M51.613 18.221H38.858V6.157h12.818l2.764 2.765v6.534l-2.827 2.765zm1.257 3.078c.251 0 .502-.125.627-.251l4.084-4.084c.126-.125.252-.376.252-.628V8.105c0-.252-.126-.503-.252-.628l-4.084-4.148c-.125-.125-.376-.251-.627-.251H35.842c-.252 0-.377.126-.377.377v32.359c0 .251.125.377.377.377h2.639c.251 0 .377-.126.377-.377V21.299h6.409L55.32 35.877c.126.188.314.314.565.314h3.33c.251 0 .314-.126.189-.314L49.225 21.299h3.645m66.035 14.892c.252 0 .503-.126.629-.252l4.084-4.084c.125-.125.251-.377.251-.628V8.105c0-.251-.126-.503-.251-.628l-4.084-4.147c-.126-.126-.377-.252-.629-.252h-17.593c-.251 0-.377.126-.377.377v32.358c0 .252.126.378.377.378h17.593zm-1.257-3.079h-13.32V6.157h13.383l2.765 2.765v21.425l-2.828 2.765"/></svg>