<svg xmlns="http://www.w3.org/2000/svg" role="img" viewBox="24.86 24.86 319.02 85.02"><title>UCLA Blockchain Lab (member) logo</title><path d="M313 32h1v1h-1zm-148 8h1v1h-1zm101 0h1v1h-1zm-104 1h1v1h-1zm24 1h1v1h-1zm33 1h1v1h-1zm-77 1h1v1h-1zm89 4h1v1h-1zm101 0h1v1h-1zm-55 1h1v12h-1zm-64 3h1v1h-1zm-74 2h1v1h-1zm35 0h1v1h-1zm5 0h1v1h-1zm11 4h1v1h-1zm99 0h1v1h-1zm-64 1h1v1h-1zm-99 1h1v1h-1zm151 1h1v1h-1zm-33 2h1v1h-1zm-41 16h1v1h-1zm-7 4h1v1h-1zm-59 2h1v1h-1zm40 12h1v1h-1zm48 4h1v1h-1zm-95 1h1v1h-1zm50 0h1v1h-1zm24 0h1v1h-1zm37 0h1v1h-1z" fill="#0d0d0d"/><path d="M271 40h1v1h-1zm53 1h1v1h-1zm-48 3h1v1h-1zm-55 4h1v1h-1zm116 0h1v1h-1zm-158 1h1v1h-1zm-53 6h1v1h-1zm30 0h1v1h-1zm-13 2h1v1h-1zm-14 1h1v1h-1zm-4 2h1v1h-1zm44 3h1v1h-1zm26 0h1v1h-1zm95 0h1v1h-1zm-48 16h1v1h-1zm4 7h1v1h-1zm-47 1h1v1h-1zm35 0h1v1h-1zm-101 15h1v1h-1zm74 0h1v1h-1zm31 0h1v1h-1z" fill="#1d1d1d"/><path d="M126 42h1v1h-1zm33 1h1v1h-1zm-20 6h1v1h-1zm59 32h1v1h-1zm48 14h1v1h-1z" fill="#343434"/><path d="M309 31h4v1h-4zm4 0h1v1h-1zm-75 9h1v1h-1zm-37 2h1v1h-1zm89 3h1v1h-1zm47 0h1v1h-1zm-148 1h1v1h-1zm34 0h1v1h-1zm101 0h1v1h-1zm-137 3h1v1h-1zm-32 2h1v1h-1zm125 0h1v1h-1zm-125 1h1v1h-1zm75 0h1v1h-1zm50 0h1v1h-1zm-119 1h1v1h-1zm138 0h1v1h-1zm-126 2h1v1h-1zm-30 3h1v1h-1zm32 3h1v1h-1zm-50 2h1v1h-1zm12 0h1v1h-1zm76 0h1v1h-1zm100 0h1v1h-1zM144 79h1v1h-1zm26 0h1v1h-1zm15 0h1v1h-1zm16 0h1v1h-1zm-62 2h1v1h-1zm92 1h1v1h-1zm-109 1h1v1h-1zm93 0h1v1h-1zm-87 2h1v1h-1zm101 0h1v1h-1zm-102 1h1v1h-1zm66 3h1v1h-1zm0 3h1v1h-1zm-55 2h1v1h-1zm-10 2h1v1h-1zm101 0h1v1h-1zm-99 1h1v1h-1zm48 0h1v1h-1zm-56 1h1v1h-1zm109 1h1v1h-1zm-92 1h1v1h-1zm74 0h1v1h-1zm-76 1h1v1h-1zm47 0h1v1h-1z" fill="#b1b1b1"/><path d="M122 32h3v1h-3zm3 0h1v1h-1zm23 0h3v1h-3zm3 0h1v1h-1zm58 0h3v1h-3zm3 0h1v1h-1zm46 0h4v1h-4zm4 0h1v1h-1zm-142 1h1v29h-1zm11 6h1v1h-1zm41 1h1v1h-1zm75 0h1v1h-1zm-106 2h1v1h-1zm143 0h1v1h-1zm-7 3h1v1h-1zm-13 1h1v1h-1zm17 0h1v1h-1zm-154 1h1v1h-1zm120 0h1v1h-1zm-27 5h1v1h-1zm-41 4h1v1h-1zm-8 1h1v1h-1zm110 0h1v1h-1zm-115 1h1v1h-1zm75 0h1v1h-1zm50 0h1v1h-1zm3 0h1v1h-1zm-11 2h1v1h-1zm-163 2h1v1h-1zm41 0h1v1h-1zm75 0h1v1h-1zm-47 1h1v1h-1zm-62 16h1v1h-1zm12 0h1v1h-1zm105 0h1v1h-1zm-35 6h1v1h-1zm-89 2h1v1h-1zm79 2h1v1h-1zm-73 4h1v1h-1zm-6 1h1v1h-1zm122 3h1v1h-1z" fill="#d0d0d0"/><path d="M126 33h1v1h-1zm6 6h2v1h-2zm2 0h1v1h-1zm183 1h1v1h-1zm5 0h1v1h-1zm-161 1h1v1h-1zm65 1h1v1h-1zm50 1h1v1h-1zm-36 2h1v1h-1zm-67 3h1v1h-1zm8 1h1v1h-1zm105 1h1v1h-1zm-50 3h1v1h-1zm44 0h1v1h-1zm-142 2h1v1h-1zm86 2h1v1h-1zm-23 4h1v1h-1zm7 2h1v1h-1zm100 0h1v1h-1zm-154 9h1v1h-1zm78 9h1v1h-1zm-75 3h1v1h-1zm46 0h1v1h-1zm35 0h1v1h-1zm-28 2h1v1h-1zm-83 9h1v1h-1zm57 0h1v1h-1zm25 1h1v1h-1zm6 2h1v1h-1zm-71 4h1v1h-1zm31 0h1v1h-1zm45 0h1v1h-1z" fill="#bcbcbc"/><g fill="#fff"><path d="M0 0h371v30H0zm371 0h1v134h-1zM0 30h371v1H0zm0 1h64v3H0zm64 0h1v1h-1zm6 0h237v1H70zm237 0h1v103h-1zm7 0h57v7h-57zM64 32h1v1h-1zm6 0h49v1H70zm49 0h1v102h-1zm8 0h19v6h-19zm19 0h1v46h-1zm7 0h54v6h-54zm54 0h1v46h-1zm7 0h42v6h-42zm42 0h1v102h-1zm7 0h44v1h-44zM71 33h48v1H71zm193 0h43v5h-43zM0 34h63v1H0zm63 0h1v1h-1zm8 0h48v1H71zM0 35h60v1H0zm60 0h1v1h-1zm14 0h45v1H74zM0 36h58v1H0zm58 0h1v1h-1zm6 0h1v17h-1zm6 0h1v20h-1zm6 0h43v1H76zM0 37h55v1H0zm55 0h1v1h-1z"/><path d="M62 37h4v16h-4zm4 0h1v1h-1zm3 0h3v19h-3zm3 0h1v19h-1zm7 0h40v1H79zM0 38h53v1H0zm53 0h1v1h-1z"/><path d="M59 38h6v15h-6zm14 0h2v18h-2zm2 0h1v18h-1zm6 0h38v1H81zm46 0h19v1h-19zm26 0h54v1h-54zm61 0h42v1h-42zm50 0h107v1H264zM0 39h50v1H0zm50 0h1v1h-1z"/><path d="M57 39h8v14h-8zm19 0h1v17h-1zm1 0h1v17h-1zm7 0h35v1H84zm43 0h2v1h-2zm2 0h1v1h-1zm8 0h9v1h-9zm16 0h12v1h-12zm12 0h1v1h-1zm5 0h21v1h-21zm21 0h1v1h-1zm4 0h12v1h-12zm19 0h26v1h-26zm26 0h1v1h-1zm5 0h11v1h-11zm19 0h2v1h-2zm2 0h1v1h-1zm5 0h19v1h-19zm19 0h1v1h-1zm4 0h32v1h-32zm32 0h1v1h-1zm5 0h40v1h-40zM0 40h48v1H0zm48 0h1v1h-1z"/><path d="M54 40h11v12H54zm24 0h2v16h-2zm2 0h1v12h-1zm6 0h4v1h-4zm4 0h29v1H90zm37 0h1v1h-1zm12 0h7v1h-7zm14 0h9v1h-9zm9 0h1v1h-1zm11 0h14v1h-14zm14 0h1v1h-1zm12 0h8v1h-8zm15 0h6v1h-6zm6 0h1v1h-1zm8 0h9v1h-9zm9 0h1v1h-1zm11 0h8v1h-8zm15 0h1v1h-1zm11 0h12v1h-12zm12 0h1v1h-1zm11 0h1v1h-1zm1 0h1v1h-1zm7 0h2v94h-2zm9 0h2v94h-2zm2 0h1v94h-1zm7 0h1v1h-1zm1 0h1v1h-1zm10 0h37v1h-37zM0 41h40v9H0zm40 0h1v1h-1zm6 0h1v1h-1z"/><path d="M52 41h13v9H52zm29 0h1v10h-1zm1 0h1v9h-1zm12 0h25v1H94zm47 0h5v1h-5zm12 0h7v1h-7zm7 0h1v1h-1zm15 0h11v1h-11zm11 0h1v1h-1zm15 0h6v1h-6zm13 0h5v2h-5zm5 0h1v1h-1zm9 0h7v1h-7zm7 0h1v1h-1zm15 0h6v1h-6zm25 0h9v1h-9zm9 0h1v1h-1zm51 0h36v1h-36zM40 42h1v6h-1z"/><path d="M50 42h15v6H50zm33 0h1v7h-1zm1 0h1v6h-1zm10 0h25v6H94zm48 0h4v1h-4zm11 0h6v1h-6zm6 0h1v1h-1zm17 0h8v1h-8zm8 0h1v1h-1zm18 0h5v1h-5zm25 0h6v2h-6zm6 0h1v1h-1zm18 0h5v1h-5zm25 0h7v1h-7zm7 0h1v1h-1zm53 0h35v1h-35z"/><path d="M47 43h18v2H47zm38 0h2v3h-2zm2 0h1v2h-1zm56 0h3v1h-3zm10 0h5v1h-5zm5 0h1v1h-1zm19 0h6v1h-6zm6 0h1v1h-1zm20 0h4v1h-4zm11 0h4v1h-4zm4 0h1v1h-1zm8 0h6v2h-6zm26 0h4v1h-4zm25 0h5v1h-5zm5 0h1v1h-1zm55 0h34v1h-34zm-194 1h3v1h-3zm10 0h4v1h-4zm4 0h1v1h-1zm21 0h4v1h-4zm4 0h1v1h-1zm22 0h3v1h-3zm10 0h3v2h-3zm3 0h1v1h-1z"/><path d="M225 44h7v1h-7zm7 0h1v1h-1zm21 0h3v1h-3zm24 0h4v1h-4zm4 0h1v1h-1zm57 0h33v90h-33zM47 45h18v1H47zm40 0h1v1h-1zm44 0h3v12h-3zm3 0h1v12h-1zm10 0h2v1h-2zm9 0h3v3h-3zm3 0h1v1h-1zm11 0h1v12h-1zm1 0h1v12h-1zm11 0h3v1h-3zm3 0h1v1h-1zm11 0h1v12h-1zm1 0h1v12h-1zm11 0h2v1h-2zm20 0h6v3h-6zm6 0h1v1h-1zm11 0h1v12h-1zm1 0h1v12h-1zm11 0h2v1h-2zm13 0h1v89h-1zm1 0h1v89h-1zm10 0h3v3h-3zm3 0h1v1h-1zm11 0h1v12h-1zm1 0h1v12h-1zm34 0h1v89h-1zm1 0h1v89h-1zM41 46h1v1h-1zm7 0h17v1H48zm37 0h1v1h-1zm1 0h1v1h-1zm7 0h26v1H93z"/><path d="M129 46h7v11h-7zm7 0h1v10h-1zm9 0h1v3h-1zm19 0h6v10h-6zm6 0h1v11h-1zm9 0h2v1h-2zm2 0h1v1h-1zm9 0h6v11h-6zm6 0h1v11h-1zm9 0h2v1h-2zm9 0h2v1h-2zm2 0h1v1h-1zm8 0h6v10h-6zm15 0h6v10h-6zm6 0h1v11h-1zm9 0h2v1h-2zm11 0h5v88h-5zm5 0h1v88h-1zm19 0h7v11h-7zm7 0h1v11h-1zm29 0h5v88h-5zm5 0h1v88h-1zM43 47h2v18h-2zm2 0h1v40h-1zm4 0h16v1H49zm36 0h1v1h-1zm4 0h2v19h-2zm2 0h1v19h-1z"/><path d="M128 47h9v9h-9zm9 0h1v8h-1zm26 0h8v9h-8zm8 0h1v9h-1zm9 0h1v2h-1zm1 0h1v1h-1zm8 0h8v9h-8zm8 0h1v9h-1zm9 0h1v30h-1zm8 0h1v2h-1zm1 0h1v1h-1zm8 0h7v8h-7zm15 0h8v9h-8zm8 0h1v9h-1zm9 0h1v87h-1zm9 0h6v87h-6zm24 0h9v9h-9zm9 0h1v9h-1zm27 0h6v87h-6zM40 48h1v1h-1zm6 0h1v38h-1zm4 0h15v1H50zm34 0h1v1h-1zm4 0h3v18h-3zm6 0h25v1H94z"/><path d="M127 48h10v7h-10zm26 0h2v22h-2zm2 0h1v1h-1zm17 0h1v7h-1zm16 0h10v7h-10zm10 0h1v7h-1zm24 0h8v6h-8zm8 0h1v1h-1zm7 0h10v6h-10zm10 0h1v7h-1zm24 0h1v86h-1zm7 0h2v86h-2zm2 0h1v1h-1zm51 0h1v86h-1zM47 49h1v36h-1zm4 0h14v1H51zm32 0h1v1h-1zm4 0h5v17h-5zm5 0h1v17h-1zm3 0h24v1H95zm43 0h1v5h-1zm7 0h1v1h-1z"/><path d="M162 49h11v5h-11zm11 0h1v5h-1zm7 0h1v1h-1zm19 0h8v5h-8zm15 0h1v1h-1zm34 0h8v5h-8zm39 0h11v5h-11zm11 0h1v5h-1zM0 50h39v3H0zm39 0h1v1h-1zm3 0h6v15h-6zm6 0h1v16h-1zm4 0h13v1H52zm30 0h1v1h-1zm4 0h6v16h-6zm9 0h24v1H95zm126 0h8v2h-8zM49 51h1v15h-1zm4 0h12v1H53zm28 0h1v1h-1z"/><path d="M85 51h7v15h-7zm11 0h23v2H96zm30 0h12v1h-12zm94 0h9v1h-9zM41 52h9v13h-9zm9 0h1v13h-1zm4 0h12v1H54zm12 0h14v3H66zm14 0h1v4h-1z"/><path d="M84 52h9v7h-9zm9 0h1v14h-1zm33 0h12v1h-12zm95 0h8v1h-8zM0 53h38v2H0zm38 0h1v1h-1zm13 0h1v12h-1zm4 0h24v1H55z"/><path d="M83 53h10v4H83zm13 0h23v1H96zm-56 1h12v11H40zm12 0h1v11h-1zm4 0h7v1h-7zm7 0h17v1H63z"/><path d="M82 54h12v3H82zm12 0h1v12h-1zm3 0h22v1H97zm41 0h1v1h-1zm7 0h1v80h-1zm17 0h11v1h-11zm11 0h1v1h-1zm7 0h1v42h-1zm19 0h8v1h-8zm15 0h1v27h-1zm8 0h7v1h-7zm15 0h19v1h-19zm50 0h11v1h-11zm11 0h1v1h-1zM0 55h37v3H0zm37 0h1v1h-1zm16 0h1v9h-1zm4 0h5v1h-5zm5 0h1v1h-1z"/><path d="M66 55h28v1H66zm31 0h22v1H97zm30 0h10v1h-10zm10 0h1v1h-1zm18 0h1v23h-1zm17 0h1v1h-1zm16 0h10v1h-10zm10 0h1v1h-1zm25 0h7v1h-7zm7 0h1v27h-1zm17 0h1v1h-1zm33 0h1v79h-1zM54 56h1v8h-1zm4 0h4v2h-4zm4 0h1v1h-1zm5 0h27v1H67zm31 0h21v2H98zm30 0h8v1h-8zm8 0h1v1h-1zm27 0h8v1h-8zm8 0h1v1h-1zm10 0h1v40h-1zm8 0h8v1h-8zm8 0h1v1h-1zm18 0h1v26h-1zm9 0h6v1h-6zm14 0h8v1h-8zm8 0h1v1h-1zm42 0h9v1h-9zm9 0h1v1h-1z"/><path d="M39 57h16v7H39zm16 0h1v5h-1zm27 0h13v1H82zm13 0h1v9h-1zm34 0h6v1h-6zm6 0h1v1h-1zm9 0h2v21h-2zm21 0h5v1h-5zm5 0h1v1h-1zm9 0h2v39h-2zm11 0h6v1h-6zm6 0h1v1h-1zm9 0h2v20h-2zm11 0h1v26h-1zm9 0h5v1h-5zm15 0h5v1h-5zm5 0h1v1h-1zm9 0h2v77h-2zm35 0h7v1h-7zm7 0h1v1h-1zM0 58h36v2H0zm36 0h1v1h-1zm20 0h5v1h-5zm5 0h1v1h-1zm37 0h21v1H98zm58 0h1v20h-1zm26 0h1v38h-1zm35 0h1v27h-1zm9 0h5v1h-5zm5 0h1v23h-1zm50 0h1v76h-1z"/><path d="M38 59h22v1H38zm22 0h1v1h-1zm24 0h12v1H84zm12 0h1v7h-1zm3 0h20v1H99zm44 0h3v19h-3zm14 0h1v19h-1zm21 0h5v37h-5zm5 0h1v36h-1zm21 0h3v18h-3zm23 0h5v1h-5zm5 0h1v21h-1zm21 0h3v75h-3zM0 60h35v2H0zm35 0h1v1h-1zm3 0h20v1H38zm20 0h1v1h-1zm41 0h20v1H99zm59 0h1v74h-1z"/><path d="M177 60h6v35h-6zm26 0h4v17h-4zm15 0h1v74h-1zm9 0h6v1h-6zm6 0h1v19h-1zm19 0h4v18h-4zm30 0h1v74h-1zM38 61h18v1H38zm18 0h1v1h-1zm44 0h19v1h-19zm42 0h4v17h-4zm17 0h1v73h-1z"/><path d="M176 61h9v30h-9zm9 0h1v17h-1zm17 0h5v16h-5zm17 0h1v73h-1zm9 0h6v1h-6zm6 0h1v18h-1zm17 0h5v17h-5zm32 0h1v73h-1zM0 62h34v1H0zm34 0h1v1h-1zm3 0h18v2H37zm18 0h1v1h-1zm42 0h1v4h-1zm3 0h19v1h-19zm26 0h1v17h-1zm14 0h6v16h-6zm20 0h1v72h-1z"/><path d="M175 62h11v16h-11zm11 0h1v16h-1zm15 0h6v15h-6zm28 0h6v17h-6zm6 0h1v16h-1zm15 0h6v16h-6zm34 0h1v72h-1zm14 0h1v72h-1zM0 63h33v1H0zm33 0h1v1h-1zm68 0h18v1h-18zm26 0h1v15h-1zm1 0h1v15h-1zm11 0h7v15h-7zm22 0h1v71h-1zm1 0h1v71h-1z"/><path d="M173 63h15v15h-15zm15 0h1v15h-1zm11 0h8v14h-8zm21 0h1v7h-1zm16 0h1v15h-1zm1 0h1v15h-1zm11 0h8v15h-8zm15 0h8v71h-8zm22 0h1v71h-1zm1 0h1v71h-1zm11 0h1v71h-1zm26 0h8v71h-8zM0 64h32v1H0zm32 0h1v1h-1zm4 0h18v1H36zm18 0h1v1h-1zm5 0h1v1h-1zm39 0h1v1h-1z"/><path d="M102 64h269v1H102zM0 65h30v69H0zm30 0h1v69h-1zm7 0h15v1H37zm15 0h1v1h-1zm7 0h1v1h-1zm39 0h1v1h-1zm6 0h267v5H104zm-56 1h1v1h-1zm1 0h1v1h-1zm36 0h12v1H85zm12 0h1v1h-1zm-12 1h2v16h-2zm2 0h1v18h-1zm-50 1h10v4H37z"/><path d="M36 69h11v1H36zm52 0h10v4H88zm10 0h1v1h-1zm-67 1h1v64h-1zm1 0h1v64h-1zm4 0h12v1H36zm12 0h1v14h-1zm50 0h1v1h-1zm4 0h269v1H102zm-69 1h1v63h-1zm1 0h1v63h-1zm15 0h1v12h-1zm52 0h46v6h-46zm46 0h1v7h-1zm16 0h56v6h-56zm63 0h145v6H226z"/><path d="M37 72h13v1H37zm13 0h1v10h-1zm50 0h47v5h-47zm-62 1h12v2H38zm50 0h9v2h-9zm9 0h1v1h-1zm-62 1h1v60h-1zm16 0h1v7h-1zm1 0h1v6h-1z"/><path d="M84 74h12v3H84zm15 0h48v3H99zm-61 1h21v1H38zm21 0h1v21h-1zm37 0h1v1h-1zm-60 1h1v58h-1z"/><path d="M39 76h26v1H39zm26 0h1v22h-1zm33 0h49v1H98z"/><path d="M39 77h28v1H39zm28 0h1v2h-1zm17 0h11v3H84zm11 0h1v1h-1zm3 0h49v1H98zm65 0h56v1h-56zm63 0h145v1H226zM40 78h14v1H40zm14 0h1v1h-1z"/><path d="M57 78h13v1H57zm13 0h1v20h-1zm13 0h11v4H83zm15 0h31v1H98zm31 0h1v1h-1zm5 0h13v1h-13zm13 0h1v1h-1zm8 0h48v1h-48zm48 0h1v1h-1zm4 0h12v1h-12zm19 0h11v1h-11zm11 0h1v1h-1zm5 0h129v1H242zM37 79h1v55h-1zm3 0h13v1H40zm13 0h1v1h-1z"/><path d="M57 79h17v1H57zm17 0h1v17h-1zm23 0h29v1H97zm29 0h1v1h-1zm11 0h1v1h-1zm1 0h1v1h-1zm25 0h6v55h-6zm6 0h1v55h-1zm22 0h8v1h-8zm8 0h1v1h-1zm12 0h8v1h-8zm15 0h8v1h-8zm8 0h1v1h-1zm11 0h1v1h-1zm1 0h1v1h-1zm11 0h114v55H257zM40 80h12v1H40zm12 0h1v1h-1zm4 0h10v14H56z"/><path d="M66 80h10v1H66zm10 0h1v15h-1zm6 0h12v2H82zm12 0h1v1h-1zm3 0h27v1H97zm27 0h1v1h-1zm14 0h1v1h-1zm53 0h7v1h-7zm7 0h1v1h-1zm15 0h6v1h-6zm13 0h6v1h-6zm6 0h1v1h-1zm14 0h1v1h-1zM38 81h1v53h-1zm3 0h10v1H41zm10 0h1v1h-1zm4 0h10v13H55zm14 0h7v15h-7z"/><path d="M81 81h12v1H81zm15 0h27v1H96zm27 0h1v1h-1zm68 0h5v1h-5zm5 0h1v1h-1zm18 0h5v1h-5zm12 0h5v1h-5zm5 0h1v1h-1zM41 82h9v1h-9zm9 0h1v1h-1zm4 0h11v12H54zm23 0h1v13h-1zm1 0h15v1H78zm15 0h1v1h-1zm3 0h26v1H96zm26 0h1v1h-1zm69 0h4v2h-4zm4 0h1v1h-1zm20 0h4v1h-4zm11 0h4v2h-4zm4 0h1v1h-1zM42 83h7v1h-7zm7 0h1v1h-1z"/><path d="M53 83h12v10H53zm25 0h5v10h-5zm5 0h9v1h-9zm9 0h1v2h-1zm4 0h25v3H96zm25 0h1v1h-1zm95 0h3v1h-3zM39 84h1v50h-1zm3 0h6v1h-6zm6 0h1v1h-1z"/><path d="M52 84h13v9H52zm34 0h6v1h-6zm9 0h25v50H95zm37 0h1v12h-1zm59 0h3v3h-3zm3 0h1v1h-1zm11 0h1v12h-1zm21 0h3v2h-3zm3 0h1v1h-1zm11 0h1v12h-1zM43 85h4v1h-4zm4 0h1v1h-1z"/><path d="M51 85h14v7H51zm32 0h1v7h-1zm4 0h5v1h-5zm5 0h1v1h-1zm37 0h6v11h-6zm6 0h1v11h-1zm11 0h1v49h-1zm1 0h1v49h-1zm8 0h14v49h-14zm47 0h6v11h-6zm6 0h1v11h-1zm9 0h2v1h-2zm20 0h6v11h-6zm6 0h1v11h-1zM40 86h1v3h-1zm3 0h3v1h-3zm3 0h1v1h-1z"/><path d="M50 86h15v6H50zm34 0h1v6h-1zm4 0h3v1h-3zm3 0h1v1h-1zm3 0h26v3H94zm26 0h1v1h-1zm8 0h8v9h-8zm8 0h1v9h-1zm65 0h8v9h-8zm8 0h1v9h-1zm17 0h2v48h-2zm2 0h1v1h-1zm8 0h9v9h-9zm9 0h1v9h-1zM43 87h2v1h-2zm2 0h1v1h-1z"/><path d="M49 87h16v4H49zm36 0h1v4h-1zm4 0h2v1h-2zm2 0h1v1h-1zm36 0h10v7h-10zm10 0h1v7h-1zm54 0h2v47h-2zm2 0h1v1h-1zm7 0h10v6h-10zm10 0h1v7h-1zm25 0h10v7h-10zM41 88h1v1h-1z"/><path d="M48 88h17v3H48zm38 0h1v3h-1zm7 0h26v1H93zm118 0h8v5h-8zm35 0h1v5h-1zM40 89h1v1h-1z"/><path d="M47 89h18v2H47zm40 0h1v2h-1zm7 0h25v1H94zm44 0h1v4h-1zm-12 1h12v2h-12zm-79 1h18v1H47zm38 0h2v1h-2zm2 0h1v1h-1zm89 0h8v1h-8zm8 0h1v3h-1zM40 92h1v42h-1zm10 0h15v1H50zm33 0h1v1h-1zm1 0h1v1h-1zm10 0h25v42H94zm32 0h12v1h-12zm-74 1h13v1H52zm26 0h4v1h-4zm4 0h1v1h-1zm6 0h1v41h-1zm50 0h1v1h-1zm62 0h19v1h-19zm46 0h1v1h-1zM41 94h7v40h-7zm7 0h1v40h-1zm6 0h11v1H54zm24 0h2v1h-2zm2 0h1v1h-1z"/><path d="M86 94h33v40H86zm41 0h10v1h-10zm10 0h1v1h-1zm47 0h1v1h-1zm9 0h1v40h-1zm17 0h1v1h-1zm25 0h10v1h-10zM49 95h1v39h-1zm1 0h1v39h-1zm7 0h8v1h-8zm19 0h1v1h-1zm1 0h1v1h-1z"/><path d="M84 95h36v39H84zm36 0h1v39h-1zm8 0h8v1h-8zm8 0h1v1h-1zm41 0h6v1h-6zm6 0h1v1h-1zm18 0h8v1h-8zm8 0h1v1h-1zm19 0h1v39h-1zm8 0h9v1h-9zm9 0h1v1h-1zM51 96h2v38h-2zm2 0h1v38h-1zm6 0h6v1h-6zm10 0h6v1h-6zm6 0h1v1h-1z"/><path d="M81 96h39v38H81zm48 0h6v1h-6zm6 0h1v1h-1zm43 0h4v1h-4zm4 0h1v1h-1zm20 0h6v1h-6zm6 0h1v1h-1zm9 0h2v38h-2zm20 0h6v1h-6zm6 0h1v1h-1zM54 97h1v37h-1zm1 0h1v37h-1zm7 0h4v1h-4zm4 0h1v1h-1zm3 0h3v1h-3zm3 0h1v1h-1z"/><path d="M79 97h41v37H79zm91 0h1v37h-1zm24 0h1v37h-1zm35 0h1v37h-1zM56 98h2v36h-2zm2 0h1v36h-1zm6 0h1v1h-1zm1 0h1v1h-1zm4 0h1v1h-1zm1 0h1v1h-1z"/><path d="M76 98h45v36H76zm45 0h1v36h-1zm74 0h1v36h-1zm21 0h3v36h-3zM59 99h1v35h-1zm1 0h1v35h-1z"/><path d="M74 99h48v35H74zm48 0h1v35h-1zm49 0h1v35h-1zm44 0h4v35h-4zm15 0h1v35h-1zm-169 1h1v34h-1zm1 0h1v34h-1z"/><path d="M72 100h51v34H72zm51 0h1v34h-1zm73 0h1v34h-1zm1 0h1v34h-1zm17 0h5v34h-5zm17 0h1v34h-1zm-168 1h1v33h-1z"/><path d="M71 101h53v33H71zm53 0h1v33h-1zm14 0h1v33h-1zm34 0h1v33h-1zm26 0h1v33h-1zm15 0h6v33h-6zm19 0h1v33h-1zm14 0h1v33h-1zm-182 1h1v32h-1z"/><path d="M70 102h56v32H70zm56 0h1v32h-1zm11 0h1v32h-1zm36 0h1v32h-1zm1 0h1v32h-1zm10 0h1v32h-1zm15 0h1v32h-1zm1 0h1v32h-1zm11 0h8v32h-8zm22 0h1v32h-1zm1 0h1v32h-1zm11 0h1v32h-1z"/><path d="M127 103h244v31H127z"/><path d="M65 104h306v30H65zM0 134h371v1H0zm371 0h1v1h-1z"/></g><path d="M121 32h1v1h-1zm31 0h1v1h-1zm-14 8h1v1h-1zm-12 1h1v1h-1zm157 2h1v1h-1zm-148 2h1v1h-1zm43 0h1v1h-1zm13 0h1v1h-1zm26 0h1v1h-1zm-20 1h1v1h-1zm-18 1h1v1h-1zm-53 2h1v1h-1zm173 3h1v1h-1zm-53 5h1v1h-1zm-112 1h1v1h-1zm110 0h1v1h-1zm-41 1h1v1h-1zm-56 4h1v1h-1zm110 0h1v1h-1zm60 0h1v1h-1zm15 0h1v1h-1zM154 78h1v1h-1zm93 2h1v1h-1zm-93 5h1v1h-1zm92 2h1v1h-1zm-47 5h1v1h-1zm-23 2h1v1h-1zm-42 3h1v1h-1zm73 0h1v1h-1zm40 3h1v1h-1zm-48 1h1v1h-1zm48 0h1v1h-1z" fill="#c9c9c9"/><path d="M60 36h1v1h-1zm14 0h1v1h-1zm-17 2h1v1h-1zm20 0h1v1h-1zm-29 3h1v1h-1zm44 0h1v1h-1zm-51 1h1v1h-1zm52 0h1v1h-1zm1 10h1v1h-1zm-56 3h1v1h-1zm58 0h1v1h-1zm-23 2h1v1h-1zm6 0h1v1h-1zm-23 5h1v1h-1zm3 1h1v1h-1zm-24 1h1v1h-1zm20 0h1v1h-1zm44 0h1v1h-1zm-39 1h1v1h-1zm39 0h1v1h-1zm-68 1h1v1h-1zm72 0h1v2h-1zm-54 1h1v1h-1zm54 1h1v1h-1zm-68 1h1v1h-1zm64 0h1v1h-1zm0 1h1v1h-1zm-47 3h1v1h-1zm2 1h1v1h-1zm13 2h1v1h-1zm-11 2h1v1h-1zm-18 1h1v1h-1zm38 0h1v1h-1zm20 0h1v1h-1zm-19 1h1v1h-1zm17 2h1v1h-1zM41 92h1v1h-1zm52 0h1v1h-1zm-45 1h1v1h-1zm44 0h1v1h-1zm-10 1h1v1h-1zm-27 2h2v1h-2zm2 0h1v1h-1zm22 0h1v1h-1zm-15 3h1v1h-1zm1 0h1v1h-1zm4 0h1v1h-1zm1 0h1v1h-1zm-4 4h2v1h-2zm2 0h1v1h-1z" fill="#82bdde"/><path d="M326 40h1v1h-1zm-153 1h1v1h-1zm124 0h1v1h-1zm-62 1h1v1h-1zm87 0h1v1h-1zm-164 2h1v1h-1zm25 1h1v1h-1zm-45 2h1v1h-1zm44 0h1v1h-1zm155 0h1v1h-1zM163 57h1v1h-1zm15 0h1v1h-1zm-38 4h1v1h-1zm158 0h1v1h-1zm-136 1h1v1h-1zm75 0h1v1h-1zm-106 1h1v1h-1zm60 0h1v1h-1zm103 0h1v1h-1zm-92 21h1v1h-1zm27 2h1v1h-1zm-44 7h1v1h-1zm44 2h1v1h-1zm-100 2h1v1h-1zm52 5h1v1h-1zm22 0h1v1h-1z" fill="#444"/><path d="M331 40h1v1h-1zm-42 5h1v1h-1zm-117 1h1v1h-1zm2 3h1v1h-1zm-39 14h1v1h-1zm117 17h1v1h-1zm-5 8h1v1h-1zm-75 11h1v1h-1zm80 2h1v1h-1zm-75 1h1v1h-1z" fill="#1f1f1f"/><path d="M69 31h1v1h-1zm-8 4h1v1h-1zm12 0h1v1h-1zm5 2h1v2h-1zm-22 2h1v1h-1zm22 0h1v1h-1zm-29 1h1v1h-1zm-8 11h1v1h-1zm52 0h1v1h-1zm-56 5h2v1h-2zm2 0h1v1h-1zm58 0h1v1h-1zm1 7h1v1h-1zm-40 1h1v1h-1zm-27 1h1v1h-1zm22 0h1v1h-1zm50 0h1v1h-1zm-65 1h5v1h-5zm5 0h1v1h-1zm7 0h1v1h-1zm39 2h8v1h-8zm8 0h1v1h-1zm-66 1h1v1h-1zm72 0h1v1h-1zm-19 2h1v1h-1zm14 0h1v1h-1zm-14 1h1v1h-1zm-49 1h1v1h-1zm26 2h1v1h-1zm7 2h1v1h-1zm-31 1h2v1h-2zm2 0h1v1h-1zm58 0h1v1h-1zm-22 1h1v1h-1zm7 0h1v1h-1zm-41 4h1v1h-1zm52 0h1v1h-1zm-10 1h1v1h-1zm0 9h1v1h-1zm-34 1h1v1h-1zm7 1h1v2h-1zm22 0h1v2h-1zm-22 2h1v1h-1zm22 0h1v1h-1zm-15 1h1v1h-1zm8 0h1v1h-1zm-6 5h1v1h-1zm4 0h1v1h-1z" fill="#edf5fa"/><path d="M70 33h1v1h-1zm6 5h1v1h-1zm4 0h1v1h-1zm-33 8h1v1h-1zm40 0h1v1h-1zm-39 1h1v1h-1zm38 0h1v1h-1zm-37 1h1v1h-1zm36 0h1v1h-1zm-47 6h1v1h-1zm24 3h1v1h-1zm19 0h1v1h-1zm-43 1h1v1h-1zm21 2h1v1h-1zm-26 4h1v1h-1zm5 12h1v1h-1zm18 3h1v1h-1zm-18 1h1v1h-1zm56 1h1v1h-1zm-48 8h1v1h-1zm42 0h1v1h-1zm-34 7h1v1h-1zm4 0h1v1h-1zm22 0h1v1h-1zm-10 5h1v1h-1z" fill="#d6e8f4"/><path d="M263 33h1v6h-1zm-127 6h1v1h-1zm33 0h1v1h-1zm75 0h1v1h-1zm19 0h1v1h-1zm64 0h1v1h-1zm3 0h1v1h-1zm7 5h1v1h-1zm-207 1h1v1h-1zm75 3h1v1h-1zm-25 2h1v1h-1zm83 0h1v12h-1zm60 1h1v11h-1zm-178 2h1v1h-1zm35 0h1v1h-1zm1 2h1v1h-1zm24 0h1v1h-1zm82 0h1v1h-1zm-131 2h1v1h-1zm48 1h1v1h-1zm22 1h1v1h-1zm-84 1h1v1h-1zm-1 1h1v1h-1zm122 1h1v1h-1zm22 0h1v1h-1zm38 0h1v1h-1zm-185 1h1v1h-1zm10 8h1v1h-1zm-18 7h1v1h-1zm3 0h1v1h-1zm105 0h1v1h-1zm-38 1h1v1h-1zm-5 4h1v1h-1zm-74 1h1v1h-1zm12 0h1v1h-1zm73 0h1v1h-1zm35 0h1v1h-1zm-103 4h1v1h-1zm38 4h1v1h-1zm24 2h1v1h-1zm17 0h1v1h-1zm-21 5h1v1h-1zm-60 3h1v1h-1z" fill="#f9f9f9"/><path d="M308 31h1v1h-1zm-182 3h1v6h-1zm0 6h1v1h-1zm37 0h1v1h-1zm133 0h1v1h-1zm-93 4h1v1h-1zm-21 2h1v1h-1zm33 2h1v1h-1zm48 0h1v1h-1zm60 0h1v1h-1zm-168 2h1v1h-1zm6 0h1v1h-1zm69 0h1v1h-1zm6 0h1v1h-1zm44 0h1v1h-1zm19 1h1v1h-1zm-144 2h1v1h-1zm75 0h1v1h-1zm56 0h1v1h-1zm-105 1h1v1h-1zm-37 2h1v1h-1zm103 0h1v1h-1zm-78 2h1v1h-1zm26 0h1v1h-1zm-8 4h1v1h-1zm85 1h1v1h-1zM154 73h1v4h-1zm0 4h1v1h-1zm93 4h1v1h-1zm-117 3h1v1h-1zm24 2h1v15h-1zm-28 2h1v1h-1zm102 0h1v1h-1zm0 5h1v1h-1zm-58 2h1v1h-1zm62 5h1v1h-1zm-78 1h1v1h-1z" fill="#c2c2c2"/><path d="M65 32h1v1h-1zm4 0h1v1h-1zm-5 3h1v1h-1zm1 0h1v1h-1zm4 0h1v1h-1zm1 0h1v1h-1zm-17 4h1v1h-1zm-1 1h1v1h-1zm30 0h1v1h-1zm4 1h1v1h-1zm-44 6h1v1h-1zm50 0h1v1h-1zm-51 1h1v1h-1zm52 0h1v1h-1zm-53 4h1v1h-1zm27 5h1v1h-1zm7 0h1v1h-1zm1 0h1v1h-1zm3 0h1v1h-1zm4 1h1v1h-1zm15 1h1v1h-1zm-61 1h1v1h-1zm62 0h1v1h-1zm-40 3h1v1h-1zm-23 2h1v1h-1zm17 1h1v1h-1zm-8 1h1v1h-1zm44 0h1v1h-1zm-56 2h1v1h-1zm3 1h1v1h-1zm16 2h1v1h-1zm-15 2h1v1h-1zm19 0h3v1h-3zm3 0h1v1h-1zm25 0h1v1h-1zm15 0h1v1h-1zm-33 1h1v1h-1zm32 0h1v1h-1zm-27 2h1v1h-1zm4 1h1v1h-1zm4 3h1v1h-1zm-38 1h1v1h-1zm1 4h1v1h-1zm1 1h1v1h-1zm50 0h1v1h-1zm-48 6h1v1h-1zm42 0h1v1h-1zm-34 1h1v1h-1zm23 3h1v1h-1zm-15 1h1v1h-1zm14 0h1v1h-1z" fill="#68b1d9"/><g fill="#cde3f1"><path d="M59 36h1v1h-1zm16 0h1v1h-1zm-17 2h1v1h-1zm23 2h1v1h-1zm-34 1h1v1h-1zm-1 4h1v1h-1zm42 0h1v2h-1zm0 2h1v1h-1zm-1 1h1v1h-1zm-37 1h1v1h-1zm34 0h2v1h-2zm2 0h1v1h-1zm-35 1h1v1h-1zm32 0h2v1h-2zm2 0h1v1h-1zm-33 1h1v2h-1zm30 0h2v1h-2zm2 0h1v1h-1zm-31 1h1v1h-1zm28 0h2v1h-2zm2 0h1v1h-1zm-43 1h1v1h-1zm12 0h2v1h-2zm2 0h1v2h-1zm28 0h1v1h-1zm12 0h1v1h-1zm-39 1h1v2h-1zm41 0h1v1h-1z"/><path d="M54 55h2v1h-2zm2 0h1v2h-1z"/><path d="M55 56h2v1h-2zm2 0h1v1h-1zm-1 1h1v1h-1zm13 0h1v1h-1zM49 70h1v1h-1zm-13 5h1v1h-1zm27 0h1v1h-1zm3 1h1v1h-1zm30 4h1v1h-1zm-56 1h1v1h-1zm5 12h2v1h-2zm2 0h1v1h-1zm42 0h1v1h-1zm-8 1h1v1h-1zm-22 4h1v1h-1z"/></g><path d="M126 32h1v1h-1zm182 5h1v1h-1zm-140 2h1v1h-1zm26 0h1v1h-1zm49 0h1v1h-1zm24 0h1v1h-1zm24 0h1v1h-1zm37 0h1v1h-1zm1 0h1v1h-1zm-65 1h1v1h-1zm35 0h1v1h-1zm-159 1h1v1h-1zm159 0h1v1h-1zm-66 2h1v1h-1zm-50 1h1v1h-1zm99 0h1v1h-1zm-41 1h1v1h-1zm25 0h1v1h-1zm-110 1h1v1h-1zm6 2h1v1h-1zm19 0h1v1h-1zm-55 2h1v1h-1zm54 1h1v1h-1zm-35 1h1v1h-1zm35 0h1v1h-1zm41 1h1v1h-1zm77 2h1v1h-1zm-134 2h1v1h-1zm-32 1h1v1h-1zm35 0h1v1h-1zm26 0h1v1h-1zm49 0h1v1h-1zm50 0h1v1h-1zm1 0h1v1h-1zm-11 1h1v1h-1zm-108 3h1v1h-1zm26 0h1v1h-1zm-28 1h1v1h-1zm-41 15h1v1h-1zm1 0h1v1h-1zm73 0h1v1h-1zm1 0h1v1h-1zm33 0h1v1h-1zm1 0h1v1h-1zm-36 6h1v1h-1zm12 0h1v1h-1zm23 0h1v1h-1zm-22 2h1v1h-1zm11 1h1v1h-1zm6 3h1v1h-1zm-58 3h1v1h-1zm52 1h1v1h-1zm-11 1h1v1h-1zm-85 2h1v1h-1zm48 0h1v1h-1zm25 0h1v1h-1zm35 0h1v1h-1zm-7 4h1v1h-1zm-85 1h1v1h-1zm37 0h1v1h-1zm59 0h1v1h-1z" fill="#efefef"/><path d="M62 36h1v1h-1zm17 2h1v1h-1zm-37 3h1v1h-1zm-4 16h1v1h-1zm58 0h1v1h-1zM31 68h1v1h-1zm7 9h1v1h-1zm56 7h1v1h-1zm-52 9h1v1h-1zm35 3h1v1h-1z" fill="#88c0e0"/><path d="M66 31h2v1h-2zm2 0h1v1h-1zm4 5h1v1h-1zm-17 2h1v1h-1zm29 2h1v1h-1zm-34 1h1v1h-1zm-4 2h1v1h-1zm-3 3h1v1h-1zm-3 4h1v1h-1zm54 0h1v1h-1zm-29 5h1v1h-1zm7 2h1v1h-1zm-37 5h1v1h-1zm64 0h1v1h-1zm-39 2h1v1h-1zm-24 8h1v1h-1zm63 0h1v1h-1zm-16 3h1v1h-1zm13 2h1v1h-1zm-23 1h1v1h-1zm-33 6h1v1h-1zm3 4h1v1h-1zm48 0h1v1h-1zm-41 5h1v1h-1zm34 1h1v1h-1zm-22 5h1v1h-1zm10 0h1v1h-1z" fill="#91c4e2"/><path d="M64 33h1v1h-1zm-1 3h1v1h-1zm8 0h1v1h-1zm-17 2h1v1h-1zm31 2h1v1h-1zm-34 1h1v1h-1zm32 0h1v1h-1zm-43 8h1v1h-1zm54 0h1v1h-1zm-11 9h1v1h-1zm13 0h1v1h-1zm-12 2h1v6h-1zm-49 1h1v1h-1zm64 0h1v1h-1zm-63 2h1v1h-1zm65 1h1v1h-1zm-43 1h1v1h-1zm26 1h1v4h-1zm-51 4h1v1h-1zm51 0h1v1h-1zm17 0h1v1h-1zm-65 1h1v1h-1zm63 2h1v1h-1zm-37 2h1v1h-1zm34 1h1v1h-1zm-25 2h1v1h-1zm-16 2h1v1h-1zm-1 1h1v1h-1zm-1 1h1v1h-1zm-1 1h1v1h-1zm-1 1h1v1h-1zm-11 1h1v1h-1zm10 0h1v1h-1zm34 0h1v1h-1zm10 0h1v1h-1zm-45 1h1v1h-1zm36 0h1v1h-1zm-37 1h1v1h-1zm38 0h1v1h-1zm-39 1h1v1h-1zm40 0h1v1h-1zm-36 5h1v1h-1zm34 1h1v1h-1zm-9 2h1v1h-1zm-15 3h1v1h-1zm12 0h1v1h-1zm-9 2h1v1h-1z" fill="#dbebf5"/><path d="M70 34h1v1h-1zm-8 1h1v1h-1zm10 0h1v1h-1zm-17 4h1v1h-1zm24 0h1v1h-1zm14 11h1v1h-1zm-56 7h1v1h-1zm34 0h1v1h-1zm9 0h1v1h-1zm17 0h1v1h-1zm-35 1h1v1h-1zm-2 2h1v1h-1zm-26 4h1v1h-1zm66 0h1v1h-1zm-64 2h1v2h-1zm0 2h1v1h-1zm62 0h1v1h-1zm-64 2h1v1h-1zm66 0h1v1h-1zm-50 1h1v1h-1zm48 1h1v1h-1zm-34 3h1v1h-1zm-27 2h1v1h-1zm32 0h1v1h-1zm28 0h1v1h-1zm-15 1h1v1h-1zm-2 3h1v1h-1zm13 3h1v1h-1zm-5 7h1v1h-1zm-33 4h1v1h-1zm2 2h1v1h-1zm20 0h1v1h-1zm-9 1h1v1h-1zm-4 2h1v1h-1zm6 0h1v1h-1z" fill="#9fcbe5"/><path d="M309 37h4v1h-4zm4 0h1v1h-1zm-146 2h1v1h-1zm26 0h1v1h-1zm49 0h1v1h-1zm50 0h1v1h-1zm-92 2h1v1h-1zm27 0h1v1h-1zm-61 4h1v1h-1zm125 0h1v1h-1zm-120 1h1v1h-1zm28 2h4v1h-4zm4 0h1v1h-1zm45 0h5v1h-5zm5 0h1v1h-1zm45 0h1v1h-1zm-35 1h1v1h-1zm60 0h1v1h-1zm-178 2h1v1h-1zm10 3h1v1h-1zm75 0h1v1h-1zm-31 1h4v1h-4zm4 0h1v1h-1zm34 0h1v1h-1zm11 0h5v1h-5zm5 0h1v1h-1zm-120 3h1v1h-1zm35 0h1v1h-1zm26 0h1v1h-1zm49 0h1v1h-1zm-117 3h1v1h-1zm173 1h1v1h-1zm-179 1h1v1h-1zm78 0h1v1h-1zm98 0h1v1h-1zm-99 18h1v1h-1zm-60 5h1v1h-1zm62 4h1v1h-1zm0 1h1v1h-1zm12 3h5v1h-5zm5 0h1v1h-1zm-46 2h1v1h-1zm7 0h1v1h-1zm17 0h1v1h-1zm-61 1h1v1h-1zm46 0h1v1h-1zm27 0h1v1h-1zm35 0h1v1h-1zm-6 5h1v1h-1z" fill="#e9e9e9"/><path d="M208 33h1v1h-1zm64 16h1v1h-1zm60 0h1v1h-1zm-119 1h1v1h-1zm0 3h1v1h-1zm13 7h1v1h-1zm82 2h1v1h-1zm-63 34h1v1h-1zm-49 2h1v1h-1zm-70 3h1v1h-1zm3 1h1v1h-1zm113 0h1v1h-1z" fill="#4a4a4a"/><path d="M52 39h1v1h-1zm30 0h1v1h-1zm-29 1h1v1h-1zm-8 1h1v1h-1zm42 0h2v1h-2zm2 0h1v1h-1zm-3 1h1v1h-1zm-41 4h1v1h-1zm44 0h1v1h-1zm-48 1h1v1h-1zm5 0h1v1h-1zm47 0h1v1h-1zm-51 1h1v1h-1zm5 0h1v1h-1zm45 0h1v1h-1zm-44 1h1v1h-1zm1 1h1v1h-1zm1 1h1v1h-1zm1 1h1v1h-1zm2 2h1v1h-1zm10 1h1v1h-1zm7 2h1v1h-1zm-34 2h1v1h-1zm62 0h1v1h-1zm-1 1h1v1h-1zm-42 3h1v1h-1zm-1 2h1v1h-1zm-1 9h1v1h-1zm44 0h1v1h-1zm1 1h1v1h-1zm-15 1h1v1h-1zm-28 2h1v1h-1zm-1 1h1v1h-1zm-1 1h1v1h-1zm-1 1h1v1h-1zm-1 1h1v1h-1zm-1 1h1v1h-1zm-1 1h1v1h-1zm36 0h1v1h-1zm-37 1h1v1h-1zm38 0h1v1h-1zm-44 1h1v1h-1zm5 0h1v1h-1zm40 0h1v1h-1zm5 0h1v1h-1zm-51 1h1v1h-1zm5 0h1v1h-1zm42 0h1v1h-1zm5 0h1v1h-1zm-4 1h1v1h-1zm-1 2h1v1h-1zm-2 2h1v1h-1zm1 1h1v1h-1zm-34 1h1v1h-1zm-1 1h1v1h-1zm8 2h1v1h-1zm14 0h1v1h-1zm1 1h1v1h-1z" fill="#c1ddee"/><path d="M164 40h1v1h-1zm111 2h1v1h-1zm-99 1h1v1h-1zm75 0h1v1h-1zm-114 3h1v1h-1zm79 1h1v1h-1zm-37 1h1v1h-1zm35 2h1v1h-1zm118 0h1v1h-1zm-60 1h1v10h-1zm-133 2h1v1h-1zm97 1h1v1h-1zm63 0h1v1h-1zm-155 1h1v1h-1zm35 0h1v1h-1zm108 1h1v1h-1zm1 1h1v1h-1zm9 0h1v1h-1zm-52 1h1v1h-1zm27 3h1v1h-1zm-99 1h1v1h-1zm-25 17h1v1h-1zm95 0h1v1h-1zm-99 1h1v20h-1zm41 0h1v1h-1zm-28 1h1v1h-1zm0 1h1v1h-1zm59 3h1v1h-1zm-22 1h1v1h-1zm-9 5h1v1h-1zm-41 9h1v1h-1zm54 0h1v1h-1z" fill="#707070"/><path d="M221 40h4v1h-4zm4 0h1v1h-1zm76 0h2v1h-2zm2 0h1v1h-1zm6 0h3v1h-3zm3 0h1v1h-1zm7 0h1v1h-1zm1 0h1v1h-1zm-133 1h1v1h-1zm87 0h1v1h-1zm48 0h1v1h-1zm-147 1h1v1h-1zm63 4h1v1h-1zm-82 1h1v1h-1zm80 2h1v1h-1zm-55 2h1v1h-1zm0 1h1v1h-1zm105 2h1v1h-1zm-121 4h1v1h-1zm-24 21h1v1h-1zm1 0h1v1h-1zm4 0h1v1h-1zm1 0h1v1h-1zm8 0h1v1h-1zm17 0h1v1h-1zm1 0h2v1h-2zm2 0h1v1h-1zm12 0h1v1h-1zm1 0h2v1h-2zm2 0h1v1h-1zm19 0h1v1h-1zm27 0h1v1h-1zm13 0h1v1h-1zm1 0h1v1h-1zm-127 3h1v1h-1zm-2 3h1v1h-1zm114 1h1v1h-1zm12 6h1v1h-1zm-77 1h1v1h-1zm-49 3h1v1h-1zm122 1h1v1h-1zm-105 3h1v1h-1zm64 2h1v1h-1z" fill="#8a8a8a"/><path d="M147 32h1v1h-1zm110 0h1v1h-1zm-59 8h1v1h-1zm75 0h1v1h-1zm60 0h1v1h-1zm-10 1h1v1h-1zm-138 1h1v1h-1zm59 3h1v1h-1zm9 0h1v1h-1zm73 0h1v1h-1zm5 2h1v1h-1zm-101 2h1v1h-1zm50 0h1v1h-1zm-154 4h1v1h-1zm154 1h1v1h-1zm-118 1h1v1h-1zm53 0h1v1h-1zm-79 2h1v1h-1zm89 1h1v1h-1zm74 3h1v1h-1zm-50 1h1v1h-1zm-11 1h1v1h-1zm9 0h1v1h-1zm-27 8h1v1h-1zm-72 7h1v1h-1zm-12 1h1v1h-1zm111 0h1v1h-1zm-35 1h1v1h-1zm30 4h1v1h-1zm-106 1h1v1h-1zm12 0h1v1h-1zm68 2h1v1h-1zm18 5h1v1h-1zm-103 5h1v1h-1zm23 5h1v1h-1z" fill="#e2e2e2"/><path d="M218 44h1v1h-1zm-22 1h1v1h-1zm129 0h1v1h-1zm5 0h1v1h-1zm-42 1h1v1h-1zm49 0h1v1h-1zm-176 3h1v1h-1zm125 0h1v1h-1zm46 2h1v1h-1zm-158 2h1v1h-1zm14 3h1v1h-1zm-53 2h1v1h-1zm48 0h1v1h-1zm149 4h1v1h-1zM170 80h1v1h-1zm15 1h1v9h-1zm-31 3h1v1h-1zm-34 5h1v1h-1zm19 1h1v1h-1zm46 0h1v1h-1zm-65 2h1v1h-1zm15 5h1v1h-1z" fill="#777"/><path d="M65 31h1v1h-1zm0 5h1v1h-1zm4 0h1v1h-1zm-13 1h1v1h-1zm5 0h1v1h-1zm7 0h1v14h-1zm5 0h1v1h-1zm-7 1h2v1h-2zm-15 1h1v1h-1zm15 0h2v1h-2zm17 0h1v1h-1zm-17 1h2v1h-2zm-25 1h1v1h-1zm25 0h2v1h-2zm27 0h1v1h-1zm-44 1h1v1h-1zm17 0h2v1h-2zm19 0h1v1h-1zm-19 1h2v1h-2zm0 1h2v1h-2zm0 1h2v1h-2zm0 1h2v1h-2zm0 1h2v1h-2zm0 1h2v1h-2zm-24 1h1v1h-1zm24 0h2v1h-2zm0 1h2v1h-2zm-27 1h1v1h-1zm27 0h2v1h-2zm2 0h1v1h-1zm27 0h1v1h-1zm-14 3h1v1h-1zm14 2h1v1h-1zm-34 3h1v1h-1zm-24 2h1v1h-1zm60 0h1v1h-1zm-63 2h1v1h-1zm66 0h1v1h-1zm-64 2h1v1h-1zm1 1h1v1h-1zm7 0h1v1h-1zm4 1h1v2h-1zm40 1h1v1h-1zm-40 1h1v1h-1zm52 2h1v1h-1zm-63 2h1v1h-1zm14 0h1v1h-1zm33 0h1v1h-1zm-24 2h1v1h-1zm23 2h1v1h-1zm12 1h1v1h-1zm-29 3h2v1h-2zm2 0h1v16h-1zm9 0h1v1h-1zm-11 1h2v1h-2zm-27 1h1v1h-1zm27 0h2v1h-2zm29 0h1v1h-1zm-29 1h2v1h-2zm-24 1h1v1h-1zm24 0h2v1h-2zm0 1h2v1h-2zm0 1h2v1h-2zm0 1h2v1h-2zm0 1h2v1h-2zm-26 1h1v1h-1zm26 0h2v1h-2zm28 0h1v1h-1zm-54 1h1v1h-1zm26 0h2v1h-2zm28 0h1v1h-1zm-45 1h1v1h-1zm17 0h2v1h-2zm19 0h1v1h-1zm-44 1h1v1h-1zm25 0h2v1h-2zm27 0h1v1h-1zm-27 1h2v1h-2zm-15 1h1v1h-1zm15 0h2v1h-2zm17 0h1v1h-1zm-17 1h2v1h-2zm-5 1h1v1h-1zm7 0h1v1h-1zm5 0h1v1h-1zm-10 3h1v1h-1zm8 0h1v1h-1z" fill="#f7fbfd"/><path d="M309 32h3v4h-3zm3 0h1v4h-1zm-191 1h4v29h-4zm4 0h1v26h-1zm23 0h4v29h-4zm4 0h1v29h-1zm57 0h3v29h-3zm3 0h1v29h-1zm46 0h4v29h-4zm4 0h1v7h-1zm47 3h4v1h-4zm4 0h1v1h-1zm-183 4h6v3h-6zm6 0h1v4h-1zm30 0h3v4h-3zm3 0h1v4h-1zm22 0h4v4h-4zm4 0h1v4h-1zm45 0h4v4h-4zm4 0h1v4h-1zm18 0h1v22h-1zm5 0h3v4h-3zm3 0h1v4h-1zm20 0h4v4h-4zm4 0h1v4h-1zm33 0h3v4h-3zm3 0h1v4h-1z"/><path d="M128 41h10v2h-10zm10 0h1v5h-1zm25 0h9v3h-9zm9 0h1v4h-1zm16 0h10v3h-10zm10 0h1v5h-1zm23 0h5v1h-5zm5 0h1v1h-1zm11 0h10v3h-10zm10 0h1v5h-1zm17 0h9v3h-9zm9 0h1v21h-1zm14 0h9v3h-9zm9 0h1v4h-1zm4 0h4v21h-4zm4 0h1v21h-1zm5 0h3v21h-3zm3 0h1v21h-1zm6 0h3v21h-3zm3 0h1v21h-1zm4 0h8v3h-8zm8 0h1v21h-1z"/><path d="M127 42h13v1h-13zm13 0h1v18h-1zm21 0h13v2h-13zm13 0h1v6h-1zm13 0h13v2h-13zm13 0h1v5h-1zm20 0h5v1h-5zm5 0h1v1h-1zm11 0h13v2h-13zm13 0h1v5h-1zm14 0h11v2h-11zm11 0h1v20h-1zm11 0h13v2h-13zm13 0h6v4h-6zm25 0h11v2h-11zm11 0h1v20h-1z"/><path d="M126 43h15v1h-15zm15 0h1v16h-1zm19 0h15v1h-15zm15 0h1v17h-1zm10 0h16v1h-16zm16 0h1v4h-1zm19 0h4v2h-4zm4 0h1v1h-1zm10 0h16v1h-16zm16 0h1v4h-1zm25 0h1v19h-1zm9 0h14v1h-14zm38 0h13v1h-13zm13 0h1v19h-1zm-209 1h4v1h-4zm4 0h1v1h-1zm4 0h7v1h-7z"/><path d="M159 44h17v1h-17zm17 0h1v15h-1zm8 0h18v1h-18zm18 0h1v3h-1zm17 0h4v2h-4zm15 0h17v1h-17zm17 0h1v3h-1zm12 0h12v1h-12zm20 0h21v1h-21zm39 0h14v1h-14zm14 0h1v18h-1zm-210 1h2v1h-2zm2 0h1v1h-1zm9 0h5v1h-5zm5 0h1v13h-1zm16 0h6v1h-6zm6 0h1v1h-1z"/><path d="M171 45h6v1h-6zm6 0h1v13h-1zm7 0h5v1h-5zm5 0h1v1h-1zm8 0h6v1h-6zm6 0h1v2h-1zm15 0h5v1h-5zm5 0h1v1h-1zm10 0h5v1h-5zm5 0h1v1h-1zm8 0h6v1h-6zm6 0h1v2h-1zm11 0h1v1h-1zm1 0h1v1h-1zm7 0h5v1h-5zm5 0h1v17h-1zm7 0h5v1h-5zm5 0h1v1h-1zm8 0h8v1h-8zm26 0h2v1h-2zm2 0h1v1h-1zm7 0h5v1h-5zm-205 1h1v1h-1zm1 0h1v1h-1zm11 0h5v1h-5zm5 0h1v10h-1zm14 0h5v2h-5zm5 0h1v1h-1zm11 0h4v1h-4zm10 0h5v1h-5zm5 0h1v1h-1zm10 0h5v1h-5zm19 0h5v1h-5zm5 0h1v1h-1zm10 0h5v2h-5zm5 0h1v1h-1zm10 0h5v1h-5zm16 0h1v1h-1zm9 0h4v2h-4zm10 0h5v2h-5zm5 0h1v1h-1zm11 0h6v1h-6zm24 0h1v16h-1zm1 0h1v1h-1zm9 0h4v1h-4zm-206 1h1v1h-1zm13 0h4v1h-4z"/><path d="M173 47h5v1h-5zm5 0h1v9h-1zm5 0h4v10h-4zm4 0h1v1h-1zm12 0h5v1h-5zm5 0h1v1h-1zm13 0h4v2h-4zm4 0h1v1h-1zm27 0h5v1h-5zm5 0h1v1h-1zm46 0h5v1h-5zm33 0h4v1h-4zm-193 1h4v1h-4zm17 0h5v6h-5zm5 0h1v1h-1zm13 0h4v1h-4z"/><path d="M182 48h4v7h-4zm34 0h4v2h-4zm16 0h4v9h-4zm4 0h1v1h-1zm36 0h4v1h-4zm9 0h5v7h-5zm5 0h1v1h-1zm13 0h5v1h-5zm-155 1h1v4h-1z"/><path d="M215 49h5v1h-5zm5 0h1v1h-1zm11 0h4v5h-4zm106 0h1v13h-1zm-158 1h1v3h-1zm36 0h4v3h-4zm4 0h1v9h-1z"/><path d="M213 51h5v1h-5zm1 1h5v1h-5zm-70 1h1v1h-1zm35 0h1v1h-1zm36 0h5v1h-5zm5 0h1v7h-1zm-64 1h4v1h-4zm4 0h1v6h-1zm56 0h4v1h-4zm15 0h4v1h-4zm-92 1h4v3h-4z"/><path d="M157 55h4v2h-4zm4 0h1v6h-1zm13 0h4v3h-4zm8 0h5v1h-5zm5 0h1v6h-1zm29 0h5v1h-5zm5 0h1v7h-1zm15 0h1v6h-1zm45 0h5v1h-5zm5 0h1v6h-1zm13 0h5v4h-5zm-173 1h1v3h-1zm12 0h5v2h-5zm5 0h1v1h-1z"/><path d="M173 56h5v2h-5zm5 0h1v1h-1zm21 0h5v2h-5zm5 0h1v1h-1zm13 0h5v1h-5zm5 0h1v6h-1zm26 0h5v2h-5zm5 0h1v1h-1zm29 0h4v1h-4zm-155 1h1v4h-1zm30 0h5v1h-5zm5 0h1v4h-1z"/><path d="M172 57h5v2h-5zm11 0h5v1h-5zm5 0h1v4h-1zm10 0h5v2h-5zm20 0h5v1h-5zm5 0h1v5h-1zm9 0h5v1h-5zm5 0h1v4h-1zm10 0h5v2h-5zm35 0h5v1h-5zm5 0h1v5h-1zm11 0h6v2h-6zm-170 1h1v3h-1zm8 0h6v1h-6zm6 0h1v1h-1zm16 0h6v1h-6zm6 0h1v4h-1z"/><path d="M171 58h6v1h-6zm6 0h1v1h-1zm7 0h5v1h-5zm5 0h1v4h-1zm8 0h6v1h-6zm6 0h1v1h-1zm15 0h6v1h-6zm6 0h1v4h-1zm9 0h6v1h-6zm6 0h1v4h-1zm7 0h6v1h-6zm6 0h1v1h-1zm31 0h5v1h-5zm5 0h1v4h-1zm8 0h8v1h-8zm-171 1h16v1h-16zm16 0h1v1h-1zm18 0h17v1h-17zm17 0h1v1h-1z"/><path d="M185 59h17v1h-17zm17 0h1v1h-1zm17 0h5v1h-5zm15 0h17v1h-17zm17 0h1v1h-1zm32 0h21v1h-21zm-154 1h11v1h-11zm11 0h1v1h-1zm20 0h15v1h-15zm15 0h1v1h-1zm11 0h15v1h-15zm15 0h1v1h-1zm19 0h5v1h-5zm5 0h1v2h-1zm10 0h15v1h-15zm15 0h1v1h-1zm34 0h14v1h-14zm14 0h6v1h-6zm-171 1h12v1h-12zm12 0h1v1h-1zm22 0h13v1h-13zm13 0h1v1h-1zm13 0h13v1h-13zm13 0h1v1h-1zm26 0h1v1h-1zm10 0h13v1h-13zm13 0h1v1h-1zm36 0h12v1h-12zm12 0h1v1h-1zm-176 1h4v1h-4zm4 0h1v1h-1zm4 0h9v1h-9zm9 0h1v1h-1zm10 0h4v1h-4zm4 0h1v1h-1zm11 0h9v1h-9zm9 0h1v1h-1zm17 0h9v1h-9zm9 0h1v1h-1zm11 0h3v1h-3zm3 0h1v1h-1zm9 0h6v1h-6zm6 0h1v1h-1zm11 0h9v1h-9zm9 0h1v1h-1zm11 0h4v1h-4zm4 0h1v1h-1zm11 0h4v1h-4zm4 0h1v1h-1zm10 0h9v1h-9zm9 0h1v1h-1zm4 0h4v1h-4zm4 0h1v1h-1zm5 0h3v1h-3zm3 0h1v1h-1zm6 0h4v1h-4zm4 0h1v1h-1zm11 0h4v1h-4zm4 0h1v1h-1zm-205 1h2v1h-2zm2 0h1v1h-1zm32 0h2v1h-2zm2 0h1v1h-1zm24 0h2v1h-2zm2 0h1v1h-1zm47 0h2v1h-2zm2 0h1v1h-1zm48 0h2v1h-2zm2 0h1v1h-1zm-144 9h4v29h-4zm4 0h1v29h-1zm68 0h4v29h-4zm4 0h1v1h-1zm-95 7h3v4h-3zm3 0h1v4h-1zm71 0h3v4h-3zm3 0h1v4h-1zm31 0h3v4h-3zm3 0h1v4h-1z"/><path d="M127 80h9v3h-9zm9 0h1v4h-1zm4 0h3v21h-3zm3 0h1v21h-1zm3 0h10v3h-10zm10 0h1v3h-1zm15 0h4v16h-4zm4 0h1v21h-1zm11 0h4v21h-4zm4 0h1v21h-1zm10 0h10v3h-10zm10 0h1v5h-1zm25 0h9v3h-9zm9 0h1v4h-1zm4 0h3v21h-3zm3 0h1v21h-1z"/><path d="M125 81h12v2h-12zm12 0h1v3h-1zm62 0h13v2h-13zm13 0h1v5h-1zm21 0h12v2h-12zm12 0h1v3h-1z"/><path d="M124 82h14v1h-14zm14 0h5v4h-5zm59 0h16v1h-16zm16 0h1v4h-1zm19 0h14v1h-14zm14 0h5v3h-5z"/><path d="M123 83h20v1h-20zm23 0h10v1h-10zm10 0h1v1h-1zm41 0h17v1h-17zm17 0h1v3h-1zm17 0h20v1h-20zm-109 1h6v1h-6zm6 0h1v1h-1zm8 0h7v1h-7zm60 0h5v1h-5zm5 0h1v1h-1z"/><path d="M209 84h6v1h-6zm6 0h1v2h-1zm16 0h5v1h-5zm5 0h1v1h-1zm8 0h7v1h-7zm-122 1h5v1h-5zm5 0h1v1h-1zm68 0h5v1h-5zm5 0h1v1h-1zm10 0h5v1h-5zm20 0h5v1h-5zm5 0h1v1h-1zm11 0h5v1h-5zm-125 1h5v9h-5zm5 0h1v1h-1zm12 0h5v1h-5zm57 0h4v10h-4zm4 0h1v1h-1zm12 0h5v1h-5zm5 0h1v1h-1zm14 0h4v10h-4zm4 0h1v1h-1zm13 0h4v1h-4zm-108 1h4v1h-4z"/><path d="M194 87h4v7h-4zm35 0h4v7h-4zm18 0h4v1h-4zm-108 1h4v1h-4zm0 5h4v5h-4zm46 1h5v5h-5zm9 0h5v1h-5zm5 0h1v6h-1zm30 0h4v1h-4zm18 0h4v4h-4zm-126 1h5v1h-5zm5 0h1v5h-1z"/><path d="M138 95h5v3h-5zm73 0h5v2h-5zm5 0h1v1h-1zm18 0h1v5h-1zm-112 1h5v1h-5zm5 0h1v5h-1zm44 0h5v1h-5zm5 0h1v5h-1zm8 0h6v3h-6zm11 0h5v1h-5zm5 0h1v4h-1z"/><path d="M210 96h5v2h-5zm20 0h5v1h-5zm5 0h1v5h-1zm11 0h5v2h-5zm-124 1h6v1h-6zm6 0h1v4h-1zm8 0h7v1h-7zm36 0h4v1h-4zm11 0h7v2h-7zm13 0h6v1h-6zm6 0h1v4h-1z"/><path d="M209 97h6v1h-6zm6 0h1v1h-1zm16 0h5v1h-5zm5 0h1v4h-1zm8 0h7v1h-7zm-121 1h20v1h-20zm49 0h18v1h-18zm25 0h17v1h-17zm17 0h1v1h-1z"/><path d="M231 98h20v1h-20zm-107 1h14v1h-14zm14 0h5v1h-5zm35 0h17v1h-17zm25 0h15v1h-15zm15 0h1v1h-1zm19 0h14v1h-14zm14 0h5v1h-5zm-121 1h12v1h-12zm12 0h1v1h-1zm36 0h11v1h-11zm11 0h6v1h-6zm15 0h13v1h-13zm13 0h1v1h-1zm21 0h12v1h-12zm12 0h1v1h-1zm-118 1h9v1h-9zm9 0h1v1h-1zm4 0h3v1h-3zm3 0h1v1h-1zm6 0h4v1h-4zm4 0h1v1h-1zm22 0h8v1h-8zm8 0h1v1h-1zm3 0h4v1h-4zm4 0h1v1h-1zm11 0h9v1h-9zm9 0h1v1h-1zm11 0h3v1h-3zm3 0h1v1h-1zm11 0h9v1h-9zm9 0h1v1h-1zm4 0h3v1h-3zm3 0h1v1h-1zm-120 1h1v1h-1zm1 0h1v1h-1zm46 0h1v1h-1zm1 0h1v1h-1zm26 0h1v1h-1zm1 0h1v1h-1zm33 0h1v1h-1zm1 0h1v1h-1z"/><g fill="#666"><path d="M308 33h1v2h-1zm0 2h1v1h-1zm-69 5h1v1h-1zm47 1h1v1h-1zm-154 3h1v1h-1zm165 2h1v1h-1zm34 0h1v1h-1zm-109 1h1v1h-1zm41 0h1v1h-1zm18 0h1v1h-1zm6 0h1v1h-1zm36 0h1v1h-1zm-197 1h1v1h-1zm146 2h1v1h-1zm-111 4h1v1h-1zm21 2h1v1h-1zm99 0h1v1h-1zm-111 2h1v1h-1zm-12 1h1v1h-1zm41 3h1v1h-1zm73 0h1v1h-1zm-136 1h1v1h-1zm84 10h1v27h-1zm-66 6h1v1h-1zm3 1h1v1h-1zm88 0h1v1h-1zm-107 1h1v1h-1zm19 2h1v1h-1zm38 1h1v1h-1zm-75 6h1v1h-1zm0 1h1v1h-1zm65 1h1v1h-1zm-59 2h1v1h-1zm74 1h1v1h-1zm1 1h1v1h-1zm7 1h1v1h-1zm12 3h1v1h-1zm-76 1h1v1h-1zm90 0h1v1h-1zm-58 1h1v1h-1z"/></g><g fill="#5e5e5e"><path d="M129 40h1v1h-1zm166 0h1v1h-1zm-135 2h1v1h-1zm175 0h1v1h-1zm-172 4h1v1h-1zm114 1h1v1h-1zm22 2h1v1h-1zm-77 6h1v1h-1zm76 1h1v1h-1zm-81 1h1v1h-1zm36 0h1v1h-1zm-20 2h1v1h-1zm-47 2h1v1h-1zm-58 1h1v1h-1zm42 1h1v1h-1zm26 0h1v1h-1zm93 0h1v1h-1zm-87 16h1v1h-1zm44 21h1v1h-1zm-26 1h1v1h-1z"/></g><g fill="#4ea6d4"><path d="M65 33h1v1h-1zm4 0h1v1h-1zm-6 2h1v1h-1zm8 0h1v1h-1zm-4 2h1v1h-1zm-13 2h1v1h-1zm26 0h1v1h-1zm-29 1h1v1h-1zm42 3h1v1h-1zm-48 2h1v1h-1zm47 1h1v1h-1zm-51 3h1v1h-1zm-4 9h1v1h-1zm60 0h1v1h-1zm4 7h1v1h-1zm-8 2h4v1h-4zm4 0h1v1h-1zm1 6h1v1h-1zm-19 8h1v1h-1zm14 4h1v1h-1zm-1 3h1v1h-1zm1 2h1v1h-1zm-52 1h1v1h-1zm52 0h1v1h-1zm-26 6h1v1h-1zm9 0h1v1h-1zm-15 1h1v1h-1zm12 0h1v1h-1zm-8 3h1v1h-1z"/></g><g fill="#61add7"><path d="M66 33h2v1h-2zm2 0h1v1h-1zm-2 1h2v1h-2zm2 0h1v1h-1zm-10 3h1v1h-1zm17 0h1v1h-1zm6 2h1v1h-1zm-37 2h1v3h-1zm46 0h1v3h-1zm-47 1h1v3h-1zm4 0h1v1h-1zm40 0h1v1h-1zm4 0h1v3h-1z"/><path d="M42 43h3v1h-3zm50 0h1v1h-1zm-50 1h2v1h-2zm2 0h1v1h-1zm46 0h2v1h-2zm2 0h1v1h-1zm-53 9h1v1h-1zm24 3h1v1h-1zm1 0h1v17h-1zm1 1h1v17h-1zm11 0h1v21h-1zm1 0h1v21h-1zm-11 1h1v16h-1zm1 0h1v17h-1z"/><path d="M72 58h7v18h-7zm7 0h1v22h-1zm-42 1h1v1h-1z"/><path d="M62 59h21v14H62zm21 0h1v1h-1z"/><path d="M61 60h21v13H61zm-3 1h1v1h-1z"/><path d="M58 62h24v1H58zm-2 2h1v10h-1zm-24 1h1v2h-1zm70 0h1v2h-1zm-69 1h1v2h-1zm1 0h1v2h-1z"/><path d="M55 66h2v7h-2zm2 0h25v7H57zm43 0h1v2h-1zm1 0h1v2h-1zm-70 1h4v1h-4z"/><path d="M52 67h30v4H52zm50 0h1v2h-1zm-69 1h1v1h-1zm1 0h1v1h-1z"/><path d="M50 68h32v1H50zm50 0h1v1h-1zm1 0h1v1h-1zm-51 1h32v1H50zm52 0h1v1h-1zm-51 1h31v1H51zm1 1h30v1H52zm1 1h29v1H53zm1 1h28v1H54zm28 0h1v2h-1zm-23 1h1v1h-1zm1 0h1v1h-1zm5 0h17v1H65zm-28 1h1v1h-1zm30 0h15v1H67zm15 0h1v1h-1zm-12 1h11v1H70zm11 0h1v1h-1zm-8 1h8v1h-8zm8 0h1v1h-1zm-5 1h4v1h-4zm4 0h1v1h-1zm-2 1h2v1h-2zm2 0h1v1h-1zm-2 1h1v1h-1zm1 0h1v1h-1zm-40 1h1v1h-1zm54 5h1v1h-1zm-51 4h2v1h-2zm2 0h1v2h-1zm46 0h2v2h-2zm2 0h1v1h-1zm-50 1h2v1h-2zm50 0h1v1h-1zm-49 1h1v1h-1zm1 0h3v1h-3zm3 0h1v1h-1zm40 0h1v1h-1zm3 0h1v1h-1zm1 0h1v1h-1zm-1 1h1v1h-1zm-37 2h1v1h-1zm28 0h1v1h-1zm-22 2h1v1h-1zm7 3h2v1h-2zm2 0h1v2h-1zm-2 1h2v1h-2zm-1 1h4v1h-4zm4 0h1v1h-1z"/></g><g fill="#b2d5ea"><path d="M64 34h1v1h-1zm-7 3h1v1h-1zm3 0h1v1h-1zm14 0h1v1h-1zm3 0h1v1h-1zm-29 5h1v1h-1zm-2 2h1v1h-1zm42 0h1v1h-1zm-47 1h1v1h-1zm52 0h1v1h-1zm-49 1h1v1h-1zm46 0h1v1h-1zm-51 6h1v1h-1zm56 0h1v1h-1zm-56 3h1v1h-1zm56 0h1v1h-1zm-38 2h1v1h-1zm11 0h1v1h-1zm-31 3h1v1h-1zm20 1h1v1h-1zm-6 5h1v1h-1zm47 0h1v1h-1zm-61 8h1v1h-1zm35 4h1v1h-1zm-33 1h1v1h-1zm56 0h1v1h-1zm-14 1h1v1h-1zm-42 2h1v1h-1zm56 0h1v1h-1zm-51 6h1v1h-1zm1 0h1v1h-1zm45 0h1v1h-1zm-49 1h1v1h-1zm52 0h1v1h-1zm-47 1h1v1h-1zm2 2h1v1h-1zm31 3h1v1h-1zm3 0h1v1h-1zm-16 3h1v1h-1z"/></g><g fill="#838383"><path d="M147 34h1v27h-1zm110 0h1v27h-1zm-86 6h1v1h-1zm55 0h1v1h-1zm20 0h1v1h-1zm19 0h1v1h-1zm35 0h1v1h-1zm4 0h1v1h-1zm14 0h1v1h-1zm3 0h1v1h-1zm11 0h1v1h-1zm-112 1h1v1h-1zm97 0h1v20h-1zm17 0h1v1h-1zm-157 3h1v1h-1zm-34 1h1v1h-1zm27 0h1v1h-1zm34 1h1v1h-1zm-65 4h1v1h-1zm75 3h1v1h-1zm-87 3h1v1h-1zm1 1h1v1h-1zm123 3h1v1h-1zm-104 1h1v1h-1zm13 0h1v1h-1zm75 0h1v1h-1zm22 0h1v1h-1zm60 0h1v1h-1zm-20 1h1v1h-1zm-167 1h1v1h-1zm60 0h1v1h-1zm-55 16h1v1h-1zm5 0h1v1h-1zm3 0h1v1h-1zm13 0h1v1h-1zm15 0h1v1h-1zm15 0h1v1h-1zm62 0h1v1h-1zm3 0h1v1h-1zm-114 1h1v1h-1zm11 4h1v1h-1zm99 5h1v1h-1zm-48 4h1v1h-1zm-23 2h1v1h-1zm18 0h1v1h-1z"/></g><g fill="#e4e4e4"><path d="M268 39h1v1h-1zm1 0h1v1h-1zm18 1h1v1h-1zm-63 5h1v1h-1zm70 0h1v1h-1zm35 0h1v1h-1zm-201 1h1v1h-1zm103 0h1v1h-1zm15 0h1v1h-1zm-42 2h1v1h-1zm-49 1h1v1h-1zm32 1h1v1h-1zm17 5h1v1h-1zm-32 1h1v1h-1zm81 2h1v1h-1zm-20 22h1v1h-1zm-37 2h1v1h-1zm15 5h4v1h-4zm4 0h1v1h-1zm-79 9h1v1h-1zm47 0h1v1h-1zm2 5h1v1h-1zm27 0h1v1h-1zm-2 1h1v1h-1zm37 0h1v1h-1z"/></g><g fill="#d8d8d8"><path d="M208 32h1v1h-1zm5 0h1v1h-1zm-78 7h1v1h-1zm-7 1h1v1h-1zm46 1h1v1h-1zm75 0h1v1h-1zm-30 1h1v1h-1zm-77 1h1v1h-1zm42 0h1v1h-1zm-15 2h1v1h-1zm26 0h1v1h-1zm74 0h1v1h-1zm-15 2h1v1h-1zm17 0h1v1h-1zm-133 1h1v1h-1zm83 1h1v1h-1zm-60 2h1v1h-1zm75 0h1v1h-1zm50 0h1v1h-1zm-125 1h1v1h-1zm75 0h1v1h-1zm50 0h1v1h-1zm-99 1h1v1h-1zm67 3h1v1h-1zm-72 1h1v1h-1zm-51 1h1v1h-1zm47 0h1v1h-1zm14 0h1v1h-1zm26 1h1v1h-1zm66 2h1v1h-1zm-155 2h1v1h-1zm34 0h1v1h-1zm58 0h1v1h-1zm-72 8h4v1h-4zm4 0h1v1h-1zm68 0h4v1h-4zm4 0h1v1h-1zm-77 1h1v5h-1zm0 5h1v1h-1zm62 2h1v1h-1zm25 0h1v1h-1zm-110 1h1v1h-1zm105 3h1v1h-1zm-96 1h1v1h-1zm73 0h1v1h-1zm-13 1h1v1h-1zm-46 1h1v15h-1zm45 2h1v1h-1zm41 1h1v1h-1zm-41 4h1v1h-1zm53 1h1v1h-1zm-65 3h1v1h-1zm23 0h1v1h-1zm35 0h1v1h-1zm-9 1h1v1h-1zm-58 2h1v1h-1zm-47 1h1v1h-1zm23 0h1v1h-1zm25 0h1v1h-1zm-46 1h1v1h-1zm12 0h1v1h-1zm62 0h1v1h-1z"/></g><g fill="#262626"><path d="M213 33h1v1h-1zm100 0h1v2h-1zm0 2h1v1h-1zm-80 9h1v1h-1zm-89 10h1v1h-1zm71 0h1v1h-1zm16 1h1v1h-1zm-94 2h1v1h-1zm48 3h1v1h-1zm3 2h1v1h-1zm25 0h1v1h-1zm100 0h1v1h-1zm-88 11h1v27h-1zm-91 6h1v1h-1zm3 17h1v1h-1zm100 1h1v1h-1zm-12 3h1v1h-1zm-51 1h1v1h-1z"/></g><g fill="#929292"><path d="M197 40h1v1h-1zm91 0h1v1h-1zm-38 2h1v1h-1zm2 2h1v1h-1zm-95 1h1v1h-1zm88 0h1v1h-1zm32 1h1v1h-1zm-138 6h1v1h-1zm84 4h1v1h-1zm8 0h1v1h-1zm-27 1h1v1h-1zm36 1h1v1h-1zm55 0h1v1h-1zm-119 2h1v1h-1zm-12 3h1v1h-1zm75 0h1v1h-1zm7 0h1v1h-1zm49 0h1v1h-1zm-43 16h1v1h-1zm-38 3h1v1h-1zm29 2h1v1h-1zm-7 1h1v1h-1zm-36 1h1v1h-1zm28 4h1v1h-1zm0 1h1v1h-1zm7 4h1v1h-1zm1 1h1v1h-1zm-54 1h1v1h-1zm13 0h1v1h-1zm-72 2h1v1h-1zm5 3h1v1h-1z"/></g><g fill="#383838"><path d="M213 34h1v15h-1zm-17 6h1v1h-1zm93 0h1v1h-1zm-41 1h1v1h-1zm65 1h1v19h-1zm-182 2h1v1h-1zm5 1h1v1h-1zm103 0h1v1h-1zm-52 3h1v1h-1zm26 1h1v1h-1zm0 5h1v7h-1zm-51 2h1v1h-1zm51 5h1v1h-1zm100 0h1v1h-1zM208 79h1v1h-1zm29 0h1v1h-1zm-111 1h1v1h-1zm120 1h1v1h-1zm-9 3h1v1h-1zm8 1h1v1h-1zm2 8h1v1h-1zm-76 4h1v1h-1zm26 2h1v1h-1zm3 2h1v1h-1z"/></g><g fill="#aaa"><path d="M189 40h1v1h-1zm38 0h1v1h-1zm98 0h1v1h-1zm-160 5h1v1h-1zm130 0h1v1h-1zm-151 2h1v1h-1zm44 0h1v1h-1zm10 0h1v1h-1zm101 3h1v1h-1zm-69 1h1v1h-1zm-14 5h1v1h-1zm-19 1h1v1h-1zm-40 1h1v1h-1zm75 0h1v1h-1zm-55 1h1v1h-1zm75 0h1v1h-1zm-50 1h1v1h-1zm-81 3h3v1h-3zm3 0h1v1h-1zm24 0h3v1h-3zm3 0h1v1h-1zm20 0h1v1h-1zm38 0h3v1h-3zm3 0h1v1h-1zm10 0h5v1h-5zm5 0h1v1h-1zm31 0h4v1h-4zm4 0h1v1h-1zm11 0h4v1h-4zm4 0h1v1h-1zm11 0h1v1h-1zm12 0h4v1h-4zm4 0h1v1h-1zm5 0h3v1h-3zm3 0h1v1h-1zm6 0h4v1h-4zm4 0h1v1h-1zm11 0h4v1h-4zm4 0h1v1h-1zM157 79h1v1h-1zm-18 1h1v1h-1zm74 1h1v1h-1zm34 10h1v1h-1zm-13 2h1v1h-1zm-24 2h1v1h-1zm-39 3h1v1h-1zm-32 3h1v1h-1zm-4 1h1v1h-1zm90 0h1v1h-1zm27 0h1v1h-1z"/></g><g fill="#55a8d5"><path d="M66 32h2v1h-2zm2 0h1v1h-1zm-3 2h1v1h-1zm4 0h1v1h-1zm-3 1h2v1h-2zm2 0h1v1h-1zm-9 2h1v1h-1zm17 0h1v1h-1zm-33 4h1v1h-1zm48 0h1v1h-1zm-49 1h1v1h-1zm3 0h1v2h-1zm1 0h1v1h-1zm42 0h1v1h-1zm1 0h1v2h-1zm3 0h1v1h-1zm-51 1h1v1h-1zm0 1h1v1h-1zm4 0h1v1h-1zm44 0h1v1h-1zm4 0h1v1h-1zm-51 1h2v1h-2zm2 0h1v1h-1zm46 0h2v1h-2zm2 0h1v1h-1zm-50 1h1v1h-1zm53 7h1v1h-1zm-56 1h1v1h-1zm56 0h1v1h-1zm-30 2h1v1h-1zm-2 1h1v1h-1zm3 0h1v1h-1zm-3 1h1v1h-1zm5 0h3v1h-3zm3 0h1v1h-1zm9 0h1v1h-1zm1 0h1v1h-1zm2 2h1v13h-1zm-24 1h1v1h-1zm1 0h1v2h-1zm-3 1h1v3h-1zm-1 1h1v1h-1zm4 0h1v1h-1zm-27 2h1v1h-1zm1 0h1v1h-1zm21 0h2v1h-2zm2 0h1v1h-1zm43 0h1v1h-1zm-65 1h1v2h-1zm18 0h1v1h-1zm1 0h1v1h-1zm45 0h1v2h-1zm-49 1h1v1h-1zm1 0h1v1h-1zm47 0h1v1h-1zm-66 1h1v1h-1zm3 0h1v1h-1zm14 0h1v1h-1zm50 0h1v1h-1zm-66 1h1v1h-1zm1 0h1v1h-1zm15 0h1v1h-1zm51 0h1v1h-1zm1 0h1v1h-1zm-51 1h1v1h-1zm1 1h1v1h-1zm1 1h1v1h-1zm1 1h1v1h-1zm30 0h1v1h-1zm-22 1h3v1h-3zm3 0h1v1h-1zm2 1h1v1h-1zm-29 1h1v1h-1zm31 0h1v1h-1zm1 0h1v1h-1zm13 0h1v1h-1zm-11 1h1v1h-1zm1 0h1v1h-1zm10 0h1v1h-1zm-7 1h1v1h-1zm6 0h1v1h-1zm-4 1h1v1h-1zm4 0h1v1h-1zm-42 1h1v1h-1zm41 0h1v1h-1zm15 0h1v1h-1zm0 1h1v1h-1zm-53 7h1v1h-1zm0 1h2v1h-2zm2 0h1v1h-1zm46 0h2v1h-2zm2 0h1v1h-1zm-51 1h1v1h-1zm4 0h1v2h-1zm44 0h1v2h-1zm-47 2h1v1h-1zm46 0h1v1h-1zm1 0h1v1h-1zm3 0h1v1h-1zm-49 1h1v1h-1zm48 0h1v1h-1zm-37 2h1v1h-1zm26 0h1v1h-1zm-22 2h1v1h-1zm9 1h1v1h-1zm-1 1h2v1h-2zm2 0h1v1h-1zm-3 1h1v1h-1zm4 0h1v1h-1zm0 1h1v1h-1z"/></g><g fill="#575757"><path d="M308 32h1v1h-1zm-100 2h1v27h-1zm100 2h1v1h-1zm-171 4h1v1h-1zm53 0h1v1h-1zm9 1h1v1h-1zm109 1h1v19h-1zm-175 2h1v1h-1zm57 1h1v1h-1zm80 0h1v1h-1zm1 1h1v1h-1zm-127 2h1v1h-1zm94 9h1v1h-1zm-42 1h1v1h-1zm86 0h1v1h-1zm-140 1h1v1h-1zm92 1h1v1h-1zm-26 1h1v1h-1zm100 0h1v1h-1zm-88 11h1v1h-1zm-9 8h1v1h-1zm23 0h1v1h-1zm-105 4h1v1h-1zm10 8h1v1h-1zm72 9h1v1h-1zm-77 1h1v1h-1zm74 0h1v1h-1zm29 0h1v1h-1z"/></g><g fill="#4d4d4d"><path d="M139 41h1v1h-1zm169 0h1v1h-1zm-26 4h1v1h-1zm-29 1h1v1h-1zm-91 1h1v1h-1zm136 0h1v1h-1zm-61 9h1v1h-1zm-78 4h1v1h-1zm61 1h1v1h-1zm-12 1h1v1h-1zm40 0h1v1h-1zm-83 1h1v1h-1zm75 0h1v1h-1zm5 0h1v1h-1zM126 87h1v1h-1zm13 2h1v1h-1z"/></g><g fill="#7d7d7d"><path d="M147 33h1v1h-1zm110 0h1v1h-1zm15 7h1v1h-1zm-47 3h1v1h-1zm7 2h1v1h-1zm-1 2h1v1h-1zm6 0h1v1h-1zm-63 3h1v1h-1zm158 2h1v9h-1zm-143 5h1v1h-1zm38 4h1v1h-1zm105 0h1v1h-1zm-185 1h1v1h-1zm110 0h1v1h-1zm29 0h1v1h-1zm31 0h1v1h-1zM128 79h1v1h-1zm42 2h1v11h-1zm-35 3h1v1h-1zm73 0h1v1h-1zm-69 7h1v1h-1zm31 1h1v1h-1zm46 4h1v1h-1z"/></g><g fill="#9ccae5"><path d="M66 36h2v1h-2zm2 0h1v1h-1zm-18 4h1v1h-1zm34 1h1v1h-1zm4 2h1v1h-1zm3 3h1v1h-1zm-50 4h1v1h-1zm25 6h1v1h-1zm-30 6h1v1h-1zm62 0h1v1h-1zM35 72h1v1h-1zm6 12h1v1h-1zm5 7h1v1h-1zm38 2h1v1h-1zm-34 1h1v1h-1zm12 4h1v1h-1zm10 0h1v1h-1z"/></g><g fill="#a0a0a0"><path d="M308 40h1v1h-1zm-72 1h1v1h-1zm27 0h1v1h-1zm73 2h1v1h-1zm-207 2h1v1h-1zm136 0h1v1h-1zm-45 5h1v1h-1zm-46 1h1v1h-1zm0 1h1v1h-1zm7 1h1v1h-1zm-55 1h1v1h-1zm61 0h1v1h-1zm-57 4h1v1h-1zm61 0h1v1h-1zm59 3h1v1h-1zm-111 1h1v1h-1zm89 0h1v1h-1zm-76 1h1v1h-1zm45 0h1v1h-1zm31 0h1v1h-1zm-27 22h1v1h-1zm-63 2h1v1h-1zm90 2h1v1h-1zm-35 1h1v1h-1zm54 0h1v1h-1zm-54 1h1v1h-1zm35 1h1v1h-1zm-58 2h1v1h-1zm68 3h1v1h-1zm-114 3h1v1h-1zm17 2h2v1h-2zm2 0h1v1h-1zm7 0h2v1h-2zm2 0h1v1h-1zm35 0h3v1h-3zm3 0h1v1h-1zm31 0h3v1h-3zm3 0h1v1h-1zm25 0h2v1h-2zm2 0h1v1h-1z"/></g><g fill="#9a9a9a"><path d="M313 40h1v1h-1zm-186 1h1v1h-1zm75 2h1v1h-1zm-21 7h1v1h-1zm-42 1h1v1h-1zm17 5h1v1h-1zm42 0h1v1h-1zm92 2h1v1h-1zm-71 2h1v1h-1zm-20 20h1v1h-1zm-75 1h1v1h-1zm22 3h1v1h-1zm1 0h1v1h-1zm8 0h1v1h-1zm1 0h1v1h-1zm-36 4h1v1h-1zm79 0h1v1h-1zm35 0h1v1h-1zm-114 5h1v1h-1zm83 4h1v1h-1zm11 2h1v1h-1zm31 2h1v1h-1zm-105 1h1v1h-1zm9 0h1v1h-1zm4 0h1v1h-1zm29 0h1v1h-1zm4 0h1v1h-1zm23 0h1v1h-1zm27 0h1v1h-1zm7 0h1v1h-1zm5 0h1v1h-1z"/></g><g fill="#f4f4f4"><path d="M120 32h1v1h-1zm10 7h1v1h-1zm36 0h1v1h-1zm26 0h1v1h-1zm49 0h1v1h-1zm29 0h1v1h-1zm23 0h1v1h-1zm-105 1h1v1h-1zm97 1h1v1h-1zm13 0h1v1h-1zm-64 1h1v1h-1zm-42 3h1v1h-1zm12 0h1v1h-1zm-60 1h1v1h-1zm28 1h1v1h-1zm33 0h1v1h-1zm49 1h1v1h-1zm33 0h1v1h-1zm-142 2h1v1h-1zm178 0h1v1h-1zm-136 1h1v1h-1zm0 1h1v1h-1zm67 3h1v1h-1zm-117 1h1v1h-1zm68 0h1v1h-1zm26 1h1v1h-1zm8 0h1v1h-1zm-55 3h1v1h-1zm-57 2h1v1h-1zm93 0h1v1h-1zm67 1h1v1h-1zm12 0h1v1h-1zm-145 8h1v1h-1zm50 7h1v1h-1zm37 0h1v1h-1zm-110 6h1v1h-1zm113 1h1v1h-1zm-27 2h1v1h-1zm-91 2h1v1h-1zm108 2h1v1h-1zm-97 4h1v1h-1zm107 1h1v1h-1zm-123 1h1v1h-1zm95 0h1v1h-1zm-33 5h1v1h-1z"/></g><g fill="#4aa4d3"><path d="M61 36h1v1h-1zm12 0h1v1h-1zm-17 2h1v1h-1zm27 2h1v1h-1zm-34 1h1v1h-1zm36 0h1v1h-1zm4 4h1v1h-1zm-43 1h1v1h-1zm1 1h1v1h-1zm40 0h1v1h-1zm-39 1h1v1h-1zm38 0h1v1h-1zm-37 1h1v1h-1zm44 0h1v1h-1zm-43 1h1v1h-1zm-10 1h1v1h-1zm11 0h1v1h-1zm43 0h1v1h-1zm-13 2h1v1h-1zm-17 2h1v1h-1zm32 1h1v1h-1zm-60 5h1v1h-1zm62 0h1v1h-1zm-63 2h1v1h-1zm64 0h1v1h-1zm-62 4h6v1h-6zm6 0h1v1h-1zm46 0h3v1h-3zm3 0h1v1h-1zm-57 4h1v1h-1zm64 0h1v1h-1zm-63 2h1v1h-1zm61 3h1v1h-1zm-1 2h1v1h-1zm-41 1h1v1h-1zm-1 1h1v1h-1zm-1 1h1v1h-1zm-1 1h1v1h-1zm-12 1h1v1h-1zm11 0h1v1h-1zm43 0h1v1h-1zm-44 1h1v1h-1zm34 0h1v1h-1zm-43 1h1v1h-1zm8 0h1v1h-1zm36 0h1v1h-1zm-37 1h1v1h-1zm38 0h1v1h-1zm-39 1h1v1h-1zm40 0h1v1h-1zm-41 1h1v1h-1zm42 0h1v1h-1zm-43 1h1v1h-1zm44 0h1v1h-1zm-40 4h1v1h-1zm36 0h1v1h-1zm-34 1h1v1h-1zm32 0h1v1h-1zm-20 5h1v1h-1zm8 0h1v1h-1z"/></g><g fill="#2e2e2e"><path d="M170 40h1v1h-1zm75 0h1v1h-1zm68 1h1v1h-1zm-89 3h1v1h-1zm-46 2h1v1h-1zm99 2h1v1h-1zm-56 6h1v1h-1zm-37 5h1v1h-1zm-43 1h1v1h-1zm-16 1h1v1h-1zm4 18h1v1h-1zm123 2h1v19h-1zm-22 3h1v1h-1zm4 10h1v1h-1zm-4 3h1v1h-1zm22 3h1v1h-1z"/></g></svg>