<svg xmlns="http://www.w3.org/2000/svg" role="img" viewBox="-40.95 -40.95 2129.40 1854.40"><title>Vyper logo</title><path d="M1024 886.81L768 1330.22 768 1330.22 1024 1773.62 1280 1330.22 1280 1330.22 1024 886.81z" opacity=".8"/><path d="M1280 443.41L1024 886.81 1024 886.81 1280 1330.22 1536 886.81 1536 886.81 1280 443.41zM768 443.41L512 886.81 512 886.81 768 1330.22 1024 886.81 1024 886.81 768 443.41z" opacity=".6"/><path d="M1536 0L1280 443.41 1280 443.41 1536 886.81 1792 443.41 1792 443.41 1536 0zM1152 221.7L896 221.7 768 443.41 768 443.41 1024 886.81 1280 443.41 1152 221.7zM512 0L256 443.41 256 443.41 512 886.81 768 443.41 768 443.41 512 0z" opacity=".45"/><path d="M1792 443.4L2048 0 1536 0 1792 443.4zM256 443.4L512 0 0 0 256 443.4z" opacity=".3"/></svg>