<svg xmlns="http://www.w3.org/2000/svg" width="500" height="200" viewBox="0 0 500 200"><rect x="0" y="0" width="500" height="200" fill="#FFFFFF"/><g transform="translate(175.69810589055862,-16.73539694143698)translate(155.40565132857236,91.30204260638823)rotate(0)translate(-155.40565132857236,-91.30204260638823)" opacity="1"><path transform="translate(14,149.00942154717708)rotate(0)" d="M21.91 0L21.91 0Q18.74 0 16.58-2.16L16.58-2.16L16.58-2.16Q14.42-4.32 14.42-7.50L14.42-7.50L14.42-105.09L14.42-105.09Q14.42-108.41 16.58-110.50L16.58-110.50L16.58-110.50Q18.74-112.59 21.91-112.59L21.91-112.59L48.01-112.59L48.01-112.59Q64.30-112.59 76.98-105.38L76.98-105.38L76.98-105.38Q89.67-98.17 96.73-85.42L96.73-85.42L96.73-85.42Q103.80-72.66 103.80-56.37L103.80-56.37L103.80-56.37Q103.80-40.08 96.73-27.25L96.73-27.25L96.73-27.25Q89.67-14.42 76.98-7.21L76.98-7.21L76.98-7.21Q64.30 0 48.01 0L48.01 0L21.91 0ZM29.41-13.26L48.01-13.26L48.01-13.26Q59.97-13.26 69.41-18.74L69.41-18.74L69.41-18.74Q78.86-24.22 84.12-34.09L84.12-34.09L84.12-34.09Q89.38-43.97 89.38-56.37L89.38-56.37L89.38-56.37Q89.38-68.76 84.12-78.57L84.12-78.57L84.12-78.57Q78.86-88.37 69.41-93.85L69.41-93.85L69.41-93.85Q59.97-99.33 48.01-99.33L48.01-99.33L29.41-99.33L29.41-13.26ZM134.65 0L134.65 0Q131.47 0 129.38-2.16L129.38-2.16L129.38-2.16Q127.29-4.32 127.29-7.50L127.29-7.50L127.29-105.09L127.29-105.09Q127.29-108.27 129.46-110.43L129.46-110.43L129.46-110.43Q131.62-112.59 134.65-112.59L134.65-112.59L134.65-112.59Q137.82-112.59 139.98-110.43L139.98-110.43L139.98-110.43Q142.14-108.27 142.14-105.09L142.14-105.09L142.14-14.99L194.33-14.99L194.33-14.99Q197.50-14.99 199.66-12.83L199.66-12.83L199.66-12.83Q201.83-10.67 201.83-7.50L201.83-7.50L201.83-7.50Q201.83-4.32 199.66-2.16L199.66-2.16L199.66-2.16Q197.50 0 194.33 0L194.33 0L134.65 0ZM291.64-112.59L291.64-112.59Q294.67-112.59 296.61-110.64L296.61-110.64L296.61-110.64Q298.56-108.70 298.56-105.67L298.56-105.67L298.56-105.67Q298.56-102.64 296.61-100.70L296.61-100.70L296.61-100.70Q294.67-98.75 291.64-98.75L291.64-98.75L260.64-98.75L260.64-7.50L260.64-7.50Q260.64-4.32 258.48-2.16L258.48-2.16L258.48-2.16Q256.32 0 253.15 0L253.15 0L253.15 0Q249.98 0 247.81-2.16L247.81-2.16L247.81-2.16Q245.65-4.32 245.65-7.50L245.65-7.50L245.65-98.75L214.51-98.75L214.51-98.75Q211.48-98.75 209.54-100.70L209.54-100.70L209.54-100.70Q207.59-102.64 207.59-105.67L207.59-105.67L207.59-105.67Q207.59-108.70 209.54-110.64L209.54-110.64L209.54-110.64Q211.48-112.59 214.51-112.59L214.51-112.59L291.64-112.59Z" fill="none" stroke="#5928B1" stroke-width="8" stroke-linejoin="round" stroke-miterlimit="2"/><path transform="translate(14,149.00942154717708)rotate(0)" d="M21.91 0L21.91 0Q18.74 0 16.58-2.16L16.58-2.16L16.58-2.16Q14.42-4.32 14.42-7.50L14.42-7.50L14.42-105.09L14.42-105.09Q14.42-108.41 16.58-110.50L16.58-110.50L16.58-110.50Q18.74-112.59 21.91-112.59L21.91-112.59L48.01-112.59L48.01-112.59Q64.30-112.59 76.98-105.38L76.98-105.38L76.98-105.38Q89.67-98.17 96.73-85.42L96.73-85.42L96.73-85.42Q103.80-72.66 103.80-56.37L103.80-56.37L103.80-56.37Q103.80-40.08 96.73-27.25L96.73-27.25L96.73-27.25Q89.67-14.42 76.98-7.21L76.98-7.21L76.98-7.21Q64.30 0 48.01 0L48.01 0L21.91 0ZM29.41-13.26L48.01-13.26L48.01-13.26Q59.97-13.26 69.41-18.74L69.41-18.74L69.41-18.74Q78.86-24.22 84.12-34.09L84.12-34.09L84.12-34.09Q89.38-43.97 89.38-56.37L89.38-56.37L89.38-56.37Q89.38-68.76 84.12-78.57L84.12-78.57L84.12-78.57Q78.86-88.37 69.41-93.85L69.41-93.85L69.41-93.85Q59.97-99.33 48.01-99.33L48.01-99.33L29.41-99.33L29.41-13.26ZM134.65 0L134.65 0Q131.47 0 129.38-2.16L129.38-2.16L129.38-2.16Q127.29-4.32 127.29-7.50L127.29-7.50L127.29-105.09L127.29-105.09Q127.29-108.27 129.46-110.43L129.46-110.43L129.46-110.43Q131.62-112.59 134.65-112.59L134.65-112.59L134.65-112.59Q137.82-112.59 139.98-110.43L139.98-110.43L139.98-110.43Q142.14-108.27 142.14-105.09L142.14-105.09L142.14-14.99L194.33-14.99L194.33-14.99Q197.50-14.99 199.66-12.83L199.66-12.83L199.66-12.83Q201.83-10.67 201.83-7.50L201.83-7.50L201.83-7.50Q201.83-4.32 199.66-2.16L199.66-2.16L199.66-2.16Q197.50 0 194.33 0L194.33 0L134.65 0ZM291.64-112.59L291.64-112.59Q294.67-112.59 296.61-110.64L296.61-110.64L296.61-110.64Q298.56-108.70 298.56-105.67L298.56-105.67L298.56-105.67Q298.56-102.64 296.61-100.70L296.61-100.70L296.61-100.70Q294.67-98.75 291.64-98.75L291.64-98.75L260.64-98.75L260.64-7.50L260.64-7.50Q260.64-4.32 258.48-2.16L258.48-2.16L258.48-2.16Q256.32 0 253.15 0L253.15 0L253.15 0Q249.98 0 247.81-2.16L247.81-2.16L247.81-2.16Q245.65-4.32 245.65-7.50L245.65-7.50L245.65-98.75L214.51-98.75L214.51-98.75Q211.48-98.75 209.54-100.70L209.54-100.70L209.54-100.70Q207.59-102.64 207.59-105.67L207.59-105.67L207.59-105.67Q207.59-108.70 209.54-110.64L209.54-110.64L209.54-110.64Q211.48-112.59 214.51-112.59L214.51-112.59L291.64-112.59Z" fill="#764BC4"/></g><g transform="translate(113.77298629677448,138.3618481923183)translate(192.8635068516128,31.234909312711764)rotate(0)translate(-192.8635068516128,-31.234909312711764)" opacity="1"><path transform="translate(14,48.765914595662196)rotate(0)" d="M6.68 0L6.68 0Q5.91 0 5.36-0.55L5.36-0.55L5.36-0.55Q4.81-1.11 4.81-1.87L4.81-1.87L4.81-35.66L4.81-35.66Q4.81-36.42 5.36-36.98L5.36-36.98L5.36-36.98Q5.91-37.53 6.68-37.53L6.68-37.53L6.68-37.53Q7.50-37.53 8.02-37.00L8.02-37.00L8.02-37.00Q8.55-36.47 8.55-35.66L8.55-35.66L8.55-3.56L27.34-3.56L27.34-3.56Q28.16-3.56 28.69-3.05L28.69-3.05L28.69-3.05Q29.22-2.55 29.22-1.78L29.22-1.78L29.22-1.78Q29.22-1.01 28.69-0.50L28.69-0.50L28.69-0.50Q28.16 0 27.34 0L27.34 0L6.68 0ZM56.32-26.53L56.32-26.53Q60.07-26.53 63.12-24.77L63.12-24.77L63.12-24.77Q66.17-23.02 67.92-19.94L67.92-19.94L67.92-19.94Q69.68-16.87 69.68-13.12L69.68-13.12L69.68-1.83L69.68-1.83Q69.68-1.06 69.15-0.53L69.15-0.53L69.15-0.53Q68.62 0 67.80 0L67.80 0L67.80 0Q66.99 0 66.46-0.50L66.46-0.50L66.46-0.50Q65.93-1.01 65.93-1.83L65.93-1.83L65.93-4.71L65.93-4.71Q64.25-2.40 61.65-1.08L61.65-1.08L61.65-1.08Q59.06 0.24 55.93 0.24L55.93 0.24L55.93 0.24Q52.28 0.24 49.33-1.51L49.33-1.51L49.33-1.51Q46.37-3.27 44.67-6.32L44.67-6.32L44.67-6.32Q42.96-9.37 42.96-13.12L42.96-13.12L42.96-13.12Q42.96-16.87 44.71-19.94L44.71-19.94L44.71-19.94Q46.47-23.02 49.52-24.77L49.52-24.77L49.52-24.77Q52.57-26.53 56.32-26.53L56.32-26.53ZM56.32-3.12L56.32-3.12Q59.06-3.12 61.27-4.42L61.27-4.42L61.27-4.42Q63.48-5.72 64.75-8.00L64.75-8.00L64.75-8.00Q66.03-10.28 66.03-13.12L66.03-13.12L66.03-13.12Q66.03-15.95 64.75-18.24L64.75-18.24L64.75-18.24Q63.48-20.52 61.27-21.84L61.27-21.84L61.27-21.84Q59.06-23.16 56.32-23.16L56.32-23.16L56.32-23.16Q53.58-23.16 51.35-21.84L51.35-21.84L51.35-21.84Q49.11-20.52 47.84-18.24L47.84-18.24L47.84-18.24Q46.56-15.95 46.56-13.12L46.56-13.12L46.56-13.12Q46.56-10.28 47.84-8.00L47.84-8.00L47.84-8.00Q49.11-5.72 51.35-4.42L51.35-4.42L51.35-4.42Q53.58-3.12 56.32-3.12L56.32-3.12ZM98.94-26.57L98.94-26.57Q102.35-26.57 105.07-25.13L105.07-25.13L105.07-25.13Q107.78-23.69 109.32-20.93L109.32-20.93L109.32-20.93Q110.86-18.16 110.86-14.32L110.86-14.32L110.86-1.83L110.86-1.83Q110.86-1.06 110.33-0.53L110.33-0.53L110.33-0.53Q109.80 0 109.03 0L109.03 0L109.03 0Q108.22 0 107.69-0.53L107.69-0.53L107.69-0.53Q107.16-1.06 107.16-1.83L107.16-1.83L107.16-14.32L107.16-14.32Q107.16-18.60 104.78-20.83L104.78-20.83L104.78-20.83Q102.40-23.07 98.56-23.07L98.56-23.07L98.56-23.07Q96.20-23.07 94.31-22.15L94.31-22.15L94.31-22.15Q92.41-21.24 91.30-19.63L91.30-19.63L91.30-19.63Q90.20-18.02 90.20-16.05L90.20-16.05L90.20-1.83L90.20-1.83Q90.20-1.01 89.69-0.50L89.69-0.50L89.69-0.50Q89.19 0 88.37 0L88.37 0L88.37 0Q87.55 0 87.03-0.50L87.03-0.50L87.03-0.50Q86.50-1.01 86.50-1.83L86.50-1.83L86.50-24.41L86.50-24.41Q86.50-25.23 87.03-25.76L87.03-25.76L87.03-25.76Q87.55-26.29 88.37-26.29L88.37-26.29L88.37-26.29Q89.19-26.29 89.69-25.76L89.69-25.76L89.69-25.76Q90.20-25.23 90.20-24.41L90.20-24.41L90.20-22.78L90.20-22.78Q91.78-24.56 94.04-25.56L94.04-25.56L94.04-25.56Q96.30-26.57 98.94-26.57L98.94-26.57ZM153.92-24.89L153.92-24.89Q153.96-24.75 153.96-24.46L153.96-24.46L153.96-13.17L153.96-13.17Q153.96-9.42 152.21-6.34L152.21-6.34L152.21-6.34Q150.46-3.27 147.40-1.51L147.40-1.51L147.40-1.51Q144.35 0.24 140.61 0.24L140.61 0.24L140.61 0.24Q136.86 0.24 133.81-1.51L133.81-1.51L133.81-1.51Q130.75-3.27 129.00-6.34L129.00-6.34L129.00-6.34Q127.25-9.42 127.25-13.17L127.25-13.17L127.25-13.17Q127.25-16.91 128.95-19.97L128.95-19.97L128.95-19.97Q130.66-23.02 133.61-24.77L133.61-24.77L133.61-24.77Q136.57-26.53 140.22-26.53L140.22-26.53L140.22-26.53Q143.34-26.53 145.94-25.20L145.94-25.20L145.94-25.20Q148.53-23.88 150.22-21.58L150.22-21.58L150.22-35.66L150.22-35.66Q150.22-36.47 150.74-37.00L150.74-37.00L150.74-37.00Q151.27-37.53 152.09-37.53L152.09-37.53L152.09-37.53Q152.91-37.53 153.41-37.00L153.41-37.00L153.41-37.00Q153.92-36.47 153.92-35.66L153.92-35.66L153.92-24.89ZM140.61-3.12L140.61-3.12Q143.34-3.12 145.55-4.44L145.55-4.44L145.55-4.44Q147.77-5.77 149.04-8.05L149.04-8.05L149.04-8.05Q150.31-10.33 150.31-13.17L150.31-13.17L150.31-13.17Q150.31-13.98 150.26-14.37L150.26-14.37L150.26-14.37Q150.22-14.46 150.22-14.61L150.22-14.61L150.22-14.61Q149.74-18.36 147.07-20.76L147.07-20.76L147.07-20.76Q144.40-23.16 140.61-23.16L140.61-23.16L140.61-23.16Q137.87-23.16 135.63-21.86L135.63-21.86L135.63-21.86Q133.40-20.57 132.12-18.28L132.12-18.28L132.12-18.28Q130.85-16.00 130.85-13.17L130.85-13.17L130.85-13.17Q130.85-10.33 132.12-8.05L132.12-8.05L132.12-8.05Q133.40-5.77 135.63-4.44L135.63-4.44L135.63-4.44Q137.87-3.12 140.61-3.12L140.61-3.12ZM181.40 0.24L181.40 0.24Q178.42 0.24 175.68-0.77L175.68-0.77L175.68-0.77Q172.95-1.78 171.26-3.60L171.26-3.60L171.26-3.60Q170.78-4.18 170.78-4.71L170.78-4.71L170.78-4.71Q170.78-5.53 171.55-6.15L171.55-6.15L171.55-6.15Q172.13-6.58 172.75-6.58L172.75-6.58L172.75-6.58Q173.57-6.58 174.15-5.91L174.15-5.91L174.15-5.91Q175.30-4.57 177.20-3.84L177.20-3.84L177.20-3.84Q179.10-3.12 181.40-3.12L181.40-3.12L181.40-3.12Q184.77-3.12 186.45-4.28L186.45-4.28L186.45-4.28Q188.13-5.43 188.18-7.30L188.18-7.30L188.18-7.30Q188.18-9.03 186.50-10.19L186.50-10.19L186.50-10.19Q184.81-11.34 181.16-11.92L181.16-11.92L181.16-11.92Q176.45-12.69 174.12-14.58L174.12-14.58L174.12-14.58Q171.79-16.48 171.79-19.17L171.79-19.17L171.79-19.17Q171.79-22.68 174.51-24.60L174.51-24.60L174.51-24.60Q177.22-26.53 181.31-26.53L181.31-26.53L181.31-26.53Q184.48-26.53 186.83-25.44L186.83-25.44L186.83-25.44Q189.19-24.36 190.63-22.44L190.63-22.44L190.63-22.44Q191.01-21.82 191.01-21.34L191.01-21.34L191.01-21.34Q191.01-20.52 190.24-20.04L190.24-20.04L190.24-20.04Q189.91-19.80 189.33-19.80L189.33-19.80L189.33-19.80Q188.32-19.80 187.65-20.52L187.65-20.52L187.65-20.52Q185.30-23.21 181.21-23.21L181.21-23.21L181.21-23.21Q178.57-23.21 176.98-22.13L176.98-22.13L176.98-22.13Q175.40-21.05 175.40-19.41L175.40-19.41L175.40-19.41Q175.40-17.68 176.89-16.65L176.89-16.65L176.89-16.65Q178.38-15.62 182.17-14.99L182.17-14.99L182.17-14.99Q187.31-14.13 189.52-12.18L189.52-12.18L189.52-12.18Q191.73-10.24 191.73-7.35L191.73-7.35L191.73-7.35Q191.73-5.14 190.41-3.41L190.41-3.41L190.41-3.41Q189.09-1.68 186.74-0.72L186.74-0.72L186.74-0.72Q184.38 0.24 181.40 0.24L181.40 0.24ZM219.46 0.24L219.46 0.24Q215.71 0.24 212.73-1.51L212.73-1.51L212.73-1.51Q209.75-3.27 208.05-6.32L208.05-6.32L208.05-6.32Q206.34-9.37 206.34-13.12L206.34-13.12L206.34-13.12Q206.34-16.96 207.98-20.01L207.98-20.01L207.98-20.01Q209.61-23.07 212.49-24.80L212.49-24.80L212.49-24.80Q215.38-26.53 218.98-26.53L218.98-26.53L218.98-26.53Q224.99-26.53 228.74-21.91L228.74-21.91L228.74-21.91Q229.12-21.48 229.12-20.90L229.12-20.90L229.12-20.90Q229.12-20.13 228.30-19.56L228.30-19.56L228.30-19.56Q227.87-19.27 227.39-19.27L227.39-19.27L227.39-19.27Q226.67-19.27 226.00-19.99L226.00-19.99L226.00-19.99Q224.55-21.58 222.83-22.37L222.83-22.37L222.83-22.37Q221.10-23.16 218.98-23.16L218.98-23.16L218.98-23.16Q216.34-23.16 214.27-21.89L214.27-21.89L214.27-21.89Q212.21-20.62 211.08-18.31L211.08-18.31L211.08-18.31Q209.95-16.00 209.95-13.12L209.95-13.12L209.95-13.12Q209.95-10.28 211.15-8.00L211.15-8.00L211.15-8.00Q212.35-5.72 214.51-4.42L214.51-4.42L214.51-4.42Q216.67-3.12 219.46-3.12L219.46-3.12L219.46-3.12Q223.31-3.12 225.66-5.19L225.66-5.19L225.66-5.19Q226.28-5.72 226.96-5.72L226.96-5.72L226.96-5.72Q227.53-5.72 228.01-5.33L228.01-5.33L228.01-5.33Q228.69-4.76 228.69-4.04L228.69-4.04L228.69-4.04Q228.69-3.41 228.21-2.98L228.21-2.98L228.21-2.98Q224.75 0.24 219.46 0.24L219.46 0.24ZM257.95-26.53L257.95-26.53Q261.70-26.53 264.75-24.77L264.75-24.77L264.75-24.77Q267.80-23.02 269.56-19.94L269.56-19.94L269.56-19.94Q271.31-16.87 271.31-13.12L271.31-13.12L271.31-1.83L271.31-1.83Q271.31-1.06 270.78-0.53L270.78-0.53L270.78-0.53Q270.25 0 269.44 0L269.44 0L269.44 0Q268.62 0 268.09-0.50L268.09-0.50L268.09-0.50Q267.56-1.01 267.56-1.83L267.56-1.83L267.56-4.71L267.56-4.71Q265.88-2.40 263.29-1.08L263.29-1.08L263.29-1.08Q260.69 0.24 257.57 0.24L257.57 0.24L257.57 0.24Q253.92 0.24 250.96-1.51L250.96-1.51L250.96-1.51Q248.01-3.27 246.30-6.32L246.30-6.32L246.30-6.32Q244.59-9.37 244.59-13.12L244.59-13.12L244.59-13.12Q244.59-16.87 246.35-19.94L246.35-19.94L246.35-19.94Q248.10-23.02 251.15-24.77L251.15-24.77L251.15-24.77Q254.20-26.53 257.95-26.53L257.95-26.53ZM257.95-3.12L257.95-3.12Q260.69-3.12 262.90-4.42L262.90-4.42L262.90-4.42Q265.11-5.72 266.39-8.00L266.39-8.00L266.39-8.00Q267.66-10.28 267.66-13.12L267.66-13.12L267.66-13.12Q267.66-15.95 266.39-18.24L266.39-18.24L266.39-18.24Q265.11-20.52 262.90-21.84L262.90-21.84L262.90-21.84Q260.69-23.16 257.95-23.16L257.95-23.16L257.95-23.16Q255.21-23.16 252.98-21.84L252.98-21.84L252.98-21.84Q250.74-20.52 249.47-18.24L249.47-18.24L249.47-18.24Q248.20-15.95 248.20-13.12L248.20-13.12L248.20-13.12Q248.20-10.28 249.47-8.00L249.47-8.00L249.47-8.00Q250.74-5.72 252.98-4.42L252.98-4.42L252.98-4.42Q255.21-3.12 257.95-3.12L257.95-3.12ZM301.49-26.53L301.49-26.53Q305.24-26.53 308.29-24.77L308.29-24.77L308.29-24.77Q311.34-23.02 313.09-19.94L313.09-19.94L313.09-19.94Q314.85-16.87 314.85-13.12L314.85-13.12L314.85-13.12Q314.85-9.37 313.14-6.32L313.14-6.32L313.14-6.32Q311.44-3.27 308.48-1.51L308.48-1.51L308.48-1.51Q305.53 0.24 301.87 0.24L301.87 0.24L301.87 0.24Q298.75 0.24 296.15-1.08L296.15-1.08L296.15-1.08Q293.56-2.40 291.88-4.71L291.88-4.71L291.88 9.37L291.88 9.37Q291.88 10.19 291.35 10.72L291.35 10.72L291.35 10.72Q290.82 11.24 290.00 11.24L290.00 11.24L290.00 11.24Q289.19 11.24 288.68 10.72L288.68 10.72L288.68 10.72Q288.18 10.19 288.18 9.37L288.18 9.37L288.18-1.39L288.18-1.39Q288.13-1.54 288.13-1.83L288.13-1.83L288.13-13.12L288.13-13.12Q288.13-16.87 289.88-19.94L289.88-19.94L289.88-19.94Q291.64-23.02 294.69-24.77L294.69-24.77L294.69-24.77Q297.74-26.53 301.49-26.53L301.49-26.53ZM301.49-3.12L301.49-3.12Q304.23-3.12 306.46-4.42L306.46-4.42L306.46-4.42Q308.70-5.72 309.97-8.00L309.97-8.00L309.97-8.00Q311.24-10.28 311.24-13.12L311.24-13.12L311.24-13.12Q311.24-15.95 309.97-18.24L309.97-18.24L309.97-18.24Q308.70-20.52 306.46-21.84L306.46-21.84L306.46-21.84Q304.23-23.16 301.49-23.16L301.49-23.16L301.49-23.16Q298.75-23.16 296.54-21.84L296.54-21.84L296.54-21.84Q294.33-20.52 293.06-18.24L293.06-18.24L293.06-18.24Q291.78-15.95 291.78-13.12L291.78-13.12L291.78-13.12Q291.78-12.30 291.83-11.92L291.83-11.92L291.83-11.92Q291.88-11.82 291.88-11.68L291.88-11.68L291.88-11.68Q292.36-7.93 295.03-5.53L295.03-5.53L295.03-5.53Q297.69-3.12 301.49-3.12L301.49-3.12ZM342.91-26.53L342.91-26.53Q346.47-26.53 349.21-24.87L349.21-24.87L349.21-24.87Q351.95-23.21 353.46-20.28L353.46-20.28L353.46-20.28Q354.97-17.35 354.97-13.60L354.97-13.60L354.97-13.60Q354.97-12.83 354.49-12.37L354.49-12.37L354.49-12.37Q354.01-11.92 353.24-11.92L353.24-11.92L333.83-11.92L333.83-11.92Q334.21-7.98 336.90-5.53L336.90-5.53L336.90-5.53Q339.60-3.08 343.63-3.08L343.63-3.08L343.63-3.08Q345.36-3.08 347.12-3.68L347.12-3.68L347.12-3.68Q348.87-4.28 349.93-5.19L349.93-5.19L349.93-5.19Q350.55-5.67 351.22-5.67L351.22-5.67L351.22-5.67Q351.75-5.67 352.28-5.29L352.28-5.29L352.28-5.29Q352.91-4.71 352.91-3.99L352.91-3.99L352.91-3.99Q352.91-3.36 352.38-2.88L352.38-2.88L352.38-2.88Q350.79-1.54 348.34-0.65L348.34-0.65L348.34-0.65Q345.89 0.24 343.63 0.24L343.63 0.24L343.63 0.24Q339.79 0.24 336.76-1.47L336.76-1.47L336.76-1.47Q333.73-3.17 332.03-6.22L332.03-6.22L332.03-6.22Q330.32-9.27 330.32-13.12L330.32-13.12L330.32-13.12Q330.32-17.01 331.93-20.06L331.93-20.06L331.93-20.06Q333.54-23.11 336.40-24.82L336.40-24.82L336.40-24.82Q339.26-26.53 342.91-26.53L342.91-26.53ZM342.91-23.21L342.91-23.21Q339.26-23.21 336.86-20.95L336.86-20.95L336.86-20.95Q334.45-18.69 333.93-14.99L333.93-14.99L351.51-14.99L351.51-14.99Q351.13-18.69 348.82-20.95L348.82-20.95L348.82-20.95Q346.52-23.21 342.91-23.21L342.91-23.21Z" fill="#5928B1"/></g><g transform="translate(3.5,15.937527851684397)translate(91.81340842546223,89.72434619240029)rotate(0)translate(-91.81340842546223,-89.72434619240029) scale(2.0165795371637674,2.0165795371637674)" opacity="1"><defs class="defs"/><path transform="translate(-4.000085497435469,-5.013332686502011)" d="M50.637,19.677c0,-2.70675 2.19425,-4.901 4.901,-4.901c2.70675,0 4.901,2.19425 4.901,4.901c0,2.70675 -2.19425,4.901 -4.901,4.901c-2.70675,0 -4.901,-2.19425 -4.901,-4.901zM18.572,42.596c0,-2.7062 2.1938,-4.9 4.9,-4.9c2.7062,0 4.9,2.1938 4.9,4.9c0,2.7062 -2.1938,4.9 -4.9,4.9c-2.7062,0 -4.9,-2.1938 -4.9,-4.9zM40.835,65.145c0,-2.70675 2.19425,-4.901 4.901,-4.901c2.70675,0 4.901,2.19425 4.901,4.901c0,2.70675 -2.19425,4.901 -4.901,4.901c-2.70675,0 -4.901,-2.19425 -4.901,-4.901zM8.067,82.662c0,-2.70675 2.19425,-4.901 4.901,-4.901c2.70675,0 4.901,2.19425 4.901,4.901c0,2.70675 -2.19425,4.901 -4.901,4.901c-2.70675,0 -4.901,-2.19425 -4.901,-4.901zM76.592,25.552c0,-2.70675 2.19425,-4.901 4.901,-4.901c2.70675,0 4.901,2.19425 4.901,4.901c0,2.70675 -2.19425,4.901 -4.901,4.901c-2.70675,0 -4.901,-2.19425 -4.901,-4.901zM42.79,89.1c0,-2.7062 2.1938,-4.9 4.9,-4.9c2.7062,0 4.9,2.1938 4.9,4.9c0,2.7062 -2.1938,4.9 -4.9,4.9c-2.7062,0 -4.9,-2.1938 -4.9,-4.9zM12.968,83.811c-0.145,0 -0.287,-0.027 -0.419,-0.078c-0.101,-0.041 -0.197,-0.094 -0.285,-0.162c-0.15,-0.117 -0.273,-0.273 -0.353,-0.457c-0.02,-0.047 -0.037,-0.096 -0.05,-0.143l-7.815,-26.893c-0.136,-0.471 0.039,-0.975 0.438,-1.258l51.203,-36.386c0.455,-0.323 1.075,-0.273 1.473,0.117c0.398,0.39 0.457,1.01 0.143,1.47l-40.724,59.407l28.615,-15.297c0.166,-0.088 0.353,-0.135 0.542,-0.135h46.606l-11.85,-37.638l-21.837,-19.334c-0.475,-0.421 -0.52,-1.147 -0.098,-1.623c0.42,-0.475 1.147,-0.52 1.622,-0.099l22.075,19.545c0.156,0.139 0.272,0.317 0.335,0.516l12.417,39.437c0.109,0.348 0.047,0.729 -0.17,1.023c-0.217,0.297 -0.561,0.471 -0.927,0.471h-47.885l-32.492,17.37c-0.051,0.027 -0.104,0.053 -0.159,0.074c-0.069,0.025 -0.141,0.045 -0.212,0.057c-0.064,0.012 -0.129,0.016 -0.193,0.016zM6.482,56.221l6.912,23.785l38.356,-55.953zM45.737,66.295c-0.077,0 -0.155,-0.008 -0.233,-0.023v0c-0.001,0 -0.002,0 -0.002,0c-0.017,-0.004 -0.032,-0.008 -0.047,-0.012v0c-0.003,0 -0.004,0 -0.006,-0.002v0c-0.213,-0.055 -0.396,-0.164 -0.539,-0.312l-34.194,-34.196l-4.435,24.215c-0.114,0.625 -0.714,1.037 -1.338,0.924c-0.625,-0.115 -1.038,-0.715 -0.924,-1.338l4.829,-26.37c0.076,-0.42 0.381,-0.763 0.788,-0.891c0.408,-0.127 0.854,-0.018 1.155,0.285l34.292,34.292l9.896,-42.656l-28.495,-7.184c-0.526,-0.132 -0.888,-0.614 -0.868,-1.156c0.02,-0.542 0.416,-0.997 0.949,-1.091l32.653,-5.749c0.38,-0.067 0.769,0.062 1.033,0.341c0.266,0.28 0.373,0.675 0.286,1.051l-2.81,12.109l24.046,6.062c0.391,0.099 0.702,0.396 0.819,0.782c0.116,0.386 0.022,0.806 -0.249,1.105l-35.74,39.419c-0.065,0.076 -0.141,0.143 -0.224,0.197c0,0.002 -0.001,0.002 -0.001,0.002c-0.001,0 -0.001,0 -0.002,0l-0.001,0.002c-0.001,0 -0.001,0 -0.001,0c-0.017,0.012 -0.032,0.021 -0.049,0.031c-0.001,0 -0.001,0 -0.001,0c-0.001,0 -0.001,0 -0.002,0.002h-0.001c-0.001,0 -0.001,0 -0.001,0c-0.174,0.104 -0.375,0.161 -0.583,0.161zM57.209,20.773l-9.354,40.323l31.499,-34.74zM32.262,12.112l23.237,5.858l2.406,-10.373zM47.69,90.25c-0.069,0 -0.14,-0.006 -0.21,-0.02l-34.722,-6.439c-0.624,-0.115 -1.036,-0.715 -0.921,-1.34c0.116,-0.623 0.717,-1.037 1.34,-0.92l33.245,6.164l-1.82,-22.307l-18.92,-53.09c-0.214,-0.598 0.099,-1.256 0.697,-1.469c0.598,-0.213 1.255,0.099 1.469,0.697l18.971,53.234c0.033,0.094 0.055,0.191 0.062,0.293l1.955,23.953c0.028,0.357 -0.11,0.707 -0.376,0.947c-0.212,0.192 -0.487,0.297 -0.77,0.297zM47.689,90.25c-0.183,0 -0.367,-0.043 -0.54,-0.135c-0.561,-0.301 -0.772,-0.996 -0.474,-1.557l33.803,-63.391c0.299,-0.56 0.995,-0.772 1.556,-0.474c0.56,0.299 0.771,0.996 0.474,1.556l-33.803,63.392c-0.207,0.388 -0.604,0.609 -1.016,0.609z" fill="#3B3B3B" class="fill c1"/></g></svg>