<?xml version="1.0" encoding="utf-8"?>
<!-- Generator: Adobe Illustrator 25.2.1, SVG Export Plug-In . SVG Version: 6.00 Build 0)  -->
<svg version="1.1" id="Layer_1" xmlns="http://www.w3.org/2000/svg" xmlns:xlink="http://www.w3.org/1999/xlink" x="0px" y="0px"
	 viewBox="0 0 1920 400" style="enable-background:new 0 0 1920 400;" xml:space="preserve">
<style type="text/css">
	.st0{fill:#003B45;}
	.st1{fill:#3BB7B9;}
	.st2{font-family:'GoshaSans-Regular';}
	.st3{font-size:147.968px;}
	.st4{letter-spacing:5;}
</style>
<g>
	<g>
		<path class="st0" d="M1345.9,165.4c0.1-0.7,0.1-1.5,0.2-2.3c0,0,0,0,0-0.1h-20.1l-0.1,0.6c-0.5,4.6-3.4,7.9-7.8,8.9
			c-1.7,0.4-3.3,0.6-5,0.6c-19.2,0-38.5,0-57.7,0c-1.7,0-3.4-0.2-5-0.6c-3.8-0.9-6.3-3.2-7.4-6.6c-0.4-1.3-0.6-2.8-0.7-4.4
			c-0.1-2.2-0.1-4.5,0-6.7v-2.1v-2.5l103.9,0.2l0-7.4c0-5.7,0-11.3,0-17c0-2.6-0.2-5-0.5-7.1c-0.8-5.8-3.5-10.7-8-14.7
			c-5.9-5.3-13.2-8-21.5-8c-9.2,0-18.4-0.1-27.6-0.1c-10.1,0-20.2,0-30.2,0l-6.2,0c-1.9,0-3.9,0.2-6.1,0.6
			c-3.7,0.6-7.1,1.9-10.2,3.6c-4.7,2.7-8.2,6.1-10.7,10.5c-2.2,3.9-3.3,8.2-3.3,13.2l0,15.9c0,7.2,0,14.3,0,21.5
			c0,1.4,0.1,2.9,0.3,4.5c1.1,8,5.3,14.2,12.5,18.6c5.3,3.2,11.4,4.9,18.1,4.9c18.8,0,37.5,0,56.3,0l6.3,0c5.5,0,10.5-1.1,15.1-3.3
			C1339.6,181.7,1344.6,174.9,1345.9,165.4z M1242.3,122.7c0.2-5.1,3.3-8.7,8.3-9.8c1.6-0.3,3.4-0.5,5.1-0.5c14.7,0,29.5,0,44.2,0
			h12.9c1.8,0,4.1,0.1,6.4,0.9c4,1.4,6.3,4.4,6.6,8.6c0.2,2.5,0.2,4.9,0.1,7.3c0,1,0,2.1,0,3.1l0,1.5h-83.7V132c0-0.9,0-1.8,0-2.7
			C1242.3,127.1,1242.3,124.9,1242.3,122.7z"/>
		<path class="st0" d="M1786.2,118.9c-0.8-5.8-3.5-10.7-8-14.7c-5.9-5.3-13.2-8-21.5-8c-9.2,0-18.4-0.1-27.6-0.1
			c-10.1,0-20.2,0-30.2,0l-6.2,0c-1.9,0-3.9,0.2-6.1,0.6c-3.7,0.6-7.1,1.9-10.2,3.6c-4.7,2.7-8.2,6.1-10.7,10.5
			c-2.2,3.9-3.3,8.2-3.3,13.2l0,15.9c0,7.2,0,14.3,0,21.5c0,1.4,0.1,2.9,0.3,4.5c1.1,8,5.3,14.2,12.5,18.6
			c5.3,3.2,11.4,4.9,18.1,4.9c18.8,0,37.5,0,56.3,0l6.3,0c5.5,0,10.5-1.1,15.1-3.3c9-4.4,14-11.2,15.3-20.7c0.1-0.7,0.1-1.5,0.2-2.3
			c0,0,0,0,0-0.1h-20.1l-0.1,0.6c-0.5,4.6-3.4,7.9-7.8,8.9c-1.7,0.4-3.3,0.6-5,0.6c-19.2,0-38.5,0-57.7,0c-1.7,0-3.4-0.2-5-0.6
			c-3.8-0.9-6.3-3.2-7.4-6.6c-0.4-1.3-0.6-2.8-0.7-4.4c-0.1-2.2-0.1-4.5,0-6.7v-2.1v-2.5l103.9,0.2l0-7.4c0-5.7,0-11.3,0-17
			C1786.7,123.4,1786.5,121,1786.2,118.9z M1766.5,129.2c0,1,0,2.1,0,3.1l0,1.5h-83.7V132c0-0.9,0-1.8,0-2.7c0-2.1,0-4.4,0.1-6.5
			c0.2-5.1,3.3-8.7,8.3-9.8c1.6-0.3,3.4-0.5,5.1-0.5c14.7,0,29.5,0,44.2,0h12.9c1.8,0,4.1,0.1,6.4,0.9c4,1.4,6.3,4.4,6.6,8.6
			C1766.6,124.4,1766.6,126.8,1766.5,129.2z"/>
		<path class="st0" d="M1038.1,118.9c-0.8-5.8-3.5-10.7-8-14.7c-5.9-5.3-13.2-8-21.5-8c-9.2,0-18.4-0.1-27.6-0.1
			c-10.1,0-20.2,0-30.2,0l-6.2,0c-1.9,0-3.9,0.2-6.1,0.6c-3.7,0.6-7.1,1.9-10.2,3.6c-4.7,2.7-8.2,6.1-10.7,10.5
			c-2.2,3.9-3.3,8.2-3.3,13.2l0,15.7c0,7.2,0,14.4,0,21.7c0,1.4,0.1,2.9,0.3,4.5c1.1,8,5.3,14.2,12.5,18.6
			c5.3,3.2,11.4,4.9,18.1,4.9c18.8,0,37.5,0,56.3,0l6.3,0c5.5,0,10.5-1.1,15.1-3.3c9-4.4,14-11.2,15.3-20.7c0.1-0.7,0.1-1.5,0.2-2.3
			c0,0,0,0,0-0.1h-20.1l-0.1,0.6c-0.5,4.6-3.4,7.9-7.8,8.9c-1.7,0.4-3.3,0.6-5,0.6c-19.2,0-38.5,0-57.7,0c-1.7,0-3.4-0.2-5-0.6
			c-3.8-0.9-6.3-3.2-7.4-6.6c-0.4-1.3-0.6-2.8-0.7-4.4c-0.1-2.2-0.1-4.5,0-6.7l0-2.1c0-0.3,0-0.6,0.1-0.9l0.2-1.4h103.6l0-7.4
			c0-5.7,0-11.3,0-17C1038.6,123.4,1038.5,121,1038.1,118.9z M1018.4,129.4c0,1,0,2.1,0,3.1c0,0.3-0.1,0.5-0.2,0.7l-0.3,0.6
			l-0.8,0.2H935l-0.2-1.2c0-0.2-0.1-0.4-0.1-0.6c0-0.9,0-1.8,0-2.7c0-2.1,0-4.4,0.1-6.5c0.2-5.1,3.3-8.7,8.3-9.8
			c1.6-0.3,3.4-0.5,5.1-0.5c14.7,0,29.5,0,44.2,0h12.9c1.8,0,4.1,0.1,6.4,0.9c4,1.4,6.3,4.4,6.6,8.6
			C1018.5,124.5,1018.4,127,1018.4,129.4z"/>
		<path class="st0" d="M482.3,120.8V48.6H462v140.7c2.4,0,4.3,0,6.4,0c3.2,0,7-0.1,13.8-0.1v-15.8c0.1-14,0-10.9,0-25V120.8z"/>
		<path class="st0" d="M1900.2,110.7c-2.4-4.6-5.9-8.2-10.3-10.7c-4.5-2.5-9.6-3.8-15.6-3.9c-8.2-0.1-15.5-0.1-22.5,0
			c-4.7,0.1-9.3,1.1-13.3,2.9c-2.7,1.2-5.1,3-7.2,5.2l-0.1,0.1v-7.9h-20.3c0,0,0.5,93.2,0.2,93h20.1l0.3-63.1c0-1.9,0.1-3.5,0.3-4.9
			c0.5-3.6,2.4-6.2,5.8-7.7c2.4-1,4.8-1.2,6.8-1.2c8.8,0,17.5,0,26.3,0c1.4,0,2.8,0.2,4.2,0.4c5.1,0.8,8.3,4.5,8.7,10.1c0,0,0,0,0,0
			h20.2C1903.1,118,1902,114.1,1900.2,110.7z"/>
		<path class="st0" d="M1153.3,110.7c-2.4-4.6-5.9-8.2-10.3-10.7c-4.5-2.5-9.6-3.8-15.6-3.9c-8.2-0.1-15.5-0.1-22.5,0
			c-4.7,0.1-9.3,1.1-13.3,2.9c-2.7,1.2-5.1,3-7.2,5.2l-0.1,0.1v-7.9H1064c0,0,0.5,93.2,0.2,93h20.1l0.3-63.1c0-1.9,0.1-3.5,0.3-4.9
			c0.5-3.6,2.4-6.2,5.8-7.7c2.4-1,4.8-1.2,6.8-1.2c8.8,0,17.5,0,26.3,0c1.4,0,2.8,0.2,4.2,0.4c5.1,0.8,8.3,4.5,8.7,10.1c0,0,0,0,0,0
			h20.2C1156.3,118,1155.1,114.1,1153.3,110.7z"/>
		<path class="st0" d="M860.4,189.4c1.1,0,2.2-0.1,3.2-0.3l0.3,0c5.8-0.7,11-2.7,15.5-6c3.9-2.9,6.7-6.3,8.5-10.5
			c1.4-3.4,2.1-7,2.1-11.2c0-12,0-24,0-36l0-1.6c0-2-0.1-4.5-0.7-7c-1.5-6.1-4.9-11.1-10-14.8c-5.8-4.2-12.5-6.3-20-6.3
			c-16.2,0-32.3,0-48.5,0c-1.9,0-3.9,0.2-5.9,0.5c-4.4,0.7-8.7,2.4-12.6,5c-0.3,0.2-1.6,1.1-2.7,1.9l0,0.1v-7h-20.2v118.3
			c2.2,0,6,0,9.8-0.1c4,0,8,0,10.4-0.1l0-55.9c0-11,0-22.1,0-33.1l0-0.5c0-1.1,0-2.2,0.1-3.4c0.5-4.1,2.7-7,6.4-8.3
			c1.7-0.6,3.6-0.9,5.3-1c7-0.1,14-0.1,21.1,0l7.1,0l7.3,0c6.9,0,13.9,0,20.9,0.1c1.6,0,3.5,0.4,5.3,1c4,1.4,6.4,4.9,6.4,9.3
			c0,13.3,0,26.7,0,40c0,5.1-3,8.9-8,10c-1.6,0.4-3.3,0.6-5,0.6c-13.7,0-24.9,0-36.5,0h-10.6l-15.1,16.3c15.6,0,48.2,0,64.2,0
			L860.4,189.4z"/>
		<path class="st0" d="M1493.3,189.1V51.7l-20.2,0.1l0,108.6c0,1.1,0,2.3-0.1,3.4c-0.5,4.1-2.7,7-6.4,8.3c-1.7,0.6-3.6,0.9-5.3,1
			l-56.4,0c-1.6,0-3.5-0.4-5.3-1c-4-1.4-6.4-4.9-6.4-9.3c0-13.3,0-26.7,0-40c0-5.1,3-8.9,8-10c1.6-0.4,3.3-0.6,5-0.6l47.1,0
			l15.1-16.3c-15.6,0-48.2,0-64.3,0l-1.7,0c-1.1,0-2.2,0.1-3.3,0.3l-0.3,0c-5.8,0.7-11,2.7-15.5,6c-3.9,2.8-6.8,6.4-8.5,10.5
			c-1.4,3.4-2.1,7-2.1,11.2c0,12.5,0,25,0,37.5c0,2,0.1,4.5,0.7,7c1.5,6.1,4.9,11.1,10,14.8c5.8,4.2,12.5,6.3,20,6.3
			c16.2,0,32.3,0,48.5,0c1.9,0,3.9-0.2,5.9-0.5c4.4-0.7,8.7-2.4,12.6-5c0.3-0.2,1.3-0.8,2.7-1.7v0h0c0,0,0,0,0,0v6.8H1493.3z"/>
		<polygon class="st0" points="1176.7,49.7 1176.7,189.5 1197,189.5 1197,49.7 		"/>
		<path class="st0" d="M578.8,49.7v63.7c-17.1,0-73.4,0-83.2,0l-13.3,16.3c15.9,0,72.6,0,96.5,0v59.8l20.3,0l0-139.8H578.8z"/>
		<path class="st0" d="M1639.8,96.6c0-0.2,0-0.4,0-0.6c-2.6,0-5.2,0-7.8,0c-4.1,0-8.2,0-12.3,0l-0.1,7.3c0,0-8.2-7.5-21.9-7.5
			c-7.6,0-15.1,0-22.7,0c-8.3,0-16.5,0-24.8,0c-2.4,0-4.3,0.1-6.1,0.4c-4.7,0.8-9,2.4-12.8,4.8c-5.3,3.4-8.9,7.9-10.8,13.4
			c-1,2.9-1.5,6.1-1.5,9.7c0,8.2,0,16.4,0,24.6l0,12.3c0,2.2,0.1,4.1,0.4,5.9c0.8,4.9,2.9,9.1,6.1,12.5c6,6.5,13.5,9.8,22.5,9.9
			c14.9,0.3,32.3,0.2,49.1,0.1l1.9,0l15.1-16.3c-18.3,0-44.8,0-62.2,0c-1.6,0-3.4-0.3-5.3-0.8c-4.3-1.2-6.9-4.5-7.3-9.3
			c0-0.5,0-1,0-1.5l0-13.4l0-24c0-1.6,0.1-3.4,0.7-5.1c1.1-2.9,3.1-5,6-5.9c1.9-0.6,3.7-0.9,5.3-0.9c7-0.1,14-0.1,21.1,0l7.1,0l7,0
			c7.1,0,14.1,0,21.1,0c1.6,0,3.3,0.3,5.2,0.9c3,1,5.1,3.3,6,6.5c0.4,1.3,0.6,2.6,0.6,3.9l0.1,75.6h0v0.3c0,1.1,0,2.2,0,3.3
			c0,0.9-0.2,2-0.7,2.9c-1,2.4-2.9,4.1-5.6,5.1c-1.9,0.7-3.9,1.1-6.1,1l-24.2,0c-11.1,0-22.4,0-31.9,0l-13.3,16.3
			c14.6,0.1,40.1,0,58.9,0l13.2,0c1.4,0,2.8-0.1,4.1-0.3c4.6-0.5,9-2,13.1-4.5c4.9-3,8.4-6.9,10.5-11.9c1.4-3.3,2.1-6.9,2.1-11.4
			c0-23.4,0-46.9,0-70.3L1639.8,96.6z"/>
		<path class="st0" d="M744,96.7c0-0.1,0-0.3,0-0.4h-20.2v12.1c0,17.5,0,35,0,52.5c0,1.5-0.2,2.9-0.5,4.3c-0.7,3.1-2.5,5.3-5.3,6.7
			c-2,1-4.3,1.4-7.3,1.4H698c-13.8,0-27.5,0-41.3,0c-1.7,0-3.4-0.2-5-0.6c-3.8-0.9-6.4-3.2-7.6-6.7c-0.6-1.7-0.6-3.3-0.6-4.8l0-64.1
			c0-0.2,0-0.4,0-0.7h-20.1l0,14.4c0,16.7,0,33.3,0,50c0,1.9,0.1,3.8,0.4,5.7c0.6,4.9,2.6,9.2,5.9,12.9c6,6.6,13.6,10,22.7,10.2
			l52.7,0.1c6.2,0,11.7-1.5,16.2-4.5c0.3-0.2,1.5-1,2.6-2.3l0,0l0,19.6c0,3.1-1.5,5.6-4.2,7.4c-2.2,1.4-4.8,2.1-7.9,2.1c0,0,0,0,0,0
			l-19,0c-12.9,0-26.9,0-37.3,0l-13.3,16.3c17.9,0,56,0,72.1,0c1.2,0,2.6-0.1,4.2-0.3c5.6-0.7,10.7-2.7,15.1-5.9
			c6.9-5.1,10.5-12,10.5-20.2c0.1-25.9,0.1-52.2,0-77.6L744,96.7z"/>
	</g>
	<g>
		<path class="st0" d="M155.7,298.2"/>
		<path class="st0" d="M188.8,294.3c0,0,0.1,0,0.2,0c5.3-0.5,14.6-1.5,20-2.2c0.3,0,0.6,0,0.9,0c3.8,0,7.9,2.1,10.1,5.1l12.4,17.2
			c0.5,0.6,1.9,1.4,3,1.3l36.1-3.9c0.8-0.1,2.2-1.1,2.6-1.9l14-32.4c0.7-1.5,0.4-3.9-0.5-5.3l-13.1-18.6c-2.3-3.3-2.9-8.4-1.2-12.1
			l5.4-12.4c0.3-0.7,0.2-2.3-0.2-3.2c-0.1-0.1-0.1-0.2-0.2-0.3l-8.1-10.4c-1.2-1.5-3.6-1.2-4.4,0.6l-9,20.8
			c-1.6,3.7-5.7,6.7-9.6,7.2l-18.2,2c-1.6,0.2-3.5,1.6-4.2,3.1l-7.5,17.4c-1.5,3.6-5.3,6.5-9.1,7.2c-24.5,3-104.9,11.9-127.9,15.1
			c-4.1,0.4-8.7-1.8-11-5.2c0,0-16.7-23.8-16.7-23.8c-1.4-2-3.7-5.1-5.2-7.1l-16.5-23c-2.3-3.3-2.9-8.4-1.3-12.1L55.6,157
			c1.6-3.7,5.7-6.7,9.6-7.2l40.3-4.6c1.6-0.2,3.5-1.6,4.2-3.1l5.3-12.3c0.7-1.7-0.6-3.6-2.4-3.4c-8.5,1-20.8,2.4-32,3.6
			c-9.4,0.9-22.4,1.5-31.5,3c-0.1,0-0.2,0-0.3,0.1c-1,0.4-2.5,1.7-2.9,2.7L7.3,224.9c-0.3,0.8-0.2,2.6,0.3,3.3
			c12.1,17.4,28.9,40.8,42,57.4c0,0,0.1,0.1,0.1,0.1l0.1,0.1l3.8,5.2c3.8,5,16.3,22.8,20.1,28.1c3.5,4.5,9.9,13,13.3,17.6
			c4.1,5.3,15.7,22.1,19.7,27.8c4.9,7,5.7,7.7,12.8,16.9c0.4,0.5,1.1,0.8,1.8,0.8c29.4-3,41.5-4.6,64.5-7.3c2.1-0.2,3.2-2.8,1.9-4.5
			c-2.6-3.5-6-8-8.1-10.8c-1.2-1.5-3-2.3-4.9-2c-0.6,0.1-1.2,0.2-1.9,0.3c-14.9,1.8-37.1,4.6-38.7,4.6c-3.7,0-6.9-0.9-9.2-3.7
			l-1-1.1c0-0.1-0.1-0.1-0.1-0.2l-5.8-8c-3.7-4.9-15-21-18.7-26.3c-1.2-1.6-5.2-7.4-6.1-9.8c-0.7-1.9-0.5-3.9,0.6-5.6
			c1.3-2,3.7-3.3,6.5-3.5l7.3-0.7c5.6-0.4,23.4-3,29.3-3.7"/>
		<path class="st0" d="M325.1,263.9c2.4,3.2,3.1,8.4,1.5,12.1l-26.4,61.2c-1.6,3.7-5.7,6.7-9.6,7.2l-64.9,7.3
			c-0.4,0-0.7,0.1-1.1,0.1c-3.7,0-7.5-2.3-9.6-5.2L189.8,312c-0.5-0.6-1.9-1.4-3-1.4l-16.5,2.6c-0.4,0.1-0.6,0.6-0.4,0.9
			c9.4,15.2,15.9,22.6,22,31c0,0,16.6,23.3,16.6,23.3c1.1,1.6,3,2.7,4.5,2.7c7.3,0,7-1.1,18.1-2.2c22.9-2.6,28.8-3.1,44.6-4.6
			c6.1-0.5,24.9-3,31.2-3.7c0.8-0.1,2.3-1.2,2.6-2l74.7-172.9c0.3-0.8,0.2-2.6-0.3-3.3c-12.1-16.6-26.2-36.4-40-55
			c-0.2-0.3-0.7-0.3-0.9,0.1l-6.8,15.7c-0.3,0.8-0.1,2.5,0.4,3.2l21.3,27.3c5.8,7.5,4.5,23.1,2.4,26.9l-18.3,39.3
			c-2.2,5.4-8.6,6-11.9,1.3c0,0-65.8-91.3-65.8-91.3c-2.4-3.3-2.9-8.4-1.3-12.1l7.9-18.3c0.1-0.3,0.2-1,0.3-1.7
			c0.1-1.6-0.3-3.1-1.2-4.4c-0.4-0.6-0.9-1.3-1.4-2l-9.3-12.6c-4.3-5.6-5-7.1-10-13.7c-0.8-1.1-2.1-1.8-3.5-1.8c-0.7,0-1.3,0-1.9,0
			c0,0-4.8,0.5-9.2,1c-9.4,1.2-24.1,3.2-24.2,3.2c-0.9,0.1-2.3,1.2-2.7,2.1l-9.2,21.3c-1.5,3.5-5.8,6.8-9.5,7.3l-14,1.9
			c-0.9,0.1-2.3,1.2-2.7,2l-6.4,15.9c-0.2,0.5,0.2,1.1,0.8,1.1c9.8-1.2,21.9-2.6,25.4-2.6c2.5,0,5.1,0.2,7,0.5
			c1.8,0.3,3.7,1.8,5.5,4.4c4.2,6.1,8.7,13.3,8.7,13.3c2.6,3.2,7.6,2.5,9,2.3c0.1,0,10.6-2.1,10.7-2.1c1.7-0.2,4.1-0.3,6.4-0.3
			c1.2,0,2.3,0,3.2,0.1c2.4,0.2,6,2.1,9.6,8"/>
		<path class="st0" d="M85.5,48.5c-0.8,0.1-2.1,1-2.5,1.8l-27.4,63.4c-0.1,0.2,0.1,0.5,0.3,0.5l16.9-1.4c0.9-0.2,2.3-1.2,2.6-2
			l16.9-39C93.9,68,98,65,102,64.6l50.9-5.6c0.3,0,0.7-0.1,1-0.1c5.2-0.1,8.3,5.1,6.1,9.9c0,0-44.9,103.9-44.9,103.9
			c-1.6,3.7-5.6,6.7-9.6,7.2l-20.9,2.5c-1,0.1-2.2,1-2.6,2l-14.6,33.8c-0.3,0.8-0.2,2.6,0.3,3.3l4.6,6.4c3.2,4.5,8.9,12.3,12,16.9
			c1.1,1.6,3.3,4.5,5.1,6l0.4,0.2c1.1,0.6,2.3,0.9,3.5,0.9c7.8-0.3,12.6-0.7,19.9-1.7c3.8-0.6,9.5-3,11.2-0.6l11.8,15.8
			c0.5,0.8,1.4,1.2,2.3,1.2c6.4-0.3,12.5-1.7,15.3-2.2c0.5-0.1,0.8-0.7,0.5-1.2l-15.1-21.2c-2.2-3.1-2.8-8.6-1.3-12.1l7.4-17
			c0.4-0.8,0.2-2.7-0.3-3.4c-0.1-0.3-12-17.1-12.4-17.5c-2.4-3.3-3-8.4-1.4-12.1l51.2-118.5c1.6-3.7,5.3-6.5,8.9-6.6l1.4-0.3
			c18-3.1,25.1-2.8,35.5-4.3c6.9-0.4,25.6-2.4,32.4-2.1c0.6,0,5.6,0.7,9.6,6.6c2.6,3.8,5.1,7.2,8.6,12.2
			c7.4,10.5,8.7,11.7,14.2,18.9c0,0,13.8,20.3,13.8,20.3c2.4,3.3,3,8.3,1.3,12l-16.8,38.8c-0.3,0.8-0.4,2.9,0.3,3.4l10,12.9
			c0.3,0.4,1,0.3,1.2-0.2l27.1-62.6c0.3-0.8,0.2-2.5-0.3-3.2l-2.8-3.7c-3.5-4.9-14.9-20.4-18.7-25.5c-3.2-4.6-12.7-17.8-16.1-22.6
			c-3.2-5-15.3-21.4-19-26.6c-0.4-0.5-1.8-1.2-2.7-1.1c-0.4,0.1-9.5,1.5-16.4,2.2"/>
	</g>
</g>
<text transform="matrix(1 0 0 1 449.1157 364.7422)" class="st1 st2 st3 st4">DLT LANDSCAPE</text>
</svg>
