<?xml version="1.0" encoding="utf-8"?>
<svg width="1160px" height="1160px" viewBox="0 0 1160 1160" version="1.1" baseProfile="full" xmlns="http://www.w3.org/2000/svg" xmlns:bx="https://boxy-svg.com">
  <g transform="matrix(2.32, 0, 0, -2.32, 0, 1160)" bx:origin="0 1">
    <path d="M 1.000000 501.000000 L 501.000000 501.000000 L 501.000000 1.000000 L 1.000000 1.000000 L 1.000000 501.000000 Z M 31.303030 470.696970 L 31.303030 364.636364 L 137.363636 364.636364 L 137.363636 470.696970 L 31.303030 470.696970 Z M 152.515152 470.696970 L 152.515152 425.242424 L 167.666667 425.242424 L 167.666667 470.696970 L 152.515152 470.696970 Z M 197.969697 425.242424 L 213.121212 425.242424 L 213.121212 410.090909 L 152.515152 410.090909 L 152.515152 394.939394 L 197.969697 394.939394 L 197.969697 379.787879 L 182.818182 379.787879 L 182.818182 349.484848 L 76.757576 349.484848 L 76.757576 334.333333 L 76.757576 334.333333 L 61.606061 334.333333 L 61.606061 319.181818 L 76.757576 319.181818 L 76.757576 334.333333 L 91.909091 334.333333 L 91.909091 304.030303 L 76.757576 304.030303 L 76.757576 273.727273 L 91.909091 273.727273 L 91.909091 258.575758 L 61.606061 258.575758 L 61.606061 273.727273 L 46.454545 273.727273 L 46.454545 273.727273 L 46.454545 288.878788 L 61.606061 288.878788 L 61.606061 304.030303 L 46.454545 304.030303 L 46.454545 319.181818 L 31.303030 319.181818 L 31.303030 273.727273 L 46.454545 273.727273 L 46.454545 258.575758 L 31.303030 258.575758 L 31.303030 243.424242 L 61.606061 243.424242 L 61.606061 228.272727 L 31.303030 228.272727 L 31.303030 152.515152 L 61.606061 152.515152 L 61.606061 182.818182 L 76.757576 182.818182 L 76.757576 167.666667 L 122.212121 167.666667 L 122.212121 152.515152 L 152.515152 152.515152 L 152.515152 76.757576 L 182.818182 76.757576 L 182.818182 46.454545 L 152.515152 46.454545 L 152.515152 31.303030 L 213.121212 31.303030 L 213.121212 46.454545 L 197.969697 46.454545 L 197.969697 61.606061 L 228.272727 61.606061 L 228.272727 76.757576 L 258.575758 76.757576 L 258.575758 61.606061 L 243.424242 61.606061 L 243.424242 46.454545 L 243.424242 46.454545 L 228.272727 46.454545 L 228.272727 31.303030 L 243.424242 31.303030 L 243.424242 46.454545 L 273.727273 46.454545 L 273.727273 61.606061 L 304.030303 61.606061 L 304.030303 31.303030 L 364.636364 31.303030 L 364.636364 46.454545 L 379.787879 46.454545 L 379.787879 61.606061 L 379.787879 61.606061 L 394.939394 61.606061 L 394.939394 46.454545 L 440.393939 46.454545 L 440.393939 61.606061 L 455.545455 61.606061 L 455.545455 46.454545 L 470.696970 46.454545 L 470.696970 122.212121 L 440.393939 122.212121 L 440.393939 91.909091 L 455.545455 91.909091 L 455.545455 76.757576 L 425.242424 76.757576 L 425.242424 61.606061 L 410.090909 61.606061 L 410.090909 76.757576 L 379.787879 76.757576 L 379.787879 61.606061 L 364.636364 61.606061 L 364.636364 46.454545 L 319.181818 46.454545 L 319.181818 76.757576 L 288.878788 76.757576 L 288.878788 107.060606 L 304.030303 107.060606 L 304.030303 137.363636 L 319.181818 137.363636 L 319.181818 122.212121 L 334.333333 122.212121 L 334.333333 107.060606 L 319.181818 107.060606 L 319.181818 91.909091 L 334.333333 91.909091 L 334.333333 76.757576 L 364.636364 76.757576 L 364.636364 91.909091 L 425.242424 91.909091 L 425.242424 107.060606 L 410.090909 107.060606 L 410.090909 122.212121 L 425.242424 122.212121 L 425.242424 152.515152 L 455.545455 152.515152 L 455.545455 167.666667 L 440.393939 167.666667 L 440.393939 182.818182 L 425.242424 182.818182 L 425.242424 197.969697 L 455.545455 197.969697 L 455.545455 197.969697 L 455.545455 182.818182 L 470.696970 182.818182 L 470.696970 197.969697 L 455.545455 197.969697 L 455.545455 213.121212 L 425.242424 213.121212 L 425.242424 228.272727 L 440.393939 228.272727 L 440.393939 258.575758 L 455.545455 258.575758 L 455.545455 228.272727 L 470.696970 228.272727 L 470.696970 304.030303 L 455.545455 304.030303 L 455.545455 273.727273 L 394.939394 273.727273 L 394.939394 288.878788 L 425.242424 288.878788 L 425.242424 304.030303 L 425.242424 304.030303 L 440.393939 304.030303 L 440.393939 319.181818 L 455.545455 319.181818 L 455.545455 334.333333 L 470.696970 334.333333 L 470.696970 349.484848 L 425.242424 349.484848 L 425.242424 304.030303 L 410.090909 304.030303 L 410.090909 349.484848 L 394.939394 349.484848 L 394.939394 334.333333 L 379.787879 334.333333 L 379.787879 304.030303 L 394.939394 304.030303 L 394.939394 288.878788 L 364.636364 288.878788 L 364.636364 349.484848 L 349.484848 349.484848 L 349.484848 379.787879 L 334.333333 379.787879 L 334.333333 364.636364 L 319.181818 364.636364 L 319.181818 379.787879 L 304.030303 379.787879 L 304.030303 394.939394 L 334.333333 394.939394 L 334.333333 410.090909 L 349.484848 410.090909 L 349.484848 440.393939 L 334.333333 440.393939 L 334.333333 455.545455 L 304.030303 455.545455 L 304.030303 470.696970 L 288.878788 470.696970 L 288.878788 440.393939 L 304.030303 440.393939 L 304.030303 425.242424 L 288.878788 425.242424 L 288.878788 410.090909 L 304.030303 410.090909 L 304.030303 394.939394 L 288.878788 394.939394 L 288.878788 379.787879 L 288.878788 379.787879 L 273.727273 379.787879 L 273.727273 364.636364 L 288.878788 364.636364 L 288.878788 379.787879 L 304.030303 379.787879 L 304.030303 349.484848 L 258.575758 349.484848 L 258.575758 394.939394 L 273.727273 394.939394 L 273.727273 425.242424 L 258.575758 425.242424 L 258.575758 440.393939 L 273.727273 440.393939 L 273.727273 470.696970 L 197.969697 470.696970 Z M 364.636364 470.696970 L 364.636364 364.636364 L 470.696970 364.636364 L 470.696970 470.696970 L 364.636364 470.696970 Z M 152.515152 379.787879 L 152.515152 364.636364 L 167.666667 364.636364 L 167.666667 379.787879 L 152.515152 379.787879 Z M 31.303030 349.484848 L 31.303030 334.333333 L 46.454545 334.333333 L 46.454545 349.484848 L 31.303030 349.484848 Z M 31.303030 137.363636 L 31.303030 31.303030 L 137.363636 31.303030 L 137.363636 137.363636 L 31.303030 137.363636 Z" transform="scale(1.000000,1.000000) translate(-1.000000,-1.000000)" fill="#ffffff" opacity="1.000000"/>
    <path d="M 1.000000 107.060606 L 107.060606 107.060606 L 107.060606 1.000000 L 1.000000 1.000000 L 1.000000 107.060606 Z M 17.017316 91.043290 L 17.017316 17.017316 L 91.043290 17.017316 L 91.043290 91.043290 L 17.017316 91.043290 Z" transform="scale(1.000000,1.000000) translate(29.303030,362.636364)" fill="#0069b2" opacity="1.000000"/>
    <path d="M 1.000000 46.454545 L 16.151515 46.454545 L 16.151515 1.000000 L 1.000000 1.000000 L 1.000000 46.454545 Z" transform="scale(1.000000,1.000000) translate(150.515152,423.242424)" fill="#0069b2" opacity="1.000000"/>
    <path d="M 1.000000 76.757576 L 76.757576 76.757576 L 76.757576 46.454545 L 61.606061 46.454545 L 61.606061 31.303030 L 76.757576 31.303030 L 76.757576 1.000000 L 61.606061 1.000000 L 61.606061 16.151515 L 46.454545 16.151515 L 46.454545 31.303030 L 31.303030 31.303030 L 31.303030 61.606061 L 16.151515 61.606061 L 16.151515 31.303030 L 1.000000 31.303030 Z" transform="scale(1.000000,1.000000) translate(195.969697,392.939394)" fill="#0069b2" opacity="1.000000"/>
    <path d="M 1.000000 61.606061 L 16.151515 61.606061 L 16.151515 46.454545 L 46.454545 46.454545 L 46.454545 31.303030 L 61.606061 31.303030 L 61.606061 1.000000 L 46.454545 1.000000 L 46.454545 16.151515 L 16.151515 16.151515 L 16.151515 31.303030 L 1.000000 31.303030 Z" transform="scale(1.000000,1.000000) translate(286.878788,408.090909)" fill="#0069b2" opacity="1.000000"/>
    <path d="M 1.000000 107.060606 L 107.060606 107.060606 L 107.060606 1.000000 L 1.000000 1.000000 L 1.000000 107.060606 Z M 17.017316 91.043290 L 17.017316 17.017316 L 91.043290 17.017316 L 91.043290 91.043290 L 17.017316 91.043290 Z" transform="scale(1.000000,1.000000) translate(362.636364,362.636364)" fill="#0069b2" opacity="1.000000"/>
    <path d="M 1.000000 31.303030 L 16.151515 31.303030 L 16.151515 1.000000 L 1.000000 1.000000 Z" transform="scale(1.000000,1.000000) translate(211.121212,423.242424)" fill="#ffffff" opacity="1.000000"/>
    <path d="M 1.000000 75.025974 L 75.025974 75.025974 L 75.025974 1.000000 L 1.000000 1.000000 L 1.000000 75.025974 Z M 15.285714 60.740260 L 15.285714 15.285714 L 60.740260 15.285714 L 60.740260 60.740260 L 15.285714 60.740260 Z" transform="scale(1.000000,1.000000) translate(45.320346,378.653680)" fill="#ffffff" opacity="1.000000"/>
    <path d="M 1.000000 75.025974 L 75.025974 75.025974 L 75.025974 1.000000 L 1.000000 1.000000 L 1.000000 75.025974 Z M 15.285714 60.740260 L 15.285714 15.285714 L 60.740260 15.285714 L 60.740260 60.740260 L 15.285714 60.740260 Z" transform="scale(1.000000,1.000000) translate(378.653680,378.653680)" fill="#ffffff" opacity="1.000000"/>
    <path d="M 1.000000 46.454545 L 46.454545 46.454545 L 46.454545 1.000000 L 1.000000 1.000000 L 1.000000 46.454545 Z" transform="scale(1.000000,1.000000) translate(59.606061,392.939394)" fill="#0069b2" opacity="1.000000"/>
    <path d="M 1.000000 46.454545 L 46.454545 46.454545 L 46.454545 1.000000 L 1.000000 1.000000 L 1.000000 46.454545 Z" transform="scale(1.000000,1.000000) translate(392.939394,392.939394)" fill="#0069b2" opacity="1.000000"/>
    <path d="M 182.818182 273.727273 L 197.969697 273.727273 L 197.969697 258.575758 L 213.121212 258.575758 L 213.121212 243.424242 L 228.272727 243.424242 L 228.272727 197.969697 L 273.727273 197.969697 L 273.727273 182.818182 L 228.272727 182.818182 L 228.272727 152.515152 L 243.424242 152.515152 L 243.424242 137.363636 L 228.272727 137.363636 L 228.272727 122.212121 L 182.818182 122.212121 L 182.818182 137.363636 L 167.666667 137.363636 L 167.666667 167.666667 L 182.818182 167.666667 L 182.818182 152.515152 L 197.969697 152.515152 L 197.969697 137.363636 L 213.121212 137.363636 L 213.121212 182.818182 L 197.969697 182.818182 L 197.969697 167.666667 L 182.818182 167.666667 L 182.818182 182.818182 L 167.666667 182.818182 L 167.666667 167.666667 L 152.515152 167.666667 L 152.515152 182.818182 L 91.909091 182.818182 L 91.909091 167.666667 L 137.363636 167.666667 L 137.363636 152.515152 L 122.212121 152.515152 L 122.212121 137.363636 L 137.363636 137.363636 L 137.363636 122.212121 L 122.212121 122.212121 L 122.212121 91.909091 L 91.909091 91.909091 L 91.909091 107.060606 L 107.060606 107.060606 L 107.060606 122.212121 L 91.909091 122.212121 L 91.909091 107.060606 L 76.757576 107.060606 L 76.757576 76.757576 L 61.606061 76.757576 L 61.606061 61.606061 L 46.454545 61.606061 L 46.454545 31.303030 L 31.303030 31.303030 L 31.303030 1.000000 L 1.000000 1.000000 L 1.000000 76.757576 L 31.303030 76.757576 L 31.303030 91.909091 L 1.000000 91.909091 L 1.000000 107.060606 L 16.151515 107.060606 L 16.151515 122.212121 L 31.303030 122.212121 L 31.303030 107.060606 L 61.606061 107.060606 L 61.606061 122.212121 L 46.454545 122.212121 L 46.454545 152.515152 L 61.606061 152.515152 L 61.606061 137.363636 L 107.060606 137.363636 L 107.060606 152.515152 L 61.606061 152.515152 L 61.606061 182.818182 L 46.454545 182.818182 L 46.454545 197.969697 L 152.515152 197.969697 L 152.515152 228.272727 L 167.666667 228.272727 L 167.666667 197.969697 L 213.121212 197.969697 L 213.121212 228.272727 L 197.969697 228.272727 L 197.969697 243.424242 L 182.818182 243.424242 L 182.818182 228.272727 L 167.666667 228.272727 L 167.666667 243.424242 L 122.212121 243.424242 L 122.212121 258.575758 L 182.818182 258.575758 Z M 16.151515 61.606061 L 16.151515 46.454545 L 31.303030 46.454545 L 31.303030 61.606061 L 16.151515 61.606061 Z" transform="scale(1.000000,1.000000) translate(29.303030,150.515152)" fill="#0069b2" opacity="1.000000"/>
    <path d="M 1.000000 16.151515 L 16.151515 16.151515 L 16.151515 1.000000 L 1.000000 1.000000 Z" transform="scale(1.000000,1.000000) translate(226.272727,408.090909)" fill="#ffffff" opacity="1.000000"/>
    <path d="M 1.000000 16.151515 L 16.151515 16.151515 L 16.151515 1.000000 L 1.000000 1.000000 Z" transform="scale(1.000000,1.000000) translate(286.878788,408.090909)" fill="#0069b2" opacity="1.000000"/>
    <path d="M 1.000000 16.151515 L 31.303030 16.151515 L 31.303030 1.000000 L 1.000000 1.000000 Z" transform="scale(1.000000,1.000000) translate(302.030303,408.090909)" fill="#ffffff" opacity="1.000000"/>
    <path d="M 1.000000 16.151515 L 16.151515 16.151515 L 16.151515 1.000000 L 1.000000 1.000000 Z" transform="scale(1.000000,1.000000) translate(241.424242,392.939394)" fill="#ffffff" opacity="1.000000"/>
    <path d="M 1.000000 16.151515 L 31.303030 16.151515 L 31.303030 1.000000 L 1.000000 1.000000 Z" transform="scale(1.000000,1.000000) translate(302.030303,392.939394)" fill="#0069b2" opacity="1.000000"/>
    <path d="M 1.000000 16.151515 L 16.151515 16.151515 L 16.151515 1.000000 L 8.575758 1.000000 L 1.000000 1.000000 Z" transform="scale(1.000000,1.000000) translate(211.121212,377.787879)" fill="#ffffff" opacity="1.000000"/>
    <path d="M 1.000000 16.151515 L 16.151515 16.151515 L 16.151515 1.000000 L 1.000000 1.000000 Z" transform="scale(1.000000,1.000000) translate(286.878788,377.787879)" fill="#0069b2" opacity="1.000000"/>
    <path d="M 1.000000 16.151515 L 16.151515 16.151515 L 16.151515 1.000000 L 1.000000 1.000000 L 1.000000 16.151515 Z" transform="scale(1.000000,1.000000) translate(150.515152,362.636364)" fill="#0069b2" opacity="1.000000"/>
    <path d="M 1.000000 31.303030 L 16.151515 31.303030 L 16.151515 16.151515 L 31.303030 16.151515 L 31.303030 31.303030 L 46.454545 31.303030 L 46.454545 1.000000 L 1.000000 1.000000 Z" transform="scale(1.000000,1.000000) translate(195.969697,347.484848)" fill="#ffffff" opacity="1.000000"/>
    <path d="M 1.000000 16.151515 L 8.575758 16.151515 L 16.151515 16.151515 L 16.151515 1.000000 L 1.000000 1.000000 Z" transform="scale(1.000000,1.000000) translate(211.121212,362.636364)" fill="#0069b2" opacity="1.000000"/>
    <path d="M 1.000000 16.151515 L 16.151515 16.151515 L 16.151515 16.151515 L 16.151515 1.000000 L 1.000000 1.000000 Z" transform="scale(1.000000,1.000000) translate(271.727273,362.636364)" fill="#0069b2" opacity="1.000000"/>
    <path d="M 1.000000 91.909091 L 16.151515 91.909091 L 16.151515 76.757576 L 31.303030 76.757576 L 31.303030 91.909091 L 46.454545 91.909091 L 46.454545 61.606061 L 61.606061 61.606061 L 61.606061 1.000000 L 46.454545 1.000000 L 46.454545 46.454545 L 31.303030 46.454545 L 31.303030 31.303030 L 1.000000 31.303030 L 1.000000 46.454545 L 16.151515 46.454545 L 16.151515 61.606061 L 1.000000 61.606061 Z" transform="scale(1.000000,1.000000) translate(302.030303,286.878788)" fill="#0069b2" opacity="1.000000"/>
    <path d="M 1.000000 16.151515 L 16.151515 16.151515 L 16.151515 1.000000 L 1.000000 1.000000 L 1.000000 16.151515 Z" transform="scale(1.000000,1.000000) translate(29.303030,332.333333)" fill="#0069b2" opacity="1.000000"/>
    <path d="M 1.000000 16.151515 L 16.151515 16.151515 L 16.151515 1.000000 L 1.000000 1.000000 Z" transform="scale(1.000000,1.000000) translate(302.030303,332.333333)" fill="#ffffff" opacity="1.000000"/>
    <path d="M 16.151515 61.606061 L 31.303030 61.606061 L 31.303030 16.151515 L 46.454545 16.151515 L 46.454545 1.000000 L 16.151515 1.000000 L 16.151515 16.151515 L 1.000000 16.151515 L 1.000000 46.454545 L 16.151515 46.454545 Z" transform="scale(1.000000,1.000000) translate(377.787879,286.878788)" fill="#0069b2" opacity="1.000000"/>
    <path d="M 1.000000 46.454545 L 46.454545 46.454545 L 46.454545 31.303030 L 31.303030 31.303030 L 31.303030 16.151515 L 16.151515 16.151515 L 16.151515 1.000000 L 1.000000 1.000000 L 1.000000 1.000000 Z" transform="scale(1.000000,1.000000) translate(423.242424,302.030303)" fill="#0069b2" opacity="1.000000"/>
    <path d="M 1.000000 16.151515 L 16.151515 16.151515 L 16.151515 16.151515 L 16.151515 1.000000 L 1.000000 1.000000 Z" transform="scale(1.000000,1.000000) translate(59.606061,317.181818)" fill="#0069b2" opacity="1.000000"/>
    <path d="M 16.151515 243.424242 L 76.757576 243.424242 L 76.757576 228.272727 L 91.909091 228.272727 L 91.909091 197.969697 L 76.757576 197.969697 L 76.757576 182.818182 L 91.909091 182.818182 L 91.909091 197.969697 L 107.060606 197.969697 L 107.060606 182.818182 L 152.515152 182.818182 L 152.515152 197.969697 L 167.666667 197.969697 L 167.666667 182.818182 L 182.818182 182.818182 L 182.818182 197.969697 L 197.969697 197.969697 L 197.969697 228.272727 L 228.272727 228.272727 L 228.272727 243.424242 L 243.424242 243.424242 L 243.424242 197.969697 L 258.575758 197.969697 L 258.575758 167.666667 L 243.424242 167.666667 L 243.424242 152.515152 L 228.272727 152.515152 L 228.272727 167.666667 L 213.121212 167.666667 L 213.121212 182.818182 L 197.969697 182.818182 L 197.969697 167.666667 L 213.121212 167.666667 L 213.121212 152.515152 L 197.969697 152.515152 L 197.969697 137.363636 L 213.121212 137.363636 L 213.121212 122.212121 L 182.818182 122.212121 L 182.818182 107.060606 L 167.666667 107.060606 L 167.666667 167.666667 L 137.363636 167.666667 L 137.363636 152.515152 L 107.060606 152.515152 L 107.060606 91.909091 L 122.212121 91.909091 L 122.212121 16.151515 L 91.909091 16.151515 L 91.909091 1.000000 L 61.606061 1.000000 L 61.606061 31.303030 L 76.757576 31.303030 L 76.757576 61.606061 L 46.454545 61.606061 L 46.454545 91.909091 L 31.303030 91.909091 L 31.303030 107.060606 L 16.151515 107.060606 L 16.151515 122.212121 L 31.303030 122.212121 L 31.303030 137.363636 L 1.000000 137.363636 L 1.000000 167.666667 L 16.151515 167.666667 L 16.151515 152.515152 L 46.454545 152.515152 L 46.454545 107.060606 L 61.606061 107.060606 L 61.606061 122.212121 L 76.757576 122.212121 L 76.757576 137.363636 L 91.909091 137.363636 L 91.909091 152.515152 L 76.757576 152.515152 L 76.757576 167.666667 L 61.606061 167.666667 L 61.606061 152.515152 L 46.454545 152.515152 L 46.454545 182.818182 L 61.606061 182.818182 L 61.606061 197.969697 L 46.454545 197.969697 L 46.454545 213.121212 L 61.606061 213.121212 L 61.606061 228.272727 L 16.151515 228.272727 Z M 61.606061 76.757576 L 91.909091 76.757576 L 91.909091 76.757576 L 91.909091 61.606061 L 107.060606 61.606061 L 107.060606 76.757576 L 91.909091 76.757576 L 91.909091 76.757576 L 91.909091 91.909091 L 61.606061 91.909091 Z M 91.909091 46.454545 L 91.909091 31.303030 L 107.060606 31.303030 L 107.060606 46.454545 L 91.909091 46.454545 Z" transform="scale(1.000000,1.000000) translate(105.060606,89.909091)" fill="#ffffff" opacity="1.000000"/>
    <path d="M 1.000000 16.151515 L 16.151515 16.151515 L 16.151515 1.000000 L 1.000000 1.000000 Z" transform="scale(1.000000,1.000000) translate(195.969697,317.181818)" fill="#ffffff" opacity="1.000000"/>
    <path d="M 16.151515 46.454545 L 31.303030 46.454545 L 31.303030 1.000000 L 16.151515 1.000000 L 16.151515 16.151515 L 1.000000 16.151515 L 1.000000 31.303030 L 16.151515 31.303030 Z" transform="scale(1.000000,1.000000) translate(211.121212,286.878788)" fill="#ffffff" opacity="1.000000"/>
    <path d="M 1.000000 46.454545 L 46.454545 46.454545 L 46.454545 31.303030 L 31.303030 31.303030 L 31.303030 1.000000 L 16.151515 1.000000 L 16.151515 16.151515 L 1.000000 16.151515 Z" transform="scale(1.000000,1.000000) translate(256.575758,286.878788)" fill="#ffffff" opacity="1.000000"/>
    <path d="M 1.000000 46.454545 L 16.151515 46.454545 L 16.151515 31.303030 L 31.303030 31.303030 L 31.303030 16.151515 L 16.151515 16.151515 L 16.151515 1.000000 L 16.151515 1.000000 L 1.000000 1.000000 Z" transform="scale(1.000000,1.000000) translate(29.303030,271.727273)" fill="#0069b2" opacity="1.000000"/>
    <path d="M 1.000000 31.303030 L 16.151515 31.303030 L 16.151515 1.000000 L 1.000000 1.000000 Z" transform="scale(1.000000,1.000000) translate(286.878788,286.878788)" fill="#0069b2" opacity="1.000000"/>
    <path d="M 1.000000 16.151515 L 46.454545 16.151515 L 46.454545 1.000000 L 1.000000 1.000000 Z" transform="scale(1.000000,1.000000) translate(89.909091,286.878788)" fill="#ffffff" opacity="1.000000"/>
    <path d="M 167.666667 228.272727 L 182.818182 228.272727 L 182.818182 152.515152 L 167.666667 152.515152 L 167.666667 182.818182 L 152.515152 182.818182 L 152.515152 152.515152 L 137.363636 152.515152 L 137.363636 182.818182 L 91.909091 182.818182 L 91.909091 167.666667 L 76.757576 167.666667 L 76.757576 152.515152 L 61.606061 152.515152 L 61.606061 122.212121 L 91.909091 122.212121 L 91.909091 107.060606 L 76.757576 107.060606 L 76.757576 91.909091 L 107.060606 91.909091 L 107.060606 137.363636 L 122.212121 137.363636 L 122.212121 122.212121 L 137.363636 122.212121 L 137.363636 107.060606 L 152.515152 107.060606 L 152.515152 91.909091 L 167.666667 91.909091 L 167.666667 76.757576 L 137.363636 76.757576 L 137.363636 46.454545 L 122.212121 46.454545 L 122.212121 31.303030 L 137.363636 31.303030 L 137.363636 16.151515 L 76.757576 16.151515 L 76.757576 1.000000 L 46.454545 1.000000 L 46.454545 16.151515 L 31.303030 16.151515 L 31.303030 31.303030 L 46.454545 31.303030 L 46.454545 46.454545 L 31.303030 46.454545 L 31.303030 61.606061 L 46.454545 61.606061 L 46.454545 91.909091 L 61.606061 91.909091 L 61.606061 107.060606 L 31.303030 107.060606 L 31.303030 122.212121 L 1.000000 122.212121 L 1.000000 137.363636 L 31.303030 137.363636 L 31.303030 152.515152 L 46.454545 152.515152 L 46.454545 167.666667 L 61.606061 167.666667 L 61.606061 182.818182 L 76.757576 182.818182 L 76.757576 213.121212 L 107.060606 213.121212 L 107.060606 197.969697 L 167.666667 197.969697 Z M 61.606061 76.757576 L 61.606061 31.303030 L 107.060606 31.303030 L 107.060606 76.757576 L 61.606061 76.757576 Z" transform="scale(1.000000,1.000000) translate(286.878788,74.757576)" fill="#0069b2" opacity="1.000000"/>
    <path d="M 1.000000 16.151515 L 16.151515 16.151515 L 16.151515 1.000000 L 1.000000 1.000000 Z" transform="scale(1.000000,1.000000) translate(180.818182,271.727273)" fill="#0069b2" opacity="1.000000"/>
    <path d="M 1.000000 16.151515 L 16.151515 16.151515 L 16.151515 1.000000 L 1.000000 1.000000 Z" transform="scale(1.000000,1.000000) translate(271.727273,271.727273)" fill="#0069b2" opacity="1.000000"/>
    <path d="M 1.000000 16.151515 L 16.151515 16.151515 L 16.151515 1.000000 L 1.000000 1.000000 Z" transform="scale(1.000000,1.000000) translate(120.212121,256.575758)" fill="#ffffff" opacity="1.000000"/>
    <path d="M 1.000000 16.151515 L 16.151515 16.151515 L 16.151515 1.000000 L 1.000000 1.000000 Z" transform="scale(1.000000,1.000000) translate(302.030303,256.575758)" fill="#0069b2" opacity="1.000000"/>
    <path d="M 16.151515 61.606061 L 31.303030 61.606061 L 31.303030 46.454545 L 46.454545 46.454545 L 46.454545 31.303030 L 31.303030 31.303030 L 31.303030 16.151515 L 16.151515 16.151515 L 16.151515 1.000000 L 1.000000 1.000000 L 1.000000 46.454545 L 16.151515 46.454545 Z" transform="scale(1.000000,1.000000) translate(150.515152,195.969697)" fill="#0069b2" opacity="1.000000"/>
    <path d="M 46.454545 228.272727 L 76.757576 228.272727 L 76.757576 167.666667 L 91.909091 167.666667 L 91.909091 152.515152 L 76.757576 152.515152 L 76.757576 107.060606 L 107.060606 107.060606 L 107.060606 76.757576 L 91.909091 76.757576 L 91.909091 91.909091 L 76.757576 91.909091 L 76.757576 76.757576 L 61.606061 76.757576 L 61.606061 152.515152 L 46.454545 152.515152 L 46.454545 61.606061 L 76.757576 61.606061 L 76.757576 76.757576 L 91.909091 76.757576 L 91.909091 46.454545 L 122.212121 46.454545 L 122.212121 16.151515 L 167.666667 16.151515 L 167.666667 1.000000 L 107.060606 1.000000 L 107.060606 31.303030 L 76.757576 31.303030 L 76.757576 16.151515 L 46.454545 16.151515 L 46.454545 31.303030 L 61.606061 31.303030 L 61.606061 46.454545 L 31.303030 46.454545 L 31.303030 61.606061 L 1.000000 61.606061 L 1.000000 76.757576 L 31.303030 76.757576 L 31.303030 152.515152 L 16.151515 152.515152 L 16.151515 213.121212 L 46.454545 213.121212 Z M 31.303030 197.969697 L 31.303030 167.666667 L 61.606061 167.666667 L 61.606061 197.969697 L 31.303030 197.969697 Z" transform="scale(1.000000,1.000000) translate(195.969697,29.303030)" fill="#0069b2" opacity="1.000000"/>
    <path d="M 1.000000 16.151515 L 16.151515 16.151515 L 16.151515 1.000000 L 1.000000 1.000000 Z" transform="scale(1.000000,1.000000) translate(317.181818,241.424242)" fill="#0069b2" opacity="1.000000"/>
    <path d="M 1.000000 46.454545 L 46.454545 46.454545 L 46.454545 16.151515 L 31.303030 16.151515 L 31.303030 1.000000 L 16.151515 1.000000 L 16.151515 31.303030 L 1.000000 31.303030 Z" transform="scale(1.000000,1.000000) translate(377.787879,211.121212)" fill="#ffffff" opacity="1.000000"/>
    <path d="M 1.000000 16.151515 L 16.151515 16.151515 L 16.151515 1.000000 L 1.000000 1.000000 Z" transform="scale(1.000000,1.000000) translate(302.030303,226.272727)" fill="#0069b2" opacity="1.000000"/>
    <path d="M 1.000000 16.151515 L 16.151515 16.151515 L 16.151515 1.000000 L 1.000000 1.000000 Z" transform="scale(1.000000,1.000000) translate(317.181818,226.272727)" fill="#ffffff" opacity="1.000000"/>
    <path d="M 16.151515 76.757576 L 31.303030 76.757576 L 31.303030 46.454545 L 46.454545 46.454545 L 46.454545 1.000000 L 16.151515 1.000000 L 16.151515 16.151515 L 31.303030 16.151515 L 31.303030 31.303030 L 1.000000 31.303030 L 1.000000 61.606061 L 16.151515 61.606061 Z" transform="scale(1.000000,1.000000) translate(347.484848,165.666667)" fill="#ffffff" opacity="1.000000"/>
    <path d="M 1.000000 31.303030 L 16.151515 31.303030 L 16.151515 1.000000 L 1.000000 1.000000 Z" transform="scale(1.000000,1.000000) translate(377.787879,211.121212)" fill="#0069b2" opacity="1.000000"/>
    <path d="M 1.000000 16.151515 L 16.151515 16.151515 L 16.151515 1.000000 L 1.000000 1.000000 Z" transform="scale(1.000000,1.000000) translate(89.909091,211.121212)" fill="#ffffff" opacity="1.000000"/>
    <path d="M 31.303030 61.606061 L 61.606061 61.606061 L 61.606061 46.454545 L 46.454545 46.454545 L 46.454545 31.303030 L 61.606061 31.303030 L 61.606061 16.151515 L 46.454545 16.151515 L 46.454545 1.000000 L 1.000000 1.000000 L 1.000000 16.151515 L 31.303030 16.151515 L 31.303030 31.303030 L 16.151515 31.303030 L 16.151515 46.454545 L 31.303030 46.454545 Z" transform="scale(1.000000,1.000000) translate(74.757576,165.666667)" fill="#0069b2" opacity="1.000000"/>
    <path d="M 1.000000 31.303030 L 31.303030 31.303030 L 31.303030 1.000000 L 1.000000 1.000000 L 1.000000 31.303030 Z" transform="scale(1.000000,1.000000) translate(226.272727,195.969697)" fill="#ffffff" opacity="1.000000"/>
    <path d="M 1.000000 16.151515 L 16.151515 16.151515 L 16.151515 1.000000 L 1.000000 1.000000 Z" transform="scale(1.000000,1.000000) translate(408.090909,211.121212)" fill="#0069b2" opacity="1.000000"/>
    <path d="M 1.000000 16.151515 L 16.151515 16.151515 L 16.151515 1.000000 L 1.000000 1.000000 L 1.000000 16.151515 Z" transform="scale(1.000000,1.000000) translate(44.454545,195.969697)" fill="#ffffff" opacity="1.000000"/>
    <path d="M 1.000000 31.303030 L 16.151515 31.303030 L 16.151515 16.151515 L 31.303030 16.151515 L 31.303030 1.000000 L 1.000000 1.000000 Z" transform="scale(1.000000,1.000000) translate(74.757576,180.818182)" fill="#ffffff" opacity="1.000000"/>
    <path d="M 1.000000 16.151515 L 16.151515 16.151515 L 16.151515 1.000000 L 1.000000 1.000000 Z" transform="scale(1.000000,1.000000) translate(408.090909,195.969697)" fill="#ffffff" opacity="1.000000"/>
    <path d="M 1.000000 16.151515 L 31.303030 16.151515 L 31.303030 1.000000 L 1.000000 1.000000 Z" transform="scale(1.000000,1.000000) translate(423.242424,195.969697)" fill="#0069b2" opacity="1.000000"/>
    <path d="M 16.151515 61.606061 L 46.454545 61.606061 L 46.454545 46.454545 L 76.757576 46.454545 L 76.757576 31.303030 L 61.606061 31.303030 L 61.606061 1.000000 L 46.454545 1.000000 L 46.454545 16.151515 L 31.303030 16.151515 L 31.303030 31.303030 L 16.151515 31.303030 L 16.151515 16.151515 L 31.303030 16.151515 L 31.303030 1.000000 L 1.000000 1.000000 L 1.000000 46.454545 L 16.151515 46.454545 Z" transform="scale(1.000000,1.000000) translate(271.727273,135.363636)" fill="#ffffff" opacity="1.000000"/>
    <path d="M 1.000000 16.151515 L 16.151515 16.151515 L 16.151515 1.000000 L 1.000000 1.000000 L 1.000000 16.151515 Z" transform="scale(1.000000,1.000000) translate(453.545455,180.818182)" fill="#0069b2" opacity="1.000000"/>
    <path d="M 1.000000 16.151515 L 16.151515 16.151515 L 16.151515 1.000000 L 1.000000 1.000000 Z" transform="scale(1.000000,1.000000) translate(120.212121,165.666667)" fill="#ffffff" opacity="1.000000"/>
    <path d="M 16.151515 31.303030 L 31.303030 31.303030 L 31.303030 1.000000 L 1.000000 1.000000 L 1.000000 16.151515 L 16.151515 16.151515 Z" transform="scale(1.000000,1.000000) translate(120.212121,150.515152)" fill="#0069b2" opacity="1.000000"/>
    <path d="M 1.000000 16.151515 L 31.303030 16.151515 L 31.303030 1.000000 L 31.303030 1.000000 L 1.000000 1.000000 Z" transform="scale(1.000000,1.000000) translate(165.666667,165.666667)" fill="#0069b2" opacity="1.000000"/>
    <path d="M 1.000000 91.909091 L 16.151515 91.909091 L 16.151515 16.151515 L 31.303030 16.151515 L 31.303030 1.000000 L 1.000000 1.000000 Z" transform="scale(1.000000,1.000000) translate(241.424242,89.909091)" fill="#ffffff" opacity="1.000000"/>
    <path d="M 1.000000 16.151515 L 16.151515 16.151515 L 16.151515 1.000000 L 1.000000 1.000000 L 1.000000 16.151515 Z" transform="scale(1.000000,1.000000) translate(195.969697,150.515152)" fill="#0069b2" opacity="1.000000"/>
    <path d="M 1.000000 16.151515 L 16.151515 16.151515 L 16.151515 1.000000 L 1.000000 1.000000 Z" transform="scale(1.000000,1.000000) translate(286.878788,150.515152)" fill="#0069b2" opacity="1.000000"/>
    <path d="M 1.000000 122.212121 L 31.303030 122.212121 L 31.303030 91.909091 L 16.151515 91.909091 L 16.151515 61.606061 L 46.454545 61.606061 L 46.454545 46.454545 L 76.757576 46.454545 L 76.757576 31.303030 L 46.454545 31.303030 L 46.454545 16.151515 L 61.606061 16.151515 L 61.606061 1.000000 L 1.000000 1.000000 L 1.000000 16.151515 L 31.303030 16.151515 L 31.303030 46.454545 L 1.000000 46.454545 Z" transform="scale(1.000000,1.000000) translate(150.515152,29.303030)" fill="#0069b2" opacity="1.000000"/>
    <path d="M 1.000000 16.151515 L 16.151515 16.151515 L 16.151515 1.000000 L 1.000000 1.000000 Z" transform="scale(1.000000,1.000000) translate(302.030303,135.363636)" fill="#0069b2" opacity="1.000000"/>
    <path d="M 1.000000 46.454545 L 46.454545 46.454545 L 46.454545 1.000000 L 1.000000 1.000000 L 1.000000 46.454545 Z M 16.151515 31.303030 L 16.151515 16.151515 L 31.303030 16.151515 L 31.303030 31.303030 L 16.151515 31.303030 Z" transform="scale(1.000000,1.000000) translate(347.484848,105.060606)" fill="#ffffff" opacity="1.000000"/>
    <path d="M 1.000000 107.060606 L 107.060606 107.060606 L 107.060606 1.000000 L 1.000000 1.000000 L 1.000000 107.060606 Z M 17.017316 91.043290 L 17.017316 17.017316 L 91.043290 17.017316 L 91.043290 91.043290 L 17.017316 91.043290 Z" transform="scale(1.000000,1.000000) translate(29.303030,29.303030)" fill="#0069b2" opacity="1.000000"/>
    <path d="M 1.000000 16.151515 L 16.151515 16.151515 L 16.151515 1.000000 L 1.000000 1.000000 L 1.000000 16.151515 Z" transform="scale(1.000000,1.000000) translate(195.969697,120.212121)" fill="#0069b2" opacity="1.000000"/>
    <path d="M 1.000000 16.151515 L 16.151515 16.151515 L 16.151515 1.000000 L 1.000000 1.000000 L 1.000000 16.151515 Z" transform="scale(1.000000,1.000000) translate(362.636364,120.212121)" fill="#0069b2" opacity="1.000000"/>
    <path d="M 1.000000 16.151515 L 16.151515 16.151515 L 16.151515 1.000000 L 1.000000 1.000000 Z" transform="scale(1.000000,1.000000) translate(271.727273,105.060606)" fill="#ffffff" opacity="1.000000"/>
    <path d="M 61.606061 76.757576 L 91.909091 76.757576 L 91.909091 1.000000 L 76.757576 1.000000 L 76.757576 16.151515 L 61.606061 16.151515 L 61.606061 1.000000 L 16.151515 1.000000 L 16.151515 16.151515 L 1.000000 16.151515 L 1.000000 16.151515 L 1.000000 31.303030 L 31.303030 31.303030 L 31.303030 16.151515 L 46.454545 16.151515 L 46.454545 31.303030 L 76.757576 31.303030 L 76.757576 46.454545 L 61.606061 46.454545 Z" transform="scale(1.000000,1.000000) translate(377.787879,44.454545)" fill="#0069b2" opacity="1.000000"/>
    <path d="M 1.000000 75.025974 L 75.025974 75.025974 L 75.025974 1.000000 L 1.000000 1.000000 L 1.000000 75.025974 Z M 15.285714 60.740260 L 15.285714 15.285714 L 60.740260 15.285714 L 60.740260 60.740260 L 15.285714 60.740260 Z" transform="scale(1.000000,1.000000) translate(45.320346,45.320346)" fill="#ffffff" opacity="1.000000"/>
    <path d="M 1.000000 46.454545 L 46.454545 46.454545 L 46.454545 1.000000 L 1.000000 1.000000 L 1.000000 46.454545 Z" transform="scale(1.000000,1.000000) translate(59.606061,59.606061)" fill="#0069b2" opacity="1.000000"/>
    <path d="M 1.000000 16.151515 L 31.303030 16.151515 L 31.303030 1.000000 L 1.000000 1.000000 Z" transform="scale(1.000000,1.000000) translate(195.969697,74.757576)" fill="#ffffff" opacity="1.000000"/>
    <path d="M 1.000000 16.151515 L 16.151515 16.151515 L 16.151515 1.000000 L 1.000000 1.000000 Z" transform="scale(1.000000,1.000000) translate(362.636364,44.454545)" fill="#0069b2" opacity="1.000000"/>
    <path d="M 1.000000 16.151515 L 16.151515 16.151515 L 16.151515 16.151515 L 16.151515 1.000000 L 1.000000 1.000000 Z" transform="scale(1.000000,1.000000) translate(226.272727,29.303030)" fill="#0069b2" opacity="1.000000"/>
  </g>
</svg>