<?xml version="1.0" encoding="UTF-8" standalone="no"?>
<!DOCTYPE svg PUBLIC "-//W3C//DTD SVG 1.1//EN" "http://www.w3.org/Graphics/SVG/1.1/DTD/svg11.dtd">
<svg xmlns="http://www.w3.org/2000/svg" xmlns:xlink="http://www.w3.org/1999/xlink" version="1.1" width="1200pt" height="1200pt" viewBox="0 0 1200 1200">
<g enable-background="new">
<clipPath id="cp0">
<path transform="matrix(.75,0,0,.75,0,0)" d="M 0 0 L 1600 0 L 1600 1600 L 0 1600 Z "/>
</clipPath>
<g clip-path="url(#cp0)">
<path transform="matrix(.99999979,0,0,.99999979,0,0)" d="M 0 0 L 1200 0 L 1200 1200 L 0 1200 Z " fill="#ffffff"/>
</g>
<clipPath id="cp1">
<path transform="matrix(.75,0,0,.75,0,0)" d="M 0 0 L 1600 0 L 1600 1600 L 0 1600 Z "/>
</clipPath>
<g clip-path="url(#cp1)">
<path transform="matrix(.99999979,0,0,.99999979,455.27534,320.85758)" stroke-width="18" stroke-linecap="butt" stroke-linejoin="round" fill="none" stroke="#5928b1" d="M 52.59 0 L 52.59 0 C 47.516668 0 43.25 -1.73 39.79 -5.19 C 36.33 -8.65 34.6 -12.916667 34.6 -17.99 L 34.6 -252.22 C 34.6 -257.52668 36.33 -261.85334 39.79 -265.2 C 43.25 -268.54667 47.516668 -270.22 52.59 -270.22 L 115.21 -270.22 C 141.27667 -270.22 164.46 -264.45335 184.76 -252.92 C 205.05333 -241.38668 220.85334 -225.41333 232.16 -205 C 243.46 -184.58667 249.11 -161.34667 249.11 -135.28 C 249.11 -109.21333 243.46 -85.916667 232.16 -65.39 C 220.85334 -44.863336 205.05333 -28.833333 184.76 -17.3 C 164.46 -5.766667 141.27667 0 115.21 0 L 52.59 0 Z M 70.58 -31.83 L 115.21 -31.83 C 134.35668 -31.83 151.48334 -36.213335 166.59 -44.98 C 181.69667 -53.746667 193.46 -66.03 201.88 -81.83 C 210.3 -97.63 214.51 -115.44667 214.51 -135.28 C 214.51 -155.12 210.3 -172.88 201.88 -188.56 C 193.46 -204.24668 181.69667 -216.47333 166.59 -225.24 C 151.48334 -234 134.35668 -238.38 115.21 -238.38 L 70.58 -238.38 L 70.58 -31.83 Z M 323.15 0 L 323.15 0 C 318.07667 0 313.86668 -1.73 310.52 -5.19 C 307.18 -8.65 305.51 -12.916667 305.51 -17.99 L 305.51 -252.22 C 305.51 -257.3 307.24 -261.57 310.7 -265.03 C 314.16 -268.49 318.31 -270.22 323.15 -270.22 C 328.22334 -270.22 332.49 -268.49 335.95 -265.03 C 339.41 -261.57 341.14 -257.3 341.14 -252.22 L 341.14 -35.98 L 466.39 -35.98 C 471.46333 -35.98 475.73 -34.25 479.19 -30.79 C 482.65 -27.33 484.38 -23.063334 484.38 -17.99 C 484.38 -12.916667 482.65 -8.65 479.19 -5.19 C 475.73 -1.73 471.46333 0 466.39 0 L 323.15 0 Z M 699.93 -270.22 L 699.93 -270.22 C 704.7767 -270.22 708.75668 -268.66 711.87 -265.54 C 714.98336 -262.42668 716.54 -258.45 716.54 -253.61 C 716.54 -248.76334 714.98336 -244.78334 711.87 -241.67 C 708.75668 -238.55667 704.7767 -237 699.93 -237 L 625.54 -237 L 625.54 -17.99 C 625.54 -12.916667 623.81 -8.65 620.35 -5.19 C 616.89 -1.73 612.62338 0 607.55 0 C 602.4767 0 598.21 -1.73 594.75 -5.19 C 591.29 -8.65 589.56 -12.916667 589.56 -17.99 L 589.56 -237 L 514.83 -237 C 509.98335 -237 506.00334 -238.55667 502.89 -241.67 C 499.77668 -244.78334 498.22 -248.76334 498.22 -253.61 C 498.22 -258.45 499.77668 -262.42668 502.89 -265.54 C 506.00334 -268.66 509.98335 -270.22 514.83 -270.22 L 699.93 -270.22 Z "/>
<path transform="matrix(.99999979,0,0,.99999979,455.27534,320.85758)" d="M 52.59 0 L 52.59 0 C 47.516668 0 43.25 -1.73 39.79 -5.19 C 36.33 -8.65 34.6 -12.916667 34.6 -17.99 L 34.6 -252.22 C 34.6 -257.52668 36.33 -261.85334 39.79 -265.2 C 43.25 -268.54667 47.516668 -270.22 52.59 -270.22 L 115.21 -270.22 C 141.27667 -270.22 164.46 -264.45335 184.76 -252.92 C 205.05333 -241.38668 220.85334 -225.41333 232.16 -205 C 243.46 -184.58667 249.11 -161.34667 249.11 -135.28 C 249.11 -109.21333 243.46 -85.916667 232.16 -65.39 C 220.85334 -44.863336 205.05333 -28.833333 184.76 -17.3 C 164.46 -5.766667 141.27667 0 115.21 0 L 52.59 0 Z M 70.58 -31.83 L 115.21 -31.83 C 134.35668 -31.83 151.48334 -36.213335 166.59 -44.98 C 181.69667 -53.746667 193.46 -66.03 201.88 -81.83 C 210.3 -97.63 214.51 -115.44667 214.51 -135.28 C 214.51 -155.12 210.3 -172.88 201.88 -188.56 C 193.46 -204.24668 181.69667 -216.47333 166.59 -225.24 C 151.48334 -234 134.35668 -238.38 115.21 -238.38 L 70.58 -238.38 L 70.58 -31.83 Z M 323.15 0 L 323.15 0 C 318.07667 0 313.86668 -1.73 310.52 -5.19 C 307.18 -8.65 305.51 -12.916667 305.51 -17.99 L 305.51 -252.22 C 305.51 -257.3 307.24 -261.57 310.7 -265.03 C 314.16 -268.49 318.31 -270.22 323.15 -270.22 C 328.22334 -270.22 332.49 -268.49 335.95 -265.03 C 339.41 -261.57 341.14 -257.3 341.14 -252.22 L 341.14 -35.98 L 466.39 -35.98 C 471.46333 -35.98 475.73 -34.25 479.19 -30.79 C 482.65 -27.33 484.38 -23.063334 484.38 -17.99 C 484.38 -12.916667 482.65 -8.65 479.19 -5.19 C 475.73 -1.73 471.46333 0 466.39 0 L 323.15 0 Z M 699.93 -270.22 L 699.93 -270.22 C 704.7767 -270.22 708.75668 -268.66 711.87 -265.54 C 714.98336 -262.42668 716.54 -258.45 716.54 -253.61 C 716.54 -248.76334 714.98336 -244.78334 711.87 -241.67 C 708.75668 -238.55667 704.7767 -237 699.93 -237 L 625.54 -237 L 625.54 -17.99 C 625.54 -12.916667 623.81 -8.65 620.35 -5.19 C 616.89 -1.73 612.62338 0 607.55 0 C 602.4767 0 598.21 -1.73 594.75 -5.19 C 591.29 -8.65 589.56 -12.916667 589.56 -17.99 L 589.56 -237 L 514.83 -237 C 509.98335 -237 506.00334 -238.55667 502.89 -241.67 C 499.77668 -244.78334 498.22 -248.76334 498.22 -253.61 C 498.22 -258.45 499.77668 -262.42668 502.89 -265.54 C 506.00334 -268.66 509.98335 -270.22 514.83 -270.22 L 699.93 -270.22 Z " fill="#764bc4"/>
</g>
<clipPath id="cp2">
<path transform="matrix(.75,0,0,.75,0,0)" d="M 0 0 L 1600 0 L 1600 1600 L 0 1600 Z "/>
</clipPath>
<g clip-path="url(#cp2)">
<path transform="matrix(.99999979,0,0,.99999979,306.6551,451.30653)" d="M 16.03 0 L 16.03 0 C 14.803333 0 13.746667 -.443333 12.86 -1.33 C 11.973333 -2.21 11.53 -3.266667 11.53 -4.5 L 11.53 -85.57 C 11.53 -86.80333 11.973333 -87.863338 12.86 -88.75 C 13.746667 -89.63 14.803333 -90.07 16.03 -90.07 C 17.336667 -90.07 18.413334 -89.64667 19.26 -88.8 C 20.106667 -87.95333 20.53 -86.87666 20.53 -85.57 L 20.53 -8.53 L 65.62 -8.53 C 66.92667 -8.53 68.003337 -8.126667 68.85 -7.32 C 69.69667 -6.513333 70.12 -5.496667 70.12 -4.27 C 70.12 -3.036667 69.69667 -2.016667 68.85 -1.21 C 68.003337 -.403333 66.92667 0 65.62 0 L 16.03 0 Z M 135.17 -63.66 L 135.17 -63.66 C 141.16333 -63.66 146.6 -62.256669 151.48 -59.45 C 156.36667 -56.643335 160.21334 -52.78 163.02 -47.86 C 165.82666 -42.94 167.23 -37.48 167.23 -31.48 L 167.23 -4.38 C 167.23 -3.153333 166.80667 -2.116667 165.96 -1.27 C 165.11333 -.423333 164.03667 0 162.73 0 C 161.42334 0 160.34667 -.403333 159.5 -1.21 C 158.65334 -2.016667 158.23 -3.073333 158.23 -4.38 L 158.23 -11.3 C 155.53667 -7.613333 152.11667 -4.71 147.97 -2.59 C 143.81667 -.476667 139.24 .58 134.24 .58 C 128.4 .58 123.11667 -.823333 118.39 -3.63 C 113.65667 -6.436667 109.92667 -10.283333 107.2 -15.17 C 104.46667 -20.05 103.1 -25.486668 103.1 -31.48 C 103.1 -37.48 104.503337 -42.94 107.31 -47.86 C 110.11667 -52.78 113.96333 -56.643335 118.85 -59.45 C 123.73 -62.256669 129.17 -63.66 135.17 -63.66 Z M 135.17 -7.5 L 135.17 -7.5 C 139.55 -7.5 143.50667 -8.536667 147.04 -10.61 C 150.58 -12.683333 153.37 -15.546667 155.41 -19.2 C 157.44333 -22.853333 158.46 -26.946667 158.46 -31.48 C 158.46 -36.02 157.44333 -40.11667 155.41 -43.77 C 153.37 -47.423334 150.58 -50.306669 147.04 -52.42 C 143.50667 -54.533334 139.55 -55.59 135.17 -55.59 C 130.78334 -55.59 126.80333 -54.533334 123.23 -52.42 C 119.65667 -50.306669 116.85 -47.423334 114.81 -43.77 C 112.77 -40.11667 111.75 -36.02 111.75 -31.48 C 111.75 -26.946667 112.77 -22.853333 114.81 -19.2 C 116.85 -15.546667 119.65667 -12.683333 123.23 -10.61 C 126.80333 -8.536667 130.78334 -7.5 135.17 -7.5 Z M 237.46 -63.78 L 237.46 -63.78 C 242.92 -63.78 247.82334 -62.626668 252.17 -60.32 C 256.51 -58.013334 259.91 -54.65 262.37 -50.23 C 264.83 -45.803335 266.06 -40.516668 266.06 -34.37 L 266.06 -4.38 C 266.06 -3.153333 265.64 -2.116667 264.8 -1.27 C 263.95335 -.423333 262.91334 0 261.68 0 C 260.37333 0 259.29667 -.423333 258.45 -1.27 C 257.60334 -2.116667 257.18 -3.153333 257.18 -4.38 L 257.18 -34.37 C 257.18 -41.21 255.27667 -46.42 251.47 -50 C 247.67 -53.573335 242.69333 -55.36 236.54 -55.36 C 232.77333 -55.36 229.37 -54.63 226.33 -53.17 C 223.29666 -51.71 220.89333 -49.69 219.12 -47.11 C 217.35334 -44.536668 216.47 -41.673334 216.47 -38.52 L 216.47 -4.38 C 216.47 -3.073333 216.06667 -2.016667 215.26 -1.21 C 214.45334 -.403333 213.39667 0 212.09 0 C 210.78334 0 209.70667 -.403333 208.86 -1.21 C 208.01334 -2.016667 207.59 -3.073333 207.59 -4.38 L 207.59 -58.59 C 207.59 -59.896669 208.01334 -60.97333 208.86 -61.82 C 209.70667 -62.66 210.78334 -63.08 212.09 -63.08 C 213.39667 -63.08 214.45334 -62.66 215.26 -61.82 C 216.06667 -60.97333 216.47 -59.896669 216.47 -58.59 L 216.47 -54.67 C 219.01 -57.51 222.08667 -59.736669 225.7 -61.35 C 229.31334 -62.97 233.23334 -63.78 237.46 -63.78 Z M 369.4 -59.74 L 369.4 -59.74 C 369.47334 -59.506669 369.51 -59.16 369.51 -58.7 L 369.51 -31.6 C 369.51 -25.6 368.10667 -20.14 365.3 -15.22 C 362.49336 -10.3 358.65 -6.436667 353.77 -3.63 C 348.89 -.823333 343.45 .58 337.45 .58 C 331.45668 .58 326.01667 -.823333 321.13 -3.63 C 316.25 -6.436667 312.40669 -10.3 309.6 -15.22 C 306.79335 -20.14 305.39 -25.6 305.39 -31.6 C 305.39 -37.6 306.75666 -43.04 309.49 -47.92 C 312.21669 -52.8 315.94334 -56.643335 320.67 -59.45 C 325.39668 -62.256669 330.68333 -63.66 336.53 -63.66 C 341.53 -63.66 346.10334 -62.603334 350.25 -60.49 C 354.40333 -58.376668 357.82667 -55.47333 360.52 -51.78 L 360.52 -85.57 C 360.52 -86.87666 360.94334 -87.95333 361.79 -88.8 C 362.63667 -89.64667 363.71333 -90.07 365.02 -90.07 C 366.32667 -90.07 367.38334 -89.64667 368.19 -88.8 C 368.99668 -87.95333 369.4 -86.87666 369.4 -85.57 L 369.4 -59.74 Z M 337.45 -7.5 L 337.45 -7.5 C 341.83668 -7.5 345.79667 -8.556667 349.33 -10.67 C 352.87 -12.783333 355.65669 -15.666667 357.69 -19.32 C 359.73 -22.973334 360.75 -27.066668 360.75 -31.6 C 360.75 -32.906667 360.71 -33.86667 360.63 -34.48 C 360.55668 -34.63333 360.52 -34.826669 360.52 -35.06 C 359.74668 -41.06 357.22666 -45.98 352.96 -49.82 C 348.69334 -53.666669 343.52336 -55.59 337.45 -55.59 C 333.07 -55.59 329.09333 -54.55 325.52 -52.47 C 321.94 -50.396669 319.13334 -47.533334 317.1 -43.88 C 315.06 -40.226667 314.04 -36.13333 314.04 -31.6 C 314.04 -27.066668 315.06 -22.973334 317.1 -19.32 C 319.13334 -15.666667 321.94 -12.783333 325.52 -10.67 C 329.09333 -8.556667 333.07 -7.5 337.45 -7.5 Z M 435.37 .58 L 435.37 .58 C 430.60334 .58 426.02668 -.23 421.64 -1.85 C 417.26 -3.463333 413.72334 -5.73 411.03 -8.65 C 410.26335 -9.57 409.88 -10.453333 409.88 -11.3 C 409.88 -12.606667 410.49336 -13.76 411.72 -14.76 C 412.64668 -15.453333 413.61 -15.8 414.61 -15.8 C 415.91667 -15.8 417.03 -15.263333 417.95 -14.19 C 419.79667 -12.036667 422.24 -10.383333 425.28 -9.23 C 428.31333 -8.076667 431.67668 -7.5 435.37 -7.5 C 440.75 -7.5 444.78669 -8.42 447.48 -10.26 C 450.16667 -12.106667 451.55 -14.53 451.63 -17.53 C 451.63 -20.296668 450.28334 -22.603333 447.59 -24.45 C 444.89668 -26.296668 440.63 -27.68 434.79 -28.6 C 427.25666 -29.833333 421.62333 -31.966668 417.89 -35 C 414.16334 -38.04 412.3 -41.713335 412.3 -46.02 C 412.3 -51.63333 414.47334 -55.976667 418.82 -59.05 C 423.16 -62.123334 428.6 -63.66 435.14 -63.66 C 440.21333 -63.66 444.63334 -62.796667 448.4 -61.07 C 452.16667 -59.336668 455.20335 -56.933336 457.51 -53.86 C 458.12333 -52.86 458.43 -51.976667 458.43 -51.21 C 458.43 -49.90333 457.81669 -48.863336 456.59 -48.09 C 456.05 -47.71 455.32 -47.52 454.4 -47.52 C 452.78 -47.52 451.43333 -48.09667 450.36 -49.25 C 446.59333 -53.55 441.44334 -55.7 434.91 -55.7 C 430.67668 -55.7 427.29335 -54.836668 424.76 -53.11 C 422.22 -51.376668 420.95 -49.203336 420.95 -46.59 C 420.95 -43.823335 422.14335 -41.613336 424.53 -39.96 C 426.91 -38.306669 431.13667 -36.98 437.21 -35.98 C 445.43669 -34.6 451.32 -32.353334 454.86 -29.24 C 458.39335 -26.126667 460.16 -22.263333 460.16 -17.65 C 460.16 -14.11 459.10334 -10.956667 456.99 -8.19 C 454.87669 -5.423333 451.93669 -3.27 448.17 -1.73 C 444.40333 -.19 440.13667 .58 435.37 .58 Z M 526.71 .58 L 526.71 .58 C 520.71 .58 515.32669 -.823333 510.56 -3.63 C 505.79335 -6.436667 502.04667 -10.283333 499.32 -15.17 C 496.58668 -20.05 495.22 -25.486668 495.22 -31.48 C 495.22 -37.63333 496.52668 -43.15 499.14 -48.03 C 501.75334 -52.916669 505.36668 -56.743333 509.98 -59.51 C 514.5933 -62.27667 519.7833 -63.66 525.55 -63.66 C 535.1633 -63.66 542.97 -59.97 548.97 -52.59 C 549.5833 -51.896669 549.89 -51.09 549.89 -50.17 C 549.89 -48.93667 549.2367 -47.86 547.93 -46.94 C 547.2367 -46.48 546.50668 -46.25 545.74 -46.25 C 544.5867 -46.25 543.47 -46.826669 542.39 -47.98 C 540.0833 -50.513334 537.5467 -52.416669 534.78 -53.69 C 532.0133 -54.95667 528.93667 -55.59 525.55 -55.59 C 521.3233 -55.59 517.55667 -54.57 514.25 -52.53 C 510.94334 -50.496667 508.38667 -47.63333 506.58 -43.94 C 504.77336 -40.246667 503.87 -36.093336 503.87 -31.48 C 503.87 -26.946667 504.83335 -22.853333 506.76 -19.2 C 508.68 -15.546667 511.37 -12.683333 514.83 -10.61 C 518.29 -8.536667 522.25 -7.5 526.71 -7.5 C 532.8567 -7.5 537.81338 -9.153333 541.58 -12.46 C 542.58 -13.3 543.62 -13.72 544.7 -13.72 C 545.62 -13.72 546.4667 -13.413333 547.24 -12.8 C 548.31338 -11.88 548.85 -10.843333 548.85 -9.69 C 548.85 -8.69 548.4667 -7.843333 547.7 -7.15 C 542.16 -1.996667 535.1633 .58 526.71 .58 Z M 619.09 -63.66 L 619.09 -63.66 C 625.0833 -63.66 630.52 -62.256669 635.4 -59.45 C 640.2867 -56.643335 644.13339 -52.78 646.94 -47.86 C 649.74667 -42.94 651.15 -37.48 651.15 -31.48 L 651.15 -4.38 C 651.15 -3.153333 650.7267 -2.116667 649.88 -1.27 C 649.0333 -.423333 647.95669 0 646.65 0 C 645.3433 0 644.26669 -.403333 643.42 -1.21 C 642.5733 -2.016667 642.15 -3.073333 642.15 -4.38 L 642.15 -11.3 C 639.45669 -7.613333 636.0367 -4.71 631.89 -2.59 C 627.7367 -.476667 623.16 .58 618.16 .58 C 612.32 .58 607.0367 -.823333 602.31 -3.63 C 597.57669 -6.436667 593.8467 -10.283333 591.12 -15.17 C 588.38668 -20.05 587.02 -25.486668 587.02 -31.48 C 587.02 -37.48 588.42337 -42.94 591.23 -47.86 C 594.0367 -52.78 597.88339 -56.643335 602.77 -59.45 C 607.65 -62.256669 613.09 -63.66 619.09 -63.66 Z M 619.09 -7.5 L 619.09 -7.5 C 623.47 -7.5 627.4267 -8.536667 630.96 -10.61 C 634.5 -12.683333 637.29 -15.546667 639.33 -19.2 C 641.36337 -22.853333 642.38 -26.946667 642.38 -31.48 C 642.38 -36.02 641.36337 -40.11667 639.33 -43.77 C 637.29 -47.423334 634.5 -50.306669 630.96 -52.42 C 627.4267 -54.533334 623.47 -55.59 619.09 -55.59 C 614.7033 -55.59 610.7233 -54.533334 607.15 -52.42 C 603.57669 -50.306669 600.77 -47.423334 598.73 -43.77 C 596.69 -40.11667 595.67 -36.02 595.67 -31.48 C 595.67 -26.946667 596.69 -22.853333 598.73 -19.2 C 600.77 -15.546667 603.57669 -12.683333 607.15 -10.61 C 610.7233 -8.536667 614.7033 -7.5 619.09 -7.5 Z M 723.57 -63.66 L 723.57 -63.66 C 729.57 -63.66 735.01 -62.256669 739.89 -59.45 C 744.7767 -56.643335 748.62338 -52.78 751.43 -47.86 C 754.23 -42.94 755.63 -37.48 755.63 -31.48 C 755.63 -25.486668 754.26669 -20.05 751.54 -15.17 C 748.81338 -10.283333 745.0833 -6.436667 740.35 -3.63 C 735.62338 -.823333 730.34 .58 724.5 .58 C 719.5 .58 714.92337 -.476667 710.77 -2.59 C 706.61666 -4.71 703.19668 -7.613333 700.51 -11.3 L 700.51 22.49 C 700.51 23.796668 700.0867 24.873333 699.24 25.72 C 698.3933 26.566668 697.31668 26.99 696.01 26.99 C 694.7033 26.99 693.64669 26.566668 692.84 25.72 C 692.0333 24.873333 691.63 23.796668 691.63 22.49 L 691.63 -3.34 C 691.55 -3.573333 691.51 -3.92 691.51 -4.38 L 691.51 -31.48 C 691.51 -37.48 692.9133 -42.94 695.72 -47.86 C 698.5267 -52.78 702.37 -56.643335 707.25 -59.45 C 712.13668 -62.256669 717.57669 -63.66 723.57 -63.66 Z M 723.57 -7.5 L 723.57 -7.5 C 727.95669 -7.5 731.93667 -8.536667 735.51 -10.61 C 739.0833 -12.683333 741.89 -15.546667 743.93 -19.2 C 745.97 -22.853333 746.99 -26.946667 746.99 -31.48 C 746.99 -36.02 745.97 -40.11667 743.93 -43.77 C 741.89 -47.423334 739.0833 -50.306669 735.51 -52.42 C 731.93667 -54.533334 727.95669 -55.59 723.57 -55.59 C 719.19 -55.59 715.23 -54.533334 711.69 -52.42 C 708.1567 -50.306669 705.37 -47.423334 703.33 -43.77 C 701.2967 -40.11667 700.28 -36.02 700.28 -31.48 C 700.28 -30.173333 700.31668 -29.213334 700.39 -28.6 C 700.47 -28.446667 700.51 -28.253333 700.51 -28.02 C 701.2767 -22.026667 703.79336 -17.106667 708.06 -13.26 C 712.32669 -9.42 717.49667 -7.5 723.57 -7.5 Z M 822.99 -63.66 L 822.99 -63.66 C 828.6767 -63.66 833.7133 -62.333333 838.1 -59.68 C 842.48 -57.02667 845.88 -53.356668 848.3 -48.67 C 850.72 -43.976667 851.93 -38.63333 851.93 -32.64 C 851.93 -31.406668 851.5467 -30.426667 850.78 -29.7 C 850.0133 -28.966668 849.0133 -28.6 847.78 -28.6 L 801.19 -28.6 C 801.80337 -22.293334 804.2633 -17.18 808.57 -13.26 C 812.87667 -9.34 818.26 -7.38 824.72 -7.38 C 827.4867 -7.38 830.2733 -7.86 833.08 -8.82 C 835.88668 -9.78 838.13668 -10.993333 839.83 -12.46 C 840.8233 -13.226667 841.86 -13.61 842.94 -13.61 C 843.7867 -13.61 844.63339 -13.303333 845.48 -12.69 C 846.48 -11.763333 846.98 -10.723333 846.98 -9.57 C 846.98 -8.57 846.55667 -7.686667 845.71 -6.92 C 843.17 -4.766667 839.94 -2.98 836.02 -1.56 C 832.1 -.133333 828.3333 .58 824.72 .58 C 818.56668 .58 813.06668 -.786667 808.22 -3.52 C 803.38 -6.246667 799.5967 -10.053333 796.87 -14.94 C 794.13668 -19.82 792.77 -25.333333 792.77 -31.48 C 792.77 -37.713335 794.05667 -43.27 796.63 -48.15 C 799.21 -53.03 802.7867 -56.836668 807.36 -59.57 C 811.93338 -62.296667 817.1433 -63.66 822.99 -63.66 Z M 822.99 -55.7 L 822.99 -55.7 C 817.1433 -55.7 812.3 -53.893335 808.46 -50.28 C 804.61337 -46.666669 802.26669 -41.9 801.42 -35.98 L 843.63 -35.98 C 843.01669 -41.9 840.86337 -46.666669 837.17 -50.28 C 833.48336 -53.893335 828.75668 -55.7 822.99 -55.7 Z " fill="#5928b1"/>
</g>
<clipPath id="cp3">
<path transform="matrix(.75,0,0,.75,0,0)" d="M 0 0 L 1600 0 L 1600 1600 L 0 1600 Z "/>
</clipPath>
<g clip-path="url(#cp3)">
<path transform="matrix(4.83979,0,0,4.83979,-10.959572,13.986584)" d="M 50.637 19.677 C 50.637 16.97025 52.83125 14.776 55.538 14.776 C 58.24475 14.776 60.439 16.97025 60.439 19.677 C 60.439 22.38375 58.24475 24.578 55.538 24.578 C 52.83125 24.578 50.637 22.38375 50.637 19.677 Z M 18.572 42.596 C 18.572 39.8898 20.7658 37.696 23.472 37.696 C 26.1782 37.696 28.372 39.8898 28.372 42.596 C 28.372 45.3022 26.1782 47.496 23.472 47.496 C 20.7658 47.496 18.572 45.3022 18.572 42.596 Z M 40.835 65.145 C 40.835 62.43825 43.02925 60.244 45.736 60.244 C 48.44275 60.244 50.637 62.43825 50.637 65.145 C 50.637 67.85175 48.44275 70.046 45.736 70.046 C 43.02925 70.046 40.835 67.85175 40.835 65.145 Z M 8.067 82.662 C 8.067 79.95525 10.26125 77.761 12.968 77.761 C 15.67475 77.761 17.869 79.95525 17.869 82.662 C 17.869 85.36875 15.67475 87.563 12.968 87.563 C 10.26125 87.563 8.067 85.36875 8.067 82.662 Z M 76.592 25.552 C 76.592 22.84525 78.78625 20.651 81.493 20.651 C 84.19975 20.651 86.394 22.84525 86.394 25.552 C 86.394 28.25875 84.19975 30.453 81.493 30.453 C 78.78625 30.453 76.592 28.25875 76.592 25.552 Z M 42.79 89.1 C 42.79 86.3938 44.9838 84.2 47.69 84.2 C 50.3962 84.2 52.59 86.3938 52.59 89.1 C 52.59 91.8062 50.3962 94 47.69 94 C 44.9838 94 42.79 91.8062 42.79 89.1 Z M 12.968 83.811 C 12.823 83.811 12.681 83.784 12.549 83.733 C 12.448 83.692 12.352 83.639 12.264 83.571 C 12.114 83.454 11.991 83.298 11.911 83.114 C 11.891 83.067 11.874 83.018 11.861 82.971 L 4.046 56.078 C 3.91 55.607 4.085 55.103 4.484 54.82 L 55.687 18.434 C 56.142 18.111 56.762 18.161 57.16 18.551 C 57.558 18.941 57.617 19.561 57.303 20.021 L 16.579 79.428 L 45.194 64.131 C 45.36 64.043 45.547 63.996 45.736 63.996 L 92.342 63.996 L 80.492 26.358 L 58.655 7.024 C 58.18 6.603 58.135 5.877 58.557 5.401 C 58.977 4.926 59.704 4.881 60.179 5.302 L 82.254 24.847 C 82.41 24.986 82.526 25.164 82.589 25.363 L 95.006 64.8 C 95.115 65.148 95.053 65.529 94.836 65.823 C 94.619 66.12 94.275 66.294 93.909 66.294 L 46.024 66.294 L 13.532 83.664 C 13.481 83.691 13.428 83.717 13.373 83.738 C 13.304 83.763 13.232 83.783 13.161 83.795 C 13.097 83.807 13.032 83.811 12.968 83.811 Z M 6.482 56.221 L 13.394 80.006 L 51.75 24.053 Z M 45.737 66.295 C 45.66 66.295 45.582 66.287 45.504 66.272 C 45.503 66.272 45.502 66.272 45.502 66.272 C 45.485 66.268 45.47 66.264 45.455 66.26 C 45.452 66.26 45.451 66.26 45.449 66.258 C 45.236 66.203 45.053 66.094 44.91 65.946 L 10.716 31.75 L 6.281 55.965 C 6.167 56.59 5.567 57.002 4.943 56.889 C 4.318 56.774 3.905 56.174 4.019 55.551 L 8.848 29.181 C 8.924 28.761 9.229 28.418 9.636 28.29 C 10.044 28.163 10.49 28.272 10.791 28.575 L 45.083 62.867 L 54.979 20.211 L 26.484 13.027 C 25.958 12.895 25.596 12.413 25.616 11.871 C 25.636 11.329 26.032 10.874 26.565 10.78 L 59.218 5.031 C 59.598 4.964 59.987 5.093 60.251 5.372 C 60.517 5.652 60.624 6.047 60.537 6.423 L 57.727 18.532 L 81.773 24.594 C 82.164 24.693 82.475 24.99 82.592 25.376 C 82.708 25.762 82.614 26.182 82.343 26.481 L 46.603 65.9 C 46.538 65.976 46.462 66.043 46.379 66.097 C 46.379 66.099 46.378 66.099 46.378 66.099 C 46.377 66.099 46.377 66.099 46.376 66.099 L 46.375 66.101 L 46.374 66.101 C 46.357 66.113 46.342 66.122 46.325 66.132 L 46.324 66.132 C 46.323 66.132 46.323 66.132 46.322 66.134 L 46.321 66.134 L 46.32 66.134 C 46.146 66.238 45.945 66.295 45.737 66.295 Z M 57.209 20.773 L 47.855 61.096 L 79.354 26.356 Z M 32.262 12.112 L 55.499 17.97 L 57.905 7.597 Z M 47.69 90.25 C 47.621 90.25 47.55 90.244 47.48 90.23 L 12.758 83.791 C 12.134 83.676 11.722 83.076 11.837 82.451 C 11.953 81.828 12.554 81.414 13.177 81.531 L 46.422 87.695 L 44.602 65.388 L 25.682 12.298 C 25.468 11.7 25.781 11.042 26.379 10.829 C 26.977 10.616 27.634 10.928 27.848 11.526 L 46.819 64.76 C 46.852 64.854 46.874 64.951 46.881 65.053 L 48.836 89.006 C 48.864 89.363 48.726 89.713 48.46 89.953 C 48.248 90.145 47.973 90.25 47.69 90.25 Z M 47.689 90.25 C 47.506 90.25 47.322 90.207 47.149 90.115 C 46.588 89.814 46.377 89.119 46.675 88.558 L 80.478 25.167 C 80.777 24.607 81.473 24.395 82.034 24.693 C 82.594 24.992 82.805 25.689 82.508 26.249 L 48.705 89.641 C 48.498 90.029 48.101 90.25 47.689 90.25 Z " fill="#3b3b3b"/>
</g>
</g>
</svg>
